# Blender 4.4.3
# www.blender.org
mtllib zch_h.mtl
o zch_h
v 0.298971 1.812500 -0.334911
v 0.298971 1.875000 -0.334911
v 0.004421 1.812500 -0.472262
v 0.004421 1.875000 -0.472262
v 0.277841 1.875000 -0.289596
v 0.277841 1.812500 -0.289596
v -0.016710 1.875000 -0.426947
v -0.016710 1.812500 -0.426947
v 0.055575 2.183405 -0.147365
v 0.055575 2.156189 -0.256523
v 0.045607 2.161160 -0.141818
v 0.045607 2.133944 -0.250976
v -0.001741 2.180371 -0.262552
v -0.001741 2.207587 -0.153394
v -0.011710 2.158125 -0.257006
v -0.011710 2.185341 -0.147847
v 0.107160 2.161642 -0.141938
v 0.107160 2.137450 -0.238968
v 0.097191 2.139396 -0.136392
v 0.097191 2.115204 -0.233422
v 0.055575 2.159213 -0.244394
v 0.055575 2.183405 -0.147365
v 0.045607 2.136968 -0.238848
v 0.045607 2.161160 -0.141818
v 0.260123 2.095489 -0.132339
v 0.263723 2.075851 -0.204633
v 0.250155 2.073243 -0.126793
v 0.253754 2.053605 -0.199087
v 0.103457 2.141251 -0.230378
v 0.099858 2.160889 -0.158085
v 0.093489 2.119005 -0.224832
v 0.089889 2.138643 -0.152538
v 0.046201 2.050383 -0.216161
v 0.085603 2.111821 -0.317639
v 0.040451 1.928513 -0.292177
v 0.079853 1.989951 -0.393656
v -0.003289 2.130493 -0.340849
v -0.042690 2.069055 -0.239371
v -0.009039 2.008622 -0.416866
v -0.048441 1.947184 -0.315387
v 0.104712 2.022039 -0.210602
v 0.144114 2.083477 -0.312081
v 0.100462 1.931961 -0.266789
v 0.139864 1.993399 -0.368267
v 0.084853 2.095925 -0.327554
v 0.045451 2.034487 -0.226076
v 0.080603 2.005847 -0.383741
v 0.041201 1.944409 -0.282262
v 0.169649 2.003048 -0.196887
v 0.209051 2.064486 -0.298365
v 0.166399 1.934165 -0.239852
v 0.205801 1.995603 -0.341331
v 0.143864 2.078179 -0.315386
v 0.104462 2.016741 -0.213907
v 0.140614 2.009295 -0.358352
v 0.101212 1.947857 -0.256873
v 0.228411 1.980003 -0.188023
v 0.267812 2.041441 -0.289502
v 0.226410 1.937613 -0.214464
v 0.265812 1.999051 -0.315942
v 0.208551 2.053889 -0.304975
v 0.169149 1.992451 -0.203497
v 0.206551 2.011499 -0.331416
v 0.167149 1.950061 -0.229937
v 0.101996 2.145419 0.212689
v 0.108731 2.161678 0.101574
v 0.092546 2.122607 0.208778
v 0.099281 2.138866 0.097663
v -0.000980 2.207122 0.101574
v -0.007715 2.190863 0.212689
v -0.010429 2.184309 0.097663
v -0.017164 2.168050 0.208778
v 0.264797 2.081159 0.194169
v 0.270409 2.094709 0.101574
v 0.255348 2.058347 0.190259
v 0.260960 2.071896 0.097663
v 0.108731 2.161678 0.101574
v 0.103118 2.148129 0.194169
v 0.099281 2.138866 0.097663
v 0.093669 2.125316 0.190259
v 0.084603 2.090626 0.343359
v 0.045201 2.029188 0.241881
v 0.079853 1.989951 0.406155
v 0.040451 1.928513 0.304677
v -0.043690 2.047860 0.265091
v -0.004289 2.109298 0.366569
v -0.048441 1.947184 0.327887
v -0.009039 2.008622 0.429366
v 0.143114 2.062283 0.337801
v 0.103712 2.000845 0.236322
v 0.139864 1.993399 0.380767
v 0.100462 1.931961 0.279288
v 0.044451 2.013292 0.251796
v 0.083853 2.074730 0.353274
v 0.041201 1.944409 0.294762
v 0.080603 2.005847 0.396240
v 0.208051 2.043291 0.324085
v 0.168649 1.981853 0.222607
v 0.205801 1.995603 0.353831
v 0.166399 1.934165 0.252352
v 0.103462 1.995546 0.239627
v 0.142864 2.056984 0.341106
v 0.101212 1.947857 0.269373
v 0.140614 2.009295 0.370852
v 0.266812 2.020246 0.315222
v 0.227410 1.958808 0.213743
v 0.265812 1.999051 0.328442
v 0.226410 1.937613 0.226963
v 0.168149 1.971256 0.229217
v 0.207551 2.032694 0.330695
v 0.167149 1.950061 0.242437
v 0.206551 2.011499 0.343915
v 0.324061 2.009933 0.154444
v 0.324061 2.009933 -0.176806
v 0.332646 1.869571 0.154444
v 0.332646 1.869571 -0.176806
v 0.261678 2.006118 -0.176806
v 0.261678 2.006118 0.154444
v 0.270262 1.865755 -0.176806
v 0.270262 1.865755 0.154444
v 0.282381 2.092088 -0.191275
v 0.281259 2.042237 -0.305899
v 0.290330 2.012151 -0.156588
v 0.289209 1.962300 -0.271212
v 0.219020 2.037252 -0.303122
v 0.220142 2.087103 -0.188498
v 0.226970 1.957316 -0.268435
v 0.228091 2.007166 -0.153811
v 0.281035 2.032267 0.291323
v 0.282381 2.092088 0.153774
v 0.288984 1.952330 0.256637
v 0.290330 2.012151 0.119088
v 0.220142 2.087103 0.150998
v 0.218796 2.027282 0.288547
v 0.228091 2.007166 0.116311
v 0.226745 1.947346 0.253860
v 0.286457 1.591041 0.318891
v 0.271284 2.022019 0.320865
v 0.334370 1.593439 0.163633
v 0.319196 2.024417 0.165607
v 0.235475 2.020809 0.309796
v 0.250649 1.589831 0.307822
v 0.283387 2.023207 0.154538
v 0.298561 1.592229 0.152564
v 0.271065 2.100878 0.156250
v 0.271065 2.100878 -0.175000
v 0.326236 1.999264 0.156250
v 0.326236 1.999264 -0.175000
v 0.221631 2.074037 -0.175000
v 0.221631 2.074037 0.156250
v 0.276803 1.972424 -0.175000
v 0.276803 1.972424 0.156250
v 0.331250 1.868750 0.156250
v 0.331250 1.868750 -0.206250
v 0.331250 1.631250 0.156250
v 0.331250 1.631250 -0.206250
v 0.275000 1.868750 -0.206250
v 0.275000 1.868750 0.156250
v 0.275000 1.631250 -0.206250
v 0.275000 1.631250 0.156250
v 0.331250 1.631250 0.156250
v 0.331250 1.631250 -0.143750
v 0.331250 1.568750 0.156250
v 0.331250 1.568750 -0.143750
v 0.275000 1.631250 -0.143750
v 0.275000 1.631250 0.156250
v 0.275000 1.568750 -0.143750
v 0.275000 1.568750 0.156250
v 0.321915 1.863714 -0.186312
v 0.321629 2.007419 -0.182706
v 0.288930 1.866998 -0.319757
v 0.288644 2.010702 -0.316150
v 0.285224 2.007121 -0.173714
v 0.285510 1.863416 -0.177321
v 0.252239 2.010404 -0.307159
v 0.252525 1.866700 -0.310766
v 0.282381 2.086907 -0.189469
v 0.281315 2.039549 -0.298362
v 0.290330 2.006970 -0.154782
v 0.289265 1.959612 -0.263675
v 0.219076 2.034564 -0.295585
v 0.220142 2.081922 -0.186692
v 0.227026 1.954628 -0.260898
v 0.228091 2.001986 -0.152005
v -0.029412 2.137163 -0.200072
v 0.241978 2.035700 -0.151677
v -0.029412 2.079313 -0.321357
v 0.241978 1.977850 -0.272962
v 0.270679 2.098241 -0.181508
v -0.000710 2.199704 -0.229903
v 0.270679 2.040391 -0.302792
v -0.000710 2.141854 -0.351188
v -0.029412 2.165295 -0.044842
v 0.247752 2.051472 -0.029857
v -0.029412 2.147755 -0.178067
v 0.247752 2.033932 -0.163082
v 0.276453 2.120170 -0.038901
v -0.000710 2.233993 -0.053886
v 0.276453 2.102630 -0.172126
v -0.000710 2.216453 -0.187112
v -0.029412 2.146134 0.158886
v 0.247752 2.032590 0.141916
v -0.029412 2.165996 0.025987
v 0.247752 2.052452 0.009017
v 0.276453 2.101120 0.152158
v -0.000710 2.214664 0.169128
v 0.276453 2.120982 0.019259
v -0.000710 2.234526 0.036229
v -0.000710 2.009375 0.441264
v 0.270679 2.011337 0.328868
v -0.000710 1.600062 0.434119
v 0.270679 1.602024 0.321723
v 0.241978 2.012546 0.259587
v -0.029412 2.010584 0.371984
v 0.241978 1.603233 0.252443
v -0.029412 1.601272 0.364839
v -0.018978 2.010028 -0.408605
v 0.280004 2.007816 -0.266018
v -0.018856 1.875673 -0.410947
v 0.280127 1.873461 -0.268360
v 0.298839 2.008521 -0.305500
v -0.000144 2.010733 -0.448087
v 0.298961 1.874166 -0.307842
v -0.000021 1.876379 -0.450429
v 0.277855 2.117472 0.034867
v 0.006465 2.229885 0.034867
v 0.277855 2.117472 -0.055758
v 0.006465 2.229885 -0.055758
v -0.029412 2.143271 0.034867
v 0.241978 2.030858 0.034867
v -0.029412 2.143271 -0.055758
v 0.241978 2.030858 -0.055758
v -0.000710 2.203543 0.196660
v 0.270679 2.102081 0.148265
v -0.000710 2.118786 0.374356
v 0.270679 2.017324 0.325961
v 0.241978 2.039540 0.118434
v -0.029412 2.141002 0.166829
v 0.241978 1.954783 0.296131
v -0.029412 2.056245 0.344526
v 0.007715 2.190863 0.212689
v 0.000980 2.207122 0.101574
v 0.017164 2.168050 0.208778
v 0.010429 2.184309 0.097663
v -0.108731 2.161678 0.101574
v -0.101996 2.145419 0.212689
v -0.099281 2.138866 0.097663
v -0.092546 2.122607 0.208778
v -0.103118 2.148129 0.194169
v -0.108731 2.161678 0.101574
v -0.093669 2.125316 0.190259
v -0.099281 2.138866 0.097663
v -0.270409 2.094709 0.101574
v -0.264797 2.081159 0.194169
v -0.260960 2.071896 0.097663
v -0.255348 2.058347 0.190259
v -0.099858 2.160889 -0.158085
v -0.103457 2.141251 -0.230378
v -0.089889 2.138643 -0.152538
v -0.093489 2.119005 -0.224832
v -0.263723 2.075851 -0.204633
v -0.260123 2.095489 -0.132339
v -0.253754 2.053605 -0.199087
v -0.250155 2.073243 -0.126793
v -0.055575 2.183405 -0.147365
v -0.055575 2.159213 -0.244394
v -0.045607 2.161160 -0.141818
v -0.045607 2.136968 -0.238848
v -0.107160 2.137450 -0.238968
v -0.107160 2.161642 -0.141938
v -0.097191 2.115204 -0.233422
v -0.097191 2.139396 -0.136392
v 0.001741 2.207587 -0.153394
v 0.001741 2.180371 -0.262552
v 0.011710 2.185341 -0.147847
v 0.011710 2.158125 -0.257006
v -0.055575 2.156189 -0.256523
v -0.055575 2.183405 -0.147365
v -0.045607 2.133944 -0.250976
v -0.045607 2.161160 -0.141818
v 0.004289 2.109298 0.366569
v 0.043690 2.047860 0.265091
v 0.009039 2.008622 0.429366
v 0.048441 1.947184 0.327887
v -0.045201 2.029188 0.241881
v -0.084603 2.090626 0.343359
v -0.040451 1.928513 0.304677
v -0.079853 1.989951 0.406155
v -0.083853 2.074730 0.353274
v -0.044451 2.013292 0.251796
v -0.080603 2.005847 0.396240
v -0.041201 1.944409 0.294762
v -0.103712 2.000845 0.236322
v -0.143114 2.062283 0.337801
v -0.100462 1.931961 0.279288
v -0.139864 1.993399 0.380767
v -0.142864 2.056984 0.341106
v -0.103462 1.995546 0.239627
v -0.140614 2.009295 0.370852
v -0.101212 1.947857 0.269373
v -0.168649 1.981853 0.222607
v -0.208051 2.043291 0.324085
v -0.166399 1.934165 0.252352
v -0.205801 1.995603 0.353831
v -0.207551 2.032694 0.330695
v -0.168149 1.971256 0.229217
v -0.206551 2.011499 0.343915
v -0.167149 1.950061 0.242437
v -0.227410 1.958808 0.213743
v -0.266812 2.020246 0.315222
v -0.226410 1.937613 0.226963
v -0.265812 1.999051 0.328442
v -0.169149 1.992451 -0.203497
v -0.208551 2.053889 -0.304975
v -0.167149 1.950061 -0.229937
v -0.206551 2.011499 -0.331416
v -0.267812 2.041441 -0.289502
v -0.228411 1.980003 -0.188023
v -0.265812 1.999051 -0.315942
v -0.226410 1.937613 -0.214464
v -0.104462 2.016741 -0.213907
v -0.143864 2.078179 -0.315386
v -0.101212 1.947857 -0.256873
v -0.140614 2.009295 -0.358352
v -0.209051 2.064486 -0.298365
v -0.169649 2.003048 -0.196887
v -0.205801 1.995603 -0.341331
v -0.166399 1.934165 -0.239852
v -0.045451 2.034487 -0.226076
v -0.084853 2.095925 -0.327554
v -0.041201 1.944409 -0.282262
v -0.080603 2.005847 -0.383741
v -0.144114 2.083477 -0.312081
v -0.104712 2.022039 -0.210602
v -0.139864 1.993399 -0.368267
v -0.100462 1.931961 -0.266789
v 0.042690 2.069055 -0.239371
v 0.003289 2.130493 -0.340849
v 0.048441 1.947184 -0.315387
v 0.009039 2.008622 -0.416866
v -0.085603 2.111821 -0.317639
v -0.046201 2.050383 -0.216161
v -0.079853 1.989951 -0.393656
v -0.040451 1.928513 -0.292177
v -0.261678 2.006118 0.154444
v -0.261678 2.006118 -0.176806
v -0.270262 1.865755 0.154444
v -0.270262 1.865755 -0.176806
v -0.324061 2.009933 -0.176806
v -0.324061 2.009933 0.154444
v -0.332646 1.869571 -0.176806
v -0.332646 1.869571 0.154444
v -0.220142 2.087103 -0.188498
v -0.219020 2.037252 -0.303122
v -0.228091 2.007166 -0.153811
v -0.226970 1.957316 -0.268435
v -0.281259 2.042237 -0.305899
v -0.282381 2.092088 -0.191275
v -0.289209 1.962300 -0.271212
v -0.290330 2.012151 -0.156588
v -0.250649 1.589831 0.307822
v -0.235475 2.020809 0.309796
v -0.298561 1.592229 0.152564
v -0.283387 2.023207 0.154538
v -0.271284 2.022019 0.320865
v -0.286457 1.591041 0.318891
v -0.319196 2.024417 0.165607
v -0.334370 1.593439 0.163633
v -0.221631 2.074037 0.156250
v -0.221631 2.074037 -0.175000
v -0.276803 1.972424 0.156250
v -0.276803 1.972424 -0.175000
v -0.271065 2.100878 -0.175000
v -0.271065 2.100878 0.156250
v -0.326236 1.999264 -0.175000
v -0.326236 1.999264 0.156250
v -0.275000 1.868750 0.156250
v -0.275000 1.868750 -0.206250
v -0.275000 1.631250 0.156250
v -0.275000 1.631250 -0.206250
v -0.331250 1.868750 -0.206250
v -0.331250 1.868750 0.156250
v -0.331250 1.631250 -0.206250
v -0.331250 1.631250 0.156250
v -0.220142 2.081922 -0.186692
v -0.219076 2.034564 -0.295585
v -0.228091 2.001986 -0.152005
v -0.227026 1.954628 -0.260898
v -0.281315 2.039549 -0.298362
v -0.282381 2.086907 -0.189469
v -0.289265 1.959612 -0.263675
v -0.290330 2.006970 -0.154782
v -0.285510 1.863416 -0.177321
v -0.285224 2.007121 -0.173714
v -0.252525 1.866700 -0.310766
v -0.252239 2.010404 -0.307159
v -0.321629 2.007419 -0.182706
v -0.321915 1.863714 -0.186312
v -0.288644 2.010702 -0.316150
v -0.288930 1.866998 -0.319757
v -0.275000 1.631250 0.156250
v -0.275000 1.631250 -0.143750
v -0.275000 1.568750 0.156250
v -0.275000 1.568750 -0.143750
v -0.331250 1.631250 -0.143750
v -0.331250 1.631250 0.156250
v -0.331250 1.568750 -0.143750
v -0.331250 1.568750 0.156250
v -0.218796 2.027282 0.288547
v -0.220142 2.087103 0.150998
v -0.226745 1.947346 0.253860
v -0.228091 2.007166 0.116311
v -0.282381 2.092088 0.153774
v -0.281035 2.032267 0.291323
v -0.290330 2.012151 0.119088
v -0.288984 1.952330 0.256637
v 0.000710 2.199704 -0.229903
v -0.270679 2.098241 -0.181508
v 0.000710 2.141854 -0.351188
v -0.270679 2.040391 -0.302792
v -0.241978 2.035700 -0.151677
v 0.029412 2.137163 -0.200072
v -0.241978 1.977850 -0.272962
v 0.029412 2.079313 -0.321357
v 0.000710 2.233993 -0.053886
v -0.276453 2.120170 -0.038901
v 0.000710 2.216453 -0.187112
v -0.276453 2.102630 -0.172126
v -0.247752 2.051472 -0.029857
v 0.029412 2.165295 -0.044842
v -0.247752 2.033932 -0.163082
v 0.029412 2.147755 -0.178067
v 0.000710 2.214664 0.169128
v -0.276453 2.101120 0.152158
v 0.000710 2.234526 0.036229
v -0.276453 2.120982 0.019259
v -0.247752 2.032590 0.141916
v 0.029412 2.146134 0.158886
v -0.247752 2.052452 0.009017
v 0.029412 2.165996 0.025987
v 0.029412 2.010584 0.371984
v -0.241978 2.012546 0.259587
v 0.029412 1.601272 0.364839
v -0.241978 1.603233 0.252443
v -0.270679 2.011337 0.328868
v 0.000710 2.009375 0.441264
v -0.270679 1.602024 0.321723
v 0.000710 1.600062 0.434119
v 0.000144 2.010733 -0.448087
v -0.298839 2.008521 -0.305500
v 0.000021 1.876379 -0.450429
v -0.298961 1.874166 -0.307842
v -0.280004 2.007816 -0.266018
v 0.018978 2.010028 -0.408605
v -0.280127 1.873461 -0.268360
v 0.018856 1.875673 -0.410947
v 0.029412 2.141002 0.166829
v -0.241978 2.039540 0.118434
v 0.029412 2.056245 0.344526
v -0.241978 1.954783 0.296131
v -0.270679 2.102081 0.148265
v 0.000710 2.203543 0.196660
v -0.270679 2.017324 0.325961
v 0.000710 2.118786 0.374356
v -0.241978 2.030858 0.034867
v 0.029412 2.143271 0.034867
v -0.241978 2.030858 -0.055758
v 0.029412 2.143271 -0.055758
v -0.006465 2.229885 0.034867
v -0.277855 2.117472 0.034867
v -0.006465 2.229885 -0.055758
v -0.277855 2.117472 -0.055758
v 0.009561 1.643750 0.438102
v 0.031375 1.643750 0.372904
v 0.009561 1.593750 0.438102
v 0.031375 1.593750 0.372904
v -0.253122 1.643750 0.277713
v -0.274936 1.643750 0.342910
v -0.253122 1.593750 0.277713
v -0.274936 1.593750 0.342910
v -0.289402 1.645464 0.333971
v -0.241196 1.644699 0.320721
v -0.286238 1.597649 0.348243
v -0.238032 1.596884 0.334993
v -0.291143 1.588130 0.142272
v -0.339349 1.588895 0.155522
v -0.287979 1.540314 0.156544
v -0.336185 1.541080 0.169794
v -0.268750 1.812500 -0.156250
v -0.268750 1.812500 -0.218750
v -0.268750 1.650000 -0.156250
v -0.268750 1.650000 -0.218750
v -0.337500 1.812500 -0.218750
v -0.337500 1.812500 -0.156250
v -0.337500 1.650000 -0.218750
v -0.337500 1.650000 -0.156250
v -0.274384 1.812500 -0.209466
v -0.274384 1.875000 -0.209466
v -0.245655 1.812500 -0.324688
v -0.245655 1.875000 -0.324688
v -0.328963 1.875000 -0.223074
v -0.328963 1.812500 -0.223074
v -0.300235 1.875000 -0.338296
v -0.300235 1.812500 -0.338296
v -0.277841 1.812500 -0.289596
v -0.277841 1.875000 -0.289596
v 0.016710 1.812500 -0.426947
v 0.016710 1.875000 -0.426947
v -0.298971 1.875000 -0.334911
v -0.298971 1.812500 -0.334911
v -0.004421 1.875000 -0.472262
v -0.004421 1.812500 -0.472262
v -0.268750 1.544402 0.158524
v -0.268750 1.594334 0.155907
v -0.268750 1.530991 -0.097375
v -0.268750 1.580923 -0.099992
v -0.337500 1.594334 0.155907
v -0.337500 1.544402 0.158524
v -0.337500 1.580923 -0.099992
v -0.337500 1.530991 -0.097375
v -0.267275 1.778102 -0.182023
v -0.267275 1.809038 -0.151087
v -0.255097 1.839372 -0.243293
v -0.255097 1.870307 -0.212357
v -0.341545 1.816419 -0.158468
v -0.341545 1.785483 -0.189404
v -0.329367 1.877688 -0.219738
v -0.329367 1.846752 -0.250674
v -0.268750 1.523353 -0.102367
v -0.268750 1.558709 -0.067012
v -0.268750 1.642678 -0.221691
v -0.268750 1.678033 -0.186336
v -0.343750 1.558709 -0.067012
v -0.343750 1.523353 -0.102367
v -0.343750 1.678033 -0.186336
v -0.343750 1.642678 -0.221691
v 0.274936 1.643750 0.342910
v 0.253122 1.643750 0.277713
v 0.274936 1.593750 0.342910
v 0.253122 1.593750 0.277713
v -0.031375 1.643750 0.372904
v -0.009561 1.643750 0.438102
v -0.031375 1.593750 0.372904
v -0.009561 1.593750 0.438102
v 0.339349 1.588895 0.155522
v 0.291143 1.588130 0.142272
v 0.336185 1.541080 0.169794
v 0.287979 1.540314 0.156544
v 0.241196 1.644699 0.320721
v 0.289402 1.645464 0.333971
v 0.238032 1.596884 0.334993
v 0.286238 1.597649 0.348243
v 0.337500 1.812500 -0.156250
v 0.337500 1.812500 -0.218750
v 0.337500 1.650000 -0.156250
v 0.337500 1.650000 -0.218750
v 0.268750 1.812500 -0.218750
v 0.268750 1.812500 -0.156250
v 0.268750 1.650000 -0.218750
v 0.268750 1.650000 -0.156250
v 0.328963 1.812500 -0.223074
v 0.328963 1.875000 -0.223074
v 0.300235 1.812500 -0.338296
v 0.300235 1.875000 -0.338296
v 0.274384 1.875000 -0.209466
v 0.274384 1.812500 -0.209466
v 0.245655 1.875000 -0.324688
v 0.245655 1.812500 -0.324688
v 0.341545 1.785483 -0.189404
v 0.341545 1.816419 -0.158468
v 0.329367 1.846752 -0.250674
v 0.329367 1.877688 -0.219738
v 0.267275 1.809038 -0.151087
v 0.267275 1.778102 -0.182023
v 0.255097 1.870307 -0.212357
v 0.255097 1.839372 -0.243293
v 0.343750 1.523353 -0.102367
v 0.343750 1.558709 -0.067012
v 0.343750 1.642678 -0.221691
v 0.343750 1.678033 -0.186336
v 0.268750 1.558709 -0.067012
v 0.268750 1.523353 -0.102367
v 0.268750 1.678033 -0.186336
v 0.268750 1.642678 -0.221691
v 0.337500 1.544402 0.158524
v 0.337500 1.594334 0.155907
v 0.337500 1.530991 -0.097375
v 0.337500 1.580923 -0.099992
v 0.268750 1.594334 0.155907
v 0.268750 1.544402 0.158524
v 0.268750 1.580923 -0.099992
v 0.268750 1.530991 -0.097375
vn -0.0000 1.0000 -0.0000
vn 0.4226 -0.0000 -0.9063
vn -0.0000 -1.0000 -0.0000
vn -0.4226 -0.0000 0.9063
vn 0.9063 -0.0000 0.4226
vn -0.9063 -0.0000 -0.4226
vn -0.0000 -0.2419 -0.9703
vn 0.9171 -0.3869 0.0965
vn -0.0000 0.2419 0.9703
vn -0.9171 0.3869 -0.0965
vn 0.3988 0.8898 -0.2219
vn -0.3987 -0.8898 0.2219
vn 0.3987 0.8898 -0.2219
vn -0.3988 -0.8898 0.2219
vn 0.0480 -0.2618 -0.9639
vn 0.9158 -0.3737 0.1471
vn -0.0480 0.2618 0.9639
vn -0.0480 0.2619 0.9639
vn -0.9158 0.3737 -0.1471
vn 0.3152 0.4915 -0.8118
vn 0.9482 -0.1992 0.2476
vn -0.3152 -0.4915 0.8118
vn -0.9482 0.1992 -0.2476
vn 0.0400 0.8478 0.5288
vn -0.0400 -0.8478 -0.5288
vn 0.0599 0.1445 -0.9877
vn 0.9239 -0.3827 -0.0000
vn -0.0599 -0.1445 0.9877
vn -0.9239 0.3827 -0.0000
vn 0.3780 0.9125 0.1564
vn -0.3780 -0.9125 -0.1564
vn -0.3152 -0.4915 -0.8118
vn 0.9482 -0.1992 -0.2476
vn 0.3152 0.4915 0.8118
vn -0.9482 0.1992 0.2476
vn 0.0400 0.8478 -0.5288
vn -0.0400 -0.8478 0.5288
vn -0.0000 -0.0000 -1.0000
vn 0.9981 0.0610 -0.0000
vn -0.0000 -0.0000 1.0000
vn -0.9981 -0.0610 -0.0000
vn -0.0610 0.9981 -0.0000
vn 0.0611 -0.9981 -0.0000
vn -0.0090 -0.3988 -0.9170
vn 0.9958 0.0798 -0.0444
vn 0.9958 0.0797 -0.0444
vn 0.0090 0.3988 0.9170
vn -0.9958 -0.0798 0.0444
vn -0.0909 0.9136 -0.3964
vn 0.0908 -0.9136 0.3964
vn 0.0909 -0.9136 0.3964
vn 0.0090 0.3988 -0.9170
vn 0.9958 0.0797 0.0444
vn -0.0090 -0.3988 0.9170
vn -0.9958 -0.0797 -0.0444
vn -0.0909 0.9136 0.3964
vn 0.0909 -0.9136 -0.3964
vn 0.0908 -0.9136 -0.3964
vn -0.0352 0.9994 0.0046
vn 0.9549 0.0323 0.2952
vn 0.0352 -0.9994 -0.0046
vn -0.9549 -0.0323 -0.2952
vn -0.2948 -0.0148 0.9554
vn 0.2948 0.0148 -0.9554
vn 0.8788 0.4772 -0.0000
vn -0.8788 -0.4772 -0.0000
vn -0.4772 0.8788 -0.0000
vn 0.4772 -0.8788 -0.0000
vn 1.0000 -0.0000 -0.0000
vn -1.0000 -0.0000 -0.0000
vn -0.0020 0.9997 0.0251
vn 0.9708 0.0079 -0.2398
vn 0.9708 0.0080 -0.2398
vn 0.0020 -0.9997 -0.0251
vn -0.9708 -0.0080 0.2398
vn 0.2399 -0.0239 0.9705
vn -0.2399 0.0239 -0.9705
vn 0.9239 -0.3454 0.1647
vn -0.3827 -0.8339 0.3977
vn -0.9239 0.3454 -0.1648
vn 0.3827 0.8339 -0.3977
vn -0.0000 0.4305 0.9026
vn -0.0000 -0.4305 -0.9026
vn 0.9239 -0.3794 0.0500
vn -0.3827 -0.9160 0.1206
vn -0.9239 0.3794 -0.0500
vn 0.3827 0.9160 -0.1206
vn -0.0000 0.1305 0.9914
vn -0.0000 -0.1305 -0.9914
vn 0.9239 -0.3785 -0.0566
vn -0.3827 -0.9137 -0.1366
vn -0.9239 0.3785 0.0566
vn 0.3827 0.9137 0.1366
vn -0.0000 -0.1478 0.9890
vn -0.0000 0.1478 -0.9890
vn 0.9239 0.0067 -0.3826
vn 0.3827 -0.0161 0.9237
vn -0.9239 -0.0067 0.3826
vn -0.3827 0.0161 -0.9237
vn -0.0000 0.9998 0.0175
vn -0.0000 -0.9998 -0.0174
vn -0.0000 -0.9998 -0.0175
vn 0.9026 -0.0067 0.4304
vn 0.9026 -0.0067 0.4305
vn -0.4305 -0.0161 0.9024
vn -0.9026 0.0067 -0.4305
vn -0.9026 0.0067 -0.4304
vn 0.4305 0.0161 -0.9024
vn -0.0009 0.9998 0.0174
vn 0.0009 -0.9998 -0.0174
vn 0.3827 0.9239 -0.0000
vn -0.3827 -0.9239 -0.0000
vn 0.9239 -0.3454 -0.1647
vn 0.3827 0.8339 0.3977
vn -0.9239 0.3454 0.1648
vn -0.3827 -0.8339 -0.3977
vn -0.0000 0.4305 -0.9026
vn -0.0000 -0.4305 0.9026
vn -0.0599 0.1445 -0.9877
vn 0.9239 0.3827 -0.0000
vn 0.0599 -0.1445 0.9877
vn -0.9239 -0.3827 -0.0000
vn -0.3780 0.9125 0.1564
vn 0.3780 -0.9125 -0.1564
vn -0.0480 -0.2618 -0.9639
vn 0.9158 0.3737 -0.1471
vn 0.0480 0.2619 0.9639
vn 0.0480 0.2618 0.9639
vn -0.9158 -0.3737 0.1471
vn -0.3988 0.8898 -0.2219
vn -0.3987 0.8898 -0.2219
vn 0.3987 -0.8898 0.2219
vn 0.3988 -0.8898 0.2219
vn 0.9171 0.3869 -0.0965
vn -0.9171 -0.3869 0.0965
vn 0.3152 -0.4915 -0.8118
vn 0.9482 0.1992 0.2476
vn -0.3152 0.4915 0.8118
vn -0.9482 -0.1992 -0.2476
vn -0.0400 0.8478 -0.5288
vn 0.0400 -0.8478 0.5288
vn -0.3152 0.4915 -0.8118
vn 0.9482 0.1992 -0.2476
vn 0.3152 -0.4915 0.8118
vn -0.9482 -0.1992 0.2476
vn -0.0400 0.8478 0.5288
vn 0.0400 -0.8478 -0.5288
vn 0.9981 -0.0610 -0.0000
vn -0.9981 0.0610 -0.0000
vn 0.0610 0.9981 -0.0000
vn -0.0611 -0.9981 -0.0000
vn 0.0090 -0.3988 -0.9170
vn 0.9958 -0.0798 0.0444
vn 0.9958 -0.0797 0.0444
vn -0.0090 0.3988 0.9170
vn -0.9958 0.0798 -0.0444
vn 0.0909 0.9136 -0.3964
vn -0.0908 -0.9136 0.3964
vn -0.0909 -0.9136 0.3964
vn 0.0352 0.9994 0.0046
vn 0.9549 -0.0323 -0.2952
vn -0.0352 -0.9994 -0.0046
vn -0.9549 0.0323 0.2952
vn 0.2948 -0.0148 0.9554
vn -0.2948 0.0148 -0.9554
vn 0.8788 -0.4772 -0.0000
vn -0.8788 0.4772 -0.0000
vn 0.4772 0.8788 -0.0000
vn -0.4772 -0.8788 -0.0000
vn 0.0020 0.9997 0.0251
vn 0.9708 -0.0080 0.2398
vn -0.0020 -0.9997 -0.0251
vn -0.9708 0.0079 -0.2398
vn -0.9708 0.0080 -0.2398
vn -0.2399 -0.0239 0.9705
vn 0.2399 0.0239 -0.9705
vn -0.0090 0.3988 -0.9170
vn 0.9958 -0.0797 -0.0444
vn 0.0090 -0.3988 0.9170
vn -0.9958 0.0797 0.0444
vn 0.0909 0.9136 0.3964
vn -0.0909 -0.9136 -0.3964
vn -0.0908 -0.9136 -0.3964
vn -0.9239 -0.3454 0.1647
vn -0.3827 0.8339 -0.3977
vn 0.9239 0.3454 -0.1648
vn 0.3827 -0.8339 0.3977
vn -0.9239 -0.3794 0.0500
vn -0.3827 0.9160 -0.1206
vn 0.9239 0.3794 -0.0500
vn 0.3827 -0.9160 0.1206
vn -0.9239 -0.3785 -0.0566
vn -0.3827 0.9137 0.1366
vn 0.9239 0.3785 0.0566
vn 0.3827 -0.9137 -0.1366
vn -0.9239 0.0067 -0.3826
vn 0.3827 0.0161 -0.9237
vn 0.9239 -0.0067 0.3826
vn -0.3827 -0.0161 0.9237
vn -0.9026 -0.0067 0.4304
vn -0.9026 -0.0067 0.4305
vn -0.4305 0.0161 -0.9024
vn 0.9026 0.0067 -0.4305
vn 0.9026 0.0067 -0.4304
vn 0.4305 -0.0161 0.9024
vn 0.0009 0.9998 0.0174
vn -0.0009 -0.9998 -0.0174
vn -0.9239 -0.3454 -0.1647
vn 0.3827 -0.8339 -0.3977
vn 0.9239 0.3454 0.1648
vn -0.3827 0.8339 0.3977
vn 0.3827 -0.9239 -0.0000
vn -0.3827 0.9239 -0.0000
vn 0.3173 -0.0000 -0.9483
vn 0.9483 -0.0000 0.3173
vn -0.3173 -0.0000 0.9483
vn -0.9483 -0.0000 -0.3173
vn 0.9641 -0.0153 -0.2650
vn 0.2578 0.2920 0.9210
vn -0.9641 0.0153 0.2650
vn -0.2578 -0.2920 -0.9210
vn -0.0633 0.9563 -0.2854
vn 0.0633 -0.9563 0.2854
vn 0.0633 -0.9563 0.2855
vn 0.9703 -0.0000 0.2419
vn -0.9703 -0.0000 -0.2419
vn -0.2419 -0.0000 0.9703
vn 0.2419 -0.0000 -0.9703
vn 0.4226 -0.0000 0.9063
vn -0.4226 -0.0000 -0.9063
vn -0.9063 -0.0000 0.4226
vn 0.9063 -0.0000 -0.4226
vn -0.0000 0.9986 -0.0523
vn -0.0000 -0.9986 0.0523
vn -0.0000 0.0523 0.9986
vn -0.0000 -0.0523 -0.9986
vn -0.0000 0.7071 0.7071
vn 0.9903 -0.0984 0.0984
vn -0.0000 -0.7071 -0.7071
vn -0.9903 0.0984 -0.0984
vn -0.1392 -0.7002 0.7002
vn 0.1392 0.7002 -0.7002
vn -0.0000 -0.7071 0.7071
vn -0.0000 0.7071 -0.7071
vn -0.3173 -0.0000 -0.9483
vn 0.9483 -0.0000 -0.3173
vn 0.3173 -0.0000 0.9483
vn -0.9483 -0.0000 0.3173
vn -0.9641 -0.0153 -0.2650
vn 0.2578 -0.2920 -0.9210
vn 0.9641 0.0153 0.2650
vn -0.2578 0.2920 0.9210
vn 0.0633 0.9563 -0.2854
vn -0.0633 -0.9563 0.2854
vn 0.9703 -0.0000 -0.2419
vn -0.9703 -0.0000 0.2419
vn 0.2419 -0.0000 0.9703
vn -0.2419 -0.0000 -0.9703
vn 0.9903 0.0984 -0.0984
vn -0.9903 -0.0984 0.0984
vn 0.1392 -0.7002 0.7002
vn -0.1392 0.7002 -0.7002
vn -0.9958 -0.0797 0.0444
vn -0.9958 0.0797 -0.0444
vn -0.0633 -0.9563 0.2855
vt 0.293945 0.372070
vt 0.281250 0.453125
vt 0.281250 0.372070
vt 0.453125 0.403320
vt 0.437500 0.484375
vt 0.437500 0.403320
vt 0.531250 0.372070
vt 0.543945 0.453125
vt 0.531250 0.453125
vt 0.468750 0.403320
vt 0.453125 0.484375
vt 0.750000 0.921875
vt 0.762695 0.906250
vt 0.762695 0.921875
vt 0.750000 0.890625
vt 0.762695 0.890625
vt 0.109375 0.228516
vt 0.093750 0.234375
vt 0.093750 0.228516
vt 0.750000 0.666016
vt 0.778320 0.671875
vt 0.750000 0.671875
vt 0.781250 0.900391
vt 0.765625 0.906250
vt 0.765625 0.900391
vt 0.372070 0.244141
vt 0.343750 0.250000
vt 0.343750 0.244141
vt 0.687500 0.296875
vt 0.703125 0.268555
vt 0.703125 0.296875
vt 0.718750 0.296875
vt 0.718750 0.268555
vt 0.154297 0.228516
vt 0.140625 0.234375
vt 0.140625 0.228516
vt 0.531250 0.244141
vt 0.556641 0.250000
vt 0.531250 0.250000
vt 0.779297 0.853516
vt 0.765625 0.859375
vt 0.765625 0.853516
vt 0.587891 0.244141
vt 0.562500 0.250000
vt 0.562500 0.244141
vt 0.515625 0.281250
vt 0.529297 0.255859
vt 0.529297 0.281250
vt 0.544922 0.255859
vt 0.531250 0.281250
vt 0.544922 0.281250
vt 0.778320 0.525391
vt 0.734375 0.531250
vt 0.734375 0.525391
vt 0.018555 0.228516
vt 0.000000 0.234375
vt 0.000000 0.228516
vt 0.778320 0.509766
vt 0.734375 0.515625
vt 0.734375 0.509766
vt 0.049805 0.228516
vt 0.031250 0.234375
vt 0.031250 0.228516
vt 0.609375 0.515625
vt 0.653320 0.497070
vt 0.653320 0.515625
vt 0.653320 0.465820
vt 0.609375 0.484375
vt 0.653320 0.484375
vt 0.585938 0.370117
vt 0.562500 0.406250
vt 0.562500 0.370117
vt 0.171875 0.416992
vt 0.203125 0.453125
vt 0.171875 0.453125
vt 0.617188 0.401367
vt 0.593750 0.437500
vt 0.593750 0.401367
vt 0.578125 0.745117
vt 0.546875 0.781250
vt 0.546875 0.745117
vt 0.640625 0.968750
vt 0.664062 0.937500
vt 0.664062 0.968750
vt 0.640625 0.906250
vt 0.664062 0.906250
vt 0.031250 0.254883
vt 0.046875 0.281250
vt 0.031250 0.281250
vt 0.640625 0.817383
vt 0.609375 0.843750
vt 0.609375 0.817383
vt 0.046875 0.254883
vt 0.062500 0.281250
vt 0.640625 0.786133
vt 0.609375 0.812500
vt 0.609375 0.786133
vt 0.703125 0.437500
vt 0.687500 0.406250
vt 0.703125 0.406250
vt 0.687500 0.375000
vt 0.703125 0.375000
vt 0.392578 0.260742
vt 0.375000 0.281250
vt 0.375000 0.260742
vt 0.687500 0.604492
vt 0.656250 0.625000
vt 0.656250 0.604492
vt 0.736328 0.604492
vt 0.718750 0.625000
vt 0.718750 0.604492
vt 0.687500 0.573242
vt 0.656250 0.593750
vt 0.656250 0.573242
vt 0.125000 0.312500
vt 0.142578 0.281250
vt 0.142578 0.312500
vt 0.189453 0.281250
vt 0.171875 0.312500
vt 0.189453 0.312500
vt 0.765625 0.862305
vt 0.750000 0.875000
vt 0.750000 0.862305
vt 0.718750 0.674805
vt 0.750000 0.687500
vt 0.718750 0.687500
vt 0.750000 0.846680
vt 0.750000 0.859375
vt 0.718750 0.659180
vt 0.718750 0.671875
vt 0.718750 0.937500
vt 0.703125 0.906250
vt 0.718750 0.906250
vt 0.718750 0.875000
vt 0.294922 0.244141
vt 0.265625 0.250000
vt 0.265625 0.244141
vt 0.778320 0.650391
vt 0.750000 0.656250
vt 0.750000 0.650391
vt 0.779297 0.728516
vt 0.750000 0.734375
vt 0.750000 0.728516
vt 0.750000 0.634766
vt 0.778320 0.640625
vt 0.750000 0.640625
vt 0.609375 0.968750
vt 0.638672 0.940430
vt 0.638672 0.968750
vt 0.609375 0.909180
vt 0.638672 0.937500
vt 0.638672 0.909180
vt 0.734375 0.494141
vt 0.778320 0.500000
vt 0.734375 0.500000
vt 0.773438 0.337891
vt 0.750000 0.343750
vt 0.750000 0.337891
vt 0.778320 0.478516
vt 0.734375 0.484375
vt 0.734375 0.478516
vt 0.750000 0.322266
vt 0.773438 0.328125
vt 0.750000 0.328125
vt 0.546875 0.703125
vt 0.590820 0.679688
vt 0.590820 0.703125
vt 0.590820 0.648438
vt 0.546875 0.671875
vt 0.590820 0.671875
vt 0.531250 0.330078
vt 0.554688 0.359375
vt 0.531250 0.359375
vt 0.578125 0.970703
vt 0.609375 1.000000
vt 0.578125 1.000000
vt 0.585938 0.330078
vt 0.562500 0.359375
vt 0.562500 0.330078
vt 0.578125 0.939453
vt 0.578125 0.968750
vt 0.640625 0.875000
vt 0.664062 0.875000
vt 0.640625 0.843750
vt 0.664062 0.843750
vt 0.218750 0.245117
vt 0.203125 0.265625
vt 0.203125 0.245117
vt 0.687500 0.541992
vt 0.656250 0.562500
vt 0.656250 0.541992
vt 0.250000 0.245117
vt 0.265625 0.265625
vt 0.250000 0.265625
vt 0.687500 0.510742
vt 0.656250 0.531250
vt 0.656250 0.510742
vt 0.703125 0.843750
vt 0.718750 0.843750
vt 0.703125 0.812500
vt 0.718750 0.812500
vt 0.734375 0.423828
vt 0.751953 0.437500
vt 0.734375 0.437500
vt 0.625000 0.642578
vt 0.593750 0.656250
vt 0.593750 0.642578
vt 0.751953 0.408203
vt 0.734375 0.421875
vt 0.734375 0.408203
vt 0.703125 0.798828
vt 0.734375 0.812500
vt 0.687500 0.796875
vt 0.705078 0.765625
vt 0.705078 0.796875
vt 0.218750 0.281250
vt 0.236328 0.312500
vt 0.236328 0.281250
vt 0.125000 0.228516
vt 0.109375 0.234375
vt 0.218750 0.244141
vt 0.250000 0.250000
vt 0.218750 0.250000
vt 0.781250 0.884766
vt 0.765625 0.890625
vt 0.765625 0.884766
vt 0.781250 0.775391
vt 0.750000 0.781250
vt 0.750000 0.775391
vt 0.203125 0.296875
vt 0.218750 0.265625
vt 0.218750 0.296875
vt 0.703125 0.718750
vt 0.718750 0.750000
vt 0.718750 0.718750
vt 0.265625 0.277344
vt 0.250000 0.312500
vt 0.250000 0.277344
vt 0.348633 0.667969
vt 0.265625 0.703125
vt 0.265625 0.667969
vt 0.281250 0.277344
vt 0.296875 0.312500
vt 0.281250 0.312500
vt 0.161133 0.652344
vt 0.078125 0.687500
vt 0.078125 0.652344
vt 0.406250 0.484375
vt 0.421875 0.401367
vt 0.421875 0.484375
vt 0.437500 0.401367
vt 0.734375 0.384766
vt 0.718750 0.406250
vt 0.718750 0.384766
vt 0.093750 0.322266
vt 0.125000 0.343750
vt 0.093750 0.343750
vt 0.625000 0.259766
vt 0.609375 0.281250
vt 0.609375 0.259766
vt 0.125000 0.322266
vt 0.156250 0.343750
vt 0.281250 0.296875
vt 0.281250 0.265625
vt 0.640625 0.281250
vt 0.625000 0.281250
vt 0.662109 0.728516
vt 0.625000 0.750000
vt 0.625000 0.728516
vt 0.734375 0.353516
vt 0.718750 0.375000
vt 0.718750 0.353516
vt 0.662109 0.697266
vt 0.625000 0.718750
vt 0.625000 0.697266
vt 0.156250 0.328125
vt 0.171875 0.291016
vt 0.171875 0.328125
vt 0.625000 0.291016
vt 0.640625 0.328125
vt 0.640625 0.291016
vt 0.134766 0.240234
vt 0.125000 0.281250
vt 0.125000 0.240234
vt 0.357422 0.912109
vt 0.250000 0.953125
vt 0.250000 0.912109
vt 0.140625 0.240234
vt 0.150391 0.281250
vt 0.140625 0.281250
vt 0.357422 0.865234
vt 0.250000 0.906250
vt 0.250000 0.865234
vt 0.250000 0.453125
vt 0.259766 0.345703
vt 0.259766 0.453125
vt 0.265625 0.345703
vt 0.275391 0.453125
vt 0.275391 0.345703
vt 0.732422 0.830078
vt 0.718750 0.859375
vt 0.718750 0.830078
vt 0.395508 0.580078
vt 0.312500 0.609375
vt 0.312500 0.580078
vt 0.169922 0.251953
vt 0.156250 0.281250
vt 0.156250 0.251953
vt 0.161133 0.564453
vt 0.078125 0.593750
vt 0.078125 0.564453
vt 0.015625 0.453125
vt 0.029297 0.370117
vt 0.029297 0.453125
vt 0.031250 0.370117
vt 0.044922 0.453125
vt 0.044922 0.370117
vt 0.623047 0.331055
vt 0.609375 0.390625
vt 0.609375 0.331055
vt 0.247070 0.815430
vt 0.156250 0.875000
vt 0.156250 0.815430
vt 0.060547 0.315430
vt 0.046875 0.375000
vt 0.046875 0.315430
vt 0.247070 0.752930
vt 0.156250 0.812500
vt 0.156250 0.752930
vt 0.312500 0.468750
vt 0.326172 0.377930
vt 0.326172 0.468750
vt 0.531250 0.596680
vt 0.544922 0.687500
vt 0.544922 0.596680
vt 0.654297 0.781250
vt 0.640625 0.796875
vt 0.640625 0.781250
vt 0.606445 0.468750
vt 0.531250 0.484375
vt 0.531250 0.468750
vt 0.654297 0.437500
vt 0.640625 0.453125
vt 0.640625 0.437500
vt 0.606445 0.453125
vt 0.500000 0.437500
vt 0.513672 0.362305
vt 0.513672 0.437500
vt 0.515625 0.362305
vt 0.529297 0.437500
vt 0.529297 0.362305
vt 0.744141 0.965820
vt 0.734375 1.000000
vt 0.734375 0.965820
vt 0.567383 0.559570
vt 0.531250 0.593750
vt 0.531250 0.559570
vt 0.744141 0.918945
vt 0.734375 0.953125
vt 0.734375 0.918945
vt 0.567383 0.512695
vt 0.531250 0.546875
vt 0.531250 0.512695
vt 0.468750 0.281250
vt 0.478516 0.245117
vt 0.478516 0.281250
vt 0.494141 0.245117
vt 0.484375 0.281250
vt 0.494141 0.281250
vt 0.656250 0.259766
vt 0.640625 0.259766
vt 0.656250 0.416016
vt 0.685547 0.437500
vt 0.656250 0.437500
vt 0.671875 0.281250
vt 0.656250 0.281250
vt 0.656250 0.384766
vt 0.685547 0.406250
vt 0.656250 0.406250
vt 0.703125 0.500000
vt 0.718750 0.470703
vt 0.718750 0.500000
vt 0.703125 0.439453
vt 0.718750 0.468750
vt 0.718750 0.439453
vt 0.456055 0.294922
vt 0.437500 0.328125
vt 0.437500 0.294922
vt 0.479492 0.576172
vt 0.406250 0.609375
vt 0.406250 0.576172
vt 0.468750 0.294922
vt 0.487305 0.328125
vt 0.468750 0.328125
vt 0.073242 0.544922
vt 0.000000 0.578125
vt 0.000000 0.544922
vt 0.518555 1.000000
vt 0.500000 0.926758
vt 0.518555 0.926758
vt 0.500000 0.848633
vt 0.518555 0.921875
vt 0.518555 0.848633
vt 0.518555 0.294922
vt 0.500000 0.328125
vt 0.500000 0.294922
vt 0.359375 0.873047
vt 0.434570 0.906250
vt 0.359375 0.906250
vt 0.531250 0.294922
vt 0.549805 0.328125
vt 0.531250 0.328125
vt 0.231445 0.607422
vt 0.156250 0.640625
vt 0.156250 0.607422
vt 0.437500 0.562500
vt 0.456055 0.487305
vt 0.456055 0.562500
vt 0.000000 0.456055
vt 0.018555 0.531250
vt 0.018555 0.456055
vt 0.581055 0.294922
vt 0.562500 0.328125
vt 0.562500 0.294922
vt 0.434570 0.732422
vt 0.359375 0.765625
vt 0.359375 0.732422
vt 0.593750 0.294922
vt 0.612305 0.328125
vt 0.593750 0.328125
vt 0.434570 0.685547
vt 0.359375 0.718750
vt 0.359375 0.685547
vt 0.468750 1.000000
vt 0.487305 0.924805
vt 0.487305 1.000000
vt 0.031250 0.456055
vt 0.049805 0.531250
vt 0.049805 0.456055
vt 0.331055 0.475586
vt 0.312500 0.578125
vt 0.312500 0.475586
vt 0.000000 0.788086
vt 0.073242 0.890625
vt 0.000000 0.890625
vt 0.362305 0.475586
vt 0.343750 0.578125
vt 0.343750 0.475586
vt 0.151367 0.788086
vt 0.078125 0.890625
vt 0.078125 0.788086
vt 0.500000 0.750000
vt 0.518555 0.676758
vt 0.518555 0.750000
vt 0.375000 0.426758
vt 0.393555 0.500000
vt 0.393555 0.426758
vt 0.421875 0.248047
vt 0.432617 0.281250
vt 0.421875 0.281250
vt 0.426758 0.779297
vt 0.343750 0.812500
vt 0.343750 0.779297
vt 0.437500 0.248047
vt 0.448242 0.281250
vt 0.437500 0.281250
vt 0.348633 0.623047
vt 0.265625 0.656250
vt 0.265625 0.623047
vt 0.171875 0.406250
vt 0.182617 0.323242
vt 0.182617 0.406250
vt 0.187500 0.323242
vt 0.198242 0.406250
vt 0.198242 0.323242
vt 0.710938 0.602539
vt 0.687500 0.625000
vt 0.687500 0.602539
vt 0.510742 0.758789
vt 0.437500 0.781250
vt 0.437500 0.758789
vt 0.429688 0.290039
vt 0.406250 0.312500
vt 0.406250 0.290039
vt 0.307617 0.540039
vt 0.234375 0.562500
vt 0.234375 0.540039
vt 0.101562 0.562500
vt 0.078125 0.489258
vt 0.101562 0.489258
vt 0.437500 0.848633
vt 0.460938 0.921875
vt 0.460938 0.848633
vt 0.377930 0.373047
vt 0.359375 0.421875
vt 0.359375 0.373047
vt 0.187500 0.701172
vt 0.260742 0.750000
vt 0.187500 0.750000
vt 0.596680 0.544922
vt 0.578125 0.593750
vt 0.578125 0.544922
vt 0.073242 0.685547
vt 0.000000 0.734375
vt 0.000000 0.685547
vt 0.500000 0.593750
vt 0.518555 0.520508
vt 0.518555 0.593750
vt 0.500000 0.442383
vt 0.518555 0.515625
vt 0.518555 0.442383
vt 0.750000 0.759766
vt 0.779297 0.765625
vt 0.750000 0.765625
vt 0.778320 0.712891
vt 0.750000 0.718750
vt 0.750000 0.712891
vt 0.750000 0.744141
vt 0.779297 0.750000
vt 0.750000 0.750000
vt 0.325195 0.244141
vt 0.296875 0.250000
vt 0.296875 0.244141
vt 0.578125 0.531250
vt 0.607422 0.502930
vt 0.607422 0.531250
vt 0.609375 0.971680
vt 0.638672 1.000000
vt 0.638672 0.971680
vt 0.778320 0.587891
vt 0.734375 0.593750
vt 0.734375 0.587891
vt 0.617188 0.244141
vt 0.593750 0.250000
vt 0.593750 0.244141
vt 0.734375 0.572266
vt 0.778320 0.578125
vt 0.734375 0.578125
vt 0.648438 0.244141
vt 0.625000 0.250000
vt 0.625000 0.244141
vt 0.109375 0.781250
vt 0.153320 0.757812
vt 0.153320 0.781250
vt 0.546875 0.710938
vt 0.590820 0.734375
vt 0.590820 0.710938
vt 0.734375 0.556641
vt 0.778320 0.562500
vt 0.734375 0.562500
vt 0.703125 0.244141
vt 0.721680 0.250000
vt 0.703125 0.250000
vt 0.778320 0.541016
vt 0.734375 0.546875
vt 0.734375 0.541016
vt 0.734375 0.244141
vt 0.752930 0.250000
vt 0.734375 0.250000
vt 0.653320 0.781250
vt 0.609375 0.762695
vt 0.653320 0.762695
vt 0.437500 0.372070
vt 0.481445 0.390625
vt 0.481445 0.372070
vt 0.138672 0.234375
vt 0.125000 0.234375
vt 0.750000 0.603516
vt 0.775391 0.609375
vt 0.750000 0.609375
vt 0.765625 0.869141
vt 0.779297 0.875000
vt 0.765625 0.875000
vt 0.525391 0.244141
vt 0.500000 0.250000
vt 0.500000 0.244141
vt 0.513672 0.281250
vt 0.500000 0.255859
vt 0.513672 0.255859
vt 0.718750 0.474609
vt 0.732422 0.500000
vt 0.732422 0.474609
vt 0.656250 0.244141
vt 0.671875 0.250000
vt 0.656250 0.250000
vt 0.750000 0.697266
vt 0.778320 0.703125
vt 0.750000 0.703125
vt 0.062500 0.228516
vt 0.078125 0.234375
vt 0.062500 0.234375
vt 0.778320 0.681641
vt 0.750000 0.681641
vt 0.671875 0.268555
vt 0.687500 0.268555
vt 0.703125 0.299805
vt 0.718750 0.328125
vt 0.718750 0.299805
vt 0.460938 0.330078
vt 0.437500 0.359375
vt 0.437500 0.330078
vt 0.265625 0.611328
vt 0.234375 0.640625
vt 0.234375 0.611328
vt 0.500000 0.330078
vt 0.523438 0.359375
vt 0.500000 0.359375
vt 0.593750 0.408203
vt 0.562500 0.437500
vt 0.562500 0.408203
vt 0.625000 0.546875
vt 0.648438 0.515625
vt 0.648438 0.546875
vt 0.648438 0.359375
vt 0.625000 0.390625
vt 0.648438 0.390625
vt 0.734375 0.885742
vt 0.750000 0.906250
vt 0.734375 0.906250
vt 0.656250 0.776367
vt 0.656250 0.796875
vt 0.750000 0.854492
vt 0.734375 0.875000
vt 0.734375 0.854492
vt 0.234375 0.323242
vt 0.265625 0.343750
vt 0.234375 0.343750
vt 0.578125 0.843750
vt 0.593750 0.812500
vt 0.593750 0.843750
vt 0.390625 0.328125
vt 0.375000 0.359375
vt 0.390625 0.359375
vt 0.751953 0.455078
vt 0.734375 0.468750
vt 0.734375 0.455078
vt 0.484375 0.611328
vt 0.453125 0.625000
vt 0.453125 0.611328
vt 0.734375 0.439453
vt 0.751953 0.453125
vt 0.734375 0.453125
vt 0.609375 0.861328
vt 0.578125 0.875000
vt 0.578125 0.861328
vt 0.671875 0.328125
vt 0.689453 0.296875
vt 0.689453 0.328125
vt 0.048828 0.281250
vt 0.031250 0.312500
vt 0.048828 0.312500
vt 0.078125 0.228516
vt 0.781250 0.822266
vt 0.750000 0.828125
vt 0.750000 0.822266
vt 0.765625 0.916016
vt 0.781250 0.921875
vt 0.765625 0.921875
vt 0.781250 0.791016
vt 0.750000 0.796875
vt 0.750000 0.791016
vt 0.484375 0.359375
vt 0.484375 0.328125
vt 0.703125 0.562500
vt 0.687500 0.593750
vt 0.703125 0.593750
vt 0.109375 0.237305
vt 0.125000 0.250000
vt 0.109375 0.250000
vt 0.718750 0.815430
vt 0.718750 0.828125
vt 0.765625 0.877930
vt 0.750000 0.877930
vt 0.750000 0.690430
vt 0.718750 0.703125
vt 0.718750 0.690430
vt 0.687500 0.562500
vt 0.703125 0.531250
vt 0.687500 0.500000
vt 0.361328 0.260742
vt 0.343750 0.281250
vt 0.343750 0.260742
vt 0.656250 0.666992
vt 0.687500 0.687500
vt 0.656250 0.687500
vt 0.718750 0.635742
vt 0.736328 0.656250
vt 0.718750 0.656250
vt 0.656250 0.635742
vt 0.687500 0.656250
vt 0.656250 0.656250
vt 0.062500 0.312500
vt 0.080078 0.281250
vt 0.080078 0.312500
vt 0.093750 0.281250
vt 0.111328 0.312500
vt 0.111328 0.281250
vt 0.015625 0.254883
vt 0.000000 0.281250
vt 0.000000 0.254883
vt 0.640625 0.879883
vt 0.609375 0.906250
vt 0.609375 0.879883
vt 0.015625 0.281250
vt 0.609375 0.848633
vt 0.609375 0.875000
vt 0.703125 0.468750
vt 0.687500 0.437500
vt 0.593750 0.713867
vt 0.617188 0.750000
vt 0.593750 0.750000
vt 0.078125 0.698242
vt 0.109375 0.734375
vt 0.078125 0.734375
vt 0.593750 0.666992
vt 0.617188 0.703125
vt 0.593750 0.703125
vt 0.484375 0.635742
vt 0.453125 0.671875
vt 0.453125 0.635742
vt 0.000000 0.359375
vt 0.023438 0.328125
vt 0.023438 0.359375
vt 0.664062 1.000000
vt 0.640625 0.292969
vt 0.656250 0.328125
vt 0.333008 0.761719
vt 0.250000 0.796875
vt 0.250000 0.761719
vt 0.671875 0.292969
vt 0.656250 0.292969
vt 0.348633 0.714844
vt 0.265625 0.750000
vt 0.265625 0.714844
vt 0.296875 0.531250
vt 0.312500 0.448242
vt 0.312500 0.531250
vt 0.218750 0.401367
vt 0.234375 0.484375
vt 0.234375 0.401367
vt 0.718750 0.447266
vt 0.656250 0.337891
vt 0.625000 0.359375
vt 0.625000 0.337891
vt 0.546875 0.259766
vt 0.562500 0.281250
vt 0.546875 0.281250
vt 0.062500 0.343750
vt 0.062500 0.322266
vt 0.484375 0.593750
vt 0.500000 0.562500
vt 0.515625 0.750000
vt 0.531250 0.781250
vt 0.531250 0.750000
vt 0.062500 0.240234
vt 0.072266 0.281250
vt 0.107422 0.740234
vt 0.000000 0.781250
vt 0.000000 0.740234
vt 0.728516 0.896484
vt 0.718750 0.896484
vt 0.250000 0.958984
vt 0.357422 1.000000
vt 0.250000 1.000000
vt 0.212891 0.453125
vt 0.203125 0.345703
vt 0.212891 0.345703
vt 0.244141 0.345703
vt 0.234375 0.453125
vt 0.244141 0.453125
vt 0.123047 0.251953
vt 0.109375 0.281250
vt 0.109375 0.251953
vt 0.442383 0.642578
vt 0.359375 0.671875
vt 0.359375 0.642578
vt 0.732422 0.861328
vt 0.718750 0.890625
vt 0.718750 0.861328
vt 0.442383 0.611328
vt 0.359375 0.640625
vt 0.359375 0.611328
vt 0.000000 0.453125
vt 0.013672 0.370117
vt 0.013672 0.453125
vt 0.546875 0.916992
vt 0.560547 1.000000
vt 0.560547 0.916992
vt 0.498047 0.331055
vt 0.484375 0.390625
vt 0.484375 0.331055
vt 0.247070 0.940430
vt 0.156250 1.000000
vt 0.156250 0.940430
vt 0.607422 0.331055
vt 0.593750 0.390625
vt 0.593750 0.331055
vt 0.247070 0.877930
vt 0.156250 0.937500
vt 0.156250 0.877930
vt 0.531250 1.000000
vt 0.544922 0.909180
vt 0.544922 1.000000
vt 0.531250 0.690430
vt 0.544922 0.781250
vt 0.544922 0.690430
vt 0.562500 0.259766
vt 0.578125 0.281250
vt 0.685547 0.478516
vt 0.656250 0.500000
vt 0.656250 0.478516
vt 0.734375 0.416016
vt 0.718750 0.437500
vt 0.718750 0.416016
vt 0.685547 0.447266
vt 0.656250 0.468750
vt 0.656250 0.447266
vt 0.718750 0.533203
vt 0.718750 0.562500
vt 0.718750 0.501953
vt 0.718750 0.531250
vt 0.718750 0.309570
vt 0.728516 0.343750
vt 0.718750 0.343750
vt 0.531250 0.872070
vt 0.567383 0.906250
vt 0.531250 0.906250
vt 0.728516 0.262695
vt 0.718750 0.262695
vt 0.364258 0.434570
vt 0.328125 0.468750
vt 0.328125 0.434570
vt 0.462891 0.281250
vt 0.453125 0.245117
vt 0.462891 0.245117
vt 0.718750 0.510742
vt 0.728516 0.546875
vt 0.728516 0.510742
vt 0.435547 0.843750
vt 0.421875 0.859375
vt 0.421875 0.843750
vt 0.606445 0.843750
vt 0.531250 0.859375
vt 0.531250 0.843750
vt 0.326172 0.359375
vt 0.312500 0.375000
vt 0.312500 0.359375
vt 0.606445 0.484375
vt 0.531250 0.500000
vt 0.515625 0.671875
vt 0.529297 0.596680
vt 0.529297 0.671875
vt 0.296875 0.362305
vt 0.310547 0.437500
vt 0.310547 0.362305
vt 0.593750 0.259766
vt 0.578125 0.259766
vt 0.062500 0.353516
vt 0.099609 0.375000
vt 0.062500 0.375000
vt 0.593750 0.281250
vt 0.109375 0.353516
vt 0.146484 0.375000
vt 0.109375 0.375000
vt 0.218750 0.343750
vt 0.203125 0.306641
vt 0.218750 0.306641
vt 0.281250 0.306641
vt 0.281250 0.343750
vt 0.000000 0.294922
vt 0.018555 0.328125
vt 0.000000 0.328125
vt 0.073242 0.591797
vt 0.000000 0.625000
vt 0.000000 0.591797
vt 0.690430 0.904297
vt 0.671875 0.937500
vt 0.671875 0.904297
vt 0.234375 0.576172
vt 0.307617 0.609375
vt 0.234375 0.609375
vt 0.468750 0.562500
vt 0.487305 0.489258
vt 0.487305 0.562500
vt 0.502930 0.598633
vt 0.484375 0.671875
vt 0.502930 0.671875
vt 0.671875 0.857422
vt 0.690430 0.890625
vt 0.671875 0.890625
vt 0.000000 0.638672
vt 0.075195 0.671875
vt 0.000000 0.671875
vt 0.690430 0.810547
vt 0.671875 0.843750
vt 0.671875 0.810547
vt 0.434570 0.966797
vt 0.359375 1.000000
vt 0.359375 0.966797
vt 0.109375 0.562500
vt 0.127930 0.487305
vt 0.127930 0.562500
vt 0.140625 0.487305
vt 0.159180 0.562500
vt 0.159180 0.487305
vt 0.690430 0.716797
vt 0.671875 0.750000
vt 0.671875 0.716797
vt 0.434570 0.919922
vt 0.359375 0.953125
vt 0.359375 0.919922
vt 0.393555 0.294922
vt 0.375000 0.328125
vt 0.375000 0.294922
vt 0.153320 0.607422
vt 0.078125 0.640625
vt 0.078125 0.607422
vt 0.437500 0.750000
vt 0.456055 0.674805
vt 0.456055 0.750000
vt 0.424805 0.487305
vt 0.406250 0.562500
vt 0.424805 0.562500
vt 0.171875 0.491211
vt 0.190430 0.593750
vt 0.171875 0.593750
vt 0.000000 0.897461
vt 0.073242 1.000000
vt 0.000000 1.000000
vt 0.203125 0.491211
vt 0.221680 0.593750
vt 0.203125 0.593750
vt 0.151367 0.897461
vt 0.078125 1.000000
vt 0.078125 0.897461
vt 0.487305 0.921875
vt 0.468750 0.848633
vt 0.487305 0.848633
vt 0.252930 0.458008
vt 0.234375 0.531250
vt 0.252930 0.531250
vt 0.416992 0.248047
vt 0.406250 0.281250
vt 0.406250 0.248047
vt 0.171875 0.654297
vt 0.254883 0.687500
vt 0.171875 0.687500
vt 0.729492 0.560547
vt 0.718750 0.593750
vt 0.718750 0.560547
vt 0.328125 0.826172
vt 0.411133 0.859375
vt 0.328125 0.859375
vt 0.390625 0.421875
vt 0.401367 0.338867
vt 0.401367 0.421875
vt 0.593750 0.760742
vt 0.604492 0.843750
vt 0.604492 0.760742
vt 0.596680 0.888672
vt 0.578125 0.937500
vt 0.578125 0.888672
vt 0.109375 0.701172
vt 0.182617 0.750000
vt 0.109375 0.750000
vt 0.328125 0.373047
vt 0.346680 0.421875
vt 0.328125 0.421875
vt 0.323242 0.810547
vt 0.250000 0.859375
vt 0.250000 0.810547
vt 0.468750 0.750000
vt 0.487305 0.676758
vt 0.487305 0.750000
vt 0.284180 0.458008
vt 0.265625 0.531250
vt 0.284180 0.531250
vt 0.367188 0.290039
vt 0.343750 0.312500
vt 0.343750 0.290039
vt 0.495117 0.821289
vt 0.421875 0.821289
vt 0.710938 0.633789
vt 0.687500 0.633789
vt 0.510742 0.790039
vt 0.437500 0.812500
vt 0.437500 0.790039
vt 0.375000 0.578125
vt 0.398438 0.504883
vt 0.398438 0.578125
vt 0.460938 0.926758
vt 0.437500 1.000000
vt 0.460938 1.000000
vt 0.622070 0.596680
vt 0.546875 0.609375
vt 0.546875 0.596680
vt 0.017578 0.237305
vt 0.000000 0.250000
vt 0.000000 0.237305
vt 0.637695 0.440430
vt 0.562500 0.453125
vt 0.562500 0.440430
vt 0.767578 0.987305
vt 0.750000 1.000000
vt 0.750000 0.987305
vt 0.140625 0.484375
vt 0.215820 0.466797
vt 0.215820 0.484375
vt 0.515625 0.794922
vt 0.590820 0.812500
vt 0.590820 0.794922
vt 0.720703 0.987305
vt 0.671875 1.000000
vt 0.671875 0.987305
vt 0.762695 0.612305
vt 0.750000 0.625000
vt 0.750000 0.612305
vt 0.671875 0.971680
vt 0.720703 0.984375
vt 0.671875 0.984375
vt 0.390625 0.237305
vt 0.403320 0.250000
vt 0.390625 0.250000
vt 0.671875 0.968750
vt 0.720703 0.956055
vt 0.720703 0.968750
vt 0.671875 0.940430
vt 0.720703 0.953125
vt 0.720703 0.940430
vt 0.330078 0.318359
vt 0.312500 0.318359
vt 0.171875 0.333984
vt 0.156250 0.375000
vt 0.156250 0.333984
vt 0.361328 0.318359
vt 0.343750 0.359375
vt 0.343750 0.318359
vt 0.046875 0.318359
vt 0.031250 0.359375
vt 0.031250 0.318359
vt 0.283203 0.250000
vt 0.283203 0.265625
vt 0.314453 0.265625
vt 0.314453 0.250000
vt 0.185547 0.251953
vt 0.171875 0.281250
vt 0.171875 0.251953
vt 0.718750 0.408203
vt 0.703125 0.408203
vt 0.201172 0.251953
vt 0.187500 0.281250
vt 0.187500 0.251953
vt 0.718750 0.376953
vt 0.703125 0.376953
vt 0.671875 0.703125
vt 0.685547 0.687500
vt 0.685547 0.703125
vt 0.716797 0.265625
vt 0.716797 0.250000
vt 0.546875 0.372070
vt 0.559570 0.453125
vt 0.546875 0.453125
vt 0.484375 0.403320
vt 0.468750 0.484375
vt 0.575195 0.918945
vt 0.562500 1.000000
vt 0.562500 0.918945
vt 0.500000 0.403320
vt 0.484375 0.484375
vt 0.156250 0.250000
vt 0.168945 0.234375
vt 0.168945 0.250000
vt 0.171875 0.234375
vt 0.184570 0.250000
vt 0.184570 0.234375
vt 0.126953 0.388672
vt 0.109375 0.453125
vt 0.109375 0.388672
vt 0.609375 0.529297
vt 0.622070 0.593750
vt 0.609375 0.593750
vt 0.158203 0.388672
vt 0.140625 0.453125
vt 0.140625 0.388672
vt 0.434570 0.326172
vt 0.421875 0.390625
vt 0.421875 0.326172
vt 0.750000 0.984375
vt 0.767578 0.971680
vt 0.767578 0.984375
vt 0.031250 0.237305
vt 0.048828 0.250000
vt 0.048828 0.237305
vt 0.718750 0.744141
vt 0.737305 0.765625
vt 0.718750 0.765625
vt 0.671875 0.244141
vt 0.682617 0.265625
vt 0.671875 0.265625
vt 0.737305 0.712891
vt 0.718750 0.734375
vt 0.718750 0.712891
vt 0.687500 0.244141
vt 0.698242 0.265625
vt 0.687500 0.265625
vt 0.750000 0.937500
vt 0.768555 0.926758
vt 0.768555 0.937500
vt 0.096680 0.239258
vt 0.078125 0.250000
vt 0.096680 0.250000
vt 0.643555 0.551758
vt 0.625000 0.593750
vt 0.625000 0.551758
vt 0.325195 0.270508
vt 0.312500 0.312500
vt 0.312500 0.270508
vt 0.643555 0.395508
vt 0.625000 0.437500
vt 0.625000 0.395508
vt 0.340820 0.270508
vt 0.328125 0.312500
vt 0.328125 0.270508
vt 0.734375 0.375000
vt 0.752930 0.362305
vt 0.752930 0.375000
vt 0.734375 0.346680
vt 0.752930 0.359375
vt 0.752930 0.346680
vt 0.622070 0.627930
vt 0.546875 0.640625
vt 0.546875 0.627930
vt 0.751953 0.299805
vt 0.734375 0.312500
vt 0.734375 0.299805
vt 0.622070 0.612305
vt 0.546875 0.625000
vt 0.546875 0.612305
vt 0.751953 0.284180
vt 0.734375 0.296875
vt 0.734375 0.284180
vt 0.500000 0.843750
vt 0.575195 0.826172
vt 0.575195 0.843750
vt 0.137695 0.466797
vt 0.062500 0.484375
vt 0.137695 0.484375
vt 0.705078 0.752930
vt 0.656250 0.765625
vt 0.656250 0.752930
vt 0.200195 0.237305
vt 0.187500 0.250000
vt 0.187500 0.237305
vt 0.656250 0.362305
vt 0.705078 0.375000
vt 0.656250 0.375000
vt 0.375000 0.237305
vt 0.387695 0.250000
vt 0.375000 0.250000
vt 0.656250 0.359375
vt 0.705078 0.346680
vt 0.705078 0.359375
vt 0.705078 0.331055
vt 0.656250 0.343750
vt 0.705078 0.343750
vt 0.658203 0.802734
vt 0.640625 0.802734
vt 0.078125 0.490234
vt 0.062500 0.531250
vt 0.062500 0.490234
vt 0.298828 0.318359
vt 0.281250 0.359375
vt 0.281250 0.318359
vt 0.593750 0.740234
vt 0.578125 0.781250
vt 0.578125 0.740234
vt 0.734375 0.843750
vt 0.751953 0.828125
vt 0.751953 0.843750
vt 0.734375 0.796875
vt 0.751953 0.812500
vt 0.751953 0.796875
vt 0.091797 0.251953
vt 0.078125 0.281250
vt 0.078125 0.251953
vt 0.718750 0.658203
vt 0.703125 0.687500
vt 0.703125 0.658203
vt 0.107422 0.251953
vt 0.093750 0.251953
vt 0.718750 0.564453
vt 0.703125 0.564453
vt 0.328125 0.812500
vt 0.341797 0.796875
vt 0.341797 0.812500
vt 0.343750 0.750000
vt 0.357422 0.765625
vt 0.357422 0.750000
vt 0.737305 0.775391
vt 0.718750 0.796875
vt 0.718750 0.775391
vt 0.328125 0.244141
vt 0.338867 0.265625
vt 0.328125 0.265625
vt 0.237305 0.259766
vt 0.218750 0.259766
vt 0.745117 0.322266
vt 0.734375 0.343750
vt 0.734375 0.322266
vt 0.768555 0.968750
vt 0.750000 0.958008
vt 0.768555 0.958008
vt 0.750000 0.942383
vt 0.768555 0.953125
vt 0.768555 0.942383
vt 0.643555 0.645508
vt 0.625000 0.687500
vt 0.625000 0.645508
vt 0.309570 0.270508
vt 0.296875 0.270508
vt 0.643555 0.598633
vt 0.625000 0.640625
vt 0.625000 0.598633
vt 0.700195 0.661133
vt 0.687500 0.703125
vt 0.687500 0.661133
vt 0.734375 0.406250
vt 0.752930 0.393555
vt 0.752930 0.406250
vt 0.734375 0.377930
vt 0.752930 0.390625
vt 0.752930 0.377930
vt 0.064453 0.388672
vt 0.046875 0.453125
vt 0.046875 0.388672
vt 0.218750 0.326172
vt 0.231445 0.390625
vt 0.218750 0.390625
vt 0.095703 0.388672
vt 0.078125 0.453125
vt 0.078125 0.388672
vt 0.418945 0.326172
vt 0.406250 0.390625
vt 0.406250 0.326172
vt 0.734375 0.281250
vt 0.751953 0.268555
vt 0.751953 0.281250
vt 0.734375 0.252930
vt 0.751953 0.265625
vt 0.751953 0.252930
vt 0.293945 0.453125
vt 0.543945 0.372070
vt 0.778320 0.666016
vt 0.781250 0.906250
vt 0.372070 0.250000
vt 0.154297 0.234375
vt 0.556641 0.244141
vt 0.779297 0.859375
vt 0.587891 0.250000
vt 0.515625 0.255859
vt 0.531250 0.255859
vt 0.778320 0.531250
vt 0.018555 0.234375
vt 0.778320 0.515625
vt 0.049805 0.234375
vt 0.609375 0.497070
vt 0.609375 0.465820
vt 0.585938 0.406250
vt 0.203125 0.416992
vt 0.617188 0.437500
vt 0.640625 0.937500
vt 0.062500 0.254883
vt 0.640625 0.812500
vt 0.392578 0.281250
vt 0.736328 0.625000
vt 0.750000 0.674805
vt 0.765625 0.846680
vt 0.750000 0.659180
vt 0.703125 0.937500
vt 0.703125 0.875000
vt 0.294922 0.250000
vt 0.778320 0.656250
vt 0.779297 0.734375
vt 0.778320 0.634766
vt 0.609375 0.940430
vt 0.609375 0.937500
vt 0.778320 0.494141
vt 0.773438 0.343750
vt 0.778320 0.484375
vt 0.773438 0.322266
vt 0.546875 0.679688
vt 0.546875 0.648438
vt 0.554688 0.330078
vt 0.609375 0.970703
vt 0.585938 0.359375
vt 0.609375 0.939453
vt 0.265625 0.245117
vt 0.687500 0.531250
vt 0.751953 0.423828
vt 0.625000 0.656250
vt 0.751953 0.421875
vt 0.734375 0.798828
vt 0.687500 0.765625
vt 0.218750 0.312500
vt 0.250000 0.244141
vt 0.781250 0.890625
vt 0.781250 0.781250
vt 0.703125 0.750000
vt 0.265625 0.312500
vt 0.348633 0.703125
vt 0.296875 0.277344
vt 0.161133 0.687500
vt 0.406250 0.401367
vt 0.156250 0.322266
vt 0.265625 0.296875
vt 0.662109 0.750000
vt 0.662109 0.718750
vt 0.156250 0.291016
vt 0.625000 0.328125
vt 0.134766 0.281250
vt 0.357422 0.953125
vt 0.150391 0.240234
vt 0.357422 0.906250
vt 0.250000 0.345703
vt 0.265625 0.453125
vt 0.732422 0.859375
vt 0.395508 0.609375
vt 0.169922 0.281250
vt 0.161133 0.593750
vt 0.015625 0.370117
vt 0.031250 0.453125
vt 0.623047 0.390625
vt 0.247070 0.875000
vt 0.060547 0.375000
vt 0.247070 0.812500
vt 0.312500 0.377930
vt 0.531250 0.687500
vt 0.654297 0.796875
vt 0.654297 0.453125
vt 0.500000 0.362305
vt 0.515625 0.437500
vt 0.744141 1.000000
vt 0.567383 0.593750
vt 0.744141 0.953125
vt 0.567383 0.546875
vt 0.468750 0.245117
vt 0.484375 0.245117
vt 0.685547 0.416016
vt 0.671875 0.259766
vt 0.685547 0.384766
vt 0.703125 0.470703
vt 0.456055 0.328125
vt 0.479492 0.609375
vt 0.487305 0.294922
vt 0.073242 0.578125
vt 0.500000 1.000000
vt 0.500000 0.921875
vt 0.518555 0.328125
vt 0.434570 0.873047
vt 0.549805 0.294922
vt 0.231445 0.640625
vt 0.437500 0.487305
vt 0.000000 0.531250
vt 0.581055 0.328125
vt 0.434570 0.765625
vt 0.612305 0.294922
vt 0.434570 0.718750
vt 0.468750 0.924805
vt 0.031250 0.531250
vt 0.331055 0.578125
vt 0.073242 0.788086
vt 0.362305 0.578125
vt 0.151367 0.890625
vt 0.500000 0.676758
vt 0.375000 0.500000
vt 0.432617 0.248047
vt 0.426758 0.812500
vt 0.448242 0.248047
vt 0.348633 0.656250
vt 0.171875 0.323242
vt 0.187500 0.406250
vt 0.710938 0.625000
vt 0.510742 0.781250
vt 0.429688 0.312500
vt 0.307617 0.562500
vt 0.078125 0.562500
vt 0.437500 0.921875
vt 0.377930 0.421875
vt 0.260742 0.701172
vt 0.596680 0.593750
vt 0.073242 0.734375
vt 0.500000 0.520508
vt 0.500000 0.515625
vt 0.779297 0.759766
vt 0.778320 0.718750
vt 0.779297 0.744141
vt 0.325195 0.250000
vt 0.578125 0.502930
vt 0.778320 0.593750
vt 0.617188 0.250000
vt 0.778320 0.572266
vt 0.648438 0.250000
vt 0.109375 0.757812
vt 0.546875 0.734375
vt 0.778320 0.556641
vt 0.721680 0.244141
vt 0.778320 0.546875
vt 0.752930 0.244141
vt 0.609375 0.781250
vt 0.437500 0.390625
vt 0.138672 0.228516
vt 0.775391 0.603516
vt 0.779297 0.869141
vt 0.525391 0.250000
vt 0.500000 0.281250
vt 0.778320 0.697266
vt 0.778320 0.687500
vt 0.671875 0.296875
vt 0.703125 0.328125
vt 0.460938 0.359375
vt 0.265625 0.640625
vt 0.523438 0.330078
vt 0.625000 0.515625
vt 0.750000 0.885742
vt 0.687500 0.776367
vt 0.265625 0.323242
vt 0.578125 0.812500
vt 0.751953 0.468750
vt 0.484375 0.625000
vt 0.751953 0.439453
vt 0.781250 0.828125
vt 0.781250 0.916016
vt 0.781250 0.796875
vt 0.468750 0.359375
vt 0.125000 0.237305
vt 0.750000 0.815430
vt 0.361328 0.281250
vt 0.687500 0.666992
vt 0.736328 0.635742
vt 0.687500 0.635742
vt 0.093750 0.312500
vt 0.640625 0.848633
vt 0.687500 0.468750
vt 0.617188 0.713867
vt 0.109375 0.698242
vt 0.617188 0.666992
vt 0.640625 1.000000
vt 0.333008 0.796875
vt 0.348633 0.750000
vt 0.296875 0.448242
vt 0.218750 0.484375
vt 0.734375 0.447266
vt 0.484375 0.562500
vt 0.515625 0.781250
vt 0.072266 0.240234
vt 0.107422 0.781250
vt 0.728516 0.937500
vt 0.357422 0.958984
vt 0.234375 0.345703
vt 0.123047 0.281250
vt 0.442383 0.671875
vt 0.732422 0.890625
vt 0.442383 0.640625
vt 0.000000 0.370117
vt 0.546875 1.000000
vt 0.498047 0.390625
vt 0.247070 1.000000
vt 0.607422 0.390625
vt 0.247070 0.937500
vt 0.531250 0.909180
vt 0.685547 0.500000
vt 0.685547 0.468750
vt 0.703125 0.533203
vt 0.703125 0.501953
vt 0.728516 0.309570
vt 0.567383 0.872070
vt 0.728516 0.296875
vt 0.364258 0.468750
vt 0.453125 0.281250
vt 0.718750 0.546875
vt 0.435547 0.859375
vt 0.606445 0.859375
vt 0.326172 0.375000
vt 0.606445 0.500000
vt 0.515625 0.596680
vt 0.296875 0.437500
vt 0.099609 0.353516
vt 0.146484 0.353516
vt 0.203125 0.343750
vt 0.265625 0.306641
vt 0.018555 0.294922
vt 0.073242 0.625000
vt 0.690430 0.937500
vt 0.307617 0.576172
vt 0.468750 0.489258
vt 0.484375 0.598633
vt 0.690430 0.857422
vt 0.075195 0.638672
vt 0.690430 0.843750
vt 0.434570 1.000000
vt 0.109375 0.487305
vt 0.140625 0.562500
vt 0.690430 0.750000
vt 0.434570 0.953125
vt 0.393555 0.328125
vt 0.153320 0.640625
vt 0.437500 0.674805
vt 0.406250 0.487305
vt 0.190430 0.491211
vt 0.073242 0.897461
vt 0.221680 0.491211
vt 0.151367 1.000000
vt 0.468750 0.921875
vt 0.234375 0.458008
vt 0.416992 0.281250
vt 0.254883 0.654297
vt 0.729492 0.593750
vt 0.411133 0.826172
vt 0.390625 0.338867
vt 0.596680 0.937500
vt 0.182617 0.701172
vt 0.346680 0.373047
vt 0.323242 0.859375
vt 0.468750 0.676758
vt 0.265625 0.458008
vt 0.367188 0.312500
vt 0.495117 0.843750
vt 0.710938 0.656250
vt 0.510742 0.812500
vt 0.375000 0.504883
vt 0.437500 0.926758
vt 0.622070 0.609375
vt 0.017578 0.250000
vt 0.637695 0.453125
vt 0.767578 1.000000
vt 0.140625 0.466797
vt 0.515625 0.812500
vt 0.720703 1.000000
vt 0.762695 0.625000
vt 0.720703 0.971680
vt 0.403320 0.237305
vt 0.671875 0.956055
vt 0.671875 0.953125
vt 0.330078 0.359375
vt 0.171875 0.375000
vt 0.361328 0.359375
vt 0.046875 0.359375
vt 0.296875 0.265625
vt 0.185547 0.281250
vt 0.201172 0.281250
vt 0.671875 0.687500
vt 0.703125 0.265625
vt 0.559570 0.372070
vt 0.575195 1.000000
vt 0.500000 0.484375
vt 0.156250 0.234375
vt 0.171875 0.250000
vt 0.126953 0.453125
vt 0.622070 0.529297
vt 0.158203 0.453125
vt 0.434570 0.390625
vt 0.750000 0.971680
vt 0.031250 0.250000
vt 0.737305 0.744141
vt 0.682617 0.244141
vt 0.737305 0.734375
vt 0.698242 0.244141
vt 0.750000 0.926758
vt 0.078125 0.239258
vt 0.643555 0.593750
vt 0.325195 0.312500
vt 0.643555 0.437500
vt 0.340820 0.312500
vt 0.734375 0.362305
vt 0.734375 0.359375
vt 0.622070 0.640625
vt 0.751953 0.312500
vt 0.622070 0.625000
vt 0.751953 0.296875
vt 0.500000 0.826172
vt 0.062500 0.466797
vt 0.200195 0.250000
vt 0.705078 0.362305
vt 0.387695 0.237305
vt 0.656250 0.346680
vt 0.656250 0.331055
vt 0.658203 0.843750
vt 0.078125 0.531250
vt 0.298828 0.359375
vt 0.593750 0.781250
vt 0.734375 0.828125
vt 0.091797 0.281250
vt 0.107422 0.281250
vt 0.328125 0.796875
vt 0.343750 0.765625
vt 0.737305 0.796875
vt 0.338867 0.244141
vt 0.237305 0.281250
vt 0.745117 0.343750
vt 0.750000 0.968750
vt 0.750000 0.953125
vt 0.643555 0.687500
vt 0.309570 0.312500
vt 0.643555 0.640625
vt 0.700195 0.703125
vt 0.734375 0.393555
vt 0.734375 0.390625
vt 0.064453 0.453125
vt 0.231445 0.326172
vt 0.095703 0.453125
vt 0.418945 0.390625
vt 0.734375 0.268555
vt 0.734375 0.265625
s 1
usemtl m_9fe41024-833b-7551-b535-3112065bcf20
f 7/1/1 2/2/1 4/3/1
f 4/4/2 1/5/2 3/6/2
f 8/7/3 1/8/3 6/9/3
f 8/10/4 5/11/4 7/4/4
f 1/12/5 5/13/5 6/14/5
f 4/15/6 8/13/6 7/16/6
f 15/17/7 10/18/7 12/19/7
f 11/20/8 10/21/8 9/22/8
f 11/23/9 14/24/9 16/25/9
f 16/26/10 13/27/10 15/28/10
f 9/29/11 13/30/11 14/31/11
f 12/30/12 16/32/12 15/33/12
f 23/34/7 18/35/7 20/36/7
f 19/37/8 18/38/8 17/39/8
f 19/40/9 22/41/9 24/42/9
f 24/43/10 21/44/10 23/45/10
f 17/46/13 21/47/13 22/48/13
f 23/49/14 19/50/14 24/51/14
f 31/52/15 26/53/15 28/54/15
f 28/55/16 25/56/16 27/57/16
f 27/58/17 30/59/18 32/60/18
f 32/61/19 29/62/19 31/63/19
f 25/64/11 29/65/11 30/66/11
f 31/67/12 27/68/14 32/69/12
f 39/70/20 34/71/20 36/72/20
f 35/73/21 34/74/21 33/75/21
f 35/76/22 38/77/22 40/78/22
f 40/79/23 37/80/23 39/81/23
f 33/82/24 37/83/24 38/84/24
f 36/85/25 40/83/25 39/86/25
f 44/87/20 45/88/20 42/89/20
f 44/90/21 41/91/21 43/92/21
f 48/93/22 41/94/22 46/88/22
f 48/95/23 45/96/23 47/97/23
f 46/98/24 42/99/24 45/100/24
f 44/101/25 48/100/25 47/102/25
f 55/103/20 50/104/20 52/105/20
f 52/106/21 49/107/21 51/108/21
f 51/109/22 54/110/22 56/111/22
f 56/112/23 53/113/23 55/114/23
f 49/115/24 53/116/24 54/117/24
f 55/118/25 51/119/25 56/120/25
f 63/121/20 58/122/20 60/123/20
f 59/124/21 58/125/21 57/126/21
f 64/127/22 57/41/22 62/128/22
f 63/129/23 62/22/23 61/130/23
f 62/131/24 58/132/24 61/133/24
f 63/134/25 59/132/25 64/133/25
f 71/135/26 66/136/26 68/137/26
f 68/138/27 65/139/27 67/140/27
f 67/141/28 70/142/28 72/143/28
f 71/144/29 70/145/29 69/146/29
f 65/147/30 69/148/30 70/149/30
f 68/150/31 72/151/31 71/152/31
f 76/153/26 77/154/26 74/155/26
f 76/156/27 73/157/27 75/158/27
f 75/159/28 78/160/28 80/161/28
f 79/162/29 78/163/29 77/164/29
f 73/165/30 77/166/30 78/167/30
f 79/168/31 75/169/31 80/170/31
f 84/171/32 85/172/32 82/173/32
f 83/174/33 82/175/33 81/176/33
f 83/177/34 86/178/34 88/179/34
f 87/180/35 86/147/35 85/181/35
f 86/86/36 82/182/36 85/183/36
f 84/184/37 88/183/37 87/185/37
f 95/186/32 90/187/32 92/188/32
f 92/189/33 89/190/33 91/191/33
f 96/192/34 89/193/34 94/194/34
f 96/195/35 93/196/35 95/197/35
f 94/134/36 90/198/36 93/199/36
f 92/200/37 96/199/37 95/201/37
f 100/202/32 101/203/32 98/204/32
f 100/205/33 97/206/33 99/207/33
f 99/208/34 102/209/34 104/210/34
f 103/211/35 102/212/35 101/200/35
f 97/213/36 101/214/36 102/215/36
f 100/216/37 104/217/37 103/218/37
f 111/219/32 106/220/32 108/17/32
f 107/221/33 106/222/33 105/223/33
f 107/224/34 110/225/34 112/226/34
f 112/227/35 109/228/35 111/229/35
f 105/230/36 109/231/36 110/232/36
f 108/233/37 112/234/37 111/235/37
f 119/236/38 114/237/38 116/238/38
f 116/239/39 113/240/39 115/241/39
f 120/242/40 113/243/40 118/244/40
f 120/245/41 117/246/41 119/247/41
f 113/248/42 117/249/42 118/250/42
f 116/249/43 120/5/43 119/251/43
f 127/252/44 122/253/44 124/254/44
f 123/255/45 122/256/45 121/257/46
f 123/258/47 126/259/47 128/260/47
f 127/261/48 126/262/48 125/256/48
f 126/263/49 122/193/49 125/264/49
f 127/126/50 123/233/51 128/235/51
f 132/258/52 133/265/52 130/266/52
f 132/267/53 129/268/53 131/269/53
f 131/270/54 134/271/54 136/272/54
f 136/273/55 133/274/55 135/275/55
f 129/276/56 133/277/56 134/278/56
f 132/279/57 136/280/58 135/281/57
f 143/282/59 138/283/59 140/284/59
f 140/285/60 137/286/60 139/287/60
f 144/288/61 137/289/61 142/290/61
f 144/291/62 141/292/62 143/293/62
f 137/294/63 141/295/63 142/296/63
f 140/297/64 144/298/64 143/299/64
f 151/300/38 146/301/38 148/302/38
f 148/303/65 145/304/65 147/305/65
f 147/306/40 150/307/40 152/308/40
f 152/309/66 149/310/66 151/311/66
f 145/312/67 149/313/67 150/314/67
f 148/315/68 152/316/68 151/317/68
f 159/318/38 154/319/38 156/320/38
f 156/321/69 153/322/69 155/323/69
f 155/324/40 158/325/40 160/326/40
f 160/327/70 157/328/70 159/329/70
f 153/330/1 157/331/1 158/332/1
f 156/333/3 160/334/3 159/335/3
f 167/336/38 162/337/38 164/338/38
f 164/339/69 161/340/69 163/341/69
f 163/342/40 166/343/40 168/344/40
f 168/345/70 165/341/70 167/9/70
f 161/346/1 165/347/1 166/348/1
f 164/349/3 168/350/3 167/351/3
f 175/352/71 170/353/71 172/354/71
f 172/355/72 169/356/72 171/357/73
f 171/358/74 174/359/74 176/360/74
f 176/361/75 173/362/75 175/363/75
f 169/364/76 173/365/76 174/366/76
f 175/367/77 171/368/77 176/369/77
f 183/370/44 178/265/44 180/371/44
f 179/372/45 178/373/45 177/374/46
f 184/370/47 177/375/47 182/376/47
f 183/377/48 182/378/48 181/379/48
f 177/380/49 181/381/49 182/382/49
f 180/383/50 184/384/50 183/385/50
f 191/386/78 186/387/78 188/388/78
f 188/389/79 185/390/79 187/391/79
f 192/392/80 185/393/80 190/394/80
f 192/395/81 189/396/81 191/397/81
f 190/398/82 186/399/82 189/400/82
f 188/401/83 192/402/83 191/403/83
f 199/404/84 194/405/84 196/406/84
f 195/407/85 194/408/85 193/409/85
f 200/410/86 193/411/86 198/412/86
f 200/413/87 197/414/87 199/415/87
f 193/416/88 197/417/88 198/418/88
f 196/419/89 200/420/89 199/421/89
f 207/422/90 202/423/90 204/424/90
f 204/425/91 201/426/91 203/427/91
f 208/428/92 201/429/92 206/430/92
f 208/431/93 205/432/93 207/433/93
f 201/434/94 205/435/94 206/436/94
f 204/437/95 208/438/95 207/439/95
f 215/440/96 210/441/96 212/442/96
f 211/443/97 210/444/97 209/445/97
f 211/446/98 214/447/98 216/448/98
f 216/449/99 213/450/99 215/451/99
f 209/452/100 213/453/100 214/454/100
f 212/455/101 216/456/102 215/457/101
f 220/458/103 221/459/104 218/460/104
f 220/461/105 217/462/105 219/463/105
f 224/464/106 217/465/107 222/466/107
f 224/467/108 221/468/108 223/469/108
f 217/470/109 221/471/109 222/472/109
f 220/473/110 224/474/110 223/475/110
f 231/476/29 226/477/29 228/478/29
f 228/479/111 225/480/111 227/481/111
f 227/482/27 230/483/27 232/484/27
f 232/485/112 229/486/112 231/487/112
f 230/488/40 226/489/40 229/490/40
f 228/491/38 232/492/38 231/493/38
f 239/494/113 234/495/113 236/496/113
f 235/497/114 234/498/114 233/499/114
f 235/500/115 238/501/115 240/502/115
f 240/503/116 237/504/116 239/505/116
f 233/506/117 237/507/117 238/508/117
f 236/509/118 240/510/118 239/511/118
f 244/512/119 245/513/119 242/514/119
f 244/515/120 241/516/120 243/517/120
f 248/518/121 241/519/121 246/520/121
f 248/521/122 245/522/122 247/523/122
f 241/524/123 245/525/123 246/526/123
f 244/527/124 248/528/124 247/529/124
f 255/530/119 250/531/119 252/532/119
f 252/533/120 249/534/120 251/535/120
f 256/536/121 249/537/121 254/538/121
f 256/539/122 253/540/122 255/541/122
f 249/542/123 253/543/123 254/544/123
f 252/545/124 256/546/124 255/547/124
f 260/548/125 261/549/125 258/550/125
f 259/551/126 258/552/126 257/553/126
f 259/554/127 262/555/128 264/556/128
f 263/557/129 262/558/129 261/559/129
f 262/560/130 258/561/130 261/562/131
f 260/563/132 264/564/133 263/565/133
f 268/219/7 269/566/7 266/567/7
f 267/568/134 266/569/134 265/570/134
f 272/571/9 265/572/9 270/573/9
f 272/574/135 269/575/135 271/576/135
f 270/577/131 266/578/131 269/579/131
f 268/580/133 272/581/133 271/582/133
f 276/583/7 277/584/7 274/585/7
f 275/586/134 274/587/134 273/588/134
f 280/589/9 273/590/9 278/591/9
f 280/592/135 277/125/135 279/593/135
f 278/29/130 274/594/130 277/595/130
f 276/596/132 280/597/132 279/598/132
f 287/599/136 282/600/136 284/601/136
f 284/602/137 281/603/137 283/604/137
f 288/605/138 281/606/138 286/607/138
f 288/608/139 285/609/139 287/610/139
f 281/611/140 285/612/140 286/613/140
f 287/614/141 283/615/141 288/616/141
f 292/617/136 293/618/136 290/619/136
f 291/620/137 290/213/137 289/621/137
f 291/622/138 294/623/138 296/624/138
f 295/625/139 294/626/139 293/627/139
f 289/628/140 293/629/140 294/630/140
f 295/631/141 291/632/141 296/633/141
f 303/634/136 298/635/136 300/636/136
f 300/637/137 297/638/137 299/639/137
f 304/640/138 297/641/138 302/642/138
f 304/643/139 301/644/139 303/645/139
f 297/646/140 301/647/140 302/648/140
f 303/649/141 299/650/141 304/651/141
f 308/652/136 309/18/136 306/590/136
f 308/653/137 305/654/137 307/655/137
f 312/656/138 305/657/138 310/658/138
f 312/659/139 309/660/139 311/661/139
f 310/662/140 306/394/140 309/663/140
f 311/664/141 307/665/141 312/666/141
f 316/667/142 317/668/142 314/669/142
f 315/670/143 314/654/143 313/671/143
f 315/672/144 318/15/144 320/673/144
f 320/674/145 317/675/145 319/676/145
f 313/677/146 317/678/146 318/664/146
f 316/679/147 320/678/147 319/380/147
f 327/680/142 322/681/142 324/682/142
f 323/683/143 322/684/143 321/685/143
f 328/686/144 321/687/144 326/688/144
f 327/689/145 326/690/145 325/691/145
f 321/692/146 325/693/146 326/694/146
f 324/695/147 328/696/147 327/697/147
f 335/698/142 330/699/142 332/700/142
f 332/701/143 329/702/143 331/703/143
f 331/87/144 334/704/144 336/698/144
f 335/705/145 334/182/145 333/706/145
f 329/679/146 333/707/146 334/380/146
f 332/708/147 336/707/147 335/98/147
f 340/709/142 341/710/142 338/711/142
f 339/712/143 338/713/143 337/714/143
f 344/715/144 337/716/144 342/717/144
f 344/718/145 341/719/145 343/720/145
f 337/721/146 341/722/146 342/723/146
f 340/82/147 344/724/147 343/84/147
f 348/725/38 349/726/38 346/280/38
f 348/727/148 345/728/148 347/729/148
f 347/730/40 350/726/40 352/731/40
f 352/732/149 349/733/149 351/734/149
f 345/735/150 349/736/150 350/737/150
f 348/738/151 352/739/151 351/740/151
f 356/741/152 357/635/152 354/384/152
f 356/742/153 353/743/153 355/744/154
f 360/745/155 353/746/155 358/747/155
f 360/255/156 357/748/156 359/749/156
f 353/750/157 357/751/157 358/506/157
f 356/752/158 360/753/159 359/754/158
f 364/755/160 365/756/160 362/94/160
f 364/757/161 361/758/161 363/759/161
f 363/760/162 366/131/162 368/761/162
f 367/762/163 366/763/163 365/764/163
f 366/765/164 362/766/164 365/767/164
f 367/768/165 363/769/165 368/770/165
f 375/771/38 370/772/38 372/773/38
f 372/774/166 369/775/166 371/776/166
f 371/777/40 374/778/40 376/779/40
f 376/780/167 373/781/167 375/782/167
f 369/783/168 373/784/168 374/785/168
f 372/786/169 376/787/169 375/788/169
f 383/789/38 378/790/38 380/791/38
f 380/792/69 377/793/69 379/794/69
f 379/795/40 382/796/40 384/797/40
f 384/798/70 381/799/70 383/800/70
f 377/801/1 381/802/1 382/803/1
f 380/804/3 384/805/3 383/806/3
f 388/807/152 389/808/152 386/746/152
f 388/809/153 385/810/153 387/811/154
f 387/812/155 390/813/155 392/814/155
f 392/815/156 389/816/156 391/817/156
f 385/664/157 389/818/157 390/819/157
f 391/820/158 387/678/158 392/821/158
f 396/822/170 397/823/170 394/824/170
f 395/825/171 394/826/171 393/827/171
f 395/828/172 398/32/172 400/829/172
f 400/830/173 397/831/173 399/832/174
f 398/833/175 394/834/175 397/835/175
f 396/836/176 400/837/176 399/838/176
f 407/839/38 402/840/38 404/841/38
f 404/842/69 401/843/69 403/844/69
f 403/845/40 406/846/40 408/847/40
f 408/848/70 405/849/70 407/340/70
f 401/850/1 405/851/1 406/852/1
f 404/853/3 408/854/3 407/855/3
f 415/856/177 410/808/177 412/857/177
f 411/858/178 410/859/178 409/860/178
f 411/260/179 414/861/179 416/856/179
f 415/862/180 414/863/180 413/864/180
f 414/865/181 410/866/181 413/867/181
f 415/868/182 411/626/183 416/869/183
f 420/870/184 421/871/184 418/872/184
f 420/873/185 417/874/185 419/875/185
f 419/876/186 422/877/186 424/878/186
f 423/879/187 422/880/187 421/881/187
f 417/882/82 421/883/82 422/884/82
f 423/885/83 419/886/83 424/887/83
f 428/888/188 429/889/188 426/890/188
f 427/891/189 426/892/189 425/893/189
f 427/894/190 430/895/190 432/896/190
f 432/897/191 429/898/191 431/899/191
f 425/900/88 429/901/88 430/902/88
f 428/903/89 432/904/89 431/905/89
f 439/906/192 434/907/192 436/908/192
f 436/909/193 433/910/193 435/911/193
f 435/912/194 438/913/194 440/914/194
f 440/915/195 437/916/195 439/917/195
f 433/918/94 437/919/94 438/920/94
f 439/921/95 435/922/95 440/923/95
f 444/924/196 445/925/196 442/926/196
f 443/927/197 442/928/197 441/929/197
f 448/930/198 441/931/198 446/932/198
f 448/933/199 445/934/199 447/935/199
f 446/936/100 442/937/100 445/938/100
f 447/939/101 443/940/102 448/941/102
f 455/942/200 450/943/201 452/944/200
f 451/945/202 450/946/202 449/947/202
f 451/948/203 454/949/204 456/950/203
f 455/951/205 454/952/205 453/953/205
f 449/954/206 453/955/206 454/956/206
f 452/957/207 456/958/207 455/959/207
f 463/960/208 458/961/208 460/962/208
f 459/963/209 458/964/209 457/965/209
f 464/966/210 457/967/210 462/968/210
f 464/969/211 461/970/211 463/971/211
f 457/972/117 461/973/117 462/974/117
f 463/975/118 459/976/118 464/977/118
f 471/978/120 466/979/120 468/980/120
f 468/981/212 465/841/212 467/982/212
f 467/983/122 470/690/122 472/984/122
f 472/985/213 469/986/213 471/987/213
f 465/988/40 469/989/40 470/990/40
f 471/991/38 467/992/38 472/993/38
f 479/994/214 474/995/214 476/996/214
f 476/997/215 473/998/215 475/999/215
f 475/1000/216 478/1001/216 480/1002/216
f 480/1003/217 477/1004/217 479/1005/217
f 473/1006/1 477/1007/1 478/1008/1
f 476/1009/3 480/1010/3 479/1011/3
f 487/1012/218 482/1013/218 484/1014/218
f 484/1015/219 481/1016/219 483/1017/219
f 488/1018/220 481/1019/220 486/1020/220
f 487/1021/221 486/1022/221 485/1023/221
f 481/1024/222 485/1025/222 486/1026/222
f 484/1027/223 488/1028/223 487/1029/224
f 495/1030/38 490/847/38 492/1031/38
f 492/1032/69 489/1033/69 491/1034/69
f 491/1035/40 494/1036/40 496/1037/40
f 496/1038/70 493/1039/70 495/1040/70
f 489/193/1 493/1041/1 494/1042/1
f 492/522/3 496/1043/3 495/1044/3
f 503/1045/1 498/1046/1 500/1047/1
f 500/1048/225 497/98/225 499/1049/225
f 499/1050/3 502/1051/3 504/1052/3
f 504/1053/226 501/100/226 503/1054/226
f 497/1055/227 501/1056/227 502/1057/227
f 500/553/228 504/1058/228 503/1059/228
f 508/1060/1 509/1061/1 506/1062/1
f 508/1063/229 505/1064/229 507/10/229
f 507/1065/3 510/1066/3 512/1067/3
f 512/1068/230 509/1069/230 511/1063/230
f 505/1070/231 509/1071/231 510/1072/231
f 508/1073/232 512/1074/232 511/1075/232
f 519/1076/233 514/1077/233 516/1078/233
f 515/1079/69 514/1080/69 513/1081/69
f 515/1082/234 518/1083/234 520/1084/234
f 520/1085/70 517/1086/70 519/1087/70
f 513/1088/235 517/1089/235 518/1090/235
f 516/1091/236 520/1092/236 519/1093/236
f 524/1094/237 525/1095/237 522/1096/237
f 523/1097/238 522/1098/238 521/1099/238
f 523/1100/239 526/1101/239 528/1102/239
f 527/1103/240 526/1104/240 525/1105/240
f 521/1106/241 525/1107/241 526/1108/241
f 527/1109/242 523/1110/242 528/1111/242
f 535/1112/237 530/1113/237 532/1114/237
f 532/1115/69 529/1116/69 531/1117/69
f 531/1118/239 534/1119/239 536/1120/239
f 536/1121/70 533/1122/70 535/1123/70
f 529/1124/243 533/1125/243 534/1126/243
f 532/1127/244 536/1128/244 535/1129/244
f 543/1130/245 538/1131/245 540/1132/245
f 540/1133/246 537/1134/246 539/1135/246
f 539/1136/247 542/1137/247 544/1138/247
f 544/1139/248 541/1140/248 543/1141/248
f 537/1142/1 541/1143/1 542/1144/1
f 543/1145/3 539/1146/3 544/1147/3
f 551/1148/249 546/1149/249 548/1150/249
f 548/1151/250 545/1152/250 547/1153/250
f 552/1154/251 545/1155/251 550/1156/251
f 551/1157/252 550/1158/252 549/1159/252
f 545/1160/253 549/1161/253 550/1162/253
f 551/1163/254 547/1164/254 552/1165/254
f 559/1166/38 554/184/38 556/1167/38
f 556/1168/69 553/1169/69 555/1170/69
f 555/1171/40 558/1172/40 560/1173/40
f 560/1174/70 557/1175/70 559/1176/70
f 553/1177/1 557/1178/1 558/1179/1
f 556/1180/3 560/1181/3 559/1182/3
f 567/1183/1 562/1184/1 564/1185/1
f 564/1186/255 561/1187/255 563/1188/255
f 563/1189/3 566/695/3 568/1190/3
f 568/1191/256 565/666/256 567/1192/256
f 561/1193/257 565/1194/257 566/1195/257
f 564/1196/258 568/1197/258 567/1198/258
f 575/1199/237 570/1200/237 572/1201/237
f 571/1202/259 570/1203/259 569/1204/259
f 571/1205/239 574/216/239 576/1206/239
f 576/1207/260 573/1208/260 575/1209/260
f 574/1210/261 570/1211/261 573/1212/261
f 572/1213/262 576/1214/262 575/1215/262
f 583/1216/237 578/1217/237 580/1218/237
f 580/1219/69 577/243/69 579/1220/69
f 579/1221/239 582/1222/239 584/1223/239
f 584/1224/70 581/1225/70 583/1226/70
f 577/1227/243 581/1228/243 582/1229/243
f 580/1230/244 584/1231/244 583/1232/244
f 591/1233/233 586/1234/233 588/1235/233
f 587/1236/69 586/1237/69 585/1238/69
f 587/1239/234 590/1240/234 592/1241/234
f 592/1242/70 589/1243/70 591/1244/70
f 585/1245/235 589/1246/235 590/1247/235
f 588/1248/236 592/1249/236 591/1250/236
f 7/1/1 5/1251/1 2/2/1
f 4/4/2 2/11/2 1/5/2
f 8/7/3 3/1252/3 1/8/3
f 8/10/4 6/1064/4 5/11/4
f 1/12/5 2/618/5 5/13/5
f 4/15/6 3/618/6 8/13/6
f 15/17/7 13/220/7 10/18/7
f 11/20/8 12/1253/8 10/21/8
f 11/23/9 9/1254/9 14/24/9
f 16/26/10 14/1255/10 13/27/10
f 9/29/11 10/595/11 13/30/11
f 12/30/12 11/31/12 16/32/12
f 23/34/7 21/1256/7 18/35/7
f 19/37/8 20/1257/8 18/38/8
f 19/40/9 17/1258/9 22/41/9
f 24/43/10 22/1259/10 21/44/10
f 17/46/13 18/1260/13 21/47/13
f 23/49/14 20/1261/14 19/50/14
f 31/52/15 29/1262/15 26/53/15
f 28/55/16 26/1263/16 25/56/16
f 27/58/17 25/1264/17 30/59/18
f 32/61/19 30/1265/19 29/62/19
f 25/64/11 26/1266/13 29/65/11
f 31/67/12 28/1267/14 27/68/14
f 39/70/20 37/1268/20 34/71/20
f 35/73/21 36/1269/21 34/74/21
f 35/76/22 33/1270/22 38/77/22
f 40/79/23 38/1175/23 37/80/23
f 33/82/24 34/1271/24 37/83/24
f 36/85/25 35/1271/25 40/83/25
f 44/87/20 47/93/20 45/88/20
f 44/90/21 42/184/21 41/91/21
f 48/93/22 43/1272/22 41/94/22
f 48/95/23 46/1273/23 45/96/23
f 46/98/24 41/708/24 42/99/24
f 44/101/25 43/99/25 48/100/25
f 55/103/20 53/1274/20 50/104/20
f 52/106/21 50/477/21 49/107/21
f 51/109/22 49/1275/22 54/110/22
f 56/112/23 54/665/23 53/113/23
f 49/115/24 50/283/24 53/116/24
f 55/118/25 52/1046/25 51/119/25
f 63/121/20 61/573/20 58/122/20
f 59/124/21 60/1276/21 58/125/21
f 64/127/22 59/1277/22 57/41/22
f 63/129/23 64/1278/23 62/22/23
f 62/131/24 57/1279/24 58/132/24
f 63/134/25 60/1280/25 59/132/25
f 71/135/26 69/1281/26 66/136/26
f 68/138/27 66/1282/27 65/139/27
f 67/141/28 65/1283/28 70/142/28
f 71/144/29 72/1284/29 70/145/29
f 65/147/30 66/1285/30 69/148/30
f 68/150/31 67/1286/31 72/151/31
f 76/153/26 79/1287/26 77/154/26
f 76/156/27 74/1288/27 73/157/27
f 75/159/28 73/1289/28 78/160/28
f 79/162/29 80/1290/29 78/163/29
f 73/165/30 74/1291/30 77/166/30
f 79/168/31 76/1292/31 75/169/31
f 84/171/32 87/1293/32 85/172/32
f 83/174/33 84/1294/33 82/175/33
f 83/177/34 81/1295/34 86/178/34
f 87/180/35 88/1296/35 86/147/35
f 86/86/36 81/85/36 82/182/36
f 84/184/37 83/182/37 88/183/37
f 95/186/32 93/231/32 90/187/32
f 92/189/33 90/677/33 89/190/33
f 96/192/34 91/1297/34 89/193/34
f 96/195/35 94/1298/35 93/196/35
f 94/134/36 89/1280/36 90/198/36
f 92/200/37 91/198/37 96/199/37
f 100/202/32 103/1299/32 101/203/32
f 100/205/33 98/1300/33 97/206/33
f 99/208/34 97/1301/34 102/209/34
f 103/211/35 104/1302/35 102/212/35
f 97/213/36 98/1303/36 101/214/36
f 100/216/37 99/1304/37 104/217/37
f 111/219/32 109/567/32 106/220/32
f 107/221/33 108/1305/33 106/222/33
f 107/224/34 105/1306/34 110/225/34
f 112/227/35 110/1307/35 109/228/35
f 105/230/36 106/187/36 109/231/36
f 108/233/37 107/1308/37 112/234/37
f 119/236/38 117/1309/38 114/237/38
f 116/239/39 114/1310/39 113/240/39
f 120/242/40 115/1311/40 113/243/40
f 120/245/41 118/1312/41 117/246/41
f 113/248/42 114/1313/42 117/249/42
f 116/249/43 115/250/43 120/5/43
f 127/252/44 125/1227/44 122/253/44
f 123/255/45 124/261/45 122/256/45
f 123/258/47 121/266/47 126/259/47
f 127/261/48 128/1314/263 126/262/48
f 126/263/49 121/1315/49 122/193/49
f 127/126/50 124/1187/50 123/233/51
f 132/258/52 135/371/52 133/265/52
f 132/267/53 130/1316/53 129/268/53
f 131/270/54 129/1124/54 134/271/54
f 136/273/55 134/1317/55 133/274/55
f 129/276/56 130/1318/56 133/277/56
f 132/279/57 131/1319/58 136/280/58
f 143/282/59 141/1320/59 138/283/59
f 140/285/60 138/1321/60 137/286/60
f 144/288/61 139/1322/61 137/289/61
f 144/291/62 142/1323/62 141/292/62
f 137/294/63 138/1324/63 141/295/63
f 140/297/64 139/1325/64 144/298/64
f 151/300/38 149/1326/38 146/301/38
f 148/303/65 146/1327/65 145/304/65
f 147/306/40 145/1328/40 150/307/40
f 152/309/66 150/1329/66 149/310/66
f 145/312/67 146/1330/67 149/313/67
f 148/315/68 147/1331/68 152/316/68
f 159/318/38 157/1332/38 154/319/38
f 156/321/69 154/1333/69 153/322/69
f 155/324/40 153/1334/40 158/325/40
f 160/327/70 158/1335/70 157/328/70
f 153/330/1 154/1336/1 157/331/1
f 156/333/3 155/1337/3 160/334/3
f 167/336/38 165/1338/38 162/337/38
f 164/339/69 162/848/69 161/340/69
f 163/342/40 161/1339/40 166/343/40
f 168/345/70 166/339/70 165/341/70
f 161/346/1 162/1340/1 165/347/1
f 164/349/3 163/1341/3 168/350/3
f 175/352/71 173/1342/71 170/353/71
f 172/355/72 170/1343/72 169/356/72
f 171/358/74 169/1344/74 174/359/74
f 176/361/75 174/1345/75 173/362/75
f 169/364/76 170/1346/76 173/365/76
f 175/367/77 172/1347/77 171/368/77
f 183/370/44 181/376/44 178/265/44
f 179/372/45 180/1348/45 178/373/45
f 184/370/47 179/1349/47 177/375/47
f 183/377/48 184/1350/263 182/378/48
f 177/380/49 178/1351/49 181/381/49
f 180/383/50 179/707/50 184/384/50
f 191/386/78 189/1352/78 186/387/78
f 188/389/79 186/1353/79 185/390/79
f 192/392/80 187/1354/80 185/393/80
f 192/395/81 190/1355/81 189/396/81
f 190/398/82 185/1356/82 186/399/82
f 188/401/83 187/1357/83 192/402/83
f 199/404/84 197/1358/84 194/405/84
f 195/407/85 196/1359/85 194/408/85
f 200/410/86 195/1360/86 193/411/86
f 200/413/87 198/1361/87 197/414/87
f 193/416/88 194/1362/88 197/417/88
f 196/419/89 195/1363/89 200/420/89
f 207/422/90 205/1364/90 202/423/90
f 204/425/91 202/1365/91 201/426/91
f 208/428/92 203/1366/92 201/429/92
f 208/431/93 206/1367/93 205/432/93
f 201/434/94 202/1368/94 205/435/94
f 204/437/95 203/1369/95 208/438/95
f 215/440/96 213/1370/96 210/441/96
f 211/443/97 212/1371/97 210/444/97
f 211/446/98 209/1372/98 214/447/98
f 216/449/99 214/1373/99 213/450/99
f 209/452/100 210/1374/100 213/453/100
f 212/455/101 211/1375/102 216/456/102
f 220/458/103 223/1376/103 221/459/104
f 220/461/105 218/1377/105 217/462/105
f 224/464/106 219/1378/106 217/465/107
f 224/467/108 222/1379/108 221/468/108
f 217/470/109 218/1380/109 221/471/109
f 220/473/110 219/1381/110 224/474/110
f 231/476/29 229/1382/29 226/477/29
f 228/479/111 226/1383/111 225/480/111
f 227/482/27 225/1384/27 230/483/27
f 232/485/112 230/1385/112 229/486/112
f 230/488/40 225/1386/40 226/489/40
f 228/491/38 227/1387/38 232/492/38
f 239/494/113 237/1388/113 234/495/113
f 235/497/114 236/1389/114 234/498/114
f 235/500/115 233/1390/115 238/501/115
f 240/503/116 238/1391/116 237/504/116
f 233/506/117 234/1392/117 237/507/117
f 236/509/118 235/1393/118 240/510/118
f 244/512/119 247/1394/119 245/513/119
f 244/515/120 242/1395/120 241/516/120
f 248/518/121 243/1396/121 241/519/121
f 248/521/122 246/1397/122 245/522/122
f 241/524/123 242/1398/123 245/525/123
f 244/527/124 243/175/124 248/528/124
f 255/530/119 253/1399/119 250/531/119
f 252/533/120 250/1400/120 249/534/120
f 256/536/121 251/1401/121 249/537/121
f 256/539/122 254/1402/122 253/540/122
f 249/542/123 250/1403/123 253/543/123
f 252/545/124 251/1404/124 256/546/124
f 260/548/125 263/1405/125 261/549/125
f 259/551/126 260/1406/126 258/552/126
f 259/554/127 257/1407/127 262/555/128
f 263/557/129 264/1408/129 262/558/129
f 262/560/130 257/1409/130 258/561/130
f 260/563/132 259/1410/132 264/564/133
f 268/219/7 271/1411/7 269/566/7
f 267/568/134 268/1412/134 266/569/134
f 272/571/9 267/1413/9 265/572/9
f 272/574/135 270/1414/135 269/575/135
f 270/577/131 265/1415/131 266/578/131
f 268/580/133 267/382/133 272/581/133
f 276/583/7 279/1097/7 277/584/7
f 275/586/134 276/1416/134 274/587/134
f 280/589/9 275/652/9 273/590/9
f 280/592/135 278/1417/135 277/125/135
f 278/29/130 273/1418/130 274/594/130
f 276/596/132 275/1419/132 280/597/132
f 287/599/136 285/1420/136 282/600/136
f 284/602/137 282/1421/137 281/603/137
f 288/605/138 283/1422/138 281/606/138
f 288/608/139 286/77/139 285/609/139
f 281/611/140 282/1423/140 285/612/140
f 287/614/141 284/743/141 283/615/141
f 292/617/136 295/1424/136 293/618/136
f 291/620/137 292/1425/137 290/213/137
f 291/622/138 289/122/138 294/623/138
f 295/625/139 296/1426/139 294/626/139
f 289/628/140 290/1427/140 293/629/140
f 295/631/141 292/913/141 291/632/141
f 303/634/136 301/1428/136 298/635/136
f 300/637/137 298/1429/137 297/638/137
f 304/640/138 299/1430/138 297/641/138
f 304/643/139 302/706/139 301/644/139
f 297/646/140 298/1418/140 301/647/140
f 303/649/141 300/89/141 299/650/141
f 308/652/136 311/19/136 309/18/136
f 308/653/137 306/1431/137 305/654/137
f 312/656/138 307/1432/138 305/657/138
f 312/659/139 310/1433/139 309/660/139
f 310/662/140 305/1434/140 306/394/140
f 311/664/141 308/677/141 307/665/141
f 316/667/142 319/1435/142 317/668/142
f 315/670/143 316/1436/143 314/654/143
f 315/672/144 313/225/144 318/15/144
f 320/674/145 318/588/145 317/675/145
f 313/677/146 314/1298/146 317/678/146
f 316/679/147 315/1298/147 320/678/147
f 327/680/142 325/1437/142 322/681/142
f 323/683/143 324/1438/143 322/684/143
f 328/686/144 323/1439/144 321/687/144
f 327/689/145 328/1440/145 326/690/145
f 321/692/146 322/94/146 325/693/146
f 324/695/147 323/1441/147 328/696/147
f 335/698/142 333/704/142 330/699/142
f 332/701/143 330/85/143 329/702/143
f 331/87/144 329/89/144 334/704/144
f 335/705/145 336/1442/145 334/182/145
f 329/679/146 330/1443/146 333/707/146
f 332/708/147 331/1443/147 336/707/147
f 340/709/142 343/1444/142 341/710/142
f 339/712/143 340/1445/143 338/713/143
f 344/715/144 339/1446/144 337/716/144
f 344/718/145 342/886/145 341/719/145
f 337/721/146 338/872/146 341/722/146
f 340/82/147 339/1447/147 344/724/147
f 348/725/38 351/731/38 349/726/38
f 348/727/148 346/1448/148 345/728/148
f 347/730/40 345/646/40 350/726/40
f 352/732/149 350/1449/149 349/733/149
f 345/735/150 346/1450/150 349/736/150
f 348/738/151 347/1451/151 352/739/151
f 356/741/152 359/1452/152 357/635/152
f 356/742/153 354/1160/153 353/743/153
f 360/745/155 355/807/155 353/746/155
f 360/255/156 358/257/264 357/748/156
f 353/750/157 354/1453/157 357/751/157
f 356/752/158 355/1454/159 360/753/159
f 364/755/160 367/1455/160 365/756/160
f 364/757/161 362/1456/161 361/758/161
f 363/760/162 361/1457/162 366/131/162
f 367/762/163 368/1458/163 366/763/163
f 366/765/164 361/74/164 362/766/164
f 367/768/165 364/1459/165 363/769/165
f 375/771/38 373/1460/38 370/772/38
f 372/774/166 370/1461/166 369/775/166
f 371/777/40 369/1462/40 374/778/40
f 376/780/167 374/1463/167 373/781/167
f 369/783/168 370/1464/168 373/784/168
f 372/786/169 371/1465/169 376/787/169
f 383/789/38 381/1466/38 378/790/38
f 380/792/69 378/1467/69 377/793/69
f 379/795/40 377/1468/40 382/796/40
f 384/798/70 382/1469/70 381/799/70
f 377/801/1 378/1470/1 381/802/1
f 380/804/3 379/753/3 384/805/3
f 388/807/152 391/857/152 389/808/152
f 388/809/153 386/1471/153 385/810/153
f 387/812/155 385/204/155 390/813/155
f 392/815/156 390/1472/264 389/816/156
f 385/664/157 386/1473/157 389/818/157
f 391/820/158 388/1474/158 387/678/158
f 396/822/170 399/1475/170 397/823/170
f 395/825/171 396/1476/171 394/826/171
f 395/828/172 393/1477/172 398/32/172
f 400/830/173 398/1478/173 397/831/173
f 398/833/175 393/1479/175 394/834/175
f 396/836/176 395/1480/176 400/837/176
f 407/839/38 405/1481/38 402/840/38
f 404/842/69 402/1482/69 401/843/69
f 403/845/40 401/1483/40 406/846/40
f 408/848/70 406/1484/70 405/849/70
f 401/850/1 402/1485/1 405/851/1
f 404/853/3 403/1486/3 408/854/3
f 415/856/177 413/861/177 410/808/177
f 411/858/178 412/1487/178 410/859/178
f 411/260/179 409/259/179 414/861/179
f 415/862/180 416/1488/180 414/863/180
f 414/865/181 409/1489/181 410/866/181
f 415/868/182 412/1490/182 411/626/183
f 420/870/184 423/1491/184 421/871/184
f 420/873/185 418/1492/185 417/874/185
f 419/876/186 417/1493/186 422/877/186
f 423/879/187 424/1494/187 422/880/187
f 417/882/82 418/1495/82 421/883/82
f 423/885/83 420/1496/83 419/886/83
f 428/888/188 431/1497/188 429/889/188
f 427/891/189 428/1498/189 426/892/189
f 427/894/190 425/1499/190 430/895/190
f 432/897/191 430/1500/191 429/898/191
f 425/900/88 426/1501/88 429/901/88
f 428/903/89 427/1502/89 432/904/89
f 439/906/192 437/1503/192 434/907/192
f 436/909/193 434/1504/193 433/910/193
f 435/912/194 433/1505/194 438/913/194
f 440/915/195 438/1506/195 437/916/195
f 433/918/94 434/1507/94 437/919/94
f 439/921/95 436/1508/95 435/922/95
f 444/924/196 447/1509/196 445/925/196
f 443/927/197 444/1510/197 442/928/197
f 448/930/198 443/1511/198 441/931/198
f 448/933/199 446/1512/199 445/934/199
f 446/936/100 441/1513/100 442/937/100
f 447/939/101 444/1514/101 443/940/102
f 455/942/200 453/1515/201 450/943/201
f 451/945/202 452/1516/202 450/946/202
f 451/948/203 449/1517/204 454/949/204
f 455/951/205 456/1518/205 454/952/205
f 449/954/206 450/1519/206 453/955/206
f 452/957/207 451/630/207 456/958/207
f 463/960/208 461/1520/208 458/961/208
f 459/963/209 460/1521/209 458/964/209
f 464/966/210 459/1522/210 457/967/210
f 464/969/211 462/1523/211 461/970/211
f 457/972/117 458/1524/117 461/973/117
f 463/975/118 460/1525/118 459/976/118
f 471/978/120 469/1526/120 466/979/120
f 468/981/212 466/1527/212 465/841/212
f 467/983/122 465/1528/122 470/690/122
f 472/985/213 470/1529/213 469/986/213
f 465/988/40 466/1530/40 469/989/40
f 471/991/38 468/1531/38 467/992/38
f 479/994/214 477/1532/214 474/995/214
f 476/997/215 474/1533/215 473/998/215
f 475/1000/216 473/1534/216 478/1001/216
f 480/1003/217 478/1535/217 477/1004/217
f 473/1006/1 474/1536/1 477/1007/1
f 476/1009/3 475/1537/3 480/1010/3
f 487/1012/218 485/1538/218 482/1013/218
f 484/1015/219 482/1539/219 481/1016/219
f 488/1018/220 483/1540/220 481/1019/220
f 487/1021/221 488/1541/221 486/1022/221
f 481/1024/222 482/1542/222 485/1025/222
f 484/1027/223 483/1543/223 488/1028/223
f 495/1030/38 493/1544/38 490/847/38
f 492/1032/69 490/1545/69 489/1033/69
f 491/1035/40 489/1546/40 494/1036/40
f 496/1038/70 494/1547/70 493/1039/70
f 489/193/1 490/136/1 493/1041/1
f 492/522/3 491/1548/3 496/1043/3
f 503/1045/1 501/1549/1 498/1046/1
f 500/1048/225 498/813/225 497/98/225
f 499/1050/3 497/1550/3 502/1051/3
f 504/1053/226 502/253/226 501/100/226
f 497/1055/227 498/1551/227 501/1056/227
f 500/553/228 499/1552/228 504/1058/228
f 508/1060/1 511/1553/1 509/1061/1
f 508/1063/229 506/1069/229 505/1064/229
f 507/1065/3 505/1554/3 510/1066/3
f 512/1068/230 510/1555/230 509/1069/230
f 505/1070/231 506/1556/231 509/1071/231
f 508/1073/232 507/1557/232 512/1074/232
f 519/1076/233 517/1558/233 514/1077/233
f 515/1079/69 516/1559/69 514/1080/69
f 515/1082/234 513/1560/234 518/1083/234
f 520/1085/70 518/1561/70 517/1086/70
f 513/1088/235 514/1562/235 517/1089/235
f 516/1091/236 515/1563/236 520/1092/236
f 524/1094/237 527/1564/237 525/1095/237
f 523/1097/238 524/1565/238 522/1098/238
f 523/1100/239 521/1566/239 526/1101/239
f 527/1103/240 528/1567/240 526/1104/240
f 521/1106/241 522/1568/241 525/1107/241
f 527/1109/242 524/1569/242 523/1110/242
f 535/1112/237 533/1570/237 530/1113/237
f 532/1115/69 530/1571/69 529/1116/69
f 531/1118/239 529/1572/239 534/1119/239
f 536/1121/70 534/1573/70 533/1122/70
f 529/1124/243 530/1574/243 533/1125/243
f 532/1127/244 531/1575/244 536/1128/244
f 543/1130/245 541/1576/245 538/1131/245
f 540/1133/246 538/1577/246 537/1134/246
f 539/1136/247 537/1578/247 542/1137/247
f 544/1139/248 542/1579/248 541/1140/248
f 537/1142/1 538/1580/1 541/1143/1
f 543/1145/3 540/1581/3 539/1146/3
f 551/1148/249 549/214/249 546/1149/249
f 548/1151/250 546/1582/250 545/1152/250
f 552/1154/251 547/1583/251 545/1155/251
f 551/1157/252 552/1584/252 550/1158/252
f 545/1160/253 546/1585/253 549/1161/253
f 551/1163/254 548/1586/265 547/1164/254
f 559/1166/38 557/1587/38 554/184/38
f 556/1168/69 554/1588/69 553/1169/69
f 555/1171/40 553/1589/40 558/1172/40
f 560/1174/70 558/1590/70 557/1175/70
f 553/1177/1 554/1591/1 557/1178/1
f 556/1180/3 555/212/3 560/1181/3
f 567/1183/1 565/1592/1 562/1184/1
f 564/1186/255 562/126/255 561/1187/255
f 563/1189/3 561/1593/3 566/695/3
f 568/1191/256 566/949/256 565/666/256
f 561/1193/257 562/1594/257 565/1194/257
f 564/1196/258 563/1595/258 568/1197/258
f 575/1199/237 573/1596/237 570/1200/237
f 571/1202/259 572/1597/259 570/1203/259
f 571/1205/239 569/1598/239 574/216/239
f 576/1207/260 574/1599/260 573/1208/260
f 574/1210/261 569/1600/261 570/1211/261
f 572/1213/262 571/1601/262 576/1214/262
f 583/1216/237 581/1602/237 578/1217/237
f 580/1219/69 578/1603/69 577/243/69
f 579/1221/239 577/1604/239 582/1222/239
f 584/1224/70 582/1605/70 581/1225/70
f 577/1227/243 578/1606/243 581/1228/243
f 580/1230/244 579/1607/244 584/1231/244
f 591/1233/233 589/1608/233 586/1234/233
f 587/1236/69 588/1609/69 586/1237/69
f 587/1239/234 585/1610/234 590/1240/234
f 592/1242/70 590/1611/70 589/1243/70
f 585/1245/235 586/1612/235 589/1246/235
f 588/1248/236 587/1613/236 592/1249/236
