# Blender 4.4.3
# www.blender.org
mtllib assault.mtl
o assault_brf
v 0.287383 1.425409 -0.181250
v 0.287383 1.425409 -0.193750
v 0.282814 1.410467 -0.181250
v 0.282814 1.410467 -0.193750
v 0.161868 1.463783 -0.193750
v 0.161868 1.463783 -0.181250
v 0.157299 1.448840 -0.193750
v 0.157299 1.448840 -0.181250
v 0.156250 1.354294 -0.134657
v 0.156250 1.367913 -0.290312
v 0.156250 1.167508 -0.150999
v 0.156250 1.181126 -0.306654
v -0.156250 1.367913 -0.290312
v -0.156250 1.354294 -0.134657
v -0.156250 1.181126 -0.306654
v -0.156250 1.167508 -0.150999
v -0.157828 1.439980 -0.178820
v -0.174005 1.453560 -0.237643
v -0.157828 1.318183 -0.206939
v -0.174005 1.331764 -0.265762
v -0.264560 1.448102 -0.214000
v -0.248384 1.434521 -0.155177
v -0.264560 1.326306 -0.242119
v -0.248384 1.312725 -0.183296
v -0.168696 1.345074 -0.268696
v -0.225187 1.330267 -0.325187
v -0.152589 1.222167 -0.252589
v -0.209079 1.207360 -0.309079
v -0.225187 1.330267 -0.325187
v -0.168696 1.345074 -0.268696
v -0.209079 1.207360 -0.309079
v -0.152589 1.222167 -0.252589
v 0.231526 1.322907 0.180009
v 0.174073 1.322907 0.237462
v 0.247633 1.200000 0.196117
v 0.190181 1.200000 0.253569
v 0.174073 1.322907 0.237462
v 0.231526 1.322907 0.180009
v 0.190181 1.200000 0.253569
v 0.247633 1.200000 0.196117
v 0.143750 1.300034 -0.294403
v 0.143750 1.300688 -0.300619
v 0.143750 1.206798 -0.304203
v 0.143750 1.207451 -0.310419
v 0.003125 1.300688 -0.300619
v 0.003125 1.300034 -0.294403
v 0.003125 1.207451 -0.310419
v 0.003125 1.206798 -0.304203
v 0.000000 1.299048 -0.294836
v 0.000000 1.299701 -0.301052
v 0.000000 1.212027 -0.303982
v 0.000000 1.212680 -0.310198
v -0.137500 1.299701 -0.301052
v -0.137500 1.299048 -0.294836
v -0.137500 1.212680 -0.310198
v -0.137500 1.212027 -0.303982
v 0.078125 0.734375 -0.287500
v 0.078125 0.734375 -0.293750
v 0.078125 0.640625 -0.287500
v 0.078125 0.640625 -0.293750
v -0.078125 0.734375 -0.293750
v -0.078125 0.734375 -0.287500
v -0.078125 0.640625 -0.293750
v -0.078125 0.640625 -0.287500
v 0.250000 1.250000 -0.100000
v 0.250000 1.250000 -0.225000
v 0.250000 0.750000 -0.100000
v 0.250000 0.750000 -0.225000
v -0.250000 1.250000 -0.225000
v -0.250000 1.250000 -0.100000
v -0.250000 0.750000 -0.225000
v -0.250000 0.750000 -0.100000
v 0.187500 1.437383 -0.120490
v 0.187500 1.450377 -0.181624
v 0.187500 1.235640 -0.163371
v 0.187500 1.248634 -0.224506
v -0.187500 1.450377 -0.181624
v -0.187500 1.437383 -0.120490
v -0.187500 1.248634 -0.224506
v -0.187500 1.235640 -0.163371
v -0.186577 1.562018 -0.061586
v -0.185083 1.576234 -0.128834
v -0.061397 1.151319 -0.145624
v -0.059903 1.165534 -0.212871
v -0.322788 1.536602 -0.140271
v -0.324282 1.522386 -0.073024
v -0.197608 1.125903 -0.224309
v -0.199102 1.111687 -0.157061
v -0.194001 1.548971 0.073011
v -0.209932 1.608028 0.060175
v -0.169288 1.515885 -0.109885
v -0.185219 1.574941 -0.122721
v -0.347637 1.568396 0.048738
v -0.331706 1.509339 0.061574
v -0.322924 1.535310 -0.134158
v -0.306993 1.476253 -0.121322
v -0.210019 1.609075 0.057275
v -0.191989 1.550596 0.044571
v -0.210316 1.586431 0.161084
v -0.192286 1.527953 0.148380
v -0.329627 1.510161 0.035357
v -0.347657 1.568640 0.048061
v -0.329924 1.487518 0.139166
v -0.347954 1.545997 0.151870
v -0.210316 1.586431 0.161084
v -0.204878 1.582071 0.098974
v -0.126080 1.293324 0.189036
v -0.120642 1.288964 0.126926
v -0.342516 1.541637 0.089760
v -0.347954 1.545997 0.151870
v -0.258280 1.248529 0.117712
v -0.263718 1.252890 0.179822
v 0.265625 1.437500 0.200000
v 0.265625 1.437500 0.106250
v 0.265625 0.750000 0.200000
v 0.265625 0.750000 0.106250
v -0.265625 1.437500 0.106250
v -0.265625 1.437500 0.200000
v -0.265625 0.750000 0.106250
v -0.265625 0.750000 0.200000
v -0.172363 1.529739 -0.042326
v -0.189886 1.594702 -0.056445
v -0.161654 1.515402 -0.121580
v -0.179177 1.580364 -0.135700
v -0.339565 1.551624 -0.068877
v -0.322042 1.486661 -0.054758
v -0.328856 1.537287 -0.148132
v -0.311333 1.472324 -0.134012
v -0.188838 1.551797 0.079605
v -0.206362 1.616759 0.065485
v -0.178129 1.537459 0.000350
v -0.195653 1.602422 -0.013770
v -0.356041 1.573681 0.053053
v -0.338517 1.508719 0.067173
v -0.345332 1.559344 -0.026202
v -0.327808 1.494382 -0.012082
v -0.250000 1.062500 0.150000
v -0.250000 1.062500 -0.162500
v -0.250000 0.812500 0.150000
v -0.250000 0.812500 -0.162500
v -0.312500 1.062500 -0.162500
v -0.312500 1.062500 0.150000
v -0.312500 0.812500 -0.162500
v -0.312500 0.812500 0.150000
v 0.312500 1.062500 0.150000
v 0.312500 1.062500 -0.162500
v 0.312500 0.812500 0.150000
v 0.312500 0.812500 -0.162500
v 0.250000 1.062500 -0.162500
v 0.250000 1.062500 0.150000
v 0.250000 0.812500 -0.162500
v 0.250000 0.812500 0.150000
v 0.324282 1.522386 -0.073024
v 0.322788 1.536602 -0.140271
v 0.199102 1.111687 -0.157061
v 0.197608 1.125903 -0.224309
v 0.185083 1.576234 -0.128834
v 0.186577 1.562018 -0.061586
v 0.059903 1.165534 -0.212871
v 0.061397 1.151319 -0.145624
v 0.322042 1.486661 -0.054758
v 0.339565 1.551624 -0.068877
v 0.311333 1.472324 -0.134012
v 0.328856 1.537287 -0.148132
v 0.189886 1.594702 -0.056445
v 0.172363 1.529739 -0.042326
v 0.179177 1.580364 -0.135700
v 0.161654 1.515402 -0.121580
v 0.331706 1.509339 0.061574
v 0.347637 1.568396 0.048738
v 0.306993 1.476253 -0.121322
v 0.322924 1.535310 -0.134158
v 0.209932 1.608028 0.060175
v 0.194001 1.548971 0.073011
v 0.185219 1.574941 -0.122721
v 0.169288 1.515885 -0.109885
v 0.338517 1.508719 0.067173
v 0.356041 1.573681 0.053053
v 0.327808 1.494382 -0.012082
v 0.345332 1.559344 -0.026202
v 0.206362 1.616759 0.065485
v 0.188838 1.551797 0.079605
v 0.195653 1.602422 -0.013770
v 0.178129 1.537459 0.000350
v 0.347657 1.568640 0.048061
v 0.329627 1.510161 0.035357
v 0.347954 1.545997 0.151870
v 0.329924 1.487518 0.139166
v 0.191989 1.550596 0.044571
v 0.210019 1.609075 0.057275
v 0.192286 1.527953 0.148380
v 0.210316 1.586431 0.161084
v 0.347954 1.545997 0.151870
v 0.342516 1.541637 0.089760
v 0.263718 1.252890 0.179822
v 0.258280 1.248529 0.117712
v 0.204878 1.582071 0.098974
v 0.210316 1.586431 0.161084
v 0.120642 1.288964 0.126926
v 0.126080 1.293324 0.189036
v 0.125000 0.643750 -0.225000
v 0.125000 0.643750 -0.281250
v 0.125000 0.581250 -0.225000
v 0.125000 0.581250 -0.281250
v -0.125000 0.643750 -0.281250
v -0.125000 0.643750 -0.225000
v -0.125000 0.581250 -0.281250
v -0.125000 0.581250 -0.225000
v -0.081694 0.626333 -0.225000
v -0.081694 0.626333 -0.281250
v -0.125888 0.582138 -0.225000
v -0.125888 0.582138 -0.281250
v -0.125888 0.670527 -0.281250
v -0.125888 0.670527 -0.225000
v -0.170083 0.626333 -0.281250
v -0.170083 0.626333 -0.225000
v 0.168306 0.626333 -0.225000
v 0.168306 0.626333 -0.281250
v 0.124112 0.582138 -0.225000
v 0.124112 0.582138 -0.281250
v 0.124112 0.670527 -0.281250
v 0.124112 0.670527 -0.225000
v 0.079917 0.626333 -0.281250
v 0.079917 0.626333 -0.225000
v 0.167417 0.813833 -0.225000
v 0.167417 0.813833 -0.287500
v 0.167417 0.626333 -0.225000
v 0.167417 0.626333 -0.287500
v -0.170083 0.813833 -0.287500
v -0.170083 0.813833 -0.225000
v -0.170083 0.626333 -0.287500
v -0.170083 0.626333 -0.225000
v -0.125000 1.606250 0.156250
v -0.125000 1.606250 -0.187500
v -0.125000 1.418750 0.156250
v -0.125000 1.418750 -0.187500
v -0.181250 1.606250 -0.187500
v -0.181250 1.606250 0.156250
v -0.181250 1.418750 -0.187500
v -0.181250 1.418750 0.156250
v 0.181250 1.606250 0.156250
v 0.181250 1.606250 -0.187500
v 0.181250 1.418750 0.156250
v 0.181250 1.418750 -0.187500
v 0.125000 1.606250 -0.187500
v 0.125000 1.606250 0.156250
v 0.125000 1.418750 -0.187500
v 0.125000 1.418750 0.156250
v -0.125000 1.625000 0.187500
v 0.125000 1.625000 0.187500
v -0.125000 1.437500 0.187500
v 0.125000 1.437500 0.187500
v 0.125000 1.625000 0.125000
v -0.125000 1.625000 0.125000
v 0.125000 1.437500 0.125000
v -0.125000 1.437500 0.125000
v -0.125000 1.581250 -0.168750
v 0.125000 1.581250 -0.168750
v -0.125000 1.393750 -0.168750
v 0.125000 1.393750 -0.168750
v 0.125000 1.581250 -0.231250
v -0.125000 1.581250 -0.231250
v 0.125000 1.393750 -0.231250
v -0.125000 1.393750 -0.231250
v 0.093750 0.531250 -0.187500
v 0.093750 0.531250 -0.225000
v 0.093750 0.343750 -0.187500
v 0.093750 0.343750 -0.225000
v -0.093750 0.531250 -0.225000
v -0.093750 0.531250 -0.187500
v -0.093750 0.343750 -0.225000
v -0.093750 0.343750 -0.187500
v 0.171875 0.781250 -0.181250
v 0.171875 0.781250 -0.225000
v 0.171875 0.531250 -0.181250
v 0.171875 0.531250 -0.225000
v -0.171875 0.781250 -0.225000
v -0.171875 0.781250 -0.181250
v -0.171875 0.531250 -0.225000
v -0.171875 0.531250 -0.181250
v -0.091036 0.564735 -0.193750
v -0.091036 0.564735 -0.218750
v -0.014499 0.379959 -0.193750
v -0.014499 0.379959 -0.218750
v -0.171875 0.531250 -0.218750
v -0.171875 0.531250 -0.193750
v -0.095338 0.346474 -0.218750
v -0.095338 0.346474 -0.193750
v 0.171875 0.531250 -0.193750
v 0.171875 0.531250 -0.218750
v 0.095338 0.346474 -0.193750
v 0.095338 0.346474 -0.218750
v 0.091036 0.564735 -0.218750
v 0.091036 0.564735 -0.193750
v 0.014499 0.379959 -0.218750
v 0.014499 0.379959 -0.193750
v 0.234375 0.823816 0.210054
v 0.234375 0.826106 0.166364
v 0.234375 0.511745 0.193699
v 0.234375 0.514034 0.150009
v -0.234375 0.826106 0.166364
v -0.234375 0.823816 0.210054
v -0.234375 0.514034 0.150009
v -0.234375 0.511745 0.193699
v 0.134375 1.050000 -0.187500
v 0.134375 1.050000 -0.337500
v 0.134375 0.812500 -0.187500
v 0.134375 0.812500 -0.337500
v -0.134375 1.050000 -0.337500
v -0.134375 1.050000 -0.187500
v -0.134375 0.812500 -0.337500
v -0.134375 0.812500 -0.187500
v -0.228715 1.050000 -0.286810
v -0.235396 1.050000 -0.310901
v -0.228715 0.812500 -0.286810
v -0.235396 0.812500 -0.310901
v -0.295623 1.050000 -0.294198
v -0.288942 1.050000 -0.270107
v -0.295623 0.812500 -0.294198
v -0.288942 0.812500 -0.270107
v -0.161096 1.056250 -0.303085
v -0.172372 1.056250 -0.338850
v -0.161096 1.050000 -0.303085
v -0.172372 1.050000 -0.338850
v -0.231979 1.056250 -0.320056
v -0.220703 1.056250 -0.284291
v -0.231979 1.050000 -0.320056
v -0.220703 1.050000 -0.284291
v -0.171738 0.864609 -0.336838
v -0.171738 1.052109 -0.336838
v -0.173617 0.864609 -0.342799
v -0.173617 1.052109 -0.342799
v -0.231345 1.052109 -0.318044
v -0.231345 0.864609 -0.318044
v -0.233224 1.052109 -0.324005
v -0.233224 0.864609 -0.324005
v -0.237306 0.864609 -0.316164
v -0.237306 1.052109 -0.316164
v -0.239185 0.864609 -0.322125
v -0.239185 1.052109 -0.322125
v -0.296913 1.052109 -0.297370
v -0.296913 0.864609 -0.297370
v -0.298792 1.052109 -0.303331
v -0.298792 0.864609 -0.303331
v -0.226664 1.056250 -0.282412
v -0.237940 1.056250 -0.318176
v -0.226664 1.050000 -0.282412
v -0.237940 1.050000 -0.318176
v -0.297547 1.056250 -0.299382
v -0.286271 1.056250 -0.263618
v -0.297547 1.050000 -0.299382
v -0.286271 1.050000 -0.263618
v -0.162465 1.050000 -0.305182
v -0.169146 1.050000 -0.329273
v -0.162465 0.812500 -0.305182
v -0.169146 0.812500 -0.329273
v -0.229373 1.050000 -0.312571
v -0.222692 1.050000 -0.288480
v -0.229373 0.812500 -0.312571
v -0.222692 0.812500 -0.288480
v -0.140752 1.050000 -0.226887
v -0.162465 1.050000 -0.305182
v -0.140752 0.812500 -0.226887
v -0.162465 0.812500 -0.305182
v -0.288942 1.050000 -0.270107
v -0.267229 1.050000 -0.191812
v -0.288942 0.812500 -0.270107
v -0.267229 0.812500 -0.191812
v 0.288942 1.050000 -0.270107
v 0.295623 1.050000 -0.294198
v 0.288942 0.812500 -0.270107
v 0.295623 0.812500 -0.294198
v 0.235396 1.050000 -0.310901
v 0.228715 1.050000 -0.286810
v 0.235396 0.812500 -0.310901
v 0.228715 0.812500 -0.286810
v 0.220703 1.056250 -0.284291
v 0.231979 1.056250 -0.320056
v 0.220703 1.050000 -0.284291
v 0.231979 1.050000 -0.320056
v 0.172372 1.056250 -0.338850
v 0.161096 1.056250 -0.303085
v 0.172372 1.050000 -0.338850
v 0.161096 1.050000 -0.303085
v 0.231345 0.864609 -0.318044
v 0.231345 1.052109 -0.318044
v 0.233224 0.864609 -0.324005
v 0.233224 1.052109 -0.324005
v 0.171738 1.052109 -0.336838
v 0.171738 0.864609 -0.336838
v 0.173617 1.052109 -0.342799
v 0.173617 0.864609 -0.342799
v 0.296913 0.864609 -0.297370
v 0.296913 1.052109 -0.297370
v 0.298792 0.864609 -0.303331
v 0.298792 1.052109 -0.303331
v 0.237306 1.052109 -0.316164
v 0.237306 0.864609 -0.316164
v 0.239185 1.052109 -0.322125
v 0.239185 0.864609 -0.322125
v 0.286271 1.056250 -0.263618
v 0.297547 1.056250 -0.299382
v 0.286271 1.050000 -0.263618
v 0.297547 1.050000 -0.299382
v 0.237940 1.056250 -0.318176
v 0.226664 1.056250 -0.282412
v 0.237940 1.050000 -0.318176
v 0.226664 1.050000 -0.282412
v 0.222692 1.050000 -0.288480
v 0.229373 1.050000 -0.312571
v 0.222692 0.812500 -0.288480
v 0.229373 0.812500 -0.312571
v 0.169146 1.050000 -0.329273
v 0.162465 1.050000 -0.305182
v 0.169146 0.812500 -0.329273
v 0.162465 0.812500 -0.305182
v 0.267229 1.050000 -0.191812
v 0.288942 1.050000 -0.270107
v 0.267229 0.812500 -0.191812
v 0.288942 0.812500 -0.270107
v 0.162465 1.050000 -0.305182
v 0.140752 1.050000 -0.226887
v 0.162465 0.812500 -0.305182
v 0.140752 0.812500 -0.226887
v -0.057416 1.163477 -0.250000
v -0.057416 1.163477 -0.312500
v -0.009580 1.047992 -0.250000
v -0.009580 1.047992 -0.312500
v -0.155578 1.122817 -0.312500
v -0.155578 1.122817 -0.250000
v -0.107742 1.007332 -0.312500
v -0.107742 1.007332 -0.250000
v 0.080084 1.163477 -0.250000
v 0.080084 1.163477 -0.312500
v 0.127920 1.047992 -0.250000
v 0.127920 1.047992 -0.312500
v -0.018078 1.122817 -0.312500
v -0.018078 1.122817 -0.250000
v 0.029758 1.007332 -0.312500
v 0.029758 1.007332 -0.250000
v -0.194592 1.163477 -0.222832
v -0.212865 1.163477 -0.282601
v -0.148846 1.047992 -0.236818
v -0.167120 1.047992 -0.296587
v -0.306738 1.122817 -0.253901
v -0.288465 1.122817 -0.194132
v -0.260993 1.007332 -0.267887
v -0.242719 1.007332 -0.208118
v 0.288465 1.122817 -0.194132
v 0.306738 1.122817 -0.253901
v 0.242719 1.007332 -0.208118
v 0.260993 1.007332 -0.267887
v 0.212865 1.163477 -0.282601
v 0.194592 1.163477 -0.222832
v 0.167120 1.047992 -0.296587
v 0.148846 1.047992 -0.236818
v -0.072360 1.156000 -0.311217
v -0.072360 1.156762 -0.317421
v -0.024524 1.041376 -0.325292
v -0.024524 1.042138 -0.331495
v -0.078134 1.154388 -0.317712
v -0.078134 1.153626 -0.311509
v -0.030298 1.039764 -0.331786
v -0.030298 1.039002 -0.325583
v -0.071866 1.153626 -0.311509
v -0.071866 1.154388 -0.317712
v -0.119702 1.039002 -0.325583
v -0.119702 1.039764 -0.331786
v -0.077640 1.156762 -0.317421
v -0.077640 1.156000 -0.311217
v -0.125476 1.042138 -0.331495
v -0.125476 1.041376 -0.325292
v 0.071884 1.153626 -0.311509
v 0.071884 1.154388 -0.317712
v 0.024048 1.039002 -0.325583
v 0.024048 1.039764 -0.331786
v 0.066110 1.156762 -0.317421
v 0.066110 1.156000 -0.311217
v 0.018274 1.042138 -0.331495
v 0.018274 1.041376 -0.325292
v 0.071390 1.156000 -0.311217
v 0.071390 1.156762 -0.317421
v 0.119226 1.041376 -0.325292
v 0.119226 1.042138 -0.331495
v 0.065616 1.154388 -0.317712
v 0.065616 1.153626 -0.311509
v 0.113452 1.039764 -0.331786
v 0.113452 1.039002 -0.325583
v -0.222823 1.153626 -0.282032
v -0.224740 1.154388 -0.287932
v -0.272666 1.039002 -0.280635
v -0.274583 1.039764 -0.286535
v -0.230141 1.156762 -0.285870
v -0.228224 1.156000 -0.279970
v -0.279985 1.042138 -0.284473
v -0.278068 1.041376 -0.278574
v -0.223202 1.156000 -0.281602
v -0.225119 1.156762 -0.287502
v -0.182057 1.041376 -0.309769
v -0.183974 1.042138 -0.315669
v -0.230701 1.154388 -0.285995
v -0.228784 1.153626 -0.280095
v -0.189556 1.039764 -0.314162
v -0.187639 1.039002 -0.308262
v 0.265311 1.462630 -0.125000
v 0.265311 1.462630 -0.203125
v 0.203125 1.312500 -0.125000
v 0.203125 1.312500 -0.203125
v 0.207569 1.486548 -0.203125
v 0.207569 1.486548 -0.125000
v 0.145383 1.336418 -0.203125
v 0.145383 1.336418 -0.125000
v 0.260931 1.389960 -0.200000
v 0.260931 1.389960 -0.212500
v 0.242658 1.330191 -0.200000
v 0.242658 1.330191 -0.212500
v 0.177254 1.415542 -0.212500
v 0.177254 1.415542 -0.200000
v 0.158981 1.355773 -0.212500
v 0.158981 1.355773 -0.200000
vn -0.0000 -0.0000 -1.0000
vn 0.9563 -0.2924 -0.0000
vn -0.0000 -0.0000 1.0000
vn -0.9563 0.2924 -0.0000
vn 0.2924 0.9563 -0.0000
vn -0.2924 -0.9563 -0.0000
vn -0.0000 0.0872 -0.9962
vn 1.0000 -0.0000 -0.0000
vn -0.0000 -0.0872 0.9962
vn -1.0000 -0.0000 -0.0000
vn -0.0000 0.9962 0.0872
vn -0.0000 -0.9962 -0.0872
vn -0.2588 0.2173 -0.9412
vn 0.9659 0.0582 -0.2522
vn 0.2588 -0.2173 0.9412
vn -0.9659 -0.0582 0.2522
vn -0.0000 0.9744 0.2249
vn -0.0000 0.9744 0.2250
vn -0.0000 -0.9744 -0.2250
vn -0.0883 0.6740 -0.7334
vn -0.6953 -0.1822 -0.6952
vn 0.7071 -0.0000 -0.7071
vn -0.0962 0.7342 0.6720
vn 0.6954 0.1822 0.6952
vn -0.7071 -0.0000 0.7071
vn -0.8653 -0.2268 -0.4470
vn -0.1290 0.9832 -0.1289
vn 0.8516 0.2232 0.4744
vn 0.1289 -0.9833 0.1288
vn -0.0947 0.7226 0.6848
vn -0.6953 -0.1822 -0.6953
vn -0.0867 0.6619 -0.7446
vn 0.6953 0.1822 0.6953
vn -0.9752 -0.0000 0.2214
vn -0.1287 0.9833 -0.1288
vn 0.9874 -0.0000 -0.1585
vn 0.1287 -0.9833 0.1289
vn -0.0000 0.1045 -0.9945
vn -0.0000 -0.1045 0.9945
vn -0.0000 0.9945 0.1046
vn -0.0000 -0.9945 -0.1045
vn -0.0000 0.9945 0.1045
vn -0.0000 1.0000 -0.0000
vn -0.0000 -1.0000 -0.0000
vn -0.0000 0.2079 -0.9781
vn -0.0000 -0.2079 0.9781
vn -0.0000 0.9781 0.2079
vn -0.0000 -0.9782 -0.2079
vn -0.0000 -0.9781 -0.2079
vn 0.0217 0.2068 -0.9781
vn 0.9579 0.2757 0.0796
vn -0.0217 -0.2068 0.9781
vn -0.9579 -0.2757 -0.0796
vn -0.2861 0.9387 0.1921
vn 0.2861 -0.9387 -0.1921
vn -0.2549 0.9449 -0.2054
vn 0.2549 -0.9449 0.2054
vn -0.1318 0.1765 0.9754
vn 0.1318 -0.1765 -0.9754
vn 0.2885 -0.9357 -0.2033
vn 0.9575 0.2813 0.0641
vn -0.2885 0.9357 0.2033
vn -0.9575 -0.2813 -0.0641
vn 0.0028 0.2131 -0.9770
vn -0.0028 -0.2131 0.9770
vn 0.0870 -0.0698 -0.9938
vn -0.0870 0.0698 0.9938
vn -0.2751 0.9571 -0.0913
vn 0.2751 -0.9571 0.0913
vn -0.0217 0.2068 -0.9781
vn 0.9579 -0.2757 -0.0796
vn 0.0217 -0.2068 0.9781
vn -0.9579 0.2757 0.0796
vn 0.2861 0.9387 0.1921
vn -0.2861 -0.9387 -0.1921
vn 0.2549 0.9449 -0.2054
vn -0.2549 -0.9449 0.2054
vn 0.1318 0.1765 0.9754
vn -0.1318 -0.1765 -0.9754
vn -0.2885 -0.9357 -0.2033
vn 0.9575 -0.2813 -0.0641
vn 0.2885 0.9357 0.2033
vn -0.9575 0.2813 0.0641
vn -0.0028 0.2131 -0.9770
vn 0.0028 -0.2131 0.9770
vn -0.0870 -0.0698 -0.9938
vn 0.0870 0.0698 0.9938
vn 0.2751 0.9571 -0.0913
vn -0.2751 -0.9571 0.0913
vn 0.7071 -0.7071 -0.0000
vn -0.7071 0.7071 -0.0000
vn 0.7071 0.7071 -0.0000
vn -0.7071 -0.7071 -0.0000
vn 0.9239 0.3827 -0.0000
vn -0.9239 -0.3827 -0.0000
vn -0.3827 0.9239 -0.0000
vn 0.3827 -0.9239 -0.0000
vn 0.9239 -0.3827 -0.0000
vn -0.9239 0.3827 -0.0000
vn 0.3827 0.9239 -0.0000
vn -0.3827 -0.9239 -0.0000
vn -0.0000 0.0523 -0.9986
vn -0.0000 -0.0523 0.9986
vn -0.0000 0.9986 0.0523
vn -0.0000 -0.9986 -0.0523
vn -0.2672 -0.0000 -0.9636
vn 0.9636 -0.0000 -0.2672
vn 0.2672 -0.0000 0.9636
vn -0.9636 -0.0000 0.2672
vn -0.3007 -0.0000 -0.9537
vn 0.9537 -0.0000 -0.3007
vn 0.3007 -0.0000 0.9537
vn -0.9537 -0.0000 0.3007
vn 0.9537 -0.0000 -0.3006
vn -0.9537 -0.0000 0.3006
vn 0.2672 -0.0000 -0.9636
vn 0.9636 -0.0000 0.2672
vn -0.2672 -0.0000 0.9636
vn -0.9636 -0.0000 -0.2672
vn 0.3007 -0.0000 -0.9537
vn 0.9537 -0.0000 0.3007
vn -0.3007 -0.0000 0.9537
vn -0.9537 -0.0000 -0.3007
vn 0.9537 -0.0000 0.3006
vn -0.9537 -0.0000 -0.3006
vn -0.2924 -0.0000 -0.9563
vn 0.8835 0.3827 -0.2701
vn 0.2924 -0.0000 0.9563
vn -0.8835 -0.3827 0.2701
vn -0.3660 0.9239 0.1119
vn 0.3660 -0.9239 -0.1119
vn 0.2924 -0.0000 -0.9563
vn 0.8835 -0.3827 0.2701
vn -0.2924 -0.0000 0.9563
vn -0.8835 0.3827 -0.2701
vn 0.3660 0.9239 0.1119
vn -0.3660 -0.9239 -0.1119
vn -0.0001 0.1218 -0.9925
vn 0.9239 0.3798 0.0467
vn 0.9239 0.3798 0.0466
vn 0.0001 -0.1218 0.9925
vn -0.0001 -0.1219 0.9925
vn -0.9239 -0.3798 -0.0467
vn -0.3827 0.9170 0.1126
vn 0.3827 -0.9170 -0.1126
vn 0.0001 0.1218 -0.9925
vn 0.9239 -0.3798 -0.0467
vn -0.0001 -0.1218 0.9925
vn 0.0001 -0.1219 0.9925
vn -0.9239 0.3798 0.0467
vn -0.9239 0.3798 0.0466
vn 0.3827 0.9170 0.1126
vn -0.3827 -0.9170 -0.1127
vn -0.3827 -0.9170 -0.1126
vn -0.3827 0.9170 0.1127
vn -0.3067 0.1219 -0.9440
vn -0.3068 0.1219 -0.9439
vn 0.8642 -0.3798 -0.3299
vn 0.3066 -0.1218 0.9440
vn 0.3068 -0.1219 0.9439
vn -0.8642 0.3798 0.3299
vn 0.3988 0.9170 -0.0111
vn 0.3985 0.9171 -0.0113
vn -0.3987 -0.9170 0.0111
vn 0.8931 0.3798 -0.2411
vn 0.3067 -0.1219 0.9440
vn -0.8931 -0.3798 0.2411
vn -0.3292 0.9170 0.2254
vn 0.3291 -0.9170 -0.2254
vn 0.0981 -0.7484 -0.6559
vn 0.6954 0.1821 0.6952
vn 0.0902 -0.6886 0.7195
vn -0.1291 0.9832 -0.1288
vn 0.9448 0.2476 0.2147
vn 0.1290 -0.9833 0.1288
vn -0.9558 -0.2505 -0.1536
vn 0.0887 -0.6771 0.7305
vn 0.7073 -0.0000 -0.7069
vn 0.0966 -0.7375 -0.6684
vn -0.1289 0.9832 -0.1289
vn 0.8919 -0.0000 -0.4522
vn -0.8768 -0.0000 0.4809
vn -0.8644 0.3797 0.3296
vn -0.3988 -0.9170 0.0111
vt 0.736328 0.496094
vt 0.703125 0.500000
vt 0.703125 0.496094
vt 0.299805 0.261719
vt 0.296875 0.265625
vt 0.296875 0.261719
vt 0.703125 0.480469
vt 0.736328 0.484375
vt 0.703125 0.484375
vt 0.737305 0.699219
vt 0.734375 0.703125
vt 0.734375 0.699219
vt 0.703125 0.312500
vt 0.736328 0.309570
vt 0.736328 0.312500
vt 0.703125 0.293945
vt 0.736328 0.296875
vt 0.736328 0.293945
vt 0.234375 0.531250
vt 0.156250 0.578125
vt 0.156250 0.531250
vt 0.546875 0.953125
vt 0.585938 1.000000
vt 0.546875 1.000000
vt 0.500000 0.718750
vt 0.421875 0.765625
vt 0.421875 0.718750
vt 0.585938 0.781250
vt 0.546875 0.828125
vt 0.546875 0.781250
vt 0.453125 0.859375
vt 0.531250 0.820312
vt 0.531250 0.859375
vt 0.468750 0.960938
vt 0.546875 0.960938
vt 0.679688 0.906250
vt 0.656250 0.937500
vt 0.656250 0.906250
vt 0.187500 0.296875
vt 0.203125 0.328125
vt 0.187500 0.328125
vt 0.351562 0.312500
vt 0.328125 0.343750
vt 0.328125 0.312500
vt 0.312500 0.296875
vt 0.296875 0.328125
vt 0.296875 0.296875
vt 0.687500 0.687500
vt 0.710938 0.671875
vt 0.710938 0.687500
vt 0.328125 0.296875
vt 0.351562 0.296875
vt 0.000000 0.968750
vt 0.000000 1.000000
vt 0.692383 0.781250
vt 0.671875 0.812500
vt 0.671875 0.781250
vt 0.218750 0.296875
vt 0.239258 0.328125
vt 0.218750 0.328125
vt 0.000000 0.979492
vt 0.692383 0.812500
vt 0.239258 0.296875
vt 0.644531 0.414062
vt 0.609375 0.437500
vt 0.609375 0.414062
vt 0.625000 0.257812
vt 0.626953 0.281250
vt 0.625000 0.281250
vt 0.644531 0.382812
vt 0.609375 0.406250
vt 0.609375 0.382812
vt 0.720703 0.351562
vt 0.718750 0.375000
vt 0.718750 0.351562
vt 0.718750 0.671875
vt 0.753906 0.669922
vt 0.753906 0.671875
vt 0.718750 0.654297
vt 0.753906 0.656250
vt 0.753906 0.654297
vt 0.299805 0.337891
vt 0.265625 0.359375
vt 0.265625 0.337891
vt 0.720703 0.322266
vt 0.718750 0.343750
vt 0.718750 0.322266
vt 0.674805 0.681641
vt 0.640625 0.703125
vt 0.640625 0.681641
vt 0.671875 0.259766
vt 0.673828 0.281250
vt 0.671875 0.281250
vt 0.718750 0.640625
vt 0.752930 0.638672
vt 0.752930 0.640625
vt 0.718750 0.623047
vt 0.752930 0.625000
vt 0.752930 0.623047
vt 0.632812 0.601562
vt 0.593750 0.625000
vt 0.593750 0.601562
vt 0.642578 0.257812
vt 0.640625 0.281250
vt 0.640625 0.257812
vt 0.648438 0.914062
vt 0.609375 0.937500
vt 0.609375 0.914062
vt 0.658203 0.257812
vt 0.656250 0.281250
vt 0.656250 0.257812
vt 0.718750 0.687500
vt 0.757812 0.685547
vt 0.757812 0.687500
vt 0.328125 0.279297
vt 0.367188 0.281250
vt 0.367188 0.279297
vt 0.125000 0.703125
vt 0.000000 0.828125
vt 0.000000 0.703125
vt 0.031250 0.453125
vt 0.000000 0.578125
vt 0.000000 0.453125
vt 0.250000 0.703125
vt 0.125000 0.828125
vt 0.062500 0.453125
vt 0.031250 0.578125
vt 0.406250 0.640625
vt 0.531250 0.609375
vt 0.531250 0.640625
vt 0.546875 0.796875
vt 0.546875 0.765625
vt 0.406250 0.620117
vt 0.312500 0.671875
vt 0.312500 0.620117
vt 0.640625 0.948242
vt 0.625000 1.000000
vt 0.625000 0.948242
vt 0.093750 0.588867
vt 0.000000 0.640625
vt 0.000000 0.588867
vt 0.312500 0.323242
vt 0.328125 0.375000
vt 0.312500 0.375000
vt 0.453125 0.812500
vt 0.546875 0.812500
vt 0.640625 0.781250
vt 0.640625 0.765625
vt 0.411133 0.687500
vt 0.375000 0.796875
vt 0.375000 0.687500
vt 0.080078 0.468750
vt 0.062500 0.578125
vt 0.062500 0.468750
vt 0.234375 0.500000
vt 0.270508 0.609375
vt 0.234375 0.609375
vt 0.423828 0.375000
vt 0.406250 0.484375
vt 0.406250 0.375000
vt 0.708008 0.763672
vt 0.708008 0.781250
vt 0.250000 0.310547
vt 0.286133 0.328125
vt 0.286133 0.310547
vt 0.546875 0.640625
vt 0.583008 0.687500
vt 0.546875 0.687500
vt 0.593750 0.828125
vt 0.578125 0.875000
vt 0.578125 0.828125
vt 0.583008 0.593750
vt 0.546875 0.593750
vt 0.421875 0.328125
vt 0.437500 0.375000
vt 0.421875 0.375000
vt 0.671875 0.906250
vt 0.708008 0.890625
vt 0.708008 0.906250
vt 0.708008 0.375000
vt 0.671875 0.390625
vt 0.708008 0.390625
vt 0.614258 0.739258
vt 0.578125 0.765625
vt 0.578125 0.739258
vt 0.062500 0.286133
vt 0.046875 0.312500
vt 0.046875 0.286133
vt 0.629883 0.786133
vt 0.593750 0.812500
vt 0.593750 0.786133
vt 0.703125 0.833008
vt 0.687500 0.859375
vt 0.687500 0.833008
vt 0.671875 0.375000
vt 0.708008 0.359375
vt 0.671875 0.343750
vt 0.708008 0.343750
vt 0.473633 0.455078
vt 0.437500 0.531250
vt 0.437500 0.455078
vt 0.562500 0.361328
vt 0.578125 0.437500
vt 0.562500 0.437500
vt 0.520508 0.455078
vt 0.484375 0.531250
vt 0.484375 0.455078
vt 0.578125 0.876953
vt 0.593750 0.953125
vt 0.578125 0.953125
vt 0.708008 0.328125
vt 0.671875 0.312500
vt 0.708008 0.312500
vt 0.132812 0.828125
vt 0.117188 0.468750
vt 0.093750 0.640625
vt 0.093750 0.468750
vt 0.273438 0.828125
vt 0.140625 1.000000
vt 0.140625 0.828125
vt 0.148438 0.468750
vt 0.125000 0.640625
vt 0.125000 0.468750
vt 0.554688 0.695312
vt 0.554688 0.718750
vt 0.375000 0.539062
vt 0.507812 0.562500
vt 0.507812 0.539062
vt 0.664062 0.745117
vt 0.625000 0.765625
vt 0.625000 0.745117
vt 0.359375 0.291992
vt 0.376953 0.312500
vt 0.359375 0.312500
vt 0.328125 0.354492
vt 0.367188 0.375000
vt 0.437500 0.291992
vt 0.455078 0.312500
vt 0.437500 0.312500
vt 0.656250 0.671875
vt 0.695312 0.654297
vt 0.695312 0.671875
vt 0.398438 0.326172
vt 0.359375 0.343750
vt 0.398438 0.343750
vt 0.414062 0.354492
vt 0.375000 0.375000
vt 0.375000 0.354492
vt 0.468750 0.291992
vt 0.486328 0.312500
vt 0.468750 0.312500
vt 0.617188 0.354492
vt 0.578125 0.375000
vt 0.578125 0.354492
vt 0.517578 0.291992
vt 0.500000 0.312500
vt 0.500000 0.291992
vt 0.695312 0.640625
vt 0.656250 0.623047
vt 0.695312 0.623047
vt 0.656250 0.591797
vt 0.695312 0.609375
vt 0.695312 0.591797
vt 0.312500 0.359375
vt 0.296875 0.421875
vt 0.296875 0.359375
vt 0.078125 0.640625
vt 0.078125 0.343750
vt 0.062500 0.406250
vt 0.062500 0.343750
vt 0.156250 0.640625
vt 0.078125 0.703125
vt 0.203125 0.484375
vt 0.218750 0.406250
vt 0.218750 0.484375
vt 0.562500 0.484375
vt 0.578125 0.562500
vt 0.578125 0.484375
vt 0.609375 0.875000
vt 0.593750 0.937500
vt 0.593750 0.875000
vt 0.234375 0.640625
vt 0.156250 0.703125
vt 0.093750 0.343750
vt 0.078125 0.406250
vt 0.312500 0.609375
vt 0.234375 0.671875
vt 0.531250 0.437500
vt 0.546875 0.359375
vt 0.546875 0.437500
vt 0.562500 0.359375
vt 0.317383 0.500000
vt 0.281250 0.609375
vt 0.281250 0.500000
vt 0.531250 0.453125
vt 0.548828 0.562500
vt 0.531250 0.562500
vt 0.364258 0.500000
vt 0.328125 0.609375
vt 0.328125 0.500000
vt 0.000000 0.343750
vt 0.017578 0.453125
vt 0.708008 0.750000
vt 0.671875 0.732422
vt 0.708008 0.732422
vt 0.671875 0.404297
vt 0.708008 0.421875
vt 0.708008 0.404297
vt 0.664062 0.354492
vt 0.625000 0.375000
vt 0.625000 0.354492
vt 0.548828 0.291992
vt 0.531250 0.312500
vt 0.531250 0.291992
vt 0.679688 0.979492
vt 0.640625 1.000000
vt 0.640625 0.979492
vt 0.580078 0.291992
vt 0.562500 0.312500
vt 0.562500 0.291992
vt 0.656250 0.578125
vt 0.695312 0.560547
vt 0.695312 0.578125
vt 0.437500 0.326172
vt 0.476562 0.343750
vt 0.476562 0.326172
vt 0.473633 0.406250
vt 0.437500 0.453125
vt 0.437500 0.406250
vt 0.656250 0.625000
vt 0.640625 0.671875
vt 0.640625 0.625000
vt 0.520508 0.406250
vt 0.484375 0.453125
vt 0.484375 0.406250
vt 0.640625 0.578125
vt 0.723633 1.000000
vt 0.687500 0.984375
vt 0.723633 0.984375
vt 0.687500 0.968750
vt 0.723633 0.968750
vt 0.679688 0.968750
vt 0.640625 0.968750
vt 0.611328 0.291992
vt 0.593750 0.312500
vt 0.593750 0.291992
vt 0.679688 0.870117
vt 0.640625 0.890625
vt 0.640625 0.870117
vt 0.689453 0.291992
vt 0.671875 0.291992
vt 0.656250 0.546875
vt 0.695312 0.529297
vt 0.695312 0.546875
vt 0.484375 0.326172
vt 0.523438 0.343750
vt 0.523438 0.326172
vt 0.593750 0.661133
vt 0.629883 0.687500
vt 0.593750 0.687500
vt 0.687500 0.692383
vt 0.703125 0.718750
vt 0.687500 0.718750
vt 0.593750 0.629883
vt 0.629883 0.656250
vt 0.593750 0.656250
vt 0.312500 0.286133
vt 0.312500 0.312500
vt 0.687500 0.953125
vt 0.723633 0.953125
vt 0.687500 0.937500
vt 0.723633 0.937500
vt 0.254883 0.423828
vt 0.218750 0.500000
vt 0.218750 0.423828
vt 0.171875 0.345703
vt 0.156250 0.421875
vt 0.156250 0.345703
vt 0.265625 0.423828
vt 0.301758 0.500000
vt 0.265625 0.500000
vt 0.187500 0.345703
vt 0.171875 0.421875
vt 0.723633 0.921875
vt 0.723633 0.906250
vt 0.687500 0.921875
vt 0.625000 0.687500
vt 0.562500 0.703125
vt 0.562500 0.687500
vt 0.294922 0.281250
vt 0.281250 0.296875
vt 0.281250 0.281250
vt 0.625000 0.468750
vt 0.562500 0.468750
vt 0.716797 0.703125
vt 0.703125 0.703125
vt 0.578125 0.500000
vt 0.640625 0.486328
vt 0.640625 0.500000
vt 0.609375 0.892578
vt 0.671875 0.892578
vt 0.359375 0.484375
vt 0.375000 0.500000
vt 0.359375 0.500000
vt 0.310547 0.281250
vt 0.296875 0.281250
vt 0.531250 0.828125
vt 0.531250 0.812500
vt 0.716797 0.687500
vt 0.703125 0.687500
vt 0.343750 0.283203
vt 0.343750 0.296875
vt 0.703125 0.658203
vt 0.718750 0.658203
vt 0.625000 0.703125
vt 0.357422 0.281250
vt 0.343750 0.281250
vt 0.718750 0.828125
vt 0.703125 0.843750
vt 0.703125 0.828125
vt 0.716797 0.640625
vt 0.703125 0.656250
vt 0.703125 0.640625
vt 0.718750 0.626953
vt 0.703125 0.611328
vt 0.718750 0.625000
vt 0.718750 0.611328
vt 0.458984 0.562500
vt 0.375000 0.609375
vt 0.375000 0.562500
vt 0.656250 0.531250
vt 0.640625 0.531250
vt 0.490234 0.640625
vt 0.406250 0.687500
vt 0.656250 0.484375
vt 0.640625 0.484375
vt 0.630859 0.578125
vt 0.630859 0.593750
vt 0.546875 0.562500
vt 0.630859 0.562500
vt 0.419922 0.296875
vt 0.406250 0.343750
vt 0.406250 0.296875
vt 0.367188 0.828125
vt 0.281250 0.875000
vt 0.281250 0.828125
vt 0.669922 0.375000
vt 0.656250 0.421875
vt 0.656250 0.375000
vt 0.460938 0.953125
vt 0.375000 1.000000
vt 0.375000 0.953125
vt 0.187500 0.421875
vt 0.201172 0.335938
vt 0.201172 0.421875
vt 0.218750 0.335938
vt 0.232422 0.421875
vt 0.232422 0.335938
vt 0.638672 0.296875
vt 0.625000 0.343750
vt 0.625000 0.296875
vt 0.460938 0.906250
vt 0.375000 0.906250
vt 0.654297 0.296875
vt 0.640625 0.343750
vt 0.640625 0.296875
vt 0.460938 0.859375
vt 0.375000 0.859375
vt 0.234375 0.421875
vt 0.248047 0.335938
vt 0.248047 0.421875
vt 0.250000 0.335938
vt 0.263672 0.421875
vt 0.263672 0.335938
vt 0.546875 0.312500
vt 0.531250 0.359375
vt 0.531250 0.906250
vt 0.468750 0.953125
vt 0.468750 0.906250
vt 0.468750 0.859375
vt 0.093750 0.406250
vt 0.109375 0.343750
vt 0.109375 0.406250
vt 0.125000 0.406250
vt 0.125000 0.343750
vt 0.578125 0.312500
vt 0.156250 0.484375
vt 0.015625 0.296875
vt 0.000000 0.296875
vt 0.437500 0.484375
vt 0.375000 0.531250
vt 0.375000 0.484375
vt 0.140625 0.343750
vt 0.140625 0.406250
vt 0.609375 0.812500
vt 0.500000 0.687500
vt 0.500000 0.640625
vt 0.431641 0.281250
vt 0.421875 0.281250
vt 0.406250 0.437500
vt 0.359375 0.437500
vt 0.041016 0.265625
vt 0.031250 0.312500
vt 0.031250 0.265625
vt 0.687500 0.890625
vt 0.734375 0.880859
vt 0.734375 0.890625
vt 0.687500 0.865234
vt 0.734375 0.875000
vt 0.734375 0.865234
vt 0.367188 0.937500
vt 0.281250 1.000000
vt 0.281250 0.937500
vt 0.182617 0.281250
vt 0.171875 0.343750
vt 0.171875 0.281250
vt 0.367188 0.875000
vt 0.213867 0.281250
vt 0.203125 0.343750
vt 0.203125 0.281250
vt 0.648438 0.458008
vt 0.648438 0.468750
vt 0.578125 0.723633
vt 0.664062 0.734375
vt 0.664062 0.723633
vt 0.265625 0.372070
vt 0.287109 0.421875
vt 0.265625 0.421875
vt 0.224609 0.247070
vt 0.218750 0.247070
vt 0.599609 0.512695
vt 0.578125 0.512695
vt 0.240234 0.247070
vt 0.234375 0.296875
vt 0.234375 0.247070
vt 0.703125 0.468750
vt 0.724609 0.462891
vt 0.724609 0.468750
vt 0.703125 0.447266
vt 0.724609 0.453125
vt 0.724609 0.447266
vt 0.599609 0.387695
vt 0.578125 0.387695
vt 0.255859 0.247070
vt 0.250000 0.296875
vt 0.250000 0.247070
vt 0.593750 0.950195
vt 0.615234 1.000000
vt 0.593750 1.000000
vt 0.271484 0.247070
vt 0.265625 0.296875
vt 0.265625 0.247070
vt 0.703125 0.437500
vt 0.724609 0.431641
vt 0.724609 0.437500
vt 0.625000 0.291016
vt 0.646484 0.296875
vt 0.646484 0.291016
vt 0.367188 0.750000
vt 0.250000 0.828125
vt 0.250000 0.750000
vt 0.041992 0.312500
vt 0.031250 0.390625
vt 0.367188 0.671875
vt 0.250000 0.671875
vt 0.057617 0.312500
vt 0.046875 0.390625
vt 0.648438 0.442383
vt 0.648438 0.453125
vt 0.562500 0.708008
vt 0.679688 0.718750
vt 0.679688 0.708008
vt 0.223633 0.581055
vt 0.156250 0.581055
vt 0.349609 0.440430
vt 0.312500 0.500000
vt 0.312500 0.440430
vt 0.442383 0.799805
vt 0.375000 0.799805
vt 0.193359 0.424805
vt 0.156250 0.424805
vt 0.468750 0.609375
vt 0.536133 0.572266
vt 0.536133 0.609375
vt 0.500000 0.728516
vt 0.567383 0.765625
vt 0.567383 0.728516
vt 0.156250 0.346680
vt 0.140625 0.346680
vt 0.396484 0.252930
vt 0.390625 0.312500
vt 0.390625 0.252930
vt 0.218750 0.346680
vt 0.203125 0.406250
vt 0.203125 0.346680
vt 0.005859 0.237305
vt 0.000000 0.237305
vt 0.671875 0.296875
vt 0.656250 0.291016
vt 0.671875 0.291016
vt 0.046875 0.275391
vt 0.062500 0.281250
vt 0.062500 0.275391
vt 0.703125 0.279297
vt 0.687500 0.281250
vt 0.687500 0.279297
vt 0.181641 0.263672
vt 0.171875 0.265625
vt 0.171875 0.263672
vt 0.718750 0.279297
vt 0.703125 0.281250
vt 0.197266 0.263672
vt 0.187500 0.265625
vt 0.187500 0.263672
vt 0.703125 0.609375
vt 0.718750 0.599609
vt 0.718750 0.609375
vt 0.421875 0.287109
vt 0.421875 0.296875
vt 0.734375 0.279297
vt 0.718750 0.281250
vt 0.765625 0.904297
vt 0.718750 0.906250
vt 0.718750 0.904297
vt 0.750000 0.998047
vt 0.734375 1.000000
vt 0.734375 0.998047
vt 0.187500 0.279297
vt 0.140625 0.281250
vt 0.140625 0.279297
vt 0.015625 0.343750
vt 0.031250 0.296875
vt 0.031250 0.343750
vt 0.062500 0.296875
vt 0.078125 0.296875
vt 0.750000 0.982422
vt 0.734375 0.984375
vt 0.734375 0.982422
vt 0.765625 0.841797
vt 0.718750 0.843750
vt 0.718750 0.841797
vt 0.031250 0.263672
vt 0.046875 0.265625
vt 0.765625 0.826172
vt 0.718750 0.826172
vt 0.093750 0.296875
vt 0.109375 0.296875
vt 0.750000 0.966797
vt 0.734375 0.968750
vt 0.734375 0.966797
vt 0.744141 0.810547
vt 0.734375 0.812500
vt 0.734375 0.810547
vt 0.062500 0.263672
vt 0.046875 0.263672
vt 0.212891 0.263672
vt 0.203125 0.265625
vt 0.203125 0.263672
vt 0.718750 0.593750
vt 0.703125 0.583984
vt 0.718750 0.583984
vt 0.703125 0.568359
vt 0.718750 0.578125
vt 0.718750 0.568359
vt 0.453125 0.346680
vt 0.437500 0.346680
vt 0.021484 0.237305
vt 0.015625 0.237305
vt 0.468750 0.346680
vt 0.453125 0.406250
vt 0.068359 0.237305
vt 0.062500 0.237305
vt 0.718750 0.806641
vt 0.734375 0.806641
vt 0.203125 0.275391
vt 0.218750 0.281250
vt 0.218750 0.275391
vt 0.564453 0.893555
vt 0.531250 0.953125
vt 0.531250 0.893555
vt 0.051758 0.393555
vt 0.031250 0.393555
vt 0.095703 0.409180
vt 0.062500 0.409180
vt 0.333008 0.377930
vt 0.312500 0.437500
vt 0.312500 0.377930
vt 0.656250 0.515625
vt 0.689453 0.495117
vt 0.689453 0.515625
vt 0.656250 0.463867
vt 0.689453 0.484375
vt 0.689453 0.463867
vt 0.484375 0.346680
vt 0.468750 0.406250
vt 0.083984 0.237305
vt 0.078125 0.237305
vt 0.500000 0.346680
vt 0.099609 0.237305
vt 0.093750 0.237305
vt 0.718750 0.796875
vt 0.734375 0.791016
vt 0.734375 0.796875
vt 0.734375 0.775391
vt 0.718750 0.781250
vt 0.734375 0.781250
vt 0.750000 0.951172
vt 0.734375 0.953125
vt 0.734375 0.951172
vt 0.744141 0.794922
vt 0.734375 0.794922
vt 0.750000 0.935547
vt 0.734375 0.937500
vt 0.734375 0.935547
vt 0.744141 0.779297
vt 0.734375 0.779297
vt 0.718750 0.562500
vt 0.703125 0.552734
vt 0.718750 0.552734
vt 0.703125 0.537109
vt 0.718750 0.546875
vt 0.718750 0.537109
vt 0.750000 0.919922
vt 0.734375 0.921875
vt 0.734375 0.919922
vt 0.765625 0.763672
vt 0.718750 0.765625
vt 0.718750 0.763672
vt 0.750000 0.888672
vt 0.734375 0.888672
vt 0.765625 0.748047
vt 0.718750 0.750000
vt 0.718750 0.748047
vt 0.125000 0.296875
vt 0.140625 0.296875
vt 0.734375 0.873047
vt 0.750000 0.875000
vt 0.765625 0.732422
vt 0.718750 0.734375
vt 0.718750 0.732422
vt 0.156250 0.263672
vt 0.140625 0.265625
vt 0.140625 0.263672
vt 0.281250 0.279297
vt 0.156250 0.296875
vt 0.156250 0.343750
vt 0.171875 0.296875
vt 0.750000 0.857422
vt 0.734375 0.859375
vt 0.734375 0.857422
vt 0.291016 0.263672
vt 0.281250 0.265625
vt 0.281250 0.263672
vt 0.156250 0.265625
vt 0.744141 0.716797
vt 0.734375 0.718750
vt 0.734375 0.716797
vt 0.703125 0.531250
vt 0.718750 0.521484
vt 0.718750 0.531250
vt 0.718750 0.505859
vt 0.703125 0.515625
vt 0.718750 0.515625
vt 0.515625 0.346680
vt 0.500000 0.406250
vt 0.115234 0.237305
vt 0.109375 0.237305
vt 0.531250 0.346680
vt 0.515625 0.406250
vt 0.130859 0.237305
vt 0.125000 0.237305
vt 0.718750 0.718750
vt 0.734375 0.712891
vt 0.734375 0.697266
vt 0.718750 0.703125
vt 0.142578 0.409180
vt 0.109375 0.468750
vt 0.109375 0.409180
vt 0.364258 0.377930
vt 0.343750 0.437500
vt 0.343750 0.377930
vt 0.564453 0.831055
vt 0.531250 0.890625
vt 0.531250 0.831055
vt 0.395508 0.377930
vt 0.375000 0.437500
vt 0.375000 0.377930
vt 0.656250 0.453125
vt 0.689453 0.432617
vt 0.689453 0.453125
vt 0.578125 0.323242
vt 0.611328 0.343750
vt 0.611328 0.323242
vt 0.635742 0.859375
vt 0.609375 0.890625
vt 0.609375 0.859375
vt 0.234375 0.703125
vt 0.609375 0.828125
vt 0.218750 0.531250
vt 0.401367 0.671875
vt 0.401367 0.687500
vt 0.635742 0.828125
vt 0.635742 0.812500
vt 0.609375 0.531250
vt 0.635742 0.562500
vt 0.609375 0.562500
vt 0.531250 0.531250
vt 0.515625 0.562500
vt 0.515625 0.531250
vt 0.635742 0.500000
vt 0.609375 0.500000
vt 0.625000 0.484375
vt 0.651367 0.468750
vt 0.651367 0.484375
vt 0.687500 0.812500
vt 0.713867 0.828125
vt 0.713867 0.812500
vt 0.376953 0.250000
vt 0.375000 0.281250
vt 0.375000 0.250000
vt 0.720703 0.562500
vt 0.439453 0.250000
vt 0.437500 0.281250
vt 0.437500 0.250000
vt 0.312500 0.265625
vt 0.314453 0.263672
vt 0.314453 0.265625
vt 0.330078 0.263672
vt 0.328125 0.265625
vt 0.330078 0.265625
vt 0.453125 0.250000
vt 0.455078 0.281250
vt 0.453125 0.281250
vt 0.470703 0.250000
vt 0.468750 0.281250
vt 0.468750 0.250000
vt 0.718750 0.500000
vt 0.720703 0.531250
vt 0.486328 0.250000
vt 0.484375 0.281250
vt 0.484375 0.250000
vt 0.343750 0.265625
vt 0.345703 0.263672
vt 0.345703 0.265625
vt 0.359375 0.263672
vt 0.361328 0.265625
vt 0.361328 0.263672
vt 0.500000 0.250000
vt 0.501953 0.281250
vt 0.500000 0.281250
vt 0.517578 0.250000
vt 0.515625 0.281250
vt 0.515625 0.250000
vt 0.531250 0.250000
vt 0.533203 0.281250
vt 0.531250 0.281250
vt 0.548828 0.250000
vt 0.546875 0.281250
vt 0.546875 0.250000
vt 0.408203 0.265625
vt 0.406250 0.263672
vt 0.408203 0.263672
vt 0.736328 0.591797
vt 0.734375 0.593750
vt 0.736328 0.593750
vt 0.562500 0.250000
vt 0.564453 0.281250
vt 0.562500 0.281250
vt 0.580078 0.250000
vt 0.578125 0.281250
vt 0.578125 0.250000
vt 0.720703 0.390625
vt 0.718750 0.421875
vt 0.718750 0.390625
vt 0.593750 0.250000
vt 0.595703 0.281250
vt 0.593750 0.281250
vt 0.421875 0.265625
vt 0.423828 0.263672
vt 0.423828 0.265625
vt 0.734375 0.576172
vt 0.736328 0.578125
vt 0.736328 0.576172
vt 0.486328 0.281250
vt 0.343750 0.263672
vt 0.720703 0.593750
vt 0.671875 0.302734
vt 0.656250 0.343750
vt 0.656250 0.302734
vt 0.660156 0.818359
vt 0.640625 0.859375
vt 0.640625 0.818359
vt 0.671875 0.818359
vt 0.671875 0.859375
vt 0.660156 0.771484
vt 0.640625 0.812500
vt 0.640625 0.771484
vt 0.203125 0.277344
vt 0.203125 0.296875
vt 0.703125 0.792969
vt 0.718750 0.812500
vt 0.718750 0.792969
vt 0.162109 0.281250
vt 0.612305 0.265625
vt 0.609375 0.281250
vt 0.609375 0.265625
vt 0.724609 0.843750
vt 0.703125 0.859375
vt 0.721680 0.375000
vt 0.740234 0.606445
vt 0.740234 0.609375
vt 0.406250 0.278320
vt 0.427734 0.281250
vt 0.427734 0.278320
vt 0.736328 0.500000
vt 0.299805 0.265625
vt 0.736328 0.480469
vt 0.737305 0.703125
vt 0.703125 0.309570
vt 0.703125 0.296875
vt 0.234375 0.578125
vt 0.585938 0.953125
vt 0.500000 0.765625
vt 0.585938 0.828125
vt 0.453125 0.820312
vt 0.468750 1.000000
vt 0.679688 0.937500
vt 0.351562 0.343750
vt 0.312500 0.328125
vt 0.687500 0.671875
vt 0.644531 0.437500
vt 0.626953 0.257812
vt 0.644531 0.406250
vt 0.720703 0.375000
vt 0.718750 0.669922
vt 0.718750 0.656250
vt 0.299805 0.359375
vt 0.720703 0.343750
vt 0.674805 0.703125
vt 0.673828 0.259766
vt 0.718750 0.638672
vt 0.632812 0.625000
vt 0.642578 0.281250
vt 0.648438 0.937500
vt 0.658203 0.281250
vt 0.718750 0.685547
vt 0.328125 0.281250
vt 0.406250 0.609375
vt 0.421875 0.796875
vt 0.406250 0.671875
vt 0.328125 0.323242
vt 0.453125 0.796875
vt 0.411133 0.796875
vt 0.080078 0.578125
vt 0.270508 0.500000
vt 0.423828 0.484375
vt 0.671875 0.763672
vt 0.250000 0.328125
vt 0.583008 0.640625
vt 0.437500 0.328125
vt 0.671875 0.890625
vt 0.614258 0.765625
vt 0.062500 0.312500
vt 0.629883 0.812500
vt 0.671875 0.359375
vt 0.473633 0.531250
vt 0.578125 0.361328
vt 0.520508 0.531250
vt 0.593750 0.876953
vt 0.671875 0.328125
vt 0.132812 1.000000
vt 0.117188 0.640625
vt 0.273438 1.000000
vt 0.148438 0.640625
vt 0.421875 0.695312
vt 0.664062 0.765625
vt 0.376953 0.291992
vt 0.367188 0.354492
vt 0.455078 0.291992
vt 0.656250 0.654297
vt 0.359375 0.326172
vt 0.414062 0.375000
vt 0.486328 0.291992
vt 0.617188 0.375000
vt 0.517578 0.312500
vt 0.656250 0.640625
vt 0.656250 0.609375
vt 0.312500 0.421875
vt 0.562500 0.562500
vt 0.317383 0.609375
vt 0.548828 0.453125
vt 0.364258 0.609375
vt 0.017578 0.343750
vt 0.671875 0.750000
vt 0.671875 0.421875
vt 0.664062 0.375000
vt 0.548828 0.312500
vt 0.679688 1.000000
vt 0.580078 0.312500
vt 0.656250 0.560547
vt 0.437500 0.343750
vt 0.473633 0.453125
vt 0.520508 0.453125
vt 0.687500 1.000000
vt 0.679688 0.948242
vt 0.611328 0.312500
vt 0.679688 0.890625
vt 0.689453 0.312500
vt 0.656250 0.529297
vt 0.484375 0.343750
vt 0.629883 0.661133
vt 0.703125 0.692383
vt 0.629883 0.629883
vt 0.328125 0.286133
vt 0.254883 0.500000
vt 0.301758 0.423828
vt 0.687500 0.906250
vt 0.294922 0.296875
vt 0.716797 0.718750
vt 0.578125 0.486328
vt 0.609375 0.906250
vt 0.310547 0.296875
vt 0.328125 0.283203
vt 0.703125 0.671875
vt 0.640625 0.687500
vt 0.357422 0.296875
vt 0.716797 0.656250
vt 0.703125 0.626953
vt 0.703125 0.625000
vt 0.458984 0.609375
vt 0.490234 0.687500
vt 0.546875 0.578125
vt 0.419922 0.343750
vt 0.669922 0.421875
vt 0.460938 1.000000
vt 0.187500 0.335938
vt 0.218750 0.421875
vt 0.638672 0.343750
vt 0.654297 0.343750
vt 0.234375 0.335938
vt 0.250000 0.421875
vt 0.578125 0.359375
vt 0.431641 0.328125
vt 0.041016 0.312500
vt 0.687500 0.880859
vt 0.687500 0.875000
vt 0.367188 1.000000
vt 0.182617 0.343750
vt 0.213867 0.343750
vt 0.562500 0.458008
vt 0.578125 0.734375
vt 0.287109 0.372070
vt 0.224609 0.296875
vt 0.599609 0.562500
vt 0.240234 0.296875
vt 0.703125 0.462891
vt 0.703125 0.453125
vt 0.599609 0.437500
vt 0.255859 0.296875
vt 0.615234 0.950195
vt 0.271484 0.296875
vt 0.703125 0.431641
vt 0.041992 0.390625
vt 0.057617 0.390625
vt 0.531250 0.442383
vt 0.562500 0.718750
vt 0.223633 0.640625
vt 0.349609 0.500000
vt 0.442383 0.859375
vt 0.193359 0.484375
vt 0.468750 0.572266
vt 0.156250 0.406250
vt 0.396484 0.312500
vt 0.005859 0.296875
vt 0.656250 0.296875
vt 0.046875 0.281250
vt 0.181641 0.265625
vt 0.197266 0.265625
vt 0.703125 0.599609
vt 0.406250 0.287109
vt 0.734375 0.281250
vt 0.765625 0.906250
vt 0.750000 1.000000
vt 0.187500 0.281250
vt 0.750000 0.984375
vt 0.765625 0.843750
vt 0.765625 0.828125
vt 0.750000 0.968750
vt 0.744141 0.812500
vt 0.062500 0.265625
vt 0.212891 0.265625
vt 0.703125 0.593750
vt 0.703125 0.578125
vt 0.021484 0.296875
vt 0.068359 0.296875
vt 0.564453 0.953125
vt 0.051758 0.453125
vt 0.095703 0.468750
vt 0.333008 0.437500
vt 0.656250 0.495117
vt 0.083984 0.296875
vt 0.099609 0.296875
vt 0.718750 0.791016
vt 0.718750 0.775391
vt 0.750000 0.953125
vt 0.744141 0.796875
vt 0.750000 0.937500
vt 0.744141 0.781250
vt 0.703125 0.562500
vt 0.703125 0.546875
vt 0.750000 0.921875
vt 0.765625 0.765625
vt 0.750000 0.890625
vt 0.765625 0.750000
vt 0.750000 0.873047
vt 0.765625 0.734375
vt 0.750000 0.859375
vt 0.291016 0.265625
vt 0.744141 0.718750
vt 0.703125 0.521484
vt 0.703125 0.505859
vt 0.115234 0.296875
vt 0.531250 0.406250
vt 0.130859 0.296875
vt 0.718750 0.712891
vt 0.718750 0.697266
vt 0.142578 0.468750
vt 0.364258 0.437500
vt 0.564453 0.890625
vt 0.395508 0.437500
vt 0.656250 0.432617
vt 0.578125 0.343750
vt 0.635742 0.890625
vt 0.375000 0.671875
vt 0.635742 0.531250
vt 0.546875 0.609375
vt 0.687500 0.828125
vt 0.376953 0.281250
vt 0.439453 0.281250
vt 0.312500 0.263672
vt 0.328125 0.263672
vt 0.455078 0.250000
vt 0.470703 0.281250
vt 0.720703 0.500000
vt 0.359375 0.265625
vt 0.501953 0.250000
vt 0.517578 0.281250
vt 0.533203 0.250000
vt 0.548828 0.281250
vt 0.406250 0.265625
vt 0.734375 0.591797
vt 0.564453 0.250000
vt 0.580078 0.281250
vt 0.720703 0.421875
vt 0.595703 0.250000
vt 0.421875 0.263672
vt 0.734375 0.578125
vt 0.660156 0.859375
vt 0.687500 0.818359
vt 0.660156 0.812500
vt 0.187500 0.277344
vt 0.703125 0.812500
vt 0.162109 0.296875
vt 0.612305 0.281250
vt 0.724609 0.859375
vt 0.721680 0.390625
vt 0.718750 0.606445
vt 0.406250 0.281250
s 1
usemtl m_ad8ef628-bcde-5bcc-340c-5a2318099a70
f 7/1/1 2/2/1 4/3/1
f 4/4/2 1/5/2 3/6/2
f 8/7/3 1/8/3 6/9/3
f 8/10/4 5/11/4 7/12/4
f 1/13/5 5/14/5 6/15/5
f 4/16/6 8/17/6 7/18/6
f 15/19/7 10/20/7 12/21/7
f 11/22/8 10/23/8 9/24/8
f 11/25/9 14/26/9 16/27/9
f 16/28/10 13/29/10 15/30/10
f 9/31/11 13/32/11 14/33/11
f 12/34/12 16/24/12 15/35/12
f 23/36/13 18/37/13 20/38/13
f 19/39/14 18/40/14 17/41/14
f 19/42/15 22/43/15 24/44/15
f 24/45/16 21/46/16 23/47/16
f 17/48/17 21/49/18 22/50/18
f 20/51/19 24/42/19 23/52/19
s 0
f 28/53/20 29/54/1 26/54/21
s 1
f 28/55/22 25/56/22 27/57/22
s 0
f 32/53/23 25/54/3 30/54/24
s 1
f 31/58/25 30/59/25 29/60/25
s 0
f 30/54/26 26/61/1 29/61/27
f 31/61/28 27/54/3 32/54/29
f 36/53/30 37/54/3 34/54/25
s 1
f 35/57/31 34/62/31 33/56/31
s 0
f 40/53/32 33/54/1 38/54/22
s 1
f 40/63/33 37/60/33 39/58/33
s 0
f 38/54/34 34/61/1 37/61/35
f 39/61/36 35/54/3 40/54/37
s 1
f 47/64/38 42/65/38 44/66/38
f 43/67/8 42/68/8 41/69/8
f 43/70/39 46/71/39 48/72/39
f 48/73/10 45/74/10 47/75/10
f 41/76/40 45/77/40 46/78/40
f 44/79/41 48/80/41 47/81/41
f 55/82/38 50/83/38 52/84/38
f 52/85/8 49/86/8 51/87/8
f 51/88/39 54/89/39 56/90/39
f 55/91/10 54/92/10 53/93/10
f 49/94/42 53/95/42 54/96/42
f 52/97/41 56/98/41 55/99/41
f 63/100/1 58/101/1 60/102/1
f 60/103/8 57/104/8 59/105/8
f 59/106/3 62/107/3 64/108/3
f 64/109/10 61/110/10 63/111/10
f 57/112/43 61/113/43 62/114/43
f 60/115/44 64/116/44 63/117/44
f 71/118/1 66/119/1 68/120/1
f 68/121/8 65/122/8 67/123/8
f 67/124/3 70/125/3 72/118/3
f 72/126/10 69/127/10 71/121/10
f 65/128/43 69/129/43 70/130/43
f 68/26/44 72/131/44 71/132/44
f 79/133/45 74/134/45 76/135/45
f 76/136/8 73/137/8 75/138/8
f 75/139/46 78/140/46 80/141/46
f 79/142/10 78/143/10 77/144/10
f 73/145/47 77/131/47 78/146/47
f 76/132/48 80/147/49 79/148/49
f 87/149/50 82/150/50 84/151/50
f 84/152/51 81/153/51 83/154/51
f 88/155/52 81/156/52 86/157/52
f 88/158/53 85/159/53 87/160/53
f 81/57/54 85/161/54 86/162/54
f 84/163/55 88/164/55 87/165/55
f 92/166/56 93/167/56 90/168/56
f 92/169/51 89/170/51 91/171/51
f 91/172/57 94/166/57 96/173/57
f 95/174/53 94/175/53 93/176/53
f 89/177/58 93/178/58 94/179/58
f 95/180/59 91/181/59 96/182/59
f 103/183/60 98/184/60 100/185/60
f 100/186/61 97/187/61 99/188/61
f 99/189/62 102/190/62 104/191/62
f 104/192/63 101/193/63 103/194/63
f 97/195/64 101/196/64 102/180/64
f 100/197/65 104/196/65 103/198/65
f 111/199/66 106/200/66 108/201/66
f 107/202/61 106/203/61 105/204/61
f 107/205/67 110/206/67 112/207/67
f 111/208/63 110/209/63 109/210/63
f 105/197/68 109/211/68 110/198/68
f 108/212/69 112/211/69 111/213/69
f 119/214/1 114/54/1 116/119/1
f 116/215/8 113/216/8 115/217/8
f 115/218/3 118/219/3 120/220/3
f 120/221/10 117/222/10 119/223/10
f 113/27/43 117/224/43 118/225/43
f 116/226/44 120/227/44 119/228/44
f 127/229/56 122/230/56 124/231/56
f 123/232/51 122/233/51 121/234/51
f 128/235/57 121/236/57 126/143/57
f 127/237/53 126/238/53 125/239/53
f 121/240/58 125/241/58 126/242/58
f 127/243/59 123/244/59 128/245/59
f 135/246/56 130/247/56 132/248/56
f 131/249/51 130/250/51 129/251/51
f 131/252/57 134/253/57 136/254/57
f 136/255/53 133/256/53 135/257/53
f 134/258/58 130/259/58 133/260/58
f 132/261/59 136/262/59 135/263/59
f 143/264/1 138/265/1 140/266/1
f 140/267/8 137/120/8 139/140/8
f 139/268/3 142/269/3 144/270/3
f 144/271/10 141/272/10 143/267/10
f 137/273/43 141/274/43 142/275/43
f 140/276/44 144/277/44 143/278/44
f 151/279/1 146/280/1 148/281/1
f 148/282/8 145/283/8 147/271/8
f 147/284/3 150/285/3 152/268/3
f 152/286/10 149/287/10 151/157/10
f 145/288/43 149/289/43 150/290/43
f 148/289/44 152/204/44 151/291/44
f 159/292/70 154/293/70 156/294/70
f 155/295/71 154/296/71 153/297/71
f 155/298/72 158/299/72 160/300/72
f 159/301/73 158/302/73 157/123/73
f 158/303/74 154/304/74 157/305/74
f 156/306/75 160/307/75 159/308/75
f 167/309/76 162/310/76 164/311/76
f 164/312/71 161/313/71 163/314/71
f 163/315/77 166/316/77 168/317/77
f 168/318/73 165/319/73 167/320/73
f 161/321/78 165/322/78 166/323/78
f 164/324/79 168/325/79 167/326/79
f 175/327/76 170/328/76 172/329/76
f 172/330/71 169/331/71 171/332/71
f 171/333/77 174/334/77 176/335/77
f 176/321/73 173/332/73 175/336/73
f 174/337/78 170/338/78 173/339/78
f 172/340/79 176/339/79 175/341/79
f 180/136/76 181/342/76 178/343/76
f 180/344/71 177/345/71 179/346/71
f 179/347/77 182/348/77 184/349/77
f 184/350/73 181/212/73 183/351/73
f 177/352/78 181/353/78 182/354/78
f 180/355/79 184/356/79 183/357/79
f 188/358/80 189/359/80 186/360/80
f 187/361/81 186/362/81 185/363/81
f 192/364/82 185/365/82 190/366/82
f 191/367/83 190/44/83 189/368/83
f 190/341/84 186/369/84 189/370/84
f 188/371/85 192/370/85 191/372/85
f 199/373/86 194/374/86 196/375/86
f 196/376/81 193/377/81 195/378/81
f 200/379/87 193/380/87 198/381/87
f 200/382/83 197/383/83 199/376/83
f 193/371/88 197/384/88 198/372/88
f 199/385/89 195/386/89 200/384/89
f 207/387/1 202/388/1 204/389/1
f 204/390/8 201/391/8 203/392/8
f 203/393/3 206/276/3 208/394/3
f 208/395/10 205/362/10 207/396/10
f 201/397/43 205/398/43 206/399/43
f 204/400/44 208/177/44 207/401/44
f 212/402/1 213/403/1 210/404/1
f 212/405/90 209/47/90 211/406/90
f 211/146/3 214/407/3 216/408/3
f 216/409/91 213/396/91 215/410/91
f 209/51/92 213/411/92 214/412/92
f 212/413/93 216/76/93 215/414/93
f 220/387/1 221/89/1 218/415/1
f 220/416/90 217/412/90 219/417/90
f 219/418/3 222/419/3 224/420/3
f 224/421/91 221/422/91 223/423/91
f 217/423/92 221/424/92 222/94/92
f 220/425/93 224/426/93 223/427/93
f 231/428/1 226/429/1 228/430/1
f 228/431/8 225/336/8 227/432/8
f 227/433/3 230/434/3 232/128/3
f 232/435/10 229/432/10 231/436/10
f 225/173/43 229/437/43 230/438/43
f 228/439/44 232/437/44 231/440/44
f 239/441/1 234/442/1 236/443/1
f 236/444/8 233/445/8 235/446/8
f 235/447/3 238/448/3 240/449/3
f 240/450/10 237/451/10 239/452/10
f 233/453/43 237/454/43 238/455/43
f 236/456/44 240/457/44 239/458/44
f 247/459/1 242/460/1 244/461/1
f 244/462/8 241/452/8 243/463/8
f 243/464/3 246/465/3 248/466/3
f 248/467/10 245/463/10 247/468/10
f 241/469/43 245/470/43 246/471/43
f 244/472/44 248/473/44 247/474/44
f 255/475/8 250/476/8 252/313/8
f 252/477/3 249/478/3 251/479/3
f 251/319/10 254/289/10 256/475/10
f 256/33/1 253/479/1 255/480/1
f 249/481/43 253/482/43 254/483/43
f 252/482/44 256/484/44 255/485/44
f 263/486/8 258/291/8 260/319/8
f 260/275/3 257/21/3 259/487/3
f 259/488/10 262/301/10 264/489/10
f 264/490/1 261/491/1 263/492/1
f 257/484/43 261/493/43 262/494/43
f 260/190/44 264/279/44 263/495/44
f 271/166/1 266/496/1 268/497/1
f 268/498/8 265/174/8 267/499/8
f 267/500/3 270/402/3 272/501/3
f 272/502/10 269/503/10 271/504/10
f 265/505/43 269/506/43 270/507/43
f 268/508/44 272/509/44 271/510/44
f 279/511/1 274/512/1 276/513/1
f 276/514/8 273/515/8 275/516/8
f 275/517/3 278/513/3 280/445/3
f 280/518/10 277/519/10 279/520/10
f 273/394/43 277/521/43 278/522/43
f 276/523/44 280/524/44 279/525/44
f 284/526/1 285/527/1 282/528/1
f 284/529/94 281/58/94 283/530/94
f 283/531/3 286/277/3 288/532/3
f 288/533/95 285/534/95 287/535/95
f 281/536/96 285/537/96 286/538/96
f 284/539/97 288/540/97 287/541/97
f 295/542/1 290/203/1 292/543/1
f 292/544/98 289/545/98 291/546/98
f 296/547/3 289/548/3 294/549/3
f 296/550/99 293/551/99 295/552/99
f 289/553/100 293/554/100 294/555/100
f 292/556/101 296/557/101 295/558/101
f 303/559/102 298/560/102 300/561/102
f 300/562/8 297/563/8 299/503/8
f 299/564/103 302/561/103 304/565/103
f 304/566/10 301/567/10 303/187/10
f 297/295/104 301/568/104 302/569/104
f 300/570/105 304/571/105 303/572/105
f 311/573/1 306/271/1 308/574/1
f 308/575/8 305/576/8 307/577/8
f 307/578/3 310/468/3 312/579/3
f 312/580/10 309/487/10 311/581/10
f 305/582/43 309/583/43 310/584/43
f 308/585/44 312/586/44 311/587/44
f 319/588/106 314/494/106 316/589/106
f 316/590/107 313/591/107 315/592/107
f 315/593/108 318/594/108 320/595/108
f 320/596/109 317/489/109 319/597/109
f 318/598/43 314/599/43 317/600/43
f 316/601/44 320/602/44 319/603/44
f 327/604/110 322/605/110 324/606/110
f 324/607/111 321/608/111 323/609/111
f 323/610/112 326/611/112 328/604/112
f 328/612/113 325/613/113 327/614/113
f 321/615/43 325/616/43 326/617/43
f 327/618/44 323/443/44 328/619/44
f 335/620/43 330/621/43 332/610/43
f 332/622/114 329/623/114 331/624/114
f 331/625/44 334/626/44 336/627/44
f 336/628/115 333/629/115 335/630/115
f 329/631/112 333/632/112 334/633/112
f 332/634/110 336/268/110 335/635/110
f 343/636/43 338/637/43 340/638/43
f 340/639/114 337/640/114 339/641/114
f 344/642/44 337/643/44 342/504/44
f 344/644/115 341/418/115 343/645/115
f 337/268/112 341/646/112 342/284/112
f 340/646/110 344/482/110 343/647/110
f 351/648/110 346/649/110 348/650/110
f 348/651/111 345/652/111 347/653/111
f 347/654/112 350/643/112 352/655/112
f 352/656/113 349/657/113 351/658/113
f 350/659/43 346/660/43 349/661/43
f 348/662/44 352/663/44 351/664/44
f 359/665/106 354/329/106 356/666/106
f 356/667/107 353/488/107 355/668/107
f 355/669/108 358/670/108 360/665/108
f 360/671/109 357/634/109 359/672/109
f 358/652/43 354/673/43 357/674/43
f 356/675/44 360/676/44 359/677/44
f 367/678/106 362/679/106 364/680/106
f 364/681/107 361/121/107 363/682/107
f 363/683/108 366/154/108 368/684/108
f 368/685/109 365/686/109 367/687/109
f 361/688/43 365/689/43 366/690/43
f 364/691/44 368/692/44 367/693/44
f 375/694/116 370/695/116 372/669/116
f 372/696/117 369/635/117 371/697/117
f 371/698/118 374/335/118 376/694/118
f 376/699/119 373/646/119 375/700/119
f 369/701/43 373/702/43 374/703/43
f 375/704/44 371/705/44 376/706/44
f 383/707/120 378/708/120 380/709/120
f 380/710/121 377/703/121 379/711/121
f 379/712/122 382/713/122 384/714/122
f 384/715/123 381/706/123 383/716/123
f 382/717/43 378/718/43 381/719/43
f 380/720/44 384/721/44 383/722/44
f 391/723/43 386/724/43 388/725/43
f 388/726/124 385/727/124 387/728/124
f 387/729/44 390/507/44 392/730/44
f 392/731/125 389/732/125 391/733/125
f 385/482/122 389/734/122 390/485/122
f 388/734/120 392/493/120 391/735/120
f 396/736/43 397/737/43 394/509/43
f 396/738/124 393/739/124 395/740/124
f 395/741/44 398/742/44 400/743/44
f 400/115/125 397/392/125 399/744/125
f 393/493/122 397/745/122 398/746/122
f 396/745/120 400/515/120 399/747/120
f 407/748/120 402/749/120 404/750/120
f 404/751/121 401/752/121 403/753/121
f 403/609/122 406/754/122 408/741/122
f 408/755/123 405/756/123 407/757/123
f 401/758/43 405/759/43 406/760/43
f 407/761/44 403/762/44 408/763/44
f 415/764/116 410/765/116 412/698/116
f 412/766/117 409/647/117 411/767/117
f 411/768/118 414/769/118 416/764/118
f 416/770/119 413/734/119 415/771/119
f 409/772/43 413/773/43 414/756/43
f 415/774/44 411/775/44 416/11/44
f 423/776/116 418/777/116 420/778/116
f 420/779/117 417/780/117 419/781/117
f 419/782/118 422/783/118 424/784/118
f 424/785/119 421/786/119 423/787/119
f 417/788/43 421/789/43 422/790/43
f 420/791/44 424/792/44 423/793/44
f 431/794/1 426/795/1 428/796/1
f 428/565/94 425/797/94 427/287/94
f 432/798/3 425/794/3 430/796/3
f 432/155/95 429/799/95 431/374/95
f 425/151/96 429/800/96 430/801/96
f 428/495/97 432/802/97 431/803/97
f 439/794/1 434/795/1 436/796/1
f 436/565/94 433/797/94 435/287/94
f 440/798/3 433/794/3 438/796/3
f 440/155/95 437/799/95 439/374/95
f 433/151/96 437/800/96 438/801/96
f 436/495/97 440/802/97 439/803/97
f 447/794/126 442/795/126 444/796/126
f 444/565/127 441/797/127 443/287/127
f 448/798/128 441/794/128 446/796/128
f 448/155/129 445/799/129 447/374/129
f 441/151/130 445/800/130 446/801/130
f 447/803/131 443/798/131 448/802/131
f 452/804/132 453/805/132 450/806/132
f 452/807/133 449/808/133 451/809/133
f 451/810/134 454/804/134 456/811/134
f 455/129/135 454/166/135 453/130/135
f 449/812/136 453/813/136 454/814/136
f 452/815/137 456/816/137 455/817/137
f 463/818/138 458/819/138 460/820/138
f 460/821/139 457/659/140 459/717/139
f 459/822/141 462/823/142 464/824/141
f 463/760/143 462/821/143 461/717/143
f 457/825/144 461/826/144 462/827/144
f 463/828/145 459/829/145 464/830/145
f 468/831/146 469/832/146 466/833/146
f 468/834/147 465/835/147 467/836/147
f 472/837/148 465/838/149 470/760/149
f 472/839/150 469/840/151 471/841/150
f 465/842/152 469/843/152 470/844/152
f 468/845/153 472/846/153 471/847/153
f 476/848/146 477/849/146 474/850/146
f 476/851/147 473/852/147 475/853/147
f 480/854/148 473/855/149 478/856/149
f 480/857/150 477/858/151 479/859/150
f 478/860/152 474/861/152 477/862/152
f 479/863/154 475/864/154 480/865/154
f 484/866/138 485/867/138 482/868/138
f 484/869/139 481/870/140 483/871/139
f 483/872/141 486/873/142 488/874/141
f 487/875/143 486/876/143 485/877/143
f 481/878/144 485/879/144 486/880/155
f 484/881/145 488/882/145 487/883/145
f 492/831/156 493/832/157 490/833/157
f 492/834/158 489/835/158 491/836/158
f 496/837/159 489/838/160 494/760/160
f 495/841/161 494/884/161 493/840/161
f 494/844/162 490/885/162 493/843/163
f 492/845/164 496/846/164 495/847/164
f 503/818/156 498/819/156 500/820/156
f 499/717/165 498/886/165 497/659/165
f 499/822/166 502/823/166 504/824/166
f 503/760/167 502/821/167 501/717/167
f 497/825/168 501/826/168 502/827/168
f 503/828/169 499/829/169 504/830/169
f 511/887/1 506/888/1 508/889/1
f 508/890/98 505/891/98 507/892/98
f 512/893/3 505/193/3 510/894/3
f 512/895/99 509/896/99 511/897/99
f 505/39/100 509/898/100 510/899/100
f 508/900/101 512/901/101 511/902/101
f 519/903/1 514/735/1 516/629/1
f 516/904/2 513/905/2 515/906/2
f 515/907/3 518/908/3 520/419/3
f 520/909/4 517/874/4 519/74/4
f 513/617/5 517/910/5 518/911/5
f 516/912/6 520/913/6 519/914/6
f 7/1/1 5/915/1 2/2/1
f 4/4/2 2/916/2 1/5/2
f 8/7/3 3/917/3 1/8/3
f 8/10/4 6/918/4 5/11/4
f 1/13/5 2/919/5 5/14/5
f 4/16/6 3/920/6 8/17/6
f 15/19/7 13/921/7 10/20/7
f 11/22/8 12/922/8 10/23/8
f 11/25/9 9/923/9 14/26/9
f 16/28/10 14/924/10 13/29/10
f 9/31/11 10/925/11 13/32/11
f 12/34/12 11/926/12 16/24/12
f 23/36/13 21/927/13 18/37/13
f 19/39/14 20/899/14 18/40/14
f 19/42/15 17/928/15 22/43/15
f 24/45/16 22/929/16 21/46/16
f 17/48/17 18/930/17 21/49/18
f 20/51/19 19/44/19 24/42/19
s 0
f 28/53/1 31/53/21 29/54/170
s 1
f 28/55/22 26/62/22 25/56/22
s 0
f 32/53/3 27/53/171 25/54/172
s 1
f 31/58/25 32/63/25 30/59/25
s 0
f 30/54/1 25/54/173 26/61/174
f 31/61/3 28/61/175 27/54/176
f 36/53/3 39/53/25 37/54/177
s 1
f 35/57/31 36/55/31 34/62/31
s 0
f 40/53/1 35/53/178 33/54/179
s 1
f 40/63/33 38/59/33 37/60/33
s 0
f 38/54/1 33/54/180 34/61/181
f 39/61/3 36/61/29 35/54/182
s 1
f 47/64/38 45/931/38 42/65/38
f 43/67/8 44/932/8 42/68/8
f 43/70/39 41/933/39 46/71/39
f 48/73/10 46/934/10 45/74/10
f 41/76/40 42/935/40 45/77/40
f 44/79/41 43/936/41 48/80/41
f 55/82/38 53/937/38 50/83/38
f 52/85/8 50/938/8 49/86/8
f 51/88/39 49/939/39 54/89/39
f 55/91/10 56/940/10 54/92/10
f 49/94/42 50/941/42 53/95/42
f 52/97/41 51/426/41 56/98/41
f 63/100/1 61/942/1 58/101/1
f 60/103/8 58/943/8 57/104/8
f 59/106/3 57/944/3 62/107/3
f 64/109/10 62/945/10 61/110/10
f 57/112/43 58/946/43 61/113/43
f 60/115/44 59/947/44 64/116/44
f 71/118/1 69/125/1 66/119/1
f 68/121/8 66/127/8 65/122/8
f 67/124/3 65/560/3 70/125/3
f 72/126/10 70/153/10 69/127/10
f 65/128/43 66/948/43 69/129/43
f 68/26/44 67/949/44 72/131/44
f 79/133/45 77/950/45 74/134/45
f 76/136/8 74/316/8 73/137/8
f 75/139/46 73/216/46 78/140/46
f 79/142/10 80/951/10 78/143/10
f 73/145/47 74/952/47 77/131/47
f 76/132/48 75/30/48 80/147/49
f 87/149/50 85/953/50 82/150/50
f 84/152/51 82/954/51 81/153/51
f 88/155/52 83/955/52 81/156/52
f 88/158/53 86/956/53 85/159/53
f 81/57/54 82/957/54 85/161/54
f 84/163/55 83/958/55 88/164/55
f 92/166/56 95/959/56 93/167/56
f 92/169/51 90/281/51 89/170/51
f 91/172/57 89/959/57 94/166/57
f 95/174/53 96/960/53 94/175/53
f 89/177/58 90/961/58 93/178/58
f 95/180/59 92/195/59 91/181/59
f 103/183/60 101/962/60 98/184/60
f 100/186/61 98/963/61 97/187/61
f 99/189/62 97/964/62 102/190/62
f 104/192/63 102/908/63 101/193/63
f 97/195/64 98/965/64 101/196/64
f 100/197/65 99/965/65 104/196/65
f 111/199/66 109/966/66 106/200/66
f 107/202/61 108/967/61 106/203/61
f 107/205/67 105/968/67 110/206/67
f 111/208/63 112/969/63 110/209/63
f 105/197/68 106/970/68 109/211/68
f 108/212/69 107/970/69 112/211/69
f 119/214/1 117/971/1 114/54/1
f 116/215/8 114/972/8 113/216/8
f 115/218/3 113/973/3 118/219/3
f 120/221/10 118/974/10 117/222/10
f 113/27/43 114/975/43 117/224/43
f 116/226/44 115/430/44 120/227/44
f 127/229/56 125/976/56 122/230/56
f 123/232/51 124/977/51 122/233/51
f 128/235/57 123/978/57 121/236/57
f 127/237/53 128/979/53 126/238/53
f 121/240/58 122/980/58 125/241/58
f 127/243/59 124/981/59 123/244/59
f 135/246/56 133/982/56 130/247/56
f 131/249/51 132/983/51 130/250/51
f 131/252/57 129/984/57 134/253/57
f 136/255/53 134/985/53 133/256/53
f 134/258/58 129/986/58 130/259/58
f 132/261/59 131/987/59 136/262/59
f 143/264/1 141/988/1 138/265/1
f 140/267/8 138/272/8 137/120/8
f 139/268/3 137/285/3 142/269/3
f 144/271/10 142/283/10 141/272/10
f 137/273/43 138/594/43 141/274/43
f 140/276/44 139/989/44 144/277/44
f 151/279/1 149/107/1 146/280/1
f 148/282/8 146/797/8 145/283/8
f 147/284/3 145/481/3 150/285/3
f 152/286/10 150/134/10 149/287/10
f 145/288/43 146/476/43 149/289/43
f 148/289/44 147/290/44 152/204/44
f 159/292/70 157/990/70 154/293/70
f 155/295/71 156/991/71 154/296/71
f 155/298/72 153/992/72 158/299/72
f 159/301/73 160/993/73 158/302/73
f 158/303/74 153/994/74 154/304/74
f 156/306/75 155/995/75 160/307/75
f 167/309/76 165/996/76 162/310/76
f 164/312/71 162/997/71 161/313/71
f 163/315/77 161/998/77 166/316/77
f 168/318/73 166/999/73 165/319/73
f 161/321/78 162/1000/78 165/322/78
f 164/324/79 163/1001/79 168/325/79
f 175/327/76 173/1002/76 170/328/76
f 172/330/71 170/240/71 169/331/71
f 171/333/77 169/1003/77 174/334/77
f 176/321/73 174/330/73 173/332/73
f 174/337/78 169/1004/78 170/338/78
f 172/340/79 171/338/79 176/339/79
f 180/136/76 183/1005/76 181/342/76
f 180/344/71 178/1006/71 177/345/71
f 179/347/77 177/1007/77 182/348/77
f 184/350/73 182/1008/73 181/212/73
f 177/352/78 178/1009/78 181/353/78
f 180/355/79 179/1010/79 184/356/79
f 188/358/80 191/1011/80 189/359/80
f 187/361/81 188/1012/81 186/362/81
f 192/364/82 187/1013/82 185/365/82
f 191/367/83 192/1014/83 190/44/83
f 190/341/84 185/340/84 186/369/84
f 188/371/85 187/369/85 192/370/85
f 199/373/86 197/1015/86 194/374/86
f 196/376/81 194/383/81 193/377/81
f 200/379/87 195/1016/87 193/380/87
f 200/382/83 198/453/83 197/383/83
f 193/371/88 194/386/88 197/384/88
f 199/385/89 196/1017/89 195/386/89
f 207/387/1 205/415/1 202/388/1
f 204/390/8 202/1018/8 201/391/8
f 203/393/3 201/812/3 206/276/3
f 208/395/10 206/1019/10 205/362/10
f 201/397/43 202/1020/43 205/398/43
f 204/400/44 203/1021/44 208/177/44
f 212/402/1 215/492/1 213/403/1
f 212/405/90 210/1022/90 209/47/90
f 211/146/3 209/29/3 214/407/3
f 216/409/91 214/395/91 213/396/91
f 209/51/92 210/1023/92 213/411/92
f 212/413/93 211/1024/93 216/76/93
f 220/387/1 223/1025/1 221/89/1
f 220/416/90 218/1026/90 217/412/90
f 219/418/3 217/640/3 222/419/3
f 224/421/91 222/1027/91 221/422/91
f 217/423/92 218/1028/92 221/424/92
f 220/425/93 219/1029/93 224/426/93
f 231/428/1 229/1030/1 226/429/1
f 228/431/8 226/321/8 225/336/8
f 227/433/3 225/1031/3 230/434/3
f 232/435/10 230/431/10 229/432/10
f 225/173/43 226/1032/43 229/437/43
f 228/439/44 227/1032/44 232/437/44
f 239/441/1 237/1033/1 234/442/1
f 236/444/8 234/517/8 233/445/8
f 235/447/3 233/1034/3 238/448/3
f 240/450/10 238/1035/10 237/451/10
f 233/453/43 234/1036/43 237/454/43
f 236/456/44 235/1037/44 240/457/44
f 247/459/1 245/1038/1 242/460/1
f 244/462/8 242/450/8 241/452/8
f 243/464/3 241/1039/3 246/465/3
f 248/467/10 246/462/10 245/463/10
f 241/469/43 242/1040/43 245/470/43
f 244/472/44 243/1041/44 248/473/44
f 255/475/8 253/289/8 250/476/8
f 252/477/3 250/679/3 249/478/3
f 251/319/10 249/291/10 254/289/10
f 256/33/1 254/477/1 253/479/1
f 249/481/43 250/284/43 253/482/43
f 252/482/44 251/483/44 256/484/44
f 263/486/8 261/1042/8 258/291/8
f 260/275/3 258/799/3 257/21/3
f 259/488/10 257/631/10 262/301/10
f 264/490/1 262/200/1 261/491/1
f 257/484/43 258/485/43 261/493/43
f 260/190/44 259/281/44 264/279/44
f 271/166/1 269/168/1 266/496/1
f 268/498/8 266/1043/8 265/174/8
f 267/500/3 265/159/3 270/402/3
f 272/502/10 270/1044/10 269/503/10
f 265/505/43 266/1045/43 269/506/43
f 268/508/44 267/1046/44 272/509/44
f 279/511/1 277/1047/1 274/512/1
f 276/514/8 274/1048/8 273/515/8
f 275/517/3 273/511/3 278/513/3
f 280/518/10 278/1049/10 277/519/10
f 273/394/43 274/1050/43 277/521/43
f 276/523/44 275/1051/44 280/524/44
f 284/526/1 287/1052/1 285/527/1
f 284/529/94 282/1053/94 281/58/94
f 283/531/3 281/1054/3 286/277/3
f 288/533/95 286/1055/95 285/534/95
f 281/536/96 282/1056/96 285/537/96
f 284/539/97 283/1057/97 288/540/97
f 295/542/1 293/1058/1 290/203/1
f 292/544/98 290/1059/98 289/545/98
f 296/547/3 291/1060/3 289/548/3
f 296/550/99 294/1061/99 293/551/99
f 289/553/100 290/1062/100 293/554/100
f 292/556/101 291/461/101 296/557/101
f 303/559/102 301/444/102 298/560/102
f 300/562/8 298/1063/8 297/563/8
f 299/564/103 297/559/103 302/561/103
f 304/566/10 302/1064/10 301/567/10
f 297/295/104 298/1065/104 301/568/104
f 300/570/105 299/1066/105 304/571/105
f 311/573/1 309/1067/1 306/271/1
f 308/575/8 306/1068/8 305/576/8
f 307/578/3 305/1069/3 310/468/3
f 312/580/10 310/1070/10 309/487/10
f 305/582/43 306/1071/43 309/583/43
f 308/585/44 307/923/44 312/586/44
f 319/588/106 317/1072/106 314/494/106
f 316/590/107 314/1073/107 313/591/107
f 315/593/108 313/274/108 318/594/108
f 320/596/109 318/1074/109 317/489/109
f 318/598/43 313/1075/43 314/599/43
f 316/601/44 315/1076/44 320/602/44
f 327/604/110 325/611/110 322/605/110
f 324/607/111 322/1077/111 321/608/111
f 323/610/112 321/621/112 326/611/112
f 328/612/113 326/1078/113 325/613/113
f 321/615/43 322/1079/43 325/616/43
f 327/618/44 324/1080/44 323/443/44
f 335/620/43 333/1081/43 330/621/43
f 332/622/114 330/1082/114 329/623/114
f 331/625/44 329/1083/44 334/626/44
f 336/628/115 334/1084/115 333/629/115
f 329/631/112 330/488/112 333/632/112
f 332/634/110 331/270/110 336/268/110
f 343/636/43 341/1085/43 338/637/43
f 340/639/114 338/1086/114 337/640/114
f 344/642/44 339/655/44 337/643/44
f 344/644/115 342/1087/115 341/418/115
f 337/268/112 338/635/112 341/646/112
f 340/646/110 339/284/110 344/482/110
f 351/648/110 349/1088/110 346/649/110
f 348/651/111 346/1089/111 345/652/111
f 347/654/112 345/1090/112 350/643/112
f 352/656/113 350/1091/113 349/657/113
f 350/659/43 345/1092/43 346/660/43
f 348/662/44 347/1093/44 352/663/44
f 359/665/106 357/670/106 354/329/106
f 356/667/107 354/1094/107 353/488/107
f 355/669/108 353/695/108 358/670/108
f 360/671/109 358/1095/109 357/634/109
f 358/652/43 353/901/43 354/673/43
f 356/675/44 355/520/44 360/676/44
f 367/678/106 365/1096/106 362/679/106
f 364/681/107 362/1097/107 361/121/107
f 363/683/108 361/1098/108 366/154/108
f 368/685/109 366/1099/109 365/686/109
f 361/688/43 362/1100/43 365/689/43
f 364/691/44 363/435/44 368/692/44
f 375/694/116 373/335/116 370/695/116
f 372/696/117 370/1101/117 369/635/117
f 371/698/118 369/765/118 374/335/118
f 376/699/119 374/1102/119 373/646/119
f 369/701/43 370/1103/43 373/702/43
f 375/704/44 372/1104/44 371/705/44
f 383/707/120 381/1105/120 378/708/120
f 380/710/121 378/1106/121 377/703/121
f 379/712/122 377/1107/122 382/713/122
f 384/715/123 382/1108/123 381/706/123
f 382/717/43 377/1109/43 378/718/43
f 380/720/44 379/1110/44 384/721/44
f 391/723/43 389/1111/43 386/724/43
f 388/726/124 386/1112/124 385/727/124
f 387/729/44 385/1113/44 390/507/44
f 392/731/125 390/1114/125 389/732/125
f 385/482/122 386/647/122 389/734/122
f 388/734/120 387/485/120 392/493/120
f 396/736/43 399/1115/43 397/737/43
f 396/738/124 394/1116/124 393/739/124
f 395/741/44 393/754/44 398/742/44
f 400/115/125 398/947/125 397/392/125
f 393/493/122 394/735/122 397/745/122
f 396/745/120 395/746/120 400/515/120
f 407/748/120 405/1117/120 402/749/120
f 404/751/121 402/1118/121 401/752/121
f 403/609/122 401/608/122 406/754/122
f 408/755/123 406/1119/123 405/756/123
f 401/758/43 402/1120/43 405/759/43
f 407/761/44 404/1121/44 403/762/44
f 415/764/116 413/769/116 410/765/116
f 412/766/117 410/1122/117 409/647/117
f 411/768/118 409/1123/118 414/769/118
f 416/770/119 414/1124/119 413/734/119
f 409/772/43 410/1125/43 413/773/43
f 415/774/44 412/1126/44 411/775/44
f 423/776/116 421/1127/116 418/777/116
f 420/779/117 418/1128/117 417/780/117
f 419/782/118 417/1129/118 422/783/118
f 424/785/119 422/1130/119 421/786/119
f 417/788/43 418/1131/43 421/789/43
f 420/791/44 419/1132/44 424/792/44
f 431/794/1 429/1133/1 426/795/1
f 428/565/94 426/124/94 425/797/94
f 432/798/3 427/802/3 425/794/3
f 432/155/95 430/19/95 429/799/95
f 425/151/96 426/1134/96 429/800/96
f 428/495/97 427/798/97 432/802/97
f 439/794/1 437/1133/1 434/795/1
f 436/565/94 434/124/94 433/797/94
f 440/798/3 435/802/3 433/794/3
f 440/155/95 438/19/95 437/799/95
f 433/151/96 434/1134/96 437/800/96
f 436/495/97 435/798/97 440/802/97
f 447/794/126 445/1133/126 442/795/126
f 444/565/127 442/124/127 441/797/127
f 448/798/128 443/802/128 441/794/128
f 448/155/129 446/19/129 445/799/129
f 441/151/130 442/1134/130 445/800/130
f 447/803/131 444/495/131 443/798/131
f 452/804/132 455/1135/132 453/805/132
f 452/807/133 450/297/133 449/808/133
f 451/810/134 449/1135/134 454/804/134
f 455/129/135 456/1136/135 454/166/135
f 449/812/136 450/393/136 453/813/136
f 452/815/137 451/1137/137 456/816/137
f 463/818/138 461/1138/138 458/819/138
f 460/821/139 458/886/140 457/659/140
f 459/822/141 457/1139/142 462/823/142
f 463/760/143 464/838/143 462/821/143
f 457/825/144 458/1140/144 461/826/144
f 463/828/145 460/1141/145 459/829/145
f 468/831/146 471/1142/146 469/832/146
f 468/834/147 466/1143/147 465/835/147
f 472/837/148 467/1144/148 465/838/149
f 472/839/150 470/884/151 469/840/151
f 465/842/152 466/885/152 469/843/152
f 468/845/153 467/1145/154 472/846/153
f 476/848/146 479/1146/146 477/849/146
f 476/851/147 474/1147/147 473/852/147
f 480/854/148 475/1148/148 473/855/149
f 480/857/150 478/1149/151 477/858/151
f 478/860/152 473/1150/152 474/861/152
f 479/863/154 476/1151/154 475/864/154
f 484/866/138 487/1152/138 485/867/138
f 484/869/139 482/1153/140 481/870/140
f 483/872/141 481/1154/142 486/873/142
f 487/875/143 488/1155/143 486/876/143
f 481/878/144 482/1156/144 485/879/144
f 484/881/145 483/1157/145 488/882/145
f 492/831/156 495/1142/156 493/832/157
f 492/834/158 490/1143/158 489/835/158
f 496/837/159 491/1144/159 489/838/160
f 495/841/161 496/839/183 494/884/161
f 494/844/162 489/842/162 490/885/162
f 492/845/164 491/1145/184 496/846/164
f 503/818/156 501/1138/156 498/819/156
f 499/717/165 500/821/165 498/886/165
f 499/822/166 497/1139/166 502/823/166
f 503/760/167 504/838/167 502/821/167
f 497/825/168 498/1140/168 501/826/168
f 503/828/169 500/1141/169 499/829/169
f 511/887/1 509/197/1 506/888/1
f 508/890/98 506/1158/98 505/891/98
f 512/893/3 507/1159/3 505/193/3
f 512/895/99 510/1160/99 509/896/99
f 505/39/100 506/1161/100 509/898/100
f 508/900/101 507/1162/101 512/901/101
f 519/903/1 517/1163/1 514/735/1
f 516/904/2 514/1164/2 513/905/2
f 515/907/3 513/1165/3 518/908/3
f 520/909/4 518/1166/4 517/874/4
f 513/617/5 514/1167/5 517/910/5
f 516/912/6 515/1168/6 520/913/6
