# Blender 4.4.3
# www.blender.org
mtllib atleti.mtl
o atleti
v 0.081250 0.900000 -0.356250
v 0.081250 0.900000 -0.375000
v 0.081250 0.856250 -0.356250
v 0.081250 0.856250 -0.375000
v 0.025000 0.900000 -0.375000
v 0.025000 0.900000 -0.356250
v 0.025000 0.856250 -0.375000
v 0.025000 0.856250 -0.356250
v 0.062500 1.383963 -0.197782
v 0.062500 1.385263 -0.203895
v 0.062500 1.261695 -0.223771
v 0.062500 1.262995 -0.229884
v -0.062500 1.385263 -0.203895
v -0.062500 1.383963 -0.197782
v -0.062500 1.262995 -0.229884
v -0.062500 1.261695 -0.223771
v 0.090901 1.081250 -0.246687
v 0.053313 1.081250 -0.365901
v 0.090901 0.768750 -0.246687
v 0.053313 0.768750 -0.365901
v -0.065901 1.081250 -0.328313
v -0.028313 1.081250 -0.209099
v -0.065901 0.768750 -0.328313
v -0.028313 0.768750 -0.209099
v 0.250000 1.250000 -0.100000
v 0.250000 1.250000 -0.225000
v 0.250000 0.750000 -0.100000
v 0.250000 0.750000 -0.225000
v -0.250000 1.250000 -0.225000
v -0.250000 1.250000 -0.100000
v -0.250000 0.750000 -0.225000
v -0.250000 0.750000 -0.100000
v 0.187500 1.437383 -0.120490
v 0.187500 1.450377 -0.181624
v 0.187500 1.235640 -0.163371
v 0.187500 1.248634 -0.224506
v -0.187500 1.450377 -0.181624
v -0.187500 1.437383 -0.120490
v -0.187500 1.248634 -0.224506
v -0.187500 1.235640 -0.163371
v -0.186577 1.562018 -0.061586
v -0.185083 1.576234 -0.128834
v -0.061397 1.151319 -0.145624
v -0.059903 1.165534 -0.212871
v -0.322788 1.536602 -0.140271
v -0.324282 1.522386 -0.073024
v -0.197608 1.125903 -0.224309
v -0.199102 1.111687 -0.157061
v -0.194001 1.548971 0.073011
v -0.209932 1.608028 0.060175
v -0.169288 1.515885 -0.109885
v -0.185219 1.574941 -0.122721
v -0.347637 1.568396 0.048738
v -0.331706 1.509339 0.061574
v -0.322924 1.535310 -0.134158
v -0.306993 1.476253 -0.121322
v -0.210019 1.609075 0.057275
v -0.191989 1.550596 0.044571
v -0.210316 1.586431 0.161084
v -0.192286 1.527953 0.148380
v -0.329627 1.510161 0.035357
v -0.347657 1.568640 0.048061
v -0.329924 1.487518 0.139166
v -0.347954 1.545997 0.151870
v -0.210316 1.586431 0.161084
v -0.204878 1.582071 0.098974
v -0.126080 1.293324 0.189036
v -0.120642 1.288964 0.126926
v -0.342516 1.541637 0.089760
v -0.347954 1.545997 0.151870
v -0.258280 1.248529 0.117712
v -0.263718 1.252890 0.179822
v 0.265625 1.437500 0.200000
v 0.265625 1.437500 0.106250
v 0.265625 0.750000 0.200000
v 0.265625 0.750000 0.106250
v -0.265625 1.437500 0.106250
v -0.265625 1.437500 0.200000
v -0.265625 0.750000 0.106250
v -0.265625 0.750000 0.200000
v -0.172363 1.529739 -0.042326
v -0.189886 1.594702 -0.056445
v -0.161654 1.515402 -0.121580
v -0.179177 1.580364 -0.135700
v -0.339565 1.551624 -0.068877
v -0.322042 1.486661 -0.054758
v -0.328856 1.537287 -0.148132
v -0.311333 1.472324 -0.134012
v -0.188838 1.551797 0.079605
v -0.206362 1.616759 0.065485
v -0.178129 1.537459 0.000350
v -0.195653 1.602422 -0.013770
v -0.356041 1.573681 0.053053
v -0.338517 1.508719 0.067173
v -0.345332 1.559344 -0.026202
v -0.327808 1.494382 -0.012082
v -0.250000 1.062500 0.150000
v -0.250000 1.062500 -0.162500
v -0.250000 0.812500 0.150000
v -0.250000 0.812500 -0.162500
v -0.312500 1.062500 -0.162500
v -0.312500 1.062500 0.150000
v -0.312500 0.812500 -0.162500
v -0.312500 0.812500 0.150000
v 0.312500 1.062500 0.150000
v 0.312500 1.062500 -0.162500
v 0.312500 0.812500 0.150000
v 0.312500 0.812500 -0.162500
v 0.250000 1.062500 -0.162500
v 0.250000 1.062500 0.150000
v 0.250000 0.812500 -0.162500
v 0.250000 0.812500 0.150000
v 0.324282 1.522386 -0.073024
v 0.322788 1.536602 -0.140271
v 0.199102 1.111687 -0.157061
v 0.197608 1.125903 -0.224309
v 0.185083 1.576234 -0.128834
v 0.186577 1.562018 -0.061586
v 0.059903 1.165534 -0.212871
v 0.061397 1.151319 -0.145624
v 0.322042 1.486661 -0.054758
v 0.339565 1.551624 -0.068877
v 0.311333 1.472324 -0.134012
v 0.328856 1.537287 -0.148132
v 0.189886 1.594702 -0.056445
v 0.172363 1.529739 -0.042326
v 0.179177 1.580364 -0.135700
v 0.161654 1.515402 -0.121580
v 0.331706 1.509339 0.061574
v 0.347637 1.568396 0.048738
v 0.306993 1.476253 -0.121322
v 0.322924 1.535310 -0.134158
v 0.209932 1.608028 0.060175
v 0.194001 1.548971 0.073011
v 0.185219 1.574941 -0.122721
v 0.169288 1.515885 -0.109885
v 0.338517 1.508719 0.067173
v 0.356041 1.573681 0.053053
v 0.327808 1.494382 -0.012082
v 0.345332 1.559344 -0.026202
v 0.206362 1.616759 0.065485
v 0.188838 1.551797 0.079605
v 0.195653 1.602422 -0.013770
v 0.178129 1.537459 0.000350
v 0.347657 1.568640 0.048061
v 0.329627 1.510161 0.035357
v 0.347954 1.545997 0.151870
v 0.329924 1.487518 0.139166
v 0.191989 1.550596 0.044571
v 0.210019 1.609075 0.057275
v 0.192286 1.527953 0.148380
v 0.210316 1.586431 0.161084
v 0.347954 1.545997 0.151870
v 0.342516 1.541637 0.089760
v 0.263718 1.252890 0.179822
v 0.258280 1.248529 0.117712
v 0.204878 1.582071 0.098974
v 0.210316 1.586431 0.161084
v 0.120642 1.288964 0.126926
v 0.126080 1.293324 0.189036
v 0.264392 1.103787 -0.203332
v 0.264399 1.093058 -0.327871
v 0.266605 0.773767 -0.174901
v 0.266611 0.763038 -0.299440
v 0.101903 1.091976 -0.327787
v 0.101896 1.102705 -0.203248
v 0.104115 0.761956 -0.299355
v 0.104108 0.772685 -0.174817
v -0.068863 1.097493 -0.194441
v -0.068870 1.086764 -0.318979
v -0.071034 0.773700 -0.166546
v -0.071040 0.762971 -0.291084
v -0.231366 1.087847 -0.319064
v -0.231359 1.098575 -0.194525
v -0.233537 0.764053 -0.291169
v -0.233530 0.774782 -0.166630
v -0.074414 1.217594 -0.244802
v -0.069619 1.211533 -0.313116
v -0.081395 0.819176 -0.209945
v -0.076600 0.813116 -0.278259
v -0.219231 1.213223 -0.323767
v -0.224026 1.219283 -0.255453
v -0.226212 0.814805 -0.288910
v -0.231007 0.820866 -0.220596
v -0.170742 1.263135 -0.280309
v -0.170742 1.260412 -0.311440
v -0.171833 1.200882 -0.274862
v -0.171833 1.198159 -0.305993
v -0.201988 1.260955 -0.311487
v -0.201988 1.263678 -0.280356
v -0.203078 1.198702 -0.306041
v -0.203078 1.201426 -0.274910
v -0.149222 2.134564 -0.356549
v -0.149222 2.131840 -0.387680
v -0.151404 2.010059 -0.345656
v -0.151404 2.007335 -0.376787
v -0.192966 2.132601 -0.387747
v -0.192966 2.135325 -0.356616
v -0.195147 2.008096 -0.376854
v -0.195147 2.010819 -0.345723
v -0.155471 2.133583 -0.369011
v -0.155471 2.133039 -0.375237
v -0.170742 1.262046 -0.292761
v -0.170742 1.261501 -0.298987
v -0.186717 2.133582 -0.375285
v -0.186717 2.134127 -0.369059
v -0.201988 1.262044 -0.299035
v -0.201988 1.262589 -0.292809
v -0.086419 1.266613 -0.274339
v -0.086419 1.263890 -0.305470
v -0.087510 1.204361 -0.268893
v -0.087510 1.201637 -0.300024
v -0.117664 1.264433 -0.305518
v -0.117664 1.267157 -0.274387
v -0.118755 1.202180 -0.300071
v -0.118755 1.204904 -0.268940
v 0.108789 1.211699 -0.319698
v 0.103994 1.216400 -0.251277
v 0.115770 0.812734 -0.291800
v 0.110975 0.817435 -0.223379
v 0.253606 1.219735 -0.241021
v 0.258401 1.215034 -0.309442
v 0.260587 0.820770 -0.213123
v 0.265382 0.816069 -0.281544
v 0.205117 1.262234 -0.291753
v 0.205117 1.264414 -0.260579
v 0.206208 1.199896 -0.287394
v 0.206208 1.202076 -0.256220
v 0.236363 1.264958 -0.260617
v 0.236363 1.262779 -0.291791
v 0.237453 1.202620 -0.256258
v 0.237453 1.200440 -0.287432
v 0.183597 2.134861 -0.352773
v 0.183597 2.137041 -0.321599
v 0.185779 2.010185 -0.344055
v 0.185779 2.012365 -0.312881
v 0.227341 2.137803 -0.321652
v 0.227341 2.135623 -0.352826
v 0.229522 2.013126 -0.312934
v 0.229522 2.010947 -0.344108
v 0.189846 2.135842 -0.340311
v 0.189846 2.136278 -0.334076
v 0.205117 1.263106 -0.279283
v 0.205117 1.263542 -0.273048
v 0.221092 2.136822 -0.334114
v 0.221092 2.136386 -0.340349
v 0.236363 1.264086 -0.273086
v 0.236363 1.263651 -0.279321
v 0.120794 1.264736 -0.298193
v 0.120794 1.266916 -0.267019
v 0.121885 1.202398 -0.293834
v 0.121885 1.204578 -0.262660
v 0.152039 1.267460 -0.267057
v 0.152039 1.265280 -0.298231
v 0.153130 1.205122 -0.262698
v 0.153130 1.202942 -0.293872
v 0.047904 0.887365 -0.362583
v 0.046348 0.886954 -0.368623
v 0.051556 0.875411 -0.362711
v 0.050000 0.875000 -0.368750
v -0.219123 0.805051 -0.294639
v -0.217567 0.805462 -0.288600
v -0.215471 0.793097 -0.294767
v -0.213914 0.793509 -0.288728
v 0.052897 0.887148 -0.362478
v 0.051520 0.887406 -0.368569
v 0.051377 0.874743 -0.362659
v 0.050000 0.875000 -0.368750
v -0.226726 0.920561 -0.304258
v -0.225349 0.920303 -0.298167
v -0.228246 0.908155 -0.304438
v -0.226869 0.907898 -0.298347
v 0.263008 0.912375 -0.306292
v 0.264597 0.912633 -0.312331
v 0.264534 0.899969 -0.306419
v 0.266122 0.900227 -0.312458
v 0.048728 0.886685 -0.370231
v 0.047139 0.886428 -0.364192
v 0.050254 0.874279 -0.370358
v 0.048665 0.874022 -0.364319
v 0.260294 0.835418 -0.299135
v 0.262086 0.835127 -0.305116
v 0.257282 0.823290 -0.299448
v 0.259074 0.822999 -0.305428
v 0.053467 0.888613 -0.370247
v 0.051674 0.888905 -0.364267
v 0.050455 0.876486 -0.370559
v 0.048663 0.876777 -0.364579
vn -0.0000 -0.0000 -1.0000
vn 1.0000 -0.0000 -0.0000
vn -0.0000 -0.0000 1.0000
vn -1.0000 -0.0000 -0.0000
vn -0.0000 1.0000 -0.0000
vn -0.0000 -1.0000 -0.0000
vn -0.0000 0.2079 -0.9781
vn -0.0000 -0.2079 0.9781
vn -0.0000 0.9781 0.2080
vn -0.0000 -0.9782 -0.2077
vn -0.0000 -0.9781 -0.2080
vn -0.3007 -0.0000 -0.9537
vn 0.9537 -0.0000 -0.3007
vn 0.3007 -0.0000 0.9537
vn -0.9537 -0.0000 0.3007
vn -0.0000 0.9781 0.2079
vn -0.0000 -0.9782 -0.2079
vn -0.0000 -0.9781 -0.2079
vn 0.0217 0.2068 -0.9781
vn 0.9579 0.2757 0.0796
vn -0.0217 -0.2068 0.9781
vn -0.9579 -0.2757 -0.0796
vn -0.2861 0.9387 0.1921
vn 0.2861 -0.9387 -0.1921
vn -0.2549 0.9449 -0.2054
vn 0.2549 -0.9449 0.2054
vn -0.1318 0.1765 0.9754
vn 0.1318 -0.1765 -0.9754
vn 0.2885 -0.9357 -0.2033
vn 0.9575 0.2813 0.0641
vn -0.2885 0.9357 0.2033
vn -0.9575 -0.2813 -0.0641
vn 0.0028 0.2131 -0.9770
vn -0.0028 -0.2131 0.9770
vn 0.0870 -0.0698 -0.9938
vn -0.0870 0.0698 0.9938
vn -0.2751 0.9571 -0.0913
vn 0.2751 -0.9571 0.0913
vn -0.0217 0.2068 -0.9781
vn 0.9579 -0.2757 -0.0796
vn 0.0217 -0.2068 0.9781
vn -0.9579 0.2757 0.0796
vn 0.2861 0.9387 0.1921
vn -0.2861 -0.9387 -0.1921
vn 0.2549 0.9449 -0.2054
vn -0.2549 -0.9449 0.2054
vn 0.1318 0.1765 0.9754
vn -0.1318 -0.1765 -0.9754
vn -0.2885 -0.9357 -0.2033
vn 0.9575 -0.2813 -0.0641
vn 0.2885 0.9357 0.2033
vn -0.9575 0.2813 0.0641
vn -0.0028 0.2131 -0.9770
vn 0.0028 -0.2131 0.9770
vn -0.0870 -0.0698 -0.9938
vn 0.0870 0.0698 0.9938
vn 0.2751 0.9571 -0.0913
vn -0.2751 -0.9571 0.0913
vn 0.0001 -0.0858 -0.9963
vn 1.0000 0.0067 -0.0005
vn -0.0001 0.0858 0.9963
vn -1.0000 -0.0067 0.0005
vn -0.0067 0.9963 -0.0858
vn 0.0067 -0.9963 0.0858
vn -0.0001 -0.0858 -0.9963
vn 1.0000 -0.0067 0.0005
vn 0.0001 0.0858 0.9963
vn -1.0000 0.0067 -0.0005
vn 0.0067 0.9963 -0.0858
vn -0.0067 -0.9963 0.0858
vn 0.0697 -0.0882 -0.9937
vn 0.9974 -0.0113 0.0710
vn -0.0697 0.0882 0.9937
vn -0.9974 0.0113 -0.0710
vn 0.0175 0.9960 -0.0871
vn -0.0175 -0.9960 0.0871
vn -0.0174 -0.9960 0.0871
vn -0.0000 -0.0872 -0.9962
vn 0.9998 -0.0174 0.0015
vn -0.0000 0.0872 0.9962
vn -0.0000 0.0871 0.9962
vn -0.9998 0.0174 -0.0015
vn 0.0174 0.9960 -0.0871
vn -0.0174 -0.9960 0.0872
vn 0.0175 0.9960 -0.0872
vn 0.0175 0.9961 -0.0870
vn -0.0000 -0.0871 -0.9962
vn -0.0697 0.0684 0.9952
vn -0.9974 -0.0222 -0.0684
vn 0.0697 -0.0684 -0.9952
vn 0.9974 0.0222 0.0684
vn -0.0175 0.9974 -0.0698
vn 0.0175 -0.9974 0.0698
vn -0.0000 0.0698 0.9976
vn -0.9998 -0.0174 0.0012
vn -0.0000 -0.0698 -0.9976
vn 0.9998 0.0174 -0.0012
vn -0.0175 0.9974 -0.0697
vn 0.0175 -0.9974 0.0697
vn 0.0174 -0.9974 0.0697
vn -0.0174 0.9974 -0.0697
vn 0.0175 -0.9974 0.0696
vn 0.0174 -0.9974 0.0696
vn -0.0174 0.9974 -0.0698
vn -0.2490 -0.0657 -0.9663
vn -0.2490 -0.0658 -0.9663
vn 0.9234 0.2849 -0.2573
vn 0.9234 0.2848 -0.2573
vn 0.2490 0.0657 0.9663
vn 0.2490 0.0658 0.9663
vn -0.9233 -0.2849 0.2574
vn -0.9234 -0.2849 0.2574
vn -0.9234 -0.2849 0.2573
vn -0.2922 0.9563 0.0102
vn 0.2922 -0.9563 -0.0101
vn 0.2922 -0.9563 -0.0102
vn -0.2203 0.0411 -0.9746
vn -0.2203 0.0412 -0.9746
vn 0.9678 -0.1153 -0.2237
vn 0.2203 -0.0411 0.9746
vn 0.2203 -0.0412 0.9746
vn -0.9678 0.1153 0.2237
vn 0.1216 0.9925 0.0145
vn 0.1216 0.9925 0.0146
vn -0.1216 -0.9925 -0.0144
vn 0.2542 0.0412 -0.9663
vn 0.2542 0.0411 -0.9663
vn 0.9594 0.1153 0.2573
vn 0.9594 0.1154 0.2573
vn 0.9594 0.1154 0.2574
vn -0.2542 -0.0412 0.9663
vn -0.9594 -0.1154 -0.2574
vn -0.9594 -0.1154 -0.2573
vn -0.1221 0.9925 0.0103
vn -0.1220 0.9925 0.0102
vn -0.1220 0.9925 0.0101
vn 0.1221 -0.9925 -0.0103
vn 0.1220 -0.9925 -0.0102
vn 0.1220 -0.9925 -0.0101
vn 0.2868 -0.0466 -0.9569
vn 0.9272 -0.2377 0.2894
vn -0.2868 0.0465 0.9569
vn -0.2868 0.0466 0.9569
vn -0.9272 0.2377 -0.2895
vn -0.9272 0.2377 -0.2896
vn 0.2410 0.9702 0.0249
vn 0.2409 0.9702 0.0250
vn -0.2409 -0.9702 -0.0250
vn -0.0175 -0.9960 0.0872
vn 0.0174 0.9961 -0.0870
vn -0.9234 -0.2849 0.2572
vn 0.9594 0.1153 0.2572
vn 0.1219 -0.9925 -0.0100
vn -0.9272 0.2376 -0.2894
vt 0.373047 0.879883
vt 0.359375 0.890625
vt 0.359375 0.879883
vt 0.395508 0.395508
vt 0.390625 0.406250
vt 0.390625 0.395508
vt 0.404297 0.661133
vt 0.390625 0.671875
vt 0.390625 0.661133
vt 0.489258 0.395508
vt 0.484375 0.406250
vt 0.484375 0.395508
vt 0.109375 0.406250
vt 0.123047 0.401367
vt 0.123047 0.406250
vt 0.125000 0.401367
vt 0.138672 0.406250
vt 0.138672 0.401367
vt 0.421875 0.671875
vt 0.390625 0.703125
vt 0.330078 0.375000
vt 0.328125 0.406250
vt 0.328125 0.375000
vt 0.531250 0.812500
vt 0.500000 0.843750
vt 0.500000 0.812500
vt 0.593750 0.640625
vt 0.595703 0.671875
vt 0.593750 0.671875
vt 0.421875 0.406250
vt 0.453125 0.404297
vt 0.453125 0.406250
vt 0.484375 0.404297
vt 0.484375 0.531250
vt 0.453125 0.609375
vt 0.453125 0.531250
vt 0.500000 0.890625
vt 0.468750 0.968750
vt 0.468750 0.890625
vt 0.468750 0.812500
vt 0.203125 0.453125
vt 0.171875 0.531250
vt 0.171875 0.453125
vt 0.531250 0.578125
vt 0.500000 0.546875
vt 0.531250 0.546875
vt 0.500000 0.515625
vt 0.531250 0.515625
vt 0.125000 0.703125
vt 0.000000 0.828125
vt 0.000000 0.703125
vt 0.375000 0.531250
vt 0.343750 0.656250
vt 0.343750 0.531250
vt 0.250000 0.703125
vt 0.125000 0.828125
vt 0.031250 0.515625
vt 0.000000 0.640625
vt 0.000000 0.515625
vt 0.359375 1.000000
vt 0.484375 0.968750
vt 0.484375 1.000000
vt 0.031250 0.609375
vt 0.156250 0.640625
vt 0.156250 0.609375
vt 0.093750 0.651367
vt 0.000000 0.651367
vt 0.265625 0.432617
vt 0.250000 0.484375
vt 0.250000 0.432617
vt 0.187500 0.651367
vt 0.093750 0.703125
vt 0.281250 0.484375
vt 0.265625 0.484375
vt 0.578125 0.984375
vt 0.578125 1.000000
vt 0.578125 0.968750
vt 0.286133 0.593750
vt 0.250000 0.593750
vt 0.220703 0.421875
vt 0.203125 0.531250
vt 0.203125 0.421875
vt 0.296875 0.593750
vt 0.333008 0.703125
vt 0.296875 0.703125
vt 0.361328 0.421875
vt 0.343750 0.421875
vt 0.531250 0.453125
vt 0.567383 0.435547
vt 0.567383 0.453125
vt 0.562500 0.951172
vt 0.598633 0.968750
vt 0.598633 0.951172
vt 0.281250 0.828125
vt 0.317383 0.875000
vt 0.281250 0.875000
vt 0.343750 0.437500
vt 0.328125 0.484375
vt 0.328125 0.437500
vt 0.458008 0.765625
vt 0.421875 0.812500
vt 0.421875 0.765625
vt 0.531250 0.734375
vt 0.546875 0.781250
vt 0.531250 0.781250
vt 0.546875 0.656250
vt 0.583008 0.640625
vt 0.583008 0.656250
vt 0.598633 0.890625
vt 0.562500 0.906250
vt 0.598633 0.906250
vt 0.536133 0.489258
vt 0.500000 0.489258
vt 0.171875 0.614258
vt 0.156250 0.614258
vt 0.551758 0.942383
vt 0.515625 0.968750
vt 0.515625 0.942383
vt 0.187500 0.536133
vt 0.171875 0.562500
vt 0.171875 0.536133
vt 0.562500 0.890625
vt 0.598633 0.875000
vt 0.562500 0.859375
vt 0.598633 0.859375
vt 0.286133 0.517578
vt 0.250000 0.517578
vt 0.484375 0.564453
vt 0.500000 0.640625
vt 0.484375 0.640625
vt 0.333008 0.517578
vt 0.296875 0.517578
vt 0.421875 0.439453
vt 0.437500 0.515625
vt 0.421875 0.515625
vt 0.140625 0.437500
vt 0.176758 0.421875
vt 0.176758 0.437500
vt 0.562500 0.843750
vt 0.598633 0.843750
vt 0.132812 0.828125
vt 0.000000 1.000000
vt 0.210938 0.531250
vt 0.187500 0.703125
vt 0.187500 0.531250
vt 0.273438 0.828125
vt 0.140625 1.000000
vt 0.140625 0.828125
vt 0.242188 0.531250
vt 0.218750 0.703125
vt 0.218750 0.531250
vt 0.390625 0.765625
vt 0.523438 0.742188
vt 0.523438 0.765625
vt 0.390625 0.710938
vt 0.523438 0.734375
vt 0.523438 0.710938
vt 0.554688 0.854492
vt 0.515625 0.875000
vt 0.515625 0.854492
vt 0.421875 0.416992
vt 0.439453 0.437500
vt 0.421875 0.437500
vt 0.515625 0.791992
vt 0.554688 0.812500
vt 0.515625 0.812500
vt 0.578125 0.979492
vt 0.595703 1.000000
vt 0.570312 0.560547
vt 0.570312 0.578125
vt 0.570312 0.529297
vt 0.570312 0.546875
vt 0.320312 0.463867
vt 0.281250 0.463867
vt 0.140625 0.401367
vt 0.158203 0.421875
vt 0.140625 0.421875
vt 0.554688 0.620117
vt 0.515625 0.640625
vt 0.515625 0.620117
vt 0.595703 0.823242
vt 0.578125 0.843750
vt 0.578125 0.823242
vt 0.570312 0.484375
vt 0.531250 0.466797
vt 0.570312 0.466797
vt 0.546875 0.763672
vt 0.585938 0.781250
vt 0.585938 0.763672
vt 0.343750 0.703125
vt 0.328125 0.765625
vt 0.328125 0.703125
vt 0.250000 0.828125
vt 0.250000 0.765625
vt 0.515625 0.906250
vt 0.500000 0.968750
vt 0.500000 0.906250
vt 0.359375 0.968750
vt 0.375000 0.890625
vt 0.375000 0.968750
vt 0.187500 0.640625
vt 0.187500 0.562500
vt 0.515625 0.843750
vt 0.359375 0.937500
vt 0.281250 1.000000
vt 0.281250 0.937500
vt 0.515625 0.578125
vt 0.500000 0.578125
vt 0.359375 0.875000
vt 0.140625 0.515625
vt 0.156250 0.437500
vt 0.156250 0.515625
vt 0.171875 0.515625
vt 0.171875 0.437500
vt 0.364258 0.765625
vt 0.328125 0.875000
vt 0.453125 0.421875
vt 0.470703 0.531250
vt 0.379883 0.656250
vt 0.343750 0.765625
vt 0.000000 0.406250
vt 0.017578 0.515625
vt 0.598633 0.937500
vt 0.562500 0.919922
vt 0.598633 0.919922
vt 0.093750 0.419922
vt 0.129883 0.437500
vt 0.129883 0.419922
vt 0.554688 0.588867
vt 0.515625 0.609375
vt 0.515625 0.588867
vt 0.220703 0.401367
vt 0.203125 0.401367
vt 0.523438 0.463867
vt 0.484375 0.484375
vt 0.484375 0.463867
vt 0.267578 0.401367
vt 0.250000 0.421875
vt 0.250000 0.401367
vt 0.546875 0.750000
vt 0.585938 0.732422
vt 0.585938 0.750000
vt 0.281250 0.435547
vt 0.320312 0.453125
vt 0.320312 0.435547
vt 0.504883 0.765625
vt 0.468750 0.765625
vt 0.546875 0.687500
vt 0.531250 0.687500
vt 0.129883 0.468750
vt 0.093750 0.515625
vt 0.093750 0.468750
vt 0.546875 0.640625
vt 0.531250 0.640625
vt 0.598633 0.812500
vt 0.562500 0.796875
vt 0.598633 0.796875
vt 0.562500 0.781250
vt 0.598633 0.781250
vt 0.093750 0.448242
vt 0.132812 0.468750
vt 0.298828 0.401367
vt 0.281250 0.421875
vt 0.281250 0.401367
vt 0.570312 0.823242
vt 0.531250 0.843750
vt 0.531250 0.823242
vt 0.361328 0.401367
vt 0.343750 0.401367
vt 0.546875 0.718750
vt 0.585938 0.701172
vt 0.585938 0.718750
vt 0.546875 0.669922
vt 0.585938 0.687500
vt 0.585938 0.669922
vt 0.515625 0.911133
vt 0.551758 0.937500
vt 0.515625 0.937500
vt 0.390625 0.426758
vt 0.406250 0.453125
vt 0.390625 0.453125
vt 0.515625 0.879883
vt 0.551758 0.906250
vt 0.328125 0.411133
vt 0.598633 0.640625
vt 0.562500 0.625000
vt 0.598633 0.625000
vt 0.562500 0.609375
vt 0.598633 0.609375
vt 0.458008 0.892578
vt 0.421875 0.968750
vt 0.421875 0.892578
vt 0.453125 0.439453
vt 0.437500 0.439453
vt 0.421875 0.814453
vt 0.458008 0.890625
vt 0.421875 0.890625
vt 0.500000 0.486328
vt 0.484375 0.562500
vt 0.484375 0.486328
vt 0.598633 0.593750
vt 0.598633 0.578125
vt 0.562500 0.593750
vt 0.416016 0.776367
vt 0.375000 0.859375
vt 0.375000 0.776367
vt 0.453125 0.620117
vt 0.421875 0.703125
vt 0.421875 0.620117
vt 0.031250 0.526367
vt 0.072266 0.609375
vt 0.421875 0.526367
vt 0.421875 0.609375
vt 0.250000 0.515625
vt 0.291016 0.484375
vt 0.291016 0.515625
vt 0.337891 0.484375
vt 0.296875 0.515625
vt 0.337891 0.515625
vt 0.078125 0.528320
vt 0.119141 0.609375
vt 0.078125 0.609375
vt 0.484375 0.622070
vt 0.453125 0.703125
vt 0.453125 0.622070
vt 0.166016 0.528320
vt 0.125000 0.609375
vt 0.125000 0.528320
vt 0.406250 0.465820
vt 0.375000 0.546875
vt 0.375000 0.465820
vt 0.484375 0.703125
vt 0.525391 0.671875
vt 0.525391 0.703125
vt 0.525391 0.640625
vt 0.484375 0.671875
vt 0.375000 0.869141
vt 0.412109 0.968750
vt 0.048828 0.416016
vt 0.031250 0.416016
vt 0.412109 0.556641
vt 0.375000 0.656250
vt 0.375000 0.556641
vt 0.062500 0.416016
vt 0.080078 0.515625
vt 0.062500 0.515625
vt 0.521484 0.453125
vt 0.484375 0.435547
vt 0.521484 0.435547
vt 0.546875 0.498047
vt 0.583984 0.515625
vt 0.583984 0.498047
vt 0.414062 0.656250
vt 0.406250 0.671875
vt 0.406250 0.656250
vt 0.515625 0.765625
vt 0.523438 0.781250
vt 0.515625 0.781250
vt 0.179688 0.453125
vt 0.179688 0.406250
vt 0.171875 0.421875
vt 0.171875 0.406250
vt 0.179688 0.398438
vt 0.593750 0.695312
vt 0.601562 0.703125
vt 0.601562 0.695312
vt 0.414062 0.671875
vt 0.593750 0.703125
vt 0.406250 0.328125
vt 0.414062 0.546875
vt 0.406250 0.546875
vt 0.189453 0.234375
vt 0.187500 0.453125
vt 0.187500 0.234375
vt 0.242188 0.312500
vt 0.234375 0.531250
vt 0.234375 0.312500
vt 0.375000 0.234375
vt 0.376953 0.453125
vt 0.375000 0.453125
vt 0.593750 0.515625
vt 0.601562 0.513672
vt 0.601562 0.515625
vt 0.507812 0.404297
vt 0.500000 0.406250
vt 0.507812 0.406250
vt 0.312500 0.406250
vt 0.320312 0.421875
vt 0.312500 0.421875
vt 0.398438 0.406250
vt 0.390625 0.421875
vt 0.078125 0.390625
vt 0.085938 0.406250
vt 0.078125 0.406250
vt 0.101562 0.390625
vt 0.093750 0.406250
vt 0.093750 0.390625
vt 0.320312 0.398438
vt 0.320312 0.406250
vt 0.593750 0.679688
vt 0.601562 0.687500
vt 0.601562 0.679688
vt 0.412109 0.869141
vt 0.171875 0.398438
vt 0.414062 0.328125
vt 0.376953 0.234375
vt 0.500000 0.404297
vt 0.650391 0.575195
vt 0.578125 0.578125
vt 0.578125 0.575195
vt 0.595703 0.497070
vt 0.593750 0.500000
vt 0.593750 0.497070
vt 0.650391 0.559570
vt 0.578125 0.562500
vt 0.578125 0.559570
vt 0.515625 0.403320
vt 0.517578 0.406250
vt 0.515625 0.406250
vt 0.578125 0.453125
vt 0.650391 0.451172
vt 0.650391 0.453125
vt 0.650391 0.435547
vt 0.578125 0.437500
vt 0.650391 0.437500
vt 0.525391 0.418945
vt 0.453125 0.418945
vt 0.531250 0.403320
vt 0.533203 0.406250
vt 0.531250 0.406250
vt 0.578125 0.543945
vt 0.650391 0.546875
vt 0.578125 0.546875
vt 0.546875 0.403320
vt 0.548828 0.406250
vt 0.546875 0.406250
vt 0.072266 0.404297
vt 0.072266 0.406250
vt 0.593750 0.779297
vt 0.666016 0.781250
vt 0.666016 0.779297
vt 0.634766 0.528320
vt 0.578125 0.531250
vt 0.578125 0.528320
vt 0.562500 0.403320
vt 0.564453 0.406250
vt 0.562500 0.406250
vt 0.634766 0.481445
vt 0.578125 0.484375
vt 0.578125 0.481445
vt 0.578125 0.403320
vt 0.580078 0.406250
vt 0.578125 0.406250
vt 0.593750 0.765625
vt 0.650391 0.763672
vt 0.650391 0.765625
vt 0.593750 0.748047
vt 0.650391 0.750000
vt 0.650391 0.748047
vt 0.587891 0.418945
vt 0.531250 0.421875
vt 0.531250 0.418945
vt 0.595703 0.418945
vt 0.593750 0.421875
vt 0.593750 0.418945
vt 0.634766 0.465820
vt 0.578125 0.468750
vt 0.578125 0.465820
vt 0.593750 0.403320
vt 0.595703 0.406250
vt 0.593750 0.406250
vt 0.650391 0.734375
vt 0.593750 0.732422
vt 0.650391 0.732422
vt 0.593750 0.716797
vt 0.650391 0.718750
vt 0.650391 0.716797
vt 0.373047 0.890625
vt 0.395508 0.406250
vt 0.404297 0.671875
vt 0.489258 0.406250
vt 0.109375 0.401367
vt 0.125000 0.406250
vt 0.330078 0.406250
vt 0.595703 0.640625
vt 0.421875 0.404297
vt 0.484375 0.609375
vt 0.031250 0.640625
vt 0.281250 0.432617
vt 0.484375 0.984375
vt 0.286133 0.703125
vt 0.220703 0.531250
vt 0.333008 0.593750
vt 0.361328 0.531250
vt 0.531250 0.435547
vt 0.562500 0.968750
vt 0.317383 0.828125
vt 0.343750 0.484375
vt 0.458008 0.812500
vt 0.546875 0.734375
vt 0.536133 0.515625
vt 0.171875 0.640625
vt 0.551758 0.968750
vt 0.562500 0.875000
vt 0.500000 0.564453
vt 0.132812 1.000000
vt 0.210938 0.703125
vt 0.273438 1.000000
vt 0.242188 0.703125
vt 0.390625 0.742188
vt 0.390625 0.734375
vt 0.554688 0.875000
vt 0.439453 0.416992
vt 0.554688 0.791992
vt 0.595703 0.979492
vt 0.531250 0.560547
vt 0.531250 0.529297
vt 0.320312 0.484375
vt 0.158203 0.401367
vt 0.554688 0.640625
vt 0.595703 0.843750
vt 0.531250 0.484375
vt 0.328125 0.828125
vt 0.364258 0.875000
vt 0.470703 0.421875
vt 0.379883 0.765625
vt 0.017578 0.406250
vt 0.562500 0.937500
vt 0.093750 0.437500
vt 0.554688 0.609375
vt 0.523438 0.484375
vt 0.267578 0.421875
vt 0.546875 0.732422
vt 0.281250 0.453125
vt 0.504883 0.812500
vt 0.129883 0.515625
vt 0.562500 0.812500
vt 0.132812 0.448242
vt 0.298828 0.421875
vt 0.570312 0.843750
vt 0.546875 0.701172
vt 0.551758 0.911133
vt 0.406250 0.426758
vt 0.551758 0.879883
vt 0.343750 0.411133
vt 0.562500 0.640625
vt 0.458008 0.968750
vt 0.453125 0.515625
vt 0.458008 0.814453
vt 0.500000 0.562500
vt 0.562500 0.578125
vt 0.416016 0.859375
vt 0.072266 0.526367
vt 0.453125 0.526367
vt 0.296875 0.484375
vt 0.119141 0.528320
vt 0.166016 0.609375
vt 0.048828 0.515625
vt 0.412109 0.656250
vt 0.080078 0.416016
vt 0.484375 0.453125
vt 0.546875 0.515625
vt 0.179688 0.437500
vt 0.179688 0.421875
vt 0.189453 0.453125
vt 0.593750 0.513672
vt 0.398438 0.421875
vt 0.085938 0.390625
vt 0.101562 0.406250
vt 0.312500 0.398438
vt 0.593750 0.687500
vt 0.650391 0.578125
vt 0.595703 0.500000
vt 0.650391 0.562500
vt 0.517578 0.403320
vt 0.578125 0.451172
vt 0.578125 0.435547
vt 0.525391 0.421875
vt 0.533203 0.403320
vt 0.650391 0.543945
vt 0.548828 0.403320
vt 0.000000 0.404297
vt 0.593750 0.781250
vt 0.634766 0.531250
vt 0.564453 0.403320
vt 0.634766 0.484375
vt 0.580078 0.403320
vt 0.593750 0.763672
vt 0.593750 0.750000
vt 0.587891 0.421875
vt 0.595703 0.421875
vt 0.634766 0.468750
vt 0.595703 0.403320
vt 0.593750 0.734375
vt 0.593750 0.718750
s 1
usemtl m_b87e144e-7856-83c3-1b70-203c57613728
f 7/1/1 2/2/1 4/3/1
f 4/4/2 1/5/2 3/6/2
f 3/7/3 6/8/3 8/9/3
f 8/10/4 5/11/4 7/12/4
f 1/13/5 5/14/5 6/15/5
f 4/16/6 8/17/6 7/18/6
f 15/19/7 10/20/7 12/8/7
f 12/21/2 9/22/2 11/23/2
f 11/24/8 14/25/8 16/26/8
f 15/27/4 14/28/4 13/29/4
f 9/30/9 13/31/9 14/32/9
f 12/31/10 16/11/11 15/33/11
f 23/34/12 18/35/12 20/36/12
f 20/37/13 17/38/13 19/39/13
f 19/26/14 22/39/14 24/40/14
f 24/41/15 21/42/15 23/43/15
f 22/44/5 18/45/5 21/46/5
f 20/47/6 24/46/6 23/48/6
f 31/49/1 26/50/1 28/51/1
f 28/52/2 25/53/2 27/54/2
f 27/55/3 30/56/3 32/49/3
f 32/57/4 29/58/4 31/59/4
f 25/60/5 29/61/5 30/62/5
f 28/63/6 32/64/6 31/65/6
f 39/66/7 34/51/7 36/67/7
f 36/68/2 33/69/2 35/70/2
f 35/71/8 38/72/8 40/66/8
f 39/68/4 38/73/4 37/74/4
f 33/62/16 37/75/16 38/76/16
f 36/61/17 40/75/18 39/77/18
f 47/78/19 42/55/19 44/79/19
f 44/80/20 41/81/20 43/82/20
f 48/83/21 41/84/21 46/85/21
f 48/86/22 45/54/22 47/87/22
f 41/88/23 45/89/23 46/90/23
f 44/91/24 48/92/24 47/93/24
f 52/94/25 53/95/25 50/96/25
f 52/97/20 49/98/20 51/99/20
f 51/100/26 54/101/26 56/102/26
f 55/103/22 54/104/22 53/105/22
f 49/106/27 53/107/27 54/108/27
f 55/109/28 51/110/28 56/111/28
f 63/112/29 58/47/29 60/113/29
f 60/114/30 57/64/30 59/115/30
f 59/116/31 62/117/31 64/118/31
f 64/119/32 61/120/32 63/121/32
f 57/122/33 61/123/33 62/109/33
f 60/124/34 64/123/34 63/125/34
f 71/126/35 66/79/35 68/127/35
f 67/128/30 66/129/30 65/130/30
f 67/131/36 70/83/36 72/132/36
f 71/133/32 70/134/32 69/135/32
f 65/136/37 69/137/37 70/138/37
f 68/139/38 72/125/38 71/140/38
f 79/141/1 74/142/1 76/50/1
f 76/143/2 73/144/2 75/145/2
f 75/146/3 78/147/3 80/148/3
f 80/149/4 77/150/4 79/151/4
f 73/152/5 77/153/5 78/154/5
f 76/155/6 80/156/6 79/157/6
f 87/158/25 82/159/25 84/160/25
f 83/161/20 82/162/20 81/163/20
f 88/164/26 81/165/26 86/166/26
f 87/167/22 86/168/22 85/76/22
f 81/44/27 85/169/27 86/170/27
f 87/171/28 83/46/28 88/172/28
f 95/173/25 90/73/25 92/174/25
f 91/175/20 90/176/20 89/177/20
f 91/178/26 94/179/26 96/180/26
f 96/181/22 93/182/22 95/183/22
f 94/184/27 90/185/27 93/186/27
f 92/187/28 96/188/28 95/189/28
f 103/190/1 98/191/1 100/192/1
f 100/191/2 97/193/2 99/194/2
f 99/195/3 102/196/3 104/197/3
f 104/192/4 101/194/4 103/55/4
f 97/198/5 101/199/5 102/200/5
f 100/120/6 104/201/6 103/202/6
f 111/203/1 106/197/1 108/25/1
f 108/204/2 105/205/2 107/206/2
f 107/207/3 110/129/3 112/208/3
f 112/209/4 109/206/4 111/96/4
f 105/210/5 109/211/5 110/212/5
f 108/211/6 112/213/6 111/214/6
f 119/215/39 114/216/39 116/191/39
f 115/217/40 114/218/40 113/36/40
f 115/219/41 118/220/41 120/53/41
f 119/221/42 118/222/42 117/59/42
f 118/223/43 114/224/43 117/225/43
f 116/226/44 120/227/44 119/228/44
f 127/229/45 122/230/45 124/231/45
f 124/232/40 121/82/40 123/233/40
f 123/234/46 126/235/46 128/236/46
f 128/237/42 125/238/42 127/239/42
f 121/240/47 125/241/47 126/242/47
f 124/243/48 128/244/48 127/245/48
f 135/246/45 130/40/45 132/247/45
f 132/248/40 129/103/40 131/249/40
f 131/250/46 134/251/46 136/252/46
f 136/253/42 133/249/42 135/254/42
f 134/255/47 130/256/47 133/257/47
f 132/258/48 136/257/48 135/259/48
f 140/260/45 141/261/45 138/252/45
f 140/262/40 137/263/40 139/264/40
f 139/265/46 142/266/46 144/267/46
f 144/268/42 141/87/42 143/269/42
f 137/270/47 141/271/47 142/272/47
f 140/273/48 144/274/48 143/275/48
f 148/276/49 149/277/49 146/278/49
f 147/279/50 146/280/50 145/281/50
f 152/282/51 145/283/51 150/195/51
f 151/284/52 150/97/52 149/99/52
f 150/285/53 146/286/53 149/287/53
f 148/288/54 152/287/54 151/289/54
f 159/290/55 154/291/55 156/292/55
f 156/293/50 153/134/50 155/294/50
f 160/295/56 153/296/56 158/297/56
f 160/298/52 157/299/52 159/300/52
f 153/288/57 157/301/57 158/289/57
f 159/302/58 155/303/58 160/301/58
f 167/304/59 162/305/59 164/306/59
f 164/307/60 161/308/60 163/309/60
f 168/310/61 161/311/61 166/63/61
f 167/312/62 166/35/62 165/313/62
f 161/314/63 165/315/63 166/316/63
f 167/317/64 163/318/64 168/319/64
f 172/320/65 173/321/65 170/322/65
f 172/323/66 169/324/66 171/325/66
f 171/326/67 174/327/67 176/328/67
f 176/329/68 173/330/68 175/331/68
f 169/332/69 173/333/69 174/334/69
f 175/335/70 171/336/70 176/333/70
f 180/337/71 181/338/71 178/200/71
f 180/339/72 177/57/72 179/340/72
f 179/341/73 182/342/73 184/343/73
f 183/344/74 182/345/74 181/346/74
f 182/347/75 178/348/75 181/349/75
f 180/350/76 184/351/77 183/352/77
f 191/353/78 186/354/78 188/355/78
f 187/356/79 186/357/79 185/358/79
f 192/214/80 185/359/80 190/43/81
f 192/360/82 189/361/82 191/362/82
f 185/362/83 189/363/83 190/360/83
f 188/364/76 192/365/76 191/366/84
f 196/355/78 197/367/78 194/354/78
f 195/356/79 194/357/79 193/358/79
f 200/214/80 193/359/80 198/43/80
f 200/360/82 197/361/82 199/362/82
f 193/362/85 197/363/75 198/360/75
f 199/366/77 195/368/76 200/365/77
f 204/369/78 205/370/78 202/371/78
f 204/372/79 201/373/79 203/374/79
f 203/375/80 206/376/80 208/377/80
f 207/378/82 206/379/82 205/380/82
f 201/381/86 205/382/75 206/383/75
f 207/384/84 203/385/84 208/386/84
f 212/387/78 213/388/78 210/389/87
f 212/390/79 209/391/79 211/5/79
f 216/392/80 209/393/80 214/394/80
f 216/395/82 213/396/82 215/397/82
f 209/387/75 213/398/75 214/399/85
f 212/400/84 216/401/84 215/402/77
f 223/403/88 218/200/88 220/337/88
f 220/339/89 217/57/89 219/340/89
f 219/341/90 222/342/90 224/343/90
f 223/344/91 222/345/91 221/346/91
f 222/347/92 218/348/92 221/349/92
f 220/350/93 224/351/93 223/352/93
f 228/355/94 229/367/94 226/354/94
f 227/356/95 226/357/95 225/358/95
f 232/214/96 225/359/96 230/43/96
f 232/360/97 229/361/97 231/362/97
f 230/360/98 226/404/98 229/363/98
f 231/366/99 227/368/99 232/365/99
f 239/353/94 234/354/94 236/355/94
f 235/356/95 234/357/95 233/358/95
f 240/214/96 233/359/96 238/43/96
f 240/360/97 237/361/97 239/362/97
f 238/360/92 234/404/92 237/363/92
f 236/364/100 240/365/100 239/366/100
f 247/405/94 242/371/94 244/369/94
f 244/372/95 241/373/95 243/374/95
f 243/375/96 246/376/96 248/377/96
f 248/406/97 245/380/97 247/378/97
f 241/381/98 245/382/101 246/383/101
f 244/407/99 248/386/102 247/384/103
f 252/387/94 253/388/94 250/389/94
f 252/390/95 249/391/95 251/5/95
f 256/392/96 249/393/96 254/394/96
f 256/395/97 253/396/97 255/397/97
f 249/387/104 253/398/104 254/399/101
f 252/400/99 256/401/99 255/402/100
f 263/408/105 258/409/106 260/410/106
f 260/411/107 257/412/108 259/413/107
f 259/414/109 262/415/110 264/416/110
f 263/417/111 262/418/112 261/419/113
f 257/420/114 261/421/114 262/422/114
f 263/423/115 259/424/116 264/425/115
f 271/426/117 266/217/118 268/427/118
f 267/428/119 266/429/119 265/430/119
f 272/431/120 265/432/121 270/433/120
f 271/434/122 270/435/122 269/436/122
f 265/221/123 269/437/124 270/438/124
f 268/439/125 272/440/125 271/441/125
f 279/442/126 274/443/127 276/444/127
f 275/445/128 274/446/129 273/447/130
f 275/448/131 278/449/131 280/450/131
f 279/451/132 278/452/132 277/453/133
f 273/454/134 277/455/135 278/456/136
f 276/457/137 280/458/138 279/459/139
f 287/460/140 282/461/140 284/462/140
f 284/463/141 281/464/141 283/465/141
f 283/466/142 286/467/143 288/468/143
f 287/469/144 286/470/144 285/471/145
f 286/472/146 282/473/147 285/474/146
f 284/475/148 288/476/148 287/477/148
f 7/1/1 5/478/1 2/2/1
f 4/4/2 2/479/2 1/5/2
f 3/7/3 1/480/3 6/8/3
f 8/10/4 6/481/4 5/11/4
f 1/13/5 2/482/5 5/14/5
f 4/16/6 3/483/6 8/17/6
f 15/19/7 13/308/7 10/20/7
f 12/21/2 10/484/2 9/22/2
f 11/24/8 9/266/8 14/25/8
f 15/27/4 16/485/4 14/28/4
f 9/30/9 10/486/9 13/31/9
f 12/31/10 11/32/11 16/11/11
f 23/34/12 21/487/12 18/35/12
f 20/37/13 18/196/13 17/38/13
f 19/26/14 17/37/14 22/39/14
f 24/41/15 22/81/15 21/42/15
f 22/44/5 17/208/5 18/45/5
f 20/47/6 19/45/6 24/46/6
f 31/49/1 29/56/1 26/50/1
f 28/52/2 26/342/2 25/53/2
f 27/55/3 25/193/3 30/56/3
f 32/57/4 30/488/4 29/58/4
f 25/60/5 26/198/5 29/61/5
f 28/63/6 27/488/6 32/64/6
f 39/66/7 37/72/7 34/51/7
f 36/68/2 34/74/2 33/69/2
f 35/71/8 33/144/8 38/72/8
f 39/68/4 40/489/4 38/73/4
f 33/62/16 34/490/16 37/75/16
f 36/61/17 35/490/17 40/75/18
f 47/78/19 45/491/19 42/55/19
f 44/80/20 42/492/20 41/81/20
f 48/83/21 43/493/21 41/84/21
f 48/86/22 46/494/22 45/54/22
f 41/88/23 42/495/23 45/89/23
f 44/91/24 43/496/24 48/92/24
f 52/94/25 55/497/25 53/95/25
f 52/97/20 50/498/20 49/98/20
f 51/100/26 49/499/26 54/101/26
f 55/103/22 56/500/22 54/104/22
f 49/106/27 50/253/27 53/107/27
f 55/109/28 52/122/28 51/110/28
f 63/112/29 61/501/29 58/47/29
f 60/114/30 58/502/30 57/64/30
f 59/116/31 57/503/31 62/117/31
f 64/119/32 62/202/32 61/120/32
f 57/122/33 58/504/33 61/123/33
f 60/124/34 59/504/34 64/123/34
f 71/126/35 69/78/35 66/79/35
f 67/128/30 68/505/30 66/129/30
f 67/131/36 65/493/36 70/83/36
f 71/133/32 72/294/32 70/134/32
f 65/136/37 66/177/37 69/137/37
f 68/139/38 67/124/38 72/125/38
f 79/141/1 77/506/1 74/142/1
f 76/143/2 74/507/2 73/144/2
f 75/146/3 73/508/3 78/147/3
f 80/149/4 78/509/4 77/150/4
f 73/152/5 74/510/5 77/153/5
f 76/155/6 75/511/6 80/156/6
f 87/158/25 85/512/25 82/159/25
f 83/161/20 84/513/20 82/162/20
f 88/164/26 83/514/26 81/165/26
f 87/167/22 88/515/22 86/168/22
f 81/44/27 82/516/27 85/169/27
f 87/171/28 84/517/28 83/46/28
f 95/173/25 93/518/25 90/73/25
f 91/175/20 92/519/20 90/176/20
f 91/178/26 89/520/26 94/179/26
f 96/181/22 94/521/22 93/182/22
f 94/184/27 89/522/27 90/185/27
f 92/187/28 91/104/28 96/188/28
f 103/190/1 101/220/1 98/191/1
f 100/191/2 98/523/2 97/193/2
f 99/195/3 97/117/3 102/196/3
f 104/192/4 102/191/4 101/194/4
f 97/198/5 98/2/5 101/199/5
f 100/120/6 99/502/6 104/201/6
f 111/203/1 109/195/1 106/197/1
f 108/204/2 106/60/2 105/205/2
f 107/207/3 105/179/3 110/129/3
f 112/209/4 110/204/4 109/206/4
f 105/210/5 106/136/5 109/211/5
f 108/211/6 107/212/6 112/213/6
f 119/215/39 117/524/39 114/216/39
f 115/217/40 116/525/40 114/218/40
f 115/219/41 113/526/41 118/220/41
f 119/221/42 120/527/42 118/222/42
f 118/223/43 113/528/43 114/224/43
f 116/226/44 115/529/44 120/227/44
f 127/229/45 125/530/45 122/230/45
f 124/232/40 122/80/40 121/82/40
f 123/234/46 121/531/46 126/235/46
f 128/237/42 126/532/42 125/238/42
f 121/240/47 122/533/47 125/241/47
f 124/243/48 123/534/48 128/244/48
f 135/246/45 133/535/45 130/40/45
f 132/248/40 130/500/40 129/103/40
f 131/250/46 129/536/46 134/251/46
f 136/253/42 134/248/42 133/249/42
f 134/255/47 129/537/47 130/256/47
f 132/258/48 131/256/48 136/257/48
f 140/260/45 143/538/45 141/261/45
f 140/262/40 138/539/40 137/263/40
f 139/265/46 137/540/46 142/266/46
f 144/268/42 142/86/42 141/87/42
f 137/270/47 138/541/47 141/271/47
f 140/273/48 139/248/48 144/274/48
f 148/276/49 151/542/49 149/277/49
f 147/279/50 148/543/50 146/280/50
f 152/282/51 147/544/51 145/283/51
f 151/284/52 152/545/52 150/97/52
f 150/285/53 145/546/53 146/286/53
f 148/288/54 147/286/54 152/287/54
f 159/290/55 157/547/55 154/291/55
f 156/293/50 154/548/50 153/134/50
f 160/295/56 155/549/56 153/296/56
f 160/298/52 158/550/52 157/299/52
f 153/288/57 154/303/57 157/301/57
f 159/302/58 156/551/58 155/303/58
f 167/304/59 165/552/59 162/305/59
f 164/307/60 162/324/60 161/308/60
f 168/310/61 163/553/61 161/311/61
f 167/312/62 168/554/62 166/35/62
f 161/314/63 162/69/63 165/315/63
f 167/317/64 164/555/64 163/318/64
f 172/320/65 175/556/65 173/321/65
f 172/323/66 170/332/66 169/324/66
f 171/326/67 169/557/67 174/327/67
f 176/329/68 174/371/68 173/330/68
f 169/332/69 170/336/69 173/333/69
f 175/335/70 172/130/70 171/336/70
f 180/337/71 183/403/71 181/338/71
f 180/339/72 178/558/72 177/57/72
f 179/341/73 177/559/73 182/342/73
f 183/344/74 184/560/74 182/345/74
f 182/347/75 177/561/83 178/348/75
f 180/350/76 179/562/76 184/351/77
f 191/353/78 189/367/87 186/354/78
f 187/356/79 188/154/79 186/357/79
f 192/214/80 187/563/80 185/359/80
f 192/360/82 190/564/82 189/361/82
f 185/362/83 186/404/83 189/363/83
f 188/364/76 187/368/76 192/365/76
f 196/355/78 199/353/78 197/367/78
f 195/356/79 196/154/79 194/357/79
f 200/214/80 195/563/80 193/359/80
f 200/360/82 198/564/82 197/361/82
f 193/362/85 194/404/85 197/363/75
f 199/366/77 196/364/149 195/368/76
f 204/369/78 207/405/78 205/370/78
f 204/372/79 202/565/79 201/373/79
f 203/375/80 201/149/80 206/376/80
f 207/378/82 208/406/82 206/379/82
f 201/381/86 202/566/150 205/382/75
f 207/384/84 204/407/84 203/385/84
f 212/387/78 215/399/78 213/388/78
f 212/390/79 210/567/79 209/391/79
f 216/392/80 211/568/81 209/393/80
f 216/395/82 214/569/82 213/396/82
f 209/387/75 210/570/83 213/398/75
f 212/400/84 211/571/84 216/401/84
f 223/403/88 221/338/88 218/200/88
f 220/339/89 218/558/89 217/57/89
f 219/341/90 217/559/90 222/342/90
f 223/344/91 224/560/91 222/345/91
f 222/347/92 217/561/92 218/348/92
f 220/350/93 219/562/93 224/351/93
f 228/355/94 231/353/94 229/367/94
f 227/356/95 228/154/95 226/357/95
f 232/214/96 227/563/96 225/359/96
f 232/360/97 230/564/97 229/361/97
f 230/360/98 225/362/98 226/404/98
f 231/366/99 228/364/99 227/368/99
f 239/353/94 237/367/94 234/354/94
f 235/356/95 236/154/95 234/357/95
f 240/214/96 235/563/96 233/359/96
f 240/360/97 238/564/97 237/361/97
f 238/360/92 233/362/92 234/404/92
f 236/364/100 235/368/93 240/365/100
f 247/405/94 245/370/94 242/371/94
f 244/372/95 242/565/95 241/373/95
f 243/375/96 241/149/96 246/376/96
f 248/406/97 246/379/97 245/380/97
f 241/381/98 242/566/98 245/382/101
f 244/407/99 243/385/99 248/386/102
f 252/387/94 255/399/94 253/388/94
f 252/390/95 250/567/95 249/391/95
f 256/392/96 251/568/96 249/393/96
f 256/395/97 254/569/97 253/396/97
f 249/387/104 250/570/104 253/398/104
f 252/400/99 251/571/99 256/401/99
f 263/408/105 261/572/105 258/409/106
f 260/411/107 258/573/108 257/412/108
f 259/414/109 257/574/109 262/415/110
f 263/417/111 264/575/151 262/418/112
f 257/420/114 258/576/114 261/421/114
f 263/423/115 260/577/116 259/424/116
f 271/426/117 269/578/117 266/217/118
f 267/428/119 268/579/119 266/429/119
f 272/431/120 267/580/121 265/432/121
f 271/434/122 272/581/122 270/435/122
f 265/221/123 266/582/123 269/437/124
f 268/439/125 267/583/125 272/440/125
f 279/442/126 277/584/126 274/443/127
f 275/445/128 276/585/152 274/446/129
f 275/448/131 273/586/131 278/449/131
f 279/451/132 280/587/132 278/452/132
f 273/454/134 274/588/134 277/455/135
f 276/457/137 275/589/153 280/458/138
f 287/460/140 285/590/140 282/461/140
f 284/463/141 282/591/141 281/464/141
f 283/466/142 281/592/142 286/467/143
f 287/469/144 288/593/154 286/470/144
f 286/472/146 281/594/147 282/473/147
f 284/475/148 283/595/148 288/476/148
