# Blender 4.4.3
# www.blender.org
mtllib defender.mtl
o defender
v -0.237056 1.015625 0.169194
v -0.281250 1.015625 0.125000
v -0.237056 0.953125 0.169194
v -0.281250 0.953125 0.125000
v -0.325444 1.015625 0.169194
v -0.281250 1.015625 0.213388
v -0.325444 0.953125 0.169194
v -0.281250 0.953125 0.213388
v 0.250000 1.250000 -0.100000
v 0.250000 1.250000 -0.225000
v 0.250000 0.750000 -0.100000
v 0.250000 0.750000 -0.225000
v -0.250000 1.250000 -0.225000
v -0.250000 1.250000 -0.100000
v -0.250000 0.750000 -0.225000
v -0.250000 0.750000 -0.100000
v 0.156250 1.437383 -0.120490
v 0.156250 1.450377 -0.181624
v 0.156250 1.235640 -0.163371
v 0.156250 1.248634 -0.224506
v -0.156250 1.450377 -0.181624
v -0.156250 1.437383 -0.120490
v -0.156250 1.248634 -0.224506
v -0.156250 1.235640 -0.163371
v -0.156641 1.570634 -0.059100
v -0.155147 1.584849 -0.126348
v -0.031461 1.159934 -0.143137
v -0.029967 1.174150 -0.210385
v -0.322788 1.536602 -0.140271
v -0.324282 1.522386 -0.073024
v -0.197608 1.125903 -0.224309
v -0.199102 1.111687 -0.157061
v -0.170053 1.555863 0.075000
v -0.185983 1.614920 0.062164
v -0.145340 1.522777 -0.107895
v -0.161270 1.581834 -0.120732
v -0.347637 1.568396 0.048738
v -0.331706 1.509339 0.061574
v -0.322924 1.535310 -0.134158
v -0.306993 1.476253 -0.121322
v -0.186082 1.616107 0.058878
v -0.168052 1.557628 0.046174
v -0.186379 1.593464 0.162686
v -0.168349 1.534985 0.149982
v -0.329627 1.510161 0.035357
v -0.347657 1.568640 0.048061
v -0.329924 1.487518 0.139166
v -0.347954 1.545997 0.151870
v -0.186379 1.593464 0.162686
v -0.180941 1.589103 0.100576
v -0.102143 1.300356 0.190638
v -0.096705 1.295996 0.128528
v -0.342516 1.541637 0.089760
v -0.347954 1.545997 0.151870
v -0.258280 1.248529 0.117712
v -0.263718 1.252890 0.179822
v -0.176864 1.555243 0.080599
v -0.194387 1.620206 0.066480
v -0.152151 1.522157 -0.102296
v -0.169674 1.587119 -0.116416
v -0.344066 1.577128 0.054048
v -0.326543 1.512165 0.068167
v -0.319353 1.544041 -0.128848
v -0.301830 1.479079 -0.114728
v 0.324282 1.522386 -0.073024
v 0.322788 1.536602 -0.140271
v 0.199102 1.111687 -0.157061
v 0.197608 1.125903 -0.224309
v 0.155147 1.584849 -0.126348
v 0.156641 1.570634 -0.059100
v 0.029967 1.174150 -0.210385
v 0.031461 1.159934 -0.143137
v 0.316437 1.508374 0.038182
v 0.333960 1.573336 0.024062
v 0.295019 1.479699 -0.120327
v 0.312542 1.544662 -0.134447
v 0.196256 1.612968 0.035500
v 0.178732 1.548006 0.049619
v 0.174838 1.584293 -0.123010
v 0.157314 1.519331 -0.108890
v 0.331706 1.509339 0.061574
v 0.347637 1.568396 0.048738
v 0.306993 1.476253 -0.121322
v 0.322924 1.535310 -0.134158
v 0.185983 1.614920 0.062164
v 0.170053 1.555863 0.075000
v 0.161270 1.581834 -0.120732
v 0.145340 1.522777 -0.107895
v 0.347657 1.568640 0.048061
v 0.329627 1.510161 0.035357
v 0.347954 1.545997 0.151870
v 0.329924 1.487518 0.139166
v 0.168052 1.557628 0.046174
v 0.186082 1.616107 0.058878
v 0.168349 1.534985 0.149982
v 0.186379 1.593464 0.162686
v 0.347954 1.545997 0.151870
v 0.342516 1.541637 0.089760
v 0.263718 1.252890 0.179822
v 0.258280 1.248529 0.117712
v 0.180941 1.589103 0.100576
v 0.186379 1.593464 0.162686
v 0.096705 1.295996 0.128528
v 0.102143 1.300356 0.190638
v 0.265625 1.437500 0.200000
v 0.265625 1.437500 0.106250
v 0.265625 0.750000 0.200000
v 0.265625 0.750000 0.106250
v -0.265625 1.437500 0.106250
v -0.265625 1.437500 0.200000
v -0.265625 0.750000 0.106250
v -0.265625 0.750000 0.200000
v -0.250000 1.062500 0.150000
v -0.250000 1.062500 -0.162500
v -0.250000 0.812500 0.150000
v -0.250000 0.812500 -0.162500
v -0.312500 1.062500 -0.162500
v -0.312500 1.062500 0.150000
v -0.312500 0.812500 -0.162500
v -0.312500 0.812500 0.150000
v -0.268306 1.062500 -0.118306
v -0.197595 1.062500 -0.189017
v -0.268306 0.812500 -0.118306
v -0.197595 0.812500 -0.189017
v -0.241789 1.062500 -0.233211
v -0.312500 1.062500 -0.162500
v -0.241789 0.812500 -0.233211
v -0.312500 0.812500 -0.162500
v -0.250000 1.062500 -0.178125
v -0.103125 1.062500 -0.178125
v -0.250000 0.812500 -0.178125
v -0.103125 0.812500 -0.178125
v -0.103125 1.062500 -0.240625
v -0.250000 1.062500 -0.240625
v -0.103125 0.812500 -0.240625
v -0.250000 0.812500 -0.240625
v -0.226712 1.205980 -0.101894
v -0.210012 1.047464 -0.212043
v -0.259901 1.033491 0.141305
v -0.243202 0.874975 0.031156
v -0.259518 1.047115 -0.219047
v -0.276218 1.205631 -0.108898
v -0.292708 0.874626 0.024153
v -0.309407 1.033142 0.134302
v 0.276218 1.205631 -0.108898
v 0.259518 1.047115 -0.219047
v 0.309407 1.033142 0.134302
v 0.292708 0.874626 0.024153
v 0.210012 1.047464 -0.212043
v 0.226712 1.205980 -0.101894
v 0.243202 0.874975 0.031156
v 0.259901 1.033491 0.141305
v 0.312500 1.062500 0.150000
v 0.312500 1.062500 -0.162500
v 0.312500 0.812500 0.150000
v 0.312500 0.812500 -0.162500
v 0.250000 1.062500 -0.162500
v 0.250000 1.062500 0.150000
v 0.250000 0.812500 -0.162500
v 0.250000 0.812500 0.150000
v 0.250000 1.062500 -0.240625
v 0.103125 1.062500 -0.240625
v 0.250000 0.812500 -0.240625
v 0.103125 0.812500 -0.240625
v 0.103125 1.062500 -0.178125
v 0.250000 1.062500 -0.178125
v 0.103125 0.812500 -0.178125
v 0.250000 0.812500 -0.178125
v 0.312500 1.062500 -0.162500
v 0.241789 1.062500 -0.233211
v 0.312500 0.812500 -0.162500
v 0.241789 0.812500 -0.233211
v 0.197595 1.062500 -0.189017
v 0.268306 1.062500 -0.118306
v 0.197595 0.812500 -0.189017
v 0.268306 0.812500 -0.118306
v 0.171875 1.562500 -0.125000
v 0.171875 1.562500 -0.193750
v 0.171875 1.437500 -0.125000
v 0.171875 1.437500 -0.193750
v -0.171875 1.562500 -0.193750
v -0.171875 1.562500 -0.125000
v -0.171875 1.437500 -0.193750
v -0.171875 1.437500 -0.125000
v 0.125000 1.437500 -0.181250
v 0.125000 1.437500 -0.206250
v 0.125000 1.312500 -0.181250
v 0.125000 1.312500 -0.206250
v -0.125000 1.437500 -0.206250
v -0.125000 1.437500 -0.181250
v -0.125000 1.312500 -0.206250
v -0.125000 1.312500 -0.181250
v 0.031250 1.429124 -0.165228
v 0.031250 1.435213 -0.208552
v 0.031250 1.187746 -0.199152
v 0.031250 1.193835 -0.242476
v -0.031250 1.435213 -0.208552
v -0.031250 1.429124 -0.165228
v -0.031250 1.193835 -0.242476
v -0.031250 1.187746 -0.199152
v 0.171875 1.562500 0.243750
v 0.171875 1.562500 0.175000
v 0.171875 1.437500 0.243750
v 0.171875 1.437500 0.175000
v -0.171875 1.562500 0.175000
v -0.171875 1.562500 0.243750
v -0.171875 1.437500 0.175000
v -0.171875 1.437500 0.243750
v -0.031250 1.463443 0.156417
v -0.031250 1.464588 0.200152
v -0.031250 1.219777 0.162798
v -0.031250 1.220922 0.206533
v 0.031250 1.464588 0.200152
v 0.031250 1.463443 0.156417
v 0.031250 1.220922 0.206533
v 0.031250 1.219777 0.162798
v -0.212500 0.746080 -0.137705
v -0.212500 0.750653 -0.181216
v -0.212500 0.621765 -0.150772
v -0.212500 0.626338 -0.194282
v -0.250000 0.750653 -0.181216
v -0.250000 0.746080 -0.137705
v -0.250000 0.626338 -0.194282
v -0.250000 0.621765 -0.150772
v -0.081250 0.747177 -0.166585
v -0.081250 0.748266 -0.179038
v -0.081250 0.541712 -0.184561
v -0.081250 0.542801 -0.197014
v -0.212500 0.748266 -0.179038
v -0.212500 0.747177 -0.166585
v -0.212500 0.542801 -0.197014
v -0.212500 0.541712 -0.184561
v -0.214403 0.629602 -0.147741
v -0.214403 0.635690 -0.191065
v -0.166568 0.515241 -0.163813
v -0.166568 0.521329 -0.207138
v -0.249049 0.621480 -0.193062
v -0.249049 0.615391 -0.149738
v -0.201213 0.507118 -0.209135
v -0.201213 0.501030 -0.165811
v -0.175628 0.528223 -0.161989
v -0.175628 0.534312 -0.205313
v -0.087240 0.440695 -0.174290
v -0.087240 0.446784 -0.217614
v -0.202145 0.508053 -0.209003
v -0.202145 0.501965 -0.165679
v -0.113756 0.420525 -0.221305
v -0.113756 0.414436 -0.177980
v -0.030936 0.493100 -0.188814
v -0.030936 0.493644 -0.195040
v -0.083969 0.440268 -0.193436
v -0.083969 0.440813 -0.199662
v -0.132583 0.594904 -0.186181
v -0.132583 0.594359 -0.179955
v -0.185616 0.542073 -0.190803
v -0.185616 0.541528 -0.184577
v -0.103241 0.447823 -0.173288
v -0.103241 0.453911 -0.216613
v 0.012243 0.400453 -0.179946
v 0.012243 0.406542 -0.223270
v -0.117592 0.419603 -0.221434
v -0.117592 0.413514 -0.178110
v -0.002107 0.372233 -0.228092
v -0.002107 0.366144 -0.184767
v 0.081250 0.747177 -0.166585
v 0.081250 0.748266 -0.179038
v 0.081250 0.404735 -0.196545
v 0.081250 0.405824 -0.208997
v -0.081250 0.748266 -0.179038
v -0.081250 0.747177 -0.166585
v -0.081250 0.405824 -0.208997
v -0.081250 0.404735 -0.196545
v 0.117592 0.413514 -0.178110
v 0.117592 0.419603 -0.221434
v 0.002107 0.366144 -0.184767
v 0.002107 0.372233 -0.228092
v 0.103241 0.453911 -0.216613
v 0.103241 0.447823 -0.173288
v -0.012243 0.406542 -0.223270
v -0.012243 0.400453 -0.179946
v 0.202145 0.501965 -0.165679
v 0.202145 0.508053 -0.209003
v 0.113756 0.414436 -0.177980
v 0.113756 0.420525 -0.221305
v 0.175628 0.534312 -0.205313
v 0.175628 0.528223 -0.161989
v 0.087240 0.446784 -0.217614
v 0.087240 0.440695 -0.174290
v 0.132583 0.594359 -0.179955
v 0.132583 0.594904 -0.186181
v 0.185616 0.541528 -0.184577
v 0.185616 0.542073 -0.190803
v 0.030936 0.493644 -0.195040
v 0.030936 0.493100 -0.188814
v 0.083969 0.440813 -0.199662
v 0.083969 0.440268 -0.193436
v 0.249049 0.615391 -0.149738
v 0.249049 0.621480 -0.193062
v 0.201213 0.501030 -0.165811
v 0.201213 0.507118 -0.209135
v 0.214403 0.635690 -0.191065
v 0.214403 0.629602 -0.147741
v 0.166568 0.521329 -0.207138
v 0.166568 0.515241 -0.163813
v 0.212500 0.747177 -0.166585
v 0.212500 0.748266 -0.179038
v 0.212500 0.541712 -0.184561
v 0.212500 0.542801 -0.197014
v 0.081250 0.748266 -0.179038
v 0.081250 0.747177 -0.166585
v 0.081250 0.542801 -0.197014
v 0.081250 0.541712 -0.184561
v 0.250000 0.747005 -0.143894
v 0.250000 0.751198 -0.187443
v 0.250000 0.622580 -0.155875
v 0.250000 0.626774 -0.199423
v 0.212500 0.751198 -0.187443
v 0.212500 0.747005 -0.143894
v 0.212500 0.626774 -0.199423
v 0.212500 0.622580 -0.155875
v 0.281250 1.015625 0.213388
v 0.325444 1.015625 0.169194
v 0.281250 0.953125 0.213388
v 0.325444 0.953125 0.169194
v 0.281250 1.015625 0.125000
v 0.237056 1.015625 0.169194
v 0.281250 0.953125 0.125000
v 0.237056 0.953125 0.169194
v 0.281250 0.875000 0.213388
v 0.325444 0.875000 0.169194
v 0.281250 0.812500 0.213388
v 0.325444 0.812500 0.169194
v 0.281250 0.875000 0.125000
v 0.237056 0.875000 0.169194
v 0.281250 0.812500 0.125000
v 0.237056 0.812500 0.169194
v -0.237056 0.875000 0.169194
v -0.281250 0.875000 0.125000
v -0.237056 0.812500 0.169194
v -0.281250 0.812500 0.125000
v -0.325444 0.875000 0.169194
v -0.281250 0.875000 0.213388
v -0.325444 0.812500 0.169194
v -0.281250 0.812500 0.213388
vn -0.7071 -0.0000 -0.7071
vn 0.7071 -0.0000 -0.7071
vn 0.7071 -0.0000 0.7071
vn -0.7071 -0.0000 0.7071
vn -0.0000 1.0000 -0.0000
vn -0.0000 -1.0000 -0.0000
vn -0.0000 -0.0000 -1.0000
vn 1.0000 -0.0000 -0.0000
vn -0.0000 -0.0000 1.0000
vn -1.0000 -0.0000 -0.0000
vn -0.0000 0.2079 -0.9781
vn -0.0000 -0.2079 0.9781
vn -0.0000 0.9781 0.2079
vn -0.0000 -0.9782 -0.2079
vn -0.0000 -0.9781 -0.2079
vn 0.0217 0.2068 -0.9781
vn 0.9579 0.2757 0.0796
vn -0.0217 -0.2068 0.9781
vn -0.9579 -0.2757 -0.0796
vn -0.2861 0.9387 0.1921
vn 0.2861 -0.9387 -0.1921
vn -0.2549 0.9449 -0.2054
vn 0.2549 -0.9449 0.2054
vn -0.1318 0.1765 0.9754
vn 0.1318 -0.1765 -0.9754
vn 0.2885 -0.9357 -0.2033
vn 0.9575 0.2813 0.0641
vn -0.2885 0.9357 0.2033
vn -0.9575 -0.2813 -0.0641
vn 0.0028 0.2131 -0.9770
vn -0.0028 -0.2131 0.9770
vn 0.0870 -0.0698 -0.9938
vn -0.0870 0.0698 0.9938
vn -0.2751 0.9571 -0.0913
vn 0.2751 -0.9571 0.0913
vn -0.0217 0.2068 -0.9781
vn 0.9579 -0.2757 -0.0796
vn 0.0217 -0.2068 0.9781
vn -0.9579 0.2757 0.0796
vn 0.2861 0.9387 0.1921
vn -0.2861 -0.9387 -0.1921
vn 0.2549 0.9449 -0.2054
vn -0.2549 -0.9449 0.2054
vn 0.1318 0.1765 0.9754
vn -0.1318 -0.1765 -0.9754
vn -0.2885 -0.9357 -0.2033
vn 0.9575 -0.2813 -0.0641
vn 0.2885 0.9357 0.2033
vn -0.9575 0.2813 0.0641
vn -0.0028 0.2131 -0.9770
vn 0.0028 -0.2131 0.9770
vn -0.0870 -0.0698 -0.9938
vn 0.0870 0.0698 0.9938
vn 0.2751 0.9571 -0.0913
vn -0.2751 -0.9571 0.0913
vn 0.0862 -0.8181 -0.5685
vn 0.9901 0.0070 0.1401
vn -0.0862 0.8181 0.5685
vn -0.0862 0.8182 0.5685
vn -0.9901 -0.0070 -0.1401
vn 0.1106 0.5750 -0.8107
vn -0.1106 -0.5750 0.8107
vn -0.0862 -0.8182 -0.5685
vn -0.0862 -0.8181 -0.5685
vn 0.9901 -0.0070 -0.1401
vn 0.0862 0.8181 0.5685
vn -0.9901 0.0070 0.1401
vn -0.1106 0.5750 -0.8107
vn 0.1106 -0.5750 0.8107
vn -0.0000 0.1392 -0.9903
vn -0.0000 -0.1392 0.9903
vn -0.0000 0.9903 0.1392
vn -0.0000 -0.9903 -0.1392
vn -0.0000 0.0262 0.9997
vn -0.0000 -0.0262 -0.9997
vn -0.0000 0.9997 -0.0262
vn -0.0000 -0.9997 0.0262
vn -0.0000 0.1045 -0.9945
vn -0.0000 -0.1045 0.9945
vn -0.0000 0.9945 0.1045
vn -0.0000 -0.9945 -0.1045
vn -0.0000 0.0872 -0.9962
vn -0.0000 -0.0872 0.9962
vn -0.0000 0.9962 0.0871
vn -0.0000 -0.9962 -0.0871
vn 0.9239 0.3790 0.0533
vn -0.9239 -0.3790 -0.0533
vn -0.3827 0.9149 0.1286
vn 0.3827 -0.9149 -0.1286
vn 0.7071 0.7002 0.0984
vn -0.7071 -0.7002 -0.0984
vn -0.7071 0.7002 0.0984
vn 0.7071 -0.7002 -0.0984
vn 0.7071 -0.7044 -0.0617
vn 0.7071 -0.7044 -0.0616
vn -0.7071 0.7044 0.0617
vn 0.7071 0.7044 0.0615
vn 0.7071 0.7044 0.0617
vn -0.7071 -0.7044 -0.0617
vn 0.3827 0.9149 0.1286
vn -0.3827 -0.9149 -0.1286
vn -0.9239 0.3790 0.0533
vn 0.9239 -0.3789 -0.0533
vn -0.9239 -0.3789 -0.0533
vn -0.7071 -0.7044 -0.0616
vn -0.7071 0.7044 0.0615
vn 0.9239 -0.3790 -0.0533
vn -0.0000 0.0958 -0.9954
vn -0.0000 -0.0958 0.9954
vn -0.0000 0.9954 0.0958
vn -0.0000 -0.9954 -0.0959
vn 0.0862 -0.8182 -0.5685
vn 0.0862 0.8182 0.5685
vt 0.640625 0.359375
vt 0.625000 0.375000
vt 0.625000 0.359375
vt 0.656250 0.984375
vt 0.640625 1.000000
vt 0.640625 0.984375
vt 0.656250 0.968750
vt 0.640625 0.968750
vt 0.062500 0.343750
vt 0.046875 0.359375
vt 0.046875 0.343750
vt 0.640625 0.953125
vt 0.656250 0.937500
vt 0.656250 0.953125
vt 0.078125 0.343750
vt 0.062500 0.359375
vt 0.078125 0.359375
vt 0.125000 0.703125
vt 0.000000 0.828125
vt 0.000000 0.703125
vt 0.390625 0.875000
vt 0.359375 1.000000
vt 0.359375 0.875000
vt 0.250000 0.703125
vt 0.125000 0.828125
vt 0.390625 0.750000
vt 0.359375 0.750000
vt 0.187500 0.640625
vt 0.312500 0.609375
vt 0.312500 0.640625
vt 0.359375 0.718750
vt 0.484375 0.750000
vt 0.484375 0.718750
vt 0.265625 0.651367
vt 0.187500 0.703125
vt 0.187500 0.651367
vt 0.156250 0.385742
vt 0.140625 0.437500
vt 0.140625 0.385742
vt 0.343750 0.651367
vt 0.265625 0.703125
vt 0.562500 0.620117
vt 0.578125 0.671875
vt 0.562500 0.671875
vt 0.000000 0.468750
vt 0.078125 0.453125
vt 0.078125 0.468750
vt 0.531250 0.921875
vt 0.609375 0.937500
vt 0.609375 0.921875
vt 0.000000 0.593750
vt 0.043945 0.703125
vt 0.173828 0.421875
vt 0.156250 0.531250
vt 0.156250 0.421875
vt 0.090820 0.593750
vt 0.046875 0.703125
vt 0.046875 0.593750
vt 0.314453 0.421875
vt 0.296875 0.531250
vt 0.296875 0.421875
vt 0.546875 0.593750
vt 0.590820 0.576172
vt 0.590820 0.593750
vt 0.375000 0.419922
vt 0.418945 0.437500
vt 0.418945 0.419922
vt 0.281250 0.828125
vt 0.323242 0.875000
vt 0.281250 0.875000
vt 0.578125 0.453125
vt 0.562500 0.500000
vt 0.562500 0.453125
vt 0.495117 0.953125
vt 0.453125 1.000000
vt 0.453125 0.953125
vt 0.562500 0.406250
vt 0.453125 0.859375
vt 0.495117 0.843750
vt 0.495117 0.859375
vt 0.531250 0.875000
vt 0.573242 0.890625
vt 0.573242 0.875000
vt 0.573242 0.895508
vt 0.531250 0.895508
vt 0.328125 0.614258
vt 0.312500 0.614258
vt 0.573242 0.754883
vt 0.531250 0.781250
vt 0.531250 0.754883
vt 0.343750 0.536133
vt 0.328125 0.562500
vt 0.328125 0.536133
vt 0.604492 0.609375
vt 0.562500 0.593750
vt 0.604492 0.593750
vt 0.620117 0.937500
vt 0.578125 0.953125
vt 0.620117 0.953125
vt 0.234375 0.533203
vt 0.276367 0.609375
vt 0.234375 0.609375
vt 0.078125 0.392578
vt 0.093750 0.468750
vt 0.323242 0.533203
vt 0.281250 0.609375
vt 0.281250 0.533203
vt 0.531250 0.642578
vt 0.546875 0.718750
vt 0.531250 0.718750
vt 0.620117 0.656250
vt 0.620117 0.671875
vt 0.578125 0.640625
vt 0.620117 0.640625
vt 0.039062 0.468750
vt 0.000000 0.515625
vt 0.234375 0.390625
vt 0.251953 0.437500
vt 0.234375 0.437500
vt 0.085938 0.468750
vt 0.046875 0.515625
vt 0.046875 0.468750
vt 0.580078 0.671875
vt 0.562500 0.718750
vt 0.578125 0.843750
vt 0.617188 0.826172
vt 0.617188 0.843750
vt 0.617188 0.794922
vt 0.578125 0.812500
vt 0.617188 0.812500
vt 0.137695 0.593750
vt 0.093750 0.703125
vt 0.093750 0.593750
vt 0.328125 0.421875
vt 0.345703 0.531250
vt 0.328125 0.531250
vt 0.184570 0.593750
vt 0.140625 0.703125
vt 0.140625 0.593750
vt 0.486328 0.453125
vt 0.468750 0.562500
vt 0.468750 0.453125
vt 0.606445 0.531250
vt 0.562500 0.513672
vt 0.606445 0.513672
vt 0.500000 0.419922
vt 0.543945 0.437500
vt 0.543945 0.419922
vt 0.536133 0.490234
vt 0.500000 0.531250
vt 0.500000 0.490234
vt 0.015625 0.380859
vt 0.033203 0.421875
vt 0.015625 0.421875
vt 0.500000 0.443359
vt 0.536133 0.484375
vt 0.500000 0.484375
vt 0.595703 0.880859
vt 0.578125 0.921875
vt 0.578125 0.880859
vt 0.578125 0.437500
vt 0.614258 0.419922
vt 0.614258 0.437500
vt 0.593750 0.982422
vt 0.629883 1.000000
vt 0.629883 0.982422
vt 0.495117 0.906250
vt 0.453125 0.906250
vt 0.015625 0.375000
vt 0.000000 0.421875
vt 0.000000 0.375000
vt 0.593750 0.953125
vt 0.578125 1.000000
vt 0.578125 0.625000
vt 0.620117 0.625000
vt 0.578125 0.609375
vt 0.620117 0.609375
vt 0.416992 0.442383
vt 0.375000 0.468750
vt 0.375000 0.442383
vt 0.359375 0.504883
vt 0.375000 0.531250
vt 0.359375 0.531250
vt 0.000000 0.426758
vt 0.041992 0.453125
vt 0.000000 0.453125
vt 0.546875 0.379883
vt 0.531250 0.406250
vt 0.531250 0.379883
vt 0.578125 0.500000
vt 0.620117 0.484375
vt 0.620117 0.500000
vt 0.578125 0.468750
vt 0.620117 0.468750
vt 0.000000 0.517578
vt 0.041992 0.593750
vt 0.375000 0.392578
vt 0.359375 0.468750
vt 0.359375 0.392578
vt 0.046875 0.517578
vt 0.088867 0.593750
vt 0.546875 0.564453
vt 0.531250 0.640625
vt 0.531250 0.564453
vt 0.620117 0.453125
vt 0.620117 0.437500
vt 0.132812 0.828125
vt 0.000000 1.000000
vt 0.351562 0.703125
vt 0.328125 0.875000
vt 0.328125 0.703125
vt 0.273438 0.828125
vt 0.140625 1.000000
vt 0.140625 0.828125
vt 0.367188 0.531250
vt 0.343750 0.703125
vt 0.343750 0.531250
vt 0.437500 0.843750
vt 0.570312 0.820312
vt 0.570312 0.843750
vt 0.437500 0.789062
vt 0.570312 0.812500
vt 0.570312 0.789062
vt 0.437500 0.406250
vt 0.421875 0.468750
vt 0.421875 0.406250
vt 0.328125 0.765625
vt 0.250000 0.828125
vt 0.250000 0.765625
vt 0.453125 0.406250
vt 0.437500 0.468750
vt 0.328125 0.640625
vt 0.343750 0.562500
vt 0.343750 0.640625
vt 0.265625 0.421875
vt 0.281250 0.500000
vt 0.281250 0.421875
vt 0.562500 0.937500
vt 0.546875 1.000000
vt 0.546875 0.937500
vt 0.525391 0.875000
vt 0.500000 0.937500
vt 0.500000 0.875000
vt 0.062500 0.390625
vt 0.046875 0.453125
vt 0.046875 0.390625
vt 0.119141 0.437500
vt 0.093750 0.500000
vt 0.093750 0.437500
vt 0.046875 0.365234
vt 0.062500 0.365234
vt 0.078125 0.390625
vt 0.078125 0.365234
vt 0.062500 0.453125
vt 0.474609 0.625000
vt 0.437500 0.687500
vt 0.437500 0.625000
vt 0.203125 0.390625
vt 0.187500 0.453125
vt 0.187500 0.390625
vt 0.412109 0.500000
vt 0.375000 0.562500
vt 0.375000 0.500000
vt 0.593750 0.718750
vt 0.609375 0.681641
vt 0.609375 0.718750
vt 0.593750 0.556641
vt 0.609375 0.593750
vt 0.609375 0.556641
vt 0.497070 0.377930
vt 0.484375 0.453125
vt 0.484375 0.377930
vt 0.423828 0.643555
vt 0.375000 0.718750
vt 0.375000 0.643555
vt 0.559570 0.393555
vt 0.546875 0.468750
vt 0.546875 0.393555
vt 0.423828 0.565430
vt 0.375000 0.640625
vt 0.375000 0.565430
vt 0.453125 0.421875
vt 0.465820 0.373047
vt 0.465820 0.421875
vt 0.387695 0.357422
vt 0.375000 0.406250
vt 0.387695 0.406250
vt 0.106445 0.362305
vt 0.093750 0.362305
vt 0.439453 0.924805
vt 0.390625 1.000000
vt 0.390625 0.924805
vt 0.109375 0.362305
vt 0.122070 0.437500
vt 0.109375 0.437500
vt 0.439453 0.846680
vt 0.390625 0.921875
vt 0.390625 0.846680
vt 0.390625 0.406250
vt 0.403320 0.357422
vt 0.403320 0.406250
vt 0.406250 0.357422
vt 0.418945 0.406250
vt 0.418945 0.357422
vt 0.218750 0.390625
vt 0.203125 0.453125
vt 0.359375 0.937500
vt 0.281250 1.000000
vt 0.281250 0.937500
vt 0.218750 0.453125
vt 0.296875 0.500000
vt 0.468750 0.500000
vt 0.468750 0.421875
vt 0.562500 0.656250
vt 0.546875 0.656250
vt 0.474609 0.562500
vt 0.437500 0.562500
vt 0.458984 0.500000
vt 0.421875 0.562500
vt 0.421875 0.500000
vt 0.437500 0.369141
vt 0.453125 0.369141
vt 0.484375 0.390625
vt 0.468750 0.390625
vt 0.150391 0.437500
vt 0.125000 0.500000
vt 0.125000 0.437500
vt 0.562500 0.468750
vt 0.546875 0.531250
vt 0.259766 0.437500
vt 0.234375 0.500000
vt 0.625000 0.912109
vt 0.625000 0.937500
vt 0.093750 0.390625
vt 0.093750 0.365234
vt 0.179688 0.562500
vt 0.093750 0.562500
vt 0.611328 0.843750
vt 0.593750 0.875000
vt 0.593750 0.843750
vt 0.179688 0.531250
vt 0.093750 0.531250
vt 0.517578 0.375000
vt 0.500000 0.406250
vt 0.500000 0.375000
vt 0.570312 0.732422
vt 0.570312 0.750000
vt 0.500000 0.857422
vt 0.585938 0.875000
vt 0.585938 0.857422
vt 0.156250 0.500000
vt 0.646484 0.906250
vt 0.640625 0.937500
vt 0.640625 0.906250
vt 0.234375 0.531250
vt 0.083984 0.328125
vt 0.078125 0.328125
vt 0.593750 0.968750
vt 0.656250 0.962891
vt 0.593750 0.541016
vt 0.656250 0.546875
vt 0.656250 0.541016
vt 0.578125 0.939453
vt 0.562500 1.000000
vt 0.562500 0.939453
vt 0.166992 0.361328
vt 0.156250 0.361328
vt 0.140625 0.376953
vt 0.125000 0.376953
vt 0.171875 0.361328
vt 0.182617 0.421875
vt 0.171875 0.421875
vt 0.093750 0.359375
vt 0.109375 0.348633
vt 0.109375 0.359375
vt 0.640625 0.895508
vt 0.656250 0.906250
vt 0.656250 0.895508
vt 0.523438 0.750000
vt 0.437500 0.781250
vt 0.437500 0.750000
vt 0.580078 0.375000
vt 0.562500 0.375000
vt 0.523438 0.687500
vt 0.437500 0.718750
vt 0.611328 0.375000
vt 0.593750 0.406250
vt 0.593750 0.375000
vt 0.359375 0.500000
vt 0.445312 0.482422
vt 0.445312 0.500000
vt 0.500000 0.544922
vt 0.585938 0.562500
vt 0.585938 0.544922
vt 0.182617 0.361328
vt 0.478516 0.359375
vt 0.468750 0.359375
vt 0.620117 0.875000
vt 0.609375 0.906250
vt 0.609375 0.875000
vt 0.619141 0.500000
vt 0.609375 0.531250
vt 0.609375 0.500000
vt 0.187500 0.359375
vt 0.198242 0.390625
vt 0.640625 0.812500
vt 0.650391 0.801758
vt 0.650391 0.812500
vt 0.640625 0.786133
vt 0.650391 0.796875
vt 0.650391 0.786133
vt 0.220703 0.463867
vt 0.187500 0.515625
vt 0.187500 0.463867
vt 0.112305 0.307617
vt 0.109375 0.307617
vt 0.517578 0.635742
vt 0.484375 0.687500
vt 0.484375 0.635742
vt 0.640625 0.838867
vt 0.643555 0.890625
vt 0.640625 0.890625
vt 0.640625 0.671875
vt 0.673828 0.668945
vt 0.673828 0.671875
vt 0.640625 0.653320
vt 0.673828 0.656250
vt 0.673828 0.653320
vt 0.556641 0.359375
vt 0.546875 0.390625
vt 0.546875 0.359375
vt 0.203125 0.359375
vt 0.213867 0.390625
vt 0.009766 0.343750
vt 0.000000 0.343750
vt 0.218750 0.359375
vt 0.229492 0.390625
vt 0.640625 0.781250
vt 0.650391 0.770508
vt 0.650391 0.781250
vt 0.244141 0.348633
vt 0.234375 0.359375
vt 0.244141 0.359375
vt 0.015625 0.343750
vt 0.025391 0.375000
vt 0.245117 0.359375
vt 0.041016 0.343750
vt 0.031250 0.375000
vt 0.031250 0.343750
vt 0.250000 0.359375
vt 0.260742 0.390625
vt 0.250000 0.390625
vt 0.640625 0.765625
vt 0.650391 0.754883
vt 0.650391 0.765625
vt 0.259766 0.348633
vt 0.259766 0.359375
vt 0.614258 0.762695
vt 0.578125 0.781250
vt 0.578125 0.762695
vt 0.343750 0.340820
vt 0.345703 0.359375
vt 0.343750 0.359375
vt 0.614258 0.731445
vt 0.578125 0.750000
vt 0.578125 0.731445
vt 0.359375 0.340820
vt 0.361328 0.359375
vt 0.359375 0.359375
vt 0.640625 0.609375
vt 0.676758 0.607422
vt 0.676758 0.609375
vt 0.676758 0.591797
vt 0.640625 0.593750
vt 0.676758 0.593750
vt 0.625000 0.921875
vt 0.634766 0.953125
vt 0.625000 0.953125
vt 0.276367 0.359375
vt 0.265625 0.390625
vt 0.265625 0.359375
vt 0.634766 0.890625
vt 0.625000 0.890625
vt 0.281250 0.359375
vt 0.291992 0.390625
vt 0.281250 0.390625
vt 0.640625 0.750000
vt 0.650391 0.739258
vt 0.650391 0.750000
vt 0.265625 0.348633
vt 0.275391 0.359375
vt 0.275391 0.348633
vt 0.431641 0.757812
vt 0.390625 0.843750
vt 0.390625 0.757812
vt 0.627930 0.617188
vt 0.625000 0.703125
vt 0.625000 0.617188
vt 0.228516 0.523438
vt 0.187500 0.609375
vt 0.187500 0.523438
vt 0.627930 0.445312
vt 0.625000 0.531250
vt 0.625000 0.445312
vt 0.640625 0.828125
vt 0.681641 0.825195
vt 0.681641 0.828125
vt 0.187500 0.356445
vt 0.228516 0.359375
vt 0.228516 0.356445
vt 0.634766 0.859375
vt 0.625000 0.859375
vt 0.620117 0.687500
vt 0.609375 0.687500
vt 0.134766 0.343750
vt 0.125000 0.375000
vt 0.125000 0.343750
vt 0.296875 0.359375
vt 0.307617 0.390625
vt 0.296875 0.390625
vt 0.650391 0.734375
vt 0.640625 0.723633
vt 0.650391 0.723633
vt 0.281250 0.348633
vt 0.291016 0.359375
vt 0.291016 0.348633
vt 0.150391 0.343750
vt 0.140625 0.375000
vt 0.140625 0.343750
vt 0.323242 0.359375
vt 0.312500 0.390625
vt 0.312500 0.359375
vt 0.634766 0.828125
vt 0.625000 0.828125
vt 0.328125 0.359375
vt 0.338867 0.390625
vt 0.328125 0.390625
vt 0.650391 0.718750
vt 0.640625 0.708008
vt 0.650391 0.708008
vt 0.296875 0.348633
vt 0.306641 0.359375
vt 0.306641 0.348633
vt 0.265625 0.403320
vt 0.301758 0.421875
vt 0.470703 0.340820
vt 0.468750 0.340820
vt 0.348633 0.403320
vt 0.312500 0.421875
vt 0.312500 0.403320
vt 0.642578 0.512695
vt 0.640625 0.531250
vt 0.640625 0.512695
vt 0.458008 0.359375
vt 0.421875 0.357422
vt 0.458008 0.357422
vt 0.676758 0.576172
vt 0.640625 0.578125
vt 0.676758 0.578125
vt 0.625000 0.796875
vt 0.354492 0.359375
vt 0.343750 0.390625
vt 0.625000 0.765625
vt 0.634766 0.796875
vt 0.370117 0.359375
vt 0.359375 0.390625
vt 0.640625 0.703125
vt 0.650391 0.692383
vt 0.650391 0.703125
vt 0.312500 0.348633
vt 0.322266 0.359375
vt 0.322266 0.348633
vt 0.517578 0.573242
vt 0.484375 0.625000
vt 0.484375 0.573242
vt 0.159180 0.307617
vt 0.156250 0.359375
vt 0.156250 0.307617
vt 0.533203 0.948242
vt 0.500000 1.000000
vt 0.500000 0.948242
vt 0.171875 0.307617
vt 0.174805 0.359375
vt 0.171875 0.359375
vt 0.640625 0.640625
vt 0.673828 0.637695
vt 0.673828 0.640625
vt 0.640625 0.622070
vt 0.673828 0.625000
vt 0.673828 0.622070
vt 0.634766 0.734375
vt 0.625000 0.734375
vt 0.609375 0.578125
vt 0.609375 0.609375
vt 0.634766 0.703125
vt 0.620117 0.546875
vt 0.609375 0.546875
vt 0.640625 0.687500
vt 0.650391 0.676758
vt 0.650391 0.687500
vt 0.328125 0.348633
vt 0.337891 0.359375
vt 0.337891 0.348633
vt 0.375000 0.703125
vt 0.359375 0.703125
vt 0.625000 0.671875
vt 0.609375 0.671875
vt 0.625000 0.609375
vt 0.625000 0.593750
vt 0.625000 0.578125
vt 0.625000 0.562500
vt 0.640625 0.562500
vt 0.625000 0.546875
vt 0.640625 0.546875
vt 0.500000 0.359375
vt 0.484375 0.375000
vt 0.484375 0.359375
vt 0.515625 0.359375
vt 0.531250 0.359375
vt 0.515625 0.375000
vt 0.531250 0.375000
vt 0.578125 0.375000
vt 0.562500 0.359375
vt 0.578125 0.359375
vt 0.625000 0.421875
vt 0.640625 0.437500
vt 0.640625 0.421875
vt 0.593750 0.359375
vt 0.640625 0.406250
vt 0.625000 0.406250
vt 0.609375 0.359375
vt 0.640625 0.390625
vt 0.625000 0.390625
vt 0.609375 0.375000
vt 0.640625 0.375000
vt 0.656250 1.000000
vt 0.156250 0.437500
vt 0.578125 0.620117
vt 0.531250 0.937500
vt 0.043945 0.593750
vt 0.173828 0.531250
vt 0.090820 0.703125
vt 0.314453 0.531250
vt 0.546875 0.576172
vt 0.375000 0.437500
vt 0.323242 0.828125
vt 0.495117 1.000000
vt 0.578125 0.406250
vt 0.453125 0.843750
vt 0.531250 0.890625
vt 0.573242 0.921875
vt 0.573242 0.781250
vt 0.562500 0.609375
vt 0.578125 0.937500
vt 0.276367 0.533203
vt 0.093750 0.392578
vt 0.323242 0.609375
vt 0.546875 0.642578
vt 0.578125 0.656250
vt 0.039062 0.515625
vt 0.251953 0.390625
vt 0.085938 0.515625
vt 0.580078 0.718750
vt 0.578125 0.826172
vt 0.578125 0.794922
vt 0.137695 0.703125
vt 0.345703 0.421875
vt 0.184570 0.703125
vt 0.486328 0.562500
vt 0.562500 0.531250
vt 0.500000 0.437500
vt 0.536133 0.531250
vt 0.033203 0.380859
vt 0.536133 0.443359
vt 0.595703 0.921875
vt 0.578125 0.419922
vt 0.593750 1.000000
vt 0.416992 0.468750
vt 0.375000 0.504883
vt 0.041992 0.426758
vt 0.546875 0.406250
vt 0.578125 0.484375
vt 0.041992 0.517578
vt 0.088867 0.517578
vt 0.546875 0.640625
vt 0.132812 1.000000
vt 0.351562 0.875000
vt 0.273438 1.000000
vt 0.367188 0.703125
vt 0.437500 0.820312
vt 0.437500 0.812500
vt 0.328125 0.828125
vt 0.453125 0.468750
vt 0.265625 0.500000
vt 0.525391 0.937500
vt 0.119141 0.500000
vt 0.474609 0.687500
vt 0.412109 0.562500
vt 0.593750 0.681641
vt 0.593750 0.593750
vt 0.497070 0.453125
vt 0.423828 0.718750
vt 0.559570 0.468750
vt 0.423828 0.640625
vt 0.453125 0.373047
vt 0.375000 0.357422
vt 0.106445 0.437500
vt 0.439453 1.000000
vt 0.122070 0.362305
vt 0.439453 0.921875
vt 0.390625 0.357422
vt 0.406250 0.406250
vt 0.234375 0.453125
vt 0.453125 0.500000
vt 0.458984 0.562500
vt 0.421875 0.369141
vt 0.150391 0.500000
vt 0.259766 0.500000
vt 0.609375 0.912109
vt 0.179688 0.593750
vt 0.611328 0.875000
vt 0.517578 0.406250
vt 0.484375 0.732422
vt 0.646484 0.937500
vt 0.083984 0.359375
vt 0.593750 0.962891
vt 0.593750 0.546875
vt 0.166992 0.421875
vt 0.093750 0.348633
vt 0.523438 0.781250
vt 0.580078 0.406250
vt 0.523438 0.718750
vt 0.611328 0.406250
vt 0.359375 0.482422
vt 0.500000 0.562500
vt 0.478516 0.390625
vt 0.620117 0.906250
vt 0.619141 0.531250
vt 0.198242 0.359375
vt 0.640625 0.801758
vt 0.640625 0.796875
vt 0.220703 0.515625
vt 0.112305 0.359375
vt 0.517578 0.687500
vt 0.643555 0.838867
vt 0.640625 0.668945
vt 0.640625 0.656250
vt 0.556641 0.390625
vt 0.213867 0.359375
vt 0.009766 0.375000
vt 0.229492 0.359375
vt 0.640625 0.770508
vt 0.234375 0.348633
vt 0.025391 0.343750
vt 0.245117 0.390625
vt 0.041016 0.375000
vt 0.260742 0.359375
vt 0.640625 0.754883
vt 0.250000 0.348633
vt 0.614258 0.781250
vt 0.345703 0.340820
vt 0.614258 0.750000
vt 0.361328 0.340820
vt 0.640625 0.607422
vt 0.640625 0.591797
vt 0.634766 0.921875
vt 0.276367 0.390625
vt 0.291992 0.359375
vt 0.640625 0.739258
vt 0.431641 0.843750
vt 0.627930 0.703125
vt 0.228516 0.609375
vt 0.627930 0.531250
vt 0.640625 0.825195
vt 0.620117 0.718750
vt 0.134766 0.375000
vt 0.307617 0.359375
vt 0.640625 0.734375
vt 0.150391 0.375000
vt 0.323242 0.390625
vt 0.338867 0.359375
vt 0.640625 0.718750
vt 0.301758 0.403320
vt 0.470703 0.359375
vt 0.348633 0.421875
vt 0.642578 0.531250
vt 0.421875 0.359375
vt 0.640625 0.576172
vt 0.354492 0.390625
vt 0.634766 0.765625
vt 0.370117 0.390625
vt 0.640625 0.692383
vt 0.517578 0.625000
vt 0.159180 0.359375
vt 0.533203 1.000000
vt 0.174805 0.307617
vt 0.640625 0.637695
vt 0.640625 0.625000
vt 0.620117 0.578125
vt 0.640625 0.676758
vt 0.625000 0.687500
vt 0.546875 0.375000
vt 0.625000 0.437500
s 1
usemtl m_77ef7aab-14b0-84ec-bd9b-908e8c4f6151
f 7/1/1 2/2/1 4/3/1
f 4/4/2 1/5/2 3/6/2
f 3/7/3 6/6/3 8/8/3
f 8/9/4 5/10/4 7/11/4
f 1/12/5 5/13/5 6/14/5
f 7/15/6 3/16/6 8/17/6
f 15/18/7 10/19/7 12/20/7
f 12/21/8 9/22/8 11/23/8
f 11/24/9 14/25/9 16/18/9
f 16/26/10 13/23/10 15/27/10
f 9/28/5 13/29/5 14/30/5
f 12/31/6 16/32/6 15/33/6
f 23/34/11 18/35/11 20/36/11
f 20/37/8 17/38/8 19/39/8
f 19/40/12 22/41/12 24/34/12
f 23/42/10 22/43/10 21/44/10
f 17/45/13 21/46/13 22/47/13
f 20/48/14 24/49/15 23/50/15
f 28/51/16 29/52/16 26/20/16
f 28/53/17 25/54/17 27/55/17
f 27/56/18 30/57/18 32/58/18
f 32/59/19 29/60/19 31/61/19
f 25/62/20 29/63/20 30/64/20
f 28/65/21 32/66/21 31/67/21
f 36/68/22 37/69/22 34/70/22
f 36/71/17 33/72/17 35/73/17
f 35/74/23 38/75/23 40/76/23
f 39/77/19 38/71/19 37/73/19
f 33/78/24 37/79/24 38/80/24
f 36/81/25 40/82/25 39/83/25
f 47/84/26 42/48/26 44/85/26
f 44/86/27 41/30/27 43/87/27
f 43/88/28 46/89/28 48/90/28
f 48/91/29 45/92/29 47/93/29
f 46/94/30 42/95/30 45/96/30
f 47/97/31 43/98/31 48/99/31
f 52/100/32 53/101/32 50/102/32
f 51/103/27 50/104/27 49/47/27
f 51/105/33 54/106/33 56/107/33
f 55/108/29 54/109/29 53/110/29
f 49/43/34 53/111/34 54/112/34
f 52/113/35 56/111/35 55/114/35
f 63/115/22 58/116/22 60/45/22
f 59/117/17 58/118/17 57/119/17
f 59/120/23 62/121/23 64/122/23
f 64/123/19 61/124/19 63/44/19
f 57/125/24 61/126/24 62/127/24
f 63/128/25 59/129/25 64/130/25
f 71/131/36 66/132/36 68/133/36
f 67/134/37 66/135/37 65/136/37
f 67/137/38 70/138/38 72/139/38
f 72/140/39 69/141/39 71/142/39
f 70/143/40 66/144/40 69/145/40
f 68/146/41 72/147/41 71/148/41
f 79/149/42 74/150/42 76/151/42
f 75/152/37 74/153/37 73/154/37
f 80/155/43 73/156/43 78/157/43
f 80/158/39 77/159/39 79/160/39
f 73/161/44 77/162/44 78/163/44
f 76/164/45 80/165/45 79/166/45
f 87/167/42 82/76/42 84/168/42
f 84/169/37 81/170/37 83/171/37
f 83/80/43 86/168/43 88/78/43
f 88/172/39 85/173/39 87/98/39
f 86/114/44 82/174/44 85/175/44
f 84/176/45 88/175/45 87/177/45
f 95/178/46 90/179/46 92/180/46
f 91/181/47 90/182/47 89/183/47
f 96/184/48 89/185/48 94/186/48
f 96/187/49 93/188/49 95/189/49
f 89/190/50 93/191/50 94/192/50
f 92/193/51 96/191/51 95/194/51
f 100/195/52 101/196/52 98/51/52
f 100/197/47 97/198/47 99/199/47
f 104/200/53 97/201/53 102/58/53
f 104/202/49 101/203/49 103/204/49
f 102/194/54 98/71/54 101/205/54
f 103/206/55 99/71/55 104/205/55
f 111/207/7 106/208/7 108/19/7
f 108/209/8 105/210/8 107/211/8
f 107/212/9 110/213/9 112/214/9
f 112/215/10 109/216/10 111/217/10
f 105/218/5 109/219/5 110/220/5
f 108/221/6 112/222/6 111/223/6
f 119/224/7 114/225/7 116/226/7
f 116/227/8 113/228/8 115/229/8
f 115/230/9 118/231/9 120/224/9
f 120/211/10 117/229/10 119/24/10
f 113/232/5 117/233/5 118/234/5
f 116/235/6 120/236/6 119/237/6
f 127/238/2 122/239/2 124/240/2
f 124/241/3 121/242/3 123/243/3
f 123/244/4 126/245/4 128/246/4
f 128/247/1 125/248/1 127/249/1
f 126/244/5 122/250/5 125/251/5
f 124/251/6 128/252/6 127/253/6
f 135/252/8 130/254/8 132/244/8
f 132/255/9 129/256/9 131/257/9
f 131/258/10 134/259/10 136/260/10
f 136/261/7 133/262/7 135/263/7
f 129/264/5 133/265/5 134/266/5
f 132/267/6 136/268/6 135/269/6
f 143/270/56 138/271/56 140/272/56
f 140/273/57 137/274/57 139/275/57
f 139/276/58 142/277/58 144/278/59
f 144/279/60 141/280/60 143/281/60
f 137/282/61 141/283/61 142/284/61
f 143/285/62 139/286/62 144/287/62
f 151/288/63 146/249/64 148/289/63
f 148/290/65 145/291/65 147/292/65
f 152/293/66 145/294/66 150/295/66
f 152/296/67 149/297/67 151/298/67
f 145/299/68 149/300/68 150/301/68
f 148/302/69 152/303/69 151/304/69
f 159/305/7 154/306/7 156/258/7
f 156/307/8 153/308/8 155/309/8
f 155/117/9 158/310/9 160/305/9
f 160/23/10 157/309/10 159/70/10
f 153/236/5 157/61/5 158/311/5
f 156/282/6 160/312/6 159/313/6
f 167/314/10 162/109/10 164/315/10
f 164/316/7 161/257/7 163/317/7
f 163/95/8 166/315/8 168/62/8
f 168/318/9 165/319/9 167/320/9
f 161/226/5 165/321/5 166/224/5
f 164/321/6 168/230/6 167/322/6
f 175/323/1 170/142/1 172/324/1
f 172/325/2 169/326/2 171/327/2
f 171/328/3 174/329/3 176/277/3
f 176/330/4 173/331/4 175/119/4
f 169/49/5 173/332/5 174/333/5
f 172/253/6 176/334/6 175/335/6
f 183/336/7 178/133/7 180/337/7
f 180/338/8 177/339/8 179/340/8
f 179/341/9 182/337/9 184/342/9
f 184/343/10 181/344/10 183/345/10
f 177/32/5 181/346/5 182/347/5
f 180/348/6 184/349/6 183/350/6
f 191/351/7 186/342/7 188/248/7
f 188/352/8 185/353/8 187/354/8
f 187/311/9 190/355/9 192/331/9
f 192/356/10 189/17/10 191/357/10
f 185/358/5 189/359/5 190/7/5
f 188/360/6 192/361/6 191/362/6
f 199/363/70 194/364/70 196/365/70
f 196/366/8 193/55/8 195/367/8
f 195/368/71 198/327/71 200/369/71
f 199/370/10 198/371/10 197/372/10
f 193/373/72 197/374/72 198/375/72
f 196/376/73 200/377/73 199/378/73
f 207/379/7 202/380/7 204/381/7
f 204/382/8 201/77/8 203/383/8
f 203/384/9 206/385/9 208/256/9
f 208/386/10 205/387/10 207/388/10
f 201/389/5 205/390/5 206/391/5
f 204/392/6 208/393/6 207/394/6
f 215/363/74 210/364/74 212/365/74
f 212/366/10 209/55/10 211/367/10
f 211/368/75 214/327/75 216/369/75
f 216/395/8 213/372/8 215/370/8
f 209/373/76 213/374/76 214/375/76
f 212/376/77 216/377/77 215/378/77
f 223/396/78 218/324/78 220/397/78
f 220/398/8 217/399/8 219/400/8
f 219/401/79 222/402/79 224/403/79
f 223/404/10 222/405/10 221/260/10
f 217/406/80 221/407/80 222/408/80
f 220/409/81 224/410/81 223/411/81
f 231/412/82 226/413/82 228/414/82
f 228/415/8 225/375/8 227/416/8
f 227/417/83 230/418/83 232/419/83
f 231/420/10 230/421/10 229/422/10
f 225/423/84 229/424/84 230/425/84
f 228/426/85 232/427/85 231/428/85
f 239/429/70 234/430/70 236/431/70
f 235/432/86 234/433/86 233/258/86
f 235/434/71 238/171/71 240/435/71
f 239/436/87 238/437/87 237/305/87
f 233/438/88 237/439/88 238/440/88
f 239/441/89 235/442/89 240/443/89
f 244/444/70 245/445/70 242/169/70
f 244/446/90 241/117/90 243/442/90
f 243/447/71 246/448/71 248/449/71
f 247/450/91 246/451/91 245/452/91
f 241/453/92 245/454/92 246/455/92
f 247/456/93 243/450/93 248/457/93
f 255/458/82 250/459/82 252/460/82
f 251/461/94 250/462/95 249/463/95
f 251/464/83 254/465/83 256/466/83
f 255/467/96 254/468/96 253/469/96
f 249/470/97 253/471/98 254/472/98
f 255/473/99 251/474/99 256/475/99
f 260/476/70 261/477/70 258/478/70
f 260/479/100 257/480/100 259/481/100
f 259/482/71 262/476/71 264/483/71
f 263/484/101 262/485/101 261/486/101
f 257/487/102 261/488/102 262/489/102
f 260/490/103 264/491/103 263/492/103
f 271/493/82 266/494/82 268/495/82
f 268/496/8 265/497/8 267/498/8
f 267/499/83 270/500/83 272/501/83
f 272/502/10 269/503/10 271/504/10
f 265/505/84 269/506/84 270/507/84
f 268/508/85 272/509/85 271/510/85
f 279/511/70 274/483/70 276/512/70
f 276/513/89 273/266/89 275/514/89
f 275/515/71 278/516/71 280/517/71
f 279/518/88 278/519/88 277/520/88
f 278/521/86 274/522/86 277/523/86
f 276/524/104 280/525/104 279/526/104
f 287/527/70 282/528/70 284/529/70
f 284/530/93 281/531/93 283/532/93
f 283/533/71 286/512/71 288/534/71
f 287/535/92 286/536/92 285/537/92
f 286/538/90 282/539/90 285/540/90
f 284/541/91 288/542/91 287/543/91
f 292/544/82 293/545/82 290/235/82
f 292/546/98 289/397/98 291/547/98
f 291/548/83 294/549/83 296/550/83
f 296/551/99 293/552/105 295/553/99
f 294/554/106 290/555/96 293/556/106
f 295/557/94 291/558/94 296/559/94
f 300/560/70 301/533/70 298/534/70
f 300/561/107 297/562/107 299/463/107
f 304/563/71 297/564/71 302/560/71
f 304/565/102 301/566/102 303/469/102
f 297/567/100 301/568/100 302/569/100
f 300/570/101 304/571/101 303/572/101
f 311/573/82 306/574/82 308/575/82
f 308/576/8 305/577/8 307/578/8
f 307/579/83 310/580/83 312/581/83
f 311/582/10 310/583/10 309/584/10
f 305/585/84 309/586/84 310/587/84
f 308/588/85 312/589/85 311/590/85
f 319/591/108 314/563/108 316/592/108
f 315/593/8 314/177/8 313/594/8
f 315/595/109 318/592/109 320/497/109
f 320/596/10 317/593/10 319/597/10
f 313/598/110 317/599/110 318/600/110
f 316/601/111 320/602/111 319/603/111
f 327/604/2 322/31/2 324/605/2
f 324/606/3 321/514/3 323/607/3
f 323/474/4 326/608/4 328/609/4
f 328/558/1 325/609/1 327/610/1
f 326/558/5 322/611/5 325/612/5
f 324/613/6 328/612/6 327/614/6
f 335/615/2 330/616/2 332/617/2
f 332/618/3 329/345/3 331/615/3
f 331/619/4 334/620/4 336/618/4
f 336/431/1 333/621/1 335/619/1
f 334/622/5 330/623/5 333/624/5
f 332/625/6 336/626/6 335/627/6
f 343/628/1 338/622/1 340/624/1
f 340/629/2 337/625/2 339/630/2
f 339/631/3 342/388/3 344/628/3
f 344/632/4 341/630/4 343/633/4
f 337/634/5 341/3/5 342/2/5
f 343/635/6 339/633/6 344/632/6
f 7/1/1 5/635/1 2/2/1
f 4/4/2 2/636/2 1/5/2
f 3/7/3 1/4/3 6/6/3
f 8/9/4 6/16/4 5/10/4
f 1/12/5 2/353/5 5/13/5
f 7/15/6 4/9/6 3/16/6
f 15/18/7 13/25/7 10/19/7
f 12/21/8 10/291/8 9/22/8
f 11/24/9 9/228/9 14/25/9
f 16/26/10 14/21/10 13/23/10
f 9/28/5 10/500/5 13/29/5
f 12/31/6 11/27/6 16/32/6
f 23/34/11 21/41/11 18/35/11
f 20/37/8 18/637/8 17/38/8
f 19/40/12 17/216/12 22/41/12
f 23/42/10 24/638/10 22/43/10
f 17/45/13 18/186/13 21/46/13
f 20/48/14 19/639/14 24/49/15
f 28/51/16 31/640/16 29/52/16
f 28/53/17 26/641/17 25/54/17
f 27/56/18 25/642/18 30/57/18
f 32/59/19 30/643/19 29/60/19
f 25/62/20 26/644/20 29/63/20
f 28/65/21 27/645/21 32/66/21
f 36/68/22 39/646/22 37/69/22
f 36/71/17 34/190/17 33/72/17
f 35/74/23 33/647/23 38/75/23
f 39/77/19 40/648/19 38/71/19
f 33/78/24 34/649/24 37/79/24
f 36/81/25 35/650/25 40/82/25
f 47/84/26 45/651/26 42/48/26
f 44/86/27 42/232/27 41/30/27
f 43/88/28 41/652/28 46/89/28
f 48/91/29 46/233/29 45/92/29
f 46/94/30 41/653/30 42/95/30
f 47/97/31 44/654/31 43/98/31
f 52/100/32 55/655/32 53/101/32
f 51/103/27 52/656/27 50/104/27
f 51/105/33 49/657/33 54/106/33
f 55/108/29 56/658/29 54/109/29
f 49/43/34 50/659/34 53/111/34
f 52/113/35 51/659/35 56/111/35
f 63/115/22 61/660/22 58/116/22
f 59/117/17 60/661/17 58/118/17
f 59/120/23 57/662/23 62/121/23
f 64/123/19 62/663/19 61/124/19
f 57/125/24 58/664/24 61/126/24
f 63/128/25 60/665/25 59/129/25
f 71/131/36 69/666/36 66/132/36
f 67/134/37 68/667/37 66/135/37
f 67/137/38 65/668/38 70/138/38
f 72/140/39 70/669/39 69/141/39
f 70/143/40 65/670/40 66/144/40
f 68/146/41 67/671/41 72/147/41
f 79/149/42 77/672/42 74/150/42
f 75/152/37 76/673/37 74/153/37
f 80/155/43 75/674/43 73/156/43
f 80/158/39 78/675/39 77/159/39
f 73/161/44 74/676/44 77/162/44
f 76/164/45 75/677/45 80/165/45
f 87/167/42 85/74/42 82/76/42
f 84/169/37 82/154/37 81/170/37
f 83/80/43 81/167/43 86/168/43
f 88/172/39 86/677/39 85/173/39
f 86/114/44 81/113/44 82/174/44
f 84/176/45 83/174/45 88/175/45
f 95/178/46 93/678/46 90/179/46
f 91/181/47 92/679/47 90/182/47
f 96/184/48 91/680/48 89/185/48
f 96/187/49 94/681/49 93/188/49
f 89/190/50 90/682/50 93/191/50
f 92/193/51 91/682/51 96/191/51
f 100/195/52 103/683/52 101/196/52
f 100/197/47 98/179/47 97/198/47
f 104/200/53 99/684/53 97/201/53
f 104/202/49 102/685/49 101/203/49
f 102/194/54 97/193/54 98/71/54
f 103/206/55 100/161/55 99/71/55
f 111/207/7 109/686/7 106/208/7
f 108/209/8 106/687/8 105/210/8
f 107/212/9 105/688/9 110/213/9
f 112/215/10 110/689/10 109/216/10
f 105/218/5 106/690/5 109/219/5
f 108/221/6 107/691/6 112/222/6
f 119/224/7 117/231/7 114/225/7
f 116/227/8 114/692/8 113/228/8
f 115/230/9 113/693/9 118/231/9
f 120/211/10 118/227/10 117/229/10
f 113/232/5 114/92/5 117/233/5
f 116/235/6 115/694/6 120/236/6
f 127/238/2 125/364/2 122/239/2
f 124/241/3 122/695/3 121/242/3
f 123/244/4 121/254/4 126/245/4
f 128/247/1 126/696/1 125/248/1
f 126/244/5 121/246/5 122/250/5
f 124/251/6 123/244/6 128/252/6
f 135/252/8 133/46/8 130/254/8
f 132/255/9 130/697/9 129/256/9
f 131/258/10 129/306/10 134/259/10
f 136/261/7 134/698/7 133/262/7
f 129/264/5 130/699/5 133/265/5
f 132/267/6 131/700/6 136/268/6
f 143/270/56 141/701/112 138/271/56
f 140/273/57 138/702/57 137/274/57
f 139/276/58 137/703/58 142/277/58
f 144/279/60 142/704/60 141/280/60
f 137/282/61 138/705/61 141/283/61
f 143/285/62 140/706/62 139/286/62
f 151/288/63 149/707/64 146/249/64
f 148/290/65 146/708/65 145/291/65
f 152/293/66 147/709/113 145/294/66
f 152/296/67 150/710/67 149/297/67
f 145/299/68 146/711/68 149/300/68
f 148/302/69 147/712/69 152/303/69
f 159/305/7 157/310/7 154/306/7
f 156/307/8 154/22/8 153/308/8
f 155/117/9 153/713/9 158/310/9
f 160/23/10 158/307/10 157/309/10
f 153/236/5 154/237/5 157/61/5
f 156/282/6 155/714/6 160/312/6
f 167/314/10 165/124/10 162/109/10
f 164/316/7 162/255/7 161/257/7
f 163/95/8 161/314/8 166/315/8
f 168/318/9 166/715/9 165/319/9
f 161/226/5 162/716/5 165/321/5
f 164/321/6 163/224/6 168/230/6
f 175/323/1 173/271/1 170/142/1
f 172/325/2 170/717/2 169/326/2
f 171/328/3 169/670/3 174/329/3
f 176/330/4 174/718/4 173/331/4
f 169/49/5 170/719/5 173/332/5
f 172/253/6 171/252/6 176/334/6
f 183/336/7 181/720/7 178/133/7
f 180/338/8 178/721/8 177/339/8
f 179/341/9 177/336/9 182/337/9
f 184/343/10 182/722/10 181/344/10
f 177/32/5 178/723/5 181/346/5
f 180/348/6 179/243/6 184/349/6
f 191/351/7 189/54/7 186/342/7
f 188/352/8 186/724/8 185/353/8
f 187/311/9 185/60/9 190/355/9
f 192/356/10 190/725/10 189/17/10
f 185/358/5 186/726/5 189/359/5
f 188/360/6 187/727/6 192/361/6
f 199/363/70 197/173/70 194/364/70
f 196/366/8 194/728/8 193/55/8
f 195/368/71 193/38/71 198/327/71
f 199/370/10 200/395/10 198/371/10
f 193/373/72 194/729/72 197/374/72
f 196/376/73 195/354/73 200/377/73
f 207/379/7 205/730/7 202/380/7
f 204/382/8 202/731/8 201/77/8
f 203/384/9 201/732/9 206/385/9
f 208/386/10 206/733/10 205/387/10
f 201/389/5 202/734/5 205/390/5
f 204/392/6 203/735/6 208/393/6
f 215/363/74 213/173/74 210/364/74
f 212/366/10 210/728/10 209/55/10
f 211/368/75 209/38/75 214/327/75
f 216/395/8 214/371/8 213/372/8
f 209/373/76 210/729/76 213/374/76
f 212/376/77 211/354/77 216/377/77
f 223/396/78 221/736/78 218/324/78
f 220/398/8 218/737/8 217/399/8
f 219/401/79 217/738/79 222/402/79
f 223/404/10 224/739/10 222/405/10
f 217/406/80 218/740/80 221/407/80
f 220/409/81 219/741/81 224/410/81
f 231/412/82 229/742/82 226/413/82
f 228/415/8 226/743/8 225/375/8
f 227/417/83 225/744/83 230/418/83
f 231/420/10 232/745/10 230/421/10
f 225/423/84 226/746/84 229/424/84
f 228/426/85 227/747/85 232/427/85
f 239/429/70 237/748/70 234/430/70
f 235/432/86 236/749/86 234/433/86
f 235/434/71 233/750/71 238/171/71
f 239/436/87 240/751/87 238/437/87
f 233/438/88 234/752/88 237/439/88
f 239/441/89 236/753/89 235/442/89
f 244/444/70 247/754/70 245/445/70
f 244/446/90 242/755/90 241/117/90
f 243/447/71 241/756/71 246/448/71
f 247/450/91 248/757/91 246/451/91
f 241/453/92 242/758/92 245/454/92
f 247/456/93 244/759/93 243/450/93
f 255/458/82 253/760/82 250/459/82
f 251/461/94 252/761/94 250/462/95
f 251/464/83 249/762/83 254/465/83
f 255/467/96 256/763/96 254/468/96
f 249/470/97 250/764/97 253/471/98
f 255/473/99 252/765/99 251/474/99
f 260/476/70 263/766/70 261/477/70
f 260/479/100 258/767/100 257/480/100
f 259/482/71 257/766/71 262/476/71
f 263/484/101 264/768/101 262/485/101
f 257/487/102 258/769/102 261/488/102
f 260/490/103 259/481/103 264/491/103
f 271/493/82 269/770/82 266/494/82
f 268/496/8 266/771/8 265/497/8
f 267/499/83 265/772/83 270/500/83
f 272/502/10 270/773/10 269/503/10
f 265/505/84 266/774/84 269/506/84
f 268/508/85 267/404/85 272/509/85
f 279/511/70 277/482/70 274/483/70
f 276/513/89 274/775/89 273/266/89
f 275/515/71 273/776/71 278/516/71
f 279/518/88 280/777/88 278/519/88
f 278/521/86 273/778/86 274/522/86
f 276/524/104 275/484/104 280/525/104
f 287/527/70 285/779/70 282/528/70
f 284/530/93 282/780/93 281/531/93
f 283/533/71 281/511/71 286/512/71
f 287/535/92 288/781/92 286/536/92
f 286/538/90 281/782/90 282/539/90
f 284/541/91 283/518/91 288/542/91
f 292/544/82 295/783/82 293/545/82
f 292/546/98 290/784/98 289/397/98
f 291/548/83 289/785/83 294/549/83
f 296/551/99 294/786/105 293/552/105
f 294/554/106 289/787/96 290/555/96
f 295/557/94 292/788/94 291/558/94
f 300/560/70 303/564/70 301/533/70
f 300/561/107 298/789/107 297/562/107
f 304/563/71 299/790/71 297/564/71
f 304/565/102 302/791/102 301/566/102
f 297/567/100 298/792/100 301/568/100
f 300/570/101 299/532/101 304/571/101
f 311/573/82 309/793/82 306/574/82
f 308/576/8 306/794/8 305/577/8
f 307/579/83 305/795/83 310/580/83
f 311/582/10 312/796/10 310/583/10
f 305/585/84 306/797/84 309/586/84
f 308/588/85 307/798/85 312/589/85
f 319/591/108 317/790/108 314/563/108
f 315/593/8 316/799/8 314/177/8
f 315/595/109 313/591/109 318/592/109
f 320/596/10 318/799/10 317/593/10
f 313/598/110 314/800/110 317/599/110
f 316/601/111 315/535/111 320/602/111
f 327/604/2 325/274/2 322/31/2
f 324/606/3 322/801/3 321/514/3
f 323/474/4 321/470/4 326/608/4
f 328/558/1 326/474/1 325/609/1
f 326/558/5 321/610/5 322/611/5
f 324/613/6 323/611/6 328/612/6
f 335/615/2 333/345/2 330/616/2
f 332/618/3 330/620/3 329/345/3
f 331/619/4 329/621/4 334/620/4
f 336/431/1 334/802/1 333/621/1
f 334/622/5 329/383/5 330/623/5
f 332/625/6 331/803/6 336/626/6
f 343/628/1 341/388/1 338/622/1
f 340/629/2 338/627/2 337/625/2
f 339/631/3 337/634/3 342/388/3
f 344/632/4 342/629/4 341/630/4
f 337/634/5 338/631/5 341/3/5
f 343/635/6 340/2/6 339/633/6
