# Blender 4.4.3
# www.blender.org
mtllib guard.mtl
o guard
v -0.137500 1.125000 -0.331250
v -0.137500 1.250000 -0.331250
v -0.137500 1.125000 -0.343750
v -0.137500 1.250000 -0.343750
v -0.150000 1.250000 -0.331250
v -0.150000 1.125000 -0.331250
v -0.150000 1.250000 -0.343750
v -0.150000 1.125000 -0.343750
v 0.209317 1.284374 -0.205593
v 0.216933 1.284374 -0.267628
v 0.215810 1.159545 -0.204796
v 0.223427 1.159545 -0.266830
v 0.124010 1.279468 -0.279037
v 0.116393 1.279468 -0.217003
v 0.130503 1.154639 -0.278240
v 0.122886 1.154639 -0.216206
v -0.190343 1.006250 -0.233386
v -0.277805 1.006250 -0.281867
v -0.190343 0.818750 -0.233386
v -0.277805 0.818750 -0.281867
v -0.335377 1.006250 -0.178006
v -0.247915 1.006250 -0.129525
v -0.335377 0.818750 -0.178006
v -0.247915 0.818750 -0.129525
v 0.247915 1.006250 -0.129525
v 0.335377 1.006250 -0.178006
v 0.247915 0.818750 -0.129525
v 0.335377 0.818750 -0.178006
v 0.277805 1.006250 -0.281867
v 0.190343 1.006250 -0.233386
v 0.277805 0.818750 -0.281867
v 0.190343 0.818750 -0.233386
v 0.104603 1.249050 -0.193750
v 0.104603 1.249050 -0.287500
v 0.104603 1.249050 -0.193750
v 0.104603 1.249050 -0.287500
v 0.082897 1.125950 -0.287500
v 0.082897 1.125950 -0.193750
v 0.082897 1.125950 -0.287500
v 0.082897 1.125950 -0.193750
v -0.182761 1.012286 -0.239327
v -0.297122 1.029682 -0.286697
v -0.183565 1.006096 -0.239660
v -0.297926 1.023493 -0.287030
v -0.344958 1.029682 -0.171212
v -0.230597 1.012286 -0.123842
v -0.345761 1.023493 -0.171545
v -0.231400 1.006096 -0.124175
v -0.308953 0.900379 -0.289533
v -0.292881 1.024162 -0.282876
v -0.314671 0.901248 -0.291902
v -0.298599 1.025032 -0.285244
v -0.340716 1.024162 -0.167391
v -0.356789 0.900379 -0.174048
v -0.346434 1.025032 -0.169760
v -0.362507 0.901248 -0.176417
v 0.062500 1.233695 -0.197470
v 0.062500 1.251092 -0.321253
v 0.062500 1.109912 -0.214866
v 0.062500 1.127308 -0.338650
v -0.187500 1.251092 -0.321253
v -0.187500 1.233695 -0.197470
v -0.187500 1.127308 -0.338650
v -0.187500 1.109912 -0.214866
v 0.000000 1.434222 -0.187563
v 0.000000 1.434222 -0.187563
v 0.000000 1.287500 -0.218750
v 0.000000 1.287500 -0.218750
v -0.137500 1.434222 -0.187563
v -0.137500 1.434222 -0.187563
v -0.137500 1.287500 -0.218750
v -0.137500 1.287500 -0.218750
v 0.250000 1.250000 -0.100000
v 0.250000 1.250000 -0.225000
v 0.250000 0.750000 -0.100000
v 0.250000 0.750000 -0.225000
v -0.250000 1.250000 -0.225000
v -0.250000 1.250000 -0.100000
v -0.250000 0.750000 -0.225000
v -0.250000 0.750000 -0.100000
v -0.186577 1.562018 -0.061586
v -0.185083 1.576234 -0.128834
v -0.061397 1.151319 -0.145624
v -0.059903 1.165534 -0.212871
v -0.322788 1.536602 -0.140271
v -0.324282 1.522386 -0.073024
v -0.197608 1.125903 -0.224309
v -0.199102 1.111687 -0.157061
v -0.194001 1.548971 0.073011
v -0.209932 1.608028 0.060175
v -0.169288 1.515885 -0.109885
v -0.185219 1.574941 -0.122721
v -0.347637 1.568396 0.048738
v -0.331706 1.509339 0.061574
v -0.322924 1.535310 -0.134158
v -0.306993 1.476253 -0.121322
v -0.210019 1.609075 0.057275
v -0.191989 1.550596 0.044571
v -0.210316 1.586431 0.161084
v -0.192286 1.527953 0.148380
v -0.329627 1.510161 0.035357
v -0.347657 1.568640 0.048061
v -0.329924 1.487518 0.139166
v -0.347954 1.545997 0.151870
v -0.210316 1.586431 0.161084
v -0.204878 1.582071 0.098974
v -0.126080 1.293324 0.189036
v -0.120642 1.288964 0.126926
v -0.342516 1.541637 0.089760
v -0.347954 1.545997 0.151870
v -0.258280 1.248529 0.117712
v -0.263718 1.252890 0.179822
v 0.265625 1.437500 0.200000
v 0.265625 1.437500 0.106250
v 0.265625 0.750000 0.200000
v 0.265625 0.750000 0.106250
v -0.265625 1.437500 0.106250
v -0.265625 1.437500 0.200000
v -0.265625 0.750000 0.106250
v -0.265625 0.750000 0.200000
v -0.172363 1.529739 -0.042326
v -0.189886 1.594702 -0.056445
v -0.161654 1.515402 -0.121580
v -0.179177 1.580364 -0.135700
v -0.339565 1.551624 -0.068877
v -0.322042 1.486661 -0.054758
v -0.328856 1.537287 -0.148132
v -0.311333 1.472324 -0.134012
v -0.188838 1.551797 0.079605
v -0.206362 1.616759 0.065485
v -0.178129 1.537459 0.000350
v -0.195653 1.602422 -0.013770
v -0.356041 1.573681 0.053053
v -0.338517 1.508719 0.067173
v -0.345332 1.559344 -0.026202
v -0.327808 1.494382 -0.012082
v -0.250000 1.062500 0.150000
v -0.250000 1.062500 -0.162500
v -0.250000 0.812500 0.150000
v -0.250000 0.812500 -0.162500
v -0.312500 1.062500 -0.162500
v -0.312500 1.062500 0.150000
v -0.312500 0.812500 -0.162500
v -0.312500 0.812500 0.150000
v 0.312500 1.062500 0.150000
v 0.312500 1.062500 -0.162500
v 0.312500 0.812500 0.150000
v 0.312500 0.812500 -0.162500
v 0.250000 1.062500 -0.162500
v 0.250000 1.062500 0.150000
v 0.250000 0.812500 -0.162500
v 0.250000 0.812500 0.150000
v 0.324282 1.522386 -0.073024
v 0.322788 1.536602 -0.140271
v 0.199102 1.111687 -0.157061
v 0.197608 1.125903 -0.224309
v 0.185083 1.576234 -0.128834
v 0.186577 1.562018 -0.061586
v 0.059903 1.165534 -0.212871
v 0.061397 1.151319 -0.145624
v 0.322042 1.486661 -0.054758
v 0.339565 1.551624 -0.068877
v 0.311333 1.472324 -0.134012
v 0.328856 1.537287 -0.148132
v 0.189886 1.594702 -0.056445
v 0.172363 1.529739 -0.042326
v 0.179177 1.580364 -0.135700
v 0.161654 1.515402 -0.121580
v 0.331706 1.509339 0.061574
v 0.347637 1.568396 0.048738
v 0.306993 1.476253 -0.121322
v 0.322924 1.535310 -0.134158
v 0.209932 1.608028 0.060175
v 0.194001 1.548971 0.073011
v 0.185219 1.574941 -0.122721
v 0.169288 1.515885 -0.109885
v 0.338517 1.508719 0.067173
v 0.356041 1.573681 0.053053
v 0.327808 1.494382 -0.012082
v 0.345332 1.559344 -0.026202
v 0.206362 1.616759 0.065485
v 0.188838 1.551797 0.079605
v 0.195653 1.602422 -0.013770
v 0.178129 1.537459 0.000350
v 0.347657 1.568640 0.048061
v 0.329627 1.510161 0.035357
v 0.347954 1.545997 0.151870
v 0.329924 1.487518 0.139166
v 0.191989 1.550596 0.044571
v 0.210019 1.609075 0.057275
v 0.192286 1.527953 0.148380
v 0.210316 1.586431 0.161084
v 0.347954 1.545997 0.151870
v 0.342516 1.541637 0.089760
v 0.263718 1.252890 0.179822
v 0.258280 1.248529 0.117712
v 0.204878 1.582071 0.098974
v 0.210316 1.586431 0.161084
v 0.120642 1.288964 0.126926
v 0.126080 1.293324 0.189036
v 0.250000 1.345681 -0.139981
v 0.250000 1.358676 -0.201116
v 0.250000 1.235640 -0.163371
v 0.250000 1.248634 -0.224506
v -0.250000 1.358676 -0.201116
v -0.250000 1.345681 -0.139981
v -0.250000 1.248634 -0.224506
v -0.250000 1.235640 -0.163371
v 0.156250 1.434326 -0.121139
v 0.156250 1.447320 -0.182274
v 0.156250 1.345681 -0.139981
v 0.156250 1.358676 -0.201116
v -0.156250 1.447320 -0.182274
v -0.156250 1.434326 -0.121139
v -0.156250 1.358676 -0.201116
v -0.156250 1.345681 -0.139981
v -0.156250 1.435625 -0.127253
v -0.156250 1.446021 -0.176160
v -0.092168 1.372944 -0.140576
v -0.092168 1.383340 -0.189483
v -0.249058 1.355241 -0.195456
v -0.249058 1.344846 -0.146549
v -0.184976 1.292560 -0.208779
v -0.184976 1.282165 -0.159872
v 0.249058 1.344846 -0.146549
v 0.249058 1.355241 -0.195456
v 0.184976 1.282165 -0.159872
v 0.184976 1.292560 -0.208779
v 0.156250 1.446021 -0.176160
v 0.156250 1.435625 -0.127253
v 0.092168 1.383340 -0.189483
v 0.092168 1.372944 -0.140576
v 0.171875 0.893968 -0.218746
v 0.171875 0.896149 -0.281208
v 0.171875 0.706582 -0.225290
v 0.171875 0.708764 -0.287752
v -0.171875 0.896149 -0.281208
v -0.171875 0.893968 -0.218746
v -0.171875 0.708764 -0.287752
v -0.171875 0.706582 -0.225290
v 0.109375 0.706582 -0.225290
v 0.109375 0.708764 -0.287752
v 0.109375 0.644120 -0.227471
v 0.109375 0.646302 -0.289933
v -0.109375 0.708764 -0.287752
v -0.109375 0.706582 -0.225290
v -0.109375 0.646302 -0.289933
v -0.109375 0.644120 -0.227471
v -0.065809 0.688915 -0.225907
v -0.065809 0.690879 -0.282123
v -0.110003 0.644748 -0.227449
v -0.110003 0.646711 -0.283665
v -0.127681 0.752713 -0.279963
v -0.127681 0.750750 -0.223748
v -0.171875 0.708545 -0.281506
v -0.171875 0.706582 -0.225290
v 0.127681 0.750750 -0.223748
v 0.127681 0.752713 -0.279963
v 0.171875 0.706582 -0.225290
v 0.171875 0.708545 -0.281506
v 0.065809 0.690879 -0.282123
v 0.065809 0.688915 -0.225907
v 0.110003 0.646711 -0.283665
v 0.110003 0.644748 -0.227449
v 0.109375 0.893968 -0.218746
v 0.109375 0.896367 -0.287454
v 0.109375 0.706582 -0.225290
v 0.109375 0.708982 -0.293998
v -0.109375 0.896367 -0.287454
v -0.109375 0.893968 -0.218746
v -0.109375 0.708982 -0.293998
v -0.109375 0.706582 -0.225290
v 0.099897 0.866739 -0.286698
v 0.099897 0.867012 -0.292942
v 0.099897 0.741858 -0.292151
v 0.099897 0.742131 -0.298395
v -0.087603 0.867012 -0.292942
v -0.087603 0.866739 -0.286698
v -0.087603 0.742131 -0.298395
v -0.087603 0.741858 -0.292151
v 0.078125 1.112500 -0.206250
v 0.078125 1.112500 -0.331250
v 0.078125 0.862500 -0.206250
v 0.078125 0.862500 -0.331250
v -0.078125 1.112500 -0.331250
v -0.078125 1.112500 -0.206250
v -0.078125 0.862500 -0.331250
v -0.078125 0.862500 -0.206250
v 0.062500 1.116140 -0.206433
v 0.062500 1.133537 -0.330216
v 0.062500 1.109951 -0.207302
v 0.062500 1.127348 -0.331086
v -0.062500 1.133537 -0.330216
v -0.062500 1.116140 -0.206433
v -0.062500 1.127348 -0.331086
v -0.062500 1.109951 -0.207302
v 0.062500 1.009754 -0.347613
v 0.062500 1.133537 -0.330216
v 0.062500 1.010623 -0.353802
v 0.062500 1.134407 -0.336405
v -0.062500 1.133537 -0.330216
v -0.062500 1.009754 -0.347613
v -0.062500 1.134407 -0.336405
v -0.062500 1.010623 -0.353802
v -0.084375 1.112500 -0.206250
v -0.084375 1.112500 -0.331250
v -0.084375 0.862500 -0.206250
v -0.084375 0.862500 -0.331250
v -0.240625 1.112500 -0.331250
v -0.240625 1.112500 -0.206250
v -0.240625 0.862500 -0.331250
v -0.240625 0.862500 -0.206250
v -0.100000 1.009754 -0.347613
v -0.100000 1.133537 -0.330216
v -0.100000 1.010623 -0.353802
v -0.100000 1.134407 -0.336405
v -0.225000 1.133537 -0.330216
v -0.225000 1.009754 -0.347613
v -0.225000 1.134407 -0.336405
v -0.225000 1.010623 -0.353802
v -0.100000 1.116140 -0.206433
v -0.100000 1.133537 -0.330216
v -0.100000 1.109951 -0.207302
v -0.100000 1.127348 -0.331086
v -0.225000 1.133537 -0.330216
v -0.225000 1.116140 -0.206433
v -0.225000 1.127348 -0.331086
v -0.225000 1.109951 -0.207302
v 0.240625 1.112500 -0.206250
v 0.240625 1.112500 -0.331250
v 0.240625 0.862500 -0.206250
v 0.240625 0.862500 -0.331250
v 0.084375 1.112500 -0.331250
v 0.084375 1.112500 -0.206250
v 0.084375 0.862500 -0.331250
v 0.084375 0.862500 -0.206250
v 0.225000 1.009754 -0.347613
v 0.225000 1.133537 -0.330216
v 0.225000 1.010623 -0.353802
v 0.225000 1.134407 -0.336405
v 0.100000 1.133537 -0.330216
v 0.100000 1.009754 -0.347613
v 0.100000 1.134407 -0.336405
v 0.100000 1.010623 -0.353802
v 0.225000 1.116140 -0.206433
v 0.225000 1.133537 -0.330216
v 0.225000 1.109951 -0.207302
v 0.225000 1.127348 -0.331086
v 0.100000 1.133537 -0.330216
v 0.100000 1.116140 -0.206433
v 0.100000 1.127348 -0.331086
v 0.100000 1.109951 -0.207302
v 0.226355 1.006765 -0.120021
v 0.340716 1.024162 -0.167391
v 0.227159 1.000576 -0.120354
v 0.341520 1.017973 -0.167724
v 0.292881 1.024162 -0.282876
v 0.178520 1.006765 -0.235506
v 0.293684 1.017973 -0.283209
v 0.179323 1.000576 -0.235839
v 0.356789 0.900379 -0.174048
v 0.340716 1.024162 -0.167391
v 0.362507 0.901248 -0.176417
v 0.346434 1.025032 -0.169760
v 0.292881 1.024162 -0.282876
v 0.308953 0.900379 -0.289533
v 0.298599 1.025032 -0.285244
v 0.314671 0.901248 -0.291902
v 0.200000 0.875000 -0.187500
v 0.200000 0.875000 -0.250000
v 0.200000 0.562500 -0.187500
v 0.200000 0.562500 -0.250000
v -0.200000 0.875000 -0.250000
v -0.200000 0.875000 -0.187500
v -0.200000 0.562500 -0.250000
v -0.200000 0.562500 -0.187500
v 0.137500 0.562500 -0.187500
v 0.137500 0.562500 -0.250000
v 0.137500 0.412500 -0.187500
v 0.137500 0.412500 -0.250000
v -0.137500 0.562500 -0.250000
v -0.137500 0.562500 -0.187500
v -0.137500 0.412500 -0.250000
v -0.137500 0.412500 -0.187500
v 0.199686 0.562630 -0.187500
v 0.199686 0.562630 -0.243750
v 0.137500 0.412500 -0.187500
v 0.137500 0.412500 -0.243750
v 0.026459 0.634384 -0.243750
v 0.026459 0.634384 -0.187500
v -0.035727 0.484253 -0.243750
v -0.035727 0.484253 -0.187500
v -0.026459 0.634384 -0.187500
v -0.026459 0.634384 -0.243750
v 0.035727 0.484253 -0.187500
v 0.035727 0.484253 -0.243750
v -0.199686 0.562630 -0.243750
v -0.199686 0.562630 -0.187500
v -0.137500 0.412500 -0.243750
v -0.137500 0.412500 -0.187500
v 0.018750 1.256250 -0.212500
v 0.018750 1.256250 -0.337500
v 0.018750 1.243750 -0.212500
v 0.018750 1.243750 -0.337500
v 0.006250 1.256250 -0.337500
v 0.006250 1.256250 -0.212500
v 0.006250 1.243750 -0.337500
v 0.006250 1.243750 -0.212500
v -0.137500 1.256250 -0.212500
v -0.137500 1.256250 -0.337500
v -0.137500 1.243750 -0.212500
v -0.137500 1.243750 -0.337500
v -0.150000 1.256250 -0.337500
v -0.150000 1.256250 -0.212500
v -0.150000 1.243750 -0.337500
v -0.150000 1.243750 -0.212500
v 0.018750 1.125000 -0.331250
v 0.018750 1.250000 -0.331250
v 0.018750 1.125000 -0.343750
v 0.018750 1.250000 -0.343750
v 0.006250 1.250000 -0.331250
v 0.006250 1.125000 -0.331250
v 0.006250 1.250000 -0.343750
v 0.006250 1.125000 -0.343750
vn -0.0000 1.0000 -0.0000
vn 1.0000 -0.0000 -0.0000
vn -0.0000 -1.0000 -0.0000
vn -1.0000 -0.0000 -0.0000
vn -0.0000 -0.0000 1.0000
vn -0.0000 -0.0000 -1.0000
vn 0.1219 -0.0000 -0.9925
vn 0.9912 0.0523 0.1217
vn -0.1219 -0.0000 0.9925
vn -0.9912 -0.0523 -0.1217
vn -0.0519 0.9986 -0.0064
vn 0.0519 -0.9986 0.0064
vn -0.8746 -0.0000 -0.4848
vn 0.4848 -0.0000 -0.8746
vn 0.8746 -0.0000 0.4848
vn -0.4848 -0.0000 0.8746
vn 0.8746 -0.0000 -0.4848
vn 0.4848 -0.0000 0.8746
vn -0.8746 -0.0000 0.4848
vn -0.4848 -0.0000 -0.8746
vn -0.0000 -0.0000 -0.0000
vn -0.9848 0.1736 -0.0000
vn 0.9848 -0.1736 -0.0000
vn -0.9149 0.1392 -0.3790
vn -0.9149 0.1391 -0.3790
vn 0.3827 -0.0000 -0.9239
vn 0.9149 -0.1391 0.3790
vn 0.9149 -0.1392 0.3790
vn -0.3827 -0.0001 0.9239
vn 0.1286 0.9903 0.0533
vn -0.1286 -0.9903 -0.0533
vn 0.3826 -0.0000 -0.9239
vn 0.3828 -0.0000 -0.9239
vn -0.1285 -0.9903 -0.0532
vn -0.3828 -0.0000 0.9239
vn -0.0000 0.1392 -0.9903
vn -0.0000 -0.1392 0.9903
vn -0.0000 0.9903 0.1392
vn -0.0000 -0.9903 -0.1392
vn -0.0000 0.2079 -0.9781
vn -0.0000 0.9948 0.1023
vn -0.0000 -0.2079 0.9781
vn -0.0000 0.9781 0.2079
vn -0.9781 -0.0000 0.2079
vn -0.0000 -0.9782 -0.2079
vn -0.9782 -0.0000 -0.2079
vn 0.0217 0.2068 -0.9781
vn 0.9579 0.2757 0.0796
vn -0.0217 -0.2068 0.9781
vn -0.9579 -0.2757 -0.0796
vn -0.2861 0.9387 0.1921
vn 0.2861 -0.9387 -0.1921
vn -0.2549 0.9449 -0.2054
vn 0.2549 -0.9449 0.2054
vn -0.1318 0.1765 0.9754
vn 0.1318 -0.1765 -0.9754
vn 0.2885 -0.9357 -0.2033
vn 0.9575 0.2813 0.0641
vn -0.2885 0.9357 0.2033
vn -0.9575 -0.2813 -0.0641
vn 0.0028 0.2131 -0.9770
vn -0.0028 -0.2131 0.9770
vn 0.0870 -0.0698 -0.9938
vn -0.0870 0.0698 0.9938
vn -0.2751 0.9571 -0.0913
vn 0.2751 -0.9571 0.0913
vn -0.0217 0.2068 -0.9781
vn 0.9579 -0.2757 -0.0796
vn 0.0217 -0.2068 0.9781
vn -0.9579 0.2757 0.0796
vn 0.2861 0.9387 0.1921
vn -0.2861 -0.9387 -0.1921
vn 0.2549 0.9449 -0.2054
vn -0.2549 -0.9449 0.2054
vn 0.1318 0.1765 0.9754
vn -0.1318 -0.1765 -0.9754
vn -0.2885 -0.9357 -0.2033
vn 0.9575 -0.2813 -0.0641
vn 0.2885 0.9357 0.2033
vn -0.9575 0.2813 0.0641
vn -0.0028 0.2131 -0.9770
vn 0.0028 -0.2131 0.9770
vn -0.0870 -0.0698 -0.9938
vn 0.0870 0.0698 0.9938
vn 0.2751 0.9571 -0.0913
vn -0.2751 -0.9571 0.0913
vn -0.0000 -0.9781 -0.2079
vn -0.0000 0.9782 0.2079
vn 0.7071 0.6917 0.1470
vn -0.7071 -0.6917 -0.1470
vn -0.7071 0.6917 0.1470
vn 0.7071 -0.6917 -0.1470
vn -0.0000 0.0349 -0.9994
vn -0.0000 -0.0349 0.9994
vn -0.0000 0.9994 0.0349
vn -0.0000 -0.9994 -0.0349
vn 0.7071 -0.7067 -0.0247
vn -0.7071 0.7067 0.0247
vn 0.7071 0.7067 0.0247
vn -0.7071 -0.7067 -0.0247
vn -0.0000 0.0436 -0.9990
vn -0.0000 -0.0436 0.9990
vn -0.0000 0.9990 0.0437
vn -0.0000 -0.9990 -0.0437
vn -0.0000 -0.1390 0.9903
vn -0.0000 -0.1391 0.9903
vn -0.0000 -0.9903 -0.1391
vn 0.9149 0.1392 -0.3790
vn 0.9149 0.1391 -0.3790
vn 0.3827 -0.0000 0.9239
vn -0.9149 -0.1391 0.3790
vn -0.9149 -0.1392 0.3790
vn -0.3827 0.0001 -0.9239
vn -0.1286 0.9903 0.0533
vn 0.1286 -0.9903 -0.0533
vn 0.3828 -0.0000 0.9239
vn 0.1285 -0.9903 -0.0532
vn 0.1287 -0.9902 -0.0534
vn -0.3826 -0.0000 -0.9239
vn -0.3827 -0.0000 -0.9239
vn 0.9239 -0.3827 -0.0000
vn -0.9239 0.3827 -0.0000
vn 0.3827 0.9239 -0.0000
vn -0.3827 -0.9239 -0.0000
vn 0.9239 0.3827 -0.0000
vn -0.9239 -0.3827 -0.0000
vn -0.3827 0.9239 -0.0000
vn 0.3827 -0.9239 -0.0000
vn -0.1287 -0.9902 -0.0534
vn -0.0000 -0.9952 -0.0980
vn 0.9781 -0.0000 0.2079
vn 0.9782 -0.0000 -0.2079
vn -0.3828 -0.0000 -0.9239
vt 0.659180 0.418945
vt 0.656250 0.421875
vt 0.656250 0.418945
vt 0.687500 0.840820
vt 0.656250 0.843750
vt 0.656250 0.840820
vt 0.596680 0.340820
vt 0.593750 0.343750
vt 0.593750 0.340820
vt 0.687500 0.825195
vt 0.656250 0.828125
vt 0.656250 0.825195
vt 0.156250 0.343750
vt 0.159180 0.312500
vt 0.159180 0.343750
vt 0.656250 0.781250
vt 0.659180 0.812500
vt 0.659180 0.781250
vt 0.257812 0.375000
vt 0.234375 0.406250
vt 0.234375 0.375000
vt 0.640625 0.734375
vt 0.625000 0.765625
vt 0.625000 0.734375
vt 0.593750 0.734375
vt 0.617188 0.765625
vt 0.593750 0.765625
vt 0.265625 0.343750
vt 0.250000 0.375000
vt 0.250000 0.343750
vt 0.562500 0.765625
vt 0.585938 0.750000
vt 0.585938 0.765625
vt 0.468750 0.390625
vt 0.492188 0.406250
vt 0.492188 0.390625
vt 0.351562 0.500000
vt 0.312500 0.562500
vt 0.312500 0.500000
vt 0.296875 0.484375
vt 0.265625 0.546875
vt 0.265625 0.484375
vt 0.398438 0.500000
vt 0.359375 0.562500
vt 0.359375 0.500000
vt 0.437500 0.484375
vt 0.406250 0.546875
vt 0.406250 0.484375
vt 0.445312 0.453125
vt 0.445312 0.484375
vt 0.531250 0.609375
vt 0.570312 0.640625
vt 0.570312 0.609375
vt 0.492188 0.937500
vt 0.453125 1.000000
vt 0.453125 0.937500
vt 0.468750 0.484375
vt 0.437500 0.546875
vt 0.257812 0.484375
vt 0.218750 0.546875
vt 0.218750 0.484375
vt 0.031250 0.468750
vt 0.000000 0.531250
vt 0.000000 0.468750
vt 0.570312 0.578125
vt 0.531250 0.515625
vt 0.570312 0.546875
vt 0.570312 0.515625
vt 0.000000 1.000000
vt 0.031250 1.000000
vt 0.023438 1.000000
vt 0.265625 0.406250
vt 0.296875 0.382812
vt 0.296875 0.406250
vt 0.437500 0.382812
vt 0.468750 0.406250
vt 0.468750 0.382812
vt 0.203125 0.341797
vt 0.234375 0.343750
vt 0.203125 0.343750
vt 0.687500 0.779297
vt 0.656250 0.779297
vt 0.250000 0.341797
vt 0.281250 0.343750
vt 0.281250 0.341797
vt 0.312500 0.343750
vt 0.218750 0.703125
vt 0.250000 0.671875
vt 0.250000 0.703125
vt 0.406250 0.890625
vt 0.437500 0.921875
vt 0.437500 0.890625
vt 0.343750 0.341797
vt 0.312500 0.341797
vt 0.687500 0.685547
vt 0.656250 0.687500
vt 0.656250 0.685547
vt 0.687500 0.669922
vt 0.656250 0.671875
vt 0.656250 0.669922
vt 0.656250 0.623047
vt 0.687500 0.625000
vt 0.656250 0.625000
vt 0.546875 1.000000
vt 0.578125 0.968750
vt 0.578125 1.000000
vt 0.171875 0.421875
vt 0.203125 0.453125
vt 0.203125 0.421875
vt 0.093750 0.500000
vt 0.031250 0.531250
vt 0.031250 0.500000
vt 0.437500 0.421875
vt 0.406250 0.453125
vt 0.406250 0.421875
vt 0.218750 0.500000
vt 0.156250 0.531250
vt 0.156250 0.500000
vt 0.546875 0.484375
vt 0.578125 0.515625
vt 0.546875 0.515625
vt 0.468750 0.640625
vt 0.531250 0.640625
vt 0.468750 0.515625
vt 0.531250 0.546875
vt 0.237305 0.447266
vt 0.203125 0.484375
vt 0.203125 0.447266
vt 0.000000 0.962891
vt 0.549805 0.759766
vt 0.515625 0.796875
vt 0.515625 0.759766
vt 0.034180 1.000000
vt 0.125000 0.703125
vt 0.000000 0.828125
vt 0.000000 0.703125
vt 0.125000 0.515625
vt 0.093750 0.640625
vt 0.093750 0.515625
vt 0.125000 0.828125
vt 0.156250 0.515625
vt 0.125000 0.640625
vt 0.359375 0.828125
vt 0.484375 0.796875
vt 0.484375 0.828125
vt 0.359375 0.765625
vt 0.484375 0.765625
vt 0.348633 0.562500
vt 0.312500 0.671875
vt 0.111328 0.406250
vt 0.093750 0.406250
vt 0.036133 0.640625
vt 0.000000 0.640625
vt 0.142578 0.406250
vt 0.125000 0.406250
vt 0.343750 0.390625
vt 0.379883 0.373047
vt 0.379883 0.390625
vt 0.390625 0.373047
vt 0.426758 0.390625
vt 0.426758 0.373047
vt 0.500000 0.671875
vt 0.536133 0.718750
vt 0.500000 0.718750
vt 0.296875 0.546875
vt 0.296875 0.500000
vt 0.333008 0.453125
vt 0.296875 0.453125
vt 0.437500 0.406250
vt 0.453125 0.453125
vt 0.437500 0.453125
vt 0.609375 0.968750
vt 0.645508 0.953125
vt 0.645508 0.968750
vt 0.645508 0.562500
vt 0.609375 0.578125
vt 0.645508 0.578125
vt 0.598633 0.801758
vt 0.562500 0.828125
vt 0.562500 0.801758
vt 0.640625 0.598633
vt 0.625000 0.625000
vt 0.625000 0.598633
vt 0.239258 0.411133
vt 0.203125 0.437500
vt 0.203125 0.411133
vt 0.453125 0.348633
vt 0.437500 0.375000
vt 0.437500 0.348633
vt 0.609375 0.484375
vt 0.645508 0.468750
vt 0.645508 0.484375
vt 0.609375 0.453125
vt 0.645508 0.453125
vt 0.395508 0.564453
vt 0.359375 0.640625
vt 0.359375 0.564453
vt 0.000000 0.392578
vt 0.015625 0.468750
vt 0.254883 0.548828
vt 0.218750 0.625000
vt 0.218750 0.548828
vt 0.015625 0.392578
vt 0.562500 0.390625
vt 0.598633 0.375000
vt 0.598633 0.390625
vt 0.609375 0.375000
vt 0.645508 0.390625
vt 0.645508 0.375000
vt 0.132812 0.828125
vt 0.179688 0.531250
vt 0.156250 0.703125
vt 0.273438 0.828125
vt 0.140625 1.000000
vt 0.140625 0.828125
vt 0.210938 0.531250
vt 0.187500 0.703125
vt 0.187500 0.531250
vt 0.359375 0.703125
vt 0.492188 0.679688
vt 0.492188 0.703125
vt 0.359375 0.648438
vt 0.492188 0.671875
vt 0.492188 0.648438
vt 0.617188 0.932617
vt 0.578125 0.953125
vt 0.578125 0.932617
vt 0.625000 0.495117
vt 0.642578 0.515625
vt 0.625000 0.515625
vt 0.578125 0.698242
vt 0.617188 0.718750
vt 0.578125 0.718750
vt 0.562500 0.354492
vt 0.580078 0.375000
vt 0.562500 0.375000
vt 0.593750 0.453125
vt 0.632812 0.435547
vt 0.632812 0.453125
vt 0.039062 0.373047
vt 0.000000 0.390625
vt 0.039062 0.390625
vt 0.335938 0.401367
vt 0.296875 0.421875
vt 0.296875 0.401367
vt 0.625000 0.401367
vt 0.642578 0.421875
vt 0.625000 0.421875
vt 0.382812 0.401367
vt 0.343750 0.421875
vt 0.343750 0.401367
vt 0.611328 0.354492
vt 0.593750 0.375000
vt 0.593750 0.354492
vt 0.648438 0.890625
vt 0.609375 0.873047
vt 0.648438 0.873047
vt 0.609375 0.841797
vt 0.648438 0.859375
vt 0.648438 0.841797
vt 0.046875 0.390625
vt 0.031250 0.453125
vt 0.031250 0.390625
vt 0.359375 0.937500
vt 0.281250 1.000000
vt 0.281250 0.937500
vt 0.062500 0.390625
vt 0.046875 0.453125
vt 0.359375 0.875000
vt 0.281250 0.875000
vt 0.078125 0.500000
vt 0.093750 0.421875
vt 0.390625 0.421875
vt 0.406250 0.500000
vt 0.078125 0.390625
vt 0.062500 0.453125
vt 0.078125 0.640625
vt 0.171875 0.390625
vt 0.156250 0.453125
vt 0.156250 0.390625
vt 0.156250 0.640625
vt 0.078125 0.703125
vt 0.250000 0.484375
vt 0.281250 0.484375
vt 0.281250 0.406250
vt 0.395508 0.890625
vt 0.359375 1.000000
vt 0.359375 0.890625
vt 0.484375 0.718750
vt 0.501953 0.828125
vt 0.083008 0.531250
vt 0.046875 0.640625
vt 0.046875 0.531250
vt 0.486328 0.515625
vt 0.504883 0.390625
vt 0.468750 0.373047
vt 0.504883 0.373047
vt 0.515625 0.373047
vt 0.551758 0.390625
vt 0.551758 0.373047
vt 0.617188 0.620117
vt 0.578125 0.640625
vt 0.578125 0.620117
vt 0.642578 0.354492
vt 0.625000 0.375000
vt 0.625000 0.354492
vt 0.429688 0.401367
vt 0.390625 0.401367
vt 0.017578 0.338867
vt 0.000000 0.359375
vt 0.000000 0.338867
vt 0.609375 0.828125
vt 0.648438 0.810547
vt 0.648438 0.828125
vt 0.609375 0.779297
vt 0.648438 0.796875
vt 0.648438 0.779297
vt 0.379883 0.453125
vt 0.343750 0.500000
vt 0.343750 0.453125
vt 0.140625 0.359375
vt 0.125000 0.359375
vt 0.536133 0.468750
vt 0.500000 0.515625
vt 0.500000 0.468750
vt 0.156250 0.359375
vt 0.140625 0.406250
vt 0.661133 1.000000
vt 0.625000 0.984375
vt 0.661133 0.984375
vt 0.625000 0.968750
vt 0.661133 0.968750
vt 0.578125 0.588867
vt 0.617188 0.609375
vt 0.578125 0.609375
vt 0.095703 0.338867
vt 0.078125 0.359375
vt 0.078125 0.338867
vt 0.617188 0.526367
vt 0.578125 0.546875
vt 0.578125 0.526367
vt 0.126953 0.338867
vt 0.109375 0.359375
vt 0.109375 0.338867
vt 0.296875 0.390625
vt 0.335938 0.373047
vt 0.335938 0.390625
vt 0.609375 0.669922
vt 0.648438 0.687500
vt 0.648438 0.669922
vt 0.562500 0.770508
vt 0.598633 0.796875
vt 0.562500 0.796875
vt 0.468750 0.375000
vt 0.453125 0.375000
vt 0.578125 0.973633
vt 0.614258 1.000000
vt 0.625000 0.520508
vt 0.640625 0.546875
vt 0.625000 0.546875
vt 0.661133 0.953125
vt 0.625000 0.937500
vt 0.661133 0.937500
vt 0.625000 0.921875
vt 0.661133 0.921875
vt 0.301758 0.548828
vt 0.265625 0.625000
vt 0.265625 0.548828
vt 0.515625 0.392578
vt 0.500000 0.392578
vt 0.406250 0.923828
vt 0.442383 1.000000
vt 0.406250 1.000000
vt 0.531250 0.392578
vt 0.515625 0.468750
vt 0.078125 0.375000
vt 0.114258 0.359375
vt 0.114258 0.375000
vt 0.661133 0.906250
vt 0.484375 0.737305
vt 0.359375 0.737305
vt 0.281250 0.346680
vt 0.265625 0.375000
vt 0.265625 0.346680
vt 0.484375 0.706055
vt 0.359375 0.734375
vt 0.359375 0.706055
vt 0.296875 0.375000
vt 0.281250 0.375000
vt 0.375000 0.843750
vt 0.500000 0.828125
vt 0.500000 0.843750
vt 0.437500 0.859375
vt 0.562500 0.875000
vt 0.562500 0.859375
vt 0.578125 0.930664
vt 0.500000 0.953125
vt 0.500000 0.930664
vt 0.046875 0.336914
vt 0.031250 0.359375
vt 0.031250 0.336914
vt 0.578125 0.836914
vt 0.500000 0.859375
vt 0.500000 0.836914
vt 0.140625 0.336914
vt 0.515625 0.750000
vt 0.593750 0.750000
vt 0.515625 0.718750
vt 0.593750 0.718750
vt 0.578125 0.493164
vt 0.611328 0.515625
vt 0.359375 0.336914
vt 0.372070 0.359375
vt 0.359375 0.359375
vt 0.564453 0.399414
vt 0.531250 0.421875
vt 0.531250 0.399414
vt 0.387695 0.336914
vt 0.375000 0.359375
vt 0.375000 0.336914
vt 0.658203 0.906250
vt 0.625000 0.893555
vt 0.658203 0.893555
vt 0.625000 0.706055
vt 0.658203 0.718750
vt 0.658203 0.706055
vt 0.611328 0.399414
vt 0.578125 0.421875
vt 0.578125 0.399414
vt 0.640625 0.602539
vt 0.653320 0.625000
vt 0.640625 0.625000
vt 0.078125 0.383789
vt 0.078125 0.406250
vt 0.403320 0.336914
vt 0.390625 0.359375
vt 0.390625 0.336914
vt 0.625000 0.703125
vt 0.658203 0.690430
vt 0.658203 0.703125
vt 0.658203 0.627930
vt 0.625000 0.640625
vt 0.658203 0.640625
vt 0.367188 0.828125
vt 0.281250 0.828125
vt 0.203125 0.359375
vt 0.218750 0.406250
vt 0.203125 0.406250
vt 0.304688 0.625000
vt 0.218750 0.671875
vt 0.234375 0.359375
vt 0.218750 0.359375
vt 0.500000 0.656250
vt 0.585938 0.640625
vt 0.585938 0.656250
vt 0.515625 0.875000
vt 0.601562 0.890625
vt 0.601562 0.875000
vt 0.492188 0.843750
vt 0.437500 0.843750
vt 0.375000 0.890625
vt 0.601562 0.953125
vt 0.546875 0.968750
vt 0.546875 0.953125
vt 0.484375 0.593750
vt 0.468750 0.609375
vt 0.468750 0.593750
vt 0.546875 0.687500
vt 0.601562 0.671875
vt 0.601562 0.687500
vt 0.546875 0.468750
vt 0.601562 0.484375
vt 0.601562 0.468750
vt 0.625000 0.578125
vt 0.646484 0.593750
vt 0.625000 0.593750
vt 0.484375 0.703125
vt 0.498047 0.718750
vt 0.224609 0.343750
vt 0.216797 0.484375
vt 0.203125 0.500000
vt 0.662109 0.734375
vt 0.640625 0.720703
vt 0.662109 0.720703
vt 0.296875 0.345703
vt 0.318359 0.359375
vt 0.318359 0.345703
vt 0.662109 0.750000
vt 0.640625 0.765625
vt 0.640625 0.750000
vt 0.576172 0.859375
vt 0.091797 0.406250
vt 0.078125 0.421875
vt 0.328125 0.359375
vt 0.349609 0.345703
vt 0.349609 0.359375
vt 0.662109 0.642578
vt 0.640625 0.656250
vt 0.662109 0.656250
vt 0.429688 0.843750
vt 0.595703 0.828125
vt 0.578125 0.875000
vt 0.578125 0.828125
vt 0.460938 0.593750
vt 0.406250 0.640625
vt 0.406250 0.593750
vt 0.171875 0.375000
vt 0.189453 0.421875
vt 0.531250 0.453125
vt 0.585938 0.435547
vt 0.585938 0.453125
vt 0.562500 0.904297
vt 0.617188 0.921875
vt 0.617188 0.904297
vt 0.562500 0.890625
vt 0.515625 0.921875
vt 0.515625 0.890625
vt 0.345703 0.312500
vt 0.343750 0.343750
vt 0.343750 0.312500
vt 0.515625 0.828125
vt 0.656250 0.453125
vt 0.658203 0.484375
vt 0.656250 0.484375
vt 0.640625 0.562500
vt 0.687500 0.560547
vt 0.687500 0.562500
vt 0.640625 0.544922
vt 0.687500 0.546875
vt 0.687500 0.544922
vt 0.234375 0.341797
vt 0.687500 0.607422
vt 0.656250 0.609375
vt 0.656250 0.607422
vt 0.437500 0.341797
vt 0.406250 0.343750
vt 0.406250 0.341797
vt 0.687500 0.591797
vt 0.656250 0.593750
vt 0.656250 0.591797
vt 0.656250 0.576172
vt 0.687500 0.578125
vt 0.656250 0.578125
vt 0.546875 0.718750
vt 0.578125 0.687500
vt 0.328125 0.453125
vt 0.328125 0.421875
vt 0.468750 0.341797
vt 0.437500 0.343750
vt 0.500000 0.341797
vt 0.468750 0.343750
vt 0.687500 0.513672
vt 0.656250 0.515625
vt 0.656250 0.513672
vt 0.656250 0.498047
vt 0.687500 0.500000
vt 0.656250 0.500000
vt 0.359375 0.421875
vt 0.359375 0.453125
vt 0.390625 0.453125
vt 0.500000 0.343750
vt 0.687500 0.515625
vt 0.687500 0.498047
vt 0.687500 0.609375
vt 0.687500 0.593750
vt 0.349609 0.750000
vt 0.250000 0.828125
vt 0.250000 0.750000
vt 0.349609 0.671875
vt 0.453125 0.484375
vt 0.453125 0.406250
vt 0.484375 0.562500
vt 0.583984 0.546875
vt 0.583984 0.562500
vt 0.599609 0.671875
vt 0.599609 0.656250
vt 0.474609 0.556641
vt 0.406250 0.556641
vt 0.062500 0.353516
vt 0.046875 0.353516
vt 0.505859 0.884766
vt 0.437500 0.884766
vt 0.078125 0.353516
vt 0.531250 0.578125
vt 0.599609 0.562500
vt 0.599609 0.578125
vt 0.599609 0.468750
vt 0.599609 0.453125
vt 0.531250 0.568359
vt 0.484375 0.609375
vt 0.484375 0.568359
vt 0.169922 0.349609
vt 0.156250 0.349609
vt 0.500000 0.958984
vt 0.500000 1.000000
vt 0.185547 0.333984
vt 0.171875 0.333984
vt 0.500000 0.923828
vt 0.500000 0.937500
vt 0.593750 0.720703
vt 0.031250 0.458984
vt 0.201172 0.333984
vt 0.187500 0.375000
vt 0.187500 0.333984
vt 0.203125 0.458984
vt 0.156250 0.458984
vt 0.248047 0.333984
vt 0.234375 0.333984
vt 0.593750 0.656250
vt 0.640625 0.642578
vt 0.593750 0.548828
vt 0.640625 0.548828
vt 0.534180 0.340820
vt 0.531250 0.343750
vt 0.531250 0.340820
vt 0.437500 0.356445
vt 0.406250 0.359375
vt 0.406250 0.356445
vt 0.549805 0.340820
vt 0.546875 0.343750
vt 0.546875 0.340820
vt 0.500000 0.356445
vt 0.468750 0.359375
vt 0.468750 0.356445
vt 0.500000 0.359375
vt 0.502930 0.328125
vt 0.502930 0.359375
vt 0.515625 0.328125
vt 0.518555 0.359375
vt 0.518555 0.328125
vt 0.659180 0.450195
vt 0.656250 0.450195
vt 0.671875 0.528320
vt 0.640625 0.531250
vt 0.640625 0.528320
vt 0.565430 0.340820
vt 0.562500 0.343750
vt 0.562500 0.340820
vt 0.562500 0.356445
vt 0.531250 0.359375
vt 0.531250 0.356445
vt 0.640625 0.453125
vt 0.643555 0.421875
vt 0.643555 0.453125
vt 0.046875 0.312500
vt 0.049805 0.343750
vt 0.049805 0.312500
vt 0.659180 0.434570
vt 0.656250 0.437500
vt 0.656250 0.434570
vt 0.687500 0.965820
vt 0.656250 0.968750
vt 0.656250 0.965820
vt 0.581055 0.340820
vt 0.578125 0.343750
vt 0.578125 0.340820
vt 0.687500 0.887695
vt 0.656250 0.890625
vt 0.656250 0.887695
vt 0.062500 0.343750
vt 0.065430 0.312500
vt 0.065430 0.343750
vt 0.659180 0.875000
vt 0.659180 0.843750
vt 0.659180 0.421875
vt 0.687500 0.843750
vt 0.596680 0.343750
vt 0.687500 0.828125
vt 0.156250 0.312500
vt 0.656250 0.812500
vt 0.257812 0.406250
vt 0.617188 0.734375
vt 0.562500 0.750000
vt 0.351562 0.562500
vt 0.398438 0.562500
vt 0.492188 1.000000
vt 0.468750 0.546875
vt 0.257812 0.546875
vt 0.265625 0.382812
vt 0.687500 0.781250
vt 0.406250 0.921875
vt 0.687500 0.687500
vt 0.687500 0.671875
vt 0.687500 0.623047
vt 0.171875 0.453125
vt 0.093750 0.531250
vt 0.218750 0.531250
vt 0.578125 0.484375
vt 0.237305 0.484375
vt 0.549805 0.796875
vt 0.359375 0.796875
vt 0.348633 0.671875
vt 0.111328 0.515625
vt 0.036133 0.531250
vt 0.142578 0.515625
vt 0.343750 0.373047
vt 0.390625 0.390625
vt 0.536133 0.671875
vt 0.312500 0.546875
vt 0.333008 0.500000
vt 0.609375 0.953125
vt 0.609375 0.562500
vt 0.598633 0.828125
vt 0.239258 0.437500
vt 0.609375 0.468750
vt 0.395508 0.640625
vt 0.254883 0.625000
vt 0.031250 0.392578
vt 0.609375 0.390625
vt 0.132812 1.000000
vt 0.179688 0.703125
vt 0.273438 1.000000
vt 0.210938 0.703125
vt 0.359375 0.679688
vt 0.359375 0.671875
vt 0.617188 0.953125
vt 0.642578 0.495117
vt 0.617188 0.698242
vt 0.580078 0.354492
vt 0.593750 0.435547
vt 0.000000 0.373047
vt 0.335938 0.421875
vt 0.642578 0.401367
vt 0.382812 0.421875
vt 0.611328 0.375000
vt 0.609375 0.890625
vt 0.609375 0.859375
vt 0.390625 0.500000
vt 0.078125 0.453125
vt 0.250000 0.406250
vt 0.395508 1.000000
vt 0.501953 0.718750
vt 0.083008 0.640625
vt 0.486328 0.406250
vt 0.515625 0.390625
vt 0.617188 0.640625
vt 0.642578 0.375000
vt 0.429688 0.421875
vt 0.017578 0.359375
vt 0.609375 0.810547
vt 0.609375 0.796875
vt 0.379883 0.500000
vt 0.536133 0.515625
vt 0.156250 0.406250
vt 0.625000 1.000000
vt 0.617188 0.588867
vt 0.095703 0.359375
vt 0.617188 0.546875
vt 0.126953 0.359375
vt 0.296875 0.373047
vt 0.609375 0.687500
vt 0.598633 0.770508
vt 0.468750 0.348633
vt 0.614258 0.973633
vt 0.640625 0.520508
vt 0.625000 0.953125
vt 0.301758 0.625000
vt 0.442383 0.923828
vt 0.531250 0.468750
vt 0.625000 0.906250
vt 0.484375 0.734375
vt 0.296875 0.346680
vt 0.375000 0.828125
vt 0.437500 0.875000
vt 0.046875 0.359375
vt 0.578125 0.859375
vt 0.156250 0.336914
vt 0.515625 0.734375
vt 0.611328 0.493164
vt 0.372070 0.336914
vt 0.564453 0.421875
vt 0.387695 0.359375
vt 0.625000 0.718750
vt 0.611328 0.421875
vt 0.653320 0.602539
vt 0.111328 0.383789
vt 0.403320 0.359375
vt 0.625000 0.690430
vt 0.625000 0.627930
vt 0.367188 0.875000
vt 0.304688 0.671875
vt 0.500000 0.640625
vt 0.492188 0.859375
vt 0.375000 0.875000
vt 0.601562 0.968750
vt 0.546875 0.671875
vt 0.646484 0.578125
vt 0.498047 0.703125
vt 0.224609 0.359375
vt 0.216797 0.500000
vt 0.296875 0.359375
vt 0.662109 0.765625
vt 0.576172 0.875000
vt 0.091797 0.421875
vt 0.328125 0.345703
vt 0.429688 0.890625
vt 0.595703 0.875000
vt 0.460938 0.640625
vt 0.189453 0.375000
vt 0.531250 0.435547
vt 0.562500 0.921875
vt 0.345703 0.343750
vt 0.658203 0.453125
vt 0.640625 0.560547
vt 0.687500 0.576172
vt 0.349609 0.828125
vt 0.484375 0.546875
vt 0.474609 0.593750
vt 0.505859 0.921875
vt 0.531250 0.562500
vt 0.169922 0.390625
vt 0.546875 0.958984
vt 0.185547 0.375000
vt 0.453125 0.923828
vt 0.078125 0.458984
vt 0.201172 0.375000
vt 0.248047 0.375000
vt 0.593750 0.642578
vt 0.593750 0.562500
vt 0.534180 0.343750
vt 0.437500 0.359375
vt 0.549805 0.343750
vt 0.500000 0.328125
vt 0.515625 0.359375
vt 0.659180 0.453125
vt 0.671875 0.531250
vt 0.565430 0.343750
vt 0.562500 0.359375
vt 0.640625 0.421875
vt 0.046875 0.343750
vt 0.659180 0.437500
vt 0.687500 0.968750
vt 0.581055 0.343750
vt 0.687500 0.890625
vt 0.062500 0.312500
vt 0.656250 0.875000
s 1
usemtl m_91c8186f-e403-7061-1464-5c54cdabd491
f 7/1/1 2/2/1 4/3/1
f 4/4/2 1/5/2 3/6/2
f 3/7/3 6/8/3 8/9/3
f 8/10/4 5/11/4 7/12/4
f 1/13/5 5/14/5 6/15/5
f 4/16/6 8/17/6 7/18/6
f 15/19/7 10/20/7 12/21/7
f 12/22/8 9/23/8 11/24/8
f 16/25/9 9/26/9 14/27/9
f 16/28/10 13/29/10 15/30/10
f 9/31/11 13/32/11 14/33/11
f 12/34/12 16/35/12 15/36/12
f 23/37/13 18/38/13 20/39/13
f 20/40/14 17/41/14 19/42/14
f 19/43/15 22/44/15 24/45/15
f 24/46/16 21/47/16 23/48/16
f 17/48/1 21/49/1 22/50/1
f 20/51/3 24/52/3 23/53/3
f 31/54/17 26/55/17 28/56/17
f 28/57/18 25/58/18 27/46/18
f 27/59/19 30/60/19 32/61/19
f 32/62/20 29/63/20 31/64/20
f 25/51/1 29/65/1 30/53/1
f 28/66/3 32/67/3 31/68/3
s 0
f 36/69/6 37/70/6 34/69/6
f 35/69/21 34/71/21 33/69/21
f 40/69/5 33/70/5 38/69/5
f 39/69/21 38/71/21 37/69/21
s 1
f 33/72/22 37/73/22 38/74/22
f 36/75/23 40/76/23 39/77/23
f 44/78/24 45/79/25 42/80/24
f 44/81/26 41/16/26 43/82/26
f 48/83/27 41/84/28 46/30/27
f 47/85/29 46/86/29 45/84/29
f 41/87/30 45/88/30 46/89/30
f 44/90/31 48/91/31 47/92/31
f 55/93/30 50/86/30 52/94/30
f 52/95/32 49/96/26 51/97/33
f 51/98/34 54/99/34 56/100/34
f 55/101/35 54/102/35 53/103/35
f 49/104/28 53/105/28 54/106/28
f 52/107/24 56/108/24 55/109/24
f 63/110/36 58/111/36 60/112/36
f 60/113/2 57/114/2 59/115/2
f 59/116/37 62/117/37 64/118/37
f 63/119/4 62/120/4 61/121/4
f 57/122/38 61/51/38 62/123/38
f 60/124/39 64/125/39 63/66/39
f 71/126/40 66/127/40 68/128/40
s 0
f 67/129/41 66/69/5 65/69/2
s 1
f 67/130/42 70/131/42 72/132/42
s 0
f 71/129/41 70/69/5 69/69/4
f 70/133/43 66/69/44 69/133/5
f 71/133/45 67/69/46 72/133/6
s 1
f 79/134/6 74/135/6 76/136/6
f 76/137/2 73/138/2 75/139/2
f 75/89/5 78/140/5 80/134/5
f 80/141/4 77/142/4 79/137/4
f 73/143/1 77/144/1 78/145/1
f 76/146/3 80/144/3 79/147/3
f 87/148/47 82/149/47 84/38/47
f 84/150/48 81/139/48 83/151/48
f 88/63/49 81/152/49 86/153/49
f 88/154/50 85/137/50 87/155/50
f 81/156/51 85/157/51 86/158/51
f 84/159/52 88/160/52 87/161/52
f 92/162/53 93/163/53 90/164/53
f 92/39/48 89/165/48 91/166/48
f 91/167/54 94/166/54 96/168/54
f 95/169/50 94/170/50 93/171/50
f 89/172/55 93/173/55 94/174/55
f 95/175/56 91/176/56 96/177/56
f 103/178/57 98/179/57 100/180/57
f 100/181/58 97/182/58 99/183/58
f 99/184/59 102/185/59 104/186/59
f 104/187/60 101/188/60 103/189/60
f 97/190/61 101/191/61 102/192/61
f 100/193/62 104/191/62 103/194/62
f 111/195/63 106/196/63 108/197/63
f 107/198/58 106/199/58 105/64/58
f 107/200/64 110/201/64 112/202/64
f 111/203/60 110/62/60 109/199/60
f 105/204/65 109/205/65 110/206/65
f 108/207/66 112/208/66 111/209/66
f 119/210/6 114/69/6 116/135/6
f 116/211/2 113/212/2 115/117/2
f 115/213/5 118/214/5 120/215/5
f 120/216/4 117/217/4 119/218/4
f 113/219/1 117/220/1 118/221/1
f 116/222/3 120/223/3 119/224/3
f 127/225/53 122/226/53 124/227/53
f 123/228/48 122/229/48 121/230/48
f 128/231/54 121/232/54 126/233/54
f 127/234/50 126/235/50 125/236/50
f 121/237/55 125/238/55 126/239/55
f 127/240/56 123/241/56 128/242/56
f 135/243/53 130/244/53 132/245/53
f 131/246/48 130/247/48 129/248/48
f 131/249/54 134/250/54 136/251/54
f 136/252/50 133/253/50 135/254/50
f 134/255/55 130/256/55 133/257/55
f 132/258/56 136/259/56 135/260/56
f 143/261/6 138/262/6 140/263/6
f 140/264/2 137/265/2 139/266/2
f 139/267/5 142/268/5 144/261/5
f 144/269/4 141/266/4 143/270/4
f 137/271/1 141/272/1 142/110/1
f 140/273/3 144/274/3 143/115/3
f 151/275/6 146/276/6 148/267/6
f 148/277/2 145/136/2 147/153/2
f 147/278/5 150/279/5 152/280/5
f 152/281/4 149/282/4 151/277/4
f 145/283/1 149/72/1 150/42/1
f 148/72/3 152/284/3 151/285/3
f 159/286/67 154/287/67 156/288/67
f 155/289/68 154/290/68 153/145/68
f 155/291/69 158/292/69 160/293/69
f 159/76/70 158/294/70 157/124/70
f 158/295/71 154/296/71 157/297/71
f 156/298/72 160/299/72 159/300/72
f 167/301/73 162/302/73 164/303/73
f 164/304/68 161/305/68 163/306/68
f 163/307/74 166/273/74 168/308/74
f 168/309/70 165/310/70 167/311/70
f 161/312/75 165/313/75 166/314/75
f 164/315/76 168/316/76 167/317/76
f 175/318/73 170/319/73 172/320/73
f 172/321/68 169/155/68 171/322/68
f 171/323/74 174/324/74 176/325/74
f 176/326/70 173/327/70 175/321/70
f 174/328/75 170/329/75 173/330/75
f 172/331/76 176/330/76 175/332/76
f 180/333/73 181/334/73 178/335/73
f 180/336/68 177/337/68 179/338/68
f 179/339/74 182/340/74 184/341/74
f 184/342/70 181/343/70 183/344/70
f 177/345/75 181/346/75 182/347/75
f 180/348/76 184/349/76 183/350/76
f 188/351/77 189/352/77 186/353/77
f 187/187/78 186/354/78 185/355/78
f 192/356/79 185/357/79 190/106/79
f 191/358/80 190/359/80 189/360/80
f 190/361/81 186/362/81 189/363/81
f 188/364/82 192/363/82 191/365/82
f 199/366/83 194/367/83 196/368/83
f 196/369/78 193/325/78 195/370/78
f 200/371/84 193/372/84 198/373/84
f 200/374/80 197/375/80 199/369/80
f 193/376/85 197/377/85 198/378/85
f 199/379/86 195/364/86 200/365/86
f 207/380/40 202/146/40 204/381/40
f 204/382/2 201/383/2 203/384/2
f 203/385/42 206/386/42 208/387/42
f 207/382/4 206/388/4 205/389/4
f 201/390/43 205/391/43 206/392/43
f 204/393/45 208/394/87 207/395/87
f 215/396/40 210/397/40 212/398/40
f 212/399/2 209/400/2 211/401/2
f 211/402/42 214/403/42 216/404/42
f 215/405/4 214/326/4 213/321/4
f 209/406/88 213/25/43 214/407/43
f 212/408/87 216/25/87 215/409/87
f 220/410/40 221/411/40 218/120/40
f 219/412/89 218/413/89 217/414/89
f 219/415/42 222/416/42 224/417/42
f 224/418/90 221/419/90 223/420/90
f 222/421/91 218/422/91 221/423/91
f 220/424/92 224/425/92 223/426/92
f 231/427/40 226/428/40 228/429/40
f 227/430/92 226/431/92 225/432/92
f 232/433/42 225/150/42 230/434/42
f 232/435/91 229/436/91 231/437/91
f 225/438/89 229/439/89 230/440/89
f 231/441/90 227/442/90 232/443/90
f 239/444/93 234/270/93 236/445/93
f 235/446/2 234/447/2 233/448/2
f 235/449/94 238/450/94 240/201/94
f 240/451/4 237/447/4 239/452/4
f 233/453/95 237/454/95 238/455/95
f 236/456/96 240/457/96 239/458/96
f 247/459/93 242/393/93 244/460/93
f 243/269/2 242/461/2 241/288/2
f 243/462/94 246/463/94 248/464/94
f 248/465/4 245/466/4 247/467/4
f 241/468/95 245/469/95 246/470/95
f 244/471/96 248/472/96 247/473/96
f 252/474/93 253/475/93 250/476/93
f 251/477/97 250/478/97 249/289/97
f 251/479/94 254/446/94 256/80/94
f 256/480/98 253/481/98 255/127/98
f 254/482/99 250/483/99 253/484/99
f 252/485/100 256/486/100 255/487/100
f 263/488/93 258/489/93 260/490/93
f 260/491/99 257/394/99 259/395/99
f 264/22/94 257/488/94 262/490/94
f 264/492/100 261/493/100 263/434/100
f 257/494/98 261/495/98 262/496/98
f 263/497/97 259/498/97 264/499/97
f 271/500/93 266/461/93 268/390/93
f 268/501/2 265/502/2 267/503/2
f 267/504/94 270/505/94 272/506/94
f 271/507/4 270/508/4 269/107/4
f 265/509/95 269/510/95 270/511/95
f 268/512/96 272/513/96 271/514/96
f 279/515/101 274/516/101 276/517/101
f 276/518/2 273/519/2 275/520/2
f 275/353/102 278/521/102 280/131/102
f 279/522/4 278/523/4 277/524/4
f 273/525/103 277/526/103 278/527/103
f 276/528/104 280/529/104 279/530/104
f 287/37/6 282/38/6 284/39/6
f 284/40/2 281/41/2 283/42/2
f 283/43/5 286/44/5 288/45/5
f 288/46/4 285/47/4 287/48/4
f 281/48/1 285/49/1 286/50/1
f 284/51/3 288/52/3 287/53/3
f 295/531/36 290/80/36 292/78/36
f 292/81/2 289/16/2 291/82/2
f 291/85/105 294/30/106 296/83/106
f 295/85/4 294/86/4 293/84/4
f 289/87/38 293/88/38 294/89/38
f 292/90/39 296/91/39 295/92/39
f 303/93/38 298/86/38 300/94/38
f 300/95/2 297/96/2 299/97/2
f 299/98/107 302/99/107 304/100/107
f 303/101/4 302/102/4 301/103/4
f 297/104/37 301/105/37 302/106/37
f 300/107/36 304/108/36 303/109/36
f 311/37/6 306/38/6 308/39/6
f 308/40/2 305/41/2 307/42/2
f 307/43/5 310/44/5 312/45/5
f 312/46/4 309/47/4 311/48/4
f 305/48/1 309/49/1 310/50/1
f 308/51/3 312/52/3 311/53/3
f 319/93/38 314/86/38 316/94/38
f 316/95/2 313/96/2 315/97/2
f 315/98/107 318/99/107 320/100/107
f 319/101/4 318/102/4 317/103/4
f 313/104/37 317/105/37 318/106/37
f 316/107/36 320/108/36 319/109/36
f 327/531/36 322/80/36 324/78/36
f 324/81/2 321/16/2 323/82/2
f 323/85/105 326/30/106 328/83/106
f 327/85/4 326/86/4 325/84/4
f 321/87/38 325/88/38 326/89/38
f 324/90/39 328/91/39 327/92/39
f 335/54/6 330/55/6 332/56/6
f 332/57/2 329/58/2 331/46/2
f 331/59/5 334/60/5 336/61/5
f 336/62/4 333/63/4 335/64/4
f 329/51/1 333/65/1 334/53/1
f 332/66/3 336/67/3 335/68/3
f 343/532/38 338/533/38 340/534/38
f 340/535/2 337/536/2 339/537/2
f 339/538/107 342/539/107 344/540/107
f 343/541/4 342/542/4 341/543/4
f 337/544/37 341/545/37 342/233/37
f 340/244/36 344/546/36 343/547/36
f 351/548/36 346/549/36 348/535/36
f 348/550/2 345/551/2 347/548/2
f 347/552/105 350/553/106 352/554/106
f 351/555/4 350/556/4 349/557/4
f 345/546/38 349/558/38 350/559/38
f 348/558/39 352/560/39 351/273/39
f 356/535/108 357/551/109 354/549/108
f 355/548/110 354/561/110 353/551/110
f 360/554/111 353/562/112 358/553/111
f 360/563/113 357/557/113 359/555/113
f 353/546/114 357/558/114 358/559/114
f 356/558/115 360/560/115 359/273/115
f 364/534/114 365/564/114 362/533/114
f 364/535/116 361/536/116 363/537/116
f 368/540/117 361/565/117 366/539/118
f 367/541/119 366/542/120 365/543/119
f 361/544/112 365/545/112 366/233/112
f 364/244/108 368/546/108 367/547/108
f 375/566/6 370/567/6 372/568/6
f 372/74/2 369/284/2 371/285/2
f 371/569/5 374/568/5 376/88/5
f 376/76/4 373/570/4 375/571/4
f 369/572/1 373/573/1 374/574/1
f 372/453/3 376/575/3 375/576/3
f 383/577/6 378/506/6 380/578/6
f 380/579/2 377/261/2 379/580/2
f 379/581/5 382/91/5 384/582/5
f 384/583/4 381/267/4 383/579/4
f 377/584/1 381/585/1 382/586/1
f 380/509/3 384/587/3 383/588/3
f 391/589/6 386/590/6 388/591/6
f 388/592/121 385/280/121 387/593/121
f 392/594/5 385/104/5 390/595/5
f 392/596/122 389/507/122 391/597/122
f 385/56/123 389/598/123 390/599/123
f 388/600/124 392/22/124 391/483/124
f 396/601/6 397/271/6 394/112/6
f 396/602/125 393/603/125 395/604/125
f 395/605/5 398/118/5 400/606/5
f 400/607/126 397/21/126 399/608/126
f 393/609/127 397/610/127 398/498/127
f 396/611/128 400/525/128 399/612/128
f 407/613/6 402/614/6 404/615/6
f 404/616/2 401/617/2 403/618/2
f 403/619/5 406/620/5 408/621/5
f 408/622/4 405/623/4 407/624/4
f 401/625/1 405/626/1 406/627/1
f 404/628/3 408/629/3 407/630/3
f 415/631/6 410/522/6 412/632/6
f 412/633/2 409/634/2 411/635/2
f 411/636/5 414/637/5 416/638/5
f 416/639/4 413/640/4 415/641/4
f 409/642/1 413/643/1 414/644/1
f 412/645/3 416/646/3 415/647/3
f 423/648/1 418/649/1 420/650/1
f 420/651/2 417/652/2 419/653/2
f 419/654/3 422/655/3 424/656/3
f 424/657/4 421/658/4 423/659/4
f 417/660/5 421/661/5 422/662/5
f 420/5/6 424/663/6 423/664/6
f 7/1/1 5/665/1 2/2/1
f 4/4/2 2/666/2 1/5/2
f 3/7/3 1/667/3 6/8/3
f 8/10/4 6/668/4 5/11/4
f 1/13/5 2/669/5 5/14/5
f 4/16/6 3/670/6 8/17/6
f 15/19/7 13/671/7 10/20/7
f 12/22/8 10/489/8 9/23/8
f 16/25/9 11/672/9 9/26/9
f 16/28/10 14/383/10 13/29/10
f 9/31/11 10/673/11 13/32/11
f 12/34/12 11/76/12 16/35/12
f 23/37/13 21/674/13 18/38/13
f 20/40/14 18/165/14 17/41/14
f 19/43/15 17/675/15 22/44/15
f 24/46/16 22/58/16 21/47/16
f 17/48/1 18/114/1 21/49/1
f 20/51/3 19/123/3 24/52/3
f 31/54/17 29/676/17 26/55/17
f 28/57/18 26/677/18 25/58/18
f 27/59/19 25/678/19 30/60/19
f 32/62/20 30/111/20 29/63/20
f 25/51/1 26/584/1 29/65/1
f 28/66/3 27/125/3 32/67/3
s 0
f 36/69/6 39/70/6 37/70/6
f 35/69/21 36/71/21 34/71/21
f 40/69/5 35/70/5 33/70/5
f 39/69/21 40/71/21 38/71/21
s 1
f 33/72/22 34/679/22 37/73/22
f 36/75/23 35/169/23 40/76/23
f 44/78/24 47/531/25 45/79/25
f 44/81/26 42/680/26 41/16/26
f 48/83/27 43/85/28 41/84/28
f 47/85/29 48/94/29 46/86/29
f 41/87/30 42/450/30 45/88/30
f 44/90/31 43/681/31 48/91/31
f 55/93/30 53/519/30 50/86/30
f 52/95/32 50/682/32 49/96/26
f 51/98/34 49/683/129 54/99/34
f 55/101/35 56/684/35 54/102/35
f 49/104/28 50/463/28 53/105/28
f 52/107/24 51/685/24 56/108/24
f 63/110/36 61/686/36 58/111/36
f 60/113/2 58/171/2 57/114/2
f 59/116/37 57/687/37 62/117/37
f 63/119/4 64/688/4 62/120/4
f 57/122/38 58/466/38 61/51/38
f 60/124/39 59/677/39 64/125/39
f 71/126/40 69/689/40 66/127/40
s 0
f 67/129/5 68/129/2 66/69/130
s 1
f 67/130/42 65/690/42 70/131/42
s 0
f 71/129/5 72/129/4 70/69/130
f 70/133/131 65/69/5 66/69/43
f 71/133/132 68/69/6 67/69/45
s 1
f 79/134/6 77/140/6 74/135/6
f 76/137/2 74/142/2 73/138/2
f 75/89/5 73/567/5 78/140/5
f 80/141/4 78/281/4 77/142/4
f 73/143/1 74/691/1 77/144/1
f 76/146/3 75/691/3 80/144/3
f 87/148/47 85/692/47 82/149/47
f 84/150/48 82/693/48 81/139/48
f 88/63/49 83/694/49 81/152/49
f 88/154/50 86/695/50 85/137/50
f 81/156/51 82/696/51 85/157/51
f 84/159/52 83/697/52 88/160/52
f 92/162/53 95/698/53 93/163/53
f 92/39/48 90/699/48 89/165/48
f 91/167/54 89/700/54 94/166/54
f 95/169/50 96/571/50 94/170/50
f 89/172/55 90/701/55 93/173/55
f 95/175/56 92/702/56 91/176/56
f 103/178/57 101/703/57 98/179/57
f 100/181/58 98/432/58 97/182/58
f 99/184/59 97/704/59 102/185/59
f 104/187/60 102/355/60 101/188/60
f 97/190/61 98/705/61 101/191/61
f 100/193/62 99/705/62 104/191/62
f 111/195/63 109/706/63 106/196/63
f 107/198/58 108/203/58 106/199/58
f 107/200/64 105/707/64 110/201/64
f 111/203/60 112/708/60 110/62/60
f 105/204/65 106/236/65 109/205/65
f 108/207/66 107/709/66 112/208/66
f 119/210/6 117/710/6 114/69/6
f 116/211/2 114/711/2 113/212/2
f 115/213/5 113/712/5 118/214/5
f 120/216/4 118/713/4 117/217/4
f 113/219/1 114/714/1 117/220/1
f 116/222/3 115/715/3 120/223/3
f 127/225/53 125/716/53 122/226/53
f 123/228/48 124/717/48 122/229/48
f 128/231/54 123/718/54 121/232/54
f 127/234/50 128/719/50 126/235/50
f 121/237/55 122/720/55 125/238/55
f 127/240/56 124/721/56 123/241/56
f 135/243/53 133/722/53 130/244/53
f 131/246/48 132/723/48 130/247/48
f 131/249/54 129/724/54 134/250/54
f 136/252/50 134/725/50 133/253/50
f 134/255/55 129/726/55 130/256/55
f 132/258/56 131/727/56 136/259/56
f 143/261/6 141/268/6 138/262/6
f 140/264/2 138/287/2 137/265/2
f 139/267/5 137/276/5 142/268/5
f 144/269/4 142/264/4 141/266/4
f 137/271/1 138/493/1 141/272/1
f 140/273/3 139/728/3 144/274/3
f 151/275/6 149/729/6 146/276/6
f 148/277/2 146/282/2 145/136/2
f 147/278/5 145/685/5 150/279/5
f 152/281/4 150/212/4 149/282/4
f 145/283/1 146/730/1 149/72/1
f 148/72/3 147/42/3 152/284/3
f 159/286/67 157/731/67 154/287/67
f 155/289/68 156/732/68 154/290/68
f 155/291/69 153/733/69 158/292/69
f 159/76/70 160/734/70 158/294/70
f 158/295/71 153/34/71 154/296/71
f 156/298/72 155/735/72 160/299/72
f 167/301/73 165/736/73 162/302/73
f 164/304/68 162/737/68 161/305/68
f 163/307/74 161/738/74 166/273/74
f 168/309/70 166/739/70 165/310/70
f 161/312/75 162/740/75 165/313/75
f 164/315/76 163/741/76 168/316/76
f 175/318/73 173/742/73 170/319/73
f 172/321/68 170/327/68 169/155/68
f 171/323/74 169/743/74 174/324/74
f 176/326/70 174/744/70 173/327/70
f 174/328/75 169/745/75 170/329/75
f 172/331/76 171/329/76 176/330/76
f 180/333/73 183/746/73 181/334/73
f 180/336/68 178/747/68 177/337/68
f 179/339/74 177/748/74 182/340/74
f 184/342/70 182/749/70 181/343/70
f 177/345/75 178/750/75 181/346/75
f 180/348/76 179/751/76 184/349/76
f 188/351/77 191/752/77 189/352/77
f 187/187/78 188/753/78 186/354/78
f 192/356/79 187/754/79 185/357/79
f 191/358/80 192/755/80 190/359/80
f 190/361/81 185/756/81 186/362/81
f 188/364/82 187/362/82 192/363/82
f 199/366/83 197/757/83 194/367/83
f 196/369/78 194/375/78 193/325/78
f 200/371/84 195/758/84 193/372/84
f 200/374/80 198/759/80 197/375/80
f 193/376/85 194/337/85 197/377/85
f 199/379/86 196/760/86 195/364/86
f 207/380/40 205/147/40 202/146/40
f 204/382/2 202/389/2 201/383/2
f 203/385/42 201/761/42 206/386/42
f 207/382/4 208/762/4 206/388/4
f 201/390/43 202/763/43 205/391/43
f 204/393/45 203/764/45 208/394/87
f 215/396/40 213/226/40 210/397/40
f 212/399/2 210/765/2 209/400/2
f 211/402/42 209/766/42 214/403/42
f 215/405/4 216/767/4 214/326/4
f 209/406/88 210/768/88 213/25/43
f 212/408/87 211/768/87 216/25/87
f 220/410/40 223/769/40 221/411/40
f 219/412/89 220/770/89 218/413/89
f 219/415/42 217/771/42 222/416/42
f 224/418/90 222/772/90 221/419/90
f 222/421/91 217/760/91 218/422/91
f 220/424/92 219/773/92 224/425/92
f 231/427/40 229/774/40 226/428/40
f 227/430/92 228/775/92 226/431/92
f 232/433/42 227/776/42 225/150/42
f 232/435/91 230/777/91 229/436/91
f 225/438/89 226/778/89 229/439/89
f 231/441/90 228/779/90 227/442/90
f 239/444/93 237/780/93 234/270/93
f 235/446/2 236/452/2 234/447/2
f 235/449/94 233/781/94 238/450/94
f 240/451/4 238/20/4 237/447/4
f 233/453/95 234/782/95 237/454/95
f 236/456/96 235/517/96 240/457/96
f 247/459/93 245/783/93 242/393/93
f 243/269/2 244/784/2 242/461/2
f 243/462/94 241/785/94 246/463/94
f 248/465/4 246/590/4 245/466/4
f 241/468/95 242/786/95 245/469/95
f 244/471/96 243/119/96 248/472/96
f 252/474/93 255/787/93 253/475/93
f 251/477/97 252/788/97 250/478/97
f 251/479/94 249/789/94 254/446/94
f 256/480/98 254/790/98 253/481/98
f 254/482/99 249/22/99 250/483/99
f 252/485/100 251/791/100 256/486/100
f 263/488/93 261/792/93 258/489/93
f 260/491/99 258/793/99 257/394/99
f 264/22/94 259/482/94 257/488/94
f 264/492/100 262/794/100 261/493/100
f 257/494/98 258/795/98 261/495/98
f 263/497/97 260/610/97 259/498/97
f 271/500/93 269/796/93 266/461/93
f 268/501/2 266/797/2 265/502/2
f 267/504/94 265/798/94 270/505/94
f 271/507/4 272/799/4 270/508/4
f 265/509/95 266/800/95 269/510/95
f 268/512/96 267/801/96 272/513/96
f 279/515/101 277/801/101 274/516/101
f 276/518/2 274/802/2 273/519/2
f 275/353/102 273/179/102 278/521/102
f 279/522/4 280/803/4 278/523/4
f 273/525/103 274/804/103 277/526/103
f 276/528/104 275/359/104 280/529/104
f 287/37/6 285/674/6 282/38/6
f 284/40/2 282/165/2 281/41/2
f 283/43/5 281/675/5 286/44/5
f 288/46/4 286/58/4 285/47/4
f 281/48/1 282/114/1 285/49/1
f 284/51/3 283/123/3 288/52/3
f 295/531/36 293/79/36 290/80/36
f 292/81/2 290/680/2 289/16/2
f 291/85/105 289/84/105 294/30/106
f 295/85/4 296/94/4 294/86/4
f 289/87/38 290/450/38 293/88/38
f 292/90/39 291/681/39 296/91/39
f 303/93/38 301/519/38 298/86/38
f 300/95/2 298/682/2 297/96/2
f 299/98/107 297/683/107 302/99/107
f 303/101/4 304/684/4 302/102/4
f 297/104/37 298/463/37 301/105/37
f 300/107/36 299/685/36 304/108/36
f 311/37/6 309/674/6 306/38/6
f 308/40/2 306/165/2 305/41/2
f 307/43/5 305/675/5 310/44/5
f 312/46/4 310/58/4 309/47/4
f 305/48/1 306/114/1 309/49/1
f 308/51/3 307/123/3 312/52/3
f 319/93/38 317/519/38 314/86/38
f 316/95/2 314/682/2 313/96/2
f 315/98/107 313/683/107 318/99/107
f 319/101/4 320/684/4 318/102/4
f 313/104/37 314/463/37 317/105/37
f 316/107/36 315/685/36 320/108/36
f 327/531/36 325/79/36 322/80/36
f 324/81/2 322/680/2 321/16/2
f 323/85/105 321/84/105 326/30/106
f 327/85/4 328/94/4 326/86/4
f 321/87/38 322/450/38 325/88/38
f 324/90/39 323/681/39 328/91/39
f 335/54/6 333/676/6 330/55/6
f 332/57/2 330/677/2 329/58/2
f 331/59/5 329/678/5 334/60/5
f 336/62/4 334/111/4 333/63/4
f 329/51/1 330/584/1 333/65/1
f 332/66/3 331/125/3 336/67/3
f 343/532/38 341/564/38 338/533/38
f 340/535/2 338/549/2 337/536/2
f 339/538/107 337/565/107 342/539/107
f 343/541/4 344/805/4 342/542/4
f 337/544/37 338/468/37 341/545/37
f 340/244/36 339/168/36 344/546/36
f 351/548/36 349/551/36 346/549/36
f 348/550/2 346/561/2 345/551/2
f 347/552/105 345/562/105 350/553/106
f 351/555/4 352/563/4 350/556/4
f 345/546/38 346/547/38 349/558/38
f 348/558/39 347/559/39 352/560/39
f 356/535/108 359/548/109 357/551/109
f 355/548/110 356/550/110 354/561/110
f 360/554/111 355/552/112 353/562/112
f 360/563/113 358/556/113 357/557/113
f 353/546/114 354/547/114 357/558/114
f 356/558/115 355/559/115 360/560/115
f 364/534/114 367/532/114 365/564/114
f 364/535/116 362/549/116 361/536/116
f 368/540/117 363/538/117 361/565/117
f 367/541/119 368/805/133 366/542/120
f 361/544/112 362/468/112 365/545/112
f 364/244/108 363/168/108 368/546/108
f 375/566/6 373/806/6 370/567/6
f 372/74/2 370/40/2 369/284/2
f 371/569/5 369/566/5 374/568/5
f 376/76/4 374/57/4 373/570/4
f 369/572/1 370/807/1 373/573/1
f 372/453/3 371/162/3 376/575/3
f 383/577/6 381/808/6 378/506/6
f 380/579/2 378/267/2 377/261/2
f 379/581/5 377/809/5 382/91/5
f 384/583/4 382/275/4 381/267/4
f 377/584/1 378/810/1 381/585/1
f 380/509/3 379/759/3 384/587/3
f 391/589/6 389/51/6 386/590/6
f 388/592/121 386/811/121 385/280/121
f 392/594/5 387/812/5 385/104/5
f 392/596/122 390/813/122 389/507/122
f 385/56/123 386/814/123 389/598/123
f 388/600/124 387/25/124 392/22/124
f 396/601/6 399/815/6 397/271/6
f 396/602/125 394/816/125 393/603/125
f 395/605/5 393/481/5 398/118/5
f 400/607/126 398/817/126 397/21/126
f 393/609/127 394/818/127 397/610/127
f 396/611/128 395/819/128 400/525/128
f 407/613/6 405/820/6 402/614/6
f 404/616/2 402/821/2 401/617/2
f 403/619/5 401/822/5 406/620/5
f 408/622/4 406/625/4 405/623/4
f 401/625/1 402/823/1 405/626/1
f 404/628/3 403/824/3 408/629/3
f 415/631/6 413/825/6 410/522/6
f 412/633/2 410/826/2 409/634/2
f 411/636/5 409/827/5 414/637/5
f 416/639/4 414/828/4 413/640/4
f 409/642/1 410/829/1 413/643/1
f 412/645/3 411/830/3 416/646/3
f 423/648/1 421/831/1 418/649/1
f 420/651/2 418/832/2 417/652/2
f 419/654/3 417/833/3 422/655/3
f 424/657/4 422/834/4 421/658/4
f 417/660/5 418/835/5 421/661/5
f 420/5/6 419/836/6 424/663/6
