# Blender 4.4.3
# www.blender.org
mtllib horse.mtl
o horse
v 0.167417 0.782583 -0.250000
v 0.167417 0.782583 -0.312500
v 0.167417 0.595083 -0.250000
v 0.167417 0.595083 -0.312500
v -0.170083 0.782583 -0.312500
v -0.170083 0.782583 -0.250000
v -0.170083 0.595083 -0.312500
v -0.170083 0.595083 -0.250000
v 0.062500 1.387707 -0.195718
v 0.062500 1.389006 -0.201831
v 0.062500 1.296005 -0.215210
v 0.062500 1.297305 -0.221323
v -0.087500 1.389006 -0.201831
v -0.087500 1.387707 -0.195718
v -0.087500 1.297305 -0.221323
v -0.087500 1.296005 -0.215210
v 0.250000 1.250000 -0.100000
v 0.250000 1.250000 -0.225000
v 0.250000 0.750000 -0.100000
v 0.250000 0.750000 -0.225000
v -0.250000 1.250000 -0.225000
v -0.250000 1.250000 -0.100000
v -0.250000 0.750000 -0.225000
v -0.250000 0.750000 -0.100000
v 0.187500 1.437383 -0.120490
v 0.187500 1.450377 -0.181624
v 0.187500 1.235640 -0.163371
v 0.187500 1.248634 -0.224506
v -0.187500 1.450377 -0.181624
v -0.187500 1.437383 -0.120490
v -0.187500 1.248634 -0.224506
v -0.187500 1.235640 -0.163371
v -0.186577 1.562018 -0.061586
v -0.185083 1.576234 -0.128834
v -0.061397 1.151319 -0.145624
v -0.059903 1.165534 -0.212871
v -0.322788 1.536602 -0.140271
v -0.324282 1.522386 -0.073024
v -0.197608 1.125903 -0.224309
v -0.199102 1.111687 -0.157061
v -0.194001 1.548971 0.073011
v -0.209932 1.608028 0.060175
v -0.169288 1.515885 -0.109885
v -0.185219 1.574941 -0.122721
v -0.347637 1.568396 0.048738
v -0.331706 1.509339 0.061574
v -0.322924 1.535310 -0.134158
v -0.306993 1.476253 -0.121322
v -0.210019 1.609075 0.057275
v -0.191989 1.550596 0.044571
v -0.210316 1.586431 0.161084
v -0.192286 1.527953 0.148380
v -0.329627 1.510161 0.035357
v -0.347657 1.568640 0.048061
v -0.329924 1.487518 0.139166
v -0.347954 1.545997 0.151870
v -0.210316 1.586431 0.161084
v -0.204878 1.582071 0.098974
v -0.126080 1.293324 0.189036
v -0.120642 1.288964 0.126926
v -0.342516 1.541637 0.089760
v -0.347954 1.545997 0.151870
v -0.258280 1.248529 0.117712
v -0.263718 1.252890 0.179822
v -0.172363 1.529739 -0.042326
v -0.189886 1.594702 -0.056445
v -0.161654 1.515402 -0.121580
v -0.179177 1.580364 -0.135700
v -0.339565 1.551624 -0.068877
v -0.322042 1.486661 -0.054758
v -0.328856 1.537287 -0.148132
v -0.311333 1.472324 -0.134012
v -0.188838 1.551797 0.079605
v -0.206362 1.616759 0.065485
v -0.178129 1.537459 0.000350
v -0.195653 1.602422 -0.013770
v -0.356041 1.573681 0.053053
v -0.338517 1.508719 0.067173
v -0.345332 1.559344 -0.026202
v -0.327808 1.494382 -0.012082
v -0.250000 1.062500 0.150000
v -0.250000 1.062500 -0.162500
v -0.250000 0.812500 0.150000
v -0.250000 0.812500 -0.162500
v -0.312500 1.062500 -0.162500
v -0.312500 1.062500 0.150000
v -0.312500 0.812500 -0.162500
v -0.312500 0.812500 0.150000
v 0.312500 1.062500 0.150000
v 0.312500 1.062500 -0.162500
v 0.312500 0.812500 0.150000
v 0.312500 0.812500 -0.162500
v 0.250000 1.062500 -0.162500
v 0.250000 1.062500 0.150000
v 0.250000 0.812500 -0.162500
v 0.250000 0.812500 0.150000
v 0.324282 1.522386 -0.073024
v 0.322788 1.536602 -0.140271
v 0.199102 1.111687 -0.157061
v 0.197608 1.125903 -0.224309
v 0.185083 1.576234 -0.128834
v 0.186577 1.562018 -0.061586
v 0.059903 1.165534 -0.212871
v 0.061397 1.151319 -0.145624
v 0.322042 1.486661 -0.054758
v 0.339565 1.551624 -0.068877
v 0.311333 1.472324 -0.134012
v 0.328856 1.537287 -0.148132
v 0.189886 1.594702 -0.056445
v 0.172363 1.529739 -0.042326
v 0.179177 1.580364 -0.135700
v 0.161654 1.515402 -0.121580
v 0.331706 1.509339 0.061574
v 0.347637 1.568396 0.048738
v 0.306993 1.476253 -0.121322
v 0.322924 1.535310 -0.134158
v 0.209932 1.608028 0.060175
v 0.194001 1.548971 0.073011
v 0.185219 1.574941 -0.122721
v 0.169288 1.515885 -0.109885
v 0.338517 1.508719 0.067173
v 0.356041 1.573681 0.053053
v 0.327808 1.494382 -0.012082
v 0.345332 1.559344 -0.026202
v 0.206362 1.616759 0.065485
v 0.188838 1.551797 0.079605
v 0.195653 1.602422 -0.013770
v 0.178129 1.537459 0.000350
v 0.347657 1.568640 0.048061
v 0.329627 1.510161 0.035357
v 0.347954 1.545997 0.151870
v 0.329924 1.487518 0.139166
v 0.191989 1.550596 0.044571
v 0.210019 1.609075 0.057275
v 0.192286 1.527953 0.148380
v 0.210316 1.586431 0.161084
v 0.347954 1.545997 0.151870
v 0.342516 1.541637 0.089760
v 0.263718 1.252890 0.179822
v 0.258280 1.248529 0.117712
v 0.204878 1.582071 0.098974
v 0.210316 1.586431 0.161084
v 0.120642 1.288964 0.126926
v 0.126080 1.293324 0.189036
v 0.265625 1.437500 0.200000
v 0.265625 1.437500 0.106250
v 0.265625 0.750000 0.200000
v 0.265625 0.750000 0.106250
v -0.265625 1.437500 0.106250
v -0.265625 1.437500 0.200000
v -0.265625 0.750000 0.106250
v -0.265625 0.750000 0.200000
v 0.350871 0.955680 -0.324800
v 0.333617 1.094135 -0.290209
v 0.358469 0.960720 -0.341184
v 0.341214 1.099175 -0.306593
v 0.214664 1.093167 -0.345670
v 0.231918 0.954712 -0.380260
v 0.222262 1.098207 -0.362053
v 0.239516 0.959752 -0.396644
v 0.292089 1.091538 -0.171512
v 0.352609 1.101799 -0.301497
v 0.292780 1.072836 -0.172667
v 0.353300 1.083098 -0.302652
v 0.210999 1.100647 -0.367521
v 0.150478 1.090385 -0.237536
v 0.211689 1.081945 -0.368676
v 0.151169 1.071684 -0.238691
v 0.180553 1.087265 -0.222499
v 0.180553 1.085084 -0.347480
v 0.180553 0.774813 -0.217045
v 0.180553 0.772631 -0.342026
v 0.024303 1.085084 -0.347480
v 0.024303 1.087265 -0.222499
v 0.024303 0.772631 -0.342026
v 0.024303 0.774813 -0.217045
v 0.016498 1.087639 -0.238564
v 0.013226 1.085459 -0.363502
v 0.016498 0.775187 -0.233110
v 0.013226 0.773006 -0.358048
v -0.136722 1.085527 -0.359576
v -0.133450 1.087708 -0.234638
v -0.136722 0.773075 -0.354122
v -0.133450 0.775256 -0.229184
v 0.303085 1.087991 -0.180897
v 0.350920 1.085976 -0.296365
v 0.303085 0.775539 -0.175443
v 0.350920 0.773524 -0.290911
v 0.212338 1.084974 -0.353758
v 0.164503 1.086990 -0.238291
v 0.212338 0.772522 -0.348304
v 0.164503 0.774537 -0.232837
v 0.180553 1.106012 -0.222826
v 0.180553 1.103504 -0.366554
v 0.180553 1.087265 -0.222499
v 0.180553 1.084756 -0.366227
v 0.024303 1.103504 -0.366554
v 0.024303 1.106012 -0.222826
v 0.024303 1.084756 -0.366227
v 0.024303 1.087265 -0.222499
v 0.168053 0.956239 -0.373894
v 0.168053 1.097582 -0.347698
v 0.168053 0.959656 -0.392330
v 0.168053 1.100999 -0.366134
v 0.036803 1.097582 -0.347698
v 0.036803 0.956239 -0.373894
v 0.036803 1.100999 -0.366134
v 0.036803 0.959656 -0.392330
v -0.000697 0.964065 -0.404931
v -0.000697 1.100387 -0.359318
v -0.000697 0.970014 -0.422712
v -0.000697 1.106336 -0.377099
v -0.131947 1.100387 -0.359318
v -0.131947 0.964065 -0.404931
v -0.131947 1.106336 -0.377099
v -0.131947 0.970014 -0.422712
v 0.011803 1.106012 -0.222826
v 0.011803 1.103504 -0.366554
v 0.011803 1.087265 -0.222499
v 0.011803 1.084756 -0.366227
v -0.144447 1.103504 -0.366554
v -0.144447 1.106012 -0.222826
v -0.144447 1.084756 -0.366227
v -0.144447 1.087265 -0.222499
v 0.093750 0.531250 -0.187500
v 0.093750 0.531250 -0.225000
v 0.093750 0.343750 -0.187500
v 0.093750 0.343750 -0.225000
v -0.093750 0.531250 -0.225000
v -0.093750 0.531250 -0.187500
v -0.093750 0.343750 -0.225000
v -0.093750 0.343750 -0.187500
v 0.171875 0.781250 -0.181250
v 0.171875 0.781250 -0.225000
v 0.171875 0.531250 -0.181250
v 0.171875 0.531250 -0.225000
v -0.171875 0.781250 -0.225000
v -0.171875 0.781250 -0.181250
v -0.171875 0.531250 -0.225000
v -0.171875 0.531250 -0.181250
v -0.091036 0.564735 -0.193750
v -0.091036 0.564735 -0.218750
v -0.014499 0.379959 -0.193750
v -0.014499 0.379959 -0.218750
v -0.171875 0.531250 -0.218750
v -0.171875 0.531250 -0.193750
v -0.095338 0.346474 -0.218750
v -0.095338 0.346474 -0.193750
v 0.171875 0.531250 -0.193750
v 0.171875 0.531250 -0.218750
v 0.095338 0.346474 -0.193750
v 0.095338 0.346474 -0.218750
v 0.091036 0.564735 -0.218750
v 0.091036 0.564735 -0.193750
v 0.014499 0.379959 -0.218750
v 0.014499 0.379959 -0.193750
v -0.161682 0.991697 -0.349280
v -0.160013 1.084085 -0.311048
v -0.162186 0.996481 -0.360817
v -0.160517 1.088869 -0.322585
v -0.222453 1.084085 -0.308322
v -0.224123 0.991697 -0.346554
v -0.222957 1.088869 -0.319859
v -0.224626 0.996481 -0.358091
v -0.156244 1.100000 -0.224727
v -0.160606 1.100000 -0.324632
v -0.156244 1.087500 -0.224727
v -0.160606 1.087500 -0.324632
v -0.223047 1.100000 -0.321906
v -0.218685 1.100000 -0.222001
v -0.223047 1.087500 -0.321906
v -0.218685 1.087500 -0.222001
v -0.156250 1.081250 -0.225000
v -0.156250 1.081250 -0.325000
v -0.156250 0.787500 -0.225000
v -0.156250 0.787500 -0.325000
v -0.218750 1.081250 -0.325000
v -0.218750 1.081250 -0.225000
v -0.218750 0.787500 -0.325000
v -0.218750 0.787500 -0.225000
v -0.224694 1.081250 -0.223069
v -0.255596 1.081250 -0.318174
v -0.224694 0.787500 -0.223069
v -0.255596 0.787500 -0.318174
v -0.315037 1.081250 -0.298861
v -0.284135 1.081250 -0.203755
v -0.315037 0.787500 -0.298861
v -0.284135 0.787500 -0.203755
v -0.224694 1.100000 -0.223069
v -0.255596 1.100000 -0.318174
v -0.224694 1.087500 -0.223069
v -0.255596 1.087500 -0.318174
v -0.315037 1.100000 -0.298861
v -0.284135 1.100000 -0.203755
v -0.315037 1.087500 -0.298861
v -0.284135 1.087500 -0.203755
v -0.263220 0.991697 -0.341638
v -0.251394 1.084085 -0.305243
v -0.266788 0.996481 -0.352621
v -0.254963 1.088869 -0.316226
v -0.310835 1.084085 -0.285929
v -0.322661 0.991697 -0.322324
v -0.314404 1.088869 -0.296912
v -0.326229 0.996481 -0.333308
v -0.218581 0.754352 -0.337468
v -0.229748 0.632806 -0.364427
v -0.213929 0.751434 -0.326238
v -0.225096 0.629888 -0.353198
v -0.345233 0.632806 -0.316592
v -0.334066 0.754352 -0.289632
v -0.340581 0.629888 -0.305362
v -0.329414 0.751434 -0.278403
v -0.168340 0.756250 -0.216175
v -0.216175 0.756250 -0.331660
v -0.168340 0.743750 -0.216175
v -0.216175 0.743750 -0.331660
v -0.331660 0.756250 -0.283825
v -0.283825 0.756250 -0.168340
v -0.331660 0.743750 -0.283825
v -0.283825 0.743750 -0.168340
v -0.168340 0.737500 -0.216175
v -0.216175 0.737500 -0.331660
v -0.168340 0.612500 -0.216175
v -0.216175 0.612500 -0.331660
v -0.331660 0.737500 -0.283825
v -0.283825 0.737500 -0.168340
v -0.331660 0.612500 -0.283825
v -0.283825 0.612500 -0.168340
v 0.283825 0.737500 -0.168340
v 0.331660 0.737500 -0.283825
v 0.283825 0.612500 -0.168340
v 0.331660 0.612500 -0.283825
v 0.216175 0.737500 -0.331660
v 0.168340 0.737500 -0.216175
v 0.216175 0.612500 -0.331660
v 0.168340 0.612500 -0.216175
v 0.283825 0.756250 -0.168340
v 0.331660 0.756250 -0.283825
v 0.283825 0.743750 -0.168340
v 0.331660 0.743750 -0.283825
v 0.216175 0.756250 -0.331660
v 0.168340 0.756250 -0.216175
v 0.216175 0.743750 -0.331660
v 0.168340 0.743750 -0.216175
v 0.334066 0.754352 -0.289632
v 0.345233 0.632806 -0.316592
v 0.329414 0.751434 -0.278403
v 0.340581 0.629888 -0.305362
v 0.229748 0.632806 -0.364427
v 0.218581 0.754352 -0.337468
v 0.225096 0.629888 -0.353198
v 0.213929 0.751434 -0.326238
v -0.226933 1.582367 -0.022812
v -0.234745 1.624080 -0.049250
v -0.168864 1.505446 -0.161331
v -0.176675 1.547159 -0.187770
v -0.333115 1.591121 -0.072186
v -0.325304 1.549408 -0.045748
v -0.275046 1.514200 -0.210706
v -0.267234 1.472487 -0.184267
v -0.261966 1.617407 0.019184
v -0.265872 1.638263 0.005964
v -0.225404 1.568975 -0.068032
v -0.229310 1.589832 -0.081251
v -0.289018 1.630508 0.000568
v -0.285112 1.609652 0.013787
v -0.252456 1.582077 -0.086648
v -0.248550 1.561220 -0.073429
v -0.333251 1.706150 0.168440
v -0.335204 1.716578 0.161831
v -0.253674 1.600740 -0.021383
v -0.255627 1.611168 -0.027992
v -0.346777 1.712701 0.159132
v -0.344824 1.702272 0.165742
v -0.267200 1.607290 -0.030691
v -0.265247 1.596862 -0.024081
v -0.103161 1.387458 -0.187500
v -0.103161 1.387458 -0.250000
v -0.075042 1.265661 -0.187500
v -0.075042 1.265661 -0.250000
v -0.182329 1.369180 -0.250000
v -0.182329 1.369180 -0.187500
v -0.154210 1.247384 -0.250000
v -0.154210 1.247384 -0.187500
v 0.125000 0.612500 -0.250000
v 0.125000 0.612500 -0.306250
v 0.125000 0.550000 -0.250000
v 0.125000 0.550000 -0.306250
v -0.125000 0.612500 -0.306250
v -0.125000 0.612500 -0.250000
v -0.125000 0.550000 -0.306250
v -0.125000 0.550000 -0.250000
v -0.081694 0.595083 -0.250000
v -0.081694 0.595083 -0.306250
v -0.125888 0.550888 -0.250000
v -0.125888 0.550888 -0.306250
v -0.125888 0.639277 -0.306250
v -0.125888 0.639277 -0.250000
v -0.170083 0.595083 -0.306250
v -0.170083 0.595083 -0.250000
v 0.168306 0.595083 -0.250000
v 0.168306 0.595083 -0.306250
v 0.124112 0.550888 -0.250000
v 0.124112 0.550888 -0.306250
v 0.124112 0.639277 -0.306250
v 0.124112 0.639277 -0.250000
v 0.079917 0.595083 -0.306250
v 0.079917 0.595083 -0.250000
vn -0.0000 -0.0000 -1.0000
vn 1.0000 -0.0000 -0.0000
vn -0.0000 -0.0000 1.0000
vn -1.0000 -0.0000 -0.0000
vn -0.0000 1.0000 -0.0000
vn -0.0000 -1.0000 -0.0000
vn -0.0000 0.2079 -0.9781
vn -0.0000 -0.2079 0.9781
vn -0.0000 0.9782 0.2079
vn -0.0000 0.9782 0.2078
vn -0.0000 -0.9781 -0.2080
vn -0.0000 0.9781 0.2079
vn -0.0000 -0.9782 -0.2079
vn -0.0000 -0.9781 -0.2079
vn 0.0217 0.2068 -0.9781
vn 0.9579 0.2757 0.0796
vn -0.0217 -0.2068 0.9781
vn -0.9579 -0.2757 -0.0796
vn -0.2861 0.9387 0.1921
vn 0.2861 -0.9387 -0.1921
vn -0.2549 0.9449 -0.2054
vn 0.2549 -0.9449 0.2054
vn -0.1318 0.1765 0.9754
vn 0.1318 -0.1765 -0.9754
vn 0.2885 -0.9357 -0.2033
vn 0.9575 0.2813 0.0641
vn -0.2885 0.9357 0.2033
vn -0.9575 -0.2813 -0.0641
vn 0.0028 0.2131 -0.9770
vn -0.0028 -0.2131 0.9770
vn 0.0870 -0.0698 -0.9938
vn -0.0870 0.0698 0.9938
vn -0.2751 0.9571 -0.0913
vn 0.2751 -0.9571 0.0913
vn -0.0217 0.2068 -0.9781
vn 0.9579 -0.2757 -0.0796
vn 0.0217 -0.2068 0.9781
vn -0.9579 0.2757 0.0796
vn 0.2861 0.9387 0.1921
vn -0.2861 -0.9387 -0.1921
vn 0.2549 0.9449 -0.2054
vn -0.2549 -0.9449 0.2054
vn 0.1318 0.1765 0.9754
vn -0.1318 -0.1765 -0.9754
vn -0.2885 -0.9357 -0.2033
vn 0.9575 -0.2813 -0.0641
vn 0.2885 0.9357 0.2033
vn -0.9575 0.2813 0.0641
vn -0.0028 0.2131 -0.9770
vn 0.0028 -0.2131 0.9770
vn -0.0870 -0.0698 -0.9938
vn 0.0870 0.0698 0.9938
vn 0.2751 0.9571 -0.0913
vn -0.2751 -0.9571 0.0913
vn -0.1200 0.9632 0.2406
vn 0.9063 0.0074 0.4225
vn 0.9063 0.0074 0.4226
vn 0.1200 -0.9632 -0.2406
vn -0.9063 -0.0074 -0.4226
vn -0.4052 -0.2688 0.8738
vn 0.4052 0.2688 -0.8738
vn 0.4210 0.0714 -0.9042
vn -0.4210 -0.0714 0.9042
vn -0.9063 -0.0073 -0.4226
vn -0.0368 0.9974 0.0616
vn 0.0368 -0.9974 -0.0616
vn -0.0000 -0.0175 -0.9998
vn -0.0000 0.0175 0.9998
vn -0.0000 0.9998 -0.0174
vn -0.0000 -0.9998 0.0175
vn -0.0262 -0.0174 -0.9995
vn 0.9997 -0.0005 -0.0262
vn 0.0262 0.0174 0.9995
vn -0.9997 0.0005 0.0262
vn -0.0000 0.9998 -0.0175
vn 0.3827 -0.0161 -0.9237
vn 0.9239 0.0067 0.3826
vn -0.3827 0.0161 0.9237
vn -0.9239 -0.0067 -0.3826
vn -0.0000 -0.9998 0.0174
vn -0.0000 -0.0174 -0.9998
vn -0.0000 0.0174 0.9998
vn -0.0000 0.9833 0.1822
vn -0.0000 -0.9833 -0.1822
vn -0.0000 -0.1822 0.9833
vn -0.0000 0.1822 -0.9833
vn -0.0000 0.9483 0.3173
vn -0.0000 -0.9483 -0.3173
vn -0.0000 -0.3173 0.9483
vn -0.0000 0.3173 -0.9483
vn 0.9239 0.3827 -0.0000
vn -0.9239 -0.3827 -0.0000
vn -0.3827 0.9239 -0.0000
vn 0.3827 -0.9239 -0.0000
vn 0.9239 -0.3827 -0.0000
vn -0.9239 0.3827 -0.0000
vn 0.3827 0.9239 -0.0000
vn -0.3827 -0.9239 -0.0000
vn 0.0167 0.9239 0.3824
vn 0.9990 -0.0000 -0.0436
vn -0.0167 -0.9239 -0.3824
vn -0.9991 -0.0000 0.0436
vn -0.9990 -0.0000 0.0436
vn 0.0403 -0.3827 0.9230
vn -0.0403 0.3827 -0.9230
vn -0.0436 -0.0000 -0.9990
vn 0.0436 -0.0000 0.9990
vn -0.3090 -0.0000 -0.9511
vn 0.9511 -0.0000 -0.3090
vn 0.3090 -0.0000 0.9511
vn -0.9511 -0.0000 0.3090
vn 0.1183 0.9239 0.3640
vn 0.9510 -0.0000 -0.3090
vn -0.1183 -0.9239 -0.3640
vn -0.9510 -0.0000 0.3090
vn 0.2855 -0.3827 0.8787
vn -0.2855 0.3827 -0.8787
vn -0.0893 -0.9724 -0.2157
vn 0.9239 -0.0000 -0.3827
vn 0.0893 0.9724 0.2157
vn -0.9239 -0.0000 0.3827
vn -0.3721 0.2334 -0.8984
vn 0.3721 -0.2334 0.8984
vn -0.3827 -0.0000 -0.9239
vn 0.3827 -0.0000 0.9239
vn 0.3827 -0.0000 -0.9239
vn 0.9239 -0.0000 0.3827
vn -0.3827 -0.0000 0.9239
vn -0.9239 -0.0000 -0.3827
vn 0.0893 -0.9724 -0.2157
vn -0.0893 0.9724 0.2157
vn 0.3721 0.2334 -0.8984
vn -0.3721 -0.2334 0.8984
vn -0.1562 0.8343 -0.5288
vn 0.9258 0.3102 0.2159
vn 0.1562 -0.8343 0.5288
vn -0.9258 -0.3102 -0.2159
vn -0.3441 0.4558 0.8209
vn 0.3441 -0.4558 -0.8209
vn 0.3441 -0.4558 -0.8208
vn -0.1562 0.8343 -0.5287
vn 0.1563 -0.8343 0.5288
vn 0.1563 -0.8342 0.5288
vn 0.3441 -0.4559 -0.8208
vn 0.9744 0.2250 -0.0000
vn -0.9744 -0.2250 -0.0000
vn -0.2250 0.9744 -0.0000
vn 0.2249 -0.9744 -0.0000
vn 0.7071 -0.7071 -0.0000
vn -0.7071 0.7071 -0.0000
vn 0.7071 0.7071 -0.0000
vn -0.7071 -0.7071 -0.0000
vn -0.3441 0.4559 0.8208
vn 0.3442 -0.4558 -0.8209
vt 0.224609 0.593750
vt 0.140625 0.640625
vt 0.140625 0.593750
vt 0.109375 0.343750
vt 0.093750 0.390625
vt 0.093750 0.343750
vt 0.318359 0.593750
vt 0.234375 0.640625
vt 0.234375 0.593750
vt 0.343750 0.343750
vt 0.328125 0.390625
vt 0.328125 0.343750
vt 0.500000 0.875000
vt 0.583984 0.859375
vt 0.583984 0.875000
vt 0.500000 0.500000
vt 0.583984 0.515625
vt 0.583984 0.500000
vt 0.599609 0.382812
vt 0.562500 0.406250
vt 0.562500 0.382812
vt 0.689453 0.507812
vt 0.687500 0.531250
vt 0.687500 0.507812
vt 0.630859 0.414062
vt 0.593750 0.437500
vt 0.593750 0.414062
vt 0.531250 0.289062
vt 0.533203 0.312500
vt 0.531250 0.312500
vt 0.687500 0.656250
vt 0.724609 0.654297
vt 0.724609 0.656250
vt 0.687500 0.638672
vt 0.724609 0.640625
vt 0.724609 0.638672
vt 0.125000 0.703125
vt 0.000000 0.828125
vt 0.000000 0.703125
vt 0.406250 0.765625
vt 0.375000 0.890625
vt 0.375000 0.765625
vt 0.250000 0.703125
vt 0.125000 0.828125
vt 0.406250 0.640625
vt 0.375000 0.640625
vt 0.500000 0.609375
vt 0.500000 0.640625
vt 0.375000 0.578125
vt 0.500000 0.578125
vt 0.250000 0.651367
vt 0.156250 0.703125
vt 0.156250 0.651367
vt 0.359375 0.370117
vt 0.343750 0.421875
vt 0.343750 0.370117
vt 0.343750 0.651367
vt 0.453125 0.370117
vt 0.468750 0.421875
vt 0.453125 0.421875
vt 0.406250 0.656250
vt 0.500000 0.656250
vt 0.593750 0.890625
vt 0.593750 0.875000
vt 0.036133 0.531250
vt 0.000000 0.640625
vt 0.000000 0.531250
vt 0.345703 0.421875
vt 0.328125 0.531250
vt 0.328125 0.421875
vt 0.359375 0.890625
vt 0.395508 1.000000
vt 0.359375 1.000000
vt 0.486328 0.468750
vt 0.468750 0.578125
vt 0.468750 0.468750
vt 0.109375 0.375000
vt 0.145508 0.357422
vt 0.145508 0.375000
vt 0.156250 0.357422
vt 0.192383 0.375000
vt 0.192383 0.357422
vt 0.453125 0.656250
vt 0.489258 0.703125
vt 0.453125 0.703125
vt 0.343750 0.828125
vt 0.328125 0.875000
vt 0.328125 0.828125
vt 0.520508 0.703125
vt 0.484375 0.750000
vt 0.484375 0.703125
vt 0.031250 0.359375
vt 0.046875 0.406250
vt 0.031250 0.406250
vt 0.359375 0.375000
vt 0.395508 0.359375
vt 0.395508 0.375000
vt 0.598633 0.359375
vt 0.562500 0.375000
vt 0.598633 0.375000
vt 0.629883 0.911133
vt 0.593750 0.937500
vt 0.593750 0.911133
vt 0.562500 0.520508
vt 0.546875 0.546875
vt 0.546875 0.520508
vt 0.629883 0.879883
vt 0.593750 0.906250
vt 0.593750 0.879883
vt 0.609375 0.333008
vt 0.593750 0.359375
vt 0.593750 0.333008
vt 0.609375 0.375000
vt 0.645508 0.359375
vt 0.645508 0.375000
vt 0.640625 0.921875
vt 0.676758 0.937500
vt 0.676758 0.921875
vt 0.317383 0.517578
vt 0.281250 0.593750
vt 0.281250 0.517578
vt 0.468750 0.392578
vt 0.484375 0.468750
vt 0.411133 0.501953
vt 0.375000 0.501953
vt 0.484375 0.392578
vt 0.500000 0.468750
vt 0.676758 0.906250
vt 0.640625 0.890625
vt 0.676758 0.890625
vt 0.648438 0.838867
vt 0.609375 0.859375
vt 0.609375 0.838867
vt 0.171875 0.323242
vt 0.189453 0.343750
vt 0.171875 0.343750
vt 0.609375 0.807617
vt 0.648438 0.828125
vt 0.609375 0.828125
vt 0.203125 0.323242
vt 0.220703 0.343750
vt 0.203125 0.343750
vt 0.609375 0.593750
vt 0.648438 0.576172
vt 0.648438 0.593750
vt 0.648438 0.544922
vt 0.609375 0.562500
vt 0.648438 0.562500
vt 0.648438 0.729492
vt 0.609375 0.750000
vt 0.609375 0.729492
vt 0.234375 0.323242
vt 0.251953 0.343750
vt 0.234375 0.343750
vt 0.320312 0.370117
vt 0.281250 0.390625
vt 0.281250 0.370117
vt 0.673828 0.729492
vt 0.656250 0.750000
vt 0.656250 0.729492
vt 0.507812 0.390625
vt 0.468750 0.373047
vt 0.507812 0.373047
vt 0.609375 0.482422
vt 0.648438 0.500000
vt 0.648438 0.482422
vt 0.578125 0.640625
vt 0.562500 0.703125
vt 0.562500 0.640625
vt 0.359375 0.937500
vt 0.281250 1.000000
vt 0.281250 0.937500
vt 0.578125 0.578125
vt 0.562500 0.578125
vt 0.359375 0.875000
vt 0.281250 0.875000
vt 0.328125 0.640625
vt 0.343750 0.562500
vt 0.343750 0.640625
vt 0.468750 0.500000
vt 0.578125 0.515625
vt 0.562500 0.515625
vt 0.078125 0.640625
vt 0.578125 0.437500
vt 0.562500 0.500000
vt 0.562500 0.437500
vt 0.156250 0.640625
vt 0.078125 0.703125
vt 0.515625 0.421875
vt 0.515625 0.500000
vt 0.515625 0.781250
vt 0.531250 0.859375
vt 0.531250 0.781250
vt 0.083008 0.531250
vt 0.046875 0.640625
vt 0.046875 0.531250
vt 0.125000 0.406250
vt 0.142578 0.515625
vt 0.125000 0.515625
vt 0.129883 0.531250
vt 0.093750 0.640625
vt 0.093750 0.531250
vt 0.501953 0.859375
vt 0.484375 0.859375
vt 0.239258 0.375000
vt 0.203125 0.357422
vt 0.239258 0.357422
vt 0.625000 0.763672
vt 0.661133 0.781250
vt 0.661133 0.763672
vt 0.648438 0.698242
vt 0.609375 0.718750
vt 0.609375 0.698242
vt 0.283203 0.323242
vt 0.265625 0.343750
vt 0.265625 0.323242
vt 0.648438 0.666992
vt 0.609375 0.687500
vt 0.609375 0.666992
vt 0.673828 0.698242
vt 0.656250 0.718750
vt 0.656250 0.698242
vt 0.515625 0.390625
vt 0.554688 0.373047
vt 0.554688 0.390625
vt 0.609375 0.451172
vt 0.648438 0.468750
vt 0.648438 0.451172
vt 0.317383 0.468750
vt 0.281250 0.515625
vt 0.281250 0.468750
vt 0.453125 0.359375
vt 0.437500 0.406250
vt 0.437500 0.359375
vt 0.536133 0.890625
vt 0.500000 0.937500
vt 0.500000 0.890625
vt 0.078125 0.390625
vt 0.078125 0.343750
vt 0.640625 0.875000
vt 0.676758 0.875000
vt 0.250000 0.343750
vt 0.286133 0.359375
vt 0.286133 0.343750
vt 0.609375 0.635742
vt 0.648438 0.656250
vt 0.609375 0.656250
vt 0.673828 0.666992
vt 0.656250 0.687500
vt 0.656250 0.666992
vt 0.648438 0.604492
vt 0.609375 0.625000
vt 0.609375 0.604492
vt 0.345703 0.323242
vt 0.328125 0.323242
vt 0.609375 0.406250
vt 0.648438 0.388672
vt 0.648438 0.406250
vt 0.625000 0.982422
vt 0.664062 1.000000
vt 0.664062 0.982422
vt 0.109375 0.379883
vt 0.145508 0.406250
vt 0.109375 0.406250
vt 0.625000 0.359375
vt 0.609375 0.359375
vt 0.390625 0.379883
vt 0.426758 0.406250
vt 0.390625 0.406250
vt 0.625000 0.333008
vt 0.640625 0.359375
vt 0.379883 0.359375
vt 0.379883 0.343750
vt 0.390625 0.343750
vt 0.426758 0.359375
vt 0.426758 0.343750
vt 0.458008 0.501953
vt 0.421875 0.578125
vt 0.421875 0.501953
vt 0.062500 0.376953
vt 0.046875 0.453125
vt 0.046875 0.376953
vt 0.453125 0.861328
vt 0.489258 0.937500
vt 0.453125 0.937500
vt 0.078125 0.376953
vt 0.062500 0.453125
vt 0.473633 0.343750
vt 0.473633 0.359375
vt 0.520508 0.343750
vt 0.484375 0.359375
vt 0.520508 0.359375
vt 0.132812 0.828125
vt 0.000000 1.000000
vt 0.367188 0.703125
vt 0.343750 0.875000
vt 0.343750 0.703125
vt 0.273438 0.828125
vt 0.140625 1.000000
vt 0.140625 0.828125
vt 0.367188 0.531250
vt 0.343750 0.531250
vt 0.406250 1.000000
vt 0.539062 0.976562
vt 0.539062 1.000000
vt 0.406250 0.945312
vt 0.539062 0.968750
vt 0.539062 0.945312
vt 0.705078 0.760742
vt 0.671875 0.765625
vt 0.671875 0.760742
vt 0.708008 0.995117
vt 0.671875 1.000000
vt 0.671875 0.995117
vt 0.671875 0.588867
vt 0.705078 0.593750
vt 0.671875 0.593750
vt 0.708008 0.979492
vt 0.671875 0.984375
vt 0.671875 0.979492
vt 0.314453 0.468750
vt 0.281250 0.432617
vt 0.314453 0.432617
vt 0.515625 0.432617
vt 0.548828 0.468750
vt 0.548828 0.432617
vt 0.695312 0.463867
vt 0.656250 0.468750
vt 0.656250 0.463867
vt 0.708008 0.963867
vt 0.671875 0.968750
vt 0.671875 0.963867
vt 0.585938 0.338867
vt 0.546875 0.343750
vt 0.546875 0.338867
vt 0.671875 0.948242
vt 0.708008 0.953125
vt 0.671875 0.953125
vt 0.398438 0.500000
vt 0.359375 0.463867
vt 0.398438 0.463867
vt 0.500000 0.573242
vt 0.539062 0.609375
vt 0.539062 0.573242
vt 0.445312 0.859375
vt 0.406250 0.937500
vt 0.406250 0.859375
vt 0.484375 0.781250
vt 0.453125 0.859375
vt 0.453125 0.781250
vt 0.179688 0.515625
vt 0.140625 0.515625
vt 0.554688 0.750000
vt 0.554688 0.781250
vt 0.515625 0.468750
vt 0.554688 0.500000
vt 0.554688 0.468750
vt 0.443359 0.781250
vt 0.406250 0.781250
vt 0.031250 0.453125
vt 0.000000 0.453125
vt 0.224609 0.515625
vt 0.187500 0.593750
vt 0.187500 0.515625
vt 0.062500 0.531250
vt 0.031250 0.531250
vt 0.531250 0.812500
vt 0.568359 0.781250
vt 0.568359 0.812500
vt 0.546875 0.921875
vt 0.583984 0.953125
vt 0.583984 0.921875
vt 0.406250 0.703125
vt 0.093750 0.453125
vt 0.234375 0.515625
vt 0.271484 0.593750
vt 0.125000 0.453125
vt 0.078125 0.453125
vt 0.115234 0.421875
vt 0.115234 0.453125
vt 0.546875 0.890625
vt 0.583984 0.890625
vt 0.695312 0.495117
vt 0.656250 0.500000
vt 0.656250 0.495117
vt 0.692383 0.385742
vt 0.656250 0.390625
vt 0.656250 0.385742
vt 0.695312 0.479492
vt 0.656250 0.484375
vt 0.656250 0.479492
vt 0.692383 0.370117
vt 0.656250 0.375000
vt 0.656250 0.370117
vt 0.500000 0.703125
vt 0.539062 0.666992
vt 0.539062 0.703125
vt 0.500000 0.620117
vt 0.539062 0.656250
vt 0.539062 0.620117
vt 0.705078 0.791992
vt 0.671875 0.796875
vt 0.671875 0.791992
vt 0.656250 0.354492
vt 0.692383 0.359375
vt 0.656250 0.359375
vt 0.705078 0.776367
vt 0.671875 0.781250
vt 0.671875 0.776367
vt 0.692383 0.338867
vt 0.656250 0.343750
vt 0.656250 0.338867
vt 0.564453 0.823242
vt 0.564453 0.859375
vt 0.531250 0.713867
vt 0.564453 0.750000
vt 0.564453 0.713867
vt 0.455078 0.323242
vt 0.421875 0.328125
vt 0.421875 0.323242
vt 0.708008 0.870117
vt 0.671875 0.875000
vt 0.671875 0.870117
vt 0.705078 0.573242
vt 0.671875 0.578125
vt 0.671875 0.573242
vt 0.671875 0.854492
vt 0.708008 0.859375
vt 0.671875 0.859375
vt 0.033203 0.416992
vt 0.033203 0.453125
vt 0.546875 0.963867
vt 0.580078 1.000000
vt 0.580078 0.963867
vt 0.695312 0.448242
vt 0.656250 0.453125
vt 0.656250 0.448242
vt 0.708008 0.838867
vt 0.671875 0.843750
vt 0.671875 0.838867
vt 0.695312 0.401367
vt 0.656250 0.406250
vt 0.656250 0.401367
vt 0.708008 0.823242
vt 0.671875 0.828125
vt 0.671875 0.823242
vt 0.406250 0.500000
vt 0.445312 0.463867
vt 0.445312 0.500000
vt 0.500000 0.526367
vt 0.539062 0.562500
vt 0.539062 0.526367
vt 0.281250 0.828125
vt 0.322266 0.312500
vt 0.312500 0.359375
vt 0.312500 0.312500
vt 0.541016 0.312500
vt 0.531250 0.359375
vt 0.546875 0.359375
vt 0.593750 0.349609
vt 0.640625 0.427734
vt 0.687500 0.437500
vt 0.687500 0.427734
vt 0.335938 0.765625
vt 0.250000 0.828125
vt 0.250000 0.765625
vt 0.010742 0.312500
vt 0.000000 0.375000
vt 0.000000 0.312500
vt 0.335938 0.703125
vt 0.026367 0.312500
vt 0.015625 0.375000
vt 0.015625 0.312500
vt 0.578125 0.796875
vt 0.664062 0.786133
vt 0.664062 0.796875
vt 0.578125 0.520508
vt 0.664062 0.531250
vt 0.664062 0.520508
vt 0.156250 0.387695
vt 0.177734 0.437500
vt 0.156250 0.437500
vt 0.662109 0.606445
vt 0.656250 0.656250
vt 0.656250 0.606445
vt 0.208984 0.387695
vt 0.187500 0.437500
vt 0.187500 0.387695
vt 0.365234 0.293945
vt 0.359375 0.343750
vt 0.359375 0.293945
vt 0.546875 0.328125
vt 0.568359 0.322266
vt 0.568359 0.328125
vt 0.578125 0.322266
vt 0.599609 0.328125
vt 0.599609 0.322266
vt 0.240234 0.387695
vt 0.218750 0.437500
vt 0.218750 0.387695
vt 0.380859 0.293945
vt 0.375000 0.343750
vt 0.375000 0.293945
vt 0.250000 0.387695
vt 0.271484 0.437500
vt 0.250000 0.437500
vt 0.396484 0.293945
vt 0.390625 0.293945
vt 0.671875 0.421875
vt 0.693359 0.416016
vt 0.693359 0.421875
vt 0.609375 0.322266
vt 0.630859 0.328125
vt 0.630859 0.322266
vt 0.453125 0.309570
vt 0.437500 0.312500
vt 0.437500 0.309570
vt 0.712891 0.700195
vt 0.687500 0.703125
vt 0.687500 0.700195
vt 0.703125 0.559570
vt 0.687500 0.562500
vt 0.687500 0.559570
vt 0.337891 0.309570
vt 0.312500 0.309570
vt 0.656250 0.875000
vt 0.671875 0.849609
vt 0.140625 0.318359
vt 0.156250 0.343750
vt 0.156250 0.318359
vt 0.468750 0.309570
vt 0.453125 0.312500
vt 0.712891 0.684570
vt 0.687500 0.687500
vt 0.687500 0.684570
vt 0.703125 0.543945
vt 0.687500 0.546875
vt 0.687500 0.543945
vt 0.712891 0.668945
vt 0.687500 0.671875
vt 0.687500 0.668945
vt 0.171875 0.318359
vt 0.656250 0.818359
vt 0.671875 0.818359
vt 0.562500 0.629883
vt 0.546875 0.703125
vt 0.546875 0.629883
vt 0.181641 0.442383
vt 0.156250 0.515625
vt 0.156250 0.442383
vt 0.375000 0.379883
vt 0.359375 0.453125
vt 0.359375 0.379883
vt 0.212891 0.442383
vt 0.187500 0.442383
vt 0.656250 0.333984
vt 0.656250 0.943359
vt 0.671875 0.943359
vt 0.375000 0.453125
vt 0.244141 0.442383
vt 0.218750 0.515625
vt 0.218750 0.442383
vt 0.562500 0.551758
vt 0.546875 0.625000
vt 0.546875 0.551758
vt 0.275391 0.442383
vt 0.250000 0.515625
vt 0.250000 0.442383
vt 0.046875 0.343750
vt 0.062500 0.318359
vt 0.062500 0.343750
vt 0.078125 0.318359
vt 0.359375 0.309570
vt 0.343750 0.312500
vt 0.343750 0.309570
vt 0.712891 0.747070
vt 0.687500 0.750000
vt 0.687500 0.747070
vt 0.703125 0.622070
vt 0.687500 0.625000
vt 0.687500 0.622070
vt 0.712891 0.731445
vt 0.687500 0.734375
vt 0.687500 0.731445
vt 0.093750 0.318359
vt 0.109375 0.318359
vt 0.687500 0.606445
vt 0.703125 0.609375
vt 0.687500 0.609375
vt 0.306641 0.309570
vt 0.281250 0.312500
vt 0.281250 0.309570
vt 0.421875 0.312500
vt 0.421875 0.309570
vt 0.712891 0.715820
vt 0.687500 0.718750
vt 0.687500 0.715820
vt 0.125000 0.318359
vt 0.125000 0.343750
vt 0.140625 0.343750
vt 0.687500 0.903320
vt 0.718750 0.906250
vt 0.687500 0.906250
vt 0.718750 0.887695
vt 0.687500 0.890625
vt 0.687500 0.887695
vt 0.156250 0.309570
vt 0.125000 0.312500
vt 0.125000 0.309570
vt 0.187500 0.309570
vt 0.156250 0.312500
vt 0.578125 0.625000
vt 0.578125 0.562500
vt 0.218750 0.309570
vt 0.187500 0.312500
vt 0.718750 0.809570
vt 0.687500 0.812500
vt 0.687500 0.809570
vt 0.250000 0.309570
vt 0.218750 0.312500
vt 0.250000 0.312500
vt 0.609375 0.531250
vt 0.500000 0.390625
vt 0.531250 0.421875
vt 0.531250 0.390625
vt 0.609375 0.468750
vt 0.578125 0.500000
vt 0.578125 0.468750
vt 0.562500 0.390625
vt 0.609375 0.437500
vt 0.031250 0.375000
vt 0.000000 0.406250
vt 0.593750 1.000000
vt 0.625000 0.968750
vt 0.625000 1.000000
vt 0.625000 0.937500
vt 0.593750 0.406250
vt 0.109375 0.390625
vt 0.078125 0.421875
vt 0.578125 0.859375
vt 0.578125 0.828125
vt 0.609375 0.796875
vt 0.578125 0.750000
vt 0.312500 0.390625
vt 0.281250 0.421875
vt 0.312500 0.421875
vt 0.671875 0.325195
vt 0.640625 0.328125
vt 0.640625 0.325195
vt 0.703125 0.325195
vt 0.671875 0.328125
vt 0.031250 0.309570
vt 0.000000 0.309570
vt 0.062500 0.309570
vt 0.031250 0.312500
vt 0.578125 0.718750
vt 0.343750 0.390625
vt 0.093750 0.309570
vt 0.062500 0.312500
vt 0.687500 0.934570
vt 0.718750 0.937500
vt 0.687500 0.937500
vt 0.687500 0.918945
vt 0.718750 0.921875
vt 0.687500 0.921875
vt 0.093750 0.312500
vt 0.578125 0.656250
vt 0.416992 0.411133
vt 0.390625 0.453125
vt 0.390625 0.411133
vt 0.043945 0.317383
vt 0.031250 0.317383
vt 0.421875 0.411133
vt 0.448242 0.453125
vt 0.421875 0.453125
vt 0.309570 0.317383
vt 0.296875 0.359375
vt 0.296875 0.317383
vt 0.250000 0.375000
vt 0.276367 0.362305
vt 0.276367 0.375000
vt 0.432617 0.362305
vt 0.406250 0.375000
vt 0.432617 0.375000
vt 0.677734 0.536133
vt 0.671875 0.562500
vt 0.671875 0.536133
vt 0.468750 0.301758
vt 0.474609 0.328125
vt 0.468750 0.328125
vt 0.677734 0.504883
vt 0.671875 0.531250
vt 0.671875 0.504883
vt 0.484375 0.301758
vt 0.490234 0.328125
vt 0.484375 0.328125
vt 0.546875 0.312500
vt 0.552734 0.306641
vt 0.552734 0.312500
vt 0.562500 0.306641
vt 0.568359 0.312500
vt 0.568359 0.306641
vt 0.500000 0.286133
vt 0.502930 0.343750
vt 0.500000 0.343750
vt 0.518555 0.286133
vt 0.515625 0.343750
vt 0.515625 0.286133
vt 0.674805 0.598633
vt 0.671875 0.656250
vt 0.671875 0.598633
vt 0.409180 0.270508
vt 0.406250 0.328125
vt 0.406250 0.270508
vt 0.690430 0.434570
vt 0.690430 0.437500
vt 0.581055 0.309570
vt 0.578125 0.312500
vt 0.581055 0.312500
vt 0.645508 0.937500
vt 0.328125 0.562500
vt 0.067383 0.343750
vt 0.046875 0.375000
vt 0.375000 0.500000
vt 0.359375 0.531250
vt 0.359375 0.500000
vt 0.640625 0.421875
vt 0.661133 0.406250
vt 0.661133 0.421875
vt 0.656250 0.796875
vt 0.676758 0.812500
vt 0.676758 0.796875
vt 0.625000 0.765625
vt 0.562500 0.781250
vt 0.562500 0.765625
vt 0.669922 0.578125
vt 0.656250 0.593750
vt 0.656250 0.578125
vt 0.625000 0.750000
vt 0.562500 0.750000
vt 0.435547 0.328125
vt 0.421875 0.343750
vt 0.656250 0.861328
vt 0.593750 0.501953
vt 0.656250 0.515625
vt 0.656250 0.501953
vt 0.669922 0.562500
vt 0.656250 0.562500
vt 0.125000 0.531250
vt 0.451172 0.328125
vt 0.437500 0.343750
vt 0.437500 0.328125
vt 0.671875 0.548828
vt 0.453125 0.330078
vt 0.468750 0.343750
vt 0.468750 0.330078
vt 0.125000 0.421875
vt 0.109375 0.421875
vt 0.669922 0.531250
vt 0.656250 0.546875
vt 0.656250 0.531250
vt 0.406250 0.343750
vt 0.482422 0.328125
vt 0.484375 0.343750
vt 0.500000 0.330078
vt 0.671875 0.515625
vt 0.671875 0.501953
vt 0.224609 0.640625
vt 0.318359 0.640625
vt 0.500000 0.859375
vt 0.500000 0.515625
vt 0.599609 0.406250
vt 0.689453 0.531250
vt 0.630859 0.437500
vt 0.533203 0.289062
vt 0.687500 0.654297
vt 0.687500 0.640625
vt 0.406250 0.890625
vt 0.375000 0.609375
vt 0.359375 0.421875
vt 0.468750 0.370117
vt 0.036133 0.640625
vt 0.345703 0.531250
vt 0.395508 0.890625
vt 0.486328 0.578125
vt 0.109375 0.357422
vt 0.156250 0.375000
vt 0.489258 0.656250
vt 0.520508 0.750000
vt 0.046875 0.359375
vt 0.359375 0.359375
vt 0.562500 0.359375
vt 0.629883 0.937500
vt 0.562500 0.546875
vt 0.629883 0.906250
vt 0.640625 0.937500
vt 0.317383 0.593750
vt 0.411133 0.578125
vt 0.500000 0.392578
vt 0.640625 0.906250
vt 0.648438 0.859375
vt 0.189453 0.323242
vt 0.648438 0.807617
vt 0.220703 0.323242
vt 0.609375 0.576172
vt 0.609375 0.544922
vt 0.648438 0.750000
vt 0.251953 0.323242
vt 0.320312 0.390625
vt 0.673828 0.750000
vt 0.468750 0.390625
vt 0.609375 0.500000
vt 0.578125 0.703125
vt 0.453125 0.500000
vt 0.500000 0.421875
vt 0.515625 0.859375
vt 0.083008 0.640625
vt 0.142578 0.406250
vt 0.129883 0.640625
vt 0.501953 0.750000
vt 0.203125 0.375000
vt 0.625000 0.781250
vt 0.648438 0.718750
vt 0.283203 0.343750
vt 0.648438 0.687500
vt 0.673828 0.718750
vt 0.515625 0.373047
vt 0.317383 0.515625
vt 0.453125 0.406250
vt 0.536133 0.937500
vt 0.250000 0.359375
vt 0.648438 0.635742
vt 0.673828 0.687500
vt 0.648438 0.625000
vt 0.345703 0.343750
vt 0.609375 0.388672
vt 0.145508 0.379883
vt 0.426758 0.379883
vt 0.640625 0.333008
vt 0.343750 0.359375
vt 0.390625 0.359375
vt 0.458008 0.578125
vt 0.489258 0.861328
vt 0.132812 1.000000
vt 0.367188 0.875000
vt 0.273438 1.000000
vt 0.406250 0.976562
vt 0.406250 0.968750
vt 0.705078 0.765625
vt 0.708008 1.000000
vt 0.705078 0.588867
vt 0.708008 0.984375
vt 0.695312 0.468750
vt 0.708008 0.968750
vt 0.585938 0.343750
vt 0.708008 0.948242
vt 0.445312 0.937500
vt 0.179688 0.593750
vt 0.515625 0.750000
vt 0.443359 0.859375
vt 0.546875 0.953125
vt 0.443359 0.703125
vt 0.271484 0.515625
vt 0.695312 0.500000
vt 0.692383 0.390625
vt 0.695312 0.484375
vt 0.692383 0.375000
vt 0.500000 0.666992
vt 0.705078 0.796875
vt 0.692383 0.354492
vt 0.705078 0.781250
vt 0.692383 0.343750
vt 0.531250 0.823242
vt 0.531250 0.750000
vt 0.455078 0.328125
vt 0.708008 0.875000
vt 0.705078 0.578125
vt 0.708008 0.854492
vt 0.000000 0.416992
vt 0.546875 1.000000
vt 0.695312 0.453125
vt 0.708008 0.843750
vt 0.695312 0.406250
vt 0.708008 0.828125
vt 0.406250 0.463867
vt 0.500000 0.562500
vt 0.322266 0.359375
vt 0.541016 0.359375
vt 0.546875 0.349609
vt 0.640625 0.437500
vt 0.335938 0.828125
vt 0.010742 0.375000
vt 0.026367 0.375000
vt 0.578125 0.786133
vt 0.578125 0.531250
vt 0.177734 0.387695
vt 0.662109 0.656250
vt 0.208984 0.437500
vt 0.365234 0.343750
vt 0.546875 0.322266
vt 0.578125 0.328125
vt 0.240234 0.437500
vt 0.380859 0.343750
vt 0.271484 0.387695
vt 0.396484 0.343750
vt 0.671875 0.416016
vt 0.609375 0.328125
vt 0.712891 0.703125
vt 0.703125 0.562500
vt 0.337891 0.312500
vt 0.656250 0.849609
vt 0.468750 0.312500
vt 0.712891 0.687500
vt 0.703125 0.546875
vt 0.712891 0.671875
vt 0.656250 0.843750
vt 0.181641 0.515625
vt 0.212891 0.515625
vt 0.640625 0.333984
vt 0.656250 0.968750
vt 0.244141 0.515625
vt 0.562500 0.625000
vt 0.275391 0.515625
vt 0.046875 0.318359
vt 0.359375 0.312500
vt 0.712891 0.750000
vt 0.703125 0.625000
vt 0.712891 0.734375
vt 0.703125 0.606445
vt 0.306641 0.312500
vt 0.712891 0.718750
vt 0.718750 0.903320
vt 0.718750 0.890625
vt 0.578125 0.593750
vt 0.718750 0.812500
vt 0.562500 0.421875
vt 0.593750 0.968750
vt 0.703125 0.328125
vt 0.578125 0.687500
vt 0.718750 0.934570
vt 0.718750 0.918945
vt 0.416992 0.453125
vt 0.043945 0.359375
vt 0.448242 0.411133
vt 0.309570 0.359375
vt 0.250000 0.362305
vt 0.406250 0.362305
vt 0.677734 0.562500
vt 0.474609 0.301758
vt 0.677734 0.531250
vt 0.490234 0.301758
vt 0.546875 0.306641
vt 0.562500 0.312500
vt 0.502930 0.286133
vt 0.518555 0.343750
vt 0.674805 0.656250
vt 0.409180 0.328125
vt 0.687500 0.434570
vt 0.578125 0.309570
vt 0.645508 0.968750
vt 0.067383 0.375000
vt 0.375000 0.531250
vt 0.640625 0.406250
vt 0.656250 0.812500
vt 0.669922 0.593750
vt 0.435547 0.343750
vt 0.593750 0.861328
vt 0.593750 0.515625
vt 0.375000 0.875000
vt 0.140625 0.531250
vt 0.451172 0.343750
vt 0.656250 0.548828
vt 0.453125 0.343750
vt 0.669922 0.546875
vt 0.482422 0.343750
vt 0.484375 0.330078
s 1
usemtl m_bd9df8bb-a99e-c4e8-cb5b-21eaf52d3440
f 7/1/1 2/2/1 4/3/1
f 4/4/2 1/5/2 3/6/2
f 3/7/3 6/8/3 8/9/3
f 8/10/4 5/11/4 7/12/4
f 1/13/5 5/14/5 6/15/5
f 4/16/6 8/17/6 7/18/6
f 15/19/7 10/20/7 12/21/7
f 12/22/2 9/23/2 11/24/2
f 11/25/8 14/26/8 16/27/8
f 15/28/4 14/29/4 13/30/4
f 9/31/9 13/32/10 14/33/10
f 12/34/11 16/35/11 15/36/11
f 23/37/1 18/38/1 20/39/1
f 20/40/2 17/41/2 19/42/2
f 19/43/3 22/44/3 24/37/3
f 24/45/4 21/42/4 23/46/4
f 17/46/5 21/47/5 22/48/5
f 20/49/6 24/47/6 23/50/6
f 31/51/7 26/52/7 28/53/7
f 28/54/2 25/55/2 27/56/2
f 27/57/8 30/43/8 32/51/8
f 31/58/4 30/59/4 29/60/4
f 25/61/12 29/48/12 30/62/12
f 28/13/13 32/63/14 31/64/14
f 39/65/15 34/66/15 36/67/15
f 36/68/16 33/69/16 35/70/16
f 40/71/17 33/72/17 38/73/17
f 40/74/18 37/75/18 39/76/18
f 33/77/19 37/78/19 38/79/19
f 36/80/20 40/81/20 39/82/20
f 44/83/21 45/84/21 42/85/21
f 44/86/16 41/87/16 43/88/16
f 43/89/22 46/90/22 48/91/22
f 47/92/18 46/93/18 45/94/18
f 41/95/23 45/96/23 46/97/23
f 47/98/24 43/99/24 48/100/24
f 55/101/25 50/102/25 52/103/25
f 52/104/26 49/105/26 51/106/26
f 51/107/27 54/108/27 56/109/27
f 56/110/28 53/111/28 55/112/28
f 49/113/29 53/114/29 54/115/29
f 52/116/30 56/117/30 55/118/30
f 63/119/31 58/120/31 60/121/31
f 59/122/26 58/123/26 57/76/26
f 59/124/32 62/49/32 64/125/32
f 63/126/28 62/127/28 61/123/28
f 57/116/33 61/128/33 62/118/33
f 60/129/34 64/128/34 63/130/34
f 71/131/21 66/132/21 68/133/21
f 67/134/16 66/135/16 65/136/16
f 72/137/22 65/138/22 70/139/22
f 71/140/18 70/141/18 69/142/18
f 65/143/23 69/144/23 70/145/23
f 71/146/24 67/147/24 72/148/24
f 79/149/21 74/150/21 76/151/21
f 75/152/16 74/153/16 73/154/16
f 75/155/22 78/156/22 80/157/22
f 80/158/18 77/159/18 79/160/18
f 78/161/23 74/162/23 77/163/23
f 76/164/24 80/165/24 79/166/24
f 87/167/1 82/168/1 84/169/1
f 84/170/2 81/171/2 83/172/2
f 83/173/3 86/169/3 88/174/3
f 88/175/4 85/172/4 87/176/4
f 81/177/5 85/178/5 86/179/5
f 84/60/6 88/180/6 87/59/6
f 95/181/1 90/174/1 92/182/1
f 92/183/2 89/39/2 91/66/2
f 91/184/3 94/185/3 96/186/3
f 96/187/4 93/188/4 95/183/4
f 89/16/5 93/189/5 94/190/5
f 92/191/6 96/192/6 95/193/6
f 103/194/35 98/195/35 100/196/35
f 99/197/36 98/198/36 97/199/36
f 99/200/37 102/201/37 104/202/37
f 103/90/38 102/203/38 101/204/38
f 102/205/39 98/206/39 101/207/39
f 100/208/40 104/209/40 103/210/40
f 111/211/41 106/212/41 108/213/41
f 108/214/36 105/215/36 107/216/36
f 107/217/42 110/218/42 112/219/42
f 112/220/38 109/221/38 111/222/38
f 105/223/43 109/224/43 110/225/43
f 108/226/44 112/227/44 111/228/44
f 119/229/41 114/230/41 116/231/41
f 116/232/36 113/233/36 115/234/36
f 115/235/42 118/236/42 120/237/42
f 120/6/38 117/238/38 119/239/38
f 118/130/43 114/240/43 117/241/43
f 116/242/44 120/243/44 119/244/44
f 124/245/41 125/246/41 122/247/41
f 124/248/36 121/249/36 123/250/36
f 123/251/42 126/252/42 128/253/42
f 128/254/38 125/12/38 127/255/38
f 121/256/43 125/257/43 126/258/43
f 124/259/44 128/260/44 127/261/44
f 132/262/45 133/263/45 130/264/45
f 131/110/46 130/265/46 129/266/46
f 136/267/47 129/268/47 134/269/47
f 135/270/48 134/271/48 133/265/48
f 134/272/49 130/10/49 133/273/49
f 132/274/50 136/275/50 135/276/50
f 143/277/51 138/278/51 140/279/51
f 140/280/46 137/281/46 139/282/46
f 144/283/52 137/284/52 142/285/52
f 144/286/48 141/287/48 143/280/48
f 137/234/53 141/288/53 142/289/53
f 143/290/54 139/291/54 144/292/54
f 151/293/1 146/294/1 148/38/1
f 148/295/2 145/296/2 147/297/2
f 147/298/3 150/299/3 152/300/3
f 152/301/4 149/297/4 151/302/4
f 145/303/5 149/304/5 150/305/5
f 148/306/6 152/307/6 151/308/6
f 159/309/55 154/310/55 156/311/55
f 156/312/56 153/313/57 155/314/57
f 160/315/58 153/316/58 158/317/58
f 160/318/59 157/319/59 159/320/59
f 158/321/60 154/322/60 157/323/60
f 156/324/61 160/325/61 159/326/61
f 167/327/62 162/328/62 164/329/62
f 164/330/57 161/331/57 163/332/57
f 163/333/63 166/334/63 168/335/63
f 167/336/64 166/337/59 165/338/64
f 166/339/65 162/340/65 165/341/65
f 164/342/66 168/343/66 167/344/66
f 175/345/67 170/346/67 172/347/67
f 172/348/2 169/349/2 171/350/2
f 171/351/68 174/3/68 176/352/68
f 176/91/4 173/350/4 175/85/4
f 169/191/69 173/353/69 174/354/69
f 172/355/70 176/356/70 175/357/70
f 183/358/71 178/347/71 180/359/71
f 180/360/72 177/67/72 179/361/72
f 179/362/73 182/363/73 184/364/73
f 183/360/74 182/365/74 181/366/74
f 177/367/69 181/368/75 182/369/75
f 180/370/70 184/371/70 183/372/70
f 188/373/76 189/358/76 186/359/76
f 188/374/77 185/365/77 187/287/77
f 192/375/78 185/376/78 190/9/78
f 192/377/79 189/202/79 191/374/79
f 185/378/75 189/379/75 190/380/75
f 188/381/80 192/372/80 191/382/80
f 199/383/81 194/384/81 196/385/81
f 196/386/2 193/387/2 195/388/2
f 195/389/82 198/390/82 200/391/82
f 200/392/4 197/393/4 199/394/4
f 193/395/69 197/396/69 198/397/69
f 196/398/70 200/399/70 199/400/70
f 207/401/83 202/402/83 204/403/83
f 203/404/2 202/405/2 201/406/2
f 203/407/84 206/408/84 208/409/84
f 208/410/4 205/411/4 207/412/4
f 201/192/85 205/413/85 206/414/85
f 204/415/86 208/416/86 207/417/86
f 215/418/87 210/419/87 212/420/87
f 212/421/2 209/422/2 211/423/2
f 211/424/88 214/425/88 216/426/88
f 215/427/4 214/428/4 213/429/4
f 209/361/89 213/430/89 214/431/89
f 212/432/90 216/433/90 215/434/90
f 223/435/81 218/436/81 220/437/81
f 220/438/2 217/439/2 219/440/2
f 219/441/82 222/442/82 224/443/82
f 224/444/4 221/445/4 223/446/4
f 217/447/69 221/448/69 222/449/69
f 220/450/70 224/451/70 223/452/70
f 231/88/1 226/176/1 228/453/1
f 228/454/2 225/455/2 227/456/2
f 227/83/3 230/373/3 232/61/3
f 232/457/4 229/458/4 231/30/4
f 225/459/5 229/460/5 230/111/5
f 228/461/6 232/462/6 231/463/6
f 239/464/1 234/465/1 236/466/1
f 236/467/2 233/468/2 235/469/2
f 235/470/3 238/466/3 240/43/3
f 240/471/4 237/472/4 239/473/4
f 233/474/5 237/475/5 238/476/5
f 236/477/6 240/478/6 239/479/6
f 244/480/1 245/481/1 242/482/1
f 244/483/91 241/484/91 243/485/91
f 243/486/3 246/487/3 248/488/3
f 248/489/92 245/490/92 247/491/92
f 241/492/93 245/493/93 246/494/93
f 244/495/94 248/496/94 247/497/94
f 255/498/1 250/499/1 252/500/1
f 252/501/95 249/502/95 251/503/95
f 256/504/3 249/505/3 254/506/3
f 256/507/96 253/274/96 255/508/96
f 249/509/97 253/510/97 254/511/97
f 252/512/98 256/513/98 255/514/98
f 263/515/99 258/516/99 260/517/99
f 260/518/100 257/519/100 259/520/100
f 259/521/101 262/522/101 264/523/101
f 264/524/102 261/456/103 263/525/103
f 257/526/104 261/527/104 262/422/104
f 260/528/105 264/529/105 263/530/105
f 271/531/106 266/532/106 268/515/106
f 268/533/100 265/534/100 267/535/100
f 267/536/107 270/537/107 272/538/107
f 272/539/103 269/540/103 271/541/103
f 265/529/5 269/542/5 270/136/5
f 268/543/6 272/439/6 271/544/6
f 279/545/1 274/546/1 276/547/1
f 276/548/2 273/549/2 275/550/2
f 275/551/3 278/552/3 280/553/3
f 280/554/4 277/364/4 279/555/4
f 273/271/5 277/556/5 278/406/5
f 276/557/6 280/331/6 279/558/6
f 287/267/108 282/559/108 284/551/108
f 284/560/109 281/561/109 283/562/109
f 283/563/110 286/564/110 288/565/110
f 288/566/111 285/567/111 287/568/111
f 281/569/5 285/570/5 286/571/5
f 284/570/6 288/239/6 287/572/6
f 295/573/108 290/574/108 292/575/108
f 292/576/109 289/577/109 291/578/109
f 291/579/110 294/580/110 296/581/110
f 296/582/111 293/583/111 295/584/111
f 289/239/5 293/585/5 294/6/5
f 292/585/6 296/4/6 295/586/6
f 300/587/112 301/588/112 298/589/112
f 300/590/113 297/591/109 299/592/109
f 299/517/114 302/593/114 304/594/114
f 304/595/111 301/596/111 303/597/115
f 297/4/116 301/598/116 302/599/116
f 303/528/117 299/599/117 304/600/117
f 308/601/118 309/602/118 306/603/118
f 308/604/119 305/605/119 307/606/119
f 307/607/120 310/608/120 312/609/120
f 312/610/121 309/611/121 311/607/121
f 305/612/122 309/143/122 310/252/122
f 308/613/123 312/143/123 311/147/123
f 319/614/124 314/615/124 316/610/124
f 316/616/119 313/617/119 315/618/119
f 315/619/125 318/620/125 320/614/125
f 320/592/121 317/621/121 319/619/121
f 313/613/5 317/622/5 318/147/5
f 316/623/6 320/624/6 319/625/6
f 327/626/124 322/627/124 324/628/124
f 324/629/119 321/624/119 323/625/119
f 323/630/125 326/628/125 328/184/125
f 328/631/121 325/632/121 327/468/121
f 321/633/5 325/634/5 326/635/5
f 324/102/6 328/634/6 327/636/6
f 335/637/126 330/186/126 332/20/126
f 332/638/127 329/639/127 331/238/127
f 331/139/128 334/640/128 336/641/128
f 336/642/129 333/641/129 335/474/129
f 329/643/5 333/212/5 334/150/5
f 335/644/6 331/645/6 336/646/6
f 343/647/126 338/648/126 340/649/126
f 340/650/127 337/651/127 339/647/127
f 339/652/128 342/469/128 344/653/128
f 344/654/129 341/655/129 343/652/129
f 337/656/5 341/218/5 342/212/5
f 343/657/6 339/646/6 344/55/6
f 351/658/130 346/659/130 348/654/130
f 347/660/127 346/661/127 345/662/127
f 352/663/131 345/664/131 350/665/131
f 351/658/129 350/608/129 349/666/129
f 350/218/132 346/667/132 349/247/132
f 348/612/133 352/247/133 351/252/133
f 359/668/134 354/669/134 356/670/134
f 356/671/135 353/92/135 355/672/135
f 360/673/136 353/674/136 358/675/136
f 360/676/137 357/677/137 359/678/137
f 353/679/138 357/680/138 358/681/138
f 359/682/139 355/683/140 360/684/139
f 367/685/134 362/686/134 364/687/134
f 363/688/135 362/689/135 361/690/135
f 363/691/136 366/692/136 368/693/136
f 367/694/137 366/695/137 365/696/137
f 361/697/138 365/698/138 366/699/138
f 364/700/139 368/701/139 367/702/139
f 372/703/134 373/704/141 370/705/141
f 372/706/135 369/707/135 371/708/135
f 371/709/142 374/710/143 376/711/142
f 376/712/137 373/713/137 375/714/137
f 369/462/138 373/715/138 374/716/138
f 375/717/139 371/718/139 376/719/144
f 383/720/1 378/634/1 380/636/1
f 380/302/145 377/721/145 379/69/145
f 379/722/3 382/723/3 384/569/3
f 384/724/146 381/725/146 383/726/146
f 377/727/147 381/728/147 382/729/147
f 380/730/148 384/731/148 383/732/148
f 391/733/1 386/734/1 388/735/1
f 388/736/2 385/737/2 387/738/2
f 387/739/3 390/735/3 392/740/3
f 392/741/4 389/742/4 391/419/4
f 385/64/5 389/743/5 390/526/5
f 388/744/6 392/745/6 391/746/6
f 396/175/1 397/41/1 394/71/1
f 396/747/149 393/738/149 395/748/149
f 395/352/3 398/749/3 400/199/3
f 400/750/150 397/751/150 399/752/150
f 393/748/151 397/753/151 398/686/151
f 396/754/152 400/755/152 399/756/152
f 404/264/1 405/757/1 402/758/1
f 404/759/149 401/760/149 403/761/149
f 403/419/3 406/762/3 408/713/3
f 408/763/150 405/755/150 407/690/150
f 401/764/151 405/765/151 406/705/151
f 404/746/152 408/766/152 407/767/152
f 7/1/1 5/768/1 2/2/1
f 4/4/2 2/638/2 1/5/2
f 3/7/3 1/769/3 6/8/3
f 8/10/4 6/657/4 5/11/4
f 1/13/5 2/770/5 5/14/5
f 4/16/6 3/771/6 8/17/6
f 15/19/7 13/772/7 10/20/7
f 12/22/2 10/773/2 9/23/2
f 11/25/8 9/774/8 14/26/8
f 15/28/4 16/775/4 14/29/4
f 9/31/9 10/776/9 13/32/10
f 12/34/11 11/777/11 16/35/11
f 23/37/1 21/44/1 18/38/1
f 20/40/2 18/778/2 17/41/2
f 19/43/3 17/465/3 22/44/3
f 24/45/4 22/40/4 21/42/4
f 17/46/5 18/779/5 21/47/5
f 20/49/6 19/779/6 24/47/6
f 31/51/7 29/43/7 26/52/7
f 28/54/2 26/780/2 25/55/2
f 27/57/8 25/297/8 30/43/8
f 31/58/4 32/781/4 30/59/4
f 25/61/12 26/45/12 29/48/12
f 28/13/13 27/237/13 32/63/14
f 39/65/15 37/782/15 34/66/15
f 36/68/16 34/783/16 33/69/16
f 40/71/17 35/784/17 33/72/17
f 40/74/18 38/785/18 37/75/18
f 33/77/19 34/786/19 37/78/19
f 36/80/20 35/787/20 40/81/20
f 44/83/21 47/788/21 45/84/21
f 44/86/16 42/296/16 41/87/16
f 43/89/22 41/789/22 46/90/22
f 47/92/18 48/790/18 46/93/18
f 41/95/23 42/791/23 45/96/23
f 47/98/24 44/792/24 43/99/24
f 55/101/25 53/793/25 50/102/25
f 52/104/26 50/794/26 49/105/26
f 51/107/27 49/795/27 54/108/27
f 56/110/28 54/266/28 53/111/28
f 49/113/29 50/266/29 53/114/29
f 52/116/30 51/796/30 56/117/30
f 63/119/31 61/797/31 58/120/31
f 59/122/26 60/126/26 58/123/26
f 59/124/32 57/798/32 62/49/32
f 63/126/28 64/799/28 62/127/28
f 57/116/33 58/800/33 61/128/33
f 60/129/34 59/800/34 64/128/34
f 71/131/21 69/801/21 66/132/21
f 67/134/16 68/802/16 66/135/16
f 72/137/22 67/803/22 65/138/22
f 71/140/18 72/804/18 70/141/18
f 65/143/23 66/805/23 69/144/23
f 71/146/24 68/806/24 67/147/24
f 79/149/21 77/807/21 74/150/21
f 75/152/16 76/808/16 74/153/16
f 75/155/22 73/809/22 78/156/22
f 80/158/18 78/810/18 77/159/18
f 78/161/23 73/811/23 74/162/23
f 76/164/24 75/812/24 80/165/24
f 87/167/1 85/813/1 82/168/1
f 84/170/2 82/73/2 81/171/2
f 83/173/3 81/167/3 86/169/3
f 88/175/4 86/170/4 85/172/4
f 81/177/5 82/721/5 85/178/5
f 84/60/6 83/814/6 88/180/6
f 95/181/1 93/173/1 90/174/1
f 92/183/2 90/188/2 89/39/2
f 91/184/3 89/627/3 94/185/3
f 96/187/4 94/52/4 93/188/4
f 89/16/5 90/815/5 93/189/5
f 92/191/6 91/816/6 96/192/6
f 103/194/35 101/817/35 98/195/35
f 99/197/36 100/818/36 98/198/36
f 99/200/37 97/819/37 102/201/37
f 103/90/38 104/820/38 102/203/38
f 102/205/39 97/821/39 98/206/39
f 100/208/40 99/822/40 104/209/40
f 111/211/41 109/823/41 106/212/41
f 108/214/36 106/824/36 105/215/36
f 107/217/42 105/825/42 110/218/42
f 112/220/38 110/826/38 109/221/38
f 105/223/43 106/827/43 109/224/43
f 108/226/44 107/626/44 112/227/44
f 119/229/41 117/828/41 114/230/41
f 116/232/36 114/829/36 113/233/36
f 115/235/42 113/830/42 118/236/42
f 120/6/38 118/5/38 117/238/38
f 118/130/43 113/129/43 114/240/43
f 116/242/44 115/831/44 120/243/44
f 124/245/41 127/832/41 125/246/41
f 124/248/36 122/833/36 121/249/36
f 123/251/42 121/834/42 126/252/42
f 128/254/38 126/835/38 125/12/38
f 121/256/43 122/836/43 125/257/43
f 124/259/44 123/635/44 128/260/44
f 132/262/45 135/837/45 133/263/45
f 131/110/46 132/270/46 130/265/46
f 136/267/47 131/838/47 129/268/47
f 135/270/48 136/839/48 134/271/48
f 134/272/49 129/840/49 130/10/49
f 132/274/50 131/841/50 136/275/50
f 143/277/51 141/842/51 138/278/51
f 140/280/46 138/287/46 137/281/46
f 144/283/52 139/843/52 137/284/52
f 144/286/48 142/378/48 141/287/48
f 137/234/53 138/751/53 141/288/53
f 143/290/54 140/764/54 139/291/54
f 151/293/1 149/844/1 146/294/1
f 148/295/2 146/845/2 145/296/2
f 147/298/3 145/846/3 150/299/3
f 152/301/4 150/295/4 149/297/4
f 145/303/5 146/847/5 149/304/5
f 148/306/6 147/848/6 152/307/6
f 159/309/55 157/849/55 154/310/55
f 156/312/56 154/850/56 153/313/57
f 160/315/58 155/851/58 153/316/58
f 160/318/59 158/852/59 157/319/59
f 158/321/60 153/231/60 154/322/60
f 156/324/61 155/355/61 160/325/61
f 167/327/62 165/853/62 162/328/62
f 164/330/57 162/854/57 161/331/57
f 163/333/63 161/855/63 166/334/63
f 167/336/64 168/856/59 166/337/59
f 166/339/65 161/726/65 162/340/65
f 164/342/66 163/47/66 168/343/66
f 175/345/67 173/857/67 170/346/67
f 172/348/2 170/204/2 169/349/2
f 171/351/68 169/858/68 174/3/68
f 176/91/4 174/348/4 173/350/4
f 169/191/69 170/859/69 173/353/69
f 172/355/70 171/190/70 176/356/70
f 183/358/71 181/860/71 178/347/71
f 180/360/72 178/366/72 177/67/72
f 179/362/73 177/1/73 182/363/73
f 183/360/74 184/287/74 182/365/74
f 177/367/69 178/193/69 181/368/75
f 180/370/70 179/861/70 184/371/70
f 188/373/76 191/862/76 189/358/76
f 188/374/77 186/202/77 185/365/77
f 192/375/78 187/863/78 185/376/78
f 192/377/79 190/749/79 189/202/79
f 185/378/75 186/639/69 189/379/75
f 188/381/80 187/370/80 192/372/80
f 199/383/81 197/864/81 194/384/81
f 196/386/2 194/865/2 193/387/2
f 195/389/82 193/866/82 198/390/82
f 200/392/4 198/867/4 197/393/4
f 193/395/69 194/868/69 197/396/69
f 196/398/70 195/62/70 200/399/70
f 207/401/83 205/869/83 202/402/83
f 203/404/2 204/870/2 202/405/2
f 203/407/84 201/871/84 206/408/84
f 208/410/4 206/872/4 205/411/4
f 201/192/85 202/873/85 205/413/85
f 204/415/86 203/874/86 208/416/86
f 215/418/87 213/875/87 210/419/87
f 212/421/2 210/876/2 209/422/2
f 211/424/88 209/877/88 214/425/88
f 215/427/4 216/878/4 214/428/4
f 209/361/89 210/879/89 213/430/89
f 212/432/90 211/880/90 216/433/90
f 223/435/81 221/881/81 218/436/81
f 220/438/2 218/882/2 217/439/2
f 219/441/82 217/883/82 222/442/82
f 224/444/4 222/884/4 221/445/4
f 217/447/69 218/885/69 221/448/69
f 220/450/70 219/886/70 224/451/70
f 231/88/1 229/87/1 226/176/1
f 228/454/2 226/887/2 225/455/2
f 227/83/3 225/85/3 230/373/3
f 232/457/4 230/888/4 229/458/4
f 225/459/5 226/889/5 229/460/5
f 228/461/6 227/890/6 232/462/6
f 239/464/1 237/891/1 234/465/1
f 236/467/2 234/892/2 233/468/2
f 235/470/3 233/464/3 238/466/3
f 240/471/4 238/893/4 237/472/4
f 233/474/5 234/894/5 237/475/5
f 236/477/6 235/895/6 240/478/6
f 244/480/1 247/896/1 245/481/1
f 244/483/91 242/897/91 241/484/91
f 243/486/3 241/898/3 246/487/3
f 248/489/92 246/899/92 245/490/92
f 241/492/93 242/900/93 245/493/93
f 244/495/94 243/901/94 248/496/94
f 255/498/1 253/902/1 250/499/1
f 252/501/95 250/903/95 249/502/95
f 256/504/3 251/904/3 249/505/3
f 256/507/96 254/905/96 253/274/96
f 249/509/97 250/906/97 253/510/97
f 252/512/98 251/907/98 256/513/98
f 263/515/99 261/532/99 258/516/99
f 260/518/100 258/908/100 257/519/100
f 259/521/101 257/909/101 262/522/101
f 264/524/102 262/910/102 261/456/103
f 257/526/104 258/911/104 261/527/104
f 260/528/105 259/600/105 264/529/105
f 271/531/106 269/912/106 266/532/106
f 268/533/100 266/913/100 265/534/100
f 267/536/107 265/914/107 270/537/107
f 272/539/103 270/915/103 269/540/103
f 265/529/5 266/530/5 269/542/5
f 268/543/6 267/916/6 272/439/6
f 279/545/1 277/168/1 274/546/1
f 276/548/2 274/917/2 273/549/2
f 275/551/3 273/559/3 278/552/3
f 280/554/4 278/918/4 277/364/4
f 273/271/5 274/919/5 277/556/5
f 276/557/6 275/920/6 280/331/6
f 287/267/108 285/669/108 282/559/108
f 284/560/109 282/921/109 281/561/109
f 283/563/110 281/922/110 286/564/110
f 288/566/111 286/923/111 285/567/111
f 281/569/5 282/924/5 285/570/5
f 284/570/6 283/571/6 288/239/6
f 295/573/108 293/925/108 290/574/108
f 292/576/109 290/926/109 289/577/109
f 291/579/110 289/927/110 294/580/110
f 296/582/111 294/928/111 293/583/111
f 289/239/5 290/572/5 293/585/5
f 292/585/6 291/6/6 296/4/6
f 300/587/112 303/929/112 301/588/112
f 300/590/113 298/930/113 297/591/109
f 299/517/114 297/516/114 302/593/114
f 304/595/111 302/931/111 301/596/111
f 297/4/116 298/586/116 301/598/116
f 303/528/117 300/598/117 299/599/117
f 308/601/118 311/932/118 309/602/118
f 308/604/119 306/933/119 305/605/119
f 307/607/120 305/611/120 310/608/120
f 312/610/121 310/615/121 309/611/121
f 305/612/122 306/934/122 309/143/122
f 308/613/123 307/934/123 312/143/123
f 319/614/124 317/620/124 314/615/124
f 316/616/119 314/935/119 313/617/119
f 315/619/125 313/621/125 318/620/125
f 320/592/121 318/591/121 317/621/121
f 313/613/5 314/895/5 317/622/5
f 316/623/6 315/815/6 320/624/6
f 327/626/124 325/812/124 322/627/124
f 324/629/119 322/936/119 321/624/119
f 323/630/125 321/626/125 326/628/125
f 328/631/121 326/94/121 325/632/121
f 321/633/5 322/937/5 325/634/5
f 324/102/6 323/937/6 328/634/6
f 335/637/126 333/26/126 330/186/126
f 332/638/127 330/758/127 329/639/127
f 331/139/128 329/132/128 334/640/128
f 336/642/129 334/139/129 333/641/129
f 329/643/5 330/656/5 333/212/5
f 335/644/6 332/156/6 331/645/6
f 343/647/126 341/651/126 338/648/126
f 340/650/127 338/938/127 337/651/127
f 339/652/128 337/655/128 342/469/128
f 344/654/129 342/659/129 341/655/129
f 337/656/5 338/939/5 341/218/5
f 343/657/6 340/644/6 339/646/6
f 351/658/130 349/666/130 346/659/130
f 347/660/127 348/940/127 346/661/127
f 352/663/131 347/941/131 345/664/131
f 351/658/129 352/609/129 350/608/129
f 350/218/132 345/939/132 346/667/132
f 348/612/133 347/667/133 352/247/133
f 359/668/134 357/942/134 354/669/134
f 356/671/135 354/943/135 353/92/135
f 360/673/136 355/944/136 353/674/136
f 360/676/137 358/945/137 357/677/137
f 353/679/138 354/946/138 357/680/138
f 359/682/139 356/947/140 355/683/140
f 367/685/134 365/948/134 362/686/134
f 363/688/135 364/949/135 362/689/135
f 363/691/136 361/950/136 366/692/136
f 367/694/137 368/951/137 366/695/137
f 361/697/138 362/952/153 365/698/138
f 364/700/139 363/953/139 368/701/139
f 372/703/134 375/954/134 373/704/141
f 372/706/135 370/955/135 369/707/135
f 371/709/142 369/956/143 374/710/143
f 376/712/137 374/957/137 373/713/137
f 369/462/138 370/958/138 373/715/138
f 375/717/139 372/959/154 371/718/139
f 383/720/1 381/960/1 378/634/1
f 380/302/145 378/178/145 377/721/145
f 379/722/3 377/961/3 382/723/3
f 384/724/146 382/962/146 381/725/146
f 377/727/147 378/963/147 381/728/147
f 380/730/148 379/964/148 384/731/148
f 391/733/1 389/822/1 386/734/1
f 388/736/2 386/965/2 385/737/2
f 387/739/3 385/733/3 390/735/3
f 392/741/4 390/966/4 389/742/4
f 385/64/5 386/967/5 389/743/5
f 388/744/6 387/968/6 392/745/6
f 396/175/1 399/969/1 397/41/1
f 396/747/149 394/736/149 393/738/149
f 395/352/3 393/970/3 398/749/3
f 400/750/150 398/971/150 397/751/150
f 393/748/151 394/972/151 397/753/151
f 396/754/152 395/973/152 400/755/152
f 404/264/1 407/197/1 405/757/1
f 404/759/149 402/974/149 401/760/149
f 403/419/3 401/742/3 406/762/3
f 408/763/150 406/975/150 405/755/150
f 401/764/151 402/976/151 405/765/151
f 404/746/152 403/745/152 408/766/152
