# Blender 4.4.3
# www.blender.org
mtllib marine.mtl
o marine
v 0.306611 1.798820 -0.280989
v 0.304619 1.795200 -0.276300
v 0.298547 1.824278 -0.264760
v 0.296555 1.820658 -0.260071
v 0.270418 1.794147 -0.291643
v 0.272410 1.797767 -0.296332
v 0.262353 1.819605 -0.275413
v 0.264345 1.823225 -0.280102
v -0.352044 1.534504 -0.164575
v -0.259096 1.546741 -0.164575
v -0.352044 1.534504 -0.164575
v -0.259096 1.546741 -0.164575
v -0.262209 1.570388 -0.041872
v -0.355157 1.558151 -0.041872
v -0.262209 1.570388 -0.041872
v -0.355157 1.558151 -0.041872
v -0.164416 0.837500 -0.197335
v -0.219609 0.837500 -0.280724
v -0.164416 0.668750 -0.197335
v -0.219609 0.668750 -0.280724
v -0.323845 0.837500 -0.211732
v -0.268651 0.837500 -0.128343
v -0.323845 0.668750 -0.211732
v -0.268651 0.668750 -0.128343
v -0.076191 1.268750 -0.227002
v -0.093062 1.268750 -0.300080
v -0.076191 1.137500 -0.227002
v -0.093062 1.137500 -0.300080
v -0.178320 1.268750 -0.280397
v -0.161448 1.268750 -0.207319
v -0.178320 1.137500 -0.280397
v -0.161448 1.137500 -0.207319
v 0.068647 1.427148 -0.188024
v 0.068647 1.428448 -0.194137
v 0.068647 1.255973 -0.224408
v 0.068647 1.257272 -0.230522
v -0.068853 1.428448 -0.194137
v -0.068853 1.427148 -0.188024
v -0.068853 1.257272 -0.230522
v -0.068853 1.255973 -0.224408
v 0.250000 1.250000 -0.100000
v 0.250000 1.250000 -0.225000
v 0.250000 0.750000 -0.100000
v 0.250000 0.750000 -0.225000
v -0.250000 1.250000 -0.225000
v -0.250000 1.250000 -0.100000
v -0.250000 0.750000 -0.225000
v -0.250000 0.750000 -0.100000
v -0.186577 1.562018 -0.061586
v -0.185083 1.576234 -0.128834
v -0.061397 1.151319 -0.145624
v -0.059903 1.165534 -0.212871
v -0.322788 1.536602 -0.140271
v -0.324282 1.522386 -0.073024
v -0.197608 1.125903 -0.224309
v -0.199102 1.111687 -0.157061
v -0.194001 1.548971 0.073011
v -0.209932 1.608028 0.060175
v -0.169288 1.515885 -0.109885
v -0.185219 1.574941 -0.122721
v -0.347637 1.568396 0.048738
v -0.331706 1.509339 0.061574
v -0.322924 1.535310 -0.134158
v -0.306993 1.476253 -0.121322
v -0.210019 1.609075 0.057275
v -0.191989 1.550596 0.044571
v -0.210316 1.586431 0.161084
v -0.192286 1.527953 0.148380
v -0.329627 1.510161 0.035357
v -0.347657 1.568640 0.048061
v -0.329924 1.487518 0.139166
v -0.347954 1.545997 0.151870
v -0.210316 1.586431 0.161084
v -0.204878 1.582071 0.098974
v -0.126080 1.293324 0.189036
v -0.120642 1.288964 0.126926
v -0.342516 1.541637 0.089760
v -0.347954 1.545997 0.151870
v -0.258280 1.248529 0.117712
v -0.263718 1.252890 0.179822
v 0.265625 1.437500 0.200000
v 0.265625 1.437500 0.106250
v 0.265625 0.750000 0.200000
v 0.265625 0.750000 0.106250
v -0.265625 1.437500 0.106250
v -0.265625 1.437500 0.200000
v -0.265625 0.750000 0.106250
v -0.265625 0.750000 0.200000
v -0.172363 1.529739 -0.042326
v -0.189886 1.594702 -0.056445
v -0.161654 1.515402 -0.121580
v -0.179177 1.580364 -0.135700
v -0.339565 1.551624 -0.068877
v -0.322042 1.486661 -0.054758
v -0.328856 1.537287 -0.148132
v -0.311333 1.472324 -0.134012
v -0.188838 1.551797 0.079605
v -0.206362 1.616759 0.065485
v -0.178129 1.537459 0.000350
v -0.195653 1.602422 -0.013770
v -0.356041 1.573681 0.053053
v -0.338517 1.508719 0.067173
v -0.345332 1.559344 -0.026202
v -0.327808 1.494382 -0.012082
v -0.250000 1.062500 0.150000
v -0.250000 1.062500 -0.162500
v -0.250000 0.812500 0.150000
v -0.250000 0.812500 -0.162500
v -0.312500 1.062500 -0.162500
v -0.312500 1.062500 0.150000
v -0.312500 0.812500 -0.162500
v -0.312500 0.812500 0.150000
v 0.312500 1.062500 0.150000
v 0.312500 1.062500 -0.162500
v 0.312500 0.812500 0.150000
v 0.312500 0.812500 -0.162500
v 0.250000 1.062500 -0.162500
v 0.250000 1.062500 0.150000
v 0.250000 0.812500 -0.162500
v 0.250000 0.812500 0.150000
v 0.324282 1.522386 -0.073024
v 0.322788 1.536602 -0.140271
v 0.199102 1.111687 -0.157061
v 0.197608 1.125903 -0.224309
v 0.185083 1.576234 -0.128834
v 0.186577 1.562018 -0.061586
v 0.059903 1.165534 -0.212871
v 0.061397 1.151319 -0.145624
v 0.322042 1.486661 -0.054758
v 0.339565 1.551624 -0.068877
v 0.311333 1.472324 -0.134012
v 0.328856 1.537287 -0.148132
v 0.189886 1.594702 -0.056445
v 0.172363 1.529739 -0.042326
v 0.179177 1.580364 -0.135700
v 0.161654 1.515402 -0.121580
v 0.331706 1.509339 0.061574
v 0.347637 1.568396 0.048738
v 0.306993 1.476253 -0.121322
v 0.322924 1.535310 -0.134158
v 0.209932 1.608028 0.060175
v 0.194001 1.548971 0.073011
v 0.185219 1.574941 -0.122721
v 0.169288 1.515885 -0.109885
v 0.338517 1.508719 0.067173
v 0.356041 1.573681 0.053053
v 0.327808 1.494382 -0.012082
v 0.345332 1.559344 -0.026202
v 0.206362 1.616759 0.065485
v 0.188838 1.551797 0.079605
v 0.195653 1.602422 -0.013770
v 0.178129 1.537459 0.000350
v 0.347657 1.568640 0.048061
v 0.329627 1.510161 0.035357
v 0.347954 1.545997 0.151870
v 0.329924 1.487518 0.139166
v 0.191989 1.550596 0.044571
v 0.210019 1.609075 0.057275
v 0.192286 1.527953 0.148380
v 0.210316 1.586431 0.161084
v 0.347954 1.545997 0.151870
v 0.342516 1.541637 0.089760
v 0.263718 1.252890 0.179822
v 0.258280 1.248529 0.117712
v 0.204878 1.582071 0.098974
v 0.210316 1.586431 0.161084
v 0.120642 1.288964 0.126926
v 0.126080 1.293324 0.189036
v 0.250000 1.345681 -0.139981
v 0.250000 1.358676 -0.201116
v 0.250000 1.235640 -0.163371
v 0.250000 1.248634 -0.224506
v -0.250000 1.358676 -0.201116
v -0.250000 1.345681 -0.139981
v -0.250000 1.248634 -0.224506
v -0.250000 1.235640 -0.163371
v 0.156250 1.434326 -0.121139
v 0.156250 1.447320 -0.182274
v 0.156250 1.345681 -0.139981
v 0.156250 1.358676 -0.201116
v -0.156250 1.447320 -0.182274
v -0.156250 1.434326 -0.121139
v -0.156250 1.358676 -0.201116
v -0.156250 1.345681 -0.139981
v -0.156250 1.435625 -0.127253
v -0.156250 1.446021 -0.176160
v -0.092168 1.372944 -0.140576
v -0.092168 1.383340 -0.189483
v -0.249058 1.355241 -0.195456
v -0.249058 1.344846 -0.146549
v -0.184976 1.292560 -0.208779
v -0.184976 1.282165 -0.159872
v 0.249058 1.344846 -0.146549
v 0.249058 1.355241 -0.195456
v 0.184976 1.282165 -0.159872
v 0.184976 1.292560 -0.208779
v 0.156250 1.446021 -0.176160
v 0.156250 1.435625 -0.127253
v 0.092168 1.383340 -0.189483
v 0.092168 1.372944 -0.140576
v -0.065809 0.657665 -0.257157
v -0.065809 0.659629 -0.313373
v -0.110003 0.613498 -0.258699
v -0.110003 0.615461 -0.314915
v -0.127681 0.721463 -0.311213
v -0.127681 0.719500 -0.254998
v -0.171875 0.677295 -0.312756
v -0.171875 0.675332 -0.256540
v 0.127681 0.719500 -0.254998
v 0.127681 0.721463 -0.311213
v 0.171875 0.675332 -0.256540
v 0.171875 0.677295 -0.312756
v 0.065809 0.659629 -0.313373
v 0.065809 0.657665 -0.257157
v 0.110003 0.615461 -0.314915
v 0.110003 0.613498 -0.258699
v 0.109375 0.675332 -0.256540
v 0.109375 0.677514 -0.319002
v 0.109375 0.612870 -0.258721
v 0.109375 0.615052 -0.321183
v -0.109375 0.677514 -0.319002
v -0.109375 0.675332 -0.256540
v -0.109375 0.615052 -0.321183
v -0.109375 0.612870 -0.258721
v 0.171875 0.862718 -0.249996
v 0.171875 0.864899 -0.312458
v 0.171875 0.675332 -0.256540
v 0.171875 0.677514 -0.319002
v -0.171875 0.864899 -0.312458
v -0.171875 0.862718 -0.249996
v -0.171875 0.677514 -0.319002
v -0.171875 0.675332 -0.256540
v 0.109375 0.862718 -0.249996
v 0.109375 0.865117 -0.318704
v 0.109375 0.675332 -0.256540
v 0.109375 0.677732 -0.325248
v -0.109375 0.865117 -0.318704
v -0.109375 0.862718 -0.249996
v -0.109375 0.677732 -0.325248
v -0.109375 0.675332 -0.256540
v 0.099897 0.849370 -0.318736
v 0.099897 0.849643 -0.324980
v 0.099897 0.724489 -0.324189
v 0.099897 0.724762 -0.330433
v -0.087603 0.849643 -0.324980
v -0.087603 0.849370 -0.318736
v -0.087603 0.724762 -0.330433
v -0.087603 0.724489 -0.324189
v 0.135009 1.116140 -0.198943
v 0.158628 1.133537 -0.320452
v 0.135175 1.109951 -0.199797
v 0.158794 1.127348 -0.321306
v 0.035924 1.133537 -0.344303
v 0.012305 1.116140 -0.222794
v 0.036090 1.127348 -0.345157
v 0.012471 1.109951 -0.223648
v 0.150312 1.112500 -0.195782
v 0.174163 1.112500 -0.318486
v 0.150312 0.862500 -0.195782
v 0.174163 0.862500 -0.318486
v 0.020784 1.112500 -0.348300
v -0.003068 1.112500 -0.225596
v 0.020784 0.862500 -0.348300
v -0.003068 0.862500 -0.225596
v 0.161947 1.009754 -0.337529
v 0.158628 1.133537 -0.320452
v 0.163128 1.010623 -0.343605
v 0.159809 1.134407 -0.326528
v 0.035924 1.133537 -0.344303
v 0.039244 1.009754 -0.361380
v 0.037105 1.134407 -0.350379
v 0.040425 1.010623 -0.367456
v 0.003068 1.112500 -0.225596
v -0.020784 1.112500 -0.348300
v 0.003068 0.862500 -0.225596
v -0.020784 0.862500 -0.348300
v -0.174163 1.112500 -0.318486
v -0.150312 1.112500 -0.195782
v -0.174163 0.862500 -0.318486
v -0.150312 0.862500 -0.195782
v -0.039244 1.009754 -0.361380
v -0.035924 1.133537 -0.344303
v -0.040425 1.010623 -0.367456
v -0.037105 1.134407 -0.350379
v -0.158628 1.133537 -0.320452
v -0.161947 1.009754 -0.337529
v -0.159809 1.134407 -0.326528
v -0.163128 1.010623 -0.343605
v -0.012305 1.116140 -0.222794
v -0.035924 1.133537 -0.344303
v -0.012471 1.109951 -0.223648
v -0.036090 1.127348 -0.345157
v -0.158628 1.133537 -0.320452
v -0.135009 1.116140 -0.198943
v -0.158794 1.127348 -0.321306
v -0.135175 1.109951 -0.199797
v 0.291563 1.112500 -0.133400
v 0.344391 1.112500 -0.246689
v 0.291563 0.862500 -0.133400
v 0.344391 0.862500 -0.246689
v 0.202780 1.112500 -0.312723
v 0.149953 1.112500 -0.199435
v 0.202780 0.862500 -0.312723
v 0.149953 0.862500 -0.199435
v -0.134623 1.112500 -0.208050
v -0.218264 1.112500 -0.300943
v -0.134623 0.862500 -0.208050
v -0.218264 0.862500 -0.300943
v -0.334380 1.112500 -0.196391
v -0.250739 1.112500 -0.103498
v -0.334380 0.862500 -0.196391
v -0.250739 0.862500 -0.103498
v -0.240824 1.009754 -0.302648
v -0.229184 1.133537 -0.289719
v -0.244966 1.010623 -0.307247
v -0.233325 1.134407 -0.294319
v -0.322077 1.133537 -0.206078
v -0.333717 1.009754 -0.219006
v -0.326218 1.134407 -0.210678
v -0.337859 1.010623 -0.223606
v -0.146356 1.116140 -0.197730
v -0.229184 1.133537 -0.289719
v -0.146938 1.109951 -0.198377
v -0.229766 1.127348 -0.290366
v -0.322077 1.133537 -0.206078
v -0.239250 1.116140 -0.114089
v -0.322659 1.127348 -0.206725
v -0.239832 1.109951 -0.114735
v 0.200000 0.875000 -0.187500
v 0.200000 0.875000 -0.250000
v 0.200000 0.562500 -0.187500
v 0.200000 0.562500 -0.250000
v -0.200000 0.875000 -0.250000
v -0.200000 0.875000 -0.187500
v -0.200000 0.562500 -0.250000
v -0.200000 0.562500 -0.187500
v 0.137500 0.562500 -0.187500
v 0.137500 0.562500 -0.250000
v 0.137500 0.412500 -0.187500
v 0.137500 0.412500 -0.250000
v -0.137500 0.562500 -0.250000
v -0.137500 0.562500 -0.187500
v -0.137500 0.412500 -0.250000
v -0.137500 0.412500 -0.187500
v 0.199686 0.562630 -0.187500
v 0.199686 0.562630 -0.243750
v 0.137500 0.412500 -0.187500
v 0.137500 0.412500 -0.243750
v 0.026459 0.634384 -0.243750
v 0.026459 0.634384 -0.187500
v -0.035727 0.484253 -0.243750
v -0.035727 0.484253 -0.187500
v -0.026459 0.634384 -0.187500
v -0.026459 0.634384 -0.243750
v 0.035727 0.484253 -0.187500
v 0.035727 0.484253 -0.243750
v -0.199686 0.562630 -0.243750
v -0.199686 0.562630 -0.187500
v -0.137500 0.412500 -0.243750
v -0.137500 0.412500 -0.187500
v 0.159375 1.281250 -0.187500
v 0.159375 1.281250 -0.312500
v 0.159375 1.137500 -0.187500
v 0.159375 1.137500 -0.312500
v -0.059375 1.281250 -0.312500
v -0.059375 1.281250 -0.187500
v -0.059375 1.137500 -0.312500
v -0.059375 1.137500 -0.187500
v 0.159375 1.285321 -0.187595
v 0.159375 1.296216 -0.312120
v 0.159375 1.279095 -0.188140
v 0.159375 1.289989 -0.312664
v -0.059375 1.296216 -0.312120
v -0.059375 1.285321 -0.187595
v -0.059375 1.289989 -0.312664
v -0.059375 1.279095 -0.188140
v 0.159375 1.171691 -0.323014
v 0.159375 1.296216 -0.312120
v 0.159375 1.172236 -0.329240
v 0.159375 1.296760 -0.318346
v -0.059375 1.296216 -0.312120
v -0.059375 1.171691 -0.323014
v -0.059375 1.296760 -0.318346
v -0.059375 1.172236 -0.329240
v 0.330378 0.882370 -0.305668
v 0.303296 0.887145 -0.203039
v 0.229307 0.900192 -0.333168
v 0.202226 0.904967 -0.230538
v 0.267481 0.684029 -0.203039
v 0.294563 0.679253 -0.305668
v 0.166411 0.701850 -0.230538
v 0.193492 0.697075 -0.333168
v 0.322390 0.934550 -0.290793
v 0.306460 0.937359 -0.230422
v 0.262937 0.945033 -0.306969
v 0.247007 0.947842 -0.246598
v 0.297778 0.888118 -0.230422
v 0.313708 0.885309 -0.290793
v 0.238324 0.898602 -0.246598
v 0.254255 0.895793 -0.306969
v 0.346665 0.879498 -0.265649
v 0.338700 0.880903 -0.235464
v 0.312299 0.930434 -0.277088
v 0.304334 0.931838 -0.246903
v 0.298928 0.852015 -0.244615
v 0.306894 0.850610 -0.274800
v 0.264563 0.902950 -0.256053
v 0.272528 0.901546 -0.286238
v 0.307410 0.720768 -0.284798
v 0.291480 0.723577 -0.224428
v 0.352946 0.876685 -0.280037
v 0.337015 0.879494 -0.219667
v 0.262559 0.732269 -0.232464
v 0.278489 0.729460 -0.292835
v 0.308094 0.888186 -0.227703
v 0.324024 0.885377 -0.288073
v -0.101071 1.219967 -0.316800
v -0.097798 1.288047 -0.307809
v -0.103188 1.220836 -0.322616
v -0.099915 1.288917 -0.313625
v -0.185895 1.288047 -0.275744
v -0.189167 1.219967 -0.284736
v -0.188011 1.288917 -0.281560
v -0.191284 1.220836 -0.290551
v -0.064155 1.275000 -0.212087
v -0.100141 1.289787 -0.310958
v -0.064453 1.268811 -0.212904
v -0.100439 1.283598 -0.311775
v -0.188237 1.289787 -0.278893
v -0.152251 1.275000 -0.180023
v -0.188535 1.283598 -0.279711
v -0.152549 1.268811 -0.180840
v 0.274824 1.200000 -0.175277
v 0.309162 1.200000 -0.248914
v 0.274824 1.075000 -0.175277
v 0.309162 1.075000 -0.248914
v 0.218531 1.200000 -0.291176
v 0.184193 1.200000 -0.217538
v 0.218531 1.075000 -0.291176
v 0.184193 1.075000 -0.217538
v 0.282397 1.239694 -0.192345
v 0.295604 1.237718 -0.220598
v 0.282397 1.077590 -0.181010
v 0.295604 1.075614 -0.209263
v 0.261617 1.236613 -0.236408
v 0.248410 1.238588 -0.208155
v 0.261617 1.074509 -0.225072
v 0.248410 1.076484 -0.196819
v 0.304253 1.798765 -0.277626
v 0.306893 1.798152 -0.283257
v 0.295956 1.239218 -0.220663
v 0.298596 1.238605 -0.226295
v 0.272906 1.797047 -0.299067
v 0.270266 1.797659 -0.293435
v 0.264610 1.237500 -0.242105
v 0.261970 1.238112 -0.236473
v 0.291054 1.801827 -0.249466
v 0.293694 1.801215 -0.255098
v 0.282112 1.198760 -0.188073
v 0.284752 1.198148 -0.193705
v 0.259707 1.800109 -0.270907
v 0.257068 1.800722 -0.265275
v 0.250766 1.197042 -0.209514
v 0.248126 1.197655 -0.203882
v 0.297264 1.823606 -0.262620
v 0.299401 1.819622 -0.266936
v 0.291054 1.804359 -0.247924
v 0.293191 1.800375 -0.252239
v 0.265415 1.818516 -0.282745
v 0.263278 1.822500 -0.278430
v 0.259204 1.799269 -0.268049
v 0.257068 1.803253 -0.263734
vn -0.3187 -0.5792 0.7503
vn -0.3187 -0.5793 0.7503
vn 0.9120 0.0281 0.4091
vn 0.3187 0.5793 -0.7503
vn 0.3187 0.5793 -0.7502
vn -0.9120 -0.0281 -0.4092
vn -0.9120 -0.0281 -0.4091
vn 0.2581 -0.8147 -0.5193
vn -0.2580 0.8147 0.5193
vn 0.9914 0.1306 -0.0000
vn 0.1158 -0.8798 -0.4611
vn -0.0000 -0.0000 1.0000
vn 0.0249 -0.1891 -0.9816
vn -0.1891 -0.0249 -0.9816
vn -0.0000 -0.0000 -1.0000
vn -0.9914 -0.1306 -0.0000
vn -0.1076 0.8175 0.5658
vn -0.0249 0.1891 0.9816
vn 0.1891 0.0249 0.9816
vn 0.1281 -0.9732 0.1908
vn -0.1281 0.9732 -0.1908
vn -0.5519 -0.0000 -0.8339
vn 0.8339 -0.0000 -0.5519
vn 0.5519 -0.0000 0.8339
vn -0.8339 -0.0000 0.5519
vn -0.0000 1.0000 -0.0000
vn -0.0000 -1.0000 -0.0000
vn -0.2249 -0.0000 -0.9744
vn 0.9744 -0.0000 -0.2249
vn 0.2249 -0.0000 0.9744
vn -0.9744 -0.0000 0.2250
vn -0.0000 0.2079 -0.9781
vn 1.0000 -0.0000 -0.0000
vn -0.0000 -0.2079 0.9781
vn -1.0000 -0.0000 -0.0000
vn -0.0000 0.9781 0.2080
vn -0.0000 -0.9782 -0.2078
vn 0.0217 0.2068 -0.9781
vn 0.9579 0.2757 0.0796
vn -0.0217 -0.2068 0.9781
vn -0.9579 -0.2757 -0.0796
vn -0.2861 0.9387 0.1921
vn 0.2861 -0.9387 -0.1921
vn -0.2549 0.9449 -0.2054
vn 0.2549 -0.9449 0.2054
vn -0.1318 0.1765 0.9754
vn 0.1318 -0.1765 -0.9754
vn 0.2885 -0.9357 -0.2033
vn 0.9575 0.2813 0.0641
vn -0.2885 0.9357 0.2033
vn -0.9575 -0.2813 -0.0641
vn 0.0028 0.2131 -0.9770
vn -0.0028 -0.2131 0.9770
vn 0.0870 -0.0698 -0.9938
vn -0.0870 0.0698 0.9938
vn -0.2751 0.9571 -0.0913
vn 0.2751 -0.9571 0.0913
vn -0.0217 0.2068 -0.9781
vn 0.9579 -0.2757 -0.0796
vn 0.0217 -0.2068 0.9781
vn -0.9579 0.2757 0.0796
vn 0.2861 0.9387 0.1921
vn -0.2861 -0.9387 -0.1921
vn 0.2549 0.9449 -0.2054
vn -0.2549 -0.9449 0.2054
vn 0.1318 0.1765 0.9754
vn -0.1318 -0.1765 -0.9754
vn -0.2885 -0.9357 -0.2033
vn 0.9575 -0.2813 -0.0641
vn 0.2885 0.9357 0.2033
vn -0.9575 0.2813 0.0641
vn -0.0028 0.2131 -0.9770
vn 0.0028 -0.2131 0.9770
vn -0.0870 -0.0698 -0.9938
vn 0.0870 0.0698 0.9938
vn 0.2751 0.9571 -0.0913
vn -0.2751 -0.9571 0.0913
vn -0.0000 0.9781 0.2079
vn -0.0000 -0.9782 -0.2079
vn -0.0000 -0.9781 -0.2079
vn -0.0000 0.9782 0.2079
vn 0.7071 0.6917 0.1470
vn -0.7071 -0.6917 -0.1470
vn -0.7071 0.6917 0.1470
vn 0.7071 -0.6917 -0.1470
vn -0.0000 0.0349 -0.9994
vn 0.7071 -0.7067 -0.0247
vn -0.0000 -0.0349 0.9994
vn -0.7071 0.7067 0.0247
vn 0.7071 0.7067 0.0247
vn -0.7071 -0.7067 -0.0247
vn -0.0000 0.9994 0.0349
vn -0.0000 -0.9994 -0.0349
vn -0.0000 0.0436 -0.9990
vn -0.0000 -0.0436 0.9990
vn -0.0000 0.9990 0.0437
vn -0.0000 -0.9990 -0.0437
vn 0.1890 0.1392 -0.9721
vn 0.9816 -0.0000 0.1908
vn -0.1889 -0.1392 0.9721
vn -0.1890 -0.1392 0.9721
vn -0.9816 -0.0000 -0.1908
vn -0.0266 0.9903 0.1366
vn 0.0266 -0.9903 -0.1366
vn 0.1908 -0.0000 -0.9816
vn -0.1908 -0.0000 0.9816
vn -0.0266 0.9903 0.1367
vn 0.0265 -0.9903 -0.1365
vn 0.0267 -0.9902 -0.1368
vn -0.1908 -0.0000 -0.9816
vn 0.9816 -0.0000 -0.1908
vn 0.1908 -0.0000 0.9816
vn -0.9816 -0.0000 0.1908
vn 0.0266 0.9903 0.1366
vn 0.0266 0.9903 0.1367
vn -0.0265 -0.9903 -0.1365
vn 0.1890 -0.1392 0.9721
vn -0.1890 0.1392 -0.9721
vn 0.1889 -0.1392 0.9721
vn -0.0266 -0.9903 -0.1366
vn 0.4226 -0.0000 -0.9063
vn 0.9063 -0.0000 0.4226
vn -0.4226 -0.0000 0.9063
vn -0.9063 -0.0000 -0.4226
vn -0.6691 -0.0000 -0.7431
vn 0.7431 -0.0000 -0.6691
vn 0.6691 -0.0000 0.7431
vn -0.7431 -0.0000 0.6691
vn 0.0931 0.9903 0.1035
vn 0.0931 0.9903 0.1034
vn 0.7432 -0.0000 -0.6691
vn 0.7431 -0.0000 -0.6692
vn -0.0930 -0.9903 -0.1033
vn -0.7432 -0.0000 0.6691
vn 0.6626 -0.1392 0.7359
vn -0.6626 0.1392 -0.7359
vn 0.7431 0.0001 -0.6691
vn 0.7432 0.0001 -0.6691
vn 0.6626 -0.1391 0.7359
vn -0.7431 -0.0001 0.6691
vn -0.0931 -0.9903 -0.1034
vn 0.9239 -0.3827 -0.0000
vn -0.9239 0.3827 -0.0000
vn 0.3827 0.9239 -0.0000
vn -0.3827 -0.9239 -0.0000
vn 0.9239 0.3827 -0.0000
vn -0.9239 -0.3827 -0.0000
vn -0.3827 0.9239 -0.0000
vn 0.3827 -0.9239 -0.0000
vn -0.0000 0.0870 -0.9962
vn -0.0000 -0.0872 0.9962
vn -0.0000 0.9962 0.0872
vn -0.0000 -0.9962 -0.0872
vn -0.0000 -0.9962 -0.0871
vn -0.0000 0.9962 0.0871
vn -0.0000 0.9962 0.0870
vn -0.0000 0.0872 -0.9962
vn -0.2549 0.0449 0.9659
vn 0.1737 0.9848 -0.0000
vn 0.2549 -0.0449 -0.9659
vn -0.1736 -0.9848 -0.0000
vn 0.9513 -0.1677 0.2588
vn 0.9512 -0.1677 0.2588
vn -0.9513 0.1677 -0.2588
vn 0.1736 0.9848 -0.0000
vn -0.1737 -0.9848 -0.0000
vn -0.9512 0.1677 -0.2588
vn -0.2549 0.0450 0.9659
vn 0.7954 0.5778 0.1830
vn -0.7954 -0.5778 -0.1830
vn 0.5498 -0.8150 0.1830
vn -0.5499 0.8150 -0.1830
vn 0.9255 -0.2781 0.2572
vn 0.2549 -0.0450 -0.9659
vn -0.9255 0.2781 -0.2571
vn -0.9255 0.2781 -0.2572
vn -0.2802 -0.9595 -0.0293
vn 0.2802 0.9595 0.0293
vn 0.0476 0.9903 0.1308
vn 0.9397 -0.0000 -0.3420
vn -0.0476 -0.9903 -0.1307
vn -0.9397 -0.0000 0.3421
vn -0.9397 -0.0000 0.3419
vn 0.3387 -0.1392 0.9305
vn -0.3387 0.1392 -0.9305
vn -0.3387 0.1393 -0.9305
vn -0.3387 0.1392 -0.9306
vn -0.3387 0.1391 -0.9306
vn 0.9397 -0.0001 -0.3420
vn 0.3387 -0.1391 0.9306
vn -0.9397 0.0001 0.3420
vn -0.9397 -0.0000 0.3420
vn -0.0476 -0.9903 -0.1308
vn 0.4226 -0.0632 -0.9041
vn 0.9063 0.0295 0.4216
vn -0.4226 0.0632 0.9041
vn -0.9063 -0.0295 -0.4216
vn -0.0000 0.9976 -0.0698
vn -0.0000 0.9976 -0.0697
vn -0.0000 -0.9976 0.0698
vn -0.0000 -0.9976 0.0697
vn 0.4224 -0.0980 -0.9011
vn 0.9063 0.0295 0.4217
vn -0.4224 0.0980 0.9011
vn -0.4223 0.0980 0.9011
vn 0.0148 0.9947 -0.1013
vn 0.0147 0.9948 -0.1013
vn -0.0148 -0.9947 0.1013
vn -0.0147 -0.9948 0.1012
vn 0.4223 -0.0980 -0.9011
vn -0.9064 -0.0295 -0.4215
vn 0.0147 0.9948 -0.1012
vn 0.3419 -0.6375 -0.6904
vn -0.3419 0.6375 0.6904
vn -0.9063 -0.0294 -0.4215
vn 0.2484 0.7699 -0.5878
vn 0.2484 0.7700 -0.5878
vn -0.2484 -0.7699 0.5878
vn -0.2484 -0.7699 0.5879
vn 0.3187 0.5792 -0.7503
vn 0.2581 -0.8147 -0.5194
vn 0.9914 0.1305 -0.0000
vn 0.1891 0.0249 -0.9816
vn -0.9914 -0.1305 -0.0000
vn -0.1891 -0.0249 0.9816
vn -0.0267 -0.9902 -0.1368
vn -0.0000 0.0874 -0.9962
vn -0.0477 -0.9902 -0.1310
vn 0.2484 0.7697 -0.5880
vt 0.390625 0.304688
vt 0.400391 0.312500
vt 0.390625 0.312500
vt 0.078125 0.289062
vt 0.080078 0.296875
vt 0.078125 0.296875
vt 0.431641 0.304688
vt 0.421875 0.312500
vt 0.421875 0.304688
vt 0.703125 0.914062
vt 0.705078 0.921875
vt 0.703125 0.921875
vt 0.072266 0.296875
vt 0.062500 0.294922
vt 0.072266 0.294922
vt 0.703125 0.935547
vt 0.712891 0.937500
vt 0.712891 0.935547
vt 0.000000 1.000000
vt 0.031250 1.000000
vt 0.023438 1.000000
vt 0.000000 0.375000
vt 0.031250 0.351562
vt 0.031250 0.375000
vt 0.625000 0.585938
vt 0.656250 0.609375
vt 0.656250 0.585938
vt 0.578125 0.958008
vt 0.546875 1.000000
vt 0.546875 0.958008
vt 0.587891 0.411133
vt 0.562500 0.453125
vt 0.562500 0.411133
vt 0.453125 0.411133
vt 0.421875 0.453125
vt 0.421875 0.411133
vt 0.025391 0.379883
vt 0.000000 0.421875
vt 0.000000 0.379883
vt 0.187500 0.390625
vt 0.156250 0.365234
vt 0.187500 0.365234
vt 0.609375 0.802734
vt 0.640625 0.828125
vt 0.640625 0.802734
vt 0.156250 0.390625
vt 0.034180 0.424805
vt 0.000000 0.468750
vt 0.000000 0.424805
vt 0.250000 0.268555
vt 0.251953 0.312500
vt 0.250000 0.312500
vt 0.081055 0.424805
vt 0.046875 0.468750
vt 0.046875 0.424805
vt 0.314453 0.268555
vt 0.312500 0.312500
vt 0.312500 0.268555
vt 0.687500 0.578125
vt 0.721680 0.576172
vt 0.721680 0.578125
vt 0.687500 0.560547
vt 0.721680 0.562500
vt 0.721680 0.560547
vt 0.125000 0.703125
vt 0.000000 0.828125
vt 0.000000 0.703125
vt 0.125000 0.515625
vt 0.093750 0.640625
vt 0.093750 0.515625
vt 0.250000 0.703125
vt 0.125000 0.828125
vt 0.156250 0.515625
vt 0.125000 0.640625
vt 0.359375 0.828125
vt 0.484375 0.796875
vt 0.484375 0.828125
vt 0.359375 0.765625
vt 0.484375 0.765625
vt 0.348633 0.562500
vt 0.312500 0.671875
vt 0.312500 0.562500
vt 0.173828 0.421875
vt 0.156250 0.531250
vt 0.156250 0.421875
vt 0.000000 0.531250
vt 0.036133 0.640625
vt 0.000000 0.640625
vt 0.205078 0.421875
vt 0.187500 0.531250
vt 0.187500 0.421875
vt 0.640625 0.671875
vt 0.676758 0.654297
vt 0.676758 0.671875
vt 0.343750 0.341797
vt 0.379883 0.359375
vt 0.379883 0.341797
vt 0.458008 0.500000
vt 0.421875 0.500000
vt 0.312500 0.500000
vt 0.296875 0.546875
vt 0.296875 0.500000
vt 0.536133 0.468750
vt 0.500000 0.515625
vt 0.500000 0.468750
vt 0.250000 0.359375
vt 0.265625 0.406250
vt 0.250000 0.406250
vt 0.640625 0.640625
vt 0.676758 0.625000
vt 0.676758 0.640625
vt 0.676758 0.359375
vt 0.640625 0.375000
vt 0.676758 0.375000
vt 0.114258 0.379883
vt 0.078125 0.406250
vt 0.078125 0.379883
vt 0.328125 0.317383
vt 0.312500 0.343750
vt 0.312500 0.317383
vt 0.629883 0.739258
vt 0.593750 0.765625
vt 0.593750 0.739258
vt 0.343750 0.317383
vt 0.328125 0.343750
vt 0.640625 0.359375
vt 0.676758 0.343750
vt 0.656250 0.984375
vt 0.692383 1.000000
vt 0.692383 0.984375
vt 0.395508 0.564453
vt 0.359375 0.640625
vt 0.359375 0.564453
vt 0.343750 0.361328
vt 0.359375 0.437500
vt 0.343750 0.437500
vt 0.254883 0.548828
vt 0.218750 0.625000
vt 0.218750 0.548828
vt 0.359375 0.361328
vt 0.375000 0.437500
vt 0.692383 0.968750
vt 0.656250 0.937500
vt 0.692383 0.953125
vt 0.692383 0.937500
vt 0.132812 0.828125
vt 0.179688 0.531250
vt 0.156250 0.703125
vt 0.273438 0.828125
vt 0.140625 1.000000
vt 0.140625 0.828125
vt 0.210938 0.531250
vt 0.187500 0.703125
vt 0.359375 0.703125
vt 0.492188 0.679688
vt 0.492188 0.703125
vt 0.359375 0.648438
vt 0.492188 0.671875
vt 0.492188 0.648438
vt 0.632812 0.448242
vt 0.593750 0.468750
vt 0.593750 0.448242
vt 0.500000 0.323242
vt 0.517578 0.343750
vt 0.500000 0.343750
vt 0.562500 0.385742
vt 0.601562 0.406250
vt 0.562500 0.406250
vt 0.531250 0.323242
vt 0.548828 0.343750
vt 0.531250 0.343750
vt 0.625000 0.515625
vt 0.664062 0.498047
vt 0.664062 0.515625
vt 0.539062 0.357422
vt 0.500000 0.375000
vt 0.539062 0.375000
vt 0.632812 0.416992
vt 0.593750 0.437500
vt 0.593750 0.416992
vt 0.562500 0.323242
vt 0.580078 0.343750
vt 0.562500 0.343750
vt 0.648438 0.979492
vt 0.609375 1.000000
vt 0.609375 0.979492
vt 0.611328 0.323242
vt 0.593750 0.343750
vt 0.593750 0.323242
vt 0.585938 0.375000
vt 0.546875 0.357422
vt 0.585938 0.357422
vt 0.593750 0.357422
vt 0.632812 0.375000
vt 0.632812 0.357422
vt 0.421875 0.375000
vt 0.406250 0.437500
vt 0.406250 0.375000
vt 0.359375 0.937500
vt 0.281250 1.000000
vt 0.281250 0.937500
vt 0.046875 0.359375
vt 0.031250 0.421875
vt 0.031250 0.359375
vt 0.359375 0.875000
vt 0.281250 0.875000
vt 0.453125 0.453125
vt 0.468750 0.375000
vt 0.468750 0.453125
vt 0.515625 0.453125
vt 0.515625 0.375000
vt 0.062500 0.359375
vt 0.046875 0.421875
vt 0.078125 0.640625
vt 0.078125 0.359375
vt 0.062500 0.421875
vt 0.156250 0.640625
vt 0.078125 0.703125
vt 0.531250 0.375000
vt 0.531250 0.453125
vt 0.546875 0.453125
vt 0.546875 0.375000
vt 0.395508 0.890625
vt 0.359375 1.000000
vt 0.359375 0.890625
vt 0.468750 0.437500
vt 0.486328 0.546875
vt 0.468750 0.546875
vt 0.083008 0.531250
vt 0.046875 0.640625
vt 0.046875 0.531250
vt 0.093750 0.406250
vt 0.111328 0.515625
vt 0.676758 0.468750
vt 0.640625 0.451172
vt 0.676758 0.451172
vt 0.640625 0.419922
vt 0.676758 0.437500
vt 0.676758 0.419922
vt 0.648438 0.932617
vt 0.609375 0.953125
vt 0.609375 0.932617
vt 0.673828 0.385742
vt 0.656250 0.406250
vt 0.656250 0.385742
vt 0.648438 0.901367
vt 0.609375 0.921875
vt 0.609375 0.901367
vt 0.642578 0.323242
vt 0.625000 0.343750
vt 0.625000 0.323242
vt 0.070312 0.341797
vt 0.070312 0.359375
vt 0.125000 0.341797
vt 0.164062 0.359375
vt 0.164062 0.341797
vt 0.551758 0.875000
vt 0.515625 0.921875
vt 0.515625 0.875000
vt 0.484375 0.343750
vt 0.468750 0.390625
vt 0.468750 0.343750
vt 0.254883 0.437500
vt 0.218750 0.484375
vt 0.218750 0.437500
vt 0.484375 0.390625
vt 0.656250 0.921875
vt 0.692383 0.921875
vt 0.078125 0.328125
vt 0.114258 0.343750
vt 0.114258 0.328125
vt 0.609375 0.870117
vt 0.648438 0.890625
vt 0.609375 0.890625
vt 0.673828 0.323242
vt 0.656250 0.343750
vt 0.656250 0.323242
vt 0.648438 0.838867
vt 0.609375 0.859375
vt 0.609375 0.838867
vt 0.048828 0.307617
vt 0.031250 0.328125
vt 0.031250 0.307617
vt 0.679688 0.810547
vt 0.679688 0.828125
vt 0.640625 0.779297
vt 0.679688 0.796875
vt 0.679688 0.779297
vt 0.296875 0.379883
vt 0.333008 0.406250
vt 0.296875 0.406250
vt 0.656250 0.551758
vt 0.671875 0.578125
vt 0.656250 0.578125
vt 0.593750 0.629883
vt 0.629883 0.656250
vt 0.593750 0.656250
vt 0.656250 0.520508
vt 0.671875 0.546875
vt 0.656250 0.546875
vt 0.656250 0.906250
vt 0.692383 0.906250
vt 0.656250 0.890625
vt 0.692383 0.890625
vt 0.301758 0.548828
vt 0.265625 0.625000
vt 0.265625 0.548828
vt 0.390625 0.361328
vt 0.375000 0.361328
vt 0.406250 0.923828
vt 0.442383 1.000000
vt 0.406250 1.000000
vt 0.406250 0.361328
vt 0.390625 0.437500
vt 0.692383 0.875000
vt 0.692383 0.859375
vt 0.656250 0.875000
vt 0.484375 0.737305
vt 0.359375 0.737305
vt 0.484375 0.596680
vt 0.468750 0.625000
vt 0.468750 0.596680
vt 0.484375 0.706055
vt 0.359375 0.734375
vt 0.359375 0.706055
vt 0.218750 0.315430
vt 0.234375 0.343750
vt 0.218750 0.343750
vt 0.453125 0.937500
vt 0.578125 0.921875
vt 0.578125 0.937500
vt 0.593750 0.640625
vt 0.593750 0.625000
vt 0.562500 0.711914
vt 0.484375 0.734375
vt 0.484375 0.711914
vt 0.078125 0.305664
vt 0.062500 0.328125
vt 0.062500 0.305664
vt 0.562500 0.555664
vt 0.484375 0.578125
vt 0.484375 0.555664
vt 0.093750 0.328125
vt 0.546875 0.515625
vt 0.625000 0.500000
vt 0.546875 0.484375
vt 0.625000 0.484375
vt 0.609375 0.383789
vt 0.642578 0.406250
vt 0.609375 0.406250
vt 0.296875 0.305664
vt 0.309570 0.328125
vt 0.296875 0.328125
vt 0.111328 0.352539
vt 0.078125 0.375000
vt 0.078125 0.352539
vt 0.356445 0.305664
vt 0.343750 0.328125
vt 0.343750 0.305664
vt 0.298828 0.343750
vt 0.265625 0.331055
vt 0.298828 0.331055
vt 0.656250 0.612305
vt 0.689453 0.625000
vt 0.689453 0.612305
vt 0.220703 0.352539
vt 0.187500 0.375000
vt 0.187500 0.352539
vt 0.359375 0.305664
vt 0.372070 0.328125
vt 0.359375 0.328125
vt 0.296875 0.352539
vt 0.330078 0.375000
vt 0.296875 0.375000
vt 0.387695 0.305664
vt 0.375000 0.328125
vt 0.375000 0.305664
vt 0.689453 0.596680
vt 0.689453 0.609375
vt 0.689453 0.581055
vt 0.656250 0.593750
vt 0.689453 0.593750
vt 0.562500 0.640625
vt 0.583984 0.656250
vt 0.562500 0.656250
vt 0.671875 0.531250
vt 0.685547 0.546875
vt 0.208984 0.406250
vt 0.187500 0.406250
vt 0.685547 0.515625
vt 0.671875 0.515625
vt 0.671875 0.734375
vt 0.693359 0.720703
vt 0.693359 0.734375
vt 0.693359 0.705078
vt 0.671875 0.718750
vt 0.693359 0.718750
vt 0.615234 0.593750
vt 0.593750 0.609375
vt 0.593750 0.593750
vt 0.671875 0.500000
vt 0.093750 0.312500
vt 0.115234 0.328125
vt 0.685547 0.484375
vt 0.671875 0.484375
vt 0.693359 0.703125
vt 0.671875 0.689453
vt 0.693359 0.689453
vt 0.671875 0.673828
vt 0.693359 0.687500
vt 0.693359 0.673828
vt 0.429688 0.828125
vt 0.375000 0.843750
vt 0.375000 0.828125
vt 0.375000 0.890625
vt 0.617188 0.515625
vt 0.562500 0.531250
vt 0.562500 0.515625
vt 0.078125 0.421875
vt 0.578125 0.968750
vt 0.632812 0.953125
vt 0.632812 0.968750
vt 0.648438 0.625000
vt 0.648438 0.609375
vt 0.367188 0.828125
vt 0.281250 0.828125
vt 0.234375 0.328125
vt 0.250000 0.375000
vt 0.234375 0.375000
vt 0.304688 0.625000
vt 0.218750 0.671875
vt 0.421875 0.328125
vt 0.406250 0.328125
vt 0.531250 0.593750
vt 0.617188 0.578125
vt 0.617188 0.593750
vt 0.500000 0.453125
vt 0.585938 0.468750
vt 0.585938 0.453125
vt 0.429688 0.843750
vt 0.439453 0.359375
vt 0.421875 0.406250
vt 0.421875 0.359375
vt 0.460938 0.593750
vt 0.406250 0.640625
vt 0.406250 0.593750
vt 0.593750 0.531250
vt 0.611328 0.578125
vt 0.593750 0.578125
vt 0.578125 0.796875
vt 0.632812 0.779297
vt 0.632812 0.796875
vt 0.187500 0.388672
vt 0.242188 0.406250
vt 0.242188 0.388672
vt 0.531250 0.828125
vt 0.531250 0.796875
vt 0.439453 0.281250
vt 0.437500 0.312500
vt 0.437500 0.281250
vt 0.578125 0.765625
vt 0.531250 0.765625
vt 0.687500 0.296875
vt 0.689453 0.328125
vt 0.687500 0.328125
vt 0.687500 0.671875
vt 0.734375 0.669922
vt 0.734375 0.671875
vt 0.687500 0.654297
vt 0.734375 0.656250
vt 0.734375 0.654297
vt 0.718750 0.544922
vt 0.687500 0.546875
vt 0.687500 0.544922
vt 0.687500 0.529297
vt 0.718750 0.531250
vt 0.687500 0.531250
vt 0.687500 0.513672
vt 0.718750 0.515625
vt 0.687500 0.515625
vt 0.531250 0.310547
vt 0.500000 0.312500
vt 0.500000 0.310547
vt 0.218750 0.703125
vt 0.250000 0.671875
vt 0.437500 0.890625
vt 0.406250 0.921875
vt 0.437500 0.921875
vt 0.351562 0.500000
vt 0.296875 0.484375
vt 0.265625 0.546875
vt 0.265625 0.484375
vt 0.398438 0.500000
vt 0.359375 0.562500
vt 0.359375 0.500000
vt 0.031250 0.468750
vt 0.257812 0.406250
vt 0.257812 0.437500
vt 0.562500 0.703125
vt 0.601562 0.734375
vt 0.601562 0.703125
vt 0.718750 0.498047
vt 0.687500 0.500000
vt 0.687500 0.498047
vt 0.718750 0.482422
vt 0.687500 0.484375
vt 0.687500 0.482422
vt 0.562500 0.310547
vt 0.531250 0.312500
vt 0.687500 0.466797
vt 0.718750 0.468750
vt 0.687500 0.468750
vt 0.578125 1.000000
vt 0.609375 0.968750
vt 0.609375 0.906250
vt 0.609375 0.937500
vt 0.492188 0.937500
vt 0.453125 1.000000
vt 0.062500 0.468750
vt 0.031250 0.531250
vt 0.257812 0.484375
vt 0.218750 0.546875
vt 0.093750 0.468750
vt 0.062500 0.531250
vt 0.296875 0.437500
vt 0.335938 0.406250
vt 0.335938 0.437500
vt 0.562500 0.671875
vt 0.601562 0.671875
vt 0.718750 0.451172
vt 0.687500 0.453125
vt 0.687500 0.451172
vt 0.593750 0.310547
vt 0.562500 0.312500
vt 0.687500 0.435547
vt 0.718750 0.437500
vt 0.687500 0.437500
vt 0.687500 0.419922
vt 0.718750 0.421875
vt 0.687500 0.421875
vt 0.578125 0.875000
vt 0.609375 0.875000
vt 0.578125 0.843750
vt 0.609375 0.843750
vt 0.625000 0.312500
vt 0.593750 0.312500
vt 0.687500 0.404297
vt 0.718750 0.406250
vt 0.687500 0.406250
vt 0.718750 0.388672
vt 0.687500 0.390625
vt 0.687500 0.388672
vt 0.656250 0.310547
vt 0.625000 0.310547
vt 0.609375 0.828125
vt 0.609375 0.796875
vt 0.218750 0.406250
vt 0.578125 0.906250
vt 0.718750 0.546875
vt 0.718750 0.513672
vt 0.406250 0.890625
vt 0.349609 0.750000
vt 0.250000 0.828125
vt 0.250000 0.750000
vt 0.562500 0.375000
vt 0.349609 0.671875
vt 0.562500 0.921875
vt 0.562500 0.843750
vt 0.500000 0.953125
vt 0.599609 0.937500
vt 0.599609 0.953125
vt 0.500000 0.828125
vt 0.599609 0.843750
vt 0.599609 0.828125
vt 0.474609 0.556641
vt 0.406250 0.556641
vt 0.265625 0.322266
vt 0.250000 0.322266
vt 0.505859 0.884766
vt 0.437500 0.884766
vt 0.406250 0.322266
vt 0.390625 0.359375
vt 0.390625 0.322266
vt 0.615234 0.468750
vt 0.615234 0.484375
vt 0.630859 0.671875
vt 0.630859 0.656250
vt 0.531250 0.787109
vt 0.484375 0.787109
vt 0.435547 0.318359
vt 0.421875 0.318359
vt 0.484375 0.740234
vt 0.531250 0.781250
vt 0.484375 0.781250
vt 0.451172 0.318359
vt 0.437500 0.359375
vt 0.437500 0.318359
vt 0.671875 0.470703
vt 0.640625 0.955078
vt 0.687500 0.968750
vt 0.687500 0.955078
vt 0.484375 0.583984
vt 0.531250 0.625000
vt 0.484375 0.625000
vt 0.013672 0.302734
vt 0.000000 0.343750
vt 0.000000 0.302734
vt 0.546875 0.958984
vt 0.500000 1.000000
vt 0.500000 0.958984
vt 0.029297 0.302734
vt 0.015625 0.343750
vt 0.015625 0.302734
vt 0.640625 0.765625
vt 0.687500 0.751953
vt 0.687500 0.765625
vt 0.640625 0.736328
vt 0.687500 0.750000
vt 0.687500 0.736328
vt 0.492188 0.838867
vt 0.437500 0.875000
vt 0.437500 0.838867
vt 0.593750 0.541992
vt 0.562500 0.578125
vt 0.562500 0.541992
vt 0.460938 0.510742
vt 0.406250 0.546875
vt 0.406250 0.510742
vt 0.500000 0.401367
vt 0.468750 0.401367
vt 0.500000 0.875000
vt 0.554688 0.843750
vt 0.554688 0.875000
vt 0.296875 0.468750
vt 0.351562 0.468750
vt 0.742188 0.794922
vt 0.687500 0.796875
vt 0.687500 0.794922
vt 0.718750 0.373047
vt 0.687500 0.375000
vt 0.687500 0.373047
vt 0.742188 0.779297
vt 0.687500 0.781250
vt 0.687500 0.779297
vt 0.718750 0.357422
vt 0.687500 0.359375
vt 0.687500 0.357422
vt 0.500000 0.703125
vt 0.554688 0.671875
vt 0.554688 0.703125
vt 0.500000 0.640625
vt 0.554688 0.640625
vt 0.742188 0.763672
vt 0.687500 0.763672
vt 0.687500 0.312500
vt 0.656250 0.312500
vt 0.742188 0.748047
vt 0.687500 0.748047
vt 0.718750 0.341797
vt 0.687500 0.343750
vt 0.687500 0.341797
vt 0.414062 0.468750
vt 0.414062 0.500000
vt 0.554688 0.546875
vt 0.554688 0.515625
vt 0.583008 0.739258
vt 0.531250 0.739258
vt 0.651367 0.551758
vt 0.625000 0.578125
vt 0.625000 0.551758
vt 0.296875 0.442383
vt 0.348633 0.468750
vt 0.651367 0.520508
vt 0.625000 0.546875
vt 0.625000 0.520508
vt 0.359375 0.468750
vt 0.411133 0.442383
vt 0.411133 0.468750
vt 0.531250 0.598633
vt 0.583008 0.625000
vt 0.583008 0.598633
vt 0.684570 0.468750
vt 0.671875 0.468750
vt 0.687500 0.562500
vt 0.671875 0.562500
vt 0.700195 0.953125
vt 0.687500 0.953125
vt 0.106445 0.296875
vt 0.106445 0.312500
vt 0.109375 0.296875
vt 0.122070 0.312500
vt 0.122070 0.296875
vt 0.700195 0.843750
vt 0.687500 0.859375
vt 0.687500 0.843750
vt 0.179688 0.296875
vt 0.171875 0.312500
vt 0.171875 0.296875
vt 0.700195 0.828125
vt 0.687500 0.828125
vt 0.695312 0.812500
vt 0.687500 0.812500
vt 0.203125 0.312500
vt 0.215820 0.304688
vt 0.215820 0.312500
vt 0.218750 0.304688
vt 0.231445 0.312500
vt 0.231445 0.304688
vt 0.125000 0.287109
vt 0.132812 0.328125
vt 0.125000 0.328125
vt 0.453125 0.333984
vt 0.453125 0.375000
vt 0.148438 0.287109
vt 0.140625 0.328125
vt 0.140625 0.287109
vt 0.187500 0.318359
vt 0.171875 0.359375
vt 0.171875 0.318359
vt 0.195312 0.312500
vt 0.187500 0.296875
vt 0.195312 0.296875
vt 0.695312 0.796875
vt 0.718750 0.484375
vt 0.718750 0.466797
vt 0.718750 0.529297
vt 0.634766 0.703125
vt 0.609375 0.734375
vt 0.609375 0.703125
vt 0.661133 0.703125
vt 0.640625 0.734375
vt 0.640625 0.703125
vt 0.634766 0.671875
vt 0.609375 0.671875
vt 0.661133 0.671875
vt 0.656250 0.859375
vt 0.681641 0.838867
vt 0.681641 0.859375
vt 0.212891 0.323242
vt 0.187500 0.343750
vt 0.212891 0.343750
vt 0.468750 0.302734
vt 0.478516 0.343750
vt 0.156250 0.287109
vt 0.164062 0.328125
vt 0.156250 0.328125
vt 0.484375 0.302734
vt 0.494141 0.343750
vt 0.234375 0.287109
vt 0.242188 0.328125
vt 0.337891 0.312500
vt 0.328125 0.304688
vt 0.337891 0.304688
vt 0.687500 0.632812
vt 0.697266 0.640625
vt 0.697266 0.632812
vt 0.275391 0.343750
vt 0.265625 0.343750
vt 0.408203 0.187500
vt 0.406250 0.187500
vt 0.291016 0.343750
vt 0.281250 0.484375
vt 0.281250 0.343750
vt 0.453125 0.187500
vt 0.455078 0.328125
vt 0.453125 0.328125
vt 0.015625 0.296875
vt 0.025391 0.294922
vt 0.025391 0.296875
vt 0.703125 0.982422
vt 0.712891 0.984375
vt 0.712891 0.982422
vt 0.125000 0.364258
vt 0.134766 0.515625
vt 0.267578 0.176758
vt 0.265625 0.328125
vt 0.265625 0.176758
vt 0.140625 0.364258
vt 0.150391 0.515625
vt 0.140625 0.515625
vt 0.283203 0.176758
vt 0.281250 0.328125
vt 0.281250 0.176758
vt 0.041016 0.296875
vt 0.031250 0.294922
vt 0.041016 0.294922
vt 0.703125 0.966797
vt 0.712891 0.968750
vt 0.712891 0.966797
vt 0.009766 0.291016
vt 0.000000 0.296875
vt 0.000000 0.291016
vt 0.095703 0.291016
vt 0.093750 0.296875
vt 0.093750 0.291016
vt 0.712891 0.994141
vt 0.703125 1.000000
vt 0.703125 0.994141
vt 0.703125 0.900391
vt 0.705078 0.906250
vt 0.703125 0.906250
vt 0.056641 0.296875
vt 0.046875 0.294922
vt 0.056641 0.294922
vt 0.703125 0.951172
vt 0.712891 0.953125
vt 0.712891 0.951172
vt 0.400391 0.304688
vt 0.080078 0.289062
vt 0.431641 0.312500
vt 0.705078 0.914062
vt 0.062500 0.296875
vt 0.703125 0.937500
vt 0.000000 0.351562
vt 0.625000 0.609375
vt 0.587891 0.453125
vt 0.025391 0.421875
vt 0.034180 0.468750
vt 0.251953 0.268555
vt 0.081055 0.468750
vt 0.314453 0.312500
vt 0.687500 0.576172
vt 0.359375 0.796875
vt 0.348633 0.671875
vt 0.173828 0.531250
vt 0.036133 0.531250
vt 0.205078 0.531250
vt 0.640625 0.654297
vt 0.343750 0.359375
vt 0.458008 0.453125
vt 0.312500 0.546875
vt 0.536133 0.515625
vt 0.265625 0.359375
vt 0.640625 0.625000
vt 0.114258 0.406250
vt 0.629883 0.765625
vt 0.343750 0.343750
vt 0.640625 0.343750
vt 0.656250 1.000000
vt 0.395508 0.640625
vt 0.254883 0.625000
vt 0.656250 0.968750
vt 0.656250 0.953125
vt 0.132812 1.000000
vt 0.179688 0.703125
vt 0.273438 1.000000
vt 0.210938 0.703125
vt 0.359375 0.679688
vt 0.359375 0.671875
vt 0.632812 0.468750
vt 0.517578 0.323242
vt 0.601562 0.385742
vt 0.548828 0.323242
vt 0.625000 0.498047
vt 0.500000 0.357422
vt 0.632812 0.437500
vt 0.580078 0.323242
vt 0.648438 1.000000
vt 0.611328 0.343750
vt 0.593750 0.375000
vt 0.421875 0.437500
vt 0.395508 1.000000
vt 0.486328 0.437500
vt 0.083008 0.640625
vt 0.111328 0.406250
vt 0.640625 0.468750
vt 0.640625 0.437500
vt 0.648438 0.953125
vt 0.673828 0.406250
vt 0.648438 0.921875
vt 0.642578 0.343750
vt 0.031250 0.341797
vt 0.125000 0.359375
vt 0.551758 0.921875
vt 0.254883 0.484375
vt 0.500000 0.390625
vt 0.078125 0.343750
vt 0.648438 0.870117
vt 0.673828 0.343750
vt 0.648438 0.859375
vt 0.048828 0.328125
vt 0.640625 0.810547
vt 0.640625 0.796875
vt 0.333008 0.379883
vt 0.671875 0.551758
vt 0.629883 0.629883
vt 0.671875 0.520508
vt 0.301758 0.625000
vt 0.442383 0.923828
vt 0.234375 0.315430
vt 0.453125 0.921875
vt 0.468750 0.640625
vt 0.562500 0.734375
vt 0.093750 0.305664
vt 0.546875 0.500000
vt 0.642578 0.383789
vt 0.309570 0.305664
vt 0.111328 0.375000
vt 0.356445 0.328125
vt 0.656250 0.625000
vt 0.220703 0.375000
vt 0.372070 0.305664
vt 0.330078 0.352539
vt 0.387695 0.328125
vt 0.656250 0.596680
vt 0.656250 0.581055
vt 0.583984 0.640625
vt 0.685547 0.531250
vt 0.208984 0.421875
vt 0.671875 0.720703
vt 0.671875 0.705078
vt 0.615234 0.609375
vt 0.685547 0.500000
vt 0.115234 0.312500
vt 0.671875 0.703125
vt 0.671875 0.687500
vt 0.375000 0.875000
vt 0.617188 0.531250
vt 0.093750 0.421875
vt 0.578125 0.953125
vt 0.367188 0.875000
vt 0.250000 0.328125
vt 0.304688 0.671875
vt 0.531250 0.578125
vt 0.429688 0.890625
vt 0.439453 0.406250
vt 0.460938 0.640625
vt 0.611328 0.531250
vt 0.578125 0.779297
vt 0.578125 0.828125
vt 0.439453 0.312500
vt 0.689453 0.296875
vt 0.687500 0.669922
vt 0.687500 0.656250
vt 0.351562 0.562500
vt 0.398438 0.562500
vt 0.718750 0.500000
vt 0.492188 1.000000
vt 0.257812 0.546875
vt 0.093750 0.531250
vt 0.718750 0.453125
vt 0.718750 0.435547
vt 0.718750 0.419922
vt 0.718750 0.404297
vt 0.718750 0.390625
vt 0.349609 0.828125
vt 0.500000 0.937500
vt 0.500000 0.843750
vt 0.474609 0.593750
vt 0.505859 0.921875
vt 0.406250 0.359375
vt 0.546875 0.468750
vt 0.435547 0.359375
vt 0.531250 0.740234
vt 0.451172 0.359375
vt 0.625000 0.470703
vt 0.640625 0.968750
vt 0.531250 0.583984
vt 0.013672 0.343750
vt 0.029297 0.343750
vt 0.640625 0.751953
vt 0.640625 0.750000
vt 0.492188 0.875000
vt 0.460938 0.546875
vt 0.500000 0.437500
vt 0.742188 0.796875
vt 0.718750 0.375000
vt 0.742188 0.781250
vt 0.718750 0.359375
vt 0.500000 0.671875
vt 0.742188 0.765625
vt 0.687500 0.310547
vt 0.742188 0.750000
vt 0.718750 0.343750
vt 0.500000 0.546875
vt 0.583008 0.765625
vt 0.651367 0.578125
vt 0.348633 0.442383
vt 0.651367 0.546875
vt 0.359375 0.442383
vt 0.684570 0.484375
vt 0.700195 0.968750
vt 0.109375 0.312500
vt 0.700195 0.859375
vt 0.179688 0.312500
vt 0.695312 0.828125
vt 0.203125 0.304688
vt 0.218750 0.312500
vt 0.132812 0.287109
vt 0.468750 0.333984
vt 0.148438 0.328125
vt 0.187500 0.359375
vt 0.187500 0.312500
vt 0.634766 0.734375
vt 0.661133 0.734375
vt 0.656250 0.838867
vt 0.187500 0.323242
vt 0.478516 0.302734
vt 0.164062 0.287109
vt 0.494141 0.302734
vt 0.242188 0.287109
vt 0.328125 0.312500
vt 0.687500 0.640625
vt 0.275391 0.484375
vt 0.408203 0.328125
vt 0.291016 0.484375
vt 0.455078 0.187500
vt 0.015625 0.294922
vt 0.703125 0.984375
vt 0.134766 0.364258
vt 0.267578 0.328125
vt 0.150391 0.364258
vt 0.283203 0.328125
vt 0.031250 0.296875
vt 0.703125 0.968750
vt 0.009766 0.296875
vt 0.095703 0.296875
vt 0.712891 1.000000
vt 0.705078 0.900391
vt 0.046875 0.296875
vt 0.703125 0.953125
s 1
usemtl m_ff2072f9-482d-f840-a487-fe7756f8c74f
f 4/1/1 5/2/2 2/3/1
f 3/4/3 2/5/3 1/6/3
f 3/7/4 6/8/4 8/9/5
f 7/10/6 6/11/7 5/12/7
f 6/13/8 2/14/8 5/15/8
f 4/16/9 8/17/9 7/18/9
s 0
f 12/19/10 13/20/11 10/19/12
f 11/19/13 10/21/14 9/19/15
f 16/19/16 9/20/17 14/19/12
f 15/19/18 14/21/19 13/19/12
s 1
f 9/22/20 13/23/20 14/24/20
f 12/25/21 16/26/21 15/27/21
f 23/28/22 18/29/22 20/30/22
f 20/31/23 17/32/23 19/33/23
f 19/34/24 22/35/24 24/36/24
f 24/37/25 21/38/25 23/39/25
f 22/40/26 18/41/26 21/42/26
f 20/43/27 24/44/27 23/45/27
f 31/28/28 26/29/28 28/30/28
f 28/31/29 25/32/29 27/33/29
f 27/34/30 30/35/30 32/36/30
f 32/37/31 29/38/31 31/39/31
f 25/46/26 29/42/26 30/40/26
f 28/43/27 32/44/27 31/45/27
f 39/47/32 34/48/32 36/49/32
f 35/50/33 34/51/33 33/52/33
f 35/53/34 38/54/34 40/55/34
f 40/56/35 37/57/35 39/58/35
f 33/59/36 37/60/36 38/61/36
f 36/62/37 40/63/37 39/64/37
f 47/65/15 42/66/15 44/67/15
f 44/68/33 41/69/33 43/70/33
f 43/71/12 46/72/12 48/65/12
f 48/73/35 45/74/35 47/68/35
f 41/75/26 45/76/26 46/77/26
f 44/78/27 48/76/27 47/79/27
f 55/80/38 50/81/38 52/82/38
f 52/83/39 49/84/39 51/85/39
f 56/86/40 49/87/40 54/88/40
f 56/89/41 53/90/41 55/91/41
f 49/92/42 53/93/42 54/94/42
f 52/95/43 56/96/43 55/97/43
f 60/35/44 61/98/44 58/99/44
f 60/100/39 57/101/39 59/102/39
f 59/103/45 62/104/45 64/105/45
f 63/106/41 62/107/41 61/108/41
f 57/109/46 61/110/46 62/111/46
f 63/112/47 59/113/47 64/114/47
f 71/115/48 66/116/48 68/117/48
f 68/118/49 65/119/49 67/120/49
f 67/121/50 70/122/50 72/123/50
f 72/124/51 69/125/51 71/118/51
f 65/126/52 69/127/52 70/112/52
f 68/128/53 72/129/53 71/130/53
f 79/131/54 74/132/54 76/133/54
f 75/134/49 74/135/49 73/136/49
f 75/137/55 78/138/55 80/139/55
f 79/140/51 78/141/51 77/135/51
f 73/128/56 77/142/56 78/130/56
f 76/143/57 80/144/57 79/145/57
f 87/146/15 82/19/15 84/66/15
f 84/147/33 81/148/33 83/84/33
f 83/149/12 86/150/12 88/151/12
f 88/152/35 85/153/35 87/90/35
f 81/154/26 85/155/26 86/156/26
f 84/157/27 88/158/27 87/159/27
f 95/160/44 90/161/44 92/162/44
f 91/163/39 90/164/39 89/165/39
f 96/166/45 89/167/45 94/168/45
f 95/169/41 94/170/41 93/171/41
f 89/172/46 93/173/46 94/174/46
f 95/175/47 91/176/47 96/177/47
f 103/178/44 98/179/44 100/180/44
f 99/181/39 98/182/39 97/183/39
f 99/184/45 102/185/45 104/186/45
f 104/187/41 101/188/41 103/189/41
f 102/190/46 98/191/46 101/192/46
f 100/193/47 104/194/47 103/195/47
f 111/196/15 106/197/15 108/198/15
f 108/199/33 105/200/33 107/201/33
f 107/202/12 110/203/12 112/204/12
f 112/205/35 109/201/35 111/206/35
f 105/207/26 109/208/26 110/209/26
f 108/176/27 112/210/27 111/211/27
f 119/212/15 114/213/15 116/202/15
f 116/214/33 113/67/33 115/88/33
f 115/215/12 118/216/12 120/212/12
f 120/217/35 117/218/35 119/214/35
f 113/210/26 117/219/26 118/220/26
f 116/219/27 120/221/27 119/222/27
f 127/223/58 122/224/58 124/225/58
f 123/226/59 122/227/59 121/228/59
f 123/229/60 126/230/60 128/231/60
f 127/232/61 126/233/61 125/70/61
f 126/234/62 122/235/62 125/236/62
f 124/237/63 128/238/63 127/239/63
f 135/240/64 130/241/64 132/242/64
f 132/243/59 129/244/59 131/245/59
f 131/246/65 134/247/65 136/248/65
f 136/249/61 133/250/61 135/251/61
f 129/204/66 133/252/66 134/253/66
f 132/254/67 136/255/67 135/256/67
f 143/257/64 138/258/64 140/259/64
f 140/260/59 137/261/59 139/262/59
f 139/263/65 142/264/65 144/265/65
f 144/165/61 141/266/61 143/260/61
f 142/145/66 138/267/66 141/268/66
f 140/269/67 144/270/67 143/271/67
f 148/272/64 149/273/64 146/274/64
f 148/275/59 145/276/59 147/277/59
f 147/278/65 150/279/65 152/280/65
f 152/281/61 149/282/61 151/283/61
f 145/44/66 149/284/66 150/285/66
f 148/286/67 152/287/67 151/288/67
f 156/289/68 157/290/68 154/291/68
f 155/292/69 154/293/69 153/294/69
f 160/295/70 153/296/70 158/297/70
f 159/298/71 158/299/71 157/300/71
f 158/268/72 154/301/72 157/302/72
f 156/303/73 160/302/73 159/304/73
f 167/305/74 162/306/74 164/307/74
f 164/308/69 161/141/69 163/309/69
f 168/310/75 161/311/75 166/312/75
f 168/313/71 165/314/71 167/308/71
f 161/303/76 165/315/76 166/304/76
f 167/316/77 163/317/77 168/315/77
f 175/318/32 170/78/32 172/319/32
f 172/320/33 169/321/33 171/322/33
f 171/323/34 174/324/34 176/325/34
f 175/326/35 174/327/35 173/328/35
f 169/329/78 173/330/78 174/331/78
f 172/321/79 176/332/80 175/333/80
f 183/334/32 178/335/32 180/336/32
f 180/337/33 177/338/33 179/339/33
f 179/340/34 182/341/34 184/342/34
f 183/337/35 182/343/35 181/269/35
f 177/344/81 181/345/78 182/172/78
f 180/346/80 184/345/80 183/347/80
f 188/348/32 189/349/32 186/350/32
f 187/351/82 186/352/82 185/353/82
f 187/354/34 190/355/34 192/356/34
f 192/357/83 189/358/83 191/359/83
f 190/360/84 186/361/84 189/362/84
f 188/363/85 192/364/85 191/365/85
f 199/366/32 194/367/32 196/368/32
f 195/369/85 194/370/85 193/371/85
f 200/372/34 193/373/34 198/374/34
f 200/375/84 197/376/84 199/377/84
f 193/26/82 197/378/82 198/379/82
f 199/380/83 195/381/83 200/382/83
f 204/383/86 205/384/86 202/385/86
f 203/386/87 202/387/87 201/299/87
f 203/388/88 206/91/88 208/389/88
f 208/390/89 205/386/89 207/391/89
f 201/392/90 205/393/90 206/394/90
f 207/395/91 203/396/91 208/397/91
f 215/398/86 210/399/86 212/400/86
f 211/401/90 210/390/90 209/391/90
f 216/402/88 209/403/88 214/343/88
f 216/404/91 213/401/91 215/405/91
f 214/406/89 210/407/89 213/408/89
f 212/409/87 216/410/87 215/411/87
f 223/412/86 218/413/86 220/414/86
f 219/205/33 218/415/33 217/225/33
f 219/416/88 222/417/88 224/418/88
f 224/232/35 221/419/35 223/116/35
f 217/420/92 221/421/92 222/422/92
f 220/399/93 224/423/93 223/424/93
f 231/425/86 226/206/86 228/426/86
f 227/427/33 226/428/33 225/429/33
f 227/430/88 230/431/88 232/138/88
f 232/432/35 229/198/35 231/433/35
f 225/434/92 229/435/92 230/436/92
f 228/437/93 232/438/93 231/439/93
f 239/440/86 234/415/86 236/413/86
f 236/441/33 233/442/33 235/443/33
f 235/444/88 238/445/88 240/446/88
f 239/447/35 238/448/35 237/449/35
f 233/450/92 237/451/92 238/452/92
f 236/453/93 240/454/93 239/455/93
f 247/450/94 242/456/94 244/457/94
f 244/458/33 241/459/33 243/460/33
f 243/461/95 246/457/95 248/462/95
f 247/463/35 246/464/35 245/465/35
f 241/466/96 245/467/96 246/468/96
f 244/469/97 248/470/97 247/471/97
f 255/472/98 250/473/98 252/474/98
f 251/475/99 250/476/99 249/477/99
f 256/478/100 249/479/101 254/480/100
f 256/481/102 253/482/102 255/483/102
f 249/484/103 253/485/103 254/71/103
f 255/486/104 251/487/104 256/488/104
f 263/489/105 258/82/105 260/100/105
f 260/490/99 257/491/99 259/492/99
f 259/493/106 262/494/106 264/495/106
f 264/496/102 261/86/102 263/48/102
f 257/265/26 261/497/26 262/498/26
f 260/499/27 264/500/27 263/501/27
f 271/502/107 266/503/103 268/504/103
f 268/505/99 265/506/99 267/507/99
f 267/508/108 270/509/108 272/481/109
f 271/510/102 270/511/102 269/512/102
f 265/513/101 269/514/101 270/185/101
f 271/515/98 267/331/98 272/516/98
f 279/517/110 274/518/110 276/329/110
f 276/519/111 273/520/111 275/496/111
f 275/521/112 278/522/112 280/264/112
f 280/523/113 277/524/113 279/519/113
f 273/525/26 277/526/26 278/527/26
f 276/528/27 280/501/27 279/529/27
f 287/530/114 282/531/115 284/532/115
f 284/533/111 281/534/111 283/508/111
f 288/535/116 281/536/116 286/537/116
f 287/538/113 286/539/113 285/540/113
f 286/515/117 282/541/117 285/542/117
f 284/543/118 288/542/118 287/544/118
f 292/533/118 293/545/118 290/546/118
f 291/547/111 290/548/111 289/549/111
f 291/550/119 294/551/117 296/552/117
f 296/553/113 293/545/113 295/554/113
f 289/85/114 293/40/114 294/91/114
f 292/450/120 296/555/120 295/556/120
f 303/517/121 298/518/121 300/329/121
f 300/519/122 297/520/122 299/496/122
f 299/521/123 302/522/123 304/264/123
f 304/523/124 301/524/124 303/519/124
f 297/525/26 301/526/26 302/527/26
f 300/528/27 304/501/27 303/529/27
f 311/489/125 306/82/125 308/100/125
f 308/490/126 305/491/126 307/492/126
f 307/493/127 310/494/127 312/495/127
f 312/496/128 309/86/128 311/48/128
f 310/498/26 306/557/26 309/497/26
f 308/499/27 312/500/27 311/501/27
f 319/502/129 314/503/130 316/504/130
f 316/505/131 313/506/132 315/507/132
f 315/508/133 318/509/133 320/481/133
f 319/510/134 318/511/128 317/512/134
f 313/513/135 317/514/135 318/185/135
f 316/558/136 320/516/136 319/515/136
f 324/474/136 325/559/136 322/473/136
f 323/475/137 322/476/138 321/477/137
f 323/560/135 326/480/139 328/478/139
f 327/483/140 326/509/134 325/482/140
f 321/484/130 325/485/130 326/71/130
f 324/561/141 328/488/141 327/486/141
f 335/562/15 330/563/15 332/564/15
f 332/565/33 329/221/33 331/222/33
f 331/566/12 334/564/12 336/485/12
f 336/543/35 333/567/35 335/568/35
f 329/569/26 333/570/26 334/571/26
f 332/572/27 336/573/27 335/574/27
f 343/575/15 338/446/15 340/576/15
f 340/577/33 337/106/33 339/578/33
f 339/579/12 342/488/12 344/580/12
f 344/581/35 341/582/35 343/583/35
f 337/346/26 341/584/26 342/585/26
f 340/385/27 344/586/27 343/587/27
f 351/588/15 346/77/15 348/589/15
f 348/590/142 345/443/142 347/591/142
f 352/592/12 345/593/12 350/594/12
f 352/595/143 349/596/143 351/597/143
f 345/347/144 349/598/144 350/405/144
f 348/599/145 352/600/145 351/601/145
f 356/602/15 357/603/15 354/604/15
f 356/605/146 353/606/146 355/607/146
f 355/608/12 358/609/12 360/610/12
f 360/611/147 357/612/147 359/613/147
f 353/614/148 357/615/148 358/616/148
f 356/617/149 360/618/149 359/619/149
f 367/620/15 362/621/15 364/622/15
f 364/623/33 361/624/33 363/625/33
f 363/626/12 366/627/12 368/628/12
f 368/629/35 365/226/35 367/630/35
f 361/631/26 365/632/26 366/633/26
f 364/634/27 368/489/27 367/635/27
f 375/636/150 370/637/150 372/638/150
f 372/639/33 369/640/33 371/641/33
f 371/642/151 374/643/151 376/644/151
f 376/645/35 373/646/35 375/647/35
f 369/648/152 373/649/152 374/650/152
f 372/651/153 376/649/153 375/652/154
f 383/653/155 378/616/156 380/654/156
f 379/553/33 378/655/33 377/656/33
f 379/657/153 382/618/153 384/658/153
f 384/659/35 381/660/35 383/661/35
f 377/495/151 381/662/151 382/663/151
f 380/104/157 384/664/157 383/665/157
f 391/666/158 386/462/158 388/667/158
f 388/668/159 385/669/159 387/670/159
f 392/671/160 385/672/160 390/634/160
f 392/673/161 389/674/161 391/675/161
f 385/676/162 389/677/162 390/678/163
f 388/679/164 392/680/164 391/681/164
f 399/682/158 394/405/158 396/683/158
f 396/684/165 393/293/165 395/685/165
f 395/686/160 398/600/160 400/687/160
f 400/473/166 397/685/166 399/299/166
f 393/402/162 397/688/162 398/689/162
f 396/690/164 400/691/164 399/692/167
f 407/693/168 402/694/158 404/695/168
f 404/696/169 401/697/169 403/698/169
f 403/699/160 406/695/160 408/700/160
f 408/701/170 405/700/170 407/702/170
f 401/703/171 405/704/171 406/705/171
f 404/706/172 408/707/172 407/708/172
f 412/709/158 413/710/158 410/711/158
f 411/712/173 410/208/173 409/713/173
f 411/714/160 414/715/174 416/716/160
f 416/717/175 413/718/175 415/719/176
f 414/720/177 410/721/177 413/722/177
f 412/637/178 416/701/178 415/723/178
f 423/502/179 418/503/179 420/504/179
f 419/507/180 418/724/180 417/506/180
f 424/481/181 417/534/181 422/509/181
f 424/725/182 421/512/183 423/510/183
f 417/513/184 421/514/184 422/185/184
f 420/558/185 424/516/185 423/515/185
f 431/472/186 426/473/187 428/474/188
f 428/726/189 425/477/189 427/475/189
f 427/560/190 430/480/190 432/478/190
f 432/481/191 429/482/192 431/483/192
f 425/484/179 429/485/179 430/71/179
f 428/561/193 432/488/193 431/486/193
f 439/727/121 434/728/121 436/729/121
f 436/730/122 433/731/122 435/732/122
f 435/733/123 438/729/123 440/734/123
f 440/735/124 437/732/124 439/92/124
f 433/736/26 437/737/26 438/738/26
f 439/739/27 435/740/27 440/741/27
f 444/742/194 445/743/194 442/262/194
f 443/744/195 442/745/195 441/746/195
f 448/747/196 441/748/196 446/260/196
f 447/749/197 446/750/197 445/427/197
f 446/751/198 442/752/198 445/753/199
f 444/754/200 448/755/201 447/756/201
f 455/757/202 450/492/202 452/758/202
f 452/759/195 449/433/203 451/760/195
f 451/761/204 454/762/205 456/763/204
f 455/764/197 454/765/197 453/766/197
f 449/767/206 453/768/207 454/769/207
f 452/770/208 456/771/209 455/772/209
f 460/773/202 461/774/210 458/68/210
f 460/775/195 457/776/195 459/777/195
f 464/778/204 457/779/204 462/780/204
f 464/781/197 461/782/211 463/783/197
f 462/784/206 458/785/212 461/786/206
f 460/787/209 464/788/208 463/789/208
f 471/790/213 466/791/213 468/792/213
f 468/793/195 465/794/195 467/795/195
f 467/796/214 470/797/214 472/798/214
f 471/799/215 470/800/197 469/801/197
f 470/802/216 466/803/217 469/804/216
f 468/805/218 472/806/219 471/807/219
f 4/1/1 7/808/2 5/2/2
f 3/4/3 4/809/3 2/5/3
f 3/7/4 1/810/220 6/8/4
f 7/10/6 8/811/6 6/11/7
f 6/13/8 1/812/221 2/14/8
f 4/16/9 3/813/9 8/17/9
s 0
f 12/19/17 15/20/12 13/20/222
f 11/19/223 12/21/15 10/21/13
f 16/19/11 11/20/12 9/20/224
f 15/19/225 16/21/12 14/21/18
s 1
f 9/22/20 10/814/20 13/23/20
f 12/25/21 11/815/21 16/26/21
f 23/28/22 21/513/22 18/29/22
f 20/31/23 18/816/23 17/32/23
f 19/34/24 17/207/24 22/35/24
f 24/37/25 22/817/25 21/38/25
f 22/40/26 17/46/26 18/41/26
f 20/43/27 19/555/27 24/44/27
f 31/28/28 29/513/28 26/29/28
f 28/31/29 26/816/29 25/32/29
f 27/34/30 25/207/30 30/35/30
f 32/37/31 30/817/31 29/38/31
f 25/46/26 26/41/26 29/42/26
f 28/43/27 27/555/27 32/44/27
f 39/47/32 37/818/32 34/48/32
f 35/50/33 36/819/33 34/51/33
f 35/53/34 33/820/34 38/54/34
f 40/56/35 38/821/35 37/57/35
f 33/59/36 34/822/36 37/60/36
f 36/62/37 35/684/37 40/63/37
f 47/65/15 45/72/15 42/66/15
f 44/68/33 42/74/33 41/69/33
f 43/71/12 41/563/12 46/72/12
f 48/73/35 46/217/35 45/74/35
f 41/75/26 42/823/26 45/76/26
f 44/78/27 43/823/27 48/76/27
f 55/80/38 53/824/38 50/81/38
f 52/83/39 50/825/39 49/84/39
f 56/86/40 51/826/40 49/87/40
f 56/89/41 54/827/41 53/90/41
f 49/92/42 50/828/42 53/93/42
f 52/95/43 51/829/43 56/96/43
f 60/35/44 63/830/44 61/98/44
f 60/100/39 58/831/39 57/101/39
f 59/103/45 57/832/45 62/104/45
f 63/106/41 64/833/41 62/107/41
f 57/109/46 58/834/46 61/110/46
f 63/112/47 60/126/47 59/113/47
f 71/115/48 69/835/48 66/116/48
f 68/118/49 66/125/49 65/119/49
f 67/121/50 65/836/50 70/122/50
f 72/124/51 70/837/51 69/125/51
f 65/126/52 66/838/52 69/127/52
f 68/128/53 67/839/53 72/129/53
f 79/131/54 77/840/54 74/132/54
f 75/134/49 76/140/49 74/135/49
f 75/137/55 73/841/55 78/138/55
f 79/140/51 80/309/51 78/141/51
f 73/128/56 74/842/56 77/142/56
f 76/143/57 75/843/57 80/144/57
f 87/146/15 85/844/15 82/19/15
f 84/147/33 82/845/33 81/148/33
f 83/149/12 81/846/12 86/150/12
f 88/152/35 86/847/35 85/153/35
f 81/154/26 82/848/26 85/155/26
f 84/157/27 83/849/27 88/158/27
f 95/160/44 93/850/44 90/161/44
f 91/163/39 92/851/39 90/164/39
f 96/166/45 91/852/45 89/167/45
f 95/169/41 96/853/41 94/170/41
f 89/172/46 90/854/46 93/173/46
f 95/175/47 92/855/47 91/176/47
f 103/178/44 101/856/44 98/179/44
f 99/181/39 100/857/39 98/182/39
f 99/184/45 97/858/45 102/185/45
f 104/187/41 102/859/41 101/188/41
f 102/190/46 97/222/46 98/191/46
f 100/193/47 99/860/47 104/194/47
f 111/196/15 109/861/15 106/197/15
f 108/199/33 106/224/33 105/200/33
f 107/202/12 105/213/12 110/203/12
f 112/205/35 110/199/35 109/201/35
f 105/207/26 106/713/26 109/208/26
f 108/176/27 107/437/27 112/210/27
f 119/212/15 117/216/15 114/213/15
f 116/214/33 114/218/33 113/67/33
f 115/215/12 113/419/12 118/216/12
f 120/217/35 118/148/35 117/218/35
f 113/210/26 114/211/26 117/219/26
f 116/219/27 115/220/27 120/221/27
f 127/223/58 125/862/58 122/224/58
f 123/226/59 124/863/59 122/227/59
f 123/229/60 121/864/60 126/230/60
f 127/232/61 128/865/61 126/233/61
f 126/234/62 121/866/62 122/235/62
f 124/237/63 123/867/63 128/238/63
f 135/240/64 133/868/64 130/241/64
f 132/243/59 130/869/59 129/244/59
f 131/246/65 129/870/65 134/247/65
f 136/249/61 134/871/61 133/250/61
f 129/204/66 130/872/66 133/252/66
f 132/254/67 131/873/67 136/255/67
f 143/257/64 141/874/64 138/258/64
f 140/260/59 138/266/59 137/261/59
f 139/263/65 137/875/65 142/264/65
f 144/165/61 142/876/61 141/266/61
f 142/145/66 137/143/66 138/267/66
f 140/269/67 139/877/67 144/270/67
f 148/272/64 151/878/64 149/273/64
f 148/275/59 146/879/59 145/276/59
f 147/278/65 145/880/65 150/279/65
f 152/281/61 150/881/61 149/282/61
f 145/44/66 146/882/66 149/284/66
f 148/286/67 147/883/67 152/287/67
f 156/289/68 159/884/68 157/290/68
f 155/292/69 156/885/69 154/293/69
f 160/295/70 155/886/70 153/296/70
f 159/298/71 160/887/71 158/299/71
f 158/268/72 153/267/72 154/301/72
f 156/303/73 155/301/73 160/302/73
f 167/305/74 165/888/74 162/306/74
f 164/308/69 162/314/69 161/141/69
f 168/310/75 163/889/75 161/311/75
f 168/313/71 166/197/71 165/314/71
f 161/303/76 162/317/76 165/315/76
f 167/316/77 164/736/77 163/317/77
f 175/318/32 173/79/32 170/78/32
f 172/320/33 170/604/33 169/321/33
f 171/323/34 169/335/34 174/324/34
f 175/326/35 176/890/35 174/327/35
f 169/329/78 170/891/78 173/330/78
f 172/321/79 171/892/79 176/332/80
f 183/334/32 181/893/32 178/335/32
f 180/337/33 178/269/33 177/338/33
f 179/340/34 177/624/34 182/341/34
f 183/337/35 184/894/35 182/343/35
f 177/344/81 178/895/81 181/345/78
f 180/346/80 179/895/80 184/345/80
f 188/348/32 191/896/32 189/349/32
f 187/351/82 188/897/82 186/352/82
f 187/354/34 185/898/34 190/355/34
f 192/357/83 190/899/83 189/358/83
f 190/360/84 185/758/84 186/361/84
f 188/363/85 187/900/85 192/364/85
f 199/366/32 197/901/32 194/367/32
f 195/369/85 196/902/85 194/370/85
f 200/372/34 195/903/34 193/373/34
f 200/375/84 198/904/84 197/376/84
f 193/26/82 194/905/82 197/378/82
f 199/380/83 196/906/83 195/381/83
f 204/383/86 207/907/86 205/384/86
f 203/386/87 204/908/87 202/387/87
f 203/388/88 201/909/88 206/91/88
f 208/390/89 206/908/89 205/386/89
f 201/392/90 202/910/90 205/393/90
f 207/395/91 204/911/91 203/396/91
f 215/398/86 213/912/86 210/399/86
f 211/401/90 212/913/90 210/390/90
f 216/402/88 211/914/88 209/403/88
f 216/404/91 214/913/91 213/401/91
f 214/406/89 209/915/89 210/407/89
f 212/409/87 211/916/87 216/410/87
f 223/412/86 221/440/86 218/413/86
f 219/205/33 220/917/33 218/415/33
f 219/416/88 217/918/88 222/417/88
f 224/232/35 222/919/35 221/419/35
f 217/420/92 218/920/92 221/421/92
f 220/399/93 219/333/93 224/423/93
f 231/425/86 229/921/86 226/206/86
f 227/427/33 228/922/33 226/428/33
f 227/430/88 225/923/88 230/431/88
f 232/432/35 230/196/35 229/198/35
f 225/434/92 226/924/92 229/435/92
f 228/437/93 227/105/93 232/438/93
f 239/440/86 237/925/86 234/415/86
f 236/441/33 234/926/33 233/442/33
f 235/444/88 233/927/88 238/445/88
f 239/447/35 240/928/35 238/448/35
f 233/450/92 234/929/92 237/451/92
f 236/453/93 235/389/93 240/454/93
f 247/450/94 245/930/94 242/456/94
f 244/458/33 242/931/33 241/459/33
f 243/461/95 241/450/95 246/457/95
f 247/463/35 248/932/35 246/464/35
f 241/466/96 242/933/96 245/467/96
f 244/469/97 243/934/97 248/470/97
f 255/472/98 253/559/98 250/473/98
f 251/475/99 252/726/99 250/476/99
f 256/478/100 251/560/101 249/479/101
f 256/481/102 254/509/102 253/482/102
f 249/484/103 250/431/103 253/485/103
f 255/486/104 252/561/104 251/487/104
f 263/489/105 261/935/105 258/82/105
f 260/490/99 258/101/99 257/491/99
f 259/493/106 257/936/106 262/494/106
f 264/496/102 262/520/102 261/86/102
f 257/265/26 258/557/26 261/497/26
f 260/499/27 259/893/27 264/500/27
f 271/502/107 269/937/107 266/503/103
f 268/505/99 266/724/99 265/506/99
f 267/508/108 265/534/108 270/509/108
f 271/510/102 272/725/102 270/511/102
f 265/513/101 266/420/101 269/514/101
f 271/515/98 268/558/98 267/331/98
f 279/517/110 277/938/110 274/518/110
f 276/519/111 274/524/111 273/520/111
f 275/521/112 273/939/112 278/522/112
f 280/523/113 278/940/113 277/524/113
f 273/525/26 274/291/26 277/526/26
f 276/528/27 275/499/27 280/501/27
f 287/530/114 285/941/114 282/531/115
f 284/533/111 282/546/111 281/534/111
f 288/535/116 283/942/226 281/536/116
f 287/538/113 288/943/113 286/539/113
f 286/515/117 281/558/117 282/541/117
f 284/543/118 283/541/118 288/542/118
f 292/533/118 295/554/118 293/545/118
f 291/547/111 292/944/111 290/548/111
f 291/550/119 289/945/119 294/551/117
f 296/553/113 294/656/113 293/545/113
f 289/85/114 290/46/114 293/40/114
f 292/450/120 291/930/120 296/555/120
f 303/517/121 301/938/121 298/518/121
f 300/519/122 298/524/122 297/520/122
f 299/521/123 297/939/123 302/522/123
f 304/523/124 302/940/124 301/524/124
f 297/525/26 298/291/26 301/526/26
f 300/528/27 299/499/27 304/501/27
f 311/489/125 309/935/125 306/82/125
f 308/490/126 306/101/126 305/491/126
f 307/493/127 305/936/127 310/494/127
f 312/496/128 310/520/128 309/86/128
f 310/498/26 305/265/26 306/557/26
f 308/499/27 307/893/27 312/500/27
f 319/502/129 317/937/129 314/503/130
f 316/505/131 314/724/131 313/506/132
f 315/508/133 313/534/133 318/509/133
f 319/510/134 320/725/128 318/511/128
f 313/513/135 314/420/135 317/514/135
f 316/558/136 315/331/136 320/516/136
f 324/474/136 327/472/136 325/559/136
f 323/475/137 324/726/138 322/476/138
f 323/560/135 321/479/135 326/480/139
f 327/483/140 328/481/134 326/509/134
f 321/484/130 322/431/130 325/485/130
f 324/561/141 323/487/141 328/488/141
f 335/562/15 333/946/15 330/563/15
f 332/565/33 330/32/33 329/221/33
f 331/566/12 329/562/12 334/564/12
f 336/543/35 334/330/35 333/567/35
f 329/569/26 330/947/26 333/570/26
f 332/572/27 331/948/27 336/573/27
f 343/575/15 341/949/15 338/446/15
f 340/577/33 338/833/33 337/106/33
f 339/579/12 337/950/12 342/488/12
f 344/581/35 342/951/35 341/582/35
f 337/346/26 338/952/26 341/584/26
f 340/385/27 339/528/27 344/586/27
f 351/588/15 349/456/15 346/77/15
f 348/590/142 346/953/142 345/443/142
f 352/592/12 347/954/12 345/593/12
f 352/595/143 350/955/143 349/596/143
f 345/347/144 346/956/144 349/598/144
f 348/599/145 347/957/145 352/600/145
f 356/602/15 359/958/15 357/603/15
f 356/605/146 354/959/146 353/606/146
f 355/608/12 353/29/12 358/609/12
f 360/611/147 358/960/147 357/612/147
f 353/614/148 354/961/148 357/615/148
f 356/617/149 355/962/149 360/618/149
f 367/620/15 365/963/15 362/621/15
f 364/623/33 362/449/33 361/624/33
f 363/626/12 361/964/12 366/627/12
f 368/629/35 366/965/35 365/226/35
f 361/631/26 362/948/26 365/632/26
f 364/634/27 363/102/27 368/489/27
f 375/636/150 373/966/227 370/637/150
f 372/639/33 370/967/33 369/640/33
f 371/642/151 369/968/151 374/643/151
f 376/645/35 374/969/35 373/646/35
f 369/648/152 370/970/152 373/649/152
f 372/651/153 371/970/153 376/649/153
f 383/653/155 381/971/155 378/616/156
f 379/553/33 380/972/33 378/655/33
f 379/657/153 377/973/153 382/618/153
f 384/659/35 382/974/35 381/660/35
f 377/495/151 378/676/151 381/662/151
f 380/104/157 379/975/157 384/664/157
f 391/666/158 389/976/158 386/462/158
f 388/668/159 386/977/159 385/669/159
f 392/671/160 387/978/160 385/672/160
f 392/673/161 390/979/166 389/674/161
f 385/676/162 386/980/162 389/677/162
f 388/679/164 387/603/164 392/680/164
f 399/682/158 397/981/158 394/405/158
f 396/684/165 394/59/165 393/293/165
f 395/686/160 393/982/160 398/600/160
f 400/473/166 398/684/166 397/685/166
f 393/402/162 394/794/162 397/688/162
f 396/690/164 395/983/164 400/691/164
f 407/693/168 405/984/158 402/694/158
f 404/696/169 402/985/169 401/697/169
f 403/699/160 401/693/160 406/695/160
f 408/701/170 406/986/170 405/700/170
f 401/703/171 402/987/171 405/704/171
f 404/706/172 403/988/172 408/707/172
f 412/709/158 415/989/158 413/710/158
f 411/712/173 412/990/173 410/208/173
f 411/714/160 409/991/174 414/715/174
f 416/717/175 414/992/175 413/718/175
f 414/720/177 409/993/177 410/721/177
f 412/637/178 411/702/178 416/701/178
f 423/502/179 421/937/179 418/503/179
f 419/507/180 420/505/180 418/724/180
f 424/481/181 419/508/228 417/534/181
f 424/725/182 422/511/182 421/512/183
f 417/513/184 418/420/184 421/514/184
f 420/558/185 419/331/185 424/516/185
f 431/472/186 429/559/186 426/473/187
f 428/726/189 426/476/189 425/477/189
f 427/560/190 425/479/190 430/480/190
f 432/481/191 430/509/191 429/482/192
f 425/484/179 426/431/179 429/485/179
f 428/561/193 427/487/193 432/488/193
f 439/727/121 437/994/121 434/728/121
f 436/730/122 434/995/122 433/731/122
f 435/733/123 433/727/123 438/729/123
f 440/735/124 438/730/124 437/732/124
f 433/736/26 434/996/26 437/737/26
f 439/739/27 436/997/27 435/740/27
f 444/742/194 447/998/194 445/743/194
f 443/744/195 444/999/195 442/745/195
f 448/747/196 443/1000/196 441/748/196
f 447/749/197 448/1001/197 446/750/197
f 446/751/198 441/1002/198 442/752/198
f 444/754/200 443/1003/200 448/755/201
f 455/757/202 453/1004/202 450/492/202
f 452/759/195 450/1005/203 449/433/203
f 451/761/204 449/1006/205 454/762/205
f 455/764/197 456/1007/197 454/765/197
f 449/767/206 450/1008/206 453/768/207
f 452/770/208 451/1009/208 456/771/209
f 460/773/202 463/1010/202 461/774/210
f 460/775/195 458/1011/195 457/776/195
f 464/778/204 459/1012/204 457/779/204
f 464/781/197 462/1013/211 461/782/211
f 462/784/206 457/1014/212 458/785/212
f 460/787/209 459/1015/209 464/788/208
f 471/790/213 469/1016/213 466/791/213
f 468/793/195 466/1017/195 465/794/195
f 467/796/214 465/1018/214 470/797/214
f 471/799/215 472/1019/215 470/800/197
f 470/802/216 465/1020/229 466/803/217
f 468/805/218 467/1021/218 472/806/219
