# Blender 4.4.3
# www.blender.org
mtllib medic.mtl
o medic
v 0.109375 0.850218 -0.218746
v 0.109375 0.852617 -0.287454
v 0.109375 0.662832 -0.225290
v 0.109375 0.665232 -0.293998
v -0.109375 0.852617 -0.287454
v -0.109375 0.850218 -0.218746
v -0.109375 0.665232 -0.293998
v -0.109375 0.662832 -0.225290
v 0.156250 1.329294 -0.134657
v 0.156250 1.342913 -0.290312
v 0.156250 1.142508 -0.150999
v 0.156250 1.156126 -0.306654
v -0.156250 1.342913 -0.290312
v -0.156250 1.329294 -0.134657
v -0.156250 1.156126 -0.306654
v -0.156250 1.142508 -0.150999
v 0.080084 1.163477 -0.225000
v 0.080084 1.163477 -0.287500
v 0.127920 1.047992 -0.225000
v 0.127920 1.047992 -0.287500
v -0.018078 1.122817 -0.287500
v -0.018078 1.122817 -0.225000
v 0.029758 1.007332 -0.287500
v 0.029758 1.007332 -0.225000
v 0.217584 1.163477 -0.225000
v 0.217584 1.163477 -0.287500
v 0.265420 1.047992 -0.225000
v 0.265420 1.047992 -0.287500
v 0.119422 1.122817 -0.287500
v 0.119422 1.122817 -0.225000
v 0.167258 1.007332 -0.287500
v 0.167258 1.007332 -0.225000
v 0.140625 1.286266 -0.296905
v 0.140625 1.286838 -0.303128
v 0.140625 1.192909 -0.305483
v 0.140625 1.193481 -0.311707
v -0.146875 1.286838 -0.303128
v -0.146875 1.286266 -0.296905
v -0.146875 1.193481 -0.311707
v -0.146875 1.192909 -0.305483
v 0.250000 1.250000 -0.100000
v 0.250000 1.250000 -0.225000
v 0.250000 0.750000 -0.100000
v 0.250000 0.750000 -0.225000
v -0.250000 1.250000 -0.225000
v -0.250000 1.250000 -0.100000
v -0.250000 0.750000 -0.225000
v -0.250000 0.750000 -0.100000
v 0.187500 1.437383 -0.120490
v 0.187500 1.450377 -0.181624
v 0.187500 1.235640 -0.163371
v 0.187500 1.248634 -0.224506
v -0.187500 1.450377 -0.181624
v -0.187500 1.437383 -0.120490
v -0.187500 1.248634 -0.224506
v -0.187500 1.235640 -0.163371
v -0.186577 1.562018 -0.061586
v -0.185083 1.576234 -0.128834
v -0.061397 1.151319 -0.145624
v -0.059903 1.165534 -0.212871
v -0.322788 1.536602 -0.140271
v -0.324282 1.522386 -0.073024
v -0.197608 1.125903 -0.224309
v -0.199102 1.111687 -0.157061
v -0.194001 1.548971 0.073011
v -0.209932 1.608028 0.060175
v -0.169288 1.515885 -0.109885
v -0.185219 1.574941 -0.122721
v -0.347637 1.568396 0.048738
v -0.331706 1.509339 0.061574
v -0.322924 1.535310 -0.134158
v -0.306993 1.476253 -0.121322
v -0.210019 1.609075 0.057275
v -0.191989 1.550596 0.044571
v -0.210316 1.586431 0.161084
v -0.192286 1.527953 0.148380
v -0.329627 1.510161 0.035357
v -0.347657 1.568640 0.048061
v -0.329924 1.487518 0.139166
v -0.347954 1.545997 0.151870
v -0.210316 1.586431 0.161084
v -0.204878 1.582071 0.098974
v -0.126080 1.293324 0.189036
v -0.120642 1.288964 0.126926
v -0.342516 1.541637 0.089760
v -0.347954 1.545997 0.151870
v -0.258280 1.248529 0.117712
v -0.263718 1.252890 0.179822
v 0.265625 1.437500 0.200000
v 0.265625 1.437500 0.106250
v 0.265625 0.750000 0.200000
v 0.265625 0.750000 0.106250
v -0.265625 1.437500 0.106250
v -0.265625 1.437500 0.200000
v -0.265625 0.750000 0.106250
v -0.265625 0.750000 0.200000
v -0.172363 1.529739 -0.042326
v -0.189886 1.594702 -0.056445
v -0.161654 1.515402 -0.121580
v -0.179177 1.580364 -0.135700
v -0.339565 1.551624 -0.068877
v -0.322042 1.486661 -0.054758
v -0.328856 1.537287 -0.148132
v -0.311333 1.472324 -0.134012
v -0.188838 1.551797 0.079605
v -0.206362 1.616759 0.065485
v -0.178129 1.537459 0.000350
v -0.195653 1.602422 -0.013770
v -0.356041 1.573681 0.053053
v -0.338517 1.508719 0.067173
v -0.345332 1.559344 -0.026202
v -0.327808 1.494382 -0.012082
v -0.250000 1.062500 0.150000
v -0.250000 1.062500 -0.162500
v -0.250000 0.812500 0.150000
v -0.250000 0.812500 -0.162500
v -0.312500 1.062500 -0.162500
v -0.312500 1.062500 0.150000
v -0.312500 0.812500 -0.162500
v -0.312500 0.812500 0.150000
v 0.312500 1.062500 0.150000
v 0.312500 1.062500 -0.162500
v 0.312500 0.812500 0.150000
v 0.312500 0.812500 -0.162500
v 0.250000 1.062500 -0.162500
v 0.250000 1.062500 0.150000
v 0.250000 0.812500 -0.162500
v 0.250000 0.812500 0.150000
v 0.324282 1.522386 -0.073024
v 0.322788 1.536602 -0.140271
v 0.199102 1.111687 -0.157061
v 0.197608 1.125903 -0.224309
v 0.185083 1.576234 -0.128834
v 0.186577 1.562018 -0.061586
v 0.059903 1.165534 -0.212871
v 0.061397 1.151319 -0.145624
v 0.322042 1.486661 -0.054758
v 0.339565 1.551624 -0.068877
v 0.311333 1.472324 -0.134012
v 0.328856 1.537287 -0.148132
v 0.189886 1.594702 -0.056445
v 0.172363 1.529739 -0.042326
v 0.179177 1.580364 -0.135700
v 0.161654 1.515402 -0.121580
v 0.331706 1.509339 0.061574
v 0.347637 1.568396 0.048738
v 0.306993 1.476253 -0.121322
v 0.322924 1.535310 -0.134158
v 0.209932 1.608028 0.060175
v 0.194001 1.548971 0.073011
v 0.185219 1.574941 -0.122721
v 0.169288 1.515885 -0.109885
v 0.338517 1.508719 0.067173
v 0.356041 1.573681 0.053053
v 0.327808 1.494382 -0.012082
v 0.345332 1.559344 -0.026202
v 0.206362 1.616759 0.065485
v 0.188838 1.551797 0.079605
v 0.195653 1.602422 -0.013770
v 0.178129 1.537459 0.000350
v 0.347657 1.568640 0.048061
v 0.329627 1.510161 0.035357
v 0.347954 1.545997 0.151870
v 0.329924 1.487518 0.139166
v 0.191989 1.550596 0.044571
v 0.210019 1.609075 0.057275
v 0.192286 1.527953 0.148380
v 0.210316 1.586431 0.161084
v 0.347954 1.545997 0.151870
v 0.342516 1.541637 0.089760
v 0.263718 1.252890 0.179822
v 0.258280 1.248529 0.117712
v 0.204878 1.582071 0.098974
v 0.210316 1.586431 0.161084
v 0.120642 1.288964 0.126926
v 0.126080 1.293324 0.189036
v 0.268750 1.056250 -0.187500
v 0.268750 1.056250 -0.312500
v 0.268750 0.812500 -0.187500
v 0.268750 0.812500 -0.312500
v 0.143750 1.056250 -0.312500
v 0.143750 1.056250 -0.187500
v 0.143750 0.812500 -0.312500
v 0.143750 0.812500 -0.187500
v 0.131250 1.056250 -0.187500
v 0.131250 1.056250 -0.312500
v 0.131250 0.812500 -0.187500
v 0.131250 0.812500 -0.312500
v 0.006250 1.056250 -0.312500
v 0.006250 1.056250 -0.187500
v 0.006250 0.812500 -0.312500
v 0.006250 0.812500 -0.187500
v -0.012500 1.125000 -0.187500
v -0.012500 1.125000 -0.312500
v -0.012500 0.812500 -0.187500
v -0.012500 0.812500 -0.312500
v -0.281250 1.125000 -0.312500
v -0.281250 1.125000 -0.187500
v -0.281250 0.812500 -0.312500
v -0.281250 0.812500 -0.187500
v -0.012500 1.137500 -0.187500
v -0.012500 1.137500 -0.325000
v -0.012500 1.125000 -0.187500
v -0.012500 1.125000 -0.325000
v -0.281250 1.137500 -0.325000
v -0.281250 1.137500 -0.187500
v -0.281250 1.125000 -0.325000
v -0.281250 1.125000 -0.187500
v -0.012500 1.000803 -0.326651
v -0.012500 1.137420 -0.311085
v -0.012500 1.002219 -0.339070
v -0.012500 1.138835 -0.323505
v -0.281250 1.137420 -0.311085
v -0.281250 1.000803 -0.326651
v -0.281250 1.138835 -0.323505
v -0.281250 1.002219 -0.339070
v -0.212500 0.746080 -0.137705
v -0.212500 0.750653 -0.181216
v -0.212500 0.621765 -0.150772
v -0.212500 0.626338 -0.194282
v -0.250000 0.750653 -0.181216
v -0.250000 0.746080 -0.137705
v -0.250000 0.626338 -0.194282
v -0.250000 0.621765 -0.150772
v -0.081250 0.747177 -0.166585
v -0.081250 0.748266 -0.179038
v -0.081250 0.541712 -0.184561
v -0.081250 0.542801 -0.197014
v -0.212500 0.748266 -0.179038
v -0.212500 0.747177 -0.166585
v -0.212500 0.542801 -0.197014
v -0.212500 0.541712 -0.184561
v -0.214403 0.629602 -0.147741
v -0.214403 0.635690 -0.191065
v -0.166568 0.515241 -0.163813
v -0.166568 0.521329 -0.207138
v -0.249049 0.621480 -0.193062
v -0.249049 0.615391 -0.149738
v -0.201213 0.507118 -0.209135
v -0.201213 0.501030 -0.165811
v -0.175628 0.528223 -0.161989
v -0.175628 0.534312 -0.205313
v -0.087240 0.440695 -0.174290
v -0.087240 0.446784 -0.217614
v -0.202145 0.508053 -0.209003
v -0.202145 0.501965 -0.165679
v -0.113756 0.420525 -0.221305
v -0.113756 0.414436 -0.177980
v -0.030936 0.493100 -0.188814
v -0.030936 0.493644 -0.195040
v -0.083969 0.440268 -0.193436
v -0.083969 0.440813 -0.199662
v -0.132583 0.594904 -0.186181
v -0.132583 0.594359 -0.179955
v -0.185616 0.542073 -0.190803
v -0.185616 0.541528 -0.184577
v -0.103241 0.447823 -0.173288
v -0.103241 0.453911 -0.216613
v 0.012243 0.400453 -0.179946
v 0.012243 0.406542 -0.223270
v -0.117592 0.419603 -0.221434
v -0.117592 0.413514 -0.178110
v -0.002107 0.372233 -0.228092
v -0.002107 0.366144 -0.184767
v 0.081250 0.747177 -0.166585
v 0.081250 0.748266 -0.179038
v 0.081250 0.404735 -0.196545
v 0.081250 0.405824 -0.208997
v -0.081250 0.748266 -0.179038
v -0.081250 0.747177 -0.166585
v -0.081250 0.405824 -0.208997
v -0.081250 0.404735 -0.196545
v 0.117592 0.413514 -0.178110
v 0.117592 0.419603 -0.221434
v 0.002107 0.366144 -0.184767
v 0.002107 0.372233 -0.228092
v 0.103241 0.453911 -0.216613
v 0.103241 0.447823 -0.173288
v -0.012243 0.406542 -0.223270
v -0.012243 0.400453 -0.179946
v 0.202145 0.501965 -0.165679
v 0.202145 0.508053 -0.209003
v 0.113756 0.414436 -0.177980
v 0.113756 0.420525 -0.221305
v 0.175628 0.534312 -0.205313
v 0.175628 0.528223 -0.161989
v 0.087240 0.446784 -0.217614
v 0.087240 0.440695 -0.174290
v 0.132583 0.594359 -0.179955
v 0.132583 0.594904 -0.186181
v 0.185616 0.541528 -0.184577
v 0.185616 0.542073 -0.190803
v 0.030936 0.493644 -0.195040
v 0.030936 0.493100 -0.188814
v 0.083969 0.440813 -0.199662
v 0.083969 0.440268 -0.193436
v 0.249049 0.615391 -0.149738
v 0.249049 0.621480 -0.193062
v 0.201213 0.501030 -0.165811
v 0.201213 0.507118 -0.209135
v 0.214403 0.635690 -0.191065
v 0.214403 0.629602 -0.147741
v 0.166568 0.521329 -0.207138
v 0.166568 0.515241 -0.163813
v 0.212500 0.747177 -0.166585
v 0.212500 0.748266 -0.179038
v 0.212500 0.541712 -0.184561
v 0.212500 0.542801 -0.197014
v 0.081250 0.748266 -0.179038
v 0.081250 0.747177 -0.166585
v 0.081250 0.542801 -0.197014
v 0.081250 0.541712 -0.184561
v 0.250000 0.747005 -0.143894
v 0.250000 0.751198 -0.187443
v 0.250000 0.622580 -0.155875
v 0.250000 0.626774 -0.199423
v 0.212500 0.751198 -0.187443
v 0.212500 0.747005 -0.143894
v 0.212500 0.626774 -0.199423
v 0.212500 0.622580 -0.155875
v 0.171875 0.850218 -0.218746
v 0.171875 0.852399 -0.281208
v 0.171875 0.662832 -0.225290
v 0.171875 0.665014 -0.287752
v -0.171875 0.852399 -0.281208
v -0.171875 0.850218 -0.218746
v -0.171875 0.665014 -0.287752
v -0.171875 0.662832 -0.225290
v 0.109375 0.662832 -0.225290
v 0.109375 0.665014 -0.287752
v 0.109375 0.600370 -0.227471
v 0.109375 0.602552 -0.289933
v -0.109375 0.665014 -0.287752
v -0.109375 0.662832 -0.225290
v -0.109375 0.602552 -0.289933
v -0.109375 0.600370 -0.227471
v -0.065809 0.645165 -0.225907
v -0.065809 0.647129 -0.282123
v -0.110003 0.600998 -0.227449
v -0.110003 0.602961 -0.283665
v -0.127681 0.708963 -0.279963
v -0.127681 0.707000 -0.223748
v -0.171875 0.664795 -0.281506
v -0.171875 0.662832 -0.225290
v 0.127681 0.707000 -0.223748
v 0.127681 0.708963 -0.279963
v 0.171875 0.662832 -0.225290
v 0.171875 0.664795 -0.281506
v 0.065809 0.647129 -0.282123
v 0.065809 0.645165 -0.225907
v 0.110003 0.602961 -0.283665
v 0.110003 0.600998 -0.227449
vn -0.0000 0.0349 -0.9994
vn 1.0000 -0.0000 -0.0000
vn -0.0000 -0.0349 0.9994
vn -1.0000 -0.0000 -0.0000
vn -0.0000 0.9994 0.0349
vn -0.0000 -0.9994 -0.0349
vn -0.0000 0.0872 -0.9962
vn -0.0000 -0.0872 0.9962
vn -0.0000 0.9962 0.0872
vn -0.0000 -0.9962 -0.0872
vn -0.0000 -0.0000 -1.0000
vn 0.9239 0.3827 -0.0000
vn -0.0000 -0.0000 1.0000
vn -0.9239 -0.3827 -0.0000
vn -0.3827 0.9239 -0.0000
vn 0.3827 -0.9239 -0.0000
vn -0.0000 0.0915 -0.9958
vn -0.0000 -0.0915 0.9958
vn -0.0000 0.9958 0.0916
vn -0.0000 0.9958 0.0915
vn -0.0000 -0.9958 -0.0915
vn -0.0000 1.0000 -0.0000
vn -0.0000 -1.0000 -0.0000
vn -0.0000 0.2079 -0.9781
vn -0.0000 -0.2079 0.9781
vn -0.0000 0.9781 0.2079
vn -0.0000 -0.9782 -0.2079
vn -0.0000 -0.9781 -0.2079
vn 0.0217 0.2068 -0.9781
vn 0.9579 0.2757 0.0796
vn -0.0217 -0.2068 0.9781
vn -0.9579 -0.2757 -0.0796
vn -0.2861 0.9387 0.1921
vn 0.2861 -0.9387 -0.1921
vn -0.2549 0.9449 -0.2054
vn 0.2549 -0.9449 0.2054
vn -0.1318 0.1765 0.9754
vn 0.1318 -0.1765 -0.9754
vn 0.2885 -0.9357 -0.2033
vn 0.9575 0.2813 0.0641
vn -0.2885 0.9357 0.2033
vn -0.9575 -0.2813 -0.0641
vn 0.0028 0.2131 -0.9770
vn -0.0028 -0.2131 0.9770
vn 0.0870 -0.0698 -0.9938
vn -0.0870 0.0698 0.9938
vn -0.2751 0.9571 -0.0913
vn 0.2751 -0.9571 0.0913
vn -0.0217 0.2068 -0.9781
vn 0.9579 -0.2757 -0.0796
vn 0.0217 -0.2068 0.9781
vn -0.9579 0.2757 0.0796
vn 0.2861 0.9387 0.1921
vn -0.2861 -0.9387 -0.1921
vn 0.2549 0.9449 -0.2054
vn -0.2549 -0.9449 0.2054
vn 0.1318 0.1765 0.9754
vn -0.1318 -0.1765 -0.9754
vn -0.2885 -0.9357 -0.2033
vn 0.9575 -0.2813 -0.0641
vn 0.2885 0.9357 0.2033
vn -0.9575 0.2813 0.0641
vn -0.0028 0.2131 -0.9770
vn 0.0028 -0.2131 0.9770
vn -0.0870 -0.0698 -0.9938
vn 0.0870 0.0698 0.9938
vn 0.2751 0.9571 -0.0913
vn -0.2751 -0.9571 0.0913
vn -0.0000 0.9936 0.1132
vn -0.0000 -0.9936 -0.1133
vn -0.0000 -0.1132 0.9936
vn -0.0000 0.1132 -0.9936
vn -0.0000 0.1045 -0.9945
vn -0.0000 -0.1045 0.9945
vn -0.0000 0.9945 0.1045
vn -0.0000 -0.9945 -0.1045
vn -0.0000 0.9962 0.0871
vn -0.0000 -0.9962 -0.0871
vn -0.0000 0.1392 -0.9903
vn 0.9239 0.3790 0.0533
vn -0.0000 -0.1392 0.9903
vn -0.9239 -0.3790 -0.0533
vn -0.3827 0.9149 0.1286
vn 0.3827 -0.9149 -0.1286
vn 0.7071 0.7002 0.0984
vn -0.7071 -0.7002 -0.0984
vn -0.7071 0.7002 0.0984
vn 0.7071 -0.7002 -0.0984
vn 0.7071 -0.7044 -0.0617
vn 0.7071 -0.7044 -0.0616
vn -0.7071 0.7044 0.0617
vn 0.7071 0.7044 0.0615
vn 0.7071 0.7044 0.0617
vn -0.7071 -0.7044 -0.0617
vn 0.3827 0.9149 0.1286
vn -0.3827 -0.9149 -0.1286
vn -0.9239 0.3790 0.0533
vn 0.9239 -0.3789 -0.0533
vn -0.9239 -0.3789 -0.0533
vn -0.7071 -0.7044 -0.0616
vn -0.7071 0.7044 0.0615
vn 0.9239 -0.3790 -0.0533
vn -0.0000 0.0958 -0.9954
vn -0.0000 -0.0958 0.9954
vn -0.0000 0.9954 0.0958
vn -0.0000 -0.9954 -0.0959
vn 0.7071 -0.7067 -0.0247
vn -0.7071 0.7067 0.0247
vn 0.7071 0.7067 0.0247
vn -0.7071 -0.7067 -0.0247
vt 0.507812 0.953125
vt 0.453125 1.000000
vt 0.453125 0.953125
vt 0.080078 0.375000
vt 0.062500 0.421875
vt 0.062500 0.375000
vt 0.101562 0.484375
vt 0.046875 0.531250
vt 0.046875 0.484375
vt 0.578125 0.875000
vt 0.595703 0.921875
vt 0.578125 0.921875
vt 0.562500 0.609375
vt 0.617188 0.591797
vt 0.617188 0.609375
vt 0.562500 0.560547
vt 0.617188 0.578125
vt 0.617188 0.560547
vt 0.468750 0.765625
vt 0.390625 0.812500
vt 0.390625 0.765625
vt 0.281250 0.828125
vt 0.320312 0.875000
vt 0.281250 0.875000
vt 0.468750 0.718750
vt 0.390625 0.718750
vt 0.554688 0.953125
vt 0.515625 1.000000
vt 0.515625 0.953125
vt 0.000000 0.593750
vt 0.078125 0.554688
vt 0.078125 0.593750
vt 0.281250 0.523438
vt 0.359375 0.562500
vt 0.359375 0.523438
vt 0.604492 0.953125
vt 0.578125 0.984375
vt 0.578125 0.953125
vt 0.250000 0.531250
vt 0.234375 0.562500
vt 0.234375 0.531250
vt 0.046875 0.406250
vt 0.046875 0.375000
vt 0.046875 0.546875
vt 0.073242 0.531250
vt 0.073242 0.546875
vt 0.359375 0.390625
vt 0.385742 0.406250
vt 0.385742 0.390625
vt 0.619141 0.804688
vt 0.546875 0.828125
vt 0.546875 0.804688
vt 0.548828 0.320312
vt 0.546875 0.343750
vt 0.546875 0.320312
vt 0.619141 0.773438
vt 0.546875 0.796875
vt 0.546875 0.773438
vt 0.671875 0.929688
vt 0.673828 0.953125
vt 0.671875 0.953125
vt 0.656250 0.687500
vt 0.728516 0.685547
vt 0.728516 0.687500
vt 0.656250 0.669922
vt 0.728516 0.671875
vt 0.728516 0.669922
vt 0.125000 0.703125
vt 0.000000 0.828125
vt 0.000000 0.703125
vt 0.390625 0.687500
vt 0.359375 0.812500
vt 0.359375 0.687500
vt 0.250000 0.703125
vt 0.125000 0.828125
vt 0.390625 0.562500
vt 0.359375 0.953125
vt 0.484375 0.921875
vt 0.484375 0.953125
vt 0.359375 0.890625
vt 0.484375 0.890625
vt 0.250000 0.651367
vt 0.156250 0.703125
vt 0.156250 0.651367
vt 0.109375 0.370117
vt 0.093750 0.421875
vt 0.093750 0.370117
vt 0.421875 0.823242
vt 0.328125 0.875000
vt 0.328125 0.823242
vt 0.125000 0.421875
vt 0.109375 0.421875
vt 0.484375 0.906250
vt 0.578125 0.890625
vt 0.578125 0.906250
vt 0.546875 0.750000
vt 0.640625 0.765625
vt 0.640625 0.750000
vt 0.317383 0.562500
vt 0.281250 0.671875
vt 0.281250 0.562500
vt 0.205078 0.421875
vt 0.187500 0.531250
vt 0.187500 0.421875
vt 0.093750 0.531250
vt 0.129883 0.640625
vt 0.093750 0.640625
vt 0.236328 0.421875
vt 0.218750 0.531250
vt 0.218750 0.421875
vt 0.468750 0.390625
vt 0.504883 0.373047
vt 0.504883 0.390625
vt 0.609375 0.498047
vt 0.645508 0.515625
vt 0.645508 0.498047
vt 0.515625 0.531250
vt 0.551758 0.578125
vt 0.515625 0.578125
vt 0.437500 0.484375
vt 0.421875 0.531250
vt 0.421875 0.484375
vt 0.551758 0.484375
vt 0.515625 0.484375
vt 0.234375 0.375000
vt 0.250000 0.421875
vt 0.234375 0.421875
vt 0.421875 0.828125
vt 0.458008 0.812500
vt 0.458008 0.828125
vt 0.614258 0.828125
vt 0.578125 0.843750
vt 0.614258 0.843750
vt 0.598633 0.520508
vt 0.562500 0.546875
vt 0.562500 0.520508
vt 0.234375 0.364258
vt 0.218750 0.390625
vt 0.218750 0.364258
vt 0.598633 0.489258
vt 0.562500 0.515625
vt 0.562500 0.489258
vt 0.421875 0.364258
vt 0.406250 0.390625
vt 0.406250 0.364258
vt 0.609375 0.890625
vt 0.645508 0.875000
vt 0.645508 0.890625
vt 0.609375 0.406250
vt 0.645508 0.421875
vt 0.645508 0.406250
vt 0.473633 0.642578
vt 0.437500 0.718750
vt 0.437500 0.642578
vt 0.468750 0.408203
vt 0.484375 0.484375
vt 0.468750 0.484375
vt 0.473633 0.564453
vt 0.437500 0.640625
vt 0.437500 0.564453
vt 0.484375 0.392578
vt 0.500000 0.468750
vt 0.484375 0.468750
vt 0.645508 0.390625
vt 0.609375 0.375000
vt 0.645508 0.375000
vt 0.132812 0.828125
vt 0.000000 1.000000
vt 0.351562 0.640625
vt 0.328125 0.812500
vt 0.328125 0.640625
vt 0.273438 0.828125
vt 0.140625 1.000000
vt 0.140625 0.828125
vt 0.273438 0.500000
vt 0.250000 0.671875
vt 0.250000 0.500000
vt 0.421875 0.890625
vt 0.554688 0.867188
vt 0.554688 0.890625
vt 0.421875 0.835938
vt 0.554688 0.859375
vt 0.554688 0.835938
vt 0.164062 0.401367
vt 0.125000 0.401367
vt 0.234375 0.354492
vt 0.251953 0.375000
vt 0.578125 0.854492
vt 0.617188 0.875000
vt 0.328125 0.354492
vt 0.345703 0.375000
vt 0.328125 0.375000
vt 0.593750 0.703125
vt 0.632812 0.685547
vt 0.632812 0.703125
vt 0.632812 0.654297
vt 0.593750 0.671875
vt 0.632812 0.671875
vt 0.226562 0.401367
vt 0.187500 0.401367
vt 0.625000 0.588867
vt 0.642578 0.609375
vt 0.625000 0.609375
vt 0.320312 0.401367
vt 0.281250 0.421875
vt 0.281250 0.401367
vt 0.642578 0.557617
vt 0.625000 0.578125
vt 0.625000 0.557617
vt 0.632812 0.640625
vt 0.593750 0.623047
vt 0.632812 0.623047
vt 0.515625 0.388672
vt 0.554688 0.406250
vt 0.554688 0.388672
vt 0.078125 0.531250
vt 0.359375 0.937500
vt 0.281250 1.000000
vt 0.281250 0.937500
vt 0.578125 0.828125
vt 0.562500 0.890625
vt 0.562500 0.828125
vt 0.359375 0.875000
vt 0.234375 0.640625
vt 0.250000 0.562500
vt 0.250000 0.640625
vt 0.171875 0.406250
vt 0.187500 0.484375
vt 0.187500 0.406250
vt 0.265625 0.375000
vt 0.250000 0.437500
vt 0.250000 0.375000
vt 0.078125 0.640625
vt 0.000000 0.640625
vt 0.281250 0.375000
vt 0.265625 0.437500
vt 0.156250 0.640625
vt 0.078125 0.703125
vt 0.359375 0.484375
vt 0.375000 0.406250
vt 0.375000 0.484375
vt 0.390625 0.484375
vt 0.390625 0.406250
vt 0.176758 0.531250
vt 0.140625 0.640625
vt 0.140625 0.531250
vt 0.390625 0.421875
vt 0.408203 0.531250
vt 0.390625 0.531250
vt 0.223633 0.531250
vt 0.187500 0.640625
vt 0.484375 0.593750
vt 0.501953 0.703125
vt 0.484375 0.703125
vt 0.645508 0.484375
vt 0.609375 0.466797
vt 0.645508 0.466797
vt 0.562500 0.373047
vt 0.598633 0.390625
vt 0.598633 0.373047
vt 0.429688 0.401367
vt 0.390625 0.401367
vt 0.455078 0.354492
vt 0.437500 0.375000
vt 0.437500 0.354492
vt 0.601562 0.401367
vt 0.562500 0.421875
vt 0.562500 0.401367
vt 0.533203 0.354492
vt 0.515625 0.375000
vt 0.515625 0.354492
vt 0.609375 0.984375
vt 0.648438 0.966797
vt 0.648438 0.984375
vt 0.609375 0.935547
vt 0.648438 0.953125
vt 0.648438 0.935547
vt 0.551758 0.437500
vt 0.515625 0.437500
vt 0.343750 0.375000
vt 0.328125 0.421875
vt 0.036133 0.421875
vt 0.000000 0.468750
vt 0.000000 0.421875
vt 0.359375 0.375000
vt 0.343750 0.421875
vt 0.036133 0.375000
vt 0.000000 0.359375
vt 0.036133 0.359375
vt 0.046875 0.359375
vt 0.083008 0.375000
vt 0.083008 0.359375
vt 0.000000 0.385742
vt 0.039062 0.406250
vt 0.000000 0.406250
vt 0.642578 0.432617
vt 0.625000 0.453125
vt 0.625000 0.432617
vt 0.632812 0.713867
vt 0.593750 0.734375
vt 0.593750 0.713867
vt 0.626953 0.354492
vt 0.609375 0.354492
vt 0.609375 0.921875
vt 0.648438 0.904297
vt 0.648438 0.921875
vt 0.125000 0.373047
vt 0.164062 0.390625
vt 0.164062 0.373047
vt 0.515625 0.411133
vt 0.437500 0.390625
vt 0.421875 0.390625
vt 0.562500 0.458008
vt 0.598633 0.484375
vt 0.562500 0.484375
vt 0.625000 0.786133
vt 0.640625 0.812500
vt 0.625000 0.812500
vt 0.661133 0.875000
vt 0.625000 0.859375
vt 0.661133 0.859375
vt 0.625000 0.843750
vt 0.661133 0.843750
vt 0.473633 0.486328
vt 0.437500 0.562500
vt 0.437500 0.486328
vt 0.515625 0.392578
vt 0.500000 0.392578
vt 0.000000 0.470703
vt 0.036133 0.546875
vt 0.000000 0.546875
vt 0.578125 0.908203
vt 0.562500 0.984375
vt 0.562500 0.908203
vt 0.661133 0.828125
vt 0.661133 0.812500
vt 0.625000 0.828125
vt 0.515625 0.533203
vt 0.484375 0.533203
vt 0.515625 0.470703
vt 0.484375 0.531250
vt 0.484375 0.470703
vt 0.281250 0.439453
vt 0.250000 0.439453
vt 0.078125 0.423828
vt 0.046875 0.423828
vt 0.562500 0.734375
vt 0.562500 0.671875
vt 0.109375 0.423828
vt 0.078125 0.484375
vt 0.140625 0.423828
vt 0.109375 0.484375
vt 0.171875 0.423828
vt 0.140625 0.484375
vt 0.312500 0.423828
vt 0.281250 0.484375
vt 0.281250 0.423828
vt 0.593750 0.640625
vt 0.593750 0.609375
vt 0.317383 0.750000
vt 0.250000 0.828125
vt 0.250000 0.750000
vt 0.328125 0.562500
vt 0.317383 0.671875
vt 0.484375 0.734375
vt 0.551758 0.703125
vt 0.551758 0.734375
vt 0.348633 0.515625
vt 0.348633 0.484375
vt 0.723633 0.778320
vt 0.656250 0.781250
vt 0.656250 0.778320
vt 0.690430 0.465820
vt 0.656250 0.468750
vt 0.656250 0.465820
vt 0.723633 0.731445
vt 0.656250 0.734375
vt 0.656250 0.731445
vt 0.690430 0.450195
vt 0.656250 0.453125
vt 0.656250 0.450195
vt 0.109375 0.531250
vt 0.176758 0.497070
vt 0.468750 0.793945
vt 0.536133 0.828125
vt 0.536133 0.793945
vt 0.723633 0.715820
vt 0.656250 0.718750
vt 0.656250 0.715820
vt 0.656250 0.434570
vt 0.690430 0.437500
vt 0.656250 0.437500
vt 0.723633 0.700195
vt 0.656250 0.703125
vt 0.656250 0.700195
vt 0.612305 0.340820
vt 0.578125 0.343750
vt 0.578125 0.340820
vt 0.468750 0.781250
vt 0.536133 0.747070
vt 0.536133 0.781250
vt 0.484375 0.918945
vt 0.551758 0.953125
vt 0.551758 0.918945
vt 0.650391 0.703125
vt 0.640625 0.734375
vt 0.640625 0.703125
vt 0.276367 0.343750
vt 0.265625 0.343750
vt 0.291016 0.328125
vt 0.281250 0.359375
vt 0.281250 0.328125
vt 0.557617 0.375000
vt 0.546875 0.375000
vt 0.328125 0.343750
vt 0.337891 0.333008
vt 0.337891 0.343750
vt 0.343750 0.333008
vt 0.353516 0.343750
vt 0.353516 0.333008
vt 0.548828 0.651367
vt 0.515625 0.703125
vt 0.515625 0.651367
vt 0.221680 0.291992
vt 0.218750 0.343750
vt 0.218750 0.291992
vt 0.345703 0.432617
vt 0.312500 0.484375
vt 0.312500 0.432617
vt 0.234375 0.291992
vt 0.237305 0.343750
vt 0.234375 0.343750
vt 0.656250 0.421875
vt 0.689453 0.418945
vt 0.689453 0.421875
vt 0.656250 0.403320
vt 0.689453 0.406250
vt 0.689453 0.403320
vt 0.306641 0.328125
vt 0.296875 0.359375
vt 0.296875 0.328125
vt 0.000000 0.328125
vt 0.010742 0.359375
vt 0.650391 0.671875
vt 0.640625 0.671875
vt 0.015625 0.328125
vt 0.026367 0.359375
vt 0.015625 0.359375
vt 0.656250 0.625000
vt 0.666016 0.614258
vt 0.666016 0.625000
vt 0.666016 0.598633
vt 0.656250 0.609375
vt 0.666016 0.609375
vt 0.312500 0.328125
vt 0.322266 0.359375
vt 0.312500 0.359375
vt 0.041992 0.328125
vt 0.031250 0.359375
vt 0.031250 0.328125
vt 0.650391 0.640625
vt 0.640625 0.640625
vt 0.046875 0.328125
vt 0.057617 0.359375
vt 0.656250 0.593750
vt 0.666016 0.583008
vt 0.666016 0.593750
vt 0.666016 0.567383
vt 0.656250 0.578125
vt 0.666016 0.578125
vt 0.208008 0.372070
vt 0.171875 0.390625
vt 0.171875 0.372070
vt 0.671875 0.903320
vt 0.673828 0.921875
vt 0.671875 0.921875
vt 0.317383 0.372070
vt 0.281250 0.390625
vt 0.281250 0.372070
vt 0.093750 0.309570
vt 0.095703 0.328125
vt 0.093750 0.328125
vt 0.036133 0.326172
vt 0.036133 0.328125
vt 0.708008 0.982422
vt 0.671875 0.984375
vt 0.708008 0.984375
vt 0.359375 0.328125
vt 0.369141 0.359375
vt 0.359375 0.359375
vt 0.073242 0.328125
vt 0.062500 0.359375
vt 0.062500 0.328125
vt 0.650391 0.609375
vt 0.640625 0.609375
vt 0.078125 0.328125
vt 0.088867 0.359375
vt 0.078125 0.359375
vt 0.437500 0.343750
vt 0.447266 0.333008
vt 0.447266 0.343750
vt 0.656250 0.551758
vt 0.666016 0.562500
vt 0.666016 0.551758
vt 0.431641 0.632812
vt 0.390625 0.632812
vt 0.659180 0.898438
vt 0.656250 0.984375
vt 0.656250 0.898438
vt 0.431641 0.539062
vt 0.390625 0.625000
vt 0.390625 0.539062
vt 0.206055 0.257812
vt 0.203125 0.343750
vt 0.203125 0.257812
vt 0.656250 0.656250
vt 0.697266 0.653320
vt 0.697266 0.656250
vt 0.656250 0.637695
vt 0.697266 0.640625
vt 0.697266 0.637695
vt 0.384766 0.328125
vt 0.375000 0.359375
vt 0.375000 0.328125
vt 0.104492 0.328125
vt 0.093750 0.359375
vt 0.400391 0.328125
vt 0.390625 0.359375
vt 0.390625 0.328125
vt 0.109375 0.328125
vt 0.120117 0.359375
vt 0.109375 0.359375
vt 0.462891 0.343750
vt 0.453125 0.333008
vt 0.462891 0.333008
vt 0.656250 0.536133
vt 0.666016 0.546875
vt 0.666016 0.536133
vt 0.416016 0.328125
vt 0.406250 0.359375
vt 0.406250 0.328125
vt 0.135742 0.328125
vt 0.125000 0.359375
vt 0.125000 0.328125
vt 0.431641 0.328125
vt 0.421875 0.359375
vt 0.421875 0.328125
vt 0.140625 0.328125
vt 0.151367 0.359375
vt 0.140625 0.359375
vt 0.666016 0.531250
vt 0.656250 0.520508
vt 0.666016 0.520508
vt 0.656250 0.504883
vt 0.666016 0.515625
vt 0.666016 0.504883
vt 0.359375 0.372070
vt 0.395508 0.390625
vt 0.111328 0.309570
vt 0.109375 0.309570
vt 0.645508 0.528320
vt 0.609375 0.546875
vt 0.609375 0.528320
vt 0.673828 0.872070
vt 0.671875 0.890625
vt 0.671875 0.872070
vt 0.708008 0.968750
vt 0.671875 0.966797
vt 0.708008 0.966797
vt 0.083008 0.326172
vt 0.083008 0.328125
vt 0.468750 0.328125
vt 0.478516 0.359375
vt 0.468750 0.359375
vt 0.166992 0.328125
vt 0.156250 0.359375
vt 0.156250 0.328125
vt 0.484375 0.328125
vt 0.494141 0.359375
vt 0.484375 0.359375
vt 0.182617 0.328125
vt 0.171875 0.359375
vt 0.171875 0.328125
vt 0.656250 0.500000
vt 0.666016 0.489258
vt 0.666016 0.500000
vt 0.515625 0.333008
vt 0.525391 0.343750
vt 0.525391 0.333008
vt 0.548828 0.588867
vt 0.515625 0.640625
vt 0.515625 0.588867
vt 0.252930 0.291992
vt 0.250000 0.343750
vt 0.250000 0.291992
vt 0.455078 0.432617
vt 0.421875 0.432617
vt 0.265625 0.291992
vt 0.268555 0.343750
vt 0.656250 0.390625
vt 0.689453 0.387695
vt 0.689453 0.390625
vt 0.625000 0.340820
vt 0.658203 0.343750
vt 0.658203 0.340820
vt 0.509766 0.328125
vt 0.500000 0.359375
vt 0.500000 0.328125
vt 0.187500 0.328125
vt 0.198242 0.359375
vt 0.187500 0.359375
vt 0.572266 0.328125
vt 0.562500 0.359375
vt 0.562500 0.328125
vt 0.651367 0.781250
vt 0.640625 0.781250
vt 0.656250 0.484375
vt 0.666016 0.473633
vt 0.666016 0.484375
vt 0.531250 0.333008
vt 0.541016 0.343750
vt 0.541016 0.333008
vt 0.085938 0.593750
vt 0.453125 0.375000
vt 0.437500 0.421875
vt 0.445312 0.953125
vt 0.359375 1.000000
vt 0.468750 0.421875
vt 0.453125 0.421875
vt 0.632812 0.734375
vt 0.632812 0.750000
vt 0.648438 1.000000
vt 0.414062 0.875000
vt 0.484375 0.718750
vt 0.468750 0.734375
vt 0.617188 0.437500
vt 0.562500 0.453125
vt 0.562500 0.437500
vt 0.187500 0.390625
vt 0.617188 0.421875
vt 0.054688 0.421875
vt 0.054688 0.406250
vt 0.625000 0.765625
vt 0.646484 0.781250
vt 0.625000 0.781250
vt 0.482422 0.390625
vt 0.468750 0.406250
vt 0.224609 0.343750
vt 0.203125 0.359375
vt 0.669922 0.875000
vt 0.656250 0.890625
vt 0.656250 0.875000
vt 0.578125 0.359375
vt 0.599609 0.345703
vt 0.599609 0.359375
vt 0.640625 0.361328
vt 0.662109 0.375000
vt 0.662109 0.361328
vt 0.662109 0.750000
vt 0.656250 0.796875
vt 0.669922 0.812500
vt 0.656250 0.812500
vt 0.662109 0.734375
vt 0.669922 0.796875
vt 0.662109 0.359375
vt 0.640625 0.345703
vt 0.662109 0.345703
vt 0.677734 0.986328
vt 0.656250 1.000000
vt 0.677734 1.000000
vt 0.507812 1.000000
vt 0.080078 0.421875
vt 0.101562 0.531250
vt 0.595703 0.875000
vt 0.562500 0.591797
vt 0.562500 0.578125
vt 0.468750 0.812500
vt 0.320312 0.828125
vt 0.554688 1.000000
vt 0.000000 0.554688
vt 0.604492 0.984375
vt 0.604492 0.921875
vt 0.062500 0.406250
vt 0.359375 0.406250
vt 0.619141 0.828125
vt 0.548828 0.343750
vt 0.619141 0.796875
vt 0.673828 0.929688
vt 0.656250 0.685547
vt 0.656250 0.671875
vt 0.359375 0.921875
vt 0.421875 0.875000
vt 0.125000 0.370117
vt 0.546875 0.765625
vt 0.205078 0.531250
vt 0.129883 0.531250
vt 0.236328 0.531250
vt 0.468750 0.373047
vt 0.609375 0.515625
vt 0.551758 0.531250
vt 0.437500 0.531250
vt 0.421875 0.812500
vt 0.598633 0.546875
vt 0.234375 0.390625
vt 0.598633 0.515625
vt 0.609375 0.875000
vt 0.609375 0.421875
vt 0.473633 0.718750
vt 0.484375 0.408203
vt 0.473633 0.640625
vt 0.609375 0.390625
vt 0.132812 1.000000
vt 0.351562 0.812500
vt 0.273438 1.000000
vt 0.273438 0.671875
vt 0.421875 0.867188
vt 0.421875 0.859375
vt 0.164062 0.421875
vt 0.251953 0.354492
vt 0.617188 0.854492
vt 0.345703 0.354492
vt 0.593750 0.685547
vt 0.593750 0.654297
vt 0.226562 0.421875
vt 0.642578 0.588867
vt 0.320312 0.421875
vt 0.642578 0.578125
vt 0.515625 0.406250
vt 0.093750 0.593750
vt 0.171875 0.484375
vt 0.281250 0.437500
vt 0.176758 0.640625
vt 0.408203 0.421875
vt 0.223633 0.640625
vt 0.501953 0.593750
vt 0.609375 0.484375
vt 0.562500 0.390625
vt 0.429688 0.421875
vt 0.455078 0.375000
vt 0.601562 0.421875
vt 0.533203 0.375000
vt 0.609375 0.966797
vt 0.609375 0.953125
vt 0.036133 0.468750
vt 0.359375 0.421875
vt 0.000000 0.375000
vt 0.039062 0.385742
vt 0.642578 0.453125
vt 0.626953 0.375000
vt 0.609375 0.904297
vt 0.125000 0.390625
vt 0.551758 0.411133
vt 0.437500 0.364258
vt 0.598633 0.458008
vt 0.640625 0.786133
vt 0.625000 0.875000
vt 0.473633 0.562500
vt 0.515625 0.468750
vt 0.036133 0.470703
vt 0.515625 0.593750
vt 0.281250 0.500000
vt 0.562500 0.703125
vt 0.562500 0.640625
vt 0.317383 0.828125
vt 0.359375 0.640625
vt 0.281250 0.515625
vt 0.723633 0.781250
vt 0.690430 0.468750
vt 0.723633 0.734375
vt 0.690430 0.453125
vt 0.109375 0.497070
vt 0.468750 0.828125
vt 0.723633 0.718750
vt 0.690430 0.434570
vt 0.723633 0.703125
vt 0.612305 0.343750
vt 0.468750 0.747070
vt 0.650391 0.734375
vt 0.276367 0.375000
vt 0.291016 0.359375
vt 0.557617 0.343750
vt 0.328125 0.333008
vt 0.343750 0.343750
vt 0.548828 0.703125
vt 0.221680 0.343750
vt 0.345703 0.484375
vt 0.237305 0.291992
vt 0.656250 0.418945
vt 0.656250 0.406250
vt 0.306641 0.359375
vt 0.010742 0.328125
vt 0.026367 0.328125
vt 0.656250 0.614258
vt 0.656250 0.598633
vt 0.322266 0.328125
vt 0.041992 0.359375
vt 0.057617 0.328125
vt 0.656250 0.583008
vt 0.656250 0.567383
vt 0.208008 0.390625
vt 0.673828 0.903320
vt 0.317383 0.390625
vt 0.095703 0.309570
vt 0.000000 0.326172
vt 0.671875 0.982422
vt 0.369141 0.328125
vt 0.073242 0.359375
vt 0.088867 0.328125
vt 0.437500 0.333008
vt 0.656250 0.562500
vt 0.431641 0.718750
vt 0.659180 0.984375
vt 0.431641 0.625000
vt 0.206055 0.343750
vt 0.656250 0.653320
vt 0.656250 0.640625
vt 0.384766 0.359375
vt 0.104492 0.359375
vt 0.400391 0.359375
vt 0.120117 0.328125
vt 0.453125 0.343750
vt 0.656250 0.546875
vt 0.416016 0.359375
vt 0.135742 0.359375
vt 0.431641 0.359375
vt 0.151367 0.328125
vt 0.656250 0.531250
vt 0.656250 0.515625
vt 0.395508 0.372070
vt 0.111328 0.328125
vt 0.645508 0.546875
vt 0.673828 0.890625
vt 0.671875 0.968750
vt 0.046875 0.326172
vt 0.478516 0.328125
vt 0.166992 0.359375
vt 0.494141 0.328125
vt 0.182617 0.359375
vt 0.656250 0.489258
vt 0.515625 0.343750
vt 0.548828 0.640625
vt 0.252930 0.343750
vt 0.455078 0.484375
vt 0.268555 0.291992
vt 0.656250 0.387695
vt 0.625000 0.343750
vt 0.509766 0.359375
vt 0.198242 0.328125
vt 0.572266 0.359375
vt 0.651367 0.812500
vt 0.656250 0.473633
vt 0.531250 0.343750
vt 0.085938 0.640625
vt 0.445312 1.000000
vt 0.468750 0.375000
vt 0.546875 0.734375
vt 0.562500 1.000000
vt 0.414062 0.890625
vt 0.617188 0.453125
vt 0.646484 0.765625
vt 0.482422 0.406250
vt 0.224609 0.359375
vt 0.669922 0.890625
vt 0.578125 0.345703
vt 0.640625 0.375000
vt 0.662109 0.765625
vt 0.669922 0.781250
vt 0.640625 0.359375
vt 0.656250 0.986328
s 1
usemtl m_9cbd29a2-a336-ad05-4dc8-e1afa717506f
f 7/1/1 2/2/1 4/3/1
f 4/4/2 1/5/2 3/6/2
f 3/7/3 6/8/3 8/9/3
f 7/10/4 6/11/4 5/12/4
f 1/13/5 5/14/5 6/15/5
f 4/16/6 8/17/6 7/18/6
f 15/19/7 10/20/7 12/21/7
f 11/22/2 10/23/2 9/24/2
f 11/25/8 14/21/8 16/26/8
f 16/27/4 13/28/4 15/29/4
f 9/30/9 13/31/9 14/32/9
f 12/33/10 16/34/10 15/35/10
f 23/36/11 18/37/11 20/38/11
f 20/39/12 17/40/12 19/41/12
f 24/12/13 17/36/13 22/38/13
f 24/6/14 21/42/14 23/43/14
f 17/44/15 21/45/15 22/46/15
f 20/47/16 24/48/16 23/49/16
f 31/36/11 26/37/11 28/38/11
f 28/39/12 25/40/12 27/41/12
f 32/12/13 25/36/13 30/38/13
f 32/6/14 29/42/14 31/43/14
f 25/44/15 29/45/15 30/46/15
f 28/47/16 32/48/16 31/49/16
f 39/50/17 34/51/17 36/52/17
f 36/53/2 33/54/2 35/55/2
f 35/56/18 38/57/18 40/58/18
f 39/59/4 38/60/4 37/61/4
f 33/62/19 37/63/20 38/64/20
f 36/65/21 40/66/21 39/67/21
f 47/68/11 42/69/11 44/70/11
f 44/71/2 41/72/2 43/73/2
f 43/74/13 46/75/13 48/68/13
f 48/76/4 45/73/4 47/34/4
f 41/77/22 45/78/22 46/79/22
f 44/80/23 48/78/23 47/81/23
f 55/82/24 50/83/24 52/84/24
f 52/85/2 49/86/2 51/87/2
f 51/88/25 54/89/25 56/90/25
f 55/85/4 54/91/4 53/92/4
f 49/93/26 53/94/26 54/95/26
f 52/96/27 56/97/28 55/98/28
f 63/99/29 58/100/29 60/101/29
f 60/102/30 57/103/30 59/104/30
f 64/105/31 57/106/31 62/107/31
f 64/108/32 61/109/32 63/110/32
f 57/111/33 61/112/33 62/113/33
f 60/114/34 64/115/34 63/116/34
f 68/117/35 69/118/35 66/119/35
f 68/120/30 65/121/30 67/122/30
f 67/123/36 70/117/36 72/124/36
f 71/125/32 70/126/32 69/127/32
f 65/128/37 69/129/37 70/130/37
f 71/131/38 67/132/38 72/133/38
f 79/134/39 74/135/39 76/136/39
f 76/137/40 73/138/40 75/139/40
f 75/140/41 78/141/41 80/142/41
f 80/143/42 77/144/42 79/145/42
f 73/146/43 77/147/43 78/148/43
f 76/149/44 80/150/44 79/151/44
f 87/152/45 82/153/45 84/154/45
f 83/155/40 82/156/40 81/157/40
f 83/158/46 86/159/46 88/160/46
f 87/161/42 86/162/42 85/163/42
f 81/149/47 85/164/47 86/151/47
f 84/165/48 88/164/48 87/166/48
f 95/167/11 90/168/11 92/69/11
f 92/169/2 89/170/2 91/171/2
f 91/172/13 94/173/13 96/174/13
f 96/175/4 93/176/4 95/177/4
f 89/178/22 93/179/22 94/180/22
f 92/181/23 96/182/23 95/183/23
f 103/184/35 98/91/35 100/185/35
f 99/186/30 98/187/30 97/125/30
f 104/188/36 97/189/36 102/10/36
f 103/190/32 102/191/32 101/192/32
f 97/193/37 101/194/37 102/195/37
f 103/196/38 99/197/38 104/198/38
f 111/199/35 106/104/35 108/200/35
f 107/201/30 106/202/30 105/203/30
f 107/204/36 110/205/36 112/206/36
f 112/207/32 109/208/32 111/209/32
f 110/210/37 106/211/37 109/212/37
f 108/213/38 112/214/38 111/215/38
f 119/105/11 114/32/11 116/216/11
f 116/217/2 113/218/2 115/219/2
f 115/220/13 118/221/13 120/222/13
f 120/223/4 117/219/4 119/24/4
f 113/224/22 117/225/22 118/226/22
f 116/227/23 120/228/23 119/229/23
f 127/230/11 122/231/11 124/232/11
f 124/233/2 121/70/2 123/234/2
f 123/235/13 126/236/13 128/230/13
f 128/237/4 125/238/4 127/233/4
f 121/239/22 125/240/22 126/241/22
f 124/240/23 128/242/23 127/243/23
f 135/244/49 130/245/49 132/246/49
f 131/247/50 130/248/50 129/249/50
f 131/250/51 134/251/51 136/103/51
f 135/252/52 134/253/52 133/254/52
f 134/255/53 130/256/53 133/257/53
f 132/258/54 136/259/54 135/260/54
f 143/261/55 138/247/55 140/262/55
f 140/263/50 137/264/50 139/265/50
f 139/266/56 142/267/56 144/268/56
f 144/269/52 141/270/52 143/271/52
f 137/272/57 141/273/57 142/274/57
f 140/275/58 144/276/58 143/277/58
f 151/278/55 146/124/55 148/279/55
f 148/280/50 145/281/50 147/192/50
f 147/282/56 150/283/56 152/284/56
f 152/285/52 149/286/52 151/280/52
f 150/287/57 146/288/57 149/289/57
f 148/290/58 152/291/58 151/292/58
f 156/293/55 157/294/55 154/295/55
f 156/296/50 153/297/50 155/298/50
f 155/299/56 158/300/56 160/301/56
f 160/302/52 157/165/52 159/303/52
f 153/304/57 157/305/57 158/306/57
f 156/307/58 160/308/58 159/309/58
f 164/310/59 165/278/59 162/279/59
f 163/143/60 162/311/60 161/312/60
f 168/313/61 161/314/61 166/315/61
f 167/316/62 166/317/62 165/318/62
f 166/319/63 162/320/63 165/321/63
f 164/322/64 168/321/64 167/323/64
f 175/324/65 170/325/65 172/326/65
f 172/327/60 169/162/60 171/328/60
f 176/329/66 169/330/66 174/331/66
f 176/332/62 173/333/62 175/334/62
f 169/322/67 173/335/67 174/323/67
f 175/336/68 171/337/68 176/335/68
f 183/338/11 178/252/11 180/339/11
f 180/340/2 177/341/2 179/342/2
f 179/343/13 182/177/13 184/344/13
f 184/345/4 181/9/4 183/346/4
f 177/347/22 181/193/22 182/300/22
f 180/348/23 184/193/23 183/197/23
f 191/349/11 186/350/11 188/345/11
f 188/351/2 185/352/2 187/349/2
f 187/353/13 190/354/13 192/351/13
f 192/355/4 189/356/4 191/357/4
f 185/348/22 189/358/22 190/197/22
f 188/13/23 192/358/23 191/359/23
f 199/360/11 194/361/11 196/362/11
f 196/34/2 193/171/2 195/363/2
f 195/364/13 198/362/13 200/176/13
f 200/242/4 197/34/4 199/239/4
f 193/365/22 197/366/22 198/367/22
f 196/356/23 200/368/23 199/369/23
f 207/370/11 202/371/11 204/372/11
f 204/373/2 201/374/2 203/375/2
f 203/376/13 206/377/13 208/378/13
f 208/379/4 205/380/4 207/381/4
f 201/382/22 205/383/22 206/244/22
f 204/384/23 208/385/23 207/386/23
f 215/387/69 210/388/69 212/389/69
f 211/390/2 210/391/2 209/392/2
f 211/393/70 214/394/70 216/395/70
f 216/396/4 213/397/4 215/398/4
f 209/399/71 213/400/71 214/401/71
f 212/402/72 216/403/72 215/404/72
f 223/405/73 218/406/73 220/407/73
f 220/408/2 217/230/2 219/409/2
f 219/410/74 222/411/74 224/412/74
f 223/54/4 222/413/4 221/414/4
f 217/415/75 221/416/75 222/417/75
f 220/418/76 224/419/76 223/420/76
f 231/421/7 226/422/7 228/423/7
f 228/424/2 225/425/2 227/426/2
f 227/427/8 230/428/8 232/429/8
f 231/430/4 230/431/4 229/432/4
f 225/433/77 229/434/77 230/435/77
f 228/436/78 232/437/78 231/438/78
f 239/439/79 234/440/79 236/441/79
f 235/442/80 234/443/80 233/288/80
f 235/444/81 238/407/81 240/445/81
f 239/446/82 238/447/82 237/448/82
f 233/449/83 237/450/83 238/451/83
f 239/452/84 235/453/84 240/454/84
f 244/455/79 245/456/79 242/457/79
f 244/458/85 241/459/85 243/460/85
f 243/461/81 246/445/81 248/462/81
f 247/463/86 246/464/86 245/290/86
f 241/465/87 245/466/87 246/467/87
f 247/468/88 243/469/88 248/470/88
f 255/471/7 250/472/7 252/473/7
f 251/474/89 250/475/90 249/476/90
f 251/477/8 254/478/8 256/479/8
f 255/480/91 254/481/91 253/482/91
f 249/442/92 253/483/93 254/484/93
f 255/485/94 251/486/94 256/487/94
f 260/488/79 261/489/79 258/490/79
f 260/491/95 257/492/95 259/493/95
f 259/494/81 262/462/81 264/495/81
f 263/496/96 262/497/96 261/498/96
f 257/499/97 261/500/97 262/501/97
f 260/502/98 264/503/98 263/504/98
f 271/505/7 266/26/7 268/506/7
f 268/507/2 265/508/2 267/509/2
f 267/510/8 270/511/8 272/512/8
f 272/513/4 269/514/4 271/515/4
f 265/516/77 269/517/77 270/518/77
f 268/519/78 272/520/78 271/521/78
f 279/522/79 274/523/79 276/524/79
f 276/525/84 273/526/84 275/482/84
f 275/527/81 278/528/81 280/529/81
f 279/530/83 278/531/83 277/532/83
f 278/533/80 274/534/80 277/535/80
f 276/536/99 280/537/99 279/538/99
f 287/539/79 282/540/79 284/541/79
f 284/542/88 281/543/88 283/544/88
f 283/545/81 286/546/81 288/547/81
f 287/548/87 286/549/87 285/550/87
f 286/551/85 282/552/85 285/553/85
f 284/554/86 288/555/86 287/556/86
f 292/557/7 293/558/7 290/47/7
f 292/559/93 289/530/93 291/560/93
f 291/561/8 294/562/8 296/563/8
f 296/564/94 293/565/100 295/566/94
f 294/567/101 290/568/91 293/569/101
f 295/570/89 291/463/89 296/571/89
f 300/572/79 301/573/79 298/574/79
f 300/575/102 297/576/102 299/577/102
f 304/578/81 297/579/81 302/580/81
f 304/581/97 301/582/97 303/583/97
f 297/584/95 301/585/95 302/586/95
f 300/587/96 304/588/96 303/589/96
f 311/590/7 306/591/7 308/592/7
f 308/593/2 305/594/2 307/595/2
f 307/596/8 310/122/8 312/597/8
f 311/598/4 310/599/4 309/409/4
f 305/600/77 309/601/77 310/602/77
f 308/603/78 312/604/78 311/605/78
f 319/606/103 314/607/103 316/608/103
f 315/609/2 314/610/2 313/611/2
f 315/612/104 318/613/104 320/614/104
f 320/615/4 317/317/4 319/616/4
f 313/617/105 317/618/105 318/619/105
f 316/620/106 320/621/106 319/622/106
f 327/623/1 322/234/1 324/30/1
f 324/624/2 321/625/2 323/264/2
f 323/626/3 326/627/3 328/77/3
f 327/624/4 326/628/4 325/629/4
f 321/96/5 325/630/5 326/631/5
f 324/333/6 328/632/6 327/274/6
f 335/633/1 330/80/1 332/223/1
f 332/634/2 329/635/2 331/25/2
f 331/636/3 334/637/3 336/638/3
f 336/639/4 333/227/4 335/472/4
f 329/638/5 333/640/5 334/636/5
f 332/295/6 336/641/6 335/642/6
f 340/643/1 341/644/1 338/645/1
f 340/646/107 337/647/107 339/111/107
f 339/648/3 342/649/3 344/514/3
f 344/650/108 341/651/108 343/652/108
f 337/653/109 341/654/109 342/655/109
f 340/656/110 344/657/110 343/658/110
f 351/659/1 346/97/1 348/98/1
f 347/660/109 346/661/109 345/662/109
f 347/663/3 350/98/3 352/406/3
f 351/371/110 350/664/110 349/660/110
f 350/665/108 346/666/108 349/667/108
f 351/668/107 347/669/107 352/670/107
f 7/1/1 5/671/1 2/2/1
f 4/4/2 2/672/2 1/5/2
f 3/7/3 1/673/3 6/8/3
f 7/10/4 8/674/4 6/11/4
f 1/13/5 2/675/5 5/14/5
f 4/16/6 3/676/6 8/17/6
f 15/19/7 13/677/7 10/20/7
f 11/22/2 12/678/2 10/23/2
f 11/25/8 9/19/8 14/21/8
f 16/27/4 14/679/4 13/28/4
f 9/30/9 10/680/9 13/31/9
f 12/33/10 11/101/10 16/34/10
f 23/36/11 21/681/11 18/37/11
f 20/39/12 18/225/12 17/40/12
f 24/12/13 19/682/13 17/36/13
f 24/6/14 22/683/14 21/42/14
f 17/44/15 18/8/15 21/45/15
f 20/47/16 19/684/16 24/48/16
f 31/36/11 29/681/11 26/37/11
f 28/39/12 26/225/12 25/40/12
f 32/12/13 27/682/13 25/36/13
f 32/6/14 30/683/14 29/42/14
f 25/44/15 26/8/15 29/45/15
f 28/47/16 27/684/16 32/48/16
f 39/50/17 37/685/17 34/51/17
f 36/53/2 34/686/2 33/54/2
f 35/56/18 33/687/18 38/57/18
f 39/59/4 40/688/4 38/60/4
f 33/62/19 34/689/19 37/63/20
f 36/65/21 35/690/21 40/66/21
f 47/68/11 45/75/11 42/69/11
f 44/71/2 42/20/2 41/72/2
f 43/74/13 41/361/13 46/75/13
f 48/76/4 46/71/4 45/73/4
f 41/77/22 42/691/22 45/78/22
f 44/80/23 43/691/23 48/78/23
f 55/82/24 53/74/24 50/83/24
f 52/85/2 50/92/2 49/86/2
f 51/88/25 49/692/25 54/89/25
f 55/85/4 56/693/4 54/91/4
f 49/93/26 50/81/26 53/94/26
f 52/96/27 51/694/27 56/97/28
f 63/99/29 61/364/29 58/100/29
f 60/102/30 58/695/30 57/103/30
f 64/105/31 59/696/31 57/106/31
f 64/108/32 62/697/32 61/109/32
f 57/111/33 58/698/33 61/112/33
f 60/114/34 59/699/34 64/115/34
f 68/117/35 71/700/35 69/118/35
f 68/120/30 66/701/30 65/121/30
f 67/123/36 65/700/36 70/117/36
f 71/125/32 72/232/32 70/126/32
f 65/128/37 66/702/37 69/129/37
f 71/131/38 68/220/38 67/132/38
f 79/134/39 77/703/39 74/135/39
f 76/137/40 74/704/40 73/138/40
f 75/140/41 73/705/41 78/141/41
f 80/143/42 78/312/42 77/144/42
f 73/146/43 74/706/43 77/147/43
f 76/149/44 75/707/44 80/150/44
f 87/152/45 85/708/45 82/153/45
f 83/155/40 84/709/40 82/156/40
f 83/158/46 81/710/46 86/159/46
f 87/161/42 88/328/42 86/162/42
f 81/149/47 82/711/47 85/164/47
f 84/165/48 83/711/48 88/164/48
f 95/167/11 93/712/11 90/168/11
f 92/169/2 90/713/2 89/170/2
f 91/172/13 89/714/13 94/173/13
f 96/175/4 94/715/4 93/176/4
f 89/178/22 90/716/22 93/179/22
f 92/181/23 91/717/23 96/182/23
f 103/184/35 101/718/35 98/91/35
f 99/186/30 100/719/30 98/187/30
f 104/188/36 99/720/36 97/189/36
f 103/190/32 104/721/32 102/191/32
f 97/193/37 98/722/37 101/194/37
f 103/196/38 100/723/38 99/197/38
f 111/199/35 109/724/35 106/104/35
f 107/201/30 108/725/30 106/202/30
f 107/204/36 105/726/36 110/205/36
f 112/207/32 110/727/32 109/208/32
f 110/210/37 105/358/37 106/211/37
f 108/213/38 107/728/38 112/214/38
f 119/105/11 117/729/11 114/32/11
f 116/217/2 114/627/2 113/218/2
f 115/220/13 113/94/13 118/221/13
f 120/223/4 118/217/4 117/219/4
f 113/224/22 114/40/22 117/225/22
f 116/227/23 115/730/23 120/228/23
f 127/230/11 125/236/11 122/231/11
f 124/233/2 122/238/2 121/70/2
f 123/235/13 121/731/13 126/236/13
f 128/237/4 126/83/4 125/238/4
f 121/239/22 122/684/22 125/240/22
f 124/240/23 123/241/23 128/242/23
f 135/244/49 133/732/49 130/245/49
f 131/247/50 132/733/50 130/248/50
f 131/250/51 129/734/51 134/251/51
f 135/252/52 136/735/52 134/253/52
f 134/255/53 129/736/53 130/256/53
f 132/258/54 131/737/54 136/259/54
f 143/261/55 141/738/55 138/247/55
f 140/263/50 138/739/50 137/264/50
f 139/266/56 137/740/56 142/267/56
f 144/269/52 142/741/52 141/270/52
f 137/272/57 138/742/57 141/273/57
f 140/275/58 139/743/58 144/276/58
f 151/278/55 149/123/55 146/124/55
f 148/280/50 146/286/50 145/281/50
f 147/282/56 145/744/56 150/283/56
f 152/285/52 150/745/52 149/286/52
f 150/287/57 145/746/57 146/288/57
f 148/290/58 147/43/58 152/291/58
f 156/293/55 159/747/55 157/294/55
f 156/296/50 154/748/50 153/297/50
f 155/299/56 153/630/56 158/300/56
f 160/302/52 158/749/52 157/165/52
f 153/304/57 154/750/57 157/305/57
f 156/307/58 155/751/58 160/308/58
f 164/310/59 167/752/59 165/278/59
f 163/143/60 164/753/60 162/311/60
f 168/313/61 163/754/61 161/314/61
f 167/316/62 168/755/62 166/317/62
f 166/319/63 161/756/63 162/320/63
f 164/322/64 163/320/64 168/321/64
f 175/324/65 173/757/65 170/325/65
f 172/327/60 170/758/60 169/162/60
f 176/329/66 171/759/66 169/330/66
f 176/332/62 174/37/62 173/333/62
f 169/322/67 170/337/67 173/335/67
f 175/336/68 172/318/68 171/337/68
f 183/338/11 181/760/11 178/252/11
f 180/340/2 178/117/2 177/341/2
f 179/343/13 177/761/13 182/177/13
f 184/345/4 182/350/4 181/9/4
f 177/347/22 178/762/22 181/193/22
f 180/348/23 179/762/23 184/193/23
f 191/349/11 189/352/11 186/350/11
f 188/351/2 186/354/2 185/352/2
f 187/353/13 185/730/13 190/354/13
f 192/355/4 190/428/4 189/356/4
f 185/348/22 186/763/22 189/358/22
f 188/13/23 187/763/23 192/358/23
f 199/360/11 197/764/11 194/361/11
f 196/34/2 194/765/2 193/171/2
f 195/364/13 193/360/13 198/362/13
f 200/242/4 198/76/4 197/34/4
f 193/365/22 194/254/22 197/366/22
f 196/356/23 195/766/23 200/368/23
f 207/370/11 205/767/11 202/371/11
f 204/373/2 202/768/2 201/374/2
f 203/376/13 201/769/13 206/377/13
f 208/379/4 206/770/4 205/380/4
f 201/382/22 202/771/22 205/383/22
f 204/384/23 203/772/23 208/385/23
f 215/387/69 213/773/69 210/388/69
f 211/390/2 212/774/2 210/391/2
f 211/393/70 209/775/70 214/394/70
f 216/396/4 214/776/4 213/397/4
f 209/399/71 210/777/71 213/400/71
f 212/402/72 211/79/72 216/403/72
f 223/405/73 221/778/73 218/406/73
f 220/408/2 218/779/2 217/230/2
f 219/410/74 217/780/74 222/411/74
f 223/54/4 224/781/4 222/413/4
f 217/415/75 218/782/75 221/416/75
f 220/418/76 219/783/76 224/419/76
f 231/421/7 229/784/7 226/422/7
f 228/424/2 226/785/2 225/425/2
f 227/427/8 225/786/8 230/428/8
f 231/430/4 232/787/4 230/431/4
f 225/433/77 226/788/77 229/434/77
f 228/436/78 227/789/78 232/437/78
f 239/439/79 237/790/79 234/440/79
f 235/442/80 236/791/80 234/443/80
f 235/444/81 233/405/81 238/407/81
f 239/446/82 240/792/82 238/447/82
f 233/449/83 234/793/83 237/450/83
f 239/452/84 236/794/84 235/453/84
f 244/455/79 247/795/79 245/456/79
f 244/458/85 242/796/85 241/459/85
f 243/461/81 241/444/81 246/445/81
f 247/463/86 248/797/86 246/464/86
f 241/465/87 242/798/87 245/466/87
f 247/468/88 244/799/88 243/469/88
f 255/471/7 253/800/7 250/472/7
f 251/474/89 252/801/89 250/475/90
f 251/477/8 249/802/8 254/478/8
f 255/480/91 256/803/91 254/481/91
f 249/442/92 250/804/92 253/483/93
f 255/485/94 252/805/94 251/486/94
f 260/488/79 263/806/79 261/489/79
f 260/491/95 258/807/95 257/492/95
f 259/494/81 257/461/81 262/462/81
f 263/496/96 264/808/96 262/497/96
f 257/499/97 258/809/97 261/500/97
f 260/502/98 259/810/98 264/503/98
f 271/505/7 269/811/7 266/26/7
f 268/507/2 266/812/2 265/508/2
f 267/510/8 265/813/8 270/511/8
f 272/513/4 270/814/4 269/514/4
f 265/516/77 266/815/77 269/517/77
f 268/519/78 267/816/78 272/520/78
f 279/522/79 277/817/79 274/523/79
f 276/525/84 274/818/84 273/526/84
f 275/527/81 273/819/81 278/528/81
f 279/530/83 280/820/83 278/531/83
f 278/533/80 273/821/80 274/534/80
f 276/536/99 275/822/99 280/537/99
f 287/539/79 285/823/79 282/540/79
f 284/542/88 282/824/88 281/543/88
f 283/545/81 281/825/81 286/546/81
f 287/548/87 288/826/87 286/549/87
f 286/551/85 281/827/85 282/552/85
f 284/554/86 283/828/86 288/555/86
f 292/557/7 295/829/7 293/558/7
f 292/559/93 290/830/93 289/530/93
f 291/561/8 289/831/8 294/562/8
f 296/564/94 294/832/100 293/565/100
f 294/567/101 289/833/91 290/568/91
f 295/570/89 292/834/89 291/463/89
f 300/572/79 303/835/79 301/573/79
f 300/575/102 298/836/102 297/576/102
f 304/578/81 299/837/81 297/579/81
f 304/581/97 302/838/97 301/582/97
f 297/584/95 298/839/95 301/585/95
f 300/587/96 299/840/96 304/588/96
f 311/590/7 309/841/7 306/591/7
f 308/593/2 306/842/2 305/594/2
f 307/596/8 305/843/8 310/122/8
f 311/598/4 312/844/4 310/599/4
f 305/600/77 306/845/77 309/601/77
f 308/603/78 307/846/78 312/604/78
f 319/606/103 317/847/103 314/607/103
f 315/609/2 316/848/2 314/610/2
f 315/612/104 313/849/104 318/613/104
f 320/615/4 318/850/4 317/317/4
f 313/617/105 314/851/105 317/618/105
f 316/620/106 315/852/106 320/621/106
f 327/623/1 325/853/1 322/234/1
f 324/624/2 322/629/2 321/625/2
f 323/626/3 321/854/3 326/627/3
f 327/624/4 328/855/4 326/628/4
f 321/96/5 322/856/5 325/630/5
f 324/333/6 323/857/6 328/632/6
f 335/633/1 333/858/1 330/80/1
f 332/634/2 330/365/2 329/635/2
f 331/636/3 329/859/3 334/637/3
f 336/639/4 334/229/4 333/227/4
f 329/638/5 330/267/5 333/640/5
f 332/295/6 331/284/6 336/641/6
f 340/643/1 343/860/1 341/644/1
f 340/646/107 338/861/107 337/647/107
f 339/648/3 337/862/3 342/649/3
f 344/650/108 342/863/108 341/651/108
f 337/653/109 338/864/109 341/654/109
f 340/656/110 339/865/110 344/657/110
f 351/659/1 349/866/1 346/97/1
f 347/660/109 348/664/109 346/661/109
f 347/663/3 345/659/3 350/98/3
f 351/371/110 352/867/110 350/664/110
f 350/665/108 345/868/108 346/666/108
f 351/668/107 348/869/107 347/669/107
