# Blender 4.4.3
# www.blender.org
mtllib pmc.mtl
o cube.031
v 0.167417 0.782583 -0.225000
v 0.167417 0.782583 -0.287500
v 0.167417 0.595083 -0.225000
v 0.167417 0.595083 -0.287500
v -0.170083 0.782583 -0.287500
v -0.170083 0.782583 -0.225000
v -0.170083 0.595083 -0.287500
v -0.170083 0.595083 -0.225000
v 0.161980 1.276308 -0.297434
v 0.161730 1.277064 -0.303633
v 0.114407 1.161350 -0.309536
v 0.114157 1.162107 -0.315735
v 0.046245 1.323766 -0.293279
v 0.046495 1.323010 -0.287080
v -0.001328 1.208808 -0.305381
v -0.001078 1.208052 -0.299182
v 0.156250 1.329294 -0.134657
v 0.156250 1.342913 -0.290312
v 0.156250 1.142508 -0.150999
v 0.156250 1.156126 -0.306654
v -0.156250 1.342913 -0.290312
v -0.156250 1.329294 -0.134657
v -0.156250 1.156126 -0.306654
v -0.156250 1.142508 -0.150999
v 0.250000 1.250000 -0.100000
v 0.250000 1.250000 -0.225000
v 0.250000 0.750000 -0.100000
v 0.250000 0.750000 -0.225000
v -0.250000 1.250000 -0.225000
v -0.250000 1.250000 -0.100000
v -0.250000 0.750000 -0.225000
v -0.250000 0.750000 -0.100000
v 0.187500 1.437383 -0.120490
v 0.187500 1.450377 -0.181624
v 0.187500 1.235640 -0.163371
v 0.187500 1.248634 -0.224506
v -0.187500 1.450377 -0.181624
v -0.187500 1.437383 -0.120490
v -0.187500 1.248634 -0.224506
v -0.187500 1.235640 -0.163371
v -0.186577 1.562018 -0.061586
v -0.185083 1.576234 -0.128834
v -0.061397 1.151319 -0.145624
v -0.059903 1.165534 -0.212871
v -0.322788 1.536602 -0.140271
v -0.324282 1.522386 -0.073024
v -0.197608 1.125903 -0.224309
v -0.199102 1.111687 -0.157061
v -0.194001 1.548971 0.073011
v -0.209932 1.608028 0.060175
v -0.169288 1.515885 -0.109885
v -0.185219 1.574941 -0.122721
v -0.347637 1.568396 0.048738
v -0.331706 1.509339 0.061574
v -0.322924 1.535310 -0.134158
v -0.306993 1.476253 -0.121322
v -0.210019 1.609075 0.057275
v -0.191989 1.550596 0.044571
v -0.210316 1.586431 0.161084
v -0.192286 1.527953 0.148380
v -0.329627 1.510161 0.035357
v -0.347657 1.568640 0.048061
v -0.329924 1.487518 0.139166
v -0.347954 1.545997 0.151870
v -0.210316 1.586431 0.161084
v -0.204878 1.582071 0.098974
v -0.126080 1.293324 0.189036
v -0.120642 1.288964 0.126926
v -0.342516 1.541637 0.089760
v -0.347954 1.545997 0.151870
v -0.258280 1.248529 0.117712
v -0.263718 1.252890 0.179822
v 0.265625 1.437500 0.200000
v 0.265625 1.437500 0.106250
v 0.265625 0.750000 0.200000
v 0.265625 0.750000 0.106250
v -0.265625 1.437500 0.106250
v -0.265625 1.437500 0.200000
v -0.265625 0.750000 0.106250
v -0.265625 0.750000 0.200000
v -0.172363 1.529739 -0.042326
v -0.189886 1.594702 -0.056445
v -0.161654 1.515402 -0.121580
v -0.179177 1.580364 -0.135700
v -0.339565 1.551624 -0.068877
v -0.322042 1.486661 -0.054758
v -0.328856 1.537287 -0.148132
v -0.311333 1.472324 -0.134012
v -0.188838 1.551797 0.079605
v -0.206362 1.616759 0.065485
v -0.178129 1.537459 0.000350
v -0.195653 1.602422 -0.013770
v -0.356041 1.573681 0.053053
v -0.338517 1.508719 0.067173
v -0.345332 1.559344 -0.026202
v -0.327808 1.494382 -0.012082
v -0.250000 1.062500 0.150000
v -0.250000 1.062500 -0.162500
v -0.250000 0.812500 0.150000
v -0.250000 0.812500 -0.162500
v -0.312500 1.062500 -0.162500
v -0.312500 1.062500 0.150000
v -0.312500 0.812500 -0.162500
v -0.312500 0.812500 0.150000
v 0.312500 1.062500 0.150000
v 0.312500 1.062500 -0.162500
v 0.312500 0.812500 0.150000
v 0.312500 0.812500 -0.162500
v 0.250000 1.062500 -0.162500
v 0.250000 1.062500 0.150000
v 0.250000 0.812500 -0.162500
v 0.250000 0.812500 0.150000
v 0.324282 1.522386 -0.073024
v 0.322788 1.536602 -0.140271
v 0.199102 1.111687 -0.157061
v 0.197608 1.125903 -0.224309
v 0.185083 1.576234 -0.128834
v 0.186577 1.562018 -0.061586
v 0.059903 1.165534 -0.212871
v 0.061397 1.151319 -0.145624
v 0.322042 1.486661 -0.054758
v 0.339565 1.551624 -0.068877
v 0.311333 1.472324 -0.134012
v 0.328856 1.537287 -0.148132
v 0.189886 1.594702 -0.056445
v 0.172363 1.529739 -0.042326
v 0.179177 1.580364 -0.135700
v 0.161654 1.515402 -0.121580
v 0.331706 1.509339 0.061574
v 0.347637 1.568396 0.048738
v 0.306993 1.476253 -0.121322
v 0.322924 1.535310 -0.134158
v 0.209932 1.608028 0.060175
v 0.194001 1.548971 0.073011
v 0.185219 1.574941 -0.122721
v 0.169288 1.515885 -0.109885
v 0.338517 1.508719 0.067173
v 0.356041 1.573681 0.053053
v 0.327808 1.494382 -0.012082
v 0.345332 1.559344 -0.026202
v 0.206362 1.616759 0.065485
v 0.188838 1.551797 0.079605
v 0.195653 1.602422 -0.013770
v 0.178129 1.537459 0.000350
v 0.347657 1.568640 0.048061
v 0.329627 1.510161 0.035357
v 0.347954 1.545997 0.151870
v 0.329924 1.487518 0.139166
v 0.191989 1.550596 0.044571
v 0.210019 1.609075 0.057275
v 0.192286 1.527953 0.148380
v 0.210316 1.586431 0.161084
v 0.347954 1.545997 0.151870
v 0.342516 1.541637 0.089760
v 0.263718 1.252890 0.179822
v 0.258280 1.248529 0.117712
v 0.204878 1.582071 0.098974
v 0.210316 1.586431 0.161084
v 0.120642 1.288964 0.126926
v 0.126080 1.293324 0.189036
v 0.257121 0.955680 -0.324800
v 0.239867 1.094135 -0.290209
v 0.264719 0.960720 -0.341184
v 0.247464 1.099175 -0.306593
v 0.120914 1.093167 -0.345670
v 0.138168 0.954712 -0.380260
v 0.128512 1.098207 -0.362053
v 0.145766 0.959752 -0.396644
v 0.198339 1.091538 -0.171512
v 0.258859 1.101799 -0.301497
v 0.199030 1.072836 -0.172667
v 0.259550 1.083098 -0.302652
v 0.117249 1.100647 -0.367521
v 0.056728 1.090385 -0.237536
v 0.117939 1.081945 -0.368676
v 0.057419 1.071684 -0.238691
v 0.086803 1.087265 -0.222499
v 0.086803 1.085084 -0.347480
v 0.086803 0.774813 -0.217045
v 0.086803 0.772631 -0.342026
v -0.069447 1.085084 -0.347480
v -0.069447 1.087265 -0.222499
v -0.069447 0.772631 -0.342026
v -0.069447 0.774813 -0.217045
v -0.059647 1.086990 -0.238291
v -0.107482 1.084974 -0.353758
v -0.059647 0.774537 -0.232837
v -0.107482 0.772522 -0.348304
v -0.246064 1.085976 -0.296365
v -0.198229 1.087991 -0.180897
v -0.246064 0.773524 -0.290911
v -0.198229 0.775539 -0.175443
v 0.209335 1.087991 -0.180897
v 0.257170 1.085976 -0.296365
v 0.209335 0.775539 -0.175443
v 0.257170 0.773524 -0.290911
v 0.118588 1.084974 -0.353758
v 0.070753 1.086990 -0.238291
v 0.118588 0.772522 -0.348304
v 0.070753 0.774537 -0.232837
v 0.086803 1.106012 -0.222826
v 0.086803 1.103504 -0.366554
v 0.086803 1.087265 -0.222499
v 0.086803 1.084756 -0.366227
v -0.069447 1.103504 -0.366554
v -0.069447 1.106012 -0.222826
v -0.069447 1.084756 -0.366227
v -0.069447 1.087265 -0.222499
v 0.074303 0.956239 -0.373894
v 0.074303 1.097582 -0.347698
v 0.074303 0.959656 -0.392330
v 0.074303 1.100999 -0.366134
v -0.056947 1.097582 -0.347698
v -0.056947 0.956239 -0.373894
v -0.056947 1.100999 -0.366134
v -0.056947 0.959656 -0.392330
v -0.094447 0.955062 -0.328935
v -0.094447 1.097582 -0.347698
v -0.094447 0.952614 -0.347524
v -0.094447 1.095134 -0.366288
v -0.225697 1.097582 -0.347698
v -0.225697 0.955062 -0.328935
v -0.225697 1.095134 -0.366288
v -0.225697 0.952614 -0.347524
v -0.081947 1.106012 -0.222826
v -0.081947 1.103504 -0.366554
v -0.081947 1.087265 -0.222499
v -0.081947 1.084756 -0.366227
v -0.238197 1.103504 -0.366554
v -0.238197 1.106012 -0.222826
v -0.238197 1.084756 -0.366227
v -0.238197 1.087265 -0.222499
v 0.125000 0.612500 -0.225000
v 0.125000 0.612500 -0.281250
v 0.125000 0.550000 -0.225000
v 0.125000 0.550000 -0.281250
v -0.125000 0.612500 -0.281250
v -0.125000 0.612500 -0.225000
v -0.125000 0.550000 -0.281250
v -0.125000 0.550000 -0.225000
v -0.081694 0.595083 -0.225000
v -0.081694 0.595083 -0.281250
v -0.125888 0.550888 -0.225000
v -0.125888 0.550888 -0.281250
v -0.125888 0.639277 -0.281250
v -0.125888 0.639277 -0.225000
v -0.170083 0.595083 -0.281250
v -0.170083 0.595083 -0.225000
v 0.168306 0.595083 -0.225000
v 0.168306 0.595083 -0.281250
v 0.124112 0.550888 -0.225000
v 0.124112 0.550888 -0.281250
v 0.124112 0.639277 -0.281250
v 0.124112 0.639277 -0.225000
v 0.079917 0.595083 -0.281250
v 0.079917 0.595083 -0.225000
vn -0.0000 -0.0000 -1.0000
vn 1.0000 -0.0000 -0.0000
vn -0.0000 -0.0000 1.0000
vn -1.0000 -0.0000 -0.0000
vn -0.0000 1.0000 -0.0000
vn -0.0000 -1.0000 -0.0000
vn -0.0400 0.1210 -0.9918
vn 0.9239 -0.3736 -0.0829
vn 0.9239 -0.3736 -0.0828
vn 0.0400 -0.1210 0.9918
vn -0.9239 0.3736 0.0828
vn 0.3806 0.9197 0.0969
vn 0.3806 0.9197 0.0968
vn -0.3806 -0.9197 -0.0968
vn -0.3806 -0.9196 -0.0970
vn -0.0000 0.0872 -0.9962
vn -0.0000 -0.0872 0.9962
vn -0.0000 0.9962 0.0872
vn -0.0000 -0.9962 -0.0872
vn -0.0000 0.2079 -0.9781
vn -0.0000 -0.2079 0.9781
vn -0.0000 0.9781 0.2079
vn -0.0000 -0.9782 -0.2079
vn -0.0000 -0.9781 -0.2079
vn 0.0217 0.2068 -0.9781
vn 0.9579 0.2757 0.0796
vn -0.0217 -0.2068 0.9781
vn -0.9579 -0.2757 -0.0796
vn -0.2861 0.9387 0.1921
vn 0.2861 -0.9387 -0.1921
vn -0.2549 0.9449 -0.2054
vn 0.2549 -0.9449 0.2054
vn -0.1318 0.1765 0.9754
vn 0.1318 -0.1765 -0.9754
vn 0.2885 -0.9357 -0.2033
vn 0.9575 0.2813 0.0641
vn -0.2885 0.9357 0.2033
vn -0.9575 -0.2813 -0.0641
vn 0.0028 0.2131 -0.9770
vn -0.0028 -0.2131 0.9770
vn 0.0870 -0.0698 -0.9938
vn -0.0870 0.0698 0.9938
vn -0.2751 0.9571 -0.0913
vn 0.2751 -0.9571 0.0913
vn -0.0217 0.2068 -0.9781
vn 0.9579 -0.2757 -0.0796
vn 0.0217 -0.2068 0.9781
vn -0.9579 0.2757 0.0796
vn 0.2861 0.9387 0.1921
vn -0.2861 -0.9387 -0.1921
vn 0.2549 0.9449 -0.2054
vn -0.2549 -0.9449 0.2054
vn 0.1318 0.1765 0.9754
vn -0.1318 -0.1765 -0.9754
vn -0.2885 -0.9357 -0.2033
vn 0.9575 -0.2813 -0.0641
vn 0.2885 0.9357 0.2033
vn -0.9575 0.2813 0.0641
vn -0.0028 0.2131 -0.9770
vn 0.0028 -0.2131 0.9770
vn -0.0870 -0.0698 -0.9938
vn 0.0870 0.0698 0.9938
vn 0.2751 0.9571 -0.0913
vn -0.2751 -0.9571 0.0913
vn -0.1200 0.9632 0.2406
vn 0.9063 0.0074 0.4225
vn 0.9063 0.0074 0.4226
vn 0.1200 -0.9632 -0.2406
vn -0.9063 -0.0074 -0.4226
vn -0.4052 -0.2688 0.8738
vn 0.4052 0.2688 -0.8738
vn 0.4210 0.0714 -0.9042
vn -0.4210 -0.0714 0.9042
vn -0.9063 -0.0073 -0.4226
vn -0.0368 0.9974 0.0616
vn 0.0368 -0.9974 -0.0616
vn -0.0000 -0.0175 -0.9998
vn -0.0000 0.0175 0.9998
vn -0.0000 0.9998 -0.0174
vn -0.0000 -0.9998 0.0175
vn -0.3827 -0.0161 -0.9237
vn 0.9239 -0.0067 -0.3826
vn 0.3827 0.0161 0.9237
vn -0.9239 0.0067 0.3826
vn -0.0000 0.9998 -0.0175
vn -0.0000 -0.9998 0.0174
vn 0.3827 -0.0161 -0.9237
vn 0.9239 0.0067 0.3826
vn -0.3827 0.0161 0.9237
vn -0.9239 -0.0067 -0.3826
vn -0.0000 -0.0174 -0.9998
vn -0.0000 0.0174 0.9998
vn -0.0000 0.9833 0.1822
vn -0.0000 -0.9833 -0.1822
vn -0.0000 -0.1822 0.9833
vn -0.0000 0.1822 -0.9833
vn -0.0000 0.9914 -0.1306
vn -0.0000 -0.9914 0.1306
vn -0.0000 0.1305 0.9914
vn -0.0000 -0.1305 -0.9914
vn 0.7071 -0.7071 -0.0000
vn -0.7071 0.7071 -0.0000
vn 0.7071 0.7071 -0.0000
vn -0.7071 -0.7071 -0.0000
vt 0.427734 0.609375
vt 0.343750 0.656250
vt 0.343750 0.609375
vt 0.593750 0.843750
vt 0.578125 0.890625
vt 0.578125 0.843750
vt 0.083984 0.593750
vt 0.000000 0.640625
vt 0.000000 0.593750
vt 0.281250 0.375000
vt 0.265625 0.421875
vt 0.265625 0.375000
vt 0.500000 0.562500
vt 0.583984 0.546875
vt 0.583984 0.562500
vt 0.500000 0.531250
vt 0.583984 0.531250
vt 0.484375 0.781250
vt 0.453125 0.812500
vt 0.453125 0.781250
vt 0.140625 0.343750
vt 0.142578 0.375000
vt 0.140625 0.375000
vt 0.546875 0.875000
vt 0.546875 0.843750
vt 0.158203 0.343750
vt 0.156250 0.375000
vt 0.156250 0.343750
vt 0.500000 0.375000
vt 0.468750 0.373047
vt 0.500000 0.373047
vt 0.656250 0.529297
vt 0.625000 0.531250
vt 0.656250 0.531250
vt 0.453125 0.765625
vt 0.375000 0.812500
vt 0.375000 0.765625
vt 0.281250 0.828125
vt 0.320312 0.875000
vt 0.281250 0.875000
vt 0.468750 0.953125
vt 0.390625 1.000000
vt 0.390625 0.953125
vt 0.507812 0.953125
vt 0.468750 1.000000
vt 0.421875 0.570312
vt 0.421875 0.609375
vt 0.000000 0.554688
vt 0.078125 0.593750
vt 0.078125 0.554688
vt 0.125000 0.703125
vt 0.000000 0.828125
vt 0.000000 0.703125
vt 0.390625 0.875000
vt 0.359375 1.000000
vt 0.359375 0.875000
vt 0.250000 0.703125
vt 0.125000 0.828125
vt 0.125000 0.515625
vt 0.093750 0.640625
vt 0.093750 0.515625
vt 0.375000 0.875000
vt 0.500000 0.843750
vt 0.500000 0.875000
vt 0.500000 0.812500
vt 0.093750 0.651367
vt 0.000000 0.651367
vt 0.218750 0.401367
vt 0.203125 0.453125
vt 0.203125 0.401367
vt 0.187500 0.651367
vt 0.093750 0.703125
vt 0.234375 0.453125
vt 0.218750 0.453125
vt 0.390625 0.890625
vt 0.484375 0.875000
vt 0.484375 0.890625
vt 0.578125 0.875000
vt 0.286133 0.593750
vt 0.250000 0.593750
vt 0.470703 0.421875
vt 0.453125 0.531250
vt 0.453125 0.421875
vt 0.296875 0.593750
vt 0.333008 0.703125
vt 0.296875 0.703125
vt 0.095703 0.406250
vt 0.078125 0.515625
vt 0.078125 0.406250
vt 0.593750 0.921875
vt 0.629883 0.904297
vt 0.629883 0.921875
vt 0.109375 0.388672
vt 0.145508 0.406250
vt 0.145508 0.388672
vt 0.265625 0.468750
vt 0.301758 0.515625
vt 0.265625 0.515625
vt 0.437500 0.406250
vt 0.421875 0.453125
vt 0.421875 0.406250
vt 0.520508 0.656250
vt 0.484375 0.703125
vt 0.484375 0.656250
vt 0.453125 0.453125
vt 0.437500 0.453125
vt 0.593750 0.859375
vt 0.629883 0.843750
vt 0.629883 0.859375
vt 0.629883 0.609375
vt 0.593750 0.625000
vt 0.629883 0.625000
vt 0.583008 0.583008
vt 0.546875 0.609375
vt 0.546875 0.583008
vt 0.187500 0.536133
vt 0.171875 0.562500
vt 0.171875 0.536133
vt 0.598633 0.973633
vt 0.562500 1.000000
vt 0.562500 0.973633
vt 0.125000 0.489258
vt 0.109375 0.515625
vt 0.109375 0.489258
vt 0.390625 0.406250
vt 0.426758 0.390625
vt 0.426758 0.406250
vt 0.593750 0.593750
vt 0.629883 0.593750
vt 0.473633 0.689453
vt 0.437500 0.765625
vt 0.437500 0.689453
vt 0.156250 0.408203
vt 0.171875 0.484375
vt 0.156250 0.484375
vt 0.473633 0.611328
vt 0.437500 0.687500
vt 0.437500 0.611328
vt 0.390625 0.408203
vt 0.406250 0.484375
vt 0.390625 0.484375
vt 0.629883 0.578125
vt 0.437500 0.390625
vt 0.473633 0.406250
vt 0.473633 0.390625
vt 0.132812 0.828125
vt 0.000000 1.000000
vt 0.210938 0.531250
vt 0.187500 0.703125
vt 0.187500 0.531250
vt 0.273438 0.828125
vt 0.140625 1.000000
vt 0.140625 0.828125
vt 0.242188 0.531250
vt 0.218750 0.703125
vt 0.218750 0.531250
vt 0.523438 0.929688
vt 0.523438 0.953125
vt 0.390625 0.898438
vt 0.523438 0.921875
vt 0.523438 0.898438
vt 0.601562 0.791992
vt 0.562500 0.812500
vt 0.562500 0.791992
vt 0.328125 0.385742
vt 0.345703 0.406250
vt 0.328125 0.406250
vt 0.562500 0.760742
vt 0.601562 0.781250
vt 0.562500 0.781250
vt 0.609375 0.979492
vt 0.626953 1.000000
vt 0.609375 1.000000
vt 0.578125 0.718750
vt 0.617188 0.701172
vt 0.617188 0.718750
vt 0.617188 0.669922
vt 0.578125 0.687500
vt 0.617188 0.687500
vt 0.601562 0.729492
vt 0.562500 0.750000
vt 0.562500 0.729492
vt 0.609375 0.823242
vt 0.626953 0.843750
vt 0.609375 0.843750
vt 0.351562 0.416992
vt 0.312500 0.437500
vt 0.312500 0.416992
vt 0.189453 0.370117
vt 0.171875 0.390625
vt 0.171875 0.370117
vt 0.617188 0.656250
vt 0.578125 0.638672
vt 0.617188 0.638672
vt 0.578125 0.513672
vt 0.617188 0.531250
vt 0.617188 0.513672
vt 0.343750 0.703125
vt 0.328125 0.765625
vt 0.328125 0.703125
vt 0.250000 0.828125
vt 0.250000 0.765625
vt 0.062500 0.468750
vt 0.062500 0.406250
vt 0.171875 0.640625
vt 0.187500 0.562500
vt 0.187500 0.640625
vt 0.093750 0.593750
vt 0.187500 0.390625
vt 0.171875 0.453125
vt 0.359375 0.937500
vt 0.281250 1.000000
vt 0.281250 0.937500
vt 0.203125 0.390625
vt 0.187500 0.453125
vt 0.312500 0.515625
vt 0.328125 0.437500
vt 0.328125 0.515625
vt 0.343750 0.515625
vt 0.343750 0.437500
vt 0.364258 0.765625
vt 0.328125 0.875000
vt 0.501953 0.812500
vt 0.484375 0.812500
vt 0.379883 0.656250
vt 0.343750 0.765625
vt 0.234375 0.406250
vt 0.251953 0.515625
vt 0.234375 0.515625
vt 0.629883 0.890625
vt 0.593750 0.873047
vt 0.629883 0.873047
vt 0.281250 0.388672
vt 0.317383 0.406250
vt 0.317383 0.388672
vt 0.523438 0.416992
vt 0.484375 0.437500
vt 0.484375 0.416992
vt 0.626953 0.791992
vt 0.609375 0.812500
vt 0.609375 0.791992
vt 0.570312 0.416992
vt 0.531250 0.437500
vt 0.531250 0.416992
vt 0.220703 0.370117
vt 0.203125 0.370117
vt 0.578125 0.500000
vt 0.617188 0.482422
vt 0.617188 0.500000
vt 0.578125 0.451172
vt 0.617188 0.468750
vt 0.617188 0.451172
vt 0.520508 0.609375
vt 0.484375 0.609375
vt 0.375000 0.390625
vt 0.359375 0.437500
vt 0.359375 0.390625
vt 0.520508 0.484375
vt 0.484375 0.531250
vt 0.484375 0.484375
vt 0.390625 0.390625
vt 0.375000 0.437500
vt 0.629883 0.562500
vt 0.593750 0.546875
vt 0.629883 0.546875
vt 0.593750 0.531250
vt 0.629883 0.531250
vt 0.000000 0.401367
vt 0.039062 0.421875
vt 0.000000 0.421875
vt 0.626953 0.760742
vt 0.609375 0.781250
vt 0.609375 0.760742
vt 0.617188 0.932617
vt 0.578125 0.953125
vt 0.578125 0.932617
vt 0.626953 0.729492
vt 0.609375 0.750000
vt 0.609375 0.729492
vt 0.578125 0.437500
vt 0.617188 0.419922
vt 0.617188 0.437500
vt 0.062500 0.388672
vt 0.101562 0.406250
vt 0.101562 0.388672
vt 0.109375 0.411133
vt 0.145508 0.437500
vt 0.109375 0.437500
vt 0.156250 0.379883
vt 0.171875 0.406250
vt 0.156250 0.406250
vt 0.562500 0.817383
vt 0.598633 0.843750
vt 0.562500 0.843750
vt 0.234375 0.379883
vt 0.250000 0.406250
vt 0.520508 0.406250
vt 0.484375 0.390625
vt 0.520508 0.390625
vt 0.531250 0.390625
vt 0.567383 0.406250
vt 0.567383 0.390625
vt 0.379883 0.486328
vt 0.343750 0.562500
vt 0.343750 0.486328
vt 0.421875 0.408203
vt 0.406250 0.408203
vt 0.000000 0.470703
vt 0.036133 0.546875
vt 0.000000 0.546875
vt 0.062500 0.392578
vt 0.046875 0.468750
vt 0.046875 0.392578
vt 0.578125 0.406250
vt 0.614258 0.390625
vt 0.614258 0.406250
vt 0.036133 0.375000
vt 0.000000 0.390625
vt 0.036133 0.390625
vt 0.658203 0.651367
vt 0.625000 0.656250
vt 0.625000 0.651367
vt 0.661133 0.948242
vt 0.625000 0.953125
vt 0.625000 0.948242
vt 0.625000 0.635742
vt 0.658203 0.640625
vt 0.625000 0.640625
vt 0.661133 0.932617
vt 0.625000 0.937500
vt 0.625000 0.932617
vt 0.033203 0.468750
vt 0.000000 0.432617
vt 0.033203 0.432617
vt 0.531250 0.916992
vt 0.564453 0.953125
vt 0.564453 0.916992
vt 0.648438 0.573242
vt 0.609375 0.578125
vt 0.609375 0.573242
vt 0.129883 0.370117
vt 0.093750 0.375000
vt 0.093750 0.370117
vt 0.492188 0.385742
vt 0.453125 0.390625
vt 0.453125 0.385742
vt 0.234375 0.370117
vt 0.270508 0.375000
vt 0.234375 0.375000
vt 0.515625 1.000000
vt 0.554688 0.963867
vt 0.554688 1.000000
vt 0.109375 0.448242
vt 0.148438 0.484375
vt 0.148438 0.448242
vt 0.164062 0.562500
vt 0.125000 0.640625
vt 0.125000 0.562500
vt 0.421875 0.484375
vt 0.390625 0.562500
vt 0.429688 0.687500
vt 0.390625 0.765625
vt 0.390625 0.687500
vt 0.078125 0.468750
vt 0.046875 0.546875
vt 0.429688 0.656250
vt 0.515625 0.703125
vt 0.554688 0.734375
vt 0.554688 0.703125
vt 0.287109 0.515625
vt 0.250000 0.515625
vt 0.203125 0.531250
vt 0.171875 0.531250
vt 0.333984 0.515625
vt 0.296875 0.515625
vt 0.234375 0.531250
vt 0.531250 0.656250
vt 0.568359 0.625000
vt 0.568359 0.656250
vt 0.531250 0.500000
vt 0.568359 0.531250
vt 0.568359 0.500000
vt 0.421875 0.531250
vt 0.458984 0.609375
vt 0.468750 0.609375
vt 0.468750 0.531250
vt 0.162109 0.484375
vt 0.125000 0.484375
vt 0.531250 0.468750
vt 0.568359 0.468750
vt 0.568359 0.437500
vt 0.398438 0.385742
vt 0.359375 0.385742
vt 0.629883 0.385742
vt 0.593750 0.390625
vt 0.593750 0.385742
vt 0.445312 0.385742
vt 0.406250 0.390625
vt 0.406250 0.385742
vt 0.036133 0.370117
vt 0.000000 0.375000
vt 0.000000 0.370117
vt 0.539062 0.838867
vt 0.539062 0.875000
vt 0.500000 0.573242
vt 0.539062 0.609375
vt 0.539062 0.573242
vt 0.361328 0.370117
vt 0.328125 0.375000
vt 0.328125 0.370117
vt 0.625000 0.963867
vt 0.661133 0.968750
vt 0.625000 0.968750
vt 0.658203 0.666992
vt 0.625000 0.671875
vt 0.625000 0.666992
vt 0.083008 0.370117
vt 0.046875 0.375000
vt 0.046875 0.370117
vt 0.343750 0.484375
vt 0.376953 0.448242
vt 0.376953 0.484375
vt 0.484375 0.448242
vt 0.517578 0.484375
vt 0.517578 0.448242
vt 0.408203 0.370117
vt 0.375000 0.375000
vt 0.375000 0.370117
vt 0.317383 0.370117
vt 0.281250 0.370117
vt 0.455078 0.370117
vt 0.421875 0.375000
vt 0.421875 0.370117
vt 0.625000 0.713867
vt 0.661133 0.718750
vt 0.625000 0.718750
vt 0.298828 0.432617
vt 0.298828 0.468750
vt 0.531250 0.666992
vt 0.564453 0.703125
vt 0.564453 0.666992
vt 0.539062 0.385742
vt 0.500000 0.390625
vt 0.500000 0.385742
vt 0.661133 0.698242
vt 0.625000 0.703125
vt 0.625000 0.698242
vt 0.585938 0.385742
vt 0.546875 0.390625
vt 0.546875 0.385742
vt 0.661133 0.682617
vt 0.625000 0.687500
vt 0.625000 0.682617
vt 0.515625 0.828125
vt 0.554688 0.791992
vt 0.554688 0.828125
vt 0.515625 0.745117
vt 0.554688 0.781250
vt 0.554688 0.745117
vt 0.593750 0.890625
vt 0.531250 0.906250
vt 0.531250 0.890625
vt 0.560547 0.828125
vt 0.546875 0.828125
vt 0.593750 0.609375
vt 0.531250 0.625000
vt 0.531250 0.609375
vt 0.576172 0.703125
vt 0.562500 0.718750
vt 0.562500 0.703125
vt 0.546875 0.578125
vt 0.609375 0.564453
vt 0.562500 0.955078
vt 0.625000 0.955078
vt 0.468750 0.781250
vt 0.591797 0.906250
vt 0.578125 0.921875
vt 0.578125 0.906250
vt 0.484375 0.765625
vt 0.468750 0.765625
vt 0.294922 0.406250
vt 0.281250 0.421875
vt 0.281250 0.406250
vt 0.296875 0.421875
vt 0.312500 0.408203
vt 0.312500 0.421875
vt 0.453125 0.408203
vt 0.468750 0.421875
vt 0.468750 0.408203
vt 0.250000 0.531250
vt 0.482422 0.406250
vt 0.468750 0.406250
vt 0.515625 0.812500
vt 0.500000 0.828125
vt 0.263672 0.390625
vt 0.250000 0.390625
vt 0.046875 0.390625
vt 0.062500 0.376953
vt 0.062500 0.390625
vt 0.250000 0.376953
vt 0.265625 0.390625
vt 0.265625 0.376953
vt 0.427734 0.656250
vt 0.083984 0.640625
vt 0.500000 0.546875
vt 0.142578 0.343750
vt 0.158203 0.375000
vt 0.468750 0.375000
vt 0.625000 0.529297
vt 0.320312 0.828125
vt 0.507812 1.000000
vt 0.343750 0.570312
vt 0.375000 0.843750
vt 0.234375 0.401367
vt 0.286133 0.703125
vt 0.470703 0.531250
vt 0.333008 0.593750
vt 0.095703 0.515625
vt 0.593750 0.904297
vt 0.109375 0.406250
vt 0.301758 0.468750
vt 0.520508 0.703125
vt 0.453125 0.406250
vt 0.583008 0.609375
vt 0.598633 1.000000
vt 0.473633 0.765625
vt 0.171875 0.408203
vt 0.473633 0.687500
vt 0.593750 0.578125
vt 0.132812 1.000000
vt 0.210938 0.703125
vt 0.273438 1.000000
vt 0.242188 0.703125
vt 0.390625 0.929688
vt 0.390625 0.921875
vt 0.601562 0.812500
vt 0.345703 0.385742
vt 0.601562 0.760742
vt 0.626953 0.979492
vt 0.578125 0.701172
vt 0.578125 0.669922
vt 0.601562 0.750000
vt 0.626953 0.823242
vt 0.351562 0.437500
vt 0.189453 0.390625
vt 0.578125 0.656250
vt 0.578125 0.531250
vt 0.328125 0.828125
vt 0.364258 0.875000
vt 0.501953 0.703125
vt 0.379883 0.765625
vt 0.251953 0.406250
vt 0.523438 0.437500
vt 0.626953 0.812500
vt 0.570312 0.437500
vt 0.220703 0.390625
vt 0.578125 0.482422
vt 0.578125 0.468750
vt 0.520508 0.531250
vt 0.390625 0.437500
vt 0.593750 0.562500
vt 0.039062 0.401367
vt 0.626953 0.781250
vt 0.617188 0.953125
vt 0.626953 0.750000
vt 0.578125 0.419922
vt 0.145508 0.411133
vt 0.171875 0.379883
vt 0.598633 0.817383
vt 0.250000 0.379883
vt 0.484375 0.406250
vt 0.531250 0.406250
vt 0.379883 0.562500
vt 0.036133 0.470703
vt 0.578125 0.390625
vt 0.658203 0.656250
vt 0.661133 0.953125
vt 0.658203 0.635742
vt 0.661133 0.937500
vt 0.000000 0.468750
vt 0.531250 0.953125
vt 0.648438 0.578125
vt 0.129883 0.375000
vt 0.492188 0.390625
vt 0.270508 0.370117
vt 0.515625 0.963867
vt 0.109375 0.484375
vt 0.164062 0.640625
vt 0.421875 0.562500
vt 0.429688 0.765625
vt 0.078125 0.546875
vt 0.390625 0.656250
vt 0.515625 0.734375
vt 0.287109 0.593750
vt 0.333984 0.593750
vt 0.531250 0.531250
vt 0.458984 0.531250
vt 0.500000 0.609375
vt 0.162109 0.562500
vt 0.398438 0.390625
vt 0.629883 0.390625
vt 0.445312 0.390625
vt 0.500000 0.838867
vt 0.361328 0.375000
vt 0.661133 0.963867
vt 0.658203 0.671875
vt 0.083008 0.375000
vt 0.343750 0.448242
vt 0.408203 0.375000
vt 0.317383 0.375000
vt 0.455078 0.375000
vt 0.661133 0.713867
vt 0.265625 0.432617
vt 0.531250 0.703125
vt 0.539062 0.390625
vt 0.661133 0.703125
vt 0.585938 0.390625
vt 0.661133 0.687500
vt 0.515625 0.791992
vt 0.515625 0.781250
vt 0.593750 0.906250
vt 0.560547 0.843750
vt 0.576172 0.718750
vt 0.546875 0.564453
vt 0.562500 0.968750
vt 0.591797 0.921875
vt 0.294922 0.421875
vt 0.296875 0.408203
vt 0.482422 0.421875
vt 0.263672 0.406250
vt 0.046875 0.376953
s 1
usemtl m_0d9e4422-4567-72ca-5616-a3dbf57eb835
f 7/1/1 2/2/1 4/3/1
f 4/4/2 1/5/2 3/6/2
f 3/7/3 6/8/3 8/9/3
f 8/10/4 5/11/4 7/12/4
f 1/13/5 5/14/5 6/15/5
f 4/16/6 8/14/6 7/17/6
f 15/18/7 10/19/7 12/20/7
f 11/21/8 10/22/9 9/23/9
f 11/6/10 14/24/10 16/25/10
f 16/26/11 13/27/11 15/28/11
f 14/29/12 10/30/13 13/31/12
f 15/32/14 11/33/15 16/34/14
f 23/35/16 18/36/16 20/37/16
f 19/38/2 18/39/2 17/40/2
f 19/41/17 22/42/17 24/43/17
f 24/44/4 21/45/4 23/41/4
f 17/3/18 21/46/18 22/47/18
f 20/48/19 24/49/19 23/50/19
f 31/51/1 26/52/1 28/53/1
f 28/54/2 25/55/2 27/56/2
f 27/57/3 30/58/3 32/51/3
f 32/59/4 29/60/4 31/61/4
f 25/62/5 29/63/5 30/64/5
f 28/36/6 32/63/6 31/65/6
f 39/66/20 34/53/20 36/67/20
f 36/68/2 33/69/2 35/70/2
f 35/71/21 38/72/21 40/66/21
f 39/68/4 38/73/4 37/74/4
f 33/75/22 37/76/22 38/77/22
f 36/76/23 40/5/24 39/78/24
f 47/79/25 42/57/25 44/80/25
f 44/81/26 41/82/26 43/83/26
f 48/84/27 41/85/27 46/86/27
f 48/87/28 45/88/28 47/89/28
f 41/90/29 45/91/29 46/92/29
f 44/93/30 48/94/30 47/95/30
f 52/96/31 53/97/31 50/98/31
f 52/99/26 49/100/26 51/101/26
f 51/102/32 54/103/32 56/104/32
f 55/99/28 54/105/28 53/106/28
f 49/107/33 53/108/33 54/109/33
f 55/110/34 51/111/34 56/112/34
f 63/113/35 58/114/35 60/115/35
f 60/116/36 57/117/36 59/118/36
f 59/119/37 62/120/37 64/121/37
f 64/122/38 61/123/38 63/124/38
f 57/125/39 61/126/39 62/127/39
f 60/128/40 64/110/40 63/129/40
f 71/130/41 66/131/41 68/132/41
f 67/133/36 66/134/36 65/135/36
f 67/136/42 70/137/42 72/138/42
f 71/139/38 70/140/38 69/141/38
f 65/128/43 69/142/43 70/129/43
f 68/143/44 72/144/44 71/145/44
f 79/146/1 74/147/1 76/52/1
f 76/148/2 73/149/2 75/150/2
f 75/151/3 78/152/3 80/153/3
f 80/154/4 77/155/4 79/156/4
f 73/43/5 77/157/5 78/158/5
f 76/159/6 80/160/6 79/161/6
f 87/162/31 82/163/31 84/164/31
f 83/165/26 82/166/26 81/167/26
f 88/168/32 81/169/32 86/170/32
f 87/171/28 86/172/28 85/173/28
f 81/174/33 85/175/33 86/176/33
f 87/177/34 83/178/34 88/179/34
f 95/180/31 90/181/31 92/182/31
f 91/183/26 90/184/26 89/185/26
f 91/186/32 94/187/32 96/188/32
f 96/189/28 93/190/28 95/191/28
f 94/192/33 90/193/33 93/194/33
f 92/195/34 96/196/34 95/197/34
f 103/198/1 98/199/1 100/200/1
f 100/199/2 97/201/2 99/202/2
f 99/89/3 102/203/3 104/204/3
f 104/200/4 101/202/4 103/57/4
f 97/205/5 101/206/5 102/207/5
f 100/88/6 104/208/6 103/61/6
f 111/209/1 106/210/1 108/190/1
f 108/211/2 105/212/2 107/213/2
f 107/214/3 110/215/3 112/209/3
f 112/56/4 109/213/4 111/40/4
f 105/216/5 109/217/5 110/218/5
f 108/217/6 112/219/6 111/220/6
f 119/221/45 114/222/45 116/199/45
f 115/103/46 114/223/46 113/224/46
f 115/225/47 118/226/47 120/2/47
f 119/227/48 118/228/48 117/229/48
f 118/230/49 114/231/49 117/232/49
f 116/233/50 120/234/50 119/235/50
f 127/236/51 122/237/51 124/238/51
f 124/239/46 121/240/46 123/241/46
f 123/242/52 126/243/52 128/244/52
f 128/245/48 125/214/48 127/246/48
f 121/247/53 125/248/53 126/249/53
f 124/250/54 128/251/54 127/252/54
f 135/253/51 130/104/51 132/254/51
f 132/255/46 129/256/46 131/257/46
f 131/258/52 134/259/52 136/260/52
f 136/261/48 133/262/48 135/255/48
f 134/263/53 130/264/53 133/265/53
f 132/266/54 136/265/54 135/267/54
f 140/268/51 141/269/51 138/270/51
f 140/271/46 137/272/46 139/273/46
f 139/274/52 142/275/52 144/276/52
f 144/277/48 141/278/48 143/279/48
f 137/280/53 141/281/53 142/282/53
f 140/283/54 144/284/54 143/285/54
f 148/286/55 149/287/55 146/288/55
f 147/289/56 146/290/56 145/291/56
f 152/292/57 145/293/57 150/294/57
f 151/295/58 150/296/58 149/227/58
f 150/297/59 146/298/59 149/299/59
f 148/300/60 152/301/60 151/302/60
f 159/303/61 154/304/61 156/305/61
f 156/306/56 153/140/56 155/307/56
f 160/308/62 153/309/62 158/310/62
f 160/311/58 157/312/58 159/313/58
f 153/314/63 157/315/63 158/316/63
f 159/317/64 155/318/64 160/319/64
f 167/320/65 162/321/65 164/322/65
f 164/323/66 161/324/67 163/325/67
f 168/326/68 161/327/68 166/328/68
f 168/329/69 165/330/69 167/331/69
f 166/332/70 162/333/70 165/334/70
f 164/335/71 168/336/71 167/337/71
f 175/338/72 170/339/72 172/340/72
f 172/341/67 169/342/67 171/343/67
f 171/344/73 174/345/73 176/346/73
f 175/347/74 174/348/69 173/349/74
f 169/350/75 173/351/75 174/352/75
f 172/353/76 176/354/76 175/355/76
f 183/356/77 178/357/77 180/358/77
f 180/359/2 177/360/2 179/141/2
f 179/361/78 182/362/78 184/363/78
f 184/364/4 181/365/4 183/312/4
f 177/363/79 181/366/79 182/361/79
f 180/367/80 184/368/80 183/369/80
f 191/370/81 186/80/81 188/371/81
f 187/210/82 186/372/82 185/373/82
f 187/374/83 190/84/83 192/375/83
f 191/69/84 190/376/84 189/372/84
f 185/377/85 189/378/85 190/379/79
f 188/380/86 192/381/86 191/382/86
f 196/383/87 197/384/87 194/47/87
f 196/16/88 193/385/88 195/386/88
f 195/387/89 198/358/89 200/388/89
f 200/105/90 197/383/90 199/100/90
f 198/382/85 194/389/85 197/390/85
f 196/243/86 200/390/86 199/391/86
f 207/392/91 202/257/91 204/393/91
f 204/394/2 201/395/2 203/396/2
f 203/397/92 206/398/92 208/399/92
f 208/400/4 205/401/4 207/402/4
f 201/64/79 205/403/79 206/404/79
f 204/405/80 208/406/80 207/407/80
f 215/408/93 210/409/93 212/410/93
f 211/411/2 210/412/2 209/413/2
f 211/414/94 214/415/94 216/416/94
f 216/417/4 213/418/4 215/419/4
f 209/420/95 213/421/95 214/422/95
f 212/423/96 216/424/96 215/425/96
f 223/426/97 218/427/97 220/428/97
f 220/429/2 217/10/2 219/430/2
f 219/431/98 222/432/98 224/433/98
f 223/434/4 222/435/4 221/436/4
f 217/96/99 221/437/99 222/438/99
f 220/439/100 224/440/100 223/441/100
f 231/442/91 226/443/91 228/444/91
f 228/445/2 225/446/2 227/447/2
f 227/448/92 230/449/92 232/450/92
f 232/451/4 229/452/4 231/453/4
f 225/454/79 229/455/79 230/456/79
f 228/457/80 232/458/80 231/459/80
f 239/460/1 234/461/1 236/462/1
f 236/463/2 233/25/2 235/464/2
f 235/465/3 238/466/3 240/467/3
f 240/468/4 237/469/4 239/470/4
f 233/471/5 237/472/5 238/339/5
f 236/473/6 240/413/6 239/474/6
f 244/35/1 245/475/1 242/20/1
f 244/476/101 241/477/101 243/478/101
f 243/479/3 246/475/3 248/480/3
f 248/481/102 245/482/102 247/483/102
f 241/484/103 245/485/103 246/486/103
f 244/487/104 248/488/104 247/489/104
f 252/229/1 253/490/1 250/376/1
f 252/491/101 249/488/101 251/492/101
f 251/493/3 254/494/3 256/65/3
f 256/495/102 253/296/102 255/496/102
f 249/497/103 253/498/103 254/499/103
f 252/500/104 256/501/104 255/502/104
f 7/1/1 5/503/1 2/2/1
f 4/4/2 2/460/2 1/5/2
f 3/7/3 1/504/3 6/8/3
f 8/10/4 6/482/4 5/11/4
f 1/13/5 2/505/5 5/14/5
f 4/16/6 3/505/6 8/14/6
f 15/18/7 13/224/7 10/19/7
f 11/21/8 12/506/8 10/22/9
f 11/6/10 9/78/10 14/24/10
f 16/26/11 14/507/11 13/27/11
f 14/29/12 9/508/13 10/30/13
f 15/32/14 12/509/15 11/33/15
f 23/35/16 21/19/16 18/36/16
f 19/38/2 20/510/2 18/39/2
f 19/41/17 17/45/17 22/42/17
f 24/44/4 22/511/4 21/45/4
f 17/3/18 18/512/18 21/46/18
f 20/48/19 19/9/19 24/49/19
f 31/51/1 29/58/1 26/52/1
f 28/54/2 26/42/2 25/55/2
f 27/57/3 25/201/3 30/58/3
f 32/59/4 30/357/4 29/60/4
f 25/62/5 26/513/5 29/63/5
f 28/36/6 27/513/6 32/63/6
f 39/66/20 37/72/20 34/53/20
f 36/68/2 34/74/2 33/69/2
f 35/71/21 33/149/21 38/72/21
f 39/68/4 40/514/4 38/73/4
f 33/75/22 34/54/22 37/76/22
f 36/76/23 35/77/23 40/5/24
f 47/79/25 45/515/25 42/57/25
f 44/81/26 42/516/26 41/82/26
f 48/84/27 43/517/27 41/85/27
f 48/87/28 46/518/28 45/88/28
f 41/90/29 42/519/29 45/91/29
f 44/93/30 43/520/30 48/94/30
f 52/96/31 55/521/31 53/97/31
f 52/99/26 50/106/26 49/100/26
f 51/102/32 49/522/32 54/103/32
f 55/99/28 56/523/28 54/105/28
f 49/107/33 50/4/33 53/108/33
f 55/110/34 52/465/34 51/111/34
f 63/113/35 61/524/35 58/114/35
f 60/116/36 58/206/36 57/117/36
f 59/119/37 57/525/37 62/120/37
f 64/122/38 62/59/38 61/123/38
f 57/125/39 58/261/39 61/126/39
f 60/128/40 59/465/40 64/110/40
f 71/130/41 69/526/41 66/131/41
f 67/133/36 68/527/36 66/134/36
f 67/136/42 65/528/42 70/137/42
f 71/139/38 72/307/38 70/140/38
f 65/128/43 66/529/43 69/142/43
f 68/143/44 67/99/44 72/144/44
f 79/146/1 77/530/1 74/147/1
f 76/148/2 74/531/2 73/149/2
f 75/151/3 73/532/3 78/152/3
f 80/154/4 78/533/4 77/155/4
f 73/43/5 74/534/5 77/157/5
f 76/159/6 75/535/6 80/160/6
f 87/162/31 85/536/31 82/163/31
f 83/165/26 84/537/26 82/166/26
f 88/168/32 83/538/32 81/169/32
f 87/171/28 88/539/28 86/172/28
f 81/174/33 82/540/33 85/175/33
f 87/177/34 84/541/34 83/178/34
f 95/180/31 93/542/31 90/181/31
f 91/183/26 92/543/26 90/184/26
f 91/186/32 89/544/32 94/187/32
f 96/189/28 94/545/28 93/190/28
f 94/192/33 89/546/33 90/193/33
f 92/195/34 91/547/34 96/196/34
f 103/198/1 101/226/1 98/199/1
f 100/199/2 98/548/2 97/201/2
f 99/89/3 97/364/3 102/203/3
f 104/200/4 102/199/4 101/202/4
f 97/205/5 98/117/5 101/206/5
f 100/88/6 99/49/6 104/208/6
f 111/209/1 109/215/1 106/210/1
f 108/211/2 106/55/2 105/212/2
f 107/214/3 105/69/3 110/215/3
f 112/56/4 110/211/4 109/213/4
f 105/216/5 106/187/5 109/217/5
f 108/217/6 107/218/6 112/219/6
f 119/221/45 117/549/45 114/222/45
f 115/103/46 116/550/46 114/223/46
f 115/225/47 113/551/47 118/226/47
f 119/227/48 120/552/48 118/228/48
f 118/230/49 113/460/49 114/231/49
f 116/233/50 115/483/50 120/234/50
f 127/236/51 125/553/51 122/237/51
f 124/239/46 122/554/46 121/240/46
f 123/242/52 121/555/52 126/243/52
f 128/245/48 126/556/48 125/214/48
f 121/247/53 122/557/53 125/248/53
f 124/250/54 123/558/54 128/251/54
f 135/253/51 133/102/51 130/104/51
f 132/255/46 130/262/46 129/256/46
f 131/258/52 129/559/52 134/259/52
f 136/261/48 134/560/48 133/262/48
f 134/263/53 129/561/53 130/264/53
f 132/266/54 131/264/54 136/265/54
f 140/268/51 143/562/51 141/269/51
f 140/271/46 138/563/46 137/272/46
f 139/274/52 137/564/52 142/275/52
f 144/277/48 142/565/48 141/278/48
f 137/280/53 138/566/53 141/281/53
f 140/283/54 139/204/54 144/284/54
f 148/286/55 151/567/55 149/287/55
f 147/289/56 148/568/56 146/290/56
f 152/292/57 147/569/57 145/293/57
f 151/295/58 152/570/58 150/296/58
f 150/297/59 145/571/59 146/298/59
f 148/300/60 147/572/60 152/301/60
f 159/303/61 157/573/61 154/304/61
f 156/306/56 154/359/56 153/140/56
f 160/308/62 155/574/62 153/309/62
f 160/311/58 158/203/58 157/312/58
f 153/314/63 154/575/63 157/315/63
f 159/317/64 156/401/64 155/318/64
f 167/320/65 165/576/65 162/321/65
f 164/323/66 162/577/66 161/324/67
f 168/326/68 163/578/68 161/327/68
f 168/329/69 166/579/69 165/330/69
f 166/332/70 161/580/70 162/333/70
f 164/335/71 163/581/71 168/336/71
f 175/338/72 173/582/72 170/339/72
f 172/341/67 170/583/67 169/342/67
f 171/344/73 169/584/73 174/345/73
f 175/347/74 176/585/69 174/348/69
f 169/350/75 170/586/75 173/351/75
f 172/353/76 171/587/76 176/354/76
f 183/356/77 181/588/77 178/357/77
f 180/359/2 178/589/2 177/360/2
f 179/361/78 177/590/78 182/362/78
f 184/364/4 182/591/4 181/365/4
f 177/363/79 178/592/79 181/366/79
f 180/367/80 179/593/80 184/368/80
f 191/370/81 189/594/81 186/80/81
f 187/210/82 188/69/82 186/372/82
f 187/374/83 185/595/83 190/84/83
f 191/69/84 192/73/84 190/376/84
f 185/377/85 186/466/85 189/378/85
f 188/380/86 187/596/86 192/381/86
f 196/383/87 199/597/87 197/384/87
f 196/16/88 194/598/88 193/385/88
f 195/387/89 193/599/89 198/358/89
f 200/105/90 198/82/90 197/383/90
f 198/382/85 193/380/79 194/389/85
f 196/243/86 195/389/86 200/390/86
f 207/392/91 205/600/91 202/257/91
f 204/394/2 202/601/2 201/395/2
f 203/397/92 201/602/92 206/398/92
f 208/400/4 206/317/4 205/401/4
f 201/64/79 202/603/79 205/403/79
f 204/405/80 203/598/80 208/406/80
f 215/408/93 213/604/93 210/409/93
f 211/411/2 212/605/2 210/412/2
f 211/414/94 209/606/94 214/415/94
f 216/417/4 214/607/4 213/418/4
f 209/420/95 210/608/95 213/421/95
f 212/423/96 211/260/96 216/424/96
f 223/426/97 221/609/97 218/427/97
f 220/429/2 218/610/2 217/10/2
f 219/431/98 217/611/98 222/432/98
f 223/434/4 224/612/4 222/435/4
f 217/96/99 218/613/99 221/437/99
f 220/439/100 219/614/100 224/440/100
f 231/442/91 229/615/91 226/443/91
f 228/445/2 226/616/2 225/446/2
f 227/448/92 225/617/92 230/449/92
f 232/451/4 230/618/4 229/452/4
f 225/454/79 226/619/79 229/455/79
f 228/457/80 227/620/80 232/458/80
f 239/460/1 237/621/1 234/461/1
f 236/463/2 234/622/2 233/25/2
f 235/465/3 233/111/3 238/466/3
f 240/468/4 238/623/4 237/469/4
f 233/471/5 234/624/5 237/472/5
f 236/473/6 235/625/6 240/413/6
f 244/35/1 247/480/1 245/475/1
f 244/476/101 242/626/101 241/477/101
f 243/479/3 241/18/3 246/475/3
f 248/481/102 246/627/102 245/482/102
f 241/484/103 242/628/103 245/485/103
f 244/487/104 243/83/104 248/488/104
f 252/229/1 255/371/1 253/490/1
f 252/491/101 250/629/101 249/488/101
f 251/493/3 249/454/3 254/494/3
f 256/495/102 254/630/102 253/296/102
f 249/497/103 250/631/103 253/498/103
f 252/500/104 251/496/104 256/501/104
