# Blender 4.4.3
# www.blender.org
mtllib saper.mtl
o saper
v -0.185893 1.414396 -0.160797
v -0.186204 1.416281 -0.166748
v -0.147266 1.301657 -0.198519
v -0.147577 1.303542 -0.204470
v -0.281179 1.385355 -0.171577
v -0.280868 1.383471 -0.165626
v -0.242552 1.272617 -0.209298
v -0.242241 1.270732 -0.203347
v 0.187500 1.259629 -0.212500
v 0.187500 1.235778 -0.335203
v 0.187500 1.136926 -0.188648
v 0.187500 1.113074 -0.311352
v -0.187500 1.235778 -0.335203
v -0.187500 1.259629 -0.212500
v -0.187500 1.113074 -0.311352
v -0.187500 1.136926 -0.188648
v -0.087500 1.339514 -0.254081
v -0.087500 1.324011 -0.333838
v -0.087500 1.094108 -0.206379
v -0.087500 1.078604 -0.286136
v -0.168750 1.324011 -0.333838
v -0.168750 1.339514 -0.254081
v -0.168750 1.078604 -0.286136
v -0.168750 1.094108 -0.206379
v 0.000000 1.339514 -0.254081
v 0.000000 1.324011 -0.333838
v 0.000000 1.094108 -0.206379
v 0.000000 1.078604 -0.286136
v -0.081250 1.324011 -0.333838
v -0.081250 1.339514 -0.254081
v -0.081250 1.078604 -0.286136
v -0.081250 1.094108 -0.206379
v 0.087500 1.339514 -0.254081
v 0.087500 1.324011 -0.333838
v 0.087500 1.094108 -0.206379
v 0.087500 1.078604 -0.286136
v 0.006250 1.324011 -0.333838
v 0.006250 1.339514 -0.254081
v 0.006250 1.078604 -0.286136
v 0.006250 1.094108 -0.206379
v 0.175000 1.339514 -0.254081
v 0.175000 1.324011 -0.333838
v 0.175000 1.094108 -0.206379
v 0.175000 1.078604 -0.286136
v 0.093750 1.324011 -0.333838
v 0.093750 1.339514 -0.254081
v 0.093750 1.078604 -0.286136
v 0.093750 1.094108 -0.206379
v -0.210019 1.609075 0.057275
v -0.191989 1.550596 0.044571
v -0.210316 1.586431 0.161084
v -0.192286 1.527953 0.148380
v -0.329627 1.510161 0.035357
v -0.347657 1.568640 0.048061
v -0.329924 1.487518 0.139166
v -0.347954 1.545997 0.151870
v 0.250000 1.250000 -0.100000
v 0.250000 1.250000 -0.225000
v 0.250000 0.750000 -0.100000
v 0.250000 0.750000 -0.225000
v -0.250000 1.250000 -0.225000
v -0.250000 1.250000 -0.100000
v -0.250000 0.750000 -0.225000
v -0.250000 0.750000 -0.100000
v 0.187500 1.437383 -0.120490
v 0.187500 1.450377 -0.181624
v 0.187500 1.235640 -0.163371
v 0.187500 1.248634 -0.224506
v -0.187500 1.450377 -0.181624
v -0.187500 1.437383 -0.120490
v -0.187500 1.248634 -0.224506
v -0.187500 1.235640 -0.163371
v -0.186577 1.562018 -0.061586
v -0.185083 1.576234 -0.128834
v -0.061397 1.151319 -0.145624
v -0.059903 1.165534 -0.212871
v -0.322788 1.536602 -0.140271
v -0.324282 1.522386 -0.073024
v -0.197608 1.125903 -0.224309
v -0.199102 1.111687 -0.157061
v -0.194001 1.548971 0.073011
v -0.209932 1.608028 0.060175
v -0.169288 1.515885 -0.109885
v -0.185219 1.574941 -0.122721
v -0.347637 1.568396 0.048738
v -0.331706 1.509339 0.061574
v -0.322924 1.535310 -0.134158
v -0.306993 1.476253 -0.121322
v 0.256250 1.312500 -0.187500
v 0.256250 1.312500 -0.262500
v 0.250000 1.312500 -0.187500
v 0.250000 1.312500 -0.262500
v 0.256250 1.375000 -0.262500
v 0.256250 1.375000 -0.187500
v 0.250000 1.375000 -0.262500
v 0.250000 1.375000 -0.187500
v -0.210316 1.586431 0.161084
v -0.204878 1.582071 0.098974
v -0.126080 1.293324 0.189036
v -0.120642 1.288964 0.126926
v -0.342516 1.541637 0.089760
v -0.347954 1.545997 0.151870
v -0.258280 1.248529 0.117712
v -0.263718 1.252890 0.179822
v 0.265625 1.437500 0.200000
v 0.265625 1.437500 0.106250
v 0.265625 0.750000 0.200000
v 0.265625 0.750000 0.106250
v -0.265625 1.437500 0.106250
v -0.265625 1.437500 0.200000
v -0.265625 0.750000 0.106250
v -0.265625 0.750000 0.200000
v -0.172363 1.529739 -0.042326
v -0.189886 1.594702 -0.056445
v -0.161654 1.515402 -0.121580
v -0.179177 1.580364 -0.135700
v -0.339565 1.551624 -0.068877
v -0.322042 1.486661 -0.054758
v -0.328856 1.537287 -0.148132
v -0.311333 1.472324 -0.134012
v -0.188838 1.551797 0.079605
v -0.206362 1.616759 0.065485
v -0.178129 1.537459 0.000350
v -0.195653 1.602422 -0.013770
v -0.356041 1.573681 0.053053
v -0.338517 1.508719 0.067173
v -0.345332 1.559344 -0.026202
v -0.327808 1.494382 -0.012082
v -0.250000 1.062500 0.150000
v -0.250000 1.062500 -0.162500
v -0.250000 0.812500 0.150000
v -0.250000 0.812500 -0.162500
v -0.312500 1.062500 -0.162500
v -0.312500 1.062500 0.150000
v -0.312500 0.812500 -0.162500
v -0.312500 0.812500 0.150000
v 0.312500 1.062500 0.150000
v 0.312500 1.062500 -0.162500
v 0.312500 0.812500 0.150000
v 0.312500 0.812500 -0.162500
v 0.250000 1.062500 -0.162500
v 0.250000 1.062500 0.150000
v 0.250000 0.812500 -0.162500
v 0.250000 0.812500 0.150000
v 0.324282 1.522386 -0.073024
v 0.322788 1.536602 -0.140271
v 0.199102 1.111687 -0.157061
v 0.197608 1.125903 -0.224309
v 0.185083 1.576234 -0.128834
v 0.186577 1.562018 -0.061586
v 0.059903 1.165534 -0.212871
v 0.061397 1.151319 -0.145624
v 0.322042 1.486661 -0.054758
v 0.339565 1.551624 -0.068877
v 0.311333 1.472324 -0.134012
v 0.328856 1.537287 -0.148132
v 0.189886 1.594702 -0.056445
v 0.172363 1.529739 -0.042326
v 0.179177 1.580364 -0.135700
v 0.161654 1.515402 -0.121580
v 0.331706 1.509339 0.061574
v 0.347637 1.568396 0.048738
v 0.306993 1.476253 -0.121322
v 0.322924 1.535310 -0.134158
v 0.209932 1.608028 0.060175
v 0.194001 1.548971 0.073011
v 0.185219 1.574941 -0.122721
v 0.169288 1.515885 -0.109885
v 0.338517 1.508719 0.067173
v 0.356041 1.573681 0.053053
v 0.327808 1.494382 -0.012082
v 0.345332 1.559344 -0.026202
v 0.206362 1.616759 0.065485
v 0.188838 1.551797 0.079605
v 0.195653 1.602422 -0.013770
v 0.178129 1.537459 0.000350
v 0.347657 1.568640 0.048061
v 0.329627 1.510161 0.035357
v 0.347954 1.545997 0.151870
v 0.329924 1.487518 0.139166
v 0.191989 1.550596 0.044571
v 0.210019 1.609075 0.057275
v 0.192286 1.527953 0.148380
v 0.210316 1.586431 0.161084
v 0.347954 1.545997 0.151870
v 0.342516 1.541637 0.089760
v 0.263718 1.252890 0.179822
v 0.258280 1.248529 0.117712
v 0.204878 1.582071 0.098974
v 0.210316 1.586431 0.161084
v 0.120642 1.288964 0.126926
v 0.126080 1.293324 0.189036
v 0.257121 0.955680 -0.324800
v 0.239867 1.094135 -0.290209
v 0.264719 0.960720 -0.341184
v 0.247464 1.099175 -0.306593
v 0.120914 1.093167 -0.345670
v 0.138168 0.954712 -0.380260
v 0.128512 1.098207 -0.362053
v 0.145766 0.959752 -0.396644
v 0.198339 1.091538 -0.171512
v 0.258859 1.101799 -0.301497
v 0.199030 1.072836 -0.172667
v 0.259550 1.083098 -0.302652
v 0.117249 1.100647 -0.367521
v 0.056728 1.090385 -0.237536
v 0.117939 1.081945 -0.368676
v 0.057419 1.071684 -0.238691
v 0.086803 1.087265 -0.222499
v 0.086803 1.085084 -0.347480
v 0.086803 0.774813 -0.217045
v 0.086803 0.772631 -0.342026
v -0.069447 1.085084 -0.347480
v -0.069447 1.087265 -0.222499
v -0.069447 0.772631 -0.342026
v -0.069447 0.774813 -0.217045
v -0.061677 1.087223 -0.224924
v -0.094030 1.085116 -0.345647
v -0.061677 0.774770 -0.219470
v -0.094030 0.772663 -0.340193
v -0.238918 1.085793 -0.306830
v -0.206566 1.087901 -0.186107
v -0.238918 0.773341 -0.301376
v -0.206566 0.775448 -0.180654
v 0.209335 1.087991 -0.180897
v 0.257170 1.085976 -0.296365
v 0.209335 0.775539 -0.175443
v 0.257170 0.773524 -0.290911
v 0.118588 1.084974 -0.353758
v 0.070753 1.086990 -0.238291
v 0.118588 0.772522 -0.348304
v 0.070753 0.774537 -0.232837
v 0.086803 1.106012 -0.222826
v 0.086803 1.103504 -0.366554
v 0.086803 1.087265 -0.222499
v 0.086803 1.084756 -0.366227
v -0.069447 1.103504 -0.366554
v -0.069447 1.106012 -0.222826
v -0.069447 1.084756 -0.366227
v -0.069447 1.087265 -0.222499
v 0.074303 0.956239 -0.373894
v 0.074303 1.097582 -0.347698
v 0.074303 0.959656 -0.392330
v 0.074303 1.100999 -0.366134
v -0.056947 1.097582 -0.347698
v -0.056947 0.956239 -0.373894
v -0.056947 1.100999 -0.366134
v -0.056947 0.959656 -0.392330
v -0.094447 0.948605 -0.369102
v -0.094447 1.091125 -0.350339
v -0.094447 0.951052 -0.387691
v -0.094447 1.093573 -0.368928
v -0.225697 1.091125 -0.350339
v -0.225697 0.948605 -0.369102
v -0.225697 1.093573 -0.368928
v -0.225697 0.951052 -0.387691
v -0.081947 1.106012 -0.222826
v -0.081947 1.103504 -0.366554
v -0.081947 1.087265 -0.222499
v -0.081947 1.084756 -0.366227
v -0.238197 1.103504 -0.366554
v -0.238197 1.106012 -0.222826
v -0.238197 1.084756 -0.366227
v -0.238197 1.087265 -0.222499
v 0.125000 0.612500 -0.225000
v 0.125000 0.612500 -0.281250
v 0.125000 0.550000 -0.225000
v 0.125000 0.550000 -0.281250
v -0.125000 0.612500 -0.281250
v -0.125000 0.612500 -0.225000
v -0.125000 0.550000 -0.281250
v -0.125000 0.550000 -0.225000
v -0.081694 0.595083 -0.225000
v -0.081694 0.595083 -0.281250
v -0.125888 0.550888 -0.225000
v -0.125888 0.550888 -0.281250
v -0.125888 0.639277 -0.281250
v -0.125888 0.639277 -0.225000
v -0.170083 0.595083 -0.281250
v -0.170083 0.595083 -0.225000
v 0.168306 0.595083 -0.225000
v 0.168306 0.595083 -0.281250
v 0.124112 0.550888 -0.225000
v 0.124112 0.550888 -0.281250
v 0.124112 0.639277 -0.281250
v 0.124112 0.639277 -0.225000
v 0.079917 0.595083 -0.281250
v 0.079917 0.595083 -0.225000
v 0.167417 0.782583 -0.225000
v 0.167417 0.782583 -0.287500
v 0.167417 0.595083 -0.225000
v 0.167417 0.595083 -0.287500
v -0.170083 0.782583 -0.287500
v -0.170083 0.782583 -0.225000
v -0.170083 0.595083 -0.287500
v -0.170083 0.595083 -0.225000
v 0.250000 1.375000 -0.187500
v 0.250000 1.375000 -0.250000
v 0.250000 1.312500 -0.187500
v 0.250000 1.312500 -0.250000
v 0.187500 1.375000 -0.250000
v 0.187500 1.375000 -0.187500
v 0.187500 1.312500 -0.250000
v 0.187500 1.312500 -0.187500
v 0.250000 1.381250 -0.187500
v 0.250000 1.381250 -0.262500
v 0.250000 1.375000 -0.187500
v 0.250000 1.375000 -0.262500
v 0.187500 1.381250 -0.262500
v 0.187500 1.381250 -0.187500
v 0.187500 1.375000 -0.262500
v 0.187500 1.375000 -0.187500
v 0.187500 1.312500 -0.187500
v 0.187500 1.312500 -0.262500
v 0.181250 1.312500 -0.187500
v 0.181250 1.312500 -0.262500
v 0.187500 1.375000 -0.262500
v 0.187500 1.375000 -0.187500
v 0.181250 1.375000 -0.262500
v 0.181250 1.375000 -0.187500
v 0.218750 1.312500 -0.192234
v 0.245266 1.312500 -0.218750
v 0.218750 1.168750 -0.192234
v 0.245266 1.168750 -0.218750
v 0.218750 1.312500 -0.245267
v 0.192234 1.312500 -0.218750
v 0.218750 1.168750 -0.245267
v 0.192234 1.168750 -0.218750
v 0.218750 1.187500 -0.183395
v 0.254105 1.187500 -0.218750
v 0.218750 1.106250 -0.183395
v 0.254105 1.106250 -0.218750
v 0.218750 1.187500 -0.254105
v 0.183395 1.187500 -0.218750
v 0.218750 1.106250 -0.254105
v 0.183395 1.106250 -0.218750
v 0.250000 1.312500 -0.187500
v 0.250000 1.312500 -0.262500
v 0.250000 1.306250 -0.187500
v 0.250000 1.306250 -0.262500
v 0.187500 1.312500 -0.262500
v 0.187500 1.312500 -0.187500
v 0.187500 1.306250 -0.262500
v 0.187500 1.306250 -0.187500
vn -0.0498 0.3015 -0.9522
vn 0.9498 0.3092 0.0483
vn 0.0498 -0.3015 0.9522
vn -0.9498 -0.3092 -0.0483
vn -0.9498 -0.3093 -0.0483
vn -0.3090 0.9020 0.3014
vn -0.3090 0.9019 0.3017
vn 0.3090 -0.9019 -0.3018
vn -0.0000 -0.1908 -0.9816
vn 1.0000 -0.0000 -0.0000
vn -0.0000 0.1908 0.9816
vn -1.0000 -0.0000 -0.0000
vn -0.0000 0.9816 -0.1908
vn -0.0000 -0.9816 0.1908
vn 0.2885 -0.9357 -0.2033
vn 0.9575 0.2813 0.0641
vn -0.2885 0.9357 0.2033
vn -0.9575 -0.2813 -0.0641
vn 0.0028 0.2131 -0.9770
vn -0.0028 -0.2131 0.9770
vn -0.0000 -0.0000 -1.0000
vn -0.0000 -0.0000 1.0000
vn -0.0000 1.0000 -0.0000
vn -0.0000 -1.0000 -0.0000
vn -0.0000 0.2079 -0.9781
vn -0.0000 -0.2079 0.9781
vn -0.0000 0.9781 0.2079
vn -0.0000 -0.9782 -0.2079
vn -0.0000 -0.9781 -0.2079
vn 0.0217 0.2068 -0.9781
vn 0.9579 0.2757 0.0796
vn -0.0217 -0.2068 0.9781
vn -0.9579 -0.2757 -0.0796
vn -0.2861 0.9387 0.1921
vn 0.2861 -0.9387 -0.1921
vn -0.2549 0.9449 -0.2054
vn 0.2549 -0.9449 0.2054
vn -0.1318 0.1765 0.9754
vn 0.1318 -0.1765 -0.9754
vn 0.0870 -0.0698 -0.9938
vn -0.0870 0.0698 0.9938
vn -0.2751 0.9571 -0.0913
vn 0.2751 -0.9571 0.0913
vn -0.0217 0.2068 -0.9781
vn 0.9579 -0.2757 -0.0796
vn 0.0217 -0.2068 0.9781
vn -0.9579 0.2757 0.0796
vn 0.2861 0.9387 0.1921
vn -0.2861 -0.9387 -0.1921
vn 0.2549 0.9449 -0.2054
vn -0.2549 -0.9449 0.2054
vn 0.1318 0.1765 0.9754
vn -0.1318 -0.1765 -0.9754
vn -0.2885 -0.9357 -0.2033
vn 0.9575 -0.2813 -0.0641
vn 0.2885 0.9357 0.2033
vn -0.9575 0.2813 0.0641
vn -0.0028 0.2131 -0.9770
vn 0.0028 -0.2131 0.9770
vn -0.0870 -0.0698 -0.9938
vn 0.0870 0.0698 0.9938
vn 0.2751 0.9571 -0.0913
vn -0.2751 -0.9571 0.0913
vn -0.1200 0.9632 0.2406
vn 0.9063 0.0074 0.4225
vn 0.9063 0.0074 0.4226
vn 0.1200 -0.9632 -0.2406
vn -0.9063 -0.0074 -0.4226
vn -0.4052 -0.2688 0.8738
vn 0.4052 0.2688 -0.8738
vn 0.4210 0.0714 -0.9042
vn -0.4210 -0.0714 0.9042
vn -0.9063 -0.0073 -0.4226
vn -0.0368 0.9974 0.0616
vn 0.0368 -0.9974 -0.0616
vn -0.0000 -0.0175 -0.9998
vn -0.0000 0.0175 0.9998
vn -0.0000 0.9998 -0.0174
vn -0.0000 -0.9998 0.0175
vn -0.2588 -0.0169 -0.9658
vn 0.9659 -0.0045 -0.2588
vn 0.2588 0.0169 0.9658
vn -0.9659 0.0045 0.2588
vn -0.0000 0.9998 -0.0175
vn 0.3827 -0.0161 -0.9237
vn 0.9239 0.0067 0.3826
vn -0.3827 0.0161 0.9237
vn -0.9239 -0.0067 -0.3826
vn -0.0000 -0.9998 0.0174
vn -0.0000 -0.0174 -0.9998
vn -0.0000 0.0174 0.9998
vn -0.0000 0.9833 0.1822
vn -0.0000 -0.9833 -0.1822
vn -0.0000 -0.1822 0.9833
vn -0.0000 0.1822 -0.9833
vn -0.0000 0.9914 0.1306
vn -0.0000 -0.9914 -0.1305
vn -0.0000 -0.1305 0.9914
vn -0.0000 0.1305 -0.9914
vn 0.7071 -0.7071 -0.0000
vn -0.7071 0.7071 -0.0000
vn 0.7071 0.7071 -0.0000
vn -0.7071 -0.7071 -0.0000
vn 0.7071 -0.0000 -0.7071
vn 0.7071 -0.0000 0.7071
vn -0.7071 -0.0000 0.7071
vn -0.7071 -0.0000 -0.7071
vn -0.3090 0.9020 0.3016
vt 0.462891 0.406250
vt 0.437500 0.437500
vt 0.437500 0.406250
vt 0.642578 0.875000
vt 0.640625 0.906250
vt 0.640625 0.875000
vt 0.603516 0.828125
vt 0.578125 0.859375
vt 0.578125 0.828125
vt 0.109375 0.328125
vt 0.111328 0.359375
vt 0.109375 0.359375
vt 0.125000 0.359375
vt 0.150391 0.357422
vt 0.150391 0.359375
vt 0.640625 0.873047
vt 0.666016 0.875000
vt 0.666016 0.873047
vt 0.484375 0.750000
vt 0.390625 0.781250
vt 0.390625 0.750000
vt 0.546875 0.859375
vt 0.578125 0.890625
vt 0.546875 0.890625
vt 0.484375 0.718750
vt 0.390625 0.718750
vt 0.546875 0.828125
vt 0.484375 0.687500
vt 0.390625 0.656250
vt 0.484375 0.656250
vt 0.520508 0.593750
vt 0.500000 0.656250
vt 0.500000 0.593750
vt 0.500000 0.531250
vt 0.458008 0.437500
vt 0.437500 0.500000
vt 0.520508 0.468750
vt 0.500000 0.468750
vt 0.468750 0.406250
vt 0.489258 0.385742
vt 0.489258 0.406250
vt 0.046875 0.370117
vt 0.067383 0.390625
vt 0.067383 0.370117
vt 0.208008 0.426758
vt 0.171875 0.453125
vt 0.171875 0.426758
vt 0.187500 0.536133
vt 0.171875 0.562500
vt 0.171875 0.536133
vt 0.583008 0.504883
vt 0.546875 0.531250
vt 0.546875 0.504883
vt 0.500000 0.879883
vt 0.484375 0.906250
vt 0.484375 0.879883
vt 0.593750 0.750000
vt 0.629883 0.734375
vt 0.629883 0.750000
vt 0.593750 0.515625
vt 0.629883 0.531250
vt 0.629883 0.515625
vt 0.125000 0.703125
vt 0.000000 0.828125
vt 0.000000 0.703125
vt 0.390625 0.875000
vt 0.359375 1.000000
vt 0.359375 0.875000
vt 0.250000 0.703125
vt 0.125000 0.828125
vt 0.125000 0.515625
vt 0.093750 0.640625
vt 0.093750 0.515625
vt 0.375000 0.875000
vt 0.500000 0.843750
vt 0.500000 0.875000
vt 0.375000 0.812500
vt 0.500000 0.812500
vt 0.093750 0.651367
vt 0.000000 0.651367
vt 0.234375 0.401367
vt 0.218750 0.453125
vt 0.218750 0.401367
vt 0.187500 0.651367
vt 0.093750 0.703125
vt 0.343750 0.401367
vt 0.359375 0.453125
vt 0.343750 0.453125
vt 0.390625 0.890625
vt 0.484375 0.875000
vt 0.484375 0.890625
vt 0.578125 0.921875
vt 0.578125 0.906250
vt 0.286133 0.593750
vt 0.250000 0.593750
vt 0.392578 0.421875
vt 0.375000 0.531250
vt 0.375000 0.421875
vt 0.296875 0.593750
vt 0.333008 0.703125
vt 0.296875 0.703125
vt 0.423828 0.421875
vt 0.406250 0.531250
vt 0.406250 0.421875
vt 0.500000 0.421875
vt 0.536133 0.404297
vt 0.536133 0.421875
vt 0.125000 0.388672
vt 0.161133 0.406250
vt 0.161133 0.388672
vt 0.281250 0.828125
vt 0.317383 0.875000
vt 0.281250 0.875000
vt 0.375000 0.406250
vt 0.359375 0.406250
vt 0.067383 0.468750
vt 0.031250 0.515625
vt 0.031250 0.468750
vt 0.328125 0.390625
vt 0.343750 0.437500
vt 0.328125 0.437500
vt 0.562500 0.468750
vt 0.598633 0.453125
vt 0.598633 0.468750
vt 0.614258 0.531250
vt 0.578125 0.546875
vt 0.614258 0.546875
vt 0.296875 0.357422
vt 0.281250 0.359375
vt 0.281250 0.357422
vt 0.659180 0.794922
vt 0.640625 0.796875
vt 0.640625 0.794922
vt 0.312500 0.357422
vt 0.296875 0.359375
vt 0.237305 0.357422
vt 0.218750 0.359375
vt 0.218750 0.357422
vt 0.609375 0.390625
vt 0.625000 0.372070
vt 0.625000 0.390625
vt 0.000000 0.356445
vt 0.015625 0.375000
vt 0.015625 0.356445
vt 0.286133 0.517578
vt 0.250000 0.517578
vt 0.156250 0.408203
vt 0.171875 0.484375
vt 0.156250 0.484375
vt 0.333008 0.517578
vt 0.296875 0.517578
vt 0.281250 0.392578
vt 0.296875 0.468750
vt 0.281250 0.468750
vt 0.629883 0.500000
vt 0.593750 0.484375
vt 0.629883 0.484375
vt 0.132812 0.828125
vt 0.000000 1.000000
vt 0.210938 0.531250
vt 0.187500 0.703125
vt 0.187500 0.531250
vt 0.273438 0.828125
vt 0.140625 1.000000
vt 0.140625 0.828125
vt 0.242188 0.531250
vt 0.218750 0.703125
vt 0.218750 0.531250
vt 0.507812 0.789062
vt 0.507812 0.812500
vt 0.390625 0.976562
vt 0.523438 1.000000
vt 0.523438 0.976562
vt 0.601562 0.791992
vt 0.562500 0.812500
vt 0.562500 0.791992
vt 0.093750 0.370117
vt 0.111328 0.390625
vt 0.093750 0.390625
vt 0.546875 0.416992
vt 0.585938 0.437500
vt 0.546875 0.437500
vt 0.609375 0.838867
vt 0.626953 0.859375
vt 0.609375 0.859375
vt 0.234375 0.421875
vt 0.273438 0.404297
vt 0.273438 0.421875
vt 0.617188 0.716797
vt 0.578125 0.734375
vt 0.617188 0.734375
vt 0.617188 0.979492
vt 0.578125 1.000000
vt 0.578125 0.979492
vt 0.609375 0.807617
vt 0.626953 0.828125
vt 0.609375 0.828125
vt 0.070312 0.401367
vt 0.031250 0.421875
vt 0.031250 0.401367
vt 0.236328 0.370117
vt 0.218750 0.390625
vt 0.218750 0.370117
vt 0.617188 0.703125
vt 0.578125 0.685547
vt 0.617188 0.685547
vt 0.578125 0.654297
vt 0.617188 0.671875
vt 0.617188 0.654297
vt 0.343750 0.703125
vt 0.328125 0.765625
vt 0.328125 0.703125
vt 0.250000 0.828125
vt 0.250000 0.765625
vt 0.484375 0.406250
vt 0.468750 0.468750
vt 0.171875 0.640625
vt 0.187500 0.562500
vt 0.187500 0.640625
vt 0.343750 0.515625
vt 0.546875 0.468750
vt 0.531250 0.531250
vt 0.531250 0.468750
vt 0.359375 0.937500
vt 0.281250 1.000000
vt 0.281250 0.937500
vt 0.500000 0.406250
vt 0.484375 0.468750
vt 0.125000 0.484375
vt 0.140625 0.406250
vt 0.140625 0.484375
vt 0.156250 0.406250
vt 0.364258 0.765625
vt 0.328125 0.875000
vt 0.486328 0.578125
vt 0.468750 0.578125
vt 0.379883 0.656250
vt 0.343750 0.765625
vt 0.343750 0.656250
vt 0.000000 0.406250
vt 0.017578 0.515625
vt 0.000000 0.515625
vt 0.629883 0.781250
vt 0.593750 0.763672
vt 0.629883 0.763672
vt 0.421875 0.388672
vt 0.458008 0.406250
vt 0.458008 0.388672
vt 0.617188 0.948242
vt 0.578125 0.968750
vt 0.578125 0.948242
vt 0.267578 0.370117
vt 0.250000 0.390625
vt 0.250000 0.370117
vt 0.617188 0.916992
vt 0.578125 0.937500
vt 0.578125 0.916992
vt 0.298828 0.370117
vt 0.281250 0.390625
vt 0.281250 0.370117
vt 0.578125 0.640625
vt 0.617188 0.623047
vt 0.617188 0.640625
vt 0.375000 0.404297
vt 0.414062 0.421875
vt 0.414062 0.404297
vt 0.520508 0.921875
vt 0.484375 0.968750
vt 0.484375 0.921875
vt 0.187500 0.375000
vt 0.171875 0.421875
vt 0.171875 0.375000
vt 0.114258 0.468750
vt 0.078125 0.515625
vt 0.078125 0.468750
vt 0.203125 0.375000
vt 0.187500 0.421875
vt 0.593750 0.468750
vt 0.629883 0.468750
vt 0.546875 0.390625
vt 0.583008 0.406250
vt 0.583008 0.390625
vt 0.078125 0.401367
vt 0.117188 0.421875
vt 0.078125 0.421875
vt 0.330078 0.370117
vt 0.312500 0.390625
vt 0.312500 0.370117
vt 0.617188 0.870117
vt 0.578125 0.870117
vt 0.392578 0.370117
vt 0.375000 0.390625
vt 0.375000 0.370117
vt 0.578125 0.609375
vt 0.617188 0.591797
vt 0.617188 0.609375
vt 0.578125 0.560547
vt 0.617188 0.578125
vt 0.617188 0.560547
vt 0.500000 0.426758
vt 0.536133 0.453125
vt 0.500000 0.453125
vt 0.359375 0.379883
vt 0.546875 0.473633
vt 0.583008 0.500000
vt 0.546875 0.500000
vt 0.078125 0.364258
vt 0.078125 0.390625
vt 0.629883 0.437500
vt 0.593750 0.421875
vt 0.629883 0.421875
vt 0.593750 0.406250
vt 0.629883 0.406250
vt 0.473633 0.892578
vt 0.437500 0.968750
vt 0.437500 0.892578
vt 0.312500 0.392578
vt 0.296875 0.392578
vt 0.125000 0.486328
vt 0.161133 0.562500
vt 0.125000 0.562500
vt 0.328125 0.392578
vt 0.312500 0.468750
vt 0.629883 0.390625
vt 0.036133 0.375000
vt 0.000000 0.390625
vt 0.036133 0.390625
vt 0.080078 0.354492
vt 0.046875 0.359375
vt 0.046875 0.354492
vt 0.661133 0.573242
vt 0.625000 0.578125
vt 0.625000 0.573242
vt 0.640625 0.948242
vt 0.673828 0.953125
vt 0.640625 0.953125
vt 0.661133 0.557617
vt 0.625000 0.562500
vt 0.625000 0.557617
vt 0.111328 0.468750
vt 0.078125 0.432617
vt 0.111328 0.432617
vt 0.531250 0.745117
vt 0.564453 0.781250
vt 0.564453 0.745117
vt 0.664062 0.682617
vt 0.625000 0.687500
vt 0.625000 0.682617
vt 0.661133 0.541992
vt 0.625000 0.546875
vt 0.625000 0.541992
vt 0.664062 0.666992
vt 0.625000 0.671875
vt 0.625000 0.666992
vt 0.625000 0.463867
vt 0.661133 0.468750
vt 0.625000 0.468750
vt 0.484375 0.734375
vt 0.523438 0.698242
vt 0.523438 0.734375
vt 0.281250 0.479492
vt 0.320312 0.515625
vt 0.320312 0.479492
vt 0.164062 0.562500
vt 0.125000 0.640625
vt 0.437500 0.656250
vt 0.437500 0.578125
vt 0.429688 0.890625
vt 0.390625 0.968750
vt 0.468750 0.500000
vt 0.515625 0.812500
vt 0.554688 0.781250
vt 0.554688 0.812500
vt 0.531250 0.968750
vt 0.570312 1.000000
vt 0.570312 0.968750
vt 0.380859 0.531250
vt 0.343750 0.609375
vt 0.343750 0.531250
vt 0.203125 0.531250
vt 0.171875 0.531250
vt 0.390625 0.531250
vt 0.427734 0.609375
vt 0.390625 0.609375
vt 0.234375 0.453125
vt 0.203125 0.453125
vt 0.531250 0.656250
vt 0.568359 0.625000
vt 0.568359 0.656250
vt 0.531250 0.593750
vt 0.568359 0.593750
vt 0.037109 0.593750
vt 0.000000 0.593750
vt 0.375000 0.453125
vt 0.083984 0.515625
vt 0.046875 0.593750
vt 0.046875 0.515625
vt 0.500000 0.578125
vt 0.468750 0.656250
vt 0.531250 0.562500
vt 0.568359 0.562500
vt 0.568359 0.531250
vt 0.664062 0.713867
vt 0.625000 0.718750
vt 0.625000 0.713867
vt 0.661133 0.620117
vt 0.625000 0.625000
vt 0.625000 0.620117
vt 0.664062 0.698242
vt 0.625000 0.703125
vt 0.625000 0.698242
vt 0.661133 0.604492
vt 0.625000 0.609375
vt 0.625000 0.604492
vt 0.484375 0.781250
vt 0.523438 0.745117
vt 0.523438 0.781250
vt 0.234375 0.479492
vt 0.273438 0.515625
vt 0.273438 0.479492
vt 0.673828 0.979492
vt 0.640625 0.984375
vt 0.640625 0.979492
vt 0.625000 0.588867
vt 0.661133 0.593750
vt 0.625000 0.593750
vt 0.673828 0.963867
vt 0.640625 0.968750
vt 0.640625 0.963867
vt 0.458008 0.370117
vt 0.421875 0.375000
vt 0.421875 0.370117
vt 0.064453 0.432617
vt 0.064453 0.468750
vt 0.531250 0.932617
vt 0.564453 0.968750
vt 0.564453 0.932617
vt 0.673828 0.932617
vt 0.640625 0.937500
vt 0.640625 0.932617
vt 0.661133 0.448242
vt 0.625000 0.453125
vt 0.625000 0.448242
vt 0.673828 0.916992
vt 0.640625 0.921875
vt 0.640625 0.916992
vt 0.661133 0.385742
vt 0.625000 0.385742
vt 0.234375 0.468750
vt 0.267578 0.432617
vt 0.267578 0.468750
vt 0.531250 0.698242
vt 0.564453 0.734375
vt 0.564453 0.698242
vt 0.664062 0.651367
vt 0.625000 0.656250
vt 0.625000 0.651367
vt 0.661133 0.370117
vt 0.625000 0.375000
vt 0.625000 0.370117
vt 0.664062 0.635742
vt 0.625000 0.640625
vt 0.625000 0.635742
vt 0.676758 0.995117
vt 0.640625 1.000000
vt 0.640625 0.995117
vt 0.500000 0.906250
vt 0.539062 0.870117
vt 0.539062 0.906250
vt 0.500000 0.823242
vt 0.539062 0.859375
vt 0.539062 0.823242
vt 0.562500 0.453125
vt 0.638672 0.875000
vt 0.625000 0.890625
vt 0.625000 0.875000
vt 0.609375 0.890625
vt 0.546875 0.906250
vt 0.138672 0.359375
vt 0.125000 0.375000
vt 0.609375 0.814453
vt 0.546875 0.439453
vt 0.609375 0.453125
vt 0.609375 0.439453
vt 0.375000 0.765625
vt 0.375000 0.781250
vt 0.638672 0.859375
vt 0.625000 0.859375
vt 0.250000 0.515625
vt 0.234375 0.531250
vt 0.234375 0.515625
vt 0.154297 0.359375
vt 0.140625 0.375000
vt 0.140625 0.359375
vt 0.156250 0.375000
vt 0.171875 0.361328
vt 0.187500 0.361328
vt 0.421875 0.406250
vt 0.437500 0.421875
vt 0.421875 0.421875
vt 0.201172 0.359375
vt 0.187500 0.359375
vt 0.015625 0.390625
vt 0.216797 0.359375
vt 0.203125 0.359375
vt 0.625000 0.796875
vt 0.640625 0.783203
vt 0.625000 0.720703
vt 0.640625 0.734375
vt 0.640625 0.720703
vt 0.218750 0.375000
vt 0.203125 0.421875
vt 0.083984 0.593750
vt 0.000000 0.640625
vt 0.593750 0.734375
vt 0.578125 0.781250
vt 0.568359 0.671875
vt 0.568359 0.687500
vt 0.031250 0.390625
vt 0.015625 0.406250
vt 0.609375 0.906250
vt 0.625000 0.781250
vt 0.609375 0.796875
vt 0.609375 0.781250
vt 0.625000 0.937500
vt 0.625000 0.921875
vt 0.640625 0.890625
vt 0.656250 0.779297
vt 0.640625 0.781250
vt 0.640625 0.779297
vt 0.659180 0.857422
vt 0.640625 0.859375
vt 0.640625 0.857422
vt 0.656250 0.763672
vt 0.640625 0.765625
vt 0.640625 0.763672
vt 0.174805 0.357422
vt 0.156250 0.359375
vt 0.156250 0.357422
vt 0.531250 0.390625
vt 0.546875 0.372070
vt 0.609375 0.450195
vt 0.625000 0.450195
vt 0.265625 0.357422
vt 0.250000 0.359375
vt 0.250000 0.357422
vt 0.659180 0.841797
vt 0.640625 0.843750
vt 0.640625 0.841797
vt 0.656250 0.748047
vt 0.640625 0.750000
vt 0.640625 0.748047
vt 0.659180 0.826172
vt 0.640625 0.828125
vt 0.640625 0.826172
vt 0.562500 0.372070
vt 0.562500 0.390625
vt 0.578125 0.390625
vt 0.578125 0.372070
vt 0.353516 0.354492
vt 0.343750 0.390625
vt 0.343750 0.354492
vt 0.416016 0.354492
vt 0.406250 0.390625
vt 0.406250 0.354492
vt 0.509766 0.354492
vt 0.500000 0.390625
vt 0.500000 0.354492
vt 0.525391 0.354492
vt 0.515625 0.390625
vt 0.515625 0.354492
vt 0.484375 0.375000
vt 0.494141 0.365234
vt 0.494141 0.375000
vt 0.093750 0.349609
vt 0.103516 0.359375
vt 0.103516 0.349609
vt 0.637695 0.979492
vt 0.625000 1.000000
vt 0.625000 0.979492
vt 0.028320 0.354492
vt 0.015625 0.354492
vt 0.043945 0.354492
vt 0.031250 0.375000
vt 0.031250 0.354492
vt 0.637695 0.948242
vt 0.625000 0.968750
vt 0.625000 0.948242
vt 0.359375 0.375000
vt 0.372070 0.362305
vt 0.372070 0.375000
vt 0.468750 0.362305
vt 0.481445 0.375000
vt 0.481445 0.362305
vt 0.265625 0.359375
vt 0.206055 0.357422
vt 0.187500 0.357422
vt 0.656250 0.732422
vt 0.640625 0.732422
vt 0.659180 0.810547
vt 0.640625 0.812500
vt 0.640625 0.810547
vt 0.593750 0.372070
vt 0.593750 0.390625
vt 0.609375 0.372070
vt 0.462891 0.437500
vt 0.642578 0.906250
vt 0.603516 0.859375
vt 0.111328 0.328125
vt 0.125000 0.357422
vt 0.390625 0.687500
vt 0.520508 0.656250
vt 0.520508 0.531250
vt 0.458008 0.500000
vt 0.468750 0.385742
vt 0.046875 0.390625
vt 0.208008 0.453125
vt 0.583008 0.531250
vt 0.593750 0.531250
vt 0.390625 1.000000
vt 0.375000 0.843750
vt 0.359375 0.401367
vt 0.286133 0.703125
vt 0.392578 0.531250
vt 0.333008 0.593750
vt 0.423828 0.531250
vt 0.500000 0.404297
vt 0.125000 0.406250
vt 0.317383 0.828125
vt 0.067383 0.515625
vt 0.578125 0.531250
vt 0.659180 0.796875
vt 0.312500 0.359375
vt 0.237305 0.359375
vt 0.000000 0.375000
vt 0.171875 0.408203
vt 0.593750 0.500000
vt 0.132812 1.000000
vt 0.210938 0.703125
vt 0.273438 1.000000
vt 0.242188 0.703125
vt 0.375000 0.789062
vt 0.601562 0.812500
vt 0.111328 0.370117
vt 0.585938 0.416992
vt 0.626953 0.838867
vt 0.234375 0.404297
vt 0.578125 0.716797
vt 0.617188 1.000000
vt 0.626953 0.807617
vt 0.070312 0.421875
vt 0.236328 0.390625
vt 0.578125 0.703125
vt 0.578125 0.671875
vt 0.328125 0.828125
vt 0.328125 0.515625
vt 0.364258 0.875000
vt 0.486328 0.468750
vt 0.379883 0.765625
vt 0.017578 0.406250
vt 0.593750 0.781250
vt 0.617188 0.968750
vt 0.267578 0.390625
vt 0.617188 0.937500
vt 0.298828 0.390625
vt 0.578125 0.623047
vt 0.520508 0.968750
vt 0.114258 0.515625
vt 0.546875 0.406250
vt 0.117188 0.401367
vt 0.330078 0.390625
vt 0.617188 0.890625
vt 0.392578 0.390625
vt 0.578125 0.591797
vt 0.578125 0.578125
vt 0.536133 0.426758
vt 0.375000 0.379883
vt 0.583008 0.473633
vt 0.093750 0.364258
vt 0.593750 0.437500
vt 0.473633 0.968750
vt 0.161133 0.486328
vt 0.328125 0.468750
vt 0.080078 0.359375
vt 0.661133 0.578125
vt 0.673828 0.948242
vt 0.661133 0.562500
vt 0.531250 0.781250
vt 0.664062 0.687500
vt 0.661133 0.546875
vt 0.664062 0.671875
vt 0.661133 0.463867
vt 0.484375 0.698242
vt 0.281250 0.515625
vt 0.164062 0.640625
vt 0.429688 0.968750
vt 0.515625 0.781250
vt 0.531250 1.000000
vt 0.380859 0.609375
vt 0.427734 0.531250
vt 0.531250 0.625000
vt 0.037109 0.515625
vt 0.664062 0.718750
vt 0.661133 0.625000
vt 0.664062 0.703125
vt 0.661133 0.609375
vt 0.484375 0.745117
vt 0.673828 0.984375
vt 0.661133 0.588867
vt 0.673828 0.968750
vt 0.458008 0.375000
vt 0.031250 0.432617
vt 0.673828 0.937500
vt 0.661133 0.453125
vt 0.673828 0.921875
vt 0.661133 0.390625
vt 0.234375 0.432617
vt 0.531250 0.734375
vt 0.664062 0.656250
vt 0.661133 0.375000
vt 0.664062 0.640625
vt 0.676758 1.000000
vt 0.500000 0.870117
vt 0.500000 0.859375
vt 0.638672 0.890625
vt 0.138672 0.375000
vt 0.546875 0.814453
vt 0.546875 0.453125
vt 0.390625 0.765625
vt 0.250000 0.531250
vt 0.154297 0.375000
vt 0.156250 0.361328
vt 0.201172 0.375000
vt 0.216797 0.375000
vt 0.625000 0.783203
vt 0.625000 0.734375
vt 0.427734 0.656250
vt 0.218750 0.421875
vt 0.083984 0.640625
vt 0.484375 0.671875
vt 0.031250 0.406250
vt 0.625000 0.906250
vt 0.656250 0.781250
vt 0.659180 0.859375
vt 0.656250 0.765625
vt 0.174805 0.359375
vt 0.531250 0.372070
vt 0.609375 0.468750
vt 0.659180 0.843750
vt 0.656250 0.750000
vt 0.659180 0.828125
vt 0.353516 0.390625
vt 0.416016 0.390625
vt 0.509766 0.390625
vt 0.525391 0.390625
vt 0.484375 0.365234
vt 0.093750 0.359375
vt 0.637695 1.000000
vt 0.028320 0.375000
vt 0.043945 0.375000
vt 0.637695 0.968750
vt 0.359375 0.362305
vt 0.468750 0.375000
vt 0.206055 0.359375
vt 0.656250 0.734375
vt 0.659180 0.812500
s 1
usemtl m_f5d28d68-0bf7-7926-8f8b-4ec24273407f
f 7/1/1 2/2/1 4/3/1
f 4/4/2 1/5/2 3/6/2
f 3/7/3 6/8/3 8/9/3
f 7/10/4 6/11/5 5/12/5
f 1/13/6 5/14/7 6/15/7
f 4/16/8 8/17/8 7/18/8
f 15/19/9 10/20/9 12/21/9
f 11/22/10 10/23/10 9/24/10
f 11/25/11 14/21/11 16/26/11
f 16/9/12 13/22/12 15/27/12
f 9/26/13 13/28/13 14/25/13
f 12/29/14 16/28/14 15/30/14
f 23/31/9 18/32/9 20/33/9
f 19/34/10 18/31/10 17/33/10
f 19/35/11 22/36/11 24/2/11
f 24/37/12 21/34/12 23/38/12
f 17/39/13 21/40/13 22/41/13
f 20/42/14 24/43/14 23/44/14
f 31/31/9 26/32/9 28/33/9
f 27/34/10 26/31/10 25/33/10
f 27/35/11 30/36/11 32/2/11
f 32/37/12 29/34/12 31/38/12
f 25/39/13 29/40/13 30/41/13
f 28/42/14 32/43/14 31/44/14
f 39/31/9 34/32/9 36/33/9
f 35/34/10 34/31/10 33/33/10
f 35/35/11 38/36/11 40/2/11
f 40/37/12 37/34/12 39/38/12
f 33/39/13 37/40/13 38/41/13
f 36/42/14 40/43/14 39/44/14
f 47/31/9 42/32/9 44/33/9
f 43/34/10 42/31/10 41/33/10
f 43/35/11 46/36/11 48/2/11
f 48/37/12 45/34/12 47/38/12
f 41/39/13 45/40/13 46/41/13
f 44/42/14 48/43/14 47/44/14
f 55/45/15 50/46/15 52/47/15
f 52/48/16 49/49/16 51/50/16
f 51/51/17 54/52/17 56/53/17
f 56/54/18 53/55/18 55/56/18
f 49/57/19 53/58/19 54/59/19
f 52/60/20 56/61/20 55/62/20
f 63/63/21 58/64/21 60/65/21
f 60/66/10 57/67/10 59/68/10
f 59/69/22 62/70/22 64/63/22
f 64/71/12 61/72/12 63/73/12
f 57/74/23 61/75/23 62/76/23
f 60/77/24 64/75/24 63/78/24
f 71/79/25 66/65/25 68/80/25
f 68/81/10 65/82/10 67/83/10
f 67/84/26 70/85/26 72/79/26
f 71/86/12 70/87/12 69/88/12
f 65/89/27 69/90/27 70/91/27
f 68/55/28 72/92/29 71/93/29
f 79/94/30 74/69/30 76/95/30
f 76/96/31 73/97/31 75/98/31
f 80/99/32 73/100/32 78/101/32
f 80/102/33 77/103/33 79/104/33
f 73/105/34 77/106/34 78/107/34
f 76/108/35 80/109/35 79/110/35
f 84/111/36 85/112/36 82/113/36
f 84/114/31 81/87/31 83/115/31
f 83/116/37 86/117/37 88/118/37
f 87/119/33 86/120/33 85/121/33
f 81/122/38 85/123/38 86/124/38
f 87/125/39 83/126/39 88/127/39
f 95/128/21 90/129/21 92/130/21
f 92/131/24 89/132/24 91/133/24
f 91/134/22 94/135/22 96/128/22
f 96/136/23 93/137/23 95/138/23
f 89/139/10 93/140/10 94/141/10
f 92/142/12 96/143/12 95/144/12
f 103/145/40 98/95/40 100/146/40
f 99/147/16 98/148/16 97/149/16
f 99/150/41 102/99/41 104/151/41
f 103/152/18 102/153/18 101/154/18
f 97/60/42 101/155/42 102/62/42
f 100/156/43 104/155/43 103/157/43
f 111/158/21 106/159/21 108/64/21
f 108/160/10 105/161/10 107/162/10
f 107/163/22 110/164/22 112/165/22
f 112/166/12 109/167/12 111/168/12
f 105/77/23 109/169/23 110/170/23
f 108/171/24 112/172/24 111/173/24
f 119/174/36 114/175/36 116/176/36
f 115/177/31 114/178/31 113/179/31
f 120/180/37 113/181/37 118/182/37
f 119/183/33 118/184/33 117/185/33
f 113/186/38 117/187/38 118/188/38
f 119/189/39 115/190/39 120/191/39
f 127/192/36 122/193/36 124/194/36
f 123/195/31 122/196/31 121/197/31
f 123/198/37 126/199/37 128/200/37
f 128/201/33 125/202/33 127/203/33
f 126/204/38 122/205/38 125/206/38
f 124/207/39 128/208/39 127/209/39
f 135/210/21 130/211/21 132/212/21
f 132/211/10 129/213/10 131/214/10
f 131/215/22 134/216/22 136/39/22
f 136/212/12 133/214/12 135/69/12
f 129/217/23 133/218/23 134/219/23
f 132/121/24 136/220/24 135/120/24
f 143/221/21 138/222/21 140/223/21
f 140/224/10 137/225/10 139/226/10
f 139/227/22 142/228/22 144/215/22
f 144/68/12 141/226/12 143/113/12
f 137/229/23 141/230/23 142/231/23
f 140/230/24 144/149/24 143/232/24
f 151/233/44 146/234/44 148/211/44
f 147/216/45 146/235/45 145/236/45
f 147/237/46 150/238/46 152/239/46
f 151/240/47 150/241/47 149/242/47
f 150/243/48 146/244/48 149/245/48
f 148/246/49 152/247/49 151/248/49
f 159/249/50 154/250/50 156/251/50
f 156/252/45 153/253/45 155/254/45
f 155/255/51 158/256/51 160/257/51
f 160/258/47 157/259/47 159/260/47
f 153/261/52 157/262/52 158/263/52
f 156/264/53 160/265/53 159/266/53
f 167/267/50 162/268/50 164/269/50
f 164/270/45 161/271/45 163/272/45
f 163/273/51 166/274/51 168/275/51
f 168/276/47 165/277/47 167/270/47
f 166/157/52 162/278/52 165/279/52
f 164/280/53 168/281/53 167/282/53
f 172/283/50 173/284/50 170/285/50
f 172/286/45 169/287/45 171/288/45
f 171/289/51 174/23/51 176/290/51
f 176/291/47 173/292/47 175/293/47
f 169/294/52 173/295/52 174/296/52
f 172/297/53 176/298/53 175/299/53
f 180/300/54 181/301/54 178/302/54
f 179/303/55 178/114/55 177/115/55
f 184/304/56 177/305/56 182/306/56
f 183/307/57 182/179/57 181/308/57
f 182/309/58 178/310/58 181/311/58
f 180/312/59 184/311/59 183/313/59
f 191/314/60 186/315/60 188/316/60
f 188/317/55 185/153/55 187/318/55
f 192/319/61 185/320/61 190/321/61
f 192/322/57 189/323/57 191/317/57
f 185/312/62 189/324/62 190/313/62
f 191/325/63 187/326/63 192/327/63
f 199/328/64 194/329/64 196/330/64
f 196/331/65 193/332/66 195/333/66
f 200/334/67 193/335/67 198/336/67
f 200/337/68 197/338/68 199/339/68
f 198/340/69 194/341/69 197/342/69
f 196/343/70 200/344/70 199/345/70
f 207/346/71 202/347/71 204/348/71
f 204/349/66 201/350/66 203/351/66
f 203/352/72 206/353/72 208/354/72
f 207/355/73 206/356/68 205/357/73
f 201/358/74 205/359/74 206/360/74
f 204/361/75 208/362/75 207/363/75
f 215/364/76 210/365/76 212/321/76
f 212/236/10 209/366/10 211/367/10
f 211/368/77 214/369/77 216/89/77
f 216/370/12 213/367/12 215/36/12
f 209/371/78 213/372/78 214/373/78
f 212/374/79 216/375/79 215/376/79
f 223/377/80 218/378/80 220/379/80
f 219/46/81 218/380/81 217/381/81
f 224/382/82 217/383/82 222/384/82
f 224/385/83 221/380/83 223/386/83
f 217/387/84 221/388/84 222/389/84
f 220/390/79 224/388/79 223/391/79
f 228/242/85 229/392/85 226/393/85
f 228/394/86 225/379/86 227/88/86
f 227/395/87 230/396/87 232/397/87
f 232/398/88 229/399/88 231/236/88
f 230/391/84 226/400/84 229/401/84
f 228/222/89 232/401/89 231/402/89
f 239/403/90 234/404/90 236/405/90
f 236/406/10 233/407/10 235/408/10
f 235/409/91 238/410/91 240/411/91
f 240/412/12 237/413/12 239/414/12
f 233/415/78 237/416/78 238/417/78
f 236/418/79 240/419/79 239/420/79
f 247/421/92 242/422/92 244/423/92
f 243/424/10 242/425/10 241/426/10
f 243/427/93 246/428/93 248/429/93
f 248/430/12 245/431/12 247/432/12
f 241/118/94 245/433/94 246/434/94
f 244/435/95 248/436/95 247/437/95
f 255/438/96 250/439/96 252/440/96
f 252/441/10 249/442/10 251/443/10
f 251/444/97 254/445/97 256/446/97
f 256/447/12 253/141/12 255/448/12
f 249/449/98 253/450/98 254/451/98
f 252/452/99 256/453/99 255/454/99
f 263/455/90 258/456/90 260/457/90
f 260/458/10 257/459/10 259/460/10
f 259/461/91 262/462/91 264/463/91
f 264/464/12 261/465/12 263/466/12
f 257/467/78 261/468/78 262/469/78
f 260/470/79 264/471/79 263/472/79
f 271/473/21 266/38/21 268/302/21
f 268/474/10 265/475/10 267/476/10
f 267/477/22 270/478/22 272/24/22
f 272/479/12 269/480/12 271/13/12
f 265/27/23 269/481/23 270/197/23
f 268/482/24 272/483/24 271/484/24
f 276/485/21 277/20/21 274/486/21
f 276/487/100 273/476/100 275/488/100
f 275/489/22 278/490/22 280/491/22
f 280/492/101 277/493/101 279/494/101
f 273/495/102 277/496/102 278/272/102
f 276/496/103 280/270/103 279/497/103
f 284/498/21 285/499/21 282/500/21
f 284/501/100 281/270/100 283/502/100
f 283/503/22 286/240/22 288/326/22
f 288/504/101 285/276/101 287/505/101
f 281/506/102 285/507/102 286/132/102
f 284/508/103 288/509/103 287/510/103
f 295/383/21 290/239/21 292/378/21
f 292/511/10 289/512/10 291/276/10
f 291/513/22 294/514/22 296/393/22
f 296/515/12 293/516/12 295/190/12
f 289/28/23 293/517/23 294/518/23
f 292/30/24 296/517/24 295/389/24
f 303/519/21 298/520/21 300/503/21
f 300/475/10 297/521/10 299/477/10
f 299/522/22 302/523/22 304/524/22
f 304/445/12 301/525/12 303/526/12
f 297/526/23 301/5/23 302/445/23
f 300/475/24 304/5/24 303/527/24
f 311/528/21 306/529/21 308/530/21
f 308/531/10 305/532/10 307/533/10
f 307/534/22 310/535/22 312/536/22
f 312/537/12 309/538/12 311/539/12
f 305/540/23 309/541/23 310/280/23
f 308/542/24 312/357/24 311/543/24
f 319/544/21 314/545/21 316/546/21
f 316/547/24 313/548/24 315/549/24
f 315/550/22 318/551/22 320/552/22
f 320/553/23 317/554/23 319/555/23
f 313/280/10 317/556/10 318/557/10
f 316/556/12 320/558/12 319/559/12
f 327/560/104 322/561/104 324/562/104
f 324/563/105 321/564/105 323/565/105
f 323/566/106 326/567/106 328/568/106
f 328/569/107 325/570/107 327/571/107
f 321/572/23 325/573/23 326/574/23
f 324/575/24 328/576/24 327/577/24
f 335/578/104 330/579/104 332/580/104
f 332/581/105 329/143/105 331/582/105
f 331/583/106 334/584/106 336/585/106
f 336/586/107 333/587/107 335/588/107
f 329/589/23 333/590/23 334/591/23
f 332/592/24 336/593/24 335/594/24
f 343/130/21 338/595/21 340/544/21
f 340/596/10 337/502/10 339/597/10
f 339/598/22 342/509/22 344/599/22
f 344/600/12 341/601/12 343/602/12
f 337/558/23 341/603/23 342/604/23
f 340/603/24 344/139/24 343/605/24
f 7/1/1 5/606/1 2/2/1
f 4/4/2 2/607/2 1/5/2
f 3/7/3 1/608/3 6/8/3
f 7/10/4 8/609/4 6/11/5
f 1/13/6 2/610/108 5/14/7
f 4/16/8 3/6/8 8/17/8
f 15/19/9 13/415/9 10/20/9
f 11/22/10 12/8/10 10/23/10
f 11/25/11 9/19/11 14/21/11
f 16/9/12 14/8/12 13/22/12
f 9/26/13 10/611/13 13/28/13
f 12/29/14 11/611/14 16/28/14
f 23/31/9 21/612/9 18/32/9
f 19/34/10 20/613/10 18/31/10
f 19/35/11 17/614/11 22/36/11
f 24/37/12 22/613/12 21/34/12
f 17/39/13 18/615/13 21/40/13
f 20/42/14 19/616/14 24/43/14
f 31/31/9 29/612/9 26/32/9
f 27/34/10 28/613/10 26/31/10
f 27/35/11 25/614/11 30/36/11
f 32/37/12 30/613/12 29/34/12
f 25/39/13 26/615/13 29/40/13
f 28/42/14 27/616/14 32/43/14
f 39/31/9 37/612/9 34/32/9
f 35/34/10 36/613/10 34/31/10
f 35/35/11 33/614/11 38/36/11
f 40/37/12 38/613/12 37/34/12
f 33/39/13 34/615/13 37/40/13
f 36/42/14 35/616/14 40/43/14
f 47/31/9 45/612/9 42/32/9
f 43/34/10 44/613/10 42/31/10
f 43/35/11 41/614/11 46/36/11
f 48/37/12 46/613/12 45/34/12
f 41/39/13 42/615/13 45/40/13
f 44/42/14 43/616/14 48/43/14
f 55/45/15 53/617/15 50/46/15
f 52/48/16 50/218/16 49/49/16
f 51/51/17 49/618/17 54/52/17
f 56/54/18 54/467/18 53/55/18
f 49/57/19 50/515/19 53/58/19
f 52/60/20 51/619/20 56/61/20
f 63/63/21 61/70/21 58/64/21
f 60/66/10 58/620/10 57/67/10
f 59/69/22 57/213/22 62/70/22
f 64/71/12 62/365/12 61/72/12
f 57/74/23 58/621/23 61/75/23
f 60/77/24 59/621/24 64/75/24
f 71/79/25 69/85/25 66/65/25
f 68/81/10 66/385/10 65/82/10
f 67/84/26 65/161/26 70/85/26
f 71/86/12 72/622/12 70/87/12
f 65/89/27 66/66/27 69/90/27
f 68/55/28 67/269/28 72/92/29
f 79/94/30 77/623/30 74/69/30
f 76/96/31 74/624/31 73/97/31
f 80/99/32 75/625/32 73/100/32
f 80/102/33 78/626/33 77/103/33
f 73/105/34 74/627/34 77/106/34
f 76/108/35 75/628/35 80/109/35
f 84/111/36 87/629/36 85/112/36
f 84/114/31 82/394/31 81/87/31
f 83/116/37 81/630/37 86/117/37
f 87/119/33 88/561/33 86/120/33
f 81/122/38 82/473/38 85/123/38
f 87/125/39 84/631/39 83/126/39
f 95/128/21 93/135/21 90/129/21
f 92/131/24 90/632/24 89/132/24
f 91/134/22 89/633/22 94/135/22
f 96/136/23 94/634/23 93/137/23
f 89/139/10 90/605/10 93/140/10
f 92/142/12 91/635/12 96/143/12
f 103/145/40 101/94/40 98/95/40
f 99/147/16 100/636/16 98/148/16
f 99/150/41 97/625/41 102/99/41
f 103/152/18 104/318/18 102/153/18
f 97/60/42 98/637/42 101/155/42
f 100/156/43 99/637/43 104/155/43
f 111/158/21 109/638/21 106/159/21
f 108/160/10 106/639/10 105/161/10
f 107/163/22 105/640/22 110/164/22
f 112/166/12 110/641/12 109/167/12
f 105/77/23 106/642/23 109/169/23
f 108/171/24 107/620/24 112/172/24
f 119/174/36 117/643/36 114/175/36
f 115/177/31 116/644/31 114/178/31
f 120/180/37 115/645/37 113/181/37
f 119/183/33 120/646/33 118/184/33
f 113/186/38 114/647/38 117/187/38
f 119/189/39 116/648/39 115/190/39
f 127/192/36 125/649/36 122/193/36
f 123/195/31 124/650/31 122/196/31
f 123/198/37 121/651/37 126/199/37
f 128/201/33 126/652/33 125/202/33
f 126/204/38 121/653/38 122/205/38
f 124/207/39 123/654/39 128/208/39
f 135/210/21 133/238/21 130/211/21
f 132/211/10 130/655/10 129/213/10
f 131/215/22 129/228/22 134/216/22
f 136/212/12 134/211/12 133/214/12
f 129/217/23 130/49/23 133/218/23
f 132/121/24 131/656/24 136/220/24
f 143/221/21 141/52/21 138/222/21
f 140/224/10 138/67/10 137/225/10
f 139/227/22 137/38/22 142/228/22
f 144/68/12 142/224/12 141/226/12
f 137/229/23 138/628/23 141/230/23
f 140/230/24 139/231/24 144/149/24
f 151/233/44 149/657/44 146/234/44
f 147/216/45 148/658/45 146/235/45
f 147/237/46 145/659/46 150/238/46
f 151/240/47 152/660/47 150/241/47
f 150/243/48 145/661/48 146/244/48
f 148/246/49 147/498/49 152/247/49
f 159/249/50 157/662/50 154/250/50
f 156/252/45 154/663/45 153/253/45
f 155/255/51 153/664/51 158/256/51
f 160/258/47 158/665/47 157/259/47
f 153/261/52 154/666/52 157/262/52
f 156/264/53 155/98/53 160/265/53
f 167/267/50 165/667/50 162/268/50
f 164/270/45 162/277/45 161/271/45
f 163/273/51 161/668/51 166/274/51
f 168/276/47 166/512/47 165/277/47
f 166/157/52 161/156/52 162/278/52
f 164/280/53 163/669/53 168/281/53
f 172/283/50 175/670/50 173/284/50
f 172/286/45 170/671/45 169/287/45
f 171/289/51 169/672/51 174/23/51
f 176/291/47 174/673/47 173/292/47
f 169/294/52 170/674/52 173/295/52
f 172/297/53 171/675/53 176/298/53
f 180/300/54 183/676/54 181/301/54
f 179/303/55 180/677/55 178/114/55
f 184/304/56 179/678/56 177/305/56
f 183/307/57 184/679/57 182/179/57
f 182/309/58 177/680/58 178/310/58
f 180/312/59 179/310/59 184/311/59
f 191/314/60 189/681/60 186/315/60
f 188/317/55 186/323/55 185/153/55
f 192/319/61 187/682/61 185/320/61
f 192/322/57 190/683/57 189/323/57
f 185/312/62 186/604/62 189/324/62
f 191/325/63 188/635/63 187/326/63
f 199/328/64 197/684/64 194/329/64
f 196/331/65 194/685/65 193/332/66
f 200/334/67 195/686/67 193/335/67
f 200/337/68 198/687/68 197/338/68
f 198/340/69 193/275/69 194/341/69
f 196/343/70 195/688/70 200/344/70
f 207/346/71 205/689/71 202/347/71
f 204/349/66 202/690/66 201/350/66
f 203/352/72 201/691/72 206/353/72
f 207/355/73 208/692/68 206/356/68
f 201/358/74 202/693/74 205/359/74
f 204/361/75 203/694/75 208/362/75
f 215/364/76 213/695/76 210/365/76
f 212/236/10 210/399/10 209/366/10
f 211/368/77 209/696/77 214/369/77
f 216/370/12 214/236/12 213/367/12
f 209/371/78 210/697/78 213/372/78
f 212/374/79 211/698/79 216/375/79
f 223/377/80 221/699/80 218/378/80
f 219/46/81 220/386/81 218/380/81
f 224/382/82 219/700/82 217/383/82
f 224/385/83 222/490/83 221/380/83
f 217/387/84 218/701/78 221/388/84
f 220/390/79 219/701/79 224/388/79
f 228/242/85 231/702/85 229/392/85
f 228/394/86 226/97/86 225/379/86
f 227/395/87 225/513/87 230/396/87
f 232/398/88 230/32/88 229/399/88
f 230/391/84 225/390/78 226/400/84
f 228/222/89 227/400/89 232/401/89
f 239/403/90 237/703/90 234/404/90
f 236/406/10 234/704/10 233/407/10
f 235/409/91 233/705/91 238/410/91
f 240/412/12 238/706/12 237/413/12
f 233/415/78 234/707/78 237/416/78
f 236/418/79 235/491/79 240/419/79
f 247/421/92 245/708/92 242/422/92
f 243/424/10 244/709/10 242/425/10
f 243/427/93 241/710/93 246/428/93
f 248/430/12 246/711/12 245/431/12
f 241/118/94 242/712/94 245/433/94
f 244/435/95 243/374/95 248/436/95
f 255/438/96 253/713/96 250/439/96
f 252/441/10 250/714/10 249/442/10
f 251/444/97 249/715/97 254/445/97
f 256/447/12 254/716/12 253/141/12
f 249/449/98 250/717/98 253/450/98
f 252/452/99 251/718/99 256/453/99
f 263/455/90 261/719/90 258/456/90
f 260/458/10 258/720/10 257/459/10
f 259/461/91 257/721/91 262/462/91
f 264/464/12 262/722/12 261/465/12
f 257/467/78 258/723/78 261/468/78
f 260/470/79 259/724/79 264/471/79
f 271/473/21 269/122/21 266/38/21
f 268/474/10 266/725/10 265/475/10
f 267/477/22 265/521/22 270/478/22
f 272/479/12 270/726/12 269/480/12
f 265/27/23 266/727/23 269/481/23
f 268/482/24 267/728/24 272/483/24
f 276/485/21 279/729/21 277/20/21
f 276/487/100 274/474/100 273/476/100
f 275/489/22 273/730/22 278/490/22
f 280/492/101 278/731/101 277/493/101
f 273/495/102 274/732/102 277/496/102
f 276/496/103 275/272/103 280/270/103
f 284/498/21 287/3/21 285/499/21
f 284/501/100 282/733/100 281/270/100
f 283/503/22 281/520/22 286/240/22
f 288/504/101 286/734/101 285/276/101
f 281/506/102 282/735/102 285/507/102
f 284/508/103 283/736/103 288/509/103
f 295/383/21 293/737/21 290/239/21
f 292/511/10 290/738/10 289/512/10
f 291/513/22 289/739/22 294/514/22
f 296/515/12 294/661/12 293/516/12
f 289/28/23 290/740/23 293/517/23
f 292/30/24 291/740/24 296/517/24
f 303/519/21 301/741/21 298/520/21
f 300/475/10 298/742/10 297/521/10
f 299/522/22 297/506/22 302/523/22
f 304/445/12 302/439/12 301/525/12
f 297/526/23 298/742/23 301/5/23
f 300/475/24 299/742/24 304/5/24
f 311/528/21 309/743/21 306/529/21
f 308/531/10 306/744/10 305/532/10
f 307/534/22 305/745/22 310/535/22
f 312/537/12 310/746/12 309/538/12
f 305/540/23 306/747/23 309/541/23
f 308/542/24 307/748/24 312/357/24
f 319/544/21 317/595/21 314/545/21
f 316/547/24 314/749/24 313/548/24
f 315/550/22 313/750/22 318/551/22
f 320/553/23 318/751/23 317/554/23
f 313/280/10 314/541/10 317/556/10
f 316/556/12 315/557/12 320/558/12
f 327/560/104 325/752/104 322/561/104
f 324/563/105 322/753/105 321/564/105
f 323/566/106 321/754/106 326/567/106
f 328/569/107 326/755/107 325/570/107
f 321/572/23 322/756/23 325/573/23
f 324/575/24 323/757/24 328/576/24
f 335/578/104 333/758/104 330/579/104
f 332/581/105 330/759/105 329/143/105
f 331/583/106 329/760/106 334/584/106
f 336/586/107 334/761/107 333/587/107
f 329/589/23 330/762/23 333/590/23
f 332/592/24 331/763/24 336/593/24
f 343/130/21 341/129/21 338/595/21
f 340/596/10 338/764/10 337/502/10
f 339/598/22 337/765/22 342/509/22
f 344/600/12 342/766/12 341/601/12
f 337/558/23 338/559/23 341/603/23
f 340/603/24 339/604/24 344/139/24
