# Made in Blockbench 5.1.6
mtllib base.mtl

o cube
v 0.25 1.25 -0.1625
v 0.25 1.25 -0.225
v 0.25 0.8312499999999999 -0.1625
v 0.25 0.8312499999999999 -0.225
v -0.25 1.25 -0.1625
v -0.25 1.25 -0.225
v -0.25 0.8312499999999999 -0.1625
v -0.25 0.8312499999999999 -0.225
v 0.25 1.25 0.2125
v 0.25 1.25 0.15
v 0.25 0.8624999999999999 0.2125
v 0.25 0.8624999999999999 0.15
v -0.25 1.25 0.2125
v -0.25 1.25 0.15
v -0.25 0.8624999999999999 0.2125
v -0.25 0.8624999999999999 0.15
v 0.203125 1.4375 0.15
v 0.203125 1.4375 0.10624999999999998
v 0.203125 0.8999999999999999 0.15
v 0.203125 0.8999999999999999 0.10624999999999998
v -0.203125 1.4375 0.15
v -0.203125 1.4375 0.10624999999999998
v -0.203125 0.8999999999999999 0.15
v -0.203125 0.8999999999999999 0.10624999999999998
v 0.203125 1.4034508898329847 -0.11151408593142087
v 0.203125 1.4051958646681098 -0.1614836272823757
v 0.203125 0.8975092836545673 -0.129181956137062
v 0.203125 0.8992542584896924 -0.17915149748801681
v -0.203125 1.4034508898329847 -0.11151408593142087
v -0.203125 1.4051958646681098 -0.1614836272823757
v -0.203125 0.8975092836545673 -0.129181956137062
v -0.203125 0.8992542584896924 -0.17915149748801681
v 0.1875 1.4373828369752373 -0.12048961372297431
v 0.1875 1.4503773176513473 -0.18162383876883717
v 0.1875 1.23563989432389 -0.16337139995413713
v 0.1875 1.248634375 -0.224505625
v -0.1875 1.4373828369752373 -0.12048961372297431
v -0.1875 1.4503773176513473 -0.18162383876883717
v -0.1875 1.23563989432389 -0.16337139995413713
v -0.1875 1.248634375 -0.224505625
v 0.1875 1.4587417399750966 0.19532985543151313
v 0.1875 1.4543819603660888 0.13298210229027416
v 0.1875 1.24052460398076 0.21058908406304053
v 0.1875 1.2361648243717522 0.14824133092180156
v -0.1875 1.4587417399750966 0.19532985543151313
v -0.1875 1.4543819603660888 0.13298210229027416
v -0.1875 1.24052460398076 0.21058908406304053
v -0.1875 1.2361648243717522 0.14824133092180156
v -0.21031636856028352 1.586431294280851 0.16108384032054315
v -0.20596536234547524 1.5829432594262238 0.11139578986802887
v -0.11060844372331974 1.2394876489843027 0.1941698904481918
v -0.10625743750851147 1.2359996141296756 0.1444818399956775
v -0.34795438542152135 1.5459968976534375 0.1518698084190012
v -0.34360337920671313 1.5425088627988104 0.1021817579664869
v -0.24824646058455763 1.1990532523568895 0.18495585854664978
v -0.24389545436974935 1.1955652175022624 0.1352678080941355
v -0.21600336458145303 1.607316954479615 0.056874688021159664
v -0.1979733412947972 1.5488380880304145 0.04417073434133259
v -0.21628327812123455 1.5860057790293185 0.15457707002557572
v -0.1982532548345787 1.5275269125801179 0.1418731163457487
v -0.3416728400120074 1.5703985299844048 0.04846187768211338
v -0.3236428167253515 1.5119196635352041 0.035757924002286307
v -0.34195275355178884 1.5490873545341084 0.14616425968652944
v -0.323922730265133 1.4906084880849075 0.13346030600670242
v -0.18883812355395446 1.551796696603705 0.07960461402488037
v -0.2063617330433662 1.616759146861978 0.06548492327387614
v -0.1781291227570564 1.5374592984102218 0.00034984246522279383
v -0.1956527322464681 1.6024217486684948 -0.013769848285781455
v -0.3385171105145434 1.5087187260725599 0.06717272690467055
v -0.35604072000395515 1.573681176330833 0.05305303615366633
v -0.32780810971764535 1.4943813278790767 -0.012082044654987023
v -0.3453317192070571 1.5593437781373498 -0.026201735405991272
v -0.17236273771257277 1.529739160921423 -0.04232580375920847
v -0.1898863472019845 1.594701611179696 -0.056445494510212746
v -0.1616537369156747 1.5154017627279397 -0.12158057531886607
v -0.17917734640508642 1.5803642129862128 -0.13570026606987035
v -0.3220417246731617 1.486661190390278 -0.054757690879418314
v -0.33956533416257345 1.551623640648551 -0.06887738163042256
v -0.31133272387626365 1.4723237921967947 -0.13401246243907589
v -0.3288563333656754 1.5372862424550677 -0.14813215319008013
v -0.1999886732187325 1.5472475821770992 0.07251354216605929
v -0.2159192273000159 1.6063043551391658 0.05967745966514634
v -0.17527559445665997 1.5141612786536762 -0.11038208451007402
v -0.19120614853794335 1.5732180516157428 -0.12321816701098698
v -0.3257190222656272 1.5110620869309375 0.06207075698508305
v -0.3416495763469106 1.5701188598930038 0.0492346744841701
v -0.3010059435035547 1.4779757834075145 -0.12082486969105026
v -0.31693649758483805 1.5370325563695808 -0.13366095219196322
v -0.1860340519241504 1.5671871547507439 -0.08604003054052203
v -0.1850832386863247 1.5762334965330542 -0.12883398051647543
v -0.060853990674432895 1.156487902475177 -0.17007767951886538
v -0.05990317743660717 1.1655342442574872 -0.2128716294948188
v -0.32373872480659477 1.527555468576179 -0.09747746982122624
v -0.322787911568769 1.536601810358489 -0.14027141979717966
v -0.19855866355687724 1.116856216300612 -0.1815151187995696
v -0.1976078503190515 1.1259025580829223 -0.22430906877552304
v 0.34795438542152135 1.5459968976534375 0.1518698084190012
v 0.34360337920671313 1.5425088627988104 0.1021817579664869
v 0.24824646058455763 1.1990532523568895 0.18495585854664978
v 0.24389545436974935 1.1955652175022624 0.1352678080941355
v 0.21031636856028352 1.586431294280851 0.16108384032054315
v 0.20596536234547524 1.5829432594262238 0.11139578986802887
v 0.11060844372331974 1.2394876489843027 0.1941698904481918
v 0.10625743750851147 1.2359996141296756 0.1444818399956775
v 0.3416728400120074 1.5703985299844048 0.04846187768211338
v 0.3236428167253515 1.5119196635352041 0.035757924002286307
v 0.34195275355178884 1.5490873545341084 0.14616425968652944
v 0.323922730265133 1.4906084880849075 0.13346030600670242
v 0.21600336458145303 1.607316954479615 0.056874688021159664
v 0.1979733412947972 1.5488380880304145 0.04417073434133259
v 0.21628327812123455 1.5860057790293185 0.15457707002557572
v 0.1982532548345787 1.5275269125801179 0.1418731163457487
v 0.3385171105145434 1.5087187260725599 0.06717272690467055
v 0.35604072000395515 1.573681176330833 0.05305303615366633
v 0.32780810971764535 1.4943813278790767 -0.012082044654987023
v 0.3453317192070571 1.5593437781373498 -0.026201735405991272
v 0.18883812355395446 1.551796696603705 0.07960461402488037
v 0.2063617330433662 1.616759146861978 0.06548492327387614
v 0.1781291227570564 1.5374592984102218 0.00034984246522279383
v 0.1956527322464681 1.6024217486684948 -0.013769848285781455
v 0.3257190222656272 1.5110620869309375 0.06207075698508305
v 0.3416495763469106 1.5701188598930038 0.0492346744841701
v 0.3010059435035547 1.4779757834075145 -0.12082486969105026
v 0.31693649758483805 1.5370325563695808 -0.13366095219196322
v 0.1999886732187325 1.5472475821770992 0.07251354216605929
v 0.2159192273000159 1.6063043551391658 0.05967745966514634
v 0.17527559445665997 1.5141612786536762 -0.11038208451007402
v 0.19120614853794335 1.5732180516157428 -0.12321816701098698
v 0.3220417246731617 1.486661190390278 -0.054757690879418314
v 0.33956533416257345 1.551623640648551 -0.06887738163042256
v 0.31133272387626365 1.4723237921967947 -0.13401246243907589
v 0.3288563333656754 1.5372862424550677 -0.14813215319008013
v 0.17236273771257277 1.529739160921423 -0.04232580375920847
v 0.1898863472019845 1.594701611179696 -0.056445494510212746
v 0.1616537369156747 1.5154017627279397 -0.12158057531886607
v 0.17917734640508642 1.5803642129862128 -0.13570026606987035
v 0.32373872480659477 1.527555468576179 -0.09747746982122624
v 0.322787911568769 1.536601810358489 -0.14027141979717966
v 0.19855866355687724 1.116856216300612 -0.1815151187995696
v 0.1976078503190515 1.1259025580829223 -0.22430906877552304
v 0.1860340519241504 1.5671871547507439 -0.08604003054052203
v 0.1850832386863247 1.5762334965330542 -0.12883398051647543
v 0.060853990674432895 1.156487902475177 -0.17007767951886538
v 0.05990317743660717 1.1655342442574872 -0.2128716294948188
v -0.27723616960864317 1.125 0.10193584315367046
v -0.2502723616960864 1.125 -0.20626189156846328
v -0.27723616960864317 0.875 0.10193584315367046
v -0.2502723616960864 0.875 -0.20626189156846328
v -0.3145934707870836 1.125 0.09866750280063327
v -0.28762966287452685 1.125 -0.20953023192150047
v -0.3145934707870836 0.875 0.09866750280063327
v -0.28762966287452685 0.875 -0.20953023192150047
v 0.3145934707870836 1.125 0.09866750280063327
v 0.28762966287452685 1.125 -0.20953023192150047
v 0.3145934707870836 0.875 0.09866750280063327
v 0.28762966287452685 0.875 -0.20953023192150047
v 0.27723616960864317 1.125 0.10193584315367046
v 0.2502723616960864 1.125 -0.20626189156846328
v 0.27723616960864317 0.875 0.10193584315367046
v 0.2502723616960864 0.875 -0.20626189156846328
v -0.21655260636174328 1.125 0.19011494854229968
v -0.279644375 1.125 0.07860062500000001
v -0.21655260636174328 0.875 0.19011494854229968
v -0.279644375 0.875 0.07860062500000001
v -0.2491909449594895 1.125 0.20858083204617964
v -0.31228271359774623 1.125 0.09706650850388002
v -0.2491909449594895 0.875 0.20858083204617964
v -0.31228271359774623 0.875 0.09706650850388002
v 0.2491909449594895 1.125 0.20858083204617964
v 0.31228271359774623 1.125 0.09706650850388002
v 0.2491909449594895 0.875 0.20858083204617964
v 0.31228271359774623 0.875 0.09706650850388002
v 0.21655260636174328 1.125 0.19011494854229968
v 0.279644375 1.125 0.07860062500000001
v 0.21655260636174328 0.875 0.19011494854229968
v 0.279644375 0.875 0.07860062500000001
v -0.221875 1.09375 0.15
v -0.221875 1.09375 -0.1625
v -0.221875 0.90625 0.15
v -0.221875 0.90625 -0.1625
v -0.278125 1.09375 0.15
v -0.278125 1.09375 -0.1625
v -0.278125 0.90625 0.15
v -0.278125 0.90625 -0.1625
v 0.278125 1.09375 0.15
v 0.278125 1.09375 -0.1625
v 0.278125 0.90625 0.15
v 0.278125 0.90625 -0.1625
v 0.221875 1.09375 0.15
v 0.221875 1.09375 -0.1625
v 0.221875 0.90625 0.15
v 0.221875 0.90625 -0.1625
v 0.140625 1.25 -0.22500000000000003
v 0.140625 1.25 -0.23125
v 0.140625 1.1875 -0.22500000000000003
v 0.140625 1.1875 -0.23125
v -0.140625 1.25 -0.22500000000000003
v -0.140625 1.25 -0.23125
v -0.140625 1.1875 -0.22500000000000003
v -0.140625 1.1875 -0.23125
v 0.09375 1.3205775137935696 -0.20640524335769556
v 0.09375 1.3218769618611805 -0.21251866586228182
v 0.09375 1.2594432887477067 -0.2193997240338055
v 0.09375 1.2607427368153177 -0.22551314653839177
v -0.09375 1.3205775137935696 -0.20640524335769556
v -0.09375 1.3218769618611805 -0.21251866586228182
v -0.09375 1.2594432887477067 -0.2193997240338055
v -0.09375 1.2607427368153177 -0.22551314653839177
v 0.09375 1.387825161344019 -0.19211131461397457
v 0.09375 1.3891246094116299 -0.19822473711856084
v 0.09375 1.326690936298156 -0.20510579529008455
v 0.09375 1.327990384365767 -0.2112192177946708
v -0.09375 1.387825161344019 -0.19211131461397457
v -0.09375 1.3891246094116299 -0.19822473711856084
v -0.09375 1.326690936298156 -0.20510579529008455
v -0.09375 1.327990384365767 -0.2112192177946708
v 0.140625 1.18125 -0.22500000000000003
v 0.140625 1.18125 -0.23125
v 0.140625 1.11875 -0.22500000000000003
v 0.140625 1.11875 -0.23125
v -0.140625 1.18125 -0.22500000000000003
v -0.140625 1.18125 -0.23125
v -0.140625 1.11875 -0.22500000000000003
v -0.140625 1.11875 -0.23125
v 0.21875 1.103125 -0.22500000000000003
v 0.21875 1.103125 -0.23125
v 0.21875 0.8531249999999999 -0.22500000000000003
v 0.21875 0.8531249999999999 -0.23125
v -0.21875 1.103125 -0.22500000000000003
v -0.21875 1.103125 -0.23125
v -0.21875 0.8531249999999999 -0.22500000000000003
v -0.21875 0.8531249999999999 -0.23125
v -0.146875 1.140625 -0.225
v -0.146875 1.140625 -0.24375
v -0.146875 1.0656249999999998 -0.225
v -0.146875 1.0656249999999998 -0.24375
v -0.196875 1.140625 -0.225
v -0.196875 1.140625 -0.24375
v -0.196875 1.0656249999999998 -0.225
v -0.196875 1.0656249999999998 -0.24375
v 0.196875 1.140625 -0.225
v 0.196875 1.140625 -0.24375
v 0.196875 1.0656249999999998 -0.225
v 0.196875 1.0656249999999998 -0.24375
v 0.146875 1.140625 -0.225
v 0.146875 1.140625 -0.24375
v 0.146875 1.0656249999999998 -0.225
v 0.146875 1.0656249999999998 -0.24375
v 0.15625 1.25 0.21874999999999997
v 0.15625 1.25 0.2125
v 0.15625 1.1875 0.21874999999999997
v 0.15625 1.1875 0.2125
v -0.15625 1.25 0.21874999999999997
v -0.15625 1.25 0.2125
v -0.15625 1.1875 0.21874999999999997
v -0.15625 1.1875 0.2125
v 0.15625 1.387165056910726 0.20290848486018273
v 0.15625 1.386729078949825 0.19667370954605887
v 0.15625 1.3248173037694868 0.20726826446919058
v 0.15625 1.324381325808586 0.20103348915506666
v -0.15625 1.387165056910726 0.20290848486018273
v -0.15625 1.386729078949825 0.19667370954605887
v -0.15625 1.3248173037694868 0.20726826446919058
v -0.15625 1.324381325808586 0.20103348915506666
v 0.15625 1.318582528455363 0.2077042424300913
v 0.15625 1.3181465504944623 0.20146946711596744
v 0.15625 1.256234775314124 0.21206402203909921
v 0.15625 1.2557987973532232 0.2058292467249753
v -0.15625 1.318582528455363 0.2077042424300913
v -0.15625 1.3181465504944623 0.20146946711596744
v -0.15625 1.256234775314124 0.21206402203909921
v -0.15625 1.2557987973532232 0.2058292467249753
vt 0.078125 0.4609375
vt 0.078125 0.5625
vt 0.0625 0.5625
vt 0.0625 0.4609375
vt 0.453125 0.5234375
vt 0.453125 0.625
vt 0.4375 0.625
vt 0.4375 0.5234375
vt 0.421875 0.8125
vt 0.421875 0.796875
vt 0.546875 0.796875
vt 0.546875 0.8125
vt 0.421875 0.78125
vt 0.421875 0.796875
vt 0.546875 0.796875
vt 0.546875 0.78125
vt 0.25 0.7578125
vt 0.25 0.859375
vt 0.125 0.859375
vt 0.125 0.7578125
vt 0.125 0.7578125
vt 0.125 0.859375
vt 0 0.859375
vt 0 0.7578125
vt 0.4375 0.46875
vt 0.4375 0.5625
vt 0.421875 0.5625
vt 0.421875 0.46875
vt 0.390625 0.453125
vt 0.390625 0.546875
vt 0.375 0.546875
vt 0.375 0.453125
vt 0.421875 0.71875
vt 0.421875 0.703125
vt 0.546875 0.703125
vt 0.546875 0.71875
vt 0.421875 0.6875
vt 0.421875 0.703125
vt 0.546875 0.703125
vt 0.546875 0.6875
vt 0.375 0.78125
vt 0.375 0.875
vt 0.25 0.875
vt 0.25 0.78125
vt 0.234375 0.65625
vt 0.234375 0.75
vt 0.109375 0.75
vt 0.109375 0.65625
vt 0.3046875 0.3671875
vt 0.3046875 0.5
vt 0.296875 0.5
vt 0.296875 0.3671875
vt 0.3203125 0.3671875
vt 0.3203125 0.5
vt 0.3125 0.5
vt 0.3125 0.3671875
vt 0.515625 0.9375
vt 0.515625 0.9296875
vt 0.6171875 0.9296875
vt 0.6171875 0.9375
vt 0.53125 0.5234375
vt 0.53125 0.53125
vt 0.6328125 0.53125
vt 0.6328125 0.5234375
vt 0.2109375 0.8671875
vt 0.2109375 1
vt 0.109375 1
vt 0.109375 0.8671875
vt 0.1015625 0.8671875
vt 0.1015625 1
vt 0 1
vt 0 0.8671875
vt 0.375 0.46875
vt 0.375 0.59375
vt 0.359375 0.59375
vt 0.359375 0.46875
vt 0.4375 0.5625
vt 0.4375 0.6875
vt 0.421875 0.6875
vt 0.421875 0.5625
vt 0.453125 0.625
vt 0.453125 0.609375
vt 0.5546875 0.609375
vt 0.5546875 0.625
vt 0.453125 0.59375
vt 0.453125 0.609375
vt 0.5546875 0.609375
vt 0.5546875 0.59375
vt 0.1015625 0.625
vt 0.1015625 0.75
vt 0 0.75
vt 0 0.625
vt 0.3203125 0.875
vt 0.3203125 1
vt 0.21875 1
vt 0.21875 0.875
vt 0.34375 0.4453125
vt 0.34375 0.5
vt 0.328125 0.5
vt 0.328125 0.4453125
vt 0.359375 0.4453125
vt 0.359375 0.5
vt 0.34375 0.5
vt 0.34375 0.4453125
vt 0.453125 0.59375
vt 0.453125 0.578125
vt 0.546875 0.578125
vt 0.546875 0.59375
vt 0.453125 0.5625
vt 0.453125 0.578125
vt 0.546875 0.578125
vt 0.546875 0.5625
vt 0.421875 0.8828125
vt 0.421875 0.9375
vt 0.328125 0.9375
vt 0.328125 0.8828125
vt 0.421875 0.9453125
vt 0.421875 1
vt 0.328125 1
vt 0.328125 0.9453125
vt 0.28125 0.4296875
vt 0.28125 0.484375
vt 0.265625 0.484375
vt 0.265625 0.4296875
vt 0.296875 0.4296875
vt 0.296875 0.484375
vt 0.28125 0.484375
vt 0.28125 0.4296875
vt 0.453125 0.5625
vt 0.453125 0.546875
vt 0.546875 0.546875
vt 0.546875 0.5625
vt 0.453125 0.53125
vt 0.453125 0.546875
vt 0.546875 0.546875
vt 0.546875 0.53125
vt 0.296875 0.6015625
vt 0.296875 0.65625
vt 0.203125 0.65625
vt 0.203125 0.6015625
vt 0.203125 0.6015625
vt 0.203125 0.65625
vt 0.109375 0.65625
vt 0.109375 0.6015625
vt 0.40625 0.453125
vt 0.40625 0.546875
vt 0.390625 0.546875
vt 0.390625 0.453125
vt 0.421875 0.453125
vt 0.421875 0.546875
vt 0.40625 0.546875
vt 0.40625 0.453125
vt 0.546875 0.765625
vt 0.546875 0.75
vt 0.5859375 0.75
vt 0.5859375 0.765625
vt 0.546875 0.71875
vt 0.546875 0.734375
vt 0.5859375 0.734375
vt 0.5859375 0.71875
vt 0.2578125 0.5
vt 0.2578125 0.59375
vt 0.21875 0.59375
vt 0.21875 0.5
vt 0.4140625 0.78125
vt 0.4140625 0.875
vt 0.375 0.875
vt 0.375 0.78125
vt 0.25 0.7265625
vt 0.25 0.75
vt 0.234375 0.75
vt 0.234375 0.7265625
vt 0.59375 0.8359375
vt 0.59375 0.859375
vt 0.578125 0.859375
vt 0.578125 0.8359375
vt 0.21875 0.875
vt 0.21875 0.859375
vt 0.25 0.859375
vt 0.25 0.875
vt 0.203125 0.421875
vt 0.203125 0.4375
vt 0.234375 0.4375
vt 0.234375 0.421875
vt 0.5625 0.4921875
vt 0.5625 0.515625
vt 0.53125 0.515625
vt 0.53125 0.4921875
vt 0.109375 0.6015625
vt 0.109375 0.625
vt 0.078125 0.625
vt 0.078125 0.6015625
vt 0.28125 0.3984375
vt 0.28125 0.421875
vt 0.265625 0.421875
vt 0.265625 0.3984375
vt 0.296875 0.3984375
vt 0.296875 0.421875
vt 0.28125 0.421875
vt 0.28125 0.3984375
vt 0.546875 0.71875
vt 0.546875 0.703125
vt 0.5859375 0.703125
vt 0.5859375 0.71875
vt 0.546875 0.6875
vt 0.546875 0.703125
vt 0.5859375 0.703125
vt 0.5859375 0.6875
vt 0.5390625 0.6640625
vt 0.5390625 0.6875
vt 0.5 0.6875
vt 0.5 0.6640625
vt 0.5390625 0.7578125
vt 0.5390625 0.78125
vt 0.5 0.78125
vt 0.5 0.7578125
vt 0.34375 0.3984375
vt 0.34375 0.421875
vt 0.328125 0.421875
vt 0.328125 0.3984375
vt 0.359375 0.3984375
vt 0.359375 0.421875
vt 0.34375 0.421875
vt 0.34375 0.3984375
vt 0.546875 0.6875
vt 0.546875 0.671875
vt 0.5859375 0.671875
vt 0.5859375 0.6875
vt 0.546875 0.65625
vt 0.546875 0.671875
vt 0.5859375 0.671875
vt 0.5859375 0.65625
vt 0.5546875 0.9453125
vt 0.5546875 0.96875
vt 0.515625 0.96875
vt 0.515625 0.9453125
vt 0.5546875 0.9765625
vt 0.5546875 1
vt 0.515625 1
vt 0.515625 0.9765625
vt 0.4375 0.421875
vt 0.4375 0.46875
vt 0.421875 0.46875
vt 0.421875 0.421875
vt 0.546875 0.4375
vt 0.546875 0.484375
vt 0.53125 0.484375
vt 0.53125 0.4375
vt 0.328125 0.4375
vt 0.328125 0.421875
vt 0.359375 0.421875
vt 0.359375 0.4375
vt 0.375 0.421875
vt 0.375 0.4375
vt 0.40625 0.4375
vt 0.40625 0.421875
vt 0.5 0.640625
vt 0.5 0.6875
vt 0.46875 0.6875
vt 0.46875 0.640625
vt 0.5 0.734375
vt 0.5 0.78125
vt 0.46875 0.78125
vt 0.46875 0.734375
vt 0.5234375 0.421875
vt 0.5234375 0.53125
vt 0.515625 0.53125
vt 0.515625 0.421875
vt 0.4921875 0.375
vt 0.4921875 0.484375
vt 0.484375 0.484375
vt 0.484375 0.375
vt 0.59375 0.90625
vt 0.59375 0.8984375
vt 0.6328125 0.8984375
vt 0.6328125 0.90625
vt 0.59375 0.8828125
vt 0.59375 0.890625
vt 0.6328125 0.890625
vt 0.6328125 0.8828125
vt 0.1171875 0.484375
vt 0.1171875 0.59375
vt 0.078125 0.59375
vt 0.078125 0.484375
vt 0.4140625 0.546875
vt 0.4140625 0.65625
vt 0.375 0.65625
vt 0.375 0.546875
vt 0.46875 0.4375
vt 0.46875 0.53125
vt 0.453125 0.53125
vt 0.453125 0.4375
vt 0.484375 0.4375
vt 0.484375 0.53125
vt 0.46875 0.53125
vt 0.46875 0.4375
vt 0.546875 0.640625
vt 0.546875 0.625
vt 0.5859375 0.625
vt 0.5859375 0.640625
vt 0.375 0.4375
vt 0.375 0.453125
vt 0.4140625 0.453125
vt 0.4140625 0.4375
vt 0.3515625 0.5
vt 0.3515625 0.59375
vt 0.3125 0.59375
vt 0.3125 0.5
vt 0.3046875 0.5
vt 0.3046875 0.59375
vt 0.265625 0.59375
vt 0.265625 0.5
vt 0.390625 0.3984375
vt 0.390625 0.421875
vt 0.375 0.421875
vt 0.375 0.3984375
vt 0.40625 0.3984375
vt 0.40625 0.421875
vt 0.390625 0.421875
vt 0.390625 0.3984375
vt 0.4375 0.4375
vt 0.4375 0.421875
vt 0.46875 0.421875
vt 0.46875 0.4375
vt 0.5625 0.4375
vt 0.5625 0.453125
vt 0.59375 0.453125
vt 0.59375 0.4375
vt 0.09375 0.4296875
vt 0.09375 0.453125
vt 0.0625 0.453125
vt 0.0625 0.4296875
vt 0.03125 0.4296875
vt 0.03125 0.453125
vt 0 0.453125
vt 0 0.4296875
vt 0.4375 0.3984375
vt 0.4375 0.421875
vt 0.421875 0.421875
vt 0.421875 0.3984375
vt 0.453125 0.3984375
vt 0.453125 0.421875
vt 0.4375 0.421875
vt 0.4375 0.3984375
vt 0.546875 0.59375
vt 0.546875 0.578125
vt 0.5859375 0.578125
vt 0.5859375 0.59375
vt 0.546875 0.5625
vt 0.546875 0.578125
vt 0.5859375 0.578125
vt 0.5859375 0.5625
vt 0.1640625 0.4609375
vt 0.1640625 0.484375
vt 0.125 0.484375
vt 0.125 0.4609375
vt 0.1171875 0.4609375
vt 0.1171875 0.484375
vt 0.078125 0.484375
vt 0.078125 0.4609375
vt 0.109375 0.40625
vt 0.109375 0.453125
vt 0.09375 0.453125
vt 0.09375 0.40625
vt 0.125 0.40625
vt 0.125 0.453125
vt 0.109375 0.453125
vt 0.109375 0.40625
vt 0.5625 0.4375
vt 0.5625 0.421875
vt 0.59375 0.421875
vt 0.59375 0.4375
vt 0 0.40625
vt 0 0.421875
vt 0.03125 0.421875
vt 0.03125 0.40625
vt 0.03125 0.453125
vt 0.03125 0.5
vt 0 0.5
vt 0 0.453125
vt 0.515625 0.484375
vt 0.515625 0.53125
vt 0.484375 0.53125
vt 0.484375 0.484375
vt 0.46875 0.3984375
vt 0.46875 0.421875
vt 0.453125 0.421875
vt 0.453125 0.3984375
vt 0.53125 0.3984375
vt 0.53125 0.421875
vt 0.515625 0.421875
vt 0.515625 0.3984375
vt 0.546875 0.5625
vt 0.546875 0.546875
vt 0.5859375 0.546875
vt 0.5859375 0.5625
vt 0.546875 0.53125
vt 0.546875 0.546875
vt 0.5859375 0.546875
vt 0.5859375 0.53125
vt 0.2578125 0.4609375
vt 0.2578125 0.484375
vt 0.21875 0.484375
vt 0.21875 0.4609375
vt 0.2109375 0.4609375
vt 0.2109375 0.484375
vt 0.171875 0.484375
vt 0.171875 0.4609375
vt 0.5078125 0.375
vt 0.5078125 0.484375
vt 0.5 0.484375
vt 0.5 0.375
vt 0.3671875 0.359375
vt 0.3671875 0.46875
vt 0.359375 0.46875
vt 0.359375 0.359375
vt 0.59375 0.875
vt 0.59375 0.8671875
vt 0.6328125 0.8671875
vt 0.6328125 0.875
vt 0.140625 0.3984375
vt 0.140625 0.40625
vt 0.1796875 0.40625
vt 0.1796875 0.3984375
vt 0.2109375 0.484375
vt 0.2109375 0.59375
vt 0.171875 0.59375
vt 0.171875 0.484375
vt 0.1640625 0.484375
vt 0.1640625 0.59375
vt 0.125 0.59375
vt 0.125 0.484375
vt 0.421875 0.65625
vt 0.421875 0.71875
vt 0.34375 0.71875
vt 0.34375 0.65625
vt 0.375 0.59375
vt 0.375 0.65625
vt 0.296875 0.65625
vt 0.296875 0.59375
vt 0.234375 0.453125
vt 0.234375 0.375
vt 0.2421875 0.375
vt 0.2421875 0.453125
vt 0.25 0.375
vt 0.25 0.453125
vt 0.2578125 0.453125
vt 0.2578125 0.375
vt 0.4765625 0.375
vt 0.4765625 0.4375
vt 0.46875 0.4375
vt 0.46875 0.375
vt 0.4140625 0.375
vt 0.4140625 0.4375
vt 0.40625 0.4375
vt 0.40625 0.375
vt 0.4375 0.71875
vt 0.4375 0.78125
vt 0.359375 0.78125
vt 0.359375 0.71875
vt 0.078125 0.5625
vt 0.078125 0.625
vt 0 0.625
vt 0 0.5625
vt 0.546875 0.484375
vt 0.546875 0.40625
vt 0.5546875 0.40625
vt 0.5546875 0.484375
vt 0.1875 0.359375
vt 0.1875 0.4375
vt 0.1953125 0.4375
vt 0.1953125 0.359375
vt 0.0390625 0.359375
vt 0.0390625 0.421875
vt 0.03125 0.421875
vt 0.03125 0.359375
vt 0.5390625 0.375
vt 0.5390625 0.4375
vt 0.53125 0.4375
vt 0.53125 0.375
vt 0.03125 0.5
vt 0.03125 0.5625
vt 0 0.5625
vt 0 0.5
vt 0.0625 0.5
vt 0.0625 0.5625
vt 0.03125 0.5625
vt 0.03125 0.5
vt 0 0.40625
vt 0 0.375
vt 0.0078125 0.375
vt 0.0078125 0.40625
vt 0.015625 0.375
vt 0.015625 0.40625
vt 0.0234375 0.40625
vt 0.0234375 0.375
vt 0.0703125 0.359375
vt 0.0703125 0.421875
vt 0.0625 0.421875
vt 0.0625 0.359375
vt 0.0546875 0.359375
vt 0.0546875 0.421875
vt 0.046875 0.421875
vt 0.046875 0.359375
vt 0.46875 0.71875
vt 0.46875 0.78125
vt 0.4375 0.78125
vt 0.4375 0.71875
vt 0.46875 0.625
vt 0.46875 0.6875
vt 0.4375 0.6875
vt 0.4375 0.625
vt 0.59375 0.859375
vt 0.59375 0.828125
vt 0.6015625 0.828125
vt 0.6015625 0.859375
vt 0.59375 0.78125
vt 0.59375 0.8125
vt 0.6015625 0.8125
vt 0.6015625 0.78125
vt 0.5859375 0.859375
vt 0.5859375 0.921875
vt 0.578125 0.921875
vt 0.578125 0.859375
vt 0.0859375 0.359375
vt 0.0859375 0.421875
vt 0.078125 0.421875
vt 0.078125 0.359375
vt 0.5 0.953125
vt 0.5 1
vt 0.421875 1
vt 0.421875 0.953125
vt 0.5 0.90625
vt 0.5 0.953125
vt 0.421875 0.953125
vt 0.421875 0.90625
vt 0.4375 0.515625
vt 0.4375 0.4375
vt 0.453125 0.4375
vt 0.453125 0.515625
vt 0.5 0.921875
vt 0.5 1
vt 0.515625 1
vt 0.515625 0.921875
vt 0.15625 0.40625
vt 0.15625 0.453125
vt 0.140625 0.453125
vt 0.140625 0.40625
vt 0.140625 0.40625
vt 0.140625 0.453125
vt 0.125 0.453125
vt 0.125 0.40625
vt 0.5 0.859375
vt 0.5 0.90625
vt 0.421875 0.90625
vt 0.421875 0.859375
vt 0.5 0.8125
vt 0.5 0.859375
vt 0.421875 0.859375
vt 0.421875 0.8125
vt 0.03125 0.5
vt 0.03125 0.421875
vt 0.046875 0.421875
vt 0.046875 0.5
vt 0.046875 0.421875
vt 0.046875 0.5
vt 0.0625 0.5
vt 0.0625 0.421875
vt 0.1875 0.40625
vt 0.1875 0.453125
vt 0.171875 0.453125
vt 0.171875 0.40625
vt 0.171875 0.40625
vt 0.171875 0.453125
vt 0.15625 0.453125
vt 0.15625 0.40625
vt 0.6015625 0.6875
vt 0.6015625 0.703125
vt 0.59375 0.703125
vt 0.59375 0.6875
vt 0.6015625 0.671875
vt 0.6015625 0.6875
vt 0.59375 0.6875
vt 0.59375 0.671875
vt 0.5625 0.515625
vt 0.5625 0.5078125
vt 0.6328125 0.5078125
vt 0.6328125 0.515625
vt 0.5625 0.4921875
vt 0.5625 0.5
vt 0.6328125 0.5
vt 0.6328125 0.4921875
vt 0.5703125 0.828125
vt 0.5703125 0.84375
vt 0.5 0.84375
vt 0.5 0.828125
vt 0.5703125 0.84375
vt 0.5703125 0.859375
vt 0.5 0.859375
vt 0.5 0.84375
vt 0.6015625 0.65625
vt 0.6015625 0.671875
vt 0.59375 0.671875
vt 0.59375 0.65625
vt 0.6015625 0.625
vt 0.6015625 0.640625
vt 0.59375 0.640625
vt 0.59375 0.625
vt 0.578125 0.828125
vt 0.578125 0.8203125
vt 0.625 0.8203125
vt 0.625 0.828125
vt 0.5625 0.4140625
vt 0.5625 0.421875
vt 0.609375 0.421875
vt 0.609375 0.4140625
vt 0.59375 0.796875
vt 0.59375 0.8125
vt 0.546875 0.8125
vt 0.546875 0.796875
vt 0.234375 0.4375
vt 0.234375 0.453125
vt 0.1875 0.453125
vt 0.1875 0.4375
vt 0.6015625 0.578125
vt 0.6015625 0.59375
vt 0.59375 0.59375
vt 0.59375 0.578125
vt 0.6015625 0.5625
vt 0.6015625 0.578125
vt 0.59375 0.578125
vt 0.59375 0.5625
vt 0.59375 0.921875
vt 0.59375 0.9140625
vt 0.640625 0.9140625
vt 0.640625 0.921875
vt 0.09375 0.3984375
vt 0.09375 0.40625
vt 0.140625 0.40625
vt 0.140625 0.3984375
vt 0.59375 0.765625
vt 0.59375 0.78125
vt 0.546875 0.78125
vt 0.546875 0.765625
vt 0.59375 0.78125
vt 0.59375 0.796875
vt 0.546875 0.796875
vt 0.546875 0.78125
vt 0.6015625 0.546875
vt 0.6015625 0.5625
vt 0.59375 0.5625
vt 0.59375 0.546875
vt 0.6015625 0.53125
vt 0.6015625 0.546875
vt 0.59375 0.546875
vt 0.59375 0.53125
vt 0.5625 0.484375
vt 0.5625 0.4765625
vt 0.6328125 0.4765625
vt 0.6328125 0.484375
vt 0.5625 0.4609375
vt 0.5625 0.46875
vt 0.6328125 0.46875
vt 0.6328125 0.4609375
vt 0.2890625 0.484375
vt 0.2890625 0.5
vt 0.21875 0.5
vt 0.21875 0.484375
vt 0.5703125 0.8125
vt 0.5703125 0.828125
vt 0.5 0.828125
vt 0.5 0.8125
vt 0.2109375 0.359375
vt 0.2109375 0.421875
vt 0.203125 0.421875
vt 0.203125 0.359375
vt 0.2265625 0.359375
vt 0.2265625 0.421875
vt 0.21875 0.421875
vt 0.21875 0.359375
vt 0.5 0.75
vt 0.5 0.7421875
vt 0.609375 0.7421875
vt 0.609375 0.75
vt 0.5 0.6484375
vt 0.5 0.65625
vt 0.609375 0.65625
vt 0.609375 0.6484375
vt 0.34375 0.65625
vt 0.34375 0.71875
vt 0.234375 0.71875
vt 0.234375 0.65625
vt 0.359375 0.71875
vt 0.359375 0.78125
vt 0.25 0.78125
vt 0.25 0.71875
vt 0.5546875 0.390625
vt 0.5546875 0.40625
vt 0.546875 0.40625
vt 0.546875 0.390625
vt 0.6015625 0.4375
vt 0.6015625 0.453125
vt 0.59375 0.453125
vt 0.59375 0.4375
vt 0.5625 0.40625
vt 0.5625 0.3984375
vt 0.578125 0.3984375
vt 0.578125 0.40625
vt 0.59375 0.4296875
vt 0.59375 0.4375
vt 0.609375 0.4375
vt 0.609375 0.4296875
vt 0.609375 0.75
vt 0.609375 0.765625
vt 0.59375 0.765625
vt 0.59375 0.75
vt 0.609375 0.765625
vt 0.609375 0.78125
vt 0.59375 0.78125
vt 0.59375 0.765625
vt 0.5859375 0.390625
vt 0.5859375 0.40625
vt 0.578125 0.40625
vt 0.578125 0.390625
vt 0.6015625 0.390625
vt 0.6015625 0.40625
vt 0.59375 0.40625
vt 0.59375 0.390625
vt 0.09375 0.390625
vt 0.09375 0.3828125
vt 0.109375 0.3828125
vt 0.109375 0.390625
vt 0.109375 0.3828125
vt 0.109375 0.390625
vt 0.125 0.390625
vt 0.125 0.3828125
vt 0.609375 0.703125
vt 0.609375 0.71875
vt 0.59375 0.71875
vt 0.59375 0.703125
vt 0.609375 0.71875
vt 0.609375 0.734375
vt 0.59375 0.734375
vt 0.59375 0.71875
vt 0.1328125 0.375
vt 0.1328125 0.390625
vt 0.125 0.390625
vt 0.125 0.375
vt 0.1484375 0.375
vt 0.1484375 0.390625
vt 0.140625 0.390625
vt 0.140625 0.375
vt 0.5625 1
vt 0.5625 0.9921875
vt 0.640625 0.9921875
vt 0.640625 1
vt 0.5625 0.9765625
vt 0.5625 0.984375
vt 0.640625 0.984375
vt 0.640625 0.9765625
vt 0.546875 0.625
vt 0.546875 0.640625
vt 0.46875 0.640625
vt 0.46875 0.625
vt 0.546875 0.71875
vt 0.546875 0.734375
vt 0.46875 0.734375
vt 0.46875 0.71875
vt 0.6171875 0.84375
vt 0.6171875 0.859375
vt 0.609375 0.859375
vt 0.609375 0.84375
vt 0.1640625 0.375
vt 0.1640625 0.390625
vt 0.15625 0.390625
vt 0.15625 0.375
vt 0.5625 0.96875
vt 0.5625 0.9609375
vt 0.640625 0.9609375
vt 0.640625 0.96875
vt 0.5625 0.9453125
vt 0.5625 0.953125
vt 0.640625 0.953125
vt 0.640625 0.9453125
vt 0.578125 0.890625
vt 0.578125 0.90625
vt 0.5 0.90625
vt 0.5 0.890625
vt 0.578125 0.90625
vt 0.578125 0.921875
vt 0.5 0.921875
vt 0.5 0.90625
vt 0.6171875 0.828125
vt 0.6171875 0.84375
vt 0.609375 0.84375
vt 0.609375 0.828125
vt 0.1796875 0.375
vt 0.1796875 0.390625
vt 0.171875 0.390625
vt 0.171875 0.375
vt 0.5625 0.625
vt 0.5625 0.6171875
vt 0.640625 0.6171875
vt 0.640625 0.625
vt 0.5625 0.6015625
vt 0.5625 0.609375
vt 0.640625 0.609375
vt 0.640625 0.6015625
vt 0.578125 0.859375
vt 0.578125 0.875
vt 0.5 0.875
vt 0.5 0.859375
vt 0.578125 0.875
vt 0.578125 0.890625
vt 0.5 0.890625
vt 0.5 0.875
vn 1 0 0
vn -1 0 0
vn 0 1 0
vn 0 -1 0
vn 0 0 1
vn 0 0 -1
vn 1 0 0
vn -1 0 0
vn 0 1 0
vn 0 -1 0
vn 0 0 1
vn 0 0 -1
vn 1 0 0
vn -1 0 0
vn 0 1 0
vn 0 -1 0
vn 0 0 1
vn 0 0 -1
vn 1 0 0
vn -1 0 0
vn 0 0.9993908270190958 0.03489949670250067
vn 0 -0.9993908270190958 -0.03489949670250289
vn 0 -0.03489949670250096 0.9993908270190959
vn 0 0.03489949670250097 -0.9993908270190959
vn 1 0 0
vn -1 0 0
vn 0 0.9781476007338056 0.2079116908177596
vn 0 -0.9781476007338056 -0.2079116908177596
vn 0 -0.20791169081775926 0.9781476007338057
vn 0 0.20791169081775926 -0.9781476007338057
vn 1 0 0
vn -1 0 0
vn 0 0.9975640502598243 -0.0697564737441248
vn 0 -0.9975640502598243 0.0697564737441248
vn 0 0.06975647374412526 0.9975640502598243
vn 0 -0.06975647374412526 -0.9975640502598243
vn 0.9574818564260025 0.28128275914722306 0.06409761322811863
vn -0.9574818564260025 -0.281282759147223 -0.06409761322811752
vn -0.275056344377832 0.9570859180594433 -0.09127186242109932
vn 0.27505634437783055 -0.9570859180594438 0.09127186242109922
vn -0.08702012429616521 0.06976069709254298 0.9937610090502861
vn 0.08702012429616514 -0.0697606970925429 -0.993761009050286
vn 0.9574817175661282 0.28128323424922136 0.06409760258320996
vn -0.9574817175661278 -0.2812832342492223 -0.06409760258320928
vn 0.0027991353978144957 0.21311175450296743 -0.9770238200441645
vn -0.002799135397815066 -0.21311175450296677 0.9770238200441647
vn -0.2884803725864936 0.9356618631872121 0.2032632588772328
vn 0.2884803725864937 -0.9356618631872119 -0.20326325887723262
vn 0.9579455165477692 0.2756990113993287 0.07956407756934361
vn -0.9579455165477693 -0.2756990113993287 -0.0795640775693433
vn -0.1318030867310534 0.17646028545825565 0.9754433422727112
vn 0.13180308673105345 -0.17646028545825604 -0.975443342272711
vn 0.2548888653005342 -0.9449083673930635 0.20537732001460565
vn -0.2548888653005341 0.9449083673930634 -0.20537732001460554
vn 0.9579455165477695 0.2756990113993286 0.07956407756934256
vn -0.9579455165477695 -0.27569901139932856 -0.07956407756934257
vn -0.13180308673105356 0.1764602854582564 0.975443342272711
vn 0.1318030867310536 -0.1764602854582564 -0.975443342272711
vn 0.2548888653005338 -0.944908367393063 0.20537732001460804
vn -0.25488886530053384 0.9449083673930629 -0.20537732001460812
vn 0.9579455165477696 0.2756990113993279 0.07956407756934301
vn -0.9579455165477692 -0.27569901139932923 -0.07956407756934258
vn -0.13180308673105354 0.17646028545825554 0.975443342272711
vn 0.13180308673105326 -0.1764602854582558 -0.975443342272711
vn 0.25488886530053356 -0.9449083673930633 0.20537732001460732
vn -0.254888865300535 0.9449083673930627 -0.20537732001460743
vn 0.9579455504865694 0.2756986864317562 0.07956479499620382
vn -0.9579455504865694 -0.27569868643175627 -0.07956479499620346
vn -0.28612585428506965 0.9387411480584377 0.1920860548076447
vn 0.2861258542850696 -0.9387411480584388 -0.19208605480763982
vn -0.021732874007444922 -0.20677352645280486 0.9781474280217926
vn 0.021732874007444697 0.20677352645280492 -0.9781474280217926
vn 0.9574818564260026 -0.2812827591472232 -0.06409761322811755
vn -0.9574818564260025 0.2812827591472231 0.06409761322811863
vn 0.27505634437783205 0.9570859180594434 -0.09127186242109901
vn -0.2750563443778305 -0.9570859180594438 0.09127186242109922
vn 0.08702012429616518 0.0697606970925429 0.993761009050286
vn -0.08702012429616518 -0.06976069709254303 -0.993761009050286
vn 0.9574817175661278 -0.2812832342492221 -0.06409760258321037
vn -0.9574817175661281 0.28128323424922125 0.06409760258321023
vn -0.0027991353978144818 0.21311175450296746 -0.9770238200441645
vn 0.002799135397815281 -0.21311175450296602 0.9770238200441648
vn 0.28848037258649367 0.9356618631872126 0.2032632588772309
vn -0.28848037258649367 -0.9356618631872119 -0.20326325887723268
vn 0.9579455165477693 -0.2756990113993286 -0.07956407756934329
vn -0.9579455165477693 0.2756990113993287 0.0795640775693433
vn 0.13180308673105337 0.17646028545825565 0.9754433422727112
vn -0.13180308673105345 -0.17646028545825604 -0.975443342272711
vn -0.2548888653005342 -0.9449083673930634 0.20537732001460562
vn 0.2548888653005342 0.9449083673930634 -0.20537732001460562
vn 0.957945516547769 -0.2756990113993292 -0.07956407756934285
vn -0.9579455165477696 0.27569901139932795 0.07956407756934301
vn 0.1318030867310537 0.1764602854582561 0.9754433422727111
vn -0.13180308673105345 -0.17646028545825646 -0.9754433422727109
vn -0.2548888653005336 -0.9449083673930634 0.20537732001460735
vn 0.254888865300535 0.9449083673930627 -0.20537732001460737
vn 0.9579455165477695 -0.27569901139932856 -0.07956407756934258
vn -0.9579455165477695 0.2756990113993286 0.07956407756934254
vn 0.13180308673105345 0.176460285458256 0.975443342272711
vn -0.13180308673105345 -0.17646028545825604 -0.975443342272711
vn -0.25488886530053384 -0.9449083673930629 0.20537732001460812
vn 0.25488886530053384 0.944908367393063 -0.20537732001460804
vn 0.9579455504865694 -0.2756986864317563 -0.07956479499620352
vn -0.9579455504865694 0.2756986864317563 0.07956479499620385
vn 0.2861258542850696 0.9387411480584387 0.19208605480763957
vn -0.2861258542850697 -0.9387411480584379 -0.19208605480764446
vn 0.02173287400744491 -0.20677352645280483 0.9781474280217926
vn -0.021732874007444797 0.20677352645280478 -0.9781474280217926
vn 0.9961946980917455 0 0.08715574274765822
vn -0.9961946980917455 0 -0.08715574274765822
vn 0 1 0
vn 0 -1 0
vn -0.08715574274765849 0 0.9961946980917457
vn 0.08715574274765849 0 -0.9961946980917457
vn 0.9961946980917455 0 -0.08715574274765822
vn -0.9961946980917455 0 0.08715574274765822
vn 0 1 0
vn 0 -1 0
vn 0.08715574274765849 0 0.9961946980917457
vn -0.08715574274765849 0 -0.9961946980917457
vn 0.8703556959398998 0 -0.492423560103467
vn -0.8703556959398998 0 0.4924235601034672
vn 0 1 0
vn 0 -1 0
vn 0.49242356010346594 0 0.8703556959399004
vn -0.49242356010346705 0 -0.8703556959398997
vn 0.8703556959398998 0 0.4924235601034672
vn -0.8703556959398998 0 -0.492423560103467
vn 0 1 0
vn 0 -1 0
vn -0.49242356010346594 0 0.8703556959399004
vn 0.49242356010346705 0 -0.8703556959398997
vn 1 0 0
vn -1 0 0
vn 0 1 0
vn 0 -1 0
vn 0 0 1
vn 0 0 -1
vn 1 0 0
vn -1 0 0
vn 0 1 0
vn 0 -1 0
vn 0 0 1
vn 0 0 -1
vn 1 0 0
vn -1 0 0
vn 0 1 0
vn 0 -1 0
vn 0 0 1
vn 0 0 -1
vn 1 0 0
vn -1 0 0
vn 0 0.9781476007338069 0.20791169081775332
vn 0 -0.9781476007338069 -0.20791169081775332
vn 0 -0.20791169081775918 0.9781476007338057
vn 0 0.20791169081775918 -0.9781476007338057
vn 1 0 0
vn -1 0 0
vn 0 0.9781476007338069 0.20791169081775332
vn 0 -0.9781476007338068 -0.20791169081775426
vn 0 -0.2079116908177596 0.9781476007338056
vn 0 0.20791169081775918 -0.9781476007338057
vn 1 0 0
vn -1 0 0
vn 0 1 0
vn 0 -1 0
vn 0 0 1
vn 0 0 -1
vn 1 0 0
vn -1 0 0
vn 0 1 0
vn 0 -1 0
vn 0 0 1
vn 0 0 -1
vn 1 0 0
vn -1 0 0
vn 0 1 0
vn 0 -1 0
vn 0 0 1
vn 0 0 -1
vn 1 0 0
vn -1 0 0
vn 0 1 0
vn 0 -1 0
vn 0 0 1
vn 0 0 -1
vn 1 0 0
vn -1 0 0
vn 0 1 0
vn 0 -1 0
vn 0 0 1
vn 0 0 -1
vn 1 0 0
vn -1 0 0
vn 0 0.9975640502598231 -0.06975647374414286
vn 0 -0.9975640502598231 0.06975647374414223
vn 0 0.06975647374412557 0.9975640502598242
vn 0 -0.06975647374412469 -0.9975640502598244
vn 1 0 0
vn -1 0 0
vn 0 0.9975640502598255 -0.0697564737441075
vn 0 -0.9975640502598231 0.06975647374414223
vn 0 0.0697564737441267 0.9975640502598242
vn 0 -0.06975647374412557 -0.9975640502598242
usemtl m_e409f1db-ec3f-a2ff-f32e-ccfce4363983
f 4/1/1 2/2/1 1/3/1 3/4/1
f 7/5/2 5/6/2 6/7/2 8/8/2
f 1/9/3 2/10/3 6/11/3 5/12/3
f 4/13/4 3/14/4 7/15/4 8/16/4
f 3/17/5 1/18/5 5/19/5 7/20/5
f 8/21/6 6/22/6 2/23/6 4/24/6
f 12/25/7 10/26/7 9/27/7 11/28/7
f 15/29/8 13/30/8 14/31/8 16/32/8
f 9/33/9 10/34/9 14/35/9 13/36/9
f 12/37/10 11/38/10 15/39/10 16/40/10
f 11/41/11 9/42/11 13/43/11 15/44/11
f 16/45/12 14/46/12 10/47/12 12/48/12
f 20/49/13 18/50/13 17/51/13 19/52/13
f 23/53/14 21/54/14 22/55/14 24/56/14
f 17/57/15 18/58/15 22/59/15 21/60/15
f 20/61/16 19/62/16 23/63/16 24/64/16
f 19/65/17 17/66/17 21/67/17 23/68/17
f 24/69/18 22/70/18 18/71/18 20/72/18
f 28/73/19 26/74/19 25/75/19 27/76/19
f 31/77/20 29/78/20 30/79/20 32/80/20
f 25/81/21 26/82/21 30/83/21 29/84/21
f 28/85/22 27/86/22 31/87/22 32/88/22
f 27/89/23 25/90/23 29/91/23 31/92/23
f 32/93/24 30/94/24 26/95/24 28/96/24
f 36/97/25 34/98/25 33/99/25 35/100/25
f 39/101/26 37/102/26 38/103/26 40/104/26
f 33/105/27 34/106/27 38/107/27 37/108/27
f 36/109/28 35/110/28 39/111/28 40/112/28
f 35/113/29 33/114/29 37/115/29 39/116/29
f 40/117/30 38/118/30 34/119/30 36/120/30
f 44/121/31 42/122/31 41/123/31 43/124/31
f 47/125/32 45/126/32 46/127/32 48/128/32
f 41/129/33 42/130/33 46/131/33 45/132/33
f 44/133/34 43/134/34 47/135/34 48/136/34
f 43/137/35 41/138/35 45/139/35 47/140/35
f 48/141/36 46/142/36 42/143/36 44/144/36
f 52/145/37 50/146/37 49/147/37 51/148/37
f 55/149/38 53/150/38 54/151/38 56/152/38
f 49/153/39 50/154/39 54/155/39 53/156/39
f 52/157/40 51/158/40 55/159/40 56/160/40
f 51/161/41 49/162/41 53/163/41 55/164/41
f 56/165/42 54/166/42 50/167/42 52/168/42
f 60/169/43 58/170/43 57/171/43 59/172/43
f 63/173/44 61/174/44 62/175/44 64/176/44
f 57/177/45 58/178/45 62/179/45 61/180/45
f 60/181/46 59/182/46 63/183/46 64/184/46
f 59/185/47 57/186/47 61/187/47 63/188/47
f 64/189/48 62/190/48 58/191/48 60/192/48
f 68/193/49 66/194/49 65/195/49 67/196/49
f 71/197/50 69/198/50 70/199/50 72/200/50
f 65/201/51 66/202/51 70/203/51 69/204/51
f 68/205/52 67/206/52 71/207/52 72/208/52
f 67/209/53 65/210/53 69/211/53 71/212/53
f 72/213/54 70/214/54 66/215/54 68/216/54
f 76/217/55 74/218/55 73/219/55 75/220/55
f 79/221/56 77/222/56 78/223/56 80/224/56
f 73/225/57 74/226/57 78/227/57 77/228/57
f 76/229/58 75/230/58 79/231/58 80/232/58
f 75/233/59 73/234/59 77/235/59 79/236/59
f 80/237/60 78/238/60 74/239/60 76/240/60
f 84/241/61 82/242/61 81/243/61 83/244/61
f 87/245/62 85/246/62 86/247/62 88/248/62
f 81/249/63 82/250/63 86/251/63 85/252/63
f 84/253/64 83/254/64 87/255/64 88/256/64
f 83/257/65 81/258/65 85/259/65 87/260/65
f 88/261/66 86/262/66 82/263/66 84/264/66
f 92/265/67 90/266/67 89/267/67 91/268/67
f 95/269/68 93/270/68 94/271/68 96/272/68
f 89/273/69 90/274/69 94/275/69 93/276/69
f 92/277/70 91/278/70 95/279/70 96/280/70
f 91/281/71 89/282/71 93/283/71 95/284/71
f 96/285/72 94/286/72 90/287/72 92/288/72
f 100/289/73 98/290/73 97/291/73 99/292/73
f 103/293/74 101/294/74 102/295/74 104/296/74
f 97/297/75 98/298/75 102/299/75 101/300/75
f 100/301/76 99/302/76 103/303/76 104/304/76
f 99/305/77 97/306/77 101/307/77 103/308/77
f 104/309/78 102/310/78 98/311/78 100/312/78
f 108/313/79 106/314/79 105/315/79 107/316/79
f 111/317/80 109/318/80 110/319/80 112/320/80
f 105/321/81 106/322/81 110/323/81 109/324/81
f 108/325/82 107/326/82 111/327/82 112/328/82
f 107/329/83 105/330/83 109/331/83 111/332/83
f 112/333/84 110/334/84 106/335/84 108/336/84
f 116/337/85 114/338/85 113/339/85 115/340/85
f 119/341/86 117/342/86 118/343/86 120/344/86
f 113/345/87 114/346/87 118/347/87 117/348/87
f 116/349/88 115/350/88 119/351/88 120/352/88
f 115/353/89 113/354/89 117/355/89 119/356/89
f 120/357/90 118/358/90 114/359/90 116/360/90
f 124/361/91 122/362/91 121/363/91 123/364/91
f 127/365/92 125/366/92 126/367/92 128/368/92
f 121/369/93 122/370/93 126/371/93 125/372/93
f 124/373/94 123/374/94 127/375/94 128/376/94
f 123/377/95 121/378/95 125/379/95 127/380/95
f 128/381/96 126/382/96 122/383/96 124/384/96
f 132/385/97 130/386/97 129/387/97 131/388/97
f 135/389/98 133/390/98 134/391/98 136/392/98
f 129/393/99 130/394/99 134/395/99 133/396/99
f 132/397/100 131/398/100 135/399/100 136/400/100
f 131/401/101 129/402/101 133/403/101 135/404/101
f 136/405/102 134/406/102 130/407/102 132/408/102
f 140/409/103 138/410/103 137/411/103 139/412/103
f 143/413/104 141/414/104 142/415/104 144/416/104
f 137/417/105 138/418/105 142/419/105 141/420/105
f 140/421/106 139/422/106 143/423/106 144/424/106
f 139/425/107 137/426/107 141/427/107 143/428/107
f 144/429/108 142/430/108 138/431/108 140/432/108
f 148/433/109 146/434/109 145/435/109 147/436/109
f 151/437/110 149/438/110 150/439/110 152/440/110
f 145/441/111 146/442/111 150/443/111 149/444/111
f 148/445/112 147/446/112 151/447/112 152/448/112
f 147/449/113 145/450/113 149/451/113 151/452/113
f 152/453/114 150/454/114 146/455/114 148/456/114
f 156/457/115 154/458/115 153/459/115 155/460/115
f 159/461/116 157/462/116 158/463/116 160/464/116
f 153/465/117 154/466/117 158/467/117 157/468/117
f 156/469/118 155/470/118 159/471/118 160/472/118
f 155/473/119 153/474/119 157/475/119 159/476/119
f 160/477/120 158/478/120 154/479/120 156/480/120
f 164/481/121 162/482/121 161/483/121 163/484/121
f 167/485/122 165/486/122 166/487/122 168/488/122
f 161/489/123 162/490/123 166/491/123 165/492/123
f 164/493/124 163/494/124 167/495/124 168/496/124
f 163/497/125 161/498/125 165/499/125 167/500/125
f 168/501/126 166/502/126 162/503/126 164/504/126
f 172/505/127 170/506/127 169/507/127 171/508/127
f 175/509/128 173/510/128 174/511/128 176/512/128
f 169/513/129 170/514/129 174/515/129 173/516/129
f 172/517/130 171/518/130 175/519/130 176/520/130
f 171/521/131 169/522/131 173/523/131 175/524/131
f 176/525/132 174/526/132 170/527/132 172/528/132
f 180/529/133 178/530/133 177/531/133 179/532/133
f 183/533/134 181/534/134 182/535/134 184/536/134
f 177/537/135 178/538/135 182/539/135 181/540/135
f 180/541/136 179/542/136 183/543/136 184/544/136
f 179/545/137 177/546/137 181/547/137 183/548/137
f 184/549/138 182/550/138 178/551/138 180/552/138
f 188/553/139 186/554/139 185/555/139 187/556/139
f 191/557/140 189/558/140 190/559/140 192/560/140
f 185/561/141 186/562/141 190/563/141 189/564/141
f 188/565/142 187/566/142 191/567/142 192/568/142
f 187/569/143 185/570/143 189/571/143 191/572/143
f 192/573/144 190/574/144 186/575/144 188/576/144
f 196/577/145 194/578/145 193/579/145 195/580/145
f 199/581/146 197/582/146 198/583/146 200/584/146
f 193/585/147 194/586/147 198/587/147 197/588/147
f 196/589/148 195/590/148 199/591/148 200/592/148
f 195/593/149 193/594/149 197/595/149 199/596/149
f 200/597/150 198/598/150 194/599/150 196/600/150
f 204/601/151 202/602/151 201/603/151 203/604/151
f 207/605/152 205/606/152 206/607/152 208/608/152
f 201/609/153 202/610/153 206/611/153 205/612/153
f 204/613/154 203/614/154 207/615/154 208/616/154
f 203/617/155 201/618/155 205/619/155 207/620/155
f 208/621/156 206/622/156 202/623/156 204/624/156
f 212/625/157 210/626/157 209/627/157 211/628/157
f 215/629/158 213/630/158 214/631/158 216/632/158
f 209/633/159 210/634/159 214/635/159 213/636/159
f 212/637/160 211/638/160 215/639/160 216/640/160
f 211/641/161 209/642/161 213/643/161 215/644/161
f 216/645/162 214/646/162 210/647/162 212/648/162
f 220/649/163 218/650/163 217/651/163 219/652/163
f 223/653/164 221/654/164 222/655/164 224/656/164
f 217/657/165 218/658/165 222/659/165 221/660/165
f 220/661/166 219/662/166 223/663/166 224/664/166
f 219/665/167 217/666/167 221/667/167 223/668/167
f 224/669/168 222/670/168 218/671/168 220/672/168
f 228/673/169 226/674/169 225/675/169 227/676/169
f 231/677/170 229/678/170 230/679/170 232/680/170
f 225/681/171 226/682/171 230/683/171 229/684/171
f 228/685/172 227/686/172 231/687/172 232/688/172
f 227/689/173 225/690/173 229/691/173 231/692/173
f 232/693/174 230/694/174 226/695/174 228/696/174
f 236/697/175 234/698/175 233/699/175 235/700/175
f 239/701/176 237/702/176 238/703/176 240/704/176
f 233/705/177 234/706/177 238/707/177 237/708/177
f 236/709/178 235/710/178 239/711/178 240/712/178
f 235/713/179 233/714/179 237/715/179 239/716/179
f 240/717/180 238/718/180 234/719/180 236/720/180
f 244/721/181 242/722/181 241/723/181 243/724/181
f 247/725/182 245/726/182 246/727/182 248/728/182
f 241/729/183 242/730/183 246/731/183 245/732/183
f 244/733/184 243/734/184 247/735/184 248/736/184
f 243/737/185 241/738/185 245/739/185 247/740/185
f 248/741/186 246/742/186 242/743/186 244/744/186
f 252/745/187 250/746/187 249/747/187 251/748/187
f 255/749/188 253/750/188 254/751/188 256/752/188
f 249/753/189 250/754/189 254/755/189 253/756/189
f 252/757/190 251/758/190 255/759/190 256/760/190
f 251/761/191 249/762/191 253/763/191 255/764/191
f 256/765/192 254/766/192 250/767/192 252/768/192
f 260/769/193 258/770/193 257/771/193 259/772/193
f 263/773/194 261/774/194 262/775/194 264/776/194
f 257/777/195 258/778/195 262/779/195 261/780/195
f 260/781/196 259/782/196 263/783/196 264/784/196
f 259/785/197 257/786/197 261/787/197 263/788/197
f 264/789/198 262/790/198 258/791/198 260/792/198
f 268/793/199 266/794/199 265/795/199 267/796/199
f 271/797/200 269/798/200 270/799/200 272/800/200
f 265/801/201 266/802/201 270/803/201 269/804/201
f 268/805/202 267/806/202 271/807/202 272/808/202
f 267/809/203 265/810/203 269/811/203 271/812/203
f 272/813/204 270/814/204 266/815/204 268/816/204
