# Made in Blockbench 5.1.6
mtllib berserk.mtl

o cube
v 0 1.25 -0.1625
v 0 1.25 -0.24375
v 0 0.83125 -0.1625
v 0 0.83125 -0.23125
v -0.25 1.25 -0.1625
v -0.25 1.25 -0.225
v -0.25 0.83125 -0.1625
v -0.25 0.83125 -0.225
v 0.25 1.25 -0.1625
v 0.25 1.25 -0.225
v 0.25 0.83125 -0.1625
v 0.25 0.83125 -0.225
v 0 1.25 -0.1625
v 0 1.25 -0.24375
v 0 0.83125 -0.1625
v 0 0.83125 -0.23125
v 0.25 1.25 0.2125
v 0.25 1.25 0.15
v 0.25 0.8375 0.2125
v 0.25 0.8375 0.15
v -0.25 1.25 0.2125
v -0.25 1.25 0.15
v -0.25 0.8375 0.2125
v -0.25 0.8375 0.15
v -0.125 1.409872435704599 -0.12633713002722374
v -0.125 1.422866916380709 -0.1874713550730866
v -0.125 1.23563989432389 -0.16337139995413713
v -0.125 1.249933823067611 -0.23061904750458628
v -0.25 1.409872435704599 -0.12633713002722374
v -0.25 1.400239305664484 -0.19228100220573519
v -0.25 1.23563989432389 -0.16337139995413713
v -0.25 1.248634375 -0.224505625
v 0 1.409872435704599 -0.12633713002722374
v 0 1.422866916380709 -0.1874713550730866
v 0 1.23563989432389 -0.16337139995413713
v 0 1.2494760079505398 -0.24349561654756435
v -0.125 1.409872435704599 -0.12633713002722374
v -0.125 1.422866916380709 -0.1874713550730866
v -0.125 1.23563989432389 -0.16337139995413713
v -0.125 1.249933823067611 -0.23061904750458628
v 0.25 1.409872435704599 -0.12633713002722374
v 0.25 1.400239305664484 -0.19228100220573519
v 0.25 1.23563989432389 -0.16337139995413713
v 0.25 1.248634375 -0.224505625
v 0.125 1.409872435704599 -0.12633713002722374
v 0.125 1.422866916380709 -0.1874713550730866
v 0.125 1.23563989432389 -0.16337139995413713
v 0.125 1.249933823067611 -0.23061904750458628
v -0.21031636856028357 1.586431294280851 0.16108384032054315
v -0.2059653623454753 1.5829432594262238 0.11139578986802887
v -0.11060844372331974 1.2394876489843027 0.1941698904481918
v -0.10625743750851147 1.2359996141296756 0.1444818399956775
v -0.37787569343483396 1.537206811430087 0.14986675800562246
v -0.3735246872200257 1.5337187765754599 0.10017870755310818
v -0.21832515257124502 1.2078433385802403 0.1869589089600285
v -0.21397414635643675 1.204355303725613 0.13727085850751422
v 0.37787569343483396 1.537206811430087 0.14986675800562246
v 0.3735246872200257 1.5337187765754599 0.10017870755310818
v 0.21832515257124502 1.2078433385802403 0.1869589089600285
v 0.21397414635643675 1.204355303725613 0.13727085850751422
v 0.21031636856028357 1.586431294280851 0.16108384032054315
v 0.2059653623454753 1.5829432594262238 0.11139578986802887
v 0.11060844372331974 1.2394876489843027 0.1941698904481918
v 0.10625743750851147 1.2359996141296756 0.1444818399956775
v 0.125 1.409872435704599 -0.12633713002722374
v 0.125 1.422866916380709 -0.1874713550730866
v 0.125 1.23563989432389 -0.16337139995413713
v 0.125 1.249933823067611 -0.23061904750458628
v 0 1.409872435704599 -0.12633713002722374
v 0 1.422866916380709 -0.1874713550730866
v 0 1.23563989432389 -0.16337139995413713
v 0 1.2494760079505398 -0.24349561654756435
v 0.0625 1.44398814217213 -0.152091897075763
v 0.0625 1.4467117591329943 -0.18322298139113008
v 0.0625 1.3817259735413956 -0.15753913099749164
v 0.0625 1.38444959050226 -0.1886702153128587
v -0.0625 1.44398814217213 -0.152091897075763
v -0.0625 1.4467117591329943 -0.18322298139113008
v -0.0625 1.3817259735413956 -0.15753913099749164
v -0.0625 1.38444959050226 -0.1886702153128587
v 0.04370214447680763 1.4400671574939898 -0.1504831287228955
v 0.047503220646340355 1.4483502189377286 -0.18037468627804235
v 0.08341267277924964 1.3570618352683863 -0.1684345332407793
v 0.08721374894878237 1.3653448967121251 -0.19832609079592617
v 0.1839608619868438 1.4997351514339985 -0.1161132994883044
v 0.18776193815637654 1.5080182128777373 -0.14600485704345126
v 0.22367139028928584 1.4167298292083952 -0.13406470400618822
v 0.22747246645881855 1.425012890652134 -0.16395626156133508
v -0.04370214447680763 1.4400671574939898 -0.1504831287228955
v -0.047503220646340355 1.4483502189377286 -0.18037468627804235
v -0.08341267277924964 1.3570618352683863 -0.1684345332407793
v -0.08721374894878237 1.3653448967121251 -0.19832609079592617
v -0.1839608619868438 1.4997351514339985 -0.1161132994883044
v -0.18776193815637654 1.5080182128777373 -0.14600485704345126
v -0.22367139028928584 1.4167298292083952 -0.13406470400618822
v -0.22747246645881855 1.425012890652134 -0.16395626156133508
v 0.175 1.612535438814078 -0.16321115842643263
v 0.175 1.5986533600963553 -0.20470031834170385
v 0.175 1.4347247534629157 -0.10371653535047787
v 0.175 1.420842674745193 -0.14520569526574909
v 0 1.6065859765064825 -0.18099222696154887
v 0 1.5907207436862278 -0.22840840972185883
v 0 1.4347247534629157 -0.10371653535047787
v 0 1.420842674745193 -0.14520569526574909
v 0 1.6065859765064825 -0.18099222696154887
v 0 1.5907207436862278 -0.22840840972185883
v 0 1.4347247534629157 -0.10371653535047787
v 0 1.420842674745193 -0.14520569526574909
v -0.175 1.612535438814078 -0.16321115842643263
v -0.175 1.5986533600963553 -0.20470031834170385
v -0.175 1.4347247534629157 -0.10371653535047787
v -0.175 1.420842674745193 -0.14520569526574909
v -0.21403599351933011 1.5992634486885298 -0.02695002251615558
v -0.2261584616065953 1.6416249922997217 -0.07127603508609376
v -0.1298865245260145 1.4902230170436452 -0.15417148743006182
v -0.1420089926132797 1.5325845606548372 -0.1984975
v -0.377597996366575 1.5149074715879651 -0.06283581848067166
v -0.3897204644538402 1.557269015199157 -0.10716183105060981
v -0.2934485273732594 1.4058670399430806 -0.1900572833945779
v -0.3055709954605246 1.4482285835542725 -0.23438329596451604
v -0.23153955069868062 1.5732106851512122 0.11406942106799353
v -0.2599456415951393 1.6288659004394541 0.11271258238872442
v -0.19775252350186107 1.5859698524216586 -0.06991941132073087
v -0.2261586143983197 1.6416250677099007 -0.07127624999999999
v -0.39510156582762357 1.4888547324772032 0.07818362366261586
v -0.4235076567240822 1.5445099477654451 0.07682678498334669
v -0.361314538630804 1.5016138997476498 -0.10580520872610857
v -0.3897206295272626 1.5572691150358917 -0.10716204740537769
v -0.1308826630661876 1.5263221866750816 -0.17126611597302682
v -0.14200924000315068 1.5325845655583616 -0.1984980039816297
v -0.0686961221567381 1.2343891612640783 -0.26380904008987033
v -0.0863414290579981 1.2490592551543893 -0.32194406816769794
v -0.3068424840081895 1.4759398065206923 -0.13057204780532888
v -0.3055712732293757 1.4482283466482564 -0.23438370206160905
v -0.24465594309873998 1.184006781109689 -0.2231149719221724
v -0.26230125 1.198676875 -0.28125
v -0.09836795529803323 1.3031141073264383 -0.24545319883152705
v -0.08634096342517447 1.2490595468114547 -0.321944100926096
v 0.06953817201126875 1.0395542803193762 -0.24545319070214233
v 0.062202087172096104 1.0348806769402588 -0.30734494532815987
v -0.2549648850297794 1.2033508615152928 -0.21935824943867482
v -0.262300969868952 1.198677258136175 -0.28125000406469236
v -0.0870587577204774 0.9397910345082308 -0.2193582413092901
v -0.09439484255965006 0.9351174311291133 -0.28124999593530764
v 0.007321895210029253 1.1043270861552608 -0.27207546013982015
v 0.06220187030290095 1.0348805018919283 -0.30734496146079726
v 0.3216380811767922 0.9116608212373148 -0.20344568816092443
v 0.3157721063703011 0.921961202455018 -0.25900497694266955
v -0.0949279481118916 0.955316011697562 -0.22210627734077082
v -0.0943953078883652 0.9351173393550425 -0.28125
v 0.21938823785487138 0.7626497467796161 -0.15347650536187513
v 0.261831751800596 0.7451918694081938 -0.22739339562277697
v 0.26081276025635436 0.9425709085131238 -0.23753467884425136
v 0.3157717024565274 0.921960874134826 -0.259005383424293
v 0.3090772959456033 0.9469511558071757 -0.09869425531111814
v 0.34942194834950846 0.9374785397959604 -0.08577735043443072
v 0.2193883719700062 0.7626497696434154 -0.15347677209265392
v 0.2618315919613874 0.7451915346923057 -0.22739343769444043
v 0.27802281862899997 0.7750691998025399 -0.03269451806066659
v 0.3142315957266538 0.7607090136432496 -0.05416531354438295
v 0.309076831088999 0.9469514698615746 -0.09869395674859699
v 0.3494217143966417 0.9374788429535084 -0.08577671833158138
v 0.2849557760945105 1.0085074456271201 0.17236779587457382
v 0.3440506624078329 0.9927849523066439 0.18528474657522606
v 0.27388692074818105 0.770181803266962 -0.06708195070065223
v 0.31423180405582374 0.7607091763588957 -0.054164712283636646
v 0.22980610590246145 0.824174156528373 0.1645312101566296
v 0.3026104431112577 0.816015846618326 0.21689637451605995
v 0.28495614359259513 1.0085072896381724 0.17236799923706456
v 0.34405066931270106 0.9927850090878376 0.18528476988827822
v 0.1353751204697531 1.1484423075878953 0.17833686990706052
v 0.16744910290393078 1.1298545360796755 0.2420098726393922
v 0.229806554500432 0.824174023557278 0.16453119213490933
v 0.3026105263894494 0.8160157856529655 0.216896696131563
v 0.01742957307962123 1.0046597901795045 0.20224681634254868
v 0.025990904079130517 1.0085713326398007 0.2628940838690108
v 0.16639580453944786 1.1204453949283977 0.18023141922337013
v 0.16744900959376535 1.1298547635824434 0.24201009305703078
v -0.2231923940580639 1.5643407940036183 0.11926443887009605
v -0.2221391890037464 1.5737501626576638 0.1810431127037567
v 0.024937632566739296 0.9991618672547411 0.2011154202091243
v 0.02599083762105679 1.0085712359087866 0.26289409404278496
v -0.36465056603077245 1.4430572663299617 0.1401484398558502
v -0.36359736097645495 1.4524666349840072 0.20192711368951086
v -0.2231923940580639 1.5643407940036183 0.11926443887009605
v -0.2221391890037464 1.5737501626576638 0.1810431127037567
v -0.23153959017489278 1.5732109896902182 0.11406973959614916
v -0.2599455358308042 1.628865942455327 0.11271265628162755
v -0.36465056603077245 1.4430572663299617 0.1401484398558502
v -0.36359736097645495 1.4524666349840072 0.20192711368951086
v -0.395101266148675 1.4888551588696317 0.07818406063463931
v -0.4235072118045864 1.5445101116347404 0.07682697732011776
v 0.22591245516455039 1.2414493111373488 -0.21147501698401347
v 0.20102960537255898 0.8055286940143547 -0.23904872462983415
v -0.2724791799219315 1.271569863391646 -0.2379047428191273
v -0.2973620297139229 0.8356492462686518 -0.26547845046494795
v 0.203125 1.4375 0.15
v 0.203125 1.4375 0.10624999999999998
v 0.203125 0.8999999999999999 0.15
v 0.203125 0.8999999999999999 0.10624999999999998
v -0.203125 1.4375 0.15
v -0.203125 1.4375 0.10624999999999998
v -0.203125 0.8999999999999999 0.15
v -0.203125 0.8999999999999999 0.10624999999999998
v 0.203125 1.4034508898329847 -0.11151408593142087
v 0.203125 1.4051958646681098 -0.1614836272823757
v 0.203125 0.8975092836545673 -0.129181956137062
v 0.203125 0.8992542584896924 -0.17915149748801681
v -0.203125 1.4034508898329847 -0.11151408593142087
v -0.203125 1.4051958646681098 -0.1614836272823757
v -0.203125 0.8975092836545673 -0.129181956137062
v -0.203125 0.8992542584896924 -0.17915149748801681
v 0.25 1.5420347635732057 0.16924886277032933
v 0.25 1.5333364447632016 0.10735710847398114
v 0.25 1.2449543429507346 0.21100079305834893
v 0.25 1.2362560241407305 0.14910903876200074
v -0.25 1.5420347635732057 0.16924886277032933
v -0.25 1.5333364447632016 0.10735710847398114
v -0.25 1.2449543429507346 0.21100079305834893
v -0.25 1.2362560241407305 0.14910903876200074
v -0.21600336458145303 1.607316954479615 0.056874688021159664
v -0.1979733412947972 1.5488380880304145 0.04417073434133259
v -0.21628327812123455 1.5860057790293185 0.15457707002557572
v -0.1982532548345787 1.5275269125801179 0.1418731163457487
v -0.37159414368594884 1.5616084289141168 0.04645882760138806
v -0.353564120399293 1.503129562464916 0.033754873921560985
v -0.37187405722573036 1.5402972534638202 0.1441612096058041
v -0.3538440339390745 1.4818183870146193 0.1314572559259771
v -0.1999886732187325 1.5472475821770992 0.07251354216605929
v -0.2159192273000159 1.6063043551391658 0.05967745966514634
v -0.17527559445665997 1.5141612786536762 -0.11038208451007402
v -0.19120614853794335 1.5732180516157428 -0.12321816701098698
v -0.35565481965774504 1.5024464928247085 0.059584379561041095
v -0.3715853737390284 1.561503265786775 0.04674829706012815
v -0.33094174089567246 1.4693601893012853 -0.12331124711509223
v -0.3468722949769559 1.5284169622633519 -0.13614732961600517
v -0.1860340519241504 1.5671871547507439 -0.08604003054052203
v -0.1850832386863247 1.5762334965330542 -0.12883398051647543
v -0.06532470714763708 1.1711557329135902 -0.16707633491249596
v -0.06437389390981135 1.1802020746959005 -0.2098702848884494
v -0.35367452325930004 1.5189398846251865 -0.09996386966485757
v -0.35272371002147435 1.5279862264074968 -0.142757819640811
v -0.2329651784827867 1.1229084627880328 -0.18100017403683155
v -0.232014365244961 1.1319548045703431 -0.22379412401278498
v 0.37159414368594884 1.5616084289141168 0.04645882760138806
v 0.353564120399293 1.503129562464916 0.033754873921560985
v 0.37187405722573036 1.5402972534638202 0.1441612096058041
v 0.3538440339390745 1.4818183870146193 0.1314572559259771
v 0.21600336458145303 1.607316954479615 0.056874688021159664
v 0.1979733412947972 1.5488380880304145 0.04417073434133259
v 0.21628327812123455 1.5860057790293185 0.15457707002557572
v 0.1982532548345787 1.5275269125801179 0.1418731163457487
v 0.35565481965774504 1.5024464928247085 0.059584379561041095
v 0.3715853737390284 1.561503265786775 0.04674829706012815
v 0.33094174089567246 1.4693601893012853 -0.12331124711509223
v 0.3468722949769559 1.5284169622633519 -0.13614732961600517
v 0.1999886732187325 1.5472475821770992 0.07251354216605929
v 0.2159192273000159 1.6063043551391658 0.05967745966514634
v 0.17527559445665997 1.5141612786536762 -0.11038208451007402
v 0.19120614853794335 1.5732180516157428 -0.12321816701098698
v 0.35367452325930004 1.5189398846251865 -0.09996386966485757
v 0.35272371002147435 1.5279862264074968 -0.142757819640811
v 0.2329651784827867 1.1229084627880328 -0.18100017403683155
v 0.232014365244961 1.1319548045703431 -0.22379412401278498
v 0.1860340519241504 1.5671871547507439 -0.08604003054052203
v 0.1850832386863247 1.5762334965330542 -0.12883398051647543
v 0.06532470714763708 1.1711557329135902 -0.16707633491249596
v 0.06437389390981135 1.1802020746959005 -0.2098702848884494
v -0.27723616960864317 1.125 0.10193584315367046
v -0.2502723616960864 1.125 -0.20626189156846328
v -0.27723616960864317 0.83125 0.10193584315367046
v -0.2502723616960864 0.83125 -0.20626189156846328
v -0.3145934707870836 1.125 0.09866750280063327
v -0.28762966287452685 1.125 -0.20953023192150047
v -0.3145934707870836 0.83125 0.09866750280063327
v -0.28762966287452685 0.83125 -0.20953023192150047
v 0.3145934707870836 1.125 0.09866750280063327
v 0.28762966287452685 1.125 -0.20953023192150047
v 0.3145934707870836 0.83125 0.09866750280063327
v 0.28762966287452685 0.83125 -0.20953023192150047
v 0.27723616960864317 1.125 0.10193584315367046
v 0.2502723616960864 1.125 -0.20626189156846328
v 0.27723616960864317 0.83125 0.10193584315367046
v 0.2502723616960864 0.83125 -0.20626189156846328
v -0.21655260636174328 1.125 0.19011494854229968
v -0.279644375 1.125 0.07860062500000001
v -0.21655260636174328 0.83125 0.19011494854229968
v -0.279644375 0.83125 0.07860062500000001
v -0.2491909449594895 1.125 0.20858083204617964
v -0.31228271359774623 1.125 0.09706650850388002
v -0.2491909449594895 0.83125 0.20858083204617964
v -0.31228271359774623 0.83125 0.09706650850388002
v 0.2491909449594895 1.125 0.20858083204617964
v 0.31228271359774623 1.125 0.09706650850388002
v 0.2491909449594895 0.83125 0.20858083204617964
v 0.31228271359774623 0.83125 0.09706650850388002
v 0.21655260636174328 1.125 0.19011494854229968
v 0.279644375 1.125 0.07860062500000001
v 0.21655260636174328 0.83125 0.19011494854229968
v 0.279644375 0.83125 0.07860062500000001
v -0.221875 1.09375 0.15
v -0.221875 1.09375 -0.1625
v -0.221875 0.90625 0.15
v -0.221875 0.90625 -0.1625
v -0.278125 1.09375 0.15
v -0.278125 1.09375 -0.1625
v -0.278125 0.90625 0.15
v -0.278125 0.90625 -0.1625
v 0.278125 1.09375 0.15
v 0.278125 1.09375 -0.1625
v 0.278125 0.90625 0.15
v 0.278125 0.90625 -0.1625
v 0.221875 1.09375 0.15
v 0.221875 1.09375 -0.1625
v 0.221875 0.90625 0.15
v 0.221875 0.90625 -0.1625
v -0.16572559414118831 1.6177466842544412 -0.16711292382377066
v -0.20874299634711133 1.6098950048253635 -0.16572846089655063
v -0.1315564331114107 1.4361872362251378 -0.1350990945336681
v -0.1745738353173337 1.42833555679606 -0.1337146316064481
v -0.16572559414118843 1.678523546437867 0.177569789730502
v -0.20874299634711144 1.670671867008789 0.178954252657722
v -0.1315564331114108 1.4969640984085635 0.20958361902060454
v -0.1745738353173338 1.4891124189794858 0.21096808194782454
v 0.16572559414118843 1.678523546437867 0.177569789730502
v 0.20874299634711144 1.670671867008789 0.178954252657722
v 0.1315564331114108 1.4969640984085635 0.20958361902060454
v 0.1745738353173338 1.4891124189794858 0.21096808194782454
v 0.16572559414118831 1.6177466842544412 -0.16711292382377066
v 0.20874299634711133 1.6098950048253635 -0.16572846089655063
v 0.1315564331114107 1.4361872362251378 -0.1350990945336681
v 0.1745738353173337 1.42833555679606 -0.1337146316064481
v 0.175 1.6732144145993033 0.2218877580381786
v 0.175 1.6751227627965368 0.1781793983439723
v 0.175 1.485892873052705 0.21370912290717806
v 0.175 1.4878012212499385 0.17000076321297178
v -0.175 1.6732144145993033 0.2218877580381786
v -0.175 1.6751227627965368 0.1781793983439723
v -0.175 1.485892873052705 0.21370912290717806
v -0.175 1.4878012212499385 0.17000076321297178
v 0.12446628546725169 1.361116834550734 -0.287182354138542
v 0.12305515553170909 1.3770788166170131 -0.20116215976058915
v 0.014407160579465672 1.1966111177266185 -0.25846201010998504
v 0.012996030643923073 1.2125730997928976 -0.1724418157320322
v 0.28099393568670966 1.2601156290646953 -0.2658727035749603
v 0.279582805751167 1.2760776111309744 -0.17985250919700746
v 0.1709348107989237 1.0956099122405798 -0.23715235954640335
v 0.1695236808633811 1.1115718943068589 -0.1511321651684505
v 0.24002628232483492 1.4148971459971529 -0.2761935995684574
v 0.2392199223616677 1.4240182786064555 -0.22703920278105572
v 0.19875411049191516 1.3532075021881096 -0.2654234705577485
v 0.1979477505287479 1.3623286347974122 -0.21626907377034682
v 0.28176698905002373 1.387963491200876 -0.2705110260848356
v 0.28096062908685654 1.3970846238101784 -0.22135662929743394
v 0.24049481721710395 1.3262738473918325 -0.25974089707412673
v 0.23968845725393673 1.3353949800011349 -0.21058650028672504
v 0.23834883663232564 1.4222645149212787 -0.28394573160322767
v 0.2373408866783666 1.4336659306829065 -0.2225027356189756
v 0.21427340306312237 1.3862788893660032 -0.2776631563469808
v 0.21326545310916334 1.397680305127631 -0.21622016036272873
v 0.29052472003881163 1.3885974464259323 -0.2768425147487004
v 0.2895167700848526 1.39999886218756 -0.21539951876444835
v 0.26644928646960836 1.3526118208706568 -0.27055993949245355
v 0.26544133651564933 1.3640132366322848 -0.20911694350820148
v 0.12071014775688232 1.3183375035270863 -0.2729482835799247
v 0.1195006078121315 1.33201920244104 -0.19921668839882223
v 0.2188958188263763 1.3000474049020427 -0.2679436568286828
v 0.21768627888162545 1.3137291038159964 -0.1942120616475804
v 0.13015701405042474 1.3666404331793867 -0.28175644480897055
v 0.12894747410567392 1.3803221320933403 -0.2080248496278681
v 0.22834268511991868 1.348350334554343 -0.2767518180577287
v 0.22713314517516786 1.3620320334682967 -0.20302022287662627
v 0.24008795299914054 1.2542089881281147 -0.18279996592697426
v 0.24129749294389136 1.2405272892141612 -0.2565315611080767
v 0.18402008560480243 1.33545269911109 -0.19879539250977046
v 0.18522962554955327 1.3217710001971363 -0.2725269876908729
v 0.28148177313056266 1.2818977908532634 -0.18725887370526167
v 0.2826913130753135 1.26821609193931 -0.2609904688863641
v 0.22541390573622455 1.3631415018362387 -0.20325430028805788
v 0.22662344568097537 1.349459802922285 -0.2769858954691603
v 0.20561748942660626 1.1931392323467935 -0.3302364257414932
v 0.20280362735792684 1.1897858021173804 -0.34194482810709814
v 0.055097170029897446 1.013756100947338 -0.24268458042662633
v 0.05228330796121802 1.0104026707179246 -0.25439298279223127
v 0.08592304518926591 1.2935747963603155 -0.3302364257414932
v 0.08310918312058649 1.290221366130902 -0.34194482810709814
v -0.06459727420744288 1.1141916649608596 -0.24268458042662633
v -0.06741113627612233 1.1108382347314463 -0.25439298279223127
v 0.03651366301788311 1.0718569255934485 -0.2543269055464446
v 0.03231953230820195 1.066820982986697 -0.27189423458792433
v -0.008339968801746811 1.0177650474219657 -0.22811201610417192
v -0.012534099511427976 1.0127291048152143 -0.24567934514565165
v -0.001966923683759031 1.1037825142775926 -0.25429177339229936
v -0.006161054393440196 1.098746571670841 -0.2718591024337791
v -0.04682055550338893 1.0496906361061098 -0.22807688395002668
v -0.05101468621307009 1.0446546934993584 -0.2456442129915064
v 0.2337561101134007 1.2266735346409268 -0.2131524020854435
v 0.20561748942660626 1.1931392323467935 -0.3302364257414932
v 0.04560571086751469 1.002444620391607 -0.1037125954418599
v 0.017467090180720235 0.968910318097474 -0.2207966190979096
v 0.11406166587606037 1.3271090986544485 -0.2131524020854435
v 0.08592304518926591 1.2935747963603155 -0.3302364257414932
v -0.07408873336982563 1.1028801844051288 -0.1037125954418599
v -0.10222735405662009 1.0693458821109958 -0.2207966190979096
v 0.05537293489041417 1.3163388220664045 -0.3361188076743793
v 0.048974210476788405 1.3164674121017634 -0.3468561160187119
v -0.09514738450629467 1.136955690666949 -0.24856696235951242
v -0.10154610891992044 1.1370842807023076 -0.25930427070384504
v -0.036539082648296084 1.4208061762195627 -0.2800942331717337
v -0.04293780706192185 1.4209347662549214 -0.2908315415160663
v -0.18705940204500482 1.241423044820107 -0.19254238785686686
v -0.19345812645863059 1.2415516348554658 -0.20327969620119948
v -0.10551804447733656 1.1983693052740434 -0.2413342018230897
v -0.11489793484565944 1.198388109684816 -0.25756934281639127
v -0.15099941419625687 1.14480417927406 -0.215119276969167
v -0.16037930456457974 1.1448229836848327 -0.23135441796246856
v -0.1364209570717672 1.2333662678019994 -0.22343943703006075
v -0.1458008474400901 1.233385072212772 -0.23967457802336234
v -0.18190232679068752 1.179801141802016 -0.19722451217613807
v -0.1912822171590104 1.1798199462127885 -0.21345965316943963
v 0.11801332664844577 1.3165724840842465 -0.2279469009299479
v 0.0553725663181959 1.3163388496522255 -0.33611843396983954
v -0.07013707259744023 1.092343569834927 -0.1185070942863643
v -0.13277783292769008 1.0921099354029058 -0.22667862732625593
v 0.02477523008543142 1.4210508578200984 -0.17417956167257292
v -0.03786553024481848 1.4208172233880774 -0.28235109471246456
v -0.16337516916045464 1.196821943570779 -0.06473975502898935
v -0.22601592949070443 1.1965883091387577 -0.17291128806888098
v 0.33698695862456707 1.159074185754612 -0.17417940964386425
v 0.34763432750356077 1.0973445091334417 -0.2823509426837559
v 0.14883655937868107 0.9348452715052925 -0.06473960300028064
v 0.1594839282576748 0.8731155948841222 -0.17291113604017228
v 0.2179052205900923 1.2327533069211345 -0.22794674890123923
v 0.228552589469086 1.1710236302999641 -0.33611828194113086
v 0.02975482134420626 1.0085243926718148 -0.11850694225765564
v 0.04040219022319996 0.9467947160506445 -0.22667847529754728
v 0.348461160743745 1.0977526139861382 -0.28009423317173365
v 0.3496989240413455 1.091473429999517 -0.29083154151606627
v 0.1979408413470362 0.9183694825866824 -0.1925423878568668
v 0.19917860464463671 0.9120902986000614 -0.20327969620119943
v 0.22962054608575486 1.1701277157788723 -0.3361188076743793
v 0.23085830938335533 1.1638485317922513 -0.3468561160187119
v 0.07910022668904605 0.9907445843794165 -0.24856696235951242
v 0.08033798998664654 0.9844654003927955 -0.25930427070384504
v 0.18121319118582335 0.9668395711497456 -0.22343943703006075
v 0.18286051078451793 0.9576054477442795 -0.2396745780233623
v 0.13635959677945042 0.9127476791165416 -0.19722451217613804
v 0.138006916378145 0.9035135557110755 -0.2134596531694396
v 0.1413816766997913 0.9911958402965422 -0.2413342018230897
v 0.14302899629848587 0.981961716891076 -0.25756934281639127
v 0.09652808229341836 0.9371039482633381 -0.215119276969167
v 0.09817540189211293 0.9278698248578721 -0.23135441796246856
vt 0.3453125 0.548828125
vt 0.346875 0.6015625
vt 0.33671875 0.6015625
vt 0.33671875 0.548828125
vt 0.0078125 0.517578125
vt 0.0078125 0.5703125
vt 0 0.5703125
vt 0 0.517578125
vt 0.5 0.748046875
vt 0.5 0.7578125
vt 0.46875 0.75546875
vt 0.46875 0.748046875
vt 0.53125 0.701171875
vt 0.53125 0.709765625
vt 0.5 0.709765625
vt 0.5 0.701953125
vt 0.21875 0.775390625
vt 0.21875 0.828125
vt 0.1875 0.828125
vt 0.1875 0.775390625
vt 0.2265625 0.900390625
vt 0.2265625 0.953125
vt 0.1953125 0.953125
vt 0.19542890625 0.900390625
vt 0.3453125 0.548828125
vt 0.346875 0.6015625
vt 0.33671875 0.6015625
vt 0.33671875 0.548828125
vt 0.0078125 0.517578125
vt 0.0078125 0.5703125
vt 0 0.5703125
vt 0 0.517578125
vt 0.5078125 0.958984375
vt 0.5078125 0.96640625
vt 0.4765625 0.96875
vt 0.4765625 0.958984375
vt 0.53125 0.678515625
vt 0.53125 0.686328125
vt 0.5 0.686328125
vt 0.5 0.677734375
vt 0.15625 0.751953125
vt 0.15625 0.8046875
vt 0.125 0.8046875
vt 0.125 0.751953125
vt 0.03215390625 0.736328125
vt 0.0322703125 0.7886953125
vt 0.0009328125 0.7886953125
vt 0.0009328125 0.73637421875
vt 0.390625 0.51953125
vt 0.390625 0.5703125
vt 0.3828125 0.5703125
vt 0.3828125 0.51953125
vt 0.40625 0.51953125
vt 0.40625 0.5703125
vt 0.3984375 0.5703125
vt 0.3984375 0.51953125
vt 0.4609375 0.7421875
vt 0.4609375 0.75
vt 0.3984375 0.75
vt 0.3984375 0.7421875
vt 0.46875 0.796875
vt 0.46875 0.8046875
vt 0.40625 0.8046875
vt 0.40625 0.796875
vt 0.1328125 0.94921875
vt 0.1328125 1
vt 0.0703125 1
vt 0.0703125 0.94921875
vt 0.1875 0.88671875
vt 0.1875 0.9375
vt 0.125 0.9375
vt 0.125 0.88671875
vt 0.0873046875 0.447265625
vt 0.0865234375 0.46875
vt 0.0787109375 0.46875
vt 0.0787109375 0.447265625
vt 0.40625 0.431640625
vt 0.40625 0.453125
vt 0.3984375 0.45023359375000005
vt 0.3984375 0.431640625
vt 0.453125 0.421875
vt 0.4453125 0.421875
vt 0.4453125 0.40598515625
vt 0.453125 0.4065109375
vt 0.59375 0.927734375
vt 0.59375 0.936328125
vt 0.578125 0.936328125
vt 0.578125 0.928515625
vt 0.328125 0.525390625
vt 0.328125 0.546875
vt 0.3125 0.546875
vt 0.3125 0.525390625
vt 0.1015625 0.517578125
vt 0.1015625 0.5361710937499999
vt 0.0859375 0.5390625
vt 0.0859375 0.517578125
vt 0.3390625 0.46171874999999996
vt 0.33671875 0.484375
vt 0.32890625 0.484375
vt 0.32890625 0.46210937500000004
vt 0.421875 0.431640625
vt 0.421875 0.453125
vt 0.41484375 0.453125
vt 0.4140625 0.431640625
vt 0.421875 0.6328125
vt 0.421875 0.640625
vt 0.40625 0.640625
vt 0.40625 0.6328125
vt 0.2890625 0.66015625
vt 0.2890625 0.6703203125
vt 0.2734375 0.6703203125
vt 0.2734375 0.6617328124999999
vt 0.4765625 0.876953125
vt 0.4765625 0.8984375
vt 0.4609375 0.8984375
vt 0.4609375 0.876953125
vt 0.15625 0.71990859375
vt 0.15625 0.7421875
vt 0.140625 0.7421875
vt 0.140625 0.7194632812499999
vt 0.0873046875 0.447265625
vt 0.0865234375 0.46875
vt 0.0787109375 0.46875
vt 0.0787109375 0.447265625
vt 0.40625 0.431640625
vt 0.40625 0.453125
vt 0.3984375 0.45023359375000005
vt 0.3984375 0.431640625
vt 0.578125 0.5078125
vt 0.578125 0.49948125
vt 0.593983203125 0.500485546875
vt 0.593519609375 0.5078125
vt 0.59375 0.741015625
vt 0.59375 0.748828125
vt 0.578125 0.748828125
vt 0.578125 0.740234375
vt 0.4765625 0.845703125
vt 0.4765625 0.8671875
vt 0.4609375 0.8671875
vt 0.4609375 0.845703125
vt 0.0546875 0.5324078125
vt 0.0546875 0.5546875
vt 0.0390625 0.551797578125
vt 0.0390625 0.532435859375
vt 0.123046875 0.455078125
vt 0.123046875 0.5
vt 0.1171875 0.5
vt 0.1171875 0.455078125
vt 0.248046875 0.4609375
vt 0.248046875 0.5078125
vt 0.2421875 0.5078125
vt 0.2421875 0.4609375
vt 0.599609375 0.478515625
vt 0.599609375 0.484375
vt 0.578125 0.484375
vt 0.578125 0.478515625
vt 0.615234375 0.619140625
vt 0.615234375 0.625
vt 0.6015625 0.625
vt 0.6015625 0.619140625
vt 0.318359375 0.658203125
vt 0.318359375 0.703125
vt 0.296875 0.703125
vt 0.3046875 0.658203125
vt 0.07734375 0.681640625
vt 0.08515625 0.7265625
vt 0.06328125 0.7265625
vt 0.06328125 0.681640625
vt 0.388671875 0.4609375
vt 0.388671875 0.5078125
vt 0.3828125 0.5078125
vt 0.3828125 0.4609375
vt 0.357421875 0.455078125
vt 0.357421875 0.5
vt 0.3515625 0.5
vt 0.3515625 0.455078125
vt 0.599609375 0.431640625
vt 0.599609375 0.4375
vt 0.578125 0.4375
vt 0.578125 0.431640625
vt 0.615234375 0.541015625
vt 0.615234375 0.546875
vt 0.6015625 0.546875
vt 0.6015625 0.541015625
vt 0.31171875 0.712890625
vt 0.31953125 0.7578125
vt 0.29765625 0.7578125
vt 0.29765625 0.712890625
vt 0.115234375 0.650390625
vt 0.115234375 0.6953125
vt 0.09375 0.6953125
vt 0.1015625 0.650390625
vt 0.3390625 0.46171874999999996
vt 0.33671875 0.484375
vt 0.32890625 0.484375
vt 0.32890625 0.46210937500000004
vt 0.421875 0.431640625
vt 0.421875 0.453125
vt 0.41484375 0.453125
vt 0.4140625 0.431640625
vt 0.6015625 0.8046875
vt 0.6015625 0.8125
vt 0.5859375 0.8125
vt 0.5859375 0.8046875
vt 0.5703125 0.92734375
vt 0.5703125 0.9359375
vt 0.5546875 0.9359375
vt 0.5546875 0.92578125
vt 0.1640625 0.517578125
vt 0.1640625 0.5390625
vt 0.1484375 0.5390625
vt 0.1484375 0.517578125
vt 0.21875 0.7428476562499999
vt 0.21875 0.765625
vt 0.203125 0.765625
vt 0.203125 0.743396875
vt 0.35546875 0.3671875
vt 0.3515625 0.3671875
vt 0.3515625 0.359375
vt 0.35546875 0.359375
vt 0.37109375 0.359375
vt 0.37109375 0.3671875
vt 0.3671875 0.3671875
vt 0.3671875 0.359375
vt 0.609375 0.70703125
vt 0.625 0.70703125
vt 0.625 0.7109375
vt 0.609375 0.7109375
vt 0.625 0.65234375
vt 0.625 0.65625
vt 0.609375 0.65625
vt 0.609375 0.65234375
vt 0.6015625 0.71875
vt 0.6015625 0.7265625
vt 0.5859375 0.7265625
vt 0.5859375 0.71875
vt 0.6015625 0.7109375
vt 0.5859375 0.7109375
vt 0.5859375 0.703125
vt 0.6015625 0.703125
vt 0.13671875 0.36328125
vt 0.13671875 0.375
vt 0.1328125 0.375
vt 0.1328125 0.36328125
vt 0.15234375 0.375
vt 0.1484375 0.375
vt 0.1484375 0.36328125
vt 0.15234375 0.36328125
vt 0.4765625 0.3984375
vt 0.4765625 0.39453125
vt 0.49609375 0.39453125
vt 0.49609375 0.3984375
vt 0.62109375 0.40625
vt 0.6015625 0.40625
vt 0.6015625 0.40234375
vt 0.62109375 0.40234375
vt 0.54296875 0.8828125
vt 0.5234375 0.8828125
vt 0.5234375 0.87109375
vt 0.54296875 0.87109375
vt 0.54296875 0.82421875
vt 0.54296875 0.8359375
vt 0.5234375 0.8359375
vt 0.5234375 0.82421875
vt 0.18359375 0.375
vt 0.1796875 0.375
vt 0.1796875 0.36328125
vt 0.18359375 0.36328125
vt 0.19921875 0.36328125
vt 0.19921875 0.375
vt 0.1953125 0.375
vt 0.1953125 0.36328125
vt 0.609375 0.98046875
vt 0.62890625 0.98046875
vt 0.62890625 0.984375
vt 0.609375 0.984375
vt 0.62890625 0.86328125
vt 0.62890625 0.8671875
vt 0.609375 0.8671875
vt 0.609375 0.86328125
vt 0.54296875 0.80078125
vt 0.54296875 0.8125
vt 0.5234375 0.8125
vt 0.5234375 0.80078125
vt 0.54296875 0.7890625
vt 0.5234375 0.7890625
vt 0.5234375 0.77734375
vt 0.54296875 0.77734375
vt 0.294921875 0.40625
vt 0.294921875 0.4296875
vt 0.2890625 0.4296875
vt 0.2890625 0.40625
vt 0.021484375 0.40551117187499996
vt 0.021484375 0.429065625
vt 0.015625 0.4296875
vt 0.01640234375 0.40605539062499996
vt 0.321085859375 0.39900453125
vt 0.326171875 0.399777890625
vt 0.326171875 0.421875
vt 0.3203125 0.42099109375
vt 0.052734375 0.408203125
vt 0.052734375 0.4140625
vt 0.03125 0.4140625
vt 0.03125 0.408203125
vt 0.193359375 0.5703125
vt 0.193359375 0.59375
vt 0.171875 0.59375
vt 0.17212421875 0.5703125
vt 0.42790546875 0.943359375
vt 0.428346875 0.96700078125
vt 0.40625 0.96700078125
vt 0.40625 0.9437640625
vt 0.294921875 0.40625
vt 0.294921875 0.4296875
vt 0.2890625 0.4296875
vt 0.2890625 0.40625
vt 0.021484375 0.40551117187499996
vt 0.021484375 0.429065625
vt 0.015625 0.4296875
vt 0.01640234375 0.40605539062499996
vt 0.053520078125 0.4235003125
vt 0.054403984375 0.4296875
vt 0.032306875 0.4296875
vt 0.031533515625 0.42427375
vt 0.607421875 0.962890625
vt 0.607421875 0.96875
vt 0.5859375 0.96875
vt 0.5859375 0.962890625
vt 0.07787578125 0.5701968749999999
vt 0.078125 0.59375
vt 0.056125 0.59375
vt 0.056125 0.57042734375
vt 0.248046875 0.5703125
vt 0.248046875 0.59375
vt 0.2265625 0.59375
vt 0.22700390625 0.5703125
vt 0.53125 0.5234375
vt 0.5546875 0.5234375
vt 0.5546875 0.53125
vt 0.53125 0.53125
vt 0.5625 0.9453125
vt 0.5625 0.953125
vt 0.5390625 0.953125
vt 0.5390625 0.9453125
vt 0.421875 0.7578125
vt 0.421875 0.78125
vt 0.3984375 0.78125
vt 0.3984375 0.7578125
vt 0.171875 0.4609375
vt 0.1640625 0.4609375
vt 0.1640625 0.4375
vt 0.171875 0.4375
vt 0.28125 0.4375
vt 0.28125 0.4609375
vt 0.2734375 0.4609375
vt 0.2734375 0.4375
vt 0.296875 0.6015625
vt 0.2734375 0.6015625
vt 0.2734375 0.578125
vt 0.296875 0.578125
vt 0.5390625 0.7109375
vt 0.5625 0.7109375
vt 0.5625 0.71875
vt 0.5390625 0.71875
vt 0.5625 0.6953125
vt 0.5625 0.703125
vt 0.5390625 0.703125
vt 0.5390625 0.6953125
vt 0.328125 0.578125
vt 0.328125 0.6015625
vt 0.3046875 0.6015625
vt 0.3046875 0.578125
vt 0.296875 0.4609375
vt 0.2890625 0.4609375
vt 0.2890625 0.4375
vt 0.296875 0.4375
vt 0.484375 0.4375
vt 0.484375 0.4609375
vt 0.4765625 0.4609375
vt 0.4765625 0.4375
vt 0.40625 0.6015625
vt 0.3828125 0.6015625
vt 0.3828125 0.578125
vt 0.40625 0.578125
vt 0.46469765625 0.515625
vt 0.4609375 0.515625
vt 0.4609375 0.4765625
vt 0.46871484375 0.4765625
vt 0.37109375 0.5390625
vt 0.37109375 0.578125
vt 0.359375 0.57101484375
vt 0.36308359375 0.5390625
vt 0.1484375 0.505979609375
vt 0.15627640625 0.48389187499999997
vt 0.16015625 0.48547945312499996
vt 0.16015625 0.5078125
vt 0.5625 0.6796875
vt 0.5625 0.6875
vt 0.5390625 0.6875
vt 0.5390625 0.6796875
vt 0.1875 0.640625
vt 0.1875 0.6796875
vt 0.1640625 0.6796875
vt 0.1640625 0.640625
vt 0.21746453125 0.66421953125
vt 0.1953125 0.671875
vt 0.1953125 0.632599140625
vt 0.217653671875 0.632811640625
vt 0.4473484375 0.99349375
vt 0.4375 1
vt 0.4375 0.9609375
vt 0.44527109375 0.9609375
vt 0.265625 0.4765625
vt 0.265625 0.515625
vt 0.2578125 0.515625
vt 0.2578125 0.4765625
vt 0.515625 0.9296875
vt 0.4921875 0.9296875
vt 0.49319609375 0.9179265625
vt 0.515625 0.9231796875
vt 0.515625 0.453125
vt 0.515625 0.4609375
vt 0.4921875 0.4609375
vt 0.4921875 0.453125
vt 0.3515625 0.8125
vt 0.3515625 0.8515625
vt 0.328125 0.8515625
vt 0.328125 0.8125
vt 0.150390625 0.6796875
vt 0.1278340625 0.6733221093749999
vt 0.126819609375 0.640625
vt 0.1501240625 0.640625
vt 0.24949765625 0.553096875
vt 0.2421875 0.5625
vt 0.2421875 0.515625
vt 0.24743515625 0.518171875
vt 0.134765625 0.5390625
vt 0.134765625 0.5859375
vt 0.12668125 0.5859375
vt 0.125 0.5351851562500001
vt 0.515625 0.7890625
vt 0.4921875 0.7890625
vt 0.4941703125 0.7773187500000001
vt 0.515625 0.7843820312500001
vt 0.508528515625 0.47593125000000003
vt 0.511002734375 0.46875
vt 0.534440234375 0.46875
vt 0.530819140625 0.4765625
vt 0.0546875 0.6796875
vt 0.0546875 0.7265625
vt 0.03125 0.7265625
vt 0.03125 0.6796875
vt 0.309593046875 0.9765625
vt 0.298700546875 0.997989765625
vt 0.26353921875 1
vt 0.258766328125 0.9765625
vt 0.389977734375 0.4453125
vt 0.3884325 0.453125
vt 0.370266328125 0.450313828125
vt 0.367834765625 0.4453125
vt 0.061866640625 0.443359375
vt 0.064453125 0.46001429687499995
vt 0.056550234375 0.467485546875
vt 0.056550234375 0.444793515625
vt 0.0234375 0.44316226562500005
vt 0.0234375 0.46852015625
vt 0.016290546875 0.46875
vt 0.015625 0.446138671875
vt 0.608553671875 0.892578125
vt 0.609375 0.8979410156250001
vt 0.586035 0.8979410156250001
vt 0.586084296875 0.89408890625
vt 0.4297946875 0.8183896875
vt 0.435268515625 0.8359375
vt 0.40991015625 0.8359375
vt 0.406528359375 0.819492265625
vt 0.4296875 0.99916171875
vt 0.40625 0.99916171875
vt 0.40686171875 0.9770265625
vt 0.429625 0.9765625
vt 0.1772390625 0.50694125
vt 0.171882890625 0.5078125
vt 0.171882890625 0.47293695312499995
vt 0.179679609375 0.472439765625
vt 0.4518140625 0.826310625
vt 0.4817375 0.8306312499999999
vt 0.480605 0.8359375
vt 0.445996875 0.8359375
vt 0.601053671875 0.984375
vt 0.57818046875 0.984375
vt 0.578633125 0.978515625
vt 0.60150703125 0.978515625
vt 0.516134921875 0.646095546875
vt 0.51643484375 0.638671875
vt 0.540505703125 0.638671875
vt 0.53860921875 0.6484375
vt 0.328125 0.779296875
vt 0.36328125 0.78029625
vt 0.36328125 0.80317015625
vt 0.332895234375 0.802711875
vt 0.35169546875 0.734375
vt 0.328821484375 0.734375
vt 0.328125 0.699795
vt 0.351149453125 0.699776171875
vt 0.19160484375 0.754210234375
vt 0.187864921875 0.747350859375
vt 0.188997734375 0.7217615625
vt 0.193359375 0.72624
vt 0.179798984375 0.520276953125
vt 0.181640625 0.555384921875
vt 0.172918515625 0.5625
vt 0.172918515625 0.5201144531249999
vt 0.165865546875 0.757119375
vt 0.187864921875 0.74735140625
vt 0.191307265625 0.75436453125
vt 0.17171734375 0.765625
vt 0.4299625 0.4765625
vt 0.4296875 0.466796875
vt 0.453125 0.466796875
vt 0.45304375 0.47425625000000005
vt 0.188997734375 0.7217615625
vt 0.187864921875 0.74735140625
vt 0.165865703125 0.757119375
vt 0.165865703125 0.72216390625
vt 0.3262171875 0.90625
vt 0.3046875 0.898056015625
vt 0.3046875 0.8692265625
vt 0.326948671875 0.864055625
vt 0.21875 0.6171875
vt 0.2109375 0.6171875
vt 0.2109375 0.54296875
vt 0.21875 0.54296875
vt 0.3984375 0.84765625
vt 0.3984375 0.921875
vt 0.390625 0.921875
vt 0.390625 0.84765625
vt 0.5234375 0.453125
vt 0.546875 0.453125
vt 0.546875 0.4609375
vt 0.5234375 0.4609375
vt 0.5703125 0.9765625
vt 0.5703125 0.984375
vt 0.546875 0.984375
vt 0.546875 0.9765625
vt 0.0859375 0.78515625
vt 0.0859375 0.859375
vt 0.0625 0.859375
vt 0.0625 0.78515625
vt 0.1171875 0.859375
vt 0.09375 0.859375
vt 0.09375 0.78515625
vt 0.1171875 0.78515625
vt 0.247114453125 0.384765625
vt 0.24216171875 0.390625
vt 0.240627421875 0.39000367187499996
vt 0.235307421875 0.384765625
vt 0.154296875 0.39004289062499997
vt 0.154296875 0.40039953125000005
vt 0.1484375 0.40557328125000003
vt 0.148532421875 0.384765625
vt 0.546875 0.8515625
vt 0.5703125 0.8515625
vt 0.5703125 0.859375
vt 0.546875 0.859375
vt 0.315745703125 0.5612830468750001
vt 0.313162890625 0.56865703125
vt 0.291043125 0.560910546875
vt 0.293625 0.5535372656249999
vt 0.313162890625 0.56865703125
vt 0.313160546875 0.5703125
vt 0.289723046875 0.5703125
vt 0.291416796875 0.56104140625
vt 0.435192265625 0.578125
vt 0.4315784375 0.6012821875000001
vt 0.419630859375 0.6012821875000001
vt 0.414417109375 0.578460078125
vt 0.0625 0.9453125
vt 0.0625 1
vt 0 1
vt 0 0.9453125
vt 0.419921875 0.50390625
vt 0.419921875 0.5703125
vt 0.4140625 0.5703125
vt 0.4140625 0.50390625
vt 0.435546875 0.50390625
vt 0.435546875 0.5703125
vt 0.4296875 0.5703125
vt 0.4296875 0.50390625
vt 0.1953125 0.890625
vt 0.1953125 0.884765625
vt 0.24609375 0.884765625
vt 0.24609375 0.890625
vt 0.4765625 0.939453125
vt 0.4765625 0.9453125
vt 0.52734375 0.9453125
vt 0.52734375 0.939453125
vt 0.11328125 0.87109375
vt 0.11328125 0.9375
vt 0.0625 0.9375
vt 0.0625 0.87109375
vt 0.05078125 0.87109375
vt 0.05078125 0.9375
vt 0 0.9375
vt 0 0.87109375
vt 0.201171875 0.5
vt 0.201171875 0.5625
vt 0.1953125 0.5625
vt 0.1953125 0.5
vt 0.232421875 0.5
vt 0.232421875 0.5625
vt 0.2265625 0.5625
vt 0.2265625 0.5
vt 0.484375 0.8515625
vt 0.484375 0.845703125
vt 0.53515625 0.845703125
vt 0.53515625 0.8515625
vt 0.4921875 0.994140625
vt 0.4921875 1
vt 0.54296875 1
vt 0.54296875 0.994140625
vt 0.05078125 0.796875
vt 0.05078125 0.859375
vt 0 0.859375
vt 0 0.796875
vt 0.17578125 0.8125
vt 0.17578125 0.875
vt 0.125 0.875
vt 0.125 0.8125
vt 0.0078125 0.470703125
vt 0.0078125 0.5078125
vt 0 0.5078125
vt 0 0.470703125
vt 0.109375 0.470703125
vt 0.109375 0.5078125
vt 0.1015625 0.5078125
vt 0.1015625 0.470703125
vt 0.40625 0.671875
vt 0.40625 0.6640625
vt 0.46875 0.6640625
vt 0.46875 0.671875
vt 0.40625 0.6484375
vt 0.40625 0.65625
vt 0.46875 0.65625
vt 0.46875 0.6484375
vt 0.25 0.837890625
vt 0.25 0.875
vt 0.1875 0.875
vt 0.1875 0.837890625
vt 0.203125 0.962890625
vt 0.203125 1
vt 0.140625 1
vt 0.140625 0.962890625
vt 0.140625 0.38671875
vt 0.140625 0.3984375
vt 0.1328125 0.3984375
vt 0.1328125 0.38671875
vt 0.2265625 0.38671875
vt 0.2265625 0.3984375
vt 0.21875 0.3984375
vt 0.21875 0.38671875
vt 0.546875 0.4765625
vt 0.546875 0.46875
vt 0.56640625 0.46875
vt 0.56640625 0.4765625
vt 0.5546875 0.9921875
vt 0.5546875 1
vt 0.57421875 1
vt 0.57421875 0.9921875
vt 0.53515625 0.57421875
vt 0.53515625 0.5859375
vt 0.515625 0.5859375
vt 0.515625 0.57421875
vt 0.53515625 0.59765625
vt 0.53515625 0.609375
vt 0.515625 0.609375
vt 0.515625 0.59765625
vt 0.0859375 0.6484375
vt 0.0859375 0.671875
vt 0.078125 0.671875
vt 0.078125 0.6484375
vt 0.15625 0.4453125
vt 0.15625 0.46875
vt 0.1484375 0.46875
vt 0.1484375 0.4453125
vt 0.5546875 0.96875
vt 0.5546875 0.9609375
vt 0.57421875 0.9609375
vt 0.57421875 0.96875
vt 0.5546875 0.8828125
vt 0.5546875 0.890625
vt 0.57421875 0.890625
vt 0.57421875 0.8828125
vt 0.10546875 0.546875
vt 0.10546875 0.5703125
vt 0.0859375 0.5703125
vt 0.0859375 0.546875
vt 0.44921875 0.90625
vt 0.44921875 0.9296875
vt 0.4296875 0.9296875
vt 0.4296875 0.90625
vt 0.216796875 0.478515625
vt 0.216796875 0.53125
vt 0.2109375 0.53125
vt 0.2109375 0.478515625
vt 0.474609375 0.587890625
vt 0.474609375 0.640625
vt 0.46875 0.640625
vt 0.46875 0.587890625
vt 0.578125 0.46875
vt 0.578125 0.462890625
vt 0.599609375 0.462890625
vt 0.599609375 0.46875
vt 0.578125 0.447265625
vt 0.578125 0.453125
vt 0.599609375 0.453125
vt 0.599609375 0.447265625
vt 0.255859375 0.681640625
vt 0.255859375 0.734375
vt 0.234375 0.734375
vt 0.234375 0.681640625
vt 0.224609375 0.681640625
vt 0.224609375 0.734375
vt 0.203125 0.734375
vt 0.203125 0.681640625
vt 0.609375 0.74609375
vt 0.609375 0.7578125
vt 0.6015625 0.7578125
vt 0.6015625 0.74609375
vt 0.28125 0.38671875
vt 0.28125 0.3984375
vt 0.2734375 0.3984375
vt 0.2734375 0.38671875
vt 0.5546875 0.875
vt 0.5546875 0.8671875
vt 0.57421875 0.8671875
vt 0.57421875 0.875
vt 0.5546875 0.8359375
vt 0.5546875 0.84375
vt 0.57421875 0.84375
vt 0.57421875 0.8359375
vt 0.54296875 0.91796875
vt 0.54296875 0.9296875
vt 0.5234375 0.9296875
vt 0.5234375 0.91796875
vt 0.49609375 0.47265625
vt 0.49609375 0.484375
vt 0.4765625 0.484375
vt 0.4765625 0.47265625
vt 0.2109375 0.4453125
vt 0.2109375 0.46875
vt 0.203125 0.46875
vt 0.203125 0.4453125
vt 0.265625 0.4453125
vt 0.265625 0.46875
vt 0.2578125 0.46875
vt 0.2578125 0.4453125
vt 0.5546875 0.828125
vt 0.5546875 0.8203125
vt 0.57421875 0.8203125
vt 0.57421875 0.828125
vt 0.5546875 0.8046875
vt 0.5546875 0.8125
vt 0.57421875 0.8125
vt 0.57421875 0.8046875
vt 0.44921875 0.84375
vt 0.44921875 0.8671875
vt 0.4296875 0.8671875
vt 0.4296875 0.84375
vt 0.44921875 0.875
vt 0.44921875 0.8984375
vt 0.4296875 0.8984375
vt 0.4296875 0.875
vt 0.474609375 0.525390625
vt 0.474609375 0.578125
vt 0.46875 0.578125
vt 0.46875 0.525390625
vt 0.044921875 0.470703125
vt 0.044921875 0.5234375
vt 0.0390625 0.5234375
vt 0.0390625 0.470703125
vt 0.578125 0.421875
vt 0.578125 0.416015625
vt 0.599609375 0.416015625
vt 0.599609375 0.421875
vt 0.5859375 0.994140625
vt 0.5859375 1
vt 0.607421875 1
vt 0.607421875 0.994140625
vt 0.021484375 0.673828125
vt 0.021484375 0.7265625
vt 0 0.7265625
vt 0 0.673828125
vt 0.287109375 0.681640625
vt 0.287109375 0.734375
vt 0.265625 0.734375
vt 0.265625 0.681640625
vt 0.25 0.962890625
vt 0.25 1
vt 0.2109375 1
vt 0.2109375 0.962890625
vt 0.0859375 0.736328125
vt 0.0859375 0.7734375
vt 0.046875 0.7734375
vt 0.046875 0.736328125
vt 0.1171875 0.4453125
vt 0.1171875 0.40625
vt 0.12109375 0.40625
vt 0.12109375 0.4453125
vt 0.1796875 0.40625
vt 0.1796875 0.4453125
vt 0.18359375 0.4453125
vt 0.18359375 0.40625
vt 0.26171875 0.400390625
vt 0.26171875 0.4375
vt 0.2578125 0.4375
vt 0.2578125 0.400390625
vt 0.56640625 0.728515625
vt 0.56640625 0.765625
vt 0.5625 0.765625
vt 0.5625 0.728515625
vt 0.265625 0.791015625
vt 0.265625 0.828125
vt 0.2265625 0.828125
vt 0.2265625 0.791015625
vt 0.265625 0.744140625
vt 0.265625 0.78125
vt 0.2265625 0.78125
vt 0.2265625 0.744140625
vt 0.21875 0.4453125
vt 0.21875 0.40625
vt 0.22265625 0.40625
vt 0.22265625 0.4453125
vt 0.34375 0.40625
vt 0.34375 0.4453125
vt 0.34765625 0.4453125
vt 0.34765625 0.40625
vt 0.37890625 0.400390625
vt 0.37890625 0.4375
vt 0.375 0.4375
vt 0.375 0.400390625
vt 0.36328125 0.400390625
vt 0.36328125 0.4375
vt 0.359375 0.4375
vt 0.359375 0.400390625
vt 0.390625 0.744140625
vt 0.390625 0.78125
vt 0.375 0.78125
vt 0.375 0.744140625
vt 0.375 0.587890625
vt 0.375 0.625
vt 0.359375 0.625
vt 0.359375 0.587890625
vt 0.3671875 0.390625
vt 0.3671875 0.375
vt 0.37109375 0.375
vt 0.37109375 0.390625
vt 0.609375 0.59375
vt 0.609375 0.609375
vt 0.61328125 0.609375
vt 0.61328125 0.59375
vt 0.56640625 0.494140625
vt 0.56640625 0.53125
vt 0.5625 0.53125
vt 0.5625 0.494140625
vt 0.46484375 0.400390625
vt 0.46484375 0.4375
vt 0.4609375 0.4375
vt 0.4609375 0.400390625
vt 0.015625 0.580078125
vt 0.015625 0.6171875
vt 0 0.6171875
vt 0 0.580078125
vt 0.3984375 0.634765625
vt 0.3984375 0.671875
vt 0.3828125 0.671875
vt 0.3828125 0.634765625
vt 0.609375 0.5859375
vt 0.609375 0.5703125
vt 0.61328125 0.5703125
vt 0.61328125 0.5859375
vt 0.4453125 0.375
vt 0.4453125 0.390625
vt 0.44921875 0.390625
vt 0.44921875 0.375
vt 0.00390625 0.392578125
vt 0.00390625 0.4296875
vt 0 0.4296875
vt 0 0.392578125
vt 0.56640625 0.423828125
vt 0.56640625 0.4609375
vt 0.5625 0.4609375
vt 0.5625 0.423828125
vt 0.359375 0.9765625
vt 0.359375 1
vt 0.3203125 1
vt 0.3203125 0.9765625
vt 0.0703125 0.6484375
vt 0.0703125 0.671875
vt 0.03125 0.671875
vt 0.03125 0.6484375
vt 0.1328125 0.5234375
vt 0.1328125 0.484375
vt 0.140625 0.484375
vt 0.140625 0.5234375
vt 0.4453125 0.484375
vt 0.4453125 0.5234375
vt 0.453125 0.5234375
vt 0.453125 0.484375
vt 0.0078125 0.4375
vt 0.0078125 0.4609375
vt 0 0.4609375
vt 0 0.4375
vt 0.46875 0.4453125
vt 0.46875 0.46875
vt 0.4609375 0.46875
vt 0.4609375 0.4453125
vt 0.3671875 0.9453125
vt 0.3671875 0.96875
vt 0.328125 0.96875
vt 0.328125 0.9453125
vt 0.3671875 0.9140625
vt 0.3671875 0.9375
vt 0.328125 0.9375
vt 0.328125 0.9140625
vt 0.015625 0.515625
vt 0.015625 0.4765625
vt 0.0234375 0.4765625
vt 0.0234375 0.515625
vt 0.484375 0.859375
vt 0.484375 0.8984375
vt 0.4921875 0.8984375
vt 0.4921875 0.859375
vt 0.109375 0.4375
vt 0.109375 0.4609375
vt 0.1015625 0.4609375
vt 0.1015625 0.4375
vt 0.0390625 0.4375
vt 0.0390625 0.4609375
vt 0.03125 0.4609375
vt 0.03125 0.4375
vt 0.138671875 0.40625
vt 0.138671875 0.4296875
vt 0.1328125 0.4296875
vt 0.1328125 0.40625
vt 0.169921875 0.40625
vt 0.169921875 0.4296875
vt 0.1640625 0.4296875
vt 0.1640625 0.40625
vt 0.5078125 0.765625
vt 0.5078125 0.759765625
vt 0.55078125 0.759765625
vt 0.55078125 0.765625
vt 0.5078125 0.744140625
vt 0.5078125 0.75
vt 0.55078125 0.75
vt 0.55078125 0.744140625
vt 0.31640625 0.9140625
vt 0.31640625 0.9375
vt 0.2734375 0.9375
vt 0.2734375 0.9140625
vt 0.31640625 0.9453125
vt 0.31640625 0.96875
vt 0.2734375 0.96875
vt 0.2734375 0.9453125
vt 0.279296875 0.40625
vt 0.279296875 0.4296875
vt 0.2734375 0.4296875
vt 0.2734375 0.40625
vt 0.576171875 0.6953125
vt 0.576171875 0.71875
vt 0.5703125 0.71875
vt 0.5703125 0.6953125
vt 0.5078125 0.734375
vt 0.5078125 0.728515625
vt 0.55078125 0.728515625
vt 0.55078125 0.734375
vt 0.2734375 0.486328125
vt 0.2734375 0.4921875
vt 0.31640625 0.4921875
vt 0.31640625 0.486328125
vt 0.31640625 0.796875
vt 0.31640625 0.8203125
vt 0.2734375 0.8203125
vt 0.2734375 0.796875
vt 0.31640625 0.828125
vt 0.31640625 0.8515625
vt 0.2734375 0.8515625
vt 0.2734375 0.828125
vt 0.310546875 0.40625
vt 0.310546875 0.4296875
vt 0.3046875 0.4296875
vt 0.3046875 0.40625
vt 0.576171875 0.6328125
vt 0.576171875 0.65625
vt 0.5703125 0.65625
vt 0.5703125 0.6328125
vt 0.5078125 0.5078125
vt 0.5078125 0.501953125
vt 0.55078125 0.501953125
vt 0.55078125 0.5078125
vt 0.5078125 0.486328125
vt 0.5078125 0.4921875
vt 0.55078125 0.4921875
vt 0.55078125 0.486328125
vt 0.18359375 0.6875
vt 0.18359375 0.7109375
vt 0.140625 0.7109375
vt 0.140625 0.6875
vt 0.31640625 0.765625
vt 0.31640625 0.7890625
vt 0.2734375 0.7890625
vt 0.2734375 0.765625
vt 0.06640625 0.482421875
vt 0.06640625 0.5078125
vt 0.0546875 0.5078125
vt 0.0546875 0.482421875
vt 0.08984375 0.482421875
vt 0.08984375 0.5078125
vt 0.078125 0.5078125
vt 0.078125 0.482421875
vt 0.4765625 0.5078125
vt 0.4765625 0.49609375
vt 0.5 0.49609375
vt 0.5 0.5078125
vt 0.5 0.89453125
vt 0.5 0.90625
vt 0.5234375 0.90625
vt 0.5234375 0.89453125
vt 0.3984375 0.794921875
vt 0.3984375 0.8203125
vt 0.375 0.8203125
vt 0.375 0.794921875
vt 0.3984375 0.935546875
vt 0.3984375 0.9609375
vt 0.375 0.9609375
vt 0.375 0.935546875
vt 0.123046875 0.373046875
vt 0.123046875 0.3828125
vt 0.1171875 0.3828125
vt 0.1171875 0.373046875
vt 0.623046875 0.787109375
vt 0.623046875 0.796875
vt 0.6171875 0.796875
vt 0.6171875 0.787109375
vt 0.6328125 0.71875
vt 0.6328125 0.712890625
vt 0.638671875 0.712890625
vt 0.638671875 0.71875
vt 0.3046875 0.361328125
vt 0.3046875 0.3671875
vt 0.310546875 0.3671875
vt 0.310546875 0.361328125
vt 0.169921875 0.373046875
vt 0.169921875 0.3828125
vt 0.1640625 0.3828125
vt 0.1640625 0.373046875
vt 0.623046875 0.888671875
vt 0.623046875 0.8984375
vt 0.6171875 0.8984375
vt 0.6171875 0.888671875
vt 0.625 0.822265625
vt 0.625 0.828125
vt 0.6171875 0.828125
vt 0.6171875 0.822265625
vt 0.6328125 0.587890625
vt 0.6328125 0.59375
vt 0.625 0.59375
vt 0.625 0.587890625
vt 0.375 0.921875
vt 0.375 0.9140625
vt 0.3828125 0.9140625
vt 0.3828125 0.921875
vt 0.390625 0.828125
vt 0.390625 0.8359375
vt 0.3984375 0.8359375
vt 0.3984375 0.828125
vt 0.625 0.556640625
vt 0.625 0.5625
vt 0.6171875 0.5625
vt 0.6171875 0.556640625
vt 0.625 0.994140625
vt 0.625 1
vt 0.6171875 1
vt 0.6171875 0.994140625
vt 0.603515625 0.76953125
vt 0.603515625 0.78125
vt 0.59375 0.78125
vt 0.59375 0.76953125
vt 0.525390625 0.39453125
vt 0.525390625 0.40625
vt 0.515625 0.40625
vt 0.515625 0.39453125
vt 0.6171875 0.7734375
vt 0.6171875 0.763671875
vt 0.623046875 0.763671875
vt 0.623046875 0.7734375
vt 0.2890625 0.373046875
vt 0.2890625 0.3828125
vt 0.294921875 0.3828125
vt 0.294921875 0.373046875
vt 0.318359375 0.37890625
vt 0.318359375 0.390625
vt 0.3125 0.390625
vt 0.3125 0.37890625
vt 0.615234375 0.72265625
vt 0.615234375 0.734375
vt 0.609375 0.734375
vt 0.609375 0.72265625
vt 0.587890625 0.39453125
vt 0.587890625 0.40625
vt 0.578125 0.40625
vt 0.578125 0.39453125
vt 0.041015625 0.38671875
vt 0.041015625 0.3984375
vt 0.03125 0.3984375
vt 0.03125 0.38671875
vt 0.6171875 0.53125
vt 0.6171875 0.521484375
vt 0.623046875 0.521484375
vt 0.623046875 0.53125
vt 0.4765625 0.373046875
vt 0.4765625 0.3828125
vt 0.482421875 0.3828125
vt 0.482421875 0.373046875
vt 0.357421875 0.37890625
vt 0.357421875 0.390625
vt 0.3515625 0.390625
vt 0.3515625 0.37890625
vt 0.615234375 0.66796875
vt 0.615234375 0.6796875
vt 0.609375 0.6796875
vt 0.609375 0.66796875
vt 0.462890625 0.359375
vt 0.462890625 0.390625
vt 0.4609375 0.390625
vt 0.4609375 0.359375
vt 0.603515625 0.359375
vt 0.603515625 0.390625
vt 0.6015625 0.390625
vt 0.6015625 0.359375
vt 0.6328125 0.96875
vt 0.6328125 0.966796875
vt 0.65234375 0.966796875
vt 0.65234375 0.96875
vt 0.6328125 0.951171875
vt 0.6328125 0.953125
vt 0.65234375 0.953125
vt 0.65234375 0.951171875
vt 0.37890625 0.828125
vt 0.37890625 0.859375
vt 0.359375 0.859375
vt 0.359375 0.828125
vt 0.11328125 0.609375
vt 0.11328125 0.640625
vt 0.09375 0.640625
vt 0.09375 0.609375
vt 0.634765625 0.474609375
vt 0.634765625 0.484375
vt 0.6328125 0.484375
vt 0.6328125 0.474609375
vt 0.634765625 0.451171875
vt 0.634765625 0.4609375
vt 0.6328125 0.4609375
vt 0.6328125 0.451171875
vt 0.1640625 0.359375
vt 0.1640625 0.357421875
vt 0.169921875 0.357421875
vt 0.169921875 0.359375
vt 0.640625 0.818359375
vt 0.640625 0.8203125
vt 0.646484375 0.8203125
vt 0.646484375 0.818359375
vt 0.513671875 0.373046875
vt 0.513671875 0.3828125
vt 0.5078125 0.3828125
vt 0.5078125 0.373046875
vt 0.498046875 0.373046875
vt 0.498046875 0.3828125
vt 0.4921875 0.3828125
vt 0.4921875 0.373046875
vt 0.3203125 0.609375
vt 0.3203125 0.6484375
vt 0.3046875 0.6484375
vt 0.3046875 0.609375
vt 0.2421875 0.6015625
vt 0.2421875 0.640625
vt 0.2265625 0.640625
vt 0.2265625 0.6015625
vt 0.2734375 0.515625
vt 0.2734375 0.5
vt 0.29296875 0.5
vt 0.29296875 0.515625
vt 0.3046875 0.5
vt 0.3046875 0.515625
vt 0.32421875 0.515625
vt 0.32421875 0.5
vt 0.01953125 0.625
vt 0.01953125 0.6640625
vt 0 0.6640625
vt 0 0.625
vt 0.34765625 0.6484375
vt 0.34765625 0.6875
vt 0.328125 0.6875
vt 0.328125 0.6484375
vt 0.001953125 0.3515625
vt 0.001953125 0.3828125
vt 0 0.3828125
vt 0 0.3515625
vt 0.619140625 0.9375
vt 0.619140625 0.96875
vt 0.6171875 0.96875
vt 0.6171875 0.9375
vt 0.6328125 0.90625
vt 0.6328125 0.904296875
vt 0.65234375 0.904296875
vt 0.65234375 0.90625
vt 0.6328125 0.888671875
vt 0.6328125 0.890625
vt 0.65234375 0.890625
vt 0.65234375 0.888671875
vt 0.34765625 0.609375
vt 0.34765625 0.640625
vt 0.328125 0.640625
vt 0.328125 0.609375
vt 0.37890625 0.6796875
vt 0.37890625 0.7109375
vt 0.359375 0.7109375
vt 0.359375 0.6796875
vt 0.634765625 0.404296875
vt 0.634765625 0.4140625
vt 0.6328125 0.4140625
vt 0.6328125 0.404296875
vt 0.634765625 0.380859375
vt 0.634765625 0.390625
vt 0.6328125 0.390625
vt 0.6328125 0.380859375
vt 0.640625 0.75
vt 0.640625 0.748046875
vt 0.646484375 0.748046875
vt 0.646484375 0.75
vt 0.640625 0.732421875
vt 0.640625 0.734375
vt 0.646484375 0.734375
vt 0.646484375 0.732421875
vt 0.583984375 0.373046875
vt 0.583984375 0.3828125
vt 0.578125 0.3828125
vt 0.578125 0.373046875
vt 0.529296875 0.373046875
vt 0.529296875 0.3828125
vt 0.5234375 0.3828125
vt 0.5234375 0.373046875
vt 0.265625 0.6015625
vt 0.265625 0.640625
vt 0.25 0.640625
vt 0.25 0.6015625
vt 0.375 0.6328125
vt 0.375 0.671875
vt 0.359375 0.671875
vt 0.359375 0.6328125
vt 0.484375 0.6484375
vt 0.484375 0.6328125
vt 0.50390625 0.6328125
vt 0.50390625 0.6484375
vt 0.484375 0.609375
vt 0.484375 0.625
vt 0.50390625 0.625
vt 0.50390625 0.609375
vt 0.29296875 0.609375
vt 0.29296875 0.6484375
vt 0.2734375 0.6484375
vt 0.2734375 0.609375
vt 0.35546875 0.8671875
vt 0.35546875 0.90625
vt 0.3359375 0.90625
vt 0.3359375 0.8671875
vt 0.3828125 0.8671875
vt 0.3828125 0.90625
vt 0.3671875 0.90625
vt 0.3671875 0.8671875
vt 0.140625 0.59375
vt 0.140625 0.6328125
vt 0.125 0.6328125
vt 0.125 0.59375
vt 0.484375 0.6015625
vt 0.484375 0.5859375
vt 0.50390625 0.5859375
vt 0.50390625 0.6015625
vt 0.484375 0.5625
vt 0.484375 0.578125
vt 0.50390625 0.578125
vt 0.50390625 0.5625
vt 0.08203125 0.6015625
vt 0.08203125 0.640625
vt 0.0625 0.640625
vt 0.0625 0.6015625
vt 0.05078125 0.6015625
vt 0.05078125 0.640625
vt 0.03125 0.640625
vt 0.03125 0.6015625
vt 0.056640625 0.3515625
vt 0.056640625 0.3828125
vt 0.0546875 0.3828125
vt 0.0546875 0.3515625
vt 0.072265625 0.3515625
vt 0.072265625 0.3828125
vt 0.0703125 0.3828125
vt 0.0703125 0.3515625
vt 0.6328125 0.8515625
vt 0.6328125 0.849609375
vt 0.65234375 0.849609375
vt 0.65234375 0.8515625
vt 0.6328125 0.833984375
vt 0.6328125 0.8359375
vt 0.65234375 0.8359375
vt 0.65234375 0.833984375
vt 0.39453125 0.96875
vt 0.39453125 1
vt 0.375 1
vt 0.375 0.96875
vt 0.16796875 0.6015625
vt 0.16796875 0.6328125
vt 0.1484375 0.6328125
vt 0.1484375 0.6015625
vt 0.619140625 0.357421875
vt 0.619140625 0.3671875
vt 0.6171875 0.3671875
vt 0.6171875 0.357421875
vt 0.634765625 0.357421875
vt 0.634765625 0.3671875
vt 0.6328125 0.3671875
vt 0.6328125 0.357421875
vt 0.2890625 0.359375
vt 0.2890625 0.357421875
vt 0.294921875 0.357421875
vt 0.294921875 0.359375
vt 0.640625 0.701171875
vt 0.640625 0.703125
vt 0.646484375 0.703125
vt 0.646484375 0.701171875
vt 0.037109375 0.365234375
vt 0.037109375 0.375
vt 0.03125 0.375
vt 0.03125 0.365234375
vt 0.623046875 0.380859375
vt 0.623046875 0.390625
vt 0.6171875 0.390625
vt 0.6171875 0.380859375
vn 1 0 0
vn -1 0 0
vn 0 1 0
vn 0 -1 0
vn 0 0 1
vn -0.07478994824163422 0 -0.9971993098884564
vn 1 0 0
vn -1 0 0
vn 0 1 0
vn 0 -1 0
vn 0 0 1
vn 0.07475683520093031 -0.029753964259076726 -0.9967578026790714
vn 1 0 0
vn -1 0 0
vn 0 1 0
vn 0 -1 0
vn 0 0 1
vn 0 0 -1
vn 1 0 0
vn -1 0 0
vn -0.18197499886518467 0.9618156244212481 0.20444022208748613
vn 0 -0.9781476007338058 -0.20791169081775895
vn 0 -0.2079116908177594 0.9781476007338056
vn 2.686164253670933e-16 0.2079116908177592 -0.9781476007338057
vn 1 0 0
vn -1 0 0
vn 0 0.9781476007338057 0.20791169081775962
vn 0 -0.9854156158715311 -0.1701648142141346
vn 0 -0.2079116908177594 0.9781476007338056
vn 0 0.24208368467527505 -0.9702553734012721
vn 1 0 0
vn -1 0 0
vn 0.17100167575116473 0.9749234180895251 -0.14241754018003006
vn 0 -0.9781476007338057 -0.20791169081775962
vn 0 -0.2079116908177594 0.9781476007338056
vn 0.0064893785789390005 0.24207858730338816 -0.9702349434723815
vn 0.9574818564260025 0.2812827591472232 0.06409761322811863
vn -0.8968262057175789 -0.439808457556482 -0.04765792064283893
vn -0.27505634437783094 0.9570859180594437 -0.09127186242109925
vn 0.2750563443778301 -0.957085918059444 0.09127186242109919
vn -0.08702012429616535 0.06976069709254297 0.9937610090502861
vn 0.08702012429616533 -0.06976069709254296 -0.9937610090502861
vn 0.8968262057175792 -0.43980845755648174 -0.0476579206428389
vn -0.9574818564260025 0.2812827591472232 0.06409761322811824
vn 0.27505634437783094 0.9570859180594437 -0.09127186242109925
vn -0.2750563443778297 -0.9570859180594435 0.0912718624211034
vn 0.08702012429616536 0.069760697092543 0.9937610090502861
vn -0.08702012429616535 -0.06976069709254297 -0.9937610090502861
vn 1 0 0
vn -1 0 0
vn 0 0.9781476007338057 0.20791169081775962
vn 0 -0.9781476007338058 -0.20791169081775895
vn 0 -0.2079116908177594 0.9781476007338056
vn 0 0.3074586104488609 -0.9515614551151469
vn 1 0 0
vn -1 0 0
vn 0 0.9961946980917453 0.08715574274766161
vn 0 -0.9961946980917453 -0.08715574274766161
vn 0 -0.08715574274765785 0.9961946980917455
vn 0 0.08715574274765785 -0.9961946980917455
vn -0.8976557920642317 -0.3818751612160556 -0.21996690710138264
vn 0.8976557920642313 0.38187516121605647 0.21996690710138322
vn -0.423578968559381 0.8853901037397702 0.19148164819075975
vn 0.42357896855938204 -0.88539010373977 -0.19148164819075914
vn -0.12163443742504713 -0.2650579661996428 0.9565298417646997
vn 0.12163443742504715 0.2650579661996427 -0.9565298417646997
vn 0.8976557920642317 -0.3818751612160555 -0.21996690710138264
vn -0.8976557920642313 0.38187516121605647 0.21996690710138322
vn 0.42357896855938093 0.8853901037397702 0.19148164819075997
vn -0.42357896855938204 -0.8853901037397698 -0.19148164819075947
vn 0.12163443742504718 -0.2650579661996427 0.9565298417646997
vn -0.1216344374250471 0.2650579661996428 -0.9565298417646997
vn 1 0 0
vn -1 0 0
vn -8.638214859966146e-16 0.9483236552061997 -0.3173046564050912
vn 0 -0.9483236552061997 0.3173046564050912
vn -0.10653312363426536 0.31549892444496297 0.9429268912502168
vn 0.14020528620036168 -0.4355105213373908 -0.8891979889349215
vn 1 0 0
vn -1 0 0
vn 6.009577756062512e-16 0.9483236552061992 -0.3173046564050931
vn 0 -0.9483236552061997 0.3173046564050912
vn 0.1060103763322978 0.4077808074182937 0.9069049637151454
vn -0.1414213562373097 -0.31411558394455147 -0.9387925222982837
vn -0.44879716796435043 0.5815489687727179 0.6785144795408328
vn 0.4487971679643504 -0.5815489687727178 -0.6785144795408328
vn 0.1939594893962432 -0.6777846977790718 0.7092162011190106
vn 0.8723306818519727 0.4498985445363447 0.19139091181075193
vn -0.8723306818519729 -0.44989854453634465 -0.19139091181075202
vn -0.19395948939624327 0.6777846977790718 -0.7092162011190107
vn -0.18019747838303754 -0.06804889210904834 0.9812737727398639
vn 0.18019747838303782 0.06804889210904813 -0.9812737727398637
vn 0.454497454343338 -0.8904834446118728 0.021709418868306643
vn 0.8723307473543617 0.4498984142613823 0.19139091949534726
vn -0.8723307473543617 -0.4498984142613821 -0.1913909194953479
vn -0.4544974543433381 0.8904834446118726 -0.021709418868305703
vn 0.9074923851417038 0.28973008742431966 -0.3041612193408586
vn -0.9737817533728413 -0.22247760105626146 0.047463815969280766
vn -0.19899693091023818 0.9341856813152104 0.29613735717390016
vn 0.1989969309102384 -0.9341856813152106 -0.29613735717389966
vn 0.2823249104201602 -0.2347215022449762 0.9301604492452419
vn -0.0042911114204860325 0.39848774668841125 -0.9171636179559074
vn 0.8187676940987342 0.5216125397152016 -0.23987459538704586
vn -0.8351836252359796 -0.5320706443261092 0.13917306342854616
vn -0.5125231426734629 0.6612013812967971 -0.5478437383007355
vn 0.5372996073897661 -0.8433914464225982 2.6014030041210386e-8
vn 0.11737735742676253 0.07477765406588122 0.9902680740162806
vn -0.1709859583068679 -0.1845575729302731 -0.9678338206200324
vn 0.5271962225498154 0.6772576912492608 -0.5132116157813722
vn -0.5453324977169113 -0.7947257304410597 0.266502308261597
vn -0.4953317845692738 0.04904611627985797 -0.8673182239946775
vn 0.7776416072808335 -0.5983409264915612 -0.1930328114878458
vn -0.008522243576422627 0.3231787574803114 0.9462995625476673
vn 0.041411561236553034 -0.31317776091594884 -0.9487912165822491
vn 0.3014193165473378 0.9439489205323297 -0.13456162542859532
vn -0.12325021691755915 -0.9793056885854134 0.16052959955729082
vn -0.441511817348351 -0.29434196299006576 -0.8476025743029048
vn -0.19908631965206908 0.38243024058863484 0.9022814130916769
vn -0.890083762403347 0.3444103639343427 0.2985504934186441
vn 0.9370393896349762 -0.31346202936946843 -0.15394394569480763
vn 0.28130951657099007 0.9408938331998339 -0.18863655672514637
vn -0.27600698717824246 -0.9463457609208769 0.16807689851932658
vn 0.25063602158843473 -0.21854888134520797 -0.9430895880800932
vn -0.20822639984323535 0.020726183113741657 0.9778610288491209
vn -0.9770127427033672 0.17196436951191812 -0.1259934768692909
vn 0.9810588021273071 -0.1850721299574861 0.057200817140427566
vn 0.2871163205536242 0.3450240130196518 -0.8936009450037327
vn -0.4775172969613653 -0.6785348518985512 0.5581824843738133
vn 0.20822525668438494 -0.020724565857686502 -0.9778613065505417
vn -0.630814766668011 0.5993995999334459 0.4927401442476633
vn -0.00010241998215243395 0.042506556988871305 -0.9990961826186202
vn 0.36148740461460804 0.08135871592636999 0.9288205508319717
vn 0.7544435838544459 0.6468454809261682 -0.11138133859068962
vn -0.7544435838544459 -0.6468454809261684 0.1113813385906879
vn 0.6561485450063357 -0.7476133037056343 0.10268123006867327
vn -0.6561485450063357 0.7476133037056346 -0.10268123006867048
vn -0.01685128086908001 -0.15054989846473035 -0.98845878133857
vn 0.016851280869079843 0.15054989846473033 0.98845878133857
vn 0.7554159302355359 0.645735936005635 -0.11122892293512043
vn -0.8794896220889453 -0.4680320828967926 0.0862784678650124
vn 0.6561485450063357 -0.7476133037056347 0.10268123006867066
vn 0.18019906664503207 0.06804524115965485 -0.9812737342534874
vn 0.17914671937961268 -0.36618087409680145 -0.9131363646144124
vn -0.40301215804961243 0.5904545602702888 0.6992457455860667
vn 0.05646536090708572 0.059816495273136205 -0.9966110825747784
vn 1 0 0
vn -1 0 0
vn 0 1 0
vn 0 -1 0
vn 0 0 1
vn 0 0 -1
vn 1 0 0
vn -1 0 0
vn 0 0.9993908270190958 0.03489949670250067
vn 0 -0.9993908270190958 -0.03489949670250289
vn 0 -0.03489949670250096 0.9993908270190959
vn 0 0.03489949670250097 -0.9993908270190959
vn 1 0 0
vn -1 0 0
vn 0 0.9902680687415706 -0.1391731009600647
vn 0 -0.9902680687415706 0.1391731009600647
vn 0 0.13917310096006535 0.9902680687415704
vn 0 -0.13917310096006535 -0.9902680687415704
vn 0.9574817175661282 0.28128323424922136 0.06409760258320996
vn -0.9574817175661283 -0.28128323424922036 -0.06409760258321004
vn 0.0027991353978144987 0.21311175450296743 -0.9770238200441644
vn -0.0027991353978150443 -0.21311175450296665 0.9770238200441645
vn -0.28848037258649273 0.9356618631872122 0.2032632588772328
vn 0.28848037258649395 -0.9356618631872119 -0.20326325887723276
vn 0.9579455165477696 0.2756990113993279 0.07956407756934301
vn -0.9579455165477695 -0.2756990113993284 -0.0795640775693427
vn -0.13180308673105337 0.1764602854582556 0.9754433422727111
vn 0.13180308673105348 -0.17646028545825573 -0.975443342272711
vn 0.2548888653005331 -0.9449083673930635 0.20537732001460732
vn -0.2548888653005344 0.9449083673930629 -0.20537732001460735
vn 0.9579455504865693 0.2756986864317563 0.07956479499620368
vn -0.9579455504865693 -0.2756986864317565 -0.07956479499620366
vn -0.2861258542850688 0.9387411480584381 0.19208605480764485
vn 0.2861258542850689 -0.938741148058438 -0.1920860548076445
vn -0.021732874007444676 -0.20677352645280486 0.9781474280217927
vn 0.02173287400744477 0.20677352645280503 -0.9781474280217927
vn 0.9574817175661284 -0.28128323424922047 -0.06409760258320948
vn -0.9574817175661281 0.28128323424922125 0.06409760258321023
vn -0.0027991353978147324 0.21311175450296677 -0.9770238200441647
vn 0.002799135397815259 -0.213111754502966 0.9770238200441647
vn 0.28848037258649273 0.9356618631872123 0.20326325887723282
vn -0.2884803725864939 -0.9356618631872118 -0.20326325887723262
vn 0.9579455165477695 -0.2756990113993284 -0.07956407756934276
vn -0.9579455165477696 0.27569901139932795 0.07956407756934301
vn 0.13180308673105354 0.17646028545825623 0.9754433422727109
vn -0.13180308673105345 -0.17646028545825554 -0.9754433422727111
vn -0.254888865300533 -0.9449083673930633 0.20537732001460843
vn 0.25488886530053434 0.9449083673930629 -0.20537732001460735
vn 0.9579455504865693 -0.2756986864317563 -0.07956479499620363
vn -0.9579455504865693 0.2756986864317563 0.07956479499620368
vn 0.28612585428506887 0.9387411480584379 0.19208605480764468
vn -0.28612585428506887 -0.9387411480584379 -0.19208605480764468
vn 0.021732874007444676 -0.20677352645280497 0.9781474280217927
vn -0.02173287400744482 0.20677352645280497 -0.9781474280217927
vn 0.9961946980917455 0 0.08715574274765822
vn -0.9961946980917455 0 -0.08715574274765822
vn 0 1 0
vn 0 -1 0
vn -0.08715574274765849 0 0.9961946980917457
vn 0.08715574274765849 0 -0.9961946980917457
vn 0.9961946980917455 0 -0.08715574274765822
vn -0.9961946980917455 0 0.08715574274765822
vn 0 1 0
vn 0 -1 0
vn 0.08715574274765849 0 0.9961946980917457
vn -0.08715574274765849 0 -0.9961946980917457
vn 0.8703556959398997 0 -0.4924235601034669
vn -0.8703556959398997 0 0.49242356010346716
vn 0 1 0
vn 0 -1 0
vn 0.492423560103466 0 0.8703556959399005
vn -0.4924235601034671 0 -0.8703556959398997
vn 0.8703556959398997 0 0.49242356010346716
vn -0.8703556959398997 0 -0.4924235601034669
vn 0 1 0
vn 0 -1 0
vn -0.492423560103466 0 0.8703556959399005
vn 0.4924235601034671 0 -0.8703556959398997
vn 1 0 0
vn -1 0 0
vn 0 1 0
vn 0 -1 0
vn 0 0 1
vn 0 0 -1
vn 1 0 0
vn -1 0 0
vn 0 1 0
vn 0 -1 0
vn 0 0 1
vn 0 0 -1
vn 2.1147105230955357e-16 -0.17364817766693033 -0.9848077530122081
vn -1.7975039446312038e-15 0.17364817766693008 0.9848077530122081
vn -0.182235525492146 0.9683170561562847 -0.17074042288054656
vn 0.18223552549214603 -0.9683170561562847 0.17074042288054717
vn 0.9832549075639547 0.17946695837892057 -0.031644866907886544
vn -0.9832549075639547 -0.1794669583789208 0.03164486690788648
vn 1.7975039446312058e-15 0.17364817766693028 0.9848077530122081
vn -2.1147105230955357e-16 -0.17364817766693033 -0.9848077530122081
vn 0.18223552549215077 0.9683170561562839 -0.17074042288054644
vn -0.1822355254921459 -0.9683170561562847 0.17074042288054717
vn -0.9832549075639547 0.17946695837892054 -0.03164486690788656
vn 0.9832549075639547 -0.17946695837892054 0.03164486690788644
vn 1 0 0
vn -1 0 0
vn 0 0.9990482215818577 0.0436193873653374
vn 0 -0.9990482215818577 -0.0436193873653374
vn 0 -0.04361938736533619 0.9990482215818579
vn 0 0.04361938736533619 -0.9990482215818579
vn -0.8348141345037763 0.5386730959255408 -0.11365146967243506
vn 0.8348141345037762 -0.5386730959255407 0.11365146967243568
vn 0.5502956244389297 0.8225285841205777 -0.14360172014278444
vn -0.5502956244389293 -0.8225285841205778 0.14360172014278447
vn 0.01612719926334449 -0.18242265218604742 -0.9830879357480331
vn -0.016127199263344442 0.18242265218604753 0.9830879357480331
vn -0.8348141345037758 0.5386730959255408 -0.11365146967243793
vn 0.8348141345037766 -0.5386730959255398 0.11365146967243495
vn 0.5502956244389301 0.8225285841205766 -0.14360172014278808
vn -0.5502956244389307 -0.8225285841205765 0.14360172014278771
vn 0.016127199263344476 -0.18242265218604817 -0.983087935748033
vn -0.016127199263344077 0.18242265218604725 0.9830879357480331
vn -0.834814134503777 0.5386730959255398 -0.11365146967243413
vn 0.834814134503777 -0.5386730959255398 0.11365146967243413
vn 0.5502956244389311 0.8225285841205769 -0.14360172014278222
vn -0.5502956244389311 -0.8225285841205769 0.1436017201427822
vn 0.016127199263344442 -0.18242265218604725 -0.9830879357480332
vn -0.016127199263343946 0.18242265218604806 0.9830879357480331
vn -0.18893732587084902 -0.9660585930460044 0.1761632245809185
vn 0.18893732587084916 0.9660585930460045 -0.17616322458091857
vn -0.9818567106949432 0.1829009862504358 -0.050046267512418925
vn 0.9818567106949435 -0.18290098625043497 0.050046267512418995
vn 0.016127199263344324 -0.18242265218604742 -0.9830879357480332
vn -0.016127199263344057 0.1824226521860474 0.9830879357480332
vn -0.8278764026284413 -0.5537760545029753 0.08917815556574747
vn 0.8278764026284419 0.5537760545029746 -0.08917815556574717
vn 0.5606786739433831 -0.8124371098297563 0.1599542658279612
vn -0.560678673943383 0.8124371098297559 -0.15995426582796377
vn -0.01612719926334411 0.18242265218604764 0.983087935748033
vn 0.01612719926334377 -0.18242265218604808 -0.983087935748033
vn 0.7660444431189767 -0.6427876096865413 -6.661338147750977e-15
vn -0.7660444431189797 0.6427876096865376 -4.44089209850063e-15
vn 0.6020812775868373 0.7175325255978255 -0.3502073812594587
vn -0.6020812775868343 -0.7175325255978221 0.3502073812594706
vn 0.22510896549435586 0.2682744183530643 0.9366721892483976
vn -0.22510896549435544 -0.26827441835306437 -0.9366721892483977
vn 0.7696117340328431 -0.6385117736828809 -0.0007026430829026217
vn -0.7696117340328433 0.6385117736828805 0.0007026430829026217
vn 0.5980484242617301 0.7212250422864344 -0.34953185923030367
vn -0.5980484242617302 -0.7212250422864341 0.34953185923030367
vn 0.22368697118299538 0.2685836056934061 0.9369242155455836
vn -0.22368697118299546 -0.2685836056934062 -0.9369242155455835
vn 0.7660444431189782 -0.642787609686539 1.06581410364015e-15
vn -0.7660444431189781 0.6427876096865393 3.552713678800501e-16
vn 0.6020812775868356 0.7175325255978221 -0.3502073812594684
vn -0.6020812775868352 -0.7175325255978228 0.35020738125946793
vn 0.22510896549435555 0.2682744183530645 0.9366721892483978
vn -0.22510896549435586 -0.26827441835306426 -0.9366721892483977
vn 0.6127467835913986 -0.6964490276877197 -0.3734971633509764
vn -0.6127467835914052 0.6964490276877197 0.3734971633509653
vn 0.6020812775868384 0.717532525597823 -0.35020738125946177
vn -0.6020812775868322 -0.7175325255978228 0.350207381259473
vn 0.5118979530900631 -0.010287202828704869 0.8589846675466128
vn -0.5118979530900633 0.01028720282870479 -0.8589846675466126
vn 0.6180582518886144 -0.6999392505591195 -0.3578952958605745
vn -0.6180582518886162 0.6999392505591179 0.3578952958605749
vn 0.6064182629189346 0.714201679999775 -0.34953233138564
vn -0.6064182629189389 -0.714201679999775 0.34953233138563267
vn 0.5002608196438855 -0.0010029019078739204 0.8658741863094147
vn -0.5002608196438854 0.0010029019078735594 -0.8658741863094148
vn 0.6215873104200955 -0.696522491572346 -0.35844892838250075
vn -0.6215873104200951 0.6965224915723464 0.3584489283825007
vn 0.6020812775868357 0.717532525597823 -0.3502073812594666
vn -0.6020812775868352 -0.717532525597823 0.3502073812594676
vn 0.5011260826419992 0.0018690754561699156 0.8653722643191329
vn -0.5011260826419991 -0.0018690754561700997 -0.8653722643191333
vn 0.793878253563165 -0.4911941411101487 0.35844892838249964
vn -0.7938782535631652 0.4911941411101487 -0.3584489283824997
vn 0.6020812775868357 0.7175325255978227 -0.3502073812594672
vn -0.6020812775868353 -0.717532525597823 0.35020738125946727
vn -0.0851789510319493 0.49383741296936295 0.8653722643191334
vn 0.08517895103194945 -0.4938374129693628 -0.8653722643191333
vn 0.7922707643865995 -0.4825006786182227 0.3734971633509791
vn -0.792270764386601 0.4825006786182267 -0.37349716335097105
vn 0.6020812775868373 0.7175325255978163 -0.35020738125947765
vn -0.602081277586835 -0.7175325255978233 0.3502073812594671
vn -0.0990210638080396 0.5023347189296792 0.8589846675466126
vn 0.09902106380803896 -0.5023347189296788 -0.8589846675466127
vn 0.7966302897206409 -0.48712538293593005 0.3578952958605794
vn -0.7966302897206414 0.4871253829359295 -0.357895295860579
vn 0.5980479254183054 0.7212252271093846 -0.3495323313856356
vn -0.598047925418304 -0.7212252271093854 0.34953233138563616
vn -0.08785704526371013 0.4924865816248594 0.8658741863094149
vn 0.08785704526371012 -0.49248658162485925 -0.8658741863094148
usemtl m_636391ec-9e56-4bcf-9d48-69b4e4b47126
f 4/1/1 2/2/1 1/3/1 3/4/1
f 7/5/2 5/6/2 6/7/2 8/8/2
f 1/9/3 2/10/3 6/11/3 5/12/3
f 4/13/4 3/14/4 7/15/4 8/16/4
f 3/17/5 1/18/5 5/19/5 7/20/5
f 8/21/6 6/22/6 2/23/6 4/24/6
f 12/25/7 10/26/7 9/27/7 11/28/7
f 15/29/8 13/30/8 14/31/8 16/32/8
f 9/33/9 10/34/9 14/35/9 13/36/9
f 12/37/10 11/38/10 15/39/10 16/40/10
f 11/41/11 9/42/11 13/43/11 15/44/11
f 16/45/12 14/46/12 10/47/12 12/48/12
f 20/49/13 18/50/13 17/51/13 19/52/13
f 23/53/14 21/54/14 22/55/14 24/56/14
f 17/57/15 18/58/15 22/59/15 21/60/15
f 20/61/16 19/62/16 23/63/16 24/64/16
f 19/65/17 17/66/17 21/67/17 23/68/17
f 24/69/18 22/70/18 18/71/18 20/72/18
f 28/73/19 26/74/19 25/75/19 27/76/19
f 31/77/20 29/78/20 30/79/20 32/80/20
f 25/81/21 26/82/21 30/83/21 29/84/21
f 28/85/22 27/86/22 31/87/22 32/88/22
f 27/89/23 25/90/23 29/91/23 31/92/23
f 32/93/24 30/94/24 26/95/24 28/96/24
f 36/97/25 34/98/25 33/99/25 35/100/25
f 39/101/26 37/102/26 38/103/26 40/104/26
f 33/105/27 34/106/27 38/107/27 37/108/27
f 36/109/28 35/110/28 39/111/28 40/112/28
f 35/113/29 33/114/29 37/115/29 39/116/29
f 40/117/30 38/118/30 34/119/30 36/120/30
f 44/121/31 42/122/31 41/123/31 43/124/31
f 47/125/32 45/126/32 46/127/32 48/128/32
f 41/129/33 42/130/33 46/131/33 45/132/33
f 44/133/34 43/134/34 47/135/34 48/136/34
f 43/137/35 41/138/35 45/139/35 47/140/35
f 48/141/36 46/142/36 42/143/36 44/144/36
f 52/145/37 50/146/37 49/147/37 51/148/37
f 55/149/38 53/150/38 54/151/38 56/152/38
f 49/153/39 50/154/39 54/155/39 53/156/39
f 52/157/40 51/158/40 55/159/40 56/160/40
f 51/161/41 49/162/41 53/163/41 55/164/41
f 56/165/42 54/166/42 50/167/42 52/168/42
f 60/169/43 58/170/43 57/171/43 59/172/43
f 63/173/44 61/174/44 62/175/44 64/176/44
f 57/177/45 58/178/45 62/179/45 61/180/45
f 60/181/46 59/182/46 63/183/46 64/184/46
f 59/185/47 57/186/47 61/187/47 63/188/47
f 64/189/48 62/190/48 58/191/48 60/192/48
f 68/193/49 66/194/49 65/195/49 67/196/49
f 71/197/50 69/198/50 70/199/50 72/200/50
f 65/201/51 66/202/51 70/203/51 69/204/51
f 68/205/52 67/206/52 71/207/52 72/208/52
f 67/209/53 65/210/53 69/211/53 71/212/53
f 72/213/54 70/214/54 66/215/54 68/216/54
f 74/217/55 73/218/55 75/219/55 76/220/55
f 79/221/56 77/222/56 78/223/56 80/224/56
f 77/225/57 73/226/57 74/227/57 78/228/57
f 76/229/58 75/230/58 79/231/58 80/232/58
f 75/233/59 73/234/59 77/235/59 79/236/59
f 78/237/60 74/238/60 76/239/60 80/240/60
f 83/241/61 81/242/61 82/243/61 84/244/61
f 86/245/62 85/246/62 87/247/62 88/248/62
f 82/249/63 81/250/63 85/251/63 86/252/63
f 87/253/64 83/254/64 84/255/64 88/256/64
f 85/257/65 81/258/65 83/259/65 87/260/65
f 84/261/66 82/262/66 86/263/66 88/264/66
f 90/265/67 89/266/67 91/267/67 92/268/67
f 95/269/68 93/270/68 94/271/68 96/272/68
f 93/273/69 89/274/69 90/275/69 94/276/69
f 92/277/70 91/278/70 95/279/70 96/280/70
f 91/281/71 89/282/71 93/283/71 95/284/71
f 94/285/72 90/286/72 92/287/72 96/288/72
f 100/289/73 98/290/73 97/291/73 99/292/73
f 103/293/74 101/294/74 102/295/74 104/296/74
f 97/297/75 98/298/75 102/299/75 101/300/75
f 100/301/76 99/302/76 103/303/76 104/304/76
f 99/305/77 97/306/77 101/307/77 103/308/77
f 104/309/78 102/310/78 98/311/78 100/312/78
f 108/313/79 106/314/79 105/315/79 107/316/79
f 111/317/80 109/318/80 110/319/80 112/320/80
f 105/321/81 106/322/81 110/323/81 109/324/81
f 108/325/82 107/326/82 111/327/82 112/328/82
f 107/329/83 105/330/83 109/331/83 111/332/83
f 112/333/84 110/334/84 106/335/84 108/336/84
f 117/337/85 113/338/85 114/339/85 118/340/85
f 116/341/86 115/342/86 119/343/86 120/344/86
f 115/345/87 113/346/87 117/347/87 119/348/87
f 114/349/88 113/350/88 115/351/88 116/352/88
f 119/353/89 117/354/89 118/355/89 120/356/89
f 118/357/90 114/358/90 116/359/90 120/360/90
f 125/361/91 121/362/91 122/363/91 126/364/91
f 124/365/92 123/366/92 127/367/92 128/368/92
f 123/369/93 121/370/93 125/371/93 127/372/93
f 122/373/94 121/374/94 123/375/94 124/376/94
f 127/377/95 125/378/95 126/379/95 128/380/95
f 126/381/96 122/382/96 124/383/96 128/384/96
f 130/385/97 129/386/97 131/387/97 132/388/97
f 135/389/98 133/390/98 134/391/98 136/392/98
f 133/393/99 129/394/99 130/395/99 134/396/99
f 132/397/100 131/398/100 135/399/100 136/400/100
f 131/401/101 129/402/101 133/403/101 135/404/101
f 134/405/102 130/406/102 132/407/102 136/408/102
f 138/409/103 137/410/103 139/411/103 140/412/103
f 143/413/104 141/414/104 142/415/104 144/416/104
f 141/417/105 137/418/105 138/419/105 142/420/105
f 140/421/106 139/422/106 143/423/106 144/424/106
f 139/425/107 137/426/107 141/427/107 143/428/107
f 142/429/108 138/430/108 140/431/108 144/432/108
f 146/433/109 145/434/109 147/435/109 148/436/109
f 151/437/110 149/438/110 150/439/110 152/440/110
f 149/441/111 145/442/111 146/443/111 150/444/111
f 148/445/112 147/446/112 151/447/112 152/448/112
f 147/449/113 145/450/113 149/451/113 151/452/113
f 150/453/114 146/454/114 148/455/114 152/456/114
f 154/457/115 153/458/115 155/459/115 156/460/115
f 159/461/116 157/462/116 158/463/116 160/464/116
f 157/465/117 153/466/117 154/467/117 158/468/117
f 156/469/118 155/470/118 159/471/118 160/472/118
f 155/473/119 153/474/119 157/475/119 159/476/119
f 158/477/120 154/478/120 156/479/120 160/480/120
f 162/481/121 161/482/121 163/483/121 164/484/121
f 167/485/122 165/486/122 166/487/122 168/488/122
f 165/489/123 161/490/123 162/491/123 166/492/123
f 164/493/124 163/494/124 167/495/124 168/496/124
f 163/497/125 161/498/125 165/499/125 167/500/125
f 166/501/126 162/502/126 164/503/126 168/504/126
f 170/505/127 169/506/127 171/507/127 172/508/127
f 175/509/128 173/510/128 174/511/128 176/512/128
f 173/513/129 169/514/129 170/515/129 174/516/129
f 172/517/130 171/518/130 175/519/130 176/520/130
f 171/521/131 169/522/131 173/523/131 175/524/131
f 174/525/132 170/526/132 172/527/132 176/528/132
f 178/529/133 177/530/133 179/531/133 180/532/133
f 183/533/134 181/534/134 182/535/134 184/536/134
f 181/537/135 177/538/135 178/539/135 182/540/135
f 180/541/136 179/542/136 183/543/136 184/544/136
f 179/545/137 177/546/137 181/547/137 183/548/137
f 182/549/138 178/550/138 180/551/138 184/552/138
f 186/553/139 185/554/139 187/555/139 188/556/139
f 191/557/140 189/558/140 190/559/140 192/560/140
f 189/561/141 185/562/141 186/563/141 190/564/141
f 188/565/142 187/566/142 191/567/142 192/568/142
f 187/569/143 185/570/143 189/571/143 191/572/143
f 190/573/144 186/574/144 188/575/144 192/576/144
f 193/577/145 194/578/145 196/579/145 195/580/145
f 200/581/146 198/582/146 197/583/146 199/584/146
f 203/585/147 201/586/147 202/587/147 204/588/147
f 197/589/148 198/590/148 202/591/148 201/592/148
f 200/593/149 199/594/149 203/595/149 204/596/149
f 199/597/150 197/598/150 201/599/150 203/600/150
f 204/601/151 202/602/151 198/603/151 200/604/151
f 208/605/152 206/606/152 205/607/152 207/608/152
f 211/609/153 209/610/153 210/611/153 212/612/153
f 205/613/154 206/614/154 210/615/154 209/616/154
f 208/617/155 207/618/155 211/619/155 212/620/155
f 207/621/156 205/622/156 209/623/156 211/624/156
f 212/625/157 210/626/157 206/627/157 208/628/157
f 216/629/158 214/630/158 213/631/158 215/632/158
f 219/633/159 217/634/159 218/635/159 220/636/159
f 213/637/160 214/638/160 218/639/160 217/640/160
f 216/641/161 215/642/161 219/643/161 220/644/161
f 215/645/162 213/646/162 217/647/162 219/648/162
f 220/649/163 218/650/163 214/651/163 216/652/163
f 224/653/164 222/654/164 221/655/164 223/656/164
f 227/657/165 225/658/165 226/659/165 228/660/165
f 221/661/166 222/662/166 226/663/166 225/664/166
f 224/665/167 223/666/167 227/667/167 228/668/167
f 223/669/168 221/670/168 225/671/168 227/672/168
f 228/673/169 226/674/169 222/675/169 224/676/169
f 232/677/170 230/678/170 229/679/170 231/680/170
f 235/681/171 233/682/171 234/683/171 236/684/171
f 229/685/172 230/686/172 234/687/172 233/688/172
f 232/689/173 231/690/173 235/691/173 236/692/173
f 231/693/174 229/694/174 233/695/174 235/696/174
f 236/697/175 234/698/175 230/699/175 232/700/175
f 240/701/176 238/702/176 237/703/176 239/704/176
f 243/705/177 241/706/177 242/707/177 244/708/177
f 237/709/178 238/710/178 242/711/178 241/712/178
f 240/713/179 239/714/179 243/715/179 244/716/179
f 239/717/180 237/718/180 241/719/180 243/720/180
f 244/721/181 242/722/181 238/723/181 240/724/181
f 248/725/182 246/726/182 245/727/182 247/728/182
f 251/729/183 249/730/183 250/731/183 252/732/183
f 245/733/184 246/734/184 250/735/184 249/736/184
f 248/737/185 247/738/185 251/739/185 252/740/185
f 247/741/186 245/742/186 249/743/186 251/744/186
f 252/745/187 250/746/187 246/747/187 248/748/187
f 256/749/188 254/750/188 253/751/188 255/752/188
f 259/753/189 257/754/189 258/755/189 260/756/189
f 253/757/190 254/758/190 258/759/190 257/760/190
f 256/761/191 255/762/191 259/763/191 260/764/191
f 255/765/192 253/766/192 257/767/192 259/768/192
f 260/769/193 258/770/193 254/771/193 256/772/193
f 264/773/194 262/774/194 261/775/194 263/776/194
f 267/777/195 265/778/195 266/779/195 268/780/195
f 261/781/196 262/782/196 266/783/196 265/784/196
f 264/785/197 263/786/197 267/787/197 268/788/197
f 263/789/198 261/790/198 265/791/198 267/792/198
f 268/793/199 266/794/199 262/795/199 264/796/199
f 272/797/200 270/798/200 269/799/200 271/800/200
f 275/801/201 273/802/201 274/803/201 276/804/201
f 269/805/202 270/806/202 274/807/202 273/808/202
f 272/809/203 271/810/203 275/811/203 276/812/203
f 271/813/204 269/814/204 273/815/204 275/816/204
f 276/817/205 274/818/205 270/819/205 272/820/205
f 280/821/206 278/822/206 277/823/206 279/824/206
f 283/825/207 281/826/207 282/827/207 284/828/207
f 277/829/208 278/830/208 282/831/208 281/832/208
f 280/833/209 279/834/209 283/835/209 284/836/209
f 279/837/210 277/838/210 281/839/210 283/840/210
f 284/841/211 282/842/211 278/843/211 280/844/211
f 288/845/212 286/846/212 285/847/212 287/848/212
f 291/849/213 289/850/213 290/851/213 292/852/213
f 285/853/214 286/854/214 290/855/214 289/856/214
f 288/857/215 287/858/215 291/859/215 292/860/215
f 287/861/216 285/862/216 289/863/216 291/864/216
f 292/865/217 290/866/217 286/867/217 288/868/217
f 296/869/218 294/870/218 293/871/218 295/872/218
f 299/873/219 297/874/219 298/875/219 300/876/219
f 293/877/220 294/878/220 298/879/220 297/880/220
f 296/881/221 295/882/221 299/883/221 300/884/221
f 295/885/222 293/886/222 297/887/222 299/888/222
f 300/889/223 298/890/223 294/891/223 296/892/223
f 304/893/224 302/894/224 301/895/224 303/896/224
f 307/897/225 305/898/225 306/899/225 308/900/225
f 301/901/226 302/902/226 306/903/226 305/904/226
f 304/905/227 303/906/227 307/907/227 308/908/227
f 303/909/228 301/910/228 305/911/228 307/912/228
f 308/913/229 306/914/229 302/915/229 304/916/229
f 312/917/230 310/918/230 309/919/230 311/920/230
f 315/921/231 313/922/231 314/923/231 316/924/231
f 309/925/232 310/926/232 314/927/232 313/928/232
f 312/929/233 311/930/233 315/931/233 316/932/233
f 311/933/234 309/934/234 313/935/234 315/936/234
f 316/937/235 314/938/235 310/939/235 312/940/235
f 320/941/236 318/942/236 317/943/236 319/944/236
f 323/945/237 321/946/237 322/947/237 324/948/237
f 317/949/238 318/950/238 322/951/238 321/952/238
f 320/953/239 319/954/239 323/955/239 324/956/239
f 319/957/240 317/958/240 321/959/240 323/960/240
f 324/961/241 322/962/241 318/963/241 320/964/241
f 328/965/242 326/966/242 325/967/242 327/968/242
f 331/969/243 329/970/243 330/971/243 332/972/243
f 325/973/244 326/974/244 330/975/244 329/976/244
f 328/977/245 327/978/245 331/979/245 332/980/245
f 327/981/246 325/982/246 329/983/246 331/984/246
f 332/985/247 330/986/247 326/987/247 328/988/247
f 336/989/248 334/990/248 333/991/248 335/992/248
f 339/993/249 337/994/249 338/995/249 340/996/249
f 333/997/250 334/998/250 338/999/250 337/1000/250
f 336/1001/251 335/1002/251 339/1003/251 340/1004/251
f 335/1005/252 333/1006/252 337/1007/252 339/1008/252
f 340/1009/253 338/1010/253 334/1011/253 336/1012/253
f 344/1013/254 342/1014/254 341/1015/254 343/1016/254
f 347/1017/255 345/1018/255 346/1019/255 348/1020/255
f 341/1021/256 342/1022/256 346/1023/256 345/1024/256
f 344/1025/257 343/1026/257 347/1027/257 348/1028/257
f 343/1029/258 341/1030/258 345/1031/258 347/1032/258
f 348/1033/259 346/1034/259 342/1035/259 344/1036/259
f 352/1037/260 350/1038/260 349/1039/260 351/1040/260
f 355/1041/261 353/1042/261 354/1043/261 356/1044/261
f 349/1045/262 350/1046/262 354/1047/262 353/1048/262
f 352/1049/263 351/1050/263 355/1051/263 356/1052/263
f 351/1053/264 349/1054/264 353/1055/264 355/1056/264
f 356/1057/265 354/1058/265 350/1059/265 352/1060/265
f 360/1061/266 358/1062/266 357/1063/266 359/1064/266
f 363/1065/267 361/1066/267 362/1067/267 364/1068/267
f 357/1069/268 358/1070/268 362/1071/268 361/1072/268
f 360/1073/269 359/1074/269 363/1075/269 364/1076/269
f 359/1077/270 357/1078/270 361/1079/270 363/1080/270
f 364/1081/271 362/1082/271 358/1083/271 360/1084/271
f 368/1085/272 366/1086/272 365/1087/272 367/1088/272
f 371/1089/273 369/1090/273 370/1091/273 372/1092/273
f 365/1093/274 366/1094/274 370/1095/274 369/1096/274
f 368/1097/275 367/1098/275 371/1099/275 372/1100/275
f 367/1101/276 365/1102/276 369/1103/276 371/1104/276
f 372/1105/277 370/1106/277 366/1107/277 368/1108/277
f 376/1109/278 374/1110/278 373/1111/278 375/1112/278
f 379/1113/279 377/1114/279 378/1115/279 380/1116/279
f 373/1117/280 374/1118/280 378/1119/280 377/1120/280
f 376/1121/281 375/1122/281 379/1123/281 380/1124/281
f 375/1125/282 373/1126/282 377/1127/282 379/1128/282
f 380/1129/283 378/1130/283 374/1131/283 376/1132/283
f 384/1133/284 382/1134/284 381/1135/284 383/1136/284
f 387/1137/285 385/1138/285 386/1139/285 388/1140/285
f 381/1141/286 382/1142/286 386/1143/286 385/1144/286
f 384/1145/287 383/1146/287 387/1147/287 388/1148/287
f 383/1149/288 381/1150/288 385/1151/288 387/1152/288
f 388/1153/289 386/1154/289 382/1155/289 384/1156/289
f 392/1157/290 390/1158/290 389/1159/290 391/1160/290
f 395/1161/291 393/1162/291 394/1163/291 396/1164/291
f 389/1165/292 390/1166/292 394/1167/292 393/1168/292
f 392/1169/293 391/1170/293 395/1171/293 396/1172/293
f 391/1173/294 389/1174/294 393/1175/294 395/1176/294
f 396/1177/295 394/1178/295 390/1179/295 392/1180/295
f 400/1181/296 398/1182/296 397/1183/296 399/1184/296
f 403/1185/297 401/1186/297 402/1187/297 404/1188/297
f 397/1189/298 398/1190/298 402/1191/298 401/1192/298
f 400/1193/299 399/1194/299 403/1195/299 404/1196/299
f 399/1197/300 397/1198/300 401/1199/300 403/1200/300
f 404/1201/301 402/1202/301 398/1203/301 400/1204/301
f 408/1205/302 406/1206/302 405/1207/302 407/1208/302
f 411/1209/303 409/1210/303 410/1211/303 412/1212/303
f 405/1213/304 406/1214/304 410/1215/304 409/1216/304
f 408/1217/305 407/1218/305 411/1219/305 412/1220/305
f 407/1221/306 405/1222/306 409/1223/306 411/1224/306
f 412/1225/307 410/1226/307 406/1227/307 408/1228/307
f 416/1229/308 414/1230/308 413/1231/308 415/1232/308
f 419/1233/309 417/1234/309 418/1235/309 420/1236/309
f 413/1237/310 414/1238/310 418/1239/310 417/1240/310
f 416/1241/311 415/1242/311 419/1243/311 420/1244/311
f 415/1245/312 413/1246/312 417/1247/312 419/1248/312
f 420/1249/313 418/1250/313 414/1251/313 416/1252/313
f 424/1253/314 422/1254/314 421/1255/314 423/1256/314
f 427/1257/315 425/1258/315 426/1259/315 428/1260/315
f 421/1261/316 422/1262/316 426/1263/316 425/1264/316
f 424/1265/317 423/1266/317 427/1267/317 428/1268/317
f 423/1269/318 421/1270/318 425/1271/318 427/1272/318
f 428/1273/319 426/1274/319 422/1275/319 424/1276/319
f 432/1277/320 430/1278/320 429/1279/320 431/1280/320
f 435/1281/321 433/1282/321 434/1283/321 436/1284/321
f 429/1285/322 430/1286/322 434/1287/322 433/1288/322
f 432/1289/323 431/1290/323 435/1291/323 436/1292/323
f 431/1293/324 429/1294/324 433/1295/324 435/1296/324
f 436/1297/325 434/1298/325 430/1299/325 432/1300/325
f 440/1301/326 438/1302/326 437/1303/326 439/1304/326
f 443/1305/327 441/1306/327 442/1307/327 444/1308/327
f 437/1309/328 438/1310/328 442/1311/328 441/1312/328
f 440/1313/329 439/1314/329 443/1315/329 444/1316/329
f 439/1317/330 437/1318/330 441/1319/330 443/1320/330
f 444/1321/331 442/1322/331 438/1323/331 440/1324/331
f 448/1325/332 446/1326/332 445/1327/332 447/1328/332
f 451/1329/333 449/1330/333 450/1331/333 452/1332/333
f 445/1333/334 446/1334/334 450/1335/334 449/1336/334
f 448/1337/335 447/1338/335 451/1339/335 452/1340/335
f 447/1341/336 445/1342/336 449/1343/336 451/1344/336
f 452/1345/337 450/1346/337 446/1347/337 448/1348/337
