# Made in Blockbench 5.1.6
mtllib bydlovka.mtl

o cube
v 0.3436349142434467 1.5036209115476649 0.12077353021888287
v 0.13177298627035727 1.4603983842658532 -0.11391434090859677
v 0.1435055711483746 1.482056293556446 -0.18475417022262444
v 0.13177298627035727 1.2213221952750943 -0.18700726708928095
v 0.1435055711483746 1.2429801045656872 -0.2578470964033086
v 0.2614070809734691 1.4543954015430705 -0.09427946915106786
v 0.2731396658514864 1.4760533108336633 -0.16511929846509552
v 0.2614070809734691 1.2153192125523116 -0.16737239533175202
v 0.27309662379966027 1.243431232506437 -0.23839468663572666
v -0.13177298627035736 1.4603983842658532 -0.11391434090859665
v -0.14350557114837473 1.482056293556446 -0.1847541702226244
v -0.13177298627035736 1.2213221952750943 -0.18700726708928084
v -0.14350557114837473 1.2429801045656872 -0.2578470964033085
v -0.2614070809734692 1.4543954015430705 -0.09427946915106769
v -0.2731396658514865 1.4760533108336633 -0.16511929846509538
v -0.2614070809734692 1.2153192125523113 -0.16737239533175188
v -0.2730966237996604 1.243431232506437 -0.2383946866357265
v 0.04758771772360844 1.4054630903372962 -0.2222255723864604
v 0.07336194449311707 1.2451432630419967 -0.2681581829201467
v 0.21334707327492158 1.4249810496349604 -0.19733686386094446
v 0.23912130004443022 1.2646612223396607 -0.2432694743946307
v 0.175 1.6125354388140782 -0.2444611584264325
v 0.17499999999999996 1.5986533600963553 -0.28595031834170365
v 0.175 1.4347247534629157 -0.18496653535047775
v 0.175 1.420842674745193 -0.226455695265749
v -2.7755575615628914e-17 1.6065859765064823 -0.26224222696154875
v -2.7755575615628914e-17 1.5907207436862278 -0.30965840972185865
v -2.7755575615628914e-17 1.4347247534629157 -0.18496653535047777
v -2.7755575615628914e-17 1.420842674745193 -0.22645569526574902
v -2.7755575615628914e-17 1.6065859765064823 -0.26224222696154875
v -2.7755575615628914e-17 1.5907207436862278 -0.30965840972185865
v -2.7755575615628914e-17 1.4347247534629157 -0.18496653535047777
v -2.7755575615628914e-17 1.420842674745193 -0.22645569526574902
v -0.17500000000000002 1.6125354388140782 -0.24446115842643248
v -0.17500000000000007 1.5986533600963553 -0.2859503183417037
v -0.17500000000000002 1.4347247534629157 -0.1849665353504778
v -0.17500000000000002 1.420842674745193 -0.22645569526574894
v -0.30540228343018505 1.1849639019041998 0.014098750000000215
v -0.43038324532473393 1.1827823510995392 0.01409875000000016
v -0.29994840641853404 0.8725114971678275 0.014098750000000104
v -0.4249293683130829 0.870329946363167 0.014098750000000021
v -0.30540228343018505 1.1849639019041995 0.17034875000000016
v -0.43038324532473393 1.1827823510995392 0.17034875000000016
v -0.29994840641853393 0.8725114971678275 0.17034875000000005
v -0.4249293683130829 0.870329946363167 0.17034875000000005
v -0.30572951605088405 1.203711046188382 0.014098750000000104
v -0.4494576222296154 1.2012022627630223 0.014098750000000076
v -0.30540228343018505 1.1849639019041998 0.014098750000000215
v -0.4491303896089164 1.1824551184788403 0.014098750000000049
v -0.30572951605088416 1.2037110461883818 0.17034875000000005
v -0.4494576222296155 1.2012022627630223 0.17034875
v -0.30540228343018505 1.1849639019041995 0.17034875000000016
v -0.4491303896089165 1.18245511847884 0.17034875000000005
v -0.45679854713713075 1.0539374498646998 0.026598750000000143
v -0.4306021903476345 1.195280342827018 0.026598750000000143
v -0.47523457665395474 1.0573543659676776 0.02659875000000006
v -0.44903821986445847 1.198697258929996 0.026598750000000088
v -0.45679854713713086 1.0539374498646996 0.1578487500000002
v -0.4306021903476347 1.195280342827018 0.1578487500000002
v -0.47523457665395485 1.0573543659676776 0.1578487500000002
v -0.4490382198644587 1.198697258929996 0.15784875000000015
v -0.24055288298487706 1.1554458233430664 -0.11411182188563784
v -0.3569642600280075 1.1530019434730652 -0.15958069856082227
v -0.2379530240103034 0.8431208968633925 -0.10398112433914186
v -0.3543644010534339 0.8406770169933913 -0.14945000101432615
v -0.29745617007485015 1.1596902864818959 0.031346292191986674
v -0.41386754711798057 1.1572464066118946 -0.014122584483197642
v -0.2948563111002763 0.8473653600022218 0.04147698973848274
v -0.41126768814340686 0.8449214801322207 -0.003991886936701605
v -0.2976121616133246 1.1784297820706762 0.03073845033919681
v -0.24070887452335152 1.1741853189318472 -0.11471966373842768
v -0.3745819581229515 1.171374857081346 -0.16700887191488958
v -0.24055288298487712 1.1554458233430667 -0.1141118218856379
v -0.374425966584477 1.1526353614925655 -0.1664010300620998
v -0.43148524521292453 1.1756193202201748 -0.021550757837265067
v -0.29745617007485026 1.159690286481896 0.03134629219198662
v -0.4313292536744501 1.1568798246313947 -0.020942915984475258
v -0.3871393276260008 1.0244888163129944 -0.1542077862172621
v -0.3616212538520366 1.165834391496993 -0.14834956235920252
v -0.4042815849763369 1.0278656481015886 -0.1610123817237107
v -0.3787635112023727 1.1692112232855871 -0.15515415786565115
v -0.43493808878157814 1.028054165349611 -0.03202297039205748
v -0.40942001500761405 1.1693997405336094 -0.026164746533997862
v -0.45208034613191417 1.0314309971382052 -0.03882756589850603
v -0.4265622723579502 1.172776572322204 -0.03296934204044638
v 0.14375 1.2434318749999997 -0.18275999999999998
v 0.14375 1.243431875 -0.25776
v 0.14375 0.868431875 -0.18275999999999998
v 0.14375 0.868431875 -0.25776
v -0.14375000000000007 1.243431875 -0.18275999999999995
v -0.14375000000000002 1.243431875 -0.25775999999999993
v -0.14375000000000002 0.868431875 -0.18275999999999995
v -0.14375000000000002 0.868431875 -0.25776
v 0.14374999999999996 1.4601233553479243 -0.11301249094089579
v 0.14374999999999996 1.4820512332021296 -0.18473534763812346
v 0.14374999999999996 1.2210471663571654 -0.18610541712158002
v 0.14375 1.2429750442113707 -0.25782827381880763
v -0.14375000000000002 1.4601233553479243 -0.11301249094089576
v -0.14375000000000007 1.4820512332021296 -0.18473534763812344
v -0.14375000000000002 1.2210471663571654 -0.18610541712157996
v -0.14375000000000002 1.2429750442113707 -0.2578282738188076
v -0.13220238975549922 1.2434318749999997 -0.18361813567485022
v -0.14328809559022007 1.2434318749999997 -0.257794325426994
v -0.13220238975549922 0.8684318749999999 -0.18361813567485022
v -0.14328809559022002 0.8684318749999999 -0.257794325426994
v -0.2620107218217508 1.243431875 -0.16421815046408877
v -0.2730964276564716 1.243431875 -0.23839434021623246
v -0.2620107218217508 0.8684318749999999 -0.1642181504640888
v -0.2730964276564716 0.8684318749999999 -0.23839434021623251
v 0.2620107218217508 1.243431875 -0.16421815046408872
v 0.2730964276564716 1.243431875 -0.23839434021623246
v 0.2620107218217508 0.8684318749999999 -0.1642181504640888
v 0.2730964276564716 0.8684318749999999 -0.23839434021623251
v 0.13220238975549914 1.2434318749999997 -0.1836181356748502
v 0.14328809559021993 1.2434318749999997 -0.25779432542699393
v 0.13220238975549914 0.8684318749999997 -0.18361813567485016
v 0.14328809559021993 0.8684318749999999 -0.25779432542699393
v -0.24224379217535055 1.2206790950707864 0.1572952967794043
v -0.28418134923912997 1.2208597049646315 0.16975608277341347
v -0.2778483279348535 1.2178148606954664 0.03750751278289846
v -0.3197858849986328 1.2179954705893112 0.04996829877690767
v -0.2413442240066452 0.8707739733163959 0.16539446631431293
v -0.28328178107042457 0.8709545832102408 0.177855252308322
v -0.2769487597661481 0.8679097389410759 0.04560668231780712
v -0.3188863168299275 0.8680903488349209 0.05806746831181628
v -0.27944321314080633 1.2182928885764333 0.057386455171807016
v -0.3223963981128014 1.2179902076748277 0.049080145218922594
v -0.22898319199400788 1.2123881156845133 -0.2033347763149278
v -0.27193637696600303 1.2120854347829082 -0.21164108626781206
v -0.27854364529674536 0.8683877559104429 0.0654851533196466
v -0.32149683026874043 0.8680850750088376 0.057178843366762266
v -0.2280836241499468 0.8624829830185231 -0.19523607816708824
v -0.27103680912194184 0.8621803021169178 -0.20354238811997252
v 0.24134422400664504 0.870773973316396 0.16539446631431287
v 0.28328178107042445 0.8709545832102408 0.177855252308322
v 0.276948759766148 0.8679097389410759 0.04560668231780712
v 0.31888631682992735 0.8680903488349209 0.05806746831181625
v 0.24224379217535047 1.2206790950707864 0.1572952967794043
v 0.2841813492391298 1.2208597049646315 0.16975608277341342
v 0.27784832793485337 1.2178148606954664 0.03750751278289846
v 0.31978588499863275 1.2179954705893112 0.04996829877690767
v 0.27854364529674513 0.868387755910443 0.06548515331964655
v 0.3214968302687402 0.8680850750088378 0.05717884336676221
v 0.22808362414994668 0.862482983018523 -0.19523607816708824
v 0.2710368091219417 0.8621803021169178 -0.2035423881199725
v 0.2794432131408061 1.2182928885764333 0.057386455171807044
v 0.3223963981128013 1.2179902076748277 0.04908014521892262
v 0.22898319199400774 1.2123881156845133 -0.20333477631492783
v 0.2719363769660028 1.212085434782908 -0.211641086267812
v 0.26874999999999993 1.243431875 0.1952600000000001
v 0.26874999999999993 1.2434318749999997 0.12026000000000009
v 0.26874999999999993 0.8684318749999997 0.19526000000000004
v 0.26874999999999993 0.8684318749999997 0.12026000000000014
v -0.26875000000000004 1.243431875 0.1952600000000001
v -0.26875000000000004 1.2434318749999997 0.12026000000000014
v -0.26875000000000004 0.8684318749999999 0.19526000000000004
v -0.26875000000000004 0.8684318749999999 0.12026000000000009
v 0.26874999999999993 1.49137799206126 0.1648043107867737
v 0.26874999999999993 1.4822377913058737 0.09036334941367452
v 0.26874999999999993 1.2432414541509293 0.19527164663806057
v 0.26874999999999993 1.2341012533955433 0.12083068526496138
v -0.26875000000000004 1.49137799206126 0.16480431078677377
v -0.26875000000000004 1.4822377913058737 0.09036334941367452
v -0.26875000000000004 1.2432414541509293 0.19527164663806057
v -0.26875000000000004 1.2341012533955433 0.12083068526496143
v -0.11238994094414936 1.31539486161908 0.11905119108582313
v -0.11155463348873337 1.3160208629835142 0.1627887365558956
v -0.18897966939972857 1.5533659463372136 0.11710791211054794
v -0.18814436194431247 1.5539919477016475 0.16084545758062035
v -0.26704518578786773 1.2656498268295315 0.12271680919415812
v -0.2662098783324516 1.2662758281939654 0.16645435466423064
v -0.34363491424344694 1.5036209115476649 0.12077353021888287
v -0.3427996067880308 1.5042469129120988 0.16451107568895534
v -0.20792582112001692 1.584940800613956 -0.1016404893985133
v -0.21058754877838418 1.5913347963906812 -0.14483880561430923
v -0.05338770691198455 1.2147772911912462 -0.16595230828811242
v -0.056049434570351664 1.2211712869679712 -0.20915062450390834
v -0.3578837624225506 1.5223399606409302 -0.10166646972711221
v -0.36054549008091763 1.5287339564176552 -0.1448647859429082
v -0.20334564821451803 1.1521764512182204 -0.1659782886167113
v -0.20600737587288523 1.1585704469949454 -0.20917660483250733
v -0.19431139964728147 1.5614987174246864 0.04940536777803756
v -0.20773826807992232 1.6030767184045285 0.0471578049618287
v -0.1954714134654474 1.5501611738763093 -0.1533996619900387
v -0.20889828189808826 1.5917391748561514 -0.15564722480624768
v -0.3489666603141698 1.5117537254566904 0.05307089941217211
v -0.36239352874681063 1.5533317264365327 0.050823336595963275
v -0.35012667413233567 1.5004161819083133 -0.14973413035590416
v -0.3635535425649765 1.5419941828881554 -0.15198169317211313
v -0.17705036467267013 1.5181984303026255 0.14316518741106188
v -0.18884480148856966 1.5562061172870958 0.16134125657593545
v -0.19539747484060374 1.5668628732707903 0.029498325313597695
v -0.20719191165650322 1.6048705602552609 0.04767439447847133
v -0.3317055791932837 1.46845329987073 0.1468307869386617
v -0.3435000160091831 1.5064609868552006 0.16500685610353527
v -0.35005268936121736 1.5171177428388947 0.03316392484119743
v -0.3618471261771169 1.5551254298233652 0.05133999400607109
v 0.3317055791932835 1.46845329987073 0.1468307869386617
v 0.343500016009183 1.5064609868552006 0.16500685610353533
v 0.35005268936121714 1.5171177428388947 0.0331639248411974
v 0.36184712617711656 1.5551254298233652 0.051339994006071116
v 0.17705036467266996 1.5181984303026255 0.14316518741106193
v 0.18884480148856944 1.5562061172870958 0.16134125657593545
v 0.1953974748406036 1.5668628732707903 0.029498325313597695
v 0.20719191165650302 1.6048705602552609 0.047674394478471355
v 0.26704518578786757 1.2656498268295315 0.12271680919415806
v 0.26620987833245147 1.2662758281939654 0.16645435466423064
v 0.3427996067880307 1.5042469129120988 0.1645110756889554
v 0.11238994094414924 1.31539486161908 0.11905119108582313
v 0.1115546334887332 1.3160208629835142 0.1627887365558956
v 0.18897966939972843 1.5533659463372136 0.11710791211054788
v 0.1881443619443124 1.5539919477016475 0.16084545758062035
v 0.34896666031416956 1.5117537254566904 0.05307089941217219
v 0.36239352874681047 1.5533317264365327 0.05082333659596325
v 0.3501266741323355 1.5004161819083133 -0.14973413035590416
v 0.3635535425649764 1.5419941828881554 -0.15198169317211302
v 0.1943113996472813 1.5614987174246864 0.04940536777803756
v 0.2077382680799222 1.6030767184045285 0.047157804961828725
v 0.19547141346544725 1.5501611738763093 -0.15339966199003868
v 0.20889828189808812 1.5917391748561514 -0.15564722480624765
v 0.3578837624225504 1.5223399606409302 -0.1016664697271122
v 0.3605454900809175 1.5287339564176552 -0.14486478594290825
v 0.2033456482145179 1.1521764512182204 -0.16597828861671132
v 0.20600737587288503 1.1585704469949454 -0.20917660483250736
v 0.20792582112001684 1.584940800613956 -0.1016404893985133
v 0.21058754877838398 1.5913347963906812 -0.14483880561430923
v 0.0533877069119844 1.2147772911912462 -0.1659523082881124
v 0.05604943457035155 1.2211712869679712 -0.2091506245039083
v 0.29929896287200314 1.221979792467495 -0.24401493992105272
v 0.3196161308733243 1.211351615657781 -0.3021570463681669
v 0.30995540786619513 1.1001766203052716 -0.21802595319002605
v 0.33027257586751635 1.0895484434955576 -0.2761680596371402
v 0.18451246953045977 1.2040770644742387 -0.28085335603455136
v 0.20482963753178093 1.1934488876645244 -0.33899546248166545
v 0.19516891452465174 1.082273892312015 -0.2548643693035247
v 0.2154860825259729 1.071645715502301 -0.31300647575063884
v 0.12158473938601384 1.2373702162363176 -0.29124865854246035
v 0.12463523512720909 1.2294849396084828 -0.3531741531972104
v 0.1546386310116743 1.1179999934039766 -0.2744204040472277
v 0.1576891267528695 1.1101147167761414 -0.33634589870197756
v 0.004198552996349858 1.2046380917538113 -0.2928632472680406
v 0.007249048737545116 1.196752815125976 -0.3547887419227906
v 0.03725244462201027 1.08526786892147 -0.2760349927728077
v 0.0403029403632055 1.077382592293635 -0.33796048742755763
v -0.03984697553272343 1.2360563822535053 -0.29550137591925885
v -0.03953456289762264 1.2262677147253536 -0.3572292819777729
v -0.013484591089507836 1.1153965593093602 -0.27623399899463214
v -0.013172178454407074 1.1056078917812084 -0.33796190505314627
v -0.15897918606909453 1.2105766813202876 -0.29206380729135484
v -0.15866677343399374 1.2007880137921358 -0.3537917133498688
v -0.13261680162587888 1.0899168583761425 -0.272796430366728
v -0.13230438899077815 1.0801281908479905 -0.33452433642524215
v 0.3067286863324403 1.1353868051940676 -0.1804721321464693
v 0.3512787442955918 1.1072959424696476 -0.2938352468129148
v 0.2746966198872326 0.8920795152742816 -0.13276983250442873
v 0.3192466778503841 0.8639886525498618 -0.24613294717087397
v 0.16790274573767647 1.1426161553096006 -0.23682011094683225
v 0.21245280370082792 1.114525292585181 -0.35018322561327764
v 0.1358706792924687 0.8993088653898147 -0.1891178113047915
v 0.18042073725562016 0.871218002665395 -0.30248092597123694
v 0.168053125 1.1492125419651749 -0.23381557858272106
v 0.168053125 1.1253614175431068 -0.3565189765136789
v 0.168053125 0.9038057461032588 -0.18611332973858483
v 0.16805312500000003 0.8799546216811908 -0.3088167276695428
v 0.011803124999999998 1.1492125419651749 -0.233815578582721
v 0.01180312499999997 1.1253614175431068 -0.35651897651367903
v 0.011803124999999998 0.9038057461032589 -0.1861133297385848
v 0.011803124999999998 0.8799546216811908 -0.3088167276695429
v -0.002251993541156544 1.1467913560384853 -0.2372013917956789
v -0.005524112079640736 1.1229484048010612 -0.35986274233675164
v -0.002251993541156544 0.9013845601765689 -0.18949914295154274
v -0.005524112079640681 0.8775416089391452 -0.3121604934926156
v -0.1522005922874902 1.147540575619782 -0.233346991189872
v -0.15547271082597428 1.1236976243823587 -0.3560083417309448
v -0.15220059228749014 0.9021337797578662 -0.18564474234573583
v -0.15547271082597428 0.8782908285204425 -0.3083060928868087
v -0.18395474552071975 1.0547441115487266 -0.351480021450447
v -0.17559913570686433 1.1475105864395663 -0.31508544876486905
v -0.18345858868329476 1.059267046055188 -0.3631224821801613
v -0.17510297886943935 1.1520335209460277 -0.3267279094945834
v -0.24618676100062667 1.0605109753094135 -0.35189176369301145
v -0.2378311511867712 1.153277450200253 -0.31549719100743356
v -0.24569060416320163 1.065033909815875 -0.3635342244227258
v -0.23733499434934616 1.1578003847067146 -0.32713965173714776
v -0.17494050332598518 1.1625 -0.22701685905866495
v -0.1731952626822568 1.1625 -0.32700162857430404
v -0.17494050332598524 1.1499999999999997 -0.22701685905866487
v -0.17319526268225685 1.15 -0.3270016285743041
v -0.23743098427325968 1.1625 -0.22810763446099516
v -0.2356857436295313 1.1625 -0.32809240397663436
v -0.23743098427325968 1.15 -0.2281076344609952
v -0.2356857436295313 1.15 -0.3280924039766343
v -0.17500000000000007 1.1437499999999998 -0.22499999999999992
v -0.17500000000000002 1.1437499999999998 -0.32499999999999996
v -0.17500000000000007 0.9124999999999999 -0.22499999999999992
v -0.17500000000000002 0.9124999999999998 -0.3249999999999999
v -0.23750000000000002 1.1437499999999998 -0.22499999999999998
v -0.23750000000000002 1.1437499999999998 -0.3249999999999999
v -0.23750000000000002 0.9124999999999999 -0.2249999999999999
v -0.23749999999999996 0.9124999999999999 -0.32499999999999996
v -0.2819694919069926 1.0541976117021004 -0.34163786561703763
v -0.27014399945469425 1.146585566738616 -0.30524248826727807
v -0.2855381824510016 1.0589811540678586 -0.3526211333564722
v -0.27371268999870335 1.151369109104374 -0.31622575600671254
v -0.3414105156837526 1.0541975472401268 -0.322324277334005
v -0.32958502323145433 1.1465855022766425 -0.2859288999842453
v -0.34497920622776157 1.0589810896058847 -0.33330754507343946
v -0.3331537137754633 1.1513690446424008 -0.29691216772367973
v -0.24344410322684476 1.1625 -0.22306864378515653
v -0.2743458026643395 1.1625 -0.3181742954146718
v -0.24344410322684482 1.1499999999999997 -0.22306864378515648
v -0.2743458026643395 1.1499999999999997 -0.31817429541467185
v -0.30288513549529184 1.1625 -0.20375508163672235
v -0.3337868349327866 1.1625 -0.29886073326623763
v -0.30288513549529184 1.1499999999999997 -0.2037550816367223
v -0.3337868349327866 1.1499999999999997 -0.2988607332662377
v -0.24344410322684476 1.1437499999999998 -0.22306864378515645
v -0.2743458026643395 1.1437499999999998 -0.31817429541467185
v -0.24344410322684482 0.9124999999999998 -0.22306864378515653
v -0.2743458026643395 0.9124999999999999 -0.3181742954146718
v -0.30288513549529184 1.1437499999999998 -0.2037550816367223
v -0.3337868349327866 1.1437499999999998 -0.2988607332662377
v -0.30288513549529184 0.9124999999999999 -0.2037550816367223
v -0.3337868349327866 0.9124999999999998 -0.29886073326623763
v 0.12812500000000004 0.6993252755890054 -0.22019908635505736
v 0.12812500000000002 0.7148298768537117 -0.2742700567515878
v 0.12812500000000002 0.6392464195928605 -0.2374264210936198
v 0.12812500000000002 0.6547510208575668 -0.2914973914901502
v -0.12187500000000004 0.6993252755890055 -0.22019908635505733
v -0.12187500000000004 0.7148298768537117 -0.27427005675158783
v -0.12187500000000004 0.6392464195928605 -0.23742642109361983
v -0.12187500000000004 0.6547510208575666 -0.29149739149015025
v -0.0785691738241592 0.6825825206406703 -0.22499999408138285
v -0.0785691738241592 0.6980871219053765 -0.2790709644779133
v -0.1227633476483184 0.6401003541598661 -0.237181559296791
v -0.12276334764831845 0.6556049554245722 -0.29125252969332144
v -0.12276334764831845 0.7250646871214743 -0.21281842886597482
v -0.12276334764831845 0.7405692883861806 -0.2668893992625052
v -0.1669575214724777 0.6825825206406703 -0.22499999408138285
v -0.16695752147247764 0.6980871219053765 -0.27907096447791335
v 0.17143082617584082 0.6825825206406704 -0.22499999408138288
v 0.17143082617584082 0.6980871219053765 -0.27907096447791335
v 0.12723665235168158 0.6401003541598661 -0.237181559296791
v 0.1272366523516816 0.6556049554245722 -0.29125252969332144
v 0.12723665235168158 0.7250646871214744 -0.21281842886597477
v 0.12723665235168158 0.7405692883861806 -0.2668893992625052
v 0.08304247852752239 0.6825825206406703 -0.22499999408138285
v 0.08304247852752238 0.6980871219053765 -0.2790709644779133
v 0.17054249999999999 0.8628190679884347 -0.17331799578431253
v 0.17054249999999999 0.8800464027269971 -0.23339685178045744
v 0.17054249999999999 0.6825824999999999 -0.22499999999999992
v 0.1705425 0.6998098347385624 -0.2850788559961448
v -0.1669575 0.8628190679884348 -0.17331799578431253
v -0.16695750000000006 0.8800464027269971 -0.23339685178045746
v -0.16695750000000006 0.6825824999999999 -0.2249999999999999
v -0.1669575 0.6998098347385625 -0.28507885599614485
v 0.10804250000000001 0.827202437759212 -0.18515636802735363
v 0.1080425 0.8461525059716305 -0.251243109623113
v 0.1080425 0.7070447257669218 -0.21961103750447855
v 0.10804250000000001 0.7259947939793405 -0.28569777910023797
v -0.10445750000000001 0.8272024377592119 -0.18515636802735363
v -0.10445750000000004 0.8461525059716306 -0.2512431096231131
v -0.10445750000000001 0.7070447257669218 -0.21961103750447858
v -0.10445749999999998 0.7259947939793405 -0.285697779100238
v -0.1657255941411884 1.6177466842544412 -0.24836292382377048
v -0.20874299634711133 1.6098950048253635 -0.24697846089655057
v -0.13155643311141071 1.4361872362251376 -0.21634909453366802
v -0.17457383531733364 1.42833555679606 -0.214964631606448
v -0.1657255941411885 1.678523546437867 0.09631978973050215
v -0.20874299634711144 1.670671867008789 0.0977042526577222
v -0.13155643311141083 1.4969640984085633 0.1283336190206047
v -0.17457383531733386 1.4891124189794858 0.1297180819478248
v 0.16572559414118845 1.678523546437867 0.09631978973050215
v 0.2087429963471114 1.670671867008789 0.09770425265772215
v 0.13155643311141083 1.4969640984085633 0.12833361902060464
v 0.17457383531733378 1.4891124189794858 0.12971808194782475
v 0.16572559414118834 1.6177466842544412 -0.2483629238237705
v 0.2087429963471113 1.6098950048253635 -0.24697846089655057
v 0.13155643311141071 1.4361872362251376 -0.21634909453366807
v 0.17457383531733367 1.42833555679606 -0.21496463160644802
v 0.175 1.6732144145993033 0.1406377580381788
v 0.175 1.675122762796537 0.09692939834397246
v 0.17499999999999996 1.485892873052705 0.13245912290717826
v 0.175 1.4878012212499385 0.08875076321297193
v -0.17499999999999996 1.6732144145993033 0.14063775803817874
v -0.17500000000000002 1.675122762796537 0.09692939834397252
v -0.17500000000000002 1.485892873052705 0.13245912290717815
v -0.17500000000000002 1.4878012212499385 0.08875076321297187
vt 0.75390625 0.53125
vt 0.734375 0.53125
vt 0.734375 0.46875
vt 0.75390625 0.46875
vt 0.01888671875 0.234375
vt 0.00013671875 0.234375
vt 0.00013671875 0.171875
vt 0.01939453125 0.17340468750000004
vt 0.876953125 0.8125
vt 0.84375 0.8125
vt 0.84375 0.79296875
vt 0.876953125 0.79296875
vt 0.7537690625 0.13888015625000005
vt 0.75325984375 0.17168859375
vt 0.7345121875 0.17139765625000003
vt 0.7345121875 0.138671875
vt 0.642578125 0.421875
vt 0.609375 0.421875
vt 0.609375 0.359375
vt 0.642578125 0.359375
vt 0.283203125 0.359375
vt 0.25 0.359375
vt 0.250090625 0.298403125
vt 0.283203125 0.29687656250000005
vt 0.75390625 0.3125
vt 0.75390625 0.375
vt 0.734375 0.375
vt 0.734375 0.3125
vt 0.76953125 0.6875
vt 0.76953125 0.75
vt 0.7505078125 0.75
vt 0.75 0.6890296874999999
vt 0.876953125 0.44921875
vt 0.876953125 0.46875
vt 0.84375 0.46875
vt 0.84375 0.44921875
vt 0.876953125 0.4028515625
vt 0.876953125 0.4216015625
vt 0.84375 0.4216015625
vt 0.843840625 0.40234375
vt 0.658203125 0.4375
vt 0.658203125 0.5
vt 0.625 0.5
vt 0.625 0.4375
vt 0.5172921875 0.298403125
vt 0.5173828125 0.359375
vt 0.4845703125 0.359375
vt 0.4845703125 0.29687656250000005
vt 0.69921875 0.76953125
vt 0.69921875 0.8125
vt 0.65625 0.8125
vt 0.65625 0.76953125
vt 0.37109375 0.078125
vt 0.37109375 0.125
vt 0.359375 0.125
vt 0.359375 0.078125
vt 0.24609375 0.09227234375000004
vt 0.24609375 0.13938125
vt 0.234375 0.140625
vt 0.2359296875 0.09336078125000002
vt 0.42342171875 0.07925906250000003
vt 0.43359375 0.08080578125000004
vt 0.43359375 0.125
vt 0.421875 0.12323218749999998
vt 0.62109375 0.11328125
vt 0.62109375 0.125
vt 0.578125 0.125
vt 0.578125 0.11328125
vt 0.294921875 0.375
vt 0.294921875 0.421875
vt 0.25 0.421875
vt 0.2504984375 0.375
vt 0.5901859375 0.373046875
vt 0.59106875 0.4203296875
vt 0.546875 0.4203296875
vt 0.546875 0.37385625
vt 0.37109375 0.078125
vt 0.37109375 0.125
vt 0.359375 0.125
vt 0.359375 0.078125
vt 0.24609375 0.09227234375000004
vt 0.24609375 0.13938125
vt 0.234375 0.140625
vt 0.2359296875 0.09336078125000002
vt 0.82579015625 0.12825062499999995
vt 0.82755796875 0.140625
vt 0.78336375 0.140625
vt 0.78181703125 0.1297975
vt 0.71484375 0.11328125
vt 0.71484375 0.125
vt 0.671875 0.125
vt 0.671875 0.11328125
vt 0.3569234375 0.31226875
vt 0.357421875 0.359375
vt 0.313421875 0.359375
vt 0.313421875 0.31272968749999996
vt 0.357421875 0.375
vt 0.357421875 0.421875
vt 0.3125 0.421875
vt 0.3133828125 0.375
vt 0.421875 0.359375
vt 0.421875 0.4375
vt 0.390625 0.4375
vt 0.390625 0.359375
vt 0.46875 0.359375
vt 0.46875 0.4375
vt 0.4375 0.4375
vt 0.4375 0.359375
vt 0.734375 0.953125
vt 0.734375 0.921875
vt 0.7734375 0.921875
vt 0.7734375 0.953125
vt 0.734375 0.875
vt 0.734375 0.90625
vt 0.7734375 0.90625
vt 0.7734375 0.875
vt 0.5078125 0.5
vt 0.5078125 0.578125
vt 0.46875 0.578125
vt 0.46875 0.5
vt 0.4296875 0.453125
vt 0.4296875 0.53125
vt 0.390625 0.53125
vt 0.390625 0.453125
vt 0.95703125 0.10546875
vt 0.95703125 0.109375
vt 0.921875 0.109375
vt 0.921875 0.10546875
vt 0.97265625 0.90234375
vt 0.97265625 0.90625
vt 0.9375 0.90625
vt 0.9375 0.90234375
vt 0.71875 0.8125
vt 0.71875 0.77734375
vt 0.7578125 0.77734375
vt 0.7578125 0.8125
vt 0.234375 0.24609375
vt 0.234375 0.28125
vt 0.2734375 0.28125
vt 0.2734375 0.24609375
vt 0.9296875 0.07421875
vt 0.9296875 0.078125
vt 0.890625 0.078125
vt 0.890625 0.07421875
vt 0.9609375 0.13671875
vt 0.9609375 0.140625
vt 0.921875 0.140625
vt 0.921875 0.13671875
vt 0.97265625 0.87109375
vt 0.97265625 0.875
vt 0.9375 0.875
vt 0.9375 0.87109375
vt 0.97265625 0.83984375
vt 0.97265625 0.84375
vt 0.9375 0.84375
vt 0.9375 0.83984375
vt 0.328125 0.234375
vt 0.328125 0.19921875
vt 0.361328125 0.19921875
vt 0.361328125 0.234375
vt 0.390625 0.19921875
vt 0.390625 0.234375
vt 0.423828125 0.234375
vt 0.423828125 0.19921875
vt 0.970703125 0.80859375
vt 0.970703125 0.8125
vt 0.9375 0.8125
vt 0.9375 0.80859375
vt 0.220703125 0.05859375
vt 0.220703125 0.0625
vt 0.1875 0.0625
vt 0.1875 0.05859375
vt 0.421875 0.359375
vt 0.421875 0.4375
vt 0.390625 0.4375
vt 0.390625 0.359375
vt 0.46875 0.359375
vt 0.46875 0.4375
vt 0.4375 0.4375
vt 0.4375 0.359375
vt 0.734375 0.953125
vt 0.734375 0.921875
vt 0.7734375 0.921875
vt 0.7734375 0.953125
vt 0.734375 0.875
vt 0.734375 0.90625
vt 0.7734375 0.90625
vt 0.7734375 0.875
vt 0.5078125 0.5
vt 0.5078125 0.578125
vt 0.46875 0.578125
vt 0.46875 0.5
vt 0.4296875 0.453125
vt 0.4296875 0.53125
vt 0.390625 0.53125
vt 0.390625 0.453125
vt 0.95703125 0.10546875
vt 0.95703125 0.109375
vt 0.921875 0.109375
vt 0.921875 0.10546875
vt 0.97265625 0.90234375
vt 0.97265625 0.90625
vt 0.9375 0.90625
vt 0.9375 0.90234375
vt 0.71875 0.8125
vt 0.71875 0.77734375
vt 0.7578125 0.77734375
vt 0.7578125 0.8125
vt 0.234375 0.24609375
vt 0.234375 0.28125
vt 0.2734375 0.28125
vt 0.2734375 0.24609375
vt 0.9296875 0.07421875
vt 0.9296875 0.078125
vt 0.890625 0.078125
vt 0.890625 0.07421875
vt 0.9609375 0.13671875
vt 0.9609375 0.140625
vt 0.921875 0.140625
vt 0.921875 0.13671875
vt 0.97265625 0.87109375
vt 0.97265625 0.875
vt 0.9375 0.875
vt 0.9375 0.87109375
vt 0.97265625 0.83984375
vt 0.97265625 0.84375
vt 0.9375 0.84375
vt 0.9375 0.83984375
vt 0.328125 0.234375
vt 0.328125 0.19921875
vt 0.361328125 0.19921875
vt 0.361328125 0.234375
vt 0.390625 0.19921875
vt 0.390625 0.234375
vt 0.423828125 0.234375
vt 0.423828125 0.19921875
vt 0.970703125 0.80859375
vt 0.970703125 0.8125
vt 0.9375 0.8125
vt 0.9375 0.80859375
vt 0.220703125 0.05859375
vt 0.220703125 0.0625
vt 0.1875 0.0625
vt 0.1875 0.05859375
vt 0.67578125 0.65625
vt 0.67578125 0.75
vt 0.65625 0.75
vt 0.65625 0.65625
vt 0.67578125 0.546875
vt 0.67578125 0.640625
vt 0.65625 0.640625
vt 0.65625 0.546875
vt 0.703125 0.671875
vt 0.703125 0.65234375
vt 0.775390625 0.65234375
vt 0.775390625 0.671875
vt 0.703125 0.60546875
vt 0.703125 0.625
vt 0.775390625 0.625
vt 0.775390625 0.60546875
vt 0.072265625 0.6875
vt 0.072265625 0.78125
vt 0 0.78125
vt 0 0.6875
vt 0.228515625 0.75
vt 0.228515625 0.84375
vt 0.15625 0.84375
vt 0.15625 0.75
vt 0.12890625 0.203125
vt 0.12890625 0.265625
vt 0.109375 0.265625
vt 0.109375 0.203125
vt 0.17578125 0.203125
vt 0.17578125 0.265625
vt 0.15625 0.265625
vt 0.15625 0.203125
vt 0.703125 0.578125
vt 0.703125 0.55859375
vt 0.775390625 0.55859375
vt 0.775390625 0.578125
vt 0.6875 0.27734375
vt 0.6875 0.296875
vt 0.759765625 0.296875
vt 0.759765625 0.27734375
vt 0.275390625 0.59375
vt 0.275390625 0.65625
vt 0.203125 0.65625
vt 0.203125 0.59375
vt 0.072265625 0.609375
vt 0.072265625 0.671875
vt 0 0.671875
vt 0 0.609375
vt 0.39453125 0.25
vt 0.39453125 0.34375
vt 0.375 0.34375
vt 0.375 0.25
vt 0.44140625 0.25
vt 0.44140625 0.34375
vt 0.421875 0.34375
vt 0.421875 0.25
vt 0.78125 0.1875
vt 0.78125 0.16796875
vt 0.814453125 0.16796875
vt 0.814453125 0.1875
vt 0.328125 0.15234375
vt 0.328125 0.171875
vt 0.361328125 0.171875
vt 0.361328125 0.15234375
vt 0.298828125 0.4375
vt 0.298828125 0.53125
vt 0.265625 0.53125
vt 0.265625 0.4375
vt 0.033203125 0.5
vt 0.033203125 0.59375
vt 0 0.59375
vt 0 0.5
vt 0.56640625 0.25
vt 0.56640625 0.34375
vt 0.546875 0.34375
vt 0.546875 0.25
vt 0.61328125 0.25
vt 0.61328125 0.34375
vt 0.59375 0.34375
vt 0.59375 0.25
vt 0.390625 0.171875
vt 0.390625 0.15234375
vt 0.423828125 0.15234375
vt 0.423828125 0.171875
vt 0.671875 0.15234375
vt 0.671875 0.171875
vt 0.705078125 0.171875
vt 0.705078125 0.15234375
vt 0.361328125 0.4375
vt 0.361328125 0.53125
vt 0.328125 0.53125
vt 0.328125 0.4375
vt 0.501953125 0.59375
vt 0.501953125 0.6875
vt 0.46875 0.6875
vt 0.46875 0.59375
vt 0.46484375 0.0625
vt 0.46484375 0.09375
vt 0.453125 0.09375
vt 0.453125 0.0625
vt 0.91796875 0.4375
vt 0.91796875 0.46875
vt 0.90625 0.46875
vt 0.90625 0.4375
vt 0.78125 0.53125
vt 0.78125 0.51953125
vt 0.869140625 0.51953125
vt 0.869140625 0.53125
vt 0.78125 0.48828125
vt 0.78125 0.5
vt 0.869140625 0.5
vt 0.869140625 0.48828125
vt 0.541015625 0.453125
vt 0.541015625 0.484375
vt 0.453125 0.484375
vt 0.453125 0.453125
vt 0.150390625 0.484375
vt 0.150390625 0.515625
vt 0.0625 0.515625
vt 0.0625 0.484375
vt 0.12109375 0.12109375
vt 0.12109375 0.1875
vt 0.109375 0.1875
vt 0.109375 0.12109375
vt 0.15234375 0.12109375
vt 0.15234375 0.1875
vt 0.140625 0.1875
vt 0.140625 0.12109375
vt 0.78125 0.375
vt 0.78125 0.36328125
vt 0.869140625 0.36328125
vt 0.869140625 0.375
vt 0.78125 0.33203125
vt 0.78125 0.34375
vt 0.869140625 0.34375
vt 0.869140625 0.33203125
vt 0.337890625 0.68359375
vt 0.337890625 0.75
vt 0.25 0.75
vt 0.25 0.68359375
vt 0.337890625 0.77734375
vt 0.337890625 0.84375
vt 0.25 0.84375
vt 0.25 0.77734375
vt 0.58984375 0.0625
vt 0.58984375 0.09375
vt 0.578125 0.09375
vt 0.578125 0.0625
vt 0.91796875 0.390625
vt 0.91796875 0.421875
vt 0.90625 0.421875
vt 0.90625 0.390625
vt 0.78125 0.3125
vt 0.78125 0.30078125
vt 0.869140625 0.30078125
vt 0.869140625 0.3125
vt 0.78125 0.26953125
vt 0.78125 0.28125
vt 0.869140625 0.28125
vt 0.869140625 0.26953125
vt 0.619140625 0.96875
vt 0.619140625 1
vt 0.53125 1
vt 0.53125 0.96875
vt 0.087890625 0.4375
vt 0.087890625 0.46875
vt 0 0.46875
vt 0 0.4375
vt 0.18359375 0.12109375
vt 0.18359375 0.1875
vt 0.171875 0.1875
vt 0.171875 0.12109375
vt 0.46484375 0.12109375
vt 0.46484375 0.1875
vt 0.453125 0.1875
vt 0.453125 0.12109375
vt 0.78125 0.25
vt 0.78125 0.23828125
vt 0.869140625 0.23828125
vt 0.869140625 0.25
vt 0.78125 0.20703125
vt 0.78125 0.21875
vt 0.869140625 0.21875
vt 0.869140625 0.20703125
vt 0.400390625 0.93359375
vt 0.400390625 1
vt 0.3125 1
vt 0.3125 0.93359375
vt 0.181640625 0.66796875
vt 0.181640625 0.734375
vt 0.09375 0.734375
vt 0.09375 0.66796875
vt 0.66015625 0.25
vt 0.66015625 0.34375
vt 0.640625 0.34375
vt 0.640625 0.25
vt 0.70703125 0.90625
vt 0.70703125 1
vt 0.6875 1
vt 0.6875 0.90625
vt 0.53125 0.953125
vt 0.53125 0.93359375
vt 0.666015625 0.93359375
vt 0.666015625 0.953125
vt 0.53125 0.88671875
vt 0.53125 0.90625
vt 0.666015625 0.90625
vt 0.666015625 0.88671875
vt 0.134765625 0.796875
vt 0.134765625 0.890625
vt 0 0.890625
vt 0 0.796875
vt 0.134765625 0.90625
vt 0.134765625 1
vt 0 1
vt 0 0.90625
vt 0.70703125 0.1875
vt 0.70703125 0.25
vt 0.6875 0.25
vt 0.6875 0.1875
vt 0.75390625 0.1875
vt 0.75390625 0.25
vt 0.734375 0.25
vt 0.734375 0.1875
vt 0.109375 0.46875
vt 0.109375 0.44921875
vt 0.244140625 0.44921875
vt 0.244140625 0.46875
vt 0.53125 0.83984375
vt 0.53125 0.859375
vt 0.666015625 0.859375
vt 0.666015625 0.83984375
vt 0.291015625 0.859375
vt 0.291015625 0.921875
vt 0.15625 0.921875
vt 0.15625 0.859375
vt 0.291015625 0.9375
vt 0.291015625 1
vt 0.15625 1
vt 0.15625 0.9375
vt 0.49609375 0.125
vt 0.49609375 0.1875
vt 0.484375 0.1875
vt 0.484375 0.125
vt 0.52734375 0.125
vt 0.52734375 0.1875
vt 0.515625 0.1875
vt 0.515625 0.125
vt 0.03125 0.109375
vt 0.03125 0.09765625
vt 0.072265625 0.09765625
vt 0.072265625 0.109375
vt 0.890625 0.51953125
vt 0.890625 0.53125
vt 0.931640625 0.53125
vt 0.931640625 0.51953125
vt 0.572265625 0.671875
vt 0.572265625 0.734375
vt 0.53125 0.734375
vt 0.53125 0.671875
vt 0.572265625 0.75
vt 0.572265625 0.8125
vt 0.53125 0.8125
vt 0.53125 0.75
vt 0.21484375 0.1640625
vt 0.21484375 0.265625
vt 0.203125 0.265625
vt 0.203125 0.1640625
vt 0.05859375 0.1328125
vt 0.05859375 0.234375
vt 0.046875 0.234375
vt 0.046875 0.1328125
vt 0.484375 0.109375
vt 0.484375 0.09765625
vt 0.525390625 0.09765625
vt 0.525390625 0.109375
vt 0.890625 0.48828125
vt 0.890625 0.5
vt 0.931640625 0.5
vt 0.931640625 0.48828125
vt 0.134765625 0.5390625
vt 0.134765625 0.640625
vt 0.09375 0.640625
vt 0.09375 0.5390625
vt 0.337890625 0.5546875
vt 0.337890625 0.65625
vt 0.296875 0.65625
vt 0.296875 0.5546875
vt 0.01171875 0.10546875
vt 0.01171875 0.15625
vt 0 0.15625
vt 0 0.10546875
vt 0.65234375 0.10546875
vt 0.65234375 0.15625
vt 0.640625 0.15625
vt 0.640625 0.10546875
vt 0.890625 0.375
vt 0.890625 0.36328125
vt 0.931640625 0.36328125
vt 0.931640625 0.375
vt 0.890625 0.33203125
vt 0.890625 0.34375
vt 0.931640625 0.34375
vt 0.931640625 0.33203125
vt 0.634765625 0.68359375
vt 0.634765625 0.734375
vt 0.59375 0.734375
vt 0.59375 0.68359375
vt 0.634765625 0.76171875
vt 0.634765625 0.8125
vt 0.59375 0.8125
vt 0.59375 0.76171875
vt 0.62109375 0.0625
vt 0.62109375 0.09375
vt 0.609375 0.09375
vt 0.609375 0.0625
vt 0.68359375 0.0625
vt 0.68359375 0.09375
vt 0.671875 0.09375
vt 0.671875 0.0625
vt 0.890625 0.3125
vt 0.890625 0.30078125
vt 0.931640625 0.30078125
vt 0.931640625 0.3125
vt 0.890625 0.26953125
vt 0.890625 0.28125
vt 0.931640625 0.28125
vt 0.931640625 0.26953125
vt 0.337890625 0.25
vt 0.337890625 0.28125
vt 0.296875 0.28125
vt 0.296875 0.25
vt 0.134765625 0.75
vt 0.134765625 0.78125
vt 0.09375 0.78125
vt 0.09375 0.75
vt 0.71484375 0.0625
vt 0.71484375 0.09375
vt 0.703125 0.09375
vt 0.703125 0.0625
vt 0.91796875 0.15625
vt 0.91796875 0.1875
vt 0.90625 0.1875
vt 0.90625 0.15625
vt 0.734375 0.109375
vt 0.734375 0.09765625
vt 0.775390625 0.09765625
vt 0.775390625 0.109375
vt 0.890625 0.23828125
vt 0.890625 0.25
vt 0.931640625 0.25
vt 0.931640625 0.23828125
vt 0.775390625 0.96875
vt 0.775390625 1
vt 0.734375 1
vt 0.734375 0.96875
vt 0.509765625 0.25
vt 0.509765625 0.28125
vt 0.46875 0.28125
vt 0.46875 0.25
vt 0.82421875 0.40625
vt 0.82421875 0.46875
vt 0.8125 0.46875
vt 0.8125 0.40625
vt 0.55859375 0.125
vt 0.55859375 0.1875
vt 0.546875 0.1875
vt 0.546875 0.125
vt 0.890625 0.21875
vt 0.890625 0.20703125
vt 0.931640625 0.20703125
vt 0.931640625 0.21875
vt 0.796875 0.09765625
vt 0.796875 0.109375
vt 0.837890625 0.109375
vt 0.837890625 0.09765625
vt 0.572265625 0.515625
vt 0.572265625 0.578125
vt 0.53125 0.578125
vt 0.53125 0.515625
vt 0.572265625 0.59375
vt 0.572265625 0.65625
vt 0.53125 0.65625
vt 0.53125 0.59375
vt 0.85546875 0.13671875
vt 0.85546875 0.1875
vt 0.84375 0.1875
vt 0.84375 0.13671875
vt 0.21484375 0.08984375
vt 0.21484375 0.140625
vt 0.203125 0.140625
vt 0.203125 0.08984375
vt 0.859375 0.109375
vt 0.859375 0.09765625
vt 0.900390625 0.09765625
vt 0.900390625 0.109375
vt 0.90625 0.98828125
vt 0.90625 1
vt 0.947265625 1
vt 0.947265625 0.98828125
vt 0.634765625 0.52734375
vt 0.634765625 0.578125
vt 0.59375 0.578125
vt 0.59375 0.52734375
vt 0.634765625 0.60546875
vt 0.634765625 0.65625
vt 0.59375 0.65625
vt 0.59375 0.60546875
vt 0.08984375 0.1328125
vt 0.08984375 0.234375
vt 0.078125 0.234375
vt 0.078125 0.1328125
vt 0.30859375 0.1328125
vt 0.30859375 0.234375
vt 0.296875 0.234375
vt 0.296875 0.1328125
vt 0.90625 0.96875
vt 0.90625 0.95703125
vt 0.947265625 0.95703125
vt 0.947265625 0.96875
vt 0.90625 0.92578125
vt 0.90625 0.9375
vt 0.947265625 0.9375
vt 0.947265625 0.92578125
vt 0.400390625 0.6796875
vt 0.400390625 0.78125
vt 0.359375 0.78125
vt 0.359375 0.6796875
vt 0.400390625 0.8046875
vt 0.400390625 0.90625
vt 0.359375 0.90625
vt 0.359375 0.8046875
vt 0.28125 0.546875
vt 0.28125 0.578125
vt 0.265625 0.578125
vt 0.265625 0.546875
vt 0.890625 0.15625
vt 0.890625 0.1875
vt 0.875 0.1875
vt 0.875 0.15625
vt 0.421875 0.6875
vt 0.421875 0.671875
vt 0.453125 0.671875
vt 0.453125 0.6875
vt 0.875 0.125
vt 0.875 0.140625
vt 0.90625 0.140625
vt 0.90625 0.125
vt 0.1875 0.609375
vt 0.1875 0.640625
vt 0.15625 0.640625
vt 0.15625 0.609375
vt 0.34375 0.875
vt 0.34375 0.90625
vt 0.3125 0.90625
vt 0.3125 0.875
vt 0.28125 0.546875
vt 0.28125 0.578125
vt 0.265625 0.578125
vt 0.265625 0.546875
vt 0.890625 0.15625
vt 0.890625 0.1875
vt 0.875 0.1875
vt 0.875 0.15625
vt 0.453125 0.671875
vt 0.453125 0.6875
vt 0.421875 0.6875
vt 0.421875 0.671875
vt 0.90625 0.125
vt 0.90625 0.140625
vt 0.875 0.140625
vt 0.875 0.125
vt 0.1875 0.609375
vt 0.1875 0.640625
vt 0.15625 0.640625
vt 0.15625 0.609375
vt 0.34375 0.875
vt 0.34375 0.90625
vt 0.3125 0.90625
vt 0.3125 0.875
vt 0.28125 0.546875
vt 0.28125 0.578125
vt 0.265625 0.578125
vt 0.265625 0.546875
vt 0.890625 0.15625
vt 0.890625 0.1875
vt 0.875 0.1875
vt 0.875 0.15625
vt 0.421875 0.6875
vt 0.421875 0.671875
vt 0.453125 0.671875
vt 0.453125 0.6875
vt 0.875 0.125
vt 0.875 0.140625
vt 0.90625 0.140625
vt 0.90625 0.125
vt 0.1875 0.609375
vt 0.1875 0.640625
vt 0.15625 0.640625
vt 0.15625 0.609375
vt 0.34375 0.875
vt 0.34375 0.90625
vt 0.3125 0.90625
vt 0.3125 0.875
vt 0.234375 0.671875
vt 0.234375 0.734375
vt 0.203125 0.734375
vt 0.203125 0.671875
vt 0.03125 0.28125
vt 0.03125 0.34375
vt 0 0.34375
vt 0 0.28125
vt 0.453125 0.234375
vt 0.453125 0.203125
vt 0.490234375 0.203125
vt 0.490234375 0.234375
vt 0.515625 0.203125
vt 0.515625 0.234375
vt 0.552734375 0.234375
vt 0.552734375 0.203125
vt 0.099609375 0.359375
vt 0.099609375 0.421875
vt 0.0625 0.421875
vt 0.0625 0.359375
vt 0.037109375 0.359375
vt 0.037109375 0.421875
vt 0 0.421875
vt 0 0.359375
vt 0.078125 0.28125
vt 0.078125 0.34375
vt 0.046875 0.34375
vt 0.046875 0.28125
vt 0.125 0.28125
vt 0.125 0.34375
vt 0.09375 0.34375
vt 0.09375 0.28125
vt 0.734375 0.859375
vt 0.734375 0.828125
vt 0.7734375 0.828125
vt 0.7734375 0.859375
vt 0.75 0.390625
vt 0.75 0.421875
vt 0.7890625 0.421875
vt 0.7890625 0.390625
vt 0.6015625 0.4375
vt 0.6015625 0.5
vt 0.5625 0.5
vt 0.5625 0.4375
vt 0.5234375 0.375
vt 0.5234375 0.4375
vt 0.484375 0.4375
vt 0.484375 0.375
vt 0.171875 0.28125
vt 0.171875 0.34375
vt 0.140625 0.34375
vt 0.140625 0.28125
vt 0.21875 0.28125
vt 0.21875 0.34375
vt 0.1875 0.34375
vt 0.1875 0.28125
vt 0.578125 0.234375
vt 0.578125 0.203125
vt 0.615234375 0.203125
vt 0.615234375 0.234375
vt 0.78125 0.78125
vt 0.78125 0.8125
vt 0.818359375 0.8125
vt 0.818359375 0.78125
vt 0.224609375 0.359375
vt 0.224609375 0.421875
vt 0.1875 0.421875
vt 0.1875 0.359375
vt 0.162109375 0.359375
vt 0.162109375 0.421875
vt 0.125 0.421875
vt 0.125 0.359375
vt 0.962890625 0.73046875
vt 0.962890625 0.734375
vt 0.9375 0.734375
vt 0.9375 0.73046875
vt 0.322265625 0.05859375
vt 0.322265625 0.0625
vt 0.296875 0.0625
vt 0.296875 0.05859375
vt 0.296875 0.109375
vt 0.296875 0.083984375
vt 0.3125 0.083984375
vt 0.3125 0.109375
vt 0.546875 0.083984375
vt 0.546875 0.109375
vt 0.5625 0.109375
vt 0.5625 0.083984375
vt 0.953125 0.46484375
vt 0.953125 0.46875
vt 0.9375 0.46875
vt 0.9375 0.46484375
vt 0.953125 0.57421875
vt 0.953125 0.578125
vt 0.9375 0.578125
vt 0.9375 0.57421875
vt 0.962890625 0.69921875
vt 0.962890625 0.703125
vt 0.9375 0.703125
vt 0.9375 0.69921875
vt 0.962890625 0.66796875
vt 0.962890625 0.671875
vt 0.9375 0.671875
vt 0.9375 0.66796875
vt 0.09375 0.09375
vt 0.09375 0.068359375
vt 0.109375 0.068359375
vt 0.109375 0.09375
vt 0.90625 0.880859375
vt 0.90625 0.90625
vt 0.921875 0.90625
vt 0.921875 0.880859375
vt 0.953125 0.43359375
vt 0.953125 0.4375
vt 0.9375 0.4375
vt 0.9375 0.43359375
vt 0.5625 0.05859375
vt 0.5625 0.0625
vt 0.546875 0.0625
vt 0.546875 0.05859375
vt 0.712890625 0.83203125
vt 0.712890625 0.890625
vt 0.6875 0.890625
vt 0.6875 0.83203125
vt 0.712890625 0.47265625
vt 0.712890625 0.53125
vt 0.6875 0.53125
vt 0.6875 0.47265625
vt 0.125 0.09375
vt 0.125 0.068359375
vt 0.140625 0.068359375
vt 0.140625 0.09375
vt 0.90625 0.833984375
vt 0.90625 0.859375
vt 0.921875 0.859375
vt 0.921875 0.833984375
vt 0.65625 0.17578125
vt 0.65625 0.234375
vt 0.640625 0.234375
vt 0.640625 0.17578125
vt 0.078125 0.53515625
vt 0.078125 0.59375
vt 0.0625 0.59375
vt 0.0625 0.53515625
vt 0.369140625 0.05859375
vt 0.369140625 0.0625
vt 0.34375 0.0625
vt 0.34375 0.05859375
vt 0.962890625 0.63671875
vt 0.962890625 0.640625
vt 0.9375 0.640625
vt 0.9375 0.63671875
vt 0.15625 0.09375
vt 0.15625 0.068359375
vt 0.171875 0.068359375
vt 0.171875 0.09375
vt 0.90625 0.787109375
vt 0.90625 0.8125
vt 0.921875 0.8125
vt 0.921875 0.787109375
vt 0.953125 0.18359375
vt 0.953125 0.1875
vt 0.9375 0.1875
vt 0.9375 0.18359375
vt 0.953125 0.40234375
vt 0.953125 0.40625
vt 0.9375 0.40625
vt 0.9375 0.40234375
vt 0.416015625 0.05859375
vt 0.416015625 0.0625
vt 0.390625 0.0625
vt 0.390625 0.05859375
vt 0.962890625 0.60546875
vt 0.962890625 0.609375
vt 0.9375 0.609375
vt 0.9375 0.60546875
vt 0.90625 0.71875
vt 0.90625 0.693359375
vt 0.921875 0.693359375
vt 0.921875 0.71875
vt 0.90625 0.646484375
vt 0.90625 0.671875
vt 0.921875 0.671875
vt 0.921875 0.646484375
vt 0.046875 0.04296875
vt 0.046875 0.046875
vt 0.03125 0.046875
vt 0.03125 0.04296875
vt 0.015625 0.04296875
vt 0.015625 0.046875
vt 0 0.046875
vt 0 0.04296875
vt 0.712890625 0.31640625
vt 0.712890625 0.375
vt 0.6875 0.375
vt 0.6875 0.31640625
vt 0.728515625 0.69140625
vt 0.728515625 0.75
vt 0.703125 0.75
vt 0.703125 0.69140625
vt 0.90625 0.625
vt 0.90625 0.599609375
vt 0.921875 0.599609375
vt 0.921875 0.625
vt 0.90625 0.552734375
vt 0.90625 0.578125
vt 0.921875 0.578125
vt 0.921875 0.552734375
vt 0.28125 0.16015625
vt 0.28125 0.21875
vt 0.265625 0.21875
vt 0.265625 0.16015625
vt 0.25 0.16015625
vt 0.25 0.21875
vt 0.234375 0.21875
vt 0.234375 0.16015625
vt 0.935546875 0.75
vt 0.935546875 0.765625
vt 0.921875 0.765625
vt 0.921875 0.75
vt 0.279296875 0.0625
vt 0.279296875 0.078125
vt 0.265625 0.078125
vt 0.265625 0.0625
vt 0.796875 0.609375
vt 0.796875 0.595703125
vt 0.859375 0.595703125
vt 0.859375 0.609375
vt 0.796875 0.564453125
vt 0.796875 0.578125
vt 0.859375 0.578125
vt 0.859375 0.564453125
vt 0.859375 0.71875
vt 0.859375 0.734375
vt 0.796875 0.734375
vt 0.796875 0.71875
vt 0.859375 0.75
vt 0.859375 0.765625
vt 0.796875 0.765625
vt 0.796875 0.75
vt 0.498046875 0.0625
vt 0.498046875 0.078125
vt 0.484375 0.078125
vt 0.484375 0.0625
vt 0.529296875 0.0625
vt 0.529296875 0.078125
vt 0.515625 0.078125
vt 0.515625 0.0625
vt 0.640625 0.078125
vt 0.640625 0.064453125
vt 0.65625 0.064453125
vt 0.65625 0.078125
vt 0.734375 0.064453125
vt 0.734375 0.078125
vt 0.75 0.078125
vt 0.75 0.064453125
vt 0.015625 0.0625
vt 0.015625 0.078125
vt 0 0.078125
vt 0 0.0625
vt 0.671875 0.515625
vt 0.671875 0.53125
vt 0.65625 0.53125
vt 0.65625 0.515625
vt 0.779296875 0.0625
vt 0.779296875 0.078125
vt 0.765625 0.078125
vt 0.765625 0.0625
vt 0.810546875 0.0625
vt 0.810546875 0.078125
vt 0.796875 0.078125
vt 0.796875 0.0625
vt 0.828125 0.078125
vt 0.828125 0.064453125
vt 0.84375 0.064453125
vt 0.84375 0.078125
vt 0.859375 0.064453125
vt 0.859375 0.078125
vt 0.875 0.078125
vt 0.875 0.064453125
vt 0.078125 0.0625
vt 0.078125 0.078125
vt 0.0625 0.078125
vt 0.0625 0.0625
vt 0.046875 0.0625
vt 0.046875 0.078125
vt 0.03125 0.078125
vt 0.03125 0.0625
vt 0.59375 0.140625
vt 0.59375 0.1875
vt 0.578125 0.1875
vt 0.578125 0.140625
vt 0.625 0.140625
vt 0.625 0.1875
vt 0.609375 0.1875
vt 0.609375 0.140625
vt 0.6875 0.453125
vt 0.6875 0.4375
vt 0.771484375 0.4375
vt 0.771484375 0.453125
vt 0 0.25
vt 0 0.265625
vt 0.083984375 0.265625
vt 0.083984375 0.25
vt 0.505859375 0.703125
vt 0.505859375 0.75
vt 0.421875 0.75
vt 0.421875 0.703125
vt 0.505859375 0.765625
vt 0.505859375 0.8125
vt 0.421875 0.8125
vt 0.421875 0.765625
vt 0.658203125 0.96875
vt 0.658203125 1
vt 0.640625 1
vt 0.640625 0.96875
vt 0.892578125 0.734375
vt 0.892578125 0.765625
vt 0.875 0.765625
vt 0.875 0.734375
vt 0.796875 0.703125
vt 0.796875 0.685546875
vt 0.849609375 0.685546875
vt 0.849609375 0.703125
vt 0.796875 0.638671875
vt 0.796875 0.65625
vt 0.849609375 0.65625
vt 0.849609375 0.638671875
vt 0.724609375 0.390625
vt 0.724609375 0.421875
vt 0.671875 0.421875
vt 0.671875 0.390625
vt 0.224609375 0.484375
vt 0.224609375 0.515625
vt 0.171875 0.515625
vt 0.171875 0.484375
vt 0.27734375 0.09375
vt 0.27734375 0.140625
vt 0.265625 0.140625
vt 0.265625 0.09375
vt 0.88671875 0.671875
vt 0.88671875 0.71875
vt 0.875 0.71875
vt 0.875 0.671875
vt 0.796875 1
vt 0.796875 0.98828125
vt 0.884765625 0.98828125
vt 0.884765625 1
vt 0.796875 0.95703125
vt 0.796875 0.96875
vt 0.884765625 0.96875
vt 0.884765625 0.95703125
vt 0.447265625 0.546875
vt 0.447265625 0.59375
vt 0.359375 0.59375
vt 0.359375 0.546875
vt 0.447265625 0.609375
vt 0.447265625 0.65625
vt 0.359375 0.65625
vt 0.359375 0.609375
vt 0.33984375 0.078125
vt 0.33984375 0.125
vt 0.328125 0.125
vt 0.328125 0.078125
vt 0.88671875 0.609375
vt 0.88671875 0.65625
vt 0.875 0.65625
vt 0.875 0.609375
vt 0.796875 0.9375
vt 0.796875 0.92578125
vt 0.884765625 0.92578125
vt 0.884765625 0.9375
vt 0.796875 0.89453125
vt 0.796875 0.90625
vt 0.884765625 0.90625
vt 0.884765625 0.89453125
vt 0.509765625 0.890625
vt 0.509765625 0.9375
vt 0.421875 0.9375
vt 0.421875 0.890625
vt 0.509765625 0.953125
vt 0.509765625 1
vt 0.421875 1
vt 0.421875 0.953125
vt 0.40234375 0.078125
vt 0.40234375 0.125
vt 0.390625 0.125
vt 0.390625 0.078125
vt 0.88671875 0.546875
vt 0.88671875 0.59375
vt 0.875 0.59375
vt 0.875 0.546875
vt 0.796875 0.875
vt 0.796875 0.86328125
vt 0.884765625 0.86328125
vt 0.884765625 0.875
vt 0.796875 0.83203125
vt 0.796875 0.84375
vt 0.884765625 0.84375
vt 0.884765625 0.83203125
vt 0.244140625 0.53125
vt 0.244140625 0.578125
vt 0.15625 0.578125
vt 0.15625 0.53125
vt 0.509765625 0.828125
vt 0.509765625 0.875
vt 0.421875 0.875
vt 0.421875 0.828125
vn -0.9876883405951378 0.04573701122120166 -0.14959902291450597
vn 0.9876883405951378 -0.04573701122120166 0.14959902291450597
vn 0 0.9563047559630357 0.29237170472273677
vn 0 -0.9563047559630357 -0.29237170472273677
vn -0.15643446504023084 -0.2887721238745714 0.9445310575203687
vn 0.1564290494265053 0.2967194166388546 -0.9420655711175406
vn 0.9876883405951378 0.04573701122120161 -0.14959902291450636
vn -0.9876883405951378 -0.045737011221201745 0.14959902291450658
vn 0 0.9563047559630357 0.29237170472273677
vn 1.670939941916244e-15 -0.9563047559630354 -0.292371704722737
vn 0.15643446504023134 -0.2887721238745714 0.9445310575203686
vn -0.1564290494265062 0.29671941663885454 -0.9420655711175404
vn 0.10863820482482114 0.2898961958062927 -0.9508721975688846
vn 1 -1.3877787807814457e-16 -6.106226635438361e-16
vn -1 -5.551115123125783e-17 -8.326672684688674e-17
vn -7.077671781985371e-16 0.9483236552061992 -0.3173046564050928
vn -1.249000902703301e-16 -0.9483236552061997 0.3173046564050915
vn -0.10653312363426568 0.31549892444496286 0.9429268912502168
vn 0.1402052862003618 -0.4355105213373902 -0.8891979889349217
vn 1 1.457167719820518e-16 2.7755575615628914e-17
vn -1 3.677613769070831e-16 8.326672684688674e-16
vn 1.3322676295501878e-15 0.9483236552062002 -0.31730465640509
vn -1.1102230246251565e-16 -0.9483236552061997 0.3173046564050915
vn 0.10601037633229847 0.4077808074182938 0.9069049637151453
vn -0.1414213562373096 -0.31411558394455147 -0.9387925222982837
vn 4.163336342344337e-16 3.3306690738754696e-16 -1
vn 3.885780586188048e-16 -1.1102230246251565e-16 1
vn -0.017452406437284143 0.9998476951563914 1.1657341758564144e-15
vn 0.017452406437284095 -0.9998476951563913 2.7755575615628914e-16
vn 0.9998476951563914 0.017452406437283415 1.9428902930940244e-16
vn -0.9998476951563914 -0.017452406437283637 -3.053113317719181e-16
vn -1.3877787807814457e-16 1.7208456881689926e-15 -1
vn -3.3306690738754696e-16 4.385380947269368e-15 1
vn -0.01745240643728373 0.9998476951563914 9.99200722162641e-16
vn 0.017452406437283383 -0.9998476951563914 -1.054711873393899e-15
vn 0.9998476951563913 0.017452406437282762 2.4980018054066027e-16
vn -0.9998476951563914 -0.01745240643728081 -1.6653345369377353e-16
vn 1.4988010832439613e-15 -3.885780586188048e-16 -1
vn -4.85722573273506e-15 1.4432899320127035e-15 1
vn 0.9832549075639545 -0.18223552549214814 1.1934897514720433e-15
vn -0.9832549075639545 0.1822355254921479 -3.7470027081099033e-16
vn -0.1822355254921453 -0.9832549075639551 -3.3306690738754696e-16
vn 0.18223552549215716 0.9832549075639527 2.775557561562891e-16
vn 0.3641810373758279 -0.027164564088507204 -0.9309319300967969
vn -0.3641810373758272 0.027164564088507093 0.9309319300967971
vn -0.008319548718635564 0.9994397647349568 -0.03241823214878797
vn 0.008319548718635916 -0.9994397647349567 0.03241823214878758
vn 0.9312910163450437 0.01955103896000955 0.3637510134014748
vn -0.9312910163450439 -0.01955103896000973 -0.3637510134014743
vn 0.36418103737582724 -0.027164564088505656 -0.9309319300967972
vn -0.3641810373758273 0.027164564088508314 0.930931930096797
vn -0.008319548718635494 0.9994397647349569 -0.03241823214878514
vn 0.00831954871863448 -0.9994397647349567 0.032418232148787855
vn 0.9312910163450439 0.01955103896000844 0.3637510134014746
vn -0.9312910163450437 -0.01955103896000994 -0.36375101340147464
vn 0.36418103737583113 -0.027164564088507703 -0.9309319300967955
vn -0.36418103737582364 0.027164564088505816 0.9309319300967984
vn 0.9142537253512669 -0.18009769539169962 0.36291176034392847
vn -0.9142537253512668 0.18009769539170062 -0.3629117603439282
vn -0.17751703494931717 -0.983273566497381 -0.040752861621284275
vn 0.17751703494932197 0.9832735664973798 0.040752861621288376
vn 1 -2.775557561562892e-17 -2.775557561562892e-17
vn -1 0 -5.828670879282073e-16
vn -2.7755575615628907e-17 1 1.5543122344752188e-15
vn 4.85722573273506e-17 -1 -1.6653345369377348e-16
vn 5.551115123125783e-17 0 1
vn -8.326672684688674e-17 1.1102230246251565e-16 -1
vn 1 1.3877787807814457e-17 0
vn -1 -1.942890293094024e-16 -5.551115123125783e-17
vn 0 0.9563047559630357 0.29237170472273677
vn -3.944304526105059e-31 -0.9563047559630348 -0.2923717047227396
vn 1.1102230246251565e-16 -0.2923717047227367 0.9563047559630355
vn -1.1102230246251565e-16 0.29237170472273666 -0.9563047559630355
vn 0.9890158633619168 -2.7755575615628914e-17 -0.1478094111296106
vn -0.9890158633619168 0 0.14780941112961085
vn 8.465450562766817e-16 1 0
vn -1.3877787807814454e-16 -1 -1.1102230246251563e-16
vn 0.14780941112961116 0 0.9890158633619168
vn -0.1478094111296116 5.551115123125783e-17 -0.9890158633619168
vn 0.9890158633619168 -9.540979117872439e-18 0.1478094111296109
vn -0.9890158633619168 -1.3877787807814457e-17 -0.14780941112961077
vn -9.367506770274758e-16 1 5.551115123125783e-17
vn 2.1510571102112408e-16 -1 5.551115123125783e-17
vn -0.147809411129611 -2.220446049250313e-16 0.9890158633619168
vn 0.1478094111296111 -1.1102230246251563e-16 -0.9890158633619167
vn -0.0025701947677281077 0.9997289192982578 -0.023140484385455625
vn 0.002570194767732084 -0.9997289192982579 0.02314048438545263
vn 0.2848362860760236 0.022913875002560646 0.9583022719720459
vn -0.2848362860760242 -0.02291387500256101 -0.9583022719720458
vn 0.9585727328863856 -0.004128226145026628 -0.28481796557735206
vn -0.9585727328863856 0.004128226145026699 0.28481796557735234
vn -0.002570193840182533 0.9997289504742574 -0.02313913756525654
vn 0.002570193840178245 -0.9997289504742575 0.023139137565256762
vn -0.18996713843500906 0.02222973324016936 0.9815387538324125
vn 0.1899671384350047 -0.022229733240168914 -0.9815387538324133
vn 0.981787085074172 0.006918420608118142 0.18985851320878375
vn -0.9817870850741718 -0.006918420608118205 -0.189858513208784
vn -0.002570194767731695 -0.9997289192982579 0.023140484385450962
vn 0.0025701947677274207 0.9997289192982578 -0.02314048438545385
vn -0.2848362860760214 0.022913875002560646 0.9583022719720464
vn 0.2848362860760233 -0.02291387500256098 -0.9583022719720459
vn -0.9585727328863856 -0.004128226145026629 -0.2848179655773526
vn 0.9585727328863854 0.004128226145026878 0.28481796557735245
vn -0.002570193840175136 -0.9997289504742575 0.023139137565256263
vn 0.0025701938401825187 0.9997289504742572 -0.023139137565258146
vn 0.18996713843500784 0.022229733240169136 0.9815387538324127
vn -0.18996713843500485 -0.02222973324016914 -0.9815387538324134
vn -0.981787085074172 0.0069184206081180245 0.18985851320878394
vn 0.9817870850741719 -0.006918420608118356 -0.18985851320878389
vn 1 0 -2.7755575615628914e-16
vn -1 -2.7755575615628914e-17 2.220446049250313e-16
vn 0 1 -1.3877787807814453e-15
vn 1.3877787807814454e-17 -1 2.2204460492503126e-16
vn 0 -2.220446049250313e-16 1
vn 0 0 -1
vn 1 -1.3877787807814457e-17 2.498001805406602e-16
vn -1 1.3877787807814457e-17 -2.498001805406602e-16
vn -1.3877787807814457e-17 0.992546151641322 -0.12186934340514882
vn -1.3877787807814457e-17 -0.992546151641322 0.12186934340514882
vn 0 0.12186934340514743 0.9925461516413221
vn -2.7755575615628914e-17 -0.12186934340514743 -0.9925461516413221
vn 0.9517245836536508 0.30612329101260705 -0.022557649897446127
vn -0.9517245836536508 -0.30612329101260727 0.022557649897449655
vn 0.30635891382231645 -0.9518843388725328 0.007773115901104105
vn -0.3063589138223171 0.9518843388725324 -0.007773115901099052
vn -0.019092741838081212 -0.014308602615632271 -0.999715325030227
vn 0.019092741838081437 0.014308602615633163 0.9997153250302271
vn 0.9228181003232834 0.3852359382955458 0.0001598789452230687
vn -0.9228181003232835 -0.38523593829554537 -0.00015987894522595525
vn -0.3804015118966938 0.9111717155020551 0.15830601572824604
vn 0.3804015118966939 -0.9111717155020552 -0.15830601572824513
vn 0.06083948933410685 -0.14614847489656957 0.987390084932481
vn -0.060839489334106364 0.14614847489656976 -0.987390084932481
vn 0.951724681027005 0.3061230274953599 -0.02255711774851968
vn -0.9517246810270057 -0.3061230274953581 0.022557117748519706
vn 0.005710837258663837 0.05581559900739458 0.998424761935145
vn -0.005710837258663004 -0.0558155990073968 -0.9984247619351448
vn 0.3068998498889347 -0.9503543081106756 0.051372864370488935
vn -0.30689984988893343 0.9503543081106759 -0.05137286437048989
vn 0.9517243970499288 0.30612387958089576 -0.022557535554458497
vn -0.9517243970499298 -0.3061238795808928 0.022557535554461605
vn 0.1467768813434689 -0.38931554374531857 0.9093348967797135
vn -0.14677688134346892 0.3893155437453173 -0.909334896779714
vn 0.26958712722055933 -0.8687471310736108 -0.4154530094828255
vn -0.2695871272205585 0.8687471310736117 0.41545300948282404
vn 0.9517243970499292 -0.30612387958089476 0.022557535554460217
vn -0.9517243970499291 0.3061238795808955 -0.02255753555445982
vn -0.1467768813434684 -0.38931554374531685 0.9093348967797144
vn 0.1467768813434694 0.38931554374531896 -0.9093348967797134
vn -0.2695871272205596 -0.8687471310736113 -0.41545300948282393
vn 0.26958712722055783 0.8687471310736105 0.41545300948282693
vn 0.9517245836536509 -0.3061232910126074 0.022557649897447764
vn -0.9517245836536509 0.30612329101260705 -0.022557649897446845
vn -0.30635891382231617 -0.9518843388725327 0.0077731159011031874
vn 0.30635891382231734 0.9518843388725323 -0.0077731159011036315
vn 0.01909274183808113 -0.014308602615632549 -0.999715325030227
vn -0.01909274183808135 0.014308602615632604 0.999715325030227
vn 0.9517246810270052 -0.3061230274953596 0.022557117748520164
vn -0.951724681027005 0.30612302749536024 -0.022557117748519886
vn -0.005710837258663309 0.0558155990073958 0.998424761935145
vn 0.00571083725866367 -0.05581559900739402 -0.9984247619351451
vn -0.306899849888935 -0.9503543081106756 0.05137286437048871
vn 0.3068998498889333 0.9503543081106759 -0.051372864370488866
vn 0.9228181003232836 -0.38523593829554525 -0.0001598789452257124
vn -0.9228181003232835 0.3852359382955453 0.0001598789452254279
vn 0.38040151189669374 0.9111717155020552 0.15830601572824549
vn -0.38040151189669397 -0.9111717155020551 -0.15830601572824565
vn -0.06083948933410681 -0.1461484748965696 0.987390084932481
vn 0.06083948933410614 0.1461484748965699 -0.987390084932481
vn 0.941837894084459 0.14689417840620855 0.3022639270851162
vn -0.941837894084459 -0.14689417840620805 -0.30226392708511685
vn -0.08525155995353455 0.9744253772977884 -0.20791189384821562
vn 0.08525155995353537 -0.9744253772977887 0.20791189384821424
vn -0.3250746880211382 0.1700508289554251 0.9302737031538257
vn 0.3250746880211375 -0.17005082895542456 -0.9302737031538262
vn 0.9631687088382688 0.26857127780518064 0.01324790749193916
vn -0.9631687088382688 -0.26857127780518053 -0.013247907491938216
vn -0.2644311330052844 0.9549617826587288 -0.13462603596186185
vn 0.26443113300528376 -0.9549617826587284 0.13462603596186482
vn -0.04880793185912441 0.12616442604535755 0.9908079144760001
vn 0.04880793185912495 -0.12616442604535988 -0.9908079144759998
vn 0.9774950608112497 0.20906421278537562 -0.028205691305879993
vn -0.9774950608112497 -0.20906421278537562 0.028205691305879937
vn -0.21089907554572473 0.9652785835531615 -0.15413901539701425
vn 0.21089907554572596 -0.9652785835531612 0.15413901539701494
vn -0.00499860216161302 0.1566186804504285 0.9876464969362251
vn 0.004998602161612881 -0.15661868045042765 -0.9876464969362251
vn 0.925506270631759 -0.04819566743688812 0.3756531920024191
vn -0.9255062706317593 0.04819566743688808 -0.3756531920024186
vn 0.12812826578083247 0.9732291596791434 -0.19080919856816408
vn -0.12812826578083084 -0.9732291596791439 0.19080919856816264
vn -0.35640046370521283 0.22472690179535817 0.9069049173315629
vn 0.3564004637052117 -0.22472690179535867 -0.9069049173315632
vn 1 0 -5.551115123125783e-17
vn -1 4.163336342344336e-17 8.326672684688672e-17
vn 1.942890293094024e-16 0.9816271834476641 -0.1908089953765448
vn 1.52655665885959e-16 -0.9816271834476641 0.19080899537654428
vn 3.3306690738754696e-16 0.1908089953765449 0.981627183447664
vn 2.7755575615628914e-16 -0.1908089953765445 -0.9816271834476641
vn 0.9996573249755574 -0.004994797208648885 -0.025696004038712944
vn -0.9996573249755573 0.0049947972086488495 0.025696004038712215
vn 1.609823385706477e-15 0.9816271834476636 -0.1908089953765472
vn -1.249000902703301e-16 -0.9816271834476643 0.1908089953765439
vn 0.02617694830787265 0.19074360989938988 0.9812908043285826
vn -0.026176948307873538 -0.19074360989938977 -0.9812908043285826
vn 0.9957122476785095 -0.0922698201709892 0.006587875881032185
vn -0.9957122476785094 0.09226982017099013 -0.006587875881032641
vn -0.039692546993999385 -0.3618347605169166 0.931396858377134
vn 0.039692546994001494 0.3618347605169164 -0.9313968583771338
vn -0.08355609813855773 -0.927664748908394 -0.3639457268557857
vn 0.08355609813855198 0.9276647489083881 0.3639457268558021
vn 0.9998476951563914 -1.3947176746853533e-15 0.017452406437283578
vn -0.9998476951563914 1.3947176746853533e-15 -0.017452406437283716
vn 4.371503159461554e-16 1 1.1657341758564144e-15
vn -4.510281037539697e-16 -1 -1.498801083243961e-15
vn -0.017452406437283324 5.995204332975845e-15 0.9998476951563913
vn 0.017452406437284986 -6.60582699651968e-15 -0.9998476951563912
vn 1 1.3877787807814457e-17 4.718447854656915e-16
vn -1 2.2898349882893854e-16 2.220446049250313e-16
vn -9.714451465470117e-17 1 9.992007221626407e-16
vn 6.245004513516506e-17 -1 4.440892098500626e-16
vn -1.1934897514720433e-15 -5.551115123125783e-17 1
vn -3.608224830031759e-16 2.7755575615628914e-16 -1
vn 0.951056380428158 0.0000010313915792814488 -0.3090174125285293
vn -0.9510563804281604 -0.0000010313915762283354 0.30901741252852155
vn 0.2854952435207131 -0.38268338926064127 0.8786614191547489
vn -0.2854952435207154 0.3826833892606435 -0.8786614191547473
vn -0.11825492452299112 -0.9238795503651485 -0.3639537734976146
vn 0.11825492452298582 0.9238795503651511 0.36395377349760927
vn 0.9510565162951535 3.4416913763379853e-15 -0.3090169943749478
vn -0.9510565162951534 4.718447854656914e-16 0.3090169943749478
vn -3.4694469519536136e-17 1 -1.6653345369377343e-16
vn 1.3877787807814457e-17 -1 -5.551115123125783e-17
vn 0.3090169943749469 4.718447854656915e-15 0.9510565162951539
vn -0.3090169943749469 7.771561172376096e-16 -0.9510565162951539
vn 0.9510565162951538 -3.3306690738754696e-16 -0.3090169943749473
vn -0.9510565162951538 0 0.3090169943749475
vn 3.469446951953614e-17 1 5.551115123125783e-17
vn -1.6167622796103842e-15 -1 -2.7755575615628914e-16
vn 0.3090169943749469 -3.0531133177191805e-16 0.9510565162951539
vn -0.30901699437494695 -1.1102230246251565e-16 -0.9510565162951538
vn 1 2.914335439641036e-16 -4.440892098500626e-16
vn -1 1.3877787807814457e-16 -3.885780586188048e-16
vn 1.301042606982605e-18 0.9612616959383185 0.2756373558170005
vn -1.734723475976807e-18 -0.9612616959383191 -0.27563735581699866
vn 2.7755575615628914e-17 -0.275637355816999 0.961261695938319
vn 1.1102230246251565e-16 0.275637355816999 -0.961261695938319
vn 0.7071067811865481 -0.679714663692866 -0.19490504344652862
vn -0.7071067811865472 0.6797146636928666 0.1949050434465303
vn 0.707106781186548 0.6797146636928662 0.19490504344652898
vn -0.7071067811865472 -0.6797146636928673 -0.19490504344652795
vn -1.3877787807814457e-16 -0.27563735581699916 0.9612616959383189
vn 1.1102230246251568e-16 0.2756373558169992 -0.961261695938319
vn 0.7071067811865482 -0.6797146636928659 -0.19490504344652873
vn -0.7071067811865476 0.6797146636928664 0.1949050434465302
vn 0.7071067811865481 0.6797146636928662 0.19490504344652904
vn -0.7071067811865475 -0.679714663692867 -0.1949050434465278
vn 4.996003610813205e-16 -0.27563735581699983 0.9612616959383189
vn -5.551115123125784e-16 0.27563735581699983 -0.9612616959383188
vn 1 4.85722573273506e-17 8.326672684688674e-17
vn -1 0 4.440892098500626e-16
vn 2.60208521396521e-18 0.961261695938319 0.27563735581699844
vn 2.60208521396521e-18 -0.9612616959383186 -0.27563735581700005
vn 5.551115123125783e-17 -0.2756373558169995 0.9612616959383188
vn 1.387778780781446e-16 0.2756373558169995 -0.9612616959383189
vn 1 1.249000902703301e-16 -1.942890293094024e-16
vn -1 4.163336342344338e-17 1.9428902930940244e-16
vn 2.60208521396521e-18 0.9612616959383191 0.2756373558169983
vn -3.0357660829594116e-18 -0.9612616959383187 -0.2756373558169998
vn 1.3877787807814457e-16 -0.275637355816999 0.9612616959383189
vn 1.6653345369377348e-16 0.2756373558169994 -0.9612616959383189
vn 2.3869795029440866e-15 -0.17364817766692997 -0.9848077530122081
vn -2.7755575615628914e-16 0.17364817766693025 0.9848077530122081
vn -0.18223552549214436 0.9683170561562852 -0.17074042288054642
vn 0.18223552549214536 -0.9683170561562847 0.1707404228805471
vn 0.9832549075639546 0.17946695837892068 -0.031644866907886565
vn -0.9832549075639546 -0.17946695837892085 0.03164486690788634
vn 1.6375789613221059e-15 0.17364817766693086 0.9848077530122081
vn -1.3877787807814457e-15 -0.17364817766692964 -0.9848077530122084
vn 0.18223552549215014 0.9683170561562842 -0.1707404228805463
vn -0.18223552549214136 -0.9683170561562855 0.17074042288054722
vn -0.9832549075639546 0.17946695837892043 -0.03164486690788651
vn 0.9832549075639546 -0.1794669583789204 0.03164486690788644
vn 1 -4.163336342344338e-17 8.326672684688677e-17
vn -1 1.6653345369377348e-16 6.106226635438361e-16
vn -3.4694469519536136e-17 0.9990482215818576 0.04361938736533862
vn -4.163336342344336e-17 -0.9990482215818576 -0.04361938736533868
vn -1.3877787807814454e-16 -0.0436193873653361 0.9990482215818577
vn -1.1102230246251565e-16 0.04361938736533663 -0.9990482215818578
usemtl m_30d6369a-d66f-8a30-fbac-d9a35fb785f0
f 2/1/1 3/2/1 5/3/1 4/4/1
f 7/5/2 6/6/2 8/7/2 9/8/2
f 7/9/3 3/10/3 2/11/3 6/12/3
f 8/13/4 4/14/4 5/15/4 9/16/4
f 6/17/5 2/18/5 4/19/5 8/20/5
f 3/21/6 7/22/6 9/23/6 5/24/6
f 13/25/7 11/26/7 10/27/7 12/28/7
f 16/29/8 14/30/8 15/31/8 17/32/8
f 10/33/9 11/34/9 15/35/9 14/36/9
f 13/37/10 12/38/10 16/39/10 17/40/10
f 12/41/11 10/42/11 14/43/11 16/44/11
f 17/45/12 15/46/12 11/47/12 13/48/12
f 19/49/13 18/50/13 20/51/13 21/52/13
f 25/53/14 23/54/14 22/55/14 24/56/14
f 28/57/15 26/58/15 27/59/15 29/60/15
f 22/61/16 23/62/16 27/63/16 26/64/16
f 25/65/17 24/66/17 28/67/17 29/68/17
f 24/69/18 22/70/18 26/71/18 28/72/18
f 29/73/19 27/74/19 23/75/19 25/76/19
f 33/77/20 31/78/20 30/79/20 32/80/20
f 36/81/21 34/82/21 35/83/21 37/84/21
f 30/85/22 31/86/22 35/87/22 34/88/22
f 33/89/23 32/90/23 36/91/23 37/92/23
f 32/93/24 30/94/24 34/95/24 36/96/24
f 37/97/25 35/98/25 31/99/25 33/100/25
f 41/101/26 39/102/26 38/103/26 40/104/26
f 44/105/27 42/106/27 43/107/27 45/108/27
f 38/109/28 39/110/28 43/111/28 42/112/28
f 41/113/29 40/114/29 44/115/29 45/116/29
f 40/117/30 38/118/30 42/119/30 44/120/30
f 45/121/31 43/122/31 39/123/31 41/124/31
f 49/125/32 47/126/32 46/127/32 48/128/32
f 52/129/33 50/130/33 51/131/33 53/132/33
f 46/133/34 47/134/34 51/135/34 50/136/34
f 49/137/35 48/138/35 52/139/35 53/140/35
f 48/141/36 46/142/36 50/143/36 52/144/36
f 53/145/37 51/146/37 47/147/37 49/148/37
f 57/149/38 55/150/38 54/151/38 56/152/38
f 60/153/39 58/154/39 59/155/39 61/156/39
f 54/157/40 55/158/40 59/159/40 58/160/40
f 57/161/41 56/162/41 60/163/41 61/164/41
f 56/165/42 54/166/42 58/167/42 60/168/42
f 61/169/43 59/170/43 55/171/43 57/172/43
f 65/173/44 63/174/44 62/175/44 64/176/44
f 68/177/45 66/178/45 67/179/45 69/180/45
f 62/181/46 63/182/46 67/183/46 66/184/46
f 65/185/47 64/186/47 68/187/47 69/188/47
f 64/189/48 62/190/48 66/191/48 68/192/48
f 69/193/49 67/194/49 63/195/49 65/196/49
f 74/197/50 72/198/50 71/199/50 73/200/50
f 76/201/51 70/202/51 75/203/51 77/204/51
f 71/205/52 72/206/52 75/207/52 70/208/52
f 74/209/53 73/210/53 76/211/53 77/212/53
f 73/213/54 71/214/54 70/215/54 76/216/54
f 77/217/55 75/218/55 72/219/55 74/220/55
f 81/221/56 79/222/56 78/223/56 80/224/56
f 84/225/57 82/226/57 83/227/57 85/228/57
f 78/229/58 79/230/58 83/231/58 82/232/58
f 81/233/59 80/234/59 84/235/59 85/236/59
f 80/237/60 78/238/60 82/239/60 84/240/60
f 85/241/61 83/242/61 79/243/61 81/244/61
f 89/245/62 87/246/62 86/247/62 88/248/62
f 92/249/63 90/250/63 91/251/63 93/252/63
f 86/253/64 87/254/64 91/255/64 90/256/64
f 89/257/65 88/258/65 92/259/65 93/260/65
f 88/261/66 86/262/66 90/263/66 92/264/66
f 93/265/67 91/266/67 87/267/67 89/268/67
f 97/269/68 95/270/68 94/271/68 96/272/68
f 100/273/69 98/274/69 99/275/69 101/276/69
f 94/277/70 95/278/70 99/279/70 98/280/70
f 97/281/71 96/282/71 100/283/71 101/284/71
f 96/285/72 94/286/72 98/287/72 100/288/72
f 101/289/73 99/290/73 95/291/73 97/292/73
f 105/293/74 103/294/74 102/295/74 104/296/74
f 108/297/75 106/298/75 107/299/75 109/300/75
f 102/301/76 103/302/76 107/303/76 106/304/76
f 105/305/77 104/306/77 108/307/77 109/308/77
f 104/309/78 102/310/78 106/311/78 108/312/78
f 109/313/79 107/314/79 103/315/79 105/316/79
f 113/317/80 111/318/80 110/319/80 112/320/80
f 116/321/81 114/322/81 115/323/81 117/324/81
f 110/325/82 111/326/82 115/327/82 114/328/82
f 113/329/83 112/330/83 116/331/83 117/332/83
f 112/333/84 110/334/84 114/335/84 116/336/84
f 117/337/85 115/338/85 111/339/85 113/340/85
f 121/341/86 119/342/86 118/343/86 120/344/86
f 124/345/87 122/346/87 123/347/87 125/348/87
f 118/349/88 119/350/88 123/351/88 122/352/88
f 121/353/89 120/354/89 124/355/89 125/356/89
f 120/357/90 118/358/90 122/359/90 124/360/90
f 125/361/91 123/362/91 119/363/91 121/364/91
f 129/365/92 127/366/92 126/367/92 128/368/92
f 132/369/93 130/370/93 131/371/93 133/372/93
f 126/373/94 127/374/94 131/375/94 130/376/94
f 129/377/95 128/378/95 132/379/95 133/380/95
f 128/381/96 126/382/96 130/383/96 132/384/96
f 133/385/97 131/386/97 127/387/97 129/388/97
f 137/389/98 135/390/98 134/391/98 136/392/98
f 140/393/99 138/394/99 139/395/99 141/396/99
f 134/397/100 135/398/100 139/399/100 138/400/100
f 137/401/101 136/402/101 140/403/101 141/404/101
f 136/405/102 134/406/102 138/407/102 140/408/102
f 141/409/103 139/410/103 135/411/103 137/412/103
f 145/413/104 143/414/104 142/415/104 144/416/104
f 148/417/105 146/418/105 147/419/105 149/420/105
f 142/421/106 143/422/106 147/423/106 146/424/106
f 145/425/107 144/426/107 148/427/107 149/428/107
f 144/429/108 142/430/108 146/431/108 148/432/108
f 149/433/109 147/434/109 143/435/109 145/436/109
f 153/437/110 151/438/110 150/439/110 152/440/110
f 156/441/111 154/442/111 155/443/111 157/444/111
f 150/445/112 151/446/112 155/447/112 154/448/112
f 153/449/113 152/450/113 156/451/113 157/452/113
f 152/453/114 150/454/114 154/455/114 156/456/114
f 157/457/115 155/458/115 151/459/115 153/460/115
f 161/461/116 159/462/116 158/463/116 160/464/116
f 164/465/117 162/466/117 163/467/117 165/468/117
f 158/469/118 159/470/118 163/471/118 162/472/118
f 161/473/119 160/474/119 164/475/119 165/476/119
f 160/477/120 158/478/120 162/479/120 164/480/120
f 165/481/121 163/482/121 159/483/121 161/484/121
f 169/485/122 167/486/122 166/487/122 168/488/122
f 172/489/123 170/490/123 171/491/123 173/492/123
f 166/493/124 167/494/124 171/495/124 170/496/124
f 169/497/125 168/498/125 172/499/125 173/500/125
f 168/501/126 166/502/126 170/503/126 172/504/126
f 173/505/127 171/506/127 167/507/127 169/508/127
f 177/509/128 175/510/128 174/511/128 176/512/128
f 180/513/129 178/514/129 179/515/129 181/516/129
f 174/517/130 175/518/130 179/519/130 178/520/130
f 177/521/131 176/522/131 180/523/131 181/524/131
f 176/525/132 174/526/132 178/527/132 180/528/132
f 181/529/133 179/530/133 175/531/133 177/532/133
f 185/533/134 183/534/134 182/535/134 184/536/134
f 188/537/135 186/538/135 187/539/135 189/540/135
f 182/541/136 183/542/136 187/543/136 186/544/136
f 185/545/137 184/546/137 188/547/137 189/548/137
f 184/549/138 182/550/138 186/551/138 188/552/138
f 189/553/139 187/554/139 183/555/139 185/556/139
f 193/557/140 191/558/140 190/559/140 192/560/140
f 196/561/141 194/562/141 195/563/141 197/564/141
f 190/565/142 191/566/142 195/567/142 194/568/142
f 193/569/143 192/570/143 196/571/143 197/572/143
f 192/573/144 190/574/144 194/575/144 196/576/144
f 197/577/145 195/578/145 191/579/145 193/580/145
f 201/581/146 199/582/146 198/583/146 200/584/146
f 204/585/147 202/586/147 203/587/147 205/588/147
f 198/589/148 199/590/148 203/591/148 202/592/148
f 201/593/149 200/594/149 204/595/149 205/596/149
f 200/597/150 198/598/150 202/599/150 204/600/150
f 205/601/151 203/602/151 199/603/151 201/604/151
f 208/605/152 207/606/152 206/607/152 1/608/152
f 211/609/153 209/610/153 210/611/153 212/612/153
f 206/613/154 207/614/154 210/615/154 209/616/154
f 208/617/155 1/618/155 211/619/155 212/620/155
f 1/621/156 206/622/156 209/623/156 211/624/156
f 212/625/157 210/626/157 207/627/157 208/628/157
f 216/629/158 214/630/158 213/631/158 215/632/158
f 219/633/159 217/634/159 218/635/159 220/636/159
f 213/637/160 214/638/160 218/639/160 217/640/160
f 216/641/161 215/642/161 219/643/161 220/644/161
f 215/645/162 213/646/162 217/647/162 219/648/162
f 220/649/163 218/650/163 214/651/163 216/652/163
f 224/653/164 222/654/164 221/655/164 223/656/164
f 227/657/165 225/658/165 226/659/165 228/660/165
f 221/661/166 222/662/166 226/663/166 225/664/166
f 224/665/167 223/666/167 227/667/167 228/668/167
f 223/669/168 221/670/168 225/671/168 227/672/168
f 228/673/169 226/674/169 222/675/169 224/676/169
f 232/677/170 230/678/170 229/679/170 231/680/170
f 235/681/171 233/682/171 234/683/171 236/684/171
f 229/685/172 230/686/172 234/687/172 233/688/172
f 232/689/173 231/690/173 235/691/173 236/692/173
f 231/693/174 229/694/174 233/695/174 235/696/174
f 236/697/175 234/698/175 230/699/175 232/700/175
f 240/701/176 238/702/176 237/703/176 239/704/176
f 243/705/177 241/706/177 242/707/177 244/708/177
f 237/709/178 238/710/178 242/711/178 241/712/178
f 240/713/179 239/714/179 243/715/179 244/716/179
f 239/717/180 237/718/180 241/719/180 243/720/180
f 244/721/181 242/722/181 238/723/181 240/724/181
f 248/725/182 246/726/182 245/727/182 247/728/182
f 251/729/183 249/730/183 250/731/183 252/732/183
f 245/733/184 246/734/184 250/735/184 249/736/184
f 248/737/185 247/738/185 251/739/185 252/740/185
f 247/741/186 245/742/186 249/743/186 251/744/186
f 252/745/187 250/746/187 246/747/187 248/748/187
f 256/749/188 254/750/188 253/751/188 255/752/188
f 259/753/189 257/754/189 258/755/189 260/756/189
f 253/757/190 254/758/190 258/759/190 257/760/190
f 256/761/191 255/762/191 259/763/191 260/764/191
f 255/765/192 253/766/192 257/767/192 259/768/192
f 260/769/193 258/770/193 254/771/193 256/772/193
f 264/773/194 262/774/194 261/775/194 263/776/194
f 267/777/195 265/778/195 266/779/195 268/780/195
f 261/781/196 262/782/196 266/783/196 265/784/196
f 264/785/197 263/786/197 267/787/197 268/788/197
f 263/789/198 261/790/198 265/791/198 267/792/198
f 268/793/199 266/794/199 262/795/199 264/796/199
f 272/797/200 270/798/200 269/799/200 271/800/200
f 275/801/201 273/802/201 274/803/201 276/804/201
f 269/805/202 270/806/202 274/807/202 273/808/202
f 272/809/203 271/810/203 275/811/203 276/812/203
f 271/813/204 269/814/204 273/815/204 275/816/204
f 276/817/205 274/818/205 270/819/205 272/820/205
f 280/821/206 278/822/206 277/823/206 279/824/206
f 283/825/207 281/826/207 282/827/207 284/828/207
f 277/829/208 278/830/208 282/831/208 281/832/208
f 280/833/209 279/834/209 283/835/209 284/836/209
f 279/837/210 277/838/210 281/839/210 283/840/210
f 284/841/211 282/842/211 278/843/211 280/844/211
f 288/845/212 286/846/212 285/847/212 287/848/212
f 291/849/213 289/850/213 290/851/213 292/852/213
f 285/853/214 286/854/214 290/855/214 289/856/214
f 288/857/215 287/858/215 291/859/215 292/860/215
f 287/861/216 285/862/216 289/863/216 291/864/216
f 292/865/217 290/866/217 286/867/217 288/868/217
f 296/869/218 294/870/218 293/871/218 295/872/218
f 299/873/219 297/874/219 298/875/219 300/876/219
f 293/877/220 294/878/220 298/879/220 297/880/220
f 296/881/221 295/882/221 299/883/221 300/884/221
f 295/885/222 293/886/222 297/887/222 299/888/222
f 300/889/223 298/890/223 294/891/223 296/892/223
f 304/893/224 302/894/224 301/895/224 303/896/224
f 307/897/225 305/898/225 306/899/225 308/900/225
f 301/901/226 302/902/226 306/903/226 305/904/226
f 304/905/227 303/906/227 307/907/227 308/908/227
f 303/909/228 301/910/228 305/911/228 307/912/228
f 308/913/229 306/914/229 302/915/229 304/916/229
f 312/917/230 310/918/230 309/919/230 311/920/230
f 315/921/231 313/922/231 314/923/231 316/924/231
f 309/925/232 310/926/232 314/927/232 313/928/232
f 312/929/233 311/930/233 315/931/233 316/932/233
f 311/933/234 309/934/234 313/935/234 315/936/234
f 316/937/235 314/938/235 310/939/235 312/940/235
f 320/941/236 318/942/236 317/943/236 319/944/236
f 323/945/237 321/946/237 322/947/237 324/948/237
f 317/949/238 318/950/238 322/951/238 321/952/238
f 320/953/239 319/954/239 323/955/239 324/956/239
f 319/957/240 317/958/240 321/959/240 323/960/240
f 324/961/241 322/962/241 318/963/241 320/964/241
f 328/965/242 326/966/242 325/967/242 327/968/242
f 331/969/243 329/970/243 330/971/243 332/972/243
f 325/973/244 326/974/244 330/975/244 329/976/244
f 328/977/245 327/978/245 331/979/245 332/980/245
f 327/981/246 325/982/246 329/983/246 331/984/246
f 332/985/247 330/986/247 326/987/247 328/988/247
f 336/989/248 334/990/248 333/991/248 335/992/248
f 339/993/249 337/994/249 338/995/249 340/996/249
f 333/997/250 334/998/250 338/999/250 337/1000/250
f 336/1001/251 335/1002/251 339/1003/251 340/1004/251
f 335/1005/252 333/1006/252 337/1007/252 339/1008/252
f 340/1009/253 338/1010/253 334/1011/253 336/1012/253
f 344/1013/254 342/1014/254 341/1015/254 343/1016/254
f 347/1017/255 345/1018/255 346/1019/255 348/1020/255
f 341/1021/256 342/1022/256 346/1023/256 345/1024/256
f 344/1025/257 343/1026/257 347/1027/257 348/1028/257
f 343/1029/258 341/1030/258 345/1031/258 347/1032/258
f 348/1033/259 346/1034/259 342/1035/259 344/1036/259
f 352/1037/260 350/1038/260 349/1039/260 351/1040/260
f 355/1041/261 353/1042/261 354/1043/261 356/1044/261
f 349/1045/262 350/1046/262 354/1047/262 353/1048/262
f 352/1049/263 351/1050/263 355/1051/263 356/1052/263
f 351/1053/264 349/1054/264 353/1055/264 355/1056/264
f 356/1057/265 354/1058/265 350/1059/265 352/1060/265
f 360/1061/266 358/1062/266 357/1063/266 359/1064/266
f 363/1065/267 361/1066/267 362/1067/267 364/1068/267
f 357/1069/268 358/1070/268 362/1071/268 361/1072/268
f 360/1073/269 359/1074/269 363/1075/269 364/1076/269
f 359/1077/270 357/1078/270 361/1079/270 363/1080/270
f 364/1081/271 362/1082/271 358/1083/271 360/1084/271
f 368/1085/272 366/1086/272 365/1087/272 367/1088/272
f 371/1089/273 369/1090/273 370/1091/273 372/1092/273
f 365/1093/274 366/1094/274 370/1095/274 369/1096/274
f 368/1097/275 367/1098/275 371/1099/275 372/1100/275
f 367/1101/276 365/1102/276 369/1103/276 371/1104/276
f 372/1105/277 370/1106/277 366/1107/277 368/1108/277
f 376/1109/278 374/1110/278 373/1111/278 375/1112/278
f 379/1113/279 377/1114/279 378/1115/279 380/1116/279
f 373/1117/280 374/1118/280 378/1119/280 377/1120/280
f 376/1121/281 375/1122/281 379/1123/281 380/1124/281
f 375/1125/282 373/1126/282 377/1127/282 379/1128/282
f 380/1129/283 378/1130/283 374/1131/283 376/1132/283
f 384/1133/284 382/1134/284 381/1135/284 383/1136/284
f 387/1137/285 385/1138/285 386/1139/285 388/1140/285
f 381/1141/286 382/1142/286 386/1143/286 385/1144/286
f 384/1145/287 383/1146/287 387/1147/287 388/1148/287
f 383/1149/288 381/1150/288 385/1151/288 387/1152/288
f 388/1153/289 386/1154/289 382/1155/289 384/1156/289
