# Made in Blockbench 5.1.6
mtllib civilian.mtl

o plane
v 0.09375 1.532492375453208 -0.1820436760714465
v 0.09375 1.4247790274674978 -0.20103644550376704
v -0.09375 1.532492375453208 -0.1820436760714465
v -0.09375 1.4247790274674978 -0.20103644550376704
v 0.125 1.4584033081988566 -0.18129959844463434
v 0.125 1.4616592115301117 -0.1997647438136132
v 0.125 1.2737518545090674 -0.21385863175718378
v 0.125 1.2770077578403225 -0.23232377712616273
v -0.125 1.4584033081988566 -0.18129959844463434
v -0.125 1.4616592115301117 -0.1997647438136132
v -0.125 1.2737518545090674 -0.21385863175718378
v -0.125 1.2770077578403225 -0.23232377712616273
v 0.071875 1.1604070344838802 -0.17064671577969734
v 0.071875 1.1738853434320369 -0.31062430617508185
v -0.071875 1.1604070344838802 -0.17064671577969734
v -0.071875 1.1738853434320369 -0.31062430617508185
v 0.071875 1.1738850242291046 -0.3106240463344493
v 0.071875 1.03390743383372 -0.32410235528260595
v -0.071875 1.1738850242291046 -0.3106240463344493
v -0.071875 1.03390743383372 -0.32410235528260595
v -0.09375 1.1604070344838802 -0.17064671577969734
v -0.09375 1.1738853434320369 -0.31062430617508185
v -0.2375 1.1604070344838802 -0.17064671577969734
v -0.2375 1.1738853434320369 -0.31062430617508185
v -0.09375 1.1738850242291046 -0.3106240463344493
v -0.09375 1.03390743383372 -0.32410235528260595
v -0.2375 1.1738850242291046 -0.3106240463344493
v -0.2375 1.03390743383372 -0.32410235528260595
v 0.234375 1.1604070344838802 -0.17064671577969734
v 0.234375 1.1738853434320369 -0.31062430617508185
v 0.09062500000000001 1.1604070344838802 -0.17064671577969734
v 0.09062500000000001 1.1738853434320369 -0.31062430617508185
v 0.234375 1.1738850242291046 -0.3106240463344493
v 0.234375 1.03390743383372 -0.32410235528260595
v 0.09062500000000001 1.1738850242291046 -0.3106240463344493
v 0.09062500000000001 1.03390743383372 -0.32410235528260595
v 0.15625 1.342930867581672 -0.22495969274203081
v 0.15625 1.3432034887527053 -0.2312037441269174
v 0.15625 1.1868295829595068 -0.23177522201786452
v 0.15625 1.18710220413054 -0.23801927340275114
v -0.15625 1.342930867581672 -0.22495969274203081
v -0.15625 1.3432034887527053 -0.2312037441269174
v -0.15625 1.1868295829595068 -0.23177522201786452
v -0.15625 1.18710220413054 -0.23801927340275114
v 0.25 1.25 -0.16249999999999998
v 0.25 1.2500000000000002 -0.22499999999999998
v 0.25 0.8312500000000003 -0.1625
v 0.25 0.8312500000000003 -0.22499999999999998
v -0.25 1.25 -0.16249999999999998
v -0.25 1.2500000000000002 -0.22499999999999998
v -0.25 0.8312500000000003 -0.1625
v -0.25 0.8312500000000003 -0.22499999999999998
v 0.25 1.2500000000000002 0.21250000000000005
v 0.25 1.2500000000000002 0.15
v 0.25 0.8375000000000002 0.21250000000000005
v 0.25 0.8375000000000001 0.15000000000000005
v -0.25 1.2500000000000002 0.21250000000000005
v -0.25 1.2500000000000002 0.15
v -0.25 0.8375000000000002 0.21250000000000005
v -0.25 0.8375000000000001 0.15000000000000005
v 0.203125 1.4375 0.15000000000000005
v 0.203125 1.4375000000000002 0.10625000000000004
v 0.203125 0.9000000000000001 0.15
v 0.203125 0.9000000000000001 0.10625000000000004
v -0.203125 1.4375 0.15000000000000005
v -0.203125 1.4375000000000002 0.10625000000000004
v -0.203125 0.9000000000000001 0.15
v -0.203125 0.9000000000000001 0.10625000000000004
v 0.203125 1.403450889832985 -0.1115140859314209
v 0.203125 1.40519586466811 -0.1614836272823757
v 0.203125 0.8975092836545675 -0.12918195613706196
v 0.203125 0.8992542584896926 -0.1791514974880168
v -0.203125 1.403450889832985 -0.1115140859314209
v -0.203125 1.40519586466811 -0.1614836272823757
v -0.203125 0.8975092836545675 -0.12918195613706196
v -0.203125 0.8992542584896926 -0.1791514974880168
v 0.25 1.4710066607504624 -0.11334264935111377
v 0.25 1.4840011414265724 -0.17447687439697662
v 0.25 1.2356398943238902 -0.16337139995413708
v 0.25 1.2486343750000004 -0.22450562499999996
v -0.25 1.4710066607504624 -0.11334264935111377
v -0.25 1.4840011414265724 -0.17447687439697662
v -0.25 1.2356398943238902 -0.16337139995413708
v -0.25 1.2486343750000004 -0.22450562499999996
v 0.25 1.5397938190587077 0.189662141939803
v 0.25 1.5354340394496997 0.12731438879856397
v 0.25 1.2405246039807605 0.21058908406304058
v 0.25 1.2361648243717527 0.1482413309218016
v -0.25 1.5397938190587077 0.189662141939803
v -0.25 1.5354340394496997 0.12731438879856397
v -0.25 1.2405246039807605 0.21058908406304058
v -0.25 1.2361648243717527 0.1482413309218016
v -0.21031636856028352 1.586431294280851 0.1610838403205432
v -0.20596536234547524 1.582943259426224 0.11139578986802887
v -0.11060844372331974 1.2394876489843032 0.19416989044819186
v -0.10625743750851147 1.235999614129676 0.14448183999567757
v -0.34795438542152135 1.5459968976534375 0.1518698084190012
v -0.34360337920671313 1.5425088627988104 0.1021817579664869
v -0.24824646058455763 1.1990532523568898 0.18495585854664978
v -0.24389545436974935 1.1955652175022626 0.13526780809413555
v -0.21600336458145303 1.6073169544796153 0.056874688021159664
v -0.1979733412947972 1.5488380880304145 0.044170734341332646
v -0.21628327812123455 1.5860057790293187 0.15457707002557577
v -0.1982532548345787 1.527526912580118 0.14187311634574876
v -0.3416728400120074 1.5703985299844052 0.04846187768211338
v -0.3236428167253515 1.5119196635352044 0.035757924002286307
v -0.34195275355178884 1.5490873545341086 0.14616425968652944
v -0.323922730265133 1.4906084880849078 0.13346030600670247
v -0.1999886732187325 1.5472475821770995 0.07251354216605935
v -0.2159192273000159 1.606304355139166 0.0596774596651464
v -0.17527559445665997 1.5141612786536762 -0.110382084510074
v -0.19120614853794335 1.573218051615743 -0.12321816701098694
v -0.3257190222656272 1.5110620869309377 0.0620707569850831
v -0.3416495763469106 1.5701188598930043 0.049234674484170154
v -0.3010059435035547 1.4779757834075147 -0.12082486969105022
v -0.31693649758483805 1.537032556369581 -0.13366095219196322
v -0.1860340519241504 1.567187154750744 -0.08604003054052198
v -0.1850832386863247 1.5762334965330544 -0.12883398051647538
v -0.060853990674432895 1.1564879024751773 -0.17007767951886532
v -0.05990317743660717 1.1655342442574876 -0.21287162949481872
v -0.32373872480659477 1.527555468576179 -0.09747746982122621
v -0.322787911568769 1.5366018103584893 -0.14027141979717966
v -0.19855866355687724 1.1168562163006122 -0.1815151187995696
v -0.1976078503190515 1.1259025580829225 -0.22430906877552304
v 0.34795438542152135 1.5459968976534375 0.1518698084190012
v 0.34360337920671313 1.5425088627988104 0.1021817579664869
v 0.24824646058455763 1.1990532523568898 0.18495585854664978
v 0.24389545436974935 1.1955652175022626 0.13526780809413555
v 0.21031636856028352 1.586431294280851 0.1610838403205432
v 0.20596536234547524 1.582943259426224 0.11139578986802887
v 0.11060844372331974 1.2394876489843032 0.19416989044819186
v 0.10625743750851147 1.235999614129676 0.14448183999567757
v 0.3416728400120074 1.5703985299844052 0.04846187768211338
v 0.3236428167253515 1.5119196635352044 0.035757924002286307
v 0.34195275355178884 1.5490873545341086 0.14616425968652944
v 0.323922730265133 1.4906084880849078 0.13346030600670247
v 0.21600336458145303 1.6073169544796153 0.056874688021159664
v 0.1979733412947972 1.5488380880304145 0.044170734341332646
v 0.21628327812123455 1.5860057790293187 0.15457707002557577
v 0.1982532548345787 1.527526912580118 0.14187311634574876
v 0.3257190222656272 1.5110620869309377 0.0620707569850831
v 0.3416495763469106 1.5701188598930043 0.049234674484170154
v 0.3010059435035547 1.4779757834075147 -0.12082486969105022
v 0.31693649758483805 1.537032556369581 -0.13366095219196322
v 0.1999886732187325 1.5472475821770995 0.07251354216605935
v 0.2159192273000159 1.606304355139166 0.0596774596651464
v 0.17527559445665997 1.5141612786536762 -0.110382084510074
v 0.19120614853794335 1.573218051615743 -0.12321816701098694
v 0.32373872480659477 1.527555468576179 -0.09747746982122621
v 0.322787911568769 1.5366018103584893 -0.14027141979717966
v 0.19855866355687724 1.1168562163006122 -0.1815151187995696
v 0.1976078503190515 1.1259025580829225 -0.22430906877552304
v 0.1860340519241504 1.567187154750744 -0.08604003054052198
v 0.1850832386863247 1.5762334965330544 -0.12883398051647538
v 0.060853990674432895 1.1564879024751773 -0.17007767951886532
v 0.05990317743660717 1.1655342442574876 -0.21287162949481872
v -0.27723616960864317 1.1250000000000004 0.10193584315367052
v -0.2502723616960864 1.1250000000000002 -0.20626189156846325
v -0.27723616960864317 0.8312500000000003 0.10193584315367046
v -0.2502723616960864 0.8312500000000003 -0.20626189156846325
v -0.3145934707870836 1.1250000000000004 0.09866750280063333
v -0.28762966287452685 1.1250000000000002 -0.20953023192150041
v -0.3145934707870836 0.8312500000000003 0.09866750280063333
v -0.28762966287452685 0.8312500000000004 -0.20953023192150044
v 0.3145934707870836 1.1250000000000004 0.09866750280063333
v 0.28762966287452685 1.1250000000000002 -0.20953023192150041
v 0.3145934707870836 0.8312500000000003 0.09866750280063333
v 0.28762966287452685 0.8312500000000004 -0.20953023192150044
v 0.27723616960864317 1.1250000000000004 0.10193584315367052
v 0.2502723616960864 1.1250000000000002 -0.20626189156846325
v 0.27723616960864317 0.8312500000000003 0.10193584315367046
v 0.2502723616960864 0.8312500000000003 -0.20626189156846325
v -0.21655260636174328 1.1250000000000002 0.19011494854229974
v -0.279644375 1.1250000000000004 0.07860062500000006
v -0.21655260636174328 0.8312500000000003 0.19011494854229968
v -0.279644375 0.8312500000000003 0.07860062500000001
v -0.2491909449594895 1.1250000000000002 0.20858083204617964
v -0.31228271359774623 1.1250000000000002 0.09706650850388007
v -0.2491909449594895 0.8312500000000003 0.20858083204617975
v -0.31228271359774623 0.8312500000000003 0.09706650850388013
v 0.2491909449594895 1.1250000000000002 0.20858083204617964
v 0.31228271359774623 1.1250000000000002 0.09706650850388007
v 0.2491909449594895 0.8312500000000003 0.20858083204617975
v 0.31228271359774623 0.8312500000000003 0.09706650850388013
v 0.21655260636174328 1.1250000000000002 0.19011494854229974
v 0.279644375 1.1250000000000004 0.07860062500000006
v 0.21655260636174328 0.8312500000000003 0.19011494854229968
v 0.279644375 0.8312500000000003 0.07860062500000001
v -0.221875 1.0937500000000002 0.15000000000000005
v -0.221875 1.09375 -0.16250000000000003
v -0.221875 0.9062500000000002 0.15000000000000005
v -0.221875 0.9062500000000002 -0.16249999999999998
v -0.278125 1.0937500000000002 0.15000000000000005
v -0.278125 1.09375 -0.16250000000000003
v -0.278125 0.9062500000000002 0.15000000000000005
v -0.278125 0.9062500000000002 -0.16249999999999998
v 0.278125 1.0937500000000002 0.15000000000000005
v 0.278125 1.09375 -0.16250000000000003
v 0.278125 0.9062500000000002 0.15000000000000005
v 0.278125 0.9062500000000002 -0.16249999999999998
v 0.221875 1.0937500000000002 0.15000000000000005
v 0.221875 1.09375 -0.16250000000000003
v 0.221875 0.9062500000000002 0.15000000000000005
v 0.221875 0.9062500000000002 -0.16249999999999998
v 0.077428125 1.1553765137532206 -0.18039278554450497
v 0.077428125 1.1597389508410334 -0.3053166389218919
v 0.077428125 0.8430668803097534 -0.19129887826403652
v 0.077428125 0.847429317397566 -0.31622273164142345
v -0.07882187500000001 1.1553765137532206 -0.18039278554450497
v -0.07882187500000001 1.1597389508410334 -0.3053166389218919
v -0.07882187500000001 0.8430668803097534 -0.19129887826403652
v -0.07882187500000001 0.847429317397566 -0.31622273164142345
v -0.085071875 1.1559068720148151 -0.17732291748005335
v -0.085071875 1.1591789905532992 -0.302280083101998
v -0.085071875 0.8435139579599534 -0.18550321382626367
v -0.085071875 0.8467860764984376 -0.31046037944820837
v -0.24132187500000002 1.1559068720148151 -0.17732291748005335
v -0.24132187500000002 1.1591789905532992 -0.302280083101998
v -0.24132187500000002 0.8435139579599534 -0.18550321382626367
v -0.24132187500000002 0.8467860764984376 -0.31046037944820837
v 0.24132187500000005 1.1559068720148151 -0.17732291748005335
v 0.24132187500000005 1.1591789905532992 -0.302280083101998
v 0.24132187500000005 0.8435139579599534 -0.18550321382626367
v 0.24132187500000005 0.8467860764984376 -0.31046037944820837
v 0.08507187500000003 1.1559068720148151 -0.17732291748005335
v 0.08507187500000003 1.1591789905532992 -0.302280083101998
v 0.08507187500000003 0.8435139579599534 -0.18550321382626367
v 0.08507187500000003 0.8467860764984376 -0.31046037944820837
v -0.13103012535388545 1.0127181473556952 -0.31012382619956225
v -0.13158496382146348 1.009978341952524 -0.3600456212456906
v -0.1313276262333718 0.8754252600017363 -0.30258561850543314
v -0.13188246470094986 0.8726854545985647 -0.35250741355156157
v -0.18102692976076643 1.012856578377783 -0.30957575143074934
v -0.18158176822834446 1.0101167729746114 -0.35949754647687776
v -0.18132443064025278 0.8755636910238238 -0.30203754373662034
v -0.18187926910783084 0.8728238856206525 -0.35195933878274877
v 0.18144990218912074 1.0118529534676473 -0.3135492935046426
v 0.1808950637215427 1.0091131480644755 -0.36347108855077104
v 0.1811524013096344 0.8745600661136881 -0.30601108581051356
v 0.18059756284205633 0.8718202607105168 -0.35593288085664204
v 0.13145309778223976 1.0119913844897348 -0.3130012187358297
v 0.13089825931466173 1.0092515790865635 -0.36292301378195824
v 0.1311555969027534 0.8746984971357759 -0.3054630110417007
v 0.13060075843517535 0.8719586917326044 -0.3553848060878292
v 0.1189538966805195 1.0120259922452568 -0.3128642000436266
v 0.11839905821294147 1.0092861868420855 -0.36278599508975495
v 0.11865639580103314 0.8747331048912979 -0.3053259923494975
v 0.1181015573334551 0.8719932994881264 -0.3552477873956259
v 0.06895709227363853 1.0121644232673446 -0.31231612527481367
v 0.06840225380606049 1.009424617864173 -0.36223792032094215
v 0.06865959139415216 0.8748715359133855 -0.3047779175806847
v 0.06810475292657413 0.8721317305102141 -0.3546997126268131
v 0.05645789117191828 1.0121990310228663 -0.3121791065826105
v 0.05590305270434024 1.009459225619695 -0.362100901628739
v 0.05616039029243191 0.8749061436689074 -0.30464089888848145
v 0.05560555182485387 0.8721663382657359 -0.3545626939346099
v 0.006461086765037285 1.0123374620449541 -0.3116310318137976
v 0.0059062482974592476 1.0095976566417826 -0.36155282685992607
v 0.0061635858855509165 0.8750445746909951 -0.30409282411966854
v 0.005608747417972879 0.8723047692878235 -0.35401461916579696
v -0.00603811433668296 1.0123720698004761 -0.3114940131215944
v -0.006592952804260997 1.0096322643973046 -0.36141580816772273
v -0.006335615216169328 0.875079182446517 -0.3039558054274653
v -0.0068904536837473655 0.8723393770433456 -0.3538776004735938
v -0.05603491874356395 1.0125105008225637 -0.3109459383527815
v -0.05658975721114199 1.0097706954193924 -0.36086773339891
v -0.05633241962305032 0.8752176134686047 -0.3034077306586525
v -0.05688725809062836 0.8724778080654334 -0.35332952570478093
v -0.06853411984528421 1.0125451085780857 -0.3108089196605783
v -0.06908895831286224 1.0098053031749141 -0.3607307147067067
v -0.06883162072477057 0.8752522212241267 -0.3032707119664492
v -0.0693864591923486 0.8725124158209552 -0.35319250701257765
v -0.11853092425216519 1.0126835396001732 -0.3102608448917654
v -0.11908576271974322 1.009943734197002 -0.36018263993789384
v -0.11882842513165155 0.8753906522462143 -0.30272263719763637
v -0.11938326359922959 0.8726508468430427 -0.35264443224376485
v 0.19082604398761124 0.9809665443823207 -0.3056986041216361
v 0.1901324959031387 0.9775417876283564 -0.36810084792929654
v 0.19069081631511745 0.9185606864941575 -0.3022721460788501
v 0.1899972682306449 0.9151359297401932 -0.3646743898865107
v -0.19039958961485628 0.9820220809257393 -0.301519534009438
v -0.19109313769932884 0.9785973241717751 -0.36392177781709845
v -0.19053481728735008 0.919616223037576 -0.29809307596665197
v -0.19122836537182264 0.9161914662836119 -0.3604953197743125
v 0.128125 0.6555752755890057 -0.22019908635505742
v 0.128125 0.6710798768537122 -0.2742700567515879
v 0.128125 0.5954964195928609 -0.23742642109361986
v 0.128125 0.6110010208575671 -0.2914973914901503
v -0.121875 0.6555752755890057 -0.22019908635505742
v -0.121875 0.6710798768537122 -0.2742700567515879
v -0.121875 0.5954964195928609 -0.23742642109361986
v -0.121875 0.6110010208575671 -0.2914973914901503
v -0.0785691738241592 0.6388325206406704 -0.224999994081383
v -0.0785691738241592 0.6543371219053766 -0.27907096447791346
v -0.12276334764831842 0.5963503541598663 -0.23718155929679108
v -0.12276334764831842 0.6118549554245725 -0.29125252969332155
v -0.12276334764831844 0.6813146871214746 -0.21281842886597485
v -0.12276334764831844 0.6968192883861808 -0.2668893992625053
v -0.16695752147247767 0.6388325206406705 -0.22499999408138305
v -0.16695752147247767 0.6543371219053767 -0.27907096447791346
v 0.1714308261758408 0.6388325206406705 -0.22499999408138305
v 0.1714308261758408 0.6543371219053767 -0.27907096447791346
v 0.12723665235168158 0.5963503541598663 -0.23718155929679108
v 0.12723665235168158 0.6118549554245725 -0.29125252969332155
v 0.12723665235168158 0.6813146871214746 -0.21281842886597485
v 0.12723665235168158 0.6968192883861808 -0.2668893992625053
v 0.08304247852752236 0.6388325206406705 -0.22499999408138305
v 0.08304247852752236 0.6543371219053767 -0.27907096447791346
v 0.1705425 0.8190690679884352 -0.17331799578431262
v 0.1705425 0.8362964027269975 -0.2333968517804575
v 0.1705425 0.6388325000000004 -0.22499999999999992
v 0.1705425 0.6560598347385628 -0.2850788559961449
v -0.1669575 0.8190690679884352 -0.17331799578431262
v -0.1669575 0.8362964027269975 -0.2333968517804575
v -0.1669575 0.6388325000000004 -0.22499999999999992
v -0.1669575 0.6560598347385628 -0.2850788559961449
v 0.1080425 0.7834524377592123 -0.18515636802735375
v 0.1080425 0.8024025059716309 -0.25124310962311314
v 0.1080425 0.6632947257669223 -0.21961103750447866
v 0.1080425 0.682244793979341 -0.2856977791002381
v -0.1044575 0.7834524377592123 -0.18515636802735375
v -0.1044575 0.8024025059716309 -0.25124310962311314
v -0.1044575 0.6632947257669223 -0.21961103750447866
v -0.1044575 0.682244793979341 -0.2856977791002381
vt 0.1875 0.28515625
vt 0.1875 0.3125
vt 0.140625 0.3125
vt 0.140625 0.28515625
vt 0.41015625 0.046875
vt 0.41015625 0.09375
vt 0.40625 0.09375
vt 0.40625 0.046875
vt 0.91015625 0.546875
vt 0.91015625 0.59375
vt 0.90625 0.59375
vt 0.90625 0.546875
vt 0.953125 0.69921875
vt 0.953125 0.703125
vt 0.890625 0.703125
vt 0.890625 0.69921875
vt 0.953125 0.46484375
vt 0.953125 0.46875
vt 0.890625 0.46875
vt 0.890625 0.46484375
vt 0.65625 0.890625
vt 0.65625 0.9375
vt 0.59375 0.9375
vt 0.59375 0.890625
vt 0.65625 0.828125
vt 0.65625 0.875
vt 0.59375 0.875
vt 0.59375 0.828125
vt 0.06640625 0.26171875
vt 0.06640625 0.296875
vt 0.03125 0.296875
vt 0.03125 0.26171875
vt 0.75390625 0.90234375
vt 0.75390625 0.9375
vt 0.71875 0.9375
vt 0.71875 0.90234375
vt 0.75390625 0.83984375
vt 0.75390625 0.875
vt 0.71875 0.875
vt 0.71875 0.83984375
vt 0.75390625 0.77734375
vt 0.75390625 0.8125
vt 0.71875 0.8125
vt 0.71875 0.77734375
vt 0.37890625 0.24609375
vt 0.37890625 0.28125
vt 0.34375 0.28125
vt 0.34375 0.24609375
vt 0.44140625 0.24609375
vt 0.44140625 0.28125
vt 0.40625 0.28125
vt 0.40625 0.24609375
vt 0.44140625 0.09375
vt 0.4375 0.09375
vt 0.4375 0.0546875
vt 0.44140625 0.0546875
vt 0.91015625 0.4921875
vt 0.91015625 0.53125
vt 0.90625 0.53125
vt 0.90625 0.4921875
vt 0.859375 0.65234375
vt 0.9375 0.65234375
vt 0.9375 0.65625
vt 0.859375 0.65625
vt 0.953125 0.27734375
vt 0.953125 0.28125
vt 0.875 0.28125
vt 0.875 0.27734375
vt 0.609375 0.9609375
vt 0.609375 1
vt 0.53125 1
vt 0.53125 0.9609375
vt 0.578125 0.421875
vt 0.5 0.421875
vt 0.5 0.3828125
vt 0.578125 0.3828125
vt 0.234375 0.25390625
vt 0.234375 0.359375
vt 0.21875 0.359375
vt 0.21875 0.25390625
vt 0.5 0.25390625
vt 0.5 0.359375
vt 0.484375 0.359375
vt 0.484375 0.25390625
vt 0.625 1
vt 0.625 0.984375
vt 0.75 0.984375
vt 0.75 1
vt 0.625 0.953125
vt 0.625 0.96875
vt 0.75 0.96875
vt 0.75 0.953125
vt 0.265625 0.73828125
vt 0.265625 0.84375
vt 0.140625 0.84375
vt 0.140625 0.73828125
vt 0.125 0.73828125
vt 0.125 0.84375
vt 0 0.84375
vt 0 0.73828125
vt 0.53125 0.2578125
vt 0.53125 0.359375
vt 0.515625 0.359375
vt 0.515625 0.2578125
vt 0.65625 0.3828125
vt 0.65625 0.484375
vt 0.640625 0.484375
vt 0.640625 0.3828125
vt 0.625 0.71875
vt 0.625 0.703125
vt 0.75 0.703125
vt 0.75 0.71875
vt 0.625 0.671875
vt 0.625 0.6875
vt 0.75 0.6875
vt 0.75 0.671875
vt 0.125 0.6171875
vt 0.125 0.71875
vt 0 0.71875
vt 0 0.6171875
vt 0.375 0.8984375
vt 0.375 1
vt 0.25 1
vt 0.25 0.8984375
vt 0.55859375 0.2265625
vt 0.55859375 0.359375
vt 0.546875 0.359375
vt 0.546875 0.2265625
vt 0.58984375 0.2265625
vt 0.58984375 0.359375
vt 0.578125 0.359375
vt 0.578125 0.2265625
vt 0.765625 0.71875
vt 0.765625 0.70703125
vt 0.8671875 0.70703125
vt 0.8671875 0.71875
vt 0.765625 0.67578125
vt 0.765625 0.6875
vt 0.8671875 0.6875
vt 0.8671875 0.67578125
vt 0.2265625 0.8671875
vt 0.2265625 1
vt 0.125 1
vt 0.125 0.8671875
vt 0.1015625 0.8671875
vt 0.1015625 1
vt 0 1
vt 0 0.8671875
vt 0.62109375 0.234375
vt 0.62109375 0.359375
vt 0.609375 0.359375
vt 0.609375 0.234375
vt 0.65234375 0.234375
vt 0.65234375 0.359375
vt 0.640625 0.359375
vt 0.640625 0.234375
vt 0.78125 0.953125
vt 0.78125 0.94140625
vt 0.8828125 0.94140625
vt 0.8828125 0.953125
vt 0.78125 0.91015625
vt 0.78125 0.921875
vt 0.8828125 0.921875
vt 0.8828125 0.91015625
vt 0.2421875 0.59375
vt 0.2421875 0.71875
vt 0.140625 0.71875
vt 0.140625 0.59375
vt 0.3828125 0.75
vt 0.3828125 0.875
vt 0.28125 0.875
vt 0.28125 0.75
vt 0.609375 0.75390625
vt 0.609375 0.8125
vt 0.59375 0.8125
vt 0.59375 0.75390625
vt 0.796875 0.56640625
vt 0.796875 0.625
vt 0.78125 0.625
vt 0.78125 0.56640625
vt 0.640625 0.65625
vt 0.640625 0.640625
vt 0.765625 0.640625
vt 0.765625 0.65625
vt 0.640625 0.609375
vt 0.640625 0.625
vt 0.765625 0.625
vt 0.765625 0.609375
vt 0.125 0.53515625
vt 0.125 0.59375
vt 0 0.59375
vt 0 0.53515625
vt 0.515625 0.94140625
vt 0.515625 1
vt 0.390625 1
vt 0.390625 0.94140625
vt 0.203125 0.19140625
vt 0.203125 0.265625
vt 0.1875 0.265625
vt 0.1875 0.19140625
vt 0.234375 0.16015625
vt 0.234375 0.234375
vt 0.21875 0.234375
vt 0.21875 0.16015625
vt 0.640625 0.59375
vt 0.640625 0.578125
vt 0.765625 0.578125
vt 0.765625 0.59375
vt 0.640625 0.546875
vt 0.640625 0.5625
vt 0.765625 0.5625
vt 0.765625 0.546875
vt 0.390625 0.55078125
vt 0.390625 0.625
vt 0.265625 0.625
vt 0.265625 0.55078125
vt 0.390625 0.64453125
vt 0.390625 0.71875
vt 0.265625 0.71875
vt 0.265625 0.64453125
vt 0.48046875 0.14453125
vt 0.48046875 0.234375
vt 0.46875 0.234375
vt 0.46875 0.14453125
vt 0.51171875 0.14453125
vt 0.51171875 0.234375
vt 0.5 0.234375
vt 0.5 0.14453125
vt 0.828125 0.203125
vt 0.828125 0.19140625
vt 0.86328125 0.19140625
vt 0.86328125 0.203125
vt 0.828125 0.16015625
vt 0.828125 0.171875
vt 0.86328125 0.171875
vt 0.86328125 0.16015625
vt 0.41015625 0.39453125
vt 0.41015625 0.484375
vt 0.375 0.484375
vt 0.375 0.39453125
vt 0.53515625 0.64453125
vt 0.53515625 0.734375
vt 0.5 0.734375
vt 0.5 0.64453125
vt 0.875 0.2265625
vt 0.875 0.25
vt 0.859375 0.25
vt 0.859375 0.2265625
vt 0.890625 0.9765625
vt 0.890625 1
vt 0.875 1
vt 0.875 0.9765625
vt 0.828125 1
vt 0.828125 0.984375
vt 0.859375 0.984375
vt 0.859375 1
vt 0.15625 0.15625
vt 0.15625 0.171875
vt 0.1875 0.171875
vt 0.1875 0.15625
vt 0.8125 0.3515625
vt 0.8125 0.375
vt 0.78125 0.375
vt 0.78125 0.3515625
vt 0.640625 0.1953125
vt 0.640625 0.21875
vt 0.609375 0.21875
vt 0.609375 0.1953125
vt 0.234375 0.46875
vt 0.234375 0.515625
vt 0.21875 0.515625
vt 0.21875 0.46875
vt 0.671875 0.171875
vt 0.671875 0.21875
vt 0.65625 0.21875
vt 0.65625 0.171875
vt 0.59375 0.171875
vt 0.59375 0.15625
vt 0.625 0.15625
vt 0.625 0.171875
vt 0.828125 0.359375
vt 0.828125 0.375
vt 0.859375 0.375
vt 0.859375 0.359375
vt 0.703125 0.828125
vt 0.703125 0.875
vt 0.671875 0.875
vt 0.671875 0.828125
vt 0.703125 0.890625
vt 0.703125 0.9375
vt 0.671875 0.9375
vt 0.671875 0.890625
vt 0.26171875 0.203125
vt 0.26171875 0.3125
vt 0.25 0.3125
vt 0.25 0.203125
vt 0.29296875 0.203125
vt 0.29296875 0.3125
vt 0.28125 0.3125
vt 0.28125 0.203125
vt 0.84375 0.890625
vt 0.84375 0.87890625
vt 0.87890625 0.87890625
vt 0.87890625 0.890625
vt 0.84375 0.84765625
vt 0.84375 0.859375
vt 0.87890625 0.859375
vt 0.87890625 0.84765625
vt 0.34765625 0.421875
vt 0.34765625 0.53125
vt 0.3125 0.53125
vt 0.3125 0.421875
vt 0.28515625 0.421875
vt 0.28515625 0.53125
vt 0.25 0.53125
vt 0.25 0.421875
vt 0.79296875 0.80078125
vt 0.79296875 0.890625
vt 0.78125 0.890625
vt 0.78125 0.80078125
vt 0.35546875 0.12890625
vt 0.35546875 0.21875
vt 0.34375 0.21875
vt 0.34375 0.12890625
vt 0.84375 0.828125
vt 0.84375 0.81640625
vt 0.87890625 0.81640625
vt 0.87890625 0.828125
vt 0.84375 0.61328125
vt 0.84375 0.625
vt 0.87890625 0.625
vt 0.87890625 0.61328125
vt 0.47265625 0.39453125
vt 0.47265625 0.484375
vt 0.4375 0.484375
vt 0.4375 0.39453125
vt 0.55078125 0.53515625
vt 0.55078125 0.625
vt 0.515625 0.625
vt 0.515625 0.53515625
vt 0.90625 0.7734375
vt 0.90625 0.796875
vt 0.890625 0.796875
vt 0.890625 0.7734375
vt 0.90625 0.7265625
vt 0.90625 0.75
vt 0.890625 0.75
vt 0.890625 0.7265625
vt 0.828125 0.34375
vt 0.828125 0.328125
vt 0.859375 0.328125
vt 0.859375 0.34375
vt 0.6875 0.15625
vt 0.6875 0.171875
vt 0.71875 0.171875
vt 0.71875 0.15625
vt 0.71875 0.1953125
vt 0.71875 0.21875
vt 0.6875 0.21875
vt 0.6875 0.1953125
vt 0.8125 0.3046875
vt 0.8125 0.328125
vt 0.78125 0.328125
vt 0.78125 0.3046875
vt 0.75 0.171875
vt 0.75 0.21875
vt 0.734375 0.21875
vt 0.734375 0.171875
vt 0.78125 0.171875
vt 0.78125 0.21875
vt 0.765625 0.21875
vt 0.765625 0.171875
vt 0.828125 0.3125
vt 0.828125 0.296875
vt 0.859375 0.296875
vt 0.859375 0.3125
vt 0.828125 0.265625
vt 0.828125 0.28125
vt 0.859375 0.28125
vt 0.859375 0.265625
vt 0.703125 0.4375
vt 0.703125 0.484375
vt 0.671875 0.484375
vt 0.671875 0.4375
vt 0.703125 0.765625
vt 0.703125 0.8125
vt 0.671875 0.8125
vt 0.671875 0.765625
vt 0.32421875 0.203125
vt 0.32421875 0.3125
vt 0.3125 0.3125
vt 0.3125 0.203125
vt 0.01171875 0.1875
vt 0.01171875 0.296875
vt 0 0.296875
vt 0 0.1875
vt 0.84375 0.59375
vt 0.84375 0.58203125
vt 0.87890625 0.58203125
vt 0.87890625 0.59375
vt 0.84375 0.55078125
vt 0.84375 0.5625
vt 0.87890625 0.5625
vt 0.87890625 0.55078125
vt 0.09765625 0.40625
vt 0.09765625 0.515625
vt 0.0625 0.515625
vt 0.0625 0.40625
vt 0.03515625 0.40625
vt 0.03515625 0.515625
vt 0 0.515625
vt 0 0.40625
vt 0.484375 0.84765625
vt 0.484375 0.921875
vt 0.40625 0.921875
vt 0.40625 0.84765625
vt 0.484375 0.75390625
vt 0.484375 0.828125
vt 0.40625 0.828125
vt 0.40625 0.75390625
vt 0.8125 0.890625
vt 0.8125 0.8125
vt 0.8203125 0.8125
vt 0.8203125 0.890625
vt 0.25 0.109375
vt 0.25 0.1875
vt 0.2578125 0.1875
vt 0.2578125 0.109375
vt 0.8203125 0.55078125
vt 0.8203125 0.625
vt 0.8125 0.625
vt 0.8125 0.55078125
vt 0.3828125 0.11328125
vt 0.3828125 0.1875
vt 0.375 0.1875
vt 0.375 0.11328125
vt 0.484375 0.66015625
vt 0.484375 0.734375
vt 0.40625 0.734375
vt 0.40625 0.66015625
vt 0.484375 0.56640625
vt 0.484375 0.640625
vt 0.40625 0.640625
vt 0.40625 0.56640625
vt 0.28125 0.1875
vt 0.28125 0.109375
vt 0.2890625 0.109375
vt 0.2890625 0.1875
vt 0.3125 0.109375
vt 0.3125 0.1875
vt 0.3203125 0.1875
vt 0.3203125 0.109375
vt 0.4453125 0.11328125
vt 0.4453125 0.1875
vt 0.4375 0.1875
vt 0.4375 0.11328125
vt 0.4140625 0.11328125
vt 0.4140625 0.1875
vt 0.40625 0.1875
vt 0.40625 0.11328125
vt 0.375 0.30078125
vt 0.375 0.375
vt 0.34375 0.375
vt 0.34375 0.30078125
vt 0.421875 0.30078125
vt 0.421875 0.375
vt 0.390625 0.375
vt 0.390625 0.30078125
vt 0.34375 0.109375
vt 0.34375 0.078125
vt 0.3515625 0.078125
vt 0.3515625 0.109375
vt 0.890625 0.21875
vt 0.890625 0.25
vt 0.8984375 0.25
vt 0.8984375 0.21875
vt 0.0078125 0.09765625
vt 0.0078125 0.171875
vt 0 0.171875
vt 0 0.09765625
vt 0.8203125 0.45703125
vt 0.8203125 0.53125
vt 0.8125 0.53125
vt 0.8125 0.45703125
vt 0.46875 0.30078125
vt 0.46875 0.375
vt 0.4375 0.375
vt 0.4375 0.30078125
vt 0.125 0.28515625
vt 0.125 0.359375
vt 0.09375 0.359375
vt 0.09375 0.28515625
vt 0.890625 0.203125
vt 0.890625 0.171875
vt 0.8984375 0.171875
vt 0.8984375 0.203125
vt 0.890625 0.125
vt 0.890625 0.15625
vt 0.8984375 0.15625
vt 0.8984375 0.125
vt 0.1328125 0.09765625
vt 0.1328125 0.171875
vt 0.125 0.171875
vt 0.125 0.09765625
vt 0.1015625 0.09765625
vt 0.1015625 0.171875
vt 0.09375 0.171875
vt 0.09375 0.09765625
vt 0.203125 0.46875
vt 0.203125 0.515625
vt 0.125 0.515625
vt 0.125 0.46875
vt 0.578125 0.875
vt 0.578125 0.921875
vt 0.5 0.921875
vt 0.5 0.875
vt 0.71875 0.53125
vt 0.71875 0.453125
vt 0.734375 0.453125
vt 0.734375 0.53125
vt 0.09375 0.1875
vt 0.09375 0.265625
vt 0.109375 0.265625
vt 0.109375 0.1875
vt 0.578125 0.15625
vt 0.578125 0.203125
vt 0.5625 0.203125
vt 0.5625 0.15625
vt 0.546875 0.15625
vt 0.546875 0.203125
vt 0.53125 0.203125
vt 0.53125 0.15625
vt 0.578125 0.8125
vt 0.578125 0.859375
vt 0.5 0.859375
vt 0.5 0.8125
vt 0.578125 0.75
vt 0.578125 0.796875
vt 0.5 0.796875
vt 0.5 0.75
vt 0.125 0.265625
vt 0.125 0.1875
vt 0.140625 0.1875
vt 0.140625 0.265625
vt 0.15625 0.1875
vt 0.15625 0.265625
vt 0.171875 0.265625
vt 0.171875 0.1875
vt 0.8125 0.171875
vt 0.8125 0.21875
vt 0.796875 0.21875
vt 0.796875 0.171875
vt 0.8125 0.234375
vt 0.8125 0.28125
vt 0.796875 0.28125
vt 0.796875 0.234375
vt 0.28125 0.328125
vt 0.28125 0.40625
vt 0.25 0.40625
vt 0.25 0.328125
vt 0.328125 0.328125
vt 0.328125 0.40625
vt 0.296875 0.40625
vt 0.296875 0.328125
vt 0.671875 0.265625
vt 0.671875 0.234375
vt 0.7109375 0.234375
vt 0.7109375 0.265625
vt 0.734375 0.234375
vt 0.734375 0.265625
vt 0.7734375 0.265625
vt 0.7734375 0.234375
vt 0.1640625 0.375
vt 0.1640625 0.453125
vt 0.125 0.453125
vt 0.125 0.375
vt 0.5546875 0.4375
vt 0.5546875 0.515625
vt 0.515625 0.515625
vt 0.515625 0.4375
vt 0.625 0.375
vt 0.625 0.453125
vt 0.59375 0.453125
vt 0.59375 0.375
vt 0.03125 0.3125
vt 0.03125 0.390625
vt 0 0.390625
vt 0 0.3125
vt 0.75 0.53125
vt 0.75 0.5
vt 0.7890625 0.5
vt 0.7890625 0.53125
vt 0.75 0.453125
vt 0.75 0.484375
vt 0.7890625 0.484375
vt 0.7890625 0.453125
vt 0.6015625 0.65625
vt 0.6015625 0.734375
vt 0.5625 0.734375
vt 0.5625 0.65625
vt 0.2265625 0.375
vt 0.2265625 0.453125
vt 0.1875 0.453125
vt 0.1875 0.375
vt 0.078125 0.3125
vt 0.078125 0.390625
vt 0.046875 0.390625
vt 0.046875 0.3125
vt 0.65625 0.734375
vt 0.65625 0.8125
vt 0.625 0.8125
vt 0.625 0.734375
vt 0.765625 1
vt 0.765625 0.96875
vt 0.8046875 0.96875
vt 0.8046875 1
vt 0.03125 0.203125
vt 0.03125 0.234375
vt 0.0703125 0.234375
vt 0.0703125 0.203125
vt 0.6171875 0.46875
vt 0.6171875 0.546875
vt 0.578125 0.546875
vt 0.578125 0.46875
vt 0.6171875 0.5625
vt 0.6171875 0.640625
vt 0.578125 0.640625
vt 0.578125 0.5625
vt 0.65234375 0.12109375
vt 0.65234375 0.15625
vt 0.640625 0.15625
vt 0.640625 0.12109375
vt 0.77734375 0.12109375
vt 0.77734375 0.15625
vt 0.765625 0.15625
vt 0.765625 0.12109375
vt 0.90625 0.40625
vt 0.90625 0.39453125
vt 0.91796875 0.39453125
vt 0.91796875 0.40625
vt 0.625 0.08203125
vt 0.625 0.09375
vt 0.63671875 0.09375
vt 0.63671875 0.08203125
vt 0.74609375 0.12109375
vt 0.74609375 0.15625
vt 0.734375 0.15625
vt 0.734375 0.12109375
vt 0.85546875 0.49609375
vt 0.85546875 0.53125
vt 0.84375 0.53125
vt 0.84375 0.49609375
vt 0.16796875 0.10546875
vt 0.16796875 0.140625
vt 0.15625 0.140625
vt 0.15625 0.10546875
vt 0.87109375 0.76171875
vt 0.87109375 0.796875
vt 0.859375 0.796875
vt 0.859375 0.76171875
vt 0.90625 0.375
vt 0.90625 0.36328125
vt 0.91796875 0.36328125
vt 0.91796875 0.375
vt 0.90625 0.33203125
vt 0.90625 0.34375
vt 0.91796875 0.34375
vt 0.91796875 0.33203125
vt 0.19921875 0.10546875
vt 0.19921875 0.140625
vt 0.1875 0.140625
vt 0.1875 0.10546875
vt 0.80859375 0.12109375
vt 0.80859375 0.15625
vt 0.796875 0.15625
vt 0.796875 0.12109375
vt 0.54296875 0.10546875
vt 0.54296875 0.140625
vt 0.53125 0.140625
vt 0.53125 0.10546875
vt 0.57421875 0.10546875
vt 0.57421875 0.140625
vt 0.5625 0.140625
vt 0.5625 0.10546875
vt 0.90625 0.3125
vt 0.90625 0.30078125
vt 0.91796875 0.30078125
vt 0.91796875 0.3125
vt 0.734375 0.08203125
vt 0.734375 0.09375
vt 0.74609375 0.09375
vt 0.74609375 0.08203125
vt 0.87109375 0.43359375
vt 0.87109375 0.46875
vt 0.859375 0.46875
vt 0.859375 0.43359375
vt 0.23046875 0.10546875
vt 0.23046875 0.140625
vt 0.21875 0.140625
vt 0.21875 0.10546875
vt 0.68359375 0.10546875
vt 0.68359375 0.140625
vt 0.671875 0.140625
vt 0.671875 0.10546875
vt 0.83984375 0.10546875
vt 0.83984375 0.140625
vt 0.828125 0.140625
vt 0.828125 0.10546875
vt 0.765625 0.09375
vt 0.765625 0.08203125
vt 0.77734375 0.08203125
vt 0.77734375 0.09375
vt 0.796875 0.08203125
vt 0.796875 0.09375
vt 0.80859375 0.09375
vt 0.80859375 0.08203125
vt 0.71484375 0.10546875
vt 0.71484375 0.140625
vt 0.703125 0.140625
vt 0.703125 0.10546875
vt 0.60546875 0.10546875
vt 0.60546875 0.140625
vt 0.59375 0.140625
vt 0.59375 0.10546875
vt 0.04296875 0.08984375
vt 0.04296875 0.125
vt 0.03125 0.125
vt 0.03125 0.08984375
vt 0.48046875 0.08984375
vt 0.48046875 0.125
vt 0.46875 0.125
vt 0.46875 0.08984375
vt 0 0.078125
vt 0 0.06640625
vt 0.01171875 0.06640625
vt 0.01171875 0.078125
vt 0.09375 0.06640625
vt 0.09375 0.078125
vt 0.10546875 0.078125
vt 0.10546875 0.06640625
vt 0.07421875 0.08984375
vt 0.07421875 0.125
vt 0.0625 0.125
vt 0.0625 0.08984375
vt 0.87109375 0.10546875
vt 0.87109375 0.140625
vt 0.859375 0.140625
vt 0.859375 0.10546875
vt 0.51171875 0.08984375
vt 0.51171875 0.125
vt 0.5 0.125
vt 0.5 0.08984375
vt 0.88671875 0.30859375
vt 0.88671875 0.34375
vt 0.875 0.34375
vt 0.875 0.30859375
vt 0.125 0.078125
vt 0.125 0.06640625
vt 0.13671875 0.06640625
vt 0.13671875 0.078125
vt 0.15625 0.06640625
vt 0.15625 0.078125
vt 0.16796875 0.078125
vt 0.16796875 0.06640625
vt 0.88671875 0.37109375
vt 0.88671875 0.40625
vt 0.875 0.40625
vt 0.875 0.37109375
vt 0.88671875 0.49609375
vt 0.88671875 0.53125
vt 0.875 0.53125
vt 0.875 0.49609375
vt 0.265625 0.859375
vt 0.265625 0.875
vt 0.25 0.875
vt 0.25 0.859375
vt 0.359375 0.390625
vt 0.359375 0.40625
vt 0.34375 0.40625
vt 0.34375 0.390625
vt 0.671875 0.390625
vt 0.671875 0.375
vt 0.765625 0.375
vt 0.765625 0.390625
vt 0.671875 0.34375
vt 0.671875 0.359375
vt 0.765625 0.359375
vt 0.765625 0.34375
vt 0.765625 0.40625
vt 0.765625 0.421875
vt 0.671875 0.421875
vt 0.671875 0.40625
vt 0.765625 0.734375
vt 0.765625 0.75
vt 0.671875 0.75
vt 0.671875 0.734375
vt 0.109375 0.375
vt 0.109375 0.390625
vt 0.09375 0.390625
vt 0.09375 0.375
vt 0.90625 0.421875
vt 0.90625 0.4375
vt 0.890625 0.4375
vt 0.890625 0.421875
vt 0.78125 0.65625
vt 0.78125 0.640625
vt 0.84375 0.640625
vt 0.84375 0.65625
vt 0.375 0.203125
vt 0.375 0.21875
vt 0.4375 0.21875
vt 0.4375 0.203125
vt 0.84375 0.734375
vt 0.84375 0.75
vt 0.78125 0.75
vt 0.78125 0.734375
vt 0.84375 0.765625
vt 0.84375 0.78125
vt 0.78125 0.78125
vt 0.78125 0.765625
vt 0.921875 0.984375
vt 0.921875 1
vt 0.90625 1
vt 0.90625 0.984375
vt 0.921875 0.921875
vt 0.921875 0.9375
vt 0.90625 0.9375
vt 0.90625 0.921875
vt 0.90625 0.90625
vt 0.90625 0.890625
vt 0.921875 0.890625
vt 0.921875 0.90625
vt 0.90625 0.859375
vt 0.90625 0.875
vt 0.921875 0.875
vt 0.921875 0.859375
vt 0.921875 0.953125
vt 0.921875 0.96875
vt 0.90625 0.96875
vt 0.90625 0.953125
vt 0.90625 0.09375
vt 0.90625 0.109375
vt 0.890625 0.109375
vt 0.890625 0.09375
vt 0.265625 0.078125
vt 0.265625 0.09375
vt 0.25 0.09375
vt 0.25 0.078125
vt 0.328125 0.078125
vt 0.328125 0.09375
vt 0.3125 0.09375
vt 0.3125 0.078125
vt 0.375 0.09375
vt 0.375 0.078125
vt 0.390625 0.078125
vt 0.390625 0.09375
vt 0.90625 0.609375
vt 0.90625 0.625
vt 0.921875 0.625
vt 0.921875 0.609375
vt 0.296875 0.078125
vt 0.296875 0.09375
vt 0.28125 0.09375
vt 0.28125 0.078125
vt 0.921875 0.828125
vt 0.921875 0.84375
vt 0.90625 0.84375
vt 0.90625 0.828125
vt 0.046875 0.140625
vt 0.046875 0.1875
vt 0.03125 0.1875
vt 0.03125 0.140625
vt 0.078125 0.140625
vt 0.078125 0.1875
vt 0.0625 0.1875
vt 0.0625 0.140625
vt 0.671875 0.328125
vt 0.671875 0.3125
vt 0.7578125 0.3125
vt 0.7578125 0.328125
vt 0.671875 0.28125
vt 0.671875 0.296875
vt 0.7578125 0.296875
vt 0.7578125 0.28125
vt 0.4921875 0.5
vt 0.4921875 0.546875
vt 0.40625 0.546875
vt 0.40625 0.5
vt 0.2265625 0.53125
vt 0.2265625 0.578125
vt 0.140625 0.578125
vt 0.140625 0.53125
vt 0.390625 0.5
vt 0.390625 0.53125
vt 0.375 0.53125
vt 0.375 0.5
vt 0.84375 0.21875
vt 0.84375 0.25
vt 0.828125 0.25
vt 0.828125 0.21875
vt 0.78125 0.4375
vt 0.78125 0.421875
vt 0.8359375 0.421875
vt 0.8359375 0.4375
vt 0.78125 0.390625
vt 0.78125 0.40625
vt 0.8359375 0.40625
vt 0.8359375 0.390625
vt 0.6953125 0.5
vt 0.6953125 0.53125
vt 0.640625 0.53125
vt 0.640625 0.5
vt 0.1953125 0.328125
vt 0.1953125 0.359375
vt 0.140625 0.359375
vt 0.140625 0.328125
vn 0 0.17364817766693055 -0.9848077530122081
vn 1 0 0
vn -1 0 0
vn 0 0.9848077530122081 0.17364817766693055
vn 0 -0.9848077530122081 -0.17364817766693055
vn 0 -0.17364817766693025 0.9848077530122081
vn 0 0.17364817766693055 -0.9848077530122081
vn 0 0.9953961983671789 0.09584575252022445
vn 0 0.09584575252022523 -0.9953961983671787
vn 0 0.9953961983671789 0.09584575252022445
vn 0 0.09584575252022523 -0.9953961983671787
vn 0 0.9953961983671789 0.09584575252022445
vn 0 0.09584575252022523 -0.9953961983671787
vn 1 0 0
vn -1 0 0
vn 0 0.9990482215818579 0.043619387365334744
vn 0 -0.9990482215818595 -0.04361938736529952
vn 0 -0.04361938736533574 0.9990482215818579
vn 0 0.04361938736533593 -0.9990482215818577
vn 1 0 0
vn -1 0 0
vn 0 1 4.718447854656914e-16
vn 0 -1 -4.718447854656914e-16
vn 0 2.7755575615628914e-17 1
vn 0 -2.7755575615628914e-17 -1
vn 1 0 0
vn -1 0 0
vn 0 1 4.718447854656914e-16
vn 0 -1 1.4155343563970746e-15
vn 0 0 1
vn 0 -8.326672684688674e-17 -1
vn 1 0 0
vn -1 0 0
vn 0 1 1.3877787807814454e-16
vn 0 -1 1.1102230246251565e-16
vn 0 -2.7755575615628914e-17 1
vn 0 -8.326672684688674e-17 -1
vn 1 0 0
vn -1 0 0
vn 0 0.9993908270190957 0.03489949670250283
vn 0 -0.9993908270190957 -0.034899496702502975
vn 0 -0.03489949670250079 0.9993908270190959
vn 0 0.0348994967025009 -0.9993908270190959
vn 1 0 0
vn -1 0 0
vn 0 0.9781476007338058 0.20791169081775931
vn 0 -0.9781476007338049 -0.20791169081776265
vn 0 -0.207911690817759 0.9781476007338058
vn 0 0.20791169081775926 -0.9781476007338057
vn 1 0 0
vn -1 0 0
vn 0 0.9975640502598241 -0.0697564737441279
vn 0 -0.9975640502598244 0.06975647374412447
vn 0 0.06975647374412525 0.9975640502598243
vn 0 -0.06975647374412541 -0.9975640502598243
vn 0.9574818564260024 0.2812827591472231 0.06409761322811881
vn -0.9574818564260025 -0.28128275914722306 -0.06409761322811726
vn -0.27505634437783233 0.9570859180594433 -0.09127186242109878
vn 0.27505634437783216 -0.9570859180594433 0.09127186242109936
vn -0.08702012429616551 0.06976069709254283 0.9937610090502859
vn 0.08702012429616514 -0.06976069709254296 -0.9937610090502861
vn 0.9574817175661283 0.28128323424922047 0.0640976025832094
vn -0.9574817175661281 -0.2812832342492213 -0.0640976025832093
vn 0.002799135397815202 0.21311175450296624 -0.9770238200441645
vn -0.0027991353978150195 -0.21311175450296632 0.9770238200441645
vn -0.28848037258649367 0.9356618631872118 0.20326325887723354
vn 0.28848037258649384 -0.9356618631872123 -0.20326325887723146
vn 0.9579455165477694 0.2756990113993281 0.07956407756934306
vn -0.9579455165477693 -0.2756990113993285 -0.07956407756934286
vn -0.13180308673105334 0.17646028545825584 0.9754433422727111
vn 0.13180308673105245 -0.17646028545825496 -0.9754433422727112
vn 0.2548888653005338 -0.9449083673930632 0.20537732001460796
vn -0.2548888653005337 0.9449083673930632 -0.205377320014608
vn 0.9579455504865695 0.27569868643175627 0.07956479499620399
vn -0.9579455504865693 -0.2756986864317563 -0.07956479499620364
vn -0.2861258542850705 0.9387411480584373 0.19208605480764515
vn 0.28612585428507037 -0.9387411480584386 -0.1920860548076403
vn -0.021732874007444978 -0.206773526452805 0.9781474280217927
vn 0.02173287400744493 0.20677352645280495 -0.9781474280217924
vn 0.9574818564260024 -0.2812827591472233 -0.0640976132281177
vn -0.9574818564260025 0.28128275914722317 0.06409761322811844
vn 0.2750563443778324 0.9570859180594433 -0.09127186242109878
vn -0.27505634437783255 -0.9570859180594437 0.09127186242109461
vn 0.08702012429616551 0.06976069709254283 0.9937610090502859
vn -0.08702012429616529 -0.06976069709254328 -0.9937610090502859
vn 0.9574817175661281 -0.2812832342492212 -0.0640976025832098
vn -0.9574817175661283 0.2812832342492203 0.06409760258321029
vn -0.0027991353978148144 0.2131117545029675 -0.9770238200441643
vn 0.00279913539781532 -0.21311175450296543 0.9770238200441649
vn 0.28848037258649367 0.9356618631872122 0.20326325887723162
vn -0.2884803725864938 -0.9356618631872121 -0.2032632588772315
vn 0.9579455165477695 -0.27569901139932856 -0.07956407756934279
vn -0.9579455165477696 0.2756990113993281 0.07956407756934275
vn 0.13180308673105331 0.1764602854582559 0.9754433422727111
vn -0.13180308673105312 -0.17646028545825732 -0.9754433422727109
vn -0.25488886530053395 -0.9449083673930633 0.20537732001460696
vn 0.2548888653005339 0.9449083673930633 -0.20537732001460696
vn 0.9579455504865694 -0.2756986864317564 -0.07956479499620366
vn -0.9579455504865694 0.27569868643175643 0.07956479499620367
vn 0.28612585428507037 0.9387411480584386 0.19208605480764007
vn -0.2861258542850704 -0.9387411480584373 -0.19208605480764496
vn 0.021732874007444978 -0.206773526452805 0.9781474280217927
vn -0.021732874007444968 0.2067735264528048 -0.9781474280217926
vn 0.9961946980917455 -5.204170427930421e-18 0.08715574274765824
vn -0.9961946980917457 1.2143064331837653e-17 -0.08715574274765822
vn -2.9904997296300525e-16 1 -4.996003610813204e-16
vn 2.9904997296300525e-16 -1 1.3877787807814454e-16
vn -0.0871557427476581 -8.326672684688674e-17 0.9961946980917457
vn 0.08715574274765814 -2.7755575615628907e-17 -0.9961946980917455
vn 0.9961946980917455 0 -0.08715574274765822
vn -0.9961946980917457 -1.2143064331837653e-17 0.08715574274765822
vn 5.980999459260105e-16 1 -4.996003610813204e-16
vn -5.980999459260105e-16 -1 -2.2204460492503126e-16
vn 0.0871557427476581 -8.326672684688674e-17 0.9961946980917457
vn -0.08715574274765811 5.551115123125783e-17 -0.9961946980917455
vn 0.8703556959398998 2.7755575615628914e-17 -0.49242356010346694
vn -0.8703556959398996 1.1102230246251565e-16 0.49242356010346733
vn -1.2636684833131854e-15 1 1.2490009027033011e-15
vn -1.5344545868802976e-15 -1 3.608224830031758e-16
vn 0.49242356010346544 -5.551115123125783e-17 0.8703556959399007
vn -0.4924235601034677 2.7755575615628914e-17 -0.8703556959398994
vn 0.8703556959398995 -2.7755575615628907e-17 0.49242356010346733
vn -0.8703556959398998 2.7755575615628914e-17 -0.492423560103467
vn 1.2636684833131868e-15 1 1.0824674490095274e-15
vn 1.0380133970072602e-15 -1 1.1102230246251565e-15
vn -0.4924235601034655 1.6653345369377348e-16 0.8703556959399008
vn 0.49242356010346766 5.551115123125783e-17 -0.8703556959398995
vn 1 0 0
vn -1 0 0
vn 0 1 -2.775557561562891e-16
vn 0 -1 -8.326672684688674e-17
vn 0 1.9428902930940235e-16 1
vn 0 -2.7755575615628914e-16 -1
vn 1 0 0
vn -1 0 0
vn 0 1 -2.775557561562891e-16
vn 0 -1 -8.326672684688674e-17
vn 0 1.9428902930940235e-16 1
vn 0 -2.7755575615628914e-16 -1
vn 1 0 0
vn -1 0 0
vn 0 0.9993908270190958 0.03489949670250192
vn 0 -0.9993908270190959 -0.03489949670250095
vn 0 -0.03489949670250092 0.9993908270190959
vn 0 0.03489949670250081 -0.9993908270190959
vn 1 0 0
vn -1 0 0
vn 0 0.9996573249755573 0.026176948307873114
vn 0 -0.9996573249755573 -0.02617694830787317
vn 0 -0.02617694830787299 0.9996573249755575
vn 0 0.02617694830787315 -0.9996573249755574
vn 1 0 0
vn -1 0 0
vn 0 0.9996573249755573 0.026176948307873114
vn 0 -0.9996573249755573 -0.02617694830787317
vn 0 -0.02617694830787299 0.9996573249755575
vn 0 0.02617694830787315 -0.9996573249755574
vn 0.9999360881376198 -0.0027686204417538096 -0.010961495376257352
vn -0.9999360881376198 0.002768620441753599 0.010961495376257326
vn 0.002163642759896125 0.9984937262106114 -0.05482332868457046
vn -0.002163642759900894 -0.9984937262106112 0.0548233286845749
vn 0.011096769351562978 0.054796108063428745 0.9984359009225677
vn -0.011096769351560834 -0.054796108063427953 -0.9984359009225676
vn 0.9999360881376198 -0.002768620441753806 -0.01096149537625731
vn -0.9999360881376198 0.002768620441753601 0.010961495376257324
vn 0.0021636427599030163 0.9984937262106108 -0.0548233286845792
vn -0.0021636427599006306 -0.998493726210611 0.05482332868457457
vn 0.011096769351561448 0.05479610806342802 0.9984359009225677
vn -0.011096769351560195 -0.05479610806342776 -0.9984359009225678
vn 0.9999360881376198 -0.002768620441753712 -0.010961495376257346
vn -0.9999360881376198 0.0027686204417537016 0.010961495376257305
vn 0.0021636427598987697 0.9984937262106113 -0.05482332868457265
vn -0.0021636427599008934 -0.9984937262106112 0.054823328684574846
vn 0.011096769351562473 0.054796108063428745 0.9984359009225677
vn -0.011096769351559194 -0.05479610806342876 -0.9984359009225676
vn 0.9999360881376198 -0.002768620441753765 -0.010961495376257463
vn -0.9999360881376198 0.002768620441753735 0.010961495376257385
vn 0.0021636427598982874 0.9984937262106113 -0.05482332868457218
vn -0.0021636427599003717 -0.998493726210611 0.05482332868457701
vn 0.011096769351561208 0.05479610806342798 0.9984359009225676
vn -0.011096769351561453 -0.05479610806342859 -0.9984359009225676
vn 0.9999360881376198 -0.002768620441753733 -0.01096149537625742
vn -0.9999360881376198 0.002768620441753761 0.01096149537625745
vn 0.0021636427599013735 0.9984937262106108 -0.054823328684577524
vn -0.002163642759900935 -0.9984937262106113 0.05482332868457249
vn 0.011096769351561444 0.054796108063428425 0.9984359009225677
vn -0.01109676935155755 -0.054796108063428745 -0.9984359009225677
vn 0.9999360881376198 -0.0027686204417537077 -0.010961495376257329
vn -0.9999360881376198 0.0027686204417537103 0.010961495376257336
vn 0.0021636427599030605 0.9984937262106108 -0.054823328684577025
vn -0.0021636427599006323 -0.998493726210611 0.054823328684576955
vn 0.011096769351560952 0.0547961080634282 0.9984359009225676
vn -0.011096769351560313 -0.05479610806342802 -0.9984359009225677
vn 0.9999360881376198 -0.0027686204417536452 -0.010961495376257575
vn -0.9999360881376199 0.0027686204417536643 0.010961495376257577
vn 0.002163642759900964 0.998493726210611 -0.054823328684574596
vn -0.00216364275990065 -0.998493726210611 0.054823328684574166
vn 0.011096769351560643 0.05479610806342855 0.9984359009225677
vn -0.011096769351560648 -0.05479610806342855 -0.9984359009225677
vn 1 0 0
vn -1 0 0
vn 0 0.9612616959383185 0.2756373558170009
vn 0 -0.961261695938319 -0.2756373558169991
vn 0 -0.2756373558169989 0.961261695938319
vn 0 0.2756373558169979 -0.9612616959383193
vn 0.7071067811865474 -0.6797146636928667 -0.19490504344652926
vn -0.7071067811865465 0.6797146636928673 0.19490504344653092
vn 0.7071067811865482 0.6797146636928659 0.19490504344652906
vn -0.707106781186548 -0.679714663692866 -0.19490504344652915
vn 0 -0.2756373558169999 0.9612616959383188
vn 1.3129548151547934e-16 0.27563735581700094 -0.9612616959383183
vn 0.7071067811865482 -0.6797146636928658 -0.1949050434465291
vn -0.7071067811865466 0.679714663692867 0.19490504344653087
vn 0.7071067811865475 0.6797146636928666 0.19490504344652929
vn -0.7071067811865482 -0.6797146636928658 -0.1949050434465291
vn 1.5126788710517764e-15 -0.2756373558169999 0.9612616959383188
vn 0 0.2756373558170011 -0.9612616959383185
vn 1 0 0
vn -1 0 0
vn 0 0.9612616959383188 0.2756373558169997
vn 0 -0.9612616959383193 -0.27563735581699794
vn 0 -0.2756373558169991 0.9612616959383189
vn 0 0.2756373558169993 -0.9612616959383189
vn 1 0 0
vn -1 0 0
vn 0 0.9612616959383191 0.2756373558169986
vn 0 -0.9612616959383187 -0.2756373558170001
vn 0 -0.2756373558169991 0.961261695938319
vn 0 0.2756373558169996 -0.9612616959383188
usemtl m_92a83605-f21e-13d5-25b5-4d13d4065140
f 1/1/1 2/2/1 4/3/1 3/4/1
f 8/5/2 6/6/2 5/7/2 7/8/2
f 11/9/3 9/10/3 10/11/3 12/12/3
f 5/13/4 6/14/4 10/15/4 9/16/4
f 8/17/5 7/18/5 11/19/5 12/20/5
f 7/21/6 5/22/6 9/23/6 11/24/6
f 12/25/7 10/26/7 6/27/7 8/28/7
f 13/29/8 14/30/8 16/31/8 15/32/8
f 17/33/9 18/34/9 20/35/9 19/36/9
f 21/37/10 22/38/10 24/39/10 23/40/10
f 25/41/11 26/42/11 28/43/11 27/44/11
f 29/45/12 30/46/12 32/47/12 31/48/12
f 33/49/13 34/50/13 36/51/13 35/52/13
f 38/53/14 37/54/14 39/55/14 40/56/14
f 43/57/15 41/58/15 42/59/15 44/60/15
f 41/61/16 37/62/16 38/63/16 42/64/16
f 40/65/17 39/66/17 43/67/17 44/68/17
f 39/69/18 37/70/18 41/71/18 43/72/18
f 42/73/19 38/74/19 40/75/19 44/76/19
f 48/77/20 46/78/20 45/79/20 47/80/20
f 51/81/21 49/82/21 50/83/21 52/84/21
f 45/85/22 46/86/22 50/87/22 49/88/22
f 48/89/23 47/90/23 51/91/23 52/92/23
f 47/93/24 45/94/24 49/95/24 51/96/24
f 52/97/25 50/98/25 46/99/25 48/100/25
f 56/101/26 54/102/26 53/103/26 55/104/26
f 59/105/27 57/106/27 58/107/27 60/108/27
f 53/109/28 54/110/28 58/111/28 57/112/28
f 56/113/29 55/114/29 59/115/29 60/116/29
f 55/117/30 53/118/30 57/119/30 59/120/30
f 60/121/31 58/122/31 54/123/31 56/124/31
f 64/125/32 62/126/32 61/127/32 63/128/32
f 67/129/33 65/130/33 66/131/33 68/132/33
f 61/133/34 62/134/34 66/135/34 65/136/34
f 64/137/35 63/138/35 67/139/35 68/140/35
f 63/141/36 61/142/36 65/143/36 67/144/36
f 68/145/37 66/146/37 62/147/37 64/148/37
f 72/149/38 70/150/38 69/151/38 71/152/38
f 75/153/39 73/154/39 74/155/39 76/156/39
f 69/157/40 70/158/40 74/159/40 73/160/40
f 72/161/41 71/162/41 75/163/41 76/164/41
f 71/165/42 69/166/42 73/167/42 75/168/42
f 76/169/43 74/170/43 70/171/43 72/172/43
f 80/173/44 78/174/44 77/175/44 79/176/44
f 83/177/45 81/178/45 82/179/45 84/180/45
f 77/181/46 78/182/46 82/183/46 81/184/46
f 80/185/47 79/186/47 83/187/47 84/188/47
f 79/189/48 77/190/48 81/191/48 83/192/48
f 84/193/49 82/194/49 78/195/49 80/196/49
f 88/197/50 86/198/50 85/199/50 87/200/50
f 91/201/51 89/202/51 90/203/51 92/204/51
f 85/205/52 86/206/52 90/207/52 89/208/52
f 88/209/53 87/210/53 91/211/53 92/212/53
f 87/213/54 85/214/54 89/215/54 91/216/54
f 92/217/55 90/218/55 86/219/55 88/220/55
f 96/221/56 94/222/56 93/223/56 95/224/56
f 99/225/57 97/226/57 98/227/57 100/228/57
f 93/229/58 94/230/58 98/231/58 97/232/58
f 96/233/59 95/234/59 99/235/59 100/236/59
f 95/237/60 93/238/60 97/239/60 99/240/60
f 100/241/61 98/242/61 94/243/61 96/244/61
f 104/245/62 102/246/62 101/247/62 103/248/62
f 107/249/63 105/250/63 106/251/63 108/252/63
f 101/253/64 102/254/64 106/255/64 105/256/64
f 104/257/65 103/258/65 107/259/65 108/260/65
f 103/261/66 101/262/66 105/263/66 107/264/66
f 108/265/67 106/266/67 102/267/67 104/268/67
f 112/269/68 110/270/68 109/271/68 111/272/68
f 115/273/69 113/274/69 114/275/69 116/276/69
f 109/277/70 110/278/70 114/279/70 113/280/70
f 112/281/71 111/282/71 115/283/71 116/284/71
f 111/285/72 109/286/72 113/287/72 115/288/72
f 116/289/73 114/290/73 110/291/73 112/292/73
f 120/293/74 118/294/74 117/295/74 119/296/74
f 123/297/75 121/298/75 122/299/75 124/300/75
f 117/301/76 118/302/76 122/303/76 121/304/76
f 120/305/77 119/306/77 123/307/77 124/308/77
f 119/309/78 117/310/78 121/311/78 123/312/78
f 124/313/79 122/314/79 118/315/79 120/316/79
f 128/317/80 126/318/80 125/319/80 127/320/80
f 131/321/81 129/322/81 130/323/81 132/324/81
f 125/325/82 126/326/82 130/327/82 129/328/82
f 128/329/83 127/330/83 131/331/83 132/332/83
f 127/333/84 125/334/84 129/335/84 131/336/84
f 132/337/85 130/338/85 126/339/85 128/340/85
f 136/341/86 134/342/86 133/343/86 135/344/86
f 139/345/87 137/346/87 138/347/87 140/348/87
f 133/349/88 134/350/88 138/351/88 137/352/88
f 136/353/89 135/354/89 139/355/89 140/356/89
f 135/357/90 133/358/90 137/359/90 139/360/90
f 140/361/91 138/362/91 134/363/91 136/364/91
f 144/365/92 142/366/92 141/367/92 143/368/92
f 147/369/93 145/370/93 146/371/93 148/372/93
f 141/373/94 142/374/94 146/375/94 145/376/94
f 144/377/95 143/378/95 147/379/95 148/380/95
f 143/381/96 141/382/96 145/383/96 147/384/96
f 148/385/97 146/386/97 142/387/97 144/388/97
f 152/389/98 150/390/98 149/391/98 151/392/98
f 155/393/99 153/394/99 154/395/99 156/396/99
f 149/397/100 150/398/100 154/399/100 153/400/100
f 152/401/101 151/402/101 155/403/101 156/404/101
f 151/405/102 149/406/102 153/407/102 155/408/102
f 156/409/103 154/410/103 150/411/103 152/412/103
f 160/413/104 158/414/104 157/415/104 159/416/104
f 163/417/105 161/418/105 162/419/105 164/420/105
f 157/421/106 158/422/106 162/423/106 161/424/106
f 160/425/107 159/426/107 163/427/107 164/428/107
f 159/429/108 157/430/108 161/431/108 163/432/108
f 164/433/109 162/434/109 158/435/109 160/436/109
f 168/437/110 166/438/110 165/439/110 167/440/110
f 171/441/111 169/442/111 170/443/111 172/444/111
f 165/445/112 166/446/112 170/447/112 169/448/112
f 168/449/113 167/450/113 171/451/113 172/452/113
f 167/453/114 165/454/114 169/455/114 171/456/114
f 172/457/115 170/458/115 166/459/115 168/460/115
f 176/461/116 174/462/116 173/463/116 175/464/116
f 179/465/117 177/466/117 178/467/117 180/468/117
f 173/469/118 174/470/118 178/471/118 177/472/118
f 176/473/119 175/474/119 179/475/119 180/476/119
f 175/477/120 173/478/120 177/479/120 179/480/120
f 180/481/121 178/482/121 174/483/121 176/484/121
f 184/485/122 182/486/122 181/487/122 183/488/122
f 187/489/123 185/490/123 186/491/123 188/492/123
f 181/493/124 182/494/124 186/495/124 185/496/124
f 184/497/125 183/498/125 187/499/125 188/500/125
f 183/501/126 181/502/126 185/503/126 187/504/126
f 188/505/127 186/506/127 182/507/127 184/508/127
f 192/509/128 190/510/128 189/511/128 191/512/128
f 195/513/129 193/514/129 194/515/129 196/516/129
f 189/517/130 190/518/130 194/519/130 193/520/130
f 192/521/131 191/522/131 195/523/131 196/524/131
f 191/525/132 189/526/132 193/527/132 195/528/132
f 196/529/133 194/530/133 190/531/133 192/532/133
f 200/533/134 198/534/134 197/535/134 199/536/134
f 203/537/135 201/538/135 202/539/135 204/540/135
f 197/541/136 198/542/136 202/543/136 201/544/136
f 200/545/137 199/546/137 203/547/137 204/548/137
f 199/549/138 197/550/138 201/551/138 203/552/138
f 204/553/139 202/554/139 198/555/139 200/556/139
f 208/557/140 206/558/140 205/559/140 207/560/140
f 211/561/141 209/562/141 210/563/141 212/564/141
f 205/565/142 206/566/142 210/567/142 209/568/142
f 208/569/143 207/570/143 211/571/143 212/572/143
f 207/573/144 205/574/144 209/575/144 211/576/144
f 212/577/145 210/578/145 206/579/145 208/580/145
f 216/581/146 214/582/146 213/583/146 215/584/146
f 219/585/147 217/586/147 218/587/147 220/588/147
f 213/589/148 214/590/148 218/591/148 217/592/148
f 216/593/149 215/594/149 219/595/149 220/596/149
f 215/597/150 213/598/150 217/599/150 219/600/150
f 220/601/151 218/602/151 214/603/151 216/604/151
f 224/605/152 222/606/152 221/607/152 223/608/152
f 227/609/153 225/610/153 226/611/153 228/612/153
f 221/613/154 222/614/154 226/615/154 225/616/154
f 224/617/155 223/618/155 227/619/155 228/620/155
f 223/621/156 221/622/156 225/623/156 227/624/156
f 228/625/157 226/626/157 222/627/157 224/628/157
f 232/629/158 230/630/158 229/631/158 231/632/158
f 235/633/159 233/634/159 234/635/159 236/636/159
f 229/637/160 230/638/160 234/639/160 233/640/160
f 232/641/161 231/642/161 235/643/161 236/644/161
f 231/645/162 229/646/162 233/647/162 235/648/162
f 236/649/163 234/650/163 230/651/163 232/652/163
f 240/653/164 238/654/164 237/655/164 239/656/164
f 243/657/165 241/658/165 242/659/165 244/660/165
f 237/661/166 238/662/166 242/663/166 241/664/166
f 240/665/167 239/666/167 243/667/167 244/668/167
f 239/669/168 237/670/168 241/671/168 243/672/168
f 244/673/169 242/674/169 238/675/169 240/676/169
f 248/677/170 246/678/170 245/679/170 247/680/170
f 251/681/171 249/682/171 250/683/171 252/684/171
f 245/685/172 246/686/172 250/687/172 249/688/172
f 248/689/173 247/690/173 251/691/173 252/692/173
f 247/693/174 245/694/174 249/695/174 251/696/174
f 252/697/175 250/698/175 246/699/175 248/700/175
f 256/701/176 254/702/176 253/703/176 255/704/176
f 259/705/177 257/706/177 258/707/177 260/708/177
f 253/709/178 254/710/178 258/711/178 257/712/178
f 256/713/179 255/714/179 259/715/179 260/716/179
f 255/717/180 253/718/180 257/719/180 259/720/180
f 260/721/181 258/722/181 254/723/181 256/724/181
f 264/725/182 262/726/182 261/727/182 263/728/182
f 267/729/183 265/730/183 266/731/183 268/732/183
f 261/733/184 262/734/184 266/735/184 265/736/184
f 264/737/185 263/738/185 267/739/185 268/740/185
f 263/741/186 261/742/186 265/743/186 267/744/186
f 268/745/187 266/746/187 262/747/187 264/748/187
f 272/749/188 270/750/188 269/751/188 271/752/188
f 275/753/189 273/754/189 274/755/189 276/756/189
f 269/757/190 270/758/190 274/759/190 273/760/190
f 272/761/191 271/762/191 275/763/191 276/764/191
f 271/765/192 269/766/192 273/767/192 275/768/192
f 276/769/193 274/770/193 270/771/193 272/772/193
f 280/773/194 278/774/194 277/775/194 279/776/194
f 283/777/195 281/778/195 282/779/195 284/780/195
f 277/781/196 278/782/196 282/783/196 281/784/196
f 280/785/197 279/786/197 283/787/197 284/788/197
f 279/789/198 277/790/198 281/791/198 283/792/198
f 284/793/199 282/794/199 278/795/199 280/796/199
f 288/797/200 286/798/200 285/799/200 287/800/200
f 291/801/201 289/802/201 290/803/201 292/804/201
f 285/805/202 286/806/202 290/807/202 289/808/202
f 288/809/203 287/810/203 291/811/203 292/812/203
f 287/813/204 285/814/204 289/815/204 291/816/204
f 292/817/205 290/818/205 286/819/205 288/820/205
f 296/821/206 294/822/206 293/823/206 295/824/206
f 299/825/207 297/826/207 298/827/207 300/828/207
f 293/829/208 294/830/208 298/831/208 297/832/208
f 296/833/209 295/834/209 299/835/209 300/836/209
f 295/837/210 293/838/210 297/839/210 299/840/210
f 300/841/211 298/842/211 294/843/211 296/844/211
f 304/845/212 302/846/212 301/847/212 303/848/212
f 307/849/213 305/850/213 306/851/213 308/852/213
f 301/853/214 302/854/214 306/855/214 305/856/214
f 304/857/215 303/858/215 307/859/215 308/860/215
f 303/861/216 301/862/216 305/863/216 307/864/216
f 308/865/217 306/866/217 302/867/217 304/868/217
f 312/869/218 310/870/218 309/871/218 311/872/218
f 315/873/219 313/874/219 314/875/219 316/876/219
f 309/877/220 310/878/220 314/879/220 313/880/220
f 312/881/221 311/882/221 315/883/221 316/884/221
f 311/885/222 309/886/222 313/887/222 315/888/222
f 316/889/223 314/890/223 310/891/223 312/892/223
f 320/893/224 318/894/224 317/895/224 319/896/224
f 323/897/225 321/898/225 322/899/225 324/900/225
f 317/901/226 318/902/226 322/903/226 321/904/226
f 320/905/227 319/906/227 323/907/227 324/908/227
f 319/909/228 317/910/228 321/911/228 323/912/228
f 324/913/229 322/914/229 318/915/229 320/916/229
