# Made in Blockbench 5.1.6
mtllib civilian_medic.mtl

o cube
v 0.125 1.4584033081988563 -0.18129959844463436
v 0.125 1.4616592115301112 -0.19976474381361325
v 0.125 1.2737518545090674 -0.2138586317571838
v 0.125 1.2770077578403223 -0.2323237771261627
v -0.125 1.4584033081988563 -0.18129959844463436
v -0.125 1.4616592115301112 -0.19976474381361325
v -0.125 1.2737518545090674 -0.2138586317571838
v -0.125 1.2770077578403223 -0.2323237771261627
v 0.09375 1.5324923754532083 -0.18204367607144648
v 0.09375 1.424779027467498 -0.20103644550376698
v -0.09375 1.5324923754532083 -0.18204367607144648
v -0.09375 1.424779027467498 -0.20103644550376698
v 0.0744197990771575 1.5130174354160832 0.20312499999999978
v 0.07551028376129086 1.5379936409556294 0.20312499999999978
v -0.05670528000546135 1.5187424800077833 0.20312499999999978
v -0.05561479532132796 1.5437186855473297 0.20312499999999972
v 0.3510133747255737 1.5264644046872895 -0.14329364032343833
v 0.142935341164728 1.592692732088442 -0.15628991283125312
v 0.27714269575848116 1.2691813873342201 -0.27168109062774587
v 0.06906466219763552 1.3354097147353727 -0.28467736313556075
v 0.27678915065829746 1.5765255225675565 0.08485696326813619
v 0.2088378277650359 1.6401203084630764 0.07357053673186403
v 0.27207361490453646 1.53070277246409 -0.14494660485148692
v 0.20412229201127488 1.59429755835961 -0.1562330313877591
v 0.2694527728052535 1.54239887037766 0.19220278551615189
v 0.19719749432862374 1.6008633476033904 0.20445603549265778
v 0.2789416016961398 1.579090861449065 0.07308662407071492
v 0.20668632321951005 1.6375553386747954 0.08533987404722077
v 0.07312963711860415 1.491901211528952 0.21098740278889955
v 0.0527784142789145 1.582054529373997 0.19526259721110062
v 0.25615297970973383 1.5317470828126942 0.20256050487748434
v 0.23580175687004418 1.6219004006577395 0.18683569929968558
v -0.2611036522442669 1.5717754065613514 -0.149167023180379
v -0.16979290330286975 1.5928303388966598 -0.15201297681962087
v -0.20342878381160323 1.3056628167025377 -0.26745677208073804
v -0.11211803487020605 1.3267177490378466 -0.27030272571997993
v -0.13309879989468348 1.3544704441327529 -0.2367213074049839
v -0.13598856605213083 1.2912482496088074 -0.2635758390734322
v -0.2017833650988898 1.3574436228516835 -0.23632988561914997
v -0.20467313125633715 1.2942214283277382 -0.2631844172875982
v -0.25276946060068767 1.599646550860446 0.08485696326813619
v -0.17953406220649787 1.6570769913783945 0.07357053673186403
v -0.25206558470413687 1.5535871841343174 -0.14494660485148697
v -0.17883018630994704 1.611017624652266 -0.1562330313877591
v -0.24843533359938902 1.5650103534243909 0.192202785516152
v -0.1713594933348658 1.6169548932002995 0.20445603549265778
v -0.25469013689687103 1.6023897263219447 0.07308662407071492
v -0.1776142966323478 1.6543342660978533 0.08533987404722077
v -0.05726042767957962 1.4975941647039426 0.21098740278889955
v -0.02912926800904653 1.58563069601414 0.19526259721110067
v -0.23611451468873002 1.5532399457813417 0.20256050487748428
v -0.20798335501819692 1.6412764770915393 0.18683569929968546
v 0.3305095037491287 1.1923635636076482 -0.2409787368707196
v 0.2739154396842232 1.1602382562929767 -0.13425443531500406
v 0.3460957400765746 1.0715636432095388 -0.2690758625058349
v 0.28950167601166915 1.0394383358948673 -0.16235156095011935
v 0.16497051261119347 1.1914839677153013 -0.32902598966205204
v 0.10837644854628802 1.1593586604006298 -0.22230168810633652
v 0.1805567489386394 1.0706840473171921 -0.35712311529716745
v 0.12396268487373395 1.0385587400025202 -0.2503988137414519
v 0.34609559612713725 1.071563994218782 -0.26907567125286375
v 0.2874976830970884 1.0652564081281786 -0.15884183367912938
v 0.34957467577989454 0.9467246154467629 -0.27436958403889644
v 0.29097676274984563 0.9404170293561596 -0.16413574646516205
v 0.18055660877096075 1.0706843934948997 -0.357122931106071
v 0.12195869574091187 1.0643768074042967 -0.2468890935323365
v 0.18403568842371798 0.9458450147228805 -0.3624168438921037
v 0.12543777539366913 0.9395374286322774 -0.2521830063183693
v 0.3495750558025233 0.9467243173414108 -0.2743697190261394
v 0.2916131315805059 0.9675864415356055 -0.16560305540815795
v 0.3402887591688736 0.8234789202661879 -0.2556791654066636
v 0.2823268349468562 0.8443410444603825 -0.14691250178868215
v 0.18403607223836632 0.9458447059372032 -0.36241698590208166
v 0.12607414801634892 0.9667068301313979 -0.2536503222841002
v 0.1747497756047166 0.8225993088619801 -0.3437264322826058
v 0.1167878513826992 0.8434614330561748 -0.2349597686646244
v -0.1594811873130054 1.20108769353153 -0.26245784852033366
v -0.1435855602469424 1.3222237919764395 -0.23603106866122256
v -0.1594811873130054 1.20108769353153 -0.26245784852033366
v -0.1435855602469424 1.3222237919764395 -0.23603106866122256
v -0.22061225328608905 1.2109581588011065 -0.2709323212683329
v -0.20471662622002607 1.3320942572460157 -0.24450554140922182
v -0.22061225328608905 1.2109581588011065 -0.2709323212683329
v -0.20471662622002607 1.3320942572460157 -0.24450554140922182
v 0.25 1.2500000000000004 -0.16249999999999992
v 0.25 1.2500000000000002 -0.22499999999999998
v 0.25 0.83125 -0.16249999999999995
v 0.25 0.8312500000000002 -0.22500000000000003
v -0.25 1.2500000000000004 -0.16249999999999992
v -0.25 1.2500000000000002 -0.22499999999999998
v -0.25 0.83125 -0.16249999999999995
v -0.25 0.8312500000000002 -0.22500000000000003
v 0.25 1.2500000000000002 0.21250000000000013
v 0.25 1.2500000000000002 0.15000000000000008
v 0.25 0.8374999999999999 0.21250000000000013
v 0.25 0.8375 0.15000000000000008
v -0.25 1.2500000000000002 0.21250000000000013
v -0.25 1.2500000000000002 0.15000000000000008
v -0.25 0.8374999999999999 0.21250000000000013
v -0.25 0.8375 0.15000000000000008
v 0.203125 1.4375000000000002 0.15000000000000008
v 0.203125 1.4375000000000002 0.10625000000000007
v 0.203125 0.9000000000000001 0.15000000000000008
v 0.203125 0.9 0.10625000000000007
v -0.203125 1.4375000000000002 0.15000000000000008
v -0.203125 1.4375000000000002 0.10625000000000007
v -0.203125 0.9000000000000001 0.15000000000000008
v -0.203125 0.9 0.10625000000000007
v 0.203125 1.4034508898329847 -0.11151408593142083
v 0.203125 1.40519586466811 -0.1614836272823757
v 0.203125 0.8975092836545675 -0.12918195613706193
v 0.203125 0.8992542584896926 -0.17915149748801673
v -0.203125 1.4034508898329847 -0.11151408593142083
v -0.203125 1.40519586466811 -0.1614836272823757
v -0.203125 0.8975092836545675 -0.12918195613706193
v -0.203125 0.8992542584896926 -0.17915149748801673
v 0.25 1.4710066607504624 -0.11334264935111377
v 0.25 1.4840011414265726 -0.1744768743969766
v 0.25 1.2356398943238902 -0.16337139995413705
v 0.25 1.2486343750000002 -0.224505625
v -0.25 1.4710066607504624 -0.11334264935111377
v -0.25 1.4840011414265726 -0.1744768743969766
v -0.25 1.2356398943238902 -0.16337139995413705
v -0.25 1.2486343750000002 -0.224505625
v 0.25 1.539793819058708 0.18966214193980308
v 0.25 1.5354340394496997 0.12731438879856405
v 0.25 1.2405246039807605 0.2105890840630406
v 0.25 1.2361648243717527 0.14824133092180164
v -0.25 1.539793819058708 0.18966214193980308
v -0.25 1.5354340394496997 0.12731438879856405
v -0.25 1.2405246039807605 0.2105890840630406
v -0.25 1.2361648243717527 0.14824133092180164
v -0.21031636856028352 1.5864312942808512 0.16108384032054324
v -0.20596536234547524 1.582943259426224 0.11139578986802895
v -0.11060844372331974 1.239487648984303 0.19416989044819194
v -0.10625743750851147 1.2359996141296758 0.1444818399956776
v -0.34795438542152135 1.5459968976534377 0.15186980841900133
v -0.34360337920671313 1.5425088627988106 0.10218175796648699
v -0.24824646058455763 1.1990532523568898 0.18495585854664987
v -0.24389545436974935 1.1955652175022626 0.13526780809413563
v -0.21600336458145303 1.6073169544796155 0.05687468802115975
v -0.1979733412947972 1.5488380880304147 0.044170734341332674
v -0.21628327812123455 1.5860057790293187 0.1545770700255759
v -0.1982532548345787 1.527526912580118 0.14187311634574884
v -0.3416728400120074 1.5703985299844052 0.04846187768211341
v -0.3236428167253515 1.5119196635352044 0.03575792400228639
v -0.34195275355178884 1.5490873545341088 0.14616425968652952
v -0.323922730265133 1.4906084880849078 0.13346030600670256
v -0.1999886732187325 1.5472475821770995 0.07251354216605937
v -0.2159192273000159 1.606304355139166 0.059677459665146426
v -0.17527559445665997 1.5141612786536762 -0.11038208451007399
v -0.19120614853794335 1.573218051615743 -0.12321816701098692
v -0.3257190222656272 1.5110620869309377 0.06207075698508313
v -0.3416495763469106 1.570118859893004 0.04923467448417013
v -0.3010059435035547 1.4779757834075147 -0.12082486969105019
v -0.31693649758483805 1.537032556369581 -0.13366095219196314
v -0.1860340519241504 1.567187154750744 -0.08604003054052195
v -0.1850832386863247 1.5762334965330542 -0.12883398051647543
v -0.060853990674432895 1.156487902475177 -0.17007767951886538
v -0.05990317743660717 1.1655342442574874 -0.21287162949481872
v -0.32373872480659477 1.5275554685761792 -0.09747746982122624
v -0.322787911568769 1.5366018103584893 -0.1402714197971796
v -0.19855866355687724 1.1168562163006122 -0.18151511879956955
v -0.1976078503190515 1.1259025580829225 -0.22430906877552298
v 0.34795438542152135 1.5459968976534377 0.15186980841900133
v 0.34360337920671313 1.5425088627988106 0.10218175796648699
v 0.24824646058455763 1.1990532523568898 0.18495585854664987
v 0.24389545436974935 1.1955652175022626 0.13526780809413563
v 0.21031636856028352 1.5864312942808512 0.16108384032054324
v 0.20596536234547524 1.582943259426224 0.11139578986802895
v 0.11060844372331974 1.239487648984303 0.19416989044819194
v 0.10625743750851147 1.2359996141296758 0.1444818399956776
v 0.3416728400120074 1.5703985299844052 0.04846187768211341
v 0.3236428167253515 1.5119196635352044 0.03575792400228639
v 0.34195275355178884 1.5490873545341088 0.14616425968652952
v 0.323922730265133 1.4906084880849078 0.13346030600670256
v 0.21600336458145303 1.6073169544796155 0.05687468802115975
v 0.1979733412947972 1.5488380880304147 0.044170734341332674
v 0.21628327812123455 1.5860057790293187 0.1545770700255759
v 0.1982532548345787 1.527526912580118 0.14187311634574884
v 0.3257190222656272 1.5110620869309377 0.06207075698508313
v 0.3416495763469106 1.570118859893004 0.04923467448417013
v 0.3010059435035547 1.4779757834075147 -0.12082486969105019
v 0.31693649758483805 1.537032556369581 -0.13366095219196314
v 0.1999886732187325 1.5472475821770995 0.07251354216605937
v 0.2159192273000159 1.606304355139166 0.059677459665146426
v 0.17527559445665997 1.5141612786536762 -0.11038208451007399
v 0.19120614853794335 1.573218051615743 -0.12321816701098692
v 0.32373872480659477 1.5275554685761792 -0.09747746982122624
v 0.322787911568769 1.5366018103584893 -0.1402714197971796
v 0.19855866355687724 1.1168562163006122 -0.18151511879956955
v 0.1976078503190515 1.1259025580829225 -0.22430906877552298
v 0.1860340519241504 1.567187154750744 -0.08604003054052195
v 0.1850832386863247 1.5762334965330542 -0.12883398051647543
v 0.060853990674432895 1.156487902475177 -0.17007767951886538
v 0.05990317743660717 1.1655342442574874 -0.21287162949481872
v -0.27723616960864317 1.125 0.10193584315367055
v -0.2502723616960864 1.125 -0.20626189156846325
v -0.27723616960864317 0.8312500000000003 0.10193584315367055
v -0.2502723616960864 0.8312500000000003 -0.20626189156846325
v -0.3145934707870836 1.1250000000000002 0.09866750280063341
v -0.28762966287452685 1.125 -0.20953023192150047
v -0.3145934707870836 0.8312500000000002 0.09866750280063336
v -0.28762966287452685 0.8312500000000003 -0.2095302319215004
v 0.3145934707870836 1.1250000000000002 0.09866750280063341
v 0.28762966287452685 1.125 -0.20953023192150047
v 0.3145934707870836 0.8312500000000002 0.09866750280063336
v 0.28762966287452685 0.8312500000000003 -0.2095302319215004
v 0.27723616960864317 1.125 0.10193584315367055
v 0.2502723616960864 1.125 -0.20626189156846325
v 0.27723616960864317 0.8312500000000003 0.10193584315367055
v 0.2502723616960864 0.8312500000000003 -0.20626189156846325
v -0.21655260636174328 1.1250000000000002 0.19011494854229977
v -0.279644375 1.1250000000000002 0.07860062500000015
v -0.21655260636174328 0.8312500000000003 0.1901149485422997
v -0.279644375 0.8312500000000003 0.07860062500000009
v -0.2491909449594895 1.125 0.20858083204617978
v -0.31228271359774623 1.125 0.0970665085038801
v -0.2491909449594895 0.8312500000000002 0.20858083204617972
v -0.31228271359774623 0.8312500000000003 0.0970665085038801
v 0.2491909449594895 1.125 0.20858083204617978
v 0.31228271359774623 1.125 0.0970665085038801
v 0.2491909449594895 0.8312500000000002 0.20858083204617972
v 0.31228271359774623 0.8312500000000003 0.0970665085038801
v 0.21655260636174328 1.1250000000000002 0.19011494854229977
v 0.279644375 1.1250000000000002 0.07860062500000015
v 0.21655260636174328 0.8312500000000003 0.1901149485422997
v 0.279644375 0.8312500000000003 0.07860062500000009
v -0.221875 1.0937500000000002 0.15000000000000008
v -0.221875 1.0937500000000004 -0.16249999999999998
v -0.221875 0.9062500000000002 0.15000000000000013
v -0.221875 0.9062500000000002 -0.16249999999999995
v -0.278125 1.0937500000000002 0.15000000000000008
v -0.278125 1.0937500000000004 -0.16249999999999998
v -0.278125 0.9062500000000002 0.15000000000000013
v -0.278125 0.9062500000000002 -0.16249999999999995
v 0.278125 1.0937500000000002 0.15000000000000008
v 0.278125 1.0937500000000004 -0.16249999999999998
v 0.278125 0.9062500000000002 0.15000000000000013
v 0.278125 0.9062500000000002 -0.16249999999999995
v 0.221875 1.0937500000000002 0.15000000000000008
v 0.221875 1.0937500000000004 -0.16249999999999998
v 0.221875 0.9062500000000002 0.15000000000000013
v 0.221875 0.9062500000000002 -0.16249999999999995
v -0.1657257026875267 1.6247742057919172 -0.19478886397917933
v -0.20874310489344972 1.6169225263628395 -0.1934044010519593
v -0.1315565416577491 1.4432147577626138 -0.16277503468907673
v -0.1745739438636721 1.435363078333536 -0.16139057176185673
v -0.16572570268752673 1.6855510679753427 0.1498938495750935
v -0.20874310489344974 1.6776993885462652 0.15127831250231355
v -0.13155654165774913 1.5039916199460395 0.18190767886519604
v -0.17457394386367214 1.496139940516962 0.1832921417924161
v 0.16572570268752673 1.6855510679753427 0.1498938495750935
v 0.20874310489344974 1.6776993885462652 0.15127831250231355
v 0.13155654165774913 1.5039916199460395 0.18190767886519604
v 0.17457394386367214 1.496139940516962 0.1832921417924161
v 0.1657257026875267 1.6247742057919172 -0.19478886397917933
v 0.20874310489344972 1.6169225263628395 -0.1934044010519593
v 0.1315565416577491 1.4432147577626138 -0.16277503468907673
v 0.1745739438636721 1.435363078333536 -0.16139057176185673
v 0.175 1.6263846706193694 -0.18565546408211536
v 0.175 1.6110630976892675 -0.22663487236173271
v 0.175 1.4507586351352948 -0.11999158009596525
v 0.175 1.4354370622051933 -0.1609709883755826
v -0.175 1.6263846706193694 -0.18565546408211536
v -0.175 1.6110630976892675 -0.22663487236173271
v -0.175 1.4507586351352948 -0.11999158009596525
v -0.175 1.4354370622051933 -0.1609709883755826
v 0.175 1.6824552830507633 0.17825033054169448
v 0.175 1.6828370689788175 0.134501996407637
v 0.175 1.4949624224762312 0.17661410513574938
v 0.175 1.495344208404285 0.13286577100169178
v -0.175 1.6824552830507633 0.17825033054169448
v -0.175 1.6828370689788175 0.134501996407637
v -0.175 1.4949624224762312 0.17661410513574938
v -0.175 1.495344208404285 0.13286577100169178
v -0.142937280540603 1.3436834482853146 -0.2345467961983501
v -0.14223168098180694 1.367585895370848 -0.2922912777752584
v -0.145043934821728 1.2975350448175287 -0.2536749656119206
v -0.14433833526293194 1.3214374919030623 -0.3114194471888288
v -0.19288969159820768 1.3458457600809006 -0.23426212580865266
v -0.19218409203941159 1.3697482071664342 -0.292006607385561
v -0.19499634587933268 1.2996973566131147 -0.2533902952222232
v -0.19429074632053658 1.3235998036986483 -0.3111347767991315
v -0.24588342182160733 1.1634251838649374 -0.21267770945233072
v -0.3392211108519452 1.1523216596142967 -0.24680669355223295
v -0.22860495605231237 1.0019328802865335 -0.20739183151202117
v -0.32194264508265025 0.9908293560358928 -0.24152081561192348
v -0.29944361542718506 1.1624989833643025 -0.06589722603043416
v -0.39278130445752296 1.151395459113662 -0.1000262101303363
v -0.28216514965789014 1.0010066797858985 -0.06061134809012464
v -0.37550283868822804 0.9899031555352578 -0.09474033219002682
v -0.25343600830105534 1.1757593021702486 -0.19539616552120648
v -0.3584409084601855 1.1632678373882777 -0.2337912726335965
v -0.2521068955495711 1.1633368172796017 -0.19498955952579808
v -0.3571117957087012 1.150845352497631 -0.23338466663818802
v -0.29414175544129445 1.175055389789766 -0.08384299812056506
v -0.39914665560042456 1.1625639250077948 -0.12223810523295503
v -0.29281264268981017 1.162632904899119 -0.08343639212515666
v -0.39781754284894033 1.1501414401171486 -0.12183149923754662
v -0.33542799759146397 1.0443014031188778 -0.22614455309424578
v -0.34739001235482203 1.156103767134696 -0.2298040070529216
v -0.3470952087202564 1.0429134625875478 -0.2304106761067336
v -0.35905722348361446 1.1547158266033661 -0.23407013006540944
v -0.3761337447317031 1.0435974907383951 -0.11459138569360441
v -0.38809575949506114 1.1553998547542137 -0.11825083965228024
v -0.38780095586049546 1.0422095502070652 -0.11885750870609223
v -0.3997629706238536 1.1540119142228835 -0.12251696266476804
v -0.24136516154659754 0.9806962028078048 -0.21391467984994633
v -0.32679615856742394 0.9646187927669924 -0.2633420167639166
v -0.22553901022135536 0.8208563588446531 -0.18927716341533163
v -0.31097000724218177 0.8047789488038406 -0.23870450032930193
v -0.3211398276422676 0.9934131554955153 -0.08016736487254991
v -0.406570824663094 0.9773357454547028 -0.12959470178652016
v -0.30531367631702544 0.8335733115323636 -0.055529848437935236
v -0.39074467333785184 0.8174959014915512 -0.10495718535190553
v -0.2519690278713438 0.9945512513900533 -0.1996521609527539
v -0.3480788995197735 0.9764641650941391 -0.2552579149809705
v -0.2507516316155559 0.9822558787775031 -0.1977569673808605
v -0.3468615032639856 0.9641687924815888 -0.25336272140907706
v -0.31259777410405304 1.0042161354327135 -0.09800420156993264
v -0.40870764575248275 0.9861290491367993 -0.15360995559814924
v -0.31138037784826517 0.9919207628201631 -0.09610900799803918
v -0.4074902494966949 0.9738336765242489 -0.15171476202625575
v -0.32700697653522864 0.8592685674214 -0.231546212869912
v -0.33796354283731933 0.9699269209343511 -0.24860295501695293
v -0.3376858511628319 0.8572588911662984 -0.2377246299841583
v -0.34864241746492264 0.9679172446792496 -0.2547813721311992
v -0.3876357227679379 0.8689334514640601 -0.12989825348709066
v -0.39859228907002864 0.9795918049770111 -0.14695499563413156
v -0.3983145973955412 0.8669237752089585 -0.13607667060133696
v -0.4092711636976319 0.9775821287219095 -0.15313341274837786
v 0.143053125 1.1740307344148473 -0.22516905210210988
v 0.143053125 1.1715219509894876 -0.36889715828084124
v 0.143053125 1.155283590130665 -0.2248418194814109
v 0.143053125 1.1527748067053056 -0.36856992566014213
v -0.013196874999999997 1.1740307344148473 -0.22516905210210988
v -0.013196874999999997 1.1715219509894876 -0.36889715828084124
v -0.013196874999999997 1.155283590130665 -0.2248418194814109
v -0.013196874999999997 1.1527748067053056 -0.36856992566014213
v 0.130553125 1.0242575746493285 -0.3762375772619971
v 0.130553125 1.1656004676116467 -0.35004122047250086
v 0.130553125 1.0276744907523063 -0.39467360677882096
v 0.130553125 1.1690173837146247 -0.36847724998932474
v -0.0006968749999999857 1.0242575746493285 -0.3762375772619971
v -0.0006968749999999857 1.1656004676116467 -0.35004122047250086
v -0.0006968749999999857 1.0276744907523063 -0.39467360677882096
v -0.0006968749999999857 1.1690173837146247 -0.36847724998932474
v 0.143053125 1.155283590130665 -0.2248418194814109
v 0.143053125 1.1531020393260045 -0.3498227813759598
v 0.143053125 0.8428311853942926 -0.21938794246975973
v 0.143053125 0.8406496345896324 -0.34436890436430867
v -0.013196874999999997 1.155283590130665 -0.2248418194814109
v -0.013196874999999997 1.1531020393260045 -0.3498227813759598
v -0.013196874999999997 0.8428311853942926 -0.21938794246975973
v -0.013196874999999997 0.8406496345896324 -0.34436890436430867
v -0.03819687499999999 1.0320834403240247 -0.4072735346501957
v -0.03819687499999999 1.1684049657599156 -0.3616609902919637
v -0.03819687499999999 1.03803290263162 -0.42505460318531185
v -0.03819687499999999 1.1743544280675113 -0.37944205882707965
v -0.169446875 1.0320834403240247 -0.4072735346501957
v -0.169446875 1.1684049657599156 -0.3616609902919637
v -0.169446875 1.03803290263162 -0.42505460318531185
v -0.169446875 1.1743544280675113 -0.37944205882707965
v -0.025696875000000008 1.1740307344148473 -0.22516905210210988
v -0.025696875000000008 1.1715219509894876 -0.36889715828084124
v -0.025696875000000008 1.155283590130665 -0.2248418194814109
v -0.025696875000000008 1.1527748067053056 -0.36856992566014213
v -0.181946875 1.1740307344148473 -0.22516905210210988
v -0.181946875 1.1715219509894876 -0.36889715828084124
v -0.181946875 1.155283590130665 -0.2248418194814109
v -0.181946875 1.1527748067053056 -0.36856992566014213
v -0.021001993541156533 1.155657729973764 -0.24090672602039817
v -0.024274112079640683 1.1534769267320788 -0.36584486006077493
v -0.021001993541156533 0.8432053252373917 -0.23545284900874702
v -0.024274112079640683 0.8410245219957065 -0.36039098304912387
v -0.17095059228749016 1.1557262575849376 -0.2369807818056199
v -0.1742227108259743 1.1535454543432524 -0.36191891584599667
v -0.17095059228749016 0.8432738528485653 -0.23152690479396876
v -0.1742227108259743 0.84109304960688 -0.3564650388343456
v -0.23064116330823875 1.1529134786195325 -0.21313895078916098
v -0.27369227400284635 1.1450469271098376 -0.3030540175761348
v -0.23064115498724314 0.8602812864115476 -0.1875369472826205
v -0.27369226568185073 0.8524147349018527 -0.2774520140695943
v -0.2870527432778879 1.1552585721063007 -0.18633439554446063
v -0.33010385397249553 1.1473920205966055 -0.2762494623314344
v -0.2870527349568923 0.8626263798983155 -0.16073239203792006
v -0.3301038456514999 0.8547598283886207 -0.2506474588248939
v -0.188421792464387 1.0524734848262365 -0.3399452840124571
v -0.17538722329541334 1.1479367608365498 -0.31317098775731805
v -0.18944952664310388 1.055967537322931 -0.35190293259435823
v -0.17641495747413022 1.1514308133332443 -0.32512863633921935
v -0.25017514764868 1.0588907817345647 -0.3327625669866435
v -0.23714057847970632 1.1543540577448785 -0.30598827073150464
v -0.25120288182739686 1.0623848342312592 -0.3447202155685448
v -0.2381683126584232 1.157848110241573 -0.31794591931340593
v -0.16323896738216484 1.170471660816482 -0.22758015314578248
v -0.17455928987492916 1.1618121098245304 -0.32655925435041866
v -0.1632389670280799 1.1580192271055039 -0.22649070618805733
v -0.17455928952084426 1.1493596761135523 -0.3254698073926934
v -0.22533720828248333 1.1710883036091424 -0.22053187472106953
v -0.23665753077524765 1.1624287526171906 -0.3195109759257057
v -0.2253372079283984 1.1586358698981638 -0.2194424277633444
v -0.23665753042116272 1.1499763189062124 -0.3184215289679806
v -0.16303470156703959 1.1519679641437073 -0.2239462509407885
v -0.17608732190262935 1.1433269510843458 -0.32271346207729307
v -0.16303469324604397 0.8593357719357224 -0.19834424743424794
v -0.17608731358163376 0.8506947588763608 -0.29711145857075266
v -0.22500000531127382 1.152678969270856 -0.21581940631363103
v -0.2380526256468636 1.1440379562114942 -0.3145866174501357
v -0.22499999699027823 0.8600467770628709 -0.19021740280709049
v -0.23805261732586802 0.8514057640035093 -0.28898461394359515
v -0.2843133497149662 1.053894550343539 -0.3174320207316418
v -0.26783847819914236 1.1489413427439044 -0.2910751267010665
v -0.28928511398539736 1.0577514219972746 -0.3282327661265616
v -0.2728102424695736 1.1527982143976394 -0.3018758720959864
v -0.340724917854324 1.0562395817753227 -0.29062743516046513
v -0.32425004633850024 1.1512863741756878 -0.26427054112988985
v -0.34569668212475524 1.0600964534290582 -0.3014281805553849
v -0.3292218106089314 1.1551432458294233 -0.27507128652480956
v -0.23064116383936611 1.171592129186 -0.2147731212257487
v -0.2736922745339737 1.1637255776763054 -0.30468818801272257
v -0.23064116348528121 1.1591396954750217 -0.2136836742680235
v -0.27369227417988884 1.151273143965327 -0.30359874105499735
v -0.2870527438090153 1.173937222672768 -0.18796856598104827
v -0.3301038545036229 1.1660706711630728 -0.2778836327680221
v -0.28705274345493037 1.1614847889617894 -0.18687911902332316
v -0.33010385414953797 1.153618237452095 -0.27679418581029697
v -0.07812499999999997 1.0587382134895869 -0.41061345823383394
v -0.07812499999999997 1.061994116820842 -0.42907860360281297
v -0.07812499999999997 0.9848776320136712 -0.4236370715588539
v -0.07812499999999997 0.9881335353449263 -0.4421022169278328
v -0.12812499999999996 1.0587382134895869 -0.41061345823383394
v -0.12812499999999996 1.061994116820842 -0.42907860360281297
v -0.12812499999999996 0.9848776320136712 -0.4236370715588539
v -0.12812499999999996 0.9881335353449263 -0.4421022169278328
v 0.09062500000000001 1.0533117079374954 -0.3798382159522026
v 0.09062500000000001 1.05656761126875 -0.3983033613211815
v 0.09062500000000001 0.9794511264615797 -0.39286182927722235
v 0.09062500000000001 0.9827070297928346 -0.41132697464620127
v 0.04062500000000002 1.0533117079374954 -0.3798382159522026
v 0.04062500000000002 1.05656761126875 -0.3983033613211815
v 0.04062500000000002 0.9794511264615797 -0.39286182927722235
v 0.04062500000000002 0.9827070297928346 -0.41132697464620127
v 0.09375 1.333887445693005 -0.2888331704604562
v 0.09375 1.3344321690851781 -0.2950593873235297
v 0.09375 1.271625277062271 -0.29428040438218483
v 0.09375 1.272170000454444 -0.30050662124525834
v -0.09375 1.333887445693005 -0.2888331704604562
v -0.09375 1.3344321690851781 -0.2950593873235297
v -0.09375 1.271625277062271 -0.29428040438218483
v -0.09375 1.272170000454444 -0.30050662124525834
v 0.15625 1.3542944769323306 -0.13465676216663497
v 0.15625 1.3679125617366523 -0.2903121837434702
v 0.15625 1.1675079710401282 -0.15099846393182087
v 0.15625 1.1811260558444499 -0.30665388550865624
v -0.15625 1.3542944769323306 -0.13465676216663497
v -0.15625 1.3679125617366523 -0.2903121837434702
v -0.15625 1.1675079710401282 -0.15099846393182087
v -0.15625 1.1811260558444499 -0.30665388550865624
v 0.09375 1.2653990601991973 -0.29482512777435776
v 0.09375 1.2659437835913705 -0.30105134463743116
v 0.09375 1.2031368915684633 -0.3002723616960863
v 0.09375 1.2036816149606364 -0.30649857855915985
v -0.09375 1.2653990601991973 -0.29482512777435776
v -0.09375 1.2659437835913705 -0.30105134463743116
v -0.09375 1.2031368915684633 -0.3002723616960863
v -0.09375 1.2036816149606364 -0.30649857855915985
vt 0.486328125 0.6484375
vt 0.486328125 0.671875
vt 0.484375 0.671875
vt 0.484375 0.6484375
vt 0.486328125 0.6171875
vt 0.486328125 0.640625
vt 0.484375 0.640625
vt 0.484375 0.6171875
vt 0.5078125 0.787109375
vt 0.5078125 0.7890625
vt 0.4765625 0.7890625
vt 0.4765625 0.787109375
vt 0.5078125 0.685546875
vt 0.5078125 0.6875
vt 0.4765625 0.6875
vt 0.4765625 0.685546875
vt 0.3359375 0.8828125
vt 0.3359375 0.90625
vt 0.3046875 0.90625
vt 0.3046875 0.8828125
vt 0.3359375 0.8515625
vt 0.3359375 0.875
vt 0.3046875 0.875
vt 0.3046875 0.8515625
vt 0.2109375 0.595703125
vt 0.2109375 0.609375
vt 0.1875 0.609375
vt 0.1875 0.595703125
vt 0.4921875 0.98046875
vt 0.4921875 0.984375
vt 0.4765625 0.984375
vt 0.4765625 0.98046875
vt 0.107421875 0.7890625
vt 0.0703125 0.7890625
vt 0.0703125 0.76171875
vt 0.107421875 0.76171875
vt 0.412109375 0.9765625
vt 0.3828125 0.9765625
vt 0.3828125 0.96484375
vt 0.412109375 0.96484375
vt 0.412109375 0.9765625
vt 0.3828125 0.9765625
vt 0.3828125 0.96484375
vt 0.412109375 0.96484375
vt 0.412109375 0.9765625
vt 0.3828125 0.9765625
vt 0.3828125 0.96484375
vt 0.412109375 0.96484375
vt 0.3828125 0.96484375
vt 0.3828125 0.9765625
vt 0.412109375 0.9765625
vt 0.412109375 0.96484375
vt 0.1328125 0.9296875
vt 0.1328125 0.9375
vt 0.125 0.9375
vt 0.125 0.9296875
vt 0.3828125 0.96484375
vt 0.3828125 0.9765625
vt 0.412109375 0.9765625
vt 0.412109375 0.96484375
vt 0.3828125 0.96484375
vt 0.3828125 0.9765625
vt 0.412109375 0.9765625
vt 0.412109375 0.96484375
vt 0.3828125 0.96484375
vt 0.3828125 0.9765625
vt 0.412109375 0.9765625
vt 0.412109375 0.96484375
vt 0.125 0.5625
vt 0.125 0.578125
vt 0.109375 0.578125
vt 0.109375 0.5625
vt 0.1484375 0.578125
vt 0.1328125 0.578125
vt 0.1328125 0.5625
vt 0.1484375 0.5625
vt 0.1875 0.6328125
vt 0.1875 0.6171875
vt 0.2109375 0.6171875
vt 0.2109375 0.6328125
vt 0.390625 0.78125
vt 0.3671875 0.78125
vt 0.3671875 0.765625
vt 0.390625 0.765625
vt 0.390625 0.7578125
vt 0.3671875 0.7578125
vt 0.3671875 0.7421875
vt 0.390625 0.7421875
vt 0.1484375 0.609375
vt 0.1484375 0.625
vt 0.125 0.625
vt 0.125 0.609375
vt 0.171875 0.5625
vt 0.171875 0.578125
vt 0.15625 0.578125
vt 0.15625 0.5625
vt 0.4375 0.765625
vt 0.421875 0.765625
vt 0.421875 0.75
vt 0.4375 0.75
vt 0.15625 0.625
vt 0.15625 0.609375
vt 0.1796875 0.609375
vt 0.1796875 0.625
vt 0.3984375 0.703125
vt 0.375 0.703125
vt 0.375 0.6875
vt 0.3984375 0.6875
vt 0.3828125 0.625
vt 0.359375 0.625
vt 0.359375 0.609375
vt 0.3828125 0.609375
vt 0.40625 0.984375
vt 0.40625 1
vt 0.3828125 1
vt 0.3828125 0.984375
vt 0.171875 0.5625
vt 0.171875 0.578125
vt 0.15625 0.578125
vt 0.15625 0.5625
vt 0.4375 0.765625
vt 0.421875 0.765625
vt 0.421875 0.75
vt 0.4375 0.75
vt 0.15625 0.625
vt 0.15625 0.609375
vt 0.1796875 0.609375
vt 0.1796875 0.625
vt 0.3984375 0.703125
vt 0.375 0.703125
vt 0.375 0.6875
vt 0.3984375 0.6875
vt 0.3828125 0.625
vt 0.359375 0.625
vt 0.359375 0.609375
vt 0.3828125 0.609375
vt 0.40625 0.984375
vt 0.40625 1
vt 0.3828125 1
vt 0.3828125 0.984375
vt 0.171875 0.8671875
vt 0.15625 0.8671875
vt 0.171875 0.8671875
vt 0.15625 0.8671875
vt 0.171875 0.8671875
vt 0.15625 0.8671875
vt 0.171875 0.8671875
vt 0.15625 0.8671875
vt 0.1171875 0.7890625
vt 0.1171875 0.7734375
vt 0.125 0.7734375
vt 0.125 0.7890625
vt 0.1875 0.6875
vt 0.1875 0.703125
vt 0.1953125 0.703125
vt 0.1953125 0.6875
vt 0.1484375 0.8671875
vt 0.140625 0.8671875
vt 0.1484375 0.8671875
vt 0.140625 0.8671875
vt 0.1484375 0.8671875
vt 0.140625 0.8671875
vt 0.1484375 0.8671875
vt 0.140625 0.8671875
vt 0.0859375 0.634765625
vt 0.0859375 0.6875
vt 0.078125 0.6875
vt 0.078125 0.634765625
vt 0.2890625 0.603515625
vt 0.2890625 0.65625
vt 0.28125 0.65625
vt 0.28125 0.603515625
vt 0.3125 1
vt 0.3125 0.9921875
vt 0.375 0.9921875
vt 0.375 1
vt 0.3125 0.9765625
vt 0.3125 0.984375
vt 0.375 0.984375
vt 0.375 0.9765625
vt 0.1328125 0.869140625
vt 0.1328125 0.921875
vt 0.0703125 0.921875
vt 0.0703125 0.869140625
vt 0.0625 0.869140625
vt 0.0625 0.921875
vt 0 0.921875
vt 0 0.869140625
vt 0.3515625 0.60546875
vt 0.3515625 0.65625
vt 0.34375 0.65625
vt 0.34375 0.60546875
vt 0.0078125 0.59765625
vt 0.0078125 0.6484375
vt 0 0.6484375
vt 0 0.59765625
vt 0.328125 0.796875
vt 0.328125 0.7890625
vt 0.390625 0.7890625
vt 0.390625 0.796875
vt 0.3203125 0.6640625
vt 0.3203125 0.671875
vt 0.3828125 0.671875
vt 0.3828125 0.6640625
vt 0.0625 0.80859375
vt 0.0625 0.859375
vt 0 0.859375
vt 0 0.80859375
vt 0.1875 0.94921875
vt 0.1875 1
vt 0.125 1
vt 0.125 0.94921875
vt 0.021484375 0.58203125
vt 0.021484375 0.6484375
vt 0.015625 0.6484375
vt 0.015625 0.58203125
vt 0.099609375 0.58203125
vt 0.099609375 0.6484375
vt 0.09375 0.6484375
vt 0.09375 0.58203125
vt 0.3515625 0.8125
vt 0.3515625 0.806640625
vt 0.40234375 0.806640625
vt 0.40234375 0.8125
vt 0.3828125 0.916015625
vt 0.3828125 0.921875
vt 0.43359375 0.921875
vt 0.43359375 0.916015625
vt 0.11328125 0.93359375
vt 0.11328125 1
vt 0.0625 1
vt 0.0625 0.93359375
vt 0.05078125 0.93359375
vt 0.05078125 1
vt 0 1
vt 0 0.93359375
vt 0.115234375 0.5859375
vt 0.115234375 0.6484375
vt 0.109375 0.6484375
vt 0.109375 0.5859375
vt 0.037109375 0.578125
vt 0.037109375 0.640625
vt 0.03125 0.640625
vt 0.03125 0.578125
vt 0.3984375 0.796875
vt 0.3984375 0.791015625
vt 0.44921875 0.791015625
vt 0.44921875 0.796875
vt 0.3984375 0.775390625
vt 0.3984375 0.78125
vt 0.44921875 0.78125
vt 0.44921875 0.775390625
vt 0.12109375 0.796875
vt 0.12109375 0.859375
vt 0.0703125 0.859375
vt 0.0703125 0.796875
vt 0.19140625 0.875
vt 0.19140625 0.9375
vt 0.140625 0.9375
vt 0.140625 0.875
vt 0.0234375 0.541015625
vt 0.0234375 0.5703125
vt 0.015625 0.5703125
vt 0.015625 0.541015625
vt 0.0390625 0.541015625
vt 0.0390625 0.5703125
vt 0.03125 0.5703125
vt 0.03125 0.541015625
vt 0.34375 0.90625
vt 0.34375 0.8984375
vt 0.40625 0.8984375
vt 0.40625 0.90625
vt 0.34375 0.8828125
vt 0.34375 0.890625
vt 0.40625 0.890625
vt 0.40625 0.8828125
vt 0.0625 0.767578125
vt 0.0625 0.796875
vt 0 0.796875
vt 0 0.767578125
vt 0.2578125 0.970703125
vt 0.2578125 1
vt 0.1953125 1
vt 0.1953125 0.970703125
vt 0.3359375 0.572265625
vt 0.3359375 0.609375
vt 0.328125 0.609375
vt 0.328125 0.572265625
vt 0.3671875 0.564453125
vt 0.3671875 0.6015625
vt 0.359375 0.6015625
vt 0.359375 0.564453125
vt 0.34375 0.875
vt 0.34375 0.8671875
vt 0.40625 0.8671875
vt 0.40625 0.875
vt 0.34375 0.8515625
vt 0.34375 0.859375
vt 0.40625 0.859375
vt 0.40625 0.8515625
vt 0.1953125 0.775390625
vt 0.1953125 0.8125
vt 0.1328125 0.8125
vt 0.1328125 0.775390625
vt 0.1953125 0.822265625
vt 0.1953125 0.859375
vt 0.1328125 0.859375
vt 0.1328125 0.822265625
vt 0.005859375 0.541015625
vt 0.005859375 0.5859375
vt 0 0.5859375
vt 0 0.541015625
vt 0.419921875 0.830078125
vt 0.419921875 0.875
vt 0.4140625 0.875
vt 0.4140625 0.830078125
vt 0.15625 0.53125
vt 0.15625 0.525390625
vt 0.173828125 0.525390625
vt 0.173828125 0.53125
vt 0.46875 0.837890625
vt 0.46875 0.84375
vt 0.486328125 0.84375
vt 0.486328125 0.837890625
vt 0.251953125 0.666015625
vt 0.251953125 0.7109375
vt 0.234375 0.7109375
vt 0.234375 0.666015625
vt 0.306640625 0.728515625
vt 0.306640625 0.7734375
vt 0.2890625 0.7734375
vt 0.2890625 0.728515625
vt 0.2734375 0.51953125
vt 0.2734375 0.53125
vt 0.265625 0.53125
vt 0.265625 0.51953125
vt 0.4765625 0.64453125
vt 0.4765625 0.65625
vt 0.46875 0.65625
vt 0.46875 0.64453125
vt 0.4609375 0.9453125
vt 0.4609375 0.9375
vt 0.4765625 0.9375
vt 0.4765625 0.9453125
vt 0.4609375 0.6640625
vt 0.4609375 0.671875
vt 0.4765625 0.671875
vt 0.4765625 0.6640625
vt 0.1484375 0.54296875
vt 0.1484375 0.5546875
vt 0.1328125 0.5546875
vt 0.1328125 0.54296875
vt 0.125 0.54296875
vt 0.125 0.5546875
vt 0.109375 0.5546875
vt 0.109375 0.54296875
vt 0.1640625 0.7109375
vt 0.1640625 0.734375
vt 0.15625 0.734375
vt 0.15625 0.7109375
vt 0.2734375 0.5390625
vt 0.2734375 0.5625
vt 0.265625 0.5625
vt 0.265625 0.5390625
vt 0.4609375 0.5625
vt 0.4609375 0.5546875
vt 0.4765625 0.5546875
vt 0.4765625 0.5625
vt 0.46875 0.9921875
vt 0.46875 1
vt 0.484375 1
vt 0.484375 0.9921875
vt 0.3671875 0.6796875
vt 0.3671875 0.703125
vt 0.3515625 0.703125
vt 0.3515625 0.6796875
vt 0.25 0.71875
vt 0.25 0.7421875
vt 0.234375 0.7421875
vt 0.234375 0.71875
vt 0.224609375 0.578125
vt 0.224609375 0.6328125
vt 0.21875 0.6328125
vt 0.21875 0.578125
vt 0.076171875 0.5703125
vt 0.076171875 0.625
vt 0.0703125 0.625
vt 0.0703125 0.5703125
vt 0.46875 0.828125
vt 0.46875 0.822265625
vt 0.486328125 0.822265625
vt 0.486328125 0.828125
vt 0.1875 0.525390625
vt 0.1875 0.53125
vt 0.205078125 0.53125
vt 0.205078125 0.525390625
vt 0.267578125 0.78125
vt 0.267578125 0.8359375
vt 0.25 0.8359375
vt 0.25 0.78125
vt 0.189453125 0.7109375
vt 0.189453125 0.765625
vt 0.171875 0.765625
vt 0.171875 0.7109375
vt 0.193359375 0.541015625
vt 0.193359375 0.5859375
vt 0.1875 0.5859375
vt 0.1875 0.541015625
vt 0.208984375 0.541015625
vt 0.208984375 0.5859375
vt 0.203125 0.5859375
vt 0.203125 0.541015625
vt 0.46875 0.7734375
vt 0.46875 0.767578125
vt 0.486328125 0.767578125
vt 0.486328125 0.7734375
vt 0.46875 0.751953125
vt 0.46875 0.7578125
vt 0.486328125 0.7578125
vt 0.486328125 0.751953125
vt 0.111328125 0.658203125
vt 0.111328125 0.703125
vt 0.09375 0.703125
vt 0.09375 0.658203125
vt 0.283203125 0.666015625
vt 0.283203125 0.7109375
vt 0.265625 0.7109375
vt 0.265625 0.666015625
vt 0.4140625 0.51953125
vt 0.4140625 0.53125
vt 0.40625 0.53125
vt 0.40625 0.51953125
vt 0.4296875 0.51953125
vt 0.4296875 0.53125
vt 0.421875 0.53125
vt 0.421875 0.51953125
vt 0.46875 0.96875
vt 0.46875 0.9609375
vt 0.484375 0.9609375
vt 0.484375 0.96875
vt 0.109375 0.5234375
vt 0.109375 0.53125
vt 0.125 0.53125
vt 0.125 0.5234375
vt 0.4609375 0.75390625
vt 0.4609375 0.765625
vt 0.4453125 0.765625
vt 0.4453125 0.75390625
vt 0.171875 0.54296875
vt 0.171875 0.5546875
vt 0.15625 0.5546875
vt 0.15625 0.54296875
vt 0.453125 0.6640625
vt 0.453125 0.6875
vt 0.4453125 0.6875
vt 0.4453125 0.6640625
vt 0.3671875 0.53125
vt 0.3671875 0.5546875
vt 0.359375 0.5546875
vt 0.359375 0.53125
vt 0.1328125 0.53125
vt 0.1328125 0.5234375
vt 0.1484375 0.5234375
vt 0.1484375 0.53125
vt 0.46875 0.8515625
vt 0.46875 0.859375
vt 0.484375 0.859375
vt 0.484375 0.8515625
vt 0.375 0.6328125
vt 0.375 0.65625
vt 0.359375 0.65625
vt 0.359375 0.6328125
vt 0.0625 0.6171875
vt 0.0625 0.640625
vt 0.046875 0.640625
vt 0.046875 0.6171875
vt 0.302734375 0.5703125
vt 0.302734375 0.625
vt 0.296875 0.625
vt 0.296875 0.5703125
vt 0.052734375 0.5546875
vt 0.052734375 0.609375
vt 0.046875 0.609375
vt 0.046875 0.5546875
vt 0.46875 0.7421875
vt 0.46875 0.736328125
vt 0.486328125 0.736328125
vt 0.486328125 0.7421875
vt 0.46875 0.720703125
vt 0.46875 0.7265625
vt 0.486328125 0.7265625
vt 0.486328125 0.720703125
vt 0.275390625 0.71875
vt 0.275390625 0.7734375
vt 0.2578125 0.7734375
vt 0.2578125 0.71875
vt 0.220703125 0.6875
vt 0.220703125 0.7421875
vt 0.203125 0.7421875
vt 0.203125 0.6875
vt 0.2421875 0.923828125
vt 0.2421875 0.9609375
vt 0.203125 0.9609375
vt 0.203125 0.923828125
vt 0.2421875 0.876953125
vt 0.2421875 0.9140625
vt 0.203125 0.9140625
vt 0.203125 0.876953125
vt 0.28125 0.546875
vt 0.28125 0.5078125
vt 0.28515625 0.5078125
vt 0.28515625 0.546875
vt 0.34375 0.5078125
vt 0.34375 0.546875
vt 0.34765625 0.546875
vt 0.34765625 0.5078125
vt 0.08203125 0.501953125
vt 0.08203125 0.5390625
vt 0.078125 0.5390625
vt 0.078125 0.501953125
vt 0.06640625 0.501953125
vt 0.06640625 0.5390625
vt 0.0625 0.5390625
vt 0.0625 0.501953125
vt 0.2421875 0.830078125
vt 0.2421875 0.8671875
vt 0.203125 0.8671875
vt 0.203125 0.830078125
vt 0.2421875 0.783203125
vt 0.2421875 0.8203125
vt 0.203125 0.8203125
vt 0.203125 0.783203125
vt 0.4375 0.546875
vt 0.4375 0.5078125
vt 0.44140625 0.5078125
vt 0.44140625 0.546875
vt 0.453125 0.5078125
vt 0.453125 0.546875
vt 0.45703125 0.546875
vt 0.45703125 0.5078125
vt 0.46484375 0.869140625
vt 0.46484375 0.90625
vt 0.4609375 0.90625
vt 0.4609375 0.869140625
vt 0.09765625 0.501953125
vt 0.09765625 0.5390625
vt 0.09375 0.5390625
vt 0.09375 0.501953125
vt 0.3359375 0.736328125
vt 0.3359375 0.7734375
vt 0.3203125 0.7734375
vt 0.3203125 0.736328125
vt 0.34375 0.806640625
vt 0.34375 0.84375
vt 0.328125 0.84375
vt 0.328125 0.806640625
vt 0.484375 0.953125
vt 0.484375 0.9375
vt 0.48828125 0.9375
vt 0.48828125 0.953125
vt 0.109375 0.5
vt 0.109375 0.515625
vt 0.11328125 0.515625
vt 0.11328125 0.5
vt 0.23828125 0.501953125
vt 0.23828125 0.5390625
vt 0.234375 0.5390625
vt 0.234375 0.501953125
vt 0.22265625 0.501953125
vt 0.22265625 0.5390625
vt 0.21875 0.5390625
vt 0.21875 0.501953125
vt 0.34375 0.689453125
vt 0.34375 0.7265625
vt 0.328125 0.7265625
vt 0.328125 0.689453125
vt 0.3125 0.634765625
vt 0.3125 0.671875
vt 0.296875 0.671875
vt 0.296875 0.634765625
vt 0.125 0.515625
vt 0.125 0.5
vt 0.12890625 0.5
vt 0.12890625 0.515625
vt 0.140625 0.5
vt 0.140625 0.515625
vt 0.14453125 0.515625
vt 0.14453125 0.5
vt 0.30078125 0.501953125
vt 0.30078125 0.5390625
vt 0.296875 0.5390625
vt 0.296875 0.501953125
vt 0.25390625 0.501953125
vt 0.25390625 0.5390625
vt 0.25 0.5390625
vt 0.25 0.501953125
vt 0.3046875 0.9765625
vt 0.3046875 1
vt 0.265625 1
vt 0.265625 0.9765625
vt 0.1484375 0.7109375
vt 0.1484375 0.734375
vt 0.109375 0.734375
vt 0.109375 0.7109375
vt 0.234375 0.609375
vt 0.234375 0.5703125
vt 0.2421875 0.5703125
vt 0.2421875 0.609375
vt 0.25 0.5703125
vt 0.25 0.609375
vt 0.2578125 0.609375
vt 0.2578125 0.5703125
vt 0.3984375 0.53125
vt 0.3984375 0.5546875
vt 0.390625 0.5546875
vt 0.390625 0.53125
vt 0.3828125 0.53125
vt 0.3828125 0.5546875
vt 0.375 0.5546875
vt 0.375 0.53125
vt 0.0390625 0.703125
vt 0.0390625 0.7265625
vt 0 0.7265625
vt 0 0.703125
vt 0.0859375 0.6953125
vt 0.0859375 0.71875
vt 0.046875 0.71875
vt 0.046875 0.6953125
vt 0.265625 0.609375
vt 0.265625 0.5703125
vt 0.2734375 0.5703125
vt 0.2734375 0.609375
vt 0.3125 0.5703125
vt 0.3125 0.609375
vt 0.3203125 0.609375
vt 0.3203125 0.5703125
vt 0.4609375 0.828125
vt 0.4609375 0.8515625
vt 0.453125 0.8515625
vt 0.453125 0.828125
vt 0.0546875 0.5234375
vt 0.0546875 0.546875
vt 0.046875 0.546875
vt 0.046875 0.5234375
vt 0.466796875 0.78125
vt 0.466796875 0.8046875
vt 0.4609375 0.8046875
vt 0.4609375 0.78125
vt 0.466796875 0.6796875
vt 0.466796875 0.703125
vt 0.4609375 0.703125
vt 0.4609375 0.6796875
vt 0.40625 0.703125
vt 0.40625 0.697265625
vt 0.44921875 0.697265625
vt 0.44921875 0.703125
vt 0.4140625 0.994140625
vt 0.4140625 1
vt 0.45703125 1
vt 0.45703125 0.994140625
vt 0.16015625 0.7421875
vt 0.16015625 0.765625
vt 0.1171875 0.765625
vt 0.1171875 0.7421875
vt 0.24609375 0.75
vt 0.24609375 0.7734375
vt 0.203125 0.7734375
vt 0.203125 0.75
vt 0.318359375 0.515625
vt 0.318359375 0.5390625
vt 0.3125 0.5390625
vt 0.3125 0.515625
vt 0.333984375 0.515625
vt 0.333984375 0.5390625
vt 0.328125 0.5390625
vt 0.328125 0.515625
vt 0.4140625 0.8203125
vt 0.4140625 0.814453125
vt 0.45703125 0.814453125
vt 0.45703125 0.8203125
vt 0.4140625 0.728515625
vt 0.4140625 0.734375
vt 0.45703125 0.734375
vt 0.45703125 0.728515625
vt 0.29296875 0.9375
vt 0.29296875 0.9609375
vt 0.25 0.9609375
vt 0.25 0.9375
vt 0.04296875 0.734375
vt 0.04296875 0.7578125
vt 0 0.7578125
vt 0 0.734375
vt 0.466796875 0.5703125
vt 0.466796875 0.59375
vt 0.4609375 0.59375
vt 0.4609375 0.5703125
vt 0.005859375 0.5078125
vt 0.005859375 0.53125
vt 0 0.53125
vt 0 0.5078125
vt 0.4140625 0.71875
vt 0.4140625 0.712890625
vt 0.45703125 0.712890625
vt 0.45703125 0.71875
vt 0.4140625 0.650390625
vt 0.4140625 0.65625
vt 0.45703125 0.65625
vt 0.45703125 0.650390625
vt 0.29296875 0.90625
vt 0.29296875 0.9296875
vt 0.25 0.9296875
vt 0.25 0.90625
vt 0.09765625 0.7265625
vt 0.09765625 0.75
vt 0.0546875 0.75
vt 0.0546875 0.7265625
vt 0.021484375 0.5078125
vt 0.021484375 0.53125
vt 0.015625 0.53125
vt 0.015625 0.5078125
vt 0.037109375 0.5078125
vt 0.037109375 0.53125
vt 0.03125 0.53125
vt 0.03125 0.5078125
vt 0.4140625 0.640625
vt 0.4140625 0.634765625
vt 0.45703125 0.634765625
vt 0.45703125 0.640625
vt 0.421875 0.978515625
vt 0.421875 0.984375
vt 0.46484375 0.984375
vt 0.46484375 0.978515625
vt 0.29296875 0.84375
vt 0.29296875 0.8671875
vt 0.25 0.8671875
vt 0.25 0.84375
vt 0.29296875 0.875
vt 0.29296875 0.8984375
vt 0.25 0.8984375
vt 0.25 0.875
vt 0.1015625 0.712890625
vt 0.1015625 0.71875
vt 0.09375 0.71875
vt 0.09375 0.712890625
vt 0.4296875 0.962890625
vt 0.4296875 0.96875
vt 0.421875 0.96875
vt 0.421875 0.962890625
vt 0.484375 0.609375
vt 0.484375 0.6015625
vt 0.490234375 0.6015625
vt 0.490234375 0.609375
vt 0.484375 0.5625
vt 0.484375 0.5703125
vt 0.490234375 0.5703125
vt 0.490234375 0.5625
vt 0.498046875 0.861328125
vt 0.498046875 0.8671875
vt 0.4921875 0.8671875
vt 0.4921875 0.861328125
vt 0.498046875 0.876953125
vt 0.498046875 0.8828125
vt 0.4921875 0.8828125
vt 0.4921875 0.876953125
vt 0.43359375 0.66796875
vt 0.43359375 0.6875
vt 0.421875 0.6875
vt 0.421875 0.66796875
vt 0.09765625 0.55078125
vt 0.09765625 0.5703125
vt 0.0859375 0.5703125
vt 0.0859375 0.55078125
vt 0.421875 0.625
vt 0.421875 0.61328125
vt 0.44140625 0.61328125
vt 0.44140625 0.625
vt 0.4296875 0.86328125
vt 0.4296875 0.875
vt 0.44921875 0.875
vt 0.44921875 0.86328125
vt 0.37109375 0.91796875
vt 0.37109375 0.9375
vt 0.3515625 0.9375
vt 0.3515625 0.91796875
vt 0.37109375 0.94921875
vt 0.37109375 0.96875
vt 0.3515625 0.96875
vt 0.3515625 0.94921875
vt 0.380859375 0.498046875
vt 0.380859375 0.5
vt 0.3671875 0.5
vt 0.3671875 0.498046875
vt 0.513671875 0.623046875
vt 0.513671875 0.625
vt 0.5 0.625
vt 0.5 0.623046875
vt 0.4375 0.9453125
vt 0.4375 0.931640625
vt 0.453125 0.931640625
vt 0.453125 0.9453125
vt 0.0625 0.548828125
vt 0.0625 0.5625
vt 0.078125 0.5625
vt 0.078125 0.548828125
vt 0.515625 0.849609375
vt 0.515625 0.8515625
vt 0.5 0.8515625
vt 0.5 0.849609375
vt 0.515625 0.951171875
vt 0.515625 0.953125
vt 0.5 0.953125
vt 0.5 0.951171875
vt 0.513671875 0.607421875
vt 0.513671875 0.609375
vt 0.5 0.609375
vt 0.5 0.607421875
vt 0.513671875 0.576171875
vt 0.513671875 0.578125
vt 0.5 0.578125
vt 0.5 0.576171875
vt 0.4375 0.90625
vt 0.4375 0.892578125
vt 0.453125 0.892578125
vt 0.453125 0.90625
vt 0.21875 0.548828125
vt 0.21875 0.5625
vt 0.234375 0.5625
vt 0.234375 0.548828125
vt 0.515625 0.771484375
vt 0.515625 0.7734375
vt 0.5 0.7734375
vt 0.5 0.771484375
vt 0.515625 0.833984375
vt 0.515625 0.8359375
vt 0.5 0.8359375
vt 0.5 0.833984375
vt 0.44140625 0.83203125
vt 0.44140625 0.8515625
vt 0.4296875 0.8515625
vt 0.4296875 0.83203125
vt 0.44140625 0.58203125
vt 0.44140625 0.6015625
vt 0.4296875 0.6015625
vt 0.4296875 0.58203125
vt 0.40625 0.5703125
vt 0.40625 0.55859375
vt 0.42578125 0.55859375
vt 0.42578125 0.5703125
vt 0.4375 0.95703125
vt 0.4375 0.96875
vt 0.45703125 0.96875
vt 0.45703125 0.95703125
vt 0.37109375 0.71484375
vt 0.37109375 0.734375
vt 0.3515625 0.734375
vt 0.3515625 0.71484375
vt 0.37109375 0.82421875
vt 0.37109375 0.84375
vt 0.3515625 0.84375
vt 0.3515625 0.82421875
vt 0.451171875 0.498046875
vt 0.451171875 0.5
vt 0.4375 0.5
vt 0.4375 0.498046875
vt 0.474609375 0.498046875
vt 0.474609375 0.5
vt 0.4609375 0.5
vt 0.4609375 0.498046875
vt 0.2421875 0.5625
vt 0.2421875 0.548828125
vt 0.2578125 0.548828125
vt 0.2578125 0.5625
vt 0.296875 0.548828125
vt 0.296875 0.5625
vt 0.3125 0.5625
vt 0.3125 0.548828125
vt 0.515625 0.740234375
vt 0.515625 0.7421875
vt 0.5 0.7421875
vt 0.5 0.740234375
vt 0.515625 0.755859375
vt 0.515625 0.7578125
vt 0.5 0.7578125
vt 0.5 0.755859375
vt 0.044921875 0.490234375
vt 0.044921875 0.4921875
vt 0.03125 0.4921875
vt 0.03125 0.490234375
vt 0.068359375 0.490234375
vt 0.068359375 0.4921875
vt 0.0546875 0.4921875
vt 0.0546875 0.490234375
vt 0.3203125 0.5625
vt 0.3203125 0.548828125
vt 0.3359375 0.548828125
vt 0.3359375 0.5625
vt 0.4375 0.556640625
vt 0.4375 0.5703125
vt 0.453125 0.5703125
vt 0.453125 0.556640625
vt 0.515625 0.724609375
vt 0.515625 0.7265625
vt 0.5 0.7265625
vt 0.5 0.724609375
vt 0.28125 0.498046875
vt 0.28125 0.5
vt 0.265625 0.5
vt 0.265625 0.498046875
vt 0.509765625 0.810546875
vt 0.509765625 0.8125
vt 0.4921875 0.8125
vt 0.4921875 0.810546875
vt 0.509765625 0.708984375
vt 0.509765625 0.7109375
vt 0.4921875 0.7109375
vt 0.4921875 0.708984375
vt 0.3828125 0.953125
vt 0.3828125 0.935546875
vt 0.40234375 0.935546875
vt 0.40234375 0.953125
vt 0.3828125 0.826171875
vt 0.3828125 0.84375
vt 0.40234375 0.84375
vt 0.40234375 0.826171875
vt 0.51171875 0.927734375
vt 0.51171875 0.9296875
vt 0.4921875 0.9296875
vt 0.4921875 0.927734375
vt 0.51171875 0.966796875
vt 0.51171875 0.96875
vt 0.4921875 0.96875
vt 0.4921875 0.966796875
vt 0.330078125 0.505859375
vt 0.330078125 0.5078125
vt 0.3125 0.5078125
vt 0.3125 0.505859375
vt 0.423828125 0.505859375
vt 0.423828125 0.5078125
vt 0.40625 0.5078125
vt 0.40625 0.505859375
vt 0.3984375 0.765625
vt 0.3984375 0.748046875
vt 0.4140625 0.748046875
vt 0.4140625 0.765625
vt 0.40625 0.583984375
vt 0.40625 0.6015625
vt 0.421875 0.6015625
vt 0.421875 0.583984375
vt 0.359375 0.498046875
vt 0.359375 0.5
vt 0.34375 0.5
vt 0.34375 0.498046875
vt 0.515625 0.669921875
vt 0.515625 0.671875
vt 0.5 0.671875
vt 0.5 0.669921875
vt 0.046875 0.6484375
vt 0.046875 0.6875
vt 0.03125 0.6875
vt 0.03125 0.6484375
vt 0.0703125 0.6484375
vt 0.0703125 0.6875
vt 0.0546875 0.6875
vt 0.0546875 0.6484375
vt 0.390625 0.6796875
vt 0.390625 0.6640625
vt 0.41015625 0.6640625
vt 0.41015625 0.6796875
vt 0.390625 0.609375
vt 0.390625 0.625
vt 0.41015625 0.625
vt 0.41015625 0.609375
vt 0.17578125 0.6640625
vt 0.17578125 0.703125
vt 0.15625 0.703125
vt 0.15625 0.6640625
vt 0.14453125 0.6640625
vt 0.14453125 0.703125
vt 0.125 0.703125
vt 0.125 0.6640625
vt 0.509765625 0.591796875
vt 0.509765625 0.59375
vt 0.4921875 0.59375
vt 0.4921875 0.591796875
vt 0.501953125 0.505859375
vt 0.501953125 0.5078125
vt 0.484375 0.5078125
vt 0.484375 0.505859375
vt 0.4140625 0.953125
vt 0.4140625 0.935546875
vt 0.4296875 0.935546875
vt 0.4296875 0.953125
vt 0.4140625 0.888671875
vt 0.4140625 0.90625
vt 0.4296875 0.90625
vt 0.4296875 0.888671875
vt 0.515625 0.638671875
vt 0.515625 0.640625
vt 0.5 0.640625
vt 0.5 0.638671875
vt 0.515625 0.654296875
vt 0.515625 0.65625
vt 0.5 0.65625
vt 0.5 0.654296875
vt 0.017578125 0.498046875
vt 0.017578125 0.5
vt 0 0.5
vt 0 0.498046875
vt 0.517578125 0.982421875
vt 0.517578125 0.984375
vt 0.5 0.984375
vt 0.5 0.982421875
vt 0.3828125 0.734375
vt 0.3828125 0.716796875
vt 0.40234375 0.716796875
vt 0.40234375 0.734375
vt 0.3828125 0.638671875
vt 0.3828125 0.65625
vt 0.40234375 0.65625
vt 0.40234375 0.638671875
vt 0.51171875 0.896484375
vt 0.51171875 0.8984375
vt 0.4921875 0.8984375
vt 0.4921875 0.896484375
vt 0.51171875 0.912109375
vt 0.51171875 0.9140625
vt 0.4921875 0.9140625
vt 0.4921875 0.912109375
vt 0.203125 0.640625
vt 0.203125 0.6796875
vt 0.1875 0.6796875
vt 0.1875 0.640625
vt 0.2265625 0.640625
vt 0.2265625 0.6796875
vt 0.2109375 0.6796875
vt 0.2109375 0.640625
vt 0.125 0.6015625
vt 0.125 0.5859375
vt 0.14453125 0.5859375
vt 0.14453125 0.6015625
vt 0.15625 0.5859375
vt 0.15625 0.6015625
vt 0.17578125 0.6015625
vt 0.17578125 0.5859375
vt 0.01953125 0.65625
vt 0.01953125 0.6953125
vt 0 0.6953125
vt 0 0.65625
vt 0.31640625 0.6796875
vt 0.31640625 0.71875
vt 0.296875 0.71875
vt 0.296875 0.6796875
vt 0.35546875 0.744140625
vt 0.35546875 0.78125
vt 0.34375 0.78125
vt 0.34375 0.744140625
vt 0.24609375 0.619140625
vt 0.24609375 0.65625
vt 0.234375 0.65625
vt 0.234375 0.619140625
vt 0.46875 0.546875
vt 0.46875 0.53515625
vt 0.4765625 0.53515625
vt 0.4765625 0.546875
vt 0.4765625 0.91796875
vt 0.4765625 0.9296875
vt 0.484375 0.9296875
vt 0.484375 0.91796875
vt 0.3984375 0.564453125
vt 0.3984375 0.6015625
vt 0.390625 0.6015625
vt 0.390625 0.564453125
vt 0.3828125 0.564453125
vt 0.3828125 0.6015625
vt 0.375 0.6015625
vt 0.375 0.564453125
vt 0.08984375 0.490234375
vt 0.08984375 0.4921875
vt 0.078125 0.4921875
vt 0.078125 0.490234375
vt 0.11328125 0.490234375
vt 0.11328125 0.4921875
vt 0.1015625 0.4921875
vt 0.1015625 0.490234375
vt 0.4765625 0.90625
vt 0.4765625 0.89453125
vt 0.484375 0.89453125
vt 0.484375 0.90625
vt 0.4765625 0.87109375
vt 0.4765625 0.8828125
vt 0.484375 0.8828125
vt 0.484375 0.87109375
vt 0.3125 0.490234375
vt 0.3125 0.4921875
vt 0.3046875 0.4921875
vt 0.3046875 0.490234375
vt 0.296875 0.490234375
vt 0.296875 0.4921875
vt 0.2890625 0.4921875
vt 0.2890625 0.490234375
vt 0.51953125 0.880859375
vt 0.51953125 0.8828125
vt 0.5078125 0.8828125
vt 0.5078125 0.880859375
vt 0.13671875 0.490234375
vt 0.13671875 0.4921875
vt 0.125 0.4921875
vt 0.125 0.490234375
vt 0.4765625 0.8125
vt 0.4765625 0.80078125
vt 0.484375 0.80078125
vt 0.484375 0.8125
vt 0.4765625 0.69921875
vt 0.4765625 0.7109375
vt 0.484375 0.7109375
vt 0.484375 0.69921875
vt 0.4140625 0.490234375
vt 0.4140625 0.4921875
vt 0.40625 0.4921875
vt 0.40625 0.490234375
vt 0.328125 0.490234375
vt 0.328125 0.4921875
vt 0.3203125 0.4921875
vt 0.3203125 0.490234375
vt 0.26953125 0.619140625
vt 0.26953125 0.65625
vt 0.2578125 0.65625
vt 0.2578125 0.619140625
vt 0.33203125 0.619140625
vt 0.33203125 0.65625
vt 0.3203125 0.65625
vt 0.3203125 0.619140625
vt 0.359375 0.5234375
vt 0.359375 0.51171875
vt 0.3671875 0.51171875
vt 0.3671875 0.5234375
vt 0.375 0.51171875
vt 0.375 0.5234375
vt 0.3828125 0.5234375
vt 0.3828125 0.51171875
vt 0.3515625 0.556640625
vt 0.3515625 0.59375
vt 0.34375 0.59375
vt 0.34375 0.556640625
vt 0.2890625 0.556640625
vt 0.2890625 0.59375
vt 0.28125 0.59375
vt 0.28125 0.556640625
vt 0.51953125 0.865234375
vt 0.51953125 0.8671875
vt 0.5078125 0.8671875
vt 0.5078125 0.865234375
vt 0.16015625 0.490234375
vt 0.16015625 0.4921875
vt 0.1484375 0.4921875
vt 0.1484375 0.490234375
vt 0.390625 0.5234375
vt 0.390625 0.51171875
vt 0.3984375 0.51171875
vt 0.3984375 0.5234375
vt 0.4765625 0.58203125
vt 0.4765625 0.59375
vt 0.484375 0.59375
vt 0.484375 0.58203125
vt 0.4921875 0.490234375
vt 0.4921875 0.4921875
vt 0.484375 0.4921875
vt 0.484375 0.490234375
vt 0.4296875 0.490234375
vt 0.4296875 0.4921875
vt 0.421875 0.4921875
vt 0.421875 0.490234375
vt 0.18359375 0.490234375
vt 0.18359375 0.4921875
vt 0.171875 0.4921875
vt 0.171875 0.490234375
vt 0.20703125 0.490234375
vt 0.20703125 0.4921875
vt 0.1953125 0.4921875
vt 0.1953125 0.490234375
vt 0.46875 0.5234375
vt 0.46875 0.51171875
vt 0.4765625 0.51171875
vt 0.4765625 0.5234375
vt 0.046875 0.50390625
vt 0.046875 0.515625
vt 0.0546875 0.515625
vt 0.0546875 0.50390625
vt 0.0078125 0.482421875
vt 0.0078125 0.484375
vt 0 0.484375
vt 0 0.482421875
vt 0.5078125 0.490234375
vt 0.5078125 0.4921875
vt 0.5 0.4921875
vt 0.5 0.490234375
vt 0.392578125 0.490234375
vt 0.392578125 0.5
vt 0.390625 0.5
vt 0.390625 0.490234375
vt 0.220703125 0.482421875
vt 0.220703125 0.4921875
vt 0.21875 0.4921875
vt 0.21875 0.482421875
vt 0.3359375 0.484375
vt 0.3359375 0.482421875
vt 0.341796875 0.482421875
vt 0.341796875 0.484375
vt 0.3515625 0.482421875
vt 0.3515625 0.484375
vt 0.357421875 0.484375
vt 0.357421875 0.482421875
vt 0.177734375 0.505859375
vt 0.177734375 0.515625
vt 0.171875 0.515625
vt 0.171875 0.505859375
vt 0.162109375 0.505859375
vt 0.162109375 0.515625
vt 0.15625 0.515625
vt 0.15625 0.505859375
vt 0.236328125 0.482421875
vt 0.236328125 0.4921875
vt 0.234375 0.4921875
vt 0.234375 0.482421875
vt 0.251953125 0.482421875
vt 0.251953125 0.4921875
vt 0.25 0.4921875
vt 0.25 0.482421875
vt 0.3671875 0.484375
vt 0.3671875 0.482421875
vt 0.373046875 0.482421875
vt 0.373046875 0.484375
vt 0.4375 0.482421875
vt 0.4375 0.484375
vt 0.443359375 0.484375
vt 0.443359375 0.482421875
vt 0.208984375 0.505859375
vt 0.208984375 0.515625
vt 0.203125 0.515625
vt 0.203125 0.505859375
vt 0.193359375 0.505859375
vt 0.193359375 0.515625
vt 0.1875 0.515625
vt 0.1875 0.505859375
vt 0.017578125 0.4765625
vt 0.017578125 0.484375
vt 0.015625 0.484375
vt 0.015625 0.4765625
vt 0.517578125 0.7890625
vt 0.517578125 0.796875
vt 0.515625 0.796875
vt 0.515625 0.7890625
vt 0.484375 0.5546875
vt 0.484375 0.552734375
vt 0.5078125 0.552734375
vt 0.5078125 0.5546875
vt 0.484375 0.537109375
vt 0.484375 0.5390625
vt 0.5078125 0.5390625
vt 0.5078125 0.537109375
vt 0.4765625 0.6171875
vt 0.4765625 0.625
vt 0.453125 0.625
vt 0.453125 0.6171875
vt 0.46875 0.9140625
vt 0.46875 0.921875
vt 0.4453125 0.921875
vt 0.4453125 0.9140625
vt 0.14453125 0.6328125
vt 0.14453125 0.65625
vt 0.125 0.65625
vt 0.125 0.6328125
vt 0.17578125 0.6328125
vt 0.17578125 0.65625
vt 0.15625 0.65625
vt 0.15625 0.6328125
vt 0.3046875 0.96875
vt 0.3046875 0.94921875
vt 0.34375 0.94921875
vt 0.34375 0.96875
vt 0.3046875 0.91796875
vt 0.3046875 0.9375
vt 0.34375 0.9375
vt 0.34375 0.91796875
vt 0.3203125 0.78125
vt 0.3203125 0.8046875
vt 0.28125 0.8046875
vt 0.28125 0.78125
vt 0.3203125 0.8125
vt 0.3203125 0.8359375
vt 0.28125 0.8359375
vt 0.28125 0.8125
vt 0.267578125 0.4765625
vt 0.267578125 0.484375
vt 0.265625 0.484375
vt 0.265625 0.4765625
vt 0.517578125 0.6875
vt 0.517578125 0.6953125
vt 0.515625 0.6953125
vt 0.515625 0.6875
vt 0.484375 0.5234375
vt 0.484375 0.521484375
vt 0.5078125 0.521484375
vt 0.5078125 0.5234375
vt 0.4921875 0.998046875
vt 0.4921875 1
vt 0.515625 1
vt 0.515625 0.998046875
vt 0.4296875 0.5390625
vt 0.4296875 0.546875
vt 0.40625 0.546875
vt 0.40625 0.5390625
vt 0.4765625 0.6015625
vt 0.4765625 0.609375
vt 0.453125 0.609375
vt 0.453125 0.6015625
vn 1 0 0
vn -1 0 0
vn 0 0.984807753012208 0.17364817766693033
vn 0 -0.984807753012208 -0.17364817766693033
vn 0 -0.17364817766693033 0.984807753012208
vn 0 0.17364817766693033 -0.984807753012208
vn 0 0.17364817766693033 -0.984807753012208
vn -3.965082230804148e-16 -8.326672684688672e-17 1
vn 0.18241992254527467 0.39658156800411865 -0.8996921872384859
vn 0.6886506411953134 0.7082546021924941 -0.1553567277411438
vn 0.6326323410582887 0.7245228735080892 0.27357435334967084
vn 0.007574427126937373 0.17348290307907846 0.984807753012208
vn -0.1166974384097258 0.3821850251218322 -0.9166876864239165
vn 0.011656838934972448 0.390478904878534 -0.9205380725156916
vn -0.6243016616877166 0.7655793377302706 -0.1553567277411439
vn -0.5670786548253707 0.7769033868060805 0.2735743533496697
vn 0.007574427126938592 0.17348290307907788 0.984807753012208
vn 0.8828746194023206 0.004691178092517012 0.46958534822044007
vn -0.8828746194023207 -0.004691178092516457 -0.46958534822043996
vn -0.1246898906195665 0.9663993631848747 0.2247770050809226
vn 0.12468989061956738 -0.9663993631848743 -0.2247770050809241
vn 0.45275251251924326 0.2570024585173709 -0.8537944124457242
vn -0.45275251251924337 -0.25700245851737075 0.8537944124457244
vn 0.8828745992329412 0.00469120386070547 0.469585385883772
vn -0.8828745992329413 -0.004691203860705095 -0.4695853858837717
vn -0.02783263722205959 0.9987150301761526 0.04235130228826336
vn 0.02783263722205876 -0.9987150301761527 -0.042351302288261776
vn 0.46878330424039094 0.050460688724825314 -0.8818707005898753
vn -0.46878330424039055 -0.05046068872482501 0.8818707005898756
vn 0.8828745790088369 0.004691260822440868 0.46958542333835807
vn -0.8828745790088368 -0.004691260822440799 -0.4695854233383581
vn 0.07429037306919789 0.9859631766017836 -0.14952442895580612
vn -0.07429037306919699 -0.9859631766017837 0.1495244289558057
vn 0.46369539377613916 -0.16689699355355814 -0.8701333089438508
vn -0.4636953937761393 0.166896993553558 0.8701333089438509
vn 0 0 0
vn 0 0 0
vn -0.16478837476562297 -0.18954114107389 0.9679457357633807
vn 0.16478837476562308 0.18954114107388997 -0.9679457357633807
vn 0 0 0
vn 0 0 0
vn 1 0 0
vn -1 0 0
vn 0 1 -3.247402347028582e-15
vn 0 -1 -4.163336342344336e-16
vn 0 -2.7755575615628907e-17 1
vn 0 5.5511151231257815e-17 -1
vn 1 0 0
vn -1 0 0
vn 0 1 2.4980018054066017e-16
vn 0 -1 -2.4980018054066017e-16
vn 0 -5.5511151231257815e-17 1
vn 0 5.5511151231257815e-17 -1
vn 1 0 0
vn -1 0 0
vn 0 1 -8.326672684688672e-17
vn 0 -1 3.3306690738754696e-16
vn 0 -8.32667268468867e-17 1
vn 0 -5.5511151231257815e-17 -1
vn 1 0 0
vn -1 0 0
vn 0 0.9993908270190958 0.03489949670250278
vn 0 -0.9993908270190958 -0.034899496702502635
vn 0 -0.03489949670250097 0.9993908270190958
vn 0 0.034899496702500886 -0.9993908270190958
vn 1 0 0
vn -1 0 0
vn 0 0.978147600733805 0.2079116908177625
vn 0 -0.9781476007338057 -0.20791169081775904
vn 0 -0.20791169081775907 0.9781476007338058
vn 0 0.20791169081775926 -0.9781476007338058
vn 1 0 0
vn -1 0 0
vn 0 0.9975640502598239 -0.06975647374413156
vn 0 -0.9975640502598243 0.06975647374412468
vn 0 0.06975647374412511 0.9975640502598243
vn 0 -0.06975647374412546 -0.9975640502598242
vn 0.9574818564260025 0.2812827591472231 0.06409761322811837
vn -0.9574818564260025 -0.2812827591472231 -0.0640976132281172
vn -0.2750563443778323 0.9570859180594433 -0.09127186242109925
vn 0.2750563443778306 -0.9570859180594437 0.09127186242109882
vn -0.0870201242961652 0.06976069709254315 0.9937610090502861
vn 0.08702012429616508 -0.06976069709254301 -0.9937610090502861
vn 0.9574817175661283 0.2812832342492205 0.06409760258320933
vn -0.9574817175661281 -0.28128323424922136 -0.06409760258320925
vn 0.0027991353978144094 0.21311175450296718 -0.9770238200441644
vn -0.0027991353978151683 -0.2131117545029671 0.9770238200441644
vn -0.28848037258649367 0.9356618631872119 0.20326325887723334
vn 0.2884803725864938 -0.9356618631872122 -0.20326325887723123
vn 0.9579455165477694 0.2756990113993281 0.079564077569343
vn -0.9579455165477692 -0.27569901139932945 -0.0795640775693426
vn -0.1318030867310538 0.17646028545825554 0.975443342272711
vn 0.13180308673105245 -0.17646028545825512 -0.9754433422727113
vn 0.2548888653005338 -0.944908367393063 0.20537732001460815
vn -0.25488886530053523 0.9449083673930627 -0.20537732001460732
vn 0.9579455504865693 0.27569868643175666 0.07956479499620252
vn -0.9579455504865693 -0.2756986864317564 -0.07956479499620367
vn -0.286125854285069 0.9387411480584389 0.19208605480764032
vn 0.28612585428506887 -0.9387411480584388 -0.19208605480764018
vn -0.021732874007445276 -0.2067735264528051 0.9781474280217926
vn 0.021732874007444537 0.20677352645280492 -0.9781474280217926
vn 0.9574818564260025 -0.2812827591472232 -0.06409761322811762
vn -0.9574818564260025 0.28128275914722306 0.06409761322811836
vn 0.27505634437783233 0.9570859180594432 -0.09127186242109896
vn -0.27505634437783055 -0.9570859180594438 0.09127186242109943
vn 0.08702012429616512 0.06976069709254291 0.993761009050286
vn -0.08702012429616504 -0.06976069709254298 -0.9937610090502861
vn 0.9574817175661281 -0.28128323424922125 -0.06409760258320976
vn -0.9574817175661283 0.2812832342492203 0.06409760258321022
vn -0.0027991353978146657 0.21311175450296635 -0.9770238200441645
vn 0.002799135397815465 -0.21311175450296613 0.9770238200441647
vn 0.28848037258649367 0.9356618631872123 0.20326325887723146
vn -0.2884803725864938 -0.9356618631872123 -0.20326325887723135
vn 0.9579455165477689 -0.2756990113993295 -0.07956407756934286
vn -0.9579455165477694 0.275699011399328 0.07956407756934268
vn 0.1318030867310541 0.17646028545825676 0.9754433422727109
vn -0.1318030867310529 -0.17646028545825673 -0.975443342272711
vn -0.2548888653005339 -0.9449083673930632 0.20537732001460712
vn 0.2548888653005353 0.9449083673930628 -0.20537732001460718
vn 0.9579455504865693 -0.27569868643175643 -0.07956479499620368
vn -0.9579455504865695 0.27569868643175666 0.07956479499620216
vn 0.2861258542850689 0.9387411480584389 0.19208605480764002
vn -0.286125854285069 -0.9387411480584378 -0.19208605480764485
vn 0.021732874007445346 -0.2067735264528049 0.9781474280217926
vn -0.021732874007444614 0.20677352645280467 -0.9781474280217927
vn 0.9961946980917455 -8.673617379884035e-18 0.08715574274765824
vn -0.9961946980917455 3.469446951953614e-18 -0.08715574274765821
vn -2.9904997296300525e-16 1 0
vn 2.9904997296300515e-16 -1 -5.5511151231257815e-17
vn -0.08715574274765708 1.3877787807814457e-16 0.9961946980917458
vn 0.08715574274765975 -3.3306690738754696e-16 -0.9961946980917455
vn 0.9961946980917455 -2.42861286636753e-17 -0.08715574274765821
vn -0.9961946980917455 6.938893903907228e-18 0.08715574274765824
vn 2.990499729630051e-16 1 -6.661338147750937e-16
vn -5.980999459260105e-16 -1 0
vn 0.08715574274765718 0 0.9961946980917458
vn -0.0871557427476596 2.7755575615628914e-17 -0.9961946980917455
vn 0.8703556959398997 6.938893903907228e-17 -0.4924235601034673
vn -0.8703556959398997 -6.938893903907228e-17 0.49242356010346716
vn -1.0831444142684458e-15 1 8.88178419700125e-16
vn 9.928823797460756e-16 -1 -8.604228440844961e-16
vn 0.4924235601034665 -1.1102230246251563e-16 0.8703556959399
vn -0.4924235601034665 1.1102230246251563e-16 -0.8703556959399
vn 0.8703556959398997 -6.938893903907228e-17 0.4924235601034673
vn -0.8703556959398997 6.938893903907228e-17 -0.49242356010346716
vn 9.928823797460756e-16 1 8.604228440844961e-16
vn -1.0831444142684458e-15 -1 -8.88178419700125e-16
vn -0.4924235601034665 -1.1102230246251563e-16 0.8703556959399
vn 0.4924235601034665 1.1102230246251563e-16 -0.8703556959399
vn 1 0 0
vn -1 0 0
vn 0 1 2.498001805406602e-16
vn 0 -1 8.326672684688672e-17
vn 0 2.775557561562891e-16 1
vn 0 -1.9428902930940235e-16 -1
vn 1 0 0
vn -1 0 0
vn 0 1 2.498001805406602e-16
vn 0 -1 8.326672684688672e-17
vn 0 2.775557561562891e-16 1
vn 0 -1.9428902930940235e-16 -1
vn -2.1147105230955347e-16 -0.17364817766693041 -0.984807753012208
vn 1.4802973661668766e-15 0.1736481776669308 0.9848077530122081
vn -0.1822355254921438 0.968317056156285 -0.170740422880547
vn 0.18223552549214853 -0.9683170561562844 0.17074042288054692
vn 0.9832549075639547 0.17946695837892052 -0.031644866907886746
vn -0.9832549075639547 -0.17946695837892054 0.03164486690788674
vn -1.4802973661668766e-15 0.17364817766693086 0.9848077530122081
vn 2.1147105230955379e-16 -0.17364817766693086 -0.9848077530122081
vn 0.1822355254921442 0.9683170561562849 -0.17074042288054703
vn -0.1822355254921442 -0.968317056156285 0.17074042288054708
vn -0.9832549075639547 0.17946695837892054 -0.03164486690788675
vn 0.9832549075639547 -0.17946695837892046 0.03164486690788674
vn 1 0 0
vn -1 0 0
vn 0 0.936672189248396 -0.35020738125947226
vn 0 -0.9366721892483993 0.3502073812594628
vn 0 0.35020738125946727 0.9366721892483977
vn 0 -0.35020738125946793 -0.9366721892483976
vn 1 0 0
vn -1 0 0
vn 0 0.9999619230641713 0.00872653549837729
vn 0 -0.9999619230641714 -0.008726535498372321
vn 0 -0.00872653549837407 0.9999619230641713
vn 0 0.008726535498374237 -0.9999619230641713
vn 0.9990482211520921 -0.043246235911721574 -0.005693407793948887
vn -0.9990482211520922 0.043246235911721505 0.0056934077939485425
vn 0.042133085622501565 0.9229680693557205 0.3825633882714088
vn -0.04213308562249742 -0.9229680693557194 -0.38256338827141223
vn -0.01128959294073631 -0.38243915336853646 0.9239117052305321
vn 0.011289592940739437 0.3824391533685354 -0.9239117052305326
vn 0.34278523907569824 0.005927683204064142 -0.9393950939001378
vn -0.3427852390756972 -0.005927683204063809 0.9393950939001382
vn -0.10632902011873684 0.9937987912517181 -0.032528479632675154
vn 0.10632902011873928 -0.9937987912517178 0.03252847963267463
vn 0.9333768903033789 0.11103524250640714 0.34128984099902177
vn -0.9333768903033791 -0.11103524250640663 -0.3412898409990218
vn 0.34278523907569847 0.005927683204060339 -0.9393950939001378
vn -0.3427852390756974 -0.005927683204067169 0.9393950939001382
vn -0.10632902011874032 0.9937987912517177 -0.032528479632674016
vn 0.10632902011873864 -0.9937987912517179 0.03252847963267349
vn 0.9333768903033793 0.11103524250640323 0.3412898409990222
vn -0.933376890303379 -0.11103524250640778 -0.34128984099902143
vn 0.34278523907569947 0.00592768320406431 -0.9393950939001374
vn -0.34278523907569713 -0.0059276832040638106 0.9393950939001383
vn 0.9333768903033789 0.11103524250640691 0.341289840999022
vn -0.933376890303379 -0.11103524250640687 -0.3412898409990216
vn 0.1063290201187351 -0.9937987912517183 0.03252847963267235
vn -0.10632902011874336 0.9937987912517173 -0.0325284796326774
vn 0.5105578630122882 -0.08138849720134798 -0.8559828158553369
vn -0.5105578630122882 0.081388497201348 0.8559828158553371
vn -0.09739170046302836 0.9836298090040098 -0.15161548575147385
vn 0.09739170046302814 -0.9836298090040098 0.15161548575147385
vn 0.8543099702082639 0.16077410040812604 0.49427336913970277
vn -0.8543099702082642 -0.1607741004081258 -0.4942733691397028
vn 0.5105578630122888 -0.08138849720134778 -0.8559828158553366
vn -0.5105578630122886 0.08138849720134783 0.8559828158553369
vn -0.09739170046302821 0.9836298090040093 -0.15161548575147563
vn 0.09739170046302886 -0.9836298090040094 0.1516154857514748
vn 0.8543099702082644 0.1607741004081234 0.4942733691397032
vn -0.8543099702082643 -0.1607741004081253 -0.4942733691397027
vn 0.510557863012286 -0.08138849720134875 -0.8559828158553383
vn -0.5105578630122893 0.08138849720134762 0.8559828158553362
vn 0.8543099702082642 0.16077410040812573 0.4942733691397026
vn -0.8543099702082642 -0.16077410040812568 -0.4942733691397028
vn 0.09739170046303579 -0.9836298090040081 0.1516154857514786
vn -0.09739170046303533 0.9836298090040082 -0.15161548575147943
vn 1 0 0
vn -1 0 0
vn 0 0.9998476951563914 -0.017452406437284573
vn 0 -0.9998476951563913 0.01745240643728321
vn 0 0.017452406437278824 0.9998476951563913
vn 0 -0.017452406437286877 -0.9998476951563913
vn 1 0 0
vn -1 0 0
vn 0 -0.1822355254921476 0.9832549075639546
vn 0 0.18223552549214764 -0.9832549075639546
vn 0 -0.9832549075639532 -0.18223552549215508
vn 0 0.9832549075639522 0.1822355254921609
vn 1 0 0
vn -1 0 0
vn 0 0.9998476951563914 -0.01745240643728313
vn 0 -0.9998476951563913 0.017452406437282127
vn 0 0.01745240643728374 0.9998476951563914
vn 0 -0.017452406437283463 -0.9998476951563913
vn 1 0 0
vn -1 0 0
vn 0 -0.3173046564050927 0.9483236552061991
vn 0 0.3173046564050931 -0.948323655206199
vn 0 -0.9483236552062005 -0.31730465640508876
vn 0 0.9483236552061947 0.3173046564051062
vn 1 0 0
vn -1 0 0
vn 0 0.9998476951563914 -0.017452406437284573
vn 0 -0.9998476951563913 0.01745240643728321
vn 0 0.017452406437278824 0.9998476951563913
vn 0 -0.017452406437286877 -0.9998476951563913
vn 0.9996573249755575 -0.0004568507411567645 -0.02617296143185504
vn -0.9996573249755575 0.000456850741156768 0.026172961431854925
vn 8.095376221225101e-16 0.9998476951563914 -0.01745240643728424
vn 7.170190367370801e-16 -0.9998476951563914 0.017452406437284157
vn 0.026176948307873236 0.017446425933481193 0.9995050723230146
vn -0.026176948307873232 -0.01744642593348097 -0.9995050723230146
vn 0.9025852795143867 -0.03752149578828706 -0.42887288391520634
vn -0.9025852795143864 0.03752149578828727 0.4288728839152069
vn -2.8326794278277203e-8 0.9961946968782466 -0.08715575661800962
vn 2.8326794312971683e-8 -0.9961946968782466 0.08715575661800973
vn 0.43051110694607614 0.07866551509694822 0.8991506678697382
vn -0.4305111069460761 -0.07866551509694826 -0.899150667869738
vn 0.9880536829486879 -0.102676750533258 -0.11492347241301465
vn -0.9880536829486879 0.10267675053325785 0.1149234724130146
vn 0.08221873429734779 -0.27952419973555476 0.9566118865520854
vn -0.08221873429735024 0.2795241997355539 -0.9566118865520854
vn -0.1303456916897326 -0.9546327601031366 -0.2677429625513857
vn 0.13034569168973736 0.9546327601031361 0.26774296255138424
vn 0.9935718544050959 -0.009866284682564551 -0.11277245479540639
vn -0.9935718544050957 0.009866284682560834 0.11277245479540668
vn -2.832679167619199e-8 0.9961946968782466 -0.08715575661801025
vn 2.8326794868083215e-8 -0.9961946968782468 0.08715575661800784
vn 0.11320322492764386 0.08659550991951905 0.9897910120463611
vn -0.11320322492764391 -0.08659550991951495 -0.9897910120463616
vn 0.9914448599077481 -0.011376082034375564 -0.1300295140345189
vn -0.991444859907748 0.01137608203437563 0.13002951403451904
vn -2.8326795284416862e-8 0.9961946968782467 -0.08715575661800846
vn 2.8326792161914563e-8 -0.9961946968782466 0.08715575661800967
vn 0.13052620335589843 0.08641013059361617 0.9876721113650465
vn -0.13052620335589654 -0.08641013059361631 -0.9876721113650468
vn 0.9025850902297264 -0.037520502908538936 -0.42887336913882496
vn -0.9025850902297246 0.03752050290853705 0.42887336913882923
vn 0.3977411416344916 -0.30854973229882715 0.8640596315935685
vn -0.3977411416344905 0.30854973229882804 -0.8640596315935687
vn -0.16474871515823963 -0.9504679240036507 -0.2635689403057573
vn 0.16474871515824213 0.9504679240036453 0.2635689403057754
vn 0.9025852795143868 -0.03752149578829282 -0.4288728839152058
vn -0.9025852795143867 0.037521495788284995 0.4288728839152064
vn -2.832679757425181e-8 0.9961946968782468 -0.08715575661800803
vn 2.8326797157918203e-8 -0.9961946968782468 0.0871557566180082
vn 0.43051110694607636 0.07866551509695269 0.8991506678697376
vn -0.4305111069460763 -0.07866551509695005 -0.899150667869738
vn 1 0 0
vn -1 0 0
vn 0 0.984807753012207 0.17364817766693616
vn 0 -0.9848077530122061 -0.17364817766694202
vn 0 -0.1736481776669318 0.9848077530122078
vn 0 0.17364817766693033 -0.984807753012208
vn 1 0 0
vn -1 0 0
vn 0 0.984807753012209 0.1736481776669245
vn 0 -0.984807753012208 -0.17364817766693033
vn 0 -0.17364817766693033 0.984807753012208
vn 0 0.17364817766693033 -0.984807753012208
vn 1 0 0
vn -1 0 0
vn 0 0.9961946980917432 0.08715574274768499
vn 0 -0.9961946980917432 -0.08715574274768499
vn 0 -0.08715574274765818 0.9961946980917457
vn 0 0.08715574274765818 -0.9961946980917457
vn 1 0 0
vn -1 0 0
vn 0 0.9961946980917454 0.08715574274765892
vn 0 -0.9961946980917454 -0.08715574274765897
vn 0 -0.08715574274765829 0.9961946980917455
vn 0 0.08715574274765886 -0.9961946980917455
vn 1 0 0
vn -1 0 0
vn 0 0.9961946980917434 0.08715574274768348
vn 0 -0.9961946980917432 -0.08715574274768499
vn 0 -0.08715574274765642 0.9961946980917457
vn 0 0.08715574274765818 -0.9961946980917457
usemtl m_6724c02f-a14b-7147-69ca-ebd45dce92b8
f 4/1/1 2/2/1 1/3/1 3/4/1
f 7/5/2 5/6/2 6/7/2 8/8/2
f 1/9/3 2/10/3 6/11/3 5/12/3
f 4/13/4 3/14/4 7/15/4 8/16/4
f 3/17/5 1/18/5 5/19/5 7/20/5
f 8/21/6 6/22/6 2/23/6 4/24/6
f 9/25/7 10/26/7 12/27/7 11/28/7
f 13/29/8 14/30/8 16/31/8 15/32/8
f 20/33/9 18/34/9 17/35/9 19/36/9
f 24/37/10 22/38/10 21/39/10 23/40/10
f 28/41/11 26/42/11 25/43/11 27/44/11
f 32/45/12 30/46/12 29/47/12 31/48/12
f 33/49/13 34/50/13 36/51/13 35/52/13
f 37/53/14 38/54/14 40/55/14 39/56/14
f 41/57/15 42/58/15 44/59/15 43/60/15
f 45/61/16 46/62/16 48/63/16 47/64/16
f 49/65/17 50/66/17 52/67/17 51/68/17
f 55/69/18 53/70/18 54/71/18 56/72/18
f 58/73/19 57/74/19 59/75/19 60/76/19
f 54/77/20 53/78/20 57/79/20 58/80/20
f 59/81/21 55/82/21 56/83/21 60/84/21
f 57/85/22 53/86/22 55/87/22 59/88/22
f 56/89/23 54/90/23 58/91/23 60/92/23
f 63/93/24 61/94/24 62/95/24 64/96/24
f 66/97/25 65/98/25 67/99/25 68/100/25
f 62/101/26 61/102/26 65/103/26 66/104/26
f 67/105/27 63/106/27 64/107/27 68/108/27
f 65/109/28 61/110/28 63/111/28 67/112/28
f 64/113/29 62/114/29 66/115/29 68/116/29
f 71/117/30 69/118/30 70/119/30 72/120/30
f 74/121/31 73/122/31 75/123/31 76/124/31
f 70/125/32 69/126/32 73/127/32 74/128/32
f 75/129/33 71/130/33 72/131/33 76/132/33
f 73/133/34 69/134/34 71/135/34 75/136/34
f 72/137/35 70/138/35 74/139/35 76/140/35
f 78/141/36 77/142/36 80/143/36 79/144/36
f 81/145/37 82/146/37 83/147/37 84/148/37
f 77/149/38 78/150/38 82/151/38 81/152/38
f 80/153/39 79/154/39 83/155/39 84/156/39
f 77/157/40 81/158/40 79/159/40 83/160/40
f 82/161/41 78/162/41 84/163/41 80/164/41
f 88/165/42 86/166/42 85/167/42 87/168/42
f 91/169/43 89/170/43 90/171/43 92/172/43
f 85/173/44 86/174/44 90/175/44 89/176/44
f 88/177/45 87/178/45 91/179/45 92/180/45
f 87/181/46 85/182/46 89/183/46 91/184/46
f 92/185/47 90/186/47 86/187/47 88/188/47
f 96/189/48 94/190/48 93/191/48 95/192/48
f 99/193/49 97/194/49 98/195/49 100/196/49
f 93/197/50 94/198/50 98/199/50 97/200/50
f 96/201/51 95/202/51 99/203/51 100/204/51
f 95/205/52 93/206/52 97/207/52 99/208/52
f 100/209/53 98/210/53 94/211/53 96/212/53
f 104/213/54 102/214/54 101/215/54 103/216/54
f 107/217/55 105/218/55 106/219/55 108/220/55
f 101/221/56 102/222/56 106/223/56 105/224/56
f 104/225/57 103/226/57 107/227/57 108/228/57
f 103/229/58 101/230/58 105/231/58 107/232/58
f 108/233/59 106/234/59 102/235/59 104/236/59
f 112/237/60 110/238/60 109/239/60 111/240/60
f 115/241/61 113/242/61 114/243/61 116/244/61
f 109/245/62 110/246/62 114/247/62 113/248/62
f 112/249/63 111/250/63 115/251/63 116/252/63
f 111/253/64 109/254/64 113/255/64 115/256/64
f 116/257/65 114/258/65 110/259/65 112/260/65
f 120/261/66 118/262/66 117/263/66 119/264/66
f 123/265/67 121/266/67 122/267/67 124/268/67
f 117/269/68 118/270/68 122/271/68 121/272/68
f 120/273/69 119/274/69 123/275/69 124/276/69
f 119/277/70 117/278/70 121/279/70 123/280/70
f 124/281/71 122/282/71 118/283/71 120/284/71
f 128/285/72 126/286/72 125/287/72 127/288/72
f 131/289/73 129/290/73 130/291/73 132/292/73
f 125/293/74 126/294/74 130/295/74 129/296/74
f 128/297/75 127/298/75 131/299/75 132/300/75
f 127/301/76 125/302/76 129/303/76 131/304/76
f 132/305/77 130/306/77 126/307/77 128/308/77
f 136/309/78 134/310/78 133/311/78 135/312/78
f 139/313/79 137/314/79 138/315/79 140/316/79
f 133/317/80 134/318/80 138/319/80 137/320/80
f 136/321/81 135/322/81 139/323/81 140/324/81
f 135/325/82 133/326/82 137/327/82 139/328/82
f 140/329/83 138/330/83 134/331/83 136/332/83
f 144/333/84 142/334/84 141/335/84 143/336/84
f 147/337/85 145/338/85 146/339/85 148/340/85
f 141/341/86 142/342/86 146/343/86 145/344/86
f 144/345/87 143/346/87 147/347/87 148/348/87
f 143/349/88 141/350/88 145/351/88 147/352/88
f 148/353/89 146/354/89 142/355/89 144/356/89
f 152/357/90 150/358/90 149/359/90 151/360/90
f 155/361/91 153/362/91 154/363/91 156/364/91
f 149/365/92 150/366/92 154/367/92 153/368/92
f 152/369/93 151/370/93 155/371/93 156/372/93
f 151/373/94 149/374/94 153/375/94 155/376/94
f 156/377/95 154/378/95 150/379/95 152/380/95
f 160/381/96 158/382/96 157/383/96 159/384/96
f 163/385/97 161/386/97 162/387/97 164/388/97
f 157/389/98 158/390/98 162/391/98 161/392/98
f 160/393/99 159/394/99 163/395/99 164/396/99
f 159/397/100 157/398/100 161/399/100 163/400/100
f 164/401/101 162/402/101 158/403/101 160/404/101
f 168/405/102 166/406/102 165/407/102 167/408/102
f 171/409/103 169/410/103 170/411/103 172/412/103
f 165/413/104 166/414/104 170/415/104 169/416/104
f 168/417/105 167/418/105 171/419/105 172/420/105
f 167/421/106 165/422/106 169/423/106 171/424/106
f 172/425/107 170/426/107 166/427/107 168/428/107
f 176/429/108 174/430/108 173/431/108 175/432/108
f 179/433/109 177/434/109 178/435/109 180/436/109
f 173/437/110 174/438/110 178/439/110 177/440/110
f 176/441/111 175/442/111 179/443/111 180/444/111
f 175/445/112 173/446/112 177/447/112 179/448/112
f 180/449/113 178/450/113 174/451/113 176/452/113
f 184/453/114 182/454/114 181/455/114 183/456/114
f 187/457/115 185/458/115 186/459/115 188/460/115
f 181/461/116 182/462/116 186/463/116 185/464/116
f 184/465/117 183/466/117 187/467/117 188/468/117
f 183/469/118 181/470/118 185/471/118 187/472/118
f 188/473/119 186/474/119 182/475/119 184/476/119
f 192/477/120 190/478/120 189/479/120 191/480/120
f 195/481/121 193/482/121 194/483/121 196/484/121
f 189/485/122 190/486/122 194/487/122 193/488/122
f 192/489/123 191/490/123 195/491/123 196/492/123
f 191/493/124 189/494/124 193/495/124 195/496/124
f 196/497/125 194/498/125 190/499/125 192/500/125
f 200/501/126 198/502/126 197/503/126 199/504/126
f 203/505/127 201/506/127 202/507/127 204/508/127
f 197/509/128 198/510/128 202/511/128 201/512/128
f 200/513/129 199/514/129 203/515/129 204/516/129
f 199/517/130 197/518/130 201/519/130 203/520/130
f 204/521/131 202/522/131 198/523/131 200/524/131
f 208/525/132 206/526/132 205/527/132 207/528/132
f 211/529/133 209/530/133 210/531/133 212/532/133
f 205/533/134 206/534/134 210/535/134 209/536/134
f 208/537/135 207/538/135 211/539/135 212/540/135
f 207/541/136 205/542/136 209/543/136 211/544/136
f 212/545/137 210/546/137 206/547/137 208/548/137
f 216/549/138 214/550/138 213/551/138 215/552/138
f 219/553/139 217/554/139 218/555/139 220/556/139
f 213/557/140 214/558/140 218/559/140 217/560/140
f 216/561/141 215/562/141 219/563/141 220/564/141
f 215/565/142 213/566/142 217/567/142 219/568/142
f 220/569/143 218/570/143 214/571/143 216/572/143
f 224/573/144 222/574/144 221/575/144 223/576/144
f 227/577/145 225/578/145 226/579/145 228/580/145
f 221/581/146 222/582/146 226/583/146 225/584/146
f 224/585/147 223/586/147 227/587/147 228/588/147
f 223/589/148 221/590/148 225/591/148 227/592/148
f 228/593/149 226/594/149 222/595/149 224/596/149
f 232/597/150 230/598/150 229/599/150 231/600/150
f 235/601/151 233/602/151 234/603/151 236/604/151
f 229/605/152 230/606/152 234/607/152 233/608/152
f 232/609/153 231/610/153 235/611/153 236/612/153
f 231/613/154 229/614/154 233/615/154 235/616/154
f 236/617/155 234/618/155 230/619/155 232/620/155
f 240/621/156 238/622/156 237/623/156 239/624/156
f 243/625/157 241/626/157 242/627/157 244/628/157
f 237/629/158 238/630/158 242/631/158 241/632/158
f 240/633/159 239/634/159 243/635/159 244/636/159
f 239/637/160 237/638/160 241/639/160 243/640/160
f 244/641/161 242/642/161 238/643/161 240/644/161
f 248/645/162 246/646/162 245/647/162 247/648/162
f 251/649/163 249/650/163 250/651/163 252/652/163
f 245/653/164 246/654/164 250/655/164 249/656/164
f 248/657/165 247/658/165 251/659/165 252/660/165
f 247/661/166 245/662/166 249/663/166 251/664/166
f 252/665/167 250/666/167 246/667/167 248/668/167
f 256/669/168 254/670/168 253/671/168 255/672/168
f 259/673/169 257/674/169 258/675/169 260/676/169
f 253/677/170 254/678/170 258/679/170 257/680/170
f 256/681/171 255/682/171 259/683/171 260/684/171
f 255/685/172 253/686/172 257/687/172 259/688/172
f 260/689/173 258/690/173 254/691/173 256/692/173
f 264/693/174 262/694/174 261/695/174 263/696/174
f 267/697/175 265/698/175 266/699/175 268/700/175
f 261/701/176 262/702/176 266/703/176 265/704/176
f 264/705/177 263/706/177 267/707/177 268/708/177
f 263/709/178 261/710/178 265/711/178 267/712/178
f 268/713/179 266/714/179 262/715/179 264/716/179
f 272/717/180 270/718/180 269/719/180 271/720/180
f 275/721/181 273/722/181 274/723/181 276/724/181
f 269/725/182 270/726/182 274/727/182 273/728/182
f 272/729/183 271/730/183 275/731/183 276/732/183
f 271/733/184 269/734/184 273/735/184 275/736/184
f 276/737/185 274/738/185 270/739/185 272/740/185
f 280/741/186 278/742/186 277/743/186 279/744/186
f 283/745/187 281/746/187 282/747/187 284/748/187
f 277/749/188 278/750/188 282/751/188 281/752/188
f 280/753/189 279/754/189 283/755/189 284/756/189
f 279/757/190 277/758/190 281/759/190 283/760/190
f 284/761/191 282/762/191 278/763/191 280/764/191
f 288/765/192 286/766/192 285/767/192 287/768/192
f 291/769/193 289/770/193 290/771/193 292/772/193
f 285/773/194 286/774/194 290/775/194 289/776/194
f 288/777/195 287/778/195 291/779/195 292/780/195
f 287/781/196 285/782/196 289/783/196 291/784/196
f 292/785/197 290/786/197 286/787/197 288/788/197
f 296/789/198 294/790/198 293/791/198 295/792/198
f 299/793/199 297/794/199 298/795/199 300/796/199
f 293/797/200 294/798/200 298/799/200 297/800/200
f 296/801/201 295/802/201 299/803/201 300/804/201
f 295/805/202 293/806/202 297/807/202 299/808/202
f 300/809/203 298/810/203 294/811/203 296/812/203
f 304/813/204 302/814/204 301/815/204 303/816/204
f 307/817/205 305/818/205 306/819/205 308/820/205
f 301/821/206 302/822/206 306/823/206 305/824/206
f 304/825/207 303/826/207 307/827/207 308/828/207
f 303/829/208 301/830/208 305/831/208 307/832/208
f 308/833/209 306/834/209 302/835/209 304/836/209
f 312/837/210 310/838/210 309/839/210 311/840/210
f 315/841/211 313/842/211 314/843/211 316/844/211
f 309/845/212 310/846/212 314/847/212 313/848/212
f 312/849/213 311/850/213 315/851/213 316/852/213
f 311/853/214 309/854/214 313/855/214 315/856/214
f 316/857/215 314/858/215 310/859/215 312/860/215
f 320/861/216 318/862/216 317/863/216 319/864/216
f 323/865/217 321/866/217 322/867/217 324/868/217
f 317/869/218 318/870/218 322/871/218 321/872/218
f 320/873/219 319/874/219 323/875/219 324/876/219
f 319/877/220 317/878/220 321/879/220 323/880/220
f 324/881/221 322/882/221 318/883/221 320/884/221
f 328/885/222 326/886/222 325/887/222 327/888/222
f 331/889/223 329/890/223 330/891/223 332/892/223
f 325/893/224 326/894/224 330/895/224 329/896/224
f 328/897/225 327/898/225 331/899/225 332/900/225
f 327/901/226 325/902/226 329/903/226 331/904/226
f 332/905/227 330/906/227 326/907/227 328/908/227
f 336/909/228 334/910/228 333/911/228 335/912/228
f 339/913/229 337/914/229 338/915/229 340/916/229
f 333/917/230 334/918/230 338/919/230 337/920/230
f 336/921/231 335/922/231 339/923/231 340/924/231
f 335/925/232 333/926/232 337/927/232 339/928/232
f 340/929/233 338/930/233 334/931/233 336/932/233
f 344/933/234 342/934/234 341/935/234 343/936/234
f 347/937/235 345/938/235 346/939/235 348/940/235
f 341/941/236 342/942/236 346/943/236 345/944/236
f 344/945/237 343/946/237 347/947/237 348/948/237
f 343/949/238 341/950/238 345/951/238 347/952/238
f 348/953/239 346/954/239 342/955/239 344/956/239
f 352/957/240 350/958/240 349/959/240 351/960/240
f 355/961/241 353/962/241 354/963/241 356/964/241
f 349/965/242 350/966/242 354/967/242 353/968/242
f 352/969/243 351/970/243 355/971/243 356/972/243
f 351/973/244 349/974/244 353/975/244 355/976/244
f 356/977/245 354/978/245 350/979/245 352/980/245
f 360/981/246 358/982/246 357/983/246 359/984/246
f 363/985/247 361/986/247 362/987/247 364/988/247
f 357/989/248 358/990/248 362/991/248 361/992/248
f 360/993/249 359/994/249 363/995/249 364/996/249
f 359/997/250 357/998/250 361/999/250 363/1000/250
f 364/1001/251 362/1002/251 358/1003/251 360/1004/251
f 368/1005/252 366/1006/252 365/1007/252 367/1008/252
f 371/1009/253 369/1010/253 370/1011/253 372/1012/253
f 365/1013/254 366/1014/254 370/1015/254 369/1016/254
f 368/1017/255 367/1018/255 371/1019/255 372/1020/255
f 367/1021/256 365/1022/256 369/1023/256 371/1024/256
f 372/1025/257 370/1026/257 366/1027/257 368/1028/257
f 376/1029/258 374/1030/258 373/1031/258 375/1032/258
f 379/1033/259 377/1034/259 378/1035/259 380/1036/259
f 373/1037/260 374/1038/260 378/1039/260 377/1040/260
f 376/1041/261 375/1042/261 379/1043/261 380/1044/261
f 375/1045/262 373/1046/262 377/1047/262 379/1048/262
f 380/1049/263 378/1050/263 374/1051/263 376/1052/263
f 384/1053/264 382/1054/264 381/1055/264 383/1056/264
f 387/1057/265 385/1058/265 386/1059/265 388/1060/265
f 381/1061/266 382/1062/266 386/1063/266 385/1064/266
f 384/1065/267 383/1066/267 387/1067/267 388/1068/267
f 383/1069/268 381/1070/268 385/1071/268 387/1072/268
f 388/1073/269 386/1074/269 382/1075/269 384/1076/269
f 392/1077/270 390/1078/270 389/1079/270 391/1080/270
f 395/1081/271 393/1082/271 394/1083/271 396/1084/271
f 389/1085/272 390/1086/272 394/1087/272 393/1088/272
f 392/1089/273 391/1090/273 395/1091/273 396/1092/273
f 391/1093/274 389/1094/274 393/1095/274 395/1096/274
f 396/1097/275 394/1098/275 390/1099/275 392/1100/275
f 400/1101/276 398/1102/276 397/1103/276 399/1104/276
f 403/1105/277 401/1106/277 402/1107/277 404/1108/277
f 397/1109/278 398/1110/278 402/1111/278 401/1112/278
f 400/1113/279 399/1114/279 403/1115/279 404/1116/279
f 399/1117/280 397/1118/280 401/1119/280 403/1120/280
f 404/1121/281 402/1122/281 398/1123/281 400/1124/281
f 408/1125/282 406/1126/282 405/1127/282 407/1128/282
f 411/1129/283 409/1130/283 410/1131/283 412/1132/283
f 405/1133/284 406/1134/284 410/1135/284 409/1136/284
f 408/1137/285 407/1138/285 411/1139/285 412/1140/285
f 407/1141/286 405/1142/286 409/1143/286 411/1144/286
f 412/1145/287 410/1146/287 406/1147/287 408/1148/287
f 416/1149/288 414/1150/288 413/1151/288 415/1152/288
f 419/1153/289 417/1154/289 418/1155/289 420/1156/289
f 413/1157/290 414/1158/290 418/1159/290 417/1160/290
f 416/1161/291 415/1162/291 419/1163/291 420/1164/291
f 415/1165/292 413/1166/292 417/1167/292 419/1168/292
f 420/1169/293 418/1170/293 414/1171/293 416/1172/293
f 424/1173/294 422/1174/294 421/1175/294 423/1176/294
f 427/1177/295 425/1178/295 426/1179/295 428/1180/295
f 421/1181/296 422/1182/296 426/1183/296 425/1184/296
f 424/1185/297 423/1186/297 427/1187/297 428/1188/297
f 423/1189/298 421/1190/298 425/1191/298 427/1192/298
f 428/1193/299 426/1194/299 422/1195/299 424/1196/299
f 432/1197/300 430/1198/300 429/1199/300 431/1200/300
f 435/1201/301 433/1202/301 434/1203/301 436/1204/301
f 429/1205/302 430/1206/302 434/1207/302 433/1208/302
f 432/1209/303 431/1210/303 435/1211/303 436/1212/303
f 431/1213/304 429/1214/304 433/1215/304 435/1216/304
f 436/1217/305 434/1218/305 430/1219/305 432/1220/305
f 440/1221/306 438/1222/306 437/1223/306 439/1224/306
f 443/1225/307 441/1226/307 442/1227/307 444/1228/307
f 437/1229/308 438/1230/308 442/1231/308 441/1232/308
f 440/1233/309 439/1234/309 443/1235/309 444/1236/309
f 439/1237/310 437/1238/310 441/1239/310 443/1240/310
f 444/1241/311 442/1242/311 438/1243/311 440/1244/311
f 448/1245/312 446/1246/312 445/1247/312 447/1248/312
f 451/1249/313 449/1250/313 450/1251/313 452/1252/313
f 445/1253/314 446/1254/314 450/1255/314 449/1256/314
f 448/1257/315 447/1258/315 451/1259/315 452/1260/315
f 447/1261/316 445/1262/316 449/1263/316 451/1264/316
f 452/1265/317 450/1266/317 446/1267/317 448/1268/317
f 456/1269/318 454/1270/318 453/1271/318 455/1272/318
f 459/1273/319 457/1274/319 458/1275/319 460/1276/319
f 453/1277/320 454/1278/320 458/1279/320 457/1280/320
f 456/1281/321 455/1282/321 459/1283/321 460/1284/321
f 455/1285/322 453/1286/322 457/1287/322 459/1288/322
f 460/1289/323 458/1290/323 454/1291/323 456/1292/323
f 464/1293/324 462/1294/324 461/1295/324 463/1296/324
f 467/1297/325 465/1298/325 466/1299/325 468/1300/325
f 461/1301/326 462/1302/326 466/1303/326 465/1304/326
f 464/1305/327 463/1306/327 467/1307/327 468/1308/327
f 463/1309/328 461/1310/328 465/1311/328 467/1312/328
f 468/1313/329 466/1314/329 462/1315/329 464/1316/329
