# Blender 4.4.3
# www.blender.org
mtllib concord.mtl
o concord
v -0.124447 1.593750 0.161591
v -0.073250 1.593750 0.125742
v -0.124447 1.450000 0.161591
v -0.073250 1.450000 0.125742
v -0.180796 1.593750 -0.027849
v -0.231993 1.593750 0.008000
v -0.180796 1.450000 -0.027849
v -0.231993 1.450000 0.008000
v 0.140625 1.396092 -0.164980
v 0.140625 1.423501 -0.254633
v 0.140625 1.246669 -0.210663
v 0.140625 1.274079 -0.300316
v -0.140625 1.423501 -0.254633
v -0.140625 1.396092 -0.164980
v -0.140625 1.274079 -0.300316
v -0.140625 1.246669 -0.210663
v 0.273389 1.478279 -0.143371
v 0.279731 1.488405 -0.217413
v 0.240124 1.346506 -0.164242
v 0.246467 1.356632 -0.238284
v 0.189112 1.511999 -0.221949
v 0.182770 1.501873 -0.147907
v 0.155848 1.380226 -0.242820
v 0.149505 1.370100 -0.168778
v 0.006250 1.408337 -0.255787
v 0.006250 1.411992 -0.267741
v 0.006250 1.270869 -0.297815
v 0.006250 1.274523 -0.309769
v -0.118750 1.411992 -0.267741
v -0.118750 1.408337 -0.255787
v -0.118750 1.274523 -0.309769
v -0.118750 1.270869 -0.297815
v 0.250000 1.250000 -0.100000
v 0.250000 1.250000 -0.225000
v 0.250000 0.750000 -0.100000
v 0.250000 0.750000 -0.225000
v -0.250000 1.250000 -0.225000
v -0.250000 1.250000 -0.100000
v -0.250000 0.750000 -0.225000
v -0.250000 0.750000 -0.100000
v 0.187500 1.437383 -0.120490
v 0.187500 1.450377 -0.181624
v 0.187500 1.235640 -0.163371
v 0.187500 1.248634 -0.224506
v -0.187500 1.450377 -0.181624
v -0.187500 1.437383 -0.120490
v -0.187500 1.248634 -0.224506
v -0.187500 1.235640 -0.163371
v -0.186577 1.562018 -0.061586
v -0.185083 1.576234 -0.128834
v -0.061397 1.151319 -0.145624
v -0.059903 1.165534 -0.212871
v -0.322788 1.536602 -0.140271
v -0.324282 1.522386 -0.073024
v -0.197608 1.125903 -0.224309
v -0.199102 1.111687 -0.157061
v -0.194001 1.548971 0.073011
v -0.209932 1.608028 0.060175
v -0.169288 1.515885 -0.109885
v -0.185219 1.574941 -0.122721
v -0.347637 1.568396 0.048738
v -0.331706 1.509339 0.061574
v -0.322924 1.535310 -0.134158
v -0.306993 1.476253 -0.121322
v -0.210019 1.609075 0.057275
v -0.191989 1.550596 0.044571
v -0.210316 1.586431 0.161084
v -0.192286 1.527953 0.148380
v -0.329627 1.510161 0.035357
v -0.347657 1.568640 0.048061
v -0.329924 1.487518 0.139166
v -0.347954 1.545997 0.151870
v -0.210316 1.586431 0.161084
v -0.204878 1.582071 0.098974
v -0.126080 1.293324 0.189036
v -0.120642 1.288964 0.126926
v -0.342516 1.541637 0.089760
v -0.347954 1.545997 0.151870
v -0.258280 1.248529 0.117712
v -0.263718 1.252890 0.179822
v 0.265625 1.437500 0.200000
v 0.265625 1.437500 0.106250
v 0.265625 0.750000 0.200000
v 0.265625 0.750000 0.106250
v -0.265625 1.437500 0.106250
v -0.265625 1.437500 0.200000
v -0.265625 0.750000 0.106250
v -0.265625 0.750000 0.200000
v -0.172363 1.529739 -0.042326
v -0.189886 1.594702 -0.056445
v -0.161654 1.515402 -0.121580
v -0.179177 1.580364 -0.135700
v -0.339565 1.551624 -0.068877
v -0.322042 1.486661 -0.054758
v -0.328856 1.537287 -0.148132
v -0.311333 1.472324 -0.134012
v -0.188838 1.551797 0.079605
v -0.206362 1.616759 0.065485
v -0.178129 1.537459 0.000350
v -0.195653 1.602422 -0.013770
v -0.356041 1.573681 0.053053
v -0.338517 1.508719 0.067173
v -0.345332 1.559344 -0.026202
v -0.327808 1.494382 -0.012082
v -0.250000 1.062500 0.150000
v -0.250000 1.062500 -0.162500
v -0.250000 0.812500 0.150000
v -0.250000 0.812500 -0.162500
v -0.312500 1.062500 -0.162500
v -0.312500 1.062500 0.150000
v -0.312500 0.812500 -0.162500
v -0.312500 0.812500 0.150000
v 0.312500 1.062500 0.150000
v 0.312500 1.062500 -0.162500
v 0.312500 0.812500 0.150000
v 0.312500 0.812500 -0.162500
v 0.250000 1.062500 -0.162500
v 0.250000 1.062500 0.150000
v 0.250000 0.812500 -0.162500
v 0.250000 0.812500 0.150000
v 0.324282 1.522386 -0.073024
v 0.322788 1.536602 -0.140271
v 0.199102 1.111687 -0.157061
v 0.197608 1.125903 -0.224309
v 0.185083 1.576234 -0.128834
v 0.186577 1.562018 -0.061586
v 0.059903 1.165534 -0.212871
v 0.061397 1.151319 -0.145624
v 0.322042 1.486661 -0.054758
v 0.339565 1.551624 -0.068877
v 0.311333 1.472324 -0.134012
v 0.328856 1.537287 -0.148132
v 0.189886 1.594702 -0.056445
v 0.172363 1.529739 -0.042326
v 0.179177 1.580364 -0.135700
v 0.161654 1.515402 -0.121580
v 0.331706 1.509339 0.061574
v 0.347637 1.568396 0.048738
v 0.306993 1.476253 -0.121322
v 0.322924 1.535310 -0.134158
v 0.209932 1.608028 0.060175
v 0.194001 1.548971 0.073011
v 0.185219 1.574941 -0.122721
v 0.169288 1.515885 -0.109885
v 0.338517 1.508719 0.067173
v 0.356041 1.573681 0.053053
v 0.327808 1.494382 -0.012082
v 0.345332 1.559344 -0.026202
v 0.206362 1.616759 0.065485
v 0.188838 1.551797 0.079605
v 0.195653 1.602422 -0.013770
v 0.178129 1.537459 0.000350
v 0.347657 1.568640 0.048061
v 0.329627 1.510161 0.035357
v 0.347954 1.545997 0.151870
v 0.329924 1.487518 0.139166
v 0.191989 1.550596 0.044571
v 0.210019 1.609075 0.057275
v 0.192286 1.527953 0.148380
v 0.210316 1.586431 0.161084
v 0.347954 1.545997 0.151870
v 0.342516 1.541637 0.089760
v 0.263718 1.252890 0.179822
v 0.258280 1.248529 0.117712
v 0.204878 1.582071 0.098974
v 0.210316 1.586431 0.161084
v 0.120642 1.288964 0.126926
v 0.126080 1.293324 0.189036
v 0.218750 0.936245 -0.223088
v 0.218750 0.930798 -0.285350
v 0.218750 0.817947 -0.212738
v 0.218750 0.812500 -0.275000
v -0.218750 0.930798 -0.285350
v -0.218750 0.936245 -0.223088
v -0.218750 0.812500 -0.275000
v -0.218750 0.817947 -0.212738
v -0.169548 0.948034 -0.227385
v -0.163025 0.943988 -0.273628
v -0.169548 0.804831 -0.214857
v -0.163025 0.800785 -0.261099
v -0.209443 0.943420 -0.280127
v -0.215967 0.947465 -0.233884
v -0.209443 0.800217 -0.267598
v -0.215967 0.804262 -0.221356
v -0.112065 0.948446 -0.222675
v -0.099144 0.944519 -0.267563
v -0.112065 0.805243 -0.210147
v -0.099144 0.801316 -0.255034
v -0.144203 0.943393 -0.280434
v -0.157124 0.947320 -0.235547
v -0.144203 0.800190 -0.267906
v -0.157124 0.804117 -0.223018
v 0.028424 0.947237 -0.236494
v 0.016687 0.943282 -0.281704
v 0.028424 0.804034 -0.223966
v 0.016687 0.800079 -0.269175
v -0.028695 0.944305 -0.270012
v -0.016958 0.948260 -0.224802
v -0.028695 0.801102 -0.257483
v -0.016958 0.805057 -0.212274
v -0.044548 0.948034 -0.227385
v -0.038025 0.943988 -0.273628
v -0.044548 0.804831 -0.214857
v -0.038025 0.800785 -0.261099
v -0.084443 0.943420 -0.280127
v -0.090967 0.947465 -0.233884
v -0.084443 0.800217 -0.267598
v -0.090967 0.804262 -0.221356
v 0.146622 0.947976 -0.228047
v 0.148257 0.943893 -0.274715
v 0.146622 0.804773 -0.215518
v 0.148257 0.800690 -0.262186
v 0.101411 0.943750 -0.276345
v 0.099775 0.947833 -0.229677
v 0.101411 0.800547 -0.263816
v 0.099775 0.804630 -0.217148
v 0.080452 0.948034 -0.227385
v 0.086975 0.943988 -0.273628
v 0.080452 0.804831 -0.214857
v 0.086975 0.800785 -0.261099
v 0.040557 0.943420 -0.280127
v 0.034033 0.947465 -0.233884
v 0.040557 0.800217 -0.267598
v 0.034033 0.804262 -0.221356
v 0.205452 0.948034 -0.227385
v 0.211975 0.943988 -0.273628
v 0.205452 0.804831 -0.214857
v 0.211975 0.800785 -0.261099
v 0.165557 0.943420 -0.280127
v 0.159033 0.947465 -0.233884
v 0.165557 0.800217 -0.267598
v 0.159033 0.804262 -0.221356
v -0.057456 1.120305 -0.217590
v -0.054514 1.094483 -0.339859
v -0.042231 0.986674 -0.189002
v -0.039289 0.960853 -0.311271
v -0.178711 1.080333 -0.339859
v -0.181653 1.106155 -0.217590
v -0.163485 0.946702 -0.311271
v -0.166427 0.972524 -0.189002
v -0.055314 0.985174 -0.343566
v -0.056404 1.110164 -0.342481
v -0.055326 0.985282 -0.356065
v -0.056417 1.110273 -0.354980
v -0.181399 1.109073 -0.342367
v -0.180309 0.984082 -0.343452
v -0.181412 1.109181 -0.354866
v -0.180321 0.984191 -0.355951
v -0.057731 1.122718 -0.224008
v -0.057237 1.118383 -0.348932
v -0.056317 1.110306 -0.223572
v -0.055823 1.105971 -0.348495
v -0.181434 1.104233 -0.348932
v -0.181928 1.108567 -0.224008
v -0.180020 1.091821 -0.348495
v -0.180513 1.096155 -0.223572
v 0.075376 1.002860 -0.343566
v 0.074285 1.127850 -0.342481
v 0.075363 1.002968 -0.356065
v 0.074273 1.127959 -0.354980
v -0.050710 1.126759 -0.342367
v -0.049620 1.001768 -0.343452
v -0.050722 1.126867 -0.354866
v -0.049632 1.001877 -0.355951
v 0.072958 1.140404 -0.224008
v 0.073452 1.136069 -0.348932
v 0.074373 1.127992 -0.223572
v 0.074866 1.123657 -0.348495
v -0.050744 1.121919 -0.348932
v -0.051238 1.126253 -0.224008
v -0.049330 1.109507 -0.348495
v -0.049824 1.113841 -0.223572
v 0.073233 1.137991 -0.217590
v 0.076175 1.112169 -0.339859
v 0.088459 1.004361 -0.189002
v 0.091401 0.978539 -0.311271
v -0.048021 1.098019 -0.339859
v -0.050963 1.123841 -0.217590
v -0.032796 0.964388 -0.311271
v -0.035738 0.990210 -0.189002
v 0.202304 1.014657 -0.343566
v 0.201214 1.139647 -0.342481
v 0.202292 1.014765 -0.356065
v 0.201201 1.139756 -0.354980
v 0.076219 1.138556 -0.342367
v 0.077309 1.013565 -0.343452
v 0.076206 1.138664 -0.354866
v 0.077297 1.013674 -0.355951
v 0.199887 1.152201 -0.224008
v 0.200381 1.147866 -0.348932
v 0.201301 1.139789 -0.223572
v 0.201795 1.135454 -0.348495
v 0.076184 1.133716 -0.348932
v 0.075690 1.138050 -0.224008
v 0.077598 1.121304 -0.348495
v 0.077105 1.125638 -0.223572
v 0.200162 1.149788 -0.217590
v 0.203104 1.123966 -0.339859
v 0.215387 1.016158 -0.189002
v 0.218329 0.990336 -0.311271
v 0.078907 1.109816 -0.339859
v 0.075965 1.135638 -0.217590
v 0.094133 0.976185 -0.311271
v 0.091191 1.002007 -0.189002
v 0.180736 1.293342 -0.187500
v 0.180736 1.293342 -0.250000
v 0.216112 0.982851 -0.187500
v 0.216112 0.982851 -0.250000
v -0.191853 1.250891 -0.250000
v -0.191853 1.250891 -0.187500
v -0.156477 0.940400 -0.250000
v -0.156477 0.940400 -0.187500
v 0.256242 1.354247 -0.163419
v 0.270121 1.375302 -0.260187
v 0.198783 1.130920 -0.220252
v 0.212661 1.151975 -0.317020
v 0.150082 1.408718 -0.270133
v 0.136203 1.387663 -0.173365
v 0.092622 1.185391 -0.326965
v 0.078743 1.164336 -0.230197
v 0.029927 1.223764 -0.216647
v 0.079607 1.223764 -0.296152
v 0.039616 1.130713 -0.210593
v 0.089296 1.130713 -0.290098
v 0.000695 1.212339 -0.345462
v -0.048985 1.212339 -0.265957
v 0.010384 1.119287 -0.339407
v -0.039296 1.119287 -0.259903
v 0.020210 1.268385 -0.241144
v 0.053330 1.268385 -0.294147
v 0.025055 1.221860 -0.238117
v 0.058175 1.221860 -0.291120
v 0.000722 1.260768 -0.327020
v -0.032398 1.260768 -0.274017
v 0.005567 1.214243 -0.323993
v -0.027553 1.214243 -0.270990
v 0.013723 1.281990 -0.263622
v 0.030283 1.281990 -0.290123
v 0.020183 1.219955 -0.259586
v 0.036743 1.219955 -0.286087
v -0.022325 1.274373 -0.322996
v -0.038885 1.274373 -0.296495
v -0.015865 1.212339 -0.318960
v -0.032425 1.212339 -0.292459
v -0.095270 1.225972 -0.220540
v -0.054172 1.225972 -0.304802
v -0.079192 1.133944 -0.212698
v -0.038094 1.133944 -0.296960
v -0.136886 1.208083 -0.345144
v -0.177983 1.208083 -0.260882
v -0.120808 1.116056 -0.337302
v -0.161906 1.116056 -0.253040
v -0.110245 1.269004 -0.245228
v -0.082847 1.269004 -0.301403
v -0.102206 1.222990 -0.241307
v -0.074808 1.222990 -0.297482
v -0.137989 1.257079 -0.328297
v -0.165387 1.257079 -0.272123
v -0.129950 1.211065 -0.324377
v -0.157348 1.211065 -0.268202
v -0.119860 1.281361 -0.267302
v -0.106161 1.281361 -0.295390
v -0.109142 1.220009 -0.262074
v -0.095443 1.220009 -0.290162
v -0.161304 1.269435 -0.322284
v -0.175003 1.269435 -0.294197
v -0.150585 1.208083 -0.317057
v -0.164284 1.208083 -0.288969
v 0.062500 0.755432 -0.142473
v 0.062500 0.757614 -0.204935
v 0.062500 0.380661 -0.155560
v 0.062500 0.382842 -0.218022
v -0.062500 0.757614 -0.204935
v -0.062500 0.755432 -0.142473
v -0.062500 0.382842 -0.218022
v -0.062500 0.380661 -0.155560
v -0.062500 0.755432 -0.142473
v -0.062500 0.757614 -0.204935
v -0.062500 0.443123 -0.153379
v -0.062500 0.445304 -0.215841
v -0.187500 0.757614 -0.204935
v -0.187500 0.755432 -0.142473
v -0.187500 0.445304 -0.215841
v -0.187500 0.443123 -0.153379
v 0.187500 0.755432 -0.142473
v 0.187500 0.757614 -0.204935
v 0.187500 0.443123 -0.153379
v 0.187500 0.445304 -0.215841
v 0.062500 0.757614 -0.204935
v 0.062500 0.755432 -0.142473
v 0.062500 0.445304 -0.215841
v 0.062500 0.443123 -0.153379
v -0.039019 0.431633 -0.151416
v -0.038097 0.433610 -0.213878
v -0.062777 0.380684 -0.153379
v -0.061855 0.382661 -0.215841
v -0.162714 0.491720 -0.213878
v -0.163636 0.489743 -0.151416
v -0.186472 0.440771 -0.215841
v -0.187394 0.438794 -0.153379
v 0.163636 0.489743 -0.151416
v 0.162714 0.491720 -0.213878
v 0.187394 0.438794 -0.153379
v 0.186472 0.440771 -0.215841
v 0.038097 0.433610 -0.213878
v 0.039019 0.431633 -0.151416
v 0.061855 0.382661 -0.215841
v 0.062777 0.380684 -0.153379
v 0.125000 1.562500 -0.156250
v 0.125000 1.562500 -0.218750
v 0.125000 1.375000 -0.156250
v 0.125000 1.375000 -0.218750
v -0.125000 1.562500 -0.218750
v -0.125000 1.562500 -0.156250
v -0.125000 1.375000 -0.218750
v -0.125000 1.375000 -0.156250
v -0.073250 1.593750 -0.181993
v -0.124447 1.593750 -0.217841
v -0.073250 1.450000 -0.181993
v -0.124447 1.450000 -0.217841
v -0.231993 1.593750 -0.064250
v -0.180796 1.593750 -0.028402
v -0.231993 1.450000 -0.064250
v -0.180796 1.450000 -0.028402
v 0.125000 1.562500 0.162500
v 0.125000 1.562500 0.100000
v 0.125000 1.375000 0.162500
v 0.125000 1.375000 0.100000
v -0.125000 1.562500 0.100000
v -0.125000 1.562500 0.162500
v -0.125000 1.375000 0.100000
v -0.125000 1.375000 0.162500
v 0.180796 1.593750 -0.028402
v 0.231993 1.593750 -0.064250
v 0.180796 1.450000 -0.028402
v 0.231993 1.450000 -0.064250
v 0.124447 1.593750 -0.217841
v 0.073250 1.593750 -0.181993
v 0.124447 1.450000 -0.217841
v 0.073250 1.450000 -0.181993
v 0.231993 1.593750 0.008000
v 0.180796 1.593750 -0.027849
v 0.231993 1.450000 0.008000
v 0.180796 1.450000 -0.027849
v 0.073250 1.593750 0.125742
v 0.124447 1.593750 0.161591
v 0.073250 1.450000 0.125742
v 0.124447 1.450000 0.161591
vn 0.8192 -0.0000 -0.5736
vn 0.5736 -0.0000 0.8191
vn -0.8192 -0.0000 0.5736
vn -0.5736 -0.0000 -0.8191
vn -0.0000 1.0000 -0.0000
vn -0.0000 -1.0000 -0.0000
vn -0.0000 0.2924 -0.9563
vn 1.0000 -0.0000 -0.0000
vn -0.0000 -0.2924 0.9563
vn -1.0000 -0.0000 -0.0000
vn -0.0000 0.9563 0.2924
vn -0.0000 -0.9563 -0.2924
vn 0.0846 0.1350 -0.9872
vn 0.9666 -0.2517 0.0484
vn -0.0846 -0.1350 0.9872
vn -0.9666 0.2517 -0.0484
vn 0.2419 0.9583 0.1518
vn 0.2419 0.9584 0.1518
vn -0.2419 -0.9583 -0.1518
vn -0.0000 -0.9563 -0.2923
vn -0.0000 -0.0000 -1.0000
vn -0.0000 -0.0000 1.0000
vn -0.0000 0.2079 -0.9781
vn -0.0000 -0.2079 0.9781
vn -0.0000 0.9781 0.2079
vn -0.0000 -0.9782 -0.2079
vn -0.0000 -0.9781 -0.2079
vn 0.0217 0.2068 -0.9781
vn 0.9579 0.2757 0.0796
vn -0.0217 -0.2068 0.9781
vn -0.9579 -0.2757 -0.0796
vn -0.2861 0.9387 0.1921
vn 0.2861 -0.9387 -0.1921
vn -0.2549 0.9449 -0.2054
vn 0.2549 -0.9449 0.2054
vn -0.1318 0.1765 0.9754
vn 0.1318 -0.1765 -0.9754
vn 0.2885 -0.9357 -0.2033
vn 0.9575 0.2813 0.0641
vn -0.2885 0.9357 0.2033
vn -0.9575 -0.2813 -0.0641
vn 0.0028 0.2131 -0.9770
vn -0.0028 -0.2131 0.9770
vn 0.0870 -0.0698 -0.9938
vn -0.0870 0.0698 0.9938
vn -0.2751 0.9571 -0.0913
vn 0.2751 -0.9571 0.0913
vn -0.0217 0.2068 -0.9781
vn 0.9579 -0.2757 -0.0796
vn 0.0217 -0.2068 0.9781
vn -0.9579 0.2757 0.0796
vn 0.2861 0.9387 0.1921
vn -0.2861 -0.9387 -0.1921
vn 0.2549 0.9449 -0.2054
vn -0.2549 -0.9449 0.2054
vn 0.1318 0.1765 0.9754
vn -0.1318 -0.1765 -0.9754
vn -0.2885 -0.9357 -0.2033
vn 0.9575 -0.2813 -0.0641
vn 0.2885 0.9357 0.2033
vn -0.9575 0.2813 0.0641
vn -0.0028 0.2131 -0.9770
vn 0.0028 -0.2131 0.9770
vn -0.0870 -0.0698 -0.9938
vn 0.0870 0.0698 0.9938
vn 0.2751 0.9571 -0.0913
vn -0.2751 -0.9571 0.0913
vn -0.0000 -0.0872 -0.9962
vn -0.0000 0.0872 0.9962
vn -0.0000 0.9962 -0.0872
vn -0.0000 -0.9962 0.0872
vn -0.0000 -0.9962 0.0871
vn 0.1392 -0.0863 -0.9865
vn 0.9903 0.0121 0.1386
vn -0.1392 0.0863 0.9865
vn -0.9903 -0.0121 -0.1386
vn -0.0000 0.9962 -0.0871
vn 0.2756 -0.0838 -0.9576
vn 0.2757 -0.0838 -0.9576
vn 0.9613 0.0240 0.2746
vn -0.2756 0.0838 0.9576
vn -0.9613 -0.0240 -0.2746
vn -0.2504 -0.0844 -0.9645
vn 0.9681 -0.0218 -0.2494
vn 0.2504 0.0844 0.9645
vn -0.9681 0.0218 0.2494
vn 0.0349 -0.0871 -0.9956
vn 0.9994 0.0030 0.0347
vn -0.0349 0.0871 0.9956
vn -0.9994 -0.0030 -0.0348
vn 0.0235 -0.2066 -0.9781
vn 0.9936 0.1132 -0.0000
vn -0.0235 0.2066 0.9781
vn -0.9936 -0.1132 -0.0000
vn -0.1107 0.9719 -0.2079
vn 0.1107 -0.9719 0.2079
vn -0.0087 0.9999 0.0087
vn 1.0000 0.0087 -0.0009
vn 1.0000 0.0087 -0.0010
vn 0.0087 -0.9999 -0.0087
vn -1.0000 -0.0087 0.0010
vn -1.0000 -0.0087 0.0009
vn 0.0010 -0.0087 1.0000
vn -0.0010 0.0087 -1.0000
vn 0.0040 -0.0347 -0.9994
vn -0.0039 0.0347 0.9994
vn -0.9936 -0.1133 -0.0000
vn -0.1131 0.9930 -0.0349
vn 0.1131 -0.9930 0.0349
vn 0.9936 0.1133 -0.0000
vn 0.0087 -0.9999 -0.0086
vn -0.1132 0.9936 -0.0000
vn 0.1132 -0.9936 -0.0000
vn 0.1388 0.2105 -0.9677
vn 0.9603 -0.2673 0.0796
vn -0.1388 -0.2105 0.9677
vn -0.9603 0.2673 -0.0796
vn 0.2419 0.9403 0.2393
vn -0.2419 -0.9403 -0.2393
vn 0.5299 -0.0000 -0.8480
vn 0.8417 0.1219 0.5260
vn -0.5299 -0.0000 0.8480
vn -0.8417 -0.1219 -0.5260
vn -0.1033 0.9925 -0.0646
vn 0.1034 -0.9925 0.0646
vn 0.5299 -0.0000 -0.8481
vn -0.1034 0.9925 -0.0646
vn -0.5299 -0.0000 0.8481
vn 0.1033 -0.9925 0.0646
vn 0.4384 -0.0000 -0.8988
vn 0.8823 0.1908 0.4303
vn -0.4384 -0.0000 0.8988
vn -0.8823 -0.1908 -0.4303
vn -0.1715 0.9816 -0.0836
vn 0.1715 -0.9816 0.0836
vn -0.0000 0.0349 -0.9994
vn -0.0000 -0.0349 0.9994
vn -0.0000 0.9994 0.0349
vn -0.0000 -0.9994 -0.0349
vn 0.0147 0.0316 -0.9994
vn 0.9063 -0.4226 -0.0000
vn -0.0147 -0.0316 0.9994
vn -0.9063 0.4226 -0.0000
vn 0.4224 0.9058 0.0349
vn -0.4224 -0.9058 -0.0349
vn -0.0147 0.0316 -0.9994
vn 0.9063 0.4226 -0.0000
vn 0.0147 -0.0316 0.9994
vn -0.9063 -0.4226 -0.0000
vn -0.4224 0.9058 0.0349
vn 0.4224 -0.9058 -0.0349
vn -0.8192 -0.0000 -0.5736
vn 0.5736 -0.0000 -0.8192
vn 0.8192 -0.0000 0.5736
vn -0.5736 -0.0000 0.8192
vn 0.5736 -0.0000 0.8192
vn -0.5736 -0.0000 -0.8192
vn 0.5736 -0.0000 -0.8191
vn -0.5736 -0.0000 0.8191
vn -0.2757 0.0838 0.9576
vt 0.562500 0.901367
vt 0.515625 0.937500
vt 0.515625 0.901367
vt 0.109375 0.338867
vt 0.093750 0.375000
vt 0.093750 0.338867
vt 0.546875 0.854492
vt 0.500000 0.890625
vt 0.500000 0.854492
vt 0.625000 0.463867
vt 0.609375 0.500000
vt 0.609375 0.463867
vt 0.453125 0.406250
vt 0.500000 0.390625
vt 0.500000 0.406250
vt 0.640625 0.437500
vt 0.593750 0.453125
vt 0.640625 0.453125
vt 0.476562 0.914062
vt 0.406250 0.953125
vt 0.406250 0.914062
vt 0.171875 0.414062
vt 0.195312 0.453125
vt 0.171875 0.453125
vt 0.507812 0.585938
vt 0.437500 0.625000
vt 0.437500 0.585938
vt 0.585938 0.789062
vt 0.562500 0.828125
vt 0.562500 0.789062
vt 0.484375 0.656250
vt 0.554688 0.632812
vt 0.554688 0.656250
vt 0.515625 0.757812
vt 0.585938 0.781250
vt 0.585938 0.757812
vt 0.117188 0.387695
vt 0.093750 0.421875
vt 0.093750 0.387695
vt 0.500000 0.372070
vt 0.518555 0.406250
vt 0.203125 0.387695
vt 0.226562 0.421875
vt 0.203125 0.421875
vt 0.627930 0.731445
vt 0.609375 0.765625
vt 0.609375 0.731445
vt 0.625000 0.390625
vt 0.648438 0.372070
vt 0.648438 0.390625
vt 0.023438 0.340820
vt 0.000000 0.359375
vt 0.023438 0.359375
vt 0.546875 0.588867
vt 0.515625 0.625000
vt 0.515625 0.588867
vt 0.659180 0.932617
vt 0.656250 0.968750
vt 0.656250 0.932617
vt 0.562500 0.948242
vt 0.531250 0.984375
vt 0.531250 0.948242
vt 0.656250 0.885742
vt 0.659180 0.921875
vt 0.656250 0.921875
vt 0.265625 0.343750
vt 0.296875 0.340820
vt 0.296875 0.343750
vt 0.656250 0.731445
vt 0.687500 0.734375
vt 0.687500 0.731445
vt 0.125000 0.703125
vt 0.000000 0.828125
vt 0.000000 0.703125
vt 0.171875 0.515625
vt 0.140625 0.640625
vt 0.140625 0.515625
vt 0.250000 0.703125
vt 0.125000 0.828125
vt 0.203125 0.515625
vt 0.171875 0.640625
vt 0.375000 0.890625
vt 0.500000 0.859375
vt 0.375000 0.828125
vt 0.500000 0.828125
vt 0.250000 0.651367
vt 0.156250 0.703125
vt 0.156250 0.651367
vt 0.578125 0.651367
vt 0.562500 0.703125
vt 0.562500 0.651367
vt 0.343750 0.620117
vt 0.250000 0.671875
vt 0.250000 0.620117
vt 0.562500 0.526367
vt 0.578125 0.578125
vt 0.562500 0.578125
vt 0.500000 0.843750
vt 0.593750 0.828125
vt 0.593750 0.843750
vt 0.515625 0.734375
vt 0.609375 0.750000
vt 0.609375 0.734375
vt 0.036133 0.531250
vt 0.000000 0.640625
vt 0.000000 0.531250
vt 0.017578 0.421875
vt 0.000000 0.421875
vt 0.359375 0.890625
vt 0.395508 1.000000
vt 0.359375 1.000000
vt 0.048828 0.421875
vt 0.031250 0.531250
vt 0.031250 0.421875
vt 0.609375 0.859375
vt 0.645508 0.841797
vt 0.645508 0.859375
vt 0.609375 0.810547
vt 0.645508 0.828125
vt 0.645508 0.810547
vt 0.484375 0.937500
vt 0.520508 0.984375
vt 0.484375 0.984375
vt 0.546875 0.375000
vt 0.531250 0.421875
vt 0.531250 0.375000
vt 0.161133 0.468750
vt 0.125000 0.515625
vt 0.125000 0.468750
vt 0.562500 0.421875
vt 0.546875 0.421875
vt 0.281250 0.390625
vt 0.317383 0.375000
vt 0.317383 0.390625
vt 0.645508 0.703125
vt 0.609375 0.718750
vt 0.645508 0.718750
vt 0.567383 0.426758
vt 0.531250 0.453125
vt 0.531250 0.426758
vt 0.484375 0.958008
vt 0.468750 0.984375
vt 0.468750 0.958008
vt 0.598633 0.958008
vt 0.562500 0.984375
vt 0.562500 0.958008
vt 0.093750 0.333008
vt 0.078125 0.359375
vt 0.078125 0.333008
vt 0.328125 0.390625
vt 0.364258 0.375000
vt 0.364258 0.390625
vt 0.609375 0.625000
vt 0.645508 0.640625
vt 0.645508 0.625000
vt 0.333008 0.533203
vt 0.296875 0.609375
vt 0.296875 0.533203
vt 0.515625 0.408203
vt 0.531250 0.484375
vt 0.515625 0.484375
vt 0.442383 0.626953
vt 0.406250 0.703125
vt 0.406250 0.626953
vt 0.125000 0.392578
vt 0.140625 0.468750
vt 0.375000 0.390625
vt 0.411133 0.375000
vt 0.411133 0.390625
vt 0.609375 0.609375
vt 0.645508 0.609375
vt 0.132812 0.828125
vt 0.000000 1.000000
vt 0.367188 0.703125
vt 0.343750 0.875000
vt 0.343750 0.703125
vt 0.273438 0.828125
vt 0.140625 1.000000
vt 0.140625 0.828125
vt 0.367188 0.531250
vt 0.343750 0.531250
vt 0.375000 0.765625
vt 0.507812 0.742188
vt 0.507812 0.765625
vt 0.375000 0.710938
vt 0.507812 0.734375
vt 0.507812 0.710938
vt 0.601562 0.495117
vt 0.562500 0.515625
vt 0.562500 0.495117
vt 0.156250 0.338867
vt 0.173828 0.359375
vt 0.156250 0.359375
vt 0.562500 0.463867
vt 0.601562 0.484375
vt 0.562500 0.484375
vt 0.234375 0.338867
vt 0.251953 0.359375
vt 0.234375 0.359375
vt 0.593750 0.437500
vt 0.632812 0.419922
vt 0.632812 0.437500
vt 0.617188 0.388672
vt 0.578125 0.406250
vt 0.617188 0.406250
vt 0.039062 0.401367
vt 0.000000 0.401367
vt 0.640625 0.745117
vt 0.658203 0.765625
vt 0.640625 0.765625
vt 0.085938 0.401367
vt 0.046875 0.421875
vt 0.046875 0.401367
vt 0.361328 0.338867
vt 0.343750 0.359375
vt 0.343750 0.338867
vt 0.039062 0.390625
vt 0.000000 0.373047
vt 0.039062 0.373047
vt 0.609375 0.966797
vt 0.648438 0.984375
vt 0.648438 0.966797
vt 0.328125 0.406250
vt 0.312500 0.468750
vt 0.312500 0.406250
vt 0.359375 0.937500
vt 0.281250 1.000000
vt 0.281250 0.937500
vt 0.343750 0.406250
vt 0.328125 0.468750
vt 0.359375 0.875000
vt 0.281250 0.875000
vt 0.234375 0.484375
vt 0.250000 0.406250
vt 0.250000 0.484375
vt 0.265625 0.484375
vt 0.265625 0.406250
vt 0.359375 0.406250
vt 0.343750 0.468750
vt 0.078125 0.640625
vt 0.375000 0.406250
vt 0.359375 0.468750
vt 0.156250 0.640625
vt 0.078125 0.703125
vt 0.281250 0.406250
vt 0.281250 0.484375
vt 0.390625 0.484375
vt 0.390625 0.406250
vt 0.083008 0.531250
vt 0.046875 0.640625
vt 0.046875 0.531250
vt 0.062500 0.421875
vt 0.080078 0.531250
vt 0.062500 0.531250
vt 0.129883 0.531250
vt 0.093750 0.640625
vt 0.093750 0.531250
vt 0.111328 0.531250
vt 0.645508 0.796875
vt 0.609375 0.779297
vt 0.645508 0.779297
vt 0.234375 0.373047
vt 0.270508 0.390625
vt 0.270508 0.373047
vt 0.617188 0.870117
vt 0.578125 0.890625
vt 0.578125 0.870117
vt 0.392578 0.338867
vt 0.375000 0.359375
vt 0.375000 0.338867
vt 0.617188 0.682617
vt 0.578125 0.703125
vt 0.578125 0.682617
vt 0.423828 0.338867
vt 0.406250 0.359375
vt 0.406250 0.338867
vt 0.046875 0.390625
vt 0.085938 0.373047
vt 0.085938 0.390625
vt 0.609375 0.935547
vt 0.648438 0.953125
vt 0.648438 0.935547
vt 0.520508 0.781250
vt 0.484375 0.828125
vt 0.484375 0.781250
vt 0.593750 0.406250
vt 0.578125 0.453125
vt 0.520508 0.656250
vt 0.484375 0.703125
vt 0.578125 0.375000
vt 0.562500 0.375000
vt 0.609375 0.593750
vt 0.645508 0.593750
vt 0.609375 0.578125
vt 0.645508 0.578125
vt 0.617188 0.671875
vt 0.578125 0.671875
vt 0.455078 0.338867
vt 0.437500 0.359375
vt 0.437500 0.338867
vt 0.617188 0.557617
vt 0.578125 0.557617
vt 0.517578 0.338867
vt 0.500000 0.359375
vt 0.500000 0.338867
vt 0.609375 0.921875
vt 0.648438 0.904297
vt 0.648438 0.921875
vt 0.125000 0.373047
vt 0.164062 0.390625
vt 0.164062 0.373047
vt 0.562500 0.926758
vt 0.598633 0.953125
vt 0.562500 0.953125
vt 0.125000 0.333008
vt 0.140625 0.359375
vt 0.125000 0.359375
vt 0.562500 0.895508
vt 0.598633 0.921875
vt 0.562500 0.921875
vt 0.140625 0.333008
vt 0.458008 0.390625
vt 0.421875 0.375000
vt 0.458008 0.375000
vt 0.609375 0.531250
vt 0.645508 0.546875
vt 0.645508 0.531250
vt 0.270508 0.486328
vt 0.234375 0.562500
vt 0.234375 0.486328
vt 0.156250 0.392578
vt 0.140625 0.392578
vt 0.375000 0.486328
vt 0.411133 0.562500
vt 0.375000 0.562500
vt 0.171875 0.392578
vt 0.156250 0.468750
vt 0.645508 0.515625
vt 0.645508 0.500000
vt 0.609375 0.515625
vt 0.484375 0.798828
vt 0.375000 0.798828
vt 0.250000 0.611328
vt 0.234375 0.640625
vt 0.234375 0.611328
vt 0.484375 0.767578
vt 0.375000 0.796875
vt 0.375000 0.767578
vt 0.281250 0.562500
vt 0.281250 0.533203
vt 0.406250 0.906250
vt 0.515625 0.890625
vt 0.515625 0.906250
vt 0.578125 1.000000
vt 0.578125 0.984375
vt 0.121094 0.338867
vt 0.109375 0.375000
vt 0.042969 0.323242
vt 0.031250 0.359375
vt 0.031250 0.323242
vt 0.046875 0.323242
vt 0.058594 0.359375
vt 0.046875 0.359375
vt 0.074219 0.323242
vt 0.062500 0.359375
vt 0.062500 0.323242
vt 0.652344 0.421875
vt 0.640625 0.410156
vt 0.652344 0.410156
vt 0.593750 0.347656
vt 0.605469 0.359375
vt 0.605469 0.347656
vt 0.058594 0.323242
vt 0.121094 0.375000
vt 0.074219 0.359375
vt 0.640625 0.421875
vt 0.593750 0.359375
vt 0.562500 0.793945
vt 0.531250 0.828125
vt 0.531250 0.793945
vt 0.234375 0.434570
vt 0.203125 0.468750
vt 0.203125 0.434570
vt 0.312500 0.434570
vt 0.281250 0.468750
vt 0.281250 0.434570
vt 0.562500 0.668945
vt 0.531250 0.703125
vt 0.531250 0.668945
vt 0.531250 0.546875
vt 0.562500 0.546875
vt 0.687500 0.872070
vt 0.656250 0.875000
vt 0.656250 0.872070
vt 0.656250 0.856445
vt 0.687500 0.859375
vt 0.656250 0.859375
vt 0.687500 0.840820
vt 0.656250 0.843750
vt 0.656250 0.840820
vt 0.656250 0.825195
vt 0.687500 0.828125
vt 0.656250 0.828125
vt 0.531250 0.515625
vt 0.218750 0.340820
vt 0.187500 0.343750
vt 0.187500 0.340820
vt 0.687500 0.809570
vt 0.656250 0.812500
vt 0.656250 0.809570
vt 0.656250 0.793945
vt 0.687500 0.796875
vt 0.656250 0.796875
vt 0.687500 0.778320
vt 0.656250 0.781250
vt 0.656250 0.778320
vt 0.562500 0.453125
vt 0.546875 0.859375
vt 0.578125 0.859375
vt 0.687500 0.856445
vt 0.687500 0.825195
vt 0.687500 0.793945
vt 0.687500 0.781250
vt 0.546875 0.890625
vt 0.687500 0.843750
vt 0.234375 0.468750
vt 0.531250 0.578125
vt 0.343750 0.750000
vt 0.250000 0.828125
vt 0.250000 0.750000
vt 0.406250 0.406250
vt 0.343750 0.671875
vt 0.421875 0.406250
vt 0.406250 0.484375
vt 0.515625 0.703125
vt 0.609375 0.703125
vt 0.281250 0.471680
vt 0.312500 0.531250
vt 0.281250 0.531250
vt 0.369141 0.471680
vt 0.343750 0.471680
vt 0.312500 0.471680
vt 0.171875 0.456055
vt 0.197266 0.515625
vt 0.281250 0.421875
vt 0.312500 0.396484
vt 0.312500 0.421875
vt 0.578125 0.521484
vt 0.609375 0.546875
vt 0.609375 0.521484
vt 0.625000 0.867188
vt 0.648438 0.890625
vt 0.625000 0.890625
vt 0.203125 0.351562
vt 0.226562 0.375000
vt 0.203125 0.375000
vt 0.304688 0.351562
vt 0.281250 0.375000
vt 0.281250 0.351562
vt 0.648438 0.679688
vt 0.625000 0.703125
vt 0.625000 0.679688
vt 0.312500 0.375000
vt 0.335938 0.351562
vt 0.335938 0.375000
vt 0.648438 0.648438
vt 0.625000 0.671875
vt 0.648438 0.671875
vt 0.656250 0.441406
vt 0.640625 0.441406
vt 0.578125 0.347656
vt 0.562500 0.359375
vt 0.562500 0.347656
vt 0.640625 0.425781
vt 0.656250 0.437500
vt 0.578125 0.359375
vt 0.375000 0.875000
vt 0.453125 0.562500
vt 0.437500 0.578125
vt 0.453125 0.578125
vt 0.140625 0.531250
vt 0.125000 0.531250
vt 0.617188 0.343750
vt 0.609375 0.359375
vt 0.609375 0.343750
vt 0.203125 0.343750
vt 0.187500 0.359375
vt 0.632812 0.343750
vt 0.625000 0.359375
vt 0.625000 0.343750
vt 0.640625 0.359375
vt 0.656250 0.351562
vt 0.656250 0.359375
vt 0.656250 0.976562
vt 0.671875 0.984375
vt 0.671875 0.976562
vt 0.648438 0.867188
vt 0.304688 0.375000
vt 0.625000 0.648438
vt 0.437500 0.562500
vt 0.617188 0.359375
vt 0.632812 0.359375
vt 0.656250 0.984375
vt 0.234375 0.546875
vt 0.203125 0.640625
vt 0.203125 0.546875
vt 0.468750 0.406250
vt 0.453125 0.500000
vt 0.406250 0.609375
vt 0.375000 0.703125
vt 0.375000 0.609375
vt 0.484375 0.406250
vt 0.468750 0.500000
vt 0.406250 0.625000
vt 0.437500 0.609375
vt 0.484375 0.765625
vt 0.515625 0.781250
vt 0.515625 0.765625
vt 0.453125 0.484375
vt 0.421875 0.562500
vt 0.421875 0.484375
vt 0.437500 0.484375
vt 0.437500 0.406250
vt 0.437500 0.375000
vt 0.468750 0.359375
vt 0.468750 0.375000
vt 0.625000 0.546875
vt 0.656250 0.562500
vt 0.656250 0.546875
vt 0.484375 0.625000
vt 0.453125 0.703125
vt 0.453125 0.625000
vt 0.500000 0.484375
vt 0.484375 0.484375
vt 0.484375 0.500000
vt 0.515625 0.406250
vt 0.625000 0.500000
vt 0.656250 0.484375
vt 0.656250 0.500000
vt 0.625000 0.468750
vt 0.656250 0.468750
vt 0.565430 0.361328
vt 0.531250 0.361328
vt 0.281250 0.345703
vt 0.265625 0.359375
vt 0.265625 0.345703
vt 0.625000 0.455078
vt 0.659180 0.468750
vt 0.656250 0.720703
vt 0.640625 0.734375
vt 0.640625 0.720703
vt 0.625000 1.000000
vt 0.659180 0.984375
vt 0.659180 1.000000
vt 0.377930 0.359375
vt 0.343750 0.375000
vt 0.377930 0.375000
vt 0.612305 0.361328
vt 0.578125 0.361328
vt 0.546875 0.345703
vt 0.531250 0.359375
vt 0.531250 0.345703
vt 0.659180 0.392578
vt 0.625000 0.406250
vt 0.625000 0.392578
vt 0.546875 0.359375
vt 0.390625 0.375000
vt 0.424805 0.359375
vt 0.424805 0.375000
vt 0.625000 0.562500
vt 0.659180 0.578125
vt 0.659180 0.562500
vt 0.343750 0.828125
vt 0.281250 0.828125
vt 0.609375 0.796875
vt 0.593750 0.796875
vt 0.296875 0.562500
vt 0.234375 0.609375
vt 0.171875 0.406250
vt 0.171875 0.359375
vt 0.609375 0.843750
vt 0.546875 0.609375
vt 0.531250 0.541992
vt 0.484375 0.578125
vt 0.484375 0.541992
vt 0.484375 0.354492
vt 0.468750 0.390625
vt 0.468750 0.354492
vt 0.531250 0.495117
vt 0.484375 0.531250
vt 0.484375 0.495117
vt 0.500000 0.354492
vt 0.484375 0.390625
vt 0.609375 0.640625
vt 0.562500 0.625000
vt 0.625000 0.984375
vt 0.203125 0.359375
vt 0.187500 0.406250
vt 0.468750 0.953125
vt 0.406250 1.000000
vt 0.593750 0.750000
vt 0.546875 0.578125
vt 0.234375 0.390625
vt 0.312500 0.390625
vt 0.359375 0.390625
vt 0.406250 0.390625
vt 0.453125 0.390625
vt 0.562500 0.937500
vt 0.476562 0.953125
vt 0.195312 0.414062
vt 0.507812 0.625000
vt 0.585938 0.828125
vt 0.484375 0.632812
vt 0.117188 0.421875
vt 0.518555 0.372070
vt 0.226562 0.387695
vt 0.627930 0.765625
vt 0.625000 0.372070
vt 0.000000 0.340820
vt 0.546875 0.625000
vt 0.659180 0.968750
vt 0.659180 0.885742
vt 0.265625 0.340820
vt 0.656250 0.734375
vt 0.375000 0.859375
vt 0.578125 0.526367
vt 0.515625 0.750000
vt 0.036133 0.640625
vt 0.017578 0.531250
vt 0.395508 0.890625
vt 0.048828 0.531250
vt 0.609375 0.841797
vt 0.609375 0.828125
vt 0.520508 0.937500
vt 0.161133 0.515625
vt 0.567383 0.453125
vt 0.598633 0.984375
vt 0.093750 0.359375
vt 0.328125 0.375000
vt 0.333008 0.609375
vt 0.531250 0.408203
vt 0.442383 0.703125
vt 0.375000 0.375000
vt 0.132812 1.000000
vt 0.367188 0.875000
vt 0.273438 1.000000
vt 0.375000 0.742188
vt 0.375000 0.734375
vt 0.601562 0.515625
vt 0.173828 0.338867
vt 0.601562 0.463867
vt 0.251953 0.338867
vt 0.593750 0.419922
vt 0.578125 0.388672
vt 0.039062 0.421875
vt 0.658203 0.745117
vt 0.085938 0.421875
vt 0.361328 0.359375
vt 0.000000 0.390625
vt 0.609375 0.984375
vt 0.234375 0.406250
vt 0.375000 0.468750
vt 0.375000 0.484375
vt 0.083008 0.640625
vt 0.080078 0.421875
vt 0.129883 0.640625
vt 0.111328 0.421875
vt 0.617188 0.890625
vt 0.392578 0.359375
vt 0.617188 0.703125
vt 0.423828 0.359375
vt 0.046875 0.373047
vt 0.609375 0.953125
vt 0.520508 0.828125
vt 0.520508 0.703125
vt 0.578125 0.421875
vt 0.617188 0.651367
vt 0.455078 0.359375
vt 0.617188 0.578125
vt 0.517578 0.359375
vt 0.609375 0.904297
vt 0.125000 0.390625
vt 0.598633 0.926758
vt 0.598633 0.895508
vt 0.156250 0.333008
vt 0.421875 0.390625
vt 0.270508 0.562500
vt 0.411133 0.486328
vt 0.171875 0.468750
vt 0.250000 0.640625
vt 0.484375 0.796875
vt 0.406250 0.890625
vt 0.468750 1.000000
vt 0.042969 0.359375
vt 0.484375 0.906250
vt 0.687500 0.875000
vt 0.218750 0.343750
vt 0.687500 0.812500
vt 0.515625 0.718750
vt 0.369141 0.531250
vt 0.197266 0.456055
vt 0.281250 0.396484
vt 0.578125 0.546875
vt 0.226562 0.351562
vt 0.648438 0.703125
vt 0.312500 0.351562
vt 0.656250 0.453125
vt 0.656250 0.425781
vt 0.640625 0.351562
vt 0.625000 0.484375
vt 0.565430 0.375000
vt 0.281250 0.359375
vt 0.659180 0.455078
vt 0.612305 0.375000
vt 0.659180 0.406250
vt 0.562500 0.345703
vt 0.390625 0.359375
vt 0.625000 0.578125
vt 0.546875 0.843750
vt 0.531250 0.531250
vt 0.562500 0.640625
vt 0.203125 0.406250
vt 0.546875 0.593750
s 1
usemtl m_ece17920-225a-3ce6-5968-f4225a3677aa
f 7/1/1 2/2/1 4/3/1
f 4/4/2 1/5/2 3/6/2
f 3/7/3 6/8/3 8/9/3
f 8/10/4 5/11/4 7/12/4
f 1/13/5 5/14/5 6/15/5
f 7/16/6 3/17/6 8/18/6
f 15/19/7 10/20/7 12/21/7
f 11/22/8 10/23/8 9/24/8
f 11/25/9 14/26/9 16/27/9
f 16/28/10 13/29/10 15/30/10
f 9/31/11 13/32/11 14/33/11
f 12/34/12 16/35/12 15/36/12
f 23/37/13 18/38/13 20/39/13
f 19/40/14 18/41/14 17/15/14
f 24/42/15 17/43/15 22/44/15
f 24/45/16 21/46/16 23/47/16
f 17/48/17 21/49/17 22/50/18
f 23/51/19 19/52/19 24/53/19
f 31/54/7 26/55/7 28/56/7
f 28/57/8 25/58/8 27/59/8
f 27/60/9 30/61/9 32/62/9
f 31/63/10 30/64/10 29/65/10
f 25/66/11 29/67/11 30/68/11
f 28/69/20 32/70/20 31/71/20
f 39/72/21 34/73/21 36/74/21
f 36/75/8 33/76/8 35/77/8
f 35/78/22 38/79/22 40/72/22
f 40/80/10 37/81/10 39/75/10
f 33/82/5 37/83/5 38/8/5
f 36/84/6 40/83/6 39/85/6
f 47/86/23 42/87/23 44/88/23
f 44/89/8 41/90/8 43/91/8
f 43/92/24 46/93/24 48/94/24
f 47/95/10 46/96/10 45/97/10
f 41/98/25 45/99/25 46/100/25
f 44/101/26 48/102/27 47/103/27
f 55/104/28 50/105/28 52/106/28
f 52/107/29 49/106/29 51/108/29
f 56/109/30 49/110/30 54/111/30
f 56/112/31 53/113/31 55/114/31
f 49/115/32 53/116/32 54/117/32
f 52/118/33 56/119/33 55/120/33
f 60/121/34 61/122/34 58/123/34
f 60/124/29 57/125/29 59/126/29
f 59/127/35 62/128/35 64/129/35
f 63/124/31 62/130/31 61/131/31
f 57/132/36 61/133/36 62/134/36
f 63/135/37 59/136/37 64/137/37
f 71/138/38 66/139/38 68/140/38
f 68/141/39 65/142/39 67/143/39
f 67/144/40 70/145/40 72/146/40
f 72/147/41 69/148/41 71/149/41
f 65/150/42 69/151/42 70/152/42
f 68/153/43 72/154/43 71/155/43
f 79/156/44 74/157/44 76/158/44
f 75/159/39 74/160/39 73/161/39
f 75/162/45 78/163/45 80/164/45
f 79/165/41 78/166/41 77/129/41
f 73/167/46 77/168/46 78/169/46
f 76/170/47 80/155/47 79/171/47
f 87/172/21 82/173/21 84/73/21
f 84/174/8 81/175/8 83/176/8
f 83/177/22 86/178/22 88/179/22
f 88/180/10 85/176/10 87/181/10
f 81/182/5 85/183/5 86/184/5
f 84/185/6 88/186/6 87/187/6
f 95/188/34 90/189/34 92/190/34
f 91/191/29 90/192/29 89/193/29
f 96/194/35 89/195/35 94/196/35
f 95/197/31 94/198/31 93/199/31
f 89/200/36 93/201/36 94/202/36
f 95/203/37 91/204/37 96/205/37
f 103/206/34 98/108/34 100/207/34
f 99/208/29 98/209/29 97/210/29
f 99/211/35 102/212/35 104/213/35
f 104/214/31 101/215/31 103/216/31
f 102/217/36 98/218/36 101/219/36
f 100/220/37 104/221/37 103/222/37
f 111/223/21 106/224/21 108/225/21
f 108/226/8 105/227/8 107/228/8
f 107/229/22 110/230/22 112/223/22
f 112/231/10 109/228/10 111/232/10
f 105/233/5 109/234/5 110/235/5
f 108/234/6 112/236/6 111/237/6
f 119/238/21 114/239/21 116/229/21
f 116/240/8 113/74/8 115/105/8
f 115/241/22 118/242/22 120/238/22
f 120/243/10 117/244/10 119/240/10
f 113/236/5 117/245/5 118/246/5
f 116/241/6 120/247/6 119/248/6
f 127/249/48 122/250/48 124/251/48
f 123/252/49 122/253/49 121/254/49
f 123/255/50 126/256/50 128/257/50
f 127/38/51 126/258/51 125/257/51
f 126/259/52 122/260/52 125/261/52
f 124/262/53 128/263/53 127/264/53
f 135/265/54 130/266/54 132/267/54
f 132/268/49 129/269/49 131/270/49
f 131/271/55 134/272/55 136/273/55
f 136/274/51 133/275/51 135/276/51
f 129/277/56 133/278/56 134/279/56
f 132/280/57 136/281/57 135/282/57
f 143/283/54 138/284/54 140/285/54
f 140/286/49 137/287/49 139/204/49
f 139/288/55 142/289/55 144/31/55
f 144/290/51 141/130/51 143/291/51
f 142/171/56 138/292/56 141/293/56
f 140/294/57 144/293/57 143/295/57
f 148/89/54 149/296/54 146/297/54
f 148/298/49 145/299/49 147/300/49
f 147/301/55 150/96/55 152/302/55
f 152/303/51 149/304/51 151/305/51
f 145/306/56 149/307/56 150/308/56
f 148/309/57 152/310/57 151/311/57
f 156/312/58 157/313/58 154/314/58
f 155/315/59 154/316/59 153/317/59
f 160/318/60 153/319/60 158/320/60
f 159/321/61 158/193/61 157/316/61
f 158/322/62 154/323/62 157/324/62
f 156/325/63 160/326/63 159/327/63
f 167/328/64 162/329/64 164/330/64
f 164/331/59 161/166/59 163/332/59
f 168/333/65 161/334/65 166/335/65
f 168/336/61 165/337/61 167/331/61
f 161/325/66 165/338/66 166/327/66
f 167/339/67 163/340/67 168/338/67
f 175/341/68 170/84/68 172/342/68
f 172/343/8 169/344/8 171/345/8
f 171/346/69 174/347/69 176/348/69
f 176/158/10 173/349/10 175/350/10
f 169/351/70 173/352/70 174/353/70
f 172/142/71 176/354/71 175/355/72
f 183/356/73 178/357/73 180/4/73
f 180/358/74 177/359/74 179/360/74
f 184/361/75 177/362/75 182/363/75
f 184/364/76 181/365/76 183/366/76
f 182/367/77 178/368/77 181/369/77
f 180/370/71 184/371/71 183/372/72
f 191/356/78 186/357/78 188/4/79
f 188/358/80 185/359/80 187/360/80
f 187/373/81 190/363/81 192/361/81
f 192/364/82 189/365/82 191/366/82
f 190/367/70 186/368/70 189/369/70
f 188/370/71 192/371/71 191/372/71
f 196/4/83 197/374/83 194/357/83
f 196/358/84 193/359/84 195/360/84
f 200/361/85 193/362/85 198/363/85
f 199/366/86 198/375/86 197/365/86
f 193/376/70 197/369/70 198/367/70
f 199/372/71 195/377/71 200/371/71
f 207/356/73 202/357/73 204/4/73
f 204/358/74 201/359/74 203/360/74
f 208/361/75 201/362/75 206/363/75
f 208/364/76 205/365/76 207/366/76
f 201/376/77 205/369/77 206/367/77
f 204/370/71 208/371/71 207/372/72
f 212/4/87 213/374/87 210/357/87
f 212/358/88 209/359/88 211/360/88
f 216/361/89 209/362/89 214/363/89
f 216/364/90 213/365/90 215/366/90
f 209/376/70 213/369/70 214/367/70
f 215/372/71 211/377/71 216/371/71
f 223/356/73 218/357/73 220/4/73
f 220/358/74 217/359/74 219/360/74
f 224/361/75 217/362/75 222/363/75
f 224/364/76 221/365/76 223/366/76
f 217/376/77 221/369/77 222/367/77
f 220/370/71 224/371/71 223/372/72
f 231/356/73 226/357/73 228/4/73
f 228/358/74 225/359/74 227/360/74
f 232/361/75 225/362/75 230/363/75
f 232/364/76 229/365/76 231/366/76
f 230/367/77 226/368/77 229/369/77
f 228/370/71 232/371/71 231/372/72
f 239/378/91 234/379/91 236/380/91
f 236/381/92 233/382/92 235/383/92
f 235/384/93 238/385/93 240/386/93
f 240/387/94 237/388/94 239/389/94
f 233/121/95 237/353/95 238/2/95
f 236/390/96 240/97/96 239/391/96
f 247/392/97 242/393/97 244/394/97
f 243/395/98 242/396/99 241/397/98
f 243/398/100 246/399/100 248/400/100
f 247/401/101 246/402/102 245/403/101
f 246/391/103 242/404/103 245/189/103
f 244/160/104 248/189/104 247/196/104
f 255/405/105 250/406/105 252/407/105
f 252/408/92 249/409/92 251/410/92
f 256/411/106 249/412/106 254/413/106
f 256/414/107 253/415/94 255/416/94
f 249/160/108 253/417/108 254/196/108
f 252/418/109 256/266/109 255/419/109
f 263/392/97 258/393/97 260/394/97
f 260/420/98 257/397/99 259/395/99
f 259/398/100 262/399/100 264/400/100
f 264/421/102 261/403/102 263/401/102
f 262/391/103 258/404/103 261/189/103
f 260/160/104 264/189/104 263/196/104
f 271/405/105 266/406/105 268/407/105
f 268/408/92 265/409/110 267/410/110
f 267/422/106 270/413/106 272/411/106
f 271/416/94 270/423/94 269/415/94
f 270/196/108 266/139/108 269/417/108
f 271/419/109 267/424/109 272/266/109
f 279/378/91 274/379/91 276/380/91
f 276/381/92 273/382/92 275/383/92
f 280/386/93 273/224/93 278/385/93
f 280/387/94 277/388/94 279/389/94
f 273/121/95 277/353/95 278/2/95
f 276/390/96 280/97/96 279/391/96
f 287/392/97 282/393/97 284/394/97
f 284/420/99 281/397/98 283/395/98
f 288/400/100 281/425/111 286/399/100
f 288/421/102 285/403/101 287/401/101
f 286/391/103 282/404/103 285/189/103
f 284/160/104 288/189/104 287/196/104
f 295/405/105 290/406/105 292/407/105
f 292/408/92 289/409/92 291/410/92
f 291/422/106 294/413/106 296/411/106
f 296/414/107 293/415/94 295/416/94
f 289/160/108 293/417/108 294/196/108
f 292/418/109 296/266/109 295/419/109
f 300/380/91 301/29/91 298/379/91
f 299/383/92 298/426/92 297/382/92
f 299/384/93 302/385/93 304/386/93
f 304/387/94 301/388/94 303/389/94
f 297/121/95 301/353/95 302/2/95
f 303/391/96 299/427/96 304/97/96
f 311/428/21 306/429/21 308/430/21
f 308/431/92 305/247/92 307/248/92
f 307/432/22 310/430/22 312/93/22
f 312/433/94 309/434/94 311/431/94
f 305/101/112 309/136/112 310/103/112
f 308/435/113 312/136/113 311/436/113
f 316/437/114 317/438/114 314/439/114
f 316/440/115 313/181/115 315/441/115
f 315/441/116 318/438/116 320/442/116
f 319/443/117 318/444/117 317/75/117
f 313/445/118 317/446/118 318/447/118
f 316/448/119 320/449/119 319/450/119
f 324/451/120 325/452/120 322/453/120
f 323/454/121 322/455/121 321/456/121
f 323/457/122 326/458/122 328/459/122
f 328/460/123 325/461/123 327/462/123
f 321/463/124 325/464/124 326/465/124
f 327/466/125 323/467/125 328/468/125
f 335/469/120 330/18/120 332/470/126
f 332/471/121 329/472/121 331/473/121
f 336/474/122 329/475/122 334/16/122
f 335/471/123 334/377/123 333/476/123
f 329/109/127 333/477/127 334/82/127
f 335/478/125 331/479/125 336/480/125
f 340/128/120 341/481/120 338/482/120
f 340/483/121 337/484/121 339/485/121
f 339/486/128 342/487/122 344/406/128
f 344/488/123 341/489/123 343/490/123
f 337/491/127 341/492/127 342/493/127
f 340/494/129 344/495/129 343/496/129
f 351/497/130 346/453/130 348/451/130
f 347/454/131 346/455/131 345/456/131
f 352/459/132 345/498/132 350/458/132
f 352/460/133 349/461/133 351/462/133
f 345/463/134 349/464/134 350/465/134
f 348/499/135 352/468/135 351/466/135
f 359/469/130 354/18/130 356/470/130
f 356/471/131 353/472/131 355/473/131
f 360/474/132 353/475/132 358/16/132
f 360/370/133 357/476/133 359/471/133
f 358/82/134 354/231/134 357/477/134
f 356/500/135 360/480/135 359/478/135
f 364/128/130 365/481/130 362/482/130
f 363/485/131 362/501/131 361/484/131
f 363/486/132 366/487/132 368/406/132
f 367/490/133 366/502/133 365/489/133
f 361/491/134 365/492/134 366/493/134
f 367/496/135 363/503/135 368/495/135
f 375/504/136 370/505/136 372/506/136
f 372/507/8 369/508/8 371/13/8
f 371/509/137 374/510/137 376/511/137
f 376/512/10 373/513/10 375/507/10
f 369/514/138 373/515/138 374/26/138
f 372/516/139 376/517/139 375/518/139
f 383/519/136 378/520/136 380/521/136
f 379/433/8 378/522/8 377/521/8
f 379/426/137 382/506/137 384/382/137
f 384/13/10 381/522/10 383/523/10
f 377/524/138 381/525/138 382/526/138
f 380/527/139 384/528/139 383/529/139
f 391/530/136 386/531/136 388/532/136
f 387/512/8 386/533/8 385/534/8
f 387/535/137 390/480/137 392/508/137
f 392/536/10 389/533/10 391/15/10
f 385/537/138 389/538/138 390/539/138
f 388/540/139 392/538/139 391/541/139
f 399/542/140 394/126/140 396/543/140
f 396/544/141 393/545/141 395/546/141
f 400/547/142 393/548/142 398/540/142
f 400/549/143 397/550/143 399/551/143
f 393/552/144 397/553/144 398/554/144
f 399/555/145 395/556/145 400/557/145
f 407/558/146 402/290/146 404/559/146
f 404/560/147 401/561/147 403/562/147
f 403/563/148 406/564/148 408/565/148
f 407/560/149 406/472/149 405/566/149
f 401/567/150 405/568/150 406/569/150
f 404/570/151 408/571/151 407/572/151
f 415/573/21 410/232/21 412/574/21
f 412/575/8 409/100/8 411/576/8
f 411/577/22 414/578/22 416/329/22
f 416/487/10 413/579/10 415/580/10
f 409/418/5 413/581/5 414/115/5
f 412/582/6 416/153/6 415/170/6
f 423/583/152 418/584/152 420/585/152
f 420/586/153 417/587/153 419/588/153
f 419/589/154 422/590/154 424/591/154
f 424/592/155 421/593/155 423/586/155
f 422/594/5 418/595/5 421/153/5
f 420/355/6 424/552/6 423/596/6
f 431/500/21 426/511/21 428/335/21
f 428/597/8 425/598/8 427/487/8
f 427/599/22 430/600/22 432/20/22
f 432/102/10 429/576/10 431/601/10
f 425/582/5 429/292/5 430/170/5
f 428/602/6 432/292/6 431/294/6
f 439/7/1 434/8/1 436/9/1
f 436/10/156 433/11/156 435/12/156
f 435/1/3 438/2/3 440/3/3
f 440/4/157 437/5/157 439/6/157
f 438/245/5 434/603/5 437/132/5
f 436/604/6 440/238/6 439/605/6
f 447/589/152 442/590/152 444/591/152
f 444/592/158 441/593/158 443/586/158
f 443/583/154 446/584/154 448/585/154
f 448/586/159 445/587/159 447/588/159
f 441/238/5 445/606/5 446/431/5
f 444/606/6 448/13/6 447/607/6
f 7/1/1 5/608/1 2/2/1
f 4/4/2 2/357/2 1/5/2
f 3/7/3 1/424/3 6/8/3
f 8/10/4 6/537/4 5/11/4
f 1/13/5 2/607/5 5/14/5
f 7/16/6 4/200/6 3/17/6
f 15/19/7 13/609/7 10/20/7
f 11/22/8 12/610/8 10/23/8
f 11/25/9 9/611/9 14/26/9
f 16/28/10 14/612/10 13/29/10
f 9/31/11 10/613/11 13/32/11
f 12/34/12 11/517/12 16/35/12
f 23/37/13 21/614/13 18/38/13
f 19/40/14 20/615/14 18/41/14
f 24/42/15 19/616/15 17/43/15
f 24/45/16 22/617/16 21/46/16
f 17/48/17 18/618/17 21/49/17
f 23/51/19 20/619/19 19/52/19
f 31/54/7 29/620/7 26/55/7
f 28/57/8 26/621/8 25/58/8
f 27/60/9 25/145/9 30/61/9
f 31/63/10 32/622/10 30/64/10
f 25/66/11 26/623/11 29/67/11
f 28/69/20 27/624/20 32/70/20
f 39/72/21 37/79/21 34/73/21
f 36/75/8 34/81/8 33/76/8
f 35/78/22 33/429/22 38/79/22
f 40/80/10 38/505/10 37/81/10
f 33/82/5 34/625/5 37/83/5
f 36/84/6 35/625/6 40/83/6
f 47/86/23 45/78/23 42/87/23
f 44/89/8 42/272/8 41/90/8
f 43/92/24 41/432/24 46/93/24
f 47/95/10 48/626/10 46/96/10
f 41/98/25 42/85/25 45/99/25
f 44/101/26 43/627/26 48/102/27
f 55/104/28 53/628/28 50/105/28
f 52/107/29 50/629/29 49/106/29
f 56/109/30 51/630/30 49/110/30
f 56/112/31 54/631/31 53/113/31
f 49/115/32 50/632/32 53/116/32
f 52/118/33 51/633/33 56/119/33
f 60/121/34 63/634/34 61/122/34
f 60/124/29 58/131/29 57/125/29
f 59/127/35 57/635/35 62/128/35
f 63/124/31 64/291/31 62/130/31
f 57/132/36 58/458/36 61/133/36
f 63/135/37 60/436/37 59/136/37
f 71/138/38 69/636/38 66/139/38
f 68/141/39 66/123/39 65/142/39
f 67/144/40 65/637/40 70/145/40
f 72/147/41 70/638/41 69/148/41
f 65/150/42 66/639/42 69/151/42
f 68/153/43 67/594/43 72/154/43
f 79/156/44 77/640/44 74/157/44
f 75/159/39 76/641/39 74/160/39
f 75/162/45 73/642/45 78/163/45
f 79/165/41 80/332/41 78/166/41
f 73/167/46 74/643/46 77/168/46
f 76/170/47 75/153/47 80/155/47
f 87/172/21 85/644/21 82/173/21
f 84/174/8 82/645/8 81/175/8
f 83/177/22 81/646/22 86/178/22
f 88/180/10 86/174/10 85/176/10
f 81/182/5 82/647/5 85/183/5
f 84/185/6 83/648/6 88/186/6
f 95/188/34 93/649/34 90/189/34
f 91/191/29 92/650/29 90/192/29
f 96/194/35 91/651/35 89/195/35
f 95/197/31 96/652/31 94/198/31
f 89/200/36 90/653/36 93/201/36
f 95/203/37 92/654/37 91/204/37
f 103/206/34 101/655/34 98/108/34
f 99/208/29 100/656/29 98/209/29
f 99/211/35 97/657/35 102/212/35
f 104/214/31 102/658/31 101/215/31
f 102/217/36 97/659/36 98/218/36
f 100/220/37 99/660/37 104/221/37
f 111/223/21 109/230/21 106/224/21
f 108/226/8 106/111/8 105/227/8
f 107/229/22 105/239/22 110/230/22
f 112/231/10 110/226/10 109/228/10
f 105/233/5 106/661/5 109/234/5
f 108/234/6 107/235/6 112/236/6
f 119/238/21 117/242/21 114/239/21
f 116/240/8 114/244/8 113/74/8
f 115/241/22 113/662/22 118/242/22
f 120/243/10 118/87/10 117/244/10
f 113/236/5 114/237/5 117/245/5
f 116/241/6 115/663/6 120/247/6
f 127/249/48 125/664/48 122/250/48
f 123/252/49 124/665/49 122/253/49
f 123/255/50 121/666/50 126/256/50
f 127/38/51 128/667/51 126/258/51
f 126/259/52 121/575/52 122/260/52
f 124/262/53 123/603/53 128/263/53
f 135/265/54 133/668/54 130/266/54
f 132/268/49 130/669/49 129/269/49
f 131/271/55 129/670/55 134/272/55
f 136/274/51 134/671/51 133/275/51
f 129/277/56 130/672/56 133/278/56
f 132/280/57 131/673/57 136/281/57
f 143/283/54 141/674/54 138/284/54
f 140/286/49 138/17/49 137/287/49
f 139/288/55 137/675/55 142/289/55
f 144/290/51 142/676/51 141/130/51
f 142/171/56 137/170/56 138/292/56
f 140/294/57 139/292/57 144/293/57
f 148/89/54 151/677/54 149/296/54
f 148/298/49 146/678/49 145/299/49
f 147/301/55 145/679/55 150/96/55
f 152/303/51 150/680/51 149/304/51
f 145/306/56 146/681/56 149/307/56
f 148/309/57 147/682/57 152/310/57
f 156/312/58 159/683/58 157/313/58
f 155/315/59 156/321/59 154/316/59
f 160/318/60 155/684/60 153/319/60
f 159/321/61 160/685/61 158/193/61
f 158/322/62 153/686/62 154/323/62
f 156/325/63 155/449/63 160/326/63
f 167/328/64 165/687/64 162/329/64
f 164/331/59 162/337/59 161/166/59
f 168/333/65 163/688/65 161/334/65
f 168/336/61 166/689/61 165/337/61
f 161/325/66 162/340/66 165/338/66
f 167/339/67 164/11/67 163/340/67
f 175/341/68 173/284/68 170/84/68
f 172/343/8 170/690/8 169/344/8
f 171/346/69 169/691/69 174/347/69
f 176/158/10 174/577/10 173/349/10
f 169/351/70 170/692/70 173/352/70
f 172/142/71 171/693/71 176/354/71
f 183/356/73 181/374/73 178/357/73
f 180/358/74 178/694/74 177/359/74
f 184/361/75 179/373/75 177/362/75
f 184/364/76 182/375/76 181/365/76
f 182/367/77 177/376/70 178/368/77
f 180/370/71 179/377/71 184/371/71
f 191/356/78 189/374/78 186/357/78
f 188/358/80 186/694/80 185/359/80
f 187/373/81 185/362/160 190/363/81
f 192/364/82 190/375/82 189/365/82
f 190/367/70 185/376/77 186/368/70
f 188/370/71 187/377/71 192/371/71
f 196/4/83 199/356/83 197/374/83
f 196/358/84 194/694/84 193/359/84
f 200/361/85 195/373/85 193/362/85
f 199/366/86 200/364/86 198/375/86
f 193/376/70 194/368/77 197/369/70
f 199/372/71 196/370/72 195/377/71
f 207/356/73 205/374/73 202/357/73
f 204/358/74 202/694/74 201/359/74
f 208/361/75 203/373/75 201/362/75
f 208/364/76 206/375/76 205/365/76
f 201/376/77 202/368/70 205/369/77
f 204/370/71 203/377/71 208/371/71
f 212/4/87 215/356/87 213/374/87
f 212/358/88 210/694/88 209/359/88
f 216/361/89 211/373/89 209/362/89
f 216/364/90 214/375/90 213/365/90
f 209/376/70 210/368/70 213/369/70
f 215/372/71 212/370/71 211/377/71
f 223/356/73 221/374/73 218/357/73
f 220/358/74 218/694/74 217/359/74
f 224/361/75 219/373/75 217/362/75
f 224/364/76 222/375/76 221/365/76
f 217/376/77 218/368/70 221/369/77
f 220/370/71 219/377/71 224/371/71
f 231/356/73 229/374/73 226/357/73
f 228/358/74 226/694/74 225/359/74
f 232/361/75 227/373/75 225/362/75
f 232/364/76 230/375/76 229/365/76
f 230/367/77 225/376/70 226/368/77
f 228/370/71 227/377/71 232/371/71
f 239/378/91 237/29/91 234/379/91
f 236/381/92 234/426/92 233/382/92
f 235/384/93 233/224/93 238/385/93
f 240/387/94 238/90/94 237/388/94
f 233/121/95 234/695/95 237/353/95
f 236/390/96 235/427/96 240/97/96
f 247/392/97 245/696/97 242/393/97
f 243/395/98 244/420/99 242/396/99
f 243/398/100 241/425/100 246/399/100
f 247/401/101 248/421/102 246/402/102
f 246/391/103 241/390/103 242/404/103
f 244/160/104 243/404/104 248/189/104
f 255/405/105 253/697/105 250/406/105
f 252/408/92 250/698/92 249/409/92
f 256/411/106 251/422/106 249/412/106
f 256/414/107 254/423/107 253/415/94
f 249/160/108 250/139/108 253/417/108
f 252/418/109 251/424/109 256/266/109
f 263/392/97 261/696/97 258/393/97
f 260/420/98 258/396/98 257/397/99
f 259/398/100 257/425/100 262/399/100
f 264/421/102 262/402/102 261/403/102
f 262/391/103 257/390/103 258/404/103
f 260/160/104 259/404/104 264/189/104
f 271/405/105 269/697/105 266/406/105
f 268/408/92 266/698/92 265/409/110
f 267/422/106 265/412/106 270/413/106
f 271/416/94 272/414/94 270/423/94
f 270/196/108 265/160/108 266/139/108
f 271/419/109 268/418/109 267/424/109
f 279/378/91 277/29/91 274/379/91
f 276/381/92 274/426/92 273/382/92
f 280/386/93 275/384/93 273/224/93
f 280/387/94 278/90/94 277/388/94
f 273/121/95 274/695/95 277/353/95
f 276/390/96 275/427/96 280/97/96
f 287/392/97 285/696/97 282/393/97
f 284/420/99 282/396/99 281/397/98
f 288/400/100 283/398/111 281/425/111
f 288/421/102 286/402/102 285/403/101
f 286/391/103 281/390/103 282/404/103
f 284/160/104 283/404/104 288/189/104
f 295/405/105 293/697/105 290/406/105
f 292/408/92 290/698/92 289/409/92
f 291/422/106 289/412/106 294/413/106
f 296/414/107 294/423/107 293/415/94
f 289/160/108 290/139/108 293/417/108
f 292/418/109 291/424/109 296/266/109
f 300/380/91 303/378/91 301/29/91
f 299/383/92 300/381/92 298/426/92
f 299/384/93 297/224/93 302/385/93
f 304/387/94 302/90/94 301/388/94
f 297/121/95 298/695/95 301/353/95
f 303/391/96 300/390/96 299/427/96
f 311/428/21 309/573/21 306/429/21
f 308/431/92 306/434/92 305/247/92
f 307/432/22 305/428/22 310/430/22
f 312/433/94 310/521/94 309/434/94
f 305/101/112 306/699/112 309/136/112
f 308/435/113 307/699/113 312/136/113
f 316/437/114 319/442/114 317/438/114
f 316/440/115 314/700/115 313/181/115
f 315/441/116 313/181/116 318/438/116
f 319/443/117 320/701/117 318/444/117
f 313/445/118 314/702/118 317/446/118
f 316/448/119 315/703/119 320/449/119
f 324/451/120 327/497/126 325/452/120
f 323/454/121 324/704/121 322/455/121
f 323/457/122 321/498/122 326/458/122
f 328/460/123 326/705/123 325/461/123
f 321/463/124 322/706/124 325/464/124
f 327/466/125 324/499/125 323/467/125
f 335/469/120 333/707/120 330/18/120
f 332/471/121 330/476/121 329/472/121
f 336/474/122 331/708/122 329/475/122
f 335/471/123 336/370/123 334/377/123
f 329/109/127 330/231/127 333/477/127
f 335/478/125 332/500/125 331/479/125
f 340/128/120 343/77/126 341/481/120
f 340/483/121 338/501/121 337/484/121
f 339/486/128 337/597/122 342/487/122
f 344/488/123 342/502/123 341/489/123
f 337/491/127 338/709/127 341/492/127
f 340/494/129 339/503/129 344/495/129
f 351/497/130 349/452/130 346/453/130
f 347/454/131 348/704/131 346/455/131
f 352/459/132 347/457/132 345/498/132
f 352/460/133 350/705/133 349/461/133
f 345/463/134 346/706/134 349/464/134
f 348/499/135 347/467/135 352/468/135
f 359/469/130 357/707/130 354/18/130
f 356/471/131 354/476/131 353/472/131
f 360/474/132 355/708/132 353/475/132
f 360/370/133 358/377/133 357/476/133
f 358/82/134 353/109/134 354/231/134
f 356/500/135 355/479/135 360/480/135
f 364/128/130 367/77/130 365/481/130
f 363/485/131 364/483/131 362/501/131
f 363/486/132 361/597/132 366/487/132
f 367/490/133 368/488/133 366/502/133
f 361/491/134 362/709/134 365/492/134
f 367/496/135 364/494/135 363/503/135
f 375/504/136 373/344/136 370/505/136
f 372/507/8 370/513/8 369/508/8
f 371/509/137 369/163/137 374/510/137
f 376/512/10 374/535/10 373/513/10
f 369/514/138 370/509/138 373/515/138
f 372/516/139 371/285/139 376/517/139
f 383/519/136 381/478/136 378/520/136
f 379/433/8 380/523/8 378/522/8
f 379/426/137 377/504/137 382/506/137
f 384/13/10 382/519/10 381/522/10
f 377/524/138 378/299/138 381/525/138
f 380/527/139 379/570/139 384/528/139
f 391/530/136 389/289/136 386/531/136
f 387/512/8 388/15/8 386/533/8
f 387/535/137 385/584/137 390/480/137
f 392/536/10 390/161/10 389/533/10
f 385/537/138 386/710/138 389/538/138
f 388/540/139 387/710/139 392/538/139
f 399/542/140 397/711/140 394/126/140
f 396/544/141 394/712/141 393/545/141
f 400/547/142 395/713/142 393/548/142
f 400/549/143 398/624/143 397/550/143
f 393/552/144 394/596/144 397/553/144
f 399/555/145 396/215/145 395/556/145
f 407/558/146 405/714/146 402/290/146
f 404/560/147 402/566/147 401/561/147
f 403/563/148 401/715/148 406/564/148
f 407/560/149 408/716/149 406/472/149
f 401/567/150 402/717/150 405/568/150
f 404/570/151 403/718/151 408/571/151
f 415/573/21 413/175/21 410/232/21
f 412/575/8 410/581/8 409/100/8
f 411/577/22 409/157/22 414/578/22
f 416/487/10 414/598/10 413/579/10
f 409/418/5 410/719/5 413/581/5
f 412/582/6 411/620/6 416/153/6
f 423/583/152 421/427/152 418/584/152
f 420/586/153 418/593/153 417/587/153
f 419/589/154 417/720/154 422/590/154
f 424/592/155 422/14/155 421/593/155
f 422/594/5 417/721/5 418/595/5
f 420/355/6 419/354/6 424/552/6
f 431/500/21 429/515/21 426/511/21
f 428/597/8 426/722/8 425/598/8
f 427/599/22 425/693/22 430/600/22
f 432/102/10 430/575/10 429/576/10
f 425/582/5 426/723/5 429/292/5
f 428/602/6 427/723/6 432/292/6
f 439/7/1 437/424/1 434/8/1
f 436/10/156 434/537/156 433/11/156
f 435/1/3 433/608/3 438/2/3
f 440/4/157 438/357/157 437/5/157
f 438/245/5 433/661/5 434/603/5
f 436/604/6 435/225/6 440/238/6
f 447/589/152 445/720/152 442/590/152
f 444/592/158 442/14/158 441/593/158
f 443/583/154 441/427/154 446/584/154
f 448/586/159 446/593/159 445/587/159
f 441/238/5 442/605/5 445/606/5
f 444/606/6 443/431/6 448/13/6
