# Made in Blockbench 5.2.1
mtllib defender.mtl

o defender
v -0.325444 0.953125 0.169194
v -0.28125 1.015625 0.125
v -0.28125 0.953125 0.125
v -0.237056 1.015625 0.169194
v -0.237056 0.953125 0.169194
v -0.28125 1.015625 0.213388
v -0.28125 0.953125 0.213388
v -0.325444 1.015625 0.169194
v -0.25 0.75 -0.225
v 0.25 1.25 -0.225
v 0.25 0.75 -0.225
v 0.25 1.25 -0.1
v 0.25 0.75 -0.1
v -0.25 1.25 -0.1
v -0.25 0.75 -0.1
v -0.25 1.25 -0.225
v -0.15625 1.248634 -0.224506
v 0.15625 1.450377 -0.181624
v 0.15625 1.248634 -0.224506
v 0.15625 1.437383 -0.12049
v 0.15625 1.23564 -0.163371
v -0.15625 1.437383 -0.12049
v -0.15625 1.23564 -0.163371
v -0.15625 1.450377 -0.181624
v -0.029967 1.17415 -0.210385
v -0.322788 1.536602 -0.140271
v -0.155147 1.584849 -0.126348
v -0.156641 1.570634 -0.0591
v -0.031461 1.159934 -0.143137
v -0.324282 1.522386 -0.073024
v -0.199102 1.111687 -0.157061
v -0.197608 1.125903 -0.224309
v -0.16127 1.581834 -0.120732
v -0.347637 1.568396 0.048738
v -0.185983 1.61492 0.062164
v -0.170053 1.555863 0.075
v -0.14534 1.522777 -0.107895
v -0.331706 1.509339 0.061574
v -0.306993 1.476253 -0.121322
v -0.322924 1.53531 -0.134158
v -0.329924 1.487518 0.139166
v -0.168052 1.557628 0.046174
v -0.168349 1.534985 0.149982
v -0.186082 1.616107 0.058878
v -0.186379 1.593464 0.162686
v -0.347657 1.56864 0.048061
v -0.347954 1.545997 0.15187
v -0.329627 1.510161 0.035357
v -0.096705 1.295996 0.128528
v -0.342516 1.541637 0.08976
v -0.180941 1.589103 0.100576
v -0.102143 1.300356 0.190638
v -0.186379 1.593464 0.162686
v -0.347954 1.545997 0.15187
v -0.263718 1.25289 0.179822
v -0.25828 1.248529 0.117712
v -0.319353 1.544041 -0.128848
v -0.194387 1.620206 0.06648
v -0.169674 1.587119 -0.116416
v -0.152151 1.522157 -0.102296
v -0.176864 1.555243 0.080599
v -0.326543 1.512165 0.068167
v -0.30183 1.479079 -0.114728
v -0.344066 1.577128 0.054048
v 0.029967 1.17415 -0.210385
v 0.322788 1.536602 -0.140271
v 0.197608 1.125903 -0.224309
v 0.199102 1.111687 -0.157061
v 0.324282 1.522386 -0.073024
v 0.156641 1.570634 -0.0591
v 0.031461 1.159934 -0.143137
v 0.155147 1.584849 -0.126348
v 0.174838 1.584293 -0.12301
v 0.33396 1.573336 0.024062
v 0.312542 1.544662 -0.134447
v 0.295019 1.479699 -0.120327
v 0.316437 1.508374 0.038182
v 0.157314 1.519331 -0.10889
v 0.178732 1.548006 0.049619
v 0.196256 1.612968 0.0355
v 0.16127 1.581834 -0.120732
v 0.347637 1.568396 0.048738
v 0.322924 1.53531 -0.134158
v 0.331706 1.509339 0.061574
v 0.306993 1.476253 -0.121322
v 0.170053 1.555863 0.075
v 0.14534 1.522777 -0.107895
v 0.185983 1.61492 0.062164
v 0.168349 1.534985 0.149982
v 0.329627 1.510161 0.035357
v 0.329924 1.487518 0.139166
v 0.347954 1.545997 0.15187
v 0.347657 1.56864 0.048061
v 0.186379 1.593464 0.162686
v 0.186082 1.616107 0.058878
v 0.168052 1.557628 0.046174
v 0.25828 1.248529 0.117712
v 0.180941 1.589103 0.100576
v 0.342516 1.541637 0.08976
v 0.347954 1.545997 0.15187
v 0.263718 1.25289 0.179822
v 0.102143 1.300356 0.190638
v 0.186379 1.593464 0.162686
v 0.096705 1.295996 0.128528
v -0.265625 0.75 0.10625
v 0.265625 1.4375 0.10625
v 0.265625 0.75 0.10625
v 0.265625 1.4375 0.2
v 0.265625 0.75 0.2
v -0.265625 1.4375 0.2
v -0.265625 0.75 0.2
v -0.265625 1.4375 0.10625
v -0.3125 0.8125 -0.1625
v -0.25 1.0625 -0.1625
v -0.25 0.8125 -0.1625
v -0.25 1.0625 0.15
v -0.25 0.8125 0.15
v -0.3125 1.0625 0.15
v -0.3125 0.8125 0.15
v -0.3125 1.0625 -0.1625
v -0.241789 0.8125 -0.233211
v -0.197595 1.0625 -0.189017
v -0.197595 0.8125 -0.189017
v -0.268306 1.0625 -0.118306
v -0.268306 0.8125 -0.118306
v -0.3125 1.0625 -0.1625
v -0.3125 0.8125 -0.1625
v -0.241789 1.0625 -0.233211
v -0.103125 0.8125 -0.240625
v -0.103125 1.0625 -0.178125
v -0.103125 0.8125 -0.178125
v -0.25 1.0625 -0.178125
v -0.25 0.8125 -0.178125
v -0.25 1.0625 -0.240625
v -0.25 0.8125 -0.240625
v -0.103125 1.0625 -0.240625
v -0.292708 0.874626 0.024153
v -0.210012 1.047464 -0.212043
v -0.243202 0.874975 0.031156
v -0.226712 1.20598 -0.101894
v -0.259901 1.033491 0.141305
v -0.276218 1.205631 -0.108898
v -0.309407 1.033142 0.134302
v -0.259518 1.047115 -0.219047
v 0.243202 0.874975 0.031156
v 0.259518 1.047115 -0.219047
v 0.292708 0.874626 0.024153
v 0.276218 1.205631 -0.108898
v 0.309407 1.033142 0.134302
v 0.259901 1.033491 0.141305
v 0.226712 1.20598 -0.101894
v 0.210012 1.047464 -0.212043
v 0.25 0.8125 -0.1625
v 0.3125 1.0625 -0.1625
v 0.3125 0.8125 -0.1625
v 0.3125 1.0625 0.15
v 0.3125 0.8125 0.15
v 0.25 1.0625 0.15
v 0.25 0.8125 0.15
v 0.25 1.0625 -0.1625
v 0.103125 0.8125 -0.178125
v 0.103125 1.0625 -0.240625
v 0.103125 0.8125 -0.240625
v 0.25 1.0625 -0.240625
v 0.25 0.8125 -0.240625
v 0.25 1.0625 -0.178125
v 0.25 0.8125 -0.178125
v 0.103125 1.0625 -0.178125
v 0.197595 0.8125 -0.189017
v 0.241789 1.0625 -0.233211
v 0.241789 0.8125 -0.233211
v 0.3125 1.0625 -0.1625
v 0.3125 0.8125 -0.1625
v 0.268306 1.0625 -0.118306
v 0.268306 0.8125 -0.118306
v 0.197595 1.0625 -0.189017
v -0.171875 1.4375 -0.19375
v 0.171875 1.5625 -0.19375
v 0.171875 1.4375 -0.19375
v 0.171875 1.5625 -0.125
v 0.171875 1.4375 -0.125
v -0.171875 1.5625 -0.125
v -0.171875 1.4375 -0.125
v -0.171875 1.5625 -0.19375
v -0.125 1.3125 -0.20625
v 0.125 1.4375 -0.20625
v 0.125 1.3125 -0.20625
v 0.125 1.4375 -0.18125
v 0.125 1.3125 -0.18125
v -0.125 1.4375 -0.18125
v -0.125 1.3125 -0.18125
v -0.125 1.4375 -0.20625
v -0.03125 1.193835 -0.242476
v 0.03125 1.435213 -0.208552
v 0.03125 1.193835 -0.242476
v 0.03125 1.429124 -0.165228
v 0.03125 1.187746 -0.199152
v -0.03125 1.429124 -0.165228
v -0.03125 1.187746 -0.199152
v -0.03125 1.435213 -0.208552
v -0.171875 1.4375 0.175
v 0.171875 1.5625 0.175
v 0.171875 1.4375 0.175
v 0.171875 1.5625 0.24375
v 0.171875 1.4375 0.24375
v -0.171875 1.5625 0.24375
v -0.171875 1.4375 0.24375
v -0.171875 1.5625 0.175
v 0.03125 1.220922 0.206533
v -0.03125 1.464588 0.200152
v -0.03125 1.220922 0.206533
v -0.03125 1.463443 0.156417
v -0.03125 1.219777 0.162798
v 0.03125 1.463443 0.156417
v 0.03125 1.219777 0.162798
v 0.03125 1.464588 0.200152
v 0.28125 0.953125 0.125
v 0.325444 1.015625 0.169194
v 0.325444 0.953125 0.169194
v 0.28125 1.015625 0.213388
v 0.28125 0.953125 0.213388
v 0.237056 1.015625 0.169194
v 0.237056 0.953125 0.169194
v 0.28125 1.015625 0.125
v 0.28125 0.8125 0.125
v 0.325444 0.875 0.169194
v 0.325444 0.8125 0.169194
v 0.28125 0.875 0.213388
v 0.28125 0.8125 0.213388
v 0.237056 0.875 0.169194
v 0.237056 0.8125 0.169194
v 0.28125 0.875 0.125
v -0.325444 0.8125 0.169194
v -0.28125 0.875 0.125
v -0.28125 0.8125 0.125
v -0.237056 0.875 0.169194
v -0.237056 0.8125 0.169194
v -0.28125 0.875 0.213388
v -0.28125 0.8125 0.213388
v -0.325444 0.875 0.169194
vt 0.640625 0.359375
vt 0.625 0.375
vt 0.625 0.359375
vt 0.65625 0.984375
vt 0.640625 1
vt 0.640625 0.984375
vt 0.65625 0.96875
vt 0.640625 0.984375
vt 0.640625 0.96875
vt 0.0625 0.34375
vt 0.046875 0.359375
vt 0.046875 0.34375
vt 0.640625 0.953125
vt 0.65625 0.9375
vt 0.65625 0.953125
vt 0.078125 0.34375
vt 0.0625 0.359375
vt 0.078125 0.359375
vt 0.125 0.703125
vt 0 0.828125
vt 0 0.703125
vt 0.390625 0.875
vt 0.359375 1
vt 0.359375 0.875
vt 0.25 0.703125
vt 0.125 0.828125
vt 0.125 0.703125
vt 0.390625 0.75
vt 0.359375 0.875
vt 0.359375 0.75
vt 0.1875 0.640625
vt 0.3125 0.609375
vt 0.3125 0.640625
vt 0.359375 0.71875
vt 0.484375 0.75
vt 0.484375 0.71875
vt 0.265625 0.651367
vt 0.1875 0.703125
vt 0.1875 0.651367
vt 0.15625 0.38574200000000003
vt 0.140625 0.4375
vt 0.140625 0.38574200000000003
vt 0.34375 0.651367
vt 0.265625 0.703125
vt 0.265625 0.651367
vt 0.5625 0.620117
vt 0.578125 0.671875
vt 0.5625 0.671875
vt 0 0.46875
vt 0.078125 0.453125
vt 0.078125 0.46875
vt 0.53125 0.921875
vt 0.609375 0.9375
vt 0.609375 0.921875
vt 0 0.59375
vt 0.043945 0.703125
vt 0 0.703125
vt 0.173828 0.421875
vt 0.15625 0.53125
vt 0.15625 0.421875
vt 0.09082 0.59375
vt 0.046875 0.703125
vt 0.046875 0.59375
vt 0.314453 0.421875
vt 0.296875 0.53125
vt 0.296875 0.421875
vt 0.546875 0.59375
vt 0.59082 0.576172
vt 0.59082 0.59375
vt 0.375 0.419922
vt 0.418945 0.4375
vt 0.418945 0.419922
vt 0.28125 0.828125
vt 0.323242 0.875
vt 0.28125 0.875
vt 0.578125 0.453125
vt 0.5625 0.5
vt 0.5625 0.453125
vt 0.495117 0.953125
vt 0.453125 1
vt 0.453125 0.953125
vt 0.5625 0.40625
vt 0.578125 0.453125
vt 0.5625 0.453125
vt 0.453125 0.859375
vt 0.495117 0.84375
vt 0.495117 0.859375
vt 0.53125 0.875
vt 0.573242 0.890625
vt 0.573242 0.875
vt 0.573242 0.895508
vt 0.53125 0.921875
vt 0.53125 0.895508
vt 0.328125 0.614258
vt 0.3125 0.640625
vt 0.3125 0.614258
vt 0.573242 0.754883
vt 0.53125 0.78125
vt 0.53125 0.754883
vt 0.34375 0.536133
vt 0.328125 0.5625
vt 0.328125 0.536133
vt 0.604492 0.609375
vt 0.5625 0.59375
vt 0.604492 0.59375
vt 0.620117 0.9375
vt 0.578125 0.953125
vt 0.620117 0.953125
vt 0.234375 0.533203
vt 0.276367 0.609375
vt 0.234375 0.609375
vt 0.078125 0.392578
vt 0.09375 0.46875
vt 0.078125 0.46875
vt 0.323242 0.533203
vt 0.28125 0.609375
vt 0.28125 0.533203
vt 0.53125 0.642578
vt 0.546875 0.71875
vt 0.53125 0.71875
vt 0.578125 0.671875
vt 0.620117 0.65625
vt 0.620117 0.671875
vt 0.578125 0.640625
vt 0.620117 0.65625
vt 0.620117 0.640625
vt 0.039062 0.46875
vt 0 0.515625
vt 0 0.46875
vt 0.234375 0.390625
vt 0.251953 0.4375
vt 0.234375 0.4375
vt 0.085938 0.46875
vt 0.046875 0.515625
vt 0.046875 0.46875
vt 0.580078 0.671875
vt 0.5625 0.71875
vt 0.5625 0.671875
vt 0.578125 0.84375
vt 0.617188 0.826172
vt 0.617188 0.84375
vt 0.617188 0.794922
vt 0.578125 0.8125
vt 0.617188 0.8125
vt 0.137695 0.59375
vt 0.09375 0.703125
vt 0.09375 0.59375
vt 0.328125 0.421875
vt 0.345703 0.53125
vt 0.328125 0.53125
vt 0.18457 0.59375
vt 0.140625 0.703125
vt 0.140625 0.59375
vt 0.486328 0.453125
vt 0.46875 0.5625
vt 0.46875 0.453125
vt 0.606445 0.53125
vt 0.5625 0.513672
vt 0.606445 0.513672
vt 0.5 0.419922
vt 0.543945 0.4375
vt 0.543945 0.419922
vt 0.536133 0.49023400000000006
vt 0.5 0.53125
vt 0.5 0.49023400000000006
vt 0.015625 0.38085900000000006
vt 0.033203 0.421875
vt 0.015625 0.421875
vt 0.5 0.44335900000000006
vt 0.536133 0.484375
vt 0.5 0.484375
vt 0.595703 0.880859
vt 0.578125 0.921875
vt 0.578125 0.880859
vt 0.578125 0.4375
vt 0.614258 0.419922
vt 0.614258 0.4375
vt 0.59375 0.982422
vt 0.629883 1
vt 0.629883 0.982422
vt 0.495117 0.90625
vt 0.453125 0.953125
vt 0.453125 0.90625
vt 0.015625 0.375
vt 0 0.421875
vt 0 0.375
vt 0.495117 0.859375
vt 0.453125 0.90625
vt 0.453125 0.859375
vt 0.59375 0.953125
vt 0.578125 1
vt 0.578125 0.953125
vt 0.620117 0.640625
vt 0.578125 0.625
vt 0.620117 0.625
vt 0.578125 0.609375
vt 0.620117 0.625
vt 0.620117 0.609375
vt 0.416992 0.44238299999999997
vt 0.375 0.46875
vt 0.375 0.44238299999999997
vt 0.359375 0.504883
vt 0.375 0.53125
vt 0.359375 0.53125
vt 0 0.42675799999999997
vt 0.041992 0.453125
vt 0 0.453125
vt 0.546875 0.37988299999999997
vt 0.53125 0.40625
vt 0.53125 0.37988299999999997
vt 0.578125 0.5
vt 0.620117 0.484375
vt 0.620117 0.5
vt 0.578125 0.46875
vt 0.620117 0.484375
vt 0.620117 0.46875
vt 0 0.517578
vt 0.041992 0.59375
vt 0 0.59375
vt 0.375 0.392578
vt 0.359375 0.46875
vt 0.359375 0.392578
vt 0.046875 0.517578
vt 0.088867 0.59375
vt 0.046875 0.59375
vt 0.546875 0.564453
vt 0.53125 0.640625
vt 0.53125 0.564453
vt 0.620117 0.46875
vt 0.578125 0.453125
vt 0.620117 0.453125
vt 0.620117 0.4375
vt 0.578125 0.453125
vt 0.620117 0.453125
vt 0.132812 0.828125
vt 0 1
vt 0 0.828125
vt 0.351562 0.703125
vt 0.328125 0.875
vt 0.328125 0.703125
vt 0.273438 0.828125
vt 0.140625 1
vt 0.140625 0.828125
vt 0.367188 0.53125
vt 0.34375 0.703125
vt 0.34375 0.53125
vt 0.4375 0.84375
vt 0.570312 0.820312
vt 0.570312 0.84375
vt 0.4375 0.789062
vt 0.570312 0.8125
vt 0.570312 0.789062
vt 0.4375 0.40625
vt 0.421875 0.46875
vt 0.421875 0.40625
vt 0.328125 0.765625
vt 0.25 0.828125
vt 0.25 0.765625
vt 0.453125 0.40625
vt 0.4375 0.46875
vt 0.4375 0.40625
vt 0.328125 0.703125
vt 0.25 0.765625
vt 0.25 0.703125
vt 0.328125 0.640625
vt 0.34375 0.5625
vt 0.34375 0.640625
vt 0.265625 0.421875
vt 0.28125 0.5
vt 0.28125 0.421875
vt 0.5625 0.9375
vt 0.546875 1
vt 0.546875 0.9375
vt 0.525391 0.875
vt 0.5 0.9375
vt 0.5 0.875
vt 0.0625 0.390625
vt 0.046875 0.453125
vt 0.046875 0.390625
vt 0.119141 0.4375
vt 0.09375 0.5
vt 0.09375 0.4375
vt 0.0625 0.390625
vt 0.046875 0.36523400000000006
vt 0.0625 0.36523400000000006
vt 0.0625 0.36523400000000006
vt 0.078125 0.390625
vt 0.078125 0.36523400000000006
vt 0.078125 0.390625
vt 0.0625 0.453125
vt 0.0625 0.390625
vt 0.474609 0.625
vt 0.4375 0.6875
vt 0.4375 0.625
vt 0.203125 0.390625
vt 0.1875 0.453125
vt 0.1875 0.390625
vt 0.412109 0.5
vt 0.375 0.5625
vt 0.375 0.5
vt 0.59375 0.71875
vt 0.609375 0.681641
vt 0.609375 0.71875
vt 0.59375 0.556641
vt 0.609375 0.59375
vt 0.609375 0.556641
vt 0.49707 0.37793
vt 0.484375 0.453125
vt 0.484375 0.37793
vt 0.423828 0.643555
vt 0.375 0.71875
vt 0.375 0.643555
vt 0.55957 0.393555
vt 0.546875 0.46875
vt 0.546875 0.393555
vt 0.423828 0.56543
vt 0.375 0.640625
vt 0.375 0.56543
vt 0.453125 0.421875
vt 0.46582 0.373047
vt 0.46582 0.421875
vt 0.387695 0.357422
vt 0.375 0.40625
vt 0.387695 0.40625
vt 0.106445 0.362305
vt 0.09375 0.4375
vt 0.09375 0.362305
vt 0.439453 0.924805
vt 0.390625 1
vt 0.390625 0.924805
vt 0.109375 0.362305
vt 0.12207 0.4375
vt 0.109375 0.4375
vt 0.439453 0.84668
vt 0.390625 0.921875
vt 0.390625 0.84668
vt 0.390625 0.40625
vt 0.40332 0.357422
vt 0.40332 0.40625
vt 0.40625 0.357422
vt 0.418945 0.40625
vt 0.418945 0.357422
vt 0.21875 0.390625
vt 0.203125 0.453125
vt 0.203125 0.390625
vt 0.359375 0.9375
vt 0.28125 1
vt 0.28125 0.9375
vt 0.234375 0.390625
vt 0.21875 0.453125
vt 0.21875 0.390625
vt 0.359375 0.875
vt 0.28125 0.9375
vt 0.28125 0.875
vt 0.28125 0.5
vt 0.296875 0.421875
vt 0.296875 0.5
vt 0.453125 0.421875
vt 0.46875 0.5
vt 0.46875 0.421875
vt 0.5625 0.65625
vt 0.546875 0.71875
vt 0.546875 0.65625
vt 0.474609 0.5625
vt 0.4375 0.625
vt 0.4375 0.5625
vt 0.5625 0.59375
vt 0.546875 0.65625
vt 0.546875 0.59375
vt 0.458984 0.5
vt 0.421875 0.5625
vt 0.421875 0.5
vt 0.421875 0.40625
vt 0.4375 0.36914099999999994
vt 0.4375 0.40625
vt 0.4375 0.36914099999999994
vt 0.453125 0.40625
vt 0.453125 0.36914099999999994
vt 0.484375 0.390625
vt 0.46875 0.453125
vt 0.46875 0.390625
vt 0.150391 0.4375
vt 0.125 0.5
vt 0.125 0.4375
vt 0.5625 0.46875
vt 0.546875 0.53125
vt 0.546875 0.46875
vt 0.259766 0.4375
vt 0.234375 0.5
vt 0.234375 0.4375
vt 0.609375 0.9375
vt 0.625 0.912109
vt 0.625 0.9375
vt 0.078125 0.36523400000000006
vt 0.09375 0.390625
vt 0.09375 0.36523400000000006
vt 0.179688 0.5625
vt 0.09375 0.59375
vt 0.09375 0.5625
vt 0.611328 0.84375
vt 0.59375 0.875
vt 0.59375 0.84375
vt 0.179688 0.53125
vt 0.09375 0.5625
vt 0.09375 0.53125
vt 0.517578 0.375
vt 0.5 0.40625
vt 0.5 0.375
vt 0.484375 0.75
vt 0.570312 0.732422
vt 0.570312 0.75
vt 0.5 0.857422
vt 0.585938 0.875
vt 0.585938 0.857422
vt 0.15625 0.5
vt 0.09375 0.53125
vt 0.09375 0.5
vt 0.646484 0.90625
vt 0.640625 0.9375
vt 0.640625 0.90625
vt 0.296875 0.5
vt 0.234375 0.53125
vt 0.234375 0.5
vt 0.083984 0.328125
vt 0.078125 0.359375
vt 0.078125 0.328125
vt 0.59375 0.96875
vt 0.65625 0.962891
vt 0.65625 0.96875
vt 0.59375 0.541016
vt 0.65625 0.546875
vt 0.65625 0.541016
vt 0.578125 0.939453
vt 0.5625 1
vt 0.5625 0.939453
vt 0.166992 0.361328
vt 0.15625 0.421875
vt 0.15625 0.361328
vt 0.140625 0.376953
vt 0.125 0.4375
vt 0.125 0.376953
vt 0.171875 0.361328
vt 0.182617 0.421875
vt 0.171875 0.421875
vt 0.09375 0.359375
vt 0.109375 0.34863299999999997
vt 0.109375 0.359375
vt 0.640625 0.895508
vt 0.65625 0.90625
vt 0.65625 0.895508
vt 0.523438 0.75
vt 0.4375 0.78125
vt 0.4375 0.75
vt 0.580078 0.375
vt 0.5625 0.40625
vt 0.5625 0.375
vt 0.523438 0.6875
vt 0.4375 0.71875
vt 0.4375 0.6875
vt 0.611328 0.375
vt 0.59375 0.40625
vt 0.59375 0.375
vt 0.359375 0.5
vt 0.445312 0.482422
vt 0.445312 0.5
vt 0.5 0.544922
vt 0.585938 0.5625
vt 0.585938 0.544922
vt 0.578125 0.939453
vt 0.5625 1
vt 0.5625 0.939453
vt 0.166992 0.361328
vt 0.15625 0.421875
vt 0.15625 0.361328
vt 0.140625 0.376953
vt 0.125 0.4375
vt 0.125 0.376953
vt 0.182617 0.361328
vt 0.171875 0.421875
vt 0.171875 0.361328
vt 0.09375 0.359375
vt 0.109375 0.34863299999999997
vt 0.109375 0.359375
vt 0.640625 0.895508
vt 0.65625 0.90625
vt 0.65625 0.895508
vt 0.375 0.703125
vt 0.359375 0.71875
vt 0.359375 0.703125
vt 0.625 0.671875
vt 0.609375 0.6875
vt 0.609375 0.671875
vt 0.640625 0.59375
vt 0.625 0.609375
vt 0.625 0.59375
vt 0.640625 0.578125
vt 0.625 0.59375
vt 0.625 0.578125
vt 0.640625 0.578125
vt 0.625 0.5625
vt 0.640625 0.5625
vt 0.625 0.546875
vt 0.640625 0.5625
vt 0.640625 0.546875
vt 0.5 0.359375
vt 0.484375 0.375
vt 0.484375 0.359375
vt 0.515625 0.359375
vt 0.5 0.375
vt 0.5 0.359375
vt 0.53125 0.359375
vt 0.515625 0.375
vt 0.515625 0.359375
vt 0.546875 0.359375
vt 0.53125 0.375
vt 0.53125 0.359375
vt 0.578125 0.375
vt 0.5625 0.359375
vt 0.578125 0.359375
vt 0.625 0.421875
vt 0.640625 0.4375
vt 0.640625 0.421875
vt 0.59375 0.359375
vt 0.578125 0.375
vt 0.578125 0.359375
vt 0.640625 0.40625
vt 0.625 0.421875
vt 0.625 0.40625
vt 0.609375 0.359375
vt 0.59375 0.375
vt 0.59375 0.359375
vt 0.640625 0.390625
vt 0.625 0.40625
vt 0.625 0.390625
vt 0.609375 0.375
vt 0.625 0.359375
vt 0.625 0.375
vt 0.640625 0.375
vt 0.625 0.390625
vt 0.640625 0.390625
vt 0.640625 0.359375
vt 0.640625 0.375
vt 0.625 0.375
vt 0.65625 0.984375
vt 0.65625 1
vt 0.640625 1
vt 0.65625 0.96875
vt 0.65625 0.984375
vt 0.640625 0.984375
vt 0.0625 0.34375
vt 0.0625 0.359375
vt 0.046875 0.359375
vt 0.640625 0.953125
vt 0.640625 0.9375
vt 0.65625 0.9375
vt 0.078125 0.34375
vt 0.0625 0.34375
vt 0.0625 0.359375
vt 0.125 0.703125
vt 0.125 0.828125
vt 0 0.828125
vt 0.390625 0.875
vt 0.390625 1
vt 0.359375 1
vt 0.25 0.703125
vt 0.25 0.828125
vt 0.125 0.828125
vt 0.390625 0.75
vt 0.390625 0.875
vt 0.359375 0.875
vt 0.1875 0.640625
vt 0.1875 0.609375
vt 0.3125 0.609375
vt 0.359375 0.71875
vt 0.359375 0.75
vt 0.484375 0.75
vt 0.265625 0.651367
vt 0.265625 0.703125
vt 0.1875 0.703125
vt 0.15625 0.38574200000000003
vt 0.15625 0.4375
vt 0.140625 0.4375
vt 0.34375 0.651367
vt 0.34375 0.703125
vt 0.265625 0.703125
vt 0.5625 0.620117
vt 0.578125 0.620117
vt 0.578125 0.671875
vt 0 0.46875
vt 0 0.453125
vt 0.078125 0.453125
vt 0.53125 0.921875
vt 0.53125 0.9375
vt 0.609375 0.9375
vt 0 0.59375
vt 0.043945 0.59375
vt 0.043945 0.703125
vt 0.173828 0.421875
vt 0.173828 0.53125
vt 0.15625 0.53125
vt 0.09082 0.59375
vt 0.09082 0.703125
vt 0.046875 0.703125
vt 0.314453 0.421875
vt 0.314453 0.53125
vt 0.296875 0.53125
vt 0.546875 0.59375
vt 0.546875 0.576172
vt 0.59082 0.576172
vt 0.375 0.419922
vt 0.375 0.4375
vt 0.418945 0.4375
vt 0.28125 0.828125
vt 0.323242 0.828125
vt 0.323242 0.875
vt 0.578125 0.453125
vt 0.578125 0.5
vt 0.5625 0.5
vt 0.495117 0.953125
vt 0.495117 1
vt 0.453125 1
vt 0.5625 0.40625
vt 0.578125 0.40625
vt 0.578125 0.453125
vt 0.453125 0.859375
vt 0.453125 0.84375
vt 0.495117 0.84375
vt 0.53125 0.875
vt 0.53125 0.890625
vt 0.573242 0.890625
vt 0.573242 0.895508
vt 0.573242 0.921875
vt 0.53125 0.921875
vt 0.328125 0.614258
vt 0.328125 0.640625
vt 0.3125 0.640625
vt 0.573242 0.754883
vt 0.573242 0.78125
vt 0.53125 0.78125
vt 0.34375 0.536133
vt 0.34375 0.5625
vt 0.328125 0.5625
vt 0.604492 0.609375
vt 0.5625 0.609375
vt 0.5625 0.59375
vt 0.620117 0.9375
vt 0.578125 0.9375
vt 0.578125 0.953125
vt 0.234375 0.533203
vt 0.276367 0.533203
vt 0.276367 0.609375
vt 0.078125 0.392578
vt 0.09375 0.392578
vt 0.09375 0.46875
vt 0.323242 0.533203
vt 0.323242 0.609375
vt 0.28125 0.609375
vt 0.53125 0.642578
vt 0.546875 0.642578
vt 0.546875 0.71875
vt 0.578125 0.671875
vt 0.578125 0.65625
vt 0.620117 0.65625
vt 0.578125 0.640625
vt 0.578125 0.65625
vt 0.620117 0.65625
vt 0.039062 0.46875
vt 0.039062 0.515625
vt 0 0.515625
vt 0.234375 0.390625
vt 0.251953 0.390625
vt 0.251953 0.4375
vt 0.085938 0.46875
vt 0.085938 0.515625
vt 0.046875 0.515625
vt 0.580078 0.671875
vt 0.580078 0.71875
vt 0.5625 0.71875
vt 0.578125 0.84375
vt 0.578125 0.826172
vt 0.617188 0.826172
vt 0.617188 0.794922
vt 0.578125 0.794922
vt 0.578125 0.8125
vt 0.137695 0.59375
vt 0.137695 0.703125
vt 0.09375 0.703125
vt 0.328125 0.421875
vt 0.345703 0.421875
vt 0.345703 0.53125
vt 0.18457 0.59375
vt 0.18457 0.703125
vt 0.140625 0.703125
vt 0.486328 0.453125
vt 0.486328 0.5625
vt 0.46875 0.5625
vt 0.606445 0.53125
vt 0.5625 0.53125
vt 0.5625 0.513672
vt 0.5 0.419922
vt 0.5 0.4375
vt 0.543945 0.4375
vt 0.536133 0.49023400000000006
vt 0.536133 0.53125
vt 0.5 0.53125
vt 0.015625 0.38085900000000006
vt 0.033203 0.38085900000000006
vt 0.033203 0.421875
vt 0.5 0.44335900000000006
vt 0.536133 0.44335900000000006
vt 0.536133 0.484375
vt 0.595703 0.880859
vt 0.595703 0.921875
vt 0.578125 0.921875
vt 0.578125 0.4375
vt 0.578125 0.419922
vt 0.614258 0.419922
vt 0.59375 0.982422
vt 0.59375 1
vt 0.629883 1
vt 0.495117 0.90625
vt 0.495117 0.953125
vt 0.453125 0.953125
vt 0.015625 0.375
vt 0.015625 0.421875
vt 0 0.421875
vt 0.495117 0.859375
vt 0.495117 0.90625
vt 0.453125 0.90625
vt 0.59375 0.953125
vt 0.59375 1
vt 0.578125 1
vt 0.620117 0.640625
vt 0.578125 0.640625
vt 0.578125 0.625
vt 0.578125 0.609375
vt 0.578125 0.625
vt 0.620117 0.625
vt 0.416992 0.44238299999999997
vt 0.416992 0.46875
vt 0.375 0.46875
vt 0.359375 0.504883
vt 0.375 0.504883
vt 0.375 0.53125
vt 0 0.42675799999999997
vt 0.041992 0.42675799999999997
vt 0.041992 0.453125
vt 0.546875 0.37988299999999997
vt 0.546875 0.40625
vt 0.53125 0.40625
vt 0.578125 0.5
vt 0.578125 0.484375
vt 0.620117 0.484375
vt 0.578125 0.46875
vt 0.578125 0.484375
vt 0.620117 0.484375
vt 0 0.517578
vt 0.041992 0.517578
vt 0.041992 0.59375
vt 0.375 0.392578
vt 0.375 0.46875
vt 0.359375 0.46875
vt 0.046875 0.517578
vt 0.088867 0.517578
vt 0.088867 0.59375
vt 0.546875 0.564453
vt 0.546875 0.640625
vt 0.53125 0.640625
vt 0.620117 0.46875
vt 0.578125 0.46875
vt 0.578125 0.453125
vt 0.620117 0.4375
vt 0.578125 0.4375
vt 0.578125 0.453125
vt 0.132812 0.828125
vt 0.132812 1
vt 0 1
vt 0.351562 0.703125
vt 0.351562 0.875
vt 0.328125 0.875
vt 0.273438 0.828125
vt 0.273438 1
vt 0.140625 1
vt 0.367188 0.53125
vt 0.367188 0.703125
vt 0.34375 0.703125
vt 0.4375 0.84375
vt 0.4375 0.820312
vt 0.570312 0.820312
vt 0.4375 0.789062
vt 0.4375 0.8125
vt 0.570312 0.8125
vt 0.4375 0.40625
vt 0.4375 0.46875
vt 0.421875 0.46875
vt 0.328125 0.765625
vt 0.328125 0.828125
vt 0.25 0.828125
vt 0.453125 0.40625
vt 0.453125 0.46875
vt 0.4375 0.46875
vt 0.328125 0.703125
vt 0.328125 0.765625
vt 0.25 0.765625
vt 0.328125 0.640625
vt 0.328125 0.5625
vt 0.34375 0.5625
vt 0.265625 0.421875
vt 0.265625 0.5
vt 0.28125 0.5
vt 0.5625 0.9375
vt 0.5625 1
vt 0.546875 1
vt 0.525391 0.875
vt 0.525391 0.9375
vt 0.5 0.9375
vt 0.0625 0.390625
vt 0.0625 0.453125
vt 0.046875 0.453125
vt 0.119141 0.4375
vt 0.119141 0.5
vt 0.09375 0.5
vt 0.0625 0.390625
vt 0.046875 0.390625
vt 0.046875 0.36523400000000006
vt 0.0625 0.36523400000000006
vt 0.0625 0.390625
vt 0.078125 0.390625
vt 0.078125 0.390625
vt 0.078125 0.453125
vt 0.0625 0.453125
vt 0.474609 0.625
vt 0.474609 0.6875
vt 0.4375 0.6875
vt 0.203125 0.390625
vt 0.203125 0.453125
vt 0.1875 0.453125
vt 0.412109 0.5
vt 0.412109 0.5625
vt 0.375 0.5625
vt 0.59375 0.71875
vt 0.59375 0.681641
vt 0.609375 0.681641
vt 0.59375 0.556641
vt 0.59375 0.59375
vt 0.609375 0.59375
vt 0.49707 0.37793
vt 0.49707 0.453125
vt 0.484375 0.453125
vt 0.423828 0.643555
vt 0.423828 0.71875
vt 0.375 0.71875
vt 0.55957 0.393555
vt 0.55957 0.46875
vt 0.546875 0.46875
vt 0.423828 0.56543
vt 0.423828 0.640625
vt 0.375 0.640625
vt 0.453125 0.421875
vt 0.453125 0.373047
vt 0.46582 0.373047
vt 0.387695 0.357422
vt 0.375 0.357422
vt 0.375 0.40625
vt 0.106445 0.362305
vt 0.106445 0.4375
vt 0.09375 0.4375
vt 0.439453 0.924805
vt 0.439453 1
vt 0.390625 1
vt 0.109375 0.362305
vt 0.12207 0.362305
vt 0.12207 0.4375
vt 0.439453 0.84668
vt 0.439453 0.921875
vt 0.390625 0.921875
vt 0.390625 0.40625
vt 0.390625 0.357422
vt 0.40332 0.357422
vt 0.40625 0.357422
vt 0.40625 0.40625
vt 0.418945 0.40625
vt 0.21875 0.390625
vt 0.21875 0.453125
vt 0.203125 0.453125
vt 0.359375 0.9375
vt 0.359375 1
vt 0.28125 1
vt 0.234375 0.390625
vt 0.234375 0.453125
vt 0.21875 0.453125
vt 0.359375 0.875
vt 0.359375 0.9375
vt 0.28125 0.9375
vt 0.28125 0.5
vt 0.28125 0.421875
vt 0.296875 0.421875
vt 0.453125 0.421875
vt 0.453125 0.5
vt 0.46875 0.5
vt 0.5625 0.65625
vt 0.5625 0.71875
vt 0.546875 0.71875
vt 0.474609 0.5625
vt 0.474609 0.625
vt 0.4375 0.625
vt 0.5625 0.59375
vt 0.5625 0.65625
vt 0.546875 0.65625
vt 0.458984 0.5
vt 0.458984 0.5625
vt 0.421875 0.5625
vt 0.421875 0.40625
vt 0.421875 0.36914099999999994
vt 0.4375 0.36914099999999994
vt 0.4375 0.36914099999999994
vt 0.4375 0.40625
vt 0.453125 0.40625
vt 0.484375 0.390625
vt 0.484375 0.453125
vt 0.46875 0.453125
vt 0.150391 0.4375
vt 0.150391 0.5
vt 0.125 0.5
vt 0.5625 0.46875
vt 0.5625 0.53125
vt 0.546875 0.53125
vt 0.259766 0.4375
vt 0.259766 0.5
vt 0.234375 0.5
vt 0.609375 0.9375
vt 0.609375 0.912109
vt 0.625 0.912109
vt 0.078125 0.36523400000000006
vt 0.078125 0.390625
vt 0.09375 0.390625
vt 0.179688 0.5625
vt 0.179688 0.59375
vt 0.09375 0.59375
vt 0.611328 0.84375
vt 0.611328 0.875
vt 0.59375 0.875
vt 0.179688 0.53125
vt 0.179688 0.5625
vt 0.09375 0.5625
vt 0.517578 0.375
vt 0.517578 0.40625
vt 0.5 0.40625
vt 0.484375 0.75
vt 0.484375 0.732422
vt 0.570312 0.732422
vt 0.5 0.857422
vt 0.5 0.875
vt 0.585938 0.875
vt 0.15625 0.5
vt 0.15625 0.53125
vt 0.09375 0.53125
vt 0.646484 0.90625
vt 0.646484 0.9375
vt 0.640625 0.9375
vt 0.296875 0.5
vt 0.296875 0.53125
vt 0.234375 0.53125
vt 0.083984 0.328125
vt 0.083984 0.359375
vt 0.078125 0.359375
vt 0.59375 0.96875
vt 0.59375 0.962891
vt 0.65625 0.962891
vt 0.59375 0.541016
vt 0.59375 0.546875
vt 0.65625 0.546875
vt 0.578125 0.939453
vt 0.578125 1
vt 0.5625 1
vt 0.166992 0.361328
vt 0.166992 0.421875
vt 0.15625 0.421875
vt 0.140625 0.376953
vt 0.140625 0.4375
vt 0.125 0.4375
vt 0.171875 0.361328
vt 0.182617 0.361328
vt 0.182617 0.421875
vt 0.09375 0.359375
vt 0.09375 0.34863299999999997
vt 0.109375 0.34863299999999997
vt 0.640625 0.895508
vt 0.640625 0.90625
vt 0.65625 0.90625
vt 0.523438 0.75
vt 0.523438 0.78125
vt 0.4375 0.78125
vt 0.580078 0.375
vt 0.580078 0.40625
vt 0.5625 0.40625
vt 0.523438 0.6875
vt 0.523438 0.71875
vt 0.4375 0.71875
vt 0.611328 0.375
vt 0.611328 0.40625
vt 0.59375 0.40625
vt 0.359375 0.5
vt 0.359375 0.482422
vt 0.445312 0.482422
vt 0.5 0.544922
vt 0.5 0.5625
vt 0.585938 0.5625
vt 0.578125 0.939453
vt 0.578125 1
vt 0.5625 1
vt 0.166992 0.361328
vt 0.166992 0.421875
vt 0.15625 0.421875
vt 0.140625 0.376953
vt 0.140625 0.4375
vt 0.125 0.4375
vt 0.182617 0.361328
vt 0.182617 0.421875
vt 0.171875 0.421875
vt 0.09375 0.359375
vt 0.09375 0.34863299999999997
vt 0.109375 0.34863299999999997
vt 0.640625 0.895508
vt 0.640625 0.90625
vt 0.65625 0.90625
vt 0.375 0.703125
vt 0.375 0.71875
vt 0.359375 0.71875
vt 0.625 0.671875
vt 0.625 0.6875
vt 0.609375 0.6875
vt 0.640625 0.59375
vt 0.640625 0.609375
vt 0.625 0.609375
vt 0.640625 0.578125
vt 0.640625 0.59375
vt 0.625 0.59375
vt 0.640625 0.578125
vt 0.625 0.578125
vt 0.625 0.5625
vt 0.625 0.546875
vt 0.625 0.5625
vt 0.640625 0.5625
vt 0.5 0.359375
vt 0.5 0.375
vt 0.484375 0.375
vt 0.515625 0.359375
vt 0.515625 0.375
vt 0.5 0.375
vt 0.53125 0.359375
vt 0.53125 0.375
vt 0.515625 0.375
vt 0.546875 0.359375
vt 0.546875 0.375
vt 0.53125 0.375
vt 0.578125 0.375
vt 0.5625 0.375
vt 0.5625 0.359375
vt 0.625 0.421875
vt 0.625 0.4375
vt 0.640625 0.4375
vt 0.59375 0.359375
vt 0.59375 0.375
vt 0.578125 0.375
vt 0.640625 0.40625
vt 0.640625 0.421875
vt 0.625 0.421875
vt 0.609375 0.359375
vt 0.609375 0.375
vt 0.59375 0.375
vt 0.640625 0.390625
vt 0.640625 0.40625
vt 0.625 0.40625
vt 0.609375 0.375
vt 0.609375 0.359375
vt 0.625 0.359375
vt 0.640625 0.375
vt 0.625 0.375
vt 0.625 0.390625
vn -0.7071067811865476 0 -0.7071067811865476
vn 0.7071067811865476 0 -0.7071067811865476
vn 0.7071067811865474 0 0.7071067811865478
vn -0.7071067811865474 0 0.7071067811865478
vn 0 1 0
vn 0 -1 0
vn 0 0 -1
vn 1 0 0
vn 0 0 1
vn -1 0 0
vn 0 1 0
vn 0 -1 0
vn 0 0.20791262592166634 -0.9781474019708672
vn 1 0 0
vn 0 -0.20790798702071936 0.9781483879928405
vn -1 0 0
vn 0 0.9781490091373776 0.20790506468955136
vn 0 -0.9781497007169387 -0.20790181092853272
vn 0.02172900581211497 0.2067710502513621 -0.9781480374076134
vn 0.9579457120864953 0.2756984400000955 0.07956370326104249
vn -0.021734360155964562 -0.20677259124511635 0.9781475926967214
vn -0.9579455838140145 -0.2756988608450832 -0.07956378937651437
vn -0.28612909176295614 0.9387388710938186 0.1920923599324264
vn 0.28612389242236624 -0.9387409277540734 -0.19209005373651122
vn -0.25488752474154175 0.9449091917678418 -0.2053751909159768
vn 0.9579475978694151 0.2756911988080844 0.07956608973663905
vn 0.2548878058095372 -0.944909110876266 0.20537521426069014
vn -0.9579440715969043 -0.27570440371256855 -0.07956278945488288
vn -0.13179994997878938 0.17645826686009664 0.975444131276784
vn 0.131799201791526 -0.17645848219425064 -0.9754441934159115
vn 0.28848231087820236 -0.9356609730385379 -0.20326460548494105
vn 0.9574820174625103 0.28128304697051 0.06409394451043858
vn -0.2884823055295889 0.9356613807365861 0.20326273636463313
vn -0.9574820191487874 -0.28128317552670534 -0.06409335513431808
vn 0.00280144526381104 0.21311270621266534 -0.9770236058331181
vn -0.002795901665618589 -0.2131110776530936 0.9770239769398772
vn 0.08701733716723004 -0.06976162396146815 -0.9937611880399553
vn 0.9574833511531115 0.28128125090497913 0.064081901921977
vn -0.08701733716723005 0.06976162396146816 0.9937611880399553
vn -0.9574829595769664 -0.28128156488034023 -0.06408637435680609
vn -0.27505992992587136 0.9570852374261758 -0.09126819407688212
vn 0.2750585973750068 -0.9570841690883857 0.09128341191305413
vn -0.2548884788994108 0.9449078367216966 -0.20538024108046102
vn 0.9579484059542273 0.27568820300632035 0.07956674087142736
vn 0.25488899875582943 -0.9449085327125575 0.20537639377555675
vn -0.9579473386197029 -0.2756927513706394 -0.07956383143813062
vn -0.13180122325797364 0.17645059524874696 0.9754453470000586
vn 0.13180549391864538 -0.17646642717078 -0.9754419059351724
vn -0.021733720449842647 0.20677469005290278 -0.9781471632371759
vn 0.9579455066276338 -0.2756987922669321 -0.07956495632174508
vn 0.02173449538448644 -0.2067721475745326 0.9781476834802594
vn -0.9579455317790714 0.275699031564631 0.07956382431002752
vn 0.2861225442254505 0.9387440536829864 0.19207678506469647
vn -0.28612389242236624 -0.9387409277540734 -0.19209005373651103
vn 0.25488636532313025 0.9449099330783136 -0.20537321914578005
vn 0.9579471414439132 -0.27569301536105834 -0.07956529067729548
vn -0.2548901972071635 -0.9449075835970554 0.20537927312284218
vn -0.957943654393778 0.2757060951467683 0.07956195136882455
vn 0.13179852980532603 0.176452031763996 0.975445451077359
vn -0.13180184864878156 -0.17646552411809927 -0.9754425618612756
vn 0.25488752474154175 0.9449091917678419 -0.20537519091597678
vn 0.9579440715969043 -0.27570440371256855 -0.07956278945488288
vn -0.25488766143754016 -0.9449089175950731 0.20537628270131209
vn -0.9579476538019375 0.275691123920903 0.07956567580679899
vn 0.13179973929453406 0.17646047480480365 0.9754437603232471
vn -0.13180371731430796 -0.17647522201041582 -0.9754405548871261
vn -0.2884823055295901 -0.9356613807365853 -0.20326273636463493
vn 0.9574820191487872 -0.28128317552670645 -0.06409335513431771
vn 0.2884834641928638 0.9356606342205495 0.2032645282809667
vn -0.9574820174625103 0.28128304697051 0.06409394451043857
vn -0.0028014452638110386 0.21311270621266534 -0.9770236058331181
vn 0.002795901665618125 -0.21311107765309423 0.9770239769398769
vn -0.08701727451188711 -0.06976140594409043 -0.9937612088309883
vn 0.9574830985227099 -0.28128212995990975 -0.06408181808100645
vn 0.08701767033577806 0.06976128966182418 0.9937611823340924
vn -0.957482706945059 0.28128244393723345 0.06408629052971908
vn 0.27505316689734355 0.9570857644132952 -0.09128304846553197
vn -0.2750544994443676 -0.9570868327546479 0.09126783060358831
vn 0 0 -1
vn 1 0 0
vn 0 0 1
vn -1 0 0
vn 0 1 0
vn 0 -1 0
vn 0 0 -1
vn 1 0 0
vn 0 0 1
vn -1 0 0
vn 0 1 0
vn 0 -1 0
vn 0.7071067811865476 0 -0.7071067811865476
vn 0.7071067811865476 0 0.7071067811865476
vn -0.7071067811865476 0 0.7071067811865476
vn -0.7071067811865476 0 -0.7071067811865476
vn 0 1 0
vn 0 -1 0
vn 1 0 0
vn 0 0 1
vn -1 0 0
vn 0 0 -1
vn 0 1 0
vn 0 -1 0
vn 0.08618776232576852 -0.8181489785320171 -0.5685102624863458
vn 0.9901174364688767 0.00697541529487064 0.14006714668959366
vn -0.08618758447495081 0.8181499029233863 0.5685089591456117
vn -0.9901171229950226 -0.006973786132260778 -0.14006944370218885
vn 0.11063742601019468 0.5749659266338626 -0.8106624101165063
vn -0.11062142223069173 -0.574965346345252 0.8106650056871478
vn -0.08618755269426892 -0.8181500681052352 -0.5685087262478665
vn 0.9901174881208279 -0.006975683740444401 -0.14006676819879785
vn 0.08619905189540418 0.8181487339893573 0.5685089027657753
vn -0.9901170713405782 0.006973517681647564 0.14006982219985895
vn -0.11063742601019473 0.574965926633862 -0.8106624101165065
vn 0.110621422230692 -0.574965346345252 0.8106650056871479
vn 0 0 -1
vn 1 0 0
vn 0 0 1
vn -1 0 0
vn 0 1 0
vn 0 -1 0
vn -1 0 0
vn 0 0 -1
vn 1 0 0
vn 0 0 1
vn 0 1 0
vn 0 -1 0
vn -0.7071067811865476 0 -0.7071067811865476
vn 0.7071067811865476 0 -0.7071067811865476
vn 0.7071067811865476 0 0.7071067811865476
vn -0.7071067811865476 0 0.7071067811865476
vn 0 1 0
vn 0 -1 0
vn 0 0 -1
vn 1 0 0
vn 0 0 1
vn -1 0 0
vn 0 1 0
vn 0 -1 0
vn 0 0 -1
vn 1 0 0
vn 0 0 1
vn -1 0 0
vn 0 1 0
vn 0 -1 0
vn 0 0.1391752509076533 -0.9902677665837618
vn 1 0 0
vn 0 -0.1391752509076532 0.990267766583762
vn -1 0 0
vn 0 0.9902674107343178 0.13917778284464213
vn 0 -0.9902674107343178 -0.13917778284464205
vn 0 0 -1
vn 1 0 0
vn 0 0 1
vn -1 0 0
vn 0 1 0
vn 0 -1 0
vn 0 0.026178511279786904 0.9996572840464748
vn -1 0 0
vn 0 -0.02617851127978688 -0.9996572840464748
vn 1 0 0
vn 0 0.9996574692759618 -0.026171437117204252
vn 0 -0.9996574692759616 0.02617143711720932
vn 0.7071067811865476 0 -0.7071067811865476
vn 0.7071067811865474 0 0.7071067811865478
vn -0.7071067811865474 0 0.7071067811865478
vn -0.7071067811865476 0 -0.7071067811865476
vn 0 1 0
vn 0 -1 0
vn 0.7071067811865476 0 -0.7071067811865476
vn 0.7071067811865474 0 0.7071067811865478
vn -0.7071067811865474 0 0.7071067811865478
vn -0.7071067811865476 0 -0.7071067811865476
vn 0 1 0
vn 0 -1 0
vn -0.7071067811865476 0 -0.7071067811865476
vn 0.7071067811865476 0 -0.7071067811865476
vn 0.7071067811865474 0 0.7071067811865478
vn -0.7071067811865474 0 0.7071067811865478
vn 0 1 0
vn 0 -1 0
vn -0.7071067811865476 0 -0.7071067811865476
vn 0.7071067811865476 0 -0.7071067811865476
vn 0.7071067811865474 0 0.7071067811865478
vn -0.7071067811865474 0 0.7071067811865478
vn 0 1 0
vn 0 -1 0
vn 0 0 -1
vn 1 0 0
vn 0 0 1
vn -1 0 0
vn 0 1 0
vn 0 -1 0
vn 0 0.20791262592166634 -0.9781474019708672
vn 1 0 0
vn 0 -0.20790798702071936 0.9781483879928405
vn -1 0 0
vn 0 0.9781490091373776 0.20790506468955136
vn 0 -0.9781497007169387 -0.20790181092853272
vn 0.021733720449842647 0.20677469005290278 -0.9781471632371759
vn 0.9579456189211806 0.275699860750218 0.07955990178492375
vn -0.021733363523517187 -0.20677182182335438 0.9781477774906028
vn -0.9579455066276338 -0.2756987922669321 -0.07956495632174508
vn -0.2861225442254505 0.9387440536829864 0.19207678506469647
vn 0.28612389242236624 -0.9387409277540736 -0.19209005373651117
vn -0.25488752474154175 0.9449091917678419 -0.20537519091597678
vn 0.9579479782775355 0.27568992100201745 0.07956593725887944
vn 0.25488882730284873 -0.9449085820571328 0.20537637953512974
vn -0.9579440715969043 -0.27570440371256855 -0.07956278945488288
vn -0.13179973929453406 0.17646047480480365 0.9754437603232471
vn 0.1318100028488823 -0.1764734130741723 -0.9754400328195119
vn 0.28848345883364834 -0.9356610419215576 -0.2032626591620805
vn 0.9574820174625103 0.28128304697051 0.06409394451043857
vn -0.2884834641928638 0.9356606342205495 0.2032645282809667
vn -0.9574820191487872 -0.28128317552670645 -0.06409335513431771
vn 0.0028014452638110386 0.21311270621266534 -0.9770236058331181
vn -0.002795901665618125 -0.21311107765309423 0.9770239769398769
vn 0.08701767033577809 -0.06976128966182411 -0.9937611823340923
vn 0.957482706945059 0.28128244393723345 0.06408629052971908
vn -0.08701767033577806 0.06976128966182418 0.9937611823340924
vn -0.9574830985227099 -0.28128212995990975 -0.06408181808100645
vn -0.27505316689734355 0.9570857644132952 -0.09128304846553197
vn 0.2750544994443676 -0.9570868327546479 0.09126783060358831
vn -0.2548884788994108 0.9449078367216965 -0.20538024108046096
vn 0.957947338619703 0.27569275137063914 0.07956383143813082
vn 0.2548889987558293 -0.9449085327125576 0.20537639377555664
vn -0.9579484059542275 -0.2756882030063197 -0.07956674087142777
vn -0.13180122325797367 0.17645059524874687 0.9754453470000586
vn 0.13180549391864532 -0.17646642717078032 -0.9754419059351724
vn -0.02172900581211497 0.2067710502513621 -0.9781480374076134
vn 0.9579455838140145 -0.2756988608450832 -0.07956378937651437
vn 0.02173322829277964 -0.20677226549254016 0.9781476867074095
vn -0.9579457992289601 0.2756992691821242 0.07955978074399146
vn 0.28612909176295614 0.9387388710938186 0.1920923599324264
vn -0.28612389242236635 -0.9387409277540736 -0.19209005373651114
vn 0.25489069373624973 0.944907711661064 -0.20537806769493425
vn 0.9579479399149964 -0.2756895255994394 -0.07956776914914
vn -0.2548901972071636 -0.9449075835970554 0.2053792731228423
vn -0.9579438848459463 0.2757050880258453 0.07956266664031286
vn 0.13181001362502667 0.17646512641575574 0.9754415305220718
vn -0.13180198069723764 -0.17646482460238028 -0.9754426705667207
vn 0.25488752474154175 0.9449091917678418 -0.2053751909159768
vn 0.9579440715969043 -0.27570440371256855 -0.07956278945488288
vn -0.2548889716688486 -0.9449087753401622 0.2053753110935002
vn -0.9579479223465173 0.2756899958831868 0.07956635119143983
vn 0.13179994997878938 0.17645826686009664 0.975444131276784
vn -0.1318054872976175 -0.17645667317230523 -0.9754436713676501
vn -0.2884834641928638 -0.9356606342205495 -0.2032645282809667
vn 0.9574820191487874 -0.28128317552670534 -0.06409335513431808
vn 0.2884823055295889 0.9356613807365861 0.20326273636463313
vn -0.9574820174625103 0.28128304697051 0.06409394451043857
vn -0.00280144526381104 0.21311270621266534 -0.9770236058331181
vn 0.002795901665618589 -0.2131110776530936 0.9770239769398772
vn -0.08701773299225365 -0.06976150767847503 -0.9937611615430113
vn 0.9574829595769664 -0.28128156488034023 -0.06408637435680609
vn 0.08701733716723005 0.06976162396146816 0.9937611880399553
vn -0.9574833511531115 0.28128125090497913 0.064081901921977
vn 0.27505992992587136 0.9570852374261758 -0.09126819407688212
vn -0.2750585973750068 -0.9570841690883857 0.09128341191305413
vn 0 0 -1
vn 1 0 0
vn 0 0 1
vn -1 0 0
vn 0 1 0
vn 0 -1 0
vn 0 0 -1
vn 1 0 0
vn 0 0 1
vn -1 0 0
vn 0 1 0
vn 0 -1 0
vn 0.7071067811865476 0 -0.7071067811865476
vn 0.7071067811865476 0 0.7071067811865476
vn -0.7071067811865476 0 0.7071067811865476
vn -0.7071067811865476 0 -0.7071067811865476
vn 0 1 0
vn 0 -1 0
vn 1 0 0
vn 0 0 1
vn -1 0 0
vn 0 0 -1
vn 0 1 0
vn 0 -1 0
vn 0.0861988104445059 -0.8181499887644886 -0.568507133607503
vn 0.9901166308809304 0.006977698655931899 0.14007272744707466
vn -0.08619905189540418 0.8181487339893573 0.5685089027657753
vn -0.9901170476619034 -0.006979864721212681 -0.14006967344057622
vn 0.11063742601019685 0.5749659266338621 -0.8106624101165063
vn -0.110621422230692 -0.574965346345252 0.8106650056871479
vn -0.08619902010583941 -0.8181488991941087 -0.5685086698373751
vn 0.9901166825364233 -0.006977967112331405 -0.14007234894170564
vn 0.08618758447495081 0.8181499029233863 0.5685089591456117
vn -0.990116996008904 0.00697959626985263 0.140070051939071
vn -0.11063742601019695 0.5749659266338626 -0.8106624101165059
vn 0.11062142223069173 -0.574965346345252 0.8106650056871478
vn 0 0 -1
vn 1 0 0
vn 0 0 1
vn -1 0 0
vn 0 1 0
vn 0 -1 0
vn -1 0 0
vn 0 0 -1
vn 1 0 0
vn 0 0 1
vn 0 1 0
vn 0 -1 0
vn -0.7071067811865476 0 -0.7071067811865476
vn 0.7071067811865476 0 -0.7071067811865476
vn 0.7071067811865476 0 0.7071067811865476
vn -0.7071067811865476 0 0.7071067811865476
vn 0 1 0
vn 0 -1 0
vn 0 0 -1
vn 1 0 0
vn 0 0 1
vn -1 0 0
vn 0 1 0
vn 0 -1 0
vn 0 0 -1
vn 1 0 0
vn 0 0 1
vn -1 0 0
vn 0 1 0
vn 0 -1 0
vn 0 0.1391752509076533 -0.9902677665837618
vn 1 0 0
vn 0 -0.1391752509076532 0.990267766583762
vn -1 0 0
vn 0 0.9902674107343178 0.13917778284464213
vn 0 -0.9902674107343178 -0.13917778284464205
vn 0 0 -1
vn 1 0 0
vn 0 0 1
vn -1 0 0
vn 0 1 0
vn 0 -1 0
vn 0 0.026178511279786904 0.9996572840464748
vn -1 0 0
vn 0 -0.02617851127978688 -0.9996572840464748
vn 1 0 0
vn 0 0.9996574692759618 -0.026171437117204252
vn 0 -0.9996574692759616 0.02617143711720932
vn 0.7071067811865476 0 -0.7071067811865476
vn 0.7071067811865474 0 0.7071067811865478
vn -0.7071067811865474 0 0.7071067811865478
vn -0.7071067811865476 0 -0.7071067811865476
vn 0 1 0
vn 0 -1 0
vn 0.7071067811865476 0 -0.7071067811865476
vn 0.7071067811865474 0 0.7071067811865478
vn -0.7071067811865474 0 0.7071067811865478
vn -0.7071067811865476 0 -0.7071067811865476
vn 0 1 0
vn 0 -1 0
vn -0.7071067811865476 0 -0.7071067811865476
vn 0.7071067811865476 0 -0.7071067811865476
vn 0.7071067811865474 0 0.7071067811865478
vn -0.7071067811865474 0 0.7071067811865478
vn 0 1 0
vn 0 -1 0
usemtl m_c856365c-9bd2-a6d5-38b7-2bd966479425
f 1/1/1 2/2/1 3/3/1
f 3/4/2 4/5/2 5/6/2
f 5/7/3 6/8/3 7/9/3
f 7/10/4 8/11/4 1/12/4
f 4/13/5 8/14/5 6/15/5
f 1/16/6 5/17/6 7/18/6
f 9/19/7 10/20/7 11/21/7
f 11/22/8 12/23/8 13/24/8
f 13/25/9 14/26/9 15/27/9
f 15/28/10 16/29/10 9/30/10
f 12/31/11 16/32/11 14/33/11
f 11/34/12 15/35/12 9/36/12
f 17/37/13 18/38/13 19/39/13
f 19/40/14 20/41/14 21/42/14
f 21/43/15 22/44/15 23/45/15
f 17/46/16 22/47/16 24/48/16
f 20/49/17 24/50/17 22/51/17
f 19/52/18 23/53/18 17/54/18
f 25/55/19 26/56/19 27/57/19
f 25/58/20 28/59/20 29/60/20
f 29/61/21 30/62/21 31/63/21
f 31/64/22 26/65/22 32/66/22
f 28/67/23 26/68/23 30/69/23
f 25/70/24 31/71/24 32/72/24
f 33/73/25 34/74/25 35/75/25
f 33/76/26 36/77/26 37/78/26
f 37/79/27 38/80/27 39/81/27
f 40/82/28 38/83/28 34/84/28
f 36/85/29 34/86/29 38/87/29
f 33/88/30 39/89/30 40/90/30
f 41/91/31 42/92/31 43/93/31
f 43/94/32 44/95/32 45/96/32
f 45/97/33 46/98/33 47/99/33
f 47/100/34 48/101/34 41/102/34
f 46/103/35 42/104/35 48/105/35
f 41/106/36 45/107/36 47/108/36
f 49/109/37 50/110/37 51/111/37
f 52/112/38 51/113/38 53/114/38
f 52/115/39 54/116/39 55/117/39
f 56/118/40 54/119/40 50/120/40
f 53/121/41 50/122/41 54/123/41
f 49/124/42 55/125/42 56/126/42
f 57/127/43 58/128/43 59/129/43
f 60/130/44 58/131/44 61/132/44
f 60/133/45 62/134/45 63/135/45
f 63/136/46 64/137/46 57/138/46
f 61/139/47 64/140/47 62/141/47
f 57/142/48 60/143/48 63/144/48
f 65/145/49 66/146/49 67/147/49
f 68/148/50 66/149/50 69/150/50
f 68/151/51 70/152/51 71/153/51
f 71/154/52 72/155/52 65/156/52
f 70/157/53 66/158/53 72/159/53
f 67/160/54 71/161/54 65/162/54
f 73/163/55 74/164/55 75/165/55
f 76/166/56 74/167/56 77/168/56
f 78/169/57 77/170/57 79/171/57
f 78/172/58 80/173/58 73/174/58
f 77/175/59 80/176/59 79/177/59
f 75/178/60 78/179/60 73/180/60
f 81/181/61 82/182/61 83/183/61
f 83/184/62 84/185/62 85/186/62
f 85/187/63 86/188/63 87/189/63
f 87/190/64 88/191/64 81/192/64
f 86/193/65 82/194/65 88/195/65
f 83/196/66 87/197/66 81/198/66
f 89/199/67 90/200/67 91/201/67
f 92/202/68 90/203/68 93/204/68
f 94/205/69 93/206/69 95/207/69
f 94/208/70 96/209/70 89/210/70
f 93/211/71 96/212/71 95/213/71
f 91/214/72 94/215/72 89/216/72
f 97/217/73 98/218/73 99/219/73
f 97/220/74 100/221/74 101/222/74
f 102/223/75 100/224/75 103/225/75
f 102/226/76 98/227/76 104/228/76
f 103/229/77 99/230/77 98/231/77
f 104/232/78 101/233/78 102/234/78
f 105/235/79 106/236/79 107/237/79
f 107/238/80 108/239/80 109/240/80
f 109/241/81 110/242/81 111/243/81
f 111/244/82 112/245/82 105/246/82
f 108/247/83 112/248/83 110/249/83
f 107/250/84 111/251/84 105/252/84
f 113/253/85 114/254/85 115/255/85
f 115/256/86 116/257/86 117/258/86
f 117/259/87 118/260/87 119/261/87
f 119/262/88 120/263/88 113/264/88
f 116/265/89 120/266/89 118/267/89
f 115/268/90 119/269/90 113/270/90
f 121/271/91 122/272/91 123/273/91
f 123/274/92 124/275/92 125/276/92
f 125/277/93 126/278/93 127/279/93
f 127/280/94 128/281/94 121/282/94
f 126/283/95 122/284/95 128/285/95
f 123/286/96 127/287/96 121/288/96
f 129/289/97 130/290/97 131/291/97
f 131/292/98 132/293/98 133/294/98
f 133/295/99 134/296/99 135/297/99
f 135/298/100 136/299/100 129/300/100
f 132/301/101 136/302/101 134/303/101
f 131/304/102 135/305/102 129/306/102
f 137/307/103 138/308/103 139/309/103
f 139/310/104 140/311/104 141/312/104
f 141/313/105 142/314/105 143/315/105
f 143/316/106 144/317/106 137/318/106
f 140/319/107 144/320/107 142/321/107
f 137/322/108 141/323/108 143/324/108
f 145/325/109 146/326/109 147/327/109
f 147/328/110 148/329/110 149/330/110
f 150/331/111 148/332/111 151/333/111
f 150/334/112 152/335/112 145/336/112
f 148/337/113 152/338/113 151/339/113
f 147/340/114 150/341/114 145/342/114
f 153/343/115 154/344/115 155/345/115
f 155/346/116 156/347/116 157/348/116
f 157/349/117 158/350/117 159/351/117
f 159/352/118 160/353/118 153/354/118
f 156/355/119 160/356/119 158/357/119
f 155/358/120 159/359/120 153/360/120
f 161/361/121 162/362/121 163/363/121
f 163/364/122 164/365/122 165/366/122
f 165/367/123 166/368/123 167/369/123
f 167/370/124 168/371/124 161/372/124
f 164/373/125 168/374/125 166/375/125
f 163/376/126 167/377/126 161/378/126
f 169/379/127 170/380/127 171/381/127
f 171/382/128 172/383/128 173/384/128
f 173/385/129 174/386/129 175/387/129
f 175/388/130 176/389/130 169/390/130
f 172/391/131 176/392/131 174/393/131
f 171/394/132 175/395/132 169/396/132
f 177/397/133 178/398/133 179/399/133
f 179/400/134 180/401/134 181/402/134
f 181/403/135 182/404/135 183/405/135
f 183/406/136 184/407/136 177/408/136
f 180/409/137 184/410/137 182/411/137
f 179/412/138 183/413/138 177/414/138
f 185/415/139 186/416/139 187/417/139
f 187/418/140 188/419/140 189/420/140
f 189/421/141 190/422/141 191/423/141
f 191/424/142 192/425/142 185/426/142
f 188/427/143 192/428/143 190/429/143
f 187/430/144 191/431/144 185/432/144
f 193/433/145 194/434/145 195/435/145
f 195/436/146 196/437/146 197/438/146
f 197/439/147 198/440/147 199/441/147
f 193/442/148 198/443/148 200/444/148
f 196/445/149 200/446/149 198/447/149
f 195/448/150 199/449/150 193/450/150
f 201/451/151 202/452/151 203/453/151
f 203/454/152 204/455/152 205/456/152
f 205/457/153 206/458/153 207/459/153
f 207/460/154 208/461/154 201/462/154
f 204/463/155 208/464/155 206/465/155
f 203/466/156 207/467/156 201/468/156
f 209/469/157 210/470/157 211/471/157
f 211/472/158 212/473/158 213/474/158
f 213/475/159 214/476/159 215/477/159
f 215/478/160 216/479/160 209/480/160
f 212/481/161 216/482/161 214/483/161
f 211/484/162 215/485/162 209/486/162
f 217/487/163 218/488/163 219/489/163
f 219/490/164 220/491/164 221/492/164
f 221/493/165 222/494/165 223/495/165
f 223/496/166 224/497/166 217/498/166
f 222/499/167 218/500/167 224/501/167
f 219/502/168 223/503/168 217/504/168
f 225/505/169 226/506/169 227/507/169
f 227/508/170 228/509/170 229/510/170
f 229/511/171 230/512/171 231/513/171
f 231/514/172 232/515/172 225/516/172
f 230/517/173 226/518/173 232/519/173
f 227/520/174 231/521/174 225/522/174
f 233/523/175 234/524/175 235/525/175
f 235/526/176 236/527/176 237/528/176
f 237/529/177 238/530/177 239/531/177
f 239/532/178 240/533/178 233/534/178
f 236/535/179 240/536/179 238/537/179
f 233/538/180 237/539/180 239/540/180
f 1/541/181 8/542/181 2/543/181
f 3/544/182 2/545/182 4/546/182
f 5/547/183 4/548/183 6/549/183
f 7/550/184 6/551/184 8/552/184
f 4/553/185 2/554/185 8/555/185
f 1/556/186 3/557/186 5/558/186
f 9/559/187 16/560/187 10/561/187
f 11/562/188 10/563/188 12/564/188
f 13/565/189 12/566/189 14/567/189
f 15/568/190 14/569/190 16/570/190
f 12/571/191 10/572/191 16/573/191
f 11/574/192 13/575/192 15/576/192
f 17/577/193 24/578/193 18/579/193
f 19/580/194 18/581/194 20/582/194
f 21/583/195 20/584/195 22/585/195
f 17/586/196 23/587/196 22/588/196
f 20/589/197 18/590/197 24/591/197
f 19/592/198 21/593/198 23/594/198
f 25/595/199 32/596/199 26/597/199
f 25/598/200 27/599/200 28/600/200
f 29/601/201 28/602/201 30/603/201
f 31/604/202 30/605/202 26/606/202
f 28/607/203 27/608/203 26/609/203
f 25/610/204 29/611/204 31/612/204
f 33/613/205 40/614/205 34/615/205
f 33/616/206 35/617/206 36/618/206
f 37/619/207 36/620/207 38/621/207
f 40/622/208 39/623/208 38/624/208
f 36/625/209 35/626/209 34/627/209
f 33/628/210 37/629/210 39/630/210
f 41/631/211 48/632/211 42/633/211
f 43/634/212 42/635/212 44/636/212
f 45/637/213 44/638/213 46/639/213
f 47/640/214 46/641/214 48/642/214
f 46/643/215 44/644/215 42/645/215
f 41/646/216 43/647/216 45/648/216
f 49/649/217 56/650/217 50/651/217
f 52/652/218 49/653/218 51/654/218
f 52/655/219 53/656/219 54/657/219
f 56/658/220 55/659/220 54/660/220
f 53/661/221 51/662/221 50/663/221
f 49/664/222 52/665/222 55/666/222
f 57/667/223 64/668/223 58/669/223
f 60/670/224 59/671/224 58/672/224
f 60/673/225 61/674/225 62/675/225
f 63/676/226 62/677/226 64/678/226
f 61/679/227 58/680/227 64/681/227
f 57/682/228 59/683/228 60/684/228
f 65/685/229 72/686/229 66/687/229
f 68/688/230 67/689/230 66/690/230
f 68/691/231 69/692/231 70/693/231
f 71/694/232 70/695/232 72/696/232
f 70/697/233 69/698/233 66/699/233
f 67/700/234 68/701/234 71/702/234
f 73/703/235 80/704/235 74/705/235
f 76/706/236 75/707/236 74/708/236
f 78/709/237 76/710/237 77/711/237
f 78/712/238 79/713/238 80/714/238
f 77/715/239 74/716/239 80/717/239
f 75/718/240 76/719/240 78/720/240
f 81/721/241 88/722/241 82/723/241
f 83/724/242 82/725/242 84/726/242
f 85/727/243 84/728/243 86/729/243
f 87/730/244 86/731/244 88/732/244
f 86/733/245 84/734/245 82/735/245
f 83/736/246 85/737/246 87/738/246
f 89/739/247 96/740/247 90/741/247
f 92/742/248 91/743/248 90/744/248
f 94/745/249 92/746/249 93/747/249
f 94/748/250 95/749/250 96/750/250
f 93/751/251 90/752/251 96/753/251
f 91/754/252 92/755/252 94/756/252
f 97/757/253 104/758/253 98/759/253
f 97/760/254 99/761/254 100/762/254
f 102/763/255 101/764/255 100/765/255
f 102/766/256 103/767/256 98/768/256
f 103/769/257 100/770/257 99/771/257
f 104/772/258 97/773/258 101/774/258
f 105/775/259 112/776/259 106/777/259
f 107/778/260 106/779/260 108/780/260
f 109/781/261 108/782/261 110/783/261
f 111/784/262 110/785/262 112/786/262
f 108/787/263 106/788/263 112/789/263
f 107/790/264 109/791/264 111/792/264
f 113/793/265 120/794/265 114/795/265
f 115/796/266 114/797/266 116/798/266
f 117/799/267 116/800/267 118/801/267
f 119/802/268 118/803/268 120/804/268
f 116/805/269 114/806/269 120/807/269
f 115/808/270 117/809/270 119/810/270
f 121/811/271 128/812/271 122/813/271
f 123/814/272 122/815/272 124/816/272
f 125/817/273 124/818/273 126/819/273
f 127/820/274 126/821/274 128/822/274
f 126/823/275 124/824/275 122/825/275
f 123/826/276 125/827/276 127/828/276
f 129/829/277 136/830/277 130/831/277
f 131/832/278 130/833/278 132/834/278
f 133/835/279 132/836/279 134/837/279
f 135/838/280 134/839/280 136/840/280
f 132/841/281 130/842/281 136/843/281
f 131/844/282 133/845/282 135/846/282
f 137/847/283 144/848/283 138/849/283
f 139/850/284 138/851/284 140/852/284
f 141/853/285 140/854/285 142/855/285
f 143/856/286 142/857/286 144/858/286
f 140/859/287 138/860/287 144/861/287
f 137/862/288 139/863/288 141/864/288
f 145/865/289 152/866/289 146/867/289
f 147/868/290 146/869/290 148/870/290
f 150/871/291 149/872/291 148/873/291
f 150/874/292 151/875/292 152/876/292
f 148/877/293 146/878/293 152/879/293
f 147/880/294 149/881/294 150/882/294
f 153/883/295 160/884/295 154/885/295
f 155/886/296 154/887/296 156/888/296
f 157/889/297 156/890/297 158/891/297
f 159/892/298 158/893/298 160/894/298
f 156/895/299 154/896/299 160/897/299
f 155/898/300 157/899/300 159/900/300
f 161/901/301 168/902/301 162/903/301
f 163/904/302 162/905/302 164/906/302
f 165/907/303 164/908/303 166/909/303
f 167/910/304 166/911/304 168/912/304
f 164/913/305 162/914/305 168/915/305
f 163/916/306 165/917/306 167/918/306
f 169/919/307 176/920/307 170/921/307
f 171/922/308 170/923/308 172/924/308
f 173/925/309 172/926/309 174/927/309
f 175/928/310 174/929/310 176/930/310
f 172/931/311 170/932/311 176/933/311
f 171/934/312 173/935/312 175/936/312
f 177/937/313 184/938/313 178/939/313
f 179/940/314 178/941/314 180/942/314
f 181/943/315 180/944/315 182/945/315
f 183/946/316 182/947/316 184/948/316
f 180/949/317 178/950/317 184/951/317
f 179/952/318 181/953/318 183/954/318
f 185/955/319 192/956/319 186/957/319
f 187/958/320 186/959/320 188/960/320
f 189/961/321 188/962/321 190/963/321
f 191/964/322 190/965/322 192/966/322
f 188/967/323 186/968/323 192/969/323
f 187/970/324 189/971/324 191/972/324
f 193/973/325 200/974/325 194/975/325
f 195/976/326 194/977/326 196/978/326
f 197/979/327 196/980/327 198/981/327
f 193/982/328 199/983/328 198/984/328
f 196/985/329 194/986/329 200/987/329
f 195/988/330 197/989/330 199/990/330
f 201/991/331 208/992/331 202/993/331
f 203/994/332 202/995/332 204/996/332
f 205/997/333 204/998/333 206/999/333
f 207/1000/334 206/1001/334 208/1002/334
f 204/1003/335 202/1004/335 208/1005/335
f 203/1006/336 205/1007/336 207/1008/336
f 209/1009/337 216/1010/337 210/1011/337
f 211/1012/338 210/1013/338 212/1014/338
f 213/1015/339 212/1016/339 214/1017/339
f 215/1018/340 214/1019/340 216/1020/340
f 212/1021/341 210/1022/341 216/1023/341
f 211/1024/342 213/1025/342 215/1026/342
f 217/1027/343 224/1028/343 218/1029/343
f 219/1030/344 218/1031/344 220/1032/344
f 221/1033/345 220/1034/345 222/1035/345
f 223/1036/346 222/1037/346 224/1038/346
f 222/1039/347 220/1040/347 218/1041/347
f 219/1042/348 221/1043/348 223/1044/348
f 225/1045/349 232/1046/349 226/1047/349
f 227/1048/350 226/1049/350 228/1050/350
f 229/1051/351 228/1052/351 230/1053/351
f 231/1054/352 230/1055/352 232/1056/352
f 230/1057/353 228/1058/353 226/1059/353
f 227/1060/354 229/1061/354 231/1062/354
f 233/1063/355 240/1064/355 234/1065/355
f 235/1066/356 234/1067/356 236/1068/356
f 237/1069/357 236/1070/357 238/1071/357
f 239/1072/358 238/1073/358 240/1074/358
f 236/1075/359 234/1076/359 240/1077/359
f 233/1078/360 235/1079/360 237/1080/360
