# Made in Blockbench 5.0.7
mtllib ghost.mtl

o cuboid
v -0.23608109030032018 1.04375 -0.2276924324667205
v -0.2192097612245303 1.04375 -0.3007701873256131
v -0.23608109030032018 0.86875 -0.2276924324667205
v -0.2192097612245303 0.86875 -0.3007701873256131
v -0.3091588451592128 1.04375 -0.24456376154251036
v -0.29228751608342296 1.04375 -0.317641516401403
v -0.3091588451592128 0.86875 -0.24456376154251036
v -0.29228751608342296 0.86875 -0.317641516401403
v -0.2501326967460959 1.09375 -0.2501797034503911
v -0.24169703220820102 1.09375 -0.2867185808798374
v -0.2501326967460959 1.04375 -0.2501797034503911
v -0.24169703220820102 1.04375 -0.2867185808798374
v -0.28667157417554223 1.09375 -0.25861536798828605
v -0.2782359096376473 1.09375 -0.2951542454177324
v -0.28667157417554223 1.04375 -0.25861536798828605
v -0.2782359096376473 1.04375 -0.2951542454177324
v 0.3846009588621963 1.15 0.0055973869518888
v 0.33049105537767043 1.15 -0.23847661482809457
v 0.3846009588621963 0.8375 0.0055973869518888
v 0.33049105537767043 0.8375 -0.23847661482809457
v 0.26256395797220455 1.15 0.032652338694151656
v 0.20845405448767873 1.15 -0.21142166308583166
v 0.26256395797220455 0.8375 0.032652338694151656
v 0.20845405448767873 0.8375 -0.21142166308583166
v 0.3114177145228181 1.05625 -0.21413252921804457
v 0.2755411427385909 1.05625 -0.30074623539097767
v 0.3114177145228181 0.86875 -0.21413252921804457
v 0.2755411427385909 0.86875 -0.30074623539097767
v 0.25367524374086264 1.05625 -0.19021481469522644
v 0.2177986719566355 1.05625 -0.2768285208681596
v 0.25367524374086264 0.86875 -0.19021481469522644
v 0.2177986719566355 0.86875 -0.2768285208681596
v 0.096875 1.3875 -0.209375
v 0.096875 1.3875 -0.24062500000000003
v 0.096875 1.2 -0.209375
v 0.096875 1.2 -0.24062500000000003
v 0.06562499999999999 1.3875 -0.209375
v 0.065625 1.3875 -0.24062500000000003
v 0.06562499999999999 1.2 -0.209375
v 0.065625 1.2 -0.24062500000000003
v 0.175 1.3875 -0.209375
v 0.175 1.3875 -0.24062499999999998
v 0.175 1.2 -0.209375
v 0.175 1.2 -0.24062499999999998
v 0.14375 1.3875 -0.209375
v 0.14375 1.3875 -0.24062499999999998
v 0.14375 1.2 -0.209375
v 0.14375 1.2 -0.24062499999999998
v 0.15893082617584076 1.3481127138690978 -0.19324895784939758
v 0.19207645654396022 1.3498474221296883 -0.22634916328305976
v 0.15893082617584078 1.301301954427477 -0.19570220579828554
v 0.1920764565439602 1.3030366626880678 -0.22880241123194772
v 0.12578519580772138 1.3498474221296883 -0.22634916328305976
v 0.15893082617584076 1.351582130390279 -0.25944936871672186
v 0.12578519580772138 1.3030366626880678 -0.22880241123194778
v 0.15893082617584076 1.3047713709486584 -0.2619026166656099
v 0.08080582617584078 1.3481127138690978 -0.19324895784939758
v 0.11395145654396022 1.3498474221296883 -0.22634916328305976
v 0.08080582617584077 1.301301954427477 -0.19570220579828557
v 0.11395145654396022 1.3030366626880678 -0.22880241123194778
v 0.04766019580772138 1.3498474221296883 -0.22634916328305976
v 0.08080582617584078 1.351582130390279 -0.2594493687167219
v 0.04766019580772138 1.3030366626880678 -0.22880241123194775
v 0.08080582617584078 1.3047713709486584 -0.2619026166656099
v -0.3461976204744994 1.283964736713481 -0.13906505137658898
v -0.31189163987646884 1.281348869039879 -0.12414838514308506
v -0.3541939837815163 1.159269230409605 -0.14254195826090998
v -0.31988800318348576 1.1566533627360034 -0.12762529202740613
v -0.33124452946109517 1.2839647336541375 -0.1734548037622175
v -0.2969385488630647 1.2813488659805357 -0.1585381375287136
v -0.33924089276811215 1.1592692273502616 -0.17693171064653856
v -0.30493491217008156 1.15665335967666 -0.1620150444130346
v -0.32327489294558 1.2527908550386062 -0.1972505320737168
v -0.28896891234754957 1.2501749873650045 -0.18233386584021288
v -0.3272730745990885 1.1904431018866684 -0.1989889855158774
v -0.2929670940010579 1.1878272342130667 -0.18407231928237344
v -0.30832180193217584 1.2527908519792628 -0.23164028445934537
v -0.27401582133414537 1.250174984305661 -0.2167236182258414
v -0.31231998358568425 1.190443098827325 -0.23337873790150587
v -0.2780140029876538 1.1878272311537232 -0.21846207166800197
v -0.27886793083387607 1.6883531701911902 -0.191572386695968
v -0.26743260396786583 1.6874812142999898 -0.18660016461813334
v -0.3308442923294857 0.8778323792159969 -0.21417228144405479
v -0.31940896546347547 0.8769604233247963 -0.2092000593662201
v -0.2738835671627413 1.688353169171409 -0.2030356374911775
v -0.2624482402967311 1.6874812132802086 -0.19806341541334288
v -0.325859928658351 0.8778323781962156 -0.2256355322392643
v -0.3144246017923408 0.8769604223050151 -0.22066331016142962
v -0.3682147653265561 1.1975498392117496 -0.13500785747823885
v -0.3110381309965051 1.1931900597557465 -0.11014674708906563
v -0.376211128633573 1.0728543329078737 -0.13848476436255985
v -0.319034494303522 1.0684945534518708 -0.1136236539733867
v -0.3183711286152089 1.1975498290139381 -0.24964036543033397
v -0.2611944942851579 1.193190049557935 -0.22477925504116075
v -0.3263674919222257 1.0728543227100622 -0.253117272314655
v -0.2691908575921748 1.0684945432540593 -0.22825616192548176
v -0.15937500000000004 1.4066047739442014 -0.2739777389892556
v 0.02187499999999997 1.4066047739442014 -0.2739777389892557
v -0.15937500000000004 1.2893167834985289 -0.292554331712783
v 0.021874999999999964 1.2893167834985289 -0.2925543317127831
v -0.15937500000000004 1.4075824893507027 -0.28015079111797525
v 0.02187499999999997 1.4075824893507027 -0.28015079111797536
v -0.15937500000000004 1.2902944989050302 -0.29872738384150266
v 0.021874999999999964 1.2902944989050302 -0.2987273838415027
v -0.15937500000000007 1.2723408901445497 -0.295243049080662
v 0.02187499999999997 1.2723408901445497 -0.29524304908066207
v -0.15937500000000007 1.2167834209860733 -0.30404248773917497
v 0.021874999999999978 1.2167834209860733 -0.304042487739175
v -0.15937500000000004 1.2733186055510513 -0.3014161012093816
v 0.02187499999999997 1.2733186055510513 -0.3014161012093817
v -0.15937500000000007 1.2177611363925749 -0.31021553986789463
v 0.021874999999999978 1.2177611363925749 -0.3102155398678947
v 0.25 1.25 -0.1625
v 0.25 1.25 -0.22499999999999998
v 0.25 0.8312499999999999 -0.1625
v 0.25 0.8312499999999999 -0.22499999999999998
v -0.25 1.25 -0.1625
v -0.25 1.25 -0.22500000000000003
v -0.25 0.8312499999999999 -0.1625
v -0.25 0.8312499999999999 -0.22500000000000003
v 0.24999999999999997 1.25 0.2125
v 0.25000000000000006 1.25 0.15000000000000002
v 0.24999999999999997 0.8624999999999999 0.2125
v 0.25000000000000006 0.8624999999999999 0.15000000000000002
v -0.25 1.25 0.2125
v -0.25 1.25 0.15000000000000002
v -0.25 0.8624999999999999 0.2125
v -0.25 0.8624999999999999 0.15000000000000002
v 0.20312499999999997 1.4375 0.15000000000000002
v 0.203125 1.4375 0.10624999999999998
v 0.20312499999999997 0.8999999999999999 0.15000000000000002
v 0.203125 0.8999999999999999 0.10624999999999998
v -0.20312500000000003 1.4375 0.15000000000000002
v -0.203125 1.4375 0.10624999999999998
v -0.20312500000000003 0.8999999999999999 0.15000000000000002
v -0.203125 0.8999999999999999 0.10624999999999998
v 0.203125 1.4034508898329847 -0.11151408593142088
v 0.20312500000000003 1.4051958646681098 -0.16148362728237572
v 0.203125 0.8975092836545673 -0.12918195613706202
v 0.203125 0.8992542584896924 -0.17915149748801681
v -0.203125 1.4034508898329847 -0.11151408593142087
v -0.203125 1.4051958646681098 -0.1614836272823757
v -0.203125 0.8975092836545673 -0.12918195613706202
v -0.20312500000000003 0.8992542584896924 -0.1791514974880168
v 0.1875 1.4373828369752373 -0.12048961372297431
v 0.1875 1.4503773176513473 -0.1816238387688372
v 0.1875 1.23563989432389 -0.16337139995413716
v 0.1875 1.248634375 -0.224505625
v -0.1875 1.4373828369752373 -0.12048961372297431
v -0.1875 1.4503773176513473 -0.18162383876883714
v -0.1875 1.23563989432389 -0.16337139995413713
v -0.18750000000000003 1.248634375 -0.224505625
v 0.1875 1.4587417399750966 0.19532985543151316
v 0.1875 1.4543819603660888 0.13298210229027416
v 0.1875 1.24052460398076 0.21058908406304055
v 0.1875 1.2361648243717522 0.14824133092180153
v -0.1875 1.4587417399750966 0.19532985543151316
v -0.1875 1.4543819603660888 0.13298210229027418
v -0.1875 1.24052460398076 0.21058908406304055
v -0.1875 1.2361648243717522 0.14824133092180158
v -0.21031636856028355 1.586431294280851 0.16108384032054315
v -0.20596536234547524 1.5829432594262238 0.11139578986802885
v -0.11060844372331974 1.2394876489843027 0.19416989044819177
v -0.10625743750851147 1.2359996141296756 0.1444818399956775
v -0.34795438542152135 1.5459968976534375 0.15186980841900116
v -0.34360337920671313 1.5425088627988104 0.10218175796648687
v -0.24824646058455763 1.1990532523568895 0.1849558585466498
v -0.24389545436974935 1.1955652175022624 0.13526780809413552
v -0.21600336458145303 1.607316954479615 0.056874688021159636
v -0.19797334129479724 1.5488380880304145 0.04417073434133258
v -0.21628327812123455 1.5860057790293185 0.15457707002557575
v -0.19825325483457867 1.5275269125801179 0.1418731163457487
v -0.3416728400120074 1.5703985299844048 0.048461877682113366
v -0.32364281672535156 1.5119196635352041 0.03575792400228632
v -0.34195275355178884 1.5490873545341084 0.14616425968652946
v -0.323922730265133 1.4906084880849075 0.13346030600670242
v -0.18883812355395446 1.551796696603705 0.0796046140248804
v -0.20636173304336622 1.616759146861978 0.06548492327387613
v -0.17812912275705642 1.5374592984102218 0.00034984246522279383
v -0.1956527322464681 1.6024217486684948 -0.013769848285781459
v -0.33851711051454336 1.5087187260725599 0.06717272690467058
v -0.3560407200039551 1.573681176330833 0.053053036153666355
v -0.3278081097176454 1.4943813278790767 -0.01208204465498703
v -0.34533171920705713 1.5593437781373498 -0.02620173540599128
v -0.17236273771257277 1.529739160921423 -0.04232580375920847
v -0.1898863472019845 1.594701611179696 -0.05644549451021274
v -0.1616537369156747 1.5154017627279397 -0.12158057531886607
v -0.1791773464050864 1.5803642129862128 -0.13570026606987035
v -0.3220417246731618 1.486661190390278 -0.054757690879418314
v -0.3395653341625735 1.551623640648551 -0.06887738163042258
v -0.3113327238762637 1.4723237921967947 -0.13401246243907589
v -0.3288563333656754 1.5372862424550677 -0.14813215319008013
v -0.1999886732187325 1.5472475821770992 0.0725135421660593
v -0.2159192273000159 1.6063043551391658 0.05967745966514634
v -0.17527559445665994 1.5141612786536762 -0.11038208451007402
v -0.19120614853794332 1.5732180516157428 -0.12321816701098696
v -0.3257190222656272 1.5110620869309375 0.062070756985083034
v -0.34164957634691057 1.5701188598930038 0.0492346744841701
v -0.3010059435035547 1.4779757834075145 -0.12082486969105027
v -0.31693649758483805 1.5370325563695808 -0.13366095219196325
v -0.1860340519241504 1.5671871547507439 -0.08604003054052203
v -0.1850832386863247 1.5762334965330542 -0.12883398051647543
v -0.06085399067443291 1.156487902475177 -0.17007767951886538
v -0.059903177436607176 1.1655342442574872 -0.21287162949481878
v -0.3237387248065948 1.527555468576179 -0.09747746982122624
v -0.322787911568769 1.536601810358489 -0.14027141979717966
v -0.19855866355687724 1.116856216300612 -0.1815151187995696
v -0.19760785031905154 1.1259025580829223 -0.224309068775523
v 0.3479543854215214 1.5459968976534375 0.1518698084190012
v 0.34360337920671313 1.5425088627988104 0.1021817579664869
v 0.24824646058455768 1.1990532523568895 0.1849558585466498
v 0.24389545436974938 1.1955652175022624 0.1352678080941355
v 0.21031636856028352 1.586431294280851 0.16108384032054315
v 0.20596536234547522 1.5829432594262238 0.11139578986802887
v 0.11060844372331974 1.2394876489843027 0.19416989044819183
v 0.10625743750851147 1.2359996141296756 0.1444818399956775
v 0.3416728400120073 1.5703985299844048 0.048461877682113345
v 0.3236428167253515 1.5119196635352041 0.03575792400228629
v 0.34195275355178884 1.5490873545341084 0.14616425968652946
v 0.323922730265133 1.4906084880849075 0.13346030600670242
v 0.216003364581453 1.607316954479615 0.05687468802115963
v 0.1979733412947972 1.5488380880304145 0.04417073434133259
v 0.21628327812123457 1.5860057790293185 0.15457707002557572
v 0.19825325483457867 1.5275269125801179 0.14187311634574873
v 0.3385171105145434 1.5087187260725599 0.06717272690467059
v 0.35604072000395515 1.573681176330833 0.05305303615366633
v 0.3278081097176454 1.4943813278790767 -0.012082044654987023
v 0.3453317192070571 1.5593437781373498 -0.026201735405991272
v 0.1888381235539545 1.551796696603705 0.0796046140248804
v 0.2063617330433662 1.616759146861978 0.06548492327387614
v 0.1781291227570564 1.5374592984102218 0.00034984246522279383
v 0.1956527322464681 1.6024217486684948 -0.013769848285781455
v 0.32571902226562716 1.5110620869309375 0.06207075698508304
v 0.3416495763469106 1.5701188598930038 0.0492346744841701
v 0.30100594350355464 1.4779757834075145 -0.12082486969105026
v 0.3169364975848381 1.5370325563695808 -0.13366095219196322
v 0.19998867321873254 1.5472475821770992 0.07251354216605929
v 0.2159192273000159 1.6063043551391658 0.05967745966514634
v 0.17527559445666 1.5141612786536762 -0.11038208451007402
v 0.19120614853794335 1.5732180516157428 -0.12321816701098698
v 0.3220417246731617 1.486661190390278 -0.0547576908794183
v 0.33956533416257345 1.551623640648551 -0.06887738163042259
v 0.3113327238762637 1.4723237921967947 -0.13401246243907589
v 0.3288563333656754 1.5372862424550677 -0.1481321531900801
v 0.1723627377125728 1.529739160921423 -0.042325803759208476
v 0.18988634720198452 1.594701611179696 -0.05644549451021274
v 0.1616537369156747 1.5154017627279397 -0.12158057531886605
v 0.17917734640508642 1.5803642129862128 -0.13570026606987035
v 0.32373872480659477 1.527555468576179 -0.09747746982122626
v 0.322787911568769 1.536601810358489 -0.14027141979717966
v 0.19855866355687724 1.116856216300612 -0.1815151187995696
v 0.19760785031905154 1.1259025580829223 -0.22430906877552306
v 0.1860340519241504 1.5671871547507439 -0.08604003054052203
v 0.18508323868632467 1.5762334965330542 -0.12883398051647543
v 0.060853990674432895 1.156487902475177 -0.17007767951886538
v 0.059903177436607176 1.1655342442574872 -0.2128716294948188
v -0.27723616960864317 1.125 0.10193584315367046
v -0.25027236169608635 1.125 -0.20626189156846325
v -0.27723616960864317 0.875 0.10193584315367046
v -0.25027236169608635 0.875 -0.20626189156846325
v -0.31459347078708355 1.125 0.09866750280063326
v -0.28762966287452685 1.125 -0.2095302319215005
v -0.31459347078708355 0.875 0.09866750280063326
v -0.28762966287452685 0.875 -0.2095302319215005
v 0.3145934707870836 1.125 0.09866750280063327
v 0.2876296628745269 1.125 -0.20953023192150047
v 0.3145934707870836 0.875 0.09866750280063327
v 0.2876296628745269 0.875 -0.20953023192150047
v 0.2772361696086432 1.125 0.10193584315367048
v 0.2502723616960864 1.125 -0.20626189156846328
v 0.2772361696086432 0.875 0.10193584315367048
v 0.2502723616960864 0.875 -0.20626189156846328
v -0.2165526063617433 1.125 0.19011494854229966
v -0.279644375 1.125 0.07860062500000001
v -0.2165526063617433 0.875 0.19011494854229966
v -0.279644375 0.875 0.07860062500000001
v -0.2491909449594895 1.125 0.20858083204617966
v -0.31228271359774623 1.125 0.09706650850388
v -0.2491909449594895 0.875 0.20858083204617966
v -0.31228271359774623 0.875 0.09706650850388
v 0.24919094495948954 1.125 0.2085808320461796
v 0.31228271359774623 1.125 0.09706650850388003
v 0.24919094495948954 0.875 0.2085808320461796
v 0.31228271359774623 0.875 0.09706650850388003
v 0.2165526063617433 1.125 0.19011494854229966
v 0.279644375 1.125 0.07860062500000002
v 0.2165526063617433 0.875 0.19011494854229966
v 0.279644375 0.875 0.07860062500000002
v -0.221875 1.09375 0.15000000000000002
v -0.221875 1.09375 -0.1625
v -0.221875 0.90625 0.15000000000000002
v -0.221875 0.90625 -0.1625
v -0.27812500000000007 1.09375 0.15000000000000002
v -0.27812500000000007 1.09375 -0.1625
v -0.27812500000000007 0.90625 0.15000000000000002
v -0.27812500000000007 0.90625 -0.1625
v 0.278125 1.09375 0.15000000000000002
v 0.278125 1.09375 -0.1625
v 0.278125 0.90625 0.15000000000000002
v 0.278125 0.90625 -0.1625
v 0.22187500000000004 1.09375 0.15000000000000002
v 0.221875 1.09375 -0.1625
v 0.22187500000000004 0.90625 0.15000000000000002
v 0.221875 0.90625 -0.1625
v 0.140625 1.25 -0.22500000000000003
v 0.140625 1.25 -0.23125000000000004
v 0.140625 1.1875 -0.22500000000000003
v 0.140625 1.1875 -0.23125000000000004
v -0.140625 1.25 -0.22500000000000003
v -0.14062499999999997 1.25 -0.23125000000000004
v -0.140625 1.1875 -0.22500000000000003
v -0.14062499999999997 1.1875 -0.23125000000000004
v 0.09375 1.3205775137935696 -0.20640524335769558
v 0.09375 1.3218769618611805 -0.21251866586228185
v 0.09375 1.2594432887477067 -0.2193997240338055
v 0.09375 1.2607427368153177 -0.22551314653839177
v -0.09375 1.3205775137935696 -0.20640524335769556
v -0.09374999999999999 1.3218769618611805 -0.21251866586228182
v -0.09375 1.2594432887477067 -0.21939972403380553
v -0.09375 1.2607427368153177 -0.22551314653839177
v 0.09375 1.387825161344019 -0.19211131461397457
v 0.09375 1.3891246094116299 -0.19822473711856087
v 0.09375 1.326690936298156 -0.20510579529008455
v 0.09375 1.327990384365767 -0.21121921779467076
v -0.09375 1.387825161344019 -0.19211131461397457
v -0.09374999999999999 1.3891246094116299 -0.19822473711856084
v -0.09374999999999997 1.326690936298156 -0.20510579529008455
v -0.09374999999999999 1.327990384365767 -0.2112192177946708
v 0.140625 1.18125 -0.22500000000000003
v 0.140625 1.18125 -0.23125000000000004
v 0.140625 1.11875 -0.22500000000000003
v 0.140625 1.11875 -0.23125000000000004
v -0.140625 1.18125 -0.22500000000000003
v -0.14062499999999997 1.18125 -0.23125000000000004
v -0.140625 1.11875 -0.22500000000000003
v -0.14062499999999997 1.11875 -0.23125000000000004
v 0.21875 1.103125 -0.22500000000000006
v 0.21875 1.103125 -0.23125
v 0.21875 0.8531249999999999 -0.22500000000000006
v 0.21875 0.8531249999999999 -0.23125
v -0.21875 1.103125 -0.22500000000000003
v -0.21875 1.103125 -0.23125000000000004
v -0.21875 0.8531249999999999 -0.22500000000000003
v -0.21875 0.8531249999999999 -0.23125000000000004
v -0.14687499999999998 1.140625 -0.225
v -0.14687500000000003 1.140625 -0.24375
v -0.14687499999999998 1.0656249999999998 -0.225
v -0.14687500000000003 1.0656249999999998 -0.24375
v -0.196875 1.140625 -0.225
v -0.196875 1.140625 -0.24375
v -0.196875 1.0656249999999998 -0.225
v -0.196875 1.0656249999999998 -0.24375
v 0.196875 1.140625 -0.22500000000000003
v 0.19687499999999997 1.140625 -0.24374999999999997
v 0.196875 1.0656249999999998 -0.22500000000000003
v 0.19687499999999997 1.0656249999999998 -0.24374999999999997
v 0.146875 1.140625 -0.22500000000000006
v 0.14687499999999998 1.140625 -0.24375
v 0.146875 1.0656249999999998 -0.22500000000000006
v 0.14687499999999998 1.0656249999999998 -0.24375
v 0.15624999999999997 1.25 0.21875
v 0.15625 1.25 0.21250000000000002
v 0.15624999999999997 1.1875 0.21875
v 0.15625 1.1875 0.21250000000000002
v -0.15625 1.25 0.21875
v -0.15625 1.25 0.21250000000000002
v -0.15625 1.1875 0.21875
v -0.15625 1.1875 0.21250000000000002
v 0.15625 1.387165056910726 0.20290848486018273
v 0.15625 1.386729078949825 0.19667370954605887
v 0.15625 1.3248173037694868 0.2072682644691906
v 0.15624999999999997 1.324381325808586 0.2010334891550667
v -0.15625 1.387165056910726 0.20290848486018273
v -0.15625 1.386729078949825 0.19667370954605887
v -0.15625 1.3248173037694868 0.2072682644691906
v -0.15625 1.324381325808586 0.20103348915506672
v 0.15625 1.318582528455363 0.20770424243009133
v 0.15625 1.3181465504944623 0.20146946711596747
v 0.15625 1.256234775314124 0.2120640220390992
v 0.15625 1.2557987973532232 0.20582924672497532
v -0.15624999999999997 1.318582528455363 0.20770424243009133
v -0.15625 1.3181465504944623 0.20146946711596747
v -0.15625 1.256234775314124 0.2120640220390992
v -0.15625 1.2557987973532232 0.2058292467249753
v -0.26007419997004766 1.0829642821180565 -0.2310820378161061
v -0.3405412549441134 1.0791475116775588 -0.265239545441886
v -0.25026521536002894 0.8394462935130012 -0.22697892355149013
v -0.33073227033409486 0.8356295230725036 -0.26113643117727003
v -0.31380015465332406 1.082932789428976 -0.10451280458155948
v -0.3942672096273898 1.0791160189884785 -0.1386703122073394
v -0.3039911700433054 0.8394148008239207 -0.10040969031694351
v -0.38445822501737115 0.8355980303834231 -0.13456719794272343
v 0.041437347462810505 1.0338094228151518 -0.2710666810151518
v 0.040676677106519114 1.0284675726089714 -0.3584001569392428
v 0.04157051103969635 0.8591358502795388 -0.260383735489325
v 0.04080984068340495 0.8537940000733584 -0.3477172114134161
v -0.033559796715346264 1.033792263118548 -0.27041240992028154
v -0.03432046707163766 1.0284504129123677 -0.35774588584437267
v -0.033426633138460386 0.8591186905829352 -0.2597294643944549
v -0.03418730349475181 0.8537768403767548 -0.3470629403185459
v 0.07276784712389611 1.0880029785672791 -0.22301922787280481
v 0.0720042752677884 1.0902933743296448 -0.3104859132179824
v 0.07276784712389611 0.8443365056044873 -0.22939985902284887
v 0.07200427526778841 0.8466269013668528 -0.31686654436802647
v -0.06472691729742742 1.0879715688828402 -0.22181974041707114
v -0.06549048915353518 1.0902619646452059 -0.30928642576224863
v -0.06472691729742744 0.8443050959200482 -0.2282003715671152
v -0.06549048915353516 0.8465954916824138 -0.3156670569122928
v 0.0447213137898718 1.179848695592625 -0.2380491216250078
v 0.04449099642201253 1.1813029805589212 -0.2942798472929811
v 0.059382073666774116 1.087284650612846 -0.24050313809056298
v 0.05915175629891485 1.0887389355791421 -0.29673386375853633
v -0.06639361440700937 1.1622497543801418 -0.23804916035536106
v -0.06662393177486865 1.163704039346438 -0.2942798860233343
v -0.05173285453010707 1.0696857094003627 -0.2405031768209162
v -0.051963171897966336 1.0711399943666589 -0.2967339024888895
v 0.19768704512355573 1.0338095554038664 -0.2710669018234829
v 0.19692637476726435 1.028467705197686 -0.35840037774757405
v 0.19782020870044156 0.8591359828682534 -0.2603839562976562
v 0.19705953834415013 0.853794132662073 -0.34771743222174734
v 0.12268990094539894 1.033792395707263 -0.27041263072861277
v 0.12192923058910754 1.0284505455010824 -0.35774610665270384
v 0.12282306452228475 0.85911882317165 -0.259729685202786
v 0.12206239416599336 0.8537769729654695 -0.3470631611268771
v 0.22901816817555687 1.08800298901158 -0.22301962672456332
v 0.22825459631944917 1.0902933847739456 -0.3104863120697408
v 0.22901816817555687 0.8443365160487881 -0.2294002578746074
v 0.22825459631944917 0.8466269118111537 -0.3168669432197849
v 0.09152340375423335 1.087971579327141 -0.2218201392688296
v 0.09075983189812564 1.0902619750895066 -0.30928682461400725
v 0.09152340375423335 0.844305106364349 -0.22820077041887368
v 0.09075983189812566 0.8465955021267146 -0.3156674557640513
v 0.20097133863418573 1.1798482883894168 -0.23804890264578848
v 0.20074102126632645 1.181302573355713 -0.2942796283137617
v 0.2156320985110881 1.0872842434096375 -0.2405029191113437
v 0.21540178114322883 1.0887385283759337 -0.2967336447793169
v 0.0898564104373046 1.1622493471769335 -0.23804894137614177
v 0.08962609306944533 1.1637036321432297 -0.29427966704411496
v 0.10451717031420693 1.0696853021971542 -0.24050295784169692
v 0.10428685294634765 1.0711395871634504 -0.2967336835096701
v -0.111528613316043 1.1798484857022005 -0.23804935696433688
v -0.11175893068390226 1.1813027706684966 -0.2942800826323101
v -0.09686785343914069 1.0872844407224211 -0.24050337342989206
v -0.09709817080699992 1.0887387256887173 -0.2967340990978653
v -0.2226435415129242 1.1622495444897172 -0.23804939569469008
v -0.2228738588807835 1.1637038294560134 -0.29428012136266335
v -0.2079827816360219 1.0696854995099379 -0.24050341216024526
v -0.2082130990038812 1.071139784476234 -0.2967341378282185
v -0.0834818544056474 1.0880029846257193 -0.2230194592353002
v -0.0842454262617551 1.090293380388085 -0.3104861445804778
v -0.0834818544056474 0.8443365116629273 -0.22940009038534426
v -0.0842454262617551 0.8466269074252929 -0.3168667757305218
v -0.22097661882697095 1.0879715749412804 -0.2218199717795665
v -0.2217401906830787 1.0902619707036458 -0.30928665712474407
v -0.22097661882697095 0.8443051019784883 -0.22820060292961056
v -0.2217401906830787 0.8465954977408539 -0.3156672882747882
v -0.1148129751741362 1.0338092900834395 -0.2710664547545614
v -0.11557364553042761 1.028467439877259 -0.3583999306786525
v -0.11467981159725035 0.8591357175478268 -0.2603835092287347
v -0.11544048195354174 0.8537938673416464 -0.3477169851528258
v -0.18981011935229297 1.033792130386836 -0.2704121836596913
v -0.19057078970858432 1.0284502801806557 -0.35774565958378235
v -0.1896769557754071 0.8591185578512233 -0.25972923813386456
v -0.19043762613169848 0.8537767076450429 -0.34706271405795563
v 0.04164581852994937 1.4053006709884794 -0.19038630939570134
v 0.040888813227252796 1.4189886268990337 -0.2768057331727805
v 0.04140364139582739 1.1954168811983914 -0.2236276411016643
v 0.04064663609313083 1.209104837108946 -0.3100470648787435
v -0.17709585272426676 1.4052508468003935 -0.18847809702210663
v -0.17785285802696332 1.418938802710948 -0.2748975207991858
v -0.17733802985838873 1.1953670570103057 -0.22171942872806955
v -0.17809503516108527 1.20905501292086 -0.3081388525051487
vt 0.3515625 0.78125
vt 0.34375 0.78125
vt 0.34375 0.7578125
vt 0.3515625 0.7578125
vt 0.0859375 0.5390625
vt 0.0859375 0.5625
vt 0.078125 0.5625
vt 0.078125 0.5390625
vt 0.2421875 0.9296875
vt 0.25 0.9296875
vt 0.25 0.9375
vt 0.2421875 0.9375
vt 0.1484375 0.734375
vt 0.1484375 0.7421875
vt 0.140625 0.7421875
vt 0.140625 0.734375
vt 0.4453125 0.8828125
vt 0.4453125 0.90625
vt 0.4375 0.90625
vt 0.4375 0.8828125
vt 0.4453125 0.875
vt 0.4375 0.875
vt 0.4375 0.8515625
vt 0.4453125 0.8515625
vt 0.3125 0.921875
vt 0.3046875 0.921875
vt 0.3046875 0.9140625
vt 0.3125 0.9140625
vt 0.25 0.578125
vt 0.25 0.5859375
vt 0.2421875 0.5859375
vt 0.2421875 0.578125
vt 0.5 0.9921875
vt 0.5078125 0.9921875
vt 0.5078125 1
vt 0.5 1
vt 0.5078125 0.9765625
vt 0.5078125 0.984375
vt 0.5 0.984375
vt 0.5 0.9765625
vt 0.5078125 0.9609375
vt 0.5078125 0.96875
vt 0.5 0.96875
vt 0.5 0.9609375
vt 0.5078125 0.953125
vt 0.5 0.953125
vt 0.5 0.9453125
vt 0.5078125 0.9453125
vt 0.2265625 0.859375
vt 0.1953125 0.859375
vt 0.1953125 0.8203125
vt 0.2265625 0.8203125
vt 0.2265625 0.7734375
vt 0.2265625 0.8125
vt 0.1953125 0.8125
vt 0.1953125 0.7734375
vt 0.3203125 0.890625
vt 0.3359375 0.890625
vt 0.3359375 0.921875
vt 0.3203125 0.921875
vt 0.3359375 0.7578125
vt 0.3359375 0.7890625
vt 0.3203125 0.7890625
vt 0.3203125 0.7578125
vt 0.015625 0.671875
vt 0.015625 0.7109375
vt 0 0.7109375
vt 0 0.671875
vt 0.0390625 0.7109375
vt 0.0234375 0.7109375
vt 0.0234375 0.671875
vt 0.0390625 0.671875
vt 0.2734375 0.6640625
vt 0.2578125 0.6640625
vt 0.2578125 0.640625
vt 0.2734375 0.640625
vt 0.296875 0.640625
vt 0.296875 0.6640625
vt 0.28125 0.6640625
vt 0.28125 0.640625
vt 0.046875 0.765625
vt 0.0546875 0.765625
vt 0.0546875 0.78125
vt 0.046875 0.78125
vt 0.21875 0.515625
vt 0.21875 0.53125
vt 0.2109375 0.53125
vt 0.2109375 0.515625
vt 0.4453125 0.8203125
vt 0.4453125 0.84375
vt 0.4375 0.84375
vt 0.4375 0.8203125
vt 0.171875 0.5625
vt 0.1640625 0.5625
vt 0.1640625 0.5390625
vt 0.171875 0.5390625
vt 0.21875 0.5625
vt 0.2109375 0.5625
vt 0.2109375 0.5390625
vt 0.21875 0.5390625
vt 0.4453125 0.7421875
vt 0.4453125 0.765625
vt 0.4375 0.765625
vt 0.4375 0.7421875
vt 0.5 0.9296875
vt 0.5078125 0.9296875
vt 0.5078125 0.9375
vt 0.5 0.9375
vt 0.5078125 0.9140625
vt 0.5078125 0.921875
vt 0.5 0.921875
vt 0.5 0.9140625
vt 0.4453125 0.65625
vt 0.4453125 0.6796875
vt 0.4375 0.6796875
vt 0.4375 0.65625
vt 0.4453125 0.6484375
vt 0.4375 0.6484375
vt 0.4375 0.625
vt 0.4453125 0.625
vt 0.40625 0.5625
vt 0.3984375 0.5625
vt 0.3984375 0.5390625
vt 0.40625 0.5390625
vt 0.1015625 0.53125
vt 0.1015625 0.5546875
vt 0.09375 0.5546875
vt 0.09375 0.53125
vt 0.125 0.4921875
vt 0.1328125 0.4921875
vt 0.1328125 0.5
vt 0.125 0.5
vt 0.1484375 0.4921875
vt 0.1484375 0.5
vt 0.140625 0.5
vt 0.140625 0.4921875
vt 0.1171875 0.53125
vt 0.1171875 0.5546875
vt 0.109375 0.5546875
vt 0.109375 0.53125
vt 0.1484375 0.5546875
vt 0.140625 0.5546875
vt 0.140625 0.53125
vt 0.1484375 0.53125
vt 0.1796875 0.5
vt 0.171875 0.5
vt 0.171875 0.4921875
vt 0.1796875 0.4921875
vt 0.5078125 0.8046875
vt 0.5078125 0.8125
vt 0.5 0.8125
vt 0.5 0.8046875
vt 0.2265625 0.4921875
vt 0.234375 0.4921875
vt 0.234375 0.5
vt 0.2265625 0.5
vt 0.25 0.4921875
vt 0.25 0.5
vt 0.2421875 0.5
vt 0.2421875 0.4921875
vt 0.5078125 0.734375
vt 0.5078125 0.7421875
vt 0.5 0.7421875
vt 0.5 0.734375
vt 0.28125 0.5
vt 0.2734375 0.5
vt 0.2734375 0.4921875
vt 0.28125 0.4921875
vt 0.5078125 0.7265625
vt 0.5 0.7265625
vt 0.5 0.71875
vt 0.5078125 0.71875
vt 0.5078125 0.703125
vt 0.5078125 0.7109375
vt 0.5 0.7109375
vt 0.5 0.703125
vt 0.5 0.6875
vt 0.5078125 0.6875
vt 0.5078125 0.6953125
vt 0.5 0.6953125
vt 0.328125 0.4921875
vt 0.328125 0.5
vt 0.3203125 0.5
vt 0.3203125 0.4921875
vt 0.5078125 0.671875
vt 0.5078125 0.6796875
vt 0.5 0.6796875
vt 0.5 0.671875
vt 0.5078125 0.6640625
vt 0.5 0.6640625
vt 0.5 0.65625
vt 0.5078125 0.65625
vt 0.4296875 0.53125
vt 0.421875 0.53125
vt 0.421875 0.515625
vt 0.4296875 0.515625
vt 0.1328125 0.5078125
vt 0.1328125 0.5234375
vt 0.125 0.5234375
vt 0.125 0.5078125
vt 0.375 0.4921875
vt 0.3828125 0.4921875
vt 0.3828125 0.5
vt 0.375 0.5
vt 0.453125 0.4921875
vt 0.453125 0.5
vt 0.4453125 0.5
vt 0.4453125 0.4921875
vt 0.1484375 0.5078125
vt 0.1484375 0.5234375
vt 0.140625 0.5234375
vt 0.140625 0.5078125
vt 0.1796875 0.5234375
vt 0.171875 0.5234375
vt 0.171875 0.5078125
vt 0.1796875 0.5078125
vt 0.46875 0.5
vt 0.4609375 0.5
vt 0.4609375 0.4921875
vt 0.46875 0.4921875
vt 0.5078125 0.5078125
vt 0.5078125 0.515625
vt 0.5 0.515625
vt 0.5 0.5078125
vt 0.5 0.4921875
vt 0.5078125 0.4921875
vt 0.5078125 0.5
vt 0.5 0.5
vt 0.078125 0.484375
vt 0.078125 0.4921875
vt 0.0703125 0.4921875
vt 0.0703125 0.484375
vt 0.515625 0.8984375
vt 0.515625 0.90625
vt 0.5078125 0.90625
vt 0.5078125 0.8984375
vt 0.515625 0.890625
vt 0.5078125 0.890625
vt 0.5078125 0.8828125
vt 0.515625 0.8828125
vt 0.0859375 0.7578125
vt 0.078125 0.7578125
vt 0.078125 0.65625
vt 0.0859375 0.65625
vt 0.1015625 0.65625
vt 0.1015625 0.7578125
vt 0.09375 0.7578125
vt 0.09375 0.65625
vt 0.5078125 0.8671875
vt 0.515625 0.8671875
vt 0.515625 0.875
vt 0.5078125 0.875
vt 0.515625 0.8515625
vt 0.515625 0.859375
vt 0.5078125 0.859375
vt 0.5078125 0.8515625
vt 0.1171875 0.640625
vt 0.1171875 0.7421875
vt 0.109375 0.7421875
vt 0.109375 0.640625
vt 0.1328125 0.7421875
vt 0.125 0.7421875
vt 0.125 0.640625
vt 0.1328125 0.640625
vt 0.234375 0.5234375
vt 0.2265625 0.5234375
vt 0.2265625 0.5078125
vt 0.234375 0.5078125
vt 0.25 0.5078125
vt 0.25 0.5234375
vt 0.2421875 0.5234375
vt 0.2421875 0.5078125
vt 0.109375 0.7890625
vt 0.125 0.7890625
vt 0.125 0.796875
vt 0.109375 0.796875
vt 0.40625 0.96875
vt 0.40625 0.9765625
vt 0.390625 0.9765625
vt 0.390625 0.96875
vt 0.2265625 0.8671875
vt 0.2265625 0.8828125
vt 0.2109375 0.8828125
vt 0.2109375 0.8671875
vt 0.40625 1
vt 0.390625 1
vt 0.390625 0.984375
vt 0.40625 0.984375
vt 0.2802734375 0.8916015625
vt 0.2802734375 0.90625
vt 0.2578125 0.90625
vt 0.2578125 0.8916015625
vt 0.0693359375 0.6416015625
vt 0.0693359375 0.65625
vt 0.046875 0.65625
vt 0.046875 0.6416015625
vt 0.3046875 0.4921875
vt 0.3046875 0.4697265625
vt 0.3056640625 0.4697265625
vt 0.3056640625 0.4921875
vt 0.390625 0.4697265625
vt 0.390625 0.4921875
vt 0.3916015625 0.4921875
vt 0.3916015625 0.4697265625
vt 0.5166015625 0.8056640625
vt 0.5166015625 0.8203125
vt 0.515625 0.8203125
vt 0.515625 0.8056640625
vt 0.1728515625 0.4697265625
vt 0.1728515625 0.484375
vt 0.171875 0.484375
vt 0.171875 0.4697265625
vt 0.4365234375 0.5400390625
vt 0.4365234375 0.546875
vt 0.4140625 0.546875
vt 0.4140625 0.5400390625
vt 0.4833984375 0.7900390625
vt 0.4833984375 0.796875
vt 0.4609375 0.796875
vt 0.4609375 0.7900390625
vt 0.4765625 0.4921875
vt 0.4765625 0.4697265625
vt 0.4775390625 0.4697265625
vt 0.4775390625 0.4921875
vt 0.046875 0.4619140625
vt 0.046875 0.484375
vt 0.0478515625 0.484375
vt 0.0478515625 0.4619140625
vt 0.5166015625 0.5166015625
vt 0.5166015625 0.5234375
vt 0.515625 0.5234375
vt 0.515625 0.5166015625
vt 0.4541015625 0.4775390625
vt 0.4541015625 0.484375
vt 0.453125 0.484375
vt 0.453125 0.4775390625
vt 0.171875 0.619140625
vt 0.171875 0.671875
vt 0.1640625 0.671875
vt 0.1640625 0.619140625
vt 0.1875 0.619140625
vt 0.1875 0.671875
vt 0.1796875 0.671875
vt 0.1796875 0.619140625
vt 0.2890625 0.75
vt 0.2890625 0.7421875
vt 0.3515625 0.7421875
vt 0.3515625 0.75
vt 0.2890625 0.7265625
vt 0.2890625 0.734375
vt 0.3515625 0.734375
vt 0.3515625 0.7265625
vt 0.1328125 0.869140625
vt 0.1328125 0.921875
vt 0.0703125 0.921875
vt 0.0703125 0.869140625
vt 0.0625 0.869140625
vt 0.0625 0.921875
vt 0 0.921875
vt 0 0.869140625
vt 0.203125 0.615234375
vt 0.203125 0.6640625
vt 0.1953125 0.6640625
vt 0.1953125 0.615234375
vt 0.21875 0.615234375
vt 0.21875 0.6640625
vt 0.2109375 0.6640625
vt 0.2109375 0.615234375
vt 0.3203125 0.8828125
vt 0.3203125 0.875
vt 0.3828125 0.875
vt 0.3828125 0.8828125
vt 0.234375 0.671875
vt 0.234375 0.6796875
vt 0.296875 0.6796875
vt 0.296875 0.671875
vt 0.203125 0.873046875
vt 0.203125 0.921875
vt 0.140625 0.921875
vt 0.140625 0.873046875
vt 0.125 0.810546875
vt 0.125 0.859375
vt 0.0625 0.859375
vt 0.0625 0.810546875
vt 0.333984375 0.6123046875
vt 0.333984375 0.6796875
vt 0.328125 0.6796875
vt 0.328125 0.6123046875
vt 0.005859375 0.5966796875
vt 0.005859375 0.6640625
vt 0 0.6640625
vt 0 0.5966796875
vt 0.3671875 0.7265625
vt 0.3671875 0.720703125
vt 0.41796875 0.720703125
vt 0.41796875 0.7265625
vt 0.3671875 0.705078125
vt 0.3671875 0.7109375
vt 0.41796875 0.7109375
vt 0.41796875 0.705078125
vt 0.11328125 0.9326171875
vt 0.11328125 1
vt 0.0625 1
vt 0.0625 0.9326171875
vt 0.05078125 0.9326171875
vt 0.05078125 1
vt 0 1
vt 0 0.9326171875
vt 0.232421875 0.6005859375
vt 0.232421875 0.6640625
vt 0.2265625 0.6640625
vt 0.2265625 0.6005859375
vt 0.248046875 0.6005859375
vt 0.248046875 0.6640625
vt 0.2421875 0.6640625
vt 0.2421875 0.6005859375
vt 0.3671875 0.6953125
vt 0.3671875 0.689453125
vt 0.41796875 0.689453125
vt 0.41796875 0.6953125
vt 0.3671875 0.673828125
vt 0.3671875 0.6796875
vt 0.41796875 0.6796875
vt 0.41796875 0.673828125
vt 0.05078125 0.7958984375
vt 0.05078125 0.859375
vt 0 0.859375
vt 0 0.7958984375
vt 0.17578125 0.9365234375
vt 0.17578125 1
vt 0.125 1
vt 0.125 0.9365234375
vt 0.0078125 0.560546875
vt 0.0078125 0.5859375
vt 0 0.5859375
vt 0 0.560546875
vt 0.234375 0.560546875
vt 0.234375 0.5859375
vt 0.2265625 0.5859375
vt 0.2265625 0.560546875
vt 0.3359375 0.9375
vt 0.3359375 0.9296875
vt 0.3828125 0.9296875
vt 0.3828125 0.9375
vt 0.34375 0.9140625
vt 0.34375 0.921875
vt 0.390625 0.921875
vt 0.390625 0.9140625
vt 0.203125 0.740234375
vt 0.203125 0.765625
vt 0.15625 0.765625
vt 0.15625 0.740234375
vt 0.28125 0.857421875
vt 0.28125 0.8828125
vt 0.234375 0.8828125
vt 0.234375 0.857421875
vt 0.21875 0.57421875
vt 0.21875 0.6015625
vt 0.2109375 0.6015625
vt 0.2109375 0.57421875
vt 0.40625 0.57421875
vt 0.40625 0.6015625
vt 0.3984375 0.6015625
vt 0.3984375 0.57421875
vt 0.34375 0.90625
vt 0.34375 0.8984375
vt 0.390625 0.8984375
vt 0.390625 0.90625
vt 0.34375 0.7890625
vt 0.34375 0.796875
vt 0.390625 0.796875
vt 0.390625 0.7890625
vt 0.234375 0.93359375
vt 0.234375 0.9609375
vt 0.1875 0.9609375
vt 0.1875 0.93359375
vt 0.234375 0.97265625
vt 0.234375 1
vt 0.1875 1
vt 0.1875 0.97265625
vt 0.185546875 0.564453125
vt 0.185546875 0.609375
vt 0.1796875 0.609375
vt 0.1796875 0.564453125
vt 0.404296875 0.900390625
vt 0.404296875 0.9453125
vt 0.3984375 0.9453125
vt 0.3984375 0.900390625
vt 0.34375 0.5234375
vt 0.34375 0.517578125
vt 0.361328125 0.517578125
vt 0.361328125 0.5234375
vt 0.4765625 0.642578125
vt 0.4765625 0.6484375
vt 0.494140625 0.6484375
vt 0.494140625 0.642578125
vt 0.291015625 0.955078125
vt 0.291015625 1
vt 0.2734375 1
vt 0.2734375 0.955078125
vt 0.283203125 0.798828125
vt 0.283203125 0.84375
vt 0.265625 0.84375
vt 0.265625 0.798828125
vt 0.3828125 0.5107421875
vt 0.3828125 0.5234375
vt 0.375 0.5234375
vt 0.375 0.5107421875
vt 0.4921875 0.9873046875
vt 0.4921875 1
vt 0.484375 1
vt 0.484375 0.9873046875
vt 0.4609375 0.78125
vt 0.4609375 0.7734375
vt 0.4775390625 0.7734375
vt 0.4775390625 0.78125
vt 0.4609375 0.5703125
vt 0.4609375 0.578125
vt 0.4775390625 0.578125
vt 0.4775390625 0.5703125
vt 0.4228515625 0.7998046875
vt 0.4228515625 0.8125
vt 0.40625 0.8125
vt 0.40625 0.7998046875
vt 0.4228515625 0.8232421875
vt 0.4228515625 0.8359375
vt 0.40625 0.8359375
vt 0.40625 0.8232421875
vt 0.1962890625 0.505859375
vt 0.1962890625 0.515625
vt 0.1875 0.515625
vt 0.1875 0.505859375
vt 0.4931640625 0.755859375
vt 0.4931640625 0.765625
vt 0.484375 0.765625
vt 0.484375 0.755859375
vt 0 0.546875
vt 0 0.5380859375
vt 0.01953125 0.5380859375
vt 0.01953125 0.546875
vt 0.03125 0.5380859375
vt 0.03125 0.546875
vt 0.05078125 0.546875
vt 0.05078125 0.5380859375
vt 0.43359375 0.607421875
vt 0.43359375 0.6171875
vt 0.4140625 0.6171875
vt 0.4140625 0.607421875
vt 0.42578125 0.630859375
vt 0.42578125 0.640625
vt 0.40625 0.640625
vt 0.40625 0.630859375
vt 0.3056640625 0.505859375
vt 0.3056640625 0.515625
vt 0.296875 0.515625
vt 0.296875 0.505859375
vt 0.3994140625 0.505859375
vt 0.3994140625 0.515625
vt 0.390625 0.515625
vt 0.390625 0.505859375
vt 0.453125 0.90625
vt 0.453125 0.8974609375
vt 0.47265625 0.8974609375
vt 0.47265625 0.90625
vt 0.453125 0.8740234375
vt 0.453125 0.8828125
vt 0.47265625 0.8828125
vt 0.47265625 0.8740234375
vt 0.11328125 0.568359375
vt 0.11328125 0.578125
vt 0.09375 0.578125
vt 0.09375 0.568359375
vt 0.43359375 0.583984375
vt 0.43359375 0.59375
vt 0.4140625 0.59375
vt 0.4140625 0.583984375
vt 0.1875 0.53125
vt 0.1875 0.5546875
vt 0.1796875 0.5546875
vt 0.1796875 0.53125
vt 0.453125 0.7109375
vt 0.453125 0.734375
vt 0.4453125 0.734375
vt 0.4453125 0.7109375
vt 0.46875 0.921875
vt 0.46875 0.9140625
vt 0.4853515625 0.9140625
vt 0.4853515625 0.921875
vt 0.46875 0.8046875
vt 0.46875 0.8125
vt 0.4853515625 0.8125
vt 0.4853515625 0.8046875
vt 0.3525390625 0.9765625
vt 0.3525390625 1
vt 0.3359375 1
vt 0.3359375 0.9765625
vt 0.3447265625 0.8046875
vt 0.3447265625 0.828125
vt 0.328125 0.828125
vt 0.328125 0.8046875
vt 0.021484375 0.578125
vt 0.021484375 0.6328125
vt 0.015625 0.6328125
vt 0.015625 0.578125
vt 0.037109375 0.578125
vt 0.037109375 0.6328125
vt 0.03125 0.6328125
vt 0.03125 0.578125
vt 0.4765625 0.6328125
vt 0.4765625 0.626953125
vt 0.494140625 0.626953125
vt 0.494140625 0.6328125
vt 0.4765625 0.611328125
vt 0.4765625 0.6171875
vt 0.494140625 0.6171875
vt 0.494140625 0.611328125
vt 0.228515625 0.7109375
vt 0.228515625 0.765625
vt 0.2109375 0.765625
vt 0.2109375 0.7109375
vt 0.251953125 0.7890625
vt 0.251953125 0.84375
vt 0.234375 0.84375
vt 0.234375 0.7890625
vt 0.404296875 0.845703125
vt 0.404296875 0.890625
vt 0.3984375 0.890625
vt 0.3984375 0.845703125
vt 0.201171875 0.556640625
vt 0.201171875 0.6015625
vt 0.1953125 0.6015625
vt 0.1953125 0.556640625
vt 0.4765625 0.6015625
vt 0.4765625 0.595703125
vt 0.494140625 0.595703125
vt 0.494140625 0.6015625
vt 0.4765625 0.556640625
vt 0.4765625 0.5625
vt 0.494140625 0.5625
vt 0.494140625 0.556640625
vt 0.189453125 0.681640625
vt 0.189453125 0.7265625
vt 0.171875 0.7265625
vt 0.171875 0.681640625
vt 0.158203125 0.681640625
vt 0.158203125 0.7265625
vt 0.140625 0.7265625
vt 0.140625 0.681640625
vt 0.4921875 0.9638671875
vt 0.4921875 0.9765625
vt 0.484375 0.9765625
vt 0.484375 0.9638671875
vt 0.4921875 0.9404296875
vt 0.4921875 0.953125
vt 0.484375 0.953125
vt 0.484375 0.9404296875
vt 0.390625 0.53125
vt 0.390625 0.5234375
vt 0.4072265625 0.5234375
vt 0.4072265625 0.53125
vt 0 0.515625
vt 0 0.5234375
vt 0.0166015625 0.5234375
vt 0.0166015625 0.515625
vt 0.4228515625 0.6513671875
vt 0.4228515625 0.6640625
vt 0.40625 0.6640625
vt 0.40625 0.6513671875
vt 0.4228515625 0.7373046875
vt 0.4228515625 0.75
vt 0.40625 0.75
vt 0.40625 0.7373046875
vt 0.4853515625 0.505859375
vt 0.4853515625 0.515625
vt 0.4765625 0.515625
vt 0.4765625 0.505859375
vt 0.0087890625 0.498046875
vt 0.0087890625 0.5078125
vt 0 0.5078125
vt 0 0.498046875
vt 0.453125 0.859375
vt 0.453125 0.8505859375
vt 0.47265625 0.8505859375
vt 0.47265625 0.859375
vt 0.453125 0.8271484375
vt 0.453125 0.8359375
vt 0.47265625 0.8359375
vt 0.47265625 0.8271484375
vt 0.06640625 0.560546875
vt 0.06640625 0.5703125
vt 0.046875 0.5703125
vt 0.046875 0.560546875
vt 0.03515625 0.560546875
vt 0.03515625 0.5703125
vt 0.015625 0.5703125
vt 0.015625 0.560546875
vt 0.453125 0.59375
vt 0.453125 0.6171875
vt 0.4453125 0.6171875
vt 0.4453125 0.59375
vt 0.453125 0.5625
vt 0.453125 0.5859375
vt 0.4453125 0.5859375
vt 0.4453125 0.5625
vt 0.03125 0.5234375
vt 0.03125 0.515625
vt 0.0478515625 0.515625
vt 0.0478515625 0.5234375
vt 0.09375 0.515625
vt 0.09375 0.5234375
vt 0.1103515625 0.5234375
vt 0.1103515625 0.515625
vt 0.3525390625 0.9453125
vt 0.3525390625 0.96875
vt 0.3359375 0.96875
vt 0.3359375 0.9453125
vt 0.0322265625 0.640625
vt 0.0322265625 0.6640625
vt 0.015625 0.6640625
vt 0.015625 0.640625
vt 0.0322265625 0.498046875
vt 0.0322265625 0.5078125
vt 0.0234375 0.5078125
vt 0.0234375 0.498046875
vt 0.0556640625 0.498046875
vt 0.0556640625 0.5078125
vt 0.046875 0.5078125
vt 0.046875 0.498046875
vt 0.2265625 0.546875
vt 0.2265625 0.5380859375
vt 0.24609375 0.5380859375
vt 0.24609375 0.546875
vt 0.453125 0.7568359375
vt 0.453125 0.765625
vt 0.47265625 0.765625
vt 0.47265625 0.7568359375
vt 0.26171875 0.560546875
vt 0.26171875 0.5703125
vt 0.2421875 0.5703125
vt 0.2421875 0.560546875
vt 0.44921875 0.779296875
vt 0.44921875 0.7890625
vt 0.4296875 0.7890625
vt 0.4296875 0.779296875
vt 0.052734375 0.578125
vt 0.052734375 0.6328125
vt 0.046875 0.6328125
vt 0.046875 0.578125
vt 0.068359375 0.578125
vt 0.068359375 0.6328125
vt 0.0625 0.6328125
vt 0.0625 0.578125
vt 0.4765625 0.546875
vt 0.4765625 0.541015625
vt 0.494140625 0.541015625
vt 0.494140625 0.546875
vt 0.4765625 0.525390625
vt 0.4765625 0.53125
vt 0.494140625 0.53125
vt 0.494140625 0.525390625
vt 0.064453125 0.703125
vt 0.064453125 0.7578125
vt 0.046875 0.7578125
vt 0.046875 0.703125
vt 0.259765625 0.9453125
vt 0.259765625 1
vt 0.2421875 1
vt 0.2421875 0.9453125
vt 0.1015625 0.765625
vt 0.1015625 0.796875
vt 0.0625 0.796875
vt 0.0625 0.765625
vt 0.25 0.890625
vt 0.25 0.921875
vt 0.2109375 0.921875
vt 0.2109375 0.890625
vt 0.125 0.5703125
vt 0.125 0.53125
vt 0.1298828125 0.53125
vt 0.1298828125 0.5703125
vt 0.2734375 0.53125
vt 0.2734375 0.5703125
vt 0.2783203125 0.5703125
vt 0.2783203125 0.53125
vt 0.4658203125 0.5859375
vt 0.4658203125 0.6171875
vt 0.4609375 0.6171875
vt 0.4609375 0.5859375
vt 0.4658203125 0.7109375
vt 0.4658203125 0.7421875
vt 0.4609375 0.7421875
vt 0.4609375 0.7109375
vt 0.0390625 0.75
vt 0.0390625 0.78125
vt 0 0.78125
vt 0 0.75
vt 0.1484375 0.75
vt 0.1484375 0.78125
vt 0.109375 0.78125
vt 0.109375 0.75
vt 0.4296875 0.7265625
vt 0.4296875 0.6875
vt 0.4345703125 0.6875
vt 0.4345703125 0.7265625
vt 0.2890625 0.53125
vt 0.2890625 0.5703125
vt 0.2939453125 0.5703125
vt 0.2939453125 0.53125
vt 0.4658203125 0.5078125
vt 0.4658203125 0.5390625
vt 0.4609375 0.5390625
vt 0.4609375 0.5078125
vt 0.4501953125 0.5078125
vt 0.4501953125 0.5390625
vt 0.4453125 0.5390625
vt 0.4453125 0.5078125
vt 0.3359375 0.6875
vt 0.3359375 0.71875
vt 0.3203125 0.71875
vt 0.3203125 0.6875
vt 0.3203125 0.6484375
vt 0.3203125 0.6796875
vt 0.3046875 0.6796875
vt 0.3046875 0.6484375
vt 0.359375 0.5078125
vt 0.359375 0.4921875
vt 0.3642578125 0.4921875
vt 0.3642578125 0.5078125
vt 0.4140625 0.4921875
vt 0.4140625 0.5078125
vt 0.4189453125 0.5078125
vt 0.4189453125 0.4921875
vt 0.4736328125 0.9296875
vt 0.4736328125 0.9609375
vt 0.46875 0.9609375
vt 0.46875 0.9296875
vt 0.4736328125 0.96875
vt 0.4736328125 1
vt 0.46875 1
vt 0.46875 0.96875
vt 0.34375 0.8359375
vt 0.34375 0.8671875
vt 0.328125 0.8671875
vt 0.328125 0.8359375
vt 0.15625 0.640625
vt 0.15625 0.671875
vt 0.140625 0.671875
vt 0.140625 0.640625
vt 0.4921875 0.5859375
vt 0.4921875 0.5703125
vt 0.4970703125 0.5703125
vt 0.4970703125 0.5859375
vt 0.4296875 0.4921875
vt 0.4296875 0.5078125
vt 0.4345703125 0.5078125
vt 0.4345703125 0.4921875
vt 0.1611328125 0.5
vt 0.1611328125 0.53125
vt 0.15625 0.53125
vt 0.15625 0.5
vt 0.0830078125 0.5
vt 0.0830078125 0.53125
vt 0.078125 0.53125
vt 0.078125 0.5
vt 0.28125 0.7578125
vt 0.28125 0.78125
vt 0.2421875 0.78125
vt 0.2421875 0.7578125
vt 0.28125 0.7265625
vt 0.28125 0.75
vt 0.2421875 0.75
vt 0.2421875 0.7265625
vt 0.1484375 0.6328125
vt 0.1484375 0.59375
vt 0.1552734375 0.59375
vt 0.1552734375 0.6328125
vt 0.125 0.578125
vt 0.125 0.6171875
vt 0.1318359375 0.6171875
vt 0.1318359375 0.578125
vt 0.2021484375 0.5234375
vt 0.2021484375 0.546875
vt 0.1953125 0.546875
vt 0.1953125 0.5234375
vt 0.0693359375 0.5234375
vt 0.0693359375 0.546875
vt 0.0625 0.546875
vt 0.0625 0.5234375
vt 0.0390625 0.71875
vt 0.0390625 0.7421875
vt 0 0.7421875
vt 0 0.71875
vt 0.296875 0.9140625
vt 0.296875 0.9375
vt 0.2578125 0.9375
vt 0.2578125 0.9140625
vt 0.078125 0.609375
vt 0.078125 0.5703125
vt 0.0849609375 0.5703125
vt 0.0849609375 0.609375
vt 0.1640625 0.5703125
vt 0.1640625 0.609375
vt 0.1708984375 0.609375
vt 0.1708984375 0.5703125
vt 0.3115234375 0.5234375
vt 0.3115234375 0.546875
vt 0.3046875 0.546875
vt 0.3046875 0.5234375
vt 0.2646484375 0.5234375
vt 0.2646484375 0.546875
vt 0.2578125 0.546875
vt 0.2578125 0.5234375
vt 0.5166015625 0.734375
vt 0.5166015625 0.7421875
vt 0.515625 0.7421875
vt 0.515625 0.734375
vt 0.2744140625 0.4765625
vt 0.2744140625 0.484375
vt 0.2734375 0.484375
vt 0.2734375 0.4765625
vt 0.5078125 0.5546875
vt 0.5078125 0.5537109375
vt 0.54296875 0.5537109375
vt 0.54296875 0.5546875
vt 0.5078125 0.5380859375
vt 0.5078125 0.5390625
vt 0.54296875 0.5390625
vt 0.54296875 0.5380859375
vt 0.41796875 0.7578125
vt 0.41796875 0.765625
vt 0.3828125 0.765625
vt 0.3828125 0.7578125
vt 0.41796875 0.7734375
vt 0.41796875 0.78125
vt 0.3828125 0.78125
vt 0.3828125 0.7734375
vt 0.5166015625 0.71875
vt 0.5166015625 0.7265625
vt 0.515625 0.7265625
vt 0.515625 0.71875
vt 0.5166015625 0.703125
vt 0.5166015625 0.7109375
vt 0.515625 0.7109375
vt 0.515625 0.703125
vt 0.515625 0.984375
vt 0.515625 0.9833984375
vt 0.5390625 0.9833984375
vt 0.5390625 0.984375
vt 0.515625 0.9677734375
vt 0.515625 0.96875
vt 0.5390625 0.96875
vt 0.5390625 0.9677734375
vt 0.4609375 0.8046875
vt 0.4609375 0.8125
vt 0.4375 0.8125
vt 0.4375 0.8046875
vt 0.1796875 0.7734375
vt 0.1796875 0.78125
vt 0.15625 0.78125
vt 0.15625 0.7734375
vt 0.5166015625 0.6875
vt 0.5166015625 0.6953125
vt 0.515625 0.6953125
vt 0.515625 0.6875
vt 0.3212890625 0.4765625
vt 0.3212890625 0.484375
vt 0.3203125 0.484375
vt 0.3203125 0.4765625
vt 0.515625 0.953125
vt 0.515625 0.9521484375
vt 0.5390625 0.9521484375
vt 0.5390625 0.953125
vt 0.515625 0.9365234375
vt 0.515625 0.9375
vt 0.5390625 0.9375
vt 0.5390625 0.9365234375
vt 0.46875 0.546875
vt 0.46875 0.5546875
vt 0.4453125 0.5546875
vt 0.4453125 0.546875
vt 0.46875 0.6953125
vt 0.46875 0.703125
vt 0.4453125 0.703125
vt 0.4453125 0.6953125
vt 0.5166015625 0.671875
vt 0.5166015625 0.6796875
vt 0.515625 0.6796875
vt 0.515625 0.671875
vt 0.3369140625 0.4765625
vt 0.3369140625 0.484375
vt 0.3359375 0.484375
vt 0.3359375 0.4765625
vt 0 0.484375
vt 0 0.4833984375
vt 0.03515625 0.4833984375
vt 0.03515625 0.484375
vt 0.515625 0.9990234375
vt 0.515625 1
vt 0.55078125 1
vt 0.55078125 0.9990234375
vt 0.40234375 0.609375
vt 0.40234375 0.6171875
vt 0.3671875 0.6171875
vt 0.3671875 0.609375
vt 0.29296875 0.609375
vt 0.29296875 0.6171875
vt 0.2578125 0.6171875
vt 0.2578125 0.609375
vt 0.2587890625 0.4609375
vt 0.2587890625 0.4921875
vt 0.2578125 0.4921875
vt 0.2578125 0.4609375
vt 0.2900390625 0.4609375
vt 0.2900390625 0.4921875
vt 0.2890625 0.4921875
vt 0.2890625 0.4609375
vt 0.5078125 0.7734375
vt 0.5078125 0.7724609375
vt 0.5625 0.7724609375
vt 0.5625 0.7734375
vt 0.5078125 0.7568359375
vt 0.5078125 0.7578125
vt 0.5625 0.7578125
vt 0.5625 0.7568359375
vt 0.1875 0.7890625
vt 0.1875 0.8203125
vt 0.1328125 0.8203125
vt 0.1328125 0.7890625
vt 0.1875 0.828125
vt 0.1875 0.859375
vt 0.1328125 0.859375
vt 0.1328125 0.828125
vt 0.087890625 0.474609375
vt 0.087890625 0.484375
vt 0.0859375 0.484375
vt 0.0859375 0.474609375
vt 0.103515625 0.474609375
vt 0.103515625 0.484375
vt 0.1015625 0.484375
vt 0.1015625 0.474609375
vt 0.515625 0.921875
vt 0.515625 0.919921875
vt 0.521484375 0.919921875
vt 0.521484375 0.921875
vt 0.203125 0.482421875
vt 0.203125 0.484375
vt 0.208984375 0.484375
vt 0.208984375 0.482421875
vt 0.513671875 0.833984375
vt 0.513671875 0.84375
vt 0.5078125 0.84375
vt 0.5078125 0.833984375
vt 0.162109375 0.482421875
vt 0.162109375 0.4921875
vt 0.15625 0.4921875
vt 0.15625 0.482421875
vt 0.119140625 0.474609375
vt 0.119140625 0.484375
vt 0.1171875 0.484375
vt 0.1171875 0.474609375
vt 0.134765625 0.474609375
vt 0.134765625 0.484375
vt 0.1328125 0.484375
vt 0.1328125 0.474609375
vt 0.21875 0.484375
vt 0.21875 0.482421875
vt 0.224609375 0.482421875
vt 0.224609375 0.484375
vt 0.234375 0.482421875
vt 0.234375 0.484375
vt 0.240234375 0.484375
vt 0.240234375 0.482421875
vt 0.513671875 0.787109375
vt 0.513671875 0.796875
vt 0.5078125 0.796875
vt 0.5078125 0.787109375
vt 0.193359375 0.482421875
vt 0.193359375 0.4921875
vt 0.1875 0.4921875
vt 0.1875 0.482421875
vt 0.5166015625 0.65625
vt 0.5166015625 0.6640625
vt 0.515625 0.6640625
vt 0.515625 0.65625
vt 0.3525390625 0.4765625
vt 0.3525390625 0.484375
vt 0.3515625 0.484375
vt 0.3515625 0.4765625
vt 0.5078125 0.6484375
vt 0.5078125 0.6474609375
vt 0.546875 0.6474609375
vt 0.546875 0.6484375
vt 0.5078125 0.6318359375
vt 0.5078125 0.6328125
vt 0.546875 0.6328125
vt 0.546875 0.6318359375
vt 0.3984375 0.8046875
vt 0.3984375 0.8125
vt 0.359375 0.8125
vt 0.359375 0.8046875
vt 0.3984375 0.8203125
vt 0.3984375 0.828125
vt 0.359375 0.828125
vt 0.359375 0.8203125
vt 0.3681640625 0.4765625
vt 0.3681640625 0.484375
vt 0.3671875 0.484375
vt 0.3671875 0.4765625
vt 0.4072265625 0.4765625
vt 0.4072265625 0.484375
vt 0.40625 0.484375
vt 0.40625 0.4765625
vt 0.5078125 0.6171875
vt 0.5078125 0.6162109375
vt 0.546875 0.6162109375
vt 0.546875 0.6171875
vt 0.5078125 0.6005859375
vt 0.5078125 0.6015625
vt 0.546875 0.6015625
vt 0.546875 0.6005859375
vt 0.40625 0.953125
vt 0.40625 0.9609375
vt 0.3671875 0.9609375
vt 0.3671875 0.953125
vt 0.3984375 0.734375
vt 0.3984375 0.7421875
vt 0.359375 0.7421875
vt 0.359375 0.734375
vt 0.4228515625 0.4765625
vt 0.4228515625 0.484375
vt 0.421875 0.484375
vt 0.421875 0.4765625
vt 0.4384765625 0.4765625
vt 0.4384765625 0.484375
vt 0.4375 0.484375
vt 0.4375 0.4765625
vt 0.5078125 0.5859375
vt 0.5078125 0.5849609375
vt 0.546875 0.5849609375
vt 0.546875 0.5859375
vt 0.5078125 0.5693359375
vt 0.5078125 0.5703125
vt 0.546875 0.5703125
vt 0.546875 0.5693359375
vt 0.296875 0.625
vt 0.296875 0.6328125
vt 0.2578125 0.6328125
vt 0.2578125 0.625
vt 0.140625 0.625
vt 0.140625 0.6328125
vt 0.1015625 0.6328125
vt 0.1015625 0.625
vt 0.3544921875 0.6884765625
vt 0.3544921875 0.71875
vt 0.34375 0.71875
vt 0.34375 0.6884765625
vt 0.3544921875 0.6494140625
vt 0.3544921875 0.6796875
vt 0.34375 0.6796875
vt 0.34375 0.6494140625
vt 0.3046875 0.5703125
vt 0.3046875 0.5595703125
vt 0.322265625 0.5595703125
vt 0.322265625 0.5703125
vt 0.3359375 0.5595703125
vt 0.3359375 0.5703125
vt 0.353515625 0.5703125
vt 0.353515625 0.5595703125
vt 0.306640625 0.7587890625
vt 0.306640625 0.7890625
vt 0.2890625 0.7890625
vt 0.2890625 0.7587890625
vt 0.306640625 0.8759765625
vt 0.306640625 0.90625
vt 0.2890625 0.90625
vt 0.2890625 0.8759765625
vt 0.2685546875 0.580078125
vt 0.2685546875 0.6015625
vt 0.2578125 0.6015625
vt 0.2578125 0.580078125
vt 0.2919921875 0.580078125
vt 0.2919921875 0.6015625
vt 0.28125 0.6015625
vt 0.28125 0.580078125
vt 0.4765625 0.7421875
vt 0.4765625 0.7314453125
vt 0.486328125 0.7314453125
vt 0.486328125 0.7421875
vt 0.2734375 0.5126953125
vt 0.2734375 0.5234375
vt 0.283203125 0.5234375
vt 0.283203125 0.5126953125
vt 0.423828125 0.947265625
vt 0.423828125 0.96875
vt 0.4140625 0.96875
vt 0.4140625 0.947265625
vt 0.423828125 0.978515625
vt 0.423828125 1
vt 0.4140625 1
vt 0.4140625 0.978515625
vt 0.0888671875 0.6181640625
vt 0.0888671875 0.6484375
vt 0.078125 0.6484375
vt 0.078125 0.6181640625
vt 0.3623046875 0.8369140625
vt 0.3623046875 0.8671875
vt 0.3515625 0.8671875
vt 0.3515625 0.8369140625
vt 0.3671875 0.5703125
vt 0.3671875 0.5595703125
vt 0.384765625 0.5595703125
vt 0.384765625 0.5703125
vt 0.4140625 0.5595703125
vt 0.4140625 0.5703125
vt 0.431640625 0.5703125
vt 0.431640625 0.5595703125
vt 0.314453125 0.7978515625
vt 0.314453125 0.828125
vt 0.296875 0.828125
vt 0.296875 0.7978515625
vt 0.314453125 0.8369140625
vt 0.314453125 0.8671875
vt 0.296875 0.8671875
vt 0.296875 0.8369140625
vt 0.2646484375 0.50390625
vt 0.2646484375 0.515625
vt 0.2578125 0.515625
vt 0.2578125 0.50390625
vt 0.1005859375 0.49609375
vt 0.1005859375 0.5078125
vt 0.09375 0.5078125
vt 0.09375 0.49609375
vt 0.484375 0.90625
vt 0.484375 0.8994140625
vt 0.498046875 0.8994140625
vt 0.498046875 0.90625
vt 0.484375 0.8837890625
vt 0.484375 0.890625
vt 0.498046875 0.890625
vt 0.498046875 0.8837890625
vt 0.333984375 0.53515625
vt 0.333984375 0.546875
vt 0.3203125 0.546875
vt 0.3203125 0.53515625
vt 0.466796875 0.67578125
vt 0.466796875 0.6875
vt 0.453125 0.6875
vt 0.453125 0.67578125
vt 0.3154296875 0.580078125
vt 0.3154296875 0.6015625
vt 0.3046875 0.6015625
vt 0.3046875 0.580078125
vt 0.3388671875 0.580078125
vt 0.3388671875 0.6015625
vt 0.328125 0.6015625
vt 0.328125 0.580078125
vt 0.4765625 0.71875
vt 0.4765625 0.7080078125
vt 0.486328125 0.7080078125
vt 0.486328125 0.71875
vt 0.4765625 0.6845703125
vt 0.4765625 0.6953125
vt 0.486328125 0.6953125
vt 0.486328125 0.6845703125
vt 0.423828125 0.884765625
vt 0.423828125 0.90625
vt 0.4140625 0.90625
vt 0.4140625 0.884765625
vt 0.423828125 0.916015625
vt 0.423828125 0.9375
vt 0.4140625 0.9375
vt 0.4140625 0.916015625
vt 0.3701171875 0.7509765625
vt 0.3701171875 0.78125
vt 0.359375 0.78125
vt 0.359375 0.7509765625
vt 0.3154296875 0.6103515625
vt 0.3154296875 0.640625
vt 0.3046875 0.640625
vt 0.3046875 0.6103515625
vt 0.4375 1
vt 0.4375 0.9892578125
vt 0.455078125 0.9892578125
vt 0.455078125 1
vt 0.4375 0.9658203125
vt 0.4375 0.9765625
vt 0.455078125 0.9765625
vt 0.455078125 0.9658203125
vt 0.322265625 0.9697265625
vt 0.322265625 1
vt 0.3046875 1
vt 0.3046875 0.9697265625
vt 0.220703125 0.6728515625
vt 0.220703125 0.703125
vt 0.203125 0.703125
vt 0.203125 0.6728515625
vt 0.1162109375 0.49609375
vt 0.1162109375 0.5078125
vt 0.109375 0.5078125
vt 0.109375 0.49609375
vt 0.4990234375 0.78515625
vt 0.4990234375 0.796875
vt 0.4921875 0.796875
vt 0.4921875 0.78515625
vt 0.484375 0.875
vt 0.484375 0.8681640625
vt 0.498046875 0.8681640625
vt 0.498046875 0.875
vt 0.484375 0.8525390625
vt 0.484375 0.859375
vt 0.498046875 0.859375
vt 0.498046875 0.8525390625
vt 0.357421875 0.53515625
vt 0.357421875 0.546875
vt 0.34375 0.546875
vt 0.34375 0.53515625
vt 0.466796875 0.65234375
vt 0.466796875 0.6640625
vt 0.453125 0.6640625
vt 0.453125 0.65234375
vt 0.2177734375 0.49609375
vt 0.2177734375 0.5078125
vt 0.2109375 0.5078125
vt 0.2109375 0.49609375
vt 0.3505859375 0.49609375
vt 0.3505859375 0.5078125
vt 0.34375 0.5078125
vt 0.34375 0.49609375
vt 0.484375 0.84375
vt 0.484375 0.8369140625
vt 0.498046875 0.8369140625
vt 0.498046875 0.84375
vt 0.484375 0.8212890625
vt 0.484375 0.828125
vt 0.498046875 0.828125
vt 0.498046875 0.8212890625
vt 0.380859375 0.53515625
vt 0.380859375 0.546875
vt 0.3671875 0.546875
vt 0.3671875 0.53515625
vt 0.466796875 0.62890625
vt 0.466796875 0.640625
vt 0.453125 0.640625
vt 0.453125 0.62890625
vt 0.3544921875 0.6103515625
vt 0.3544921875 0.640625
vt 0.34375 0.640625
vt 0.34375 0.6103515625
vt 0.3779296875 0.9697265625
vt 0.3779296875 1
vt 0.3671875 1
vt 0.3671875 0.9697265625
vt 0.4375 0.953125
vt 0.4375 0.9423828125
vt 0.455078125 0.9423828125
vt 0.455078125 0.953125
vt 0.4375 0.9189453125
vt 0.4375 0.9296875
vt 0.455078125 0.9296875
vt 0.455078125 0.9189453125
vt 0.064453125 0.6650390625
vt 0.064453125 0.6953125
vt 0.046875 0.6953125
vt 0.046875 0.6650390625
vt 0.322265625 0.9306640625
vt 0.322265625 0.9609375
vt 0.3046875 0.9609375
vt 0.3046875 0.9306640625
vt 0.3623046875 0.580078125
vt 0.3623046875 0.6015625
vt 0.3515625 0.6015625
vt 0.3515625 0.580078125
vt 0.3857421875 0.580078125
vt 0.3857421875 0.6015625
vt 0.375 0.6015625
vt 0.375 0.580078125
vt 0.3203125 0.5234375
vt 0.3203125 0.5126953125
vt 0.330078125 0.5126953125
vt 0.330078125 0.5234375
vt 0.4765625 0.6611328125
vt 0.4765625 0.671875
vt 0.486328125 0.671875
vt 0.486328125 0.6611328125
vt 0.150390625 0.564453125
vt 0.150390625 0.5859375
vt 0.140625 0.5859375
vt 0.140625 0.564453125
vt 0.423828125 0.853515625
vt 0.423828125 0.875
vt 0.4140625 0.875
vt 0.4140625 0.853515625
vt 0.3857421875 0.8408203125
vt 0.3857421875 0.8671875
vt 0.375 0.8671875
vt 0.375 0.8408203125
vt 0.1123046875 0.5908203125
vt 0.1123046875 0.6171875
vt 0.1015625 0.6171875
vt 0.1015625 0.5908203125
vt 0.3671875 0.6640625
vt 0.3671875 0.6533203125
vt 0.39453125 0.6533203125
vt 0.39453125 0.6640625
vt 0.3671875 0.6298828125
vt 0.3671875 0.640625
vt 0.39453125 0.640625
vt 0.39453125 0.6298828125
vt 0.30859375 0.6923828125
vt 0.30859375 0.71875
vt 0.28125 0.71875
vt 0.28125 0.6923828125
vt 0.26953125 0.6923828125
vt 0.26953125 0.71875
vt 0.2421875 0.71875
vt 0.2421875 0.6923828125
vn 0.9743700647852352 0 0.22495105434386498
vn -0.9743700647852352 0 -0.22495105434386498
vn 0 1 0
vn 0 -1 0
vn -0.22495105434386498 0 0.9743700647852352
vn 0.22495105434386498 0 -0.9743700647852352
vn 0.9743700647852356 0 0.22495105434386353
vn -0.9743700647852356 0 -0.22495105434386353
vn 0 1 0
vn 0 -1 0
vn -0.22495105434386642 0 0.9743700647852349
vn 0.22495105434386498 0 -0.9743700647852352
vn 0.9762960071199333 0 -0.21643961393810346
vn -0.9762960071199333 0 0.21643961393810324
vn 0 1 0
vn 0 -1 0
vn 0.21643961393810277 0 0.9762960071199334
vn -0.21643961393810293 0 -0.9762960071199334
vn 0.9238795325112867 0 -0.38268343236508995
vn -0.9238795325112867 0 0.38268343236508984
vn 0 1 0
vn 0 -1 0
vn 0.38268343236509006 0 0.9238795325112868
vn -0.38268343236508917 0 -0.9238795325112872
vn 1 0 1.3877787807814457e-16
vn -1 0 -1.3877787807814457e-16
vn 0 1 0
vn 0 -1 0
vn 2.7755575615628914e-16 0 1
vn -2.7755575615628914e-16 0 -1
vn 1 0 -2.7755575615628914e-16
vn -1 0 4.996003610813204e-16
vn 0 1 0
vn 0 -1 0
vn -5.551115123125783e-16 0 1
vn -2.7755575615628914e-16 0 -1
vn 0.7071067811865472 -0.03700710955926768 0.7061377159181266
vn -0.7071067811865475 0.037007109559268364 -0.7061377159181264
vn -1.734723475976807e-18 0.9986295347545742 0.052335956242938846
vn 1.908195823574488e-17 -0.9986295347545739 -0.05233595624294551
vn -0.7071067811865478 -0.037007109559267656 0.706137715918126
vn 0.7071067811865469 0.03700710955926756 -0.7061377159181269
vn 0.7071067811865475 -0.037007109559267726 0.7061377159181264
vn -0.7071067811865476 0.03700710955926823 -0.7061377159181261
vn 0 0.9986295347545742 0.052335956242938846
vn -1.7347234759768075e-18 -0.9986295347545739 -0.052335956242945486
vn -0.7071067811865478 -0.03700710955926758 0.7061377159181261
vn 0.7071067811865475 0.03700710955926831 -0.7061377159181264
vn -0.39874909369077727 8.158249225481693e-8 0.9170600636167608
vn 0.39874909369077793 -8.158249206110626e-8 -0.9170600636167605
vn 0.0639709064561381 0.9975640504310072 0.027815255074569965
vn -0.06397090645613283 -0.9975640504310074 -0.027815255074567558
vn -0.9148261492808148 0.06975647129604695 -0.3977777662267714
vn 0.9148261492808155 -0.0697564712960476 0.3977777662267702
vn -0.39874909369077854 8.158249171127064e-8 0.9170600636167603
vn 0.39874909369077827 -8.158249203508558e-8 -0.9170600636167604
vn 0.0639709064561329 0.9975640504310074 0.0278152550745676
vn -0.06397090645613265 -0.9975640504310075 -0.02781525507456772
vn -0.9148261492808153 0.06975647129604855 -0.3977777662267701
vn 0.9148261492808148 -0.06975647129604685 0.3977777662267714
vn -0.39874909369077605 8.158249196391712e-8 0.9170600636167613
vn 0.39874909369077516 -8.158249190520344e-8 -0.9170600636167616
vn 0.06397090645612716 0.9975640504310079 0.027815255074565393
vn -0.06397090645613861 -0.9975640504310074 -0.027815255074560376
vn -0.9148261492808141 0.06975647129604691 -0.39777776622677324
vn 0.9148261492808141 -0.06975647129604683 0.3977777662267735
vn -0.3987490936907777 8.158249231726693e-8 0.9170600636167605
vn 0.39874909369077793 -8.158249245257536e-8 -0.9170600636167605
vn 0.06397090645613698 0.9975640504310072 0.027815255074569466
vn -0.06397090645613378 -0.9975640504310074 -0.02781525507456808
vn -0.914826149280815 0.06975647129604651 -0.3977777662267713
vn 0.914826149280815 -0.06975647129604715 0.3977777662267713
vn 3.885780586188049e-16 -0.15643446504023098 0.9876883405951379
vn -3.6082248300317597e-16 0.15643446504023076 -0.9876883405951379
vn 5.551115123125783e-17 0.9876883405951395 0.1564344650402193
vn -6.245004513516507e-17 -0.9876883405951395 -0.1564344650402199
vn -1 2.5564345961763283e-16 -1.6930901125533637e-15
vn 1 9.130123557772599e-17 -5.828670879282072e-16
vn 5.273559366969495e-16 -0.15643446504023087 0.9876883405951379
vn -6.106226635438361e-16 0.15643446504023195 -0.9876883405951375
vn 9.020562075079399e-17 0.987688340595134 0.15643446504025538
vn -8.326672684688674e-17 -0.9876883405951341 -0.15643446504025393
vn -1 5.830598349810926e-16 -3.885780586188047e-15
vn 1 8.673617379884012e-17 -3.3306690738754696e-16
vn 1 0 1.3877787807814457e-16
vn -1 0 2.498001805406602e-16
vn 0 1 0
vn 0 -1 0
vn 2.7755575615628914e-17 0 1
vn 2.7755575615628914e-17 0 -1
vn 1 0 4.440892098500626e-16
vn -1 0 -5.551115123125783e-17
vn 0 1 0
vn 0 -1 0
vn 2.7755575615628914e-17 0 1
vn 0 0 -1
vn 1 0 5.551115123125783e-16
vn -1 0 -5.551115123125783e-16
vn 0 1 0
vn 0 -1 0
vn 2.775557561562892e-17 0 1
vn -2.775557561562892e-17 0 -1
vn 1 -3.8549410577262335e-17 3.6082248300317597e-16
vn -1 -2.4628790091028713e-17 -2.498001805406602e-16
vn 1.734723475976807e-18 0.9993908270190958 0.03489949670250066
vn -1.7347234759768075e-18 -0.9993908270190958 -0.0348994967025029
vn -2.775557561562892e-17 -0.034899496702501 0.9993908270190959
vn -2.775557561562892e-17 0.034899496702500934 -0.9993908270190959
vn 1 -5.0464682937507145e-17 1.1102230246251565e-16
vn -1 -8.621050001824137e-17 -1.1102230246251565e-16
vn 6.938893903907228e-18 0.9781476007338056 0.20791169081775962
vn -6.938893903907228e-18 -0.9781476007338056 -0.2079116908177596
vn 5.551115123125784e-17 -0.20791169081775926 0.9781476007338058
vn -5.551115123125784e-17 0.20791169081775931 -0.9781476007338058
vn 1 -2.3790493384824797e-17 -1.1102230246251565e-16
vn -1 5.551115123125786e-17 8.326672684688674e-17
vn -3.469446951953614e-18 0.9975640502598244 -0.0697564737441248
vn 6.938893903907228e-18 -0.9975640502598243 0.06975647374412475
vn 5.551115123125784e-17 0.06975647374412532 0.9975640502598244
vn -8.326672684688677e-17 -0.0697564737441252 -0.9975640502598244
vn 0.9574818564260025 0.281282759147223 0.0640976132281186
vn -0.9574818564260026 -0.281282759147223 -0.06409761322811691
vn -0.27505634437783194 0.9570859180594433 -0.09127186242109937
vn 0.27505634437783055 -0.9570859180594438 0.09127186242109912
vn -0.08702012429616525 0.06976069709254293 0.9937610090502861
vn 0.08702012429616512 -0.069760697092543 -0.993761009050286
vn 0.9574817175661281 0.28128323424922114 0.0640976025832096
vn -0.957481717566128 -0.28128323424922214 -0.06409760258320936
vn 0.0027991353978144844 0.21311175450296713 -0.9770238200441645
vn -0.0027991353978150117 -0.21311175450296685 0.9770238200441647
vn -0.2884803725864936 0.9356618631872121 0.2032632588772328
vn 0.28848037258649367 -0.9356618631872119 -0.20326325887723273
vn 0.9579455165477692 0.2756990113993288 0.07956407756934358
vn -0.9579455165477695 -0.27569901139932856 -0.07956407756934232
vn -0.13180308673105331 0.1764602854582561 0.9754433422727111
vn 0.1318030867310535 -0.1764602854582561 -0.975443342272711
vn 0.25488886530053423 -0.9449083673930634 0.20537732001460557
vn -0.25488886530053434 0.9449083673930635 -0.20537732001460526
vn 0.9579455165477694 0.2756990113993286 0.07956407756934257
vn -0.9579455165477693 -0.2756990113993286 -0.07956407756934286
vn -0.13180308673105362 0.17646028545825626 0.9754433422727109
vn 0.1318030867310536 -0.17646028545825637 -0.9754433422727109
vn 0.2548888653005337 -0.944908367393063 0.20537732001460807
vn -0.25488886530053373 0.944908367393063 -0.2053773200146083
vn 0.9579455165477695 0.27569901139932784 0.07956407756934317
vn -0.9579455165477693 -0.2756990113993288 -0.07956407756934261
vn -0.13180308673105348 0.17646028545825557 0.975443342272711
vn 0.13180308673105318 -0.17646028545825562 -0.9754433422727111
vn 0.25488886530053356 -0.9449083673930632 0.20537732001460735
vn -0.25488886530053506 0.9449083673930627 -0.20537732001460735
vn 0.9579455504865694 0.2756986864317562 0.07956479499620361
vn -0.9579455504865694 -0.27569868643175627 -0.0795647949962039
vn -0.2861258542850697 0.9387411480584377 0.19208605480764473
vn 0.2861258542850696 -0.9387411480584388 -0.1920860548076398
vn -0.021732874007445002 -0.20677352645280492 0.9781474280217926
vn 0.021732874007444867 0.206773526452805 -0.9781474280217927
vn 0.9574818564260024 -0.28128275914722306 -0.06409761322811866
vn -0.9574818564260023 0.28128275914722317 0.06409761322811892
vn 0.275056344377832 0.9570859180594433 -0.0912718624210993
vn -0.2750563443778305 -0.9570859180594438 0.09127186242109922
vn 0.08702012429616515 0.06976069709254296 0.993761009050286
vn -0.08702012429616521 -0.06976069709254301 -0.993761009050286
vn 0.957481717566128 -0.28128323424922197 -0.06409760258321026
vn -0.9574817175661282 0.28128323424922097 0.06409760258321037
vn -0.002799135397814623 0.213111754502967 -0.9770238200441647
vn 0.0027991353978151505 -0.2131117545029663 0.9770238200441648
vn 0.2884803725864936 0.9356618631872125 0.20326325887723057
vn -0.2884803725864937 -0.9356618631872119 -0.20326325887723268
vn 0.9579455165477693 -0.2756990113993286 -0.07956407756934317
vn -0.9579455165477693 0.2756990113993287 0.07956407756934347
vn 0.13180308673105337 0.17646028545825604 0.975443342272711
vn -0.13180308673105348 -0.17646028545825604 -0.975443342272711
vn -0.2548888653005343 -0.9449083673930635 0.20537732001460557
vn 0.25488886530053423 0.9449083673930634 -0.20537732001460576
vn 0.957945516547769 -0.2756990113993293 -0.07956407756934264
vn -0.9579455165477695 0.2756990113993277 0.07956407756934308
vn 0.1318030867310536 0.17646028545825596 0.9754433422727111
vn -0.1318030867310534 -0.1764602854582559 -0.9754433422727111
vn -0.25488886530053356 -0.9449083673930634 0.20537732001460732
vn 0.25488886530053506 0.9449083673930627 -0.2053773200146074
vn 0.9579455165477695 -0.2756990113993287 -0.07956407756934265
vn -0.9579455165477693 0.2756990113993287 0.07956407756934278
vn 0.13180308673105368 0.17646028545825637 0.9754433422727109
vn -0.13180308673105334 -0.1764602854582557 -0.9754433422727111
vn -0.2548888653005338 -0.9449083673930629 0.20537732001460812
vn 0.25488886530053384 0.9449083673930629 -0.20537732001460818
vn 0.9579455504865693 -0.2756986864317563 -0.07956479499620378
vn -0.9579455504865694 0.2756986864317562 0.07956479499620384
vn 0.2861258542850696 0.9387411480584389 0.19208605480763968
vn -0.28612585428506976 -0.9387411480584377 -0.1920860548076446
vn 0.02173287400744503 -0.20677352645280486 0.9781474280217926
vn -0.021732874007444863 0.20677352645280492 -0.9781474280217926
vn 0.9961946980917457 0 0.0871557427476584
vn -0.9961946980917457 0 -0.08715574274765818
vn 0 1 0
vn 0 -1 0
vn -0.08715574274765878 0 0.9961946980917455
vn 0.08715574274765908 0 -0.9961946980917455
vn 0.9961946980917455 0 -0.08715574274765808
vn -0.9961946980917457 0 0.08715574274765837
vn 0 1 0
vn 0 -1 0
vn 0.08715574274765886 0 0.9961946980917455
vn -0.08715574274765875 0 -0.9961946980917455
vn 0.8703556959398997 0 -0.4924235601034669
vn -0.8703556959398997 0 0.4924235601034671
vn 0 1 0
vn 0 -1 0
vn 0.4924235601034671 0 0.8703556959398997
vn -0.49242356010346666 0 -0.8703556959399001
vn 0.8703556959398996 0 0.4924235601034674
vn -0.8703556959398999 0 -0.4924235601034671
vn 0 1 0
vn 0 -1 0
vn -0.49242356010346666 0 0.8703556959398999
vn 0.4924235601034662 0 -0.8703556959399001
vn 1 0 5.551115123125783e-17
vn -1 0 -5.551115123125783e-17
vn 0 1 0
vn 0 -1 0
vn -5.551115123125783e-17 0 1
vn 5.551115123125783e-17 0 -1
vn 1 0 5.551115123125783e-17
vn -1 0 2.775557561562892e-17
vn 0 1 0
vn 0 -1 0
vn 1.3877787807814457e-16 0 1
vn -5.551115123125783e-17 0 -1
vn 1 0 5.273559366969494e-16
vn -1 0 -1.6930901125533637e-15
vn 0 1 0
vn 0 -1 0
vn -2.775557561562892e-17 0 1
vn -5.551115123125784e-17 0 -1
vn 1 -2.2551405187698546e-16 7.494005416219807e-16
vn -1 3.4694469519536234e-17 -7.494005416219807e-16
vn 6.93889390390723e-18 0.9781476007338071 0.20791169081775307
vn 0 -0.9781476007338068 -0.20791169081775393
vn 5.551115123125783e-17 -0.2079116908177593 0.9781476007338057
vn -5.551115123125783e-17 0.20791169081775887 -0.9781476007338057
vn 1 -2.2551405187698546e-16 7.494005416219807e-16
vn -1 -6.07153216591884e-17 -7.771561172376096e-16
vn 6.93889390390723e-18 0.9781476007338071 0.20791169081775307
vn -2.081668171172169e-17 -0.9781476007338067 -0.20791169081775487
vn 8.326672684688674e-17 -0.20791169081775973 0.9781476007338056
vn -5.551115123125783e-17 0.20791169081775887 -0.9781476007338057
vn 1 0 5.273559366969494e-16
vn -1 0 -1.6930901125533637e-15
vn 0 1 0
vn 0 -1 0
vn -2.775557561562892e-17 0 1
vn -5.551115123125784e-17 0 -1
vn 1 0 -3.608224830031759e-15
vn -1 0 1.6098233857064774e-15
vn 0 1 0
vn 0 -1 0
vn 8.326672684688674e-17 0 1
vn 5.551115123125783e-17 0 -1
vn 1 0 -8.604228440844963e-16
vn -1 0 8.604228440844963e-16
vn 0 1 0
vn 0 -1 0
vn -2.7755575615628914e-17 0 1
vn 2.7755575615628914e-17 0 -1
vn 1 0 -1.5265566588595902e-15
vn -1 0 8.326672684688674e-16
vn 0 1 0
vn 0 -1 0
vn -2.7755575615628914e-17 0 1
vn -2.7755575615628914e-17 0 -1
vn 1 0 1.6930901125533637e-15
vn -1 0 4.718447854656916e-16
vn 0 1 0
vn 0 -1 0
vn 0 0 1
vn 0 0 -1
vn 1 -2.0057740190981906e-17 3.219646771412954e-15
vn -1 -1.6046192152785515e-16 -1.0269562977782698e-15
vn 3.469446951953614e-18 0.9975640502598231 -0.06975647374414284
vn -3.469446951953614e-18 -0.9975640502598231 0.06975647374414248
vn -2.775557561562892e-17 0.0697564737441258 0.9975640502598243
vn 0 -0.06975647374412532 -0.9975640502598244
vn 1 1.0950441942103651e-16 -1.1657341758564144e-15
vn -1 2.0816681711721863e-16 1.1102230246251565e-15
vn 0 0.9975640502598255 -0.0697564737441074
vn -3.469446951953614e-18 -0.9975640502598231 0.06975647374414248
vn -5.551115123125783e-17 0.06975647374412604 0.9975640502598242
vn -2.775557561562892e-17 -0.06975647374412532 -0.9975640502598244
vn 0.3907342158783739 0.00022903773876707374 -0.9205035144330665
vn -0.39073421587837376 -0.00022903773876710792 0.9205035144330665
vn -0.040241988143666654 0.9990481583797147 -0.016833289290733695
vn 0.040241988143665745 -0.9990481583797147 0.01683328929073244
vn 0.919623485417895 0.04362023360568694 0.39037151572319917
vn -0.9196234854178948 -0.04362023360568694 -0.3903715157231995
vn 0.9999619223754233 0.00022879595471370735 -0.008723614598269341
vn -0.9999619223754233 -0.00022879595471390736 0.008723614598269147
vn -0.0007609347250635955 0.9981347002035023 -0.061045403004723414
vn 0.0007609347250620952 -0.9981347002035023 0.06104540300472341
vn 0.008693375500473277 0.06104971664206248 0.9980968677038976
vn -0.0086933755004725 -0.06104971664206252 -0.9980968677038976
vn 0.9999619230641713 0.00022843406864778317 -0.008723545132608618
vn -0.9999619230641714 -0.00022843406864774015 0.008723545132609091
vn 9.957312752106873e-16 0.9996573249755573 0.026176948307874273
vn -1.6046192152785468e-16 -0.9996573249755575 -0.026176948307873014
vn 0.008726535498373766 -0.02617595156989219 0.9996192610877436
vn -0.008726535498374238 0.02617595156989238 -0.9996192610877436
vn 0.9876882506389437 0.15643503299985173 3.442698064681782e-7
vn -0.9876882506389438 -0.15643503299985154 -3.442698063849115e-7
vn -0.1563814386869581 0.9873498131176452 0.026176175632588332
vn 0.15638143868695809 -0.9873498131176452 -0.026176175632588297
vn 0.004094530984164735 -0.025853954956376837 0.9996573452084137
vn -0.004094530984164901 0.025853954956376494 -0.9996573452084137
vn 0.9999619223754233 0.00022879595471341868 -0.00872361459826898
vn -0.9999619223754233 -0.00022879595471348075 0.008723614598269314
vn -0.0007609347250636302 0.9981347002035021 -0.061045403004723386
vn 0.000760934725060676 -0.9981347002035021 0.061045403004723386
vn 0.008693375500472722 0.06104971664206215 0.9980968677038976
vn -0.008693375500473166 -0.06104971664206216 -0.9980968677038977
vn 0.9999619230641714 0.00022843406864778468 -0.008723545132608701
vn -0.9999619230641713 -0.00022843406864775056 0.008723545132608479
vn 9.419548474554063e-16 0.9996573249755574 0.026176948307871754
vn 6.340414304695231e-16 -0.9996573249755575 -0.026176948307873062
vn 0.00872653549837399 -0.02617595156989242 0.9996192610877436
vn -0.008726535498373158 0.026175951569892175 -0.9996192610877437
vn 0.9876882506389437 0.156435032999852 3.4426980632940035e-7
vn -0.9876882506389438 -0.15643503299985145 -3.4426980624613357e-7
vn -0.15638143868695814 0.9873498131176452 0.026176175632588415
vn 0.1563814386869581 -0.9873498131176454 -0.026176175632588346
vn 0.0040945309841645405 -0.025853954956377014 0.9996573452084137
vn -0.0040945309841644295 0.025853954956376473 -0.9996573452084137
vn 0.9876882506389438 0.15643503299985143 3.4426980602408896e-7
vn -0.9876882506389438 -0.15643503299985081 -3.4426980613511127e-7
vn -0.15638143868695809 0.9873498131176454 0.026176175632588422
vn 0.156381438686958 -0.9873498131176452 -0.026176175632588325
vn 0.004094530984165152 -0.025853954956376768 0.9996573452084138
vn -0.004094530984164847 0.02585395495637658 -0.9996573452084138
vn 0.9999619230641713 0.00022843406864778314 -0.008723545132608618
vn -0.9999619230641713 -0.00022843406864779135 0.008723545132608923
vn -6.305719835175694e-16 0.9996573249755573 0.026176948307874294
vn -1.6653345369377353e-16 -0.9996573249755575 -0.02617694830787302
vn 0.00872653549837388 -0.02617595156989217 0.9996192610877436
vn -0.00872653549837385 0.026175951569892164 -0.9996192610877435
vn 0.9999619223754233 0.00022879595471385824 -0.008723614598269314
vn -0.9999619223754233 -0.00022879595471380325 0.008723614598269008
vn -0.000760934725060645 0.9981347002035023 -0.06104540300472344
vn 0.0007609347250621074 -0.9981347002035023 0.0610454030047234
vn 0.00869337550047275 0.0610497166420623 0.9980968677038976
vn -0.008693375500472833 -0.061049716642061956 -0.9980968677038977
vn 0.9999619257335592 0.00022776771696430106 -0.008723256565004694
vn -0.9999619257335592 -0.00022776771696417274 0.008723256565004722
vn 0.0011396571017512555 0.9876884225415908 0.15642979626335365
vn -0.001139657101751311 -0.9876884225415905 -0.15642979626335612
vn 0.008651489173674922 -0.15643378183490758 0.9876505574523343
vn -0.00865148917367481 0.15643378183490758 -0.9876505574523343
usemtl m_9afb8d74-12e2-1177-f220-742ed60e0034
f 2/1/1 1/2/1 3/3/1 4/4/1
f 7/5/2 5/6/2 6/7/2 8/8/2
f 5/9/3 1/10/3 2/11/3 6/12/3
f 4/13/4 3/14/4 7/15/4 8/16/4
f 3/17/5 1/18/5 5/19/5 7/20/5
f 6/21/6 2/22/6 4/23/6 8/24/6
f 10/25/7 9/26/7 11/27/7 12/28/7
f 15/29/8 13/30/8 14/31/8 16/32/8
f 13/33/9 9/34/9 10/35/9 14/36/9
f 12/37/10 11/38/10 15/39/10 16/40/10
f 11/41/11 9/42/11 13/43/11 15/44/11
f 14/45/12 10/46/12 12/47/12 16/48/12
f 18/49/13 17/50/13 19/51/13 20/52/13
f 23/53/14 21/54/14 22/55/14 24/56/14
f 21/57/15 17/58/15 18/59/15 22/60/15
f 20/61/16 19/62/16 23/63/16 24/64/16
f 19/65/17 17/66/17 21/67/17 23/68/17
f 22/69/18 18/70/18 20/71/18 24/72/18
f 26/73/19 25/74/19 27/75/19 28/76/19
f 31/77/20 29/78/20 30/79/20 32/80/20
f 29/81/21 25/82/21 26/83/21 30/84/21
f 28/85/22 27/86/22 31/87/22 32/88/22
f 27/89/23 25/90/23 29/91/23 31/92/23
f 30/93/24 26/94/24 28/95/24 32/96/24
f 34/97/25 33/98/25 35/99/25 36/100/25
f 39/101/26 37/102/26 38/103/26 40/104/26
f 37/105/27 33/106/27 34/107/27 38/108/27
f 36/109/28 35/110/28 39/111/28 40/112/28
f 35/113/29 33/114/29 37/115/29 39/116/29
f 38/117/30 34/118/30 36/119/30 40/120/30
f 42/121/31 41/122/31 43/123/31 44/124/31
f 47/125/32 45/126/32 46/127/32 48/128/32
f 45/129/33 41/130/33 42/131/33 46/132/33
f 44/133/34 43/134/34 47/135/34 48/136/34
f 43/137/35 41/138/35 45/139/35 47/140/35
f 46/141/36 42/142/36 44/143/36 48/144/36
f 50/145/37 49/146/37 51/147/37 52/148/37
f 55/149/38 53/150/38 54/151/38 56/152/38
f 53/153/39 49/154/39 50/155/39 54/156/39
f 52/157/40 51/158/40 55/159/40 56/160/40
f 51/161/41 49/162/41 53/163/41 55/164/41
f 54/165/42 50/166/42 52/167/42 56/168/42
f 58/169/43 57/170/43 59/171/43 60/172/43
f 63/173/44 61/174/44 62/175/44 64/176/44
f 61/177/45 57/178/45 58/179/45 62/180/45
f 60/181/46 59/182/46 63/183/46 64/184/46
f 59/185/47 57/186/47 61/187/47 63/188/47
f 62/189/48 58/190/48 60/191/48 64/192/48
f 66/193/49 65/194/49 67/195/49 68/196/49
f 71/197/50 69/198/50 70/199/50 72/200/50
f 69/201/51 65/202/51 66/203/51 70/204/51
f 68/205/52 67/206/52 71/207/52 72/208/52
f 67/209/53 65/210/53 69/211/53 71/212/53
f 70/213/54 66/214/54 68/215/54 72/216/54
f 74/217/55 73/218/55 75/219/55 76/220/55
f 79/221/56 77/222/56 78/223/56 80/224/56
f 77/225/57 73/226/57 74/227/57 78/228/57
f 76/229/58 75/230/58 79/231/58 80/232/58
f 75/233/59 73/234/59 77/235/59 79/236/59
f 78/237/60 74/238/60 76/239/60 80/240/60
f 82/241/61 81/242/61 83/243/61 84/244/61
f 87/245/62 85/246/62 86/247/62 88/248/62
f 85/249/63 81/250/63 82/251/63 86/252/63
f 84/253/64 83/254/64 87/255/64 88/256/64
f 83/257/65 81/258/65 85/259/65 87/260/65
f 86/261/66 82/262/66 84/263/66 88/264/66
f 90/265/67 89/266/67 91/267/67 92/268/67
f 95/269/68 93/270/68 94/271/68 96/272/68
f 93/273/69 89/274/69 90/275/69 94/276/69
f 92/277/70 91/278/70 95/279/70 96/280/70
f 91/281/71 89/282/71 93/283/71 95/284/71
f 94/285/72 90/286/72 92/287/72 96/288/72
f 100/289/73 98/290/73 97/291/73 99/292/73
f 103/293/74 101/294/74 102/295/74 104/296/74
f 97/297/75 98/298/75 102/299/75 101/300/75
f 100/301/76 99/302/76 103/303/76 104/304/76
f 99/305/77 97/306/77 101/307/77 103/308/77
f 104/309/78 102/310/78 98/311/78 100/312/78
f 108/313/79 106/314/79 105/315/79 107/316/79
f 111/317/80 109/318/80 110/319/80 112/320/80
f 105/321/81 106/322/81 110/323/81 109/324/81
f 108/325/82 107/326/82 111/327/82 112/328/82
f 107/329/83 105/330/83 109/331/83 111/332/83
f 112/333/84 110/334/84 106/335/84 108/336/84
f 116/337/85 114/338/85 113/339/85 115/340/85
f 119/341/86 117/342/86 118/343/86 120/344/86
f 113/345/87 114/346/87 118/347/87 117/348/87
f 116/349/88 115/350/88 119/351/88 120/352/88
f 115/353/89 113/354/89 117/355/89 119/356/89
f 120/357/90 118/358/90 114/359/90 116/360/90
f 124/361/91 122/362/91 121/363/91 123/364/91
f 127/365/92 125/366/92 126/367/92 128/368/92
f 121/369/93 122/370/93 126/371/93 125/372/93
f 124/373/94 123/374/94 127/375/94 128/376/94
f 123/377/95 121/378/95 125/379/95 127/380/95
f 128/381/96 126/382/96 122/383/96 124/384/96
f 132/385/97 130/386/97 129/387/97 131/388/97
f 135/389/98 133/390/98 134/391/98 136/392/98
f 129/393/99 130/394/99 134/395/99 133/396/99
f 132/397/100 131/398/100 135/399/100 136/400/100
f 131/401/101 129/402/101 133/403/101 135/404/101
f 136/405/102 134/406/102 130/407/102 132/408/102
f 140/409/103 138/410/103 137/411/103 139/412/103
f 143/413/104 141/414/104 142/415/104 144/416/104
f 137/417/105 138/418/105 142/419/105 141/420/105
f 140/421/106 139/422/106 143/423/106 144/424/106
f 139/425/107 137/426/107 141/427/107 143/428/107
f 144/429/108 142/430/108 138/431/108 140/432/108
f 148/433/109 146/434/109 145/435/109 147/436/109
f 151/437/110 149/438/110 150/439/110 152/440/110
f 145/441/111 146/442/111 150/443/111 149/444/111
f 148/445/112 147/446/112 151/447/112 152/448/112
f 147/449/113 145/450/113 149/451/113 151/452/113
f 152/453/114 150/454/114 146/455/114 148/456/114
f 156/457/115 154/458/115 153/459/115 155/460/115
f 159/461/116 157/462/116 158/463/116 160/464/116
f 153/465/117 154/466/117 158/467/117 157/468/117
f 156/469/118 155/470/118 159/471/118 160/472/118
f 155/473/119 153/474/119 157/475/119 159/476/119
f 160/477/120 158/478/120 154/479/120 156/480/120
f 164/481/121 162/482/121 161/483/121 163/484/121
f 167/485/122 165/486/122 166/487/122 168/488/122
f 161/489/123 162/490/123 166/491/123 165/492/123
f 164/493/124 163/494/124 167/495/124 168/496/124
f 163/497/125 161/498/125 165/499/125 167/500/125
f 168/501/126 166/502/126 162/503/126 164/504/126
f 172/505/127 170/506/127 169/507/127 171/508/127
f 175/509/128 173/510/128 174/511/128 176/512/128
f 169/513/129 170/514/129 174/515/129 173/516/129
f 172/517/130 171/518/130 175/519/130 176/520/130
f 171/521/131 169/522/131 173/523/131 175/524/131
f 176/525/132 174/526/132 170/527/132 172/528/132
f 180/529/133 178/530/133 177/531/133 179/532/133
f 183/533/134 181/534/134 182/535/134 184/536/134
f 177/537/135 178/538/135 182/539/135 181/540/135
f 180/541/136 179/542/136 183/543/136 184/544/136
f 179/545/137 177/546/137 181/547/137 183/548/137
f 184/549/138 182/550/138 178/551/138 180/552/138
f 188/553/139 186/554/139 185/555/139 187/556/139
f 191/557/140 189/558/140 190/559/140 192/560/140
f 185/561/141 186/562/141 190/563/141 189/564/141
f 188/565/142 187/566/142 191/567/142 192/568/142
f 187/569/143 185/570/143 189/571/143 191/572/143
f 192/573/144 190/574/144 186/575/144 188/576/144
f 196/577/145 194/578/145 193/579/145 195/580/145
f 199/581/146 197/582/146 198/583/146 200/584/146
f 193/585/147 194/586/147 198/587/147 197/588/147
f 196/589/148 195/590/148 199/591/148 200/592/148
f 195/593/149 193/594/149 197/595/149 199/596/149
f 200/597/150 198/598/150 194/599/150 196/600/150
f 204/601/151 202/602/151 201/603/151 203/604/151
f 207/605/152 205/606/152 206/607/152 208/608/152
f 201/609/153 202/610/153 206/611/153 205/612/153
f 204/613/154 203/614/154 207/615/154 208/616/154
f 203/617/155 201/618/155 205/619/155 207/620/155
f 208/621/156 206/622/156 202/623/156 204/624/156
f 212/625/157 210/626/157 209/627/157 211/628/157
f 215/629/158 213/630/158 214/631/158 216/632/158
f 209/633/159 210/634/159 214/635/159 213/636/159
f 212/637/160 211/638/160 215/639/160 216/640/160
f 211/641/161 209/642/161 213/643/161 215/644/161
f 216/645/162 214/646/162 210/647/162 212/648/162
f 220/649/163 218/650/163 217/651/163 219/652/163
f 223/653/164 221/654/164 222/655/164 224/656/164
f 217/657/165 218/658/165 222/659/165 221/660/165
f 220/661/166 219/662/166 223/663/166 224/664/166
f 219/665/167 217/666/167 221/667/167 223/668/167
f 224/669/168 222/670/168 218/671/168 220/672/168
f 228/673/169 226/674/169 225/675/169 227/676/169
f 231/677/170 229/678/170 230/679/170 232/680/170
f 225/681/171 226/682/171 230/683/171 229/684/171
f 228/685/172 227/686/172 231/687/172 232/688/172
f 227/689/173 225/690/173 229/691/173 231/692/173
f 232/693/174 230/694/174 226/695/174 228/696/174
f 236/697/175 234/698/175 233/699/175 235/700/175
f 239/701/176 237/702/176 238/703/176 240/704/176
f 233/705/177 234/706/177 238/707/177 237/708/177
f 236/709/178 235/710/178 239/711/178 240/712/178
f 235/713/179 233/714/179 237/715/179 239/716/179
f 240/717/180 238/718/180 234/719/180 236/720/180
f 244/721/181 242/722/181 241/723/181 243/724/181
f 247/725/182 245/726/182 246/727/182 248/728/182
f 241/729/183 242/730/183 246/731/183 245/732/183
f 244/733/184 243/734/184 247/735/184 248/736/184
f 243/737/185 241/738/185 245/739/185 247/740/185
f 248/741/186 246/742/186 242/743/186 244/744/186
f 252/745/187 250/746/187 249/747/187 251/748/187
f 255/749/188 253/750/188 254/751/188 256/752/188
f 249/753/189 250/754/189 254/755/189 253/756/189
f 252/757/190 251/758/190 255/759/190 256/760/190
f 251/761/191 249/762/191 253/763/191 255/764/191
f 256/765/192 254/766/192 250/767/192 252/768/192
f 260/769/193 258/770/193 257/771/193 259/772/193
f 263/773/194 261/774/194 262/775/194 264/776/194
f 257/777/195 258/778/195 262/779/195 261/780/195
f 260/781/196 259/782/196 263/783/196 264/784/196
f 259/785/197 257/786/197 261/787/197 263/788/197
f 264/789/198 262/790/198 258/791/198 260/792/198
f 268/793/199 266/794/199 265/795/199 267/796/199
f 271/797/200 269/798/200 270/799/200 272/800/200
f 265/801/201 266/802/201 270/803/201 269/804/201
f 268/805/202 267/806/202 271/807/202 272/808/202
f 267/809/203 265/810/203 269/811/203 271/812/203
f 272/813/204 270/814/204 266/815/204 268/816/204
f 276/817/205 274/818/205 273/819/205 275/820/205
f 279/821/206 277/822/206 278/823/206 280/824/206
f 273/825/207 274/826/207 278/827/207 277/828/207
f 276/829/208 275/830/208 279/831/208 280/832/208
f 275/833/209 273/834/209 277/835/209 279/836/209
f 280/837/210 278/838/210 274/839/210 276/840/210
f 284/841/211 282/842/211 281/843/211 283/844/211
f 287/845/212 285/846/212 286/847/212 288/848/212
f 281/849/213 282/850/213 286/851/213 285/852/213
f 284/853/214 283/854/214 287/855/214 288/856/214
f 283/857/215 281/858/215 285/859/215 287/860/215
f 288/861/216 286/862/216 282/863/216 284/864/216
f 292/865/217 290/866/217 289/867/217 291/868/217
f 295/869/218 293/870/218 294/871/218 296/872/218
f 289/873/219 290/874/219 294/875/219 293/876/219
f 292/877/220 291/878/220 295/879/220 296/880/220
f 291/881/221 289/882/221 293/883/221 295/884/221
f 296/885/222 294/886/222 290/887/222 292/888/222
f 300/889/223 298/890/223 297/891/223 299/892/223
f 303/893/224 301/894/224 302/895/224 304/896/224
f 297/897/225 298/898/225 302/899/225 301/900/225
f 300/901/226 299/902/226 303/903/226 304/904/226
f 299/905/227 297/906/227 301/907/227 303/908/227
f 304/909/228 302/910/228 298/911/228 300/912/228
f 308/913/229 306/914/229 305/915/229 307/916/229
f 311/917/230 309/918/230 310/919/230 312/920/230
f 305/921/231 306/922/231 310/923/231 309/924/231
f 308/925/232 307/926/232 311/927/232 312/928/232
f 307/929/233 305/930/233 309/931/233 311/932/233
f 312/933/234 310/934/234 306/935/234 308/936/234
f 316/937/235 314/938/235 313/939/235 315/940/235
f 319/941/236 317/942/236 318/943/236 320/944/236
f 313/945/237 314/946/237 318/947/237 317/948/237
f 316/949/238 315/950/238 319/951/238 320/952/238
f 315/953/239 313/954/239 317/955/239 319/956/239
f 320/957/240 318/958/240 314/959/240 316/960/240
f 324/961/241 322/962/241 321/963/241 323/964/241
f 327/965/242 325/966/242 326/967/242 328/968/242
f 321/969/243 322/970/243 326/971/243 325/972/243
f 324/973/244 323/974/244 327/975/244 328/976/244
f 323/977/245 321/978/245 325/979/245 327/980/245
f 328/981/246 326/982/246 322/983/246 324/984/246
f 332/985/247 330/986/247 329/987/247 331/988/247
f 335/989/248 333/990/248 334/991/248 336/992/248
f 329/993/249 330/994/249 334/995/249 333/996/249
f 332/997/250 331/998/250 335/999/250 336/1000/250
f 331/1001/251 329/1002/251 333/1003/251 335/1004/251
f 336/1005/252 334/1006/252 330/1007/252 332/1008/252
f 340/1009/253 338/1010/253 337/1011/253 339/1012/253
f 343/1013/254 341/1014/254 342/1015/254 344/1016/254
f 337/1017/255 338/1018/255 342/1019/255 341/1020/255
f 340/1021/256 339/1022/256 343/1023/256 344/1024/256
f 339/1025/257 337/1026/257 341/1027/257 343/1028/257
f 344/1029/258 342/1030/258 338/1031/258 340/1032/258
f 348/1033/259 346/1034/259 345/1035/259 347/1036/259
f 351/1037/260 349/1038/260 350/1039/260 352/1040/260
f 345/1041/261 346/1042/261 350/1043/261 349/1044/261
f 348/1045/262 347/1046/262 351/1047/262 352/1048/262
f 347/1049/263 345/1050/263 349/1051/263 351/1052/263
f 352/1053/264 350/1054/264 346/1055/264 348/1056/264
f 356/1057/265 354/1058/265 353/1059/265 355/1060/265
f 359/1061/266 357/1062/266 358/1063/266 360/1064/266
f 353/1065/267 354/1066/267 358/1067/267 357/1068/267
f 356/1069/268 355/1070/268 359/1071/268 360/1072/268
f 355/1073/269 353/1074/269 357/1075/269 359/1076/269
f 360/1077/270 358/1078/270 354/1079/270 356/1080/270
f 364/1081/271 362/1082/271 361/1083/271 363/1084/271
f 367/1085/272 365/1086/272 366/1087/272 368/1088/272
f 361/1089/273 362/1090/273 366/1091/273 365/1092/273
f 364/1093/274 363/1094/274 367/1095/274 368/1096/274
f 363/1097/275 361/1098/275 365/1099/275 367/1100/275
f 368/1101/276 366/1102/276 362/1103/276 364/1104/276
f 372/1105/277 370/1106/277 369/1107/277 371/1108/277
f 375/1109/278 373/1110/278 374/1111/278 376/1112/278
f 369/1113/279 370/1114/279 374/1115/279 373/1116/279
f 372/1117/280 371/1118/280 375/1119/280 376/1120/280
f 371/1121/281 369/1122/281 373/1123/281 375/1124/281
f 376/1125/282 374/1126/282 370/1127/282 372/1128/282
f 380/1129/283 378/1130/283 377/1131/283 379/1132/283
f 383/1133/284 381/1134/284 382/1135/284 384/1136/284
f 377/1137/285 378/1138/285 382/1139/285 381/1140/285
f 380/1141/286 379/1142/286 383/1143/286 384/1144/286
f 379/1145/287 377/1146/287 381/1147/287 383/1148/287
f 384/1149/288 382/1150/288 378/1151/288 380/1152/288
f 388/1153/289 386/1154/289 385/1155/289 387/1156/289
f 391/1157/290 389/1158/290 390/1159/290 392/1160/290
f 385/1161/291 386/1162/291 390/1163/291 389/1164/291
f 388/1165/292 387/1166/292 391/1167/292 392/1168/292
f 387/1169/293 385/1170/293 389/1171/293 391/1172/293
f 392/1173/294 390/1174/294 386/1175/294 388/1176/294
f 396/1177/295 394/1178/295 393/1179/295 395/1180/295
f 399/1181/296 397/1182/296 398/1183/296 400/1184/296
f 393/1185/297 394/1186/297 398/1187/297 397/1188/297
f 396/1189/298 395/1190/298 399/1191/298 400/1192/298
f 395/1193/299 393/1194/299 397/1195/299 399/1196/299
f 400/1197/300 398/1198/300 394/1199/300 396/1200/300
f 404/1201/301 402/1202/301 401/1203/301 403/1204/301
f 407/1205/302 405/1206/302 406/1207/302 408/1208/302
f 401/1209/303 402/1210/303 406/1211/303 405/1212/303
f 404/1213/304 403/1214/304 407/1215/304 408/1216/304
f 403/1217/305 401/1218/305 405/1219/305 407/1220/305
f 408/1221/306 406/1222/306 402/1223/306 404/1224/306
f 412/1225/307 410/1226/307 409/1227/307 411/1228/307
f 415/1229/308 413/1230/308 414/1231/308 416/1232/308
f 409/1233/309 410/1234/309 414/1235/309 413/1236/309
f 412/1237/310 411/1238/310 415/1239/310 416/1240/310
f 411/1241/311 409/1242/311 413/1243/311 415/1244/311
f 416/1245/312 414/1246/312 410/1247/312 412/1248/312
f 420/1249/313 418/1250/313 417/1251/313 419/1252/313
f 423/1253/314 421/1254/314 422/1255/314 424/1256/314
f 417/1257/315 418/1258/315 422/1259/315 421/1260/315
f 420/1261/316 419/1262/316 423/1263/316 424/1264/316
f 419/1265/317 417/1266/317 421/1267/317 423/1268/317
f 424/1269/318 422/1270/318 418/1271/318 420/1272/318
f 428/1273/319 426/1274/319 425/1275/319 427/1276/319
f 431/1277/320 429/1278/320 430/1279/320 432/1280/320
f 425/1281/321 426/1282/321 430/1283/321 429/1284/321
f 428/1285/322 427/1286/322 431/1287/322 432/1288/322
f 427/1289/323 425/1290/323 429/1291/323 431/1292/323
f 432/1293/324 430/1294/324 426/1295/324 428/1296/324
f 436/1297/325 434/1298/325 433/1299/325 435/1300/325
f 439/1301/326 437/1302/326 438/1303/326 440/1304/326
f 433/1305/327 434/1306/327 438/1307/327 437/1308/327
f 436/1309/328 435/1310/328 439/1311/328 440/1312/328
f 435/1313/329 433/1314/329 437/1315/329 439/1316/329
f 440/1317/330 438/1318/330 434/1319/330 436/1320/330
f 444/1321/331 442/1322/331 441/1323/331 443/1324/331
f 447/1325/332 445/1326/332 446/1327/332 448/1328/332
f 441/1329/333 442/1330/333 446/1331/333 445/1332/333
f 444/1333/334 443/1334/334 447/1335/334 448/1336/334
f 443/1337/335 441/1338/335 445/1339/335 447/1340/335
f 448/1341/336 446/1342/336 442/1343/336 444/1344/336
f 452/1345/337 450/1346/337 449/1347/337 451/1348/337
f 455/1349/338 453/1350/338 454/1351/338 456/1352/338
f 449/1353/339 450/1354/339 454/1355/339 453/1356/339
f 452/1357/340 451/1358/340 455/1359/340 456/1360/340
f 451/1361/341 449/1362/341 453/1363/341 455/1364/341
f 456/1365/342 454/1366/342 450/1367/342 452/1368/342
f 460/1369/343 458/1370/343 457/1371/343 459/1372/343
f 463/1373/344 461/1374/344 462/1375/344 464/1376/344
f 457/1377/345 458/1378/345 462/1379/345 461/1380/345
f 460/1381/346 459/1382/346 463/1383/346 464/1384/346
f 459/1385/347 457/1386/347 461/1387/347 463/1388/347
f 464/1389/348 462/1390/348 458/1391/348 460/1392/348
f 468/1393/349 466/1394/349 465/1395/349 467/1396/349
f 471/1397/350 469/1398/350 470/1399/350 472/1400/350
f 465/1401/351 466/1402/351 470/1403/351 469/1404/351
f 468/1405/352 467/1406/352 471/1407/352 472/1408/352
f 467/1409/353 465/1410/353 469/1411/353 471/1412/353
f 472/1413/354 470/1414/354 466/1415/354 468/1416/354
