# Made in Blockbench 5.2.1
mtllib guard.mtl

o guard
v -0.15 1.25 -0.34375
v -0.1375 1.25 -0.33125
v -0.1375 1.25 -0.34375
v -0.1375 1.125 -0.33125
v -0.1375 1.125 -0.34375
v -0.15 1.125 -0.33125
v -0.15 1.125 -0.34375
v -0.15 1.25 -0.33125
v 0.130503 1.154639 -0.27824
v 0.216933 1.284374 -0.267628
v 0.223427 1.159545 -0.26683
v 0.209317 1.284374 -0.205593
v 0.21581 1.159545 -0.204796
v 0.122886 1.154639 -0.216206
v 0.116393 1.279468 -0.217003
v 0.12401 1.279468 -0.279037
v -0.335377 0.81875 -0.178006
v -0.277805 1.00625 -0.281867
v -0.277805 0.81875 -0.281867
v -0.190343 1.00625 -0.233386
v -0.190343 0.81875 -0.233386
v -0.247915 1.00625 -0.129525
v -0.247915 0.81875 -0.129525
v -0.335377 1.00625 -0.178006
v 0.277805 0.81875 -0.281867
v 0.335377 1.00625 -0.178006
v 0.335377 0.81875 -0.178006
v 0.247915 1.00625 -0.129525
v 0.247915 0.81875 -0.129525
v 0.190343 1.00625 -0.233386
v 0.190343 0.81875 -0.233386
v 0.277805 1.00625 -0.281867
v 0.104603 1.24905 -0.2875
v 0.082897 1.12595 -0.2875
v 0.104603 1.24905 -0.2875
v 0.104603 1.24905 -0.19375
v 0.104603 1.24905 -0.19375
v 0.082897 1.12595 -0.19375
v 0.082897 1.12595 -0.19375
v 0.082897 1.12595 -0.2875
v -0.297926 1.023493 -0.28703
v -0.344958 1.029682 -0.171212
v -0.297122 1.029682 -0.286697
v -0.182761 1.012286 -0.239327
v -0.183565 1.006096 -0.23966
v -0.2314 1.006096 -0.124175
v -0.230597 1.012286 -0.123842
v -0.345761 1.023493 -0.171545
v -0.346434 1.025032 -0.16976
v -0.292881 1.024162 -0.282876
v -0.298599 1.025032 -0.285244
v -0.308953 0.900379 -0.289533
v -0.314671 0.901248 -0.291902
v -0.356789 0.900379 -0.174048
v -0.362507 0.901248 -0.176417
v -0.340716 1.024162 -0.167391
v -0.1875 1.127308 -0.33865
v 0.0625 1.251092 -0.321253
v 0.0625 1.127308 -0.33865
v 0.0625 1.233695 -0.19747
v 0.0625 1.109912 -0.214866
v -0.1875 1.233695 -0.19747
v -0.1875 1.109912 -0.214866
v -0.1875 1.251092 -0.321253
v -0.1375 1.2875 -0.21875
v 0 1.434222 -0.187563
v 0 1.2875 -0.21875
v 0 1.2875 -0.21875
v 0 1.434222 -0.187563
v -0.1375 1.434222 -0.187563
v -0.1375 1.2875 -0.21875
v -0.1375 1.434222 -0.187563
v -0.25 0.75 -0.225
v 0.25 1.25 -0.225
v 0.25 0.75 -0.225
v 0.25 1.25 -0.1
v 0.25 0.75 -0.1
v -0.25 1.25 -0.1
v -0.25 0.75 -0.1
v -0.25 1.25 -0.225
v -0.197608 1.125903 -0.224309
v -0.185083 1.576234 -0.128834
v -0.059903 1.165534 -0.212871
v -0.186577 1.562018 -0.061586
v -0.061397 1.151319 -0.145624
v -0.199102 1.111687 -0.157061
v -0.324282 1.522386 -0.073024
v -0.322788 1.536602 -0.140271
v -0.185219 1.574941 -0.122721
v -0.347637 1.568396 0.048738
v -0.209932 1.608028 0.060175
v -0.194001 1.548971 0.073011
v -0.169288 1.515885 -0.109885
v -0.331706 1.509339 0.061574
v -0.306993 1.476253 -0.121322
v -0.322924 1.53531 -0.134158
v -0.329924 1.487518 0.139166
v -0.191989 1.550596 0.044571
v -0.192286 1.527953 0.14838
v -0.210019 1.609075 0.057275
v -0.210316 1.586431 0.161084
v -0.347657 1.56864 0.048061
v -0.347954 1.545997 0.15187
v -0.329627 1.510161 0.035357
v -0.25828 1.248529 0.117712
v -0.204878 1.582071 0.098974
v -0.120642 1.288964 0.126926
v -0.12608 1.293324 0.189036
v -0.210316 1.586431 0.161084
v -0.347954 1.545997 0.15187
v -0.263718 1.25289 0.179822
v -0.342516 1.541637 0.08976
v -0.265625 0.75 0.10625
v 0.265625 1.4375 0.10625
v 0.265625 0.75 0.10625
v 0.265625 1.4375 0.2
v 0.265625 0.75 0.2
v -0.265625 1.4375 0.2
v -0.265625 0.75 0.2
v -0.265625 1.4375 0.10625
v -0.328856 1.537287 -0.148132
v -0.189886 1.594702 -0.056445
v -0.179177 1.580364 -0.1357
v -0.161654 1.515402 -0.12158
v -0.172363 1.529739 -0.042326
v -0.311333 1.472324 -0.134012
v -0.322042 1.486661 -0.054758
v -0.339565 1.551624 -0.068877
v -0.345332 1.559344 -0.026202
v -0.206362 1.616759 0.065485
v -0.195653 1.602422 -0.01377
v -0.178129 1.537459 0.00035
v -0.188838 1.551797 0.079605
v -0.338517 1.508719 0.067173
v -0.327808 1.494382 -0.012082
v -0.356041 1.573681 0.053053
v -0.3125 0.8125 -0.1625
v -0.25 1.0625 -0.1625
v -0.25 0.8125 -0.1625
v -0.25 1.0625 0.15
v -0.25 0.8125 0.15
v -0.3125 1.0625 0.15
v -0.3125 0.8125 0.15
v -0.3125 1.0625 -0.1625
v 0.25 0.8125 -0.1625
v 0.3125 1.0625 -0.1625
v 0.3125 0.8125 -0.1625
v 0.3125 1.0625 0.15
v 0.3125 0.8125 0.15
v 0.25 1.0625 0.15
v 0.25 0.8125 0.15
v 0.25 1.0625 -0.1625
v 0.059903 1.165534 -0.212871
v 0.322788 1.536602 -0.140271
v 0.197608 1.125903 -0.224309
v 0.199102 1.111687 -0.157061
v 0.324282 1.522386 -0.073024
v 0.186577 1.562018 -0.061586
v 0.061397 1.151319 -0.145624
v 0.185083 1.576234 -0.128834
v 0.179177 1.580364 -0.1357
v 0.339565 1.551624 -0.068877
v 0.328856 1.537287 -0.148132
v 0.322042 1.486661 -0.054758
v 0.311333 1.472324 -0.134012
v 0.172363 1.529739 -0.042326
v 0.161654 1.515402 -0.12158
v 0.189886 1.594702 -0.056445
v 0.185219 1.574941 -0.122721
v 0.347637 1.568396 0.048738
v 0.322924 1.53531 -0.134158
v 0.331706 1.509339 0.061574
v 0.306993 1.476253 -0.121322
v 0.194001 1.548971 0.073011
v 0.169288 1.515885 -0.109885
v 0.209932 1.608028 0.060175
v 0.345332 1.559344 -0.026202
v 0.206362 1.616759 0.065485
v 0.356041 1.573681 0.053053
v 0.338517 1.508719 0.067173
v 0.327808 1.494382 -0.012082
v 0.188838 1.551797 0.079605
v 0.178129 1.537459 0.00035
v 0.195653 1.602422 -0.01377
v 0.329924 1.487518 0.139166
v 0.191989 1.550596 0.044571
v 0.329627 1.510161 0.035357
v 0.347954 1.545997 0.15187
v 0.347657 1.56864 0.048061
v 0.210316 1.586431 0.161084
v 0.210019 1.609075 0.057275
v 0.192286 1.527953 0.14838
v 0.120642 1.288964 0.126926
v 0.342516 1.541637 0.08976
v 0.25828 1.248529 0.117712
v 0.347954 1.545997 0.15187
v 0.263718 1.25289 0.179822
v 0.12608 1.293324 0.189036
v 0.210316 1.586431 0.161084
v 0.204878 1.582071 0.098974
v -0.25 1.248634 -0.224506
v 0.25 1.358676 -0.201116
v 0.25 1.248634 -0.224506
v 0.25 1.345681 -0.139981
v 0.25 1.23564 -0.163371
v -0.25 1.345681 -0.139981
v -0.25 1.23564 -0.163371
v -0.25 1.358676 -0.201116
v -0.15625 1.358676 -0.201116
v 0.15625 1.44732 -0.182274
v 0.15625 1.358676 -0.201116
v 0.15625 1.434326 -0.121139
v 0.15625 1.345681 -0.139981
v -0.15625 1.434326 -0.121139
v -0.15625 1.345681 -0.139981
v -0.15625 1.44732 -0.182274
v -0.092168 1.38334 -0.189483
v -0.249058 1.355241 -0.195456
v -0.15625 1.446021 -0.17616
v -0.092168 1.372944 -0.140576
v -0.15625 1.435625 -0.127253
v -0.249058 1.344846 -0.146549
v -0.184976 1.282165 -0.159872
v -0.184976 1.29256 -0.208779
v 0.092168 1.38334 -0.189483
v 0.249058 1.355241 -0.195456
v 0.184976 1.29256 -0.208779
v 0.184976 1.282165 -0.159872
v 0.249058 1.344846 -0.146549
v 0.092168 1.372944 -0.140576
v 0.15625 1.435625 -0.127253
v 0.15625 1.446021 -0.17616
v -0.171875 0.708764 -0.287752
v 0.171875 0.896149 -0.281208
v 0.171875 0.708764 -0.287752
v 0.171875 0.706582 -0.22529
v 0.171875 0.893968 -0.218746
v -0.171875 0.893968 -0.218746
v -0.171875 0.706582 -0.22529
v -0.171875 0.896149 -0.281208
v -0.109375 0.646302 -0.289933
v 0.109375 0.708764 -0.287752
v 0.109375 0.646302 -0.289933
v 0.109375 0.64412 -0.227471
v 0.109375 0.706582 -0.22529
v -0.109375 0.706582 -0.22529
v -0.109375 0.64412 -0.227471
v -0.109375 0.708764 -0.287752
v -0.110003 0.646711 -0.283665
v -0.127681 0.752713 -0.279963
v -0.065809 0.690879 -0.282123
v -0.110003 0.644748 -0.227449
v -0.065809 0.688915 -0.225907
v -0.127681 0.75075 -0.223748
v -0.171875 0.706582 -0.22529
v -0.171875 0.708545 -0.281506
v 0.110003 0.646711 -0.283665
v 0.127681 0.752713 -0.279963
v 0.171875 0.708545 -0.281506
v 0.127681 0.75075 -0.223748
v 0.171875 0.706582 -0.22529
v 0.110003 0.644748 -0.227449
v 0.065809 0.688915 -0.225907
v 0.065809 0.690879 -0.282123
v -0.109375 0.708982 -0.293998
v 0.109375 0.896367 -0.287454
v 0.109375 0.708982 -0.293998
v 0.109375 0.893968 -0.218746
v 0.109375 0.706582 -0.22529
v -0.109375 0.893968 -0.218746
v -0.109375 0.706582 -0.22529
v -0.109375 0.896367 -0.287454
v -0.087603 0.742131 -0.29839499999999997
v 0.099897 0.867012 -0.29294200000000004
v 0.099897 0.742131 -0.29839499999999997
v 0.099897 0.866739 -0.286698
v 0.099897 0.741858 -0.29215100000000005
v -0.087603 0.866739 -0.286698
v -0.087603 0.741858 -0.29215100000000005
v -0.087603 0.867012 -0.29294200000000004
v -0.078125 0.8625 -0.33125
v 0.078125 1.1125 -0.33125
v 0.078125 0.8625 -0.33125
v 0.078125 1.1125 -0.20625
v 0.078125 0.8625 -0.20625
v -0.078125 1.1125 -0.20625
v -0.078125 0.8625 -0.20625
v -0.078125 1.1125 -0.33125
v -0.0625 1.127348 -0.331086
v 0.0625 1.133537 -0.330216
v 0.0625 1.127348 -0.331086
v 0.0625 1.11614 -0.206433
v 0.0625 1.109951 -0.207302
v -0.0625 1.11614 -0.206433
v -0.0625 1.109951 -0.207302
v -0.0625 1.133537 -0.330216
v -0.0625 1.134407 -0.336405
v 0.0625 1.133537 -0.330216
v 0.0625 1.134407 -0.336405
v 0.0625 1.009754 -0.347613
v 0.0625 1.010623 -0.353802
v -0.0625 1.009754 -0.347613
v -0.0625 1.010623 -0.353802
v -0.0625 1.133537 -0.330216
v -0.240625 0.8625 -0.33125
v -0.084375 1.1125 -0.33125
v -0.084375 0.8625 -0.33125
v -0.084375 1.1125 -0.20625
v -0.084375 0.8625 -0.20625
v -0.240625 1.1125 -0.20625
v -0.240625 0.8625 -0.20625
v -0.240625 1.1125 -0.33125
v -0.225 1.134407 -0.336405
v -0.1 1.133537 -0.330216
v -0.1 1.134407 -0.336405
v -0.1 1.009754 -0.347613
v -0.1 1.010623 -0.353802
v -0.225 1.009754 -0.347613
v -0.225 1.010623 -0.353802
v -0.225 1.133537 -0.330216
v -0.225 1.127348 -0.331086
v -0.1 1.133537 -0.330216
v -0.1 1.127348 -0.331086
v -0.1 1.11614 -0.206433
v -0.1 1.109951 -0.207302
v -0.225 1.11614 -0.206433
v -0.225 1.109951 -0.207302
v -0.225 1.133537 -0.330216
v 0.084375 0.8625 -0.33125
v 0.240625 1.1125 -0.33125
v 0.240625 0.8625 -0.33125
v 0.240625 1.1125 -0.20625
v 0.240625 0.8625 -0.20625
v 0.084375 1.1125 -0.20625
v 0.084375 0.8625 -0.20625
v 0.084375 1.1125 -0.33125
v 0.1 1.134407 -0.336405
v 0.225 1.133537 -0.330216
v 0.225 1.134407 -0.336405
v 0.225 1.009754 -0.347613
v 0.225 1.010623 -0.353802
v 0.1 1.009754 -0.347613
v 0.1 1.010623 -0.353802
v 0.1 1.133537 -0.330216
v 0.1 1.127348 -0.331086
v 0.225 1.133537 -0.330216
v 0.225 1.127348 -0.331086
v 0.225 1.11614 -0.206433
v 0.225 1.109951 -0.207302
v 0.1 1.11614 -0.206433
v 0.1 1.109951 -0.207302
v 0.1 1.133537 -0.330216
v 0.34152 1.017973 -0.167724
v 0.292881 1.024162 -0.282876
v 0.340716 1.024162 -0.167391
v 0.227159 1.000576 -0.120354
v 0.226355 1.006765 -0.120021
v 0.179323 1.000576 -0.235839
v 0.17852 1.006765 -0.235506
v 0.293684 1.017973 -0.283209
v 0.346434 1.025032 -0.16976
v 0.292881 1.024162 -0.282876
v 0.340716 1.024162 -0.167391
v 0.356789 0.900379 -0.174048
v 0.362507 0.901248 -0.176417
v 0.314671 0.901248 -0.291902
v 0.308953 0.900379 -0.289533
v 0.298599 1.025032 -0.285244
v 0.00625 1.24375 -0.3375
v 0.01875 1.25625 -0.3375
v 0.01875 1.24375 -0.3375
v 0.01875 1.25625 -0.2125
v 0.01875 1.24375 -0.2125
v 0.00625 1.25625 -0.2125
v 0.00625 1.24375 -0.2125
v 0.00625 1.25625 -0.3375
v -0.15 1.24375 -0.3375
v -0.1375 1.25625 -0.3375
v -0.1375 1.24375 -0.3375
v -0.1375 1.25625 -0.2125
v -0.1375 1.24375 -0.2125
v -0.15 1.25625 -0.2125
v -0.15 1.24375 -0.2125
v -0.15 1.25625 -0.3375
v 0.00625 1.25 -0.34375
v 0.01875 1.25 -0.33125
v 0.01875 1.25 -0.34375
v 0.01875 1.125 -0.33125
v 0.01875 1.125 -0.34375
v 0.00625 1.125 -0.33125
v 0.00625 1.125 -0.34375
v 0.00625 1.25 -0.33125
vt 0.65918 0.418945
vt 0.65625 0.421875
vt 0.65625 0.418945
vt 0.6875 0.84082
vt 0.65625 0.84375
vt 0.65625 0.84082
vt 0.59668 0.34082
vt 0.59375 0.34375
vt 0.59375 0.34082
vt 0.6875 0.825195
vt 0.65625 0.828125
vt 0.65625 0.825195
vt 0.15625 0.34375
vt 0.15918 0.3125
vt 0.15918 0.34375
vt 0.65625 0.78125
vt 0.65918 0.8125
vt 0.65918 0.78125
vt 0.257812 0.375
vt 0.234375 0.40625
vt 0.234375 0.375
vt 0.640625 0.734375
vt 0.625 0.765625
vt 0.625 0.734375
vt 0.59375 0.734375
vt 0.617188 0.765625
vt 0.59375 0.765625
vt 0.265625 0.34375
vt 0.25 0.375
vt 0.25 0.34375
vt 0.5625 0.765625
vt 0.585938 0.75
vt 0.585938 0.765625
vt 0.46875 0.390625
vt 0.492188 0.40625
vt 0.492188 0.390625
vt 0.351562 0.5
vt 0.3125 0.5625
vt 0.3125 0.5
vt 0.296875 0.484375
vt 0.265625 0.546875
vt 0.265625 0.484375
vt 0.398438 0.5
vt 0.359375 0.5625
vt 0.359375 0.5
vt 0.4375 0.484375
vt 0.40625 0.546875
vt 0.40625 0.484375
vt 0.40625 0.484375
vt 0.445312 0.453125
vt 0.445312 0.484375
vt 0.53125 0.609375
vt 0.570312 0.640625
vt 0.570312 0.609375
vt 0.492188 0.9375
vt 0.453125 1
vt 0.453125 0.9375
vt 0.46875 0.484375
vt 0.4375 0.546875
vt 0.4375 0.484375
vt 0.257812 0.484375
vt 0.21875 0.546875
vt 0.21875 0.484375
vt 0.03125 0.46875
vt 0 0.53125
vt 0 0.46875
vt 0.53125 0.609375
vt 0.570312 0.578125
vt 0.570312 0.609375
vt 0.53125 0.515625
vt 0.570312 0.546875
vt 0.570312 0.515625
vt 0 1
vt 0.03125 1
vt 0 1
vt 0 1
vt 0.023438 1
vt 0 1
vt 0 1
vt 0.03125 1
vt 0 1
vt 0 1
vt 0.023438 1
vt 0 1
vt 0.265625 0.40625
vt 0.296875 0.38281199999999993
vt 0.296875 0.40625
vt 0.4375 0.38281199999999993
vt 0.46875 0.40625
vt 0.46875 0.38281199999999993
vt 0.203125 0.341797
vt 0.234375 0.34375
vt 0.203125 0.34375
vt 0.6875 0.779297
vt 0.65625 0.78125
vt 0.65625 0.779297
vt 0.25 0.341797
vt 0.28125 0.34375
vt 0.25 0.34375
vt 0.28125 0.341797
vt 0.3125 0.34375
vt 0.28125 0.34375
vt 0.21875 0.703125
vt 0.25 0.671875
vt 0.25 0.703125
vt 0.40625 0.890625
vt 0.4375 0.921875
vt 0.4375 0.890625
vt 0.34375 0.341797
vt 0.3125 0.34375
vt 0.3125 0.341797
vt 0.6875 0.685547
vt 0.65625 0.6875
vt 0.65625 0.685547
vt 0.6875 0.669922
vt 0.65625 0.671875
vt 0.65625 0.669922
vt 0.65625 0.623047
vt 0.6875 0.625
vt 0.65625 0.625
vt 0.546875 1
vt 0.578125 0.96875
vt 0.578125 1
vt 0.171875 0.421875
vt 0.203125 0.453125
vt 0.203125 0.421875
vt 0.09375 0.5
vt 0.03125 0.53125
vt 0.03125 0.5
vt 0.4375 0.421875
vt 0.40625 0.453125
vt 0.40625 0.421875
vt 0.21875 0.5
vt 0.15625 0.53125
vt 0.15625 0.5
vt 0.546875 0.484375
vt 0.578125 0.515625
vt 0.546875 0.515625
vt 0.46875 0.640625
vt 0.53125 0.609375
vt 0.53125 0.640625
vt 0.46875 0.515625
vt 0.53125 0.546875
vt 0.53125 0.515625
vt 0.237305 0.44726599999999994
vt 0.203125 0.484375
vt 0.203125 0.44726599999999994
vt 0 0.962891
vt 0 1
vt 0 1
vt 0.549805 0.759766
vt 0.515625 0.796875
vt 0.515625 0.759766
vt 0 0.962891
vt 0 1
vt 0 1
vt 0.03418 1
vt 0 1
vt 0.03418 1
vt 0.03418 1
vt 0 1
vt 0.03418 1
vt 0.125 0.703125
vt 0 0.828125
vt 0 0.703125
vt 0.125 0.515625
vt 0.09375 0.640625
vt 0.09375 0.515625
vt 0.25 0.703125
vt 0.125 0.828125
vt 0.125 0.703125
vt 0.15625 0.515625
vt 0.125 0.640625
vt 0.125 0.515625
vt 0.359375 0.828125
vt 0.484375 0.796875
vt 0.484375 0.828125
vt 0.359375 0.765625
vt 0.484375 0.796875
vt 0.484375 0.765625
vt 0.348633 0.5625
vt 0.3125 0.671875
vt 0.3125 0.5625
vt 0.111328 0.40625
vt 0.09375 0.515625
vt 0.09375 0.40625
vt 0 0.53125
vt 0.036133 0.640625
vt 0 0.640625
vt 0.142578 0.40625
vt 0.125 0.515625
vt 0.125 0.40625
vt 0.34375 0.390625
vt 0.379883 0.373047
vt 0.379883 0.390625
vt 0.390625 0.373047
vt 0.426758 0.390625
vt 0.426758 0.373047
vt 0.5 0.671875
vt 0.536133 0.71875
vt 0.5 0.71875
vt 0.3125 0.5
vt 0.296875 0.546875
vt 0.296875 0.5
vt 0.333008 0.453125
vt 0.296875 0.5
vt 0.296875 0.453125
vt 0.4375 0.40625
vt 0.453125 0.453125
vt 0.4375 0.453125
vt 0.609375 0.96875
vt 0.645508 0.953125
vt 0.645508 0.96875
vt 0.645508 0.5625
vt 0.609375 0.578125
vt 0.645508 0.578125
vt 0.598633 0.801758
vt 0.5625 0.828125
vt 0.5625 0.801758
vt 0.640625 0.598633
vt 0.625 0.625
vt 0.625 0.598633
vt 0.239258 0.41113299999999997
vt 0.203125 0.4375
vt 0.203125 0.41113299999999997
vt 0.453125 0.34863299999999997
vt 0.4375 0.375
vt 0.4375 0.34863299999999997
vt 0.609375 0.484375
vt 0.645508 0.46875
vt 0.645508 0.484375
vt 0.609375 0.453125
vt 0.645508 0.46875
vt 0.645508 0.453125
vt 0.395508 0.564453
vt 0.359375 0.640625
vt 0.359375 0.564453
vt 0 0.392578
vt 0.015625 0.46875
vt 0 0.46875
vt 0.254883 0.548828
vt 0.21875 0.625
vt 0.21875 0.548828
vt 0.015625 0.392578
vt 0.03125 0.46875
vt 0.015625 0.46875
vt 0.5625 0.390625
vt 0.598633 0.375
vt 0.598633 0.390625
vt 0.609375 0.375
vt 0.645508 0.390625
vt 0.645508 0.375
vt 0.132812 0.828125
vt 0 1
vt 0 0.828125
vt 0.179688 0.53125
vt 0.15625 0.703125
vt 0.15625 0.53125
vt 0.273438 0.828125
vt 0.140625 1
vt 0.140625 0.828125
vt 0.210938 0.53125
vt 0.1875 0.703125
vt 0.1875 0.53125
vt 0.359375 0.703125
vt 0.492188 0.679688
vt 0.492188 0.703125
vt 0.359375 0.648438
vt 0.492188 0.671875
vt 0.492188 0.648438
vt 0.617188 0.932617
vt 0.578125 0.953125
vt 0.578125 0.932617
vt 0.625 0.49511700000000003
vt 0.642578 0.515625
vt 0.625 0.515625
vt 0.578125 0.698242
vt 0.617188 0.71875
vt 0.578125 0.71875
vt 0.5625 0.35449200000000003
vt 0.580078 0.375
vt 0.5625 0.375
vt 0.59375 0.453125
vt 0.632812 0.435547
vt 0.632812 0.453125
vt 0.039062 0.373047
vt 0 0.390625
vt 0.039062 0.390625
vt 0.335938 0.40136700000000003
vt 0.296875 0.421875
vt 0.296875 0.40136700000000003
vt 0.625 0.40136700000000003
vt 0.642578 0.421875
vt 0.625 0.421875
vt 0.382812 0.40136700000000003
vt 0.34375 0.421875
vt 0.34375 0.40136700000000003
vt 0.611328 0.35449200000000003
vt 0.59375 0.375
vt 0.59375 0.35449200000000003
vt 0.648438 0.890625
vt 0.609375 0.873047
vt 0.648438 0.873047
vt 0.609375 0.841797
vt 0.648438 0.859375
vt 0.648438 0.841797
vt 0.046875 0.390625
vt 0.03125 0.453125
vt 0.03125 0.390625
vt 0.359375 0.9375
vt 0.28125 1
vt 0.28125 0.9375
vt 0.0625 0.390625
vt 0.046875 0.453125
vt 0.046875 0.390625
vt 0.359375 0.875
vt 0.28125 0.9375
vt 0.28125 0.875
vt 0.078125 0.5
vt 0.09375 0.421875
vt 0.09375 0.5
vt 0.390625 0.421875
vt 0.40625 0.5
vt 0.40625 0.421875
vt 0.078125 0.390625
vt 0.0625 0.453125
vt 0.0625 0.390625
vt 0.078125 0.640625
vt 0 0.703125
vt 0 0.640625
vt 0.171875 0.390625
vt 0.15625 0.453125
vt 0.15625 0.390625
vt 0.15625 0.640625
vt 0.078125 0.703125
vt 0.078125 0.640625
vt 0.25 0.484375
vt 0.265625 0.40625
vt 0.265625 0.484375
vt 0.265625 0.40625
vt 0.28125 0.484375
vt 0.28125 0.40625
vt 0.395508 0.890625
vt 0.359375 1
vt 0.359375 0.890625
vt 0.484375 0.71875
vt 0.501953 0.828125
vt 0.484375 0.828125
vt 0.083008 0.53125
vt 0.046875 0.640625
vt 0.046875 0.53125
vt 0.46875 0.40625
vt 0.486328 0.515625
vt 0.46875 0.515625
vt 0.504883 0.390625
vt 0.46875 0.373047
vt 0.504883 0.373047
vt 0.515625 0.373047
vt 0.551758 0.390625
vt 0.551758 0.373047
vt 0.617188 0.620117
vt 0.578125 0.640625
vt 0.578125 0.620117
vt 0.642578 0.35449200000000003
vt 0.625 0.375
vt 0.625 0.35449200000000003
vt 0.429688 0.40136700000000003
vt 0.390625 0.421875
vt 0.390625 0.40136700000000003
vt 0.017578 0.33886700000000003
vt 0 0.359375
vt 0 0.33886700000000003
vt 0.609375 0.828125
vt 0.648438 0.810547
vt 0.648438 0.828125
vt 0.609375 0.779297
vt 0.648438 0.796875
vt 0.648438 0.779297
vt 0.379883 0.453125
vt 0.34375 0.5
vt 0.34375 0.453125
vt 0.140625 0.359375
vt 0.125 0.40625
vt 0.125 0.359375
vt 0.536133 0.46875
vt 0.5 0.515625
vt 0.5 0.46875
vt 0.15625 0.359375
vt 0.140625 0.40625
vt 0.140625 0.359375
vt 0.661133 1
vt 0.625 0.984375
vt 0.661133 0.984375
vt 0.625 0.96875
vt 0.661133 0.984375
vt 0.661133 0.96875
vt 0.578125 0.588867
vt 0.617188 0.609375
vt 0.578125 0.609375
vt 0.095703 0.33886700000000003
vt 0.078125 0.359375
vt 0.078125 0.33886700000000003
vt 0.617188 0.526367
vt 0.578125 0.546875
vt 0.578125 0.526367
vt 0.126953 0.33886700000000003
vt 0.109375 0.359375
vt 0.109375 0.33886700000000003
vt 0.296875 0.390625
vt 0.335938 0.373047
vt 0.335938 0.390625
vt 0.609375 0.669922
vt 0.648438 0.6875
vt 0.648438 0.669922
vt 0.5625 0.770508
vt 0.598633 0.796875
vt 0.5625 0.796875
vt 0.453125 0.34863299999999997
vt 0.46875 0.375
vt 0.453125 0.375
vt 0.578125 0.973633
vt 0.614258 1
vt 0.578125 1
vt 0.625 0.520508
vt 0.640625 0.546875
vt 0.625 0.546875
vt 0.661133 0.953125
vt 0.625 0.9375
vt 0.661133 0.9375
vt 0.625 0.921875
vt 0.661133 0.9375
vt 0.661133 0.921875
vt 0.301758 0.548828
vt 0.265625 0.625
vt 0.265625 0.548828
vt 0.515625 0.392578
vt 0.5 0.46875
vt 0.5 0.392578
vt 0.40625 0.923828
vt 0.442383 1
vt 0.40625 1
vt 0.53125 0.392578
vt 0.515625 0.46875
vt 0.515625 0.392578
vt 0.078125 0.375
vt 0.114258 0.359375
vt 0.114258 0.375
vt 0.661133 0.90625
vt 0.625 0.921875
vt 0.661133 0.921875
vt 0.484375 0.737305
vt 0.359375 0.765625
vt 0.359375 0.737305
vt 0.28125 0.34668
vt 0.265625 0.375
vt 0.265625 0.34668
vt 0.484375 0.706055
vt 0.359375 0.734375
vt 0.359375 0.706055
vt 0.28125 0.34668
vt 0.296875 0.375
vt 0.28125 0.375
vt 0.375 0.84375
vt 0.5 0.828125
vt 0.5 0.84375
vt 0.4375 0.859375
vt 0.5625 0.875
vt 0.5625 0.859375
vt 0.578125 0.930664
vt 0.5 0.953125
vt 0.5 0.930664
vt 0.046875 0.33691399999999994
vt 0.03125 0.359375
vt 0.03125 0.33691399999999994
vt 0.578125 0.836914
vt 0.5 0.859375
vt 0.5 0.836914
vt 0.140625 0.33691399999999994
vt 0.15625 0.359375
vt 0.140625 0.359375
vt 0.515625 0.75
vt 0.59375 0.734375
vt 0.59375 0.75
vt 0.515625 0.71875
vt 0.59375 0.734375
vt 0.59375 0.71875
vt 0.578125 0.49316399999999994
vt 0.611328 0.515625
vt 0.578125 0.515625
vt 0.359375 0.33691399999999994
vt 0.37207 0.359375
vt 0.359375 0.359375
vt 0.564453 0.39941399999999994
vt 0.53125 0.421875
vt 0.53125 0.39941399999999994
vt 0.387695 0.33691399999999994
vt 0.375 0.359375
vt 0.375 0.33691399999999994
vt 0.658203 0.90625
vt 0.625 0.893555
vt 0.658203 0.893555
vt 0.625 0.706055
vt 0.658203 0.71875
vt 0.658203 0.706055
vt 0.611328 0.39941399999999994
vt 0.578125 0.421875
vt 0.578125 0.39941399999999994
vt 0.640625 0.602539
vt 0.65332 0.625
vt 0.640625 0.625
vt 0.078125 0.38378899999999994
vt 0.111328 0.40625
vt 0.078125 0.40625
vt 0.40332 0.33691399999999994
vt 0.390625 0.359375
vt 0.390625 0.33691399999999994
vt 0.625 0.703125
vt 0.658203 0.69043
vt 0.658203 0.703125
vt 0.658203 0.62793
vt 0.625 0.640625
vt 0.658203 0.640625
vt 0.367188 0.828125
vt 0.28125 0.875
vt 0.28125 0.828125
vt 0.203125 0.359375
vt 0.21875 0.40625
vt 0.203125 0.40625
vt 0.304688 0.625
vt 0.21875 0.671875
vt 0.21875 0.625
vt 0.234375 0.359375
vt 0.21875 0.40625
vt 0.21875 0.359375
vt 0.5 0.65625
vt 0.585938 0.640625
vt 0.585938 0.65625
vt 0.515625 0.875
vt 0.601562 0.890625
vt 0.601562 0.875
vt 0.492188 0.84375
vt 0.4375 0.859375
vt 0.4375 0.84375
vt 0.359375 0.875
vt 0.375 0.890625
vt 0.359375 0.890625
vt 0.601562 0.953125
vt 0.546875 0.96875
vt 0.546875 0.953125
vt 0.484375 0.59375
vt 0.46875 0.609375
vt 0.46875 0.59375
vt 0.546875 0.6875
vt 0.601562 0.671875
vt 0.601562 0.6875
vt 0.546875 0.46875
vt 0.601562 0.484375
vt 0.601562 0.46875
vt 0.625 0.578125
vt 0.646484 0.59375
vt 0.625 0.59375
vt 0.484375 0.703125
vt 0.498047 0.71875
vt 0.484375 0.71875
vt 0.224609 0.34375
vt 0.203125 0.359375
vt 0.203125 0.34375
vt 0.216797 0.484375
vt 0.203125 0.5
vt 0.203125 0.484375
vt 0.662109 0.734375
vt 0.640625 0.720703
vt 0.662109 0.720703
vt 0.296875 0.345703
vt 0.318359 0.359375
vt 0.318359 0.345703
vt 0.662109 0.75
vt 0.640625 0.765625
vt 0.640625 0.75
vt 0.576172 0.859375
vt 0.5625 0.875
vt 0.5625 0.859375
vt 0.640625 0.734375
vt 0.662109 0.75
vt 0.640625 0.75
vt 0.091797 0.40625
vt 0.078125 0.421875
vt 0.078125 0.40625
vt 0.328125 0.359375
vt 0.349609 0.345703
vt 0.349609 0.359375
vt 0.662109 0.642578
vt 0.640625 0.65625
vt 0.662109 0.65625
vt 0.429688 0.84375
vt 0.375 0.890625
vt 0.375 0.84375
vt 0.595703 0.828125
vt 0.578125 0.875
vt 0.578125 0.828125
vt 0.460938 0.59375
vt 0.40625 0.640625
vt 0.40625 0.59375
vt 0.171875 0.375
vt 0.189453 0.421875
vt 0.171875 0.421875
vt 0.53125 0.453125
vt 0.585938 0.435547
vt 0.585938 0.453125
vt 0.5625 0.904297
vt 0.617188 0.921875
vt 0.617188 0.904297
vt 0.5625 0.890625
vt 0.515625 0.921875
vt 0.515625 0.890625
vt 0.345703 0.3125
vt 0.34375 0.34375
vt 0.34375 0.3125
vt 0.5625 0.796875
vt 0.515625 0.828125
vt 0.515625 0.796875
vt 0.65625 0.453125
vt 0.658203 0.484375
vt 0.65625 0.484375
vt 0.640625 0.5625
vt 0.6875 0.560547
vt 0.6875 0.5625
vt 0.640625 0.544922
vt 0.6875 0.546875
vt 0.6875 0.544922
vt 0.351562 0.5
vt 0.3125 0.5625
vt 0.3125 0.5
vt 0.296875 0.484375
vt 0.265625 0.546875
vt 0.265625 0.484375
vt 0.398438 0.5
vt 0.359375 0.5625
vt 0.359375 0.5
vt 0.4375 0.484375
vt 0.40625 0.546875
vt 0.40625 0.484375
vt 0.40625 0.484375
vt 0.445312 0.453125
vt 0.445312 0.484375
vt 0.53125 0.609375
vt 0.570312 0.640625
vt 0.570312 0.609375
vt 0.234375 0.341797
vt 0.203125 0.34375
vt 0.203125 0.341797
vt 0.6875 0.779297
vt 0.65625 0.78125
vt 0.65625 0.779297
vt 0.28125 0.341797
vt 0.25 0.34375
vt 0.25 0.341797
vt 0.28125 0.341797
vt 0.3125 0.34375
vt 0.28125 0.34375
vt 0.21875 0.703125
vt 0.25 0.671875
vt 0.25 0.703125
vt 0.40625 0.890625
vt 0.4375 0.921875
vt 0.4375 0.890625
vt 0.34375 0.341797
vt 0.3125 0.34375
vt 0.3125 0.341797
vt 0.6875 0.685547
vt 0.65625 0.6875
vt 0.65625 0.685547
vt 0.6875 0.669922
vt 0.65625 0.671875
vt 0.65625 0.669922
vt 0.65625 0.623047
vt 0.6875 0.625
vt 0.65625 0.625
vt 0.546875 1
vt 0.578125 0.96875
vt 0.578125 1
vt 0.171875 0.421875
vt 0.203125 0.453125
vt 0.203125 0.421875
vt 0.351562 0.5
vt 0.3125 0.5625
vt 0.3125 0.5
vt 0.296875 0.484375
vt 0.265625 0.546875
vt 0.265625 0.484375
vt 0.398438 0.5
vt 0.359375 0.5625
vt 0.359375 0.5
vt 0.4375 0.484375
vt 0.40625 0.546875
vt 0.40625 0.484375
vt 0.40625 0.484375
vt 0.445312 0.453125
vt 0.445312 0.484375
vt 0.53125 0.609375
vt 0.570312 0.640625
vt 0.570312 0.609375
vt 0.34375 0.341797
vt 0.3125 0.34375
vt 0.3125 0.341797
vt 0.6875 0.685547
vt 0.65625 0.6875
vt 0.65625 0.685547
vt 0.6875 0.669922
vt 0.65625 0.671875
vt 0.65625 0.669922
vt 0.65625 0.623047
vt 0.6875 0.625
vt 0.65625 0.625
vt 0.546875 1
vt 0.578125 0.96875
vt 0.578125 1
vt 0.171875 0.421875
vt 0.203125 0.453125
vt 0.203125 0.421875
vt 0.234375 0.341797
vt 0.203125 0.34375
vt 0.203125 0.341797
vt 0.6875 0.779297
vt 0.65625 0.78125
vt 0.65625 0.779297
vt 0.28125 0.341797
vt 0.25 0.34375
vt 0.25 0.341797
vt 0.28125 0.341797
vt 0.3125 0.34375
vt 0.28125 0.34375
vt 0.21875 0.703125
vt 0.25 0.671875
vt 0.25 0.703125
vt 0.40625 0.890625
vt 0.4375 0.921875
vt 0.4375 0.890625
vt 0.492188 0.9375
vt 0.453125 1
vt 0.453125 0.9375
vt 0.46875 0.484375
vt 0.4375 0.546875
vt 0.4375 0.484375
vt 0.257812 0.484375
vt 0.21875 0.546875
vt 0.21875 0.484375
vt 0.03125 0.46875
vt 0 0.53125
vt 0 0.46875
vt 0.53125 0.609375
vt 0.570312 0.578125
vt 0.570312 0.609375
vt 0.53125 0.515625
vt 0.570312 0.546875
vt 0.570312 0.515625
vt 0.6875 0.607422
vt 0.65625 0.609375
vt 0.65625 0.607422
vt 0.4375 0.341797
vt 0.40625 0.34375
vt 0.40625 0.341797
vt 0.6875 0.591797
vt 0.65625 0.59375
vt 0.65625 0.591797
vt 0.65625 0.576172
vt 0.6875 0.578125
vt 0.65625 0.578125
vt 0.546875 0.71875
vt 0.578125 0.6875
vt 0.578125 0.71875
vt 0.296875 0.421875
vt 0.328125 0.453125
vt 0.328125 0.421875
vt 0.46875 0.341797
vt 0.4375 0.34375
vt 0.4375 0.341797
vt 0.5 0.341797
vt 0.46875 0.34375
vt 0.46875 0.341797
vt 0.6875 0.513672
vt 0.65625 0.515625
vt 0.65625 0.513672
vt 0.65625 0.498047
vt 0.6875 0.5
vt 0.65625 0.5
vt 0.328125 0.453125
vt 0.359375 0.421875
vt 0.359375 0.453125
vt 0.359375 0.421875
vt 0.390625 0.453125
vt 0.390625 0.421875
vt 0.4375 0.341797
vt 0.46875 0.34375
vt 0.4375 0.34375
vt 0.46875 0.341797
vt 0.5 0.34375
vt 0.46875 0.34375
vt 0.65625 0.513672
vt 0.6875 0.515625
vt 0.65625 0.515625
vt 0.6875 0.498047
vt 0.65625 0.5
vt 0.65625 0.498047
vt 0.328125 0.453125
vt 0.359375 0.421875
vt 0.359375 0.453125
vt 0.359375 0.421875
vt 0.390625 0.453125
vt 0.390625 0.421875
vt 0.65625 0.607422
vt 0.6875 0.609375
vt 0.65625 0.609375
vt 0.4375 0.341797
vt 0.40625 0.34375
vt 0.40625 0.341797
vt 0.65625 0.591797
vt 0.6875 0.59375
vt 0.65625 0.59375
vt 0.65625 0.576172
vt 0.6875 0.578125
vt 0.65625 0.578125
vt 0.546875 0.71875
vt 0.578125 0.6875
vt 0.578125 0.71875
vt 0.296875 0.421875
vt 0.328125 0.453125
vt 0.328125 0.421875
vt 0.53418 0.34082
vt 0.53125 0.34375
vt 0.53125 0.34082
vt 0.4375 0.356445
vt 0.40625 0.359375
vt 0.40625 0.356445
vt 0.549805 0.34082
vt 0.546875 0.34375
vt 0.546875 0.34082
vt 0.5 0.356445
vt 0.46875 0.359375
vt 0.46875 0.356445
vt 0.5 0.359375
vt 0.50293 0.328125
vt 0.50293 0.359375
vt 0.515625 0.328125
vt 0.518555 0.359375
vt 0.518555 0.328125
vt 0.65918 0.450195
vt 0.65625 0.453125
vt 0.65625 0.450195
vt 0.671875 0.52832
vt 0.640625 0.53125
vt 0.640625 0.52832
vt 0.56543 0.34082
vt 0.5625 0.34375
vt 0.5625 0.34082
vt 0.5625 0.356445
vt 0.53125 0.359375
vt 0.53125 0.356445
vt 0.640625 0.453125
vt 0.643555 0.421875
vt 0.643555 0.453125
vt 0.046875 0.3125
vt 0.049805 0.34375
vt 0.049805 0.3125
vt 0.65918 0.43457
vt 0.65625 0.4375
vt 0.65625 0.43457
vt 0.6875 0.96582
vt 0.65625 0.96875
vt 0.65625 0.96582
vt 0.581055 0.34082
vt 0.578125 0.34375
vt 0.578125 0.34082
vt 0.6875 0.887695
vt 0.65625 0.890625
vt 0.65625 0.887695
vt 0.0625 0.34375
vt 0.06543 0.3125
vt 0.06543 0.34375
vt 0.65625 0.84375
vt 0.65918 0.875
vt 0.65918 0.84375
vt 0.65918 0.418945
vt 0.65918 0.421875
vt 0.65625 0.421875
vt 0.6875 0.84082
vt 0.6875 0.84375
vt 0.65625 0.84375
vt 0.59668 0.34082
vt 0.59668 0.34375
vt 0.59375 0.34375
vt 0.6875 0.825195
vt 0.6875 0.828125
vt 0.65625 0.828125
vt 0.15625 0.34375
vt 0.15625 0.3125
vt 0.15918 0.3125
vt 0.65625 0.78125
vt 0.65625 0.8125
vt 0.65918 0.8125
vt 0.257812 0.375
vt 0.257812 0.40625
vt 0.234375 0.40625
vt 0.640625 0.734375
vt 0.640625 0.765625
vt 0.625 0.765625
vt 0.59375 0.734375
vt 0.617188 0.734375
vt 0.617188 0.765625
vt 0.265625 0.34375
vt 0.265625 0.375
vt 0.25 0.375
vt 0.5625 0.765625
vt 0.5625 0.75
vt 0.585938 0.75
vt 0.46875 0.390625
vt 0.46875 0.40625
vt 0.492188 0.40625
vt 0.351562 0.5
vt 0.351562 0.5625
vt 0.3125 0.5625
vt 0.296875 0.484375
vt 0.296875 0.546875
vt 0.265625 0.546875
vt 0.398438 0.5
vt 0.398438 0.5625
vt 0.359375 0.5625
vt 0.4375 0.484375
vt 0.4375 0.546875
vt 0.40625 0.546875
vt 0.40625 0.484375
vt 0.40625 0.453125
vt 0.445312 0.453125
vt 0.53125 0.609375
vt 0.53125 0.640625
vt 0.570312 0.640625
vt 0.492188 0.9375
vt 0.492188 1
vt 0.453125 1
vt 0.46875 0.484375
vt 0.46875 0.546875
vt 0.4375 0.546875
vt 0.257812 0.484375
vt 0.257812 0.546875
vt 0.21875 0.546875
vt 0.03125 0.46875
vt 0.03125 0.53125
vt 0 0.53125
vt 0.53125 0.609375
vt 0.53125 0.578125
vt 0.570312 0.578125
vt 0.53125 0.515625
vt 0.53125 0.546875
vt 0.570312 0.546875
vt 0 1
vt 0.03125 1
vt 0.03125 1
vt 0 1
vt 0.023438 1
vt 0.023438 1
vt 0 1
vt 0.03125 1
vt 0.03125 1
vt 0 1
vt 0.023438 1
vt 0.023438 1
vt 0.265625 0.40625
vt 0.265625 0.38281199999999993
vt 0.296875 0.38281199999999993
vt 0.4375 0.38281199999999993
vt 0.4375 0.40625
vt 0.46875 0.40625
vt 0.203125 0.341797
vt 0.234375 0.341797
vt 0.234375 0.34375
vt 0.6875 0.779297
vt 0.6875 0.78125
vt 0.65625 0.78125
vt 0.25 0.341797
vt 0.28125 0.341797
vt 0.28125 0.34375
vt 0.28125 0.341797
vt 0.3125 0.341797
vt 0.3125 0.34375
vt 0.21875 0.703125
vt 0.21875 0.671875
vt 0.25 0.671875
vt 0.40625 0.890625
vt 0.40625 0.921875
vt 0.4375 0.921875
vt 0.34375 0.341797
vt 0.34375 0.34375
vt 0.3125 0.34375
vt 0.6875 0.685547
vt 0.6875 0.6875
vt 0.65625 0.6875
vt 0.6875 0.669922
vt 0.6875 0.671875
vt 0.65625 0.671875
vt 0.65625 0.623047
vt 0.6875 0.623047
vt 0.6875 0.625
vt 0.546875 1
vt 0.546875 0.96875
vt 0.578125 0.96875
vt 0.171875 0.421875
vt 0.171875 0.453125
vt 0.203125 0.453125
vt 0.09375 0.5
vt 0.09375 0.53125
vt 0.03125 0.53125
vt 0.4375 0.421875
vt 0.4375 0.453125
vt 0.40625 0.453125
vt 0.21875 0.5
vt 0.21875 0.53125
vt 0.15625 0.53125
vt 0.546875 0.484375
vt 0.578125 0.484375
vt 0.578125 0.515625
vt 0.46875 0.640625
vt 0.46875 0.609375
vt 0.53125 0.609375
vt 0.46875 0.515625
vt 0.46875 0.546875
vt 0.53125 0.546875
vt 0.237305 0.44726599999999994
vt 0.237305 0.484375
vt 0.203125 0.484375
vt 0 0.962891
vt 0 0.962891
vt 0 1
vt 0.549805 0.759766
vt 0.549805 0.796875
vt 0.515625 0.796875
vt 0 0.962891
vt 0 0.962891
vt 0 1
vt 0.03418 1
vt 0 1
vt 0 1
vt 0.03418 1
vt 0 1
vt 0 1
vt 0.125 0.703125
vt 0.125 0.828125
vt 0 0.828125
vt 0.125 0.515625
vt 0.125 0.640625
vt 0.09375 0.640625
vt 0.25 0.703125
vt 0.25 0.828125
vt 0.125 0.828125
vt 0.15625 0.515625
vt 0.15625 0.640625
vt 0.125 0.640625
vt 0.359375 0.828125
vt 0.359375 0.796875
vt 0.484375 0.796875
vt 0.359375 0.765625
vt 0.359375 0.796875
vt 0.484375 0.796875
vt 0.348633 0.5625
vt 0.348633 0.671875
vt 0.3125 0.671875
vt 0.111328 0.40625
vt 0.111328 0.515625
vt 0.09375 0.515625
vt 0 0.53125
vt 0.036133 0.53125
vt 0.036133 0.640625
vt 0.142578 0.40625
vt 0.142578 0.515625
vt 0.125 0.515625
vt 0.34375 0.390625
vt 0.34375 0.373047
vt 0.379883 0.373047
vt 0.390625 0.373047
vt 0.390625 0.390625
vt 0.426758 0.390625
vt 0.5 0.671875
vt 0.536133 0.671875
vt 0.536133 0.71875
vt 0.3125 0.5
vt 0.3125 0.546875
vt 0.296875 0.546875
vt 0.333008 0.453125
vt 0.333008 0.5
vt 0.296875 0.5
vt 0.4375 0.40625
vt 0.453125 0.40625
vt 0.453125 0.453125
vt 0.609375 0.96875
vt 0.609375 0.953125
vt 0.645508 0.953125
vt 0.645508 0.5625
vt 0.609375 0.5625
vt 0.609375 0.578125
vt 0.598633 0.801758
vt 0.598633 0.828125
vt 0.5625 0.828125
vt 0.640625 0.598633
vt 0.640625 0.625
vt 0.625 0.625
vt 0.239258 0.41113299999999997
vt 0.239258 0.4375
vt 0.203125 0.4375
vt 0.453125 0.34863299999999997
vt 0.453125 0.375
vt 0.4375 0.375
vt 0.609375 0.484375
vt 0.609375 0.46875
vt 0.645508 0.46875
vt 0.609375 0.453125
vt 0.609375 0.46875
vt 0.645508 0.46875
vt 0.395508 0.564453
vt 0.395508 0.640625
vt 0.359375 0.640625
vt 0 0.392578
vt 0.015625 0.392578
vt 0.015625 0.46875
vt 0.254883 0.548828
vt 0.254883 0.625
vt 0.21875 0.625
vt 0.015625 0.392578
vt 0.03125 0.392578
vt 0.03125 0.46875
vt 0.5625 0.390625
vt 0.5625 0.375
vt 0.598633 0.375
vt 0.609375 0.375
vt 0.609375 0.390625
vt 0.645508 0.390625
vt 0.132812 0.828125
vt 0.132812 1
vt 0 1
vt 0.179688 0.53125
vt 0.179688 0.703125
vt 0.15625 0.703125
vt 0.273438 0.828125
vt 0.273438 1
vt 0.140625 1
vt 0.210938 0.53125
vt 0.210938 0.703125
vt 0.1875 0.703125
vt 0.359375 0.703125
vt 0.359375 0.679688
vt 0.492188 0.679688
vt 0.359375 0.648438
vt 0.359375 0.671875
vt 0.492188 0.671875
vt 0.617188 0.932617
vt 0.617188 0.953125
vt 0.578125 0.953125
vt 0.625 0.49511700000000003
vt 0.642578 0.49511700000000003
vt 0.642578 0.515625
vt 0.578125 0.698242
vt 0.617188 0.698242
vt 0.617188 0.71875
vt 0.5625 0.35449200000000003
vt 0.580078 0.35449200000000003
vt 0.580078 0.375
vt 0.59375 0.453125
vt 0.59375 0.435547
vt 0.632812 0.435547
vt 0.039062 0.373047
vt 0 0.373047
vt 0 0.390625
vt 0.335938 0.40136700000000003
vt 0.335938 0.421875
vt 0.296875 0.421875
vt 0.625 0.40136700000000003
vt 0.642578 0.40136700000000003
vt 0.642578 0.421875
vt 0.382812 0.40136700000000003
vt 0.382812 0.421875
vt 0.34375 0.421875
vt 0.611328 0.35449200000000003
vt 0.611328 0.375
vt 0.59375 0.375
vt 0.648438 0.890625
vt 0.609375 0.890625
vt 0.609375 0.873047
vt 0.609375 0.841797
vt 0.609375 0.859375
vt 0.648438 0.859375
vt 0.046875 0.390625
vt 0.046875 0.453125
vt 0.03125 0.453125
vt 0.359375 0.9375
vt 0.359375 1
vt 0.28125 1
vt 0.0625 0.390625
vt 0.0625 0.453125
vt 0.046875 0.453125
vt 0.359375 0.875
vt 0.359375 0.9375
vt 0.28125 0.9375
vt 0.078125 0.5
vt 0.078125 0.421875
vt 0.09375 0.421875
vt 0.390625 0.421875
vt 0.390625 0.5
vt 0.40625 0.5
vt 0.078125 0.390625
vt 0.078125 0.453125
vt 0.0625 0.453125
vt 0.078125 0.640625
vt 0.078125 0.703125
vt 0 0.703125
vt 0.171875 0.390625
vt 0.171875 0.453125
vt 0.15625 0.453125
vt 0.15625 0.640625
vt 0.15625 0.703125
vt 0.078125 0.703125
vt 0.25 0.484375
vt 0.25 0.40625
vt 0.265625 0.40625
vt 0.265625 0.40625
vt 0.265625 0.484375
vt 0.28125 0.484375
vt 0.395508 0.890625
vt 0.395508 1
vt 0.359375 1
vt 0.484375 0.71875
vt 0.501953 0.71875
vt 0.501953 0.828125
vt 0.083008 0.53125
vt 0.083008 0.640625
vt 0.046875 0.640625
vt 0.46875 0.40625
vt 0.486328 0.40625
vt 0.486328 0.515625
vt 0.504883 0.390625
vt 0.46875 0.390625
vt 0.46875 0.373047
vt 0.515625 0.373047
vt 0.515625 0.390625
vt 0.551758 0.390625
vt 0.617188 0.620117
vt 0.617188 0.640625
vt 0.578125 0.640625
vt 0.642578 0.35449200000000003
vt 0.642578 0.375
vt 0.625 0.375
vt 0.429688 0.40136700000000003
vt 0.429688 0.421875
vt 0.390625 0.421875
vt 0.017578 0.33886700000000003
vt 0.017578 0.359375
vt 0 0.359375
vt 0.609375 0.828125
vt 0.609375 0.810547
vt 0.648438 0.810547
vt 0.609375 0.779297
vt 0.609375 0.796875
vt 0.648438 0.796875
vt 0.379883 0.453125
vt 0.379883 0.5
vt 0.34375 0.5
vt 0.140625 0.359375
vt 0.140625 0.40625
vt 0.125 0.40625
vt 0.536133 0.46875
vt 0.536133 0.515625
vt 0.5 0.515625
vt 0.15625 0.359375
vt 0.15625 0.40625
vt 0.140625 0.40625
vt 0.661133 1
vt 0.625 1
vt 0.625 0.984375
vt 0.625 0.96875
vt 0.625 0.984375
vt 0.661133 0.984375
vt 0.578125 0.588867
vt 0.617188 0.588867
vt 0.617188 0.609375
vt 0.095703 0.33886700000000003
vt 0.095703 0.359375
vt 0.078125 0.359375
vt 0.617188 0.526367
vt 0.617188 0.546875
vt 0.578125 0.546875
vt 0.126953 0.33886700000000003
vt 0.126953 0.359375
vt 0.109375 0.359375
vt 0.296875 0.390625
vt 0.296875 0.373047
vt 0.335938 0.373047
vt 0.609375 0.669922
vt 0.609375 0.6875
vt 0.648438 0.6875
vt 0.5625 0.770508
vt 0.598633 0.770508
vt 0.598633 0.796875
vt 0.453125 0.34863299999999997
vt 0.46875 0.34863299999999997
vt 0.46875 0.375
vt 0.578125 0.973633
vt 0.614258 0.973633
vt 0.614258 1
vt 0.625 0.520508
vt 0.640625 0.520508
vt 0.640625 0.546875
vt 0.661133 0.953125
vt 0.625 0.953125
vt 0.625 0.9375
vt 0.625 0.921875
vt 0.625 0.9375
vt 0.661133 0.9375
vt 0.301758 0.548828
vt 0.301758 0.625
vt 0.265625 0.625
vt 0.515625 0.392578
vt 0.515625 0.46875
vt 0.5 0.46875
vt 0.40625 0.923828
vt 0.442383 0.923828
vt 0.442383 1
vt 0.53125 0.392578
vt 0.53125 0.46875
vt 0.515625 0.46875
vt 0.078125 0.375
vt 0.078125 0.359375
vt 0.114258 0.359375
vt 0.661133 0.90625
vt 0.625 0.90625
vt 0.625 0.921875
vt 0.484375 0.737305
vt 0.484375 0.765625
vt 0.359375 0.765625
vt 0.28125 0.34668
vt 0.28125 0.375
vt 0.265625 0.375
vt 0.484375 0.706055
vt 0.484375 0.734375
vt 0.359375 0.734375
vt 0.28125 0.34668
vt 0.296875 0.34668
vt 0.296875 0.375
vt 0.375 0.84375
vt 0.375 0.828125
vt 0.5 0.828125
vt 0.4375 0.859375
vt 0.4375 0.875
vt 0.5625 0.875
vt 0.578125 0.930664
vt 0.578125 0.953125
vt 0.5 0.953125
vt 0.046875 0.33691399999999994
vt 0.046875 0.359375
vt 0.03125 0.359375
vt 0.578125 0.836914
vt 0.578125 0.859375
vt 0.5 0.859375
vt 0.140625 0.33691399999999994
vt 0.15625 0.33691399999999994
vt 0.15625 0.359375
vt 0.515625 0.75
vt 0.515625 0.734375
vt 0.59375 0.734375
vt 0.515625 0.71875
vt 0.515625 0.734375
vt 0.59375 0.734375
vt 0.578125 0.49316399999999994
vt 0.611328 0.49316399999999994
vt 0.611328 0.515625
vt 0.359375 0.33691399999999994
vt 0.37207 0.33691399999999994
vt 0.37207 0.359375
vt 0.564453 0.39941399999999994
vt 0.564453 0.421875
vt 0.53125 0.421875
vt 0.387695 0.33691399999999994
vt 0.387695 0.359375
vt 0.375 0.359375
vt 0.658203 0.90625
vt 0.625 0.90625
vt 0.625 0.893555
vt 0.625 0.706055
vt 0.625 0.71875
vt 0.658203 0.71875
vt 0.611328 0.39941399999999994
vt 0.611328 0.421875
vt 0.578125 0.421875
vt 0.640625 0.602539
vt 0.65332 0.602539
vt 0.65332 0.625
vt 0.078125 0.38378899999999994
vt 0.111328 0.38378899999999994
vt 0.111328 0.40625
vt 0.40332 0.33691399999999994
vt 0.40332 0.359375
vt 0.390625 0.359375
vt 0.625 0.703125
vt 0.625 0.69043
vt 0.658203 0.69043
vt 0.658203 0.62793
vt 0.625 0.62793
vt 0.625 0.640625
vt 0.367188 0.828125
vt 0.367188 0.875
vt 0.28125 0.875
vt 0.203125 0.359375
vt 0.21875 0.359375
vt 0.21875 0.40625
vt 0.304688 0.625
vt 0.304688 0.671875
vt 0.21875 0.671875
vt 0.234375 0.359375
vt 0.234375 0.40625
vt 0.21875 0.40625
vt 0.5 0.65625
vt 0.5 0.640625
vt 0.585938 0.640625
vt 0.515625 0.875
vt 0.515625 0.890625
vt 0.601562 0.890625
vt 0.492188 0.84375
vt 0.492188 0.859375
vt 0.4375 0.859375
vt 0.359375 0.875
vt 0.375 0.875
vt 0.375 0.890625
vt 0.601562 0.953125
vt 0.601562 0.96875
vt 0.546875 0.96875
vt 0.484375 0.59375
vt 0.484375 0.609375
vt 0.46875 0.609375
vt 0.546875 0.6875
vt 0.546875 0.671875
vt 0.601562 0.671875
vt 0.546875 0.46875
vt 0.546875 0.484375
vt 0.601562 0.484375
vt 0.625 0.578125
vt 0.646484 0.578125
vt 0.646484 0.59375
vt 0.484375 0.703125
vt 0.498047 0.703125
vt 0.498047 0.71875
vt 0.224609 0.34375
vt 0.224609 0.359375
vt 0.203125 0.359375
vt 0.216797 0.484375
vt 0.216797 0.5
vt 0.203125 0.5
vt 0.662109 0.734375
vt 0.640625 0.734375
vt 0.640625 0.720703
vt 0.296875 0.345703
vt 0.296875 0.359375
vt 0.318359 0.359375
vt 0.662109 0.75
vt 0.662109 0.765625
vt 0.640625 0.765625
vt 0.576172 0.859375
vt 0.576172 0.875
vt 0.5625 0.875
vt 0.640625 0.734375
vt 0.662109 0.734375
vt 0.662109 0.75
vt 0.091797 0.40625
vt 0.091797 0.421875
vt 0.078125 0.421875
vt 0.328125 0.359375
vt 0.328125 0.345703
vt 0.349609 0.345703
vt 0.662109 0.642578
vt 0.640625 0.642578
vt 0.640625 0.65625
vt 0.429688 0.84375
vt 0.429688 0.890625
vt 0.375 0.890625
vt 0.595703 0.828125
vt 0.595703 0.875
vt 0.578125 0.875
vt 0.460938 0.59375
vt 0.460938 0.640625
vt 0.40625 0.640625
vt 0.171875 0.375
vt 0.189453 0.375
vt 0.189453 0.421875
vt 0.53125 0.453125
vt 0.53125 0.435547
vt 0.585938 0.435547
vt 0.5625 0.904297
vt 0.5625 0.921875
vt 0.617188 0.921875
vt 0.5625 0.890625
vt 0.5625 0.921875
vt 0.515625 0.921875
vt 0.345703 0.3125
vt 0.345703 0.34375
vt 0.34375 0.34375
vt 0.5625 0.796875
vt 0.5625 0.828125
vt 0.515625 0.828125
vt 0.65625 0.453125
vt 0.658203 0.453125
vt 0.658203 0.484375
vt 0.640625 0.5625
vt 0.640625 0.560547
vt 0.6875 0.560547
vt 0.640625 0.544922
vt 0.640625 0.546875
vt 0.6875 0.546875
vt 0.351562 0.5
vt 0.351562 0.5625
vt 0.3125 0.5625
vt 0.296875 0.484375
vt 0.296875 0.546875
vt 0.265625 0.546875
vt 0.398438 0.5
vt 0.398438 0.5625
vt 0.359375 0.5625
vt 0.4375 0.484375
vt 0.4375 0.546875
vt 0.40625 0.546875
vt 0.40625 0.484375
vt 0.40625 0.453125
vt 0.445312 0.453125
vt 0.53125 0.609375
vt 0.53125 0.640625
vt 0.570312 0.640625
vt 0.234375 0.341797
vt 0.234375 0.34375
vt 0.203125 0.34375
vt 0.6875 0.779297
vt 0.6875 0.78125
vt 0.65625 0.78125
vt 0.28125 0.341797
vt 0.28125 0.34375
vt 0.25 0.34375
vt 0.28125 0.341797
vt 0.3125 0.341797
vt 0.3125 0.34375
vt 0.21875 0.703125
vt 0.21875 0.671875
vt 0.25 0.671875
vt 0.40625 0.890625
vt 0.40625 0.921875
vt 0.4375 0.921875
vt 0.34375 0.341797
vt 0.34375 0.34375
vt 0.3125 0.34375
vt 0.6875 0.685547
vt 0.6875 0.6875
vt 0.65625 0.6875
vt 0.6875 0.669922
vt 0.6875 0.671875
vt 0.65625 0.671875
vt 0.65625 0.623047
vt 0.6875 0.623047
vt 0.6875 0.625
vt 0.546875 1
vt 0.546875 0.96875
vt 0.578125 0.96875
vt 0.171875 0.421875
vt 0.171875 0.453125
vt 0.203125 0.453125
vt 0.351562 0.5
vt 0.351562 0.5625
vt 0.3125 0.5625
vt 0.296875 0.484375
vt 0.296875 0.546875
vt 0.265625 0.546875
vt 0.398438 0.5
vt 0.398438 0.5625
vt 0.359375 0.5625
vt 0.4375 0.484375
vt 0.4375 0.546875
vt 0.40625 0.546875
vt 0.40625 0.484375
vt 0.40625 0.453125
vt 0.445312 0.453125
vt 0.53125 0.609375
vt 0.53125 0.640625
vt 0.570312 0.640625
vt 0.34375 0.341797
vt 0.34375 0.34375
vt 0.3125 0.34375
vt 0.6875 0.685547
vt 0.6875 0.6875
vt 0.65625 0.6875
vt 0.6875 0.669922
vt 0.6875 0.671875
vt 0.65625 0.671875
vt 0.65625 0.623047
vt 0.6875 0.623047
vt 0.6875 0.625
vt 0.546875 1
vt 0.546875 0.96875
vt 0.578125 0.96875
vt 0.171875 0.421875
vt 0.171875 0.453125
vt 0.203125 0.453125
vt 0.234375 0.341797
vt 0.234375 0.34375
vt 0.203125 0.34375
vt 0.6875 0.779297
vt 0.6875 0.78125
vt 0.65625 0.78125
vt 0.28125 0.341797
vt 0.28125 0.34375
vt 0.25 0.34375
vt 0.28125 0.341797
vt 0.3125 0.341797
vt 0.3125 0.34375
vt 0.21875 0.703125
vt 0.21875 0.671875
vt 0.25 0.671875
vt 0.40625 0.890625
vt 0.40625 0.921875
vt 0.4375 0.921875
vt 0.492188 0.9375
vt 0.492188 1
vt 0.453125 1
vt 0.46875 0.484375
vt 0.46875 0.546875
vt 0.4375 0.546875
vt 0.257812 0.484375
vt 0.257812 0.546875
vt 0.21875 0.546875
vt 0.03125 0.46875
vt 0.03125 0.53125
vt 0 0.53125
vt 0.53125 0.609375
vt 0.53125 0.578125
vt 0.570312 0.578125
vt 0.53125 0.515625
vt 0.53125 0.546875
vt 0.570312 0.546875
vt 0.6875 0.607422
vt 0.6875 0.609375
vt 0.65625 0.609375
vt 0.4375 0.341797
vt 0.4375 0.34375
vt 0.40625 0.34375
vt 0.6875 0.591797
vt 0.6875 0.59375
vt 0.65625 0.59375
vt 0.65625 0.576172
vt 0.6875 0.576172
vt 0.6875 0.578125
vt 0.546875 0.71875
vt 0.546875 0.6875
vt 0.578125 0.6875
vt 0.296875 0.421875
vt 0.296875 0.453125
vt 0.328125 0.453125
vt 0.46875 0.341797
vt 0.46875 0.34375
vt 0.4375 0.34375
vt 0.5 0.341797
vt 0.5 0.34375
vt 0.46875 0.34375
vt 0.6875 0.513672
vt 0.6875 0.515625
vt 0.65625 0.515625
vt 0.65625 0.498047
vt 0.6875 0.498047
vt 0.6875 0.5
vt 0.328125 0.453125
vt 0.328125 0.421875
vt 0.359375 0.421875
vt 0.359375 0.421875
vt 0.359375 0.453125
vt 0.390625 0.453125
vt 0.4375 0.341797
vt 0.46875 0.341797
vt 0.46875 0.34375
vt 0.46875 0.341797
vt 0.5 0.341797
vt 0.5 0.34375
vt 0.65625 0.513672
vt 0.6875 0.513672
vt 0.6875 0.515625
vt 0.6875 0.498047
vt 0.6875 0.5
vt 0.65625 0.5
vt 0.328125 0.453125
vt 0.328125 0.421875
vt 0.359375 0.421875
vt 0.359375 0.421875
vt 0.359375 0.453125
vt 0.390625 0.453125
vt 0.65625 0.607422
vt 0.6875 0.607422
vt 0.6875 0.609375
vt 0.4375 0.341797
vt 0.4375 0.34375
vt 0.40625 0.34375
vt 0.65625 0.591797
vt 0.6875 0.591797
vt 0.6875 0.59375
vt 0.65625 0.576172
vt 0.6875 0.576172
vt 0.6875 0.578125
vt 0.546875 0.71875
vt 0.546875 0.6875
vt 0.578125 0.6875
vt 0.296875 0.421875
vt 0.296875 0.453125
vt 0.328125 0.453125
vt 0.53418 0.34082
vt 0.53418 0.34375
vt 0.53125 0.34375
vt 0.4375 0.356445
vt 0.4375 0.359375
vt 0.40625 0.359375
vt 0.549805 0.34082
vt 0.549805 0.34375
vt 0.546875 0.34375
vt 0.5 0.356445
vt 0.5 0.359375
vt 0.46875 0.359375
vt 0.5 0.359375
vt 0.5 0.328125
vt 0.50293 0.328125
vt 0.515625 0.328125
vt 0.515625 0.359375
vt 0.518555 0.359375
vt 0.65918 0.450195
vt 0.65918 0.453125
vt 0.65625 0.453125
vt 0.671875 0.52832
vt 0.671875 0.53125
vt 0.640625 0.53125
vt 0.56543 0.34082
vt 0.56543 0.34375
vt 0.5625 0.34375
vt 0.5625 0.356445
vt 0.5625 0.359375
vt 0.53125 0.359375
vt 0.640625 0.453125
vt 0.640625 0.421875
vt 0.643555 0.421875
vt 0.046875 0.3125
vt 0.046875 0.34375
vt 0.049805 0.34375
vt 0.65918 0.43457
vt 0.65918 0.4375
vt 0.65625 0.4375
vt 0.6875 0.96582
vt 0.6875 0.96875
vt 0.65625 0.96875
vt 0.581055 0.34082
vt 0.581055 0.34375
vt 0.578125 0.34375
vt 0.6875 0.887695
vt 0.6875 0.890625
vt 0.65625 0.890625
vt 0.0625 0.34375
vt 0.0625 0.3125
vt 0.06543 0.3125
vt 0.65625 0.84375
vt 0.65625 0.875
vt 0.65918 0.875
vn 0 1 0
vn 1 0 0
vn 0 -1 0
vn -1 0 0
vn 0 0 1
vn 0 0 -1
vn 0.12187346222257885 -0.0000048479259598833855 -0.9925456458936179
vn 0.9911856644515621 0.05233373314165 0.12170521336891918
vn -0.12187310044019166 -0.000002107891342362082 0.9925456903259677
vn -0.9911856644515621 -0.05233373314165001 -0.12170521336891969
vn -0.051940393588856354 0.9986298219727204 -0.006377631266181746
vn 0.0519403935888587 -0.9986298219727203 0.006377631266182051
vn -0.8746164663103421 0 -0.48481546681063137
vn 0.4848097865625382 0 -0.8746196149487995
vn 0.874616466310342 0 0.4848154668106314
vn -0.4848097865625385 0 0.8746196149487993
vn 0 1 0
vn 0 -1 0
vn 0.8746164663103421 0 -0.48481546681063137
vn 0.4848097865625385 0 0.8746196149487993
vn -0.874616466310342 0 0.4848154668106314
vn -0.4848097865625382 0 -0.8746196149487995
vn 0 1 0
vn 0 -1 0
vn 0 0 0
vn 0 0 0
vn 0 0 0
vn 0 0 0
vn -0.984807549610884 0.17364933120921083 0
vn 0.984807549610884 -0.17364933120921083 0
vn -0.9148781982851383 0.13923986341362823 -0.3789592890260023
vn 0.3826837361813759 -0.000004181174970603582 -0.9238794066569409
vn 0.9148998790826266 -0.13907286537692393 0.3789682696090099
vn -0.38269160835823635 -0.00005645410985590574 0.9238761441368208
vn 0.12857435015841653 0.9902687706238117 0.05325784832816392
vn -0.12858199167775258 -0.9902676680823984 -0.053259900176692125
vn 0.12860841237108422 0.9902636236443901 0.053271305165830896
vn 0.3827554030619273 -0.000005278676938631556 -0.923849717973133
vn -0.1284554266310927 -0.9902868521439495 -0.053208588027232585
vn -0.3827540580389672 0.00001562971886731318 0.9238502751043672
vn 0.9148863870046039 -0.13917681317600505 0.37896268094343244
vn -0.9148881709003555 0.13917571062410292 -0.37895877918169196
vn 0 0.13917540203695308 -0.9902677453435776
vn 1 0 0
vn 0 -0.139168659527407 0.9902686929340666
vn -1 0 0
vn 0 0.9902675903840615 0.13917650460815803
vn 0 -0.9902688478762862 -0.1391675570158974
vn 0 0.2079134522922041 -0.9781472263191966
vn 0 0 0
vn 0 -0.2079134522922041 0.9781472263191966
vn 0 0 0
vn 0 0 0
vn 0 0 0
vn 0 0 -1
vn 1 0 0
vn 0 0 1
vn -1 0 0
vn 0 1 0
vn 0 -1 0
vn 0.021737944225926314 0.20677314015422182 -0.9781473970172354
vn 0.9579456458084283 0.2756994507509077 0.0795609988142515
vn -0.021736431069455643 -0.2067731872575969 0.9781474206865229
vn -0.9579455838140145 -0.2756988608450832 -0.07956378937651437
vn -0.286128057324933 0.9387391688101288 0.19209244585128482
vn 0.28612174086996395 -0.9387415469682339 -0.1920902324357705
vn -0.2548900487990172 0.9449073849000093 -0.20538037146879543
vn 0.9579429471670671 0.2757085719931401 0.07956188347681009
vn 0.25489071301011645 -0.9449082741766572 0.20537545572362345
vn -0.9579440715969043 -0.27570440371256855 -0.07956278945488288
vn -0.13180019287809772 0.1764581969517452 0.9754441111031608
vn 0.13180019287809738 -0.1764581969517453 -0.9754441111031608
vn 0.2884836590862732 -0.9356609830916488 -0.20326264575707062
vn 0.9574807134113478 0.281286822355768 0.06409685650865728
vn -0.28847742688414163 0.9356628139575071 0.20326306293919807
vn -0.9574820191487874 -0.28128317552670534 -0.06409335513431808
vn 0.0027981009423279327 0.21311172374210208 -0.9770238297169557
vn -0.002798100942328177 -0.21311172374210124 0.9770238297169558
vn 0.08702023191293538 -0.06976077356085233 -0.9937609942586851
vn 0.957482706945059 0.2812824439372336 0.06408629052972004
vn -0.08701976725396698 0.06976091006556918 0.9937610253646946
vn -0.9574829595769664 -0.28128156488034023 -0.06408637435680609
vn -0.2750542064368031 0.9570869188313897 -0.09126781099192288
vn 0.27505924875676635 -0.957083977728106 0.09128345550815682
vn 0 0 -1
vn 1 0 0
vn 0 0 1
vn -1 0 0
vn 0 1 0
vn 0 -1 0
vn -0.25488223437536306 0.9449088995900854 -0.20538310075387514
vn 0.9579481703604535 0.27568851840920977 0.07956848446712142
vn 0.2548892271487394 -0.9449088384851302 0.20537470349631812
vn -0.9579482994345584 -0.27568834561092426 -0.07956752921103948
vn -0.13180122325797372 0.17645059524874726 0.9754453470000586
vn 0.13180483967976814 -0.17646400181227812 -0.9754424331047871
vn -0.2548895603044991 0.9449092845110219 -0.20537223788196887
vn 0.9579438780167158 0.2757057957477721 0.0795602963882329
vn 0.25488376719329686 -0.9449109517651682 0.20537175671352054
vn -0.9579434307675972 -0.27570639454562107 -0.07956360635278083
vn -0.1318050052527231 0.17646461561506604 0.9754422996908413
vn 0.13180500525272332 -0.17646461561506666 -0.975442299690841
vn 0 0 -1
vn 1 0 0
vn 0 0 1
vn -1 0 0
vn 0 1 0
vn 0 -1 0
vn 0 0 -1
vn 1 0 0
vn 0 0 1
vn -1 0 0
vn 0 1 0
vn 0 -1 0
vn -0.021737169296648047 0.2067756826357841 -0.978146876773358
vn 0.9579455066276338 -0.2756987922669321 -0.07956495632174508
vn 0.02172927302945636 -0.20677341007532668 0.9781475326245179
vn -0.9579457120864953 0.2756984400000957 0.07956370326104248
vn 0.28612671652134997 0.9387401149740083 0.1920898191765943
vn -0.2861215047858473 -0.9387437926316508 -0.1920796092629997
vn 0.2548837671932982 0.9449109517651678 -0.20537175671352062
vn 0.9579478753758641 -0.2756896120053731 -0.07956824677718541
vn -0.25488922714873935 -0.9449088384851303 0.20537470349631826
vn -0.9579474295925735 0.275692629569691 0.07956315816966308
vn 0.1318012232579736 0.17645059524874676 0.9754453470000588
vn -0.13180441202571827 -0.176466738534913 -0.9754419957954473
vn 0.2548844161719119 0.944910086410623 -0.20537493272591134
vn 0.9579440715969043 -0.27570440371256855 -0.07956278945488288
vn -0.2548907130101163 -0.9449082741766569 0.20537545572362456
vn -0.9579431409746446 0.2757083125182476 0.07956044914385839
vn 0.1318001928780977 0.17645819695174522 0.9754441111031608
vn -0.13179973659980362 -0.17646120321377487 -0.9754436289158741
vn 0.254889560304499 0.9449092845110219 -0.2053722378819689
vn 0.9579434307675971 -0.2757063945456211 -0.07956360635278151
vn -0.25488223437536145 -0.9449088995900853 0.2053831007538775
vn -0.9579444529561167 0.27570260524349977 0.0795644299455048
vn 0.1318050052527235 0.17646461561506654 0.9754422996908411
vn -0.13180435102233917 -0.17646219028958574 -0.9754428268482895
vn -0.2884836590862731 -0.9356609830916488 -0.20326264575707076
vn 0.9574820191487872 -0.28128317552670645 -0.06409335513431771
vn 0.28848368371739197 0.9356591063590076 0.2032712496058088
vn -0.9574820191487871 0.2812831755267066 0.0640933551343186
vn -0.002798100942327932 0.2131117237421021 -0.9770238297169557
vn 0.002797117261590519 -0.21311491418682144 0.9770231366176385
vn -0.0870201692569708 -0.06976055554653926 -0.9937610150495573
vn 0.9574830985227099 -0.28128212995990975 -0.06408181808100645
vn 0.08701976725396701 0.06976091006556917 0.9937610253646946
vn -0.957482706945059 0.2812824439372336 0.06408629052972008
vn 0.2750542064368034 0.95708691883139 -0.09126781099191943
vn -0.27505420643680334 -0.95708691883139 0.09126781099191948
vn 0 0.20791042227473527 -0.9781478703700894
vn 1 0 0
vn 0 -0.20791222999199097 0.9781474861286297
vn -1 0 0
vn 0 0.9781464468967269 0.20791711912035749
vn 0 -0.9781497007169386 -0.20790181092853272
vn 0 0.2079131282015351 -0.9781472952073488
vn 1 0 0
vn 0 -0.2079108841310032 0.9781477722000212
vn -1 0 0
vn 0 0.9781497007169387 0.20790181092853283
vn 0 -0.9781464468967268 -0.20791711912035749
vn 0.0000025756260062145446 0.20791036044808558 -0.9781478835082726
vn 0.7071027933897522 0.6916572748507002 0.14702331014676698
vn -0.000003695735091963816 -0.20791145609191378 0.9781476506193131
vn -0.7071027934164653 -0.6916601509246189 -0.14700977914943392
vn -0.7071071742329036 0.6916558658523383 0.14700886837334148
vn 0.7071071742329036 -0.6916558658523383 -0.14700886837334162
vn -0.0000025756260062099876 0.2079103604480856 -0.9781478835082726
vn 0.7071027934164652 -0.6916601509246187 -0.14700977914943397
vn 0.0000036957350919000106 -0.2079114560919142 0.9781476506193131
vn -0.7071027933897522 0.6916572748507002 0.14702331014676687
vn 0.7071034479591279 0.6916566345931859 0.14702317404933476
vn -0.7071034479591279 -0.6916566345931859 -0.14702317404933465
vn 0 0.03490147621015568 -0.9993907578912026
vn 1 0 0
vn 0 -0.0349012901825837 0.99939076438778
vn -1 0 0
vn 0 0.9993909504001995 0.034895963350882506
vn 0 -0.9993903922779717 -0.03491194383705997
vn 0 0.03489596335088257 -0.9993909504001995
vn 1 0 0
vn 0 -0.03489596335088294 0.9993909504001994
vn -1 0 0
vn 0 0.9993903922779718 0.03491194383705998
vn 0 -0.9993903922779716 -0.03491194383706176
vn -0.000010030013972480039 0.03490092023563649 -0.9993907772568771
vn 0.7071060585410462 -0.706676360976626 -0.024688920822507322
vn 0.0000019536334048347923 -0.03489284894196035 0.999391059139963
vn -0.7071143328548525 0.7066685301558497 0.02467607664536589
vn 0.7071051543840928 0.7066776878031731 0.024676835384818716
vn -0.7071049549653368 -0.7066779024091121 -0.024676403913993245
vn -0.000009353080229949539 0.03490414882515249 -0.9993906645087853
vn 0.7071140536816141 0.7066688091648908 0.024676086388050314
vn -0.0000012768875078724741 -0.03489296166579709 0.9993910552053981
vn -0.7071140536816143 -0.7066688091648907 -0.024676086388051712
vn -0.7071106656540163 0.7066717566521511 0.02468875996272949
vn 0.7071049549653374 -0.7066779024091115 -0.02467640391399459
vn 0 0.034901476210155685 -0.9993907578912026
vn 1 0 0
vn 0 -0.0349012901825837 0.9993907643877801
vn -1 0 0
vn 0 0.9993909975837445 0.03489461202776159
vn 0 -0.9993904902285531 -0.03490913978792114
vn 0 0.0436240008794593 -0.9990480201408083
vn 1 0 0
vn 0 -0.04362400087946019 0.9990480201408083
vn -1 0 0
vn 0 0.99904556270118 0.04368024321226596
vn 0 -0.99904556270118 -0.04368024321226674
vn 0 0 -1
vn 1 0 0
vn 0 0 1
vn -1 0 0
vn 0 1 0
vn 0 -1 0
vn 0 0.1392033480478245 -0.9902638173195446
vn 1 0 0
vn 0 -0.1390464394453364 0.9902858615963244
vn -1 0 0
vn 0 0.9902675903840615 0.13917650460815803
vn 0 -0.9902677453435774 -0.13917540203695405
vn 0 0.9902638173195459 0.1392033480478158
vn 1 0 0
vn 0 -0.9902858615963238 -0.13904643944534076
vn -1 0 0
vn 0 -0.13917650460815717 0.9902675903840616
vn 0 0.13917540203695333 -0.9902677453435776
vn 0 0 -1
vn 1 0 0
vn 0 0 1
vn -1 0 0
vn 0 1 0
vn 0 -1 0
vn 0 0.9902638173195459 0.1392033480478158
vn 1 0 0
vn 0 -0.9902858615963238 -0.13904643944534076
vn -1 0 0
vn 0 -0.13917650460815717 0.9902675903840616
vn 0 0.13917540203695333 -0.9902677453435776
vn 0 0.1392033480478245 -0.9902638173195446
vn 1 0 0
vn 0 -0.1390464394453364 0.9902858615963244
vn -1 0 0
vn 0 0.9902675903840615 0.13917650460815803
vn 0 -0.9902677453435774 -0.13917540203695405
vn 0 0 -1
vn 1 0 0
vn 0 0 1
vn -1 0 0
vn 0 1 0
vn 0 -1 0
vn 0 0.9902638173195459 0.1392033480478158
vn 1 0 0
vn 0 -0.9902858615963238 -0.13904643944534076
vn -1 0 0
vn 0 -0.13917650460815717 0.9902675903840616
vn 0 0.13917540203695333 -0.9902677453435776
vn 0 0.1392033480478245 -0.9902638173195446
vn 1 0 0
vn 0 -0.1390464394453364 0.9902858615963244
vn -1 0 0
vn 0 0.9902675903840615 0.13917650460815803
vn 0 -0.9902677453435774 -0.13917540203695405
vn 0.9148809991558771 0.13923986344364905 -0.37895252712145644
vn 0.38268373609535367 0.000004181837459739972 0.9238794066925695
vn -0.9148998206947293 -0.13909490121800275 0.37896032318424355
vn -0.3826916087714337 0.000056454047031924354 -0.9238761439656684
vn -0.1285819916777542 0.9902676680823982 0.053259900176692826
vn 0.12858159802816851 -0.9902676680824791 -0.05326085052842766
vn -0.12860077774966727 0.9902648100708232 0.05326768154873219
vn 0.3827540603428553 0.000015629943087425373 0.9238502741498553
vn 0.12845542663109238 -0.9902868521439495 -0.05320858802723248
vn -0.3826192122288833 0.000007974707482282223 -0.9239061307133711
vn -0.9148873280906918 -0.13916956528047442 0.3789630707585088
vn 0.9148887221751805 0.1391714649301554 -0.3789590075270147
vn 0 0 -1
vn 1 0 0
vn 0 0 1
vn -1 0 0
vn 0 1 0
vn 0 -1 0
vn 0 0 -1
vn 1 0 0
vn 0 0 1
vn -1 0 0
vn 0 1 0
vn 0 -1 0
vn 0 1 0
vn 1 0 0
vn 0 -1 0
vn -1 0 0
vn 0 0 1
vn 0 0 -1
vn 0 1 0
vn 1 0 0
vn 0 -1 0
vn -1 0 0
vn 0 0 1
vn 0 0 -1
vn 0.12186389504639203 0.0000016218548470790156 -0.9925468205991552
vn 0.9911873718606958 0.05234262394560218 0.12168748326091797
vn -0.12187310044019163 -0.0000021078913423701804 0.9925456903259677
vn -0.9911856644515621 -0.05233373314164991 -0.12170521336891947
vn -0.05194112387974986 0.9986297894195904 -0.006376780840947437
vn 0.05194039358885869 -0.9986298219727203 0.006377631266182028
vn -0.8746164663103421 0 -0.48481546681063137
vn 0.4848097865625382 0 -0.8746196149487995
vn 0.874616466310342 0 0.4848154668106314
vn -0.4848097865625385 0 0.8746196149487993
vn 0 1 0
vn 0 -1 0
vn 0.8746164663103421 0 -0.48481546681063137
vn 0.4848097865625385 0 0.8746196149487993
vn -0.874616466310342 0 0.4848154668106314
vn -0.4848097865625382 0 -0.8746196149487995
vn 0 1 0
vn 0 -1 0
vn 0 0 0
vn 0 0 0
vn 0 0 0
vn 0 0 0
vn -0.984807549610884 0.17364933120921083 0
vn 0.984807549610884 -0.17364933120921083 0
vn -0.9148998206947295 0.1390949012180029 -0.3789603231842434
vn 0.38268373612596074 -0.000004181842115560057 -0.9238794066798917
vn 0.9148838644426485 -0.13921780513045712 0.3789537139508514
vn -0.38269160761033594 -0.000056445103361892964 0.9238761444471695
vn 0.1285743501584165 0.9902687706238116 0.05325784832816394
vn -0.12858199167775258 -0.9902676680823984 -0.05325990017669215
vn 0.12860077774966727 0.9902648100708232 0.05326768154873219
vn 0.3826192122288833 0.000007974707482282223 -0.9239061307133711
vn -0.12845542663109238 -0.9902868521439495 -0.05320858802723248
vn -0.3827540603428553 0.000015629943087425373 0.9238502741498553
vn 0.9148901289915642 -0.1391695652936997 0.3789563087873879
vn -0.9148870814369922 0.13917146495288382 -0.37896296859003326
vn 0 0.13917540203695308 -0.9902677453435776
vn 1 0 0
vn 0 -0.139168659527407 0.9902686929340666
vn -1 0 0
vn 0 0.9902675903840615 0.13917650460815803
vn 0 -0.9902688478762862 -0.1391675570158974
vn 0 0.2079134522922041 -0.9781472263191966
vn 0 0 0
vn 0 -0.2079134522922041 0.9781472263191966
vn 0 0 0
vn 0 0 0
vn 0 0 0
vn 0 0 -1
vn 1 0 0
vn 0 0 1
vn -1 0 0
vn 0 1 0
vn 0 -1 0
vn 0.021729273029456275 0.20677341007532668 -0.9781475326245179
vn 0.9579457120864953 0.2756984400000957 0.07956370326104248
vn -0.02172927302945636 -0.20677341007532668 0.9781475326245179
vn -0.9579455066276338 -0.2756987922669321 -0.07956495632174508
vn -0.28612671652134997 0.9387401149740083 0.1920898191765943
vn 0.2861264805233128 -0.9387423606096804 -0.1920791960111954
vn -0.2548844161719119 0.944910086410623 -0.20537493272591134
vn 0.9579442654004937 0.27570414424552214 0.07956135514276311
vn 0.2548907130101177 -0.9449082741766565 0.20537545572362464
vn -0.9579440715969043 -0.27570440371256855 -0.07956278945488288
vn -0.1318001928780977 0.17645819695174522 0.9754441111031608
vn 0.13179973659980362 -0.17646120321377487 -0.9754436289158741
vn 0.2884836590862731 -0.9356609830916488 -0.20326264575707076
vn 0.9574820191487871 0.2812831755267066 0.0640933551343186
vn -0.28848368371739197 0.9356591063590076 0.2032712496058088
vn -0.9574820191487872 -0.28128317552670645 -0.06409335513431771
vn 0.002798100942327932 0.2131117237421021 -0.9770238297169557
vn -0.0027985367649196223 -0.21311533120536166 0.9770230415897081
vn 0.08701970459933206 -0.06976069205040286 -0.9937610461555101
vn 0.957482706945059 0.2812824439372336 0.06408629052972008
vn -0.08701976725396701 0.06976091006556917 0.9937610253646946
vn -0.9574830985227099 -0.28128212995990975 -0.06408181808100645
vn -0.2750542064368048 0.9570869188313895 -0.09126781099191958
vn 0.27505420643680334 -0.95708691883139 0.09126781099191948
vn 0 0 -1
vn 1 0 0
vn 0 0 1
vn -1 0 0
vn 0 1 0
vn 0 -1 0
vn -0.2548895603045007 0.944909284511022 -0.20537223788196649
vn 0.9579474295925735 0.275692629569691 0.07956315816966308
vn 0.25488922714873935 -0.9449088384851303 0.20537470349631826
vn -0.9579478753758641 -0.2756896120053731 -0.07956824677718541
vn -0.13180122325797383 0.17645059524874673 0.9754453470000588
vn 0.13180441202571827 -0.176466738534913 -0.9754419957954473
vn -0.254889560304499 0.9449092845110219 -0.2053722378819689
vn 0.9579444529561167 0.27570260524349977 0.0795644299455048
vn 0.25488802747668826 -0.9449072323431813 0.20538358190126255
vn -0.9579434307675974 -0.27570639454562035 -0.07956360635278172
vn -0.1318050052527235 0.17646461561506654 0.9754422996908411
vn 0.13180326915824409 -0.1764625016568335 -0.975442916704105
vn 0 0 -1
vn 1 0 0
vn 0 0 1
vn -1 0 0
vn 0 1 0
vn 0 -1 0
vn 0 0 -1
vn 1 0 0
vn 0 0 1
vn -1 0 0
vn 0 1 0
vn 0 -1 0
vn -0.021730047971153386 0.20677086760111182 -0.9781480528665663
vn 0.9579455838140145 -0.2756988608450832 -0.07956378937651437
vn 0.021736431069455643 -0.2067731872575969 0.9781474206865229
vn -0.9579456458084283 0.2756994507509077 0.0795609988142515
vn 0.286128057324933 0.9387391688101288 0.19209244585128482
vn -0.28612671652135 -0.9387401149740083 -0.1920898191765943
vn 0.25488802747668865 0.9449072323431816 -0.20538358190126
vn 0.9579482994345584 -0.27568834561092426 -0.07956752921103948
vn -0.2548892271487394 -0.9449088384851302 0.20537470349631812
vn -0.9579481703604535 0.27568851840920977 0.07956848446712142
vn 0.13180122325797392 0.17645059524874715 0.9754453470000586
vn -0.13180483967976814 -0.17646400181227812 -0.9754424331047871
vn 0.2548900487990172 0.9449073849000093 -0.20538037146879543
vn 0.9579440715969043 -0.27570440371256855 -0.07956278945488288
vn -0.25489071301011784 -0.9449082741766567 0.20537545572362353
vn -0.9579440715969044 0.2757044037125689 0.07956278945488258
vn 0.13180019287809772 0.1764581969517452 0.9754441111031608
vn -0.13180019287809738 -0.1764581969517453 -0.9754441111031608
vn 0.2548895603044991 0.9449092845110219 -0.20537223788196887
vn 0.9579434307675974 -0.2757063945456201 -0.07956360635278097
vn -0.2548895603045007 -0.944909284511022 0.20537223788196657
vn -0.9579438780167158 0.2757057957477721 0.0795602963882329
vn 0.1318050052527231 0.17646461561506604 0.9754422996908413
vn -0.1318039233749133 -0.17646492699087343 -0.9754423895469613
vn -0.2884836590862732 -0.9356609830916488 -0.20326264575707062
vn 0.9574820191487874 -0.28128317552670534 -0.06409335513431808
vn 0.28847742688414163 0.9356628139575071 0.20326306293919807
vn -0.9574807134113478 0.281286822355768 0.06409685650865728
vn -0.0027981009423279327 0.21311172374210208 -0.9770238297169557
vn 0.002799520426331325 -0.2131121407481556 0.9770237346918041
vn -0.08701976725396715 -0.06976091006556914 -0.9937610253646946
vn 0.9574829595769664 -0.28128156488034023 -0.06408637435680609
vn 0.08701976725396698 0.06976091006556918 0.9937610253646946
vn -0.957482706945059 0.2812824439372336 0.06408629052972004
vn 0.27505420643680456 0.9570869188313894 -0.09126781099192297
vn -0.27505924875676635 -0.957083977728106 0.09128345550815682
vn 0 0.20791042227473527 -0.9781478703700894
vn 1 0 0
vn 0 -0.20791222999199097 0.9781474861286297
vn -1 0 0
vn 0 0.9781464468967269 0.20791711912035749
vn 0 -0.9781497007169386 -0.20790181092853272
vn 0 0.2079131282015351 -0.9781472952073488
vn 1 0 0
vn 0 -0.2079108841310032 0.9781477722000212
vn -1 0 0
vn 0 0.9781497007169387 0.20790181092853283
vn 0 -0.9781464468967268 -0.20791711912035749
vn 0.0000025756260062099876 0.2079103604480856 -0.9781478835082726
vn 0.7071027933897522 0.6916572748507002 0.14702331014676687
vn -0.0000036957350919000106 -0.2079114560919142 0.9781476506193131
vn -0.7071027934164652 -0.6916601509246187 -0.14700977914943397
vn -0.7071034479591279 0.6916566345931859 0.14702317404933476
vn 0.7071034479591279 -0.6916566345931859 -0.14702317404933465
vn -0.0000025756260062145446 0.20791036044808558 -0.9781478835082726
vn 0.7071027934164653 -0.6916601509246189 -0.14700977914943392
vn 0.000003695735091963816 -0.20791145609191378 0.9781476506193131
vn -0.7071027933897522 0.6916572748507002 0.14702331014676698
vn 0.7071071742329036 0.6916558658523383 0.14700886837334148
vn -0.7071071742329036 -0.6916558658523383 -0.14700886837334162
vn 0 0.03490147621015568 -0.9993907578912026
vn 1 0 0
vn 0 -0.0349012901825837 0.99939076438778
vn -1 0 0
vn 0 0.9993909504001995 0.034895963350882506
vn 0 -0.9993903922779717 -0.03491194383705997
vn 0 0.03489596335088257 -0.9993909504001995
vn 1 0 0
vn 0 -0.03489596335088294 0.9993909504001994
vn -1 0 0
vn 0 0.9993903922779718 0.03491194383705998
vn 0 -0.9993903922779716 -0.03491194383706176
vn 0.000009353080229949539 0.03490414882515249 -0.9993906645087853
vn 0.7071140536816143 -0.7066688091648907 -0.024676086388051712
vn 0.0000012768875078724741 -0.03489296166579709 0.9993910552053981
vn -0.7071140536800715 0.7066687938570017 0.024676524812616774
vn 0.7071106656540163 0.7066717566521511 0.02468875996272949
vn -0.7071049549653374 -0.7066779024091115 -0.02467640391399459
vn 0.000010030013972480039 0.03490092023563649 -0.9993907772568771
vn 0.70711433285827 0.7066685148430092 0.02467651506958608
vn -0.0000019536334048347923 -0.03489284894196035 0.999391059139963
vn -0.7071060585410462 -0.706676360976626 -0.024688920822507322
vn -0.7071051543840928 0.7066776878031731 0.024676835384818716
vn 0.7071049549653368 -0.7066779024091121 -0.024676403913993245
vn 0 0.034901476210155685 -0.9993907578912026
vn 1 0 0
vn 0 -0.0349012901825837 0.9993907643877801
vn -1 0 0
vn 0 0.9993909975837445 0.03489461202776159
vn 0 -0.9993904902285531 -0.03490913978792114
vn 0 0.0436240008794593 -0.9990480201408083
vn 1 0 0
vn 0 -0.04362400087946019 0.9990480201408083
vn -1 0 0
vn 0 0.99904556270118 0.04368024321226596
vn 0 -0.99904556270118 -0.04368024321226674
vn 0 0 -1
vn 1 0 0
vn 0 0 1
vn -1 0 0
vn 0 1 0
vn 0 -1 0
vn 0 0.1392033480478245 -0.9902638173195446
vn 1 0 0
vn 0 -0.1390464394453364 0.9902858615963244
vn -1 0 0
vn 0 0.9902675903840615 0.13917650460815803
vn 0 -0.9902677453435774 -0.13917540203695405
vn 0 0.9902638173195459 0.1392033480478158
vn 1 0 0
vn 0 -0.9902858615963238 -0.13904643944534076
vn -1 0 0
vn 0 -0.13917650460815717 0.9902675903840616
vn 0 0.13917540203695333 -0.9902677453435776
vn 0 0 -1
vn 1 0 0
vn 0 0 1
vn -1 0 0
vn 0 1 0
vn 0 -1 0
vn 0 0.9902638173195459 0.1392033480478158
vn 1 0 0
vn 0 -0.9902858615963238 -0.13904643944534076
vn -1 0 0
vn 0 -0.13917650460815717 0.9902675903840616
vn 0 0.13917540203695333 -0.9902677453435776
vn 0 0.1392033480478245 -0.9902638173195446
vn 1 0 0
vn 0 -0.1390464394453364 0.9902858615963244
vn -1 0 0
vn 0 0.9902675903840615 0.13917650460815803
vn 0 -0.9902677453435774 -0.13917540203695405
vn 0 0 -1
vn 1 0 0
vn 0 0 1
vn -1 0 0
vn 0 1 0
vn 0 -1 0
vn 0 0.9902638173195459 0.1392033480478158
vn 1 0 0
vn 0 -0.9902858615963238 -0.13904643944534076
vn -1 0 0
vn 0 -0.13917650460815717 0.9902675903840616
vn 0 0.13917540203695333 -0.9902677453435776
vn 0 0.1392033480478245 -0.9902638173195446
vn 1 0 0
vn 0 -0.1390464394453364 0.9902858615963244
vn -1 0 0
vn 0 0.9902675903840615 0.13917650460815803
vn 0 -0.9902677453435774 -0.13917540203695405
vn 0.9148970197087744 0.1390949016317785 -0.3789670852040432
vn 0.3826837360953538 0.000004181837458065936 0.9238794066925693
vn -0.9148781982851393 -0.1392398634136219 0.3789592890260027
vn -0.3826916087714345 0.00005645404703608785 -0.9238761439656683
vn -0.12858199167775416 0.9902676680823982 0.05325990017669283
vn 0.12858159802816851 -0.9902676680824791 -0.053260850528427654
vn -0.12860841237108422 0.9902636236443901 0.053271305165830896
vn 0.3827540580389672 0.00001562971886731318 0.9238502751043672
vn 0.1284554266310927 -0.9902868521439495 -0.053208588027232585
vn -0.3827554030619273 -0.000005278676938631556 -0.923849717973133
vn -0.9148891878997136 -0.13917681321141948 0.37895591897807346
vn 0.914886530168918 0.13917571060245326 -0.37896274024471055
vn 0 0 -1
vn 1 0 0
vn 0 0 1
vn -1 0 0
vn 0 1 0
vn 0 -1 0
vn 0 0 -1
vn 1 0 0
vn 0 0 1
vn -1 0 0
vn 0 1 0
vn 0 -1 0
vn 0 1 0
vn 1 0 0
vn 0 -1 0
vn -1 0 0
vn 0 0 1
vn 0 0 -1
usemtl m_f164aab6-5e69-4b4c-f0b1-56a2e49ae49c
f 1/1/1 2/2/1 3/3/1
f 3/4/2 4/5/2 5/6/2
f 5/7/3 6/8/3 7/9/3
f 7/10/4 8/11/4 1/12/4
f 4/13/5 8/14/5 6/15/5
f 3/16/6 7/17/6 1/18/6
f 9/19/7 10/20/7 11/21/7
f 11/22/8 12/23/8 13/24/8
f 14/25/9 12/26/9 15/27/9
f 14/28/10 16/29/10 9/30/10
f 12/31/11 16/32/11 15/33/11
f 11/34/12 14/35/12 9/36/12
f 17/37/13 18/38/13 19/39/13
f 19/40/14 20/41/14 21/42/14
f 21/43/15 22/44/15 23/45/15
f 23/46/16 24/47/16 17/48/16
f 20/49/17 24/50/17 22/51/17
f 19/52/18 23/53/18 17/54/18
f 25/55/19 26/56/19 27/57/19
f 27/58/20 28/59/20 29/60/20
f 29/61/21 30/62/21 31/63/21
f 31/64/22 32/65/22 25/66/22
f 28/67/23 32/68/23 30/69/23
f 27/70/24 31/71/24 25/72/24
f 33/73/25 34/74/25 35/75/25
f 36/76/26 35/77/26 37/78/26
f 38/79/27 37/80/27 39/81/27
f 40/82/28 39/83/28 34/84/28
f 37/85/29 34/86/29 39/87/29
f 33/88/30 38/89/30 40/90/30
f 41/91/31 42/92/31 43/93/31
f 41/94/32 44/95/32 45/96/32
f 46/97/33 44/98/33 47/99/33
f 48/100/34 47/101/34 42/102/34
f 44/103/35 42/104/35 47/105/35
f 41/106/36 46/107/36 48/108/36
f 49/109/37 50/110/37 51/111/37
f 51/112/38 52/113/38 53/114/38
f 53/115/39 54/116/39 55/117/39
f 49/118/40 54/119/40 56/120/40
f 52/121/41 56/122/41 54/123/41
f 51/124/42 55/125/42 49/126/42
f 57/127/43 58/128/43 59/129/43
f 59/130/44 60/131/44 61/132/44
f 61/133/45 62/134/45 63/135/45
f 57/136/46 62/137/46 64/138/46
f 60/139/47 64/140/47 62/141/47
f 59/142/48 63/143/48 57/144/48
f 65/145/49 66/146/49 67/147/49
f 68/148/50 66/149/50 69/150/50
f 68/151/51 70/152/51 71/153/51
f 65/154/52 70/155/52 72/156/52
f 70/157/53 66/158/53 72/159/53
f 65/160/54 68/161/54 71/162/54
f 73/163/55 74/164/55 75/165/55
f 75/166/56 76/167/56 77/168/56
f 77/169/57 78/170/57 79/171/57
f 79/172/58 80/173/58 73/174/58
f 76/175/59 80/176/59 78/177/59
f 75/178/60 79/179/60 73/180/60
f 81/181/61 82/182/61 83/183/61
f 83/184/62 84/185/62 85/186/62
f 86/187/63 84/188/63 87/189/63
f 86/190/64 88/191/64 81/192/64
f 84/193/65 88/194/65 87/195/65
f 83/196/66 86/197/66 81/198/66
f 89/199/67 90/200/67 91/201/67
f 89/202/68 92/203/68 93/204/68
f 93/205/69 94/206/69 95/207/69
f 96/208/70 94/209/70 90/210/70
f 92/211/71 90/212/71 94/213/71
f 96/214/72 93/215/72 95/216/72
f 97/217/73 98/218/73 99/219/73
f 99/220/74 100/221/74 101/222/74
f 101/223/75 102/224/75 103/225/75
f 103/226/76 104/227/76 97/228/76
f 100/229/77 104/230/77 102/231/77
f 99/232/78 103/233/78 97/234/78
f 105/235/79 106/236/79 107/237/79
f 108/238/80 106/239/80 109/240/80
f 108/241/81 110/242/81 111/243/81
f 105/244/82 110/245/82 112/246/82
f 109/247/83 112/248/83 110/249/83
f 107/250/84 111/251/84 105/252/84
f 113/253/85 114/254/85 115/255/85
f 115/256/86 116/257/86 117/258/86
f 117/259/87 118/260/87 119/261/87
f 119/262/88 120/263/88 113/264/88
f 116/265/89 120/266/89 118/267/89
f 115/268/90 119/269/90 113/270/90
f 121/271/91 122/272/91 123/273/91
f 124/274/92 122/275/92 125/276/92
f 126/277/93 125/278/93 127/279/93
f 121/280/94 127/281/94 128/282/94
f 125/283/95 128/284/95 127/285/95
f 121/286/96 124/287/96 126/288/96
f 129/289/97 130/290/97 131/291/97
f 132/292/98 130/293/98 133/294/98
f 132/295/99 134/296/99 135/297/99
f 135/298/100 136/299/100 129/300/100
f 134/301/101 130/302/101 136/303/101
f 131/304/102 135/305/102 129/306/102
f 137/307/103 138/308/103 139/309/103
f 139/310/104 140/311/104 141/312/104
f 141/313/105 142/314/105 143/315/105
f 143/316/106 144/317/106 137/318/106
f 140/319/107 144/320/107 142/321/107
f 139/322/108 143/323/108 137/324/108
f 145/325/109 146/326/109 147/327/109
f 147/328/110 148/329/110 149/330/110
f 149/331/111 150/332/111 151/333/111
f 151/334/112 152/335/112 145/336/112
f 148/337/113 152/338/113 150/339/113
f 147/340/114 151/341/114 145/342/114
f 153/343/115 154/344/115 155/345/115
f 156/346/116 154/347/116 157/348/116
f 156/349/117 158/350/117 159/351/117
f 153/352/118 158/353/118 160/354/118
f 158/355/119 154/356/119 160/357/119
f 155/358/120 159/359/120 153/360/120
f 161/361/121 162/362/121 163/363/121
f 163/364/122 164/365/122 165/366/122
f 165/367/123 166/368/123 167/369/123
f 167/370/124 168/371/124 161/372/124
f 164/373/125 168/374/125 166/375/125
f 163/376/126 167/377/126 161/378/126
f 169/379/127 170/380/127 171/381/127
f 171/382/128 172/383/128 173/384/128
f 173/385/129 174/386/129 175/387/129
f 175/388/130 176/389/130 169/390/130
f 174/391/131 170/392/131 176/393/131
f 171/394/132 175/395/132 169/396/132
f 177/397/133 178/398/133 179/399/133
f 177/400/134 180/401/134 181/402/134
f 181/403/135 182/404/135 183/405/135
f 183/406/136 178/407/136 184/408/136
f 180/409/137 178/410/137 182/411/137
f 177/412/138 183/413/138 184/414/138
f 185/415/139 186/416/139 187/417/139
f 188/418/140 187/419/140 189/420/140
f 190/421/141 189/422/141 191/423/141
f 192/424/142 191/425/142 186/426/142
f 191/427/143 187/428/143 186/429/143
f 185/430/144 190/431/144 192/432/144
f 193/433/145 194/434/145 195/435/145
f 195/436/146 196/437/146 197/438/146
f 198/439/147 196/440/147 199/441/147
f 198/442/148 200/443/148 193/444/148
f 196/445/149 200/446/149 199/447/149
f 193/448/150 197/449/150 198/450/150
f 201/451/151 202/452/151 203/453/151
f 203/454/152 204/455/152 205/456/152
f 205/457/153 206/458/153 207/459/153
f 201/460/154 206/461/154 208/462/154
f 204/463/155 208/464/155 206/465/155
f 203/466/156 207/467/156 201/468/156
f 209/469/157 210/470/157 211/471/157
f 211/472/158 212/473/158 213/474/158
f 213/475/159 214/476/159 215/477/159
f 209/478/160 214/479/160 216/480/160
f 212/481/161 216/482/161 214/483/161
f 211/484/162 215/485/162 209/486/162
f 217/487/163 218/488/163 219/489/163
f 220/490/164 219/491/164 221/492/164
f 220/493/165 222/494/165 223/495/165
f 223/496/166 218/497/166 224/498/166
f 222/499/167 219/500/167 218/501/167
f 217/502/168 223/503/168 224/504/168
f 225/505/169 226/506/169 227/507/169
f 228/508/170 226/509/170 229/510/170
f 230/511/171 229/512/171 231/513/171
f 230/514/172 232/515/172 225/516/172
f 229/517/173 232/518/173 231/519/173
f 225/520/174 228/521/174 230/522/174
f 233/523/175 234/524/175 235/525/175
f 236/526/176 234/527/176 237/528/176
f 236/529/177 238/530/177 239/531/177
f 239/532/178 240/533/178 233/534/178
f 237/535/179 240/536/179 238/537/179
f 235/538/180 239/539/180 233/540/180
f 241/541/181 242/542/181 243/543/181
f 244/544/182 242/545/182 245/546/182
f 244/547/183 246/548/183 247/549/183
f 247/550/184 248/551/184 241/552/184
f 245/553/185 248/554/185 246/555/185
f 243/556/186 247/557/186 241/558/186
f 249/559/187 250/560/187 251/561/187
f 252/562/188 251/563/188 253/564/188
f 252/565/189 254/566/189 255/567/189
f 255/568/190 250/569/190 256/570/190
f 254/571/191 251/572/191 250/573/191
f 249/574/192 255/575/192 256/576/192
f 257/577/193 258/578/193 259/579/193
f 259/580/194 260/581/194 261/582/194
f 262/583/195 260/584/195 263/585/195
f 262/586/196 264/587/196 257/588/196
f 260/589/197 264/590/197 263/591/197
f 257/592/198 261/593/198 262/594/198
f 265/595/199 266/596/199 267/597/199
f 267/598/200 268/599/200 269/600/200
f 269/601/201 270/602/201 271/603/201
f 265/604/202 270/605/202 272/606/202
f 268/607/203 272/608/203 270/609/203
f 267/610/204 271/611/204 265/612/204
f 273/613/205 274/614/205 275/615/205
f 275/616/206 276/617/206 277/618/206
f 277/619/207 278/620/207 279/621/207
f 273/622/208 278/623/208 280/624/208
f 276/625/209 280/626/209 278/627/209
f 275/628/210 279/629/210 273/630/210
f 281/631/211 282/632/211 283/633/211
f 283/634/212 284/635/212 285/636/212
f 285/637/213 286/638/213 287/639/213
f 287/640/214 288/641/214 281/642/214
f 284/643/215 288/644/215 286/645/215
f 283/646/216 287/647/216 281/648/216
f 289/649/217 290/650/217 291/651/217
f 291/652/218 292/653/218 293/654/218
f 293/655/219 294/656/219 295/657/219
f 289/658/220 294/659/220 296/660/220
f 292/661/221 296/662/221 294/663/221
f 291/664/222 295/665/222 289/666/222
f 297/667/223 298/668/223 299/669/223
f 299/670/224 300/671/224 301/672/224
f 301/673/225 302/674/225 303/675/225
f 297/676/226 302/677/226 304/678/226
f 300/679/227 304/680/227 302/681/227
f 299/682/228 303/683/228 297/684/228
f 305/685/229 306/686/229 307/687/229
f 307/688/230 308/689/230 309/690/230
f 309/691/231 310/692/231 311/693/231
f 311/694/232 312/695/232 305/696/232
f 308/697/233 312/698/233 310/699/233
f 307/700/234 311/701/234 305/702/234
f 313/703/235 314/704/235 315/705/235
f 315/706/236 316/707/236 317/708/236
f 317/709/237 318/710/237 319/711/237
f 313/712/238 318/713/238 320/714/238
f 316/715/239 320/716/239 318/717/239
f 315/718/240 319/719/240 313/720/240
f 321/721/241 322/722/241 323/723/241
f 323/724/242 324/725/242 325/726/242
f 325/727/243 326/728/243 327/729/243
f 321/730/244 326/731/244 328/732/244
f 324/733/245 328/734/245 326/735/245
f 323/736/246 327/737/246 321/738/246
f 329/739/247 330/740/247 331/741/247
f 331/742/248 332/743/248 333/744/248
f 333/745/249 334/746/249 335/747/249
f 335/748/250 336/749/250 329/750/250
f 332/751/251 336/752/251 334/753/251
f 331/754/252 335/755/252 329/756/252
f 337/757/253 338/758/253 339/759/253
f 339/760/254 340/761/254 341/762/254
f 341/763/255 342/764/255 343/765/255
f 337/766/256 342/767/256 344/768/256
f 340/769/257 344/770/257 342/771/257
f 339/772/258 343/773/258 337/774/258
f 345/775/259 346/776/259 347/777/259
f 347/778/260 348/779/260 349/780/260
f 349/781/261 350/782/261 351/783/261
f 345/784/262 350/785/262 352/786/262
f 348/787/263 352/788/263 350/789/263
f 347/790/264 351/791/264 345/792/264
f 353/793/265 354/794/265 355/795/265
f 356/796/266 355/797/266 357/798/266
f 358/799/267 357/800/267 359/801/267
f 358/802/268 354/803/268 360/804/268
f 357/805/269 354/806/269 359/807/269
f 353/808/270 358/809/270 360/810/270
f 361/811/271 362/812/271 363/813/271
f 361/814/272 364/815/272 365/816/272
f 366/817/273 364/818/273 367/819/273
f 368/820/274 367/821/274 362/822/274
f 364/823/275 362/824/275 367/825/275
f 361/826/276 366/827/276 368/828/276
f 369/829/277 370/830/277 371/831/277
f 371/832/278 372/833/278 373/834/278
f 373/835/279 374/836/279 375/837/279
f 375/838/280 376/839/280 369/840/280
f 372/841/281 376/842/281 374/843/281
f 371/844/282 375/845/282 369/846/282
f 377/847/283 378/848/283 379/849/283
f 379/850/284 380/851/284 381/852/284
f 381/853/285 382/854/285 383/855/285
f 383/856/286 384/857/286 377/858/286
f 380/859/287 384/860/287 382/861/287
f 379/862/288 383/863/288 377/864/288
f 385/865/289 386/866/289 387/867/289
f 387/868/290 388/869/290 389/870/290
f 389/871/291 390/872/291 391/873/291
f 391/874/292 392/875/292 385/876/292
f 388/877/293 392/878/293 390/879/293
f 387/880/294 391/881/294 385/882/294
f 1/883/295 8/884/295 2/885/295
f 3/886/296 2/887/296 4/888/296
f 5/889/297 4/890/297 6/891/297
f 7/892/298 6/893/298 8/894/298
f 4/895/299 2/896/299 8/897/299
f 3/898/300 5/899/300 7/900/300
f 9/901/301 16/902/301 10/903/301
f 11/904/302 10/905/302 12/906/302
f 14/907/303 13/908/303 12/909/303
f 14/910/304 15/911/304 16/912/304
f 12/913/305 10/914/305 16/915/305
f 11/916/306 13/917/306 14/918/306
f 17/919/307 24/920/307 18/921/307
f 19/922/308 18/923/308 20/924/308
f 21/925/309 20/926/309 22/927/309
f 23/928/310 22/929/310 24/930/310
f 20/931/311 18/932/311 24/933/311
f 19/934/312 21/935/312 23/936/312
f 25/937/313 32/938/313 26/939/313
f 27/940/314 26/941/314 28/942/314
f 29/943/315 28/944/315 30/945/315
f 31/946/316 30/947/316 32/948/316
f 28/949/317 26/950/317 32/951/317
f 27/952/318 29/953/318 31/954/318
f 33/955/319 40/956/319 34/957/319
f 36/958/320 33/959/320 35/960/320
f 38/961/321 36/962/321 37/963/321
f 40/964/322 38/965/322 39/966/322
f 37/967/323 35/968/323 34/969/323
f 33/970/324 36/971/324 38/972/324
f 41/973/325 48/974/325 42/975/325
f 41/976/326 43/977/326 44/978/326
f 46/979/327 45/980/327 44/981/327
f 48/982/328 46/983/328 47/984/328
f 44/985/329 43/986/329 42/987/329
f 41/988/330 45/989/330 46/990/330
f 49/991/331 56/992/331 50/993/331
f 51/994/332 50/995/332 52/996/332
f 53/997/333 52/998/333 54/999/333
f 49/1000/334 55/1001/334 54/1002/334
f 52/1003/335 50/1004/335 56/1005/335
f 51/1006/336 53/1007/336 55/1008/336
f 57/1009/337 64/1010/337 58/1011/337
f 59/1012/338 58/1013/338 60/1014/338
f 61/1015/339 60/1016/339 62/1017/339
f 57/1018/340 63/1019/340 62/1020/340
f 60/1021/341 58/1022/341 64/1023/341
f 59/1024/342 61/1025/342 63/1026/342
f 65/1027/343 72/1028/343 66/1029/343
f 68/1030/344 67/1031/344 66/1032/344
f 68/1033/345 69/1034/345 70/1035/345
f 65/1036/346 71/1037/346 70/1038/346
f 70/1039/347 69/1040/347 66/1041/347
f 65/1042/348 67/1043/348 68/1044/348
f 73/1045/349 80/1046/349 74/1047/349
f 75/1048/350 74/1049/350 76/1050/350
f 77/1051/351 76/1052/351 78/1053/351
f 79/1054/352 78/1055/352 80/1056/352
f 76/1057/353 74/1058/353 80/1059/353
f 75/1060/354 77/1061/354 79/1062/354
f 81/1063/355 88/1064/355 82/1065/355
f 83/1066/356 82/1067/356 84/1068/356
f 86/1069/357 85/1070/357 84/1071/357
f 86/1072/358 87/1073/358 88/1074/358
f 84/1075/359 82/1076/359 88/1077/359
f 83/1078/360 85/1079/360 86/1080/360
f 89/1081/361 96/1082/361 90/1083/361
f 89/1084/362 91/1085/362 92/1086/362
f 93/1087/363 92/1088/363 94/1089/363
f 96/1090/364 95/1091/364 94/1092/364
f 92/1093/365 91/1094/365 90/1095/365
f 96/1096/366 89/1097/366 93/1098/366
f 97/1099/367 104/1100/367 98/1101/367
f 99/1102/368 98/1103/368 100/1104/368
f 101/1105/369 100/1106/369 102/1107/369
f 103/1108/370 102/1109/370 104/1110/370
f 100/1111/371 98/1112/371 104/1113/371
f 99/1114/372 101/1115/372 103/1116/372
f 105/1117/373 112/1118/373 106/1119/373
f 108/1120/374 107/1121/374 106/1122/374
f 108/1123/375 109/1124/375 110/1125/375
f 105/1126/376 111/1127/376 110/1128/376
f 109/1129/377 106/1130/377 112/1131/377
f 107/1132/378 108/1133/378 111/1134/378
f 113/1135/379 120/1136/379 114/1137/379
f 115/1138/380 114/1139/380 116/1140/380
f 117/1141/381 116/1142/381 118/1143/381
f 119/1144/382 118/1145/382 120/1146/382
f 116/1147/383 114/1148/383 120/1149/383
f 115/1150/384 117/1151/384 119/1152/384
f 121/1153/385 128/1154/385 122/1155/385
f 124/1156/386 123/1157/386 122/1158/386
f 126/1159/387 124/1160/387 125/1161/387
f 121/1162/388 126/1163/388 127/1164/388
f 125/1165/389 122/1166/389 128/1167/389
f 121/1168/390 123/1169/390 124/1170/390
f 129/1171/391 136/1172/391 130/1173/391
f 132/1174/392 131/1175/392 130/1176/392
f 132/1177/393 133/1178/393 134/1179/393
f 135/1180/394 134/1181/394 136/1182/394
f 134/1183/395 133/1184/395 130/1185/395
f 131/1186/396 132/1187/396 135/1188/396
f 137/1189/397 144/1190/397 138/1191/397
f 139/1192/398 138/1193/398 140/1194/398
f 141/1195/399 140/1196/399 142/1197/399
f 143/1198/400 142/1199/400 144/1200/400
f 140/1201/401 138/1202/401 144/1203/401
f 139/1204/402 141/1205/402 143/1206/402
f 145/1207/403 152/1208/403 146/1209/403
f 147/1210/404 146/1211/404 148/1212/404
f 149/1213/405 148/1214/405 150/1215/405
f 151/1216/406 150/1217/406 152/1218/406
f 148/1219/407 146/1220/407 152/1221/407
f 147/1222/408 149/1223/408 151/1224/408
f 153/1225/409 160/1226/409 154/1227/409
f 156/1228/410 155/1229/410 154/1230/410
f 156/1231/411 157/1232/411 158/1233/411
f 153/1234/412 159/1235/412 158/1236/412
f 158/1237/413 157/1238/413 154/1239/413
f 155/1240/414 156/1241/414 159/1242/414
f 161/1243/415 168/1244/415 162/1245/415
f 163/1246/416 162/1247/416 164/1248/416
f 165/1249/417 164/1250/417 166/1251/417
f 167/1252/418 166/1253/418 168/1254/418
f 164/1255/419 162/1256/419 168/1257/419
f 163/1258/420 165/1259/420 167/1260/420
f 169/1261/421 176/1262/421 170/1263/421
f 171/1264/422 170/1265/422 172/1266/422
f 173/1267/423 172/1268/423 174/1269/423
f 175/1270/424 174/1271/424 176/1272/424
f 174/1273/425 172/1274/425 170/1275/425
f 171/1276/426 173/1277/426 175/1278/426
f 177/1279/427 184/1280/427 178/1281/427
f 177/1282/428 179/1283/428 180/1284/428
f 181/1285/429 180/1286/429 182/1287/429
f 183/1288/430 182/1289/430 178/1290/430
f 180/1291/431 179/1292/431 178/1293/431
f 177/1294/432 181/1295/432 183/1296/432
f 185/1297/433 192/1298/433 186/1299/433
f 188/1300/434 185/1301/434 187/1302/434
f 190/1303/435 188/1304/435 189/1305/435
f 192/1306/436 190/1307/436 191/1308/436
f 191/1309/437 189/1310/437 187/1311/437
f 185/1312/438 188/1313/438 190/1314/438
f 193/1315/439 200/1316/439 194/1317/439
f 195/1318/440 194/1319/440 196/1320/440
f 198/1321/441 197/1322/441 196/1323/441
f 198/1324/442 199/1325/442 200/1326/442
f 196/1327/443 194/1328/443 200/1329/443
f 193/1330/444 195/1331/444 197/1332/444
f 201/1333/445 208/1334/445 202/1335/445
f 203/1336/446 202/1337/446 204/1338/446
f 205/1339/447 204/1340/447 206/1341/447
f 201/1342/448 207/1343/448 206/1344/448
f 204/1345/449 202/1346/449 208/1347/449
f 203/1348/450 205/1349/450 207/1350/450
f 209/1351/451 216/1352/451 210/1353/451
f 211/1354/452 210/1355/452 212/1356/452
f 213/1357/453 212/1358/453 214/1359/453
f 209/1360/454 215/1361/454 214/1362/454
f 212/1363/455 210/1364/455 216/1365/455
f 211/1366/456 213/1367/456 215/1368/456
f 217/1369/457 224/1370/457 218/1371/457
f 220/1372/458 217/1373/458 219/1374/458
f 220/1375/459 221/1376/459 222/1377/459
f 223/1378/460 222/1379/460 218/1380/460
f 222/1381/461 221/1382/461 219/1383/461
f 217/1384/462 220/1385/462 223/1386/462
f 225/1387/463 232/1388/463 226/1389/463
f 228/1390/464 227/1391/464 226/1392/464
f 230/1393/465 228/1394/465 229/1395/465
f 230/1396/466 231/1397/466 232/1398/466
f 229/1399/467 226/1400/467 232/1401/467
f 225/1402/468 227/1403/468 228/1404/468
f 233/1405/469 240/1406/469 234/1407/469
f 236/1408/470 235/1409/470 234/1410/470
f 236/1411/471 237/1412/471 238/1413/471
f 239/1414/472 238/1415/472 240/1416/472
f 237/1417/473 234/1418/473 240/1419/473
f 235/1420/474 236/1421/474 239/1422/474
f 241/1423/475 248/1424/475 242/1425/475
f 244/1426/476 243/1427/476 242/1428/476
f 244/1429/477 245/1430/477 246/1431/477
f 247/1432/478 246/1433/478 248/1434/478
f 245/1435/479 242/1436/479 248/1437/479
f 243/1438/480 244/1439/480 247/1440/480
f 249/1441/481 256/1442/481 250/1443/481
f 252/1444/482 249/1445/482 251/1446/482
f 252/1447/483 253/1448/483 254/1449/483
f 255/1450/484 254/1451/484 250/1452/484
f 254/1453/485 253/1454/485 251/1455/485
f 249/1456/486 252/1457/486 255/1458/486
f 257/1459/487 264/1460/487 258/1461/487
f 259/1462/488 258/1463/488 260/1464/488
f 262/1465/489 261/1466/489 260/1467/489
f 262/1468/490 263/1469/490 264/1470/490
f 260/1471/491 258/1472/491 264/1473/491
f 257/1474/492 259/1475/492 261/1476/492
f 265/1477/493 272/1478/493 266/1479/493
f 267/1480/494 266/1481/494 268/1482/494
f 269/1483/495 268/1484/495 270/1485/495
f 265/1486/496 271/1487/496 270/1488/496
f 268/1489/497 266/1490/497 272/1491/497
f 267/1492/498 269/1493/498 271/1494/498
f 273/1495/499 280/1496/499 274/1497/499
f 275/1498/500 274/1499/500 276/1500/500
f 277/1501/501 276/1502/501 278/1503/501
f 273/1504/502 279/1505/502 278/1506/502
f 276/1507/503 274/1508/503 280/1509/503
f 275/1510/504 277/1511/504 279/1512/504
f 281/1513/505 288/1514/505 282/1515/505
f 283/1516/506 282/1517/506 284/1518/506
f 285/1519/507 284/1520/507 286/1521/507
f 287/1522/508 286/1523/508 288/1524/508
f 284/1525/509 282/1526/509 288/1527/509
f 283/1528/510 285/1529/510 287/1530/510
f 289/1531/511 296/1532/511 290/1533/511
f 291/1534/512 290/1535/512 292/1536/512
f 293/1537/513 292/1538/513 294/1539/513
f 289/1540/514 295/1541/514 294/1542/514
f 292/1543/515 290/1544/515 296/1545/515
f 291/1546/516 293/1547/516 295/1548/516
f 297/1549/517 304/1550/517 298/1551/517
f 299/1552/518 298/1553/518 300/1554/518
f 301/1555/519 300/1556/519 302/1557/519
f 297/1558/520 303/1559/520 302/1560/520
f 300/1561/521 298/1562/521 304/1563/521
f 299/1564/522 301/1565/522 303/1566/522
f 305/1567/523 312/1568/523 306/1569/523
f 307/1570/524 306/1571/524 308/1572/524
f 309/1573/525 308/1574/525 310/1575/525
f 311/1576/526 310/1577/526 312/1578/526
f 308/1579/527 306/1580/527 312/1581/527
f 307/1582/528 309/1583/528 311/1584/528
f 313/1585/529 320/1586/529 314/1587/529
f 315/1588/530 314/1589/530 316/1590/530
f 317/1591/531 316/1592/531 318/1593/531
f 313/1594/532 319/1595/532 318/1596/532
f 316/1597/533 314/1598/533 320/1599/533
f 315/1600/534 317/1601/534 319/1602/534
f 321/1603/535 328/1604/535 322/1605/535
f 323/1606/536 322/1607/536 324/1608/536
f 325/1609/537 324/1610/537 326/1611/537
f 321/1612/538 327/1613/538 326/1614/538
f 324/1615/539 322/1616/539 328/1617/539
f 323/1618/540 325/1619/540 327/1620/540
f 329/1621/541 336/1622/541 330/1623/541
f 331/1624/542 330/1625/542 332/1626/542
f 333/1627/543 332/1628/543 334/1629/543
f 335/1630/544 334/1631/544 336/1632/544
f 332/1633/545 330/1634/545 336/1635/545
f 331/1636/546 333/1637/546 335/1638/546
f 337/1639/547 344/1640/547 338/1641/547
f 339/1642/548 338/1643/548 340/1644/548
f 341/1645/549 340/1646/549 342/1647/549
f 337/1648/550 343/1649/550 342/1650/550
f 340/1651/551 338/1652/551 344/1653/551
f 339/1654/552 341/1655/552 343/1656/552
f 345/1657/553 352/1658/553 346/1659/553
f 347/1660/554 346/1661/554 348/1662/554
f 349/1663/555 348/1664/555 350/1665/555
f 345/1666/556 351/1667/556 350/1668/556
f 348/1669/557 346/1670/557 352/1671/557
f 347/1672/558 349/1673/558 351/1674/558
f 353/1675/559 360/1676/559 354/1677/559
f 356/1678/560 353/1679/560 355/1680/560
f 358/1681/561 356/1682/561 357/1683/561
f 358/1684/562 359/1685/562 354/1686/562
f 357/1687/563 355/1688/563 354/1689/563
f 353/1690/564 356/1691/564 358/1692/564
f 361/1693/565 368/1694/565 362/1695/565
f 361/1696/566 363/1697/566 364/1698/566
f 366/1699/567 365/1700/567 364/1701/567
f 368/1702/568 366/1703/568 367/1704/568
f 364/1705/569 363/1706/569 362/1707/569
f 361/1708/570 365/1709/570 366/1710/570
f 369/1711/571 376/1712/571 370/1713/571
f 371/1714/572 370/1715/572 372/1716/572
f 373/1717/573 372/1718/573 374/1719/573
f 375/1720/574 374/1721/574 376/1722/574
f 372/1723/575 370/1724/575 376/1725/575
f 371/1726/576 373/1727/576 375/1728/576
f 377/1729/577 384/1730/577 378/1731/577
f 379/1732/578 378/1733/578 380/1734/578
f 381/1735/579 380/1736/579 382/1737/579
f 383/1738/580 382/1739/580 384/1740/580
f 380/1741/581 378/1742/581 384/1743/581
f 379/1744/582 381/1745/582 383/1746/582
f 385/1747/583 392/1748/583 386/1749/583
f 387/1750/584 386/1751/584 388/1752/584
f 389/1753/585 388/1754/585 390/1755/585
f 391/1756/586 390/1757/586 392/1758/586
f 388/1759/587 386/1760/587 392/1761/587
f 387/1762/588 389/1763/588 391/1764/588
