# Made in Blockbench 5.2.1
mtllib horse.mtl

o horse
v 0.011803 1.087265 -0.222499
v -0.170083 0.595083 -0.3125
v 0.167417 0.782583 -0.3125
v 0.167417 0.595083 -0.3125
v 0.167417 0.782583 -0.25
v 0.167417 0.595083 -0.25
v -0.170083 0.782583 -0.25
v -0.170083 0.595083 -0.25
v -0.170083 0.782583 -0.3125
v -0.0875 1.297305 -0.221323
v 0.0625 1.389006 -0.201831
v 0.0625 1.297305 -0.221323
v 0.0625 1.387707 -0.195718
v 0.0625 1.296005 -0.21521
v -0.0875 1.387707 -0.195718
v -0.0875 1.296005 -0.21521
v -0.0875 1.389006 -0.201831
v -0.25 0.75 -0.225
v 0.25 1.25 -0.225
v 0.25 0.75 -0.225
v 0.25 1.25 -0.1
v 0.25 0.75 -0.1
v -0.25 1.25 -0.1
v -0.25 0.75 -0.1
v -0.25 1.25 -0.225
v -0.1875 1.248634 -0.224506
v 0.1875 1.450377 -0.181624
v 0.1875 1.248634 -0.224506
v 0.1875 1.437383 -0.12049
v 0.1875 1.23564 -0.163371
v -0.1875 1.437383 -0.12049
v -0.1875 1.23564 -0.163371
v -0.1875 1.450377 -0.181624
v -0.197608 1.125903 -0.224309
v -0.185083 1.576234 -0.128834
v -0.059903 1.165534 -0.212871
v -0.186577 1.562018 -0.061586
v -0.061397 1.151319 -0.145624
v -0.199102 1.111687 -0.157061
v -0.324282 1.522386 -0.073024
v -0.322788 1.536602 -0.140271
v -0.185219 1.574941 -0.122721
v -0.347637 1.568396 0.048738
v -0.209932 1.608028 0.060175
v -0.194001 1.548971 0.073011
v -0.169288 1.515885 -0.109885
v -0.331706 1.509339 0.061574
v -0.306993 1.476253 -0.121322
v -0.322924 1.53531 -0.134158
v -0.329924 1.487518 0.139166
v -0.191989 1.550596 0.044571
v -0.192286 1.527953 0.14838
v -0.210019 1.609075 0.057275
v -0.210316 1.586431 0.161084
v -0.347657 1.56864 0.048061
v -0.347954 1.545997 0.15187
v -0.329627 1.510161 0.035357
v -0.25828 1.248529 0.117712
v -0.204878 1.582071 0.098974
v -0.120642 1.288964 0.126926
v -0.12608 1.293324 0.189036
v -0.210316 1.586431 0.161084
v -0.347954 1.545997 0.15187
v -0.263718 1.25289 0.179822
v -0.342516 1.541637 0.08976
v -0.328856 1.537287 -0.148132
v -0.189886 1.594702 -0.056445
v -0.179177 1.580364 -0.1357
v -0.161654 1.515402 -0.12158
v -0.172363 1.529739 -0.042326
v -0.311333 1.472324 -0.134012
v -0.322042 1.486661 -0.054758
v -0.339565 1.551624 -0.068877
v -0.345332 1.559344 -0.026202
v -0.206362 1.616759 0.065485
v -0.195653 1.602422 -0.01377
v -0.178129 1.537459 0.00035
v -0.188838 1.551797 0.079605
v -0.338517 1.508719 0.067173
v -0.327808 1.494382 -0.012082
v -0.356041 1.573681 0.053053
v -0.3125 0.8125 -0.1625
v -0.25 1.0625 -0.1625
v -0.25 0.8125 -0.1625
v -0.25 1.0625 0.15
v -0.25 0.8125 0.15
v -0.3125 1.0625 0.15
v -0.3125 0.8125 0.15
v -0.3125 1.0625 -0.1625
v 0.25 0.8125 -0.1625
v 0.3125 1.0625 -0.1625
v 0.3125 0.8125 -0.1625
v 0.3125 1.0625 0.15
v 0.3125 0.8125 0.15
v 0.25 1.0625 0.15
v 0.25 0.8125 0.15
v 0.25 1.0625 -0.1625
v 0.059903 1.165534 -0.212871
v 0.322788 1.536602 -0.140271
v 0.197608 1.125903 -0.224309
v 0.199102 1.111687 -0.157061
v 0.324282 1.522386 -0.073024
v 0.186577 1.562018 -0.061586
v 0.061397 1.151319 -0.145624
v 0.185083 1.576234 -0.128834
v 0.179177 1.580364 -0.1357
v 0.339565 1.551624 -0.068877
v 0.328856 1.537287 -0.148132
v 0.322042 1.486661 -0.054758
v 0.311333 1.472324 -0.134012
v 0.172363 1.529739 -0.042326
v 0.161654 1.515402 -0.12158
v 0.189886 1.594702 -0.056445
v 0.185219 1.574941 -0.122721
v 0.347637 1.568396 0.048738
v 0.322924 1.53531 -0.134158
v 0.331706 1.509339 0.061574
v 0.306993 1.476253 -0.121322
v 0.194001 1.548971 0.073011
v 0.169288 1.515885 -0.109885
v 0.209932 1.608028 0.060175
v 0.345332 1.559344 -0.026202
v 0.206362 1.616759 0.065485
v 0.356041 1.573681 0.053053
v 0.338517 1.508719 0.067173
v 0.327808 1.494382 -0.012082
v 0.188838 1.551797 0.079605
v 0.178129 1.537459 0.00035
v 0.195653 1.602422 -0.01377
v 0.329924 1.487518 0.139166
v 0.191989 1.550596 0.044571
v 0.329627 1.510161 0.035357
v 0.347954 1.545997 0.15187
v 0.347657 1.56864 0.048061
v 0.210316 1.586431 0.161084
v 0.210019 1.609075 0.057275
v 0.192286 1.527953 0.14838
v 0.120642 1.288964 0.126926
v 0.342516 1.541637 0.08976
v 0.25828 1.248529 0.117712
v 0.347954 1.545997 0.15187
v 0.263718 1.25289 0.179822
v 0.12608 1.293324 0.189036
v 0.210316 1.586431 0.161084
v 0.204878 1.582071 0.098974
v -0.265625 0.75 0.10625
v 0.265625 1.4375 0.10625
v 0.265625 0.75 0.10625
v 0.265625 1.4375 0.2
v 0.265625 0.75 0.2
v -0.265625 1.4375 0.2
v -0.265625 0.75 0.2
v -0.265625 1.4375 0.10625
v 0.222262 1.098207 -0.362053
v 0.333617 1.094135 -0.290209
v 0.341214 1.099175 -0.306593
v 0.350871 0.95568 -0.3248
v 0.358469 0.96072 -0.341184
v 0.239516 0.959752 -0.396644
v 0.231918 0.954712 -0.38026
v 0.214664 1.093167 -0.34567
v 0.211689 1.081945 -0.368676
v 0.352609 1.101799 -0.301497
v 0.3533 1.083098 -0.302652
v 0.292089 1.091538 -0.171512
v 0.29278 1.072836 -0.172667
v 0.150478 1.090385 -0.237536
v 0.151169 1.071684 -0.238691
v 0.210999 1.100647 -0.367521
v 0.024303 0.772631 -0.342026
v 0.180553 1.085084 -0.34748
v 0.180553 0.772631 -0.342026
v 0.180553 1.087265 -0.222499
v 0.180553 0.774813 -0.217045
v 0.024303 1.087265 -0.222499
v 0.024303 0.774813 -0.217045
v 0.024303 1.085084 -0.34748
v -0.136722 0.773075 -0.354122
v 0.013226 1.085459 -0.363502
v 0.013226 0.773006 -0.358048
v 0.016498 1.087639 -0.238564
v 0.016498 0.775187 -0.23311
v -0.13345 1.087708 -0.234638
v -0.13345 0.775256 -0.229184
v -0.136722 1.085527 -0.359576
v 0.35092 0.773524 -0.290911
v 0.212338 1.084974 -0.353758
v 0.35092 1.085976 -0.296365
v 0.303085 1.087991 -0.180897
v 0.303085 0.775539 -0.175443
v 0.164503 0.774537 -0.232837
v 0.164503 1.08699 -0.238291
v 0.212338 0.772522 -0.348304
v 0.024303 1.084756 -0.366227
v 0.180553 1.103504 -0.366554
v 0.180553 1.084756 -0.366227
v 0.180553 1.106012 -0.222826
v 0.180553 1.087265 -0.222499
v 0.024303 1.106012 -0.222826
v 0.024303 1.087265 -0.222499
v 0.024303 1.103504 -0.366554
v 0.036803 1.100999 -0.366134
v 0.168053 1.097582 -0.347698
v 0.168053 1.100999 -0.366134
v 0.168053 0.959656 -0.39233
v 0.168053 0.956239 -0.373894
v 0.036803 0.956239 -0.373894
v 0.036803 0.959656 -0.39233
v 0.036803 1.097582 -0.347698
v -0.131947 1.106336 -0.377099
v -0.000697 1.100387 -0.359318
v -0.000697 1.106336 -0.377099
v -0.000697 0.964065 -0.404931
v -0.000697 0.970014 -0.422712
v -0.131947 0.964065 -0.404931
v -0.131947 0.970014 -0.422712
v -0.131947 1.100387 -0.359318
v -0.144447 1.084756 -0.366227
v 0.011803 1.103504 -0.366554
v 0.011803 1.084756 -0.366227
v 0.011803 1.106012 -0.222826
v -0.144447 1.106012 -0.222826
v -0.144447 1.087265 -0.222499
v -0.144447 1.103504 -0.366554
v -0.222957 1.088869 -0.319859
v -0.160013 1.084085 -0.311048
v -0.160517 1.088869 -0.322585
v -0.161682 0.991697 -0.34928
v -0.162186 0.996481 -0.360817
v -0.224123 0.991697 -0.346554
v -0.224626 0.996481 -0.358091
v -0.222453 1.084085 -0.308322
v -0.223047 1.0875 -0.321906
v -0.160606 1.1 -0.324632
v -0.160606 1.0875 -0.324632
v -0.156244 1.1 -0.224727
v -0.156244 1.0875 -0.224727
v -0.218685 1.1 -0.222001
v -0.218685 1.0875 -0.222001
v -0.223047 1.1 -0.321906
v -0.21875 0.7875 -0.325
v -0.15625 1.08125 -0.325
v -0.15625 0.7875 -0.325
v -0.15625 1.08125 -0.225
v -0.15625 0.7875 -0.225
v -0.21875 1.08125 -0.225
v -0.21875 0.7875 -0.225
v -0.21875 1.08125 -0.325
v -0.315037 0.7875 -0.298861
v -0.255596 1.08125 -0.318174
v -0.255596 0.7875 -0.318174
v -0.224694 1.08125 -0.223069
v -0.224694 0.7875 -0.223069
v -0.284135 1.08125 -0.203755
v -0.284135 0.7875 -0.203755
v -0.315037 1.08125 -0.298861
v -0.315037 1.0875 -0.298861
v -0.255596 1.1 -0.318174
v -0.255596 1.0875 -0.318174
v -0.224694 1.1 -0.223069
v -0.224694 1.0875 -0.223069
v -0.284135 1.1 -0.203755
v -0.284135 1.0875 -0.203755
v -0.315037 1.1 -0.298861
v -0.254963 1.088869 -0.316226
v -0.310835 1.084085 -0.285929
v -0.251394 1.084085 -0.305243
v -0.26322 0.991697 -0.341638
v -0.266788 0.996481 -0.352621
v -0.322661 0.991697 -0.322324
v -0.326229 0.996481 -0.333308
v -0.314404 1.088869 -0.296912
v -0.225096 0.629888 -0.353198
v -0.345233 0.632806 -0.316592
v -0.229748 0.632806 -0.364427
v -0.218581 0.754352 -0.337468
v -0.213929 0.751434 -0.326238
v -0.334066 0.754352 -0.289632
v -0.329414 0.751434 -0.278403
v -0.340581 0.629888 -0.305362
v -0.33166 0.74375 -0.283825
v -0.216175 0.75625 -0.33166
v -0.216175 0.74375 -0.33166
v -0.16834 0.75625 -0.216175
v -0.16834 0.74375 -0.216175
v -0.283825 0.75625 -0.16834
v -0.283825 0.74375 -0.16834
v -0.33166 0.75625 -0.283825
v -0.33166 0.6125 -0.283825
v -0.216175 0.7375 -0.33166
v -0.216175 0.6125 -0.33166
v -0.16834 0.7375 -0.216175
v -0.16834 0.6125 -0.216175
v -0.283825 0.7375 -0.16834
v -0.283825 0.6125 -0.16834
v -0.33166 0.7375 -0.283825
v 0.216175 0.6125 -0.33166
v 0.33166 0.7375 -0.283825
v 0.33166 0.6125 -0.283825
v 0.283825 0.7375 -0.16834
v 0.283825 0.6125 -0.16834
v 0.16834 0.7375 -0.216175
v 0.16834 0.6125 -0.216175
v 0.216175 0.7375 -0.33166
v 0.216175 0.74375 -0.33166
v 0.33166 0.75625 -0.283825
v 0.33166 0.74375 -0.283825
v 0.283825 0.75625 -0.16834
v 0.283825 0.74375 -0.16834
v 0.16834 0.75625 -0.216175
v 0.16834 0.74375 -0.216175
v 0.216175 0.75625 -0.33166
v 0.225096 0.629888 -0.353198
v 0.345233 0.632806 -0.316592
v 0.340581 0.629888 -0.305362
v 0.329414 0.751434 -0.278403
v 0.334066 0.754352 -0.289632
v 0.213929 0.751434 -0.326238
v 0.218581 0.754352 -0.337468
v 0.229748 0.632806 -0.364427
v -0.275046 1.5142 -0.210706
v -0.234745 1.62408 -0.04925
v -0.176675 1.547159 -0.18777
v -0.226933 1.582367 -0.022812
v -0.168864 1.505446 -0.161331
v -0.267234 1.472487 -0.184267
v -0.325304 1.549408 -0.045748
v -0.333115 1.591121 -0.072186
v -0.252456 1.582077 -0.086648
v -0.265872 1.638263 0.005964
v -0.22931 1.589832 -0.081251
v -0.225404 1.568975 -0.068032
v -0.261966 1.617407 0.019184
v -0.285112 1.609652 0.013787
v -0.24855 1.56122 -0.073429
v -0.289018 1.630508 0.000568
v -0.255627 1.611168 -0.027992
v -0.346777 1.712701 0.159132
v -0.335204 1.716578 0.161831
v -0.333251 1.70615 0.16844
v -0.253674 1.60074 -0.021383
v -0.344824 1.702272 0.165742
v -0.265247 1.596862 -0.024081
v -0.2672 1.60729 -0.030691
v -0.15421 1.247384 -0.25
v -0.103161 1.387458 -0.25
v -0.075042 1.265661 -0.25
v -0.103161 1.387458 -0.1875
v -0.075042 1.265661 -0.1875
v -0.182329 1.36918 -0.1875
v -0.15421 1.247384 -0.1875
v -0.182329 1.36918 -0.25
v -0.125 0.55 -0.30625
v 0.125 0.6125 -0.30625
v 0.125 0.55 -0.30625
v 0.125 0.6125 -0.25
v 0.125 0.55 -0.25
v -0.125 0.6125 -0.25
v -0.125 0.55 -0.25
v -0.125 0.6125 -0.30625
v -0.125888 0.550888 -0.30625
v -0.125888 0.639277 -0.30625
v -0.081694 0.595083 -0.30625
v -0.081694 0.595083 -0.25
v -0.125888 0.550888 -0.25
v -0.125888 0.639277 -0.25
v -0.170083 0.595083 -0.25
v -0.170083 0.595083 -0.30625
v 0.124112 0.550888 -0.30625
v 0.124112 0.639277 -0.30625
v 0.168306 0.595083 -0.30625
v 0.168306 0.595083 -0.25
v 0.124112 0.550888 -0.25
v 0.124112 0.639277 -0.25
v 0.079917 0.595083 -0.25
v 0.079917 0.595083 -0.30625
vt 0.224609 0.59375
vt 0.140625 0.640625
vt 0.140625 0.59375
vt 0.109375 0.34375
vt 0.09375 0.390625
vt 0.09375 0.34375
vt 0.318359 0.59375
vt 0.234375 0.640625
vt 0.234375 0.59375
vt 0.34375 0.34375
vt 0.328125 0.390625
vt 0.328125 0.34375
vt 0.5 0.875
vt 0.583984 0.859375
vt 0.583984 0.875
vt 0.5 0.5
vt 0.583984 0.515625
vt 0.583984 0.5
vt 0.599609 0.38281199999999993
vt 0.5625 0.40625
vt 0.5625 0.38281199999999993
vt 0.689453 0.507812
vt 0.6875 0.53125
vt 0.6875 0.507812
vt 0.630859 0.41406199999999993
vt 0.59375 0.4375
vt 0.59375 0.41406199999999993
vt 0.53125 0.28906199999999993
vt 0.533203 0.3125
vt 0.53125 0.3125
vt 0.6875 0.65625
vt 0.724609 0.654297
vt 0.724609 0.65625
vt 0.6875 0.638672
vt 0.724609 0.640625
vt 0.724609 0.638672
vt 0.125 0.703125
vt 0 0.828125
vt 0 0.703125
vt 0.40625 0.765625
vt 0.375 0.890625
vt 0.375 0.765625
vt 0.25 0.703125
vt 0.125 0.828125
vt 0.125 0.703125
vt 0.40625 0.640625
vt 0.375 0.765625
vt 0.375 0.640625
vt 0.375 0.640625
vt 0.5 0.609375
vt 0.5 0.640625
vt 0.375 0.578125
vt 0.5 0.609375
vt 0.5 0.578125
vt 0.25 0.651367
vt 0.15625 0.703125
vt 0.15625 0.651367
vt 0.359375 0.37011700000000003
vt 0.34375 0.421875
vt 0.34375 0.37011700000000003
vt 0.34375 0.651367
vt 0.25 0.703125
vt 0.25 0.651367
vt 0.453125 0.37011700000000003
vt 0.46875 0.421875
vt 0.453125 0.421875
vt 0.40625 0.65625
vt 0.5 0.640625
vt 0.5 0.65625
vt 0.5 0.875
vt 0.59375 0.890625
vt 0.59375 0.875
vt 0.036133 0.53125
vt 0 0.640625
vt 0 0.53125
vt 0.345703 0.421875
vt 0.328125 0.53125
vt 0.328125 0.421875
vt 0.359375 0.890625
vt 0.395508 1
vt 0.359375 1
vt 0.486328 0.46875
vt 0.46875 0.578125
vt 0.46875 0.46875
vt 0.109375 0.375
vt 0.145508 0.357422
vt 0.145508 0.375
vt 0.15625 0.357422
vt 0.192383 0.375
vt 0.192383 0.357422
vt 0.453125 0.65625
vt 0.489258 0.703125
vt 0.453125 0.703125
vt 0.34375 0.828125
vt 0.328125 0.875
vt 0.328125 0.828125
vt 0.520508 0.703125
vt 0.484375 0.75
vt 0.484375 0.703125
vt 0.03125 0.359375
vt 0.046875 0.40625
vt 0.03125 0.40625
vt 0.359375 0.375
vt 0.395508 0.359375
vt 0.395508 0.375
vt 0.598633 0.359375
vt 0.5625 0.375
vt 0.598633 0.375
vt 0.629883 0.911133
vt 0.59375 0.9375
vt 0.59375 0.911133
vt 0.5625 0.520508
vt 0.546875 0.546875
vt 0.546875 0.520508
vt 0.629883 0.879883
vt 0.59375 0.90625
vt 0.59375 0.879883
vt 0.609375 0.33300799999999997
vt 0.59375 0.359375
vt 0.59375 0.33300799999999997
vt 0.609375 0.375
vt 0.645508 0.359375
vt 0.645508 0.375
vt 0.640625 0.921875
vt 0.676758 0.9375
vt 0.676758 0.921875
vt 0.317383 0.517578
vt 0.28125 0.59375
vt 0.28125 0.517578
vt 0.46875 0.392578
vt 0.484375 0.46875
vt 0.46875 0.46875
vt 0.411133 0.501953
vt 0.375 0.578125
vt 0.375 0.501953
vt 0.484375 0.392578
vt 0.5 0.46875
vt 0.484375 0.46875
vt 0.640625 0.921875
vt 0.676758 0.90625
vt 0.676758 0.921875
vt 0.640625 0.890625
vt 0.676758 0.90625
vt 0.676758 0.890625
vt 0.648438 0.838867
vt 0.609375 0.859375
vt 0.609375 0.838867
vt 0.171875 0.32324200000000003
vt 0.189453 0.34375
vt 0.171875 0.34375
vt 0.609375 0.807617
vt 0.648438 0.828125
vt 0.609375 0.828125
vt 0.203125 0.32324200000000003
vt 0.220703 0.34375
vt 0.203125 0.34375
vt 0.609375 0.59375
vt 0.648438 0.576172
vt 0.648438 0.59375
vt 0.648438 0.544922
vt 0.609375 0.5625
vt 0.648438 0.5625
vt 0.648438 0.729492
vt 0.609375 0.75
vt 0.609375 0.729492
vt 0.234375 0.32324200000000003
vt 0.251953 0.34375
vt 0.234375 0.34375
vt 0.320312 0.37011700000000003
vt 0.28125 0.390625
vt 0.28125 0.37011700000000003
vt 0.673828 0.729492
vt 0.65625 0.75
vt 0.65625 0.729492
vt 0.507812 0.390625
vt 0.46875 0.373047
vt 0.507812 0.373047
vt 0.609375 0.482422
vt 0.648438 0.5
vt 0.648438 0.482422
vt 0.578125 0.640625
vt 0.5625 0.703125
vt 0.5625 0.640625
vt 0.359375 0.9375
vt 0.28125 1
vt 0.28125 0.9375
vt 0.578125 0.578125
vt 0.5625 0.640625
vt 0.5625 0.578125
vt 0.359375 0.875
vt 0.28125 0.9375
vt 0.28125 0.875
vt 0.328125 0.640625
vt 0.34375 0.5625
vt 0.34375 0.640625
vt 0.453125 0.421875
vt 0.46875 0.5
vt 0.46875 0.421875
vt 0.578125 0.515625
vt 0.5625 0.578125
vt 0.5625 0.515625
vt 0.078125 0.640625
vt 0 0.703125
vt 0 0.640625
vt 0.578125 0.4375
vt 0.5625 0.5
vt 0.5625 0.4375
vt 0.15625 0.640625
vt 0.078125 0.703125
vt 0.078125 0.640625
vt 0.5 0.5
vt 0.515625 0.421875
vt 0.515625 0.5
vt 0.515625 0.78125
vt 0.53125 0.859375
vt 0.53125 0.78125
vt 0.083008 0.53125
vt 0.046875 0.640625
vt 0.046875 0.53125
vt 0.125 0.40625
vt 0.142578 0.515625
vt 0.125 0.515625
vt 0.129883 0.53125
vt 0.09375 0.640625
vt 0.09375 0.53125
vt 0.484375 0.75
vt 0.501953 0.859375
vt 0.484375 0.859375
vt 0.239258 0.375
vt 0.203125 0.357422
vt 0.239258 0.357422
vt 0.625 0.763672
vt 0.661133 0.78125
vt 0.661133 0.763672
vt 0.648438 0.698242
vt 0.609375 0.71875
vt 0.609375 0.698242
vt 0.283203 0.32324200000000003
vt 0.265625 0.34375
vt 0.265625 0.32324200000000003
vt 0.648438 0.666992
vt 0.609375 0.6875
vt 0.609375 0.666992
vt 0.673828 0.698242
vt 0.65625 0.71875
vt 0.65625 0.698242
vt 0.515625 0.390625
vt 0.554688 0.373047
vt 0.554688 0.390625
vt 0.609375 0.451172
vt 0.648438 0.46875
vt 0.648438 0.451172
vt 0.317383 0.46875
vt 0.28125 0.515625
vt 0.28125 0.46875
vt 0.453125 0.359375
vt 0.4375 0.40625
vt 0.4375 0.359375
vt 0.536133 0.890625
vt 0.5 0.9375
vt 0.5 0.890625
vt 0.09375 0.34375
vt 0.078125 0.390625
vt 0.078125 0.34375
vt 0.676758 0.890625
vt 0.640625 0.875
vt 0.676758 0.875
vt 0.25 0.34375
vt 0.286133 0.359375
vt 0.286133 0.34375
vt 0.609375 0.635742
vt 0.648438 0.65625
vt 0.609375 0.65625
vt 0.673828 0.666992
vt 0.65625 0.6875
vt 0.65625 0.666992
vt 0.648438 0.604492
vt 0.609375 0.625
vt 0.609375 0.604492
vt 0.345703 0.32324200000000003
vt 0.328125 0.34375
vt 0.328125 0.32324200000000003
vt 0.609375 0.40625
vt 0.648438 0.388672
vt 0.648438 0.40625
vt 0.625 0.982422
vt 0.664062 1
vt 0.664062 0.982422
vt 0.109375 0.37988299999999997
vt 0.145508 0.40625
vt 0.109375 0.40625
vt 0.609375 0.33300799999999997
vt 0.625 0.359375
vt 0.609375 0.359375
vt 0.390625 0.37988299999999997
vt 0.426758 0.40625
vt 0.390625 0.40625
vt 0.625 0.33300799999999997
vt 0.640625 0.359375
vt 0.625 0.359375
vt 0.379883 0.359375
vt 0.34375 0.34375
vt 0.379883 0.34375
vt 0.390625 0.34375
vt 0.426758 0.359375
vt 0.426758 0.34375
vt 0.458008 0.501953
vt 0.421875 0.578125
vt 0.421875 0.501953
vt 0.0625 0.376953
vt 0.046875 0.453125
vt 0.046875 0.376953
vt 0.453125 0.861328
vt 0.489258 0.9375
vt 0.453125 0.9375
vt 0.078125 0.376953
vt 0.0625 0.453125
vt 0.0625 0.376953
vt 0.4375 0.359375
vt 0.473633 0.34375
vt 0.473633 0.359375
vt 0.520508 0.34375
vt 0.484375 0.359375
vt 0.520508 0.359375
vt 0.132812 0.828125
vt 0 1
vt 0 0.828125
vt 0.367188 0.703125
vt 0.34375 0.875
vt 0.34375 0.703125
vt 0.273438 0.828125
vt 0.140625 1
vt 0.140625 0.828125
vt 0.367188 0.53125
vt 0.34375 0.703125
vt 0.34375 0.53125
vt 0.40625 1
vt 0.539062 0.976562
vt 0.539062 1
vt 0.40625 0.945312
vt 0.539062 0.96875
vt 0.539062 0.945312
vt 0.705078 0.760742
vt 0.671875 0.765625
vt 0.671875 0.760742
vt 0.708008 0.995117
vt 0.671875 1
vt 0.671875 0.995117
vt 0.671875 0.588867
vt 0.705078 0.59375
vt 0.671875 0.59375
vt 0.708008 0.979492
vt 0.671875 0.984375
vt 0.671875 0.979492
vt 0.314453 0.46875
vt 0.28125 0.43261700000000003
vt 0.314453 0.43261700000000003
vt 0.515625 0.43261700000000003
vt 0.548828 0.46875
vt 0.548828 0.43261700000000003
vt 0.695312 0.46386700000000003
vt 0.65625 0.46875
vt 0.65625 0.46386700000000003
vt 0.708008 0.963867
vt 0.671875 0.96875
vt 0.671875 0.963867
vt 0.585938 0.33886700000000003
vt 0.546875 0.34375
vt 0.546875 0.33886700000000003
vt 0.671875 0.948242
vt 0.708008 0.953125
vt 0.671875 0.953125
vt 0.398438 0.5
vt 0.359375 0.46386700000000003
vt 0.398438 0.46386700000000003
vt 0.5 0.573242
vt 0.539062 0.609375
vt 0.539062 0.573242
vt 0.445312 0.859375
vt 0.40625 0.9375
vt 0.40625 0.859375
vt 0.484375 0.78125
vt 0.453125 0.859375
vt 0.453125 0.78125
vt 0.179688 0.515625
vt 0.140625 0.59375
vt 0.140625 0.515625
vt 0.484375 0.703125
vt 0.453125 0.78125
vt 0.453125 0.703125
vt 0.515625 0.78125
vt 0.554688 0.75
vt 0.554688 0.78125
vt 0.515625 0.46875
vt 0.554688 0.5
vt 0.554688 0.46875
vt 0.443359 0.78125
vt 0.40625 0.859375
vt 0.40625 0.78125
vt 0.03125 0.453125
vt 0 0.53125
vt 0 0.453125
vt 0.224609 0.515625
vt 0.1875 0.59375
vt 0.1875 0.515625
vt 0.03125 0.453125
vt 0.0625 0.53125
vt 0.03125 0.53125
vt 0.53125 0.8125
vt 0.568359 0.78125
vt 0.568359 0.8125
vt 0.546875 0.921875
vt 0.583984 0.953125
vt 0.583984 0.921875
vt 0.40625 0.703125
vt 0.443359 0.78125
vt 0.40625 0.78125
vt 0.09375 0.453125
vt 0.0625 0.53125
vt 0.0625 0.453125
vt 0.234375 0.515625
vt 0.271484 0.59375
vt 0.234375 0.59375
vt 0.125 0.453125
vt 0.09375 0.53125
vt 0.09375 0.453125
vt 0.078125 0.453125
vt 0.115234 0.421875
vt 0.115234 0.453125
vt 0.546875 0.890625
vt 0.583984 0.921875
vt 0.583984 0.890625
vt 0.695312 0.49511700000000003
vt 0.65625 0.5
vt 0.65625 0.49511700000000003
vt 0.692383 0.38574200000000003
vt 0.65625 0.390625
vt 0.65625 0.38574200000000003
vt 0.695312 0.47949200000000003
vt 0.65625 0.484375
vt 0.65625 0.47949200000000003
vt 0.692383 0.37011700000000003
vt 0.65625 0.375
vt 0.65625 0.37011700000000003
vt 0.5 0.703125
vt 0.539062 0.666992
vt 0.539062 0.703125
vt 0.5 0.620117
vt 0.539062 0.65625
vt 0.539062 0.620117
vt 0.705078 0.791992
vt 0.671875 0.796875
vt 0.671875 0.791992
vt 0.65625 0.35449200000000003
vt 0.692383 0.359375
vt 0.65625 0.359375
vt 0.705078 0.776367
vt 0.671875 0.78125
vt 0.671875 0.776367
vt 0.692383 0.33886700000000003
vt 0.65625 0.34375
vt 0.65625 0.33886700000000003
vt 0.53125 0.859375
vt 0.564453 0.823242
vt 0.564453 0.859375
vt 0.53125 0.713867
vt 0.564453 0.75
vt 0.564453 0.713867
vt 0.455078 0.32324200000000003
vt 0.421875 0.328125
vt 0.421875 0.32324200000000003
vt 0.708008 0.870117
vt 0.671875 0.875
vt 0.671875 0.870117
vt 0.705078 0.573242
vt 0.671875 0.578125
vt 0.671875 0.573242
vt 0.671875 0.854492
vt 0.708008 0.859375
vt 0.671875 0.859375
vt 0 0.453125
vt 0.033203 0.41699200000000003
vt 0.033203 0.453125
vt 0.546875 0.963867
vt 0.580078 1
vt 0.580078 0.963867
vt 0.695312 0.44824200000000003
vt 0.65625 0.453125
vt 0.65625 0.44824200000000003
vt 0.708008 0.838867
vt 0.671875 0.84375
vt 0.671875 0.838867
vt 0.695312 0.40136700000000003
vt 0.65625 0.40625
vt 0.65625 0.40136700000000003
vt 0.708008 0.823242
vt 0.671875 0.828125
vt 0.671875 0.823242
vt 0.40625 0.5
vt 0.445312 0.46386700000000003
vt 0.445312 0.5
vt 0.5 0.526367
vt 0.539062 0.5625
vt 0.539062 0.526367
vt 0.453125 0.30957
vt 0.4375 0.3125
vt 0.4375 0.30957
vt 0.712891 0.700195
vt 0.6875 0.703125
vt 0.6875 0.700195
vt 0.703125 0.55957
vt 0.6875 0.5625
vt 0.6875 0.55957
vt 0.337891 0.30957
vt 0.3125 0.3125
vt 0.3125 0.30957
vt 0.65625 0.875
vt 0.671875 0.849609
vt 0.671875 0.875
vt 0.140625 0.31835900000000006
vt 0.15625 0.34375
vt 0.15625 0.31835900000000006
vt 0.46875 0.30957
vt 0.453125 0.3125
vt 0.453125 0.30957
vt 0.712891 0.68457
vt 0.6875 0.6875
vt 0.6875 0.68457
vt 0.703125 0.543945
vt 0.6875 0.546875
vt 0.6875 0.543945
vt 0.712891 0.668945
vt 0.6875 0.671875
vt 0.6875 0.668945
vt 0.15625 0.34375
vt 0.171875 0.31835900000000006
vt 0.171875 0.34375
vt 0.65625 0.818359
vt 0.671875 0.84375
vt 0.671875 0.818359
vt 0.5625 0.629883
vt 0.546875 0.703125
vt 0.546875 0.629883
vt 0.181641 0.44238299999999997
vt 0.15625 0.515625
vt 0.15625 0.44238299999999997
vt 0.375 0.37988299999999997
vt 0.359375 0.453125
vt 0.359375 0.37988299999999997
vt 0.212891 0.44238299999999997
vt 0.1875 0.515625
vt 0.1875 0.44238299999999997
vt 0.640625 0.359375
vt 0.65625 0.33398400000000006
vt 0.65625 0.359375
vt 0.65625 0.943359
vt 0.671875 0.96875
vt 0.671875 0.943359
vt 0.390625 0.37988299999999997
vt 0.375 0.453125
vt 0.375 0.37988299999999997
vt 0.244141 0.44238299999999997
vt 0.21875 0.515625
vt 0.21875 0.44238299999999997
vt 0.5625 0.551758
vt 0.546875 0.625
vt 0.546875 0.551758
vt 0.275391 0.44238299999999997
vt 0.25 0.515625
vt 0.25 0.44238299999999997
vt 0.046875 0.34375
vt 0.0625 0.31835900000000006
vt 0.0625 0.34375
vt 0.0625 0.31835900000000006
vt 0.078125 0.34375
vt 0.078125 0.31835900000000006
vt 0.359375 0.30957
vt 0.34375 0.3125
vt 0.34375 0.30957
vt 0.712891 0.74707
vt 0.6875 0.75
vt 0.6875 0.74707
vt 0.703125 0.62207
vt 0.6875 0.625
vt 0.6875 0.62207
vt 0.712891 0.731445
vt 0.6875 0.734375
vt 0.6875 0.731445
vt 0.078125 0.34375
vt 0.09375 0.31835900000000006
vt 0.09375 0.34375
vt 0.09375 0.31835900000000006
vt 0.109375 0.34375
vt 0.109375 0.31835900000000006
vt 0.6875 0.606445
vt 0.703125 0.609375
vt 0.6875 0.609375
vt 0.306641 0.30957
vt 0.28125 0.3125
vt 0.28125 0.30957
vt 0.4375 0.30957
vt 0.421875 0.3125
vt 0.421875 0.30957
vt 0.712891 0.71582
vt 0.6875 0.71875
vt 0.6875 0.71582
vt 0.109375 0.34375
vt 0.125 0.31835900000000006
vt 0.125 0.34375
vt 0.140625 0.31835900000000006
vt 0.125 0.34375
vt 0.140625 0.34375
vt 0.6875 0.90332
vt 0.71875 0.90625
vt 0.6875 0.90625
vt 0.71875 0.887695
vt 0.6875 0.890625
vt 0.6875 0.887695
vt 0.15625 0.30957
vt 0.125 0.3125
vt 0.125 0.30957
vt 0.1875 0.30957
vt 0.15625 0.3125
vt 0.15625 0.30957
vt 0.578125 0.625
vt 0.609375 0.59375
vt 0.609375 0.625
vt 0.578125 0.5625
vt 0.609375 0.59375
vt 0.609375 0.5625
vt 0.21875 0.30957
vt 0.1875 0.3125
vt 0.1875 0.30957
vt 0.71875 0.80957
vt 0.6875 0.8125
vt 0.6875 0.80957
vt 0.25 0.30957
vt 0.21875 0.3125
vt 0.21875 0.30957
vt 0.28125 0.30957
vt 0.25 0.3125
vt 0.25 0.30957
vt 0.578125 0.5625
vt 0.609375 0.53125
vt 0.609375 0.5625
vt 0.5 0.390625
vt 0.53125 0.421875
vt 0.53125 0.390625
vt 0.609375 0.46875
vt 0.578125 0.5
vt 0.578125 0.46875
vt 0.5625 0.390625
vt 0.53125 0.421875
vt 0.53125 0.390625
vt 0.609375 0.4375
vt 0.578125 0.46875
vt 0.578125 0.4375
vt 0.03125 0.375
vt 0 0.40625
vt 0 0.375
vt 0.59375 1
vt 0.625 0.96875
vt 0.625 1
vt 0.59375 0.9375
vt 0.625 0.96875
vt 0.625 0.9375
vt 0.59375 0.40625
vt 0.5625 0.4375
vt 0.5625 0.40625
vt 0.109375 0.390625
vt 0.078125 0.421875
vt 0.078125 0.390625
vt 0.609375 0.828125
vt 0.578125 0.859375
vt 0.578125 0.828125
vt 0.609375 0.796875
vt 0.578125 0.828125
vt 0.578125 0.796875
vt 0.578125 0.75
vt 0.609375 0.71875
vt 0.609375 0.75
vt 0.3125 0.390625
vt 0.28125 0.421875
vt 0.3125 0.421875
vt 0.671875 0.325195
vt 0.640625 0.328125
vt 0.640625 0.325195
vt 0.703125 0.325195
vt 0.671875 0.328125
vt 0.671875 0.325195
vt 0.03125 0.30957
vt 0 0.3125
vt 0 0.30957
vt 0.0625 0.30957
vt 0.03125 0.3125
vt 0.03125 0.30957
vt 0.578125 0.71875
vt 0.609375 0.6875
vt 0.609375 0.71875
vt 0.34375 0.390625
vt 0.3125 0.421875
vt 0.34375 0.421875
vt 0.09375 0.30957
vt 0.0625 0.3125
vt 0.0625 0.30957
vt 0.6875 0.93457
vt 0.71875 0.9375
vt 0.6875 0.9375
vt 0.6875 0.918945
vt 0.71875 0.921875
vt 0.6875 0.921875
vt 0.09375 0.30957
vt 0.125 0.3125
vt 0.09375 0.3125
vt 0.609375 0.6875
vt 0.578125 0.65625
vt 0.609375 0.65625
vt 0.578125 0.625
vt 0.609375 0.65625
vt 0.609375 0.625
vt 0.416992 0.41113299999999997
vt 0.390625 0.453125
vt 0.390625 0.41113299999999997
vt 0.043945 0.31738299999999997
vt 0.03125 0.359375
vt 0.03125 0.31738299999999997
vt 0.421875 0.41113299999999997
vt 0.448242 0.453125
vt 0.421875 0.453125
vt 0.30957 0.31738299999999997
vt 0.296875 0.359375
vt 0.296875 0.31738299999999997
vt 0.25 0.375
vt 0.276367 0.362305
vt 0.276367 0.375
vt 0.432617 0.362305
vt 0.40625 0.375
vt 0.432617 0.375
vt 0.677734 0.536133
vt 0.671875 0.5625
vt 0.671875 0.536133
vt 0.46875 0.30175799999999997
vt 0.474609 0.328125
vt 0.46875 0.328125
vt 0.677734 0.504883
vt 0.671875 0.53125
vt 0.671875 0.504883
vt 0.484375 0.30175799999999997
vt 0.490234 0.328125
vt 0.484375 0.328125
vt 0.546875 0.3125
vt 0.552734 0.30664099999999994
vt 0.552734 0.3125
vt 0.5625 0.30664099999999994
vt 0.568359 0.3125
vt 0.568359 0.30664099999999994
vt 0.5 0.28613299999999997
vt 0.50293 0.34375
vt 0.5 0.34375
vt 0.518555 0.28613299999999997
vt 0.515625 0.34375
vt 0.515625 0.28613299999999997
vt 0.674805 0.598633
vt 0.671875 0.65625
vt 0.671875 0.598633
vt 0.40918 0.27050799999999997
vt 0.40625 0.328125
vt 0.40625 0.27050799999999997
vt 0.6875 0.4375
vt 0.69043 0.43457
vt 0.69043 0.4375
vt 0.581055 0.30957
vt 0.578125 0.3125
vt 0.581055 0.3125
vt 0.645508 0.9375
vt 0.625 0.96875
vt 0.625 0.9375
vt 0.34375 0.53125
vt 0.328125 0.5625
vt 0.328125 0.53125
vt 0.067383 0.34375
vt 0.046875 0.375
vt 0.046875 0.34375
vt 0.375 0.5
vt 0.359375 0.53125
vt 0.359375 0.5
vt 0.640625 0.421875
vt 0.661133 0.40625
vt 0.661133 0.421875
vt 0.65625 0.796875
vt 0.676758 0.8125
vt 0.676758 0.796875
vt 0.625 0.765625
vt 0.5625 0.78125
vt 0.5625 0.765625
vt 0.669922 0.578125
vt 0.65625 0.59375
vt 0.65625 0.578125
vt 0.625 0.75
vt 0.5625 0.765625
vt 0.5625 0.75
vt 0.435547 0.328125
vt 0.421875 0.34375
vt 0.421875 0.328125
vt 0.59375 0.875
vt 0.65625 0.861328
vt 0.65625 0.875
vt 0.59375 0.501953
vt 0.65625 0.515625
vt 0.65625 0.501953
vt 0.359375 0.875
vt 0.375 0.890625
vt 0.359375 0.890625
vt 0.669922 0.5625
vt 0.65625 0.578125
vt 0.65625 0.5625
vt 0.140625 0.515625
vt 0.125 0.53125
vt 0.125 0.515625
vt 0.451172 0.328125
vt 0.4375 0.34375
vt 0.4375 0.328125
vt 0.65625 0.5625
vt 0.671875 0.548828
vt 0.671875 0.5625
vt 0.453125 0.330078
vt 0.46875 0.34375
vt 0.46875 0.330078
vt 0.109375 0.40625
vt 0.125 0.421875
vt 0.109375 0.421875
vt 0.669922 0.53125
vt 0.65625 0.546875
vt 0.65625 0.53125
vt 0.421875 0.328125
vt 0.40625 0.34375
vt 0.40625 0.328125
vt 0.482422 0.328125
vt 0.46875 0.34375
vt 0.46875 0.328125
vt 0.484375 0.34375
vt 0.5 0.330078
vt 0.5 0.34375
vt 0.65625 0.501953
vt 0.671875 0.515625
vt 0.671875 0.501953
vt 0.224609 0.59375
vt 0.224609 0.640625
vt 0.140625 0.640625
vt 0.109375 0.34375
vt 0.109375 0.390625
vt 0.09375 0.390625
vt 0.318359 0.59375
vt 0.318359 0.640625
vt 0.234375 0.640625
vt 0.34375 0.34375
vt 0.34375 0.390625
vt 0.328125 0.390625
vt 0.5 0.875
vt 0.5 0.859375
vt 0.583984 0.859375
vt 0.5 0.5
vt 0.5 0.515625
vt 0.583984 0.515625
vt 0.599609 0.38281199999999993
vt 0.599609 0.40625
vt 0.5625 0.40625
vt 0.689453 0.507812
vt 0.689453 0.53125
vt 0.6875 0.53125
vt 0.630859 0.41406199999999993
vt 0.630859 0.4375
vt 0.59375 0.4375
vt 0.53125 0.28906199999999993
vt 0.533203 0.28906199999999993
vt 0.533203 0.3125
vt 0.6875 0.65625
vt 0.6875 0.654297
vt 0.724609 0.654297
vt 0.6875 0.638672
vt 0.6875 0.640625
vt 0.724609 0.640625
vt 0.125 0.703125
vt 0.125 0.828125
vt 0 0.828125
vt 0.40625 0.765625
vt 0.40625 0.890625
vt 0.375 0.890625
vt 0.25 0.703125
vt 0.25 0.828125
vt 0.125 0.828125
vt 0.40625 0.640625
vt 0.40625 0.765625
vt 0.375 0.765625
vt 0.375 0.640625
vt 0.375 0.609375
vt 0.5 0.609375
vt 0.375 0.578125
vt 0.375 0.609375
vt 0.5 0.609375
vt 0.25 0.651367
vt 0.25 0.703125
vt 0.15625 0.703125
vt 0.359375 0.37011700000000003
vt 0.359375 0.421875
vt 0.34375 0.421875
vt 0.34375 0.651367
vt 0.34375 0.703125
vt 0.25 0.703125
vt 0.453125 0.37011700000000003
vt 0.46875 0.37011700000000003
vt 0.46875 0.421875
vt 0.40625 0.65625
vt 0.40625 0.640625
vt 0.5 0.640625
vt 0.5 0.875
vt 0.5 0.890625
vt 0.59375 0.890625
vt 0.036133 0.53125
vt 0.036133 0.640625
vt 0 0.640625
vt 0.345703 0.421875
vt 0.345703 0.53125
vt 0.328125 0.53125
vt 0.359375 0.890625
vt 0.395508 0.890625
vt 0.395508 1
vt 0.486328 0.46875
vt 0.486328 0.578125
vt 0.46875 0.578125
vt 0.109375 0.375
vt 0.109375 0.357422
vt 0.145508 0.357422
vt 0.15625 0.357422
vt 0.15625 0.375
vt 0.192383 0.375
vt 0.453125 0.65625
vt 0.489258 0.65625
vt 0.489258 0.703125
vt 0.34375 0.828125
vt 0.34375 0.875
vt 0.328125 0.875
vt 0.520508 0.703125
vt 0.520508 0.75
vt 0.484375 0.75
vt 0.03125 0.359375
vt 0.046875 0.359375
vt 0.046875 0.40625
vt 0.359375 0.375
vt 0.359375 0.359375
vt 0.395508 0.359375
vt 0.598633 0.359375
vt 0.5625 0.359375
vt 0.5625 0.375
vt 0.629883 0.911133
vt 0.629883 0.9375
vt 0.59375 0.9375
vt 0.5625 0.520508
vt 0.5625 0.546875
vt 0.546875 0.546875
vt 0.629883 0.879883
vt 0.629883 0.90625
vt 0.59375 0.90625
vt 0.609375 0.33300799999999997
vt 0.609375 0.359375
vt 0.59375 0.359375
vt 0.609375 0.375
vt 0.609375 0.359375
vt 0.645508 0.359375
vt 0.640625 0.921875
vt 0.640625 0.9375
vt 0.676758 0.9375
vt 0.317383 0.517578
vt 0.317383 0.59375
vt 0.28125 0.59375
vt 0.46875 0.392578
vt 0.484375 0.392578
vt 0.484375 0.46875
vt 0.411133 0.501953
vt 0.411133 0.578125
vt 0.375 0.578125
vt 0.484375 0.392578
vt 0.5 0.392578
vt 0.5 0.46875
vt 0.640625 0.921875
vt 0.640625 0.90625
vt 0.676758 0.90625
vt 0.640625 0.890625
vt 0.640625 0.90625
vt 0.676758 0.90625
vt 0.648438 0.838867
vt 0.648438 0.859375
vt 0.609375 0.859375
vt 0.171875 0.32324200000000003
vt 0.189453 0.32324200000000003
vt 0.189453 0.34375
vt 0.609375 0.807617
vt 0.648438 0.807617
vt 0.648438 0.828125
vt 0.203125 0.32324200000000003
vt 0.220703 0.32324200000000003
vt 0.220703 0.34375
vt 0.609375 0.59375
vt 0.609375 0.576172
vt 0.648438 0.576172
vt 0.648438 0.544922
vt 0.609375 0.544922
vt 0.609375 0.5625
vt 0.648438 0.729492
vt 0.648438 0.75
vt 0.609375 0.75
vt 0.234375 0.32324200000000003
vt 0.251953 0.32324200000000003
vt 0.251953 0.34375
vt 0.320312 0.37011700000000003
vt 0.320312 0.390625
vt 0.28125 0.390625
vt 0.673828 0.729492
vt 0.673828 0.75
vt 0.65625 0.75
vt 0.507812 0.390625
vt 0.46875 0.390625
vt 0.46875 0.373047
vt 0.609375 0.482422
vt 0.609375 0.5
vt 0.648438 0.5
vt 0.578125 0.640625
vt 0.578125 0.703125
vt 0.5625 0.703125
vt 0.359375 0.9375
vt 0.359375 1
vt 0.28125 1
vt 0.578125 0.578125
vt 0.578125 0.640625
vt 0.5625 0.640625
vt 0.359375 0.875
vt 0.359375 0.9375
vt 0.28125 0.9375
vt 0.328125 0.640625
vt 0.328125 0.5625
vt 0.34375 0.5625
vt 0.453125 0.421875
vt 0.453125 0.5
vt 0.46875 0.5
vt 0.578125 0.515625
vt 0.578125 0.578125
vt 0.5625 0.578125
vt 0.078125 0.640625
vt 0.078125 0.703125
vt 0 0.703125
vt 0.578125 0.4375
vt 0.578125 0.5
vt 0.5625 0.5
vt 0.15625 0.640625
vt 0.15625 0.703125
vt 0.078125 0.703125
vt 0.5 0.5
vt 0.5 0.421875
vt 0.515625 0.421875
vt 0.515625 0.78125
vt 0.515625 0.859375
vt 0.53125 0.859375
vt 0.083008 0.53125
vt 0.083008 0.640625
vt 0.046875 0.640625
vt 0.125 0.40625
vt 0.142578 0.40625
vt 0.142578 0.515625
vt 0.129883 0.53125
vt 0.129883 0.640625
vt 0.09375 0.640625
vt 0.484375 0.75
vt 0.501953 0.75
vt 0.501953 0.859375
vt 0.239258 0.375
vt 0.203125 0.375
vt 0.203125 0.357422
vt 0.625 0.763672
vt 0.625 0.78125
vt 0.661133 0.78125
vt 0.648438 0.698242
vt 0.648438 0.71875
vt 0.609375 0.71875
vt 0.283203 0.32324200000000003
vt 0.283203 0.34375
vt 0.265625 0.34375
vt 0.648438 0.666992
vt 0.648438 0.6875
vt 0.609375 0.6875
vt 0.673828 0.698242
vt 0.673828 0.71875
vt 0.65625 0.71875
vt 0.515625 0.390625
vt 0.515625 0.373047
vt 0.554688 0.373047
vt 0.609375 0.451172
vt 0.609375 0.46875
vt 0.648438 0.46875
vt 0.317383 0.46875
vt 0.317383 0.515625
vt 0.28125 0.515625
vt 0.453125 0.359375
vt 0.453125 0.40625
vt 0.4375 0.40625
vt 0.536133 0.890625
vt 0.536133 0.9375
vt 0.5 0.9375
vt 0.09375 0.34375
vt 0.09375 0.390625
vt 0.078125 0.390625
vt 0.676758 0.890625
vt 0.640625 0.890625
vt 0.640625 0.875
vt 0.25 0.34375
vt 0.25 0.359375
vt 0.286133 0.359375
vt 0.609375 0.635742
vt 0.648438 0.635742
vt 0.648438 0.65625
vt 0.673828 0.666992
vt 0.673828 0.6875
vt 0.65625 0.6875
vt 0.648438 0.604492
vt 0.648438 0.625
vt 0.609375 0.625
vt 0.345703 0.32324200000000003
vt 0.345703 0.34375
vt 0.328125 0.34375
vt 0.609375 0.40625
vt 0.609375 0.388672
vt 0.648438 0.388672
vt 0.625 0.982422
vt 0.625 1
vt 0.664062 1
vt 0.109375 0.37988299999999997
vt 0.145508 0.37988299999999997
vt 0.145508 0.40625
vt 0.609375 0.33300799999999997
vt 0.625 0.33300799999999997
vt 0.625 0.359375
vt 0.390625 0.37988299999999997
vt 0.426758 0.37988299999999997
vt 0.426758 0.40625
vt 0.625 0.33300799999999997
vt 0.640625 0.33300799999999997
vt 0.640625 0.359375
vt 0.379883 0.359375
vt 0.34375 0.359375
vt 0.34375 0.34375
vt 0.390625 0.34375
vt 0.390625 0.359375
vt 0.426758 0.359375
vt 0.458008 0.501953
vt 0.458008 0.578125
vt 0.421875 0.578125
vt 0.0625 0.376953
vt 0.0625 0.453125
vt 0.046875 0.453125
vt 0.453125 0.861328
vt 0.489258 0.861328
vt 0.489258 0.9375
vt 0.078125 0.376953
vt 0.078125 0.453125
vt 0.0625 0.453125
vt 0.4375 0.359375
vt 0.4375 0.34375
vt 0.473633 0.34375
vt 0.520508 0.34375
vt 0.484375 0.34375
vt 0.484375 0.359375
vt 0.132812 0.828125
vt 0.132812 1
vt 0 1
vt 0.367188 0.703125
vt 0.367188 0.875
vt 0.34375 0.875
vt 0.273438 0.828125
vt 0.273438 1
vt 0.140625 1
vt 0.367188 0.53125
vt 0.367188 0.703125
vt 0.34375 0.703125
vt 0.40625 1
vt 0.40625 0.976562
vt 0.539062 0.976562
vt 0.40625 0.945312
vt 0.40625 0.96875
vt 0.539062 0.96875
vt 0.705078 0.760742
vt 0.705078 0.765625
vt 0.671875 0.765625
vt 0.708008 0.995117
vt 0.708008 1
vt 0.671875 1
vt 0.671875 0.588867
vt 0.705078 0.588867
vt 0.705078 0.59375
vt 0.708008 0.979492
vt 0.708008 0.984375
vt 0.671875 0.984375
vt 0.314453 0.46875
vt 0.28125 0.46875
vt 0.28125 0.43261700000000003
vt 0.515625 0.43261700000000003
vt 0.515625 0.46875
vt 0.548828 0.46875
vt 0.695312 0.46386700000000003
vt 0.695312 0.46875
vt 0.65625 0.46875
vt 0.708008 0.963867
vt 0.708008 0.96875
vt 0.671875 0.96875
vt 0.585938 0.33886700000000003
vt 0.585938 0.34375
vt 0.546875 0.34375
vt 0.671875 0.948242
vt 0.708008 0.948242
vt 0.708008 0.953125
vt 0.398438 0.5
vt 0.359375 0.5
vt 0.359375 0.46386700000000003
vt 0.5 0.573242
vt 0.5 0.609375
vt 0.539062 0.609375
vt 0.445312 0.859375
vt 0.445312 0.9375
vt 0.40625 0.9375
vt 0.484375 0.78125
vt 0.484375 0.859375
vt 0.453125 0.859375
vt 0.179688 0.515625
vt 0.179688 0.59375
vt 0.140625 0.59375
vt 0.484375 0.703125
vt 0.484375 0.78125
vt 0.453125 0.78125
vt 0.515625 0.78125
vt 0.515625 0.75
vt 0.554688 0.75
vt 0.515625 0.46875
vt 0.515625 0.5
vt 0.554688 0.5
vt 0.443359 0.78125
vt 0.443359 0.859375
vt 0.40625 0.859375
vt 0.03125 0.453125
vt 0.03125 0.53125
vt 0 0.53125
vt 0.224609 0.515625
vt 0.224609 0.59375
vt 0.1875 0.59375
vt 0.03125 0.453125
vt 0.0625 0.453125
vt 0.0625 0.53125
vt 0.53125 0.8125
vt 0.53125 0.78125
vt 0.568359 0.78125
vt 0.546875 0.921875
vt 0.546875 0.953125
vt 0.583984 0.953125
vt 0.40625 0.703125
vt 0.443359 0.703125
vt 0.443359 0.78125
vt 0.09375 0.453125
vt 0.09375 0.53125
vt 0.0625 0.53125
vt 0.234375 0.515625
vt 0.271484 0.515625
vt 0.271484 0.59375
vt 0.125 0.453125
vt 0.125 0.53125
vt 0.09375 0.53125
vt 0.078125 0.453125
vt 0.078125 0.421875
vt 0.115234 0.421875
vt 0.546875 0.890625
vt 0.546875 0.921875
vt 0.583984 0.921875
vt 0.695312 0.49511700000000003
vt 0.695312 0.5
vt 0.65625 0.5
vt 0.692383 0.38574200000000003
vt 0.692383 0.390625
vt 0.65625 0.390625
vt 0.695312 0.47949200000000003
vt 0.695312 0.484375
vt 0.65625 0.484375
vt 0.692383 0.37011700000000003
vt 0.692383 0.375
vt 0.65625 0.375
vt 0.5 0.703125
vt 0.5 0.666992
vt 0.539062 0.666992
vt 0.5 0.620117
vt 0.5 0.65625
vt 0.539062 0.65625
vt 0.705078 0.791992
vt 0.705078 0.796875
vt 0.671875 0.796875
vt 0.65625 0.35449200000000003
vt 0.692383 0.35449200000000003
vt 0.692383 0.359375
vt 0.705078 0.776367
vt 0.705078 0.78125
vt 0.671875 0.78125
vt 0.692383 0.33886700000000003
vt 0.692383 0.34375
vt 0.65625 0.34375
vt 0.53125 0.859375
vt 0.53125 0.823242
vt 0.564453 0.823242
vt 0.53125 0.713867
vt 0.53125 0.75
vt 0.564453 0.75
vt 0.455078 0.32324200000000003
vt 0.455078 0.328125
vt 0.421875 0.328125
vt 0.708008 0.870117
vt 0.708008 0.875
vt 0.671875 0.875
vt 0.705078 0.573242
vt 0.705078 0.578125
vt 0.671875 0.578125
vt 0.671875 0.854492
vt 0.708008 0.854492
vt 0.708008 0.859375
vt 0 0.453125
vt 0 0.41699200000000003
vt 0.033203 0.41699200000000003
vt 0.546875 0.963867
vt 0.546875 1
vt 0.580078 1
vt 0.695312 0.44824200000000003
vt 0.695312 0.453125
vt 0.65625 0.453125
vt 0.708008 0.838867
vt 0.708008 0.84375
vt 0.671875 0.84375
vt 0.695312 0.40136700000000003
vt 0.695312 0.40625
vt 0.65625 0.40625
vt 0.708008 0.823242
vt 0.708008 0.828125
vt 0.671875 0.828125
vt 0.40625 0.5
vt 0.40625 0.46386700000000003
vt 0.445312 0.46386700000000003
vt 0.5 0.526367
vt 0.5 0.5625
vt 0.539062 0.5625
vt 0.453125 0.30957
vt 0.453125 0.3125
vt 0.4375 0.3125
vt 0.712891 0.700195
vt 0.712891 0.703125
vt 0.6875 0.703125
vt 0.703125 0.55957
vt 0.703125 0.5625
vt 0.6875 0.5625
vt 0.337891 0.30957
vt 0.337891 0.3125
vt 0.3125 0.3125
vt 0.65625 0.875
vt 0.65625 0.849609
vt 0.671875 0.849609
vt 0.140625 0.31835900000000006
vt 0.140625 0.34375
vt 0.15625 0.34375
vt 0.46875 0.30957
vt 0.46875 0.3125
vt 0.453125 0.3125
vt 0.712891 0.68457
vt 0.712891 0.6875
vt 0.6875 0.6875
vt 0.703125 0.543945
vt 0.703125 0.546875
vt 0.6875 0.546875
vt 0.712891 0.668945
vt 0.712891 0.671875
vt 0.6875 0.671875
vt 0.15625 0.34375
vt 0.15625 0.31835900000000006
vt 0.171875 0.31835900000000006
vt 0.65625 0.818359
vt 0.65625 0.84375
vt 0.671875 0.84375
vt 0.5625 0.629883
vt 0.5625 0.703125
vt 0.546875 0.703125
vt 0.181641 0.44238299999999997
vt 0.181641 0.515625
vt 0.15625 0.515625
vt 0.375 0.37988299999999997
vt 0.375 0.453125
vt 0.359375 0.453125
vt 0.212891 0.44238299999999997
vt 0.212891 0.515625
vt 0.1875 0.515625
vt 0.640625 0.359375
vt 0.640625 0.33398400000000006
vt 0.65625 0.33398400000000006
vt 0.65625 0.943359
vt 0.65625 0.96875
vt 0.671875 0.96875
vt 0.390625 0.37988299999999997
vt 0.390625 0.453125
vt 0.375 0.453125
vt 0.244141 0.44238299999999997
vt 0.244141 0.515625
vt 0.21875 0.515625
vt 0.5625 0.551758
vt 0.5625 0.625
vt 0.546875 0.625
vt 0.275391 0.44238299999999997
vt 0.275391 0.515625
vt 0.25 0.515625
vt 0.046875 0.34375
vt 0.046875 0.31835900000000006
vt 0.0625 0.31835900000000006
vt 0.0625 0.31835900000000006
vt 0.0625 0.34375
vt 0.078125 0.34375
vt 0.359375 0.30957
vt 0.359375 0.3125
vt 0.34375 0.3125
vt 0.712891 0.74707
vt 0.712891 0.75
vt 0.6875 0.75
vt 0.703125 0.62207
vt 0.703125 0.625
vt 0.6875 0.625
vt 0.712891 0.731445
vt 0.712891 0.734375
vt 0.6875 0.734375
vt 0.078125 0.34375
vt 0.078125 0.31835900000000006
vt 0.09375 0.31835900000000006
vt 0.09375 0.31835900000000006
vt 0.09375 0.34375
vt 0.109375 0.34375
vt 0.6875 0.606445
vt 0.703125 0.606445
vt 0.703125 0.609375
vt 0.306641 0.30957
vt 0.306641 0.3125
vt 0.28125 0.3125
vt 0.4375 0.30957
vt 0.4375 0.3125
vt 0.421875 0.3125
vt 0.712891 0.71582
vt 0.712891 0.71875
vt 0.6875 0.71875
vt 0.109375 0.34375
vt 0.109375 0.31835900000000006
vt 0.125 0.31835900000000006
vt 0.140625 0.31835900000000006
vt 0.125 0.31835900000000006
vt 0.125 0.34375
vt 0.6875 0.90332
vt 0.71875 0.90332
vt 0.71875 0.90625
vt 0.71875 0.887695
vt 0.71875 0.890625
vt 0.6875 0.890625
vt 0.15625 0.30957
vt 0.15625 0.3125
vt 0.125 0.3125
vt 0.1875 0.30957
vt 0.1875 0.3125
vt 0.15625 0.3125
vt 0.578125 0.625
vt 0.578125 0.59375
vt 0.609375 0.59375
vt 0.578125 0.5625
vt 0.578125 0.59375
vt 0.609375 0.59375
vt 0.21875 0.30957
vt 0.21875 0.3125
vt 0.1875 0.3125
vt 0.71875 0.80957
vt 0.71875 0.8125
vt 0.6875 0.8125
vt 0.25 0.30957
vt 0.25 0.3125
vt 0.21875 0.3125
vt 0.28125 0.30957
vt 0.28125 0.3125
vt 0.25 0.3125
vt 0.578125 0.5625
vt 0.578125 0.53125
vt 0.609375 0.53125
vt 0.5 0.390625
vt 0.5 0.421875
vt 0.53125 0.421875
vt 0.609375 0.46875
vt 0.609375 0.5
vt 0.578125 0.5
vt 0.5625 0.390625
vt 0.5625 0.421875
vt 0.53125 0.421875
vt 0.609375 0.4375
vt 0.609375 0.46875
vt 0.578125 0.46875
vt 0.03125 0.375
vt 0.03125 0.40625
vt 0 0.40625
vt 0.59375 1
vt 0.59375 0.96875
vt 0.625 0.96875
vt 0.59375 0.9375
vt 0.59375 0.96875
vt 0.625 0.96875
vt 0.59375 0.40625
vt 0.59375 0.4375
vt 0.5625 0.4375
vt 0.109375 0.390625
vt 0.109375 0.421875
vt 0.078125 0.421875
vt 0.609375 0.828125
vt 0.609375 0.859375
vt 0.578125 0.859375
vt 0.609375 0.796875
vt 0.609375 0.828125
vt 0.578125 0.828125
vt 0.578125 0.75
vt 0.578125 0.71875
vt 0.609375 0.71875
vt 0.3125 0.390625
vt 0.28125 0.390625
vt 0.28125 0.421875
vt 0.671875 0.325195
vt 0.671875 0.328125
vt 0.640625 0.328125
vt 0.703125 0.325195
vt 0.703125 0.328125
vt 0.671875 0.328125
vt 0.03125 0.30957
vt 0.03125 0.3125
vt 0 0.3125
vt 0.0625 0.30957
vt 0.0625 0.3125
vt 0.03125 0.3125
vt 0.578125 0.71875
vt 0.578125 0.6875
vt 0.609375 0.6875
vt 0.34375 0.390625
vt 0.3125 0.390625
vt 0.3125 0.421875
vt 0.09375 0.30957
vt 0.09375 0.3125
vt 0.0625 0.3125
vt 0.6875 0.93457
vt 0.71875 0.93457
vt 0.71875 0.9375
vt 0.6875 0.918945
vt 0.71875 0.918945
vt 0.71875 0.921875
vt 0.09375 0.30957
vt 0.125 0.30957
vt 0.125 0.3125
vt 0.609375 0.6875
vt 0.578125 0.6875
vt 0.578125 0.65625
vt 0.578125 0.625
vt 0.578125 0.65625
vt 0.609375 0.65625
vt 0.416992 0.41113299999999997
vt 0.416992 0.453125
vt 0.390625 0.453125
vt 0.043945 0.31738299999999997
vt 0.043945 0.359375
vt 0.03125 0.359375
vt 0.421875 0.41113299999999997
vt 0.448242 0.41113299999999997
vt 0.448242 0.453125
vt 0.30957 0.31738299999999997
vt 0.30957 0.359375
vt 0.296875 0.359375
vt 0.25 0.375
vt 0.25 0.362305
vt 0.276367 0.362305
vt 0.432617 0.362305
vt 0.40625 0.362305
vt 0.40625 0.375
vt 0.677734 0.536133
vt 0.677734 0.5625
vt 0.671875 0.5625
vt 0.46875 0.30175799999999997
vt 0.474609 0.30175799999999997
vt 0.474609 0.328125
vt 0.677734 0.504883
vt 0.677734 0.53125
vt 0.671875 0.53125
vt 0.484375 0.30175799999999997
vt 0.490234 0.30175799999999997
vt 0.490234 0.328125
vt 0.546875 0.3125
vt 0.546875 0.30664099999999994
vt 0.552734 0.30664099999999994
vt 0.5625 0.30664099999999994
vt 0.5625 0.3125
vt 0.568359 0.3125
vt 0.5 0.28613299999999997
vt 0.50293 0.28613299999999997
vt 0.50293 0.34375
vt 0.518555 0.28613299999999997
vt 0.518555 0.34375
vt 0.515625 0.34375
vt 0.674805 0.598633
vt 0.674805 0.65625
vt 0.671875 0.65625
vt 0.40918 0.27050799999999997
vt 0.40918 0.328125
vt 0.40625 0.328125
vt 0.6875 0.4375
vt 0.6875 0.43457
vt 0.69043 0.43457
vt 0.581055 0.30957
vt 0.578125 0.30957
vt 0.578125 0.3125
vt 0.645508 0.9375
vt 0.645508 0.96875
vt 0.625 0.96875
vt 0.34375 0.53125
vt 0.34375 0.5625
vt 0.328125 0.5625
vt 0.067383 0.34375
vt 0.067383 0.375
vt 0.046875 0.375
vt 0.375 0.5
vt 0.375 0.53125
vt 0.359375 0.53125
vt 0.640625 0.421875
vt 0.640625 0.40625
vt 0.661133 0.40625
vt 0.65625 0.796875
vt 0.65625 0.8125
vt 0.676758 0.8125
vt 0.625 0.765625
vt 0.625 0.78125
vt 0.5625 0.78125
vt 0.669922 0.578125
vt 0.669922 0.59375
vt 0.65625 0.59375
vt 0.625 0.75
vt 0.625 0.765625
vt 0.5625 0.765625
vt 0.435547 0.328125
vt 0.435547 0.34375
vt 0.421875 0.34375
vt 0.59375 0.875
vt 0.59375 0.861328
vt 0.65625 0.861328
vt 0.59375 0.501953
vt 0.59375 0.515625
vt 0.65625 0.515625
vt 0.359375 0.875
vt 0.375 0.875
vt 0.375 0.890625
vt 0.669922 0.5625
vt 0.669922 0.578125
vt 0.65625 0.578125
vt 0.140625 0.515625
vt 0.140625 0.53125
vt 0.125 0.53125
vt 0.451172 0.328125
vt 0.451172 0.34375
vt 0.4375 0.34375
vt 0.65625 0.5625
vt 0.65625 0.548828
vt 0.671875 0.548828
vt 0.453125 0.330078
vt 0.453125 0.34375
vt 0.46875 0.34375
vt 0.109375 0.40625
vt 0.125 0.40625
vt 0.125 0.421875
vt 0.669922 0.53125
vt 0.669922 0.546875
vt 0.65625 0.546875
vt 0.421875 0.328125
vt 0.421875 0.34375
vt 0.40625 0.34375
vt 0.482422 0.328125
vt 0.482422 0.34375
vt 0.46875 0.34375
vt 0.484375 0.34375
vt 0.484375 0.330078
vt 0.5 0.330078
vt 0.65625 0.501953
vt 0.65625 0.515625
vt 0.671875 0.515625
vn 0 0 -1
vn 1 0 0
vn 0 0 1
vn -1 0 0
vn 0 1 0
vn 0 -1 0
vn 0 0.20791527031302937 -0.9781468398817531
vn 1 0 0
vn 0 -0.20791310103109775 0.9781473009826447
vn -1 0 0
vn 0 0.9781592575867022 0.20785684207509653
vn 0 -0.978126713317293 -0.20800993412601754
vn 0 0 -1
vn 1 0 0
vn 0 0 1
vn -1 0 0
vn 0 1 0
vn 0 -1 0
vn 0 0.20791262592166637 -0.9781474019708674
vn 1 0 0
vn 0 -0.2079079870207193 0.9781483879928405
vn -1 0 0
vn 0 0.9781490091373777 0.20790506468955142
vn 0 -0.9781497007169386 -0.20790181092853272
vn 0.021737944225926314 0.20677314015422182 -0.9781473970172354
vn 0.9579456458084283 0.2756994507509077 0.0795609988142515
vn -0.021736431069455643 -0.2067731872575969 0.9781474206865229
vn -0.9579455838140145 -0.2756988608450832 -0.07956378937651437
vn -0.286128057324933 0.9387391688101288 0.19209244585128482
vn 0.28612174086996395 -0.9387415469682339 -0.1920902324357705
vn -0.2548900487990172 0.9449073849000093 -0.20538037146879543
vn 0.9579429471670671 0.2757085719931401 0.07956188347681009
vn 0.25489071301011645 -0.9449082741766572 0.20537545572362345
vn -0.9579440715969043 -0.27570440371256855 -0.07956278945488288
vn -0.13180019287809772 0.1764581969517452 0.9754441111031608
vn 0.13180019287809738 -0.1764581969517453 -0.9754441111031608
vn 0.2884836590862732 -0.9356609830916488 -0.20326264575707062
vn 0.9574807134113478 0.281286822355768 0.06409685650865728
vn -0.28847742688414163 0.9356628139575071 0.20326306293919807
vn -0.9574820191487874 -0.28128317552670534 -0.06409335513431808
vn 0.0027981009423279327 0.21311172374210208 -0.9770238297169557
vn -0.002798100942328177 -0.21311172374210124 0.9770238297169558
vn 0.08702023191293538 -0.06976077356085233 -0.9937609942586851
vn 0.957482706945059 0.2812824439372336 0.06408629052972004
vn -0.08701976725396698 0.06976091006556918 0.9937610253646946
vn -0.9574829595769664 -0.28128156488034023 -0.06408637435680609
vn -0.2750542064368031 0.9570869188313897 -0.09126781099192288
vn 0.27505924875676635 -0.957083977728106 0.09128345550815682
vn -0.25488223437536306 0.9449088995900854 -0.20538310075387514
vn 0.9579481703604535 0.27568851840920977 0.07956848446712142
vn 0.2548892271487394 -0.9449088384851302 0.20537470349631812
vn -0.9579482994345584 -0.27568834561092426 -0.07956752921103948
vn -0.13180122325797372 0.17645059524874726 0.9754453470000586
vn 0.13180483967976814 -0.17646400181227812 -0.9754424331047871
vn -0.2548895603044991 0.9449092845110219 -0.20537223788196887
vn 0.9579438780167158 0.2757057957477721 0.0795602963882329
vn 0.25488376719329686 -0.9449109517651682 0.20537175671352054
vn -0.9579434307675972 -0.27570639454562107 -0.07956360635278083
vn -0.1318050052527231 0.17646461561506604 0.9754422996908413
vn 0.13180500525272332 -0.17646461561506666 -0.975442299690841
vn 0 0 -1
vn 1 0 0
vn 0 0 1
vn -1 0 0
vn 0 1 0
vn 0 -1 0
vn 0 0 -1
vn 1 0 0
vn 0 0 1
vn -1 0 0
vn 0 1 0
vn 0 -1 0
vn -0.021737169296648047 0.2067756826357841 -0.978146876773358
vn 0.9579455066276338 -0.2756987922669321 -0.07956495632174508
vn 0.02172927302945636 -0.20677341007532668 0.9781475326245179
vn -0.9579457120864953 0.2756984400000957 0.07956370326104248
vn 0.28612671652134997 0.9387401149740083 0.1920898191765943
vn -0.2861215047858473 -0.9387437926316508 -0.1920796092629997
vn 0.2548837671932982 0.9449109517651678 -0.20537175671352062
vn 0.9579478753758641 -0.2756896120053731 -0.07956824677718541
vn -0.25488922714873935 -0.9449088384851303 0.20537470349631826
vn -0.9579474295925735 0.275692629569691 0.07956315816966308
vn 0.1318012232579736 0.17645059524874676 0.9754453470000588
vn -0.13180441202571827 -0.176466738534913 -0.9754419957954473
vn 0.2548844161719119 0.944910086410623 -0.20537493272591134
vn 0.9579440715969043 -0.27570440371256855 -0.07956278945488288
vn -0.2548907130101163 -0.9449082741766569 0.20537545572362456
vn -0.9579431409746446 0.2757083125182476 0.07956044914385839
vn 0.1318001928780977 0.17645819695174522 0.9754441111031608
vn -0.13179973659980362 -0.17646120321377487 -0.9754436289158741
vn 0.254889560304499 0.9449092845110219 -0.2053722378819689
vn 0.9579434307675971 -0.2757063945456211 -0.07956360635278151
vn -0.25488223437536145 -0.9449088995900853 0.2053831007538775
vn -0.9579444529561167 0.27570260524349977 0.0795644299455048
vn 0.1318050052527235 0.17646461561506654 0.9754422996908411
vn -0.13180435102233917 -0.17646219028958574 -0.9754428268482895
vn -0.2884836590862731 -0.9356609830916488 -0.20326264575707076
vn 0.9574820191487872 -0.28128317552670645 -0.06409335513431771
vn 0.28848368371739197 0.9356591063590076 0.2032712496058088
vn -0.9574820191487871 0.2812831755267066 0.0640933551343186
vn -0.002798100942327932 0.2131117237421021 -0.9770238297169557
vn 0.002797117261590519 -0.21311491418682144 0.9770231366176385
vn -0.0870201692569708 -0.06976055554653926 -0.9937610150495573
vn 0.9574830985227099 -0.28128212995990975 -0.06408181808100645
vn 0.08701976725396701 0.06976091006556917 0.9937610253646946
vn -0.957482706945059 0.2812824439372336 0.06408629052972008
vn 0.2750542064368034 0.95708691883139 -0.09126781099191943
vn -0.27505420643680334 -0.95708691883139 0.09126781099191948
vn 0 0 -1
vn 1 0 0
vn 0 0 1
vn -1 0 0
vn 0 1 0
vn 0 -1 0
vn -0.12002936595109805 0.9631665154934976 0.2406308682224528
vn 0.9063034787162402 0.007377024329170388 0.4225631124209595
vn 0.12002594313898618 -0.9631682429757754 -0.24062566092699778
vn -0.9062951024921757 -0.00736489358798131 -0.42258128867844436
vn -0.4052201352956774 -0.2688002547326466 0.8738095129984665
vn 0.4052161699563553 0.26880608319456023 -0.8738095589105794
vn 0.42100793947925097 0.07140346323275272 -0.9042421469572209
vn 0.9063079368448783 0.007390102521819909 0.4225533220750931
vn -0.4210083536448444 -0.07140346661006533 0.9042419538582156
vn -0.9063070624651917 -0.007341441573756581 -0.4225560457043947
vn -0.036831998203959056 0.9974214039370191 0.06159502314805461
vn 0.03683475663728022 -0.9974218356055171 -0.06158638291695092
vn 0 -0.01745276664039491 -0.9998476888689578
vn 1 0 0
vn 0 0.017452822480813656 0.999847687894238
vn -1 0 0
vn 0 0.9998477721307195 -0.017447996023532277
vn 0 -0.9998476325360658 0.01745599358457456
vn -0.026177479278837304 -0.017446785770494713 -0.9995050521357481
vn 0.9996573490746049 -0.00045684556969570765 -0.026172041060242686
vn 0.026177479279012292 0.01744684159177749 0.9995050511613578
vn -0.9996573490746049 0.00045684556969570976 0.026172041060242665
vn 0.000003099535646388339 0.9998476659304902 -0.017454080432494704
vn -0.00000309953564712804 -0.9998476659304902 0.017454080432494717
vn 0.3826788924660791 -0.016124338294167255 -0.9237406946624743
vn 0.9238814942993889 0.0066788233511878336 0.3826204095572682
vn -0.3826844826530908 0.01612424629203114 0.9237383803967714
vn -0.92388032292496 -0.006678872707364857 -0.38262323710332913
vn 0.000006604658999909966 0.9998476649076088 -0.017454138053212383
vn 0.0000027220950043281057 -0.9998477485998325 0.017449344183560526
vn 0 -0.017439208002012107 -0.9998479254487967
vn 1 0 0
vn 0 0.017440137959012583 0.9998479092281839
vn -1 0 0
vn 0 0.9998477900163731 -0.01744697106590935
vn 0 -0.9998476686403415 0.017453925474636037
vn 0 0.9832540535125661 0.18224013348082232
vn 1 0 0
vn 0 -0.9832540535125661 -0.18224013348082232
vn -1 0 0
vn 0 -0.1822329924833447 0.9832553770260123
vn 0 0.1822329924833447 -0.9832553770260123
vn 0 0.948330706334778 0.3172835820249469
vn 1 0 0
vn 0 -0.9483307063347763 -0.3172835820249522
vn -1 0 0
vn 0 -0.3173065135573357 0.9483230338097292
vn 0 0.3173065135573359 -0.9483230338097289
vn 0 -0.017439208002012107 -0.9998479254487967
vn 1 0 0
vn 0 0.017440137959012583 0.9998479092281839
vn -1 0 0
vn 0 0.9998477900163731 -0.01744697106590935
vn 0 -0.9998476686403415 0.017453925474636037
vn 0.01669322684510815 0.923860854018252 0.3823643008835475
vn 0.999047348430083 0.000010940236022342567 -0.04363937986648475
vn -0.016693280659354093 -0.9238603428864797 -0.38236553351799973
vn -0.9990473484300832 -0.000010940236021491377 0.04363937986648271
vn 0.04029560810596432 -0.38268422941940666 0.9230000241175759
vn -0.040296258953398195 0.38268385713620157 -0.9230001500550907
vn -0.04361566750612292 0 -0.99904838398748
vn 0.9990481982681516 0 -0.043619921333723874
vn 0.04361566750612381 0 0.99904838398748
vn -0.9990481982681516 0 0.04361992133372385
vn 0 1 0
vn 0 -1 0
vn 0 0 -1
vn 1 0 0
vn 0 0 1
vn -1 0 0
vn 0 1 0
vn 0 -1 0
vn -0.30900901058472097 0 -0.9510591103488004
vn 0.9510550106940763 0 -0.3090216281001874
vn 0.30902348273962205 0 0.9510544080732051
vn -0.9510559656291507 0 0.30901868914550085
vn 0 1 0
vn 0 -1 0
vn -0.309009010584721 0 -0.9510591103488005
vn 0.9510550106940764 0 -0.30902162810018746
vn 0.3090234827396221 0 0.9510544080732052
vn -0.9510559656291508 0 0.30901868914550085
vn 0 1 0
vn 0 -1 0
vn 0.11826920015660113 0.9238647429893317 0.36398672085060185
vn 0.9510699059012658 -0.00001329229403997907 -0.3089757820805255
vn -0.11825804968243359 -0.923872265854682 -0.3639712489604682
vn -0.9510485498783091 -0.000018679118600648134 0.3090415108451548
vn 0.28550071737234545 -0.38268150579265553 0.8786604608744734
vn -0.28548664539429475 0.3826869859527226 -0.8786626463461007
vn -0.08933396471051887 -0.972370538901592 -0.21567331273323442
vn 0.9238691656131605 0.000008005926987277178 -0.3827084592286249
vn 0.08933396471051884 0.9723705389015921 0.21567331273323456
vn -0.9238688921187925 -0.000005028831558913301 0.3827091195018822
vn -0.372113068329501 0.23344994185990958 -0.8983501483408399
vn 0.3721137103781171 -0.23344295361452183 0.8983516983656006
vn -0.38268033737113427 0 -0.9238808144936851
vn 0.9238808144936851 0 -0.38268033737113427
vn 0.38268033737113427 0 0.9238808144936851
vn -0.9238808144936851 0 0.38268033737113427
vn 0 1 0
vn 0 -1 0
vn -0.3826803373711343 0 -0.9238808144936852
vn 0.9238808144936852 0 -0.3826803373711343
vn 0.3826803373711343 0 0.9238808144936852
vn -0.9238808144936852 0 0.3826803373711343
vn 0 1 0
vn 0 -1 0
vn 0.3826803373711343 0 -0.9238808144936852
vn 0.9238808144936852 0 0.3826803373711343
vn -0.3826803373711343 0 0.9238808144936852
vn -0.9238808144936852 0 -0.3826803373711343
vn 0 1 0
vn 0 -1 0
vn 0.38268033737113427 0 -0.9238808144936851
vn 0.9238808144936851 0 0.38268033737113427
vn -0.38268033737113427 0 0.9238808144936851
vn -0.9238808144936851 0 -0.38268033737113427
vn 0 1 0
vn 0 -1 0
vn 0.08932913870964095 -0.9723745663170854 -0.2156571532712369
vn 0.9238577714917983 -0.000015153473720502277 0.3827359635892353
vn -0.08932913870964064 0.9723745663170856 0.21565715327123613
vn -0.9238574979581166 0.000012176176668037274 -0.3827366239574015
vn 0.3721070706242129 0.23344295360389936 -0.8983544486471666
vn -0.3721130683295008 -0.2334499418599098 0.8983501483408399
vn -0.1562321095581486 0.8342642004436611 -0.528767218916897
vn 0.9258399024337384 0.3101942319763427 0.21587036274137483
vn 0.15623103129763816 -0.8342627721304621 0.528769791021455
vn -0.9258374496876991 -0.31020909668509805 -0.2158595216560825
vn -0.34411376139082744 0.455827944569364 0.8208572373873094
vn 0.344118249562984 -0.45583489442157343 -0.8208514965238115
vn -0.15622529477779476 0.8342666187216108 -0.5287654169463069
vn 0.9258357480286028 0.31021795070954655 0.21585409593029936
vn 0.15622430531828602 -0.8342653080840258 0.528767777152962
vn -0.9258360924353661 -0.3102120782890772 -0.2158610581545073
vn -0.34412355759968016 0.45582664320070737 0.820853853285294
vn 0.3441207091230767 -0.45581143206986485 -0.8208634941006024
vn -0.15617459814889398 0.8342832403398742 -0.5287541676252123
vn 0.9258368315711774 0.3102056825452122 0.21586707906233055
vn 0.15627555359262885 -0.8342494159433159 0.5287777069313285
vn -0.925834594963459 -0.3102194781817772 -0.21585684637155614
vn -0.3441094719076058 0.45582814263447197 0.8208589255931108
vn 0.34411517049226675 -0.4558585643569658 -0.8208396425243388
vn 0 0 -1
vn 0.9743701578499471 0.22495065123593055 0
vn 0 0 1
vn -0.9743697530252772 -0.22495240472033354 0
vn -0.22495838123406517 0.9743683732103323 0
vn 0.22494669642375123 -0.974371070880104 0
vn 0 0 -1
vn 1 0 0
vn 0 0 1
vn -1 0 0
vn 0 1 0
vn 0 -1 0
vn 0 0 -1
vn 0.707114781082249 -0.7070987812003378 0
vn 0 0 1
vn -0.7070987812003371 0.7071147810822497 0
vn 0.7071067811865471 0.7071067811865479 0
vn -0.7071067811865474 -0.7071067811865478 0
vn 0 0 -1
vn 0.7071147810822489 -0.7070987812003379 0
vn 0 0 1
vn -0.7070987812003372 0.7071147810822495 0
vn 0.707106781186547 0.707106781186548 0
vn -0.7071067811865475 -0.7071067811865477 0
vn 0 0 -1
vn 1 0 0
vn 0 0 1
vn -1 0 0
vn 0 1 0
vn 0 -1 0
vn 0 0.20791527031302937 -0.9781468398817531
vn 1 0 0
vn 0 -0.20791310103109775 0.9781473009826447
vn -1 0 0
vn 0 0.9781592575867022 0.20785684207509653
vn 0 -0.978126713317293 -0.20800993412601754
vn 0 0 -1
vn 1 0 0
vn 0 0 1
vn -1 0 0
vn 0 1 0
vn 0 -1 0
vn 0 0.20791262592166637 -0.9781474019708674
vn 1 0 0
vn 0 -0.2079079870207193 0.9781483879928405
vn -1 0 0
vn 0 0.9781490091373777 0.20790506468955142
vn 0 -0.9781497007169386 -0.20790181092853272
vn 0.021729273029456275 0.20677341007532668 -0.9781475326245179
vn 0.9579457120864953 0.2756984400000957 0.07956370326104248
vn -0.02172927302945636 -0.20677341007532668 0.9781475326245179
vn -0.9579455066276338 -0.2756987922669321 -0.07956495632174508
vn -0.28612671652134997 0.9387401149740083 0.1920898191765943
vn 0.2861264805233128 -0.9387423606096804 -0.1920791960111954
vn -0.2548844161719119 0.944910086410623 -0.20537493272591134
vn 0.9579442654004937 0.27570414424552214 0.07956135514276311
vn 0.2548907130101177 -0.9449082741766565 0.20537545572362464
vn -0.9579440715969043 -0.27570440371256855 -0.07956278945488288
vn -0.1318001928780977 0.17645819695174522 0.9754441111031608
vn 0.13179973659980362 -0.17646120321377487 -0.9754436289158741
vn 0.2884836590862731 -0.9356609830916488 -0.20326264575707076
vn 0.9574820191487871 0.2812831755267066 0.0640933551343186
vn -0.28848368371739197 0.9356591063590076 0.2032712496058088
vn -0.9574820191487872 -0.28128317552670645 -0.06409335513431771
vn 0.002798100942327932 0.2131117237421021 -0.9770238297169557
vn -0.0027985367649196223 -0.21311533120536166 0.9770230415897081
vn 0.08701970459933206 -0.06976069205040286 -0.9937610461555101
vn 0.957482706945059 0.2812824439372336 0.06408629052972008
vn -0.08701976725396701 0.06976091006556917 0.9937610253646946
vn -0.9574830985227099 -0.28128212995990975 -0.06408181808100645
vn -0.2750542064368048 0.9570869188313895 -0.09126781099191958
vn 0.27505420643680334 -0.95708691883139 0.09126781099191948
vn -0.2548895603045007 0.944909284511022 -0.20537223788196649
vn 0.9579474295925735 0.275692629569691 0.07956315816966308
vn 0.25488922714873935 -0.9449088384851303 0.20537470349631826
vn -0.9579478753758641 -0.2756896120053731 -0.07956824677718541
vn -0.13180122325797383 0.17645059524874673 0.9754453470000588
vn 0.13180441202571827 -0.176466738534913 -0.9754419957954473
vn -0.254889560304499 0.9449092845110219 -0.2053722378819689
vn 0.9579444529561167 0.27570260524349977 0.0795644299455048
vn 0.25488802747668826 -0.9449072323431813 0.20538358190126255
vn -0.9579434307675974 -0.27570639454562035 -0.07956360635278172
vn -0.1318050052527235 0.17646461561506654 0.9754422996908411
vn 0.13180326915824409 -0.1764625016568335 -0.975442916704105
vn 0 0 -1
vn 1 0 0
vn 0 0 1
vn -1 0 0
vn 0 1 0
vn 0 -1 0
vn 0 0 -1
vn 1 0 0
vn 0 0 1
vn -1 0 0
vn 0 1 0
vn 0 -1 0
vn -0.021730047971153386 0.20677086760111182 -0.9781480528665663
vn 0.9579455838140145 -0.2756988608450832 -0.07956378937651437
vn 0.021736431069455643 -0.2067731872575969 0.9781474206865229
vn -0.9579456458084283 0.2756994507509077 0.0795609988142515
vn 0.286128057324933 0.9387391688101288 0.19209244585128482
vn -0.28612671652135 -0.9387401149740083 -0.1920898191765943
vn 0.25488802747668865 0.9449072323431816 -0.20538358190126
vn 0.9579482994345584 -0.27568834561092426 -0.07956752921103948
vn -0.2548892271487394 -0.9449088384851302 0.20537470349631812
vn -0.9579481703604535 0.27568851840920977 0.07956848446712142
vn 0.13180122325797392 0.17645059524874715 0.9754453470000586
vn -0.13180483967976814 -0.17646400181227812 -0.9754424331047871
vn 0.2548900487990172 0.9449073849000093 -0.20538037146879543
vn 0.9579440715969043 -0.27570440371256855 -0.07956278945488288
vn -0.25489071301011784 -0.9449082741766567 0.20537545572362353
vn -0.9579440715969044 0.2757044037125689 0.07956278945488258
vn 0.13180019287809772 0.1764581969517452 0.9754441111031608
vn -0.13180019287809738 -0.1764581969517453 -0.9754441111031608
vn 0.2548895603044991 0.9449092845110219 -0.20537223788196887
vn 0.9579434307675974 -0.2757063945456201 -0.07956360635278097
vn -0.2548895603045007 -0.944909284511022 0.20537223788196657
vn -0.9579438780167158 0.2757057957477721 0.0795602963882329
vn 0.1318050052527231 0.17646461561506604 0.9754422996908413
vn -0.1318039233749133 -0.17646492699087343 -0.9754423895469613
vn -0.2884836590862732 -0.9356609830916488 -0.20326264575707062
vn 0.9574820191487874 -0.28128317552670534 -0.06409335513431808
vn 0.28847742688414163 0.9356628139575071 0.20326306293919807
vn -0.9574807134113478 0.281286822355768 0.06409685650865728
vn -0.0027981009423279327 0.21311172374210208 -0.9770238297169557
vn 0.002799520426331325 -0.2131121407481556 0.9770237346918041
vn -0.08701976725396715 -0.06976091006556914 -0.9937610253646946
vn 0.9574829595769664 -0.28128156488034023 -0.06408637435680609
vn 0.08701976725396698 0.06976091006556918 0.9937610253646946
vn -0.957482706945059 0.2812824439372336 0.06408629052972004
vn 0.27505420643680456 0.9570869188313894 -0.09126781099192297
vn -0.27505924875676635 -0.957083977728106 0.09128345550815682
vn 0 0 -1
vn 1 0 0
vn 0 0 1
vn -1 0 0
vn 0 1 0
vn 0 -1 0
vn -0.12003280522266399 0.9631647796610675 0.24063610055605852
vn 0.9063238216708186 0.007383945087447235 0.4225193576949436
vn 0.12002594313898618 -0.9631682429757754 -0.24062566092699778
vn -0.9063038826324872 -0.007373783114896948 -0.422562302681928
vn -0.40521337185614587 -0.2688060604299546 0.8738108634854
vn 0.4052130335071349 0.26880877547450066 -0.8738101851682925
vn 0.42101176295571774 0.07137729261573837 -0.90424243295245
vn 0.9063079439661733 0.007390499328436796 0.4225532998610756
vn -0.421008079783306 -0.07139966494641466 0.9042423815563575
vn -0.9063079439661735 -0.007390499328436021 -0.4225532998610754
vn -0.03683475663728087 0.9974218356055171 0.061586382916952315
vn 0.03683189243699537 -0.9974213873838711 -0.061595354441253365
vn 0 -0.01745276664039491 -0.9998476888689578
vn 1 0 0
vn 0 0.017452822480813656 0.999847687894238
vn -1 0 0
vn 0 0.9998477721307195 -0.017447996023532277
vn 0 -0.9998476325360658 0.01745599358457456
vn -0.026177363006130574 -0.017446841644917284 -0.9995050542056617
vn 0.9996573489789379 -0.0004568441717791465 -0.026172044738707233
vn 0.026177479279012095 0.017446841591777396 0.9995050511613578
vn -0.9996573490746049 0.0004568455696957104 0.026172041060242665
vn -0.000003354470746161774 0.9998478085053977 -0.017445911145636688
vn -0.0000030995356471244266 -0.9998476659304902 0.017454080432494724
vn 0.3826788924660791 -0.01612433829416725 -0.9237406946624743
vn 0.9238814942993889 0.006678823351187849 0.3826204095572682
vn -0.38268458196539923 0.016124297163876256 0.9237383383658702
vn -0.9238803433720563 -0.006678850476730821 -0.3826231881199062
vn -0.0000027755147883046314 0.9998477508500943 -0.017449215234633983
vn 0.000002668041517441511 -0.9998477516271591 0.01744917072517669
vn 0 -0.017439208002012107 -0.9998479254487967
vn 1 0 0
vn 0 0.017440137959012583 0.9998479092281839
vn -1 0 0
vn 0 0.9998477900163731 -0.01744697106590935
vn 0 -0.9998476686403415 0.017453925474636037
vn 0 0.9832540535125661 0.18224013348082232
vn 1 0 0
vn 0 -0.9832540535125661 -0.18224013348082232
vn -1 0 0
vn 0 -0.1822329924833447 0.9832553770260123
vn 0 0.1822329924833447 -0.9832553770260123
vn 0 0.948330706334778 0.3172835820249469
vn 1 0 0
vn 0 -0.9483307063347763 -0.3172835820249522
vn -1 0 0
vn 0 -0.3173065135573357 0.9483230338097292
vn 0 0.3173065135573359 -0.9483230338097289
vn 0 -0.017439208002012107 -0.9998479254487967
vn 1 0 0
vn 0 0.017440137959012583 0.9998479092281839
vn -1 0 0
vn 0 0.9998477900163731 -0.01744697106590935
vn 0 -0.9998476686403415 0.017453925474636037
vn 0.016693226845108145 0.9238608540182519 0.3823643008835475
vn 0.9990473484300832 0.000010940236022341162 -0.043639379866484765
vn -0.016692960009962444 -0.9238608540156216 -0.3823643125392747
vn -0.9990504011734885 0.000028875911194969453 0.0435694282871998
vn 0.04029625895339818 -0.3826838571362023 0.9230001500550904
vn -0.04029625895339818 0.3826838571362015 -0.9230001500550907
vn -0.04361566750612292 0 -0.99904838398748
vn 0.9990481982681516 0 -0.043619921333723874
vn 0.04361566750612381 0 0.99904838398748
vn -0.9990481982681516 0 0.04361992133372385
vn 0 1 0
vn 0 -1 0
vn 0 0 -1
vn 1 0 0
vn 0 0 1
vn -1 0 0
vn 0 1 0
vn 0 -1 0
vn -0.30900901058472097 0 -0.9510591103488004
vn 0.9510550106940763 0 -0.3090216281001874
vn 0.30902348273962205 0 0.9510544080732051
vn -0.9510559656291507 0 0.30901868914550085
vn 0 1 0
vn 0 -1 0
vn -0.309009010584721 0 -0.9510591103488005
vn 0.9510550106940764 0 -0.30902162810018746
vn 0.3090234827396221 0 0.9510544080732052
vn -0.9510559656291508 0 0.30901868914550085
vn 0 1 0
vn 0 -1 0
vn 0.11826920015660085 0.923864742989332 0.36398672085060135
vn 0.9510470596237013 0.000007037586623725456 -0.3090460974217031
vn -0.11827190143664043 -0.9238611217625742 -0.36399503434272235
vn -0.951075836325426 0.00003153764342836313 0.30895752550030026
vn 0.28550071737234545 -0.38268150579265553 0.8786604608744734
vn -0.2855010549979174 0.3826788681020611 -0.8786614999550179
vn -0.08932913870964095 -0.9723745663170854 -0.2156571532712369
vn 0.9238574979581166 0.000012176176668037274 -0.3827366239574015
vn 0.08932913870964064 0.9723745663170856 0.21565715327123613
vn -0.9238577714917983 -0.000015153473720502277 0.3827359635892353
vn -0.3721070706242129 0.23344295360389936 -0.8983544486471666
vn 0.372106428585087 -0.23344994187068177 0.8983528986129155
vn -0.38268033737113427 0 -0.9238808144936851
vn 0.9238808144936851 0 -0.38268033737113427
vn 0.38268033737113427 0 0.9238808144936851
vn -0.9238808144936851 0 0.38268033737113427
vn 0 1 0
vn 0 -1 0
vn -0.3826803373711343 0 -0.9238808144936852
vn 0.9238808144936852 0 -0.3826803373711343
vn 0.3826803373711343 0 0.9238808144936852
vn -0.9238808144936852 0 0.3826803373711343
vn 0 1 0
vn 0 -1 0
vn 0.3826803373711343 0 -0.9238808144936852
vn 0.9238808144936852 0 0.3826803373711343
vn -0.3826803373711343 0 0.9238808144936852
vn -0.9238808144936852 0 -0.3826803373711343
vn 0 1 0
vn 0 -1 0
vn 0.38268033737113427 0 -0.9238808144936851
vn 0.9238808144936851 0 0.38268033737113427
vn -0.38268033737113427 0 0.9238808144936851
vn -0.9238808144936851 0 -0.38268033737113427
vn 0 1 0
vn 0 -1 0
vn 0.08933396471051887 -0.972370538901592 -0.21567331273323442
vn 0.9238688921187925 -0.000005028831558913301 0.3827091195018822
vn -0.08933396471051884 0.9723705389015921 0.21567331273323456
vn -0.9238691656131605 0.000008005926987277178 -0.3827084592286249
vn 0.372113068329501 0.23344994185990958 -0.8983501483408399
vn -0.3721070706242126 -0.23344295360389944 0.8983544486471667
vn -0.1562337895229911 0.83426416633069 -0.5287667763653884
vn 0.9258362362578484 0.3102079958306802 0.21586630805805304
vn 0.15623271125223967 -0.8342627380213422 0.5287693484723825
vn -0.9258386889346177 -0.3101931309592639 -0.21587714927133272
vn -0.3441156846661728 0.45582119821641326 0.8208601773891122
vn 0.34411632622523525 -0.45584164072425015 -0.8208485564384402
vn -0.1562465893293786 0.8342623262054267 -0.5287658975361844
vn 0.9258373319794193 0.31020265252878104 0.21586928701725716
vn 0.15622430531828616 -0.8342653080840258 0.528767777152962
vn -0.9258390357699412 -0.31020039567206803 -0.21586522269573208
vn -0.34409828833123196 0.455864220903222 0.8208435783191672
vn 0.3441207091230767 -0.45581143206986496 -0.8208634941006027
vn -0.15623514812653294 0.8342608943654126 -0.5287715372658612
vn 0.9258368315711774 0.31020568254521225 0.21586707906233038
vn 0.1562755535926287 -0.8342494159433161 0.5287777069313283
vn -0.925838010596802 -0.3101993866929651 -0.21587106945921333
vn -0.3441319475019877 0.4557947193625168 0.8208680627906861
vn 0.3441657054820746 -0.4557834077755828 -0.8208601905114554
vn 0 0 -1
vn 0.9743701578499471 0.22495065123593055 0
vn 0 0 1
vn -0.9743697530252772 -0.22495240472033354 0
vn -0.22495838123406517 0.9743683732103323 0
vn 0.22494669642375123 -0.974371070880104 0
vn 0 0 -1
vn 1 0 0
vn 0 0 1
vn -1 0 0
vn 0 1 0
vn 0 -1 0
vn 0 0 -1
vn 0.707114781082249 -0.7070987812003378 0
vn 0 0 1
vn -0.7070987812003371 0.7071147810822497 0
vn 0.7071067811865471 0.7071067811865479 0
vn -0.7071067811865474 -0.7071067811865478 0
vn 0 0 -1
vn 0.7071147810822489 -0.7070987812003379 0
vn 0 0 1
vn -0.7070987812003372 0.7071147810822495 0
vn 0.707106781186547 0.707106781186548 0
vn -0.7071067811865475 -0.7071067811865477 0
usemtl m_68abd194-5918-1766-9866-ad78437e3fbd
f 2/1/1 3/2/1 4/3/1
f 4/4/2 5/5/2 6/6/2
f 6/7/3 7/8/3 8/9/3
f 8/10/4 9/11/4 2/12/4
f 5/13/5 9/14/5 7/15/5
f 4/16/6 8/17/6 2/18/6
f 10/19/7 11/20/7 12/21/7
f 12/22/8 13/23/8 14/24/8
f 14/25/9 15/26/9 16/27/9
f 10/28/10 15/29/10 17/30/10
f 13/31/11 17/32/11 15/33/11
f 12/34/12 16/35/12 10/36/12
f 18/37/13 19/38/13 20/39/13
f 20/40/14 21/41/14 22/42/14
f 22/43/15 23/44/15 24/45/15
f 24/46/16 25/47/16 18/48/16
f 21/49/17 25/50/17 23/51/17
f 20/52/18 24/53/18 18/54/18
f 26/55/19 27/56/19 28/57/19
f 28/58/20 29/59/20 30/60/20
f 30/61/21 31/62/21 32/63/21
f 26/64/22 31/65/22 33/66/22
f 29/67/23 33/68/23 31/69/23
f 28/70/24 32/71/24 26/72/24
f 34/73/25 35/74/25 36/75/25
f 36/76/26 37/77/26 38/78/26
f 39/79/27 37/80/27 40/81/27
f 39/82/28 41/83/28 34/84/28
f 37/85/29 41/86/29 40/87/29
f 36/88/30 39/89/30 34/90/30
f 42/91/31 43/92/31 44/93/31
f 42/94/32 45/95/32 46/96/32
f 46/97/33 47/98/33 48/99/33
f 49/100/34 47/101/34 43/102/34
f 45/103/35 43/104/35 47/105/35
f 49/106/36 46/107/36 48/108/36
f 50/109/37 51/110/37 52/111/37
f 52/112/38 53/113/38 54/114/38
f 54/115/39 55/116/39 56/117/39
f 56/118/40 57/119/40 50/120/40
f 53/121/41 57/122/41 55/123/41
f 52/124/42 56/125/42 50/126/42
f 58/127/43 59/128/43 60/129/43
f 61/130/44 59/131/44 62/132/44
f 61/133/45 63/134/45 64/135/45
f 58/136/46 63/137/46 65/138/46
f 62/139/47 65/140/47 63/141/47
f 60/142/48 64/143/48 58/144/48
f 66/145/49 67/146/49 68/147/49
f 69/148/50 67/149/50 70/150/50
f 71/151/51 70/152/51 72/153/51
f 66/154/52 72/155/52 73/156/52
f 70/157/53 73/158/53 72/159/53
f 66/160/54 69/161/54 71/162/54
f 74/163/55 75/164/55 76/165/55
f 77/166/56 75/167/56 78/168/56
f 77/169/57 79/170/57 80/171/57
f 80/172/58 81/173/58 74/174/58
f 79/175/59 75/176/59 81/177/59
f 76/178/60 80/179/60 74/180/60
f 82/181/61 83/182/61 84/183/61
f 84/184/62 85/185/62 86/186/62
f 86/187/63 87/188/63 88/189/63
f 88/190/64 89/191/64 82/192/64
f 85/193/65 89/194/65 87/195/65
f 84/196/66 88/197/66 82/198/66
f 90/199/67 91/200/67 92/201/67
f 92/202/68 93/203/68 94/204/68
f 94/205/69 95/206/69 96/207/69
f 96/208/70 97/209/70 90/210/70
f 93/211/71 97/212/71 95/213/71
f 92/214/72 96/215/72 90/216/72
f 98/217/73 99/218/73 100/219/73
f 101/220/74 99/221/74 102/222/74
f 101/223/75 103/224/75 104/225/75
f 98/226/76 103/227/76 105/228/76
f 103/229/77 99/230/77 105/231/77
f 100/232/78 104/233/78 98/234/78
f 106/235/79 107/236/79 108/237/79
f 108/238/80 109/239/80 110/240/80
f 110/241/81 111/242/81 112/243/81
f 112/244/82 113/245/82 106/246/82
f 109/247/83 113/248/83 111/249/83
f 108/250/84 112/251/84 106/252/84
f 114/253/85 115/254/85 116/255/85
f 116/256/86 117/257/86 118/258/86
f 118/259/87 119/260/87 120/261/87
f 120/262/88 121/263/88 114/264/88
f 119/265/89 115/266/89 121/267/89
f 116/268/90 120/269/90 114/270/90
f 122/271/91 123/272/91 124/273/91
f 122/274/92 125/275/92 126/276/92
f 126/277/93 127/278/93 128/279/93
f 128/280/94 123/281/94 129/282/94
f 125/283/95 123/284/95 127/285/95
f 122/286/96 128/287/96 129/288/96
f 130/289/97 131/290/97 132/291/97
f 133/292/98 132/293/98 134/294/98
f 135/295/99 134/296/99 136/297/99
f 137/298/100 136/299/100 131/300/100
f 136/301/101 132/302/101 131/303/101
f 130/304/102 135/305/102 137/306/102
f 138/307/103 139/308/103 140/309/103
f 140/310/104 141/311/104 142/312/104
f 143/313/105 141/314/105 144/315/105
f 143/316/106 145/317/106 138/318/106
f 141/319/107 145/320/107 144/321/107
f 138/322/108 142/323/108 143/324/108
f 146/325/109 147/326/109 148/327/109
f 148/328/110 149/329/110 150/330/110
f 150/331/111 151/332/111 152/333/111
f 152/334/112 153/335/112 146/336/112
f 149/337/113 153/338/113 151/339/113
f 148/340/114 152/341/114 146/342/114
f 154/343/115 155/344/115 156/345/115
f 156/346/116 157/347/116 158/348/116
f 159/349/117 157/350/117 160/351/117
f 159/352/118 161/353/118 154/354/118
f 160/355/119 155/356/119 161/357/119
f 156/358/120 159/359/120 154/360/120
f 162/361/121 163/362/121 164/363/121
f 164/364/122 165/365/122 166/366/122
f 166/367/123 167/368/123 168/369/123
f 162/370/124 167/371/124 169/372/124
f 167/373/125 163/374/125 169/375/125
f 164/376/126 168/377/126 162/378/126
f 170/379/127 171/380/127 172/381/127
f 172/382/128 173/383/128 174/384/128
f 174/385/129 175/386/129 176/387/129
f 176/388/130 177/389/130 170/390/130
f 173/391/131 177/392/131 175/393/131
f 172/394/132 176/395/132 170/396/132
f 178/397/133 179/398/133 180/399/133
f 180/400/134 181/401/134 182/402/134
f 182/403/135 183/404/135 184/405/135
f 178/406/136 183/407/136 185/408/136
f 181/409/137 185/410/137 183/411/137
f 180/412/138 184/413/138 178/414/138
f 186/415/139 187/416/139 188/417/139
f 186/418/140 189/419/140 190/420/140
f 191/421/141 189/422/141 192/423/141
f 191/424/142 187/425/142 193/426/142
f 189/427/143 187/428/143 192/429/143
f 186/430/144 191/431/144 193/432/144
f 194/433/145 195/434/145 196/435/145
f 196/436/146 197/437/146 198/438/146
f 198/439/147 199/440/147 200/441/147
f 200/442/148 201/443/148 194/444/148
f 197/445/149 201/446/149 199/447/149
f 196/448/150 200/449/150 194/450/150
f 202/451/151 203/452/151 204/453/151
f 205/454/152 203/455/152 206/456/152
f 205/457/153 207/458/153 208/459/153
f 208/460/154 209/461/154 202/462/154
f 206/463/155 209/464/155 207/465/155
f 204/466/156 208/467/156 202/468/156
f 210/469/157 211/470/157 212/471/157
f 212/472/158 213/473/158 214/474/158
f 214/475/159 215/476/159 216/477/159
f 210/478/160 215/479/160 217/480/160
f 213/481/161 217/482/161 215/483/161
f 212/484/162 216/485/162 210/486/162
f 218/487/163 219/488/163 220/489/163
f 220/490/164 221/491/164 1/492/164
f 1/493/165 222/494/165 223/495/165
f 223/496/166 224/497/166 218/498/166
f 221/499/167 224/500/167 222/501/167
f 220/502/168 223/503/168 218/504/168
f 225/505/169 226/506/169 227/507/169
f 227/508/170 228/509/170 229/510/170
f 229/511/171 230/512/171 231/513/171
f 231/514/172 232/515/172 225/516/172
f 228/517/173 232/518/173 230/519/173
f 227/520/174 231/521/174 225/522/174
f 233/523/175 234/524/175 235/525/175
f 235/526/176 236/527/176 237/528/176
f 237/529/177 238/530/177 239/531/177
f 239/532/178 240/533/178 233/534/178
f 236/535/179 240/536/179 238/537/179
f 235/538/180 239/539/180 233/540/180
f 241/541/181 242/542/181 243/543/181
f 243/544/182 244/545/182 245/546/182
f 245/547/183 246/548/183 247/549/183
f 247/550/184 248/551/184 241/552/184
f 244/553/185 248/554/185 246/555/185
f 243/556/186 247/557/186 241/558/186
f 249/559/187 250/560/187 251/561/187
f 251/562/188 252/563/188 253/564/188
f 253/565/189 254/566/189 255/567/189
f 255/568/190 256/569/190 249/570/190
f 252/571/191 256/572/191 254/573/191
f 251/574/192 255/575/192 249/576/192
f 257/577/193 258/578/193 259/579/193
f 259/580/194 260/581/194 261/582/194
f 261/583/195 262/584/195 263/585/195
f 263/586/196 264/587/196 257/588/196
f 260/589/197 264/590/197 262/591/197
f 259/592/198 263/593/198 257/594/198
f 265/595/199 266/596/199 267/597/199
f 265/598/200 268/599/200 269/600/200
f 269/601/201 270/602/201 271/603/201
f 271/604/202 266/605/202 272/606/202
f 268/607/203 266/608/203 270/609/203
f 272/610/204 269/611/204 271/612/204
f 273/613/205 274/614/205 275/615/205
f 273/616/206 276/617/206 277/618/206
f 277/619/207 278/620/207 279/621/207
f 279/622/208 274/623/208 280/624/208
f 276/625/209 274/626/209 278/627/209
f 273/628/210 279/629/210 280/630/210
f 281/631/211 282/632/211 283/633/211
f 283/634/212 284/635/212 285/636/212
f 285/637/213 286/638/213 287/639/213
f 287/640/214 288/641/214 281/642/214
f 284/643/215 288/644/215 286/645/215
f 283/646/216 287/647/216 281/648/216
f 289/649/217 290/650/217 291/651/217
f 291/652/218 292/653/218 293/654/218
f 293/655/219 294/656/219 295/657/219
f 295/658/220 296/659/220 289/660/220
f 292/661/221 296/662/221 294/663/221
f 291/664/222 295/665/222 289/666/222
f 297/667/223 298/668/223 299/669/223
f 299/670/224 300/671/224 301/672/224
f 301/673/225 302/674/225 303/675/225
f 303/676/226 304/677/226 297/678/226
f 300/679/227 304/680/227 302/681/227
f 297/682/228 301/683/228 303/684/228
f 305/685/229 306/686/229 307/687/229
f 307/688/230 308/689/230 309/690/230
f 309/691/231 310/692/231 311/693/231
f 311/694/232 312/695/232 305/696/232
f 308/697/233 312/698/233 310/699/233
f 305/700/234 309/701/234 311/702/234
f 313/703/235 314/704/235 315/705/235
f 316/706/236 314/707/236 317/708/236
f 318/709/237 317/710/237 319/711/237
f 313/712/238 319/713/238 320/714/238
f 319/715/239 314/716/239 320/717/239
f 315/718/240 318/719/240 313/720/240
f 321/721/241 322/722/241 323/723/241
f 323/724/242 324/725/242 325/726/242
f 326/727/243 324/728/243 327/729/243
f 326/730/244 328/731/244 321/732/244
f 324/733/245 328/734/245 327/735/245
f 321/736/246 325/737/246 326/738/246
f 329/739/247 330/740/247 331/741/247
f 332/742/248 330/743/248 333/744/248
f 332/745/249 334/746/249 335/747/249
f 329/748/250 334/749/250 336/750/250
f 333/751/251 336/752/251 334/753/251
f 331/754/252 335/755/252 329/756/252
f 337/757/253 338/758/253 339/759/253
f 337/760/254 340/761/254 341/762/254
f 341/763/255 342/764/255 343/765/255
f 343/766/256 338/767/256 344/768/256
f 340/769/257 338/770/257 342/771/257
f 344/772/258 341/773/258 343/774/258
f 345/775/259 346/776/259 347/777/259
f 347/778/260 348/779/260 349/780/260
f 349/781/261 350/782/261 351/783/261
f 351/784/262 352/785/262 345/786/262
f 348/787/263 352/788/263 350/789/263
f 347/790/264 351/791/264 345/792/264
f 353/793/265 354/794/265 355/795/265
f 355/796/266 356/797/266 357/798/266
f 357/799/267 358/800/267 359/801/267
f 359/802/268 360/803/268 353/804/268
f 356/805/269 360/806/269 358/807/269
f 355/808/270 359/809/270 353/810/270
f 361/811/271 362/812/271 363/813/271
f 361/814/272 364/815/272 365/816/272
f 365/817/273 366/818/273 367/819/273
f 367/820/274 362/821/274 368/822/274
f 364/823/275 362/824/275 366/825/275
f 361/826/276 367/827/276 368/828/276
f 369/829/277 370/830/277 371/831/277
f 369/832/278 372/833/278 373/834/278
f 373/835/279 374/836/279 375/837/279
f 375/838/280 370/839/280 376/840/280
f 372/841/281 370/842/281 374/843/281
f 369/844/282 375/845/282 376/846/282
f 2/847/283 9/848/283 3/849/283
f 4/850/284 3/851/284 5/852/284
f 6/853/285 5/854/285 7/855/285
f 8/856/286 7/857/286 9/858/286
f 5/859/287 3/860/287 9/861/287
f 4/862/288 6/863/288 8/864/288
f 10/865/289 17/866/289 11/867/289
f 12/868/290 11/869/290 13/870/290
f 14/871/291 13/872/291 15/873/291
f 10/874/292 16/875/292 15/876/292
f 13/877/293 11/878/293 17/879/293
f 12/880/294 14/881/294 16/882/294
f 18/883/295 25/884/295 19/885/295
f 20/886/296 19/887/296 21/888/296
f 22/889/297 21/890/297 23/891/297
f 24/892/298 23/893/298 25/894/298
f 21/895/299 19/896/299 25/897/299
f 20/898/300 22/899/300 24/900/300
f 26/901/301 33/902/301 27/903/301
f 28/904/302 27/905/302 29/906/302
f 30/907/303 29/908/303 31/909/303
f 26/910/304 32/911/304 31/912/304
f 29/913/305 27/914/305 33/915/305
f 28/916/306 30/917/306 32/918/306
f 34/919/307 41/920/307 35/921/307
f 36/922/308 35/923/308 37/924/308
f 39/925/309 38/926/309 37/927/309
f 39/928/310 40/929/310 41/930/310
f 37/931/311 35/932/311 41/933/311
f 36/934/312 38/935/312 39/936/312
f 42/937/313 49/938/313 43/939/313
f 42/940/314 44/941/314 45/942/314
f 46/943/315 45/944/315 47/945/315
f 49/946/316 48/947/316 47/948/316
f 45/949/317 44/950/317 43/951/317
f 49/952/318 42/953/318 46/954/318
f 50/955/319 57/956/319 51/957/319
f 52/958/320 51/959/320 53/960/320
f 54/961/321 53/962/321 55/963/321
f 56/964/322 55/965/322 57/966/322
f 53/967/323 51/968/323 57/969/323
f 52/970/324 54/971/324 56/972/324
f 58/973/325 65/974/325 59/975/325
f 61/976/326 60/977/326 59/978/326
f 61/979/327 62/980/327 63/981/327
f 58/982/328 64/983/328 63/984/328
f 62/985/329 59/986/329 65/987/329
f 60/988/330 61/989/330 64/990/330
f 66/991/331 73/992/331 67/993/331
f 69/994/332 68/995/332 67/996/332
f 71/997/333 69/998/333 70/999/333
f 66/1000/334 71/1001/334 72/1002/334
f 70/1003/335 67/1004/335 73/1005/335
f 66/1006/336 68/1007/336 69/1008/336
f 74/1009/337 81/1010/337 75/1011/337
f 77/1012/338 76/1013/338 75/1014/338
f 77/1015/339 78/1016/339 79/1017/339
f 80/1018/340 79/1019/340 81/1020/340
f 79/1021/341 78/1022/341 75/1023/341
f 76/1024/342 77/1025/342 80/1026/342
f 82/1027/343 89/1028/343 83/1029/343
f 84/1030/344 83/1031/344 85/1032/344
f 86/1033/345 85/1034/345 87/1035/345
f 88/1036/346 87/1037/346 89/1038/346
f 85/1039/347 83/1040/347 89/1041/347
f 84/1042/348 86/1043/348 88/1044/348
f 90/1045/349 97/1046/349 91/1047/349
f 92/1048/350 91/1049/350 93/1050/350
f 94/1051/351 93/1052/351 95/1053/351
f 96/1054/352 95/1055/352 97/1056/352
f 93/1057/353 91/1058/353 97/1059/353
f 92/1060/354 94/1061/354 96/1062/354
f 98/1063/355 105/1064/355 99/1065/355
f 101/1066/356 100/1067/356 99/1068/356
f 101/1069/357 102/1070/357 103/1071/357
f 98/1072/358 104/1073/358 103/1074/358
f 103/1075/359 102/1076/359 99/1077/359
f 100/1078/360 101/1079/360 104/1080/360
f 106/1081/361 113/1082/361 107/1083/361
f 108/1084/362 107/1085/362 109/1086/362
f 110/1087/363 109/1088/363 111/1089/363
f 112/1090/364 111/1091/364 113/1092/364
f 109/1093/365 107/1094/365 113/1095/365
f 108/1096/366 110/1097/366 112/1098/366
f 114/1099/367 121/1100/367 115/1101/367
f 116/1102/368 115/1103/368 117/1104/368
f 118/1105/369 117/1106/369 119/1107/369
f 120/1108/370 119/1109/370 121/1110/370
f 119/1111/371 117/1112/371 115/1113/371
f 116/1114/372 118/1115/372 120/1116/372
f 122/1117/373 129/1118/373 123/1119/373
f 122/1120/374 124/1121/374 125/1122/374
f 126/1123/375 125/1124/375 127/1125/375
f 128/1126/376 127/1127/376 123/1128/376
f 125/1129/377 124/1130/377 123/1131/377
f 122/1132/378 126/1133/378 128/1134/378
f 130/1135/379 137/1136/379 131/1137/379
f 133/1138/380 130/1139/380 132/1140/380
f 135/1141/381 133/1142/381 134/1143/381
f 137/1144/382 135/1145/382 136/1146/382
f 136/1147/383 134/1148/383 132/1149/383
f 130/1150/384 133/1151/384 135/1152/384
f 138/1153/385 145/1154/385 139/1155/385
f 140/1156/386 139/1157/386 141/1158/386
f 143/1159/387 142/1160/387 141/1161/387
f 143/1162/388 144/1163/388 145/1164/388
f 141/1165/389 139/1166/389 145/1167/389
f 138/1168/390 140/1169/390 142/1170/390
f 146/1171/391 153/1172/391 147/1173/391
f 148/1174/392 147/1175/392 149/1176/392
f 150/1177/393 149/1178/393 151/1179/393
f 152/1180/394 151/1181/394 153/1182/394
f 149/1183/395 147/1184/395 153/1185/395
f 148/1186/396 150/1187/396 152/1188/396
f 154/1189/397 161/1190/397 155/1191/397
f 156/1192/398 155/1193/398 157/1194/398
f 159/1195/399 158/1196/399 157/1197/399
f 159/1198/400 160/1199/400 161/1200/400
f 160/1201/401 157/1202/401 155/1203/401
f 156/1204/402 158/1205/402 159/1206/402
f 162/1207/403 169/1208/403 163/1209/403
f 164/1210/404 163/1211/404 165/1212/404
f 166/1213/405 165/1214/405 167/1215/405
f 162/1216/406 168/1217/406 167/1218/406
f 167/1219/407 165/1220/407 163/1221/407
f 164/1222/408 166/1223/408 168/1224/408
f 170/1225/409 177/1226/409 171/1227/409
f 172/1228/410 171/1229/410 173/1230/410
f 174/1231/411 173/1232/411 175/1233/411
f 176/1234/412 175/1235/412 177/1236/412
f 173/1237/413 171/1238/413 177/1239/413
f 172/1240/414 174/1241/414 176/1242/414
f 178/1243/415 185/1244/415 179/1245/415
f 180/1246/416 179/1247/416 181/1248/416
f 182/1249/417 181/1250/417 183/1251/417
f 178/1252/418 184/1253/418 183/1254/418
f 181/1255/419 179/1256/419 185/1257/419
f 180/1258/420 182/1259/420 184/1260/420
f 186/1261/421 193/1262/421 187/1263/421
f 186/1264/422 188/1265/422 189/1266/422
f 191/1267/423 190/1268/423 189/1269/423
f 191/1270/424 192/1271/424 187/1272/424
f 189/1273/425 188/1274/425 187/1275/425
f 186/1276/426 190/1277/426 191/1278/426
f 194/1279/427 201/1280/427 195/1281/427
f 196/1282/428 195/1283/428 197/1284/428
f 198/1285/429 197/1286/429 199/1287/429
f 200/1288/430 199/1289/430 201/1290/430
f 197/1291/431 195/1292/431 201/1293/431
f 196/1294/432 198/1295/432 200/1296/432
f 202/1297/433 209/1298/433 203/1299/433
f 205/1300/434 204/1301/434 203/1302/434
f 205/1303/435 206/1304/435 207/1305/435
f 208/1306/436 207/1307/436 209/1308/436
f 206/1309/437 203/1310/437 209/1311/437
f 204/1312/438 205/1313/438 208/1314/438
f 210/1315/439 217/1316/439 211/1317/439
f 212/1318/440 211/1319/440 213/1320/440
f 214/1321/441 213/1322/441 215/1323/441
f 210/1324/442 216/1325/442 215/1326/442
f 213/1327/443 211/1328/443 217/1329/443
f 212/1330/444 214/1331/444 216/1332/444
f 218/1333/445 224/1334/445 219/1335/445
f 220/1336/446 219/1337/446 221/1338/446
f 1/1339/447 221/1340/447 222/1341/447
f 223/1342/448 222/1343/448 224/1344/448
f 221/1345/449 219/1346/449 224/1347/449
f 220/1348/450 1/1349/450 223/1350/450
f 225/1351/451 232/1352/451 226/1353/451
f 227/1354/452 226/1355/452 228/1356/452
f 229/1357/453 228/1358/453 230/1359/453
f 231/1360/454 230/1361/454 232/1362/454
f 228/1363/455 226/1364/455 232/1365/455
f 227/1366/456 229/1367/456 231/1368/456
f 233/1369/457 240/1370/457 234/1371/457
f 235/1372/458 234/1373/458 236/1374/458
f 237/1375/459 236/1376/459 238/1377/459
f 239/1378/460 238/1379/460 240/1380/460
f 236/1381/461 234/1382/461 240/1383/461
f 235/1384/462 237/1385/462 239/1386/462
f 241/1387/463 248/1388/463 242/1389/463
f 243/1390/464 242/1391/464 244/1392/464
f 245/1393/465 244/1394/465 246/1395/465
f 247/1396/466 246/1397/466 248/1398/466
f 244/1399/467 242/1400/467 248/1401/467
f 243/1402/468 245/1403/468 247/1404/468
f 249/1405/469 256/1406/469 250/1407/469
f 251/1408/470 250/1409/470 252/1410/470
f 253/1411/471 252/1412/471 254/1413/471
f 255/1414/472 254/1415/472 256/1416/472
f 252/1417/473 250/1418/473 256/1419/473
f 251/1420/474 253/1421/474 255/1422/474
f 257/1423/475 264/1424/475 258/1425/475
f 259/1426/476 258/1427/476 260/1428/476
f 261/1429/477 260/1430/477 262/1431/477
f 263/1432/478 262/1433/478 264/1434/478
f 260/1435/479 258/1436/479 264/1437/479
f 259/1438/480 261/1439/480 263/1440/480
f 265/1441/481 272/1442/481 266/1443/481
f 265/1444/482 267/1445/482 268/1446/482
f 269/1447/483 268/1448/483 270/1449/483
f 271/1450/484 270/1451/484 266/1452/484
f 268/1453/485 267/1454/485 266/1455/485
f 272/1456/486 265/1457/486 269/1458/486
f 273/1459/487 280/1460/487 274/1461/487
f 273/1462/488 275/1463/488 276/1464/488
f 277/1465/489 276/1466/489 278/1467/489
f 279/1468/490 278/1469/490 274/1470/490
f 276/1471/491 275/1472/491 274/1473/491
f 273/1474/492 277/1475/492 279/1476/492
f 281/1477/493 288/1478/493 282/1479/493
f 283/1480/494 282/1481/494 284/1482/494
f 285/1483/495 284/1484/495 286/1485/495
f 287/1486/496 286/1487/496 288/1488/496
f 284/1489/497 282/1490/497 288/1491/497
f 283/1492/498 285/1493/498 287/1494/498
f 289/1495/499 296/1496/499 290/1497/499
f 291/1498/500 290/1499/500 292/1500/500
f 293/1501/501 292/1502/501 294/1503/501
f 295/1504/502 294/1505/502 296/1506/502
f 292/1507/503 290/1508/503 296/1509/503
f 291/1510/504 293/1511/504 295/1512/504
f 297/1513/505 304/1514/505 298/1515/505
f 299/1516/506 298/1517/506 300/1518/506
f 301/1519/507 300/1520/507 302/1521/507
f 303/1522/508 302/1523/508 304/1524/508
f 300/1525/509 298/1526/509 304/1527/509
f 297/1528/510 299/1529/510 301/1530/510
f 305/1531/511 312/1532/511 306/1533/511
f 307/1534/512 306/1535/512 308/1536/512
f 309/1537/513 308/1538/513 310/1539/513
f 311/1540/514 310/1541/514 312/1542/514
f 308/1543/515 306/1544/515 312/1545/515
f 305/1546/516 307/1547/516 309/1548/516
f 313/1549/517 320/1550/517 314/1551/517
f 316/1552/518 315/1553/518 314/1554/518
f 318/1555/519 316/1556/519 317/1557/519
f 313/1558/520 318/1559/520 319/1560/520
f 319/1561/521 317/1562/521 314/1563/521
f 315/1564/522 316/1565/522 318/1566/522
f 321/1567/523 328/1568/523 322/1569/523
f 323/1570/524 322/1571/524 324/1572/524
f 326/1573/525 325/1574/525 324/1575/525
f 326/1576/526 327/1577/526 328/1578/526
f 324/1579/527 322/1580/527 328/1581/527
f 321/1582/528 323/1583/528 325/1584/528
f 329/1585/529 336/1586/529 330/1587/529
f 332/1588/530 331/1589/530 330/1590/530
f 332/1591/531 333/1592/531 334/1593/531
f 329/1594/532 335/1595/532 334/1596/532
f 333/1597/533 330/1598/533 336/1599/533
f 331/1600/534 332/1601/534 335/1602/534
f 337/1603/535 344/1604/535 338/1605/535
f 337/1606/536 339/1607/536 340/1608/536
f 341/1609/537 340/1610/537 342/1611/537
f 343/1612/538 342/1613/538 338/1614/538
f 340/1615/539 339/1616/539 338/1617/539
f 344/1618/540 337/1619/540 341/1620/540
f 345/1621/541 352/1622/541 346/1623/541
f 347/1624/542 346/1625/542 348/1626/542
f 349/1627/543 348/1628/543 350/1629/543
f 351/1630/544 350/1631/544 352/1632/544
f 348/1633/545 346/1634/545 352/1635/545
f 347/1636/546 349/1637/546 351/1638/546
f 353/1639/547 360/1640/547 354/1641/547
f 355/1642/548 354/1643/548 356/1644/548
f 357/1645/549 356/1646/549 358/1647/549
f 359/1648/550 358/1649/550 360/1650/550
f 356/1651/551 354/1652/551 360/1653/551
f 355/1654/552 357/1655/552 359/1656/552
f 361/1657/553 368/1658/553 362/1659/553
f 361/1660/554 363/1661/554 364/1662/554
f 365/1663/555 364/1664/555 366/1665/555
f 367/1666/556 366/1667/556 362/1668/556
f 364/1669/557 363/1670/557 362/1671/557
f 361/1672/558 365/1673/558 367/1674/558
f 369/1675/559 376/1676/559 370/1677/559
f 369/1678/560 371/1679/560 372/1680/560
f 373/1681/561 372/1682/561 374/1683/561
f 375/1684/562 374/1685/562 370/1686/562
f 372/1687/563 371/1688/563 370/1689/563
f 369/1690/564 373/1691/564 375/1692/564
