# Made in Blockbench 5.1.6
mtllib infantry.mtl

o plane
v 0.07500000000000001 1.3287395987293618 -0.21209751630424947
v 0.07500000000000001 1.3990439575321039 -0.197153863526723
v -0.08124999999999999 1.3287395987293618 -0.21209751630424947
v -0.08124999999999999 1.3990439575321039 -0.197153863526723
v 0.07500000000000001 1.2553020987293617 -0.22928501630424952
v 0.07500000000000001 1.3256064575321038 -0.21434136352672303
v -0.08124999999999999 1.2553020987293617 -0.22928501630424952
v -0.08124999999999999 1.3256064575321038 -0.21434136352672303
v -0.06583630385325623 1.325508441975837 -0.24092521426829042
v -0.07128353777498486 1.325508441975837 -0.30318738289902447
v -0.09286558415405144 1.1716322305676796 -0.23856045865870626
v -0.09831281807578007 1.1716322305676796 -0.3008226272894403
v -0.17313977003033199 1.3445012114081576 -0.2315373774207589
v -0.17858700395206062 1.3445012114081576 -0.29379954605149294
v -0.2001690503311272 1.190625 -0.22917262181117468
v -0.20561628425285583 1.190625 -0.29143479044190873
v -0.09121025522734254 1.190625 -0.23870528117419984
v -0.09665748914907117 1.190625 -0.3009674498049339
v -0.09121025522734254 1.034375 -0.2387052811741998
v -0.09665748914907117 1.034375 -0.30096744980493384
v -0.2001690503311272 1.190625 -0.22917262181117468
v -0.20561628425285583 1.190625 -0.29143479044190873
v -0.2001690503311272 1.034375 -0.22917262181117476
v -0.20561628425285583 1.034375 -0.2914347904419088
v 0.25 1.2590862793566258 -0.1574848323320807
v 0.25 1.2601770547589561 -0.21997531327935516
v 0.25 0.840400057009887 -0.16479302752769318
v 0.25 0.8414908324122172 -0.22728350847496762
v -0.25 1.2590862793566258 -0.1574848323320807
v -0.25 1.2601770547589561 -0.21997531327935516
v -0.25 0.840400057009887 -0.16479302752769318
v -0.25 0.8414908324122172 -0.22728350847496762
v 0.25 1.2525416269426444 0.21745805335156604
v 0.25 1.2536324023449748 0.1549675724042916
v 0.25 0.8651006450695431 0.21069524585711868
v 0.25 0.866191420471873 0.1482047649098442
v -0.25 1.2525416269426444 0.21745805335156604
v -0.25 1.2536324023449748 0.1549675724042916
v -0.25 0.8651006450695431 0.21069524585711868
v -0.25 0.866191420471873 0.1482047649098442
v 0.203125 1.441103845186798 0.15823989861128224
v 0.203125 1.441867387968429 0.11449656194819008
v 0.203125 0.9036857090402377 0.1488592301512423
v 0.203125 0.904449251821869 0.1051158934881502
v -0.203125 1.441103845186798 0.15823989861128224
v -0.203125 1.441867387968429 0.11449656194819008
v -0.203125 0.9036857090402377 0.1488592301512423
v -0.203125 0.904449251821869 0.1051158934881502
v 0.203125 1.4114058159004654 -0.09133050017818714
v 0.203125 1.4140226137126128 -0.1412619769159157
v 0.203125 0.9058496139309624 -0.11782557802617741
v 0.203125 0.9084664117431095 -0.16775705476390615
v -0.203125 1.4114058159004654 -0.09133050017818714
v -0.203125 1.4140226137126128 -0.1412619769159157
v -0.203125 0.9058496139309624 -0.11782557802617741
v -0.203125 0.9084664117431095 -0.16775705476390615
v 0.1875 1.4457073946822885 -0.11221056301010382
v 0.1875 1.45976683557878 -0.173108692059181
v 0.1875 1.244743568820334 -0.15860671796852585
v 0.1875 1.2588030097168257 -0.21950484701760306
v -0.1875 1.4457073946822885 -0.11221056301010382
v -0.1875 1.45976683557878 -0.173108692059181
v -0.1875 1.244743568820334 -0.15860671796852585
v -0.1875 1.2588030097168257 -0.21950484701760306
v 0.1875 1.4615512348812758 0.20393356956573355
v 0.1875 1.4582802376160915 0.14151922364357267
v 0.1875 1.2431010241537126 0.2153820599938776
v 0.1875 1.2398300268885285 0.15296771407171667
v -0.1875 1.4615512348812758 0.20393356956573355
v -0.1875 1.4582802376160915 0.14151922364357267
v -0.1875 1.2431010241537126 0.2153820599938776
v -0.1875 1.2398300268885285 0.15296771407171667
v -0.21600336458145303 1.6125201965159728 0.06809248457803868
v -0.1979733412947972 1.554271951244362 0.05436986882662703
v -0.21628327812123455 1.5895071251802886 0.1654080547408286
v -0.1982532548345787 1.5312588799086773 0.1516854389894169
v -0.3416728400120074 1.5757542186609481 0.05903664020144084
v -0.3236428167253515 1.5175059733893375 0.04531402445002919
v -0.34195275355178884 1.552741147325264 0.15635221036423064
v -0.323922730265133 1.494492902053653 0.1426295946128191
v -0.18883812355395446 1.5566117027373492 0.0898499865979811
v -0.2063617330433662 1.6218106814815503 0.07686619742933759
v -0.1781291227570564 1.5436596746844085 0.010357063823385249
v -0.1956527322464681 1.60885865342861 -0.002626725345258124
v -0.3385171105145434 1.5137572595365731 0.07666817866419201
v -0.35604072000395515 1.5789562382807742 0.06368438949554855
v -0.32780810971764535 1.5008052314836327 -0.0028247441104037874
v -0.3453317192070571 1.5660042102278342 -0.015808533279047216
v -0.17236273771257277 1.5366855057328253 -0.0324468176706281
v -0.1898863472019845 1.6018844844770268 -0.0454306068392715
v -0.1616537369156747 1.5237334776798848 -0.1119397404452239
v -0.17917734640508642 1.588932456424086 -0.1249235296138673
v -0.3220417246731617 1.4938310625320494 -0.045628625604417106
v -0.33956533416257345 1.5590300412762506 -0.05861241477306062
v -0.31133272387626365 1.4808790344791087 -0.12512154837901296
v -0.3288563333656754 1.5460780132233103 -0.13810533754765636
v -0.1999886732187325 1.552187037431061 0.0826806017498476
v -0.2159192273000159 1.6114588362894258 0.07087715705108094
v -0.17527559445665997 1.522297741924275 -0.10076460465306619
v -0.19120614853794335 1.58156954078264 -0.11256804935183287
v -0.3257190222656272 1.516189305142409 0.07160788308546479
v -0.3416495763469106 1.5754611040007738 0.05980443838669802
v -0.3010059435035547 1.4863000096356234 -0.11183732331744894
v -0.31693649758483805 1.545571808493988 -0.12364076801621571
v 0.3416728400120074 1.5757542186609481 0.05903664020144084
v 0.3236428167253515 1.5175059733893375 0.04531402445002919
v 0.34195275355178884 1.552741147325264 0.15635221036423064
v 0.323922730265133 1.494492902053653 0.1426295946128191
v 0.21600336458145303 1.6125201965159728 0.06809248457803868
v 0.1979733412947972 1.554271951244362 0.05436986882662703
v 0.21628327812123455 1.5895071251802886 0.1654080547408286
v 0.1982532548345787 1.5312588799086773 0.1516854389894169
v 0.3385171105145434 1.5137572595365731 0.07666817866419201
v 0.35604072000395515 1.5789562382807742 0.06368438949554855
v 0.32780810971764535 1.5008052314836327 -0.0028247441104037874
v 0.3453317192070571 1.5660042102278342 -0.015808533279047216
v 0.18883812355395446 1.5566117027373492 0.0898499865979811
v 0.2063617330433662 1.6218106814815503 0.07686619742933759
v 0.1781291227570564 1.5436596746844085 0.010357063823385249
v 0.1956527322464681 1.60885865342861 -0.002626725345258124
v 0.3257190222656272 1.516189305142409 0.07160788308546479
v 0.3416495763469106 1.5754611040007738 0.05980443838669802
v 0.3010059435035547 1.4863000096356234 -0.11183732331744894
v 0.31693649758483805 1.545571808493988 -0.12364076801621571
v 0.1999886732187325 1.552187037431061 0.0826806017498476
v 0.2159192273000159 1.6114588362894258 0.07087715705108094
v 0.17527559445665997 1.522297741924275 -0.10076460465306619
v 0.19120614853794335 1.58156954078264 -0.11256804935183287
v 0.3220417246731617 1.4938310625320494 -0.045628625604417106
v 0.33956533416257345 1.5590300412762506 -0.05861241477306062
v 0.31133272387626365 1.4808790344791087 -0.12512154837901296
v 0.3288563333656754 1.5460780132233103 -0.13810533754765636
v 0.17236273771257277 1.5366855057328253 -0.0324468176706281
v 0.1898863472019845 1.6018844844770268 -0.0454306068392715
v 0.1616537369156747 1.5237334776798848 -0.1119397404452239
v 0.17917734640508642 1.588932456424086 -0.1249235296138673
v 0.2491909449594895 1.1276290639601216 0.21135793150134757
v 0.31228271359774623 1.1295752572581603 0.09986059213065512
v 0.2491909449594895 0.8776671401710239 0.20699482989202672
v 0.31228271359774623 0.8796133334690628 0.09549749052133427
v 0.21655260636174328 1.1279513380642547 0.1928948604409667
v 0.279644375 1.1298975313622939 0.08139752107027431
v 0.21655260636174328 0.877989414275157 0.18853175883164586
v 0.279644375 0.879935607573196 0.07703441946095352
v -0.21655260636174328 1.1279513380642547 0.1928948604409667
v -0.279644375 1.1298975313622939 0.08139752107027431
v -0.21655260636174328 0.877989414275157 0.18853175883164586
v -0.279644375 0.879935607573196 0.07703441946095352
v -0.2491909449594895 1.1276290639601216 0.21135793150134757
v -0.31228271359774623 1.1295752572581603 0.09986059213065512
v -0.2491909449594895 0.8776671401710239 0.20699482989202672
v -0.31228271359774623 0.8796133334690628 0.09549749052133427
v 0.140625 1.260177054758956 -0.21997531327935516
v 0.140625 1.2602861322991887 -0.22622436137408258
v 0.140625 1.1976865738116813 -0.2210660886816854
v 0.140625 1.1977956513519143 -0.2273151367764128
v -0.140625 1.260177054758956 -0.21997531327935516
v -0.140625 1.2602861322991887 -0.22622436137408258
v -0.140625 1.1976865738116813 -0.2210660886816854
v -0.140625 1.1977956513519143 -0.2273151367764128
v 0.09374999999999999 1.3304192960048011 -0.20015164125249463
v 0.09374999999999999 1.3318252400944501 -0.2062414541574024
v 0.09374999999999999 1.2695211669557238 -0.21421108214898624
v 0.09374999999999999 1.270927111045373 -0.22030089505389389
v -0.09375000000000001 1.3304192960048011 -0.20015164125249463
v -0.09375000000000001 1.3318252400944501 -0.2062414541574024
v -0.09375000000000001 1.2695211669557238 -0.21421108214898624
v -0.09375000000000001 1.270927111045373 -0.22030089505389389
v 0.09374999999999999 1.3974072379587859 -0.18468625626635396
v 0.09374999999999999 1.398813182048435 -0.19077606917126166
v 0.09374999999999999 1.336509108909709 -0.19874569716284546
v 0.09374999999999999 1.3379150529993582 -0.20483551006775322
v -0.09375000000000001 1.3974072379587859 -0.18468625626635396
v -0.09375000000000001 1.398813182048435 -0.19077606917126166
v -0.09375000000000001 1.336509108909709 -0.19874569716284546
v -0.09375000000000001 1.3379150529993582 -0.20483551006775322
v 0.140625 1.191437525716954 -0.2211751662219184
v 0.140625 1.191546603257187 -0.22742421431664575
v 0.140625 1.1289470447696794 -0.2222659416242486
v 0.140625 1.1290561223099125 -0.228514989718976
v -0.140625 1.191437525716954 -0.2211751662219184
v -0.140625 1.191546603257187 -0.22742421431664575
v -0.140625 1.1289470447696794 -0.2222659416242486
v -0.140625 1.1290561223099125 -0.228514989718976
v 0.21875 1.1133244245328608 -0.22253863547483116
v 0.21875 1.1134335020730937 -0.22878768356955861
v 0.21875 0.8633625007437633 -0.22690173708415207
v 0.21875 0.8634715782839962 -0.23315078517887947
v -0.21875 1.1133244245328608 -0.22253863547483116
v -0.21875 1.1134335020730937 -0.22878768356955861
v -0.21875 0.8633625007437633 -0.22690173708415207
v -0.21875 0.8634715782839962 -0.23315078517887947
v -0.146875 1.1508187131012257 -0.22188417023343304
v -0.146875 1.1511459457219249 -0.24063131451761532
v -0.146875 1.0758301359644964 -0.2231931007162293
v -0.146875 1.0761573685851955 -0.24194024500041156
v -0.196875 1.1508187131012257 -0.22188417023343304
v -0.196875 1.1511459457219249 -0.24063131451761532
v -0.196875 1.0758301359644964 -0.2231931007162293
v -0.196875 1.0761573685851955 -0.24194024500041156
v 0.196875 1.1508187131012257 -0.22188417023343304
v 0.196875 1.1511459457219249 -0.24063131451761532
v 0.196875 1.0758301359644964 -0.2231931007162293
v 0.196875 1.0761573685851955 -0.24194024500041156
v 0.146875 1.1508187131012257 -0.22188417023343304
v 0.146875 1.1511459457219249 -0.24063131451761532
v 0.146875 1.0758301359644964 -0.2231931007162293
v 0.146875 1.0761573685851955 -0.24194024500041156
v 0.15625 1.2524325494024116 0.22370710144629358
v 0.15625 1.2525416269426441 0.2174580533515661
v 0.15625 1.189942068455137 0.22261632604396325
v 0.15625 1.19005114599537 0.21636727794923577
v -0.15625 1.2524325494024116 0.22370710144629358
v -0.15625 1.2525416269426441 0.2174580533515661
v -0.15625 1.189942068455137 0.22261632604396325
v -0.15625 1.19005114599537 0.21636727794923577
v 0.15625 1.3898531879713982 0.21026185936816116
v 0.15625 1.3895260882448799 0.20402042477594517
v 0.15625 1.3274388420492376 0.21353285663334526
v 0.15625 1.327111742322719 0.2072914220411291
v -0.15625 1.3898531879713982 0.21026185936816116
v -0.15625 1.3895260882448799 0.20402042477594517
v -0.15625 1.3274388420492376 0.21353285663334526
v -0.15625 1.327111742322719 0.2072914220411291
v 0.15625 1.3211974074570216 0.21385995635986355
v 0.15625 1.320870307730503 0.2076185217676475
v 0.15625 1.2587830615348605 0.21713095362504758
v 0.15625 1.2584559618083424 0.2108895190328316
v -0.15625 1.3211974074570216 0.21385995635986355
v -0.15625 1.320870307730503 0.2076185217676475
v -0.15625 1.2587830615348605 0.21713095362504758
v -0.15625 1.2584559618083424 0.2108895190328316
v 0.3291244692091361 1.5307042719518218 -0.13386445744552689
v 0.2494722789434316 1.234430589994116 -0.19330925507408636
v 0.17895815910970925 1.5661214595733894 -0.10917104471861844
v 0.09930596884400479 1.269847777615684 -0.1686158423471779
v -0.34574086024910233 1.5100201136285776 0.15054799664822027
v -0.2349520810111888 1.2218516956648275 0.19893249089216503
v -0.19970567483639387 1.5654021141117809 0.14600694567358113
v -0.08891689559848033 1.277233696148031 0.1943914399175259
v -0.3291244692091361 1.5307042719518218 -0.13386445744552689
v -0.2494722789434316 1.234430589994116 -0.19330925507408636
v -0.17895815910970925 1.5661214595733894 -0.10917104471861844
v -0.09930596884400479 1.269847777615684 -0.1686158423471779
v 0.34574086024910233 1.5100201136285776 0.15054799664822027
v 0.2349520810111888 1.2218516956648275 0.19893249089216503
v 0.19970567483639387 1.5654021141117809 0.14600694567358113
v 0.08891689559848033 1.277233696148031 0.1943914399175259
v 0.2920613760970979 1.1297399817621703 0.09042353161626793
v 0.25127194102833184 1.1351472000999363 -0.21935579948349837
v 0.2920613760970978 0.8797780579730725 0.08606043000694708
v 0.2512719410283317 0.8851852763108388 -0.22371890109281922
v -0.2920613760970979 1.1297399817621703 0.09042353161626793
v -0.25127194102833184 1.1351472000999363 -0.21935579948349837
v -0.2920613760970978 0.8797780579730725 0.08606043000694708
v -0.2512719410283317 0.8851852763108388 -0.22371890109281922
v -0.17241531536020516 1.1125 -0.23633867500555994
v -0.2766510431186012 1.1125 -0.3053307981695673
v -0.17241531536020516 0.8625 -0.23633867500556
v -0.2766510431186012 0.8625 -0.3053307981695672
v -0.25865546931521427 1.1125 -0.10604401530756492
v -0.3628911970736103 1.1125 -0.17503613847157223
v -0.25865546931521427 0.8625 -0.10604401530756492
v -0.3628911970736103 0.8625 -0.17503613847157223
v -0.07021196123803011 1.1249999999999998 -0.2220514117157272
v -0.07593526181942295 1.1249999999999998 -0.3156265490677772
v -0.07021196123803011 0.875 -0.22205141171572723
v -0.07593526181942295 0.8749999999999999 -0.31562654906777726
v -0.22617052349144684 1.125 -0.21251257741340587
v -0.23189382407283965 1.125 -0.30608771476545577
v -0.22617052349144684 0.875 -0.21251257741340585
v -0.23189382407283965 0.875 -0.3060877147654558
v 0.0889762472359548 1.0874999999999997 -0.21837431070001004
v 0.08979435993892737 1.0875 -0.31212074098727616
v 0.0889762472359548 0.8374999999999998 -0.21837431070001
v 0.08979435993892737 0.8374999999999999 -0.31212074098727605
v -0.06726780324282196 1.0875 -0.21973783187163096
v -0.06644969053984941 1.0874999999999997 -0.313484262158897
v -0.06726780324282196 0.8374999999999998 -0.2197378318716309
v -0.06644969053984941 0.8374999999999998 -0.313484262158897
v 0.23662099407572398 1.0874999999999997 -0.18396365952617208
v 0.2621540807474636 1.0874999999999997 -0.29031661956966803
v 0.23662099407572398 0.8374999999999999 -0.1839636595261721
v 0.2621540807474636 0.8374999999999998 -0.2903166195696679
v 0.084688194013587 1.0874999999999997 -0.22043949762865733
v 0.11022128068532666 1.0875 -0.32679245767215315
v 0.084688194013587 0.8374999999999998 -0.2204394976286573
v 0.11022128068532666 0.8374999999999999 -0.3267924576721531
v 0.3785153993833126 1.1031249999999997 -0.02716353687787529
v 0.35552099658670666 1.103125 -0.22898282006218207
v 0.3785153993833126 0.8374999999999999 -0.027163536877875205
v 0.35552099658670666 0.8374999999999999 -0.22898282006218199
v 0.28536803791363263 1.1031249999999997 -0.01655073558713402
v 0.2623736351170266 1.103125 -0.21837001877144083
v 0.28536803791363263 0.8374999999999998 -0.016550735587133936
v 0.2623736351170266 0.8374999999999998 -0.21837001877144074
v -0.38882465688060497 1.1031249999999997 0.06358714893655987
v -0.35006657969474425 1.1031249999999997 -0.1358058727012469
v -0.38882465688060497 0.8375 0.06358714893655987
v -0.35006657969474425 0.8375 -0.13580587270124683
v -0.29679710843238644 1.103125 0.08147549225311096
v -0.2580390312465258 1.103125 -0.11791752938469581
v -0.29679710843238644 0.8374999999999999 0.0814754922531109
v -0.2580390312465258 0.8375 -0.11791752938469582
v -0.21870009983202157 1.2625 -0.23420306789210593
v -0.2923376075287495 1.2625 -0.26854080165853783
v -0.21870009983202157 1.0749999999999997 -0.234203067892106
v -0.2923376075287495 1.0749999999999997 -0.2685408016585378
v -0.26096192600609147 1.2625 -0.14357228918844098
v -0.3345994337028194 1.2625 -0.17791002295487282
v -0.26096192600609147 1.0749999999999997 -0.143572289188441
v -0.3345994337028194 1.0749999999999997 -0.17791002295487285
v -0.24976650047454713 1.4242036668041456 -0.23961544362458584
v -0.2667331682403513 1.4230182823952253 -0.24750781644446146
v -0.24163947074264752 1.243395173060161 -0.22993027569789584
v -0.2586061385084517 1.2422097886512407 -0.2378226485177715
v -0.2570416156816935 1.4247103418648186 -0.22405182787002417
v -0.2740082834474976 1.4235249574558984 -0.23194420068989982
v -0.24891458594979382 1.243901848120834 -0.21436665994333431
v -0.265881253715598 1.2427164637119137 -0.22225903276320988
v 0.10366953607626822 1.4177349754454673 -0.2239407192800457
v 0.11445681675982797 1.1703221293853818 -0.2581535557585175
v -0.27097499844528283 1.4020025141113233 -0.22829530462196618
v -0.260187717761723 1.1545896680512375 -0.26250814110043785
v 0.1783250462064194 1.434521900957609 -0.15423270484477508
v 0.1970516869077593 1.4481022217294377 -0.21229420513349614
v 0.17955160049886779 1.312725614633414 -0.18232470018512859
v 0.19827824120020768 1.3263059354052429 -0.2403862004738497
v 0.0888869651493781 1.4399801384086175 -0.1818026123666098
v 0.107613605850718 1.453560459180446 -0.23986411265533092
v 0.09011351944182648 1.3181838520844227 -0.20989460770696333
v 0.10884016014316637 1.3317641728562513 -0.2679561079956844
v 0.0879708757461681 1.203633441975837 -0.234375
v 0.0879708757461681 1.203633441975837 -0.29687499999999994
v 0.06083834798571025 1.0497572305676797 -0.23437500000000006
v 0.06083834798571025 1.0497572305676794 -0.29687500000000006
v -0.019742472239542133 1.2226262114081576 -0.234375
v -0.019742472239542133 1.2226262114081576 -0.29687500000000006
v -0.046875 1.06875 -0.234375
v -0.046875 1.06875 -0.29687500000000006
v 0.0625 1.09375 -0.23437500000000003
v 0.0625 1.09375 -0.29687500000000006
v 0.0625 0.9375 -0.234375
v 0.0625 0.9375 -0.296875
v -0.046875 1.09375 -0.23437500000000003
v -0.046875 1.09375 -0.29687500000000006
v -0.046875 0.9375 -0.234375
v -0.046875 0.9375 -0.296875
v 0.24161147121260984 1.1911334419758366 -0.21960842109606357
v 0.25778766153151744 1.1911334419758366 -0.27997878523913033
v 0.21540346191627852 1.0372572305676795 -0.22663083602224288
v 0.23157965223518606 1.0372572305676795 -0.2870012001653097
v 0.1375683665571507 1.2101262114081575 -0.2474866869665206
v 0.15374455687605826 1.2101262114081575 -0.3078570511095875
v 0.11136035726081937 1.0562499999999997 -0.2545091018927
v 0.12753654757972693 1.05625 -0.3148794660357667
v 0.21700849451118623 1.08125 -0.2262007688346117
v 0.23318468483009377 1.08125 -0.2865711329776785
v 0.21700849451118623 0.925 -0.2262007688346117
v 0.23318468483009377 0.9249999999999999 -0.28657113297767856
v 0.11136035726081937 1.08125 -0.25450910189269993
v 0.12753654757972693 1.08125 -0.3148794660357667
v 0.11136035726081937 0.925 -0.25450910189269993
v 0.12753654757972693 0.925 -0.31487946603576666
vt 0.2734375 0.216796875
vt 0.2734375 0.234375
vt 0.234375 0.234375
vt 0.234375 0.216796875
vt 0.8046875 0.701171875
vt 0.8046875 0.71875
vt 0.765625 0.71875
vt 0.765625 0.701171875
vt 0.171875 0.21875
vt 0.15625 0.21875
vt 0.15625 0.1796875
vt 0.171875 0.1796875
vt 0.4375 0.1796875
vt 0.4375 0.21875
vt 0.421875 0.21875
vt 0.421875 0.1796875
vt 0.796875 0.34375
vt 0.82421875 0.34375
vt 0.82421875 0.359375
vt 0.796875 0.359375
vt 0.82421875 0.3125
vt 0.82421875 0.328125
vt 0.796875 0.328125
vt 0.796875 0.3125
vt 0.46484375 0.2890625
vt 0.46484375 0.328125
vt 0.4375 0.328125
vt 0.4375 0.2890625
vt 0.63671875 0.328125
vt 0.609375 0.328125
vt 0.609375 0.2890625
vt 0.63671875 0.2890625
vt 0.46875 0.21875
vt 0.453125 0.21875
vt 0.453125 0.1796875
vt 0.46875 0.1796875
vt 0.5 0.1796875
vt 0.5 0.21875
vt 0.484375 0.21875
vt 0.484375 0.1796875
vt 0.796875 0.28125
vt 0.82421875 0.28125
vt 0.82421875 0.296875
vt 0.796875 0.296875
vt 0.82421875 0.25
vt 0.82421875 0.265625
vt 0.796875 0.265625
vt 0.796875 0.25
vt 0.68359375 0.2890625
vt 0.68359375 0.328125
vt 0.65625 0.328125
vt 0.65625 0.2890625
vt 0.07421875 0.3125
vt 0.046875 0.3125
vt 0.046875 0.2734375
vt 0.07421875 0.2734375
vt 0.46875 0.34765625
vt 0.46875 0.453125
vt 0.453125 0.453125
vt 0.453125 0.34765625
vt 0.125 0.31640625
vt 0.125 0.421875
vt 0.109375 0.421875
vt 0.109375 0.31640625
vt 0.5 0.6875
vt 0.5 0.671875
vt 0.625 0.671875
vt 0.625 0.6875
vt 0.53125 0.8125
vt 0.53125 0.828125
vt 0.65625 0.828125
vt 0.65625 0.8125
vt 0.265625 0.73828125
vt 0.265625 0.84375
vt 0.140625 0.84375
vt 0.140625 0.73828125
vt 0.125 0.73828125
vt 0.125 0.84375
vt 0 0.84375
vt 0 0.73828125
vt 0.1875 0.29296875
vt 0.1875 0.390625
vt 0.171875 0.390625
vt 0.171875 0.29296875
vt 0.21875 0.29296875
vt 0.21875 0.390625
vt 0.203125 0.390625
vt 0.203125 0.29296875
vt 0.53125 0.796875
vt 0.53125 0.78125
vt 0.65625 0.78125
vt 0.65625 0.796875
vt 0.53125 0.640625
vt 0.53125 0.65625
vt 0.65625 0.65625
vt 0.65625 0.640625
vt 0.40625 0.74609375
vt 0.40625 0.84375
vt 0.28125 0.84375
vt 0.28125 0.74609375
vt 0.25 0.62109375
vt 0.25 0.71875
vt 0.125 0.71875
vt 0.125 0.62109375
vt 0.15234375 0.287109375
vt 0.15234375 0.421875
vt 0.140625 0.421875
vt 0.140625 0.287109375
vt 0.58984375 0.333984375
vt 0.58984375 0.46875
vt 0.578125 0.46875
vt 0.578125 0.333984375
vt 0.640625 0.625
vt 0.640625 0.61328125
vt 0.7421875 0.61328125
vt 0.7421875 0.625
vt 0.640625 0.58203125
vt 0.640625 0.59375
vt 0.7421875 0.59375
vt 0.7421875 0.58203125
vt 0.2265625 0.865234375
vt 0.2265625 1
vt 0.125 1
vt 0.125 0.865234375
vt 0.1015625 0.865234375
vt 0.1015625 1
vt 0 1
vt 0 0.865234375
vt 0.24609375 0.263671875
vt 0.24609375 0.390625
vt 0.234375 0.390625
vt 0.234375 0.263671875
vt 0.27734375 0.263671875
vt 0.27734375 0.390625
vt 0.265625 0.390625
vt 0.265625 0.263671875
vt 0.609375 0.359375
vt 0.609375 0.34765625
vt 0.7109375 0.34765625
vt 0.7109375 0.359375
vt 0.65625 0.98828125
vt 0.65625 1
vt 0.7578125 1
vt 0.7578125 0.98828125
vt 0.1015625 0.591796875
vt 0.1015625 0.71875
vt 0 0.71875
vt 0 0.591796875
vt 0.3515625 0.873046875
vt 0.3515625 1
vt 0.25 1
vt 0.25 0.873046875
vt 0.015625 0.21484375
vt 0.015625 0.265625
vt 0 0.265625
vt 0 0.21484375
vt 0.21875 0.21484375
vt 0.21875 0.265625
vt 0.203125 0.265625
vt 0.203125 0.21484375
vt 0.59375 0.5625
vt 0.59375 0.546875
vt 0.6875 0.546875
vt 0.6875 0.5625
vt 0.59375 0.515625
vt 0.59375 0.53125
vt 0.6875 0.53125
vt 0.6875 0.515625
vt 0.09375 0.51171875
vt 0.09375 0.5625
vt 0 0.5625
vt 0 0.51171875
vt 0.515625 0.79296875
vt 0.515625 0.84375
vt 0.421875 0.84375
vt 0.421875 0.79296875
vt 0.71875 0.2734375
vt 0.71875 0.328125
vt 0.703125 0.328125
vt 0.703125 0.2734375
vt 0.40625 0.2265625
vt 0.40625 0.28125
vt 0.390625 0.28125
vt 0.390625 0.2265625
vt 0.59375 0.5
vt 0.59375 0.484375
vt 0.6875 0.484375
vt 0.6875 0.5
vt 0.609375 0.453125
vt 0.609375 0.46875
vt 0.703125 0.46875
vt 0.703125 0.453125
vt 0.484375 0.6640625
vt 0.484375 0.71875
vt 0.390625 0.71875
vt 0.390625 0.6640625
vt 0.46875 0.8671875
vt 0.46875 0.921875
vt 0.375 0.921875
vt 0.375 0.8671875
vt 0.6875 0.177734375
vt 0.6875 0.203125
vt 0.671875 0.203125
vt 0.671875 0.177734375
vt 0.015625 0.162109375
vt 0.015625 0.1875
vt 0 0.1875
vt 0 0.162109375
vt 0.765625 0.84375
vt 0.765625 0.828125
vt 0.798828125 0.828125
vt 0.798828125 0.84375
vt 0.78125 0.46875
vt 0.78125 0.484375
vt 0.814453125 0.484375
vt 0.814453125 0.46875
vt 0.767578125 0.912109375
vt 0.767578125 0.9375
vt 0.734375 0.9375
vt 0.734375 0.912109375
vt 0.751953125 0.740234375
vt 0.751953125 0.765625
vt 0.71875 0.765625
vt 0.71875 0.740234375
vt 0.720703125 0.16796875
vt 0.720703125 0.1875
vt 0.703125 0.1875
vt 0.703125 0.16796875
vt 0.767578125 0.16796875
vt 0.767578125 0.1875
vt 0.75 0.1875
vt 0.75 0.16796875
vt 0.765625 0.625
vt 0.765625 0.607421875
vt 0.8046875 0.607421875
vt 0.8046875 0.625
vt 0.765625 0.560546875
vt 0.765625 0.578125
vt 0.8046875 0.578125
vt 0.8046875 0.560546875
vt 0.4609375 0.24609375
vt 0.4609375 0.265625
vt 0.421875 0.265625
vt 0.421875 0.24609375
vt 0.7734375 0.79296875
vt 0.7734375 0.8125
vt 0.734375 0.8125
vt 0.734375 0.79296875
vt 0.814453125 0.16796875
vt 0.814453125 0.1875
vt 0.796875 0.1875
vt 0.796875 0.16796875
vt 0.111328125 0.15234375
vt 0.111328125 0.171875
vt 0.09375 0.171875
vt 0.09375 0.15234375
vt 0.765625 0.53125
vt 0.765625 0.513671875
vt 0.8046875 0.513671875
vt 0.8046875 0.53125
vt 0.703125 0.216796875
vt 0.703125 0.234375
vt 0.7421875 0.234375
vt 0.7421875 0.216796875
vt 0.5859375 0.24609375
vt 0.5859375 0.265625
vt 0.546875 0.265625
vt 0.546875 0.24609375
vt 0.5234375 0.24609375
vt 0.5234375 0.265625
vt 0.484375 0.265625
vt 0.484375 0.24609375
vt 0.359375 0.21875
vt 0.359375 0.265625
vt 0.34375 0.265625
vt 0.34375 0.21875
vt 0.6875 0.21875
vt 0.6875 0.265625
vt 0.671875 0.265625
vt 0.671875 0.21875
vt 0.796875 0.953125
vt 0.796875 0.9375
vt 0.830078125 0.9375
vt 0.830078125 0.953125
vt 0.796875 0.90625
vt 0.796875 0.921875
vt 0.830078125 0.921875
vt 0.830078125 0.90625
vt 0.611328125 0.578125
vt 0.611328125 0.625
vt 0.578125 0.625
vt 0.578125 0.578125
vt 0.595703125 0.71875
vt 0.595703125 0.765625
vt 0.5625 0.765625
vt 0.5625 0.71875
vt 0.046875 0.162109375
vt 0.046875 0.1875
vt 0.03125 0.1875
vt 0.03125 0.162109375
vt 0.078125 0.162109375
vt 0.078125 0.1875
vt 0.0625 0.1875
vt 0.0625 0.162109375
vt 0.796875 0.890625
vt 0.796875 0.875
vt 0.830078125 0.875
vt 0.830078125 0.890625
vt 0.796875 0.796875
vt 0.796875 0.8125
vt 0.830078125 0.8125
vt 0.830078125 0.796875
vt 0.173828125 0.240234375
vt 0.173828125 0.265625
vt 0.140625 0.265625
vt 0.140625 0.240234375
vt 0.767578125 0.865234375
vt 0.767578125 0.890625
vt 0.734375 0.890625
vt 0.734375 0.865234375
vt 0.845703125 0.83984375
vt 0.845703125 0.859375
vt 0.828125 0.859375
vt 0.828125 0.83984375
vt 0.298828125 0.15234375
vt 0.298828125 0.171875
vt 0.28125 0.171875
vt 0.28125 0.15234375
vt 0.765625 0.234375
vt 0.765625 0.216796875
vt 0.8046875 0.216796875
vt 0.8046875 0.234375
vt 0.78125 0.982421875
vt 0.78125 1
vt 0.8203125 1
vt 0.8203125 0.982421875
vt 0.7734375 0.35546875
vt 0.7734375 0.375
vt 0.734375 0.375
vt 0.734375 0.35546875
vt 0.6484375 0.24609375
vt 0.6484375 0.265625
vt 0.609375 0.265625
vt 0.609375 0.24609375
vt 0.046875 0.203125
vt 0.046875 0.25
vt 0.03125 0.25
vt 0.03125 0.203125
vt 0.078125 0.203125
vt 0.078125 0.25
vt 0.0625 0.25
vt 0.0625 0.203125
vt 0.296875 0.203125
vt 0.296875 0.1875
vt 0.330078125 0.1875
vt 0.330078125 0.203125
vt 0.796875 0.65625
vt 0.796875 0.671875
vt 0.830078125 0.671875
vt 0.830078125 0.65625
vt 0.626953125 0.953125
vt 0.626953125 1
vt 0.59375 1
vt 0.59375 0.953125
vt 0.033203125 0.359375
vt 0.033203125 0.40625
vt 0 0.40625
vt 0 0.359375
vt 0.845703125 0.69921875
vt 0.845703125 0.71875
vt 0.828125 0.71875
vt 0.828125 0.69921875
vt 0.845703125 0.62109375
vt 0.845703125 0.640625
vt 0.828125 0.640625
vt 0.828125 0.62109375
vt 0.09375 0.21875
vt 0.09375 0.201171875
vt 0.1328125 0.201171875
vt 0.1328125 0.21875
vt 0.78125 0.748046875
vt 0.78125 0.765625
vt 0.8203125 0.765625
vt 0.8203125 0.748046875
vt 0.7734375 0.26171875
vt 0.7734375 0.28125
vt 0.734375 0.28125
vt 0.734375 0.26171875
vt 0.7734375 0.30859375
vt 0.7734375 0.328125
vt 0.734375 0.328125
vt 0.734375 0.30859375
vt 0.09375 0.421875
vt 0.09375 0.484375
vt 0.0625 0.484375
vt 0.0625 0.421875
vt 0.5625 0.5625
vt 0.5625 0.625
vt 0.53125 0.625
vt 0.53125 0.5625
vt 0.328125 0.171875
vt 0.328125 0.140625
vt 0.337890625 0.140625
vt 0.337890625 0.171875
vt 0.828125 0.5625
vt 0.828125 0.59375
vt 0.837890625 0.59375
vt 0.837890625 0.5625
vt 0.556640625 0.15625
vt 0.556640625 0.21875
vt 0.546875 0.21875
vt 0.546875 0.15625
vt 0.525390625 0.15625
vt 0.525390625 0.21875
vt 0.515625 0.21875
vt 0.515625 0.15625
vt 0.515625 0.40625
vt 0.515625 0.46875
vt 0.484375 0.46875
vt 0.484375 0.40625
vt 0.5625 0.40625
vt 0.5625 0.46875
vt 0.53125 0.46875
vt 0.53125 0.40625
vt 0.828125 0.546875
vt 0.828125 0.515625
vt 0.837890625 0.515625
vt 0.837890625 0.546875
vt 0.828125 0.375
vt 0.828125 0.40625
vt 0.837890625 0.40625
vt 0.837890625 0.375
vt 0.619140625 0.15625
vt 0.619140625 0.21875
vt 0.609375 0.21875
vt 0.609375 0.15625
vt 0.587890625 0.15625
vt 0.587890625 0.21875
vt 0.578125 0.21875
vt 0.578125 0.15625
vt 0.548828125 0.125
vt 0.548828125 0.140625
vt 0.546875 0.140625
vt 0.546875 0.125
vt 0.580078125 0.125
vt 0.580078125 0.140625
vt 0.578125 0.140625
vt 0.578125 0.125
vt 0.84375 0.296875
vt 0.84375 0.294921875
vt 0.9140625 0.294921875
vt 0.9140625 0.296875
vt 0.84375 0.263671875
vt 0.84375 0.265625
vt 0.9140625 0.265625
vt 0.9140625 0.263671875
vt 0.7265625 0.421875
vt 0.7265625 0.4375
vt 0.65625 0.4375
vt 0.65625 0.421875
vt 0.7265625 0.953125
vt 0.7265625 0.96875
vt 0.65625 0.96875
vt 0.65625 0.953125
vt 0.861328125 0.390625
vt 0.861328125 0.40625
vt 0.859375 0.40625
vt 0.859375 0.390625
vt 0.611328125 0.125
vt 0.611328125 0.140625
vt 0.609375 0.140625
vt 0.609375 0.125
vt 0 0.140625
vt 0 0.138671875
vt 0.046875 0.138671875
vt 0.046875 0.140625
vt 0.859375 0.951171875
vt 0.859375 0.953125
vt 0.90625 0.953125
vt 0.90625 0.951171875
vt 0.71875 0.640625
vt 0.71875 0.65625
vt 0.671875 0.65625
vt 0.671875 0.640625
vt 0.25 0.578125
vt 0.25 0.59375
vt 0.203125 0.59375
vt 0.203125 0.578125
vt 0.705078125 0.125
vt 0.705078125 0.140625
vt 0.703125 0.140625
vt 0.703125 0.125
vt 0.736328125 0.125
vt 0.736328125 0.140625
vt 0.734375 0.140625
vt 0.734375 0.125
vt 0.859375 0.921875
vt 0.859375 0.919921875
vt 0.90625 0.919921875
vt 0.90625 0.921875
vt 0.859375 0.888671875
vt 0.859375 0.890625
vt 0.90625 0.890625
vt 0.90625 0.888671875
vt 0.78125 0.640625
vt 0.78125 0.65625
vt 0.734375 0.65625
vt 0.734375 0.640625
vt 0.765625 0.453125
vt 0.765625 0.46875
vt 0.71875 0.46875
vt 0.71875 0.453125
vt 0.767578125 0.125
vt 0.767578125 0.140625
vt 0.765625 0.140625
vt 0.765625 0.125
vt 0.861328125 0.21875
vt 0.861328125 0.234375
vt 0.859375 0.234375
vt 0.859375 0.21875
vt 0.84375 0.1875
vt 0.84375 0.185546875
vt 0.9140625 0.185546875
vt 0.9140625 0.1875
vt 0.84375 0.154296875
vt 0.84375 0.15625
vt 0.9140625 0.15625
vt 0.9140625 0.154296875
vt 0.7421875 0.828125
vt 0.7421875 0.84375
vt 0.671875 0.84375
vt 0.671875 0.828125
vt 0.7265625 0.390625
vt 0.7265625 0.40625
vt 0.65625 0.40625
vt 0.65625 0.390625
vt 0.486328125 0.09375
vt 0.486328125 0.15625
vt 0.484375 0.15625
vt 0.484375 0.09375
vt 0.673828125 0.09375
vt 0.673828125 0.15625
vt 0.671875 0.15625
vt 0.671875 0.09375
vt 0.84375 0.78125
vt 0.84375 0.779296875
vt 0.953125 0.779296875
vt 0.953125 0.78125
vt 0.84375 0.748046875
vt 0.84375 0.75
vt 0.953125 0.75
vt 0.953125 0.748046875
vt 0.375 0.578125
vt 0.375 0.640625
vt 0.265625 0.640625
vt 0.265625 0.578125
vt 0.375 0.65625
vt 0.375 0.71875
vt 0.265625 0.71875
vt 0.265625 0.65625
vt 0.06640625 0.12109375
vt 0.06640625 0.140625
vt 0.0625 0.140625
vt 0.0625 0.12109375
vt 0.86328125 0.57421875
vt 0.86328125 0.59375
vt 0.859375 0.59375
vt 0.859375 0.57421875
vt 0.171875 0.5
vt 0.171875 0.49609375
vt 0.18359375 0.49609375
vt 0.18359375 0.5
vt 0.75 0.96484375
vt 0.75 0.96875
vt 0.76171875 0.96875
vt 0.76171875 0.96484375
vt 0.83984375 0.21484375
vt 0.83984375 0.234375
vt 0.828125 0.234375
vt 0.828125 0.21484375
vt 0.65234375 0.15234375
vt 0.65234375 0.171875
vt 0.640625 0.171875
vt 0.640625 0.15234375
vt 0.86328125 0.52734375
vt 0.86328125 0.546875
vt 0.859375 0.546875
vt 0.859375 0.52734375
vt 0.51953125 0.12109375
vt 0.51953125 0.140625
vt 0.515625 0.140625
vt 0.515625 0.12109375
vt 0.859375 0.8125
vt 0.859375 0.80859375
vt 0.87109375 0.80859375
vt 0.87109375 0.8125
vt 0.859375 0.66796875
vt 0.859375 0.671875
vt 0.87109375 0.671875
vt 0.87109375 0.66796875
vt 0.15234375 0.13671875
vt 0.15234375 0.15625
vt 0.140625 0.15625
vt 0.140625 0.13671875
vt 0.85546875 0.98046875
vt 0.85546875 1
vt 0.84375 1
vt 0.84375 0.98046875
vt 0.798828125 0.125
vt 0.798828125 0.140625
vt 0.796875 0.140625
vt 0.796875 0.125
vt 0.876953125 0.984375
vt 0.876953125 1
vt 0.875 1
vt 0.875 0.984375
vt 0.390625 0.15625
vt 0.390625 0.154296875
vt 0.46875 0.154296875
vt 0.46875 0.15625
vt 0.84375 0.498046875
vt 0.84375 0.5
vt 0.921875 0.5
vt 0.921875 0.498046875
vt 0.703125 0.71875
vt 0.703125 0.734375
vt 0.625 0.734375
vt 0.625 0.71875
vt 0.703125 0.75
vt 0.703125 0.765625
vt 0.625 0.765625
vt 0.625 0.75
vt 0.095703125 0.109375
vt 0.095703125 0.125
vt 0.09375 0.125
vt 0.09375 0.109375
vt 0.876953125 0.84375
vt 0.876953125 0.859375
vt 0.875 0.859375
vt 0.875 0.84375
vt 0.84375 0.46875
vt 0.84375 0.466796875
vt 0.921875 0.466796875
vt 0.921875 0.46875
vt 0.84375 0.435546875
vt 0.84375 0.4375
vt 0.921875 0.4375
vt 0.921875 0.435546875
vt 0.71875 0.921875
vt 0.71875 0.9375
vt 0.640625 0.9375
vt 0.640625 0.921875
vt 0.421875 0.359375
vt 0.421875 0.375
vt 0.34375 0.375
vt 0.34375 0.359375
vt 0.267578125 0.109375
vt 0.267578125 0.125
vt 0.265625 0.125
vt 0.265625 0.109375
vt 0.876953125 0.703125
vt 0.876953125 0.71875
vt 0.875 0.71875
vt 0.875 0.703125
vt 0.84375 0.359375
vt 0.84375 0.357421875
vt 0.921875 0.357421875
vt 0.921875 0.359375
vt 0.84375 0.326171875
vt 0.84375 0.328125
vt 0.921875 0.328125
vt 0.921875 0.326171875
vt 0.71875 0.859375
vt 0.71875 0.875
vt 0.640625 0.875
vt 0.640625 0.859375
vt 0.71875 0.890625
vt 0.71875 0.90625
vt 0.640625 0.90625
vt 0.640625 0.890625
vt 0.3984375 0.46875
vt 0.3984375 0.546875
vt 0.359375 0.546875
vt 0.359375 0.46875
vt 0.421875 0.546875
vt 0.421875 0.46875
vt 0.4609375 0.46875
vt 0.4609375 0.546875
vt 0.5078125 0.640625
vt 0.46875 0.640625
vt 0.46875 0.5625
vt 0.5078125 0.5625
vt 0.484375 0.921875
vt 0.5234375 0.921875
vt 0.5234375 1
vt 0.484375 1
vt 0.453125 0.5625
vt 0.453125 0.640625
vt 0.390625 0.640625
vt 0.390625 0.5625
vt 0.1875 0.59375
vt 0.125 0.59375
vt 0.125 0.515625
vt 0.1875 0.515625
vt 0.578125 0.9375
vt 0.578125 1
vt 0.546875 1
vt 0.546875 0.9375
vt 0.390625 0.390625
vt 0.390625 0.453125
vt 0.359375 0.453125
vt 0.359375 0.390625
vt 0.421875 0.765625
vt 0.421875 0.734375
vt 0.4609375 0.734375
vt 0.4609375 0.765625
vt 0.640625 0.671875
vt 0.640625 0.703125
vt 0.6796875 0.703125
vt 0.6796875 0.671875
vt 0.1484375 0.4375
vt 0.1484375 0.5
vt 0.109375 0.5
vt 0.109375 0.4375
vt 0.5234375 0.484375
vt 0.5234375 0.546875
vt 0.484375 0.546875
vt 0.484375 0.484375
vt 0.3203125 0.328125
vt 0.3203125 0.390625
vt 0.296875 0.390625
vt 0.296875 0.328125
vt 0.5078125 0.328125
vt 0.5078125 0.390625
vt 0.484375 0.390625
vt 0.484375 0.328125
vt 0.546875 0.3125
vt 0.546875 0.2890625
vt 0.5859375 0.2890625
vt 0.5859375 0.3125
vt 0.703125 0.6796875
vt 0.703125 0.703125
vt 0.7421875 0.703125
vt 0.7421875 0.6796875
vt 0.0390625 0.421875
vt 0.0390625 0.484375
vt 0 0.484375
vt 0 0.421875
vt 0.5390625 0.703125
vt 0.5390625 0.765625
vt 0.5 0.765625
vt 0.5 0.703125
vt 0.5546875 0.328125
vt 0.5546875 0.390625
vt 0.53125 0.390625
vt 0.53125 0.328125
vt 0.6328125 0.375
vt 0.6328125 0.4375
vt 0.609375 0.4375
vt 0.609375 0.375
vt 0.703125 0.5625
vt 0.703125 0.5390625
vt 0.7421875 0.5390625
vt 0.7421875 0.5625
vt 0.703125 0.4921875
vt 0.703125 0.515625
vt 0.7421875 0.515625
vt 0.7421875 0.4921875
vt 0.2109375 0.40625
vt 0.2109375 0.46875
vt 0.171875 0.46875
vt 0.171875 0.40625
vt 0.5703125 0.84375
vt 0.5703125 0.90625
vt 0.53125 0.90625
vt 0.53125 0.84375
vt 0.43359375 0.390625
vt 0.43359375 0.453125
vt 0.40625 0.453125
vt 0.40625 0.390625
vt 0.57421875 0.484375
vt 0.57421875 0.546875
vt 0.546875 0.546875
vt 0.546875 0.484375
vt 0.671875 0.8125
vt 0.671875 0.78515625
vt 0.7109375 0.78515625
vt 0.7109375 0.8125
vt 0.484375 0.28515625
vt 0.484375 0.3125
vt 0.5234375 0.3125
vt 0.5234375 0.28515625
vt 0.3359375 0.40625
vt 0.3359375 0.46875
vt 0.296875 0.46875
vt 0.296875 0.40625
vt 0.2734375 0.40625
vt 0.2734375 0.46875
vt 0.234375 0.46875
vt 0.234375 0.40625
vt 0.25390625 0.5625
vt 0.203125 0.5625
vt 0.203125 0.49609375
vt 0.25390625 0.49609375
vt 0.33203125 0.49609375
vt 0.33203125 0.5625
vt 0.28125 0.5625
vt 0.28125 0.49609375
vt 0 0.29296875
vt 0.0234375 0.29296875
vt 0.0234375 0.34375
vt 0 0.34375
vt 0.3671875 0.29296875
vt 0.3671875 0.34375
vt 0.34375 0.34375
vt 0.34375 0.29296875
vt 0.0859375 0.33984375
vt 0.0859375 0.40625
vt 0.0625 0.40625
vt 0.0625 0.33984375
vt 0.6171875 0.9375
vt 0.59375 0.9375
vt 0.59375 0.87109375
vt 0.6171875 0.87109375
vt 0.203125 0.49609375
vt 0.203125 0.5625
vt 0.25390625 0.5625
vt 0.25390625 0.49609375
vt 0.28125 0.5625
vt 0.33203125 0.5625
vt 0.33203125 0.49609375
vt 0.28125 0.49609375
vt 0.0234375 0.34375
vt 0.0234375 0.29296875
vt 0 0.29296875
vt 0 0.34375
vt 0.34375 0.34375
vt 0.3671875 0.34375
vt 0.3671875 0.29296875
vt 0.34375 0.29296875
vt 0.0625 0.40625
vt 0.0859375 0.40625
vt 0.0859375 0.33984375
vt 0.0625 0.33984375
vt 0.59375 0.87109375
vt 0.59375 0.9375
vt 0.6171875 0.9375
vt 0.6171875 0.87109375
vt 0.31640625 0.265625
vt 0.31640625 0.3125
vt 0.296875 0.3125
vt 0.296875 0.265625
vt 0.11328125 0.25
vt 0.11328125 0.296875
vt 0.09375 0.296875
vt 0.09375 0.25
vt 0.359375 0.203125
vt 0.359375 0.18359375
vt 0.384765625 0.18359375
vt 0.384765625 0.203125
vt 0.796875 0.43359375
vt 0.796875 0.453125
vt 0.822265625 0.453125
vt 0.822265625 0.43359375
vt 0.416015625 0.296875
vt 0.416015625 0.34375
vt 0.390625 0.34375
vt 0.390625 0.296875
vt 0.509765625 0.859375
vt 0.509765625 0.90625
vt 0.484375 0.90625
vt 0.484375 0.859375
vt 0.20703125 0.111328125
vt 0.20703125 0.15625
vt 0.203125 0.15625
vt 0.203125 0.111328125
vt 0.36328125 0.111328125
vt 0.36328125 0.15625
vt 0.359375 0.15625
vt 0.359375 0.111328125
vt 0.296875 0.125
vt 0.296875 0.12109375
vt 0.30078125 0.12109375
vt 0.30078125 0.125
vt 0.328125 0.12109375
vt 0.328125 0.125
vt 0.33203125 0.125
vt 0.33203125 0.12109375
vt 0.23828125 0.111328125
vt 0.23828125 0.15625
vt 0.234375 0.15625
vt 0.234375 0.111328125
vt 0.17578125 0.111328125
vt 0.17578125 0.15625
vt 0.171875 0.15625
vt 0.171875 0.111328125
vt 0.375 0.9375
vt 0.375 1
vt 0.46875 1
vt 0.46875 0.9375
vt 0.65625 0.1875
vt 0.65625 0.21875
vt 0.640625 0.21875
vt 0.640625 0.1875
vt 0.8125 0.375
vt 0.8125 0.40625
vt 0.796875 0.40625
vt 0.796875 0.375
vt 0.1875 0.1875
vt 0.1875 0.171875
vt 0.2109375 0.171875
vt 0.2109375 0.1875
vt 0.234375 0.171875
vt 0.234375 0.1875
vt 0.2578125 0.1875
vt 0.2578125 0.171875
vt 0.7734375 0.40625
vt 0.7734375 0.4375
vt 0.75 0.4375
vt 0.75 0.40625
vt 0.3203125 0.21875
vt 0.3203125 0.25
vt 0.296875 0.25
vt 0.296875 0.21875
vt 0.171875 0.21875
vt 0.15625 0.21875
vt 0.15625 0.1796875
vt 0.171875 0.1796875
vt 0.4375 0.1796875
vt 0.4375 0.21875
vt 0.421875 0.21875
vt 0.421875 0.1796875
vt 0.796875 0.34375
vt 0.82421875 0.34375
vt 0.82421875 0.359375
vt 0.796875 0.359375
vt 0.82421875 0.3125
vt 0.82421875 0.328125
vt 0.796875 0.328125
vt 0.796875 0.3125
vt 0.46484375 0.2890625
vt 0.46484375 0.328125
vt 0.4375 0.328125
vt 0.4375 0.2890625
vt 0.63671875 0.328125
vt 0.609375 0.328125
vt 0.609375 0.2890625
vt 0.63671875 0.2890625
vt 0.46875 0.21875
vt 0.453125 0.21875
vt 0.453125 0.1796875
vt 0.46875 0.1796875
vt 0.5 0.1796875
vt 0.5 0.21875
vt 0.484375 0.21875
vt 0.484375 0.1796875
vt 0.796875 0.28125
vt 0.82421875 0.28125
vt 0.82421875 0.296875
vt 0.796875 0.296875
vt 0.82421875 0.25
vt 0.82421875 0.265625
vt 0.796875 0.265625
vt 0.796875 0.25
vt 0.68359375 0.2890625
vt 0.68359375 0.328125
vt 0.65625 0.328125
vt 0.65625 0.2890625
vt 0.07421875 0.3125
vt 0.046875 0.3125
vt 0.046875 0.2734375
vt 0.07421875 0.2734375
vt 0.171875 0.21875
vt 0.15625 0.21875
vt 0.15625 0.1796875
vt 0.171875 0.1796875
vt 0.4375 0.1796875
vt 0.4375 0.21875
vt 0.421875 0.21875
vt 0.421875 0.1796875
vt 0.796875 0.34375
vt 0.82421875 0.34375
vt 0.82421875 0.359375
vt 0.796875 0.359375
vt 0.82421875 0.3125
vt 0.82421875 0.328125
vt 0.796875 0.328125
vt 0.796875 0.3125
vt 0.46484375 0.2890625
vt 0.46484375 0.328125
vt 0.4375 0.328125
vt 0.4375 0.2890625
vt 0.63671875 0.328125
vt 0.609375 0.328125
vt 0.609375 0.2890625
vt 0.63671875 0.2890625
vt 0.46875 0.21875
vt 0.453125 0.21875
vt 0.453125 0.1796875
vt 0.46875 0.1796875
vt 0.5 0.1796875
vt 0.5 0.21875
vt 0.484375 0.21875
vt 0.484375 0.1796875
vt 0.796875 0.28125
vt 0.82421875 0.28125
vt 0.82421875 0.296875
vt 0.796875 0.296875
vt 0.82421875 0.25
vt 0.82421875 0.265625
vt 0.796875 0.265625
vt 0.796875 0.25
vt 0.68359375 0.2890625
vt 0.68359375 0.328125
vt 0.65625 0.328125
vt 0.65625 0.2890625
vt 0.07421875 0.3125
vt 0.046875 0.3125
vt 0.046875 0.2734375
vt 0.07421875 0.2734375
vn 0 -0.2079116908177594 0.9781476007338057
vn 0 -0.20791169081776015 0.9781476007338056
vn 0.9810602621904069 -0.17364817766693053 -0.08583165117743125
vn -0.9810602621904071 0.17364817766693036 0.08583165117743126
vn 0.17298739392509074 0.9848077530122079 -0.01513443590133898
vn -0.17298739392508863 -0.9848077530122082 0.015134435901338731
vn 0.08715574274765805 2.775557561562892e-17 0.9961946980917457
vn -0.08715574274765805 -2.775557561562892e-17 -0.9961946980917457
vn 0.9961946980917455 -2.0816681711721685e-17 -0.08715574274765817
vn -0.9961946980917455 -3.8163916471489756e-17 0.08715574274765817
vn -3.172065784643307e-17 1 -1.9428902930940244e-16
vn -1.744636181553819e-16 -1 1.9428902930940244e-16
vn 0.08715574274765875 1.942890293094025e-16 0.9961946980917457
vn -0.08715574274765873 -2.220446049250314e-16 -0.9961946980917457
vn 1 0 0
vn -1 0 0
vn 0 0.9998476951563913 0.017452406437285854
vn 0 -0.9998476951563914 -0.01745240643728394
vn 0 -0.017452406437283578 0.9998476951563914
vn 0 0.017452406437283494 -0.9998476951563914
vn 1 0 0
vn -1 0 0
vn 0 0.9998476951563914 0.01745240643728566
vn 0 -0.9998476951563913 -0.017452406437280465
vn 0 -0.017452406437283494 0.9998476951563914
vn 0 0.01745240643728366 -0.9998476951563913
vn 1 0 0
vn -1 0 0
vn 0 0.9998476951563914 0.017452406437281583
vn 0 -0.9998476951563912 -0.01745240643728682
vn 0 -0.017452406437283494 0.9998476951563913
vn 0 0.017452406437283522 -0.9998476951563914
vn 1 0 0
vn -1 0 0
vn 0 0.9986295347545736 0.0523359562429495
vn 0 -0.998629534754574 -0.05233595624294089
vn 0 -0.052335956242943786 0.998629534754574
vn 0 0.05233595624294401 -0.998629534754574
vn 1 0 0
vn -1 0 0
vn 0 0.9743700647852347 0.22495105434386756
vn 0 -0.9743700647852356 -0.22495105434386414
vn 0 -0.22495105434386498 0.9743700647852354
vn 0 0.22495105434386495 -0.9743700647852354
vn 1 0 0
vn -1 0 0
vn 0 0.9986295347545738 -0.05233595624294647
vn 0 -0.9986295347545739 0.05233595624294256
vn 0 0.052335956242943946 0.9986295347545739
vn 0 -0.052335956242943724 -0.9986295347545739
vn 0.9574817175661281 0.28012173603828155 0.06899690953598472
vn -0.9574817175661274 -0.28012173603828366 -0.06899690953598364
vn 0.0027991353978147207 0.23013071335684387 -0.9731557016279024
vn -0.0027991353978151327 -0.23013071335684376 0.9731557016279023
vn -0.2884803725864948 0.9319719243457765 0.21956185202258569
vn 0.28848037258649334 -0.9319719243457764 -0.21956185202258782
vn 0.957945516547769 0.27426843648496746 0.08436357077625074
vn -0.957945516547769 -0.27426843648496746 -0.08436357077625042
vn -0.13180308673105384 0.15940957603619163 0.9783744341488734
vn 0.1318030867310527 -0.15940957603619002 -0.9783744341488738
vn 0.2548888653005343 -0.9483487817338369 0.18885511518027115
vn -0.2548888653005353 0.9483487817338381 -0.1888551151802637
vn 0.9579455165477695 0.2742684364849664 0.08436357077624983
vn -0.9579455165477693 -0.2742684364849672 -0.08436357077624888
vn -0.13180308673105376 0.15940957603619005 0.9783744341488736
vn 0.13180308673105348 -0.15940957603619016 -0.9783744341488736
vn 0.2548888653005335 -0.9483487817338377 0.18885511518026868
vn -0.25488886530053484 0.9483487817338377 -0.18885511518026638
vn 0.9579455165477696 0.27426843648496607 0.0843635707762501
vn -0.9579455165477692 -0.27426843648496746 -0.08436357077625002
vn -0.1318030867310539 0.15940957603618955 0.9783744341488736
vn 0.1318030867310523 -0.15940957603618958 -0.9783744341488739
vn 0.2548888653005339 -0.9483487817338376 0.18885511518026837
vn -0.2548888653005354 0.9483487817338374 -0.18885511518026749
vn 0.9574817175661275 -0.28012173603828344 -0.06899690953598478
vn -0.9574817175661281 0.28012173603828183 0.06899690953598374
vn -0.0027991353978146947 0.23013071335684393 -0.9731557016279024
vn 0.002799135397815343 -0.23013071335684315 0.9731557016279027
vn 0.2884803725864948 0.9319719243457764 0.21956185202258585
vn -0.2884803725864933 -0.9319719243457757 -0.21956185202258993
vn 0.957945516547769 -0.27426843648496757 -0.08436357077625117
vn -0.9579455165477693 0.2742684364849671 0.08436357077624888
vn 0.13180308673105384 0.15940957603619157 0.9783744341488734
vn -0.13180308673105298 -0.159409576036191 -0.9783744341488736
vn -0.254888865300535 -0.9483487817338377 0.18885511518026632
vn 0.254888865300535 0.9483487817338379 -0.18885511518026646
vn 0.9579455165477689 -0.2742684364849675 -0.08436357077625029
vn -0.9579455165477695 0.274268436484966 0.08436357077625009
vn 0.13180308673105431 0.15940957603619105 0.9783744341488734
vn -0.1318030867310528 -0.1594095760361916 -0.9783744341488735
vn -0.25488886530053395 -0.9483487817338377 0.1888551151802674
vn 0.2548888653005352 0.9483487817338373 -0.18885511518026854
vn 0.957945516547769 -0.2742684364849674 -0.08436357077625042
vn -0.9579455165477695 0.2742684364849664 0.08436357077624983
vn 0.13180308673105426 0.15940957603619185 0.9783744341488733
vn -0.13180308673105334 -0.1594095760361897 -0.9783744341488738
vn -0.2548888653005331 -0.9483487817338373 0.1888551151802711
vn 0.25488886530053456 0.9483487817338374 -0.18885511518026873
vn 0.8703556959398999 -0.008593976110219713 0.4923485616101561
vn -0.8703556959398997 0.0085939761102197 -0.49234856161015644
vn 5.4157220713422334e-15 0.9998476951563914 0.017452406437285132
vn 2.6627300184099295e-15 -0.9998476951563913 -0.01745240643728158
vn -0.4924235601034677 -0.015189801350547791 0.8702231365517453
vn 0.49242356010346594 0.015189801350547903 -0.8702231365517464
vn 0.8703556959398997 0.008593976110219797 -0.49234856161015644
vn -0.8703556959398999 -0.008593976110219741 0.4923485616101562
vn -4.558232743379716e-15 0.9998476951563912 0.017452406437286464
vn -3.068909173760597e-15 -0.9998476951563914 -0.01745240643728233
vn 0.4924235601034679 -0.015189801350547708 0.8702231365517452
vn -0.4924235601034657 0.015189801350547708 -0.8702231365517464
vn 1 0 0
vn -1 0 0
vn 0 0.9998476951563915 0.017452406437271393
vn 0 -0.9998476951563915 -0.0174524064372697
vn 0 -0.01745240643728394 0.9998476951563913
vn 0 0.017452406437283054 -0.9998476951563914
vn 1 0 0
vn -1 0 0
vn 0 0.9743700647852347 0.22495105434386745
vn 0 -0.9743700647852346 -0.22495105434386775
vn 0 -0.2249510543438659 0.9743700647852352
vn 0 0.22495105434386414 -0.9743700647852356
vn 1 0 0
vn -1 0 0
vn 0 0.9743700647852347 0.22495105434386758
vn 0 -0.9743700647852347 -0.22495105434386745
vn 0 -0.22495105434386503 0.9743700647852352
vn 0 0.2249510543438659 -0.974370064785235
vn 1 0 0
vn -1 0 0
vn 0 0.9998476951563909 0.01745240643730456
vn 0 -0.9998476951563915 -0.0174524064372697
vn 0 -0.017452406437283054 0.9998476951563914
vn 0 0.017452406437283744 -0.9998476951563913
vn 1 0 0
vn -1 0 0
vn 0 0.9998476951563916 0.017452406437271393
vn 0 -0.9998476951563916 -0.0174524064372697
vn 0 -0.017452406437283716 0.9998476951563913
vn 0 0.017452406437283467 -0.9998476951563913
vn 1 0 0
vn -1 0 0
vn 0 0.9998476951563914 0.017452406437283022
vn 0 -0.9998476951563912 -0.017452406437294656
vn 0 -0.017452406437283578 0.9998476951563914
vn 0 0.017452406437283022 -0.9998476951563914
vn 1 0 0
vn -1 0 0
vn 0 0.9998476951563914 0.017452406437283022
vn 0 -0.9998476951563912 -0.017452406437294656
vn 0 -0.017452406437283578 0.9998476951563914
vn 0 0.017452406437283022 -0.9998476951563914
vn 1 0 0
vn -1 0 0
vn 0 0.9998476951563922 0.017452406437236532
vn 0 -0.9998476951563916 -0.017452406437271393
vn 0 -0.01745240643728483 0.9998476951563914
vn 0 0.017452406437284133 -0.9998476951563913
vn 1 0 0
vn -1 0 0
vn 0 0.9986295347545749 -0.05233595624292388
vn 0 -0.9986295347545734 0.052335956242955825
vn 0 0.05233595624294439 0.9986295347545739
vn 0 -0.05233595624294256 -0.9986295347545739
vn 1 0 0
vn -1 0 0
vn 0 0.9986295347545733 -0.05233595624295816
vn 0 -0.9986295347545749 0.05233595624292388
vn 0 0.05233595624294428 0.9986295347545739
vn 0 -0.052335956242945195 -0.9986295347545738
vn -0.10671392272313551 0.22309868182161813 -0.9689371067651901
vn -0.028078952618868454 0.1550118109583774 0.9875134990891172
vn 0.10671392272313551 0.22309868182161813 -0.9689371067651901
vn 0.02807895261886846 0.1550118109583774 0.9875134990891172
vn -0.9914448613738106 -0.0022779961573348583 0.13050631244875857
vn 0.9914448613738106 -0.002277996157334872 0.1305063124487586
vn 0.5519369853120586 -1.942890293094024e-16 -0.8338858220671679
vn -0.5519369853120585 0 0.8338858220671681
vn -6.661338147750935e-17 1 4.163336342344338e-16
vn 2.2204460492503128e-16 -1 -3.053113317719181e-16
vn 0.8338858220671681 -1.1102230246251565e-16 0.5519369853120584
vn -0.8338858220671683 -2.7755575615628914e-17 -0.5519369853120579
vn 0.998134798421867 6.938893903907228e-18 -0.06104853953485694
vn -0.9981347984218669 6.938893903907227e-18 0.061048539534856706
vn 1.2878587085651823e-15 1 -4.718447854656916e-16
vn 8.881784197001258e-17 -1 4.163336342344338e-16
vn 0.06104853953485661 -1.110223024625157e-16 0.9981347984218671
vn -0.061048539534857234 3.053113317719182e-16 -0.998134798421867
vn 0.9999619230641714 3.252606517456514e-18 0.008726535498374018
vn -0.9999619230641714 -2.1684043449710093e-18 -0.008726535498373877
vn -1.4802973661668743e-16 1 8.604228440844965e-16
vn 7.401486830834378e-17 -1 -7.771561172376098e-16
vn -0.008726535498373928 1.1102230246251568e-16 0.9999619230641714
vn 0.008726535498373395 1.1102230246251568e-16 -0.9999619230641714
vn 0.9723699203976769 7.632783294297952e-17 0.23344536385590506
vn -0.9723699203976766 -2.0816681711721685e-17 -0.23344536385590547
vn 1.776356839400251e-16 1 8.049116928532387e-16
vn 2.0301221021717165e-16 -1 5.273559366969495e-16
vn -0.23344536385590559 -5.551115123125784e-17 0.9723699203976767
vn 0.23344536385590525 -3.053113317719181e-16 -0.9723699203976768
vn 0.9935718556765876 -5.204170427930421e-17 -0.11320321376790606
vn -0.9935718556765876 3.122502256758253e-17 0.11320321376790661
vn -9.394194823751343e-17 1 4.440892098500626e-16
vn 9.109522253334635e-17 -1 5.551115123125783e-17
vn 0.11320321376790712 3.885780586188049e-16 0.9935718556765875
vn -0.11320321376790678 -3.3306690738754706e-16 -0.9935718556765876
vn -0.9816271834476641 0 -0.1908089953765451
vn 0.9816271834476641 0 0.1908089953765448
vn -8.198570028001153e-16 1 -4.718447854656916e-16
vn -2.732856676000386e-16 -1 -2.2204460492503136e-16
vn -0.19080899537654486 0 0.9816271834476641
vn 0.190808995376545 -2.775557561562892e-16 -0.981627183447664
vn 0.4226182617406998 -1.9428902930940244e-16 -0.9063077870366499
vn -0.4226182617406991 -5.551115123125784e-17 0.9063077870366502
vn -1.2009624064454805e-16 1 -2.775557561562892e-17
vn 3.7363274867192744e-16 -1 8.326672684688674e-17
vn 0.90630778703665 -1.5265566588595902e-16 0.42261826174069916
vn -0.90630778703665 2.7755575615628914e-17 -0.4226182617406993
vn 0.42327943023396775 -0.02947927625734062 -0.9055194620835882
vn -0.4232794302339692 0.029479276257339822 0.9055194620835878
vn -0.04483878472771532 0.9975641034150898 -0.053435409250699714
vn 0.04483878472771463 -0.9975641034150898 0.053435409250701275
vn 0.9048889475095532 0.06322050180908535 0.420926550393368
vn -0.9048889475095545 -0.06322050180908514 -0.42092655039336546
vn 0.005750701075488917 0.1372226808691499 -0.9905235309129329
vn 0.9540061979417739 -0.05822119947742604 0.29407901356623684
vn -0.9540061979417739 0.058221199477426135 -0.2940790135662368
vn -0.009812434339591494 0.9743702905935581 0.22473596272282886
vn 0.009812434339586978 -0.9743702905935577 -0.22473596272283022
vn -0.29962625122143816 -0.21728513234925848 0.9289840046195376
vn 0.2996262512214381 0.21728513234925892 -0.9289840046195376
vn 0.9848077530122081 -0.17364817766693033 6.938893903907228e-17
vn -0.9848077530122081 0.17364817766693047 -1.387778780781446e-17
vn 0.1736481776669315 0.9848077530122079 -3.6082248300317597e-16
vn -0.17364817766693139 -0.984807753012208 2.2204460492503136e-16
vn 0 -4.718447854656916e-16 1
vn 1.0594699720708644e-15 6.38378239159465e-16 -1
vn 1 0 0
vn -1 0 0
vn 0 1 -2.2204460492503136e-16
vn 0 -1 2.2204460492503136e-16
vn 0 2.2204460492503136e-16 1
vn 0 -2.2204460492503136e-16 -1
vn 0.9512512425641976 -0.1736481776669303 0.25488700224417976
vn -0.9512512425641979 0.17364817766693014 -0.2548870022441785
vn 0.16773125949652268 0.9848077530122078 0.04494345552754748
vn -0.16773125949651937 -0.9848077530122084 -0.04494345552754859
vn -0.2588190451025205 8.326672684688677e-17 0.9659258262890684
vn 0.25881904510252146 1.387778780781446e-16 -0.9659258262890681
vn 0.9659258262890683 -2.0816681711721685e-17 0.2588190451025205
vn -0.9659258262890683 2.7755575615628914e-17 -0.2588190451025209
vn -9.912705577010322e-17 1 -8.049116928532387e-16
vn 1.0309213800090735e-16 -1 8.049116928532387e-16
vn -0.2588190451025209 -8.326672684688677e-17 0.9659258262890683
vn 0.25881904510252074 1.1102230246251568e-16 -0.9659258262890683
usemtl m_54d5ebe3-5c6e-fe7c-953c-83e8ac9c800c
f 1/1/1 2/2/1 4/3/1 3/4/1
f 5/5/2 6/6/2 8/7/2 7/8/2
f 10/9/3 9/10/3 11/11/3 12/12/3
f 15/13/4 13/14/4 14/15/4 16/16/4
f 13/17/5 9/18/5 10/19/5 14/20/5
f 12/21/6 11/22/6 15/23/6 16/24/6
f 11/25/7 9/26/7 13/27/7 15/28/7
f 14/29/8 10/30/8 12/31/8 16/32/8
f 18/33/9 17/34/9 19/35/9 20/36/9
f 23/37/10 21/38/10 22/39/10 24/40/10
f 21/41/11 17/42/11 18/43/11 22/44/11
f 20/45/12 19/46/12 23/47/12 24/48/12
f 19/49/13 17/50/13 21/51/13 23/52/13
f 22/53/14 18/54/14 20/55/14 24/56/14
f 28/57/15 26/58/15 25/59/15 27/60/15
f 31/61/16 29/62/16 30/63/16 32/64/16
f 25/65/17 26/66/17 30/67/17 29/68/17
f 28/69/18 27/70/18 31/71/18 32/72/18
f 27/73/19 25/74/19 29/75/19 31/76/19
f 32/77/20 30/78/20 26/79/20 28/80/20
f 36/81/21 34/82/21 33/83/21 35/84/21
f 39/85/22 37/86/22 38/87/22 40/88/22
f 33/89/23 34/90/23 38/91/23 37/92/23
f 36/93/24 35/94/24 39/95/24 40/96/24
f 35/97/25 33/98/25 37/99/25 39/100/25
f 40/101/26 38/102/26 34/103/26 36/104/26
f 44/105/27 42/106/27 41/107/27 43/108/27
f 47/109/28 45/110/28 46/111/28 48/112/28
f 41/113/29 42/114/29 46/115/29 45/116/29
f 44/117/30 43/118/30 47/119/30 48/120/30
f 43/121/31 41/122/31 45/123/31 47/124/31
f 48/125/32 46/126/32 42/127/32 44/128/32
f 52/129/33 50/130/33 49/131/33 51/132/33
f 55/133/34 53/134/34 54/135/34 56/136/34
f 49/137/35 50/138/35 54/139/35 53/140/35
f 52/141/36 51/142/36 55/143/36 56/144/36
f 51/145/37 49/146/37 53/147/37 55/148/37
f 56/149/38 54/150/38 50/151/38 52/152/38
f 60/153/39 58/154/39 57/155/39 59/156/39
f 63/157/40 61/158/40 62/159/40 64/160/40
f 57/161/41 58/162/41 62/163/41 61/164/41
f 60/165/42 59/166/42 63/167/42 64/168/42
f 59/169/43 57/170/43 61/171/43 63/172/43
f 64/173/44 62/174/44 58/175/44 60/176/44
f 68/177/45 66/178/45 65/179/45 67/180/45
f 71/181/46 69/182/46 70/183/46 72/184/46
f 65/185/47 66/186/47 70/187/47 69/188/47
f 68/189/48 67/190/48 71/191/48 72/192/48
f 67/193/49 65/194/49 69/195/49 71/196/49
f 72/197/50 70/198/50 66/199/50 68/200/50
f 76/201/51 74/202/51 73/203/51 75/204/51
f 79/205/52 77/206/52 78/207/52 80/208/52
f 73/209/53 74/210/53 78/211/53 77/212/53
f 76/213/54 75/214/54 79/215/54 80/216/54
f 75/217/55 73/218/55 77/219/55 79/220/55
f 80/221/56 78/222/56 74/223/56 76/224/56
f 84/225/57 82/226/57 81/227/57 83/228/57
f 87/229/58 85/230/58 86/231/58 88/232/58
f 81/233/59 82/234/59 86/235/59 85/236/59
f 84/237/60 83/238/60 87/239/60 88/240/60
f 83/241/61 81/242/61 85/243/61 87/244/61
f 88/245/62 86/246/62 82/247/62 84/248/62
f 92/249/63 90/250/63 89/251/63 91/252/63
f 95/253/64 93/254/64 94/255/64 96/256/64
f 89/257/65 90/258/65 94/259/65 93/260/65
f 92/261/66 91/262/66 95/263/66 96/264/66
f 91/265/67 89/266/67 93/267/67 95/268/67
f 96/269/68 94/270/68 90/271/68 92/272/68
f 100/273/69 98/274/69 97/275/69 99/276/69
f 103/277/70 101/278/70 102/279/70 104/280/70
f 97/281/71 98/282/71 102/283/71 101/284/71
f 100/285/72 99/286/72 103/287/72 104/288/72
f 99/289/73 97/290/73 101/291/73 103/292/73
f 104/293/74 102/294/74 98/295/74 100/296/74
f 108/297/75 106/298/75 105/299/75 107/300/75
f 111/301/76 109/302/76 110/303/76 112/304/76
f 105/305/77 106/306/77 110/307/77 109/308/77
f 108/309/78 107/310/78 111/311/78 112/312/78
f 107/313/79 105/314/79 109/315/79 111/316/79
f 112/317/80 110/318/80 106/319/80 108/320/80
f 116/321/81 114/322/81 113/323/81 115/324/81
f 119/325/82 117/326/82 118/327/82 120/328/82
f 113/329/83 114/330/83 118/331/83 117/332/83
f 116/333/84 115/334/84 119/335/84 120/336/84
f 115/337/85 113/338/85 117/339/85 119/340/85
f 120/341/86 118/342/86 114/343/86 116/344/86
f 124/345/87 122/346/87 121/347/87 123/348/87
f 127/349/88 125/350/88 126/351/88 128/352/88
f 121/353/89 122/354/89 126/355/89 125/356/89
f 124/357/90 123/358/90 127/359/90 128/360/90
f 123/361/91 121/362/91 125/363/91 127/364/91
f 128/365/92 126/366/92 122/367/92 124/368/92
f 132/369/93 130/370/93 129/371/93 131/372/93
f 135/373/94 133/374/94 134/375/94 136/376/94
f 129/377/95 130/378/95 134/379/95 133/380/95
f 132/381/96 131/382/96 135/383/96 136/384/96
f 131/385/97 129/386/97 133/387/97 135/388/97
f 136/389/98 134/390/98 130/391/98 132/392/98
f 140/393/99 138/394/99 137/395/99 139/396/99
f 143/397/100 141/398/100 142/399/100 144/400/100
f 137/401/101 138/402/101 142/403/101 141/404/101
f 140/405/102 139/406/102 143/407/102 144/408/102
f 139/409/103 137/410/103 141/411/103 143/412/103
f 144/413/104 142/414/104 138/415/104 140/416/104
f 148/417/105 146/418/105 145/419/105 147/420/105
f 151/421/106 149/422/106 150/423/106 152/424/106
f 145/425/107 146/426/107 150/427/107 149/428/107
f 148/429/108 147/430/108 151/431/108 152/432/108
f 147/433/109 145/434/109 149/435/109 151/436/109
f 152/437/110 150/438/110 146/439/110 148/440/110
f 156/441/111 154/442/111 153/443/111 155/444/111
f 159/445/112 157/446/112 158/447/112 160/448/112
f 153/449/113 154/450/113 158/451/113 157/452/113
f 156/453/114 155/454/114 159/455/114 160/456/114
f 155/457/115 153/458/115 157/459/115 159/460/115
f 160/461/116 158/462/116 154/463/116 156/464/116
f 164/465/117 162/466/117 161/467/117 163/468/117
f 167/469/118 165/470/118 166/471/118 168/472/118
f 161/473/119 162/474/119 166/475/119 165/476/119
f 164/477/120 163/478/120 167/479/120 168/480/120
f 163/481/121 161/482/121 165/483/121 167/484/121
f 168/485/122 166/486/122 162/487/122 164/488/122
f 172/489/123 170/490/123 169/491/123 171/492/123
f 175/493/124 173/494/124 174/495/124 176/496/124
f 169/497/125 170/498/125 174/499/125 173/500/125
f 172/501/126 171/502/126 175/503/126 176/504/126
f 171/505/127 169/506/127 173/507/127 175/508/127
f 176/509/128 174/510/128 170/511/128 172/512/128
f 180/513/129 178/514/129 177/515/129 179/516/129
f 183/517/130 181/518/130 182/519/130 184/520/130
f 177/521/131 178/522/131 182/523/131 181/524/131
f 180/525/132 179/526/132 183/527/132 184/528/132
f 179/529/133 177/530/133 181/531/133 183/532/133
f 184/533/134 182/534/134 178/535/134 180/536/134
f 188/537/135 186/538/135 185/539/135 187/540/135
f 191/541/136 189/542/136 190/543/136 192/544/136
f 185/545/137 186/546/137 190/547/137 189/548/137
f 188/549/138 187/550/138 191/551/138 192/552/138
f 187/553/139 185/554/139 189/555/139 191/556/139
f 192/557/140 190/558/140 186/559/140 188/560/140
f 196/561/141 194/562/141 193/563/141 195/564/141
f 199/565/142 197/566/142 198/567/142 200/568/142
f 193/569/143 194/570/143 198/571/143 197/572/143
f 196/573/144 195/574/144 199/575/144 200/576/144
f 195/577/145 193/578/145 197/579/145 199/580/145
f 200/581/146 198/582/146 194/583/146 196/584/146
f 204/585/147 202/586/147 201/587/147 203/588/147
f 207/589/148 205/590/148 206/591/148 208/592/148
f 201/593/149 202/594/149 206/595/149 205/596/149
f 204/597/150 203/598/150 207/599/150 208/600/150
f 203/601/151 201/602/151 205/603/151 207/604/151
f 208/605/152 206/606/152 202/607/152 204/608/152
f 212/609/153 210/610/153 209/611/153 211/612/153
f 215/613/154 213/614/154 214/615/154 216/616/154
f 209/617/155 210/618/155 214/619/155 213/620/155
f 212/621/156 211/622/156 215/623/156 216/624/156
f 211/625/157 209/626/157 213/627/157 215/628/157
f 216/629/158 214/630/158 210/631/158 212/632/158
f 220/633/159 218/634/159 217/635/159 219/636/159
f 223/637/160 221/638/160 222/639/160 224/640/160
f 217/641/161 218/642/161 222/643/161 221/644/161
f 220/645/162 219/646/162 223/647/162 224/648/162
f 219/649/163 217/650/163 221/651/163 223/652/163
f 224/653/164 222/654/164 218/655/164 220/656/164
f 228/657/165 226/658/165 225/659/165 227/660/165
f 231/661/166 229/662/166 230/663/166 232/664/166
f 225/665/167 226/666/167 230/667/167 229/668/167
f 228/669/168 227/670/168 231/671/168 232/672/168
f 227/673/169 225/674/169 229/675/169 231/676/169
f 232/677/170 230/678/170 226/679/170 228/680/170
f 233/681/171 234/682/171 236/683/171 235/684/171
f 237/685/172 238/686/172 240/687/172 239/688/172
f 244/689/173 242/690/173 241/691/173 243/692/173
f 248/693/174 246/694/174 245/695/174 247/696/174
f 249/697/175 250/698/175 252/699/175 251/700/175
f 256/701/176 254/702/176 253/703/176 255/704/176
f 260/705/177 258/706/177 257/707/177 259/708/177
f 263/709/178 261/710/178 262/711/178 264/712/178
f 257/713/179 258/714/179 262/715/179 261/716/179
f 260/717/180 259/718/180 263/719/180 264/720/180
f 259/721/181 257/722/181 261/723/181 263/724/181
f 264/725/182 262/726/182 258/727/182 260/728/182
f 268/729/183 266/730/183 265/731/183 267/732/183
f 271/733/184 269/734/184 270/735/184 272/736/184
f 265/737/185 266/738/185 270/739/185 269/740/185
f 268/741/186 267/742/186 271/743/186 272/744/186
f 267/745/187 265/746/187 269/747/187 271/748/187
f 272/749/188 270/750/188 266/751/188 268/752/188
f 276/753/189 274/754/189 273/755/189 275/756/189
f 279/757/190 277/758/190 278/759/190 280/760/190
f 273/761/191 274/762/191 278/763/191 277/764/191
f 276/765/192 275/766/192 279/767/192 280/768/192
f 275/769/193 273/770/193 277/771/193 279/772/193
f 280/773/194 278/774/194 274/775/194 276/776/194
f 284/777/195 282/778/195 281/779/195 283/780/195
f 287/781/196 285/782/196 286/783/196 288/784/196
f 281/785/197 282/786/197 286/787/197 285/788/197
f 284/789/198 283/790/198 287/791/198 288/792/198
f 283/793/199 281/794/199 285/795/199 287/796/199
f 288/797/200 286/798/200 282/799/200 284/800/200
f 290/801/201 289/802/201 291/803/201 292/804/201
f 295/805/202 293/806/202 294/807/202 296/808/202
f 293/809/203 289/810/203 290/811/203 294/812/203
f 292/813/204 291/814/204 295/815/204 296/816/204
f 291/817/205 289/818/205 293/819/205 295/820/205
f 294/821/206 290/822/206 292/823/206 296/824/206
f 299/825/207 297/826/207 298/827/207 300/828/207
f 302/829/208 301/830/208 303/831/208 304/832/208
f 298/833/209 297/834/209 301/835/209 302/836/209
f 303/837/210 299/838/210 300/839/210 304/840/210
f 301/841/211 297/842/211 299/843/211 303/844/211
f 300/845/212 298/846/212 302/847/212 304/848/212
f 308/849/213 306/850/213 305/851/213 307/852/213
f 311/853/214 309/854/214 310/855/214 312/856/214
f 305/857/215 306/858/215 310/859/215 309/860/215
f 308/861/216 307/862/216 311/863/216 312/864/216
f 307/865/217 305/866/217 309/867/217 311/868/217
f 312/869/218 310/870/218 306/871/218 308/872/218
f 316/873/219 314/874/219 313/875/219 315/876/219
f 319/877/220 317/878/220 318/879/220 320/880/220
f 313/881/221 314/882/221 318/883/221 317/884/221
f 316/885/222 315/886/222 319/887/222 320/888/222
f 315/889/223 313/890/223 317/891/223 319/892/223
f 320/893/224 318/894/224 314/895/224 316/896/224
f 321/897/225 322/898/225 324/899/225 323/900/225
f 328/901/226 326/902/226 325/903/226 327/904/226
f 331/905/227 329/906/227 330/907/227 332/908/227
f 325/909/228 326/910/228 330/911/228 329/912/228
f 328/913/229 327/914/229 331/915/229 332/916/229
f 327/917/230 325/918/230 329/919/230 331/920/230
f 332/921/231 330/922/231 326/923/231 328/924/231
f 334/925/232 333/926/232 335/927/232 336/928/232
f 339/929/233 337/930/233 338/931/233 340/932/233
f 337/933/234 333/934/234 334/935/234 338/936/234
f 336/937/235 335/938/235 339/939/235 340/940/235
f 335/941/236 333/942/236 337/943/236 339/944/236
f 338/945/237 334/946/237 336/947/237 340/948/237
f 342/949/238 341/950/238 343/951/238 344/952/238
f 347/953/239 345/954/239 346/955/239 348/956/239
f 345/957/240 341/958/240 342/959/240 346/960/240
f 344/961/241 343/962/241 347/963/241 348/964/241
f 343/965/242 341/966/242 345/967/242 347/968/242
f 346/969/243 342/970/243 344/971/243 348/972/243
f 350/973/244 349/974/244 351/975/244 352/976/244
f 355/977/245 353/978/245 354/979/245 356/980/245
f 353/981/246 349/982/246 350/983/246 354/984/246
f 352/985/247 351/986/247 355/987/247 356/988/247
f 351/989/248 349/990/248 353/991/248 355/992/248
f 354/993/249 350/994/249 352/995/249 356/996/249
f 358/997/250 357/998/250 359/999/250 360/1000/250
f 363/1001/251 361/1002/251 362/1003/251 364/1004/251
f 361/1005/252 357/1006/252 358/1007/252 362/1008/252
f 360/1009/253 359/1010/253 363/1011/253 364/1012/253
f 359/1013/254 357/1014/254 361/1015/254 363/1016/254
f 362/1017/255 358/1018/255 360/1019/255 364/1020/255
