# Blender 4.4.3
# www.blender.org
mtllib nato.mtl
o nato
v 0.099897 1.375840 -0.199720
v 0.099897 1.377087 -0.205844
v 0.099897 1.253350 -0.224641
v 0.099897 1.254596 -0.230765
v -0.087603 1.377087 -0.205844
v -0.087603 1.375840 -0.199720
v -0.087603 1.254596 -0.230765
v -0.087603 1.253350 -0.224641
v 0.250000 1.250000 -0.100000
v 0.250000 1.250000 -0.225000
v 0.250000 0.750000 -0.100000
v 0.250000 0.750000 -0.225000
v -0.250000 1.250000 -0.225000
v -0.250000 1.250000 -0.100000
v -0.250000 0.750000 -0.225000
v -0.250000 0.750000 -0.100000
v -0.186577 1.562018 -0.061586
v -0.185083 1.576234 -0.128834
v -0.061397 1.151319 -0.145624
v -0.059903 1.165534 -0.212871
v -0.322788 1.536602 -0.140271
v -0.324282 1.522386 -0.073024
v -0.197608 1.125903 -0.224309
v -0.199102 1.111687 -0.157061
v -0.194001 1.548971 0.073011
v -0.209932 1.608028 0.060175
v -0.169288 1.515885 -0.109885
v -0.185219 1.574941 -0.122721
v -0.347637 1.568396 0.048738
v -0.331706 1.509339 0.061574
v -0.322924 1.535310 -0.134158
v -0.306993 1.476253 -0.121322
v -0.210019 1.609075 0.057275
v -0.191989 1.550596 0.044571
v -0.210316 1.586431 0.161084
v -0.192286 1.527953 0.148380
v -0.329627 1.510161 0.035357
v -0.347657 1.568640 0.048061
v -0.329924 1.487518 0.139166
v -0.347954 1.545997 0.151870
v -0.210316 1.586431 0.161084
v -0.204878 1.582071 0.098974
v -0.126080 1.293324 0.189036
v -0.120642 1.288964 0.126926
v -0.342516 1.541637 0.089760
v -0.347954 1.545997 0.151870
v -0.258280 1.248529 0.117712
v -0.263718 1.252890 0.179822
v 0.265625 1.437500 0.200000
v 0.265625 1.437500 0.106250
v 0.265625 0.750000 0.200000
v 0.265625 0.750000 0.106250
v -0.265625 1.437500 0.106250
v -0.265625 1.437500 0.200000
v -0.265625 0.750000 0.106250
v -0.265625 0.750000 0.200000
v -0.172363 1.529739 -0.042326
v -0.189886 1.594702 -0.056445
v -0.161654 1.515402 -0.121580
v -0.179177 1.580364 -0.135700
v -0.339565 1.551624 -0.068877
v -0.322042 1.486661 -0.054758
v -0.328856 1.537287 -0.148132
v -0.311333 1.472324 -0.134012
v -0.188838 1.551797 0.079605
v -0.206362 1.616759 0.065485
v -0.178129 1.537459 0.000350
v -0.195653 1.602422 -0.013770
v -0.356041 1.573681 0.053053
v -0.338517 1.508719 0.067173
v -0.345332 1.559344 -0.026202
v -0.327808 1.494382 -0.012082
v -0.250000 1.062500 0.150000
v -0.250000 1.062500 -0.162500
v -0.250000 0.812500 0.150000
v -0.250000 0.812500 -0.162500
v -0.312500 1.062500 -0.162500
v -0.312500 1.062500 0.150000
v -0.312500 0.812500 -0.162500
v -0.312500 0.812500 0.150000
v 0.312500 1.062500 0.150000
v 0.312500 1.062500 -0.162500
v 0.312500 0.812500 0.150000
v 0.312500 0.812500 -0.162500
v 0.250000 1.062500 -0.162500
v 0.250000 1.062500 0.150000
v 0.250000 0.812500 -0.162500
v 0.250000 0.812500 0.150000
v 0.324282 1.522386 -0.073024
v 0.322788 1.536602 -0.140271
v 0.199102 1.111687 -0.157061
v 0.197608 1.125903 -0.224309
v 0.185083 1.576234 -0.128834
v 0.186577 1.562018 -0.061586
v 0.059903 1.165534 -0.212871
v 0.061397 1.151319 -0.145624
v 0.322042 1.486661 -0.054758
v 0.339565 1.551624 -0.068877
v 0.311333 1.472324 -0.134012
v 0.328856 1.537287 -0.148132
v 0.189886 1.594702 -0.056445
v 0.172363 1.529739 -0.042326
v 0.179177 1.580364 -0.135700
v 0.161654 1.515402 -0.121580
v 0.331706 1.509339 0.061574
v 0.347637 1.568396 0.048738
v 0.306993 1.476253 -0.121322
v 0.322924 1.535310 -0.134158
v 0.209932 1.608028 0.060175
v 0.194001 1.548971 0.073011
v 0.185219 1.574941 -0.122721
v 0.169288 1.515885 -0.109885
v 0.338517 1.508719 0.067173
v 0.356041 1.573681 0.053053
v 0.327808 1.494382 -0.012082
v 0.345332 1.559344 -0.026202
v 0.206362 1.616759 0.065485
v 0.188838 1.551797 0.079605
v 0.195653 1.602422 -0.013770
v 0.178129 1.537459 0.000350
v 0.347657 1.568640 0.048061
v 0.329627 1.510161 0.035357
v 0.347954 1.545997 0.151870
v 0.329924 1.487518 0.139166
v 0.191989 1.550596 0.044571
v 0.210019 1.609075 0.057275
v 0.192286 1.527953 0.148380
v 0.210316 1.586431 0.161084
v 0.347954 1.545997 0.151870
v 0.342516 1.541637 0.089760
v 0.263718 1.252890 0.179822
v 0.258280 1.248529 0.117712
v 0.204878 1.582071 0.098974
v 0.210316 1.586431 0.161084
v 0.120642 1.288964 0.126926
v 0.126080 1.293324 0.189036
v 0.250000 1.345681 -0.139981
v 0.250000 1.358676 -0.201116
v 0.250000 1.235640 -0.163371
v 0.250000 1.248634 -0.224506
v -0.250000 1.358676 -0.201116
v -0.250000 1.345681 -0.139981
v -0.250000 1.248634 -0.224506
v -0.250000 1.235640 -0.163371
v 0.156250 1.434326 -0.121139
v 0.156250 1.447320 -0.182274
v 0.156250 1.345681 -0.139981
v 0.156250 1.358676 -0.201116
v -0.156250 1.447320 -0.182274
v -0.156250 1.434326 -0.121139
v -0.156250 1.358676 -0.201116
v -0.156250 1.345681 -0.139981
v -0.156250 1.435625 -0.127253
v -0.156250 1.446021 -0.176160
v -0.092168 1.372944 -0.140576
v -0.092168 1.383340 -0.189483
v -0.249058 1.355241 -0.195456
v -0.249058 1.344846 -0.146549
v -0.184976 1.292560 -0.208779
v -0.184976 1.282165 -0.159872
v 0.249058 1.344846 -0.146549
v 0.249058 1.355241 -0.195456
v 0.184976 1.282165 -0.159872
v 0.184976 1.292560 -0.208779
v 0.156250 1.446021 -0.176160
v 0.156250 1.435625 -0.127253
v 0.092168 1.383340 -0.189483
v 0.092168 1.372944 -0.140576
v 0.234375 1.111157 -0.223971
v 0.234375 1.105053 -0.311258
v 0.234375 0.861766 -0.206532
v 0.234375 0.855662 -0.293819
v -0.234375 1.105053 -0.311258
v -0.234375 1.111157 -0.223971
v -0.234375 0.855662 -0.293819
v -0.234375 0.861766 -0.206532
v 0.218750 1.118750 -0.187500
v 0.218750 1.118750 -0.325000
v 0.218750 0.875000 -0.187500
v 0.218750 0.875000 -0.325000
v 0.031250 1.118750 -0.325000
v 0.031250 1.118750 -0.187500
v 0.031250 0.875000 -0.325000
v 0.031250 0.875000 -0.187500
v 0.171875 0.850218 -0.218746
v 0.171875 0.852399 -0.281208
v 0.171875 0.662832 -0.225290
v 0.171875 0.665014 -0.287752
v -0.171875 0.852399 -0.281208
v -0.171875 0.850218 -0.218746
v -0.171875 0.665014 -0.287752
v -0.171875 0.662832 -0.225290
v 0.109375 0.662832 -0.225290
v 0.109375 0.665014 -0.287752
v 0.109375 0.600370 -0.227471
v 0.109375 0.602552 -0.289933
v -0.109375 0.665014 -0.287752
v -0.109375 0.662832 -0.225290
v -0.109375 0.602552 -0.289933
v -0.109375 0.600370 -0.227471
v -0.065809 0.645165 -0.225907
v -0.065809 0.647129 -0.282123
v -0.110003 0.600998 -0.227449
v -0.110003 0.602961 -0.283665
v -0.127681 0.708963 -0.279963
v -0.127681 0.707000 -0.223748
v -0.171875 0.664795 -0.281506
v -0.171875 0.662832 -0.225290
v 0.127681 0.707000 -0.223748
v 0.127681 0.708963 -0.279963
v 0.171875 0.662832 -0.225290
v 0.171875 0.664795 -0.281506
v 0.065809 0.647129 -0.282123
v 0.065809 0.645165 -0.225907
v 0.110003 0.602961 -0.283665
v 0.110003 0.600998 -0.227449
v 0.109375 0.850218 -0.218746
v 0.109375 0.852617 -0.287454
v 0.109375 0.662832 -0.225290
v 0.109375 0.665232 -0.293998
v -0.109375 0.852617 -0.287454
v -0.109375 0.850218 -0.218746
v -0.109375 0.665232 -0.293998
v -0.109375 0.662832 -0.225290
vn -0.0000 0.1994 -0.9799
vn 1.0000 -0.0000 -0.0000
vn -0.0000 -0.1994 0.9799
vn -1.0000 -0.0000 -0.0000
vn -0.0000 0.9799 0.1995
vn -0.0000 0.9800 0.1992
vn -0.0000 -0.9799 -0.1994
vn -0.0000 -0.0000 -1.0000
vn -0.0000 -0.0000 1.0000
vn -0.0000 1.0000 -0.0000
vn -0.0000 -1.0000 -0.0000
vn 0.0217 0.2068 -0.9781
vn 0.9579 0.2757 0.0796
vn -0.0217 -0.2068 0.9781
vn -0.9579 -0.2757 -0.0796
vn -0.2861 0.9387 0.1921
vn 0.2861 -0.9387 -0.1921
vn -0.2549 0.9449 -0.2054
vn 0.2549 -0.9449 0.2054
vn -0.1318 0.1765 0.9754
vn 0.1318 -0.1765 -0.9754
vn 0.2885 -0.9357 -0.2033
vn 0.9575 0.2813 0.0641
vn -0.2885 0.9357 0.2033
vn -0.9575 -0.2813 -0.0641
vn 0.0028 0.2131 -0.9770
vn -0.0028 -0.2131 0.9770
vn 0.0870 -0.0698 -0.9938
vn -0.0870 0.0698 0.9938
vn -0.2751 0.9571 -0.0913
vn 0.2751 -0.9571 0.0913
vn -0.0217 0.2068 -0.9781
vn 0.9579 -0.2757 -0.0796
vn 0.0217 -0.2068 0.9781
vn -0.9579 0.2757 0.0796
vn 0.2861 0.9387 0.1921
vn -0.2861 -0.9387 -0.1921
vn 0.2549 0.9449 -0.2054
vn -0.2549 -0.9449 0.2054
vn 0.1318 0.1765 0.9754
vn -0.1318 -0.1765 -0.9754
vn -0.2885 -0.9357 -0.2033
vn 0.9575 -0.2813 -0.0641
vn 0.2885 0.9357 0.2033
vn -0.9575 0.2813 0.0641
vn -0.0028 0.2131 -0.9770
vn 0.0028 -0.2131 0.9770
vn -0.0870 -0.0698 -0.9938
vn 0.0870 0.0698 0.9938
vn 0.2751 0.9571 -0.0913
vn -0.2751 -0.9571 0.0913
vn -0.0000 0.2079 -0.9781
vn -0.0000 -0.2079 0.9781
vn -0.0000 0.9781 0.2079
vn -0.0000 -0.9782 -0.2079
vn -0.0000 -0.9781 -0.2079
vn -0.0000 0.9782 0.2079
vn 0.7071 0.6917 0.1470
vn -0.7071 -0.6917 -0.1470
vn -0.7071 0.6917 0.1470
vn 0.7071 -0.6917 -0.1470
vn -0.0000 -0.0698 -0.9976
vn -0.0000 0.0698 0.9976
vn -0.0000 0.9976 -0.0698
vn -0.0000 -0.9976 0.0698
vn -0.0000 0.0349 -0.9994
vn -0.0000 -0.0349 0.9994
vn -0.0000 0.9994 0.0349
vn -0.0000 -0.9994 -0.0349
vn 0.7071 -0.7067 -0.0247
vn -0.7071 0.7067 0.0247
vn 0.7071 0.7067 0.0247
vn -0.7071 -0.7067 -0.0247
vt 0.531250 0.562500
vt 0.484375 0.593750
vt 0.484375 0.562500
vt 0.531250 0.375000
vt 0.533203 0.406250
vt 0.531250 0.406250
vt 0.531250 0.531250
vt 0.484375 0.531250
vt 0.548828 0.375000
vt 0.546875 0.406250
vt 0.546875 0.375000
vt 0.437500 0.406250
vt 0.484375 0.404297
vt 0.484375 0.406250
vt 0.531250 0.404297
vt 0.125000 0.703125
vt 0.000000 0.828125
vt 0.000000 0.703125
vt 0.390625 0.875000
vt 0.359375 1.000000
vt 0.359375 0.875000
vt 0.250000 0.703125
vt 0.125000 0.828125
vt 0.078125 0.515625
vt 0.046875 0.640625
vt 0.046875 0.515625
vt 0.359375 0.703125
vt 0.484375 0.671875
vt 0.484375 0.703125
vt 0.359375 0.640625
vt 0.484375 0.640625
vt 0.348633 0.593750
vt 0.312500 0.703125
vt 0.312500 0.593750
vt 0.236328 0.437500
vt 0.218750 0.546875
vt 0.218750 0.437500
vt 0.254883 0.656250
vt 0.218750 0.656250
vt 0.267578 0.437500
vt 0.250000 0.546875
vt 0.250000 0.437500
vt 0.000000 0.421875
vt 0.036133 0.404297
vt 0.036133 0.421875
vt 0.578125 0.982422
vt 0.614258 1.000000
vt 0.614258 0.982422
vt 0.000000 0.484375
vt 0.036133 0.531250
vt 0.000000 0.531250
vt 0.156250 0.531250
vt 0.140625 0.578125
vt 0.140625 0.531250
vt 0.192383 0.484375
vt 0.156250 0.484375
vt 0.453125 0.453125
vt 0.437500 0.453125
vt 0.531250 0.968750
vt 0.567383 0.953125
vt 0.567383 0.968750
vt 0.598633 0.781250
vt 0.562500 0.796875
vt 0.598633 0.796875
vt 0.551758 0.879883
vt 0.515625 0.906250
vt 0.515625 0.879883
vt 0.437500 0.411133
vt 0.421875 0.437500
vt 0.421875 0.411133
vt 0.176758 0.458008
vt 0.140625 0.484375
vt 0.140625 0.458008
vt 0.203125 0.395508
vt 0.187500 0.421875
vt 0.187500 0.395508
vt 0.562500 0.718750
vt 0.598633 0.703125
vt 0.598633 0.718750
vt 0.578125 0.921875
vt 0.614258 0.937500
vt 0.614258 0.921875
vt 0.426758 0.923828
vt 0.390625 1.000000
vt 0.390625 0.923828
vt 0.359375 0.423828
vt 0.375000 0.500000
vt 0.359375 0.500000
vt 0.395508 0.533203
vt 0.359375 0.609375
vt 0.359375 0.533203
vt 0.375000 0.423828
vt 0.390625 0.500000
vt 0.614258 0.906250
vt 0.093750 0.406250
vt 0.129883 0.421875
vt 0.129883 0.406250
vt 0.132812 0.828125
vt 0.000000 1.000000
vt 0.179688 0.531250
vt 0.156250 0.703125
vt 0.273438 0.828125
vt 0.140625 1.000000
vt 0.140625 0.828125
vt 0.210938 0.531250
vt 0.187500 0.703125
vt 0.187500 0.531250
vt 0.375000 0.843750
vt 0.507812 0.820312
vt 0.507812 0.843750
vt 0.375000 0.789062
vt 0.507812 0.812500
vt 0.507812 0.789062
vt 0.570312 0.979492
vt 0.531250 1.000000
vt 0.531250 0.979492
vt 0.375000 0.401367
vt 0.392578 0.421875
vt 0.375000 0.421875
vt 0.531250 0.682617
vt 0.570312 0.703125
vt 0.531250 0.703125
vt 0.578125 0.604492
vt 0.595703 0.625000
vt 0.578125 0.625000
vt 0.546875 0.750000
vt 0.585938 0.732422
vt 0.585938 0.750000
vt 0.601562 0.888672
vt 0.562500 0.906250
vt 0.601562 0.906250
vt 0.351562 0.448242
vt 0.312500 0.468750
vt 0.312500 0.448242
vt 0.578125 0.573242
vt 0.595703 0.593750
vt 0.578125 0.593750
vt 0.570312 0.651367
vt 0.531250 0.671875
vt 0.531250 0.651367
vt 0.595703 0.541992
vt 0.578125 0.562500
vt 0.578125 0.541992
vt 0.273438 0.437500
vt 0.234375 0.419922
vt 0.273438 0.419922
vt 0.281250 0.419922
vt 0.320312 0.437500
vt 0.320312 0.419922
vt 0.437500 0.437500
vt 0.421875 0.500000
vt 0.359375 0.937500
vt 0.281250 1.000000
vt 0.281250 0.937500
vt 0.515625 0.453125
vt 0.500000 0.515625
vt 0.500000 0.453125
vt 0.281250 0.875000
vt 0.203125 0.531250
vt 0.218750 0.453125
vt 0.218750 0.531250
vt 0.453125 0.531250
vt 0.015625 0.421875
vt 0.078125 0.640625
vt 0.000000 0.640625
vt 0.031250 0.421875
vt 0.015625 0.484375
vt 0.156250 0.640625
vt 0.078125 0.703125
vt 0.484375 0.515625
vt 0.500000 0.437500
vt 0.500000 0.859375
vt 0.515625 0.937500
vt 0.515625 0.859375
vt 0.301758 0.546875
vt 0.265625 0.656250
vt 0.265625 0.546875
vt 0.281250 0.437500
vt 0.298828 0.546875
vt 0.281250 0.546875
vt 0.453125 0.484375
vt 0.470703 0.593750
vt 0.453125 0.593750
vt 0.614258 0.968750
vt 0.578125 0.951172
vt 0.614258 0.951172
vt 0.046875 0.404297
vt 0.083008 0.421875
vt 0.083008 0.404297
vt 0.570312 0.620117
vt 0.531250 0.640625
vt 0.531250 0.620117
vt 0.595703 0.510742
vt 0.578125 0.531250
vt 0.578125 0.510742
vt 0.570312 0.573242
vt 0.531250 0.593750
vt 0.531250 0.573242
vt 0.580078 0.401367
vt 0.562500 0.421875
vt 0.562500 0.401367
vt 0.453125 0.437500
vt 0.492188 0.419922
vt 0.492188 0.437500
vt 0.515625 0.419922
vt 0.554688 0.437500
vt 0.554688 0.419922
vt 0.520508 0.953125
vt 0.484375 1.000000
vt 0.484375 0.953125
vt 0.515625 0.406250
vt 0.500000 0.406250
vt 0.520508 0.656250
vt 0.484375 0.656250
vt 0.562500 0.437500
vt 0.546875 0.484375
vt 0.546875 0.437500
vt 0.614258 0.875000
vt 0.578125 0.859375
vt 0.614258 0.859375
vt 0.140625 0.406250
vt 0.176758 0.421875
vt 0.176758 0.406250
vt 0.531250 0.541992
vt 0.570312 0.562500
vt 0.111328 0.385742
vt 0.093750 0.385742
vt 0.070312 0.432617
vt 0.031250 0.453125
vt 0.031250 0.432617
vt 0.142578 0.385742
vt 0.125000 0.406250
vt 0.125000 0.385742
vt 0.562500 0.484375
vt 0.601562 0.466797
vt 0.601562 0.484375
vt 0.562500 0.435547
vt 0.601562 0.453125
vt 0.601562 0.435547
vt 0.515625 0.817383
vt 0.551758 0.843750
vt 0.515625 0.843750
vt 0.218750 0.421875
vt 0.203125 0.421875
vt 0.515625 0.786133
vt 0.551758 0.812500
vt 0.515625 0.812500
vt 0.578125 0.629883
vt 0.593750 0.656250
vt 0.578125 0.656250
vt 0.578125 0.843750
vt 0.614258 0.843750
vt 0.578125 0.828125
vt 0.614258 0.828125
vt 0.348633 0.517578
vt 0.312500 0.517578
vt 0.406250 0.423828
vt 0.390625 0.423828
vt 0.406250 0.533203
vt 0.442383 0.609375
vt 0.406250 0.609375
vt 0.421875 0.423828
vt 0.406250 0.500000
vt 0.614258 0.812500
vt 0.614258 0.796875
vt 0.578125 0.812500
vt 0.484375 0.612305
vt 0.359375 0.612305
vt 0.046875 0.456055
vt 0.031250 0.484375
vt 0.031250 0.456055
vt 0.500000 0.846680
vt 0.375000 0.875000
vt 0.375000 0.846680
vt 0.187500 0.456055
vt 0.203125 0.484375
vt 0.187500 0.484375
vt 0.375000 0.718750
vt 0.500000 0.703125
vt 0.500000 0.718750
vt 0.578125 0.609375
vt 0.156250 0.508789
vt 0.078125 0.531250
vt 0.078125 0.508789
vt 0.421875 0.399414
vt 0.406250 0.421875
vt 0.406250 0.399414
vt 0.437500 0.508789
vt 0.359375 0.531250
vt 0.359375 0.508789
vt 0.156250 0.383789
vt 0.171875 0.406250
vt 0.156250 0.406250
vt 0.078125 0.500000
vt 0.156250 0.500000
vt 0.500000 0.843750
vt 0.078125 0.430664
vt 0.111328 0.453125
vt 0.078125 0.453125
vt 0.171875 0.383789
vt 0.184570 0.406250
vt 0.158203 0.430664
vt 0.125000 0.453125
vt 0.125000 0.430664
vt 0.309570 0.383789
vt 0.296875 0.406250
vt 0.296875 0.383789
vt 0.611328 0.703125
vt 0.578125 0.690430
vt 0.611328 0.690430
vt 0.578125 0.674805
vt 0.611328 0.687500
vt 0.611328 0.674805
vt 0.205078 0.430664
vt 0.171875 0.453125
vt 0.171875 0.430664
vt 0.312500 0.383789
vt 0.325195 0.406250
vt 0.312500 0.406250
vt 0.546875 0.758789
vt 0.580078 0.781250
vt 0.546875 0.781250
vt 0.340820 0.383789
vt 0.328125 0.406250
vt 0.328125 0.383789
vt 0.328125 0.421875
vt 0.361328 0.409180
vt 0.361328 0.421875
vt 0.611328 0.659180
vt 0.578125 0.671875
vt 0.611328 0.671875
vt 0.367188 0.765625
vt 0.250000 0.828125
vt 0.250000 0.765625
vt 0.146484 0.578125
vt 0.125000 0.640625
vt 0.125000 0.578125
vt 0.367188 0.703125
vt 0.046875 0.453125
vt 0.068359 0.515625
vt 0.421875 0.781250
vt 0.539062 0.759766
vt 0.539062 0.781250
vt 0.421875 0.728516
vt 0.539062 0.750000
vt 0.539062 0.728516
vt 0.125000 0.580078
vt 0.078125 0.580078
vt 0.471680 0.939453
vt 0.437500 1.000000
vt 0.437500 0.939453
vt 0.421875 0.720703
vt 0.375000 0.781250
vt 0.375000 0.720703
vt 0.487305 0.876953
vt 0.453125 0.937500
vt 0.453125 0.876953
vt 0.312500 0.515625
vt 0.359375 0.481445
vt 0.359375 0.515625
vt 0.484375 0.622070
vt 0.531250 0.656250
vt 0.531250 0.622070
vt 0.367188 0.828125
vt 0.281250 0.828125
vt 0.578125 0.796875
vt 0.562500 0.843750
vt 0.304688 0.656250
vt 0.218750 0.703125
vt 0.218750 0.390625
vt 0.234375 0.437500
vt 0.570312 0.937500
vt 0.570312 0.953125
vt 0.570312 0.531250
vt 0.570312 0.515625
vt 0.554688 0.703125
vt 0.453125 0.921875
vt 0.437500 0.937500
vt 0.437500 0.921875
vt 0.570312 0.859375
vt 0.515625 0.875000
vt 0.359375 0.390625
vt 0.343750 0.406250
vt 0.343750 0.390625
vt 0.515625 0.515625
vt 0.570312 0.500000
vt 0.515625 0.484375
vt 0.570312 0.484375
vt 0.349609 0.437500
vt 0.328125 0.437500
vt 0.607422 0.640625
vt 0.593750 0.640625
vt 0.599609 0.484375
vt 0.578125 0.500000
vt 0.578125 0.484375
vt 0.373047 0.390625
vt 0.359375 0.406250
vt 0.593750 0.765625
vt 0.615234 0.751953
vt 0.615234 0.765625
vt 0.593750 0.736328
vt 0.615234 0.750000
vt 0.615234 0.736328
vt 0.593750 0.781250
vt 0.593750 0.625000
vt 0.255859 0.390625
vt 0.234375 0.406250
vt 0.234375 0.390625
vt 0.421875 0.390625
vt 0.435547 0.406250
vt 0.421875 0.406250
vt 0.287109 0.406250
vt 0.265625 0.392578
vt 0.287109 0.392578
vt 0.615234 0.720703
vt 0.593750 0.734375
vt 0.615234 0.734375
vt 0.445312 0.875000
vt 0.390625 0.921875
vt 0.470703 0.437500
vt 0.132812 0.531250
vt 0.078125 0.578125
vt 0.515625 0.437500
vt 0.533203 0.484375
vt 0.570312 0.919922
vt 0.078125 0.466797
vt 0.132812 0.484375
vt 0.132812 0.466797
vt 0.533203 0.375000
vt 0.548828 0.406250
vt 0.437500 0.404297
vt 0.359375 0.671875
vt 0.348633 0.703125
vt 0.236328 0.546875
vt 0.254883 0.546875
vt 0.267578 0.546875
vt 0.000000 0.404297
vt 0.578125 1.000000
vt 0.036133 0.484375
vt 0.156250 0.578125
vt 0.192383 0.531250
vt 0.453125 0.406250
vt 0.531250 0.953125
vt 0.562500 0.781250
vt 0.551758 0.906250
vt 0.176758 0.484375
vt 0.562500 0.703125
vt 0.578125 0.937500
vt 0.426758 1.000000
vt 0.395508 0.609375
vt 0.578125 0.906250
vt 0.093750 0.421875
vt 0.132812 1.000000
vt 0.179688 0.703125
vt 0.273438 1.000000
vt 0.210938 0.703125
vt 0.375000 0.820312
vt 0.375000 0.812500
vt 0.570312 1.000000
vt 0.392578 0.401367
vt 0.570312 0.682617
vt 0.595703 0.604492
vt 0.546875 0.732422
vt 0.562500 0.888672
vt 0.351562 0.468750
vt 0.595703 0.573242
vt 0.570312 0.671875
vt 0.595703 0.562500
vt 0.437500 0.500000
vt 0.203125 0.453125
vt 0.437500 0.531250
vt 0.484375 0.437500
vt 0.500000 0.937500
vt 0.301758 0.656250
vt 0.298828 0.437500
vt 0.036133 0.640625
vt 0.470703 0.484375
vt 0.578125 0.968750
vt 0.046875 0.421875
vt 0.570312 0.640625
vt 0.595703 0.531250
vt 0.570312 0.593750
vt 0.580078 0.421875
vt 0.453125 0.419922
vt 0.520508 1.000000
vt 0.520508 0.703125
vt 0.578125 0.875000
vt 0.140625 0.421875
vt 0.570312 0.541992
vt 0.111328 0.406250
vt 0.070312 0.453125
vt 0.142578 0.406250
vt 0.562500 0.466797
vt 0.562500 0.453125
vt 0.551758 0.817383
vt 0.218750 0.395508
vt 0.551758 0.786133
vt 0.593750 0.629883
vt 0.442383 0.533203
vt 0.046875 0.484375
vt 0.500000 0.875000
vt 0.203125 0.456055
vt 0.375000 0.703125
vt 0.453125 0.609375
vt 0.421875 0.421875
vt 0.078125 0.484375
vt 0.111328 0.430664
vt 0.184570 0.383789
vt 0.158203 0.453125
vt 0.309570 0.406250
vt 0.578125 0.703125
vt 0.578125 0.687500
vt 0.205078 0.453125
vt 0.325195 0.383789
vt 0.580078 0.758789
vt 0.340820 0.406250
vt 0.328125 0.409180
vt 0.578125 0.659180
vt 0.146484 0.640625
vt 0.068359 0.453125
vt 0.421875 0.759766
vt 0.421875 0.750000
vt 0.471680 1.000000
vt 0.487305 0.937500
vt 0.312500 0.481445
vt 0.367188 0.875000
vt 0.304688 0.703125
vt 0.484375 0.937500
vt 0.554688 0.718750
vt 0.570312 0.875000
vt 0.515625 0.500000
vt 0.349609 0.421875
vt 0.607422 0.656250
vt 0.599609 0.500000
vt 0.373047 0.406250
vt 0.593750 0.751953
vt 0.593750 0.750000
vt 0.615234 0.781250
vt 0.607422 0.625000
vt 0.255859 0.406250
vt 0.435547 0.390625
vt 0.265625 0.406250
vt 0.593750 0.720703
vt 0.445312 0.921875
vt 0.132812 0.578125
vt 0.533203 0.437500
vt 0.515625 0.919922
s 1
usemtl m_c24d0368-bc1c-6631-9a95-68b2d4205525
f 7/1/1 2/2/1 4/3/1
f 3/4/2 2/5/2 1/6/2
f 3/7/3 6/3/3 8/8/3
f 8/9/4 5/10/4 7/11/4
f 1/12/5 5/13/5 6/14/6
f 4/13/7 8/6/7 7/15/7
f 15/16/8 10/17/8 12/18/8
f 12/19/2 9/20/2 11/21/2
f 11/22/9 14/23/9 16/16/9
f 16/24/4 13/25/4 15/26/4
f 9/27/10 13/28/10 14/29/10
f 12/30/11 16/28/11 15/31/11
f 23/32/12 18/33/12 20/34/12
f 20/35/13 17/36/13 19/37/13
f 24/36/14 17/38/14 22/39/14
f 24/40/15 21/41/15 23/42/15
f 17/43/16 21/44/16 22/45/16
f 20/46/17 24/47/17 23/48/17
f 28/49/18 29/50/18 26/51/18
f 28/52/13 25/53/13 27/54/13
f 27/55/19 30/52/19 32/56/19
f 31/12/15 30/57/15 29/58/15
f 25/59/20 29/60/20 30/61/20
f 31/62/21 27/63/21 32/64/21
f 39/65/22 34/66/22 36/67/22
f 36/68/23 33/69/23 35/70/23
f 35/71/24 38/72/24 40/73/24
f 40/74/25 37/75/25 39/76/25
f 33/77/26 37/78/26 38/79/26
f 36/80/27 40/81/27 39/82/27
f 47/83/28 42/84/28 44/85/28
f 43/86/23 42/87/23 41/88/23
f 43/89/29 46/90/29 48/91/29
f 47/92/25 46/93/25 45/87/25
f 41/80/30 45/94/30 46/82/30
f 44/95/31 48/96/31 47/97/31
f 55/98/8 50/99/8 52/17/8
f 52/100/2 49/101/2 51/52/2
f 51/102/9 54/103/9 56/104/9
f 56/105/4 53/106/4 55/107/4
f 49/108/10 53/109/10 54/110/10
f 52/111/11 56/112/11 55/113/11
f 63/114/18 58/115/18 60/116/18
f 59/117/13 58/118/13 57/119/13
f 64/120/19 57/121/19 62/122/19
f 63/123/15 62/124/15 61/125/15
f 57/126/20 61/127/20 62/128/20
f 63/129/21 59/130/21 64/131/21
f 71/132/18 66/133/18 68/134/18
f 67/135/13 66/136/13 65/137/13
f 67/138/19 70/139/19 72/140/19
f 72/141/15 69/142/15 71/143/15
f 70/144/20 66/145/20 69/146/20
f 68/147/21 72/148/21 71/149/21
f 79/150/8 74/151/8 76/69/8
f 76/152/2 73/153/2 75/154/2
f 75/155/9 78/156/9 80/157/9
f 80/21/4 77/154/4 79/158/4
f 73/159/10 77/160/10 78/161/10
f 76/58/11 80/162/11 79/57/11
f 87/163/8 82/49/8 84/43/8
f 84/164/2 81/18/2 83/165/2
f 83/166/9 86/167/9 88/163/9
f 88/168/4 85/169/4 87/164/4
f 81/170/10 85/171/10 86/156/10
f 84/172/11 88/173/11 87/174/11
f 95/175/32 90/176/32 92/177/32
f 91/178/33 90/179/33 89/180/33
f 91/50/34 94/165/34 96/51/34
f 95/181/35 94/182/35 93/183/35
f 94/184/36 90/185/36 93/186/36
f 92/187/37 96/188/37 95/189/37
f 103/190/38 98/191/38 100/192/38
f 100/193/33 97/194/33 99/195/33
f 99/196/39 102/197/39 104/198/39
f 104/199/35 101/200/35 103/201/35
f 97/202/40 101/203/40 102/204/40
f 100/205/41 104/206/41 103/207/41
f 111/208/38 106/209/38 108/210/38
f 108/211/33 105/157/33 107/212/33
f 107/213/39 110/29/39 112/214/39
f 112/215/35 109/216/35 111/217/35
f 110/218/40 106/219/40 109/220/40
f 108/221/41 112/222/41 111/223/41
f 116/224/38 117/225/38 114/1/38
f 116/226/33 113/95/33 115/227/33
f 115/228/39 118/229/39 120/230/39
f 120/231/35 117/232/35 119/233/35
f 113/234/40 117/235/40 118/236/40
f 116/237/41 120/238/41 119/239/41
f 124/240/42 125/241/42 122/242/42
f 123/74/43 122/243/43 121/244/43
f 128/245/44 121/246/44 126/247/44
f 127/248/45 126/249/45 125/250/45
f 126/220/46 122/251/46 125/252/46
f 124/253/47 128/252/47 127/254/47
f 135/255/48 130/34/48 132/256/48
f 132/257/43 129/93/43 131/258/43
f 136/259/49 129/260/49 134/261/49
f 136/262/45 133/263/45 135/257/45
f 129/253/50 133/264/50 134/254/50
f 135/265/51 131/266/51 136/264/51
f 143/267/52 138/30/52 140/268/52
f 140/269/2 137/270/2 139/271/2
f 139/272/53 142/273/53 144/274/53
f 143/275/4 142/276/4 141/277/4
f 137/278/54 141/279/54 142/280/54
f 140/183/55 144/281/56 143/137/56
f 151/282/52 146/283/52 148/284/52
f 148/285/2 145/286/2 147/287/2
f 147/288/53 150/289/53 152/290/53
f 151/291/4 150/292/4 149/293/4
f 145/294/57 149/56/54 150/295/54
f 148/296/56 152/219/56 151/251/56
f 156/297/52 157/298/52 154/299/52
f 155/300/58 154/301/58 153/292/58
f 155/302/53 158/303/53 160/304/53
f 160/305/59 157/306/59 159/307/59
f 158/308/60 154/309/60 157/310/60
f 156/311/61 160/312/61 159/313/61
f 167/314/52 162/315/52 164/316/52
f 163/317/61 162/318/61 161/319/61
f 168/320/53 161/321/53 166/322/53
f 168/323/60 165/324/60 167/325/60
f 161/326/58 165/327/58 166/328/58
f 167/329/59 163/330/59 168/331/59
f 175/332/62 170/333/62 172/334/62
f 172/335/2 169/336/2 171/337/2
f 171/338/63 174/334/63 176/22/63
f 175/339/4 174/340/4 173/26/4
f 169/341/64 173/342/64 174/343/64
f 172/344/65 176/345/65 175/346/65
f 183/347/8 178/164/8 180/348/8
f 180/349/2 177/350/2 179/351/2
f 179/352/9 182/353/9 184/354/9
f 184/355/4 181/356/4 183/357/4
f 177/358/10 181/359/10 182/360/10
f 180/361/11 184/362/11 183/363/11
f 191/364/66 186/158/66 188/365/66
f 188/366/2 185/367/2 187/63/2
f 187/368/67 190/369/67 192/39/67
f 191/370/4 190/371/4 189/37/4
f 185/210/68 189/372/68 190/373/68
f 188/170/69 192/374/69 191/375/69
f 199/376/66 194/280/66 196/279/66
f 196/377/2 193/378/2 195/379/2
f 195/380/67 198/381/67 200/174/67
f 200/382/4 197/383/4 199/384/4
f 193/385/68 197/386/68 198/375/68
f 196/387/69 200/386/69 199/388/69
f 204/326/66 205/389/66 202/390/66
f 204/391/70 201/249/70 203/392/70
f 203/393/67 206/394/67 208/395/67
f 208/396/71 205/397/71 207/382/71
f 201/398/72 205/399/72 206/400/72
f 204/401/73 208/402/73 207/403/73
f 215/400/66 210/404/66 212/398/66
f 211/405/72 210/391/72 209/392/72
f 211/406/67 214/407/67 216/408/67
f 215/409/73 214/410/73 213/411/73
f 214/412/71 210/413/71 213/414/71
f 215/415/70 211/416/70 216/417/70
f 223/418/66 218/419/66 220/19/66
f 220/420/2 217/181/2 219/202/2
f 219/421/67 222/422/67 224/283/67
f 223/423/4 222/424/4 221/387/4
f 217/173/68 221/425/68 222/372/68
f 220/426/69 224/427/69 223/428/69
f 7/1/1 5/197/1 2/2/1
f 3/4/2 4/429/2 2/5/2
f 3/7/3 1/1/3 6/3/3
f 8/9/4 6/430/4 5/10/4
f 1/12/5 2/431/5 5/13/5
f 4/13/7 3/14/7 8/6/7
f 15/16/8 13/23/8 10/17/8
f 12/19/2 10/84/2 9/20/2
f 11/22/9 9/333/9 14/23/9
f 16/24/4 14/164/4 13/25/4
f 9/27/10 10/432/10 13/28/10
f 12/30/11 11/432/11 16/28/11
f 23/32/12 21/433/12 18/33/12
f 20/35/13 18/434/13 17/36/13
f 24/36/14 19/435/14 17/38/14
f 24/40/15 22/436/15 21/41/15
f 17/43/16 18/437/16 21/44/16
f 20/46/17 19/438/17 24/47/17
f 28/49/18 31/439/18 29/50/18
f 28/52/13 26/440/13 25/53/13
f 27/55/19 25/441/19 30/52/19
f 31/12/15 32/442/15 30/57/15
f 25/59/20 26/443/20 29/60/20
f 31/62/21 28/444/21 27/63/21
f 39/65/22 37/445/22 34/66/22
f 36/68/23 34/150/23 33/69/23
f 35/71/24 33/446/24 38/72/24
f 40/74/25 38/244/25 37/75/25
f 33/77/26 34/447/26 37/78/26
f 36/80/27 35/448/27 40/81/27
f 47/83/28 45/449/28 42/84/28
f 43/86/23 44/92/23 42/87/23
f 43/89/29 41/450/29 46/90/29
f 47/92/25 48/258/25 46/93/25
f 41/80/30 42/451/30 45/94/30
f 44/95/31 43/452/31 48/96/31
f 55/98/8 53/453/8 50/99/8
f 52/100/2 50/454/2 49/101/2
f 51/102/9 49/455/9 54/103/9
f 56/105/4 54/456/4 53/106/4
f 49/108/10 50/457/10 53/109/10
f 52/111/11 51/458/11 56/112/11
f 63/114/18 61/459/18 58/115/18
f 59/117/13 60/460/13 58/118/13
f 64/120/19 59/461/19 57/121/19
f 63/123/15 64/462/15 62/124/15
f 57/126/20 58/463/20 61/127/20
f 63/129/21 60/464/21 59/130/21
f 71/132/18 69/465/18 66/133/18
f 67/135/13 68/466/13 66/136/13
f 67/138/19 65/467/19 70/139/19
f 72/141/15 70/468/15 69/142/15
f 70/144/20 65/371/20 66/145/20
f 68/147/21 67/178/21 72/148/21
f 79/150/8 77/469/8 74/151/8
f 76/152/2 74/20/2 73/153/2
f 75/155/9 73/385/9 78/156/9
f 80/21/4 78/152/4 77/154/4
f 73/159/10 74/470/10 77/160/10
f 76/58/11 75/471/11 80/162/11
f 87/163/8 85/167/8 82/49/8
f 84/164/2 82/169/2 81/18/2
f 83/166/9 81/270/9 86/167/9
f 88/168/4 86/101/4 85/169/4
f 81/170/10 82/472/10 85/171/10
f 84/172/11 83/473/11 88/173/11
f 95/175/32 93/474/32 90/176/32
f 91/178/33 92/475/33 90/179/33
f 91/50/34 89/476/34 94/165/34
f 95/181/35 96/477/35 94/182/35
f 94/184/36 89/478/36 90/185/36
f 92/187/37 91/479/37 96/188/37
f 103/190/38 101/480/38 98/191/38
f 100/193/33 98/481/33 97/194/33
f 99/196/39 97/482/39 102/197/39
f 104/199/35 102/483/35 101/200/35
f 97/202/40 98/484/40 101/203/40
f 100/205/41 99/423/41 104/206/41
f 111/208/38 109/485/38 106/209/38
f 108/211/33 106/155/33 105/157/33
f 107/213/39 105/486/39 110/29/39
f 112/215/35 110/234/35 109/216/35
f 110/218/40 105/487/40 106/219/40
f 108/221/41 107/488/41 112/222/41
f 116/224/38 119/489/38 117/225/38
f 116/226/33 114/490/33 113/95/33
f 115/228/39 113/491/39 118/229/39
f 120/231/35 118/492/35 117/232/35
f 113/234/40 114/493/40 117/235/40
f 116/237/41 115/494/41 120/238/41
f 124/240/42 127/495/42 125/241/42
f 123/74/43 124/496/43 122/243/43
f 128/245/44 123/497/44 121/246/44
f 127/248/45 128/498/45 126/249/45
f 126/220/46 121/219/46 122/251/46
f 124/253/47 123/251/47 128/252/47
f 135/255/48 133/32/48 130/34/48
f 132/257/43 130/263/43 129/93/43
f 136/259/49 131/499/49 129/260/49
f 136/262/45 134/151/45 133/263/45
f 129/253/50 130/266/50 133/264/50
f 135/265/51 132/366/51 131/266/51
f 143/267/52 141/31/52 138/30/52
f 140/269/2 138/500/2 137/270/2
f 139/272/53 137/501/53 142/273/53
f 143/275/4 144/502/4 142/276/4
f 137/278/54 138/503/54 141/279/54
f 140/183/55 139/504/55 144/281/56
f 151/282/52 149/52/52 146/283/52
f 148/285/2 146/505/2 145/286/2
f 147/288/53 145/471/53 150/289/53
f 151/291/4 152/300/4 150/292/4
f 145/294/57 146/506/57 149/56/54
f 148/296/56 147/172/56 152/219/56
f 156/297/52 159/507/52 157/298/52
f 155/300/58 156/508/58 154/301/58
f 155/302/53 153/509/53 158/303/53
f 160/305/59 158/510/59 157/306/59
f 158/308/60 153/511/60 154/309/60
f 156/311/61 155/512/61 160/312/61
f 167/314/52 165/513/52 162/315/52
f 163/317/61 164/514/61 162/318/61
f 168/320/53 163/515/53 161/321/53
f 168/323/60 166/516/60 165/324/60
f 161/326/58 162/517/58 165/327/58
f 167/329/59 164/518/59 163/330/59
f 175/332/62 173/364/62 170/333/62
f 172/335/2 170/519/2 169/336/2
f 171/338/63 169/332/63 174/334/63
f 175/339/4 176/520/4 174/340/4
f 169/341/64 170/521/64 173/342/64
f 172/344/65 171/522/65 176/345/65
f 183/347/8 181/336/8 178/164/8
f 180/349/2 178/523/2 177/350/2
f 179/352/9 177/341/9 182/353/9
f 184/355/4 182/524/4 181/356/4
f 177/358/10 178/525/10 181/359/10
f 180/361/11 179/214/11 184/362/11
f 191/364/66 189/526/66 186/158/66
f 188/366/2 186/251/2 185/367/2
f 187/368/67 185/527/67 190/369/67
f 191/370/4 192/408/4 190/371/4
f 185/210/68 186/528/68 189/372/68
f 188/170/69 187/8/69 192/374/69
f 199/376/66 197/529/66 194/280/66
f 196/377/2 194/356/2 193/378/2
f 195/380/67 193/530/67 198/381/67
f 200/382/4 198/397/4 197/383/4
f 193/385/68 194/531/68 197/386/68
f 196/387/69 195/531/69 200/386/69
f 204/326/66 207/532/66 205/389/66
f 204/391/70 202/533/70 201/249/70
f 203/393/67 201/534/67 206/394/67
f 208/396/71 206/535/71 205/397/71
f 201/398/72 202/536/72 205/399/72
f 204/401/73 203/537/73 208/402/73
f 215/400/66 213/538/66 210/404/66
f 211/405/72 212/539/72 210/391/72
f 211/406/67 209/540/67 214/407/67
f 215/409/73 216/541/73 214/410/73
f 214/412/71 209/542/71 210/413/71
f 215/415/70 212/543/70 211/416/70
f 223/418/66 221/544/66 218/419/66
f 220/420/2 218/477/2 217/181/2
f 219/421/67 217/545/67 222/422/67
f 223/423/4 224/546/4 222/424/4
f 217/173/68 218/547/68 221/425/68
f 220/426/69 219/506/69 224/427/69
