# Blender 4.4.3
# www.blender.org
mtllib nyyyaaaa.mtl
o nyyyaaaa
v 0.046875 1.073256 0.263451
v 0.046875 1.039772 0.182612
v 0.046875 0.972207 0.305307
v 0.046875 0.938722 0.224468
v -0.046875 1.039772 0.182612
v -0.046875 1.073256 0.263451
v -0.046875 0.938722 0.224468
v -0.046875 0.972207 0.305307
v 0.156250 1.321434 -0.116523
v 0.156250 1.335052 -0.272178
v 0.156250 1.134648 -0.132865
v 0.156250 1.148266 -0.288520
v -0.156250 1.335052 -0.272178
v -0.156250 1.321434 -0.116523
v -0.156250 1.148266 -0.288520
v -0.156250 1.134648 -0.132865
v 0.187500 0.754341 0.187120
v 0.187500 0.750000 0.162500
v 0.187500 0.385038 0.252238
v 0.187500 0.380697 0.227618
v -0.187500 0.750000 0.162500
v -0.187500 0.754341 0.187120
v -0.187500 0.380697 0.227618
v -0.187500 0.385038 0.252238
v 0.134729 1.251125 -0.275679
v 0.134729 1.251615 -0.281910
v 0.123876 1.189764 -0.280508
v 0.123876 1.190254 -0.286739
v 0.073179 1.262434 -0.281058
v 0.073179 1.261944 -0.274827
v 0.062326 1.201074 -0.285887
v 0.062326 1.200583 -0.279656
v 0.062500 1.295111 -0.277753
v 0.062500 1.295656 -0.283980
v 0.062500 1.186152 -0.287286
v 0.062500 1.186697 -0.293512
v -0.093750 1.295656 -0.283980
v -0.093750 1.295111 -0.277753
v -0.093750 1.186697 -0.293512
v -0.093750 1.186152 -0.287286
v 0.250000 1.250000 -0.100000
v 0.250000 1.250000 -0.225000
v 0.250000 0.750000 -0.100000
v 0.250000 0.750000 -0.225000
v -0.250000 1.250000 -0.225000
v -0.250000 1.250000 -0.100000
v -0.250000 0.750000 -0.225000
v -0.250000 0.750000 -0.100000
v 0.187500 1.437383 -0.120490
v 0.187500 1.450377 -0.181624
v 0.187500 1.235640 -0.163371
v 0.187500 1.248634 -0.224506
v -0.187500 1.450377 -0.181624
v -0.187500 1.437383 -0.120490
v -0.187500 1.248634 -0.224506
v -0.187500 1.235640 -0.163371
v -0.186577 1.562018 -0.061586
v -0.185083 1.576234 -0.128834
v -0.061397 1.151319 -0.145624
v -0.059903 1.165534 -0.212871
v -0.322788 1.536602 -0.140271
v -0.324282 1.522386 -0.073024
v -0.197608 1.125903 -0.224309
v -0.199102 1.111687 -0.157061
v -0.194001 1.548971 0.073011
v -0.209932 1.608028 0.060175
v -0.169288 1.515885 -0.109885
v -0.185219 1.574941 -0.122721
v -0.347637 1.568396 0.048738
v -0.331706 1.509339 0.061574
v -0.322924 1.535310 -0.134158
v -0.306993 1.476253 -0.121322
v -0.210019 1.609075 0.057275
v -0.191989 1.550596 0.044571
v -0.210316 1.586431 0.161084
v -0.192286 1.527953 0.148380
v -0.329627 1.510161 0.035357
v -0.347657 1.568640 0.048061
v -0.329924 1.487518 0.139166
v -0.347954 1.545997 0.151870
v -0.210316 1.587374 0.152861
v -0.204878 1.566063 0.094359
v -0.126080 1.313325 0.260522
v -0.120642 1.292014 0.202019
v -0.342516 1.524655 0.096647
v -0.347954 1.545966 0.155149
v -0.258280 1.250607 0.204307
v -0.263718 1.271918 0.262810
v 0.265625 1.437500 0.200000
v 0.265625 1.437500 0.106250
v 0.265625 0.750000 0.200000
v 0.265625 0.750000 0.106250
v -0.265625 1.437500 0.106250
v -0.265625 1.437500 0.200000
v -0.265625 0.750000 0.106250
v -0.265625 0.750000 0.200000
v -0.172363 1.529739 -0.042326
v -0.189886 1.594702 -0.056445
v -0.161654 1.515402 -0.121580
v -0.179177 1.580364 -0.135700
v -0.339565 1.551624 -0.068877
v -0.322042 1.486661 -0.054758
v -0.328856 1.537287 -0.148132
v -0.311333 1.472324 -0.134012
v -0.188838 1.551797 0.079605
v -0.206362 1.616759 0.065485
v -0.178129 1.537459 0.000350
v -0.195653 1.602422 -0.013770
v -0.356041 1.573681 0.053053
v -0.338517 1.508719 0.067173
v -0.345332 1.559344 -0.026202
v -0.327808 1.494382 -0.012082
v -0.250000 0.987500 0.150000
v -0.250000 0.987500 -0.162500
v -0.250000 0.737500 0.150000
v -0.250000 0.737500 -0.162500
v -0.312500 0.987500 -0.162500
v -0.312500 0.987500 0.150000
v -0.312500 0.737500 -0.162500
v -0.312500 0.737500 0.150000
v 0.312500 0.987500 0.150000
v 0.312500 0.987500 -0.162500
v 0.312500 0.737500 0.150000
v 0.312500 0.737500 -0.162500
v 0.250000 0.987500 -0.162500
v 0.250000 0.987500 0.150000
v 0.250000 0.737500 -0.162500
v 0.250000 0.737500 0.150000
v 0.324282 1.522386 -0.073024
v 0.322788 1.536602 -0.140271
v 0.199102 1.111687 -0.157061
v 0.197608 1.125903 -0.224309
v 0.185083 1.576234 -0.128834
v 0.186577 1.562018 -0.061586
v 0.059903 1.165534 -0.212871
v 0.061397 1.151319 -0.145624
v 0.322042 1.486661 -0.054758
v 0.339565 1.551624 -0.068877
v 0.311333 1.472324 -0.134012
v 0.328856 1.537287 -0.148132
v 0.189886 1.594702 -0.056445
v 0.172363 1.529739 -0.042326
v 0.179177 1.580364 -0.135700
v 0.161654 1.515402 -0.121580
v 0.331706 1.509339 0.061574
v 0.347637 1.568396 0.048738
v 0.306993 1.476253 -0.121322
v 0.322924 1.535310 -0.134158
v 0.209932 1.608028 0.060175
v 0.194001 1.548971 0.073011
v 0.185219 1.574941 -0.122721
v 0.169288 1.515885 -0.109885
v 0.338517 1.508719 0.067173
v 0.356041 1.573681 0.053053
v 0.327808 1.494382 -0.012082
v 0.345332 1.559344 -0.026202
v 0.206362 1.616759 0.065485
v 0.188838 1.551797 0.079605
v 0.195653 1.602422 -0.013770
v 0.178129 1.537459 0.000350
v 0.347657 1.568640 0.048061
v 0.329627 1.510161 0.035357
v 0.347954 1.545997 0.151870
v 0.329924 1.487518 0.139166
v 0.191989 1.550596 0.044571
v 0.210019 1.609075 0.057275
v 0.192286 1.527953 0.148380
v 0.210316 1.586431 0.161084
v 0.347954 1.545966 0.155149
v 0.342516 1.524655 0.096647
v 0.263718 1.271918 0.262810
v 0.258280 1.250607 0.204307
v 0.204878 1.566063 0.094359
v 0.210316 1.587374 0.152861
v 0.120642 1.292014 0.202019
v 0.126080 1.313325 0.260522
v 0.264487 1.271474 0.259628
v 0.266823 1.275796 0.197322
v 0.176881 0.978971 0.236054
v 0.179217 0.983293 0.173747
v 0.129185 1.317204 0.195034
v 0.126849 1.312882 0.257340
v 0.041579 1.024701 0.171459
v 0.039242 1.020379 0.233766
v -0.126849 1.312882 0.257340
v -0.129185 1.317204 0.195034
v -0.039242 1.020379 0.233766
v -0.041579 1.024701 0.171459
v -0.266823 1.275796 0.197322
v -0.264487 1.271474 0.259628
v -0.179217 0.983293 0.173747
v -0.176881 0.978971 0.236054
v -0.152977 0.961757 -0.206424
v -0.195238 0.958334 -0.310628
v -0.152064 0.949290 -0.206384
v -0.194325 0.945867 -0.310589
v -0.304948 0.950443 -0.265875
v -0.262688 0.953866 -0.161670
v -0.304036 0.937976 -0.265835
v -0.261775 0.941399 -0.161631
v -0.182321 0.838065 -0.300170
v -0.190536 0.950264 -0.300524
v -0.187017 0.837684 -0.311748
v -0.195231 0.949883 -0.312102
v -0.300246 0.942373 -0.255771
v -0.292032 0.830173 -0.255416
v -0.304942 0.941992 -0.267349
v -0.296727 0.829793 -0.266995
v 0.262688 0.947616 -0.161670
v 0.304948 0.944193 -0.265875
v 0.261775 0.935149 -0.161631
v 0.304036 0.931726 -0.265835
v 0.195238 0.952084 -0.310628
v 0.152977 0.955507 -0.206424
v 0.194325 0.939617 -0.310589
v 0.152064 0.943040 -0.206384
v 0.292032 0.823923 -0.255416
v 0.300246 0.936122 -0.255771
v 0.296727 0.823543 -0.266995
v 0.304942 0.935742 -0.267349
v 0.190536 0.944014 -0.300524
v 0.182321 0.831815 -0.300170
v 0.195231 0.943633 -0.312102
v 0.187017 0.831434 -0.311748
v -0.006947 0.937288 -0.219881
v -0.006947 0.935543 -0.319866
v -0.006947 0.774813 -0.217045
v -0.006947 0.773068 -0.317030
v -0.163197 0.935543 -0.319866
v -0.163197 0.937288 -0.219881
v -0.163197 0.773068 -0.317030
v -0.163197 0.774813 -0.217045
v -0.141412 0.937297 -0.219344
v -0.179680 0.935685 -0.311717
v -0.141412 0.774822 -0.216508
v -0.179680 0.773210 -0.308881
v -0.318262 0.936687 -0.254324
v -0.279994 0.938299 -0.161950
v -0.318262 0.774212 -0.251488
v -0.279994 0.775824 -0.159114
v 0.274266 0.938240 -0.165332
v 0.312534 0.936628 -0.257706
v 0.274266 0.775765 -0.162496
v 0.312534 0.774153 -0.254870
v 0.173952 0.935626 -0.315099
v 0.135684 0.937238 -0.222726
v 0.173952 0.773151 -0.312263
v 0.135684 0.774763 -0.219890
v 0.161803 0.937288 -0.219881
v 0.161803 0.935543 -0.319866
v 0.161803 0.774813 -0.217045
v 0.161803 0.773068 -0.317030
v 0.005553 0.935543 -0.319866
v 0.005553 0.937288 -0.219881
v 0.005553 0.773068 -0.317030
v 0.005553 0.774813 -0.217045
v -0.025697 0.827109 -0.319375
v -0.025697 0.939592 -0.321339
v -0.025697 0.826891 -0.331873
v -0.025697 0.939374 -0.333837
v -0.144447 0.939592 -0.321339
v -0.144447 0.827109 -0.319375
v -0.144447 0.939374 -0.333837
v -0.144447 0.826891 -0.331873
v -0.025697 0.949788 -0.219881
v -0.025697 0.947825 -0.332364
v -0.025697 0.937290 -0.219663
v -0.025697 0.935327 -0.332146
v -0.144447 0.947825 -0.332364
v -0.144447 0.949788 -0.219881
v -0.144447 0.935327 -0.332146
v -0.144447 0.937290 -0.219663
v 0.143053 0.949788 -0.219881
v 0.143053 0.947825 -0.332364
v 0.143053 0.937290 -0.219663
v 0.143053 0.935327 -0.332146
v 0.024303 0.947825 -0.332364
v 0.024303 0.949788 -0.219881
v 0.024303 0.935327 -0.332146
v 0.024303 0.937290 -0.219663
v 0.143053 0.827109 -0.319375
v 0.143053 0.939592 -0.321339
v 0.143053 0.826891 -0.331873
v 0.143053 0.939374 -0.333837
v 0.024303 0.939592 -0.321339
v 0.024303 0.827109 -0.319375
v 0.024303 0.939374 -0.333837
v 0.024303 0.826891 -0.331873
v 0.125000 0.611825 -0.220199
v 0.125000 0.627330 -0.274270
v 0.125000 0.551746 -0.237426
v 0.125000 0.567251 -0.291497
v -0.125000 0.627330 -0.274270
v -0.125000 0.611825 -0.220199
v -0.125000 0.567251 -0.291497
v -0.125000 0.551746 -0.237426
v -0.081694 0.595083 -0.225000
v -0.081694 0.610587 -0.279071
v -0.125888 0.552600 -0.237182
v -0.125888 0.568105 -0.291253
v -0.125888 0.653069 -0.266889
v -0.125888 0.637565 -0.212818
v -0.170083 0.610587 -0.279071
v -0.170083 0.595083 -0.225000
v 0.168306 0.595083 -0.225000
v 0.168306 0.610587 -0.279071
v 0.124112 0.552600 -0.237182
v 0.124112 0.568105 -0.291253
v 0.124112 0.653069 -0.266889
v 0.124112 0.637565 -0.212818
v 0.079917 0.610587 -0.279071
v 0.079917 0.595083 -0.225000
v 0.167417 0.775319 -0.173318
v 0.167417 0.792546 -0.233397
v 0.167417 0.595083 -0.225000
v 0.167417 0.612310 -0.285079
v -0.170083 0.792546 -0.233397
v -0.170083 0.775319 -0.173318
v -0.170083 0.612310 -0.285079
v -0.170083 0.595083 -0.225000
v 0.190625 1.093750 -0.225000
v 0.190625 1.093750 -0.287500
v 0.190625 1.031250 -0.225000
v 0.190625 1.031250 -0.287500
v -0.190625 1.093750 -0.287500
v -0.190625 1.093750 -0.225000
v -0.190625 1.031250 -0.287500
v -0.190625 1.031250 -0.225000
v 0.181250 1.125000 -0.231250
v 0.181250 1.125000 -0.281250
v 0.181250 0.987500 -0.231250
v 0.181250 0.987500 -0.281250
v 0.131250 1.125000 -0.281250
v 0.131250 1.125000 -0.231250
v 0.131250 0.987500 -0.281250
v 0.131250 0.987500 -0.231250
v 0.118750 1.125000 -0.231250
v 0.118750 1.125000 -0.281250
v 0.118750 0.987500 -0.231250
v 0.118750 0.987500 -0.281250
v 0.068750 1.125000 -0.281250
v 0.068750 1.125000 -0.231250
v 0.068750 0.987500 -0.281250
v 0.068750 0.987500 -0.231250
v 0.056250 1.125000 -0.231250
v 0.056250 1.125000 -0.281250
v 0.056250 0.987500 -0.231250
v 0.056250 0.987500 -0.281250
v 0.006250 1.125000 -0.281250
v 0.006250 1.125000 -0.231250
v 0.006250 0.987500 -0.281250
v 0.006250 0.987500 -0.231250
v -0.006250 1.125000 -0.231250
v -0.006250 1.125000 -0.281250
v -0.006250 0.987500 -0.231250
v -0.006250 0.987500 -0.281250
v -0.056250 1.125000 -0.281250
v -0.056250 1.125000 -0.231250
v -0.056250 0.987500 -0.281250
v -0.056250 0.987500 -0.231250
v -0.068750 1.125000 -0.231250
v -0.068750 1.125000 -0.281250
v -0.068750 0.987500 -0.231250
v -0.068750 0.987500 -0.281250
v -0.118750 1.125000 -0.281250
v -0.118750 1.125000 -0.231250
v -0.118750 0.987500 -0.281250
v -0.118750 0.987500 -0.231250
v 0.000000 1.125000 -0.231250
v 0.000000 1.125000 -0.281250
v 0.000000 0.987500 -0.231250
v 0.000000 0.987500 -0.281250
v -0.050000 1.125000 -0.281250
v -0.050000 1.125000 -0.231250
v -0.050000 0.987500 -0.281250
v -0.050000 0.987500 -0.231250
v -0.131250 1.125000 -0.231250
v -0.131250 1.125000 -0.281250
v -0.131250 0.987500 -0.231250
v -0.131250 0.987500 -0.281250
v -0.181250 1.125000 -0.281250
v -0.181250 1.125000 -0.231250
v -0.181250 0.987500 -0.281250
v -0.181250 0.987500 -0.231250
v -0.212500 0.746080 -0.137705
v -0.212500 0.750653 -0.181216
v -0.212500 0.621765 -0.150772
v -0.212500 0.626338 -0.194282
v -0.250000 0.750653 -0.181216
v -0.250000 0.746080 -0.137705
v -0.250000 0.626338 -0.194282
v -0.250000 0.621765 -0.150772
v -0.214403 0.629602 -0.147741
v -0.214403 0.635690 -0.191065
v -0.166568 0.515241 -0.163813
v -0.166568 0.521329 -0.207138
v -0.249049 0.621480 -0.193062
v -0.249049 0.615391 -0.149738
v -0.201213 0.507118 -0.209135
v -0.201213 0.501030 -0.165811
v -0.175628 0.528223 -0.161989
v -0.175628 0.534312 -0.205313
v -0.087240 0.440695 -0.174290
v -0.087240 0.446784 -0.217614
v -0.202145 0.508053 -0.209003
v -0.202145 0.501965 -0.165679
v -0.113756 0.420525 -0.221305
v -0.113756 0.414436 -0.177980
v -0.103241 0.447823 -0.173288
v -0.103241 0.453911 -0.216613
v 0.012243 0.400453 -0.179946
v 0.012243 0.406542 -0.223270
v -0.117592 0.419603 -0.221434
v -0.117592 0.413514 -0.178110
v -0.002107 0.372233 -0.228092
v -0.002107 0.366144 -0.184767
v 0.250000 0.747005 -0.143894
v 0.250000 0.751198 -0.187443
v 0.250000 0.622580 -0.155875
v 0.250000 0.626774 -0.199423
v 0.212500 0.751198 -0.187443
v 0.212500 0.747005 -0.143894
v 0.212500 0.626774 -0.199423
v 0.212500 0.622580 -0.155875
v 0.249049 0.615391 -0.149738
v 0.249049 0.621480 -0.193062
v 0.201213 0.501030 -0.165811
v 0.201213 0.507118 -0.209135
v 0.214403 0.635690 -0.191065
v 0.214403 0.629602 -0.147741
v 0.166568 0.521329 -0.207138
v 0.166568 0.515241 -0.163813
v 0.202145 0.501965 -0.165679
v 0.202145 0.508053 -0.209003
v 0.113756 0.414436 -0.177980
v 0.113756 0.420525 -0.221305
v 0.175628 0.534312 -0.205313
v 0.175628 0.528223 -0.161989
v 0.087240 0.446784 -0.217614
v 0.087240 0.440695 -0.174290
v 0.117592 0.413514 -0.178110
v 0.117592 0.419603 -0.221434
v 0.002107 0.366144 -0.184767
v 0.002107 0.372233 -0.228092
v 0.103241 0.453911 -0.216613
v 0.103241 0.447823 -0.173288
v -0.012243 0.406542 -0.223270
v -0.012243 0.400453 -0.179946
v 0.081250 0.747177 -0.166585
v 0.081250 0.748266 -0.179038
v 0.081250 0.404735 -0.196545
v 0.081250 0.405824 -0.208997
v -0.081250 0.748266 -0.179038
v -0.081250 0.747177 -0.166585
v -0.081250 0.405824 -0.208997
v -0.081250 0.404735 -0.196545
v -0.081250 0.747177 -0.166585
v -0.081250 0.748266 -0.179038
v -0.081250 0.541712 -0.184561
v -0.081250 0.542801 -0.197014
v -0.212500 0.748266 -0.179038
v -0.212500 0.747177 -0.166585
v -0.212500 0.542801 -0.197014
v -0.212500 0.541712 -0.184561
v 0.212500 0.747177 -0.166585
v 0.212500 0.748266 -0.179038
v 0.212500 0.541712 -0.184561
v 0.212500 0.542801 -0.197014
v 0.081250 0.748266 -0.179038
v 0.081250 0.747177 -0.166585
v 0.081250 0.542801 -0.197014
v 0.081250 0.541712 -0.184561
v 0.132583 0.594359 -0.179955
v 0.132583 0.594904 -0.186181
v 0.185616 0.541528 -0.184577
v 0.185616 0.542073 -0.190803
v 0.030936 0.493644 -0.195040
v 0.030936 0.493100 -0.188814
v 0.083969 0.440813 -0.199662
v 0.083969 0.440268 -0.193436
v -0.030936 0.493100 -0.188814
v -0.030936 0.493644 -0.195040
v -0.083969 0.440268 -0.193436
v -0.083969 0.440813 -0.199662
v -0.132583 0.594904 -0.186181
v -0.132583 0.594359 -0.179955
v -0.185616 0.542073 -0.190803
v -0.185616 0.541528 -0.184577
v 0.149402 1.537015 -0.128888
v 0.149402 1.543265 -0.139714
v 0.216564 1.445716 -0.181600
v 0.216564 1.451966 -0.192426
v -0.003463 1.458927 -0.188406
v -0.003463 1.452677 -0.177581
v 0.063700 1.367627 -0.241118
v 0.063700 1.361377 -0.230293
v 0.179844 1.573097 -0.108057
v 0.179844 1.576222 -0.113469
v 0.270437 1.525019 -0.135814
v 0.270437 1.528144 -0.141227
v 0.121063 1.493151 -0.161430
v 0.121063 1.490026 -0.156018
v 0.211656 1.445073 -0.189188
v 0.211656 1.441948 -0.183775
v 0.003463 1.452677 -0.177581
v 0.003463 1.458927 -0.188406
v -0.063700 1.361377 -0.230293
v -0.063700 1.367627 -0.241118
v -0.149402 1.543265 -0.139714
v -0.149402 1.537015 -0.128888
v -0.216564 1.451966 -0.192426
v -0.216564 1.445716 -0.181600
v -0.121063 1.490026 -0.156018
v -0.121063 1.493151 -0.161430
v -0.211656 1.441948 -0.183775
v -0.211656 1.445073 -0.189188
v -0.179844 1.576222 -0.113469
v -0.179844 1.573097 -0.108057
v -0.270437 1.528144 -0.141227
v -0.270437 1.525019 -0.135814
v -0.056363 1.370705 -0.233486
v -0.061427 1.372802 -0.251417
v -0.067447 1.348302 -0.232976
v -0.072512 1.350400 -0.250907
v -0.221677 1.453337 -0.196731
v -0.216612 1.451239 -0.178800
v -0.232761 1.430934 -0.196221
v -0.227697 1.428837 -0.178290
v -0.207332 1.444867 -0.185954
v -0.214671 1.450920 -0.202111
v -0.227838 1.431195 -0.181761
v -0.235177 1.437248 -0.197919
v -0.272028 1.557134 -0.136270
v -0.264689 1.551081 -0.120112
v -0.292534 1.543462 -0.132077
v -0.285195 1.537409 -0.115920
v 0.216612 1.451239 -0.178800
v 0.221677 1.453337 -0.196731
v 0.227697 1.428837 -0.178290
v 0.232761 1.430934 -0.196221
v 0.061427 1.372802 -0.251417
v 0.056363 1.370705 -0.233486
v 0.072512 1.350400 -0.250907
v 0.067447 1.348302 -0.232976
v 0.264689 1.551081 -0.120112
v 0.272028 1.557134 -0.136270
v 0.285195 1.537409 -0.115920
v 0.292534 1.543462 -0.132077
v 0.214671 1.450920 -0.202111
v 0.207332 1.444867 -0.185954
v 0.235177 1.437248 -0.197919
v 0.227838 1.431195 -0.181761
v 0.139311 1.100356 0.311478
v 0.164551 1.116436 0.229255
v 0.206473 0.994933 0.311478
v 0.231713 1.011012 0.229255
v 0.015952 1.021768 0.165126
v -0.009288 1.005688 0.247349
v 0.083114 0.916344 0.165126
v 0.057874 0.900264 0.247349
v 0.046875 0.971683 0.304347
v 0.046875 1.005168 0.223507
v 0.046875 0.885069 0.268470
v 0.046875 0.918554 0.187631
v -0.046875 1.005168 0.223507
v -0.046875 0.971683 0.304347
v -0.046875 0.918554 0.187631
v -0.046875 0.885069 0.268470
v 0.009288 1.005688 0.247349
v -0.015952 1.021768 0.165126
v -0.057874 0.900264 0.247349
v -0.083114 0.916344 0.165126
v -0.164551 1.116436 0.229255
v -0.139311 1.100356 0.311478
v -0.231713 1.011012 0.229255
v -0.206473 0.994933 0.311478
v 0.148273 0.966737 0.250000
v 0.148273 0.966737 0.187500
v 0.207768 0.788927 0.250000
v 0.207768 0.788927 0.187500
v 0.041587 0.931040 0.187500
v 0.041587 0.931040 0.250000
v 0.101082 0.753230 0.187500
v 0.101082 0.753230 0.250000
v 0.189116 0.798555 0.243750
v 0.189116 0.798555 0.218750
v 0.176909 0.623981 0.243750
v 0.176909 0.623981 0.218750
v 0.076890 0.806402 0.218750
v 0.076890 0.806402 0.243750
v 0.064683 0.631829 0.218750
v 0.064683 0.631829 0.243750
v -0.082341 0.806260 0.243750
v -0.082341 0.806260 0.218750
v -0.084522 0.681279 0.243750
v -0.084522 0.681279 0.218750
v -0.194824 0.808223 0.218750
v -0.194824 0.808223 0.243750
v -0.197005 0.683242 0.218750
v -0.197005 0.683242 0.243750
v -0.031406 0.927132 0.250000
v -0.031406 0.927132 0.187500
v -0.106172 0.755184 0.250000
v -0.106172 0.755184 0.187500
v -0.134576 0.971992 0.187500
v -0.134576 0.971992 0.250000
v -0.209341 0.800043 0.187500
v -0.209341 0.800043 0.250000
v -0.089360 0.743030 0.237500
v -0.089360 0.743030 0.218750
v -0.081512 0.630804 0.237500
v -0.081512 0.630804 0.218750
v -0.182881 0.736491 0.218750
v -0.182881 0.736491 0.237500
v -0.175034 0.624265 0.218750
v -0.175034 0.624265 0.237500
v 0.170381 0.673991 0.237500
v 0.170381 0.673991 0.218750
v 0.162534 0.561765 0.237500
v 0.162534 0.561765 0.218750
v 0.076860 0.680530 0.218750
v 0.076860 0.680530 0.237500
v 0.069012 0.568304 0.218750
v 0.069012 0.568304 0.237500
vn -0.0000 -0.3827 -0.9239
vn 1.0000 -0.0000 -0.0000
vn -0.0000 0.3827 0.9239
vn -1.0000 -0.0000 -0.0000
vn -0.0000 0.9239 -0.3827
vn -0.0000 -0.9239 0.3827
vn -0.0000 0.0872 -0.9962
vn -0.0000 -0.0872 0.9962
vn -0.0000 0.9962 0.0872
vn -0.0000 -0.9962 -0.0872
vn -0.0000 -0.1736 -0.9848
vn -0.0000 0.1736 0.9848
vn -0.0000 0.9848 -0.1736
vn -0.0000 -0.9848 0.1736
vn -0.0000 0.0785 -0.9969
vn 0.9848 -0.1731 -0.0136
vn -0.0000 -0.0785 0.9969
vn -0.9848 0.1731 0.0136
vn 0.1736 0.9818 0.0772
vn -0.1736 -0.9818 -0.0774
vn -0.1737 -0.9818 -0.0771
vn -0.0000 0.0871 -0.9962
vn -0.0000 -0.0000 -1.0000
vn -0.0000 -0.0000 1.0000
vn -0.0000 1.0000 -0.0000
vn -0.0000 -1.0000 -0.0000
vn -0.0000 0.2079 -0.9781
vn -0.0000 -0.2079 0.9781
vn -0.0000 0.9781 0.2079
vn -0.0000 -0.9782 -0.2079
vn -0.0000 -0.9781 -0.2079
vn 0.0217 0.2068 -0.9781
vn 0.9579 0.2757 0.0796
vn -0.0217 -0.2068 0.9781
vn -0.9579 -0.2757 -0.0796
vn -0.2861 0.9387 0.1921
vn 0.2861 -0.9387 -0.1921
vn -0.2549 0.9449 -0.2054
vn 0.2549 -0.9449 0.2054
vn -0.1318 0.1765 0.9754
vn 0.1318 -0.1765 -0.9754
vn 0.2885 -0.9357 -0.2033
vn 0.9575 0.2813 0.0641
vn -0.2885 0.9357 0.2033
vn -0.9575 -0.2813 -0.0641
vn 0.0028 0.2131 -0.9770
vn -0.0028 -0.2131 0.9770
vn 0.0870 -0.3410 -0.9360
vn 0.9575 0.2880 -0.0159
vn -0.0870 0.3410 0.9360
vn -0.9575 -0.2881 0.0159
vn -0.2751 0.8949 -0.3515
vn 0.2751 -0.8949 0.3515
vn -0.0217 0.2068 -0.9781
vn 0.9579 -0.2757 -0.0796
vn 0.0217 -0.2068 0.9781
vn -0.9579 0.2757 0.0796
vn 0.2861 0.9387 0.1921
vn -0.2861 -0.9387 -0.1921
vn 0.2549 0.9449 -0.2054
vn -0.2549 -0.9449 0.2054
vn 0.1318 0.1765 0.9754
vn -0.1318 -0.1765 -0.9754
vn -0.2885 -0.9357 -0.2033
vn 0.9575 -0.2813 -0.0641
vn 0.2885 0.9357 0.2033
vn -0.9575 0.2813 0.0641
vn -0.0028 0.2131 -0.9770
vn 0.0028 -0.2131 0.9770
vn -0.0870 -0.3410 -0.9360
vn 0.9575 -0.2881 0.0159
vn 0.0870 0.3410 0.9360
vn -0.9575 0.2880 -0.0159
vn 0.2751 0.8949 -0.3515
vn -0.2751 -0.8949 0.3515
vn 0.0374 0.0692 -0.9969
vn -0.0374 -0.0692 0.9969
vn -0.9575 0.2881 -0.0159
vn 0.2861 0.9551 0.0770
vn -0.2861 -0.9551 -0.0770
vn -0.0374 0.0692 -0.9969
vn 0.9575 0.2881 -0.0159
vn 0.0374 -0.0692 0.9969
vn -0.2861 0.9551 0.0770
vn 0.2861 -0.9551 -0.0770
vn -0.3757 -0.0305 -0.9263
vn -0.3757 -0.0304 -0.9263
vn 0.9239 0.0665 -0.3769
vn 0.3757 0.0304 0.9263
vn 0.3756 0.0305 0.9263
vn -0.9239 -0.0664 0.3769
vn -0.9239 -0.0665 0.3769
vn -0.0730 0.9973 -0.0031
vn 0.0730 -0.9973 0.0031
vn -0.0730 0.9973 -0.0032
vn 0.9239 0.0664 -0.3768
vn 0.0730 -0.9973 0.0032
vn -0.9239 -0.0665 0.3768
vn -0.3756 -0.0304 -0.9263
vn 0.3757 -0.0304 -0.9263
vn 0.3757 -0.0305 -0.9263
vn 0.9239 -0.0664 0.3769
vn 0.9239 -0.0665 0.3769
vn -0.3757 0.0304 0.9263
vn -0.3756 0.0305 0.9263
vn -0.9239 0.0665 -0.3769
vn 0.0730 0.9973 -0.0031
vn -0.0730 -0.9973 0.0031
vn 0.0730 0.9973 -0.0032
vn 0.9239 -0.0665 0.3768
vn -0.0730 -0.9973 0.0032
vn -0.9239 0.0664 -0.3768
vn 0.3756 -0.0304 -0.9263
vn -0.0000 -0.0175 -0.9998
vn -0.0000 0.0175 0.9998
vn -0.0000 0.9998 -0.0175
vn -0.0000 -0.9998 0.0174
vn -0.0000 -0.9998 0.0175
vn -0.3827 -0.0161 -0.9237
vn 0.9239 -0.0067 -0.3826
vn 0.3827 0.0161 0.9237
vn -0.9239 0.0067 0.3826
vn 0.3827 -0.0161 -0.9237
vn 0.9239 0.0067 0.3826
vn -0.3827 0.0161 0.9237
vn -0.9239 -0.0067 -0.3826
vn -0.0000 0.9998 -0.0174
vn -0.0000 -0.0174 -0.9998
vn -0.0000 0.0174 0.9998
vn -0.0000 0.2756 -0.9613
vn -0.0000 -0.2756 0.9613
vn -0.0000 0.9613 0.2756
vn -0.0000 -0.9613 -0.2756
vn 0.7071 -0.6797 -0.1949
vn -0.7071 0.6797 0.1949
vn 0.7071 0.6797 0.1949
vn -0.7071 -0.6797 -0.1949
vn -0.0000 0.1045 -0.9945
vn -0.0000 -0.1045 0.9945
vn -0.0000 0.9945 0.1045
vn -0.0000 -0.9945 -0.1045
vn -0.0000 0.1392 -0.9903
vn 0.9239 0.3790 0.0533
vn -0.0000 -0.1392 0.9903
vn -0.9239 -0.3790 -0.0533
vn -0.3827 0.9149 0.1286
vn 0.3827 -0.9149 -0.1286
vn 0.7071 0.7002 0.0984
vn -0.7071 -0.7002 -0.0984
vn -0.7071 0.7002 0.0984
vn 0.7071 -0.7002 -0.0984
vn 0.3827 0.9149 0.1286
vn -0.3827 -0.9149 -0.1286
vn -0.9239 0.3790 0.0533
vn 0.9239 -0.3789 -0.0533
vn -0.0000 0.0958 -0.9954
vn -0.0000 -0.0958 0.9954
vn -0.0000 0.9954 0.0958
vn -0.0000 -0.9954 -0.0959
vn 0.9239 -0.3790 -0.0533
vn -0.9239 -0.3789 -0.0533
vn -0.0000 0.9962 0.0871
vn -0.0000 -0.9962 -0.0871
vn 0.7071 0.7044 0.0617
vn -0.7071 -0.7044 -0.0617
vn -0.7071 -0.7044 -0.0616
vn -0.7071 0.7044 0.0615
vn -0.7071 0.7044 0.0617
vn 0.7071 -0.7044 -0.0617
vn 0.7071 -0.7044 -0.0616
vn 0.7071 0.7044 0.0615
vn -0.0000 0.5000 -0.8660
vn 0.8434 0.4653 0.2686
vn -0.0000 -0.5000 0.8660
vn -0.8434 -0.4653 -0.2687
vn -0.8434 -0.4653 -0.2686
vn -0.5373 0.7304 0.4217
vn 0.5373 -0.7304 -0.4217
vn 0.5225 0.7384 0.4263
vn 0.5225 0.7384 0.4264
vn -0.5225 -0.7384 -0.4263
vn -0.5225 -0.7384 -0.4264
vn -0.5225 -0.7384 -0.4262
vn -0.8526 0.4525 0.2613
vn 0.8526 -0.4525 -0.2612
vn 0.8434 -0.4653 -0.2687
vn 0.8434 -0.4653 -0.2686
vn -0.8434 0.4653 0.2686
vn 0.5373 0.7304 0.4217
vn -0.5373 -0.7304 -0.4217
vn 0.5225 -0.7384 -0.4263
vn 0.5225 -0.7384 -0.4264
vn -0.5225 0.7384 0.4263
vn -0.5225 0.7384 0.4264
vn -0.5225 0.7384 0.4262
vn 0.8526 0.4525 0.2613
vn -0.8526 -0.4525 -0.2612
vn -0.2701 0.1119 -0.9563
vn 0.8547 -0.4295 -0.2916
vn 0.8547 -0.4295 -0.2917
vn 0.2701 -0.1119 0.9563
vn -0.8547 0.4295 0.2916
vn 0.4434 0.8961 -0.0204
vn -0.4434 -0.8961 0.0204
vn -0.3914 0.3228 -0.8617
vn 0.4171 -0.7725 -0.4789
vn 0.4171 -0.7725 -0.4788
vn 0.3914 -0.3228 0.8617
vn -0.4171 0.7725 0.4789
vn -0.4171 0.7725 0.4788
vn 0.8202 0.5469 -0.1677
vn -0.8202 -0.5469 0.1677
vn 0.2701 0.1119 -0.9563
vn 0.8547 0.4295 0.2916
vn 0.8546 0.4295 0.2917
vn -0.2701 -0.1119 0.9563
vn -0.8547 -0.4295 -0.2916
vn -0.4434 0.8961 -0.0204
vn 0.4434 -0.8961 0.0204
vn 0.3914 0.3228 -0.8617
vn 0.4171 0.7725 0.4789
vn 0.4171 0.7725 0.4788
vn -0.3914 -0.3228 0.8617
vn -0.4171 -0.7725 -0.4789
vn -0.8202 0.5469 -0.1677
vn 0.8202 -0.5469 0.1677
vn 0.2885 0.1838 -0.9397
vn 0.7925 0.5049 0.3420
vn -0.2885 -0.1838 0.9397
vn -0.7925 -0.5049 -0.3420
vn -0.5373 0.8434 -0.0000
vn 0.5373 -0.8434 -0.0000
vn -0.0000 0.3827 -0.9239
vn -0.0000 -0.3827 0.9239
vn -0.0000 0.9239 0.3827
vn -0.0000 -0.9239 -0.3827
vn -0.2885 0.1838 -0.9397
vn 0.7925 -0.5049 -0.3420
vn 0.2885 -0.1838 0.9397
vn -0.7925 0.5049 0.3420
vn 0.5373 0.8434 -0.0000
vn -0.5373 -0.8434 -0.0000
vn 0.9483 0.3173 -0.0000
vn -0.9483 -0.3173 -0.0000
vn -0.3173 0.9483 -0.0000
vn 0.3173 -0.9483 -0.0000
vn 0.9976 -0.0698 -0.0000
vn -0.9976 0.0698 -0.0000
vn 0.0698 0.9976 -0.0000
vn -0.0698 -0.9976 -0.0000
vn 0.9998 -0.0174 -0.0000
vn -0.9998 0.0174 -0.0000
vn 0.0174 0.9998 -0.0000
vn -0.0174 -0.9998 -0.0000
vn 0.9171 -0.3988 -0.0000
vn -0.9171 0.3987 -0.0000
vn 0.3988 0.9171 -0.0000
vn -0.3987 -0.9171 -0.0000
vn 0.9976 0.0698 -0.0000
vn -0.9976 -0.0698 -0.0000
vn -0.0697 0.9976 -0.0000
vn 0.0697 -0.9976 -0.0000
vn 0.0697 0.9976 -0.0000
vn -0.0697 -0.9976 -0.0000
vn -0.9239 0.0664 -0.3769
vn 0.5225 0.7384 0.4262
vn 0.5225 -0.7384 -0.4262
vn -0.8546 0.4295 0.2917
vn -0.8547 -0.4295 -0.2917
vn -0.4171 -0.7725 -0.4788
vt 0.398438 0.304688
vt 0.375000 0.328125
vt 0.375000 0.304688
vt 0.693359 0.414062
vt 0.671875 0.437500
vt 0.671875 0.414062
vt 0.539062 0.304688
vt 0.515625 0.328125
vt 0.515625 0.304688
vt 0.693359 0.382812
vt 0.671875 0.406250
vt 0.671875 0.382812
vt 0.671875 0.375000
vt 0.695312 0.353516
vt 0.695312 0.375000
vt 0.640625 0.306641
vt 0.664062 0.328125
vt 0.664062 0.306641
vt 0.468750 0.578125
vt 0.390625 0.625000
vt 0.390625 0.578125
vt 0.320312 0.828125
vt 0.281250 0.875000
vt 0.281250 0.828125
vt 0.484375 0.953125
vt 0.406250 1.000000
vt 0.406250 0.953125
vt 0.453125 0.687500
vt 0.492188 0.734375
vt 0.453125 0.734375
vt 0.218750 0.593750
vt 0.296875 0.554688
vt 0.296875 0.593750
vt 0.390625 0.539062
vt 0.468750 0.539062
vt 0.343750 0.734375
vt 0.250000 0.828125
vt 0.250000 0.734375
vt 0.162109 0.250000
vt 0.156250 0.343750
vt 0.156250 0.250000
vt 0.343750 0.640625
vt 0.250000 0.640625
vt 0.412109 0.234375
vt 0.406250 0.328125
vt 0.406250 0.234375
vt 0.671875 0.640625
vt 0.765625 0.634766
vt 0.765625 0.640625
vt 0.546875 0.322266
vt 0.640625 0.328125
vt 0.640625 0.322266
vt 0.640625 0.828125
vt 0.625000 0.843750
vt 0.625000 0.828125
vt 0.750000 0.890625
vt 0.751953 0.906250
vt 0.750000 0.906250
vt 0.640625 0.796875
vt 0.656250 0.812500
vt 0.640625 0.812500
vt 0.751953 0.828125
vt 0.750000 0.843750
vt 0.750000 0.828125
vt 0.171875 0.250000
vt 0.187500 0.248047
vt 0.187500 0.250000
vt 0.765625 0.826172
vt 0.765625 0.828125
vt 0.601562 0.660156
vt 0.562500 0.687500
vt 0.562500 0.660156
vt 0.205078 0.238281
vt 0.203125 0.265625
vt 0.203125 0.238281
vt 0.601562 0.582031
vt 0.562500 0.609375
vt 0.562500 0.582031
vt 0.375000 0.238281
vt 0.376953 0.265625
vt 0.375000 0.265625
vt 0.531250 0.265625
vt 0.570312 0.263672
vt 0.570312 0.265625
vt 0.734375 0.466797
vt 0.773438 0.468750
vt 0.773438 0.466797
vt 0.125000 0.703125
vt 0.000000 0.828125
vt 0.000000 0.703125
vt 0.390625 0.515625
vt 0.359375 0.640625
vt 0.359375 0.515625
vt 0.250000 0.703125
vt 0.125000 0.828125
vt 0.406250 0.687500
vt 0.375000 0.812500
vt 0.375000 0.687500
vt 0.500000 0.656250
vt 0.500000 0.687500
vt 0.515625 0.656250
vt 0.515625 0.625000
vt 0.250000 0.651367
vt 0.156250 0.703125
vt 0.156250 0.651367
vt 0.421875 0.370117
vt 0.406250 0.421875
vt 0.406250 0.370117
vt 0.437500 0.823242
vt 0.343750 0.875000
vt 0.343750 0.823242
vt 0.062500 0.338867
vt 0.078125 0.390625
vt 0.062500 0.390625
vt 0.531250 0.843750
vt 0.421875 0.453125
vt 0.515625 0.468750
vt 0.515625 0.453125
vt 0.395508 0.890625
vt 0.359375 1.000000
vt 0.359375 0.890625
vt 0.283203 0.437500
vt 0.265625 0.546875
vt 0.265625 0.437500
vt 0.031250 0.531250
vt 0.067383 0.640625
vt 0.031250 0.640625
vt 0.142578 0.421875
vt 0.125000 0.531250
vt 0.125000 0.421875
vt 0.281250 0.343750
vt 0.317383 0.326172
vt 0.317383 0.343750
vt 0.328125 0.326172
vt 0.364258 0.343750
vt 0.364258 0.326172
vt 0.520508 1.000000
vt 0.484375 1.000000
vt 0.343750 0.828125
vt 0.328125 0.875000
vt 0.328125 0.828125
vt 0.504883 0.468750
vt 0.468750 0.515625
vt 0.468750 0.468750
vt 0.171875 0.390625
vt 0.156250 0.390625
vt 0.640625 0.671875
vt 0.676758 0.656250
vt 0.676758 0.671875
vt 0.676758 0.453125
vt 0.640625 0.468750
vt 0.676758 0.468750
vt 0.629883 0.911133
vt 0.593750 0.937500
vt 0.593750 0.911133
vt 0.171875 0.504883
vt 0.156250 0.531250
vt 0.156250 0.504883
vt 0.629883 0.801758
vt 0.593750 0.828125
vt 0.593750 0.801758
vt 0.218750 0.473633
vt 0.203125 0.500000
vt 0.203125 0.473633
vt 0.656250 0.906250
vt 0.692383 0.890625
vt 0.692383 0.906250
vt 0.656250 0.437500
vt 0.692383 0.453125
vt 0.692383 0.437500
vt 0.333008 0.517578
vt 0.296875 0.517578
vt 0.453125 0.376953
vt 0.437500 0.453125
vt 0.437500 0.376953
vt 0.437500 0.814453
vt 0.473633 0.890625
vt 0.437500 0.890625
vt 0.468750 0.453125
vt 0.453125 0.453125
vt 0.562500 0.343750
vt 0.598633 0.328125
vt 0.598633 0.343750
vt 0.609375 0.328125
vt 0.645508 0.343750
vt 0.645508 0.328125
vt 0.132812 0.828125
vt 0.000000 1.000000
vt 0.367188 0.640625
vt 0.343750 0.812500
vt 0.273438 0.828125
vt 0.140625 1.000000
vt 0.140625 0.828125
vt 0.023438 0.468750
vt 0.000000 0.640625
vt 0.000000 0.468750
vt 0.539062 0.929688
vt 0.539062 0.953125
vt 0.406250 0.898438
vt 0.539062 0.921875
vt 0.539062 0.898438
vt 0.351562 0.354492
vt 0.312500 0.375000
vt 0.312500 0.354492
vt 0.093750 0.291992
vt 0.111328 0.312500
vt 0.093750 0.312500
vt 0.625000 0.635742
vt 0.664062 0.656250
vt 0.625000 0.656250
vt 0.125000 0.291992
vt 0.142578 0.312500
vt 0.125000 0.312500
vt 0.234375 0.359375
vt 0.273438 0.341797
vt 0.273438 0.359375
vt 0.679688 0.685547
vt 0.640625 0.703125
vt 0.679688 0.703125
vt 0.460938 0.354492
vt 0.421875 0.375000
vt 0.421875 0.354492
vt 0.171875 0.291992
vt 0.189453 0.312500
vt 0.171875 0.312500
vt 0.507812 0.354492
vt 0.468750 0.375000
vt 0.468750 0.354492
vt 0.220703 0.291992
vt 0.203125 0.312500
vt 0.203125 0.291992
vt 0.679688 0.625000
vt 0.640625 0.607422
vt 0.679688 0.607422
vt 0.640625 0.576172
vt 0.679688 0.593750
vt 0.679688 0.576172
vt 0.093750 0.359375
vt 0.078125 0.421875
vt 0.078125 0.359375
vt 0.359375 0.937500
vt 0.281250 1.000000
vt 0.281250 0.937500
vt 0.187500 0.359375
vt 0.171875 0.421875
vt 0.171875 0.359375
vt 0.359375 0.875000
vt 0.343750 0.593750
vt 0.359375 0.593750
vt 0.250000 0.390625
vt 0.265625 0.468750
vt 0.265625 0.390625
vt 0.203125 0.359375
vt 0.187500 0.421875
vt 0.078125 0.640625
vt 0.406250 0.359375
vt 0.390625 0.421875
vt 0.390625 0.359375
vt 0.156250 0.640625
vt 0.078125 0.703125
vt 0.546875 0.609375
vt 0.562500 0.531250
vt 0.437500 0.375000
vt 0.114258 0.531250
vt 0.078125 0.531250
vt 0.486328 0.625000
vt 0.468750 0.625000
vt 0.161133 0.531250
vt 0.125000 0.640625
vt 0.408203 0.531250
vt 0.390625 0.531250
vt 0.458008 0.343750
vt 0.421875 0.326172
vt 0.458008 0.326172
vt 0.468750 0.326172
vt 0.504883 0.343750
vt 0.504883 0.326172
vt 0.664062 0.416992
vt 0.625000 0.437500
vt 0.625000 0.416992
vt 0.251953 0.291992
vt 0.234375 0.312500
vt 0.234375 0.291992
vt 0.617188 0.354492
vt 0.578125 0.375000
vt 0.578125 0.354492
vt 0.283203 0.291992
vt 0.265625 0.312500
vt 0.265625 0.291992
vt 0.640625 0.562500
vt 0.679688 0.544922
vt 0.679688 0.562500
vt 0.640625 0.513672
vt 0.679688 0.531250
vt 0.679688 0.513672
vt 0.192383 0.453125
vt 0.156250 0.500000
vt 0.156250 0.453125
vt 0.078125 0.312500
vt 0.536133 0.781250
vt 0.500000 0.828125
vt 0.500000 0.781250
vt 0.140625 0.312500
vt 0.125000 0.359375
vt 0.692383 0.343750
vt 0.656250 0.328125
vt 0.692383 0.328125
vt 0.031250 0.312500
vt 0.067383 0.328125
vt 0.067383 0.312500
vt 0.625000 0.354492
vt 0.664062 0.375000
vt 0.625000 0.375000
vt 0.705078 0.713867
vt 0.687500 0.734375
vt 0.687500 0.713867
vt 0.679688 0.948242
vt 0.640625 0.968750
vt 0.640625 0.948242
vt 0.314453 0.291992
vt 0.296875 0.312500
vt 0.296875 0.291992
vt 0.640625 0.500000
vt 0.679688 0.482422
vt 0.679688 0.500000
vt 0.515625 0.341797
vt 0.554688 0.359375
vt 0.554688 0.341797
vt 0.296875 0.379883
vt 0.333008 0.406250
vt 0.296875 0.406250
vt 0.500000 0.661133
vt 0.515625 0.687500
vt 0.343750 0.379883
vt 0.379883 0.406250
vt 0.343750 0.406250
vt 0.078125 0.286133
vt 0.708008 0.937500
vt 0.671875 0.921875
vt 0.708008 0.921875
vt 0.671875 0.906250
vt 0.708008 0.906250
vt 0.489258 0.736328
vt 0.453125 0.812500
vt 0.453125 0.736328
vt 0.484375 0.376953
vt 0.468750 0.376953
vt 0.254883 0.470703
vt 0.218750 0.546875
vt 0.218750 0.470703
vt 0.500000 0.453125
vt 0.484375 0.453125
vt 0.671875 0.890625
vt 0.708008 0.875000
vt 0.708008 0.890625
vt 0.708008 0.859375
vt 0.671875 0.875000
vt 0.489258 0.812500
vt 0.067383 0.455078
vt 0.031250 0.455078
vt 0.515625 0.376953
vt 0.500000 0.376953
vt 0.114258 0.455078
vt 0.078125 0.455078
vt 0.218750 0.361328
vt 0.203125 0.437500
vt 0.203125 0.361328
vt 0.234375 0.328125
vt 0.270508 0.312500
vt 0.270508 0.328125
vt 0.708008 0.656250
vt 0.708008 0.640625
vt 0.763672 0.809570
vt 0.734375 0.812500
vt 0.734375 0.809570
vt 0.762695 0.528320
vt 0.734375 0.531250
vt 0.734375 0.528320
vt 0.734375 0.793945
vt 0.763672 0.796875
vt 0.734375 0.796875
vt 0.484375 0.262695
vt 0.512695 0.265625
vt 0.484375 0.265625
vt 0.625000 0.796875
vt 0.654297 0.768555
vt 0.654297 0.796875
vt 0.625000 0.737305
vt 0.654297 0.765625
vt 0.654297 0.737305
vt 0.734375 0.778320
vt 0.763672 0.781250
vt 0.734375 0.781250
vt 0.734375 0.512695
vt 0.762695 0.515625
vt 0.734375 0.515625
vt 0.763672 0.762695
vt 0.734375 0.765625
vt 0.734375 0.762695
vt 0.734375 0.497070
vt 0.762695 0.500000
vt 0.734375 0.500000
vt 0.654297 0.734375
vt 0.625000 0.706055
vt 0.654297 0.706055
vt 0.281250 0.346680
vt 0.310547 0.375000
vt 0.310547 0.346680
vt 0.763672 0.918945
vt 0.734375 0.921875
vt 0.734375 0.918945
vt 0.762695 0.575195
vt 0.734375 0.578125
vt 0.734375 0.575195
vt 0.123047 0.262695
vt 0.093750 0.265625
vt 0.093750 0.262695
vt 0.762695 0.559570
vt 0.734375 0.562500
vt 0.734375 0.559570
vt 0.609375 0.406250
vt 0.638672 0.377930
vt 0.638672 0.406250
vt 0.029297 0.346680
vt 0.000000 0.375000
vt 0.029297 0.375000
vt 0.154297 0.262695
vt 0.125000 0.265625
vt 0.125000 0.262695
vt 0.481445 0.262695
vt 0.453125 0.265625
vt 0.453125 0.262695
vt 0.201172 0.262695
vt 0.171875 0.265625
vt 0.171875 0.262695
vt 0.762695 0.543945
vt 0.734375 0.546875
vt 0.734375 0.543945
vt 0.625000 1.000000
vt 0.654297 0.971680
vt 0.654297 1.000000
vt 0.093750 0.346680
vt 0.123047 0.375000
vt 0.123047 0.346680
vt 0.539062 0.740234
vt 0.500000 0.740234
vt 0.244141 0.396484
vt 0.218750 0.437500
vt 0.218750 0.396484
vt 0.539062 0.693359
vt 0.500000 0.734375
vt 0.500000 0.693359
vt 0.291016 0.396484
vt 0.265625 0.396484
vt 0.578125 0.765625
vt 0.617188 0.740234
vt 0.617188 0.765625
vt 0.578125 0.708984
vt 0.617188 0.734375
vt 0.617188 0.708984
vt 0.552734 0.646484
vt 0.515625 0.646484
vt 0.562500 0.537109
vt 0.587891 0.578125
vt 0.562500 0.578125
vt 0.552734 0.490234
vt 0.515625 0.531250
vt 0.515625 0.490234
vt 0.562500 0.490234
vt 0.587891 0.531250
vt 0.630859 0.578125
vt 0.593750 0.552734
vt 0.630859 0.552734
vt 0.593750 0.521484
vt 0.630859 0.546875
vt 0.630859 0.521484
vt 0.515625 0.443359
vt 0.552734 0.484375
vt 0.515625 0.484375
vt 0.541016 0.396484
vt 0.515625 0.437500
vt 0.515625 0.396484
vt 0.568359 0.958984
vt 0.531250 1.000000
vt 0.531250 0.958984
vt 0.587891 0.443359
vt 0.562500 0.484375
vt 0.562500 0.443359
vt 0.593750 0.515625
vt 0.630859 0.490234
vt 0.630859 0.515625
vt 0.593750 0.458984
vt 0.630859 0.484375
vt 0.630859 0.458984
vt 0.539062 0.583984
vt 0.500000 0.625000
vt 0.500000 0.583984
vt 0.572266 0.396484
vt 0.546875 0.437500
vt 0.546875 0.396484
vt 0.539062 0.537109
vt 0.500000 0.578125
vt 0.500000 0.537109
vt 0.025391 0.380859
vt 0.000000 0.421875
vt 0.000000 0.380859
vt 0.578125 0.437500
vt 0.617188 0.412109
vt 0.617188 0.437500
vt 0.593750 0.943359
vt 0.632812 0.968750
vt 0.632812 0.943359
vt 0.716797 0.278320
vt 0.687500 0.281250
vt 0.687500 0.278320
vt 0.762695 0.747070
vt 0.734375 0.750000
vt 0.734375 0.747070
vt 0.748047 0.278320
vt 0.718750 0.281250
vt 0.718750 0.278320
vt 0.762695 0.731445
vt 0.734375 0.734375
vt 0.734375 0.731445
vt 0.031250 0.390625
vt 0.060547 0.362305
vt 0.060547 0.390625
vt 0.125000 0.362305
vt 0.154297 0.390625
vt 0.154297 0.362305
vt 0.029297 0.262695
vt 0.000000 0.265625
vt 0.000000 0.262695
vt 0.309570 0.262695
vt 0.281250 0.265625
vt 0.281250 0.262695
vt 0.763672 0.981445
vt 0.734375 0.984375
vt 0.734375 0.981445
vt 0.734375 0.715820
vt 0.762695 0.718750
vt 0.734375 0.718750
vt 0.218750 0.390625
vt 0.248047 0.362305
vt 0.248047 0.390625
vt 0.250000 0.362305
vt 0.279297 0.390625
vt 0.279297 0.362305
vt 0.060547 0.262695
vt 0.031250 0.265625
vt 0.031250 0.262695
vt 0.340820 0.262695
vt 0.312500 0.265625
vt 0.312500 0.262695
vt 0.763672 0.965820
vt 0.734375 0.968750
vt 0.734375 0.965820
vt 0.734375 0.668945
vt 0.762695 0.671875
vt 0.734375 0.671875
vt 0.609375 0.687500
vt 0.638672 0.659180
vt 0.638672 0.687500
vt 0.609375 0.581055
vt 0.638672 0.609375
vt 0.638672 0.581055
vt 0.091797 0.262695
vt 0.062500 0.265625
vt 0.062500 0.262695
vt 0.372070 0.262695
vt 0.343750 0.265625
vt 0.343750 0.262695
vt 0.763672 0.934570
vt 0.734375 0.937500
vt 0.734375 0.934570
vt 0.450195 0.262695
vt 0.421875 0.265625
vt 0.421875 0.262695
vt 0.515625 0.390625
vt 0.544922 0.362305
vt 0.544922 0.390625
vt 0.546875 0.362305
vt 0.576172 0.390625
vt 0.576172 0.362305
vt 0.421875 0.875000
vt 0.576172 0.359375
vt 0.562500 0.359375
vt 0.625000 0.640625
vt 0.562500 0.656250
vt 0.562500 0.640625
vt 0.388672 0.328125
vt 0.375000 0.343750
vt 0.593750 0.906250
vt 0.656250 0.892578
vt 0.593750 0.439453
vt 0.656250 0.453125
vt 0.656250 0.439453
vt 0.390625 0.640625
vt 0.375000 0.656250
vt 0.375000 0.640625
vt 0.544922 0.281250
vt 0.531250 0.296875
vt 0.531250 0.281250
vt 0.437500 0.875000
vt 0.421875 0.890625
vt 0.716797 0.390625
vt 0.703125 0.406250
vt 0.703125 0.390625
vt 0.718750 0.390625
vt 0.703125 0.376953
vt 0.718750 0.376953
vt 0.703125 0.361328
vt 0.718750 0.375000
vt 0.718750 0.361328
vt 0.500000 0.812500
vt 0.484375 0.828125
vt 0.484375 0.812500
vt 0.654297 0.281250
vt 0.640625 0.296875
vt 0.640625 0.281250
vt 0.515625 0.515625
vt 0.500000 0.531250
vt 0.500000 0.515625
vt 0.703125 0.343750
vt 0.716797 0.359375
vt 0.703125 0.359375
vt 0.656250 0.296875
vt 0.671875 0.283203
vt 0.671875 0.296875
vt 0.703125 0.330078
vt 0.718750 0.343750
vt 0.718750 0.330078
vt 0.255859 0.593750
vt 0.171875 0.640625
vt 0.171875 0.593750
vt 0.156250 0.312500
vt 0.140625 0.359375
vt 0.349609 0.593750
vt 0.265625 0.640625
vt 0.265625 0.593750
vt 0.656250 0.859375
vt 0.640625 0.859375
vt 0.546875 0.703125
vt 0.630859 0.687500
vt 0.630859 0.703125
vt 0.630859 0.625000
vt 0.630859 0.609375
vt 0.611328 0.625000
vt 0.515625 0.640625
vt 0.593750 0.953125
vt 0.578125 0.968750
vt 0.578125 0.953125
vt 0.626953 0.875000
vt 0.531250 0.890625
vt 0.531250 0.875000
vt 0.296875 0.375000
vt 0.281250 0.390625
vt 0.281250 0.375000
vt 0.626953 0.859375
vt 0.626953 0.843750
vt 0.700195 0.950195
vt 0.687500 0.984375
vt 0.687500 0.950195
vt 0.043945 0.278320
vt 0.031250 0.278320
vt 0.059570 0.278320
vt 0.046875 0.312500
vt 0.046875 0.278320
vt 0.075195 0.278320
vt 0.062500 0.312500
vt 0.062500 0.278320
vt 0.718750 0.812500
vt 0.731445 0.799805
vt 0.731445 0.812500
vt 0.203125 0.268555
vt 0.215820 0.281250
vt 0.215820 0.268555
vt 0.572266 0.281250
vt 0.562500 0.312500
vt 0.562500 0.281250
vt 0.698242 0.671875
vt 0.687500 0.703125
vt 0.687500 0.671875
vt 0.587891 0.281250
vt 0.578125 0.312500
vt 0.578125 0.281250
vt 0.328125 0.281250
vt 0.338867 0.312500
vt 0.328125 0.312500
vt 0.421875 0.281250
vt 0.431641 0.270508
vt 0.431641 0.281250
vt 0.718750 0.567383
vt 0.728516 0.578125
vt 0.728516 0.567383
vt 0.603516 0.281250
vt 0.593750 0.312500
vt 0.593750 0.281250
vt 0.343750 0.281250
vt 0.354492 0.312500
vt 0.343750 0.312500
vt 0.619141 0.281250
vt 0.609375 0.312500
vt 0.609375 0.281250
vt 0.359375 0.281250
vt 0.370117 0.312500
vt 0.359375 0.312500
vt 0.437500 0.281250
vt 0.447266 0.270508
vt 0.447266 0.281250
vt 0.728516 0.551758
vt 0.718750 0.562500
vt 0.728516 0.562500
vt 0.625000 0.281250
vt 0.634766 0.312500
vt 0.625000 0.312500
vt 0.698242 0.593750
vt 0.687500 0.625000
vt 0.687500 0.593750
vt 0.681641 0.281250
vt 0.671875 0.312500
vt 0.671875 0.281250
vt 0.687500 0.562500
vt 0.453125 0.281250
vt 0.462891 0.270508
vt 0.462891 0.281250
vt 0.728516 0.536133
vt 0.718750 0.546875
vt 0.728516 0.546875
vt 0.697266 0.312500
vt 0.687500 0.312500
vt 0.432617 0.281250
vt 0.421875 0.312500
vt 0.009766 0.265625
vt 0.000000 0.296875
vt 0.448242 0.312500
vt 0.437500 0.312500
vt 0.468750 0.281250
vt 0.478516 0.270508
vt 0.478516 0.281250
vt 0.718750 0.520508
vt 0.728516 0.531250
vt 0.728516 0.520508
vt 0.025391 0.265625
vt 0.015625 0.296875
vt 0.015625 0.265625
vt 0.687500 0.531250
vt 0.698242 0.562500
vt 0.712891 0.953125
vt 0.703125 0.984375
vt 0.703125 0.953125
vt 0.463867 0.281250
vt 0.453125 0.312500
vt 0.484375 0.281250
vt 0.494141 0.270508
vt 0.494141 0.281250
vt 0.718750 0.504883
vt 0.728516 0.515625
vt 0.728516 0.504883
vt 0.703125 0.828125
vt 0.712891 0.859375
vt 0.703125 0.859375
vt 0.479492 0.281250
vt 0.468750 0.312500
vt 0.703125 0.796875
vt 0.712891 0.828125
vt 0.698242 0.500000
vt 0.687500 0.500000
vt 0.500000 0.281250
vt 0.509766 0.270508
vt 0.509766 0.281250
vt 0.718750 0.489258
vt 0.728516 0.500000
vt 0.728516 0.489258
vt 0.712891 0.765625
vt 0.703125 0.765625
vt 0.495117 0.281250
vt 0.484375 0.312500
vt 0.712891 0.734375
vt 0.703125 0.734375
vt 0.510742 0.312500
vt 0.500000 0.312500
vt 0.541016 0.281250
vt 0.531250 0.270508
vt 0.541016 0.270508
vt 0.546875 0.270508
vt 0.556641 0.281250
vt 0.556641 0.270508
vt 0.712891 0.671875
vt 0.703125 0.703125
vt 0.703125 0.671875
vt 0.698242 0.468750
vt 0.687500 0.468750
vt 0.384766 0.265625
vt 0.375000 0.296875
vt 0.546875 0.281250
vt 0.557617 0.312500
vt 0.546875 0.312500
vt 0.562500 0.270508
vt 0.572266 0.270508
vt 0.578125 0.270508
vt 0.587891 0.270508
vt 0.212891 0.507812
vt 0.171875 0.507812
vt 0.706055 0.492188
vt 0.703125 0.578125
vt 0.703125 0.492188
vt 0.447266 0.726562
vt 0.406250 0.812500
vt 0.406250 0.726562
vt 0.518555 0.210938
vt 0.515625 0.296875
vt 0.515625 0.210938
vt 0.718750 0.656250
vt 0.759766 0.653320
vt 0.759766 0.656250
vt 0.718750 0.622070
vt 0.759766 0.625000
vt 0.759766 0.622070
vt 0.455078 0.479492
vt 0.421875 0.531250
vt 0.421875 0.479492
vt 0.721680 0.745117
vt 0.718750 0.796875
vt 0.718750 0.745117
vt 0.517578 0.838867
vt 0.484375 0.890625
vt 0.484375 0.838867
vt 0.218750 0.229492
vt 0.221680 0.281250
vt 0.218750 0.281250
vt 0.626953 0.278320
vt 0.626953 0.281250
vt 0.718750 0.403320
vt 0.751953 0.406250
vt 0.751953 0.403320
vt 0.330078 0.463867
vt 0.296875 0.515625
vt 0.296875 0.463867
vt 0.237305 0.229492
vt 0.234375 0.281250
vt 0.234375 0.229492
vt 0.376953 0.463867
vt 0.343750 0.515625
vt 0.343750 0.463867
vt 0.250000 0.229492
vt 0.252930 0.281250
vt 0.250000 0.281250
vt 0.751953 0.387695
vt 0.751953 0.390625
vt 0.718750 0.372070
vt 0.751953 0.375000
vt 0.751953 0.372070
vt 0.656250 0.840820
vt 0.692383 0.859375
vt 0.111328 0.231445
vt 0.109375 0.250000
vt 0.109375 0.231445
vt 0.692383 0.809570
vt 0.656250 0.828125
vt 0.656250 0.809570
vt 0.126953 0.231445
vt 0.125000 0.250000
vt 0.125000 0.231445
vt 0.614258 0.265625
vt 0.578125 0.263672
vt 0.614258 0.263672
vt 0.770508 0.357422
vt 0.734375 0.359375
vt 0.770508 0.359375
vt 0.692383 0.778320
vt 0.656250 0.796875
vt 0.656250 0.778320
vt 0.140625 0.231445
vt 0.142578 0.250000
vt 0.140625 0.250000
vt 0.692383 0.747070
vt 0.656250 0.765625
vt 0.656250 0.747070
vt 0.156250 0.231445
vt 0.158203 0.250000
vt 0.734375 0.343750
vt 0.770508 0.341797
vt 0.770508 0.343750
vt 0.723633 0.263672
vt 0.687500 0.265625
vt 0.723633 0.265625
vt 0.546875 0.921875
vt 0.591797 0.953125
vt 0.546875 0.953125
vt 0.643555 0.250000
vt 0.640625 0.250000
vt 0.546875 0.890625
vt 0.591797 0.921875
vt 0.721680 0.328125
vt 0.718750 0.359375
vt 0.718750 0.328125
vt 0.281250 0.281250
vt 0.326172 0.278320
vt 0.326172 0.281250
vt 0.763672 0.700195
vt 0.718750 0.703125
vt 0.763672 0.703125
vt 0.359375 0.348633
vt 0.387695 0.375000
vt 0.359375 0.375000
vt 0.625000 0.239258
vt 0.626953 0.265625
vt 0.625000 0.265625
vt 0.059570 0.333008
vt 0.031250 0.359375
vt 0.031250 0.333008
vt 0.064453 0.223633
vt 0.062500 0.250000
vt 0.062500 0.223633
vt 0.762695 0.265625
vt 0.734375 0.263672
vt 0.762695 0.263672
vt 0.000000 0.248047
vt 0.028320 0.250000
vt 0.028320 0.248047
vt 0.201172 0.421875
vt 0.156250 0.421875
vt 0.656250 0.250000
vt 0.659180 0.281250
vt 0.656250 0.281250
vt 0.591797 0.796875
vt 0.546875 0.828125
vt 0.546875 0.796875
vt 0.671875 0.250000
vt 0.674805 0.281250
vt 0.763672 0.687500
vt 0.718750 0.684570
vt 0.763672 0.684570
vt 0.328125 0.278320
vt 0.373047 0.281250
vt 0.373047 0.278320
vt 0.668945 0.911133
vt 0.640625 0.937500
vt 0.640625 0.911133
vt 0.078125 0.223633
vt 0.080078 0.250000
vt 0.078125 0.250000
vt 0.640625 0.864258
vt 0.668945 0.890625
vt 0.640625 0.890625
vt 0.095703 0.223633
vt 0.093750 0.250000
vt 0.093750 0.223633
vt 0.031250 0.250000
vt 0.059570 0.248047
vt 0.059570 0.250000
vt 0.778320 0.951172
vt 0.750000 0.953125
vt 0.778320 0.953125
vt 0.687500 0.666016
vt 0.192383 0.244141
vt 0.187500 0.244141
vt 0.687500 0.462891
vt 0.734375 0.468750
vt 0.270508 0.244141
vt 0.265625 0.250000
vt 0.265625 0.244141
vt 0.703125 0.484375
vt 0.750000 0.479492
vt 0.750000 0.484375
vt 0.703125 0.448242
vt 0.750000 0.453125
vt 0.750000 0.448242
vt 0.737305 0.322266
vt 0.703125 0.328125
vt 0.703125 0.322266
vt 0.286133 0.244141
vt 0.281250 0.250000
vt 0.281250 0.244141
vt 0.737305 0.306641
vt 0.703125 0.312500
vt 0.703125 0.306641
vt 0.296875 0.244141
vt 0.301758 0.250000
vt 0.296875 0.250000
vt 0.112305 0.281250
vt 0.078125 0.276367
vt 0.112305 0.276367
vt 0.718750 0.885742
vt 0.752930 0.890625
vt 0.752930 0.885742
vt 0.750000 0.947266
vt 0.703125 0.947266
vt 0.312500 0.244141
vt 0.317383 0.250000
vt 0.312500 0.250000
vt 0.703125 0.900391
vt 0.703125 0.906250
vt 0.328125 0.244141
vt 0.333008 0.250000
vt 0.328125 0.250000
vt 0.750000 0.437500
vt 0.703125 0.432617
vt 0.750000 0.432617
vt 0.703125 0.416992
vt 0.750000 0.421875
vt 0.750000 0.416992
vt 0.737305 0.291016
vt 0.703125 0.296875
vt 0.703125 0.291016
vt 0.348633 0.244141
vt 0.343750 0.250000
vt 0.343750 0.244141
vt 0.718750 0.994141
vt 0.752930 1.000000
vt 0.718750 1.000000
vt 0.359375 0.244141
vt 0.364258 0.250000
vt 0.359375 0.250000
vt 0.718750 0.875000
vt 0.752930 0.870117
vt 0.752930 0.875000
vt 0.718750 0.854492
vt 0.752930 0.859375
vt 0.752930 0.854492
vt 0.406250 0.718750
vt 0.412109 0.328125
vt 0.390625 0.328125
vt 0.250000 0.437500
vt 0.203125 0.468750
vt 0.662109 0.375000
vt 0.640625 0.406250
vt 0.640625 0.375000
vt 0.578125 1.000000
vt 0.625000 0.978516
vt 0.031250 0.400391
vt 0.078125 0.400391
vt 0.693359 0.406250
vt 0.046875 0.421875
vt 0.000000 0.453125
vt 0.021484 0.312500
vt 0.000000 0.343750
vt 0.000000 0.312500
vt 0.093750 0.453125
vt 0.046875 0.453125
vt 0.677734 0.968750
vt 0.656250 1.000000
vt 0.656250 0.968750
vt 0.171875 0.400391
vt 0.578125 0.775391
vt 0.625000 0.775391
vt 0.122070 0.406250
vt 0.093750 0.406250
vt 0.187500 0.312500
vt 0.575195 0.750000
vt 0.546875 0.750000
vt 0.028320 0.453125
vt 0.028320 0.468750
vt 0.700195 0.328125
vt 0.700195 0.312500
vt 0.356445 0.409180
vt 0.328125 0.453125
vt 0.328125 0.409180
vt 0.708984 0.581055
vt 0.703125 0.625000
vt 0.703125 0.581055
vt 0.387695 0.409180
vt 0.359375 0.453125
vt 0.359375 0.409180
vt 0.396484 0.252930
vt 0.390625 0.296875
vt 0.390625 0.252930
vt 0.125000 0.281250
vt 0.153320 0.275391
vt 0.153320 0.281250
vt 0.718750 0.837891
vt 0.747070 0.843750
vt 0.747070 0.837891
vt 0.122070 0.375000
vt 0.093750 0.375000
vt 0.724609 0.953125
vt 0.718750 0.984375
vt 0.718750 0.953125
vt 0.606445 0.375000
vt 0.578125 0.406250
vt 0.724609 0.906250
vt 0.718750 0.937500
vt 0.718750 0.906250
vt 0.171875 0.281250
vt 0.200195 0.275391
vt 0.200195 0.281250
vt 0.718750 0.822266
vt 0.747070 0.828125
vt 0.747070 0.822266
vt 0.218750 0.312500
vt 0.325195 0.406250
vt 0.296875 0.453125
vt 0.218750 0.359375
vt 0.028320 0.296875
vt 0.028320 0.312500
vt 0.715820 1.000000
vt 0.715820 0.984375
vt 0.117188 0.315430
vt 0.093750 0.343750
vt 0.093750 0.315430
vt 0.270508 0.252930
vt 0.265625 0.281250
vt 0.265625 0.252930
vt 0.656250 0.706055
vt 0.679688 0.734375
vt 0.656250 0.734375
vt 0.723633 0.706055
vt 0.718750 0.734375
vt 0.718750 0.706055
vt 0.718750 0.609375
vt 0.742188 0.604492
vt 0.742188 0.609375
vt 0.718750 0.588867
vt 0.742188 0.593750
vt 0.742188 0.588867
vt 0.398438 0.328125
vt 0.693359 0.437500
vt 0.539062 0.328125
vt 0.671875 0.353516
vt 0.320312 0.875000
vt 0.492188 0.687500
vt 0.218750 0.554688
vt 0.162109 0.343750
vt 0.671875 0.634766
vt 0.546875 0.328125
vt 0.640625 0.843750
vt 0.751953 0.890625
vt 0.751953 0.843750
vt 0.171875 0.248047
vt 0.750000 0.826172
vt 0.601562 0.687500
vt 0.205078 0.265625
vt 0.601562 0.609375
vt 0.376953 0.238281
vt 0.531250 0.263672
vt 0.390625 0.656250
vt 0.421875 0.421875
vt 0.078125 0.338867
vt 0.531250 0.828125
vt 0.421875 0.468750
vt 0.395508 1.000000
vt 0.283203 0.546875
vt 0.067383 0.531250
vt 0.142578 0.531250
vt 0.281250 0.326172
vt 0.328125 0.343750
vt 0.520508 0.953125
vt 0.504883 0.515625
vt 0.171875 0.343750
vt 0.640625 0.656250
vt 0.640625 0.453125
vt 0.629883 0.937500
vt 0.171875 0.531250
vt 0.629883 0.828125
vt 0.218750 0.500000
vt 0.656250 0.890625
vt 0.333008 0.593750
vt 0.473633 0.814453
vt 0.562500 0.328125
vt 0.609375 0.343750
vt 0.132812 1.000000
vt 0.367188 0.812500
vt 0.273438 1.000000
vt 0.023438 0.640625
vt 0.406250 0.929688
vt 0.406250 0.921875
vt 0.351562 0.375000
vt 0.111328 0.291992
vt 0.664062 0.635742
vt 0.142578 0.291992
vt 0.234375 0.341797
vt 0.640625 0.685547
vt 0.460938 0.375000
vt 0.189453 0.291992
vt 0.507812 0.375000
vt 0.220703 0.312500
vt 0.640625 0.625000
vt 0.640625 0.593750
vt 0.093750 0.421875
vt 0.250000 0.468750
vt 0.203125 0.421875
vt 0.546875 0.531250
vt 0.114258 0.640625
vt 0.486328 0.515625
vt 0.161133 0.640625
vt 0.408203 0.421875
vt 0.421875 0.343750
vt 0.468750 0.343750
vt 0.664062 0.437500
vt 0.251953 0.312500
vt 0.617188 0.375000
vt 0.283203 0.312500
vt 0.640625 0.544922
vt 0.640625 0.531250
vt 0.192383 0.500000
vt 0.536133 0.828125
vt 0.656250 0.343750
vt 0.031250 0.328125
vt 0.664062 0.354492
vt 0.705078 0.734375
vt 0.679688 0.968750
vt 0.314453 0.312500
vt 0.640625 0.482422
vt 0.515625 0.359375
vt 0.333008 0.379883
vt 0.515625 0.661133
vt 0.379883 0.379883
vt 0.093750 0.286133
vt 0.671875 0.937500
vt 0.254883 0.546875
vt 0.671875 0.859375
vt 0.671875 0.656250
vt 0.763672 0.812500
vt 0.762695 0.531250
vt 0.763672 0.793945
vt 0.512695 0.262695
vt 0.625000 0.768555
vt 0.625000 0.765625
vt 0.763672 0.778320
vt 0.762695 0.512695
vt 0.763672 0.765625
vt 0.762695 0.497070
vt 0.625000 0.734375
vt 0.763672 0.921875
vt 0.762695 0.578125
vt 0.123047 0.265625
vt 0.762695 0.562500
vt 0.609375 0.377930
vt 0.000000 0.346680
vt 0.154297 0.265625
vt 0.481445 0.265625
vt 0.201172 0.265625
vt 0.762695 0.546875
vt 0.625000 0.971680
vt 0.539062 0.781250
vt 0.244141 0.437500
vt 0.539062 0.734375
vt 0.291016 0.437500
vt 0.578125 0.740234
vt 0.578125 0.734375
vt 0.552734 0.687500
vt 0.587891 0.537109
vt 0.552734 0.531250
vt 0.587891 0.490234
vt 0.593750 0.578125
vt 0.593750 0.546875
vt 0.552734 0.443359
vt 0.541016 0.437500
vt 0.568359 1.000000
vt 0.587891 0.484375
vt 0.593750 0.490234
vt 0.593750 0.484375
vt 0.539062 0.625000
vt 0.572266 0.437500
vt 0.539062 0.578125
vt 0.025391 0.421875
vt 0.578125 0.412109
vt 0.593750 0.968750
vt 0.716797 0.281250
vt 0.762695 0.750000
vt 0.748047 0.281250
vt 0.762695 0.734375
vt 0.031250 0.362305
vt 0.125000 0.390625
vt 0.029297 0.265625
vt 0.309570 0.265625
vt 0.763672 0.984375
vt 0.762695 0.715820
vt 0.218750 0.362305
vt 0.060547 0.265625
vt 0.340820 0.265625
vt 0.763672 0.968750
vt 0.762695 0.668945
vt 0.609375 0.659180
vt 0.609375 0.609375
vt 0.091797 0.265625
vt 0.372070 0.265625
vt 0.763672 0.937500
vt 0.450195 0.265625
vt 0.515625 0.362305
vt 0.546875 0.390625
vt 0.576172 0.343750
vt 0.388672 0.343750
vt 0.593750 0.892578
vt 0.593750 0.453125
vt 0.544922 0.296875
vt 0.716797 0.406250
vt 0.703125 0.375000
vt 0.654297 0.296875
vt 0.716797 0.343750
vt 0.656250 0.283203
vt 0.255859 0.640625
vt 0.156250 0.359375
vt 0.349609 0.640625
vt 0.546875 0.687500
vt 0.546875 0.625000
vt 0.611328 0.640625
vt 0.626953 0.890625
vt 0.296875 0.390625
vt 0.531250 0.859375
vt 0.700195 0.984375
vt 0.043945 0.312500
vt 0.059570 0.312500
vt 0.075195 0.312500
vt 0.718750 0.799805
vt 0.203125 0.281250
vt 0.572266 0.312500
vt 0.698242 0.703125
vt 0.587891 0.312500
vt 0.338867 0.281250
vt 0.421875 0.270508
vt 0.718750 0.578125
vt 0.603516 0.312500
vt 0.354492 0.281250
vt 0.619141 0.312500
vt 0.370117 0.281250
vt 0.437500 0.270508
vt 0.718750 0.551758
vt 0.634766 0.281250
vt 0.698242 0.625000
vt 0.681641 0.312500
vt 0.453125 0.270508
vt 0.718750 0.536133
vt 0.697266 0.281250
vt 0.432617 0.312500
vt 0.009766 0.296875
vt 0.448242 0.281250
vt 0.468750 0.270508
vt 0.718750 0.531250
vt 0.025391 0.296875
vt 0.698242 0.531250
vt 0.712891 0.984375
vt 0.463867 0.312500
vt 0.484375 0.270508
vt 0.718750 0.515625
vt 0.479492 0.312500
vt 0.712891 0.796875
vt 0.500000 0.270508
vt 0.718750 0.500000
vt 0.495117 0.312500
vt 0.510742 0.281250
vt 0.712891 0.703125
vt 0.384766 0.296875
vt 0.557617 0.281250
vt 0.212891 0.593750
vt 0.706055 0.578125
vt 0.447266 0.812500
vt 0.518555 0.296875
vt 0.718750 0.653320
vt 0.718750 0.625000
vt 0.455078 0.531250
vt 0.721680 0.796875
vt 0.517578 0.890625
vt 0.221680 0.229492
vt 0.593750 0.278320
vt 0.718750 0.406250
vt 0.330078 0.515625
vt 0.237305 0.281250
vt 0.376953 0.515625
vt 0.252930 0.229492
vt 0.718750 0.387695
vt 0.692383 0.840820
vt 0.111328 0.250000
vt 0.692383 0.828125
vt 0.126953 0.250000
vt 0.578125 0.265625
vt 0.734375 0.357422
vt 0.692383 0.796875
vt 0.142578 0.231445
vt 0.692383 0.765625
vt 0.158203 0.231445
vt 0.734375 0.341797
vt 0.687500 0.263672
vt 0.643555 0.281250
vt 0.591797 0.890625
vt 0.721680 0.359375
vt 0.281250 0.278320
vt 0.718750 0.700195
vt 0.387695 0.348633
vt 0.626953 0.239258
vt 0.059570 0.359375
vt 0.064453 0.250000
vt 0.734375 0.265625
vt 0.000000 0.250000
vt 0.201172 0.453125
vt 0.659180 0.250000
vt 0.591797 0.828125
vt 0.674805 0.250000
vt 0.718750 0.687500
vt 0.668945 0.937500
vt 0.080078 0.223633
vt 0.668945 0.864258
vt 0.095703 0.250000
vt 0.031250 0.248047
vt 0.750000 0.951172
vt 0.734375 0.666016
vt 0.192383 0.250000
vt 0.734375 0.462891
vt 0.270508 0.250000
vt 0.703125 0.479492
vt 0.703125 0.453125
vt 0.737305 0.328125
vt 0.286133 0.250000
vt 0.737305 0.312500
vt 0.301758 0.244141
vt 0.078125 0.281250
vt 0.718750 0.890625
vt 0.317383 0.244141
vt 0.750000 0.900391
vt 0.333008 0.244141
vt 0.703125 0.437500
vt 0.703125 0.421875
vt 0.737305 0.296875
vt 0.348633 0.250000
vt 0.752930 0.994141
vt 0.364258 0.244141
vt 0.718750 0.870117
vt 0.718750 0.859375
vt 0.453125 0.718750
vt 0.412109 0.359375
vt 0.662109 0.406250
vt 0.578125 0.978516
vt 0.031250 0.421875
vt 0.021484 0.343750
vt 0.677734 1.000000
vt 0.125000 0.400391
vt 0.578125 0.796875
vt 0.122070 0.453125
vt 0.575195 0.796875
vt 0.671875 0.328125
vt 0.356445 0.453125
vt 0.708984 0.625000
vt 0.387695 0.453125
vt 0.396484 0.296875
vt 0.125000 0.275391
vt 0.718750 0.843750
vt 0.724609 0.984375
vt 0.606445 0.406250
vt 0.724609 0.937500
vt 0.171875 0.275391
vt 0.718750 0.828125
vt 0.575195 0.703125
vt 0.325195 0.453125
vt 0.687500 1.000000
vt 0.117188 0.343750
vt 0.270508 0.281250
vt 0.679688 0.706055
vt 0.723633 0.734375
vt 0.718750 0.604492
vt 0.718750 0.593750
s 1
usemtl m_f7a5edba-4636-a567-d631-a04eec83eb83
f 7/1/1 2/2/1 4/3/1
f 4/4/2 1/5/2 3/6/2
f 3/7/3 6/8/3 8/9/3
f 8/10/4 5/11/4 7/12/4
f 1/13/5 5/14/5 6/15/5
f 4/16/6 8/17/6 7/18/6
f 15/19/7 10/20/7 12/21/7
f 12/22/2 9/23/2 11/24/2
f 11/25/8 14/26/8 16/27/8
f 15/28/4 14/29/4 13/30/4
f 9/31/9 13/32/9 14/33/9
f 12/34/10 16/19/10 15/35/10
f 23/36/11 18/37/11 20/38/11
f 20/39/2 17/40/2 19/41/2
f 19/42/12 22/38/12 24/43/12
f 24/44/4 21/45/4 23/46/4
f 17/47/13 21/48/13 22/49/13
f 20/50/14 24/51/14 23/52/14
f 31/53/15 26/54/15 28/55/15
f 27/56/16 26/57/16 25/58/16
f 32/59/17 25/60/17 30/61/17
f 32/62/18 29/63/18 31/64/18
f 25/65/19 29/66/19 30/67/19
f 31/68/20 27/64/21 32/69/20
f 39/70/22 34/71/22 36/72/22
f 36/73/2 33/74/2 35/75/2
f 35/76/8 38/77/8 40/78/8
f 39/79/4 38/80/4 37/81/4
f 33/82/9 37/83/9 38/84/9
f 36/85/10 40/86/10 39/87/10
f 47/88/23 42/89/23 44/90/23
f 44/91/2 41/92/2 43/93/2
f 43/94/24 46/95/24 48/88/24
f 48/96/4 45/97/4 47/98/4
f 41/98/25 45/99/25 46/100/25
f 44/20/26 48/101/26 47/102/26
f 55/103/27 50/104/27 52/105/27
f 52/106/2 49/107/2 51/108/2
f 51/109/28 54/110/28 56/111/28
f 55/112/4 54/113/4 53/114/4
f 49/115/29 53/55/29 54/54/29
f 52/116/30 56/117/31 55/118/31
f 63/119/32 58/120/32 60/121/32
f 60/122/33 57/123/33 59/124/33
f 64/125/34 57/126/34 62/127/34
f 64/128/35 61/129/35 63/130/35
f 57/131/36 61/132/36 62/133/36
f 60/134/37 64/135/37 63/136/37
f 68/25/38 69/137/38 66/138/38
f 68/139/33 65/140/33 67/141/33
f 67/142/39 70/143/39 72/144/39
f 71/40/35 70/145/35 69/146/35
f 65/147/40 69/148/40 70/149/40
f 71/150/41 67/151/41 72/152/41
f 79/153/42 74/154/42 76/155/42
f 76/156/43 73/157/43 75/158/43
f 75/159/44 78/160/44 80/161/44
f 80/162/45 77/163/45 79/164/45
f 73/165/46 77/166/46 78/167/46
f 76/168/47 80/169/47 79/170/47
f 87/171/48 82/33/48 84/172/48
f 84/173/49 81/174/49 83/175/49
f 88/176/50 81/177/50 86/178/50
f 87/173/51 86/179/51 85/180/51
f 81/181/52 85/182/52 86/183/52
f 84/184/53 88/185/53 87/186/53
f 95/187/23 90/188/23 92/89/23
f 92/189/2 89/190/2 91/42/2
f 91/191/24 94/192/24 96/193/24
f 96/194/4 93/195/4 95/196/4
f 89/27/25 93/197/25 94/198/25
f 92/199/26 96/200/26 95/201/26
f 103/202/38 98/203/38 100/204/38
f 99/205/33 98/206/33 97/207/33
f 104/208/39 97/209/39 102/210/39
f 103/211/35 102/212/35 101/213/35
f 97/214/40 101/215/40 102/216/40
f 103/217/41 99/218/41 104/219/41
f 111/220/38 106/221/38 108/222/38
f 107/223/33 106/224/33 105/225/33
f 107/226/39 110/227/39 112/228/39
f 112/229/35 109/230/35 111/231/35
f 110/232/40 106/233/40 109/234/40
f 108/235/41 112/236/41 111/237/41
f 119/238/23 114/239/23 116/240/23
f 116/241/2 113/242/2 115/243/2
f 115/244/24 118/245/24 120/246/24
f 120/247/4 117/243/4 119/23/4
f 113/248/25 117/93/25 118/249/25
f 116/250/26 120/251/26 119/252/26
f 127/253/23 122/254/23 124/244/23
f 124/255/2 121/90/2 123/195/2
f 123/256/24 126/257/24 128/258/24
f 128/259/4 125/260/4 127/255/4
f 121/261/25 125/262/25 126/77/25
f 124/221/26 128/174/26 127/263/26
f 135/264/54 130/255/54 132/265/54
f 131/143/55 130/266/55 129/267/55
f 131/268/56 134/269/56 136/129/56
f 135/257/57 134/270/57 133/271/57
f 134/272/58 130/273/58 133/274/58
f 132/275/59 136/276/59 135/277/59
f 143/278/60 138/279/60 140/280/60
f 140/281/55 137/282/55 139/283/55
f 139/284/61 142/285/61 144/286/61
f 144/287/57 141/288/57 143/289/57
f 137/290/62 141/291/62 142/292/62
f 140/293/63 144/294/63 143/295/63
f 151/296/60 146/297/60 148/298/60
f 148/207/55 145/240/55 147/299/55
f 147/300/61 150/301/61 152/302/61
f 152/303/57 149/304/57 151/213/57
f 150/305/62 146/306/62 149/307/62
f 148/308/63 152/309/63 151/310/63
f 156/311/60 157/312/60 154/313/60
f 156/314/55 153/315/55 155/316/55
f 155/317/61 158/318/61 160/319/61
f 160/320/57 157/321/57 159/322/57
f 153/323/62 157/324/62 158/325/62
f 156/326/63 160/327/63 159/328/63
f 164/329/64 165/330/64 162/331/64
f 163/332/65 162/333/65 161/100/65
f 168/334/66 161/335/66 166/336/66
f 167/337/67 166/207/67 165/299/67
f 166/338/68 162/339/68 165/340/68
f 164/341/69 168/340/69 167/342/69
f 175/343/70 170/344/70 172/345/70
f 172/346/71 169/179/71 171/347/71
f 171/348/72 174/349/72 176/350/72
f 175/346/73 174/351/73 173/352/73
f 169/353/74 173/354/74 174/355/74
f 175/356/75 171/357/75 176/354/75
f 180/345/76 181/358/76 178/344/76
f 179/347/71 178/352/71 177/179/71
f 179/348/77 182/349/77 184/350/77
f 183/346/78 182/351/78 181/352/78
f 182/355/79 178/357/79 181/354/79
f 183/356/80 179/357/80 184/354/80
f 191/359/81 186/125/81 188/360/81
f 188/361/82 185/351/82 187/362/82
f 187/363/83 190/265/83 192/364/83
f 192/365/51 189/366/51 191/367/51
f 185/368/84 189/369/84 190/370/84
f 188/47/85 192/371/85 191/372/85
f 199/373/86 194/374/87 196/375/87
f 196/376/88 193/377/88 195/378/88
f 200/379/89 193/380/90 198/381/89
f 199/382/91 198/383/92 197/384/91
f 193/385/93 197/386/93 198/387/93
f 196/388/94 200/389/94 199/390/94
f 204/391/95 205/392/95 202/393/95
f 203/394/88 202/395/96 201/396/88
f 203/397/97 206/398/94 208/399/94
f 207/400/91 206/401/98 205/402/91
f 206/403/89 202/404/89 205/405/89
f 204/406/87 208/407/87 207/408/99
f 215/409/100 210/410/101 212/411/101
f 212/412/102 209/413/103 211/414/103
f 211/415/104 214/416/105 216/417/105
f 216/418/106 213/419/106 215/420/106
f 209/421/107 213/422/107 214/423/107
f 215/424/108 211/425/108 216/426/108
f 223/427/109 218/428/107 220/429/107
f 220/430/102 217/431/110 219/432/110
f 219/433/108 222/434/111 224/435/111
f 224/436/106 221/437/112 223/438/112
f 217/439/104 221/440/104 222/441/104
f 220/442/100 224/443/100 223/444/113
f 231/445/114 226/302/114 228/446/114
f 228/447/2 225/448/2 227/449/2
f 227/450/115 230/451/115 232/452/115
f 232/453/4 229/124/4 231/454/4
f 225/455/116 229/456/116 230/457/116
f 228/458/117 232/459/118 231/460/118
f 239/461/119 234/333/119 236/462/119
f 235/463/120 234/464/120 233/465/120
f 235/466/121 238/467/121 240/468/121
f 239/469/122 238/470/122 237/262/122
f 238/471/116 234/472/116 237/473/116
f 236/474/118 240/475/118 239/476/117
f 244/477/123 245/478/123 242/479/123
f 244/480/124 241/481/124 243/482/124
f 243/483/125 246/484/125 248/485/125
f 248/486/126 245/487/126 247/488/126
f 241/489/116 245/490/116 246/491/127
f 244/492/117 248/493/117 247/494/118
f 255/495/114 250/496/114 252/497/114
f 252/498/2 249/499/2 251/500/2
f 251/501/115 254/502/115 256/503/115
f 256/504/4 253/505/4 255/506/4
f 249/507/116 253/508/116 254/509/116
f 252/510/117 256/511/118 255/512/118
f 263/513/127 258/514/127 260/515/127
f 260/516/2 257/517/2 259/518/2
f 259/519/117 262/520/117 264/521/117
f 264/522/4 261/523/4 263/524/4
f 257/525/115 261/526/115 262/527/115
f 260/528/114 264/529/114 263/530/114
f 271/531/128 266/532/128 268/533/128
f 268/534/2 265/535/2 267/536/2
f 267/537/129 270/538/129 272/539/129
f 271/540/4 270/541/4 269/542/4
f 265/543/127 269/544/127 270/545/127
f 268/546/117 272/547/117 271/548/117
f 279/549/128 274/550/128 276/551/128
f 276/552/2 273/553/2 275/554/2
f 275/555/129 278/556/129 280/557/129
f 279/558/4 278/559/4 277/560/4
f 273/561/127 277/562/127 278/563/127
f 276/564/117 280/565/117 279/566/117
f 287/567/127 282/568/127 284/569/127
f 284/570/2 281/571/2 283/572/2
f 283/573/117 286/574/117 288/575/117
f 288/576/4 285/577/4 287/578/4
f 281/579/115 285/580/115 286/581/115
f 284/582/114 288/583/114 287/584/114
f 295/585/130 290/121/130 292/247/130
f 291/181/2 290/586/2 289/587/2
f 291/588/131 294/589/131 296/590/131
f 296/591/4 293/592/4 295/2/4
f 289/593/132 293/594/132 294/165/132
f 292/595/133 296/596/133 295/597/133
f 303/598/130 298/599/130 300/600/130
f 300/601/134 297/602/134 299/603/134
f 299/604/131 302/605/131 304/585/131
f 304/606/135 301/607/135 303/608/135
f 302/609/136 298/610/136 301/611/136
f 300/612/137 304/613/137 303/614/137
f 311/615/130 306/616/130 308/617/130
f 308/618/134 305/619/134 307/620/134
f 307/621/131 310/622/131 312/623/131
f 311/624/135 310/625/135 309/626/135
f 305/627/136 309/628/136 310/629/136
f 308/630/137 312/631/137 311/632/137
f 319/633/130 314/634/130 316/635/130
f 316/636/2 313/637/2 315/303/2
f 315/638/131 318/639/131 320/640/131
f 319/61/4 318/641/4 317/642/4
f 313/643/132 317/644/132 318/645/132
f 316/261/133 320/646/133 319/647/133
f 327/648/23 322/649/23 324/102/23
f 324/650/2 321/651/2 323/652/2
f 323/653/24 326/654/24 328/655/24
f 328/656/4 325/657/4 327/658/4
f 321/655/25 325/659/25 326/653/25
f 324/115/26 328/659/26 327/660/26
f 335/661/23 330/662/23 332/663/23
f 332/664/2 329/308/2 331/665/2
f 331/666/24 334/667/24 336/668/24
f 336/669/4 333/670/4 335/671/4
f 329/672/25 333/673/25 334/674/25
f 332/675/26 336/676/26 335/677/26
f 343/661/23 338/662/23 340/663/23
f 340/664/2 337/308/2 339/665/2
f 339/666/24 342/667/24 344/668/24
f 344/669/4 341/670/4 343/671/4
f 337/672/25 341/673/25 342/674/25
f 340/675/26 344/676/26 343/677/26
f 351/661/23 346/662/23 348/663/23
f 348/664/2 345/308/2 347/665/2
f 347/666/24 350/667/24 352/668/24
f 352/669/4 349/670/4 351/671/4
f 345/672/25 349/673/25 350/674/25
f 348/675/26 352/676/26 351/677/26
f 359/661/23 354/662/23 356/663/23
f 356/664/2 353/308/2 355/665/2
f 355/666/24 358/667/24 360/668/24
f 360/669/4 357/670/4 359/671/4
f 353/672/25 357/673/25 358/674/25
f 356/675/26 360/676/26 359/677/26
f 367/661/23 362/662/23 364/663/23
f 364/664/2 361/308/2 363/665/2
f 363/666/24 366/667/24 368/668/24
f 368/669/4 365/670/4 367/671/4
f 361/672/25 365/673/25 366/674/25
f 364/675/26 368/676/26 367/677/26
f 375/661/23 370/662/23 372/663/23
f 372/664/2 369/308/2 371/665/2
f 371/666/24 374/667/24 376/668/24
f 376/669/4 373/670/4 375/671/4
f 369/672/25 373/673/25 374/674/25
f 372/675/26 376/676/26 375/677/26
f 383/661/23 378/662/23 380/663/23
f 380/664/2 377/308/2 379/665/2
f 379/666/24 382/667/24 384/668/24
f 384/669/4 381/670/4 383/671/4
f 377/672/25 381/673/25 382/674/25
f 380/675/26 384/676/26 383/677/26
f 391/678/138 386/679/138 388/680/138
f 388/681/2 385/682/2 387/683/2
f 387/684/139 390/685/139 392/686/139
f 391/687/4 390/688/4 389/689/4
f 385/690/140 389/691/140 390/692/140
f 388/693/141 392/694/141 391/695/141
f 399/696/142 394/697/142 396/698/142
f 395/699/143 394/700/143 393/701/143
f 395/702/144 398/703/144 400/704/144
f 399/705/145 398/706/145 397/707/145
f 393/708/146 397/709/146 398/710/146
f 399/711/147 395/712/147 400/713/147
f 404/714/142 405/715/142 402/716/142
f 404/717/148 401/718/148 403/719/148
f 403/720/144 406/721/144 408/722/144
f 407/723/149 406/717/149 405/719/149
f 401/724/150 405/725/150 406/726/150
f 407/727/151 403/728/151 408/729/151
f 412/514/142 413/730/142 410/731/142
f 412/732/152 409/733/152 411/690/152
f 411/734/144 414/735/144 416/532/144
f 415/708/153 414/736/153 413/737/153
f 409/738/154 413/739/154 414/740/154
f 412/741/155 416/742/155 415/743/155
f 423/744/156 418/745/156 420/746/156
f 419/747/2 418/748/2 417/723/2
f 419/749/157 422/750/157 424/751/157
f 424/752/4 421/753/4 423/724/4
f 417/754/158 421/755/158 422/756/158
f 420/757/159 424/758/159 423/759/159
f 428/760/142 429/761/142 426/762/142
f 428/763/160 425/764/160 427/738/160
f 432/765/144 425/766/144 430/760/144
f 432/767/154 429/747/154 431/768/154
f 425/769/152 429/770/152 430/771/152
f 428/772/153 432/773/153 431/774/153
f 439/775/142 434/765/142 436/776/142
f 436/777/151 433/778/151 435/754/151
f 435/779/144 438/776/144 440/780/144
f 439/769/150 438/781/150 437/782/150
f 438/783/148 434/784/148 437/785/148
f 436/786/149 440/787/149 439/788/149
f 447/789/142 442/790/142 444/791/142
f 444/792/147 441/768/147 443/793/147
f 443/794/144 446/795/144 448/81/144
f 447/796/146 446/797/146 445/798/146
f 446/678/143 442/799/143 445/800/143
f 444/801/161 448/684/161 447/802/161
f 455/803/7 450/635/7 452/804/7
f 452/805/2 449/806/2 451/807/2
f 451/808/8 454/809/8 456/810/8
f 456/811/4 453/812/4 455/813/4
f 449/814/162 453/815/162 454/816/162
f 452/817/163 456/818/163 455/819/163
f 463/820/7 458/821/7 460/822/7
f 460/823/2 457/824/2 459/825/2
f 459/826/8 462/827/8 464/828/8
f 463/829/4 462/830/4 461/831/4
f 457/698/162 461/832/162 462/833/162
f 460/834/163 464/835/163 463/836/163
f 471/837/7 466/838/7 468/839/7
f 468/840/2 465/841/2 467/842/2
f 467/843/8 470/844/8 472/845/8
f 471/846/4 470/847/4 469/848/4
f 465/609/162 469/849/162 470/850/162
f 468/851/163 472/852/163 471/853/163
f 476/854/7 477/855/7 474/641/7
f 476/856/164 473/857/164 475/858/164
f 475/859/8 478/860/8 480/861/8
f 480/862/165 477/863/166 479/864/165
f 478/865/167 474/866/168 477/867/167
f 479/868/169 475/869/169 480/870/169
f 487/871/7 482/872/7 484/873/7
f 483/874/169 482/875/170 481/876/170
f 483/877/8 486/878/8 488/879/8
f 487/880/168 486/881/168 485/41/168
f 481/882/171 485/883/164 486/884/164
f 487/885/165 483/886/165 488/887/165
f 492/888/172 493/889/172 490/890/172
f 492/891/173 489/620/173 491/892/173
f 496/893/174 489/894/174 494/888/174
f 496/895/175 493/896/176 495/897/175
f 489/898/177 493/899/177 494/900/177
f 495/901/178 491/902/178 496/903/178
f 500/904/172 501/905/172 498/906/172
f 499/907/179 498/908/180 497/909/180
f 499/910/174 502/911/174 504/912/174
f 504/913/181 501/914/182 503/915/183
f 502/916/184 498/917/184 501/918/184
f 500/919/185 504/920/185 503/921/185
f 511/922/172 506/298/172 508/923/172
f 507/924/186 506/925/187 505/926/187
f 507/927/174 510/928/174 512/929/174
f 511/930/188 510/931/188 509/722/188
f 510/932/189 506/933/189 509/934/189
f 508/935/190 512/936/190 511/937/190
f 519/938/172 514/939/172 516/940/172
f 515/941/191 514/942/192 513/943/192
f 520/944/174 513/945/174 518/946/174
f 520/947/193 517/948/194 519/949/195
f 513/950/196 517/951/196 518/952/196
f 519/953/197 515/954/197 520/955/197
f 524/956/198 525/560/198 522/683/198
f 524/957/199 521/67/199 523/958/200
f 528/959/201 521/960/201 526/793/201
f 528/961/202 525/962/202 527/963/202
f 521/964/203 525/965/203 526/966/203
f 524/967/204 528/968/204 527/969/204
f 535/970/205 530/971/205 532/972/205
f 532/973/206 529/974/206 531/975/207
f 531/976/208 534/977/208 536/978/208
f 535/979/209 534/980/210 533/981/210
f 534/982/211 530/983/211 533/984/211
f 532/985/212 536/986/212 535/987/212
f 543/988/213 538/751/213 540/989/213
f 539/990/214 538/991/214 537/992/215
f 544/993/216 537/58/216 542/994/216
f 543/995/217 542/996/217 541/997/217
f 542/998/218 538/999/218 541/1000/218
f 540/1001/219 544/1002/219 543/1003/219
f 551/1004/220 546/1005/220 548/1006/220
f 548/1007/221 545/1008/222 547/1009/221
f 552/1010/223 545/1011/223 550/1012/223
f 551/1013/224 550/1014/224 549/1015/224
f 545/1016/225 549/1017/225 550/1018/225
f 548/1019/226 552/1020/226 551/1021/226
f 559/28/227 554/1022/227 556/96/227
f 556/1023/228 553/258/228 555/1024/228
f 555/1025/229 558/1026/229 560/366/229
f 560/1027/230 557/1028/230 559/1029/230
f 553/1030/231 557/1031/231 558/439/231
f 556/1032/232 560/239/232 559/1033/232
f 567/1/233 562/2/233 564/3/233
f 564/4/2 561/5/2 563/6/2
f 563/7/234 566/8/234 568/9/234
f 567/12/4 566/1034/4 565/11/4
f 561/13/235 565/14/235 566/15/235
f 564/16/236 568/17/236 567/18/236
f 575/1035/237 570/1036/237 572/505/237
f 572/1037/238 569/1038/238 571/1039/238
f 576/1035/239 569/1040/239 574/1041/239
f 576/1042/240 573/1043/240 575/1044/240
f 569/130/241 573/1045/241 574/245/241
f 572/1046/242 576/385/242 575/1047/242
f 583/1048/23 578/1040/23 580/1049/23
f 580/1050/243 577/246/243 579/225/243
f 579/1051/24 582/929/24 584/1052/24
f 584/230/244 581/244/244 583/1050/244
f 577/196/245 581/1053/245 582/1054/245
f 580/721/246 584/1055/246 583/1056/246
f 591/1057/23 586/1058/23 588/1059/23
f 588/1060/247 585/1061/247 587/1062/247
f 587/1063/24 590/1064/24 592/1065/24
f 592/1066/248 589/1067/248 591/1068/248
f 585/1069/249 589/1070/249 590/1071/249
f 588/1072/250 592/1073/250 591/1074/250
f 599/1075/23 594/1049/23 596/1076/23
f 596/1077/251 593/1078/251 595/1079/251
f 595/1080/24 598/1081/24 600/285/24
f 600/1082/252 597/1083/252 599/1084/252
f 593/1085/253 597/1086/253 598/1087/253
f 596/1088/254 600/1089/254 599/1090/254
f 604/643/23 605/1051/23 602/1052/23
f 604/1091/255 601/253/255 603/230/255
f 603/1092/24 606/1093/24 608/331/24
f 608/282/256 605/1094/256 607/1091/256
f 601/1039/257 605/1095/257 606/1096/257
f 604/662/258 608/1097/258 607/1098/258
f 612/1076/23 613/1048/23 610/1049/23
f 612/1077/259 609/1078/259 611/1079/259
f 611/1080/24 614/1081/24 616/285/24
f 616/1082/260 613/1083/260 615/1084/260
f 609/1085/261 613/1086/261 614/1087/261
f 612/1088/262 616/1089/262 615/1090/262
f 623/1099/23 618/1100/23 620/1101/23
f 620/1102/247 617/1103/247 619/1104/247
f 624/1105/24 617/1106/24 622/1107/24
f 624/1108/248 621/1109/248 623/1110/248
f 617/1111/263 621/1112/263 622/1113/263
f 620/1114/264 624/1115/264 623/1116/264
f 7/1/1 5/1117/1 2/2/1
f 4/4/2 2/1118/2 1/5/2
f 3/7/3 1/1119/3 6/8/3
f 8/10/4 6/1034/4 5/11/4
f 1/13/5 2/1120/5 5/14/5
f 4/16/6 3/51/6 8/17/6
f 15/19/7 13/267/7 10/20/7
f 12/22/2 10/1121/2 9/23/2
f 11/25/8 9/138/8 14/26/8
f 15/28/4 16/1122/4 14/29/4
f 9/31/9 10/1123/9 13/32/9
f 12/34/10 11/21/10 16/19/10
f 23/36/11 21/139/11 18/37/11
f 20/39/2 18/1124/2 17/40/2
f 19/42/12 17/36/12 22/38/12
f 24/44/4 22/1023/4 21/45/4
f 17/47/13 18/1125/13 21/48/13
f 20/50/14 19/1126/14 24/51/14
f 31/53/15 29/1127/15 26/54/15
f 27/56/16 28/1128/16 26/57/16
f 32/59/17 27/872/17 25/60/17
f 32/62/18 30/1129/18 29/63/18
f 25/65/19 26/1130/19 29/66/19
f 31/68/20 28/1131/21 27/64/21
f 39/70/22 37/1132/22 34/71/22
f 36/73/2 34/1133/2 33/74/2
f 35/76/8 33/1134/8 38/77/8
f 39/79/4 40/1135/4 38/80/4
f 33/82/9 34/1136/9 37/83/9
f 36/85/10 35/960/10 40/86/10
f 47/88/23 45/95/23 42/89/23
f 44/91/2 42/598/2 41/92/2
f 43/94/24 41/37/24 46/95/24
f 48/96/4 46/809/4 45/97/4
f 41/98/25 42/599/25 45/99/25
f 44/20/26 43/1137/26 48/101/26
f 55/103/27 53/94/27 50/104/27
f 52/106/2 50/1138/2 49/107/2
f 51/109/28 49/604/28 54/110/28
f 55/112/4 56/1139/4 54/113/4
f 49/115/29 50/1140/29 53/55/29
f 52/116/30 51/1141/30 56/117/31
f 63/119/32 61/1142/32 58/120/32
f 60/122/33 58/1143/33 57/123/33
f 64/125/34 59/1144/34 57/126/34
f 64/128/35 62/1145/35 61/129/35
f 57/131/36 58/1146/36 61/132/36
f 60/134/37 59/1147/37 64/135/37
f 68/25/38 71/1148/38 69/137/38
f 68/139/33 66/110/33 65/140/33
f 67/142/39 65/1149/39 70/143/39
f 71/40/35 72/1150/35 70/145/35
f 65/147/40 66/1151/40 69/148/40
f 71/150/41 68/1152/41 67/151/41
f 79/153/42 77/1153/42 74/154/42
f 76/156/43 74/1154/43 73/157/43
f 75/159/44 73/1155/44 78/160/44
f 80/162/45 78/1156/45 77/163/45
f 73/165/46 74/1157/46 77/166/46
f 76/168/47 75/596/47 80/169/47
f 87/171/48 85/1158/48 82/33/48
f 84/173/49 82/180/49 81/174/49
f 88/176/50 83/1159/50 81/177/50
f 87/173/51 88/347/51 86/179/51
f 81/181/52 82/1160/52 85/182/52
f 84/184/53 83/1161/53 88/185/53
f 95/187/23 93/1162/23 90/188/23
f 92/189/2 90/1163/2 89/190/2
f 91/191/24 89/1164/24 94/192/24
f 96/194/4 94/1165/4 93/195/4
f 89/27/25 90/1166/25 93/197/25
f 92/199/26 91/1167/26 96/200/26
f 103/202/38 101/1168/38 98/203/38
f 99/205/33 100/1169/33 98/206/33
f 104/208/39 99/1170/39 97/209/39
f 103/211/35 104/1171/35 102/212/35
f 97/214/40 98/1172/40 101/215/40
f 103/217/41 100/1173/41 99/218/41
f 111/220/38 109/1174/38 106/221/38
f 107/223/33 108/1175/33 106/224/33
f 107/226/39 105/1176/39 110/227/39
f 112/229/35 110/1177/35 109/230/35
f 110/232/40 105/1178/40 106/233/40
f 108/235/41 107/1179/41 112/236/41
f 119/238/23 117/1180/23 114/239/23
f 116/241/2 114/120/2 113/242/2
f 115/244/24 113/254/24 118/245/24
f 120/247/4 118/241/4 117/243/4
f 113/248/25 114/844/25 117/93/25
f 116/250/26 115/1181/26 120/251/26
f 127/253/23 125/1182/23 122/254/23
f 124/255/2 122/260/2 121/90/2
f 123/256/24 121/107/24 126/257/24
f 128/259/4 126/104/4 125/260/4
f 121/261/25 122/1183/25 125/262/25
f 124/221/26 123/116/26 128/174/26
f 135/264/54 133/1184/54 130/255/54
f 131/143/55 132/1185/55 130/266/55
f 131/268/56 129/1186/56 134/269/56
f 135/257/57 136/1187/57 134/270/57
f 134/272/58 129/1188/58 130/273/58
f 132/275/59 131/1189/59 136/276/59
f 143/278/60 141/1190/60 138/279/60
f 140/281/55 138/1191/55 137/282/55
f 139/284/61 137/1192/61 142/285/61
f 144/287/57 142/1193/57 141/288/57
f 137/290/62 138/1194/62 141/291/62
f 140/293/63 139/1195/63 144/294/63
f 151/296/60 149/1196/60 146/297/60
f 148/207/55 146/238/55 145/240/55
f 147/300/61 145/1197/61 150/301/61
f 152/303/57 150/637/57 149/304/57
f 150/305/62 145/1198/62 146/306/62
f 148/308/63 147/1199/63 152/309/63
f 156/311/60 159/1200/60 157/312/60
f 156/314/55 154/1201/55 153/315/55
f 155/317/61 153/1202/61 158/318/61
f 160/320/57 158/1203/57 157/321/57
f 153/323/62 154/1204/62 157/324/62
f 156/326/63 155/1205/63 160/327/63
f 164/329/64 167/1206/64 165/330/64
f 163/332/65 164/1207/65 162/333/65
f 168/334/66 163/1208/66 161/335/66
f 167/337/67 168/1209/67 166/207/67
f 166/338/68 161/1210/68 162/339/68
f 164/341/69 163/339/69 168/340/69
f 175/343/70 173/358/70 170/344/70
f 172/346/71 170/352/71 169/179/71
f 171/348/72 169/1211/72 174/349/72
f 175/346/73 176/362/73 174/351/73
f 169/353/74 170/357/74 173/354/74
f 175/356/75 172/1212/75 171/357/75
f 180/345/76 183/343/76 181/358/76
f 179/347/71 180/346/71 178/352/71
f 179/348/77 177/1211/77 182/349/77
f 183/346/78 184/362/78 182/351/78
f 182/355/79 177/353/79 178/357/79
f 183/356/80 180/1212/80 179/357/80
f 191/359/81 189/1144/81 186/125/81
f 188/361/82 186/118/82 185/351/82
f 187/363/83 185/264/83 190/265/83
f 192/365/51 190/448/51 189/366/51
f 185/368/84 186/282/84 189/369/84
f 188/47/85 187/1213/85 192/371/85
f 199/373/86 197/1214/86 194/374/87
f 196/376/88 194/1215/88 193/377/88
f 200/379/89 195/1216/90 193/380/90
f 199/382/91 200/1217/92 198/383/92
f 193/385/93 194/1218/93 197/386/93
f 196/388/94 195/1219/94 200/389/94
f 204/391/95 207/1220/95 205/392/95
f 203/394/88 204/1221/96 202/395/96
f 203/397/97 201/1222/97 206/398/94
f 207/400/91 208/1223/98 206/401/98
f 206/403/89 201/1224/89 202/404/89
f 204/406/87 203/658/87 208/407/87
f 215/409/100 213/1225/100 210/410/101
f 212/412/102 210/1226/102 209/413/103
f 211/415/104 209/1227/104 214/416/105
f 216/418/106 214/1228/265 213/419/106
f 209/421/107 210/1229/107 213/422/107
f 215/424/108 212/1230/108 211/425/108
f 223/427/109 221/1231/109 218/428/107
f 220/430/102 218/1232/102 217/431/110
f 219/433/108 217/1233/108 222/434/111
f 224/436/106 222/1234/106 221/437/112
f 217/439/104 218/1235/104 221/440/104
f 220/442/100 219/1076/100 224/443/100
f 231/445/114 229/1236/114 226/302/114
f 228/447/2 226/1237/2 225/448/2
f 227/450/115 225/1238/115 230/451/115
f 232/453/4 230/1239/4 229/124/4
f 225/455/116 226/1240/116 229/456/116
f 228/458/117 227/1241/117 232/459/118
f 239/461/119 237/1242/119 234/333/119
f 235/463/120 236/1243/120 234/464/120
f 235/466/121 233/1244/121 238/467/121
f 239/469/122 240/1245/122 238/470/122
f 238/471/116 233/1246/116 234/472/116
f 236/474/118 235/1247/118 240/475/118
f 244/477/123 247/1248/123 245/478/123
f 244/480/124 242/1249/124 241/481/124
f 243/483/125 241/1250/125 246/484/125
f 248/486/126 246/1251/126 245/487/126
f 241/489/116 242/1252/116 245/490/116
f 244/492/117 243/1253/117 248/493/117
f 255/495/114 253/1254/114 250/496/114
f 252/498/2 250/1255/2 249/499/2
f 251/501/115 249/1256/115 254/502/115
f 256/504/4 254/1257/4 253/505/4
f 249/507/116 250/1258/116 253/508/116
f 252/510/117 251/1259/117 256/511/118
f 263/513/127 261/1260/127 258/514/127
f 260/516/2 258/1261/2 257/517/2
f 259/519/117 257/1262/117 262/520/117
f 264/522/4 262/1263/4 261/523/4
f 257/525/115 258/1264/115 261/526/115
f 260/528/114 259/1265/114 264/529/114
f 271/531/128 269/1266/128 266/532/128
f 268/534/2 266/1267/2 265/535/2
f 267/537/129 265/1268/129 270/538/129
f 271/540/4 272/1269/4 270/541/4
f 265/543/127 266/1270/127 269/544/127
f 268/546/117 267/250/117 272/547/117
f 279/549/128 277/1271/128 274/550/128
f 276/552/2 274/1272/2 273/553/2
f 275/555/129 273/1273/129 278/556/129
f 279/558/4 280/1274/4 278/559/4
f 273/561/127 274/1275/127 277/562/127
f 276/564/117 275/1276/117 280/565/117
f 287/567/127 285/1277/127 282/568/127
f 284/570/2 282/1278/2 281/571/2
f 283/573/117 281/1279/117 286/574/117
f 288/576/4 286/1280/4 285/577/4
f 281/579/115 282/1281/115 285/580/115
f 284/582/114 283/1282/114 288/583/114
f 295/585/130 293/605/130 290/121/130
f 291/181/2 292/1283/2 290/586/2
f 291/588/131 289/210/131 294/589/131
f 296/591/4 294/1284/4 293/592/4
f 289/593/132 290/1285/132 293/594/132
f 292/595/133 291/1286/133 296/596/133
f 303/598/130 301/1137/130 298/599/130
f 300/601/134 298/1287/134 297/602/134
f 299/604/131 297/178/131 302/605/131
f 304/606/135 302/1288/135 301/607/135
f 302/609/136 297/608/136 298/610/136
f 300/612/137 299/1289/137 304/613/137
f 311/615/130 309/301/130 306/616/130
f 308/618/134 306/1290/134 305/619/134
f 307/621/131 305/467/131 310/622/131
f 311/624/135 312/1291/135 310/625/135
f 305/627/136 306/1292/136 309/628/136
f 308/630/137 307/624/137 312/631/137
f 319/633/130 317/1293/130 314/634/130
f 316/636/2 314/1294/2 313/637/2
f 315/638/131 313/1295/131 318/639/131
f 319/61/4 320/60/4 318/641/4
f 313/643/132 314/1296/132 317/644/132
f 316/261/133 315/1297/133 320/646/133
f 327/648/23 325/1298/23 322/649/23
f 324/650/2 322/1259/2 321/651/2
f 323/653/24 321/1299/24 326/654/24
f 328/656/4 326/1300/4 325/657/4
f 321/655/25 322/1301/25 325/659/25
f 324/115/26 323/1301/26 328/659/26
f 335/661/23 333/1302/23 330/662/23
f 332/664/2 330/1303/2 329/308/2
f 331/666/24 329/1304/24 334/667/24
f 336/669/4 334/1305/4 333/670/4
f 329/672/25 330/1306/25 333/673/25
f 332/675/26 331/1307/26 336/676/26
f 343/661/23 341/1302/23 338/662/23
f 340/664/2 338/1303/2 337/308/2
f 339/666/24 337/1304/24 342/667/24
f 344/669/4 342/1305/4 341/670/4
f 337/672/25 338/1306/25 341/673/25
f 340/675/26 339/1307/26 344/676/26
f 351/661/23 349/1302/23 346/662/23
f 348/664/2 346/1303/2 345/308/2
f 347/666/24 345/1304/24 350/667/24
f 352/669/4 350/1305/4 349/670/4
f 345/672/25 346/1306/25 349/673/25
f 348/675/26 347/1307/26 352/676/26
f 359/661/23 357/1302/23 354/662/23
f 356/664/2 354/1303/2 353/308/2
f 355/666/24 353/1304/24 358/667/24
f 360/669/4 358/1305/4 357/670/4
f 353/672/25 354/1306/25 357/673/25
f 356/675/26 355/1307/26 360/676/26
f 367/661/23 365/1302/23 362/662/23
f 364/664/2 362/1303/2 361/308/2
f 363/666/24 361/1304/24 366/667/24
f 368/669/4 366/1305/4 365/670/4
f 361/672/25 362/1306/25 365/673/25
f 364/675/26 363/1307/26 368/676/26
f 375/661/23 373/1302/23 370/662/23
f 372/664/2 370/1303/2 369/308/2
f 371/666/24 369/1304/24 374/667/24
f 376/669/4 374/1305/4 373/670/4
f 369/672/25 370/1306/25 373/673/25
f 372/675/26 371/1307/26 376/676/26
f 383/661/23 381/1302/23 378/662/23
f 380/664/2 378/1303/2 377/308/2
f 379/666/24 377/1304/24 382/667/24
f 384/669/4 382/1305/4 381/670/4
f 377/672/25 378/1306/25 381/673/25
f 380/675/26 379/1307/26 384/676/26
f 391/678/138 389/1308/138 386/679/138
f 388/681/2 386/1309/2 385/682/2
f 387/684/139 385/1310/139 390/685/139
f 391/687/4 392/1311/4 390/688/4
f 385/690/140 386/1312/140 389/691/140
f 388/693/141 387/1313/141 392/694/141
f 399/696/142 397/1314/142 394/697/142
f 395/699/143 396/1315/143 394/700/143
f 395/702/144 393/1316/144 398/703/144
f 399/705/145 400/1317/145 398/706/145
f 393/708/146 394/1318/146 397/709/146
f 399/711/147 396/1319/147 395/712/147
f 404/714/142 407/1320/142 405/715/142
f 404/717/148 402/1321/148 401/718/148
f 403/720/144 401/1322/144 406/721/144
f 407/723/149 408/748/149 406/717/149
f 401/724/150 402/1323/150 405/725/150
f 407/727/151 404/1324/151 403/728/151
f 412/514/142 415/1325/142 413/730/142
f 412/732/152 410/1326/152 409/733/152
f 411/734/144 409/1327/144 414/735/144
f 415/708/153 416/1328/153 414/736/153
f 409/738/154 410/1329/154 413/739/154
f 412/741/155 411/1330/155 416/742/155
f 423/744/156 421/1331/156 418/745/156
f 419/747/2 420/1332/2 418/748/2
f 419/749/157 417/1333/157 422/750/157
f 424/752/4 422/1334/4 421/753/4
f 417/754/158 418/1335/158 421/755/158
f 420/757/159 419/1336/159 424/758/159
f 428/760/142 431/766/142 429/761/142
f 428/763/160 426/1337/160 425/764/160
f 432/765/144 427/1338/144 425/766/144
f 432/767/154 430/1332/154 429/747/154
f 425/769/152 426/1339/152 429/770/152
f 428/772/153 427/1340/153 432/773/153
f 439/775/142 437/1338/142 434/765/142
f 436/777/151 434/1341/151 433/778/151
f 435/779/144 433/775/144 438/776/144
f 439/769/150 440/1342/150 438/781/150
f 438/783/148 433/603/148 434/784/148
f 436/786/149 435/796/149 440/787/149
f 447/789/142 445/1343/142 442/790/142
f 444/792/147 442/767/147 441/768/147
f 443/794/144 441/1344/144 446/795/144
f 447/796/146 448/1345/146 446/797/146
f 446/678/143 441/680/143 442/799/143
f 444/801/161 443/686/161 448/684/161
f 455/803/7 453/1346/7 450/635/7
f 452/805/2 450/1347/2 449/806/2
f 451/808/8 449/1348/8 454/809/8
f 456/811/4 454/1349/4 453/812/4
f 449/814/162 450/1350/162 453/815/162
f 452/817/163 451/1351/163 456/818/163
f 463/820/7 461/1352/7 458/821/7
f 460/823/2 458/1353/2 457/824/2
f 459/826/8 457/1354/8 462/827/8
f 463/829/4 464/1355/4 462/830/4
f 457/698/162 458/1356/162 461/832/162
f 460/834/163 459/1357/163 464/835/163
f 471/837/7 469/1358/7 466/838/7
f 468/840/2 466/1359/2 465/841/2
f 467/843/8 465/1360/8 470/844/8
f 471/846/4 472/1361/4 470/847/4
f 465/609/162 466/1362/162 469/849/162
f 468/851/163 467/613/163 472/852/163
f 476/854/7 479/1363/7 477/855/7
f 476/856/164 474/1364/164 473/857/164
f 475/859/8 473/1365/8 478/860/8
f 480/862/165 478/1366/166 477/863/166
f 478/865/167 473/1367/168 474/866/168
f 479/868/169 476/1368/169 475/869/169
f 487/871/7 485/1369/7 482/872/7
f 483/874/169 484/1370/169 482/875/170
f 483/877/8 481/1371/8 486/878/8
f 487/880/168 488/1372/168 486/881/168
f 481/882/171 482/1373/171 485/883/164
f 487/885/165 484/1374/165 483/886/165
f 492/888/172 495/894/172 493/889/172
f 492/891/173 490/1375/173 489/620/173
f 496/893/174 491/1376/174 489/894/174
f 496/895/175 494/1377/176 493/896/176
f 489/898/177 490/1378/177 493/899/177
f 495/901/178 492/1379/178 491/902/178
f 500/904/172 503/1380/172 501/905/172
f 499/907/179 500/1381/266 498/908/180
f 499/910/174 497/1382/174 502/911/174
f 504/913/181 502/1383/182 501/914/182
f 502/916/184 497/1384/184 498/917/184
f 500/919/185 499/1385/185 504/920/185
f 511/922/172 509/1386/172 506/298/172
f 507/924/186 508/1387/186 506/925/187
f 507/927/174 505/1388/174 510/928/174
f 511/930/188 512/1389/188 510/931/188
f 510/932/189 505/1390/189 506/933/189
f 508/935/190 507/687/190 512/936/190
f 519/938/172 517/1391/172 514/939/172
f 515/941/191 516/1392/267 514/942/192
f 520/944/174 515/1393/174 513/945/174
f 520/947/193 518/1394/194 517/948/194
f 513/950/196 514/1395/196 517/951/196
f 519/953/197 516/1396/197 515/954/197
f 524/956/198 527/1397/198 525/560/198
f 524/957/199 522/1398/199 521/67/199
f 528/959/201 523/1399/201 521/960/201
f 528/961/202 526/1400/268 525/962/202
f 521/964/203 522/1401/203 525/965/203
f 524/967/204 523/1402/204 528/968/204
f 535/970/205 533/1403/205 530/971/205
f 532/973/206 530/1404/206 529/974/206
f 531/976/208 529/1405/208 534/977/208
f 535/979/209 536/1406/209 534/980/210
f 534/982/211 529/1407/211 530/983/211
f 532/985/212 531/1408/212 536/986/212
f 543/988/213 541/954/213 538/751/213
f 539/990/214 540/1409/214 538/991/214
f 544/993/216 539/1410/216 537/58/216
f 543/995/217 544/1411/269 542/996/217
f 542/998/218 537/1412/218 538/999/218
f 540/1001/219 539/1413/219 544/1002/219
f 551/1004/220 549/1414/220 546/1005/220
f 548/1007/221 546/1415/222 545/1008/222
f 552/1010/223 547/1416/223 545/1011/223
f 551/1013/224 552/1417/270 550/1014/224
f 545/1016/225 546/1418/225 549/1017/225
f 548/1019/226 547/1419/226 552/1020/226
f 559/28/227 557/1420/227 554/1022/227
f 556/1023/228 554/1421/228 553/258/228
f 555/1025/229 553/1181/229 558/1026/229
f 560/1027/230 558/1422/230 557/1028/230
f 553/1030/231 554/1423/231 557/1031/231
f 556/1032/232 555/1424/232 560/239/232
f 567/1/233 565/1117/233 562/2/233
f 564/4/2 562/1118/2 561/5/2
f 563/7/234 561/1119/234 566/8/234
f 567/12/4 568/10/4 566/1034/4
f 561/13/235 562/1120/235 565/14/235
f 564/16/236 563/51/236 568/17/236
f 575/1035/237 573/1041/237 570/1036/237
f 572/1037/238 570/1425/238 569/1038/238
f 576/1035/239 571/1180/239 569/1040/239
f 576/1042/240 574/1426/240 573/1043/240
f 569/130/241 570/1427/241 573/1045/241
f 572/1046/242 571/1428/242 576/385/242
f 583/1048/23 581/1429/23 578/1040/23
f 580/1050/243 578/244/243 577/246/243
f 579/1051/24 577/1430/24 582/929/24
f 584/230/244 582/253/244 581/244/244
f 577/196/245 578/1036/245 581/1053/245
f 580/721/246 579/1431/246 584/1055/246
f 591/1057/23 589/1432/23 586/1058/23
f 588/1060/247 586/1433/247 585/1061/247
f 587/1063/24 585/1434/24 590/1064/24
f 592/1066/248 590/1435/248 589/1067/248
f 585/1069/249 586/1436/249 589/1070/249
f 588/1072/250 587/1437/250 592/1073/250
f 599/1075/23 597/1048/23 594/1049/23
f 596/1077/251 594/1438/251 593/1078/251
f 595/1080/24 593/1439/24 598/1081/24
f 600/1082/252 598/1440/252 597/1083/252
f 593/1085/253 594/1441/253 597/1086/253
f 596/1088/254 595/1442/254 600/1089/254
f 604/643/23 607/1443/23 605/1051/23
f 604/1091/255 602/1094/255 601/253/255
f 603/1092/24 601/1444/24 606/1093/24
f 608/282/256 606/214/256 605/1094/256
f 601/1039/257 602/735/257 605/1095/257
f 604/662/258 603/1445/258 608/1097/258
f 612/1076/23 615/1075/23 613/1048/23
f 612/1077/259 610/1438/259 609/1078/259
f 611/1080/24 609/1439/24 614/1081/24
f 616/1082/260 614/1440/260 613/1083/260
f 609/1085/261 610/1441/261 613/1086/261
f 612/1088/262 611/1442/262 616/1089/262
f 623/1099/23 621/1446/23 618/1100/23
f 620/1102/247 618/1447/247 617/1103/247
f 624/1105/24 619/1448/24 617/1106/24
f 624/1108/248 622/1449/248 621/1109/248
f 617/1111/263 618/1450/263 621/1112/263
f 620/1114/264 619/1451/264 624/1115/264
