# Made in Blockbench 5.2.1
mtllib osprey.mtl

o cube
v 3.469446951953614e-18 1.25 -0.1625
v 3.469446951953614e-18 1.25 -0.24375
v 3.469446951953614e-18 0.83125 -0.1625
v 3.469446951953614e-18 0.83125 -0.23125
v -0.25 1.25 -0.1625
v -0.25 1.25 -0.225
v -0.25 0.83125 -0.1625
v -0.25 0.83125 -0.225
v 0.25 1.25 -0.1625
v 0.25 1.25 -0.225
v 0.25 0.83125 -0.1625
v 0.25 0.83125 -0.225
v 3.469446951953614e-18 1.25 -0.1625
v 3.469446951953614e-18 1.25 -0.24375
v 3.469446951953614e-18 0.83125 -0.1625
v 3.469446951953614e-18 0.83125 -0.23125
v 0.25 1.25 0.2125
v 0.25 1.25 0.15
v 0.25 0.8375 0.2125
v 0.25 0.8375 0.15
v -0.25 1.25 0.2125
v -0.25 1.25 0.15
v -0.25 0.8375 0.2125
v -0.25 0.8375 0.15
v -0.125 1.409872435704599 -0.12633713002722374
v -0.125 1.422866916380709 -0.1874713550730866
v -0.125 1.23563989432389 -0.16337139995413713
v -0.125 1.249933823067611 -0.23061904750458628
v -0.25 1.409872435704599 -0.12633713002722374
v -0.25 1.400239305664484 -0.19228100220573519
v -0.25 1.23563989432389 -0.16337139995413713
v -0.25 1.248634375 -0.224505625
v 3.469446951953614e-18 1.409872435704599 -0.12633713002722374
v 3.469446951953614e-18 1.422866916380709 -0.1874713550730866
v 3.469446951953614e-18 1.23563989432389 -0.16337139995413713
v 3.469446951953614e-18 1.2494760079505398 -0.24349561654756435
v -0.125 1.409872435704599 -0.12633713002722374
v -0.125 1.422866916380709 -0.1874713550730866
v -0.125 1.23563989432389 -0.16337139995413713
v -0.125 1.249933823067611 -0.23061904750458628
v 0.25 1.409872435704599 -0.12633713002722374
v 0.25 1.400239305664484 -0.19228100220573519
v 0.25 1.23563989432389 -0.16337139995413713
v 0.25 1.248634375 -0.224505625
v 0.125 1.409872435704599 -0.12633713002722374
v 0.125 1.422866916380709 -0.1874713550730866
v 0.125 1.23563989432389 -0.16337139995413713
v 0.125 1.249933823067611 -0.23061904750458628
v -0.21031636856028357 1.586431294280851 0.16108384032054315
v -0.2059653623454753 1.5829432594262238 0.11139578986802887
v -0.11060844372331974 1.2394876489843027 0.1941698904481918
v -0.10625743750851147 1.2359996141296756 0.1444818399956775
v -0.37787569343483396 1.537206811430087 0.14986675800562246
v -0.3735246872200257 1.5337187765754599 0.10017870755310818
v -0.21832515257124502 1.2078433385802403 0.1869589089600285
v -0.21397414635643675 1.204355303725613 0.13727085850751422
v 0.37787569343483396 1.537206811430087 0.14986675800562246
v 0.3735246872200257 1.5337187765754599 0.10017870755310818
v 0.21832515257124502 1.2078433385802403 0.1869589089600285
v 0.21397414635643675 1.204355303725613 0.13727085850751422
v 0.21031636856028357 1.586431294280851 0.16108384032054315
v 0.2059653623454753 1.5829432594262238 0.11139578986802887
v 0.11060844372331974 1.2394876489843027 0.1941698904481918
v 0.10625743750851147 1.2359996141296756 0.1444818399956775
v 0.125 1.409872435704599 -0.12633713002722374
v 0.125 1.422866916380709 -0.1874713550730866
v 0.125 1.23563989432389 -0.16337139995413713
v 0.125 1.249933823067611 -0.23061904750458628
v 3.469446951953614e-18 1.409872435704599 -0.12633713002722374
v 3.469446951953614e-18 1.422866916380709 -0.1874713550730866
v 3.469446951953614e-18 1.23563989432389 -0.16337139995413713
v 3.469446951953614e-18 1.2494760079505398 -0.24349561654756435
v 0.0625 1.44398814217213 -0.152091897075763
v 0.0625 1.4467117591329943 -0.18322298139113008
v 0.0625 1.3817259735413956 -0.15753913099749164
v 0.0625 1.38444959050226 -0.1886702153128587
v -0.0625 1.44398814217213 -0.152091897075763
v -0.0625 1.4467117591329943 -0.18322298139113008
v -0.0625 1.3817259735413956 -0.15753913099749164
v -0.0625 1.38444959050226 -0.1886702153128587
v 0.04370214447680763 1.4400671574939898 -0.1504831287228955
v 0.047503220646340355 1.4483502189377286 -0.18037468627804235
v 0.08341267277924964 1.3570618352683863 -0.1684345332407793
v 0.08721374894878237 1.3653448967121251 -0.19832609079592617
v 0.1839608619868438 1.4997351514339985 -0.1161132994883044
v 0.18776193815637654 1.5080182128777373 -0.14600485704345126
v 0.22367139028928584 1.4167298292083952 -0.13406470400618822
v 0.22747246645881855 1.425012890652134 -0.16395626156133508
v -0.04370214447680763 1.4400671574939898 -0.1504831287228955
v -0.047503220646340355 1.4483502189377286 -0.18037468627804235
v -0.08341267277924964 1.3570618352683863 -0.1684345332407793
v -0.08721374894878237 1.3653448967121251 -0.19832609079592617
v -0.1839608619868438 1.4997351514339985 -0.1161132994883044
v -0.18776193815637654 1.5080182128777373 -0.14600485704345126
v -0.22367139028928584 1.4167298292083952 -0.13406470400618822
v -0.22747246645881855 1.425012890652134 -0.16395626156133508
v 0.175 1.612535438814078 -0.16321115842643263
v 0.175 1.5986533600963553 -0.20470031834170385
v 0.175 1.4347247534629157 -0.10371653535047787
v 0.175 1.420842674745193 -0.14520569526574909
v 3.469446951953614e-18 1.6065859765064825 -0.18099222696154887
v 3.469446951953614e-18 1.5907207436862278 -0.22840840972185883
v 3.469446951953614e-18 1.4347247534629157 -0.10371653535047787
v 3.469446951953614e-18 1.420842674745193 -0.14520569526574909
v 3.469446951953614e-18 1.6065859765064825 -0.18099222696154887
v 3.469446951953614e-18 1.5907207436862278 -0.22840840972185883
v 3.469446951953614e-18 1.4347247534629157 -0.10371653535047787
v 3.469446951953614e-18 1.420842674745193 -0.14520569526574909
v -0.175 1.612535438814078 -0.16321115842643263
v -0.175 1.5986533600963553 -0.20470031834170385
v -0.175 1.4347247534629157 -0.10371653535047787
v -0.175 1.420842674745193 -0.14520569526574909
v 0.203125 1.4375 0.15
v 0.203125 1.4375 0.10624999999999998
v 0.203125 0.8999999999999999 0.15
v 0.203125 0.8999999999999999 0.10624999999999998
v -0.203125 1.4375 0.15
v -0.203125 1.4375 0.10624999999999998
v -0.203125 0.8999999999999999 0.15
v -0.203125 0.8999999999999999 0.10624999999999998
v 0.203125 1.4034508898329847 -0.11151408593142087
v 0.203125 1.4051958646681098 -0.1614836272823757
v 0.203125 0.8975092836545673 -0.129181956137062
v 0.203125 0.8992542584896924 -0.17915149748801681
v -0.203125 1.4034508898329847 -0.11151408593142087
v -0.203125 1.4051958646681098 -0.1614836272823757
v -0.203125 0.8975092836545673 -0.129181956137062
v -0.203125 0.8992542584896924 -0.17915149748801681
v 0.25 1.5420347635732057 0.16924886277032933
v 0.25 1.5333364447632016 0.10735710847398114
v 0.25 1.2449543429507346 0.21100079305834893
v 0.25 1.2362560241407305 0.14910903876200074
v -0.25 1.5420347635732057 0.16924886277032933
v -0.25 1.5333364447632016 0.10735710847398114
v -0.25 1.2449543429507346 0.21100079305834893
v -0.25 1.2362560241407305 0.14910903876200074
v -0.21600336458145303 1.607316954479615 0.056874688021159664
v -0.1979733412947972 1.5488380880304145 0.04417073434133259
v -0.21628327812123455 1.5860057790293185 0.15457707002557572
v -0.1982532548345787 1.5275269125801179 0.1418731163457487
v -0.37159414368594884 1.5616084289141168 0.04645882760138806
v -0.353564120399293 1.503129562464916 0.033754873921560985
v -0.37187405722573036 1.5402972534638202 0.1441612096058041
v -0.3538440339390745 1.4818183870146193 0.1314572559259771
v -0.1999886732187325 1.5472475821770992 0.07251354216605929
v -0.2159192273000159 1.6063043551391658 0.05967745966514634
v -0.17527559445665997 1.5141612786536762 -0.11038208451007402
v -0.19120614853794335 1.5732180516157428 -0.12321816701098698
v -0.35565481965774504 1.5024464928247085 0.059584379561041095
v -0.3715853737390284 1.561503265786775 0.04674829706012815
v -0.33094174089567246 1.4693601893012853 -0.12331124711509223
v -0.3468722949769559 1.5284169622633519 -0.13614732961600517
v -0.1860340519241504 1.5671871547507439 -0.08604003054052203
v -0.1850832386863247 1.5762334965330542 -0.12883398051647543
v -0.06532470714763708 1.1711557329135902 -0.16707633491249596
v -0.06437389390981135 1.1802020746959005 -0.2098702848884494
v -0.35367452325930004 1.5189398846251865 -0.09996386966485757
v -0.35272371002147435 1.5279862264074968 -0.142757819640811
v -0.2329651784827867 1.1229084627880328 -0.18100017403683155
v -0.232014365244961 1.1319548045703431 -0.22379412401278498
v 0.37159414368594884 1.5616084289141168 0.04645882760138806
v 0.353564120399293 1.503129562464916 0.033754873921560985
v 0.37187405722573036 1.5402972534638202 0.1441612096058041
v 0.3538440339390745 1.4818183870146193 0.1314572559259771
v 0.21600336458145303 1.607316954479615 0.056874688021159664
v 0.1979733412947972 1.5488380880304145 0.04417073434133259
v 0.21628327812123455 1.5860057790293185 0.15457707002557572
v 0.1982532548345787 1.5275269125801179 0.1418731163457487
v 0.35565481965774504 1.5024464928247085 0.059584379561041095
v 0.3715853737390284 1.561503265786775 0.04674829706012815
v 0.33094174089567246 1.4693601893012853 -0.12331124711509223
v 0.3468722949769559 1.5284169622633519 -0.13614732961600517
v 0.1999886732187325 1.5472475821770992 0.07251354216605929
v 0.2159192273000159 1.6063043551391658 0.05967745966514634
v 0.17527559445665997 1.5141612786536762 -0.11038208451007402
v 0.19120614853794335 1.5732180516157428 -0.12321816701098698
v 0.35367452325930004 1.5189398846251865 -0.09996386966485757
v 0.35272371002147435 1.5279862264074968 -0.142757819640811
v 0.2329651784827867 1.1229084627880328 -0.18100017403683155
v 0.232014365244961 1.1319548045703431 -0.22379412401278498
v 0.1860340519241504 1.5671871547507439 -0.08604003054052203
v 0.1850832386863247 1.5762334965330542 -0.12883398051647543
v 0.06532470714763708 1.1711557329135902 -0.16707633491249596
v 0.06437389390981135 1.1802020746959005 -0.2098702848884494
v -0.27723616960864317 1.125 0.10193584315367046
v -0.2502723616960864 1.125 -0.20626189156846328
v -0.27723616960864317 0.83125 0.10193584315367046
v -0.2502723616960864 0.83125 -0.20626189156846328
v -0.3145934707870836 1.125 0.09866750280063327
v -0.28762966287452685 1.125 -0.20953023192150047
v -0.3145934707870836 0.83125 0.09866750280063327
v -0.28762966287452685 0.83125 -0.20953023192150047
v 0.3145934707870836 1.125 0.09866750280063327
v 0.28762966287452685 1.125 -0.20953023192150047
v 0.3145934707870836 0.83125 0.09866750280063327
v 0.28762966287452685 0.83125 -0.20953023192150047
v 0.27723616960864317 1.125 0.10193584315367046
v 0.2502723616960864 1.125 -0.20626189156846328
v 0.27723616960864317 0.83125 0.10193584315367046
v 0.2502723616960864 0.83125 -0.20626189156846328
v -0.21655260636174328 1.125 0.19011494854229968
v -0.279644375 1.125 0.07860062500000001
v -0.21655260636174328 0.83125 0.19011494854229968
v -0.279644375 0.83125 0.07860062500000001
v -0.2491909449594895 1.125 0.20858083204617964
v -0.31228271359774623 1.125 0.09706650850388002
v -0.2491909449594895 0.83125 0.20858083204617964
v -0.31228271359774623 0.83125 0.09706650850388002
v 0.2491909449594895 1.125 0.20858083204617964
v 0.31228271359774623 1.125 0.09706650850388002
v 0.2491909449594895 0.83125 0.20858083204617964
v 0.31228271359774623 0.83125 0.09706650850388002
v 0.21655260636174328 1.125 0.19011494854229968
v 0.279644375 1.125 0.07860062500000001
v 0.21655260636174328 0.83125 0.19011494854229968
v 0.279644375 0.83125 0.07860062500000001
v -0.221875 1.09375 0.15
v -0.221875 1.09375 -0.1625
v -0.221875 0.90625 0.15
v -0.221875 0.90625 -0.1625
v -0.278125 1.09375 0.15
v -0.278125 1.09375 -0.1625
v -0.278125 0.90625 0.15
v -0.278125 0.90625 -0.1625
v 0.278125 1.09375 0.15
v 0.278125 1.09375 -0.1625
v 0.278125 0.90625 0.15
v 0.278125 0.90625 -0.1625
v 0.221875 1.09375 0.15
v 0.221875 1.09375 -0.1625
v 0.221875 0.90625 0.15
v 0.221875 0.90625 -0.1625
v -0.16572559414118831 1.6177466842544412 -0.16711292382377066
v -0.20874299634711133 1.6098950048253635 -0.16572846089655063
v -0.1315564331114107 1.4361872362251378 -0.1350990945336681
v -0.1745738353173337 1.42833555679606 -0.1337146316064481
v -0.16572559414118843 1.678523546437867 0.177569789730502
v -0.20874299634711144 1.670671867008789 0.178954252657722
v -0.1315564331114108 1.4969640984085635 0.20958361902060454
v -0.1745738353173338 1.4891124189794858 0.21096808194782454
v 0.16572559414118843 1.678523546437867 0.177569789730502
v 0.20874299634711144 1.670671867008789 0.178954252657722
v 0.1315564331114108 1.4969640984085635 0.20958361902060454
v 0.1745738353173338 1.4891124189794858 0.21096808194782454
v 0.16572559414118831 1.6177466842544412 -0.16711292382377066
v 0.20874299634711133 1.6098950048253635 -0.16572846089655063
v 0.1315564331114107 1.4361872362251378 -0.1350990945336681
v 0.1745738353173337 1.42833555679606 -0.1337146316064481
v 0.175 1.6732144145993033 0.2218877580381786
v 0.175 1.6751227627965368 0.1781793983439723
v 0.175 1.485892873052705 0.21370912290717806
v 0.175 1.4878012212499385 0.17000076321297178
v -0.175 1.6732144145993033 0.2218877580381786
v -0.175 1.6751227627965368 0.1781793983439723
v -0.175 1.485892873052705 0.21370912290717806
v -0.175 1.4878012212499385 0.17000076321297178
v 0.080553125 1.1225834140066968 -0.34747960533692956
v 0.080553125 1.1223652589262307 -0.3599777015263844
v 0.080553125 0.872621490217599 -0.3431165037276087
v 0.080553125 0.872403335137133 -0.35561459991706357
v -0.075696875 1.1225834140066968 -0.34747960533692956
v -0.075696875 1.1223652589262307 -0.3599777015263844
v -0.075696875 0.872621490217599 -0.3431165037276087
v -0.075696875 0.872403335137133 -0.35561459991706357
v 0.02897084252469373 0.9072026037879478 -0.3432214346170598
v 0.028994993511540113 0.9068889175665845 -0.3619687949028271
v 0.029380556188864565 0.8322142282225152 -0.3419661797540873
v 0.029404707175710948 0.8319005420011519 -0.36071354003985456
v -0.021028369924173868 0.9069284219099071 -0.3432812576122868
v -0.021004218937327485 0.9066147356885438 -0.362028617898054
v -0.020618656260003032 0.8319400463444745 -0.3420260027493143
v -0.02059450527315665 0.8316263601231112 -0.3607733630350815
v 0.080553125 1.1247649648113573 -0.2224986434423807
v 0.080553125 1.1225834140066968 -0.34747960533692956
v 0.080553125 0.812312560074985 -0.21704476643072962
v 0.080553125 0.8101310092703247 -0.3420257283252785
v -0.075696875 1.1247649648113573 -0.2224986434423807
v -0.075696875 1.1225834140066968 -0.34747960533692956
v -0.075696875 0.812312560074985 -0.21704476643072962
v -0.075696875 0.8101310092703247 -0.3420257283252785
v -0.11373205090156713 1.1224741465057013 -0.35375861621237054
v -0.11871641426313267 1.1222740851913817 -0.3652201212335444
v -0.11373205090156713 0.8725122227166036 -0.34939551460304963
v -0.11871641426313267 0.872312161402284 -0.36085701962422356
v -0.25129106205933577 1.1235180161283072 -0.29395536558577084
v -0.2562754254209013 1.1233179548139876 -0.3054168706069448
v -0.25129106205933577 0.8735560923392094 -0.28959226397645
v -0.2562754254209013 0.8733560310248897 -0.3010537689976239
v -0.1611523478793648 0.9081612004135523 -0.3290986848993538
v -0.16834984801533587 0.9079107336492352 -0.34641040804272316
v -0.16156209911389588 0.833172825687222 -0.3278433921728367
v -0.16875959924986694 0.8329223589229049 -0.3451551153162061
v -0.2073209662381541 0.9087346571068731 -0.30991197527364267
v -0.21451846637412517 0.908484190342556 -0.32722369841701204
v -0.20773071747268518 0.8337462823805427 -0.30865668254712564
v -0.21492821760865627 0.8334958156162257 -0.325968405690495
v -0.06589692193045446 1.1244893084933476 -0.2382909833244276
v -0.11373235097609072 1.1224738183557883 -0.3537583359723744
v -0.06589692193045446 0.8120369037569755 -0.23283710631277654
v -0.11373235097609072 0.8100214136194162 -0.3483044589607233
v -0.20447885180714745 1.1254911205131153 -0.1808972111507119
v -0.2523142808527836 1.123475630375556 -0.29636456379865866
v -0.20447885180714745 0.8130387157767429 -0.17544333413906077
v -0.2523142808527836 0.8110232256391836 -0.29091068678700754
v 0.2030845667474365 1.1254911233457676 -0.1808970488681591
v 0.2509199957930727 1.1234756332082083 -0.2963644015161059
v 0.2030845667474365 0.8130387186093955 -0.17544317185650798
v 0.2509199957930727 0.8110232284718362 -0.29091052450445476
v 0.06450263687074347 1.1244893113260002 -0.23829082104187488
v 0.1123380659163797 1.1224738211884409 -0.35375817368982165
v 0.06450263687074347 0.812036906589628 -0.23283694403022376
v 0.1123380659163797 0.8100214164520687 -0.34830429667817053
v 0.2512910620593358 1.1235180161283072 -0.29395536558577084
v 0.25627542542090137 1.1233179548139876 -0.3054168706069448
v 0.2512910620593358 0.8735560923392094 -0.28959226397645
v 0.25627542542090137 0.8733560310248897 -0.3010537689976239
v 0.11373205090156724 1.1224741465057013 -0.3537586162123705
v 0.11871641426313279 1.1222740851913817 -0.3652201212335444
v 0.11373205090156724 0.8725122227166036 -0.34939551460304963
v 0.11871641426313279 0.872312161402284 -0.36085701962422356
v 0.20732096623815416 0.9087346571068733 -0.30991197527364267
v 0.21451846637412522 0.9084841903425562 -0.32722369841701204
v 0.20773071747268523 0.8337462823805429 -0.30865668254712564
v 0.21492821760865632 0.8334958156162259 -0.325968405690495
v 0.16115234787936486 0.9081612004135525 -0.3290986848993538
v 0.16834984801533592 0.9079107336492355 -0.34641040804272316
v 0.16156209911389594 0.8331728256872222 -0.3278433921728367
v 0.168759599249867 0.8329223589229051 -0.3451551153162061
vt 0.425 0.23828125
vt 0.428125 0.34375
vt 0.4078125 0.34375
vt 0.4078125 0.23828125
vt 0.46875 0.23828125
vt 0.46875 0.34375
vt 0.453125 0.34375
vt 0.453125 0.23828125
vt 0.78125 0.76171875
vt 0.78125 0.78125
vt 0.71875 0.7765625
vt 0.71875 0.76171875
vt 0.828125 0.66796875
vt 0.828125 0.68515625
vt 0.765625 0.68515625
vt 0.765625 0.66953125
vt 0.34375 0.66015625
vt 0.34375 0.765625
vt 0.28125 0.765625
vt 0.28125 0.66015625
vt 0.421875 0.66015625
vt 0.421875 0.765625
vt 0.359375 0.765625
vt 0.3596078125 0.66015625
vt 0.425 0.23828125
vt 0.428125 0.34375
vt 0.4078125 0.34375
vt 0.4078125 0.23828125
vt 0.46875 0.23828125
vt 0.46875 0.34375
vt 0.453125 0.34375
vt 0.453125 0.23828125
vt 0.78125 0.71484375
vt 0.78125 0.7296875
vt 0.71875 0.734375
vt 0.71875 0.71484375
vt 0.828125 0.62265625
vt 0.828125 0.63828125
vt 0.765625 0.63828125
vt 0.765625 0.62109375
vt 0.328125 0.53515625
vt 0.328125 0.640625
vt 0.265625 0.640625
vt 0.265625 0.53515625
vt 0.4080578125 0.53515625
vt 0.408290625 0.639890625
vt 0.345615625 0.639890625
vt 0.345615625 0.5352484375
vt 0.6875 0.2578125
vt 0.6875 0.359375
vt 0.671875 0.359375
vt 0.671875 0.2578125
vt 0.078125 0.2109375
vt 0.078125 0.3125
vt 0.0625 0.3125
vt 0.0625 0.2109375
vt 0.796875 0.859375
vt 0.796875 0.875
vt 0.671875 0.875
vt 0.671875 0.859375
vt 0.796875 0.5625
vt 0.796875 0.578125
vt 0.671875 0.578125
vt 0.671875 0.5625
vt 0.125 0.7421875
vt 0.125 0.84375
vt 0 0.84375
vt 0 0.7421875
vt 0.265625 0.7421875
vt 0.265625 0.84375
vt 0.140625 0.84375
vt 0.140625 0.7421875
vt 0.830859375 0.34765625
vt 0.829296875 0.390625
vt 0.813671875 0.390625
vt 0.813671875 0.34765625
vt 0.171875 0.12890625
vt 0.171875 0.171875
vt 0.15625 0.1660921875
vt 0.15625 0.12890625
vt 0.890625 0.328125
vt 0.875 0.328125
vt 0.875 0.29634531249999996
vt 0.890625 0.297396875
vt 0.890625 0.71484375
vt 0.890625 0.73203125
vt 0.859375 0.73203125
vt 0.859375 0.71640625
vt 0.28125 0.25390625
vt 0.28125 0.296875
vt 0.25 0.296875
vt 0.25 0.25390625
vt 0.328125 0.25390625
vt 0.328125 0.2910921875
vt 0.296875 0.296875
vt 0.296875 0.25390625
vt 0.428125 0.17343750000000002
vt 0.4234375 0.21875
vt 0.4078125 0.21875
vt 0.4078125 0.17421874999999998
vt 0.359375 0.12890625
vt 0.359375 0.171875
vt 0.3453125 0.171875
vt 0.34375 0.12890625
vt 0.5 0.921875
vt 0.5 0.9375
vt 0.46875 0.9375
vt 0.46875 0.921875
vt 0.40625 0.8828125
vt 0.40625 0.903140625
vt 0.375 0.903140625
vt 0.375 0.885965625
vt 0.640625 0.25390625
vt 0.640625 0.296875
vt 0.609375 0.296875
vt 0.609375 0.25390625
vt 0.03125 0.2523171875
vt 0.03125 0.296875
vt 0 0.296875
vt 0 0.25142656250000006
vt 0.830859375 0.34765625
vt 0.829296875 0.390625
vt 0.813671875 0.390625
vt 0.813671875 0.34765625
vt 0.171875 0.12890625
vt 0.171875 0.171875
vt 0.15625 0.1660921875
vt 0.15625 0.12890625
vt 0.375 0.125
vt 0.375 0.10833746945839906
vt 0.4067164586090086 0.11034604564640982
vt 0.4057892109038072 0.125
vt 0.28125 0.10703125000000002
vt 0.28125 0.12265625000000002
vt 0.25 0.12265625000000002
vt 0.25 0.10546875
vt 0.734375 0.31640625
vt 0.734375 0.359375
vt 0.703125 0.359375
vt 0.703125 0.31640625
vt 0.734375 0.799190623657646
vt 0.734375 0.84375
vt 0.703125 0.8379701703845988
vt 0.703125 0.7992467340511448
vt 0.32421875 0.14453125
vt 0.32421875 0.234375
vt 0.3125 0.234375
vt 0.3125 0.14453125
vt 0.26171875 0.140625
vt 0.26171875 0.234375
vt 0.25 0.234375
vt 0.25 0.140625
vt 0.91796875 0.58203125
vt 0.91796875 0.59375
vt 0.875 0.59375
vt 0.875 0.58203125
vt 0.35546875 0.09765625
vt 0.35546875 0.109375
vt 0.328125 0.109375
vt 0.328125 0.09765625
vt 0.54296875 0.42578125
vt 0.54296875 0.515625
vt 0.5 0.515625
vt 0.515625 0.42578125
vt 0.4046875 0.42578125
vt 0.4203125 0.515625
vt 0.3765625 0.515625
vt 0.3765625 0.42578125
vt 0.29296875 0.140625
vt 0.29296875 0.234375
vt 0.28125 0.234375
vt 0.28125 0.140625
vt 0.62109375 0.14453125
vt 0.62109375 0.234375
vt 0.609375 0.234375
vt 0.609375 0.14453125
vt 0.91796875 0.48828125
vt 0.91796875 0.5
vt 0.875 0.5
vt 0.875 0.48828125
vt 0.91796875 0.39453125
vt 0.91796875 0.40625
vt 0.890625 0.40625
vt 0.890625 0.39453125
vt 0.5296875 0.53515625
vt 0.5453125 0.625
vt 0.5015625 0.625
vt 0.5015625 0.53515625
vt 0.04296875 0.39453125
vt 0.04296875 0.484375
vt 0 0.484375
vt 0.015624999999999998 0.39453125
vt 0.428125 0.17343750000000002
vt 0.4234375 0.21875
vt 0.4078125 0.21875
vt 0.4078125 0.17421874999999998
vt 0.359375 0.12890625
vt 0.359375 0.171875
vt 0.3453125 0.171875
vt 0.34375 0.12890625
vt 0.71875 0.59375
vt 0.71875 0.609375
vt 0.6875 0.609375
vt 0.6875 0.59375
vt 0.578125 0.15156250000000004
vt 0.578125 0.16874999999999996
vt 0.546875 0.16874999999999996
vt 0.546875 0.1484375
vt 0.734375 0.25390625
vt 0.734375 0.296875
vt 0.703125 0.296875
vt 0.703125 0.25390625
vt 0.71875 0.6263203125
vt 0.71875 0.671875
vt 0.6875 0.671875
vt 0.6875 0.62741875
vt 0.8671875 0.078125
vt 0.859375 0.078125
vt 0.859375 0.0625
vt 0.8671875 0.0625
vt 0.9453125 0.828125
vt 0.9453125 0.84375
vt 0.9375 0.84375
vt 0.9375 0.828125
vt 0.90625 0.7734375
vt 0.9375 0.7734375
vt 0.9375 0.78125
vt 0.90625 0.78125
vt 0.9375 0.7421875
vt 0.9375 0.75
vt 0.90625 0.75
vt 0.90625 0.7421875
vt 0.90625 0.25
vt 0.90625 0.265625
vt 0.875 0.265625
vt 0.875 0.25
vt 0.921875 1
vt 0.890625 1
vt 0.890625 0.984375
vt 0.921875 0.984375
vt 0.3984375 0.0546875
vt 0.3984375 0.078125
vt 0.390625 0.078125
vt 0.390625 0.0546875
vt 0.4765625 0.078125
vt 0.46875 0.078125
vt 0.46875 0.0546875
vt 0.4765625 0.0546875
vt 0.890625 0.375
vt 0.890625 0.3671875
vt 0.9296875 0.3671875
vt 0.9296875 0.375
vt 0.9296875 0.203125
vt 0.890625 0.203125
vt 0.890625 0.1953125
vt 0.9296875 0.1953125
vt 0.8046875 0.203125
vt 0.765625 0.203125
vt 0.765625 0.1796875
vt 0.8046875 0.1796875
vt 0.8515625 0.8515625
vt 0.8515625 0.875
vt 0.8125 0.875
vt 0.8125 0.8515625
vt 0.9296875 0.265625
vt 0.921875 0.265625
vt 0.921875 0.2421875
vt 0.9296875 0.2421875
vt 0.8359375 0.0546875
vt 0.8359375 0.078125
vt 0.828125 0.078125
vt 0.828125 0.0546875
vt 0.890625 0.1640625
vt 0.9296875 0.1640625
vt 0.9296875 0.171875
vt 0.890625 0.171875
vt 0.9296875 0.1328125
vt 0.9296875 0.140625
vt 0.890625 0.140625
vt 0.890625 0.1328125
vt 0.8515625 0.5703125
vt 0.8515625 0.59375
vt 0.8125 0.59375
vt 0.8125 0.5703125
vt 0.8515625 0.546875
vt 0.8125 0.546875
vt 0.8125 0.5234375
vt 0.8515625 0.5234375
vt 0.10546875 0.078125
vt 0.10546875 0.125
vt 0.09375 0.125
vt 0.09375 0.078125
vt 0.23046875 0.0922724115382334
vt 0.23046875 0.13938120351223748
vt 0.21875 0.140625
vt 0.22030474560970312 0.09336073346502549
vt 0.29842179608384556 0.0792590300919952
vt 0.30859375 0.08080582617584076
vt 0.30859375 0.125
vt 0.296875 0.12323223304703368
vt 0.91796875 0.42578125
vt 0.91796875 0.4375
vt 0.875 0.4375
vt 0.875 0.42578125
vt 0.71484375 0.953125
vt 0.71484375 1
vt 0.671875 1
vt 0.6723734375 0.953125
vt 0.6995609375 0.69921875
vt 0.70044375 0.7465015625
vt 0.65625 0.7465015625
vt 0.65625 0.700028125
vt 0.10546875 0.078125
vt 0.10546875 0.125
vt 0.09375 0.125
vt 0.09375 0.078125
vt 0.23046875 0.0922724115382334
vt 0.23046875 0.13938120351223748
vt 0.21875 0.140625
vt 0.22030474560970312 0.09336073346502549
vt 0.888290218001036 0.22200063132923542
vt 0.8900579849540023 0.234375
vt 0.8458638111298432 0.234375
vt 0.8443170150459977 0.22354742741308098
vt 0.62109375 0.11328125
vt 0.62109375 0.125
vt 0.578125 0.125
vt 0.578125 0.11328125
vt 0.5932515625 0.29664375
vt 0.59375 0.34375
vt 0.54975 0.34375
vt 0.54975 0.29710468749999996
vt 0.71484375 0.890625
vt 0.71484375 0.9375
vt 0.671875 0.9375
vt 0.6727578125 0.890625
vt 0.10546875 0.1796875
vt 0.10546875 0.3125
vt 0.09375 0.3125
vt 0.09375 0.1796875
vt 0.13671875 0.1796875
vt 0.13671875 0.3125
vt 0.125 0.3125
vt 0.125 0.1796875
vt 0.8671875 0.98828125
vt 0.8671875 1
vt 0.765625 1
vt 0.765625 0.98828125
vt 0.8671875 0.95703125
vt 0.8671875 0.96875
vt 0.765625 0.96875
vt 0.765625 0.95703125
vt 0.2265625 0.8671875
vt 0.2265625 1
vt 0.125 1
vt 0.125 0.8671875
vt 0.1015625 0.8671875
vt 0.1015625 1
vt 0 1
vt 0 0.8671875
vt 0.16796875 0.1875
vt 0.16796875 0.3125
vt 0.15625 0.3125
vt 0.15625 0.1875
vt 0.49609375 0.1875
vt 0.49609375 0.3125
vt 0.484375 0.3125
vt 0.484375 0.1875
vt 0.8671875 0.92578125
vt 0.8671875 0.9375
vt 0.765625 0.9375
vt 0.765625 0.92578125
vt 0.8671875 0.89453125
vt 0.8671875 0.90625
vt 0.765625 0.90625
vt 0.765625 0.89453125
vt 0.1015625 0.59375
vt 0.1015625 0.71875
vt 0 0.71875
vt 0 0.59375
vt 0.3515625 0.875
vt 0.3515625 1
vt 0.25 1
vt 0.25 0.875
vt 0.015625 0.16015625
vt 0.015625 0.234375
vt 0 0.234375
vt 0 0.16015625
vt 0.046875 0.16015625
vt 0.046875 0.234375
vt 0.03125 0.234375
vt 0.03125 0.16015625
vt 0.796875 0.53125
vt 0.796875 0.546875
vt 0.671875 0.546875
vt 0.671875 0.53125
vt 0.796875 0.5
vt 0.796875 0.515625
vt 0.671875 0.515625
vt 0.671875 0.5
vt 0.40625 0.78515625
vt 0.40625 0.859375
vt 0.28125 0.859375
vt 0.28125 0.78515625
vt 0.25 0.64453125
vt 0.25 0.71875
vt 0.125 0.71875
vt 0.125 0.64453125
vt 0.109375 0.5546875
vt 0.109375 0.578125
vt 0.09375 0.578125
vt 0.09375 0.5546875
vt 0.359375 0.4296875
vt 0.359375 0.453125
vt 0.34375 0.453125
vt 0.34375 0.4296875
vt 0.8515625 0.8125
vt 0.8515625 0.828125
vt 0.8125 0.828125
vt 0.8125 0.8125
vt 0.8671875 0.1875
vt 0.8671875 0.203125
vt 0.828125 0.203125
vt 0.828125 0.1875
vt 0.8359375 0.7109375
vt 0.8359375 0.734375
vt 0.796875 0.734375
vt 0.796875 0.7109375
vt 0.5859375 0.1953125
vt 0.5859375 0.21875
vt 0.546875 0.21875
vt 0.546875 0.1953125
vt 0.078125 0.4375
vt 0.078125 0.484375
vt 0.0625 0.484375
vt 0.0625 0.4375
vt 0.59375 0.953125
vt 0.59375 1
vt 0.578125 1
vt 0.578125 0.953125
vt 0.8671875 0.15625
vt 0.8671875 0.171875
vt 0.828125 0.171875
vt 0.828125 0.15625
vt 0.1328125 0.140625
vt 0.1328125 0.15625
vt 0.09375 0.15625
vt 0.09375 0.140625
vt 0.3828125 0.28125
vt 0.3828125 0.328125
vt 0.34375 0.328125
vt 0.34375 0.28125
vt 0.2265625 0.28125
vt 0.2265625 0.328125
vt 0.1875 0.328125
vt 0.1875 0.28125
vt 0.52734375 0.20703125
vt 0.52734375 0.3125
vt 0.515625 0.3125
vt 0.515625 0.20703125
vt 0.74609375 0.89453125
vt 0.74609375 1
vt 0.734375 1
vt 0.734375 0.89453125
vt 0.91796875 0.55078125
vt 0.91796875 0.5625
vt 0.875 0.5625
vt 0.875 0.55078125
vt 0.91796875 0.51953125
vt 0.91796875 0.53125
vt 0.875 0.53125
vt 0.875 0.51953125
vt 0.48046875 0.58203125
vt 0.48046875 0.6875
vt 0.4375 0.6875
vt 0.4375 0.58203125
vt 0.48046875 0.70703125
vt 0.48046875 0.8125
vt 0.4375 0.8125
vt 0.4375 0.70703125
vt 0.90625 0.9453125
vt 0.90625 0.96875
vt 0.890625 0.96875
vt 0.890625 0.9453125
vt 0.90625 0.8984375
vt 0.90625 0.921875
vt 0.890625 0.921875
vt 0.890625 0.8984375
vt 0.8828125 0.671875
vt 0.8828125 0.6875
vt 0.84375 0.6875
vt 0.84375 0.671875
vt 0.8828125 0.640625
vt 0.8828125 0.65625
vt 0.84375 0.65625
vt 0.84375 0.640625
vt 0.7421875 0.1796875
vt 0.7421875 0.203125
vt 0.703125 0.203125
vt 0.703125 0.1796875
vt 0.6796875 0.1796875
vt 0.6796875 0.203125
vt 0.640625 0.203125
vt 0.640625 0.1796875
vt 0.421875 0.359375
vt 0.421875 0.40625
vt 0.40625 0.40625
vt 0.40625 0.359375
vt 0.46875 0.171875
vt 0.46875 0.21875
vt 0.453125 0.21875
vt 0.453125 0.171875
vt 0.4140625 0.140625
vt 0.4140625 0.15625
vt 0.375 0.15625
vt 0.375 0.140625
vt 0.8828125 0.609375
vt 0.8828125 0.625
vt 0.84375 0.625
vt 0.84375 0.609375
vt 0.7109375 0.375
vt 0.7109375 0.421875
vt 0.671875 0.421875
vt 0.671875 0.375
vt 0.7109375 0.4375
vt 0.7109375 0.484375
vt 0.671875 0.484375
vt 0.671875 0.4375
vt 0.19921875 0.16015625
vt 0.19921875 0.265625
vt 0.1875 0.265625
vt 0.1875 0.16015625
vt 0.23046875 0.16015625
vt 0.23046875 0.265625
vt 0.21875 0.265625
vt 0.21875 0.16015625
vt 0.55859375 0.11328125
vt 0.55859375 0.125
vt 0.515625 0.125
vt 0.515625 0.11328125
vt 0.91796875 0.45703125
vt 0.91796875 0.46875
vt 0.875 0.46875
vt 0.875 0.45703125
vt 0.13671875 0.42578125
vt 0.13671875 0.53125
vt 0.09375 0.53125
vt 0.09375 0.42578125
vt 0.48046875 0.45703125
vt 0.48046875 0.5625
vt 0.4375 0.5625
vt 0.4375 0.45703125
vt 0.453125 0.92578125
vt 0.453125 1
vt 0.375 1
vt 0.375 0.92578125
vt 0.203125 0.55078125
vt 0.203125 0.625
vt 0.125 0.625
vt 0.125 0.55078125
vt 0.4921875 0.09375
vt 0.4921875 0.171875
vt 0.484375 0.171875
vt 0.484375 0.09375
vt 0.4453125 0.078125
vt 0.4453125 0.15625
vt 0.4375 0.15625
vt 0.4375 0.078125
vt 0.7109375 0.08203125
vt 0.7109375 0.15625
vt 0.703125 0.15625
vt 0.703125 0.08203125
vt 0.8515625 0.25390625
vt 0.8515625 0.328125
vt 0.84375 0.328125
vt 0.84375 0.25390625
vt 0.078125 0.50390625
vt 0.078125 0.578125
vt 0 0.578125
vt 0 0.50390625
vt 0.5 0.83203125
vt 0.5 0.90625
vt 0.421875 0.90625
vt 0.421875 0.83203125
vt 0.6484375 0.078125
vt 0.6484375 0.15625
vt 0.640625 0.15625
vt 0.640625 0.078125
vt 0.6796875 0.078125
vt 0.6796875 0.15625
vt 0.671875 0.15625
vt 0.671875 0.078125
vt 0.7734375 0.08203125
vt 0.7734375 0.15625
vt 0.765625 0.15625
vt 0.765625 0.08203125
vt 0.7421875 0.08203125
vt 0.7421875 0.15625
vt 0.734375 0.15625
vt 0.734375 0.08203125
vt 0.65625 0.50390625
vt 0.65625 0.578125
vt 0.625 0.578125
vt 0.625 0.50390625
vt 0.65625 0.41015625
vt 0.65625 0.484375
vt 0.625 0.484375
vt 0.625 0.41015625
vt 0.1640625 0.078125
vt 0.1640625 0.109375
vt 0.15625 0.109375
vt 0.15625 0.078125
vt 0.8984375 0.078125
vt 0.8984375 0.109375
vt 0.890625 0.109375
vt 0.890625 0.078125
vt 0.0078125 0.06640625
vt 0.0078125 0.140625
vt 0 0.140625
vt 0 0.06640625
vt 0.8046875 0.08203125
vt 0.8046875 0.15625
vt 0.796875 0.15625
vt 0.796875 0.08203125
vt 0.65625 0.31640625
vt 0.65625 0.390625
vt 0.625 0.390625
vt 0.625 0.31640625
vt 0.6875 0.76953125
vt 0.6875 0.84375
vt 0.65625 0.84375
vt 0.65625 0.76953125
vt 0.9140625 0.84375
vt 0.9140625 0.875
vt 0.90625 0.875
vt 0.90625 0.84375
vt 0.9140625 0.796875
vt 0.9140625 0.828125
vt 0.90625 0.828125
vt 0.90625 0.796875
vt 0.1953125 0.06640625
vt 0.1953125 0.140625
vt 0.1875 0.140625
vt 0.1875 0.06640625
vt 0.0390625 0.06640625
vt 0.0390625 0.140625
vt 0.03125 0.140625
vt 0.03125 0.06640625
vt 0.59375 0.890625
vt 0.59375 0.9375
vt 0.515625 0.9375
vt 0.515625 0.890625
vt 0.59375 0.828125
vt 0.59375 0.875
vt 0.515625 0.875
vt 0.515625 0.828125
vt 0.75 0.609375
vt 0.75 0.6875
vt 0.734375 0.6875
vt 0.734375 0.609375
vt 0.359375 0.1875
vt 0.359375 0.265625
vt 0.34375 0.265625
vt 0.34375 0.1875
vt 0.53125 0.140625
vt 0.53125 0.1875
vt 0.515625 0.1875
vt 0.515625 0.140625
vt 0.078125 0.140625
vt 0.078125 0.1875
vt 0.0625 0.1875
vt 0.0625 0.140625
vt 0.234375 0.421875
vt 0.234375 0.46875
vt 0.15625 0.46875
vt 0.15625 0.421875
vt 0.328125 0.40625
vt 0.328125 0.453125
vt 0.25 0.453125
vt 0.25 0.40625
vt 0.390625 0.1875
vt 0.390625 0.265625
vt 0.375 0.265625
vt 0.375 0.1875
vt 0.75 0.40625
vt 0.75 0.484375
vt 0.734375 0.484375
vt 0.734375 0.40625
vt 0.828125 0.21875
vt 0.828125 0.265625
vt 0.8125 0.265625
vt 0.8125 0.21875
vt 0.828125 0.28125
vt 0.828125 0.328125
vt 0.8125 0.328125
vt 0.8125 0.28125
vt 0.87109375 0.34375
vt 0.87109375 0.390625
vt 0.859375 0.390625
vt 0.859375 0.34375
vt 0.83984375 0.09375
vt 0.83984375 0.140625
vt 0.828125 0.140625
vt 0.828125 0.09375
vt 0.8515625 0.47265625
vt 0.8515625 0.484375
vt 0.765625 0.484375
vt 0.765625 0.47265625
vt 0.8515625 0.44140625
vt 0.8515625 0.453125
vt 0.765625 0.453125
vt 0.765625 0.44140625
vt 0.2421875 0.484375
vt 0.2421875 0.53125
vt 0.15625 0.53125
vt 0.15625 0.484375
vt 0.5546875 0.953125
vt 0.5546875 1
vt 0.46875 1
vt 0.46875 0.953125
vt 0.87109375 0.09375
vt 0.87109375 0.140625
vt 0.859375 0.140625
vt 0.859375 0.09375
vt 0.07421875 0.078125
vt 0.07421875 0.125
vt 0.0625 0.125
vt 0.0625 0.078125
vt 0.8515625 0.41015625
vt 0.8515625 0.421875
vt 0.765625 0.421875
vt 0.765625 0.41015625
vt 0.7265625 0.22265625
vt 0.7265625 0.234375
vt 0.640625 0.234375
vt 0.640625 0.22265625
vt 0.5859375 0.765625
vt 0.5859375 0.8125
vt 0.5 0.8125
vt 0.5 0.765625
vt 0.3515625 0.46875
vt 0.3515625 0.515625
vt 0.265625 0.515625
vt 0.265625 0.46875
vt 0.13671875 0.078125
vt 0.13671875 0.125
vt 0.125 0.125
vt 0.125 0.078125
vt 0.88671875 0.828125
vt 0.88671875 0.875
vt 0.875 0.875
vt 0.875 0.828125
vt 0.8828125 0.78515625
vt 0.8828125 0.796875
vt 0.796875 0.796875
vt 0.796875 0.78515625
vt 0.8828125 0.75390625
vt 0.8828125 0.765625
vt 0.796875 0.765625
vt 0.796875 0.75390625
vt 0.5859375 0.640625
vt 0.5859375 0.6875
vt 0.5 0.6875
vt 0.5 0.640625
vt 0.5859375 0.703125
vt 0.5859375 0.75
vt 0.5 0.75
vt 0.5 0.703125
vt 0.91015625 0.65625
vt 0.91015625 0.71875
vt 0.90625 0.71875
vt 0.90625 0.65625
vt 0.51953125 0.03125
vt 0.51953125 0.09375
vt 0.515625 0.09375
vt 0.515625 0.03125
vt 0.9609375 0.10546875
vt 0.9609375 0.109375
vt 0.921875 0.109375
vt 0.921875 0.10546875
vt 0.9609375 0.07421875
vt 0.9609375 0.078125
vt 0.921875 0.078125
vt 0.921875 0.07421875
vt 0.3828125 0.34375
vt 0.3828125 0.40625
vt 0.34375 0.40625
vt 0.34375 0.34375
vt 0.2265625 0.34375
vt 0.2265625 0.40625
vt 0.1875 0.40625
vt 0.1875 0.34375
vt 0.22265625 0.04296875
vt 0.22265625 0.0625
vt 0.21875 0.0625
vt 0.21875 0.04296875
vt 0.28515625 0.04296875
vt 0.28515625 0.0625
vt 0.28125 0.0625
vt 0.28125 0.04296875
vt 0.94921875 0.80859375
vt 0.94921875 0.8125
vt 0.9375 0.8125
vt 0.9375 0.80859375
vt 0.94921875 0.57421875
vt 0.94921875 0.578125
vt 0.9375 0.578125
vt 0.9375 0.57421875
vt 0.93359375 0.94921875
vt 0.93359375 0.96875
vt 0.921875 0.96875
vt 0.921875 0.94921875
vt 0.91796875 0.62109375
vt 0.91796875 0.640625
vt 0.90625 0.640625
vt 0.90625 0.62109375
vt 0.25 0.546875
vt 0.25 0.625
vt 0.21875 0.625
vt 0.21875 0.546875
vt 0.53125 0.328125
vt 0.53125 0.40625
vt 0.5 0.40625
vt 0.5 0.328125
vt 0.5859375 0.234375
vt 0.5859375 0.265625
vt 0.546875 0.265625
vt 0.546875 0.234375
vt 0.7890625 0.8125
vt 0.7890625 0.84375
vt 0.75 0.84375
vt 0.75 0.8125
vt 0.4765625 0.359375
vt 0.4765625 0.4375
vt 0.4375 0.4375
vt 0.4375 0.359375
vt 0.6015625 0.546875
vt 0.6015625 0.625
vt 0.5625 0.625
vt 0.5625 0.546875
vt 0.55078125 0.03125
vt 0.55078125 0.09375
vt 0.546875 0.09375
vt 0.546875 0.03125
vt 0.58203125 0.03125
vt 0.58203125 0.09375
vt 0.578125 0.09375
vt 0.578125 0.03125
vt 0.9765625 0.99609375
vt 0.9765625 1
vt 0.9375 1
vt 0.9375 0.99609375
vt 0.1015625 0.05859375
vt 0.1015625 0.0625
vt 0.0625 0.0625
vt 0.0625 0.05859375
vt 0.6484375 0.859375
vt 0.6484375 0.921875
vt 0.609375 0.921875
vt 0.609375 0.859375
vt 0.6484375 0.9375
vt 0.6484375 1
vt 0.609375 1
vt 0.609375 0.9375
vt 0.94140625 0.69921875
vt 0.94140625 0.71875
vt 0.9375 0.71875
vt 0.9375 0.69921875
vt 0.94140625 0.65234375
vt 0.94140625 0.671875
vt 0.9375 0.671875
vt 0.9375 0.65234375
vt 0.94921875 0.54296875
vt 0.94921875 0.546875
vt 0.9375 0.546875
vt 0.9375 0.54296875
vt 0.94921875 0.51171875
vt 0.94921875 0.515625
vt 0.9375 0.515625
vt 0.9375 0.51171875
vt 0.26171875 0.05859375
vt 0.26171875 0.078125
vt 0.25 0.078125
vt 0.25 0.05859375
vt 0.93359375 0.90234375
vt 0.93359375 0.921875
vt 0.921875 0.921875
vt 0.921875 0.90234375
vt 0.640625 0.765625
vt 0.640625 0.84375
vt 0.609375 0.84375
vt 0.609375 0.765625
vt 0.28125 0.3125
vt 0.28125 0.390625
vt 0.25 0.390625
vt 0.25 0.3125
vt 0.7890625 0.359375
vt 0.7890625 0.390625
vt 0.75 0.390625
vt 0.75 0.359375
vt 0.7890625 0.3125
vt 0.7890625 0.34375
vt 0.75 0.34375
vt 0.75 0.3125
vt 0.6015625 0.359375
vt 0.6015625 0.4375
vt 0.5625 0.4375
vt 0.5625 0.359375
vt 0.6015625 0.453125
vt 0.6015625 0.53125
vt 0.5625 0.53125
vt 0.5625 0.453125
vt 0.640625 0.671875
vt 0.640625 0.75
vt 0.609375 0.75
vt 0.609375 0.671875
vt 0.328125 0.3125
vt 0.328125 0.390625
vt 0.296875 0.390625
vt 0.296875 0.3125
vt 0.7890625 0.265625
vt 0.7890625 0.296875
vt 0.75 0.296875
vt 0.75 0.265625
vt 0.7890625 0.21875
vt 0.7890625 0.25
vt 0.75 0.25
vt 0.75 0.21875
vt 0.1640625 0.328125
vt 0.1640625 0.40625
vt 0.125 0.40625
vt 0.125 0.328125
vt 0.1015625 0.328125
vt 0.1015625 0.40625
vt 0.0625 0.40625
vt 0.0625 0.328125
vt 0.61328125 0.03125
vt 0.61328125 0.09375
vt 0.609375 0.09375
vt 0.609375 0.03125
vt 0.91015625 0.28125
vt 0.91015625 0.34375
vt 0.90625 0.34375
vt 0.90625 0.28125
vt 0.1640625 0.05859375
vt 0.1640625 0.0625
vt 0.125 0.0625
vt 0.125 0.05859375
vt 0.9765625 0.87109375
vt 0.9765625 0.875
vt 0.9375 0.875
vt 0.9375 0.87109375
vt 0.6640625 0.59375
vt 0.6640625 0.65625
vt 0.625 0.65625
vt 0.625 0.59375
vt 0.0390625 0.3125
vt 0.0390625 0.375
vt 0 0.375
vt 0 0.3125
vt 0.94140625 0.60546875
vt 0.94140625 0.625
vt 0.9375 0.625
vt 0.9375 0.60546875
vt 0.42578125 0.04296875
vt 0.42578125 0.0625
vt 0.421875 0.0625
vt 0.421875 0.04296875
vt 0.94921875 0.48046875
vt 0.94921875 0.484375
vt 0.9375 0.484375
vt 0.9375 0.48046875
vt 0.94921875 0.44921875
vt 0.94921875 0.453125
vt 0.9375 0.453125
vt 0.9375 0.44921875
vt 0.37109375 0.05859375
vt 0.37109375 0.078125
vt 0.359375 0.078125
vt 0.359375 0.05859375
vt 0.33984375 0.05859375
vt 0.33984375 0.078125
vt 0.328125 0.078125
vt 0.328125 0.05859375
vn 1 0 0
vn -1 0 0
vn 0 1 0
vn 0 -1 0
vn 0 0 1
vn -0.07478994824163422 0 -0.9971993098884564
vn 1 0 0
vn -1 0 0
vn 0 1 0
vn 0 -1 0
vn 0 0 1
vn 0.07475683520093031 -0.029753964259076726 -0.9967578026790714
vn 1 0 0
vn -1 0 0
vn 0 1 0
vn 0 -1 0
vn 0 0 1
vn 0 0 -1
vn 1 0 0
vn -1 0 0
vn -0.18197499886518467 0.9618156244212481 0.20444022208748613
vn 0 -0.9781476007338058 -0.20791169081775895
vn 0 -0.2079116908177594 0.9781476007338056
vn 2.686164253670933e-16 0.2079116908177592 -0.9781476007338057
vn 1 0 0
vn -1 0 0
vn 0 0.9781476007338057 0.20791169081775962
vn 0 -0.9854156158715311 -0.1701648142141346
vn 0 -0.2079116908177594 0.9781476007338056
vn 0 0.24208368467527505 -0.9702553734012721
vn 1 0 0
vn -1 0 0
vn 0.17100167575116473 0.9749234180895251 -0.14241754018003006
vn 0 -0.9781476007338057 -0.20791169081775962
vn 0 -0.2079116908177594 0.9781476007338056
vn 0.0064893785789390005 0.24207858730338816 -0.9702349434723815
vn 0.9574818564260025 0.2812827591472232 0.06409761322811863
vn -0.8968262057175789 -0.439808457556482 -0.04765792064283893
vn -0.27505634437783094 0.9570859180594437 -0.09127186242109925
vn 0.2750563443778301 -0.957085918059444 0.09127186242109919
vn -0.08702012429616535 0.06976069709254297 0.9937610090502861
vn 0.08702012429616533 -0.06976069709254296 -0.9937610090502861
vn 0.8968262057175792 -0.43980845755648174 -0.0476579206428389
vn -0.9574818564260025 0.2812827591472232 0.06409761322811824
vn 0.27505634437783094 0.9570859180594437 -0.09127186242109925
vn -0.2750563443778297 -0.9570859180594435 0.0912718624211034
vn 0.08702012429616536 0.069760697092543 0.9937610090502861
vn -0.08702012429616535 -0.06976069709254297 -0.9937610090502861
vn 1 0 0
vn -1 0 0
vn 0 0.9781476007338057 0.20791169081775962
vn 0 -0.9781476007338058 -0.20791169081775895
vn 0 -0.2079116908177594 0.9781476007338056
vn 0 0.3074586104488609 -0.9515614551151469
vn 1 0 0
vn -1 0 0
vn 0 0.9961946980917453 0.08715574274766161
vn 0 -0.9961946980917453 -0.08715574274766161
vn 0 -0.08715574274765785 0.9961946980917455
vn 0 0.08715574274765785 -0.9961946980917455
vn -0.8976557920642317 -0.3818751612160556 -0.21996690710138264
vn 0.8976557920642313 0.38187516121605647 0.21996690710138322
vn -0.423578968559381 0.8853901037397702 0.19148164819075975
vn 0.42357896855938204 -0.88539010373977 -0.19148164819075914
vn -0.12163443742504713 -0.2650579661996428 0.9565298417646997
vn 0.12163443742504715 0.2650579661996427 -0.9565298417646997
vn 0.8976557920642317 -0.3818751612160555 -0.21996690710138264
vn -0.8976557920642313 0.38187516121605647 0.21996690710138322
vn 0.42357896855938093 0.8853901037397702 0.19148164819075997
vn -0.42357896855938204 -0.8853901037397698 -0.19148164819075947
vn 0.12163443742504718 -0.2650579661996427 0.9565298417646997
vn -0.1216344374250471 0.2650579661996428 -0.9565298417646997
vn 1 0 0
vn -1 0 0
vn -8.638214859966146e-16 0.9483236552061997 -0.3173046564050912
vn 0 -0.9483236552061997 0.3173046564050912
vn -0.10653312363426536 0.31549892444496297 0.9429268912502168
vn 0.14020528620036168 -0.4355105213373908 -0.8891979889349215
vn 1 0 0
vn -1 0 0
vn 6.009577756062512e-16 0.9483236552061992 -0.3173046564050931
vn 0 -0.9483236552061997 0.3173046564050912
vn 0.1060103763322978 0.4077808074182937 0.9069049637151454
vn -0.1414213562373097 -0.31411558394455147 -0.9387925222982837
vn 1 0 0
vn -1 0 0
vn 0 1 0
vn 0 -1 0
vn 0 0 1
vn 0 0 -1
vn 1 0 0
vn -1 0 0
vn 0 0.9993908270190958 0.03489949670250067
vn 0 -0.9993908270190958 -0.03489949670250289
vn 0 -0.03489949670250096 0.9993908270190959
vn 0 0.03489949670250097 -0.9993908270190959
vn 1 0 0
vn -1 0 0
vn 0 0.9902680687415706 -0.1391731009600647
vn 0 -0.9902680687415706 0.1391731009600647
vn 0 0.13917310096006535 0.9902680687415704
vn 0 -0.13917310096006535 -0.9902680687415704
vn 0.9574817175661282 0.28128323424922136 0.06409760258320996
vn -0.9574817175661283 -0.28128323424922036 -0.06409760258321004
vn 0.0027991353978144987 0.21311175450296743 -0.9770238200441644
vn -0.0027991353978150443 -0.21311175450296665 0.9770238200441645
vn -0.28848037258649273 0.9356618631872122 0.2032632588772328
vn 0.28848037258649395 -0.9356618631872119 -0.20326325887723276
vn 0.9579455165477696 0.2756990113993279 0.07956407756934301
vn -0.9579455165477695 -0.2756990113993284 -0.0795640775693427
vn -0.13180308673105337 0.1764602854582556 0.9754433422727111
vn 0.13180308673105348 -0.17646028545825573 -0.975443342272711
vn 0.2548888653005331 -0.9449083673930635 0.20537732001460732
vn -0.2548888653005344 0.9449083673930629 -0.20537732001460735
vn 0.9579455504865693 0.2756986864317563 0.07956479499620368
vn -0.9579455504865693 -0.2756986864317565 -0.07956479499620366
vn -0.2861258542850688 0.9387411480584381 0.19208605480764485
vn 0.2861258542850689 -0.938741148058438 -0.1920860548076445
vn -0.021732874007444676 -0.20677352645280486 0.9781474280217927
vn 0.02173287400744477 0.20677352645280503 -0.9781474280217927
vn 0.9574817175661284 -0.28128323424922047 -0.06409760258320948
vn -0.9574817175661281 0.28128323424922125 0.06409760258321023
vn -0.0027991353978147324 0.21311175450296677 -0.9770238200441647
vn 0.002799135397815259 -0.213111754502966 0.9770238200441647
vn 0.28848037258649273 0.9356618631872123 0.20326325887723282
vn -0.2884803725864939 -0.9356618631872118 -0.20326325887723262
vn 0.9579455165477695 -0.2756990113993284 -0.07956407756934276
vn -0.9579455165477696 0.27569901139932795 0.07956407756934301
vn 0.13180308673105354 0.17646028545825623 0.9754433422727109
vn -0.13180308673105345 -0.17646028545825554 -0.9754433422727111
vn -0.254888865300533 -0.9449083673930633 0.20537732001460843
vn 0.25488886530053434 0.9449083673930629 -0.20537732001460735
vn 0.9579455504865693 -0.2756986864317563 -0.07956479499620363
vn -0.9579455504865693 0.2756986864317563 0.07956479499620368
vn 0.28612585428506887 0.9387411480584379 0.19208605480764468
vn -0.28612585428506887 -0.9387411480584379 -0.19208605480764468
vn 0.021732874007444676 -0.20677352645280497 0.9781474280217927
vn -0.02173287400744482 0.20677352645280497 -0.9781474280217927
vn 0.9961946980917455 0 0.08715574274765822
vn -0.9961946980917455 0 -0.08715574274765822
vn 0 1 0
vn 0 -1 0
vn -0.08715574274765849 0 0.9961946980917457
vn 0.08715574274765849 0 -0.9961946980917457
vn 0.9961946980917455 0 -0.08715574274765822
vn -0.9961946980917455 0 0.08715574274765822
vn 0 1 0
vn 0 -1 0
vn 0.08715574274765849 0 0.9961946980917457
vn -0.08715574274765849 0 -0.9961946980917457
vn 0.8703556959398997 0 -0.4924235601034669
vn -0.8703556959398997 0 0.49242356010346716
vn 0 1 0
vn 0 -1 0
vn 0.492423560103466 0 0.8703556959399005
vn -0.4924235601034671 0 -0.8703556959398997
vn 0.8703556959398997 0 0.49242356010346716
vn -0.8703556959398997 0 -0.4924235601034669
vn 0 1 0
vn 0 -1 0
vn -0.492423560103466 0 0.8703556959399005
vn 0.4924235601034671 0 -0.8703556959398997
vn 1 0 0
vn -1 0 0
vn 0 1 0
vn 0 -1 0
vn 0 0 1
vn 0 0 -1
vn 1 0 0
vn -1 0 0
vn 0 1 0
vn 0 -1 0
vn 0 0 1
vn 0 0 -1
vn 2.1147105230955357e-16 -0.17364817766693033 -0.9848077530122081
vn -1.7975039446312038e-15 0.17364817766693008 0.9848077530122081
vn -0.182235525492146 0.9683170561562847 -0.17074042288054656
vn 0.18223552549214603 -0.9683170561562847 0.17074042288054717
vn 0.9832549075639547 0.17946695837892057 -0.031644866907886544
vn -0.9832549075639547 -0.1794669583789208 0.03164486690788648
vn 1.7975039446312058e-15 0.17364817766693028 0.9848077530122081
vn -2.1147105230955357e-16 -0.17364817766693033 -0.9848077530122081
vn 0.18223552549215077 0.9683170561562839 -0.17074042288054644
vn -0.1822355254921459 -0.9683170561562847 0.17074042288054717
vn -0.9832549075639547 0.17946695837892054 -0.03164486690788656
vn 0.9832549075639547 -0.17946695837892054 0.03164486690788644
vn 1 0 0
vn -1 0 0
vn 0 0.9990482215818577 0.0436193873653374
vn 0 -0.9990482215818577 -0.0436193873653374
vn 0 -0.04361938736533619 0.9990482215818579
vn 0 0.04361938736533619 -0.9990482215818579
vn 1 0 0
vn -1 0 0
vn 0 0.9998476951563913 -0.017452406437286124
vn 0 -0.9998476951563913 0.017452406437286124
vn 0 0.01745240643728341 0.9998476951563913
vn 0 -0.01745240643728341 -0.9998476951563913
vn 0.9999842489773519 0.005483637560815638 0.001196459904538825
vn -0.9999842489773518 -0.005483637560815639 -0.001196459904538826
vn -0.005462848855610217 0.9998450075391021 -0.016736731506299698
vn 0.005462848855610199 -0.9998450075391021 0.016736731506299694
vn -0.0012880526318082277 0.016729931806042837 0.9998592152409173
vn 0.001288052631807122 -0.016729931806042847 -0.9998592152409173
vn 1 0 0
vn -1 0 0
vn 0 0.9998476951563913 -0.017452406437284303
vn 0 -0.9998476951563913 0.017452406437282523
vn 0 0.01745240643728349 0.9998476951563914
vn 0 -0.017452406437283415 -0.9998476951563913
vn 0.9170600743851242 -0.0069591308173717285 -0.3986883375106641
vn -0.9170600743851249 0.006959130817371701 0.3986883375106625
vn 3.027634566665787e-15 0.9998476951563914 -0.01745240643727764
vn -3.058353628219531e-15 -0.9998476951563914 0.017452406437277572
vn 0.3987490689252464 0.016004905145574747 0.916920401693915
vn -0.3987490689252461 -0.01600490514557454 -0.9169204016939152
vn 0.9233723671757852 -0.011469133866414924 -0.383734192514221
vn -0.9233723671757854 0.01146913386641464 0.383734192514221
vn 0.005463349793747475 0.9998449963510725 -0.016737236353562408
vn -0.0054633497937474915 -0.9998449963510725 0.016737236353562415
vn 0.3838666739184568 0.013358227430241891 0.9232919009796973
vn -0.38386667391845675 -0.013358227430241065 -0.9232919009796973
vn 0.9238795325112866 -0.006678746798450209 -0.382625147824772
vn -0.9238795325112868 0.006678746798450263 0.3826251478247714
vn 8.839861712998487e-16 0.9998476951563914 -0.017452406437283866
vn 4.886137790668008e-16 -0.9998476951563914 0.017452406437283297
vn 0.3826834323650896 0.016123921100474375 0.9237388211835744
vn -0.3826834323650898 -0.016123921100474524 -0.9237388211835743
vn 0.9238795325112867 0.006678746798450274 0.3826251478247718
vn -0.9238795325112867 -0.006678746798450276 -0.38262514782477186
vn 4.886137790668007e-16 0.9998476951563914 -0.017452406437283297
vn -4.893365805151245e-16 -0.9998476951563914 0.017452406437283297
vn -0.3826834323650897 0.016123921100474534 0.9237388211835743
vn 0.3826834323650897 -0.016123921100474534 -0.9237388211835743
vn 0.917060074385125 0.006959130817371697 0.39868833751066257
vn -0.9170600743851249 -0.006959130817371701 -0.3986883375106625
vn -3.0583536282195317e-15 0.9998476951563914 -0.01745240643727757
vn -4.824699667560503e-16 -0.9998476951563914 0.017452406437285718
vn -0.39874906892524625 0.01600490514557455 0.9169204016939152
vn 0.39874906892524625 -0.01600490514557455 -0.9169204016939152
vn 0.9233723671757852 0.011469133866414983 0.3837341925142209
vn -0.9233723671757852 -0.011469133866414925 -0.3837341925142209
vn -0.005463349793747475 0.9998449963510725 -0.016737236353562408
vn 0.005463349793747488 -0.9998449963510725 0.01673723635356242
vn -0.3838666739184567 0.013358227430241208 0.9232919009796973
vn 0.3838666739184568 -0.013358227430241891 -0.9232919009796973
usemtl m_d6a9c897-3e3b-9071-f35d-4f5892ed520f
f 4/1/1 2/2/1 1/3/1 3/4/1
f 7/5/2 5/6/2 6/7/2 8/8/2
f 1/9/3 2/10/3 6/11/3 5/12/3
f 4/13/4 3/14/4 7/15/4 8/16/4
f 3/17/5 1/18/5 5/19/5 7/20/5
f 8/21/6 6/22/6 2/23/6 4/24/6
f 12/25/7 10/26/7 9/27/7 11/28/7
f 15/29/8 13/30/8 14/31/8 16/32/8
f 9/33/9 10/34/9 14/35/9 13/36/9
f 12/37/10 11/38/10 15/39/10 16/40/10
f 11/41/11 9/42/11 13/43/11 15/44/11
f 16/45/12 14/46/12 10/47/12 12/48/12
f 20/49/13 18/50/13 17/51/13 19/52/13
f 23/53/14 21/54/14 22/55/14 24/56/14
f 17/57/15 18/58/15 22/59/15 21/60/15
f 20/61/16 19/62/16 23/63/16 24/64/16
f 19/65/17 17/66/17 21/67/17 23/68/17
f 24/69/18 22/70/18 18/71/18 20/72/18
f 28/73/19 26/74/19 25/75/19 27/76/19
f 31/77/20 29/78/20 30/79/20 32/80/20
f 25/81/21 26/82/21 30/83/21 29/84/21
f 28/85/22 27/86/22 31/87/22 32/88/22
f 27/89/23 25/90/23 29/91/23 31/92/23
f 32/93/24 30/94/24 26/95/24 28/96/24
f 36/97/25 34/98/25 33/99/25 35/100/25
f 39/101/26 37/102/26 38/103/26 40/104/26
f 33/105/27 34/106/27 38/107/27 37/108/27
f 36/109/28 35/110/28 39/111/28 40/112/28
f 35/113/29 33/114/29 37/115/29 39/116/29
f 40/117/30 38/118/30 34/119/30 36/120/30
f 44/121/31 42/122/31 41/123/31 43/124/31
f 47/125/32 45/126/32 46/127/32 48/128/32
f 41/129/33 42/130/33 46/131/33 45/132/33
f 44/133/34 43/134/34 47/135/34 48/136/34
f 43/137/35 41/138/35 45/139/35 47/140/35
f 48/141/36 46/142/36 42/143/36 44/144/36
f 52/145/37 50/146/37 49/147/37 51/148/37
f 55/149/38 53/150/38 54/151/38 56/152/38
f 49/153/39 50/154/39 54/155/39 53/156/39
f 52/157/40 51/158/40 55/159/40 56/160/40
f 51/161/41 49/162/41 53/163/41 55/164/41
f 56/165/42 54/166/42 50/167/42 52/168/42
f 60/169/43 58/170/43 57/171/43 59/172/43
f 63/173/44 61/174/44 62/175/44 64/176/44
f 57/177/45 58/178/45 62/179/45 61/180/45
f 60/181/46 59/182/46 63/183/46 64/184/46
f 59/185/47 57/186/47 61/187/47 63/188/47
f 64/189/48 62/190/48 58/191/48 60/192/48
f 68/193/49 66/194/49 65/195/49 67/196/49
f 71/197/50 69/198/50 70/199/50 72/200/50
f 65/201/51 66/202/51 70/203/51 69/204/51
f 68/205/52 67/206/52 71/207/52 72/208/52
f 67/209/53 65/210/53 69/211/53 71/212/53
f 72/213/54 70/214/54 66/215/54 68/216/54
f 74/217/55 73/218/55 75/219/55 76/220/55
f 79/221/56 77/222/56 78/223/56 80/224/56
f 77/225/57 73/226/57 74/227/57 78/228/57
f 76/229/58 75/230/58 79/231/58 80/232/58
f 75/233/59 73/234/59 77/235/59 79/236/59
f 78/237/60 74/238/60 76/239/60 80/240/60
f 83/241/61 81/242/61 82/243/61 84/244/61
f 86/245/62 85/246/62 87/247/62 88/248/62
f 82/249/63 81/250/63 85/251/63 86/252/63
f 87/253/64 83/254/64 84/255/64 88/256/64
f 85/257/65 81/258/65 83/259/65 87/260/65
f 84/261/66 82/262/66 86/263/66 88/264/66
f 90/265/67 89/266/67 91/267/67 92/268/67
f 95/269/68 93/270/68 94/271/68 96/272/68
f 93/273/69 89/274/69 90/275/69 94/276/69
f 92/277/70 91/278/70 95/279/70 96/280/70
f 91/281/71 89/282/71 93/283/71 95/284/71
f 94/285/72 90/286/72 92/287/72 96/288/72
f 100/289/73 98/290/73 97/291/73 99/292/73
f 103/293/74 101/294/74 102/295/74 104/296/74
f 97/297/75 98/298/75 102/299/75 101/300/75
f 100/301/76 99/302/76 103/303/76 104/304/76
f 99/305/77 97/306/77 101/307/77 103/308/77
f 104/309/78 102/310/78 98/311/78 100/312/78
f 108/313/79 106/314/79 105/315/79 107/316/79
f 111/317/80 109/318/80 110/319/80 112/320/80
f 105/321/81 106/322/81 110/323/81 109/324/81
f 108/325/82 107/326/82 111/327/82 112/328/82
f 107/329/83 105/330/83 109/331/83 111/332/83
f 112/333/84 110/334/84 106/335/84 108/336/84
f 116/337/85 114/338/85 113/339/85 115/340/85
f 119/341/86 117/342/86 118/343/86 120/344/86
f 113/345/87 114/346/87 118/347/87 117/348/87
f 116/349/88 115/350/88 119/351/88 120/352/88
f 115/353/89 113/354/89 117/355/89 119/356/89
f 120/357/90 118/358/90 114/359/90 116/360/90
f 124/361/91 122/362/91 121/363/91 123/364/91
f 127/365/92 125/366/92 126/367/92 128/368/92
f 121/369/93 122/370/93 126/371/93 125/372/93
f 124/373/94 123/374/94 127/375/94 128/376/94
f 123/377/95 121/378/95 125/379/95 127/380/95
f 128/381/96 126/382/96 122/383/96 124/384/96
f 132/385/97 130/386/97 129/387/97 131/388/97
f 135/389/98 133/390/98 134/391/98 136/392/98
f 129/393/99 130/394/99 134/395/99 133/396/99
f 132/397/100 131/398/100 135/399/100 136/400/100
f 131/401/101 129/402/101 133/403/101 135/404/101
f 136/405/102 134/406/102 130/407/102 132/408/102
f 140/409/103 138/410/103 137/411/103 139/412/103
f 143/413/104 141/414/104 142/415/104 144/416/104
f 137/417/105 138/418/105 142/419/105 141/420/105
f 140/421/106 139/422/106 143/423/106 144/424/106
f 139/425/107 137/426/107 141/427/107 143/428/107
f 144/429/108 142/430/108 138/431/108 140/432/108
f 148/433/109 146/434/109 145/435/109 147/436/109
f 151/437/110 149/438/110 150/439/110 152/440/110
f 145/441/111 146/442/111 150/443/111 149/444/111
f 148/445/112 147/446/112 151/447/112 152/448/112
f 147/449/113 145/450/113 149/451/113 151/452/113
f 152/453/114 150/454/114 146/455/114 148/456/114
f 156/457/115 154/458/115 153/459/115 155/460/115
f 159/461/116 157/462/116 158/463/116 160/464/116
f 153/465/117 154/466/117 158/467/117 157/468/117
f 156/469/118 155/470/118 159/471/118 160/472/118
f 155/473/119 153/474/119 157/475/119 159/476/119
f 160/477/120 158/478/120 154/479/120 156/480/120
f 164/481/121 162/482/121 161/483/121 163/484/121
f 167/485/122 165/486/122 166/487/122 168/488/122
f 161/489/123 162/490/123 166/491/123 165/492/123
f 164/493/124 163/494/124 167/495/124 168/496/124
f 163/497/125 161/498/125 165/499/125 167/500/125
f 168/501/126 166/502/126 162/503/126 164/504/126
f 172/505/127 170/506/127 169/507/127 171/508/127
f 175/509/128 173/510/128 174/511/128 176/512/128
f 169/513/129 170/514/129 174/515/129 173/516/129
f 172/517/130 171/518/130 175/519/130 176/520/130
f 171/521/131 169/522/131 173/523/131 175/524/131
f 176/525/132 174/526/132 170/527/132 172/528/132
f 180/529/133 178/530/133 177/531/133 179/532/133
f 183/533/134 181/534/134 182/535/134 184/536/134
f 177/537/135 178/538/135 182/539/135 181/540/135
f 180/541/136 179/542/136 183/543/136 184/544/136
f 179/545/137 177/546/137 181/547/137 183/548/137
f 184/549/138 182/550/138 178/551/138 180/552/138
f 188/553/139 186/554/139 185/555/139 187/556/139
f 191/557/140 189/558/140 190/559/140 192/560/140
f 185/561/141 186/562/141 190/563/141 189/564/141
f 188/565/142 187/566/142 191/567/142 192/568/142
f 187/569/143 185/570/143 189/571/143 191/572/143
f 192/573/144 190/574/144 186/575/144 188/576/144
f 196/577/145 194/578/145 193/579/145 195/580/145
f 199/581/146 197/582/146 198/583/146 200/584/146
f 193/585/147 194/586/147 198/587/147 197/588/147
f 196/589/148 195/590/148 199/591/148 200/592/148
f 195/593/149 193/594/149 197/595/149 199/596/149
f 200/597/150 198/598/150 194/599/150 196/600/150
f 204/601/151 202/602/151 201/603/151 203/604/151
f 207/605/152 205/606/152 206/607/152 208/608/152
f 201/609/153 202/610/153 206/611/153 205/612/153
f 204/613/154 203/614/154 207/615/154 208/616/154
f 203/617/155 201/618/155 205/619/155 207/620/155
f 208/621/156 206/622/156 202/623/156 204/624/156
f 212/625/157 210/626/157 209/627/157 211/628/157
f 215/629/158 213/630/158 214/631/158 216/632/158
f 209/633/159 210/634/159 214/635/159 213/636/159
f 212/637/160 211/638/160 215/639/160 216/640/160
f 211/641/161 209/642/161 213/643/161 215/644/161
f 216/645/162 214/646/162 210/647/162 212/648/162
f 220/649/163 218/650/163 217/651/163 219/652/163
f 223/653/164 221/654/164 222/655/164 224/656/164
f 217/657/165 218/658/165 222/659/165 221/660/165
f 220/661/166 219/662/166 223/663/166 224/664/166
f 219/665/167 217/666/167 221/667/167 223/668/167
f 224/669/168 222/670/168 218/671/168 220/672/168
f 228/673/169 226/674/169 225/675/169 227/676/169
f 231/677/170 229/678/170 230/679/170 232/680/170
f 225/681/171 226/682/171 230/683/171 229/684/171
f 228/685/172 227/686/172 231/687/172 232/688/172
f 227/689/173 225/690/173 229/691/173 231/692/173
f 232/693/174 230/694/174 226/695/174 228/696/174
f 236/697/175 234/698/175 233/699/175 235/700/175
f 239/701/176 237/702/176 238/703/176 240/704/176
f 233/705/177 234/706/177 238/707/177 237/708/177
f 236/709/178 235/710/178 239/711/178 240/712/178
f 235/713/179 233/714/179 237/715/179 239/716/179
f 240/717/180 238/718/180 234/719/180 236/720/180
f 244/721/181 242/722/181 241/723/181 243/724/181
f 247/725/182 245/726/182 246/727/182 248/728/182
f 241/729/183 242/730/183 246/731/183 245/732/183
f 244/733/184 243/734/184 247/735/184 248/736/184
f 243/737/185 241/738/185 245/739/185 247/740/185
f 248/741/186 246/742/186 242/743/186 244/744/186
f 252/745/187 250/746/187 249/747/187 251/748/187
f 255/749/188 253/750/188 254/751/188 256/752/188
f 249/753/189 250/754/189 254/755/189 253/756/189
f 252/757/190 251/758/190 255/759/190 256/760/190
f 251/761/191 249/762/191 253/763/191 255/764/191
f 256/765/192 254/766/192 250/767/192 252/768/192
f 260/769/193 258/770/193 257/771/193 259/772/193
f 263/773/194 261/774/194 262/775/194 264/776/194
f 257/777/195 258/778/195 262/779/195 261/780/195
f 260/781/196 259/782/196 263/783/196 264/784/196
f 259/785/197 257/786/197 261/787/197 263/788/197
f 264/789/198 262/790/198 258/791/198 260/792/198
f 268/793/199 266/794/199 265/795/199 267/796/199
f 271/797/200 269/798/200 270/799/200 272/800/200
f 265/801/201 266/802/201 270/803/201 269/804/201
f 268/805/202 267/806/202 271/807/202 272/808/202
f 267/809/203 265/810/203 269/811/203 271/812/203
f 272/813/204 270/814/204 266/815/204 268/816/204
f 276/817/205 274/818/205 273/819/205 275/820/205
f 279/821/206 277/822/206 278/823/206 280/824/206
f 273/825/207 274/826/207 278/827/207 277/828/207
f 276/829/208 275/830/208 279/831/208 280/832/208
f 275/833/209 273/834/209 277/835/209 279/836/209
f 280/837/210 278/838/210 274/839/210 276/840/210
f 284/841/211 282/842/211 281/843/211 283/844/211
f 287/845/212 285/846/212 286/847/212 288/848/212
f 281/849/213 282/850/213 286/851/213 285/852/213
f 284/853/214 283/854/214 287/855/214 288/856/214
f 283/857/215 281/858/215 285/859/215 287/860/215
f 288/861/216 286/862/216 282/863/216 284/864/216
f 292/865/217 290/866/217 289/867/217 291/868/217
f 295/869/218 293/870/218 294/871/218 296/872/218
f 289/873/219 290/874/219 294/875/219 293/876/219
f 292/877/220 291/878/220 295/879/220 296/880/220
f 291/881/221 289/882/221 293/883/221 295/884/221
f 296/885/222 294/886/222 290/887/222 292/888/222
f 300/889/223 298/890/223 297/891/223 299/892/223
f 303/893/224 301/894/224 302/895/224 304/896/224
f 297/897/225 298/898/225 302/899/225 301/900/225
f 300/901/226 299/902/226 303/903/226 304/904/226
f 299/905/227 297/906/227 301/907/227 303/908/227
f 304/909/228 302/910/228 298/911/228 300/912/228
f 308/913/229 306/914/229 305/915/229 307/916/229
f 311/917/230 309/918/230 310/919/230 312/920/230
f 305/921/231 306/922/231 310/923/231 309/924/231
f 308/925/232 307/926/232 311/927/232 312/928/232
f 307/929/233 305/930/233 309/931/233 311/932/233
f 312/933/234 310/934/234 306/935/234 308/936/234
f 316/937/235 314/938/235 313/939/235 315/940/235
f 319/941/236 317/942/236 318/943/236 320/944/236
f 313/945/237 314/946/237 318/947/237 317/948/237
f 316/949/238 315/950/238 319/951/238 320/952/238
f 315/953/239 313/954/239 317/955/239 319/956/239
f 320/957/240 318/958/240 314/959/240 316/960/240
f 324/961/241 322/962/241 321/963/241 323/964/241
f 327/965/242 325/966/242 326/967/242 328/968/242
f 321/969/243 322/970/243 326/971/243 325/972/243
f 324/973/244 323/974/244 327/975/244 328/976/244
f 323/977/245 321/978/245 325/979/245 327/980/245
f 328/981/246 326/982/246 322/983/246 324/984/246
