# Made in Blockbench 5.0.7
mtllib press.mtl

o cube
v 0.14375 1.243431875 -0.18276000000000003
v 0.14375 1.243431875 -0.25776000000000004
v 0.14375 0.868431875 -0.18276000000000003
v 0.14375 0.868431875 -0.25776000000000004
v -0.14375 1.243431875 -0.18276000000000003
v -0.14375 1.243431875 -0.25776000000000004
v -0.14375 0.868431875 -0.18276000000000003
v -0.14375 0.868431875 -0.25776000000000004
v 0.14375 1.4601233553479243 -0.11301249094089594
v 0.14375 1.4820512332021296 -0.18473534763812355
v 0.14375 1.2210471663571654 -0.18610541712158013
v 0.14375 1.2429750442113707 -0.25782827381880774
v -0.14375 1.4601233553479243 -0.11301249094089594
v -0.14375 1.4820512332021296 -0.18473534763812355
v -0.14375 1.2210471663571654 -0.18610541712158013
v -0.14375 1.2429750442113707 -0.25782827381880774
v -0.13220238975549917 1.243431875 -0.18361813567485027
v -0.14328809559021996 1.243431875 -0.257794325426994
v -0.13220238975549917 0.868431875 -0.18361813567485027
v -0.14328809559021996 0.868431875 -0.257794325426994
v -0.2620107218217508 1.243431875 -0.16421815046408889
v -0.2730964276564716 1.243431875 -0.2383943402162326
v -0.2620107218217508 0.868431875 -0.16421815046408889
v -0.2730964276564716 0.868431875 -0.2383943402162326
v 0.2620107218217508 1.243431875 -0.16421815046408889
v 0.2730964276564716 1.243431875 -0.2383943402162326
v 0.2620107218217508 0.868431875 -0.16421815046408889
v 0.2730964276564716 0.868431875 -0.2383943402162326
v 0.13220238975549917 1.243431875 -0.18361813567485027
v 0.14328809559021996 1.243431875 -0.257794325426994
v 0.13220238975549917 0.868431875 -0.18361813567485027
v 0.14328809559021996 0.868431875 -0.257794325426994
v 0.1317729862703573 1.4603983842658532 -0.11391434090859677
v 0.14350557114837462 1.482056293556446 -0.18475417022262444
v 0.13177298627035733 1.2213221952750943 -0.18700726708928095
v 0.14350557114837462 1.2429801045656872 -0.2578470964033086
v 0.26140708097346915 1.4543954015430705 -0.09427946915106786
v 0.2731396658514864 1.4760533108336633 -0.16511929846509552
v 0.26140708097346915 1.2153192125523116 -0.16737239533175202
v 0.27309662379966027 1.243431232506437 -0.23839468663572666
v -0.1317729862703573 1.4603983842658532 -0.11391434090859677
v -0.14350557114837462 1.482056293556446 -0.18475417022262444
v -0.13177298627035733 1.2213221952750943 -0.18700726708928095
v -0.14350557114837462 1.2429801045656872 -0.2578470964033086
v -0.26140708097346915 1.4543954015430705 -0.09427946915106786
v -0.2731396658514864 1.4760533108336633 -0.16511929846509552
v -0.26140708097346915 1.2153192125523116 -0.16737239533175202
v -0.27309662379966027 1.243431232506437 -0.23839468663572666
v -0.24224379217535055 1.2206790950707864 0.15729529677940415
v -0.2841813492391299 1.2208597049646315 0.1697560827734133
v -0.2778483279348535 1.2178148606954664 0.03750751278289838
v -0.31978588499863286 1.2179954705893112 0.04996829877690756
v -0.24134422400664518 0.870773973316396 0.16539446631431276
v -0.28328178107042457 0.870954583210241 0.17785525230832192
v -0.2769487597661481 0.867909738941076 0.04560668231780701
v -0.31888631682992746 0.868090348834921 0.05806746831181617
v -0.2794432131408063 1.2182928885764333 0.05738645517180682
v -0.32239639811280135 1.217990207674828 0.04908014521892251
v -0.22898319199400788 1.2123881156845133 -0.2033347763149279
v -0.2719363769660029 1.212085434782908 -0.2116410862678122
v -0.27854364529674525 0.868387755910443 0.06548515331964644
v -0.32149683026874026 0.8680850750088378 0.057178843366762155
v -0.2280836241499468 0.8624829830185231 -0.19523607816708832
v -0.27103680912194184 0.862180302116918 -0.2035423881199726
v 0.24134422400664512 0.870773973316396 0.16539446631431276
v 0.2832817810704245 0.870954583210241 0.17785525230832192
v 0.276948759766148 0.867909738941076 0.04560668231780701
v 0.3188863168299274 0.868090348834921 0.05806746831181617
v 0.2422437921753505 1.2206790950707864 0.15729529677940415
v 0.28418134923912985 1.2208597049646315 0.1697560827734133
v 0.2778483279348534 1.2178148606954664 0.03750751278289838
v 0.3197858849986328 1.2179954705893112 0.04996829877690756
v 0.27854364529674513 0.868387755910443 0.06548515331964644
v 0.3214968302687402 0.8680850750088379 0.057178843366762155
v 0.22808362414994673 0.8624829830185232 -0.19523607816708832
v 0.2710368091219418 0.862180302116918 -0.2035423881199726
v 0.2794432131408062 1.2182928885764333 0.05738645517180682
v 0.3223963981128013 1.217990207674828 0.04908014521892251
v 0.22898319199400782 1.2123881156845133 -0.2033347763149279
v 0.27193637696600287 1.212085434782908 -0.2116410862678122
v 0.26875 1.243431875 0.19525999999999996
v 0.26875 1.243431875 0.12026
v 0.26875 0.868431875 0.19525999999999996
v 0.26875 0.868431875 0.12026
v -0.26875 1.243431875 0.19525999999999996
v -0.26875 1.243431875 0.12026
v -0.26875 0.868431875 0.19525999999999996
v -0.26875 0.868431875 0.12026
v 0.26875 1.49137799206126 0.16480431078677354
v 0.26875 1.4822377913058737 0.09036334941367441
v 0.26875 1.2432414541509293 0.1952716466380604
v 0.26875 1.2341012533955433 0.12083068526496128
v -0.26875 1.49137799206126 0.16480431078677354
v -0.26875 1.4822377913058737 0.09036334941367441
v -0.26875 1.2432414541509293 0.1952716466380604
v -0.26875 1.2341012533955433 0.12083068526496128
v -0.11238994094414936 1.3153948616190803 0.119051191085823
v -0.11155463348873332 1.3160208629835142 0.16278873655589546
v -0.18897966939972854 1.5533659463372136 0.11710791211054775
v -0.1881443619443125 1.5539919477016475 0.16084545758062022
v -0.2670451857878676 1.2656498268295315 0.122716809194158
v -0.2662098783324516 1.2662758281939654 0.16645435466423047
v -0.34363491424344683 1.5036209115476649 0.12077353021888274
v -0.3427996067880308 1.5042469129120988 0.1645110756889552
v -0.20792582112001695 1.5849408006139563 -0.10164048939851338
v -0.21058754877838412 1.5913347963906812 -0.1448388056143094
v -0.05338770691198452 1.2147772911912464 -0.16595230828811242
v -0.056049434570351664 1.2211712869679714 -0.20915062450390842
v -0.3578837624225505 1.5223399606409302 -0.10166646972711235
v -0.36054549008091763 1.5287339564176552 -0.14486478594290836
v -0.203345648214518 1.1521764512182204 -0.16597828861671138
v -0.20600737587288517 1.1585704469949454 -0.20917660483250738
v -0.19431139964728142 1.5614987174246866 0.049405367778037446
v -0.20773826807992232 1.6030767184045285 0.04715780496182853
v -0.19547141346544736 1.5501611738763093 -0.15339966199003885
v -0.20889828189808826 1.5917391748561514 -0.15564722480624776
v -0.3489666603141697 1.5117537254566904 0.05307089941217197
v -0.3623935287468106 1.5533317264365325 0.05082333659596305
v -0.3501266741323356 1.5004161819083133 -0.14973413035590433
v -0.3635535425649765 1.5419941828881554 -0.15198169317211324
v -0.17705036467267007 1.5181984303026255 0.1431651874110617
v -0.18884480148856955 1.556206117287096 0.16134125657593534
v -0.1953974748406037 1.56686287327079 0.0294983253135975
v -0.2071919116565032 1.6048705602552606 0.04767439447847112
v -0.33170557919328364 1.46845329987073 0.14683078693866153
v -0.3435000160091831 1.5064609868552006 0.16500685610353513
v -0.35005268936121725 1.5171177428388947 0.03316392484119729
v -0.36184712617711673 1.5551254298233652 0.05133999400607091
v 0.3317055791932836 1.46845329987073 0.14683078693866153
v 0.34350001600918306 1.5064609868552006 0.16500685610353513
v 0.3500526893612172 1.5171177428388947 0.03316392484119729
v 0.3618471261771167 1.5551254298233652 0.05133999400607091
v 0.17705036467267002 1.5181984303026255 0.1431651874110617
v 0.1888448014885695 1.556206117287096 0.16134125657593534
v 0.19539747484060366 1.56686287327079 0.0294983253135975
v 0.20719191165650314 1.6048705602552606 0.04767439447847112
v 0.26704518578786757 1.2656498268295315 0.122716809194158
v 0.2662098783324515 1.2662758281939654 0.16645435466423047
v 0.3436349142434468 1.5036209115476649 0.12077353021888274
v 0.34279960678803073 1.5042469129120988 0.1645110756889552
v 0.11238994094414931 1.3153948616190803 0.119051191085823
v 0.11155463348873326 1.3160208629835142 0.16278873655589546
v 0.1889796693997285 1.5533659463372136 0.11710791211054775
v 0.18814436194431244 1.5539919477016475 0.16084545758062022
v 0.3489666603141696 1.5117537254566904 0.05307089941217197
v 0.3623935287468105 1.5533317264365325 0.05082333659596305
v 0.35012667413233556 1.5004161819083133 -0.14973413035590433
v 0.36355354256497646 1.5419941828881554 -0.15198169317211324
v 0.19431139964728136 1.5614987174246866 0.049405367778037446
v 0.20773826807992227 1.6030767184045285 0.04715780496182853
v 0.1954714134654473 1.5501611738763093 -0.15339966199003885
v 0.2088982818980882 1.5917391748561514 -0.15564722480624776
v 0.35788376242255043 1.5223399606409302 -0.10166646972711235
v 0.36054549008091763 1.5287339564176552 -0.14486478594290836
v 0.20334564821451795 1.1521764512182204 -0.16597828861671138
v 0.20600737587288512 1.1585704469949454 -0.20917660483250738
v 0.2079258211200169 1.5849408006139563 -0.10164048939851338
v 0.21058754877838406 1.5913347963906812 -0.1448388056143094
v 0.05338770691198447 1.2147772911912464 -0.16595230828811242
v 0.05604943457035161 1.2211712869679714 -0.20915062450390842
v -0.01668336962792913 1.1931037366326025 -0.24602396076306562
v -0.02617829550090703 1.1890413109752018 -0.3234633480633584
v -0.017669435841756037 0.8966443790646554 -0.23035097097738697
v -0.027164361714733937 0.8925819534072547 -0.30779035827767975
v -0.2648287653974215 1.1955308779106137 -0.21572591555188805
v -0.2743236912703994 1.1914684522532129 -0.29316530285218084
v -0.2658148316112484 0.8990715203426665 -0.20005292576620937
v -0.2753097574842263 0.8950090946852658 -0.2774923130665022
v -0.16665264979837136 1.26380320353228 -0.28501070478624047
v -0.1651720735183426 1.261216032486249 -0.3035222401049977
v -0.14948557607330226 1.1413750680413555 -0.26652711152264924
v -0.14800499979327347 1.1387878969953245 -0.28503864684140645
v -0.1851658735701155 1.261041961441583 -0.2861055050848759
v -0.1836852972900867 1.2584547903955523 -0.30461704040363313
v -0.16799879984504637 1.1386138259506586 -0.2676219118212847
v -0.1665182235650176 1.1360266549046278 -0.2861334471400419
v -0.08425367496193986 1.2770792385833702 -0.289591103535663
v -0.056842067207205915 1.0932109545891526 -0.2651512201209978
v -0.26948440702629406 1.2512382364755266 -0.27624687223648947
v -0.2420727992715601 1.067369952481309 -0.2518069888218243
v 0.23768058052524493 1.1841935545982807 -0.198754541663419
v 0.237680583252518 1.2045882782071948 -0.3536678004533495
v 0.2254437463598964 1.0920407824703222 -0.21088668816526718
v 0.22544374908716946 1.1124355060792364 -0.3657999469551977
v -0.010180633538643957 1.2165459452698757 -0.19449527170161204
v -0.010180630811370855 1.23694066887879 -0.3494085304915426
v -0.0224174677039925 1.1243931731419172 -0.2066274182034602
v -0.022417464976719398 1.1447878967508314 -0.36154067699339076
v 0.14473262797855968 1.216720424709043 -0.3520705742176719
v 0.1447326285240143 1.220799369430826 -0.38305322597565805
v 0.13249579381321114 1.1245676525810844 -0.3642027207195201
v 0.13249579435866576 1.1286465973028672 -0.3951853724775062
v 0.08276732446258744 1.2248085223769418 -0.3510057567272202
v 0.08276732500804207 1.2288874670987247 -0.38198840848520627
v 0.07053049029723892 1.1326557502489834 -0.36313790322906836
v 0.07053049084269354 1.1367346949707662 -0.39412055498705445
v 0.20346376361198804 1.1822370853085462 -0.3408505647261195
v 0.20346376415744266 1.186316030030329 -0.37183321648410567
v 0.2224875572963436 1.1576568942623382 -0.3440866089141669
v 0.22248755784179822 1.161735838984121 -0.37506926067215307
v 0.17867147098191702 1.1633760429702087 -0.34333366924594244
v 0.17867147152737164 1.1674549876919915 -0.3743163210039286
v 0.19769526466627257 1.1387958519240007 -0.34656971343398985
v 0.1976952652117272 1.1428747966457835 -0.377552365191976
v 0.05058997718294892 1.217816124832953 -0.33616649658301545
v 0.05058997772840354 1.221895069554736 -0.3671491483410016
v 0.06961377086730448 1.193235933786745 -0.33940254077106286
v 0.06961377141275911 1.197314878508528 -0.370385192529049
v 0.025797684552877915 1.1989550824946156 -0.33864960110283837
v 0.025797685098332534 1.2030340272163984 -0.3696322528608245
v 0.04482147823723348 1.1743748914484076 -0.3418856452908858
v 0.0448214787826881 1.1784538361701904 -0.3728682970488719
v 0.1015131395345045 1.1097615911920036 -0.2204895531076891
v 0.16723727016322834 1.1098356165487715 -0.28734309208166564
v 0.08519736064737313 0.9868912283547255 -0.23666574844348667
v 0.15092149127609697 0.9869652537114932 -0.3035192874174632
v 0.035789011219948624 1.1269930626723823 -0.28508427307699225
v 0.10151314184867247 1.12706708802915 -0.3519378120509688
v 0.019473232332817253 1.0041226998351043 -0.3012604684127898
v 0.0851973629615411 1.004196725191872 -0.36811400738676636
v 0.08519736049309526 0.9857375285655825 -0.22790253118060136
v 0.15968470853898226 0.9858214239699192 -0.3036698753511081
v 0.06888158160596389 0.8628671657283044 -0.24407872651639892
v 0.14336892965185088 0.8629510611326411 -0.3198460706869057
v 0.010710015069931939 1.0052665295766783 -0.30110988047914494
v 0.08519736311581895 1.005350424981015 -0.3768772246496517
v -0.00560576381719944 0.8823961667394002 -0.3172860758149425
v 0.06888158422868758 0.8824800621437369 -0.39305341998544924
v 0.20559946608862617 0.8125 0.1896844541080495
v 0.31332446590223245 0.8125 0.09929244649587991
v 0.20559946608862617 0.6875 0.1896844541080495
v 0.31332446590223245 0.6875 0.09929244649587991
v 0.18149493072538095 0.8125 0.16095778749108783
v 0.2892199305389872 0.8125 0.07056577987891825
v 0.18149493072538095 0.6875 0.16095778749108783
v 0.2892199305389872 0.6875 0.07056577987891825
v 0.20625 0.8125 0.1875
v 0.20625 0.8125 0.14375
v 0.20625 0.625 0.1875
v 0.20625 0.625 0.14375
v -0.20625 0.8125 0.1875
v -0.20625 0.8125 0.14375
v -0.20625 0.625 0.1875
v -0.20625 0.625 0.14375
v -0.2772361696086431 0.8125 0.10193584315367044
v -0.2540854254412964 0.8125 -0.16267837352694947
v -0.2772361696086431 0.6875 0.10193584315367044
v -0.2540854254412964 0.6875 -0.16267837352694947
v -0.31459347078708355 0.8125 0.09866750280063324
v -0.29144272661973686 0.8125 -0.16594671387998663
v -0.31459347078708355 0.6875 0.09866750280063324
v -0.29144272661973686 0.6875 -0.16594671387998663
v -0.18149493072538095 0.8125 0.16095778749108783
v -0.2892199305389872 0.8125 0.07056577987891825
v -0.18149493072538095 0.6875 0.16095778749108783
v -0.2892199305389872 0.6875 0.07056577987891825
v -0.20559946608862617 0.8125 0.1896844541080495
v -0.31332446590223245 0.8125 0.09929244649587991
v -0.20559946608862617 0.6875 0.1896844541080495
v -0.31332446590223245 0.6875 0.09929244649587991
v 0.3145934707870836 0.8125 0.09866750280063324
v 0.2914427266197369 0.8125 -0.16594671387998663
v 0.3145934707870836 0.6875 0.09866750280063324
v 0.2914427266197369 0.6875 -0.16594671387998663
v 0.27723616960864317 0.8125 0.10193584315367044
v 0.2540854254412965 0.8125 -0.16267837352694947
v 0.27723616960864317 0.6875 0.10193584315367044
v 0.2540854254412965 0.6875 -0.16267837352694947
v 0.26875 0.8125 -0.11874999999999998
v 0.26875 0.8125 -0.16875
v 0.26875 0.6875 -0.11874999999999998
v 0.26875 0.6875 -0.16875
v 0.01874999999999999 0.8125 -0.11874999999999998
v 0.01874999999999999 0.8125 -0.16875
v 0.01874999999999999 0.6875 -0.11874999999999998
v 0.01874999999999999 0.6875 -0.16875
v 0.05 0.79375 -0.1375
v 0.05 0.79375 -0.18124999999999997
v 0.05 0.70625 -0.1375
v 0.05 0.70625 -0.18124999999999997
v -0.05 0.79375 -0.1375
v -0.05 0.79375 -0.18124999999999997
v -0.05 0.70625 -0.1375
v -0.05 0.70625 -0.18124999999999997
v -0.01874999999999999 0.8125 -0.11874999999999998
v -0.01874999999999999 0.8125 -0.16875
v -0.01874999999999999 0.6875 -0.11874999999999998
v -0.01874999999999999 0.6875 -0.16875
v -0.26875 0.8125 -0.11874999999999998
v -0.26875 0.8125 -0.16875
v -0.26875 0.6875 -0.11874999999999998
v -0.26875 0.6875 -0.16875
v -0.39993532889038647 0.8538494769474586 0.1788148627848685
v -0.31009287211937897 0.8479283752637617 0.09210688439648157
v -0.39691456287284643 0.729428012378987 0.1904413036548772
v -0.307072106101839 0.72350691069529 0.10373332526649026
v -0.26964922889680276 0.8695271472574148 0.31274018825437866
v -0.1798067721257953 0.8636060455737178 0.22603220986599173
v -0.2666284628792628 0.745105682688943 0.3243666291243874
v -0.1767860061082553 0.7391845810052461 0.23765865073600045
v -0.3969144484144468 0.7294284071108883 0.1904411959858055
v -0.3096633122116125 0.7495053638607639 0.10321072516867606
v -0.37528040534573925 0.6064947819824811 0.18378597297755522
v -0.2880292691429049 0.6265717387323567 0.09655550216042576
v -0.2666283529299882 0.7451060710317883 0.3243665265898322
v -0.1793772167271539 0.7651830277816639 0.2371360557727028
v -0.24499430986128068 0.622172445903381 0.31771130358158195
v -0.1577431736584463 0.6422494026532567 0.23048083276445253
v 0.38258721316702365 0.9652334521289342 -0.08588758417739463
v 0.31507358409890884 0.9617139804481469 -0.09838101081467611
v 0.3922437328225945 0.5940360249781937 -0.03350226462303528
v 0.3247301037544797 0.5905165532974066 -0.04599569126031676
v 0.32998470619194037 1.0024997795447814 0.18787464769703904
v 0.26247107712382556 0.9989803078639943 0.17538122105975756
v 0.3396412258475113 0.6313023523940411 0.24025996725139837
v 0.2721275967793964 0.6277828807132538 0.2277665406141169
v 0.3511234740270028 0.9582819781591796 -0.11992880942233139
v 0.31489032415395946 0.8884307387910323 0.050259948164682475
v 0.3920809258460406 0.7861142612089677 -0.18187244816468245
v 0.35584777597299727 0.7162630218408204 -0.011683690577668611
v 0.2507875475583845 0.9491692454722483 0.2683575666088826
v 0.24865926806044258 0.9309068370213606 0.12893968580103365
v 0.3002196024909356 0.5804938094602348 0.3158959177213988
v 0.2980913229929937 0.5622314010093469 0.17647803691354985
v -0.21381789937319917 0.8888089126310508 0.2833566132720305
v -0.2159461788711411 0.870546504180163 0.14393873246418154
v -0.16438584444064802 0.5201334766190372 0.3308949643845467
v -0.16651412393858994 0.5018710681681494 0.19147708357669774
v 0.23234711106532974 0.962657367999061 0.2538533176899977
v 0.23253592289656552 0.9299233799432669 0.11709133100855348
v 0.2335575246495085 0.9536165840943108 0.25601890083152035
v 0.23374633648074428 0.9208825960385169 0.11925691415007618
v -0.20149069324247498 0.9075873980136404 0.26643536677541424
v -0.2013018814112392 0.8748534099578464 0.12967338009397006
v -0.20028027965829623 0.8985466141088904 0.26860094991693695
v -0.20009146782706044 0.8658126260530963 0.13183896323549274
v 0.23728486623006145 0.9312134353976901 0.28646990547572493
v 0.23225811190727147 0.9630342417866462 0.25241944811117717
v 0.23795905446949284 0.9244314365308769 0.28003246913908003
v 0.23293230014670285 0.9562522429198329 0.24598201177453222
v -0.19655293643562496 0.8761434546904943 0.2990519642547147
v -0.20157969075841495 0.9079642610794503 0.2650015068901669
v -0.19587874819619358 0.869361455823681 0.29261452791806974
v -0.20090550251898356 0.9011822622126371 0.258564070553522
v 0.275228865983394 0.6431711657927385 0.3340829114918623
v 0.2611384044787947 0.7470339539205542 0.30282797969056297
v 0.27531005554564814 0.6404798631169164 0.32510288236261703
v 0.2612195940410489 0.7443426512447321 0.2938479505613177
v -0.15860893430327913 0.5881011587582674 0.34666493706980567
v -0.17269939580787844 0.6919639468860831 0.3154100052685063
v -0.158527744741025 0.5854098560824453 0.3376849079405604
v -0.1726182062456243 0.689272644210261 0.306429976139261
v 0.2618737368059636 0.7405642393280017 0.2998695950344336
v 0.23634418505435148 0.9384096546383601 0.28553663902272547
v 0.2616915951856756 0.739863590116238 0.2905225880208376
v 0.23616204343406347 0.9377090054265965 0.27618963200912944
v -0.1719640635913409 0.6854942426575501 0.3124516621597138
v -0.197493615342953 0.8833396579679086 0.2981187061480057
v -0.1721462052116289 0.6847935934457865 0.30310465514611773
v -0.19767575696324102 0.8826390087561449 0.28877169913440964
v 0.20074026210883567 0.6062319086868129 0.3205334734751316
v 0.17560960960334251 0.800985989382947 0.3064244699011064
v 0.20055812048854765 0.6055312594750493 0.3111864664615356
v 0.1754274679830545 0.8002853401711832 0.29707746288751036
v 0.15425764063769593 0.6003315519006931 0.32188155209569735
v 0.12912698813220275 0.7950856325968272 0.30777254852167213
v 0.1540754990174079 0.5996309026889294 0.31253454508210127
v 0.12894484651191473 0.7943849833850635 0.2984255415080761
v -0.03167284524686314 0.5767301247562138 0.3272738665779603
v -0.05680349775235632 0.7714842054523479 0.3131648630039351
v -0.03185498686715115 0.5760294755444502 0.31792685956436423
v -0.05698563937264433 0.7707835562405843 0.30381785599033906
v -0.07815546671800291 0.570829767970094 0.328621945198526
v -0.10328611922349609 0.7655838486662281 0.31451294162450083
v -0.0783376083382909 0.5701291187583304 0.31927493818492997
v -0.10346826084378408 0.7648831994544644 0.3051659346109048
v -0.24361110526290444 0.8255175054558408 -0.129859738578959
v -0.31870256775592853 0.8278463433599768 -0.15129252653748218
v -0.24541599307013887 0.5297722139845519 -0.1556711813430824
v -0.32050745556316296 0.5321010518886878 -0.17710396930160557
v -0.3125829679052184 0.8050425154184001 0.10956385454965578
v -0.38767443039824245 0.8073713533225361 0.0881310665911326
v -0.3143878557124528 0.5092972239471112 0.08375241178553239
v -0.3894793182054769 0.5116260618512471 0.0623196238270092
v 0.075 0.8686889675800593 -0.16013825030118278
v 0.075 0.8678708860283117 -0.20700611101163863
v 0.075 0.4250065528544107 -0.15239374494463823
v 0.075 0.4241884713026631 -0.19926160565509407
v -0.075 0.8686889675800593 -0.16013825030118278
v -0.075 0.8678708860283117 -0.20700611101163863
v -0.075 0.4250065528544107 -0.15239374494463823
v -0.075 0.4241884713026631 -0.19926160565509407
v -0.019985916288127847 0.8686331040252959 -0.1633386712101358
v -0.026341066430387233 0.8679328290296877 -0.20345739883950945
v -0.019985916288127847 0.4874411702469218 -0.15668494125592144
v -0.026341066430387233 0.4867408952513136 -0.1968036688852951
v -0.17431221950611814 0.8690596911916524 -0.13889950881740176
v -0.1806673696483775 0.8683594161960442 -0.1790182364467754
v -0.17431221950611814 0.4878677574132782 -0.1322457788631874
v -0.1806673696483775 0.48716748241767 -0.17236450649256105
v 0.007252169215413357 0.512432719151239 -0.1614517312424414
v 0.0008970190731539679 0.5117324441556308 -0.20157045887181502
v -0.020884319429397585 0.42979021899396336 -0.15555214019770586
v -0.027239469571656974 0.42908994399835515 -0.19567086782707951
v -0.14450295263661636 0.5657489665229124 -0.13834305845757253
v -0.15085810277887574 0.5650486915273042 -0.17846178608694618
v -0.1726394412814273 0.4831064663656368 -0.13244346741283702
v -0.17899459142368668 0.4824061913700286 -0.17256219504221065
v 0.17431221950611814 0.8690596911916524 -0.13889950881740176
v 0.1806673696483775 0.8683594161960442 -0.1790182364467754
v 0.17431221950611814 0.4878677574132782 -0.1322457788631874
v 0.1806673696483775 0.48716748241767 -0.17236450649256105
v 0.019985916288127847 0.8686331040252959 -0.1633386712101358
v 0.026341066430387233 0.8679328290296877 -0.20345739883950945
v 0.019985916288127847 0.4874411702469218 -0.15668494125592144
v 0.026341066430387233 0.4867408952513136 -0.1968036688852951
v 0.1445029526366164 0.5657489665229124 -0.13834305845757253
v 0.1508581027788758 0.5650486915273042 -0.17846178608694616
v 0.17263944128142733 0.4831064663656368 -0.132443467412837
v 0.17899459142368673 0.4824061913700286 -0.17256219504221065
v -0.007252169215413329 0.512432719151239 -0.1614517312424414
v -0.0008970190731539401 0.5117324441556308 -0.20157045887181502
v 0.0208843194293976 0.42979021899396336 -0.15555214019770586
v 0.027239469571656988 0.42908994399835515 -0.19567086782707951
v 0.20799064516861754 0.8864363084467572 -0.1511694311340142
v 0.21042138334264823 0.89278392260378 -0.18804827746145336
v 0.2598016934133164 0.6259996435711257 -0.19258104023392061
v 0.2622324315873471 0.6323472577281485 -0.22945988656135977
v 0.03970823394406656 0.8555668821225423 -0.1675744369512941
v 0.042138972118097265 0.8619144962795651 -0.20445328327873324
v 0.09151928218876543 0.5951302172469106 -0.20898604605120047
v 0.09395002036279614 0.6014778314039335 -0.2458648923786396
v -0.03970823394406656 0.8555668821225423 -0.1675744369512941
v -0.042138972118097265 0.8619144962795651 -0.20445328327873324
v -0.09151928218876543 0.5951302172469106 -0.20898604605120047
v -0.09395002036279614 0.6014778314039335 -0.2458648923786396
v -0.20799064516861754 0.8864363084467572 -0.1511694311340142
v -0.21042138334264823 0.89278392260378 -0.18804827746145336
v -0.2598016934133164 0.6259996435711257 -0.19258104023392061
v -0.2622324315873471 0.6323472577281485 -0.22945988656135977
vt 0.078125 0.5859375
vt 0.078125 0.6328125
vt 0.0703125 0.6328125
vt 0.0703125 0.5859375
vt 0.09375 0.5859375
vt 0.09375 0.6328125
vt 0.0859375 0.6328125
vt 0.0859375 0.5859375
vt 0.4296875 0.7734375
vt 0.4296875 0.78125
vt 0.390625 0.78125
vt 0.390625 0.7734375
vt 0.453125 0.7578125
vt 0.453125 0.765625
vt 0.4140625 0.765625
vt 0.4140625 0.7578125
vt 0.171875 0.8984375
vt 0.171875 0.9453125
vt 0.1328125 0.9453125
vt 0.1328125 0.8984375
vt 0.0390625 0.8046875
vt 0.0390625 0.8515625
vt 0 0.8515625
vt 0 0.8046875
vt 0.1328125 0.546875
vt 0.1328125 0.578125
vt 0.125 0.578125
vt 0.125 0.546875
vt 0.203125 0.5703125
vt 0.234375 0.5703125
vt 0.234375 0.578125
vt 0.203125 0.578125
vt 0.4609375 0.953125
vt 0.4609375 0.9609375
vt 0.421875 0.9609375
vt 0.421875 0.953125
vt 0.421875 0.921875
vt 0.421875 0.9140625
vt 0.4609375 0.9140625
vt 0.4609375 0.921875
vt 0.2578125 0.9375
vt 0.2578125 0.96875
vt 0.21875 0.96875
vt 0.21875 0.9375
vt 0.1640625 0.765625
vt 0.1640625 0.796875
vt 0.125 0.796875
vt 0.125 0.765625
vt 0.3046875 0.578125
vt 0.3046875 0.625
vt 0.296875 0.625
vt 0.296875 0.578125
vt 0.1484375 0.578125
vt 0.1484375 0.625
vt 0.140625 0.625
vt 0.140625 0.578125
vt 0.1484375 0.8828125
vt 0.1484375 0.890625
vt 0.1328125 0.890625
vt 0.1328125 0.8828125
vt 0.03125 0.7421875
vt 0.0390625 0.7421875
vt 0.0390625 0.7578125
vt 0.03125 0.7578125
vt 0.3046875 0.8828125
vt 0.3046875 0.9296875
vt 0.2890625 0.9296875
vt 0.2890625 0.8828125
vt 0.234375 0.671875
vt 0.234375 0.71875
vt 0.21875 0.71875
vt 0.21875 0.671875
vt 0.2890625 0.578125
vt 0.2890625 0.625
vt 0.28125 0.625
vt 0.28125 0.578125
vt 0.3203125 0.578125
vt 0.3203125 0.625
vt 0.3125 0.625
vt 0.3125 0.578125
vt 0.1015625 0.671875
vt 0.109375 0.671875
vt 0.109375 0.6875
vt 0.1015625 0.6875
vt 0.1875 0.7890625
vt 0.1875 0.796875
vt 0.171875 0.796875
vt 0.171875 0.7890625
vt 0.28125 0.6640625
vt 0.28125 0.7109375
vt 0.265625 0.7109375
vt 0.265625 0.6640625
vt 0.2578125 0.671875
vt 0.2578125 0.71875
vt 0.2421875 0.71875
vt 0.2421875 0.671875
vt 0.46875 0.9921875
vt 0.46875 1
vt 0.4375 1
vt 0.4375 0.9921875
vt 0.08763679106265661 0.5781248069622514
vt 0.07826152723173355 0.5781248069622514
vt 0.07826152723173355 0.546875
vt 0.087890625 0.5476397568636556
vt 0.5078125 0.9140625
vt 0.5078125 0.9296875
vt 0.5 0.9296875
vt 0.5 0.9140625
vt 0.1171875 0.4921875
vt 0.1328125 0.4921875
vt 0.1328125 0.49974621698951704
vt 0.1172333417974132 0.5
vt 0.0625 0.625
vt 0.0625 0.640625
vt 0.03125 0.640625
vt 0.03125 0.625
vt 0.1796875 0.640625
vt 0.1640625 0.640625
vt 0.16410758540412887 0.6101386206487402
vt 0.1796875 0.6093758844585251
vt 0.328125 0.5390625
vt 0.328125 0.5703125
vt 0.3203125 0.5703125
vt 0.3203125 0.5390625
vt 0.4296875 0.5703125
vt 0.4609375 0.5703125
vt 0.4609375 0.5778712166159214
vt 0.43045224089583745 0.578125
vt 0.109375 0.4921875
vt 0.109375 0.5
vt 0.09375 0.5
vt 0.09375 0.4921875
vt 0.48600600023765905 0.7107418211629306
vt 0.4766310341224543 0.7107418211629306
vt 0.4766310341224543 0.6943359375
vt 0.4862595908775457 0.6943816660801905
vt 0.1171875 0.609375
vt 0.1171875 0.640625
vt 0.1015625 0.640625
vt 0.1015625 0.609375
vt 0.33694522793602366 0.890625
vt 0.367431640625 0.890625
vt 0.3674073778071065 0.90625
vt 0.33615829774008055 0.9062029057860226
vt 0.5 0.828125
vt 0.5 0.84375
vt 0.4921875 0.84375
vt 0.4921875 0.828125
vt 0.484375 0.5859375
vt 0.5 0.5859375
vt 0.5 0.59375
vt 0.484375 0.59375
vt 0.4375 0.7890625
vt 0.4375 0.796875
vt 0.390625 0.796875
vt 0.390625 0.7890625
vt 0.3984375 0.6796875
vt 0.390625 0.6796875
vt 0.390625 0.6328125
vt 0.3984375 0.6328125
vt 0.359375 0.859375
vt 0.359375 0.875
vt 0.3125 0.875
vt 0.3125 0.859375
vt 0.078125 0.640625
vt 0.09375 0.640625
vt 0.09375 0.6875
vt 0.078125 0.6875
vt 0.4296875 0.6328125
vt 0.4609375 0.6328125
vt 0.4609375 0.640625
vt 0.4296875 0.640625
vt 0.0078125 0.5390625
vt 0.0078125 0.5703125
vt 0 0.5703125
vt 0 0.5390625
vt 0.0546875 0.6171875
vt 0.046875 0.6171875
vt 0.046875 0.5703125
vt 0.0546875 0.5703125
vt 0.4296875 0.8828125
vt 0.4296875 0.890625
vt 0.3828125 0.890625
vt 0.3828125 0.8828125
vt 0.1953125 0.96875
vt 0.1953125 1
vt 0.1484375 1
vt 0.1484375 0.96875
vt 0.046875 0.7890625
vt 0.078125 0.7890625
vt 0.078125 0.8359375
vt 0.046875 0.8359375
vt 0.5 0.78125
vt 0.5 0.796875
vt 0.4921875 0.796875
vt 0.4921875 0.78125
vt 0.484375 0.6015625
vt 0.5 0.6015625
vt 0.5 0.609375
vt 0.484375 0.609375
vt 0.265625 0.5625
vt 0.2734375 0.5625
vt 0.2734375 0.609375
vt 0.265625 0.609375
vt 0.390625 0.828125
vt 0.390625 0.8203125
vt 0.4375 0.8203125
vt 0.4375 0.828125
vt 0.3125 0.8828125
vt 0.328125 0.8828125
vt 0.328125 0.9296875
vt 0.3125 0.9296875
vt 0.359375 0.8359375
vt 0.359375 0.8515625
vt 0.3125 0.8515625
vt 0.3125 0.8359375
vt 0.4296875 0.6484375
vt 0.4609375 0.6484375
vt 0.4609375 0.65625
vt 0.4296875 0.65625
vt 0.0234375 0.5390625
vt 0.0234375 0.5703125
vt 0.015625 0.5703125
vt 0.015625 0.5390625
vt 0.3828125 0.90625
vt 0.3828125 0.8984375
vt 0.4296875 0.8984375
vt 0.4296875 0.90625
vt 0.03125 0.5703125
vt 0.0390625 0.5703125
vt 0.0390625 0.6171875
vt 0.03125 0.6171875
vt 0.15625 0.84375
vt 0.1875 0.84375
vt 0.1875 0.890625
vt 0.15625 0.890625
vt 0.1328125 0.8046875
vt 0.1328125 0.8359375
vt 0.0859375 0.8359375
vt 0.0859375 0.8046875
vt 0.375 0.8359375
vt 0.375 0.8828125
vt 0.3671875 0.8828125
vt 0.3671875 0.8359375
vt 0.2421875 0.5859375
vt 0.2421875 0.6328125
vt 0.234375 0.6328125
vt 0.234375 0.5859375
vt 0.3828125 0.8203125
vt 0.3828125 0.828125
vt 0.3125 0.828125
vt 0.3125 0.8203125
vt 0.359375 0.671875
vt 0.359375 0.6796875
vt 0.2890625 0.6796875
vt 0.2890625 0.671875
vt 0.0703125 0.953125
vt 0.0703125 1
vt 0 1
vt 0 0.953125
vt 0.0703125 0.8984375
vt 0.0703125 0.9453125
vt 0 0.9453125
vt 0 0.8984375
vt 0.421875 0.7265625
vt 0.453125 0.7265625
vt 0.453125 0.734375
vt 0.421875 0.734375
vt 0.4296875 0.6875
vt 0.4296875 0.71875
vt 0.421875 0.71875
vt 0.421875 0.6875
vt 0.328125 0.984375
vt 0.328125 0.9765625
vt 0.3984375 0.9765625
vt 0.3984375 0.984375
vt 0.3984375 0.9921875
vt 0.3984375 1
vt 0.328125 1
vt 0.328125 0.9921875
vt 0.0703125 0.859375
vt 0.0703125 0.890625
vt 0 0.890625
vt 0 0.859375
vt 0.1484375 0.84375
vt 0.1484375 0.875
vt 0.078125 0.875
vt 0.078125 0.84375
vt 0.46875 0.84375
vt 0.4375 0.84375
vt 0.4375 0.8359375
vt 0.46875 0.8359375
vt 0.2265625 0.5625
vt 0.2265625 0.53125
vt 0.234375 0.53125
vt 0.234375 0.5625
vt 0.4921875 0.65625
vt 0.4921875 0.6640625
vt 0.46875 0.6640625
vt 0.46875 0.65625
vt 0.3984375 0.53125
vt 0.390625 0.53125
vt 0.390625 0.5078125
vt 0.3984375 0.5078125
vt 0.3046875 0.78125
vt 0.2734375 0.78125
vt 0.2734375 0.7578125
vt 0.3046875 0.7578125
vt 0.28125 0.84375
vt 0.28125 0.8125
vt 0.3046875 0.8125
vt 0.3046875 0.84375
vt 0.3515625 0.5859375
vt 0.3515625 0.640625
vt 0.34375 0.640625
vt 0.34375 0.5859375
vt 0.359375 0.703125
vt 0.4140625 0.703125
vt 0.4140625 0.7109375
vt 0.359375 0.7109375
vt 0.5 0.734375
vt 0.5 0.7421875
vt 0.4765625 0.7421875
vt 0.4765625 0.734375
vt 0.484375 0.796875
vt 0.4765625 0.796875
vt 0.4765625 0.7734375
vt 0.484375 0.7734375
vt 0.25 0.796875
vt 0.25 0.84375
vt 0.2265625 0.84375
vt 0.2265625 0.796875
vt 0.0859375 0.7265625
vt 0.1328125 0.7265625
vt 0.1328125 0.75
vt 0.0859375 0.75
vt 0.1484375 0.5078125
vt 0.1484375 0.53125
vt 0.140625 0.53125
vt 0.140625 0.5078125
vt 0.46875 0.8046875
vt 0.4921875 0.8046875
vt 0.4921875 0.8125
vt 0.46875 0.8125
vt 0.0703125 0.84375
vt 0.0703125 0.8515625
vt 0.046875 0.8515625
vt 0.046875 0.84375
vt 0.46875 0.7421875
vt 0.4609375 0.7421875
vt 0.4609375 0.71875
vt 0.46875 0.71875
vt 0.359375 0.9140625
vt 0.359375 0.9375
vt 0.3359375 0.9375
vt 0.3359375 0.9140625
vt 0.328125 0.9453125
vt 0.3515625 0.9453125
vt 0.3515625 0.96875
vt 0.328125 0.96875
vt 0.2578125 0.5
vt 0.2421875 0.5
vt 0.2421875 0.4921875
vt 0.2578125 0.4921875
vt 0.5 0.8203125
vt 0.5 0.8046875
vt 0.5078125 0.8046875
vt 0.5078125 0.8203125
vt 0.5 0.8828125
vt 0.5 0.890625
vt 0.4765625 0.890625
vt 0.4765625 0.8828125
vt 0.484375 0.84375
vt 0.4765625 0.84375
vt 0.4765625 0.8203125
vt 0.484375 0.8203125
vt 0.421875 0.875
vt 0.40625 0.875
vt 0.40625 0.8515625
vt 0.421875 0.8515625
vt 0.40625 0.6796875
vt 0.40625 0.6640625
vt 0.4296875 0.6640625
vt 0.4296875 0.6796875
vt 0.171875 0.5
vt 0.15625 0.5
vt 0.15625 0.4921875
vt 0.171875 0.4921875
vt 0.265625 0.5
vt 0.265625 0.484375
vt 0.2734375 0.484375
vt 0.2734375 0.5
vt 0.046875 0.5
vt 0.0546875 0.5
vt 0.0546875 0.5234375
vt 0.046875 0.5234375
vt 0.4765625 0.90625
vt 0.4765625 0.8984375
vt 0.5 0.8984375
vt 0.5 0.90625
vt 0.40625 1
vt 0.40625 0.984375
vt 0.4296875 0.984375
vt 0.4296875 1
vt 0.421875 0.65625
vt 0.40625 0.65625
vt 0.40625 0.6328125
vt 0.421875 0.6328125
vt 0.46875 0.78125
vt 0.4375 0.78125
vt 0.4375 0.7734375
vt 0.46875 0.7734375
vt 0.046875 0.5625
vt 0.046875 0.53125
vt 0.0546875 0.53125
vt 0.0546875 0.5625
vt 0.46875 0.5859375
vt 0.4765625 0.5859375
vt 0.4765625 0.609375
vt 0.46875 0.609375
vt 0.46875 0.6484375
vt 0.46875 0.640625
vt 0.4921875 0.640625
vt 0.4921875 0.6484375
vt 0.2734375 0.75
vt 0.2734375 0.71875
vt 0.296875 0.71875
vt 0.296875 0.75
vt 0.109375 0.71875
vt 0.078125 0.71875
vt 0.078125 0.6953125
vt 0.109375 0.6953125
vt 0.4765625 0.8515625
vt 0.4765625 0.875
vt 0.46875 0.875
vt 0.46875 0.8515625
vt 0.2421875 0.5234375
vt 0.265625 0.5234375
vt 0.265625 0.53125
vt 0.2421875 0.53125
vt 0.4609375 0.6875
vt 0.46875 0.6875
vt 0.46875 0.7109375
vt 0.4609375 0.7109375
vt 0.1484375 0.9609375
vt 0.1484375 0.953125
vt 0.171875 0.953125
vt 0.171875 0.9609375
vt 0 0.640625
vt 0.0234375 0.640625
vt 0.0234375 0.6640625
vt 0 0.6640625
vt 0.3515625 0.6953125
vt 0.3515625 0.71875
vt 0.328125 0.71875
vt 0.328125 0.6953125
vt 0.2265625 0.5859375
vt 0.2265625 0.640625
vt 0.21875 0.640625
vt 0.21875 0.5859375
vt 0.28125 0.6328125
vt 0.3359375 0.6328125
vt 0.3359375 0.640625
vt 0.28125 0.640625
vt 0.2265625 0.5
vt 0.234375 0.5
vt 0.234375 0.5234375
vt 0.2265625 0.5234375
vt 0.4765625 0.7265625
vt 0.4765625 0.71875
vt 0.5 0.71875
vt 0.5 0.7265625
vt 0.21875 0.7578125
vt 0.265625 0.7578125
vt 0.265625 0.78125
vt 0.21875 0.78125
vt 0.0234375 0.7109375
vt 0.0234375 0.7578125
vt 0 0.7578125
vt 0 0.7109375
vt 0.4140625 0.7421875
vt 0.453125 0.7421875
vt 0.453125 0.75
vt 0.4140625 0.75
vt 0.3828125 0.5546875
vt 0.3828125 0.59375
vt 0.375 0.59375
vt 0.375 0.5546875
vt 0.4296875 0.609375
vt 0.4296875 0.6015625
vt 0.4609375 0.6015625
vt 0.4609375 0.609375
vt 0.1015625 0.5390625
vt 0.109375 0.5390625
vt 0.109375 0.5703125
vt 0.1015625 0.5703125
vt 0 0.765625
vt 0.0390625 0.765625
vt 0.0390625 0.796875
vt 0 0.796875
vt 0.1171875 0.7578125
vt 0.1171875 0.796875
vt 0.0859375 0.796875
vt 0.0859375 0.7578125
vt 0.515625 0.9765625
vt 0.515625 0.984375
vt 0.5 0.984375
vt 0.5 0.9765625
vt 0.5078125 0.953125
vt 0.5078125 0.96875
vt 0.5 0.96875
vt 0.5 0.953125
vt 0.515625 0.7890625
vt 0.515625 0.796875
vt 0.5078125 0.796875
vt 0.5078125 0.7890625
vt 0.21875 0.484375
vt 0.21875 0.4921875
vt 0.2109375 0.4921875
vt 0.2109375 0.484375
vt 0.0703125 0.484375
vt 0.0703125 0.5
vt 0.0625 0.5
vt 0.0625 0.484375
vt 0.515625 0.9375
vt 0.515625 0.9453125
vt 0.5 0.9453125
vt 0.5 0.9375
vt 0.0546875 0.671875
vt 0.03125 0.671875
vt 0.03125 0.6484375
vt 0.0546875 0.6484375
vt 0.46875 0.796875
vt 0.4453125 0.796875
vt 0.4453125 0.7890625
vt 0.46875 0.7890625
vt 0.4296875 0.515625
vt 0.4375 0.515625
vt 0.4375 0.5390625
vt 0.4296875 0.5390625
vt 0.171875 0.6796875
vt 0.171875 0.6484375
vt 0.1953125 0.6484375
vt 0.1953125 0.6796875
vt 0.3125 0.78125
vt 0.3125 0.7578125
vt 0.34375 0.7578125
vt 0.34375 0.78125
vt 0.140625 0.6328125
vt 0.15625 0.6328125
vt 0.15625 0.6640625
vt 0.140625 0.6640625
vt 0.3828125 0.7890625
vt 0.3515625 0.7890625
vt 0.3515625 0.7734375
vt 0.3828125 0.7734375
vt 0.03125 0.4921875
vt 0.0234375 0.4921875
vt 0.0234375 0.484375
vt 0.03125 0.484375
vt 0.0390625 0.484375
vt 0.046875 0.484375
vt 0.046875 0.4921875
vt 0.0390625 0.4921875
vt 0.1796875 0.4921875
vt 0.1796875 0.484375
vt 0.1875 0.484375
vt 0.1875 0.4921875
vt 0.1953125 0.4921875
vt 0.1953125 0.484375
vt 0.203125 0.484375
vt 0.203125 0.4921875
vt 0.4921875 0.625
vt 0.5078125 0.625
vt 0.5078125 0.6328125
vt 0.4921875 0.6328125
vt 0.34375 0.5078125
vt 0.3359375 0.5078125
vt 0.3359375 0.4921875
vt 0.34375 0.4921875
vt 0.515625 0.6015625
vt 0.5078125 0.6015625
vt 0.5078125 0.59375
vt 0.515625 0.59375
vt 0.5078125 0.7265625
vt 0.515625 0.7265625
vt 0.515625 0.734375
vt 0.5078125 0.734375
vt 0.5078125 0.484375
vt 0.515625 0.484375
vt 0.515625 0.4921875
vt 0.5078125 0.4921875
vt 0.515625 0.5078125
vt 0.5078125 0.5078125
vt 0.5078125 0.5
vt 0.515625 0.5
vt 0.515625 0.9921875
vt 0.515625 1
vt 0.5078125 1
vt 0.5078125 0.9921875
vt 0.3984375 0.4921875
vt 0.3984375 0.5
vt 0.390625 0.5
vt 0.390625 0.4921875
vt 0.2890625 0.4921875
vt 0.28125 0.4921875
vt 0.28125 0.484375
vt 0.2890625 0.484375
vt 0.5078125 0.609375
vt 0.515625 0.609375
vt 0.515625 0.6171875
vt 0.5078125 0.6171875
vt 0 0.4765625
vt 0.0078125 0.4765625
vt 0.0078125 0.484375
vt 0 0.484375
vt 0.515625 0.546875
vt 0.5078125 0.546875
vt 0.5078125 0.5390625
vt 0.515625 0.5390625
vt 0.4140625 0.4921875
vt 0.4140625 0.5
vt 0.40625 0.5
vt 0.40625 0.4921875
vt 0.4765625 0.4921875
vt 0.4765625 0.5
vt 0.46875 0.5
vt 0.46875 0.4921875
vt 0.21875 0.5390625
vt 0.203125 0.5390625
vt 0.203125 0.5234375
vt 0.21875 0.5234375
vt 0.1796875 0.5234375
vt 0.1953125 0.5234375
vt 0.1953125 0.5390625
vt 0.1796875 0.5390625
vt 0.140625 0.5
vt 0.140625 0.484375
vt 0.1484375 0.484375
vt 0.1484375 0.5
vt 0.1796875 0.5625
vt 0.1796875 0.546875
vt 0.1953125 0.546875
vt 0.1953125 0.5625
vt 0.3671875 0.4921875
vt 0.3828125 0.4921875
vt 0.3828125 0.5
vt 0.3671875 0.5
vt 0.5078125 0.6640625
vt 0.5 0.6640625
vt 0.5 0.6484375
vt 0.5078125 0.6484375
vt 0.171875 0.5390625
vt 0.15625 0.5390625
vt 0.15625 0.5234375
vt 0.171875 0.5234375
vt 0.4609375 0.75
vt 0.4765625 0.75
vt 0.4765625 0.765625
vt 0.4609375 0.765625
vt 0.15625 0.5625
vt 0.15625 0.546875
vt 0.171875 0.546875
vt 0.171875 0.5625
vt 0.203125 0.5625
vt 0.203125 0.546875
vt 0.21875 0.546875
vt 0.21875 0.5625
vt 0.4375 0.6796875
vt 0.453125 0.6796875
vt 0.453125 0.6953125
vt 0.4375 0.6953125
vt 0.453125 0.71875
vt 0.4375 0.71875
vt 0.4375 0.703125
vt 0.453125 0.703125
vt 0.4453125 0.546875
vt 0.4453125 0.5625
vt 0.4296875 0.5625
vt 0.4296875 0.546875
vt 0.2578125 0.5390625
vt 0.2578125 0.5546875
vt 0.2421875 0.5546875
vt 0.2421875 0.5390625
vt 0.4765625 0.5546875
vt 0.4921875 0.5546875
vt 0.4921875 0.5625
vt 0.4765625 0.5625
vt 0.484375 0.53125
vt 0.484375 0.546875
vt 0.4765625 0.546875
vt 0.4765625 0.53125
vt 0.5078125 0.6953125
vt 0.5078125 0.7109375
vt 0.5 0.7109375
vt 0.5 0.6953125
vt 0.5078125 0.671875
vt 0.5078125 0.6875
vt 0.5 0.6875
vt 0.5 0.671875
vt 0.0703125 0.6484375
vt 0.0703125 0.671875
vt 0.0625 0.671875
vt 0.0625 0.6484375
vt 0.3828125 0.5234375
vt 0.3828125 0.546875
vt 0.375 0.546875
vt 0.375 0.5234375
vt 0.40625 0.7578125
vt 0.40625 0.765625
vt 0.3515625 0.765625
vt 0.3515625 0.7578125
vt 0.4140625 0.9609375
vt 0.4140625 0.96875
vt 0.359375 0.96875
vt 0.359375 0.9609375
vt 0.25 0.8828125
vt 0.25 0.90625
vt 0.1953125 0.90625
vt 0.1953125 0.8828125
vt 0.25 0.8515625
vt 0.25 0.875
vt 0.1953125 0.875
vt 0.1953125 0.8515625
vt 0.3203125 0.6484375
vt 0.3203125 0.6640625
vt 0.2890625 0.6640625
vt 0.2890625 0.6484375
vt 0.359375 0.6484375
vt 0.359375 0.6640625
vt 0.328125 0.6640625
vt 0.328125 0.6484375
vt 0.421875 0.6171875
vt 0.453125 0.6171875
vt 0.453125 0.625
vt 0.421875 0.625
vt 0.3515625 0.546875
vt 0.3515625 0.578125
vt 0.34375 0.578125
vt 0.34375 0.546875
vt 0.4453125 0.4921875
vt 0.4453125 0.5078125
vt 0.4375 0.5078125
vt 0.4375 0.4921875
vt 0.359375 0.4921875
vt 0.359375 0.5078125
vt 0.3515625 0.5078125
vt 0.3515625 0.4921875
vt 0.28125 0.5390625
vt 0.28125 0.5546875
vt 0.265625 0.5546875
vt 0.265625 0.5390625
vt 0.3046875 0.5390625
vt 0.3046875 0.5546875
vt 0.2890625 0.5546875
vt 0.2890625 0.5390625
vt 0.484375 0.5078125
vt 0.484375 0.5234375
vt 0.4765625 0.5234375
vt 0.4765625 0.5078125
vt 0 0.5078125
vt 0.015625 0.5078125
vt 0.015625 0.515625
vt 0 0.515625
vt 0.3125 0.484375
vt 0.3125 0.5
vt 0.3046875 0.5
vt 0.3046875 0.484375
vt 0.328125 0.484375
vt 0.328125 0.5
vt 0.3203125 0.5
vt 0.3203125 0.484375
vt 0.2734375 0.640625
vt 0.2734375 0.65625
vt 0.2421875 0.65625
vt 0.2421875 0.640625
vt 0.375 0.734375
vt 0.375 0.75
vt 0.34375 0.75
vt 0.34375 0.734375
vt 0.3671875 0.546875
vt 0.3671875 0.578125
vt 0.359375 0.578125
vt 0.359375 0.546875
vt 0.4296875 0.9375
vt 0.4609375 0.9375
vt 0.4609375 0.9453125
vt 0.4296875 0.9453125
vt 0.4609375 0.4921875
vt 0.4609375 0.5078125
vt 0.453125 0.5078125
vt 0.453125 0.4921875
vt 0.4296875 0.4921875
vt 0.4296875 0.5078125
vt 0.421875 0.5078125
vt 0.421875 0.4921875
vt 0.4921875 0.96875
vt 0.4921875 0.984375
vt 0.484375 0.984375
vt 0.484375 0.96875
vt 0.0859375 0.5
vt 0.0859375 0.515625
vt 0.078125 0.515625
vt 0.078125 0.5
vt 0.4609375 0.8671875
vt 0.4609375 0.875
vt 0.4296875 0.875
vt 0.4296875 0.8671875
vt 0.4609375 0.8515625
vt 0.4609375 0.859375
vt 0.4296875 0.859375
vt 0.4296875 0.8515625
vt 0.25 0.9140625
vt 0.25 0.9296875
vt 0.21875 0.9296875
vt 0.21875 0.9140625
vt 0.1328125 0.6484375
vt 0.1328125 0.6640625
vt 0.1015625 0.6640625
vt 0.1015625 0.6484375
vt 0.1875 0.8984375
vt 0.1875 0.90625
vt 0.1796875 0.90625
vt 0.1796875 0.8984375
vt 0.2109375 0.671875
vt 0.2109375 0.6796875
vt 0.203125 0.6796875
vt 0.203125 0.671875
vt 0.1328125 0.5078125
vt 0.1328125 0.515625
vt 0.1171875 0.515625
vt 0.1171875 0.5078125
vt 0.5 0.8671875
vt 0.5 0.875
vt 0.484375 0.875
vt 0.484375 0.8671875
vt 0.5 0.8515625
vt 0.5 0.859375
vt 0.484375 0.859375
vt 0.484375 0.8515625
vt 0.171875 0.5078125
vt 0.171875 0.515625
vt 0.15625 0.515625
vt 0.15625 0.5078125
vt 0.1875 0.5
vt 0.1875 0.515625
vt 0.1796875 0.515625
vt 0.1796875 0.5
vt 0.203125 0.5
vt 0.203125 0.515625
vt 0.1953125 0.515625
vt 0.1953125 0.5
vt 0.4609375 0.8046875
vt 0.4609375 0.8125
vt 0.4296875 0.8125
vt 0.4296875 0.8046875
vt 0.3125 0.5625
vt 0.3125 0.5703125
vt 0.28125 0.5703125
vt 0.28125 0.5625
vt 0.3671875 0.796875
vt 0.3671875 0.8125
vt 0.3359375 0.8125
vt 0.3359375 0.796875
vt 0.234375 0.6484375
vt 0.234375 0.6640625
vt 0.203125 0.6640625
vt 0.203125 0.6484375
vt 0.1328125 0.5234375
vt 0.1328125 0.5390625
vt 0.1171875 0.5390625
vt 0.1171875 0.5234375
vt 0.09375 0.5234375
vt 0.09375 0.5390625
vt 0.078125 0.5390625
vt 0.078125 0.5234375
vt 0.3671875 0.65625
vt 0.3828125 0.65625
vt 0.3828125 0.6796875
vt 0.3671875 0.6796875
vt 0.2734375 0.6328125
vt 0.25 0.6328125
vt 0.25 0.6171875
vt 0.2734375 0.6171875
vt 0.4140625 0.625
vt 0.390625 0.625
vt 0.390625 0.609375
vt 0.4140625 0.609375
vt 0.1015625 0.578125
vt 0.1171875 0.578125
vt 0.1171875 0.6015625
vt 0.1015625 0.6015625
vt 0.453125 0.546875
vt 0.46875 0.546875
vt 0.46875 0.5625
vt 0.453125 0.5625
vt 0.421875 0.5546875
vt 0.40625 0.5546875
vt 0.40625 0.5390625
vt 0.421875 0.5390625
vt 0.3828125 0.75
vt 0.3828125 0.734375
vt 0.40625 0.734375
vt 0.40625 0.75
vt 0.3828125 0.875
vt 0.3828125 0.8515625
vt 0.3984375 0.8515625
vt 0.3984375 0.875
vt 0.1796875 0.6015625
vt 0.15625 0.6015625
vt 0.15625 0.5859375
vt 0.1796875 0.5859375
vt 0.390625 0.578125
vt 0.40625 0.578125
vt 0.40625 0.6015625
vt 0.390625 0.6015625
vt 0.4296875 0.8359375
vt 0.4296875 0.84375
vt 0.3828125 0.84375
vt 0.3828125 0.8359375
vt 0.2578125 0.5625
vt 0.2578125 0.609375
vt 0.25 0.609375
vt 0.25 0.5625
vt 0.4609375 0.9765625
vt 0.421875 0.9765625
vt 0.421875 0.96875
vt 0.4609375 0.96875
vt 0.4140625 0.5625
vt 0.421875 0.5625
vt 0.421875 0.6015625
vt 0.4140625 0.6015625
vt 0.140625 0.8046875
vt 0.1875 0.8046875
vt 0.1875 0.8359375
vt 0.140625 0.8359375
vt 0.2109375 0.9609375
vt 0.1796875 0.9609375
vt 0.1796875 0.9140625
vt 0.2109375 0.9140625
vt 0.0546875 0.671875
vt 0.03125 0.671875
vt 0.03125 0.6484375
vt 0.0546875 0.6484375
vt 0.328125 0.7890625
vt 0.328125 0.8046875
vt 0.28125 0.8046875
vt 0.28125 0.7890625
vt 0.1328125 0.671875
vt 0.1328125 0.71875
vt 0.1171875 0.71875
vt 0.1171875 0.671875
vt 0.046875 0.6796875
vt 0.046875 0.734375
vt 0.03125 0.734375
vt 0.03125 0.6796875
vt 0.3203125 0.9609375
vt 0.3203125 0.9765625
vt 0.265625 0.9765625
vt 0.265625 0.9609375
vt 0.140625 0.953125
vt 0.140625 1
vt 0.078125 1
vt 0.078125 0.953125
vt 0.125 0.8828125
vt 0.125 0.9453125
vt 0.078125 0.9453125
vt 0.078125 0.8828125
vt 0.5 0.53125
vt 0.5 0.546875
vt 0.4921875 0.546875
vt 0.4921875 0.53125
vt 0.5078125 0.515625
vt 0.5078125 0.5234375
vt 0.4921875 0.5234375
vt 0.4921875 0.515625
vt 0.0703125 0.6796875
vt 0.0703125 0.734375
vt 0.0546875 0.734375
vt 0.0546875 0.6796875
vt 0.3203125 0.9375
vt 0.3203125 0.953125
vt 0.265625 0.953125
vt 0.265625 0.9375
vt 0.5546875 0.5613276615499754
vt 0.5546875 0.5625
vt 0.5 0.5624920073275876
vt 0.5 0.561319668877563
vt 0.1953125 0.5859375
vt 0.1953125 0.640625
vt 0.1875 0.640625
vt 0.1875 0.5859375
vt 0.0859375 0.4921875
vt 0.078125 0.4921875
vt 0.078125 0.484375
vt 0.0859375 0.484375
vt 0.5078125 0.8984375
vt 0.515625 0.8984375
vt 0.515625 0.90625
vt 0.5078125 0.90625
vt 0.359375 0.6875
vt 0.4140625 0.6875
vt 0.4140625 0.6953125
vt 0.359375 0.6953125
vt 0.0078125 0.6328125
vt 0 0.6328125
vt 0 0.578125
vt 0.0078125 0.578125
vt 0.421875 0.9296875
vt 0.421875 0.9375
vt 0.3671875 0.9375
vt 0.3671875 0.9296875
vt 0.0234375 0.578125
vt 0.0234375 0.6328125
vt 0.015625 0.6328125
vt 0.015625 0.578125
vt 0.015625 0.5
vt 0 0.5
vt 0 0.4921875
vt 0.015625 0.4921875
vt 0.4921875 0.4921875
vt 0.5 0.4921875
vt 0.5 0.5078125
vt 0.4921875 0.5078125
vt 0.265625 0.984375
vt 0.3203125 0.984375
vt 0.3203125 1
vt 0.265625 1
vt 0.2109375 0.7421875
vt 0.1953125 0.7421875
vt 0.1953125 0.6875
vt 0.2109375 0.6875
vt 0.5546875 0.5769192699017073
vt 0.5546875 0.5780912178161055
vt 0.5 0.5780755292089219
vt 0.5 0.576904296875
vt 0.3671875 0.5859375
vt 0.3671875 0.640625
vt 0.359375 0.640625
vt 0.359375 0.5859375
vt 0.4921875 0.953125
vt 0.46875 0.953125
vt 0.46875 0.9453125
vt 0.4921875 0.9453125
vt 0.4609375 0.515625
vt 0.46875 0.515625
vt 0.46875 0.5390625
vt 0.4609375 0.5390625
vt 0.203125 0.9765625
vt 0.2578125 0.9765625
vt 0.2578125 1
vt 0.203125 1
vt 0.21875 0.84375
vt 0.1953125 0.84375
vt 0.1953125 0.7890625
vt 0.21875 0.7890625
vt 0.4140625 0.71875
vt 0.4140625 0.7265625
vt 0.359375 0.7265625
vt 0.359375 0.71875
vt 0.2109375 0.5859375
vt 0.2109375 0.640625
vt 0.203125 0.640625
vt 0.203125 0.5859375
vt 0.484375 0.625
vt 0.4609375 0.625
vt 0.4609375 0.6171875
vt 0.484375 0.6171875
vt 0.46875 0.9609375
vt 0.4765625 0.9609375
vt 0.4765625 0.984375
vt 0.46875 0.984375
vt 0.3515625 0.515625
vt 0.359375 0.515625
vt 0.359375 0.5390625
vt 0.3515625 0.5390625
vt 0.4609375 0.671875
vt 0.4375 0.671875
vt 0.4375 0.6640625
vt 0.4609375 0.6640625
vt 0.515625 0.8515625
vt 0.515625 0.859375
vt 0.5078125 0.859375
vt 0.5078125 0.8515625
vt 0.515625 0.8359375
vt 0.515625 0.84375
vt 0.5078125 0.84375
vt 0.5078125 0.8359375
vt 0.0234375 0.53125
vt 0 0.53125
vt 0 0.5234375
vt 0.0234375 0.5234375
vt 0.4453125 0.515625
vt 0.453125 0.515625
vt 0.453125 0.5390625
vt 0.4453125 0.5390625
vt 0.3359375 0.515625
vt 0.34375 0.515625
vt 0.34375 0.5390625
vt 0.3359375 0.5390625
vt 0.46875 0.828125
vt 0.4453125 0.828125
vt 0.4453125 0.8203125
vt 0.46875 0.8203125
vt 0.515625 0.8828125
vt 0.515625 0.890625
vt 0.5078125 0.890625
vt 0.5078125 0.8828125
vt 0.515625 0.8671875
vt 0.515625 0.875
vt 0.5078125 0.875
vt 0.5078125 0.8671875
vt 0.0703125 0.5390625
vt 0.0703125 0.578125
vt 0.0625 0.578125
vt 0.0625 0.5390625
vt 0.15625 0.5703125
vt 0.1953125 0.5703125
vt 0.1953125 0.578125
vt 0.15625 0.578125
vt 0.4609375 0.5859375
vt 0.4609375 0.59375
vt 0.4296875 0.59375
vt 0.4296875 0.5859375
vt 0.1484375 0.5703125
vt 0.140625 0.5703125
vt 0.140625 0.5390625
vt 0.1484375 0.5390625
vt 0.078125 0.7421875
vt 0.078125 0.78125
vt 0.046875 0.78125
vt 0.046875 0.7421875
vt 0.171875 0.75
vt 0.2109375 0.75
vt 0.2109375 0.78125
vt 0.171875 0.78125
vt 0.359375 0.9453125
vt 0.4140625 0.9453125
vt 0.4140625 0.953125
vt 0.359375 0.953125
vt 0.1328125 0.5859375
vt 0.1328125 0.640625
vt 0.125 0.640625
vt 0.125 0.5859375
vt 0.484375 0.765625
vt 0.484375 0.7578125
vt 0.5 0.7578125
vt 0.5 0.765625
vt 0.2578125 0.5078125
vt 0.2578125 0.515625
vt 0.2421875 0.515625
vt 0.2421875 0.5078125
vt 0.1875 0.6875
vt 0.1875 0.7421875
vt 0.171875 0.7421875
vt 0.171875 0.6875
vt 0.2734375 0.7890625
vt 0.2734375 0.84375
vt 0.2578125 0.84375
vt 0.2578125 0.7890625
vt 0.375 0.8046875
vt 0.421875 0.8046875
vt 0.421875 0.8125
vt 0.375 0.8125
vt 0.3359375 0.578125
vt 0.3359375 0.625
vt 0.328125 0.625
vt 0.328125 0.578125
vt 0.3671875 0.515625
vt 0.3671875 0.5078125
vt 0.3828125 0.5078125
vt 0.3828125 0.515625
vt 0.2890625 0.5
vt 0.296875 0.5
vt 0.296875 0.515625
vt 0.2890625 0.515625
vt 0.21875 0.7265625
vt 0.265625 0.7265625
vt 0.265625 0.75
vt 0.21875 0.75
vt 0.28125 0.8828125
vt 0.28125 0.9296875
vt 0.2578125 0.9296875
vt 0.2578125 0.8828125
vt 0.5078125 0.7578125
vt 0.515625 0.7578125
vt 0.515625 0.765625
vt 0.5078125 0.765625
vt 0.515625 0.7734375
vt 0.515625 0.78125
vt 0.5078125 0.78125
vt 0.5078125 0.7734375
vt 0.46875 0.578125
vt 0.46875 0.5703125
vt 0.4921875 0.5703125
vt 0.4921875 0.578125
vt 0.03125 0.5
vt 0.0390625 0.5
vt 0.0390625 0.5234375
vt 0.03125 0.5234375
vt 0.1015625 0.5078125
vt 0.109375 0.5078125
vt 0.109375 0.53125
vt 0.1015625 0.53125
vt 0.4921875 0.9296875
vt 0.4921875 0.9375
vt 0.46875 0.9375
vt 0.46875 0.9296875
vt 0.3671875 0.9140625
vt 0.4140625 0.9140625
vt 0.4140625 0.921875
vt 0.3671875 0.921875
vt 0.3828125 0.6015625
vt 0.3828125 0.6484375
vt 0.375 0.6484375
vt 0.375 0.6015625
vt 0.21875 0.515625
vt 0.2109375 0.515625
vt 0.2109375 0.5
vt 0.21875 0.5
vt 0.28125 0.5078125
vt 0.28125 0.515625
vt 0.265625 0.515625
vt 0.265625 0.5078125
vt 0.1640625 0.7109375
vt 0.1640625 0.7578125
vt 0.140625 0.7578125
vt 0.140625 0.7109375
vt 0.2578125 0.8515625
vt 0.3046875 0.8515625
vt 0.3046875 0.875
vt 0.2578125 0.875
vt 0.5078125 0.7421875
vt 0.515625 0.7421875
vt 0.515625 0.75
vt 0.5078125 0.75
vt 0.234375 0.484375
vt 0.234375 0.4921875
vt 0.2265625 0.4921875
vt 0.2265625 0.484375
vt 0.4140625 0.53125
vt 0.40625 0.53125
vt 0.40625 0.5078125
vt 0.4140625 0.5078125
vt 0.5 0.9921875
vt 0.5 1
vt 0.4765625 1
vt 0.4765625 0.9921875
vt 0.4921875 0.9140625
vt 0.4921875 0.921875
vt 0.46875 0.921875
vt 0.46875 0.9140625
vt 0.0625 0.5078125
vt 0.0703125 0.5078125
vt 0.0703125 0.53125
vt 0.0625 0.53125
vt 0.3984375 0.5390625
vt 0.3984375 0.5703125
vt 0.390625 0.5703125
vt 0.390625 0.5390625
vt 0.4375 0.8828125
vt 0.46875 0.8828125
vt 0.46875 0.890625
vt 0.4375 0.890625
vt 0.296875 0.5234375
vt 0.296875 0.53125
vt 0.2734375 0.53125
vt 0.2734375 0.5234375
vt 0.328125 0.53125
vt 0.3203125 0.53125
vt 0.3203125 0.5078125
vt 0.328125 0.5078125
vt 0.0234375 0.671875
vt 0.0234375 0.703125
vt 0 0.703125
vt 0 0.671875
vt 0.2890625 0.6875
vt 0.3203125 0.6875
vt 0.3203125 0.7109375
vt 0.2890625 0.7109375
vt 0.0390625 0.53125
vt 0.0390625 0.5625
vt 0.03125 0.5625
vt 0.03125 0.53125
vt 0.4375 0.8984375
vt 0.46875 0.8984375
vt 0.46875 0.90625
vt 0.4375 0.90625
vt 0.3046875 0.5078125
vt 0.3125 0.5078125
vt 0.3125 0.53125
vt 0.3046875 0.53125
vt 0.46875 0.6796875
vt 0.46875 0.671875
vt 0.4921875 0.671875
vt 0.4921875 0.6796875
vt 0.3046875 0.7265625
vt 0.3359375 0.7265625
vt 0.3359375 0.75
vt 0.3046875 0.75
vt 0.1640625 0.671875
vt 0.1640625 0.703125
vt 0.140625 0.703125
vt 0.140625 0.671875
vn 1 0 0
vn -1 0 0
vn 0 1 0
vn 0 -1 0
vn 0 0 1
vn 0 0 -1
vn 1 0 0
vn -1 0 0
vn 0 0.9563047559630352 0.2923717047227382
vn 0 -0.956304755963035 -0.29237170472273827
vn 0 -0.29237170472273677 0.9563047559630357
vn 0 0.29237170472273666 -0.9563047559630357
vn 0.9890158633619168 0 -0.14780941112961074
vn -0.9890158633619168 0 0.14780941112961068
vn 0 1 0
vn 0 -1 0
vn 0.14780941112961057 0 0.9890158633619168
vn -0.14780941112961035 0 -0.9890158633619168
vn 0.9890158633619168 0 0.14780941112961068
vn -0.9890158633619168 0 -0.14780941112961074
vn 0 1 0
vn 0 -1 0
vn -0.14780941112961057 0 0.9890158633619168
vn 0.14780941112961035 0 -0.9890158633619168
vn -0.9876883405951378 0.04573701122120162 -0.14959902291450597
vn 0.987688340595138 -0.04573701122120145 0.14959902291450533
vn 3.359305778875722e-16 0.9563047559630357 0.2923717047227367
vn -3.083952846180991e-16 -0.9563047559630354 -0.2923717047227368
vn -0.15643446504023095 -0.2887721238745714 0.9445310575203687
vn 0.15642904942650554 0.29671941663885465 -0.9420655711175404
vn 0.9876883405951378 0.04573701122120163 -0.149599022914506
vn -0.987688340595138 -0.04573701122120145 0.14959902291450533
vn -3.3042351923367755e-16 0.9563047559630357 0.2923717047227367
vn 3.5245175384925617e-16 -0.9563047559630354 -0.2923717047227369
vn 0.15643446504023098 -0.2887721238745714 0.9445310575203688
vn -0.15642904942650562 0.29671941663885476 -0.9420655711175405
vn -0.0025701947677270183 0.9997289192982578 -0.023140484385455025
vn 0.002570194767728941 -0.9997289192982579 0.023140484385452603
vn 0.2848362860760234 0.022913875002560837 0.9583022719720459
vn -0.28483628607602374 -0.022913875002560966 -0.9583022719720458
vn 0.9585727328863856 -0.0041282261450267185 -0.2848179655773522
vn -0.9585727328863856 0.0041282261450267775 0.284817965577352
vn -0.0025701938401783237 0.9997289504742575 -0.02313913756525683
vn 0.0025701938401758643 -0.9997289504742574 0.02313913756525635
vn -0.1899671384350062 0.022229733240169167 0.981538753832413
vn 0.1899671384350057 -0.022229733240169015 -0.9815387538324131
vn 0.981787085074172 0.006918420608118132 0.1898585132087836
vn -0.981787085074172 -0.006918420608118302 -0.18985851320878372
vn -0.0025701947677289412 -0.9997289192982579 0.02314048438545261
vn 0.0025701947677265126 0.9997289192982578 -0.023140484385453314
vn -0.2848362860760232 0.022913875002560844 0.9583022719720459
vn 0.2848362860760231 -0.022913875002560972 -0.9583022719720459
vn -0.9585727328863856 -0.0041282261450266994 -0.284817965577352
vn 0.9585727328863857 0.0041282261450267975 0.2848179655773524
vn -0.0025701938401733607 -0.9997289504742576 0.02313913756525587
vn 0.0025701938401783047 0.9997289504742575 -0.023139137565256825
vn 0.18996713843500548 0.02222973324016918 0.9815387538324132
vn -0.18996713843500565 -0.022229733240169018 -0.9815387538324132
vn -0.981787085074172 0.006918420608118281 0.18985851320878364
vn 0.9817870850741719 -0.006918420608118323 -0.18985851320878372
vn 1 0 0
vn -1 0 0
vn 0 1 0
vn 0 -1 0
vn 0 0 1
vn 0 0 -1
vn 1 0 0
vn -1 0 0
vn 0 0.9925461516413218 -0.12186934340514986
vn 0 -0.9925461516413221 0.12186934340514698
vn 0 0.12186934340514738 0.9925461516413222
vn 0 -0.1218693434051475 -0.992546151641322
vn 0.9517245836536508 0.30612329101260727 -0.022557649897445867
vn -0.9517245836536508 -0.3061232910126074 0.022557649897445853
vn 0.3063589138223167 -0.9518843388725325 0.007773115901100745
vn -0.3063589138223167 0.9518843388725325 -0.007773115901100746
vn -0.019092741838081125 -0.014308602615632635 -0.999715325030227
vn 0.01909274183808119 0.014308602615632719 0.999715325030227
vn 0.9228181003232835 0.3852359382955455 0.0001598789452246279
vn -0.9228181003232835 -0.38523593829554537 -0.00015987894522501834
vn -0.3804015118966947 0.9111717155020549 0.1583060157282445
vn 0.38040151189669463 -0.9111717155020549 -0.15830601572824432
vn 0.060839489334106454 -0.1461484748965696 0.987390084932481
vn -0.060839489334106524 0.14614847489656957 -0.987390084932481
vn 0.9517246810270047 0.30612302749536147 -0.022557117748520022
vn -0.9517246810270051 -0.30612302749536 0.022557117748519942
vn 0.005710837258663084 0.05581559900739576 0.998424761935145
vn -0.005710837258663173 -0.055815599007395494 -0.9984247619351451
vn 0.30689984988893587 -0.9503543081106751 0.05137286437049008
vn -0.30689984988893465 0.9503543081106754 -0.051372864370489074
vn 0.9517243970499293 0.30612387958089443 -0.0225575355544607
vn -0.9517243970499293 -0.3061238795808944 0.022557535554460516
vn 0.146776881343469 -0.3893155437453177 0.9093348967797139
vn -0.14677688134346895 0.38931554374531735 -0.909334896779714
vn 0.2695871272205595 -0.8687471310736109 -0.41545300948282476
vn -0.2695871272205596 0.8687471310736111 0.4154530094828247
vn 0.9517243970499293 -0.3061238795808943 0.02255753555446051
vn -0.9517243970499293 0.3061238795808945 -0.022557535554460707
vn -0.14677688134346883 -0.3893155437453171 0.9093348967797141
vn 0.14677688134346892 0.3893155437453173 -0.909334896779714
vn -0.26958712722055955 -0.8687471310736111 -0.4154530094828247
vn 0.26958712722055955 0.8687471310736111 0.4154530094828248
vn 0.9517245836536508 -0.3061232910126074 0.022557649897445853
vn -0.9517245836536508 0.30612329101260727 -0.022557649897445867
vn -0.3063589138223168 -0.9518843388725325 0.007773115901100743
vn 0.3063589138223167 0.9518843388725327 -0.007773115901100746
vn 0.01909274183808111 -0.01430860261563269 -0.999715325030227
vn -0.019092741838081222 0.01430860261563261 0.999715325030227
vn 0.9517246810270051 -0.30612302749535997 0.022557117748519942
vn -0.9517246810270047 0.30612302749536147 -0.022557117748520355
vn -0.005710837258663173 0.055815599007395494 0.9984247619351451
vn 0.0057108372586631715 -0.055815599007395494 -0.9984247619351451
vn -0.30689984988893587 -0.9503543081106751 0.051372864370489046
vn 0.3068998498889346 0.9503543081106754 -0.05137286437048907
vn 0.9228181003232835 -0.38523593829554575 -0.00015987894522384715
vn -0.9228181003232835 0.38523593829554525 0.00015987894522462786
vn 0.38040151189669447 0.9111717155020549 0.1583060157282448
vn -0.38040151189669474 -0.9111717155020549 -0.15830601572824457
vn -0.060839489334106406 -0.1461484748965696 0.987390084932481
vn 0.060839489334106496 0.14614847489656954 -0.987390084932481
vn 0.9925815830779696 -0.009708565112044447 -0.12119218084471056
vn -0.9925815830779696 0.009708565112044452 0.1211921808447105
vn 0.003321486193943043 0.9985999412815065 -0.05279322875175883
vn -0.0033214861939428616 -0.9985999412815064 0.052793228751760235
vn 0.12153505117411695 0.051999048414729465 0.9912241574437478
vn -0.12153505117411693 -0.05199904841472947 -0.9912241574437478
vn 0.9873719344930206 0.14726624483716175 0.05838934926055747
vn -0.9873719344930203 -0.14726624483716236 -0.05838934926056061
vn -0.13733658980055513 0.979425083927395 -0.14786874610873504
vn 0.13733658980055533 -0.979425083927395 0.14786874610873527
vn -0.07896406826820043 0.13798245578831547 0.987281883667051
vn 0.07896406826819896 -0.13798245578831564 -0.9872818836670513
vn -0.05182662631444313 -0.13917310096006494 -0.9889109407697048
vn 0.9914448562555556 -0.12940956268638076 -0.017037079847227896
vn -0.9914448562555556 0.12940956268638076 0.01703707984722791
vn 0.1305262310970505 0.9829629026982246 0.12940956268638013
vn -0.13052623109705053 -0.9829629026982246 -0.12940956268638013
vn -1.7454547751594173e-8 -0.1305262310970512 0.9914448562555556
vn 1.745454797826471e-8 0.13052623109705117 -0.9914448562555556
vn 0.9914448562555556 -0.12940956268638049 -0.017037079847227476
vn -0.9914448562555556 0.12940956268638065 0.01703707984722749
vn 0.13052623109705047 0.9829629026982246 0.12940956268638
vn -0.13052623109705397 -0.9829629026982242 -0.12940956268638013
vn -1.745454780710528e-8 -0.13052623109705092 0.9914448562555556
vn 1.7454546874980535e-8 0.13052623109705044 -0.9914448562555557
vn 0.793353364162274 0.6035533548267998 0.07945934463433339
vn -0.793353364162274 -0.6035533548267997 -0.0794593446343334
vn -0.608761397899377 0.786566113478653 0.10355341401751615
vn 0.6087613978993771 -0.786566113478653 -0.10355341401751618
vn -1.7454547803635824e-8 -0.13052623109705064 0.9914448562555557
vn 1.7454547805370544e-8 0.1305262310970506 -0.9914448562555556
vn 0.7933533641622738 0.6035533548268 0.07945934463433323
vn -0.7933533641622738 -0.6035533548268 -0.07945934463433328
vn -0.6087613978993772 0.7865661134786528 0.10355341401751629
vn 0.6087613978993774 -0.7865661134786529 -0.10355341401751617
vn -1.7454547803635824e-8 -0.1305262310970506 0.9914448562555557
vn 1.7454547805370547e-8 0.1305262310970506 -0.9914448562555557
vn 0.7010573686885961 -0.18380236245737247 0.6890103463392336
vn -0.7010573686885961 0.18380236245737247 -0.6890103463392336
vn 0.13052623109704967 0.9829629026982243 0.129409562686383
vn -0.1305262310970513 -0.9829629026982243 -0.12940956268638132
vn -0.701057393373054 -0.0007896038055219547 0.7131044157224168
vn 0.7010573933730542 0.0007896038055218795 -0.7131044157224166
vn 0.701057368688596 -0.18380236245737222 0.6890103463392336
vn -0.7010573686885959 0.1838023624573725 -0.6890103463392339
vn 0.13052623109705055 0.9829629026982246 0.12940956268638049
vn -0.1305262310970513 -0.9829629026982244 -0.12940956268638124
vn -0.7010573933730542 -0.0007896038055218986 0.7131044157224167
vn 0.7010573933730543 0.0007896038055218498 -0.7131044157224166
vn 0.6427876096865394 0 0.7660444431189782
vn -0.6427876096865395 0 -0.7660444431189781
vn 0 1 0
vn 0 -1 0
vn -0.7660444431189779 0 0.6427876096865395
vn 0.7660444431189777 0 -0.64278760968654
vn 1 0 0
vn -1 0 0
vn 0 1 0
vn 0 -1 0
vn 0 0 1
vn 0 0 -1
vn 0.9961946980917455 0 0.08715574274765814
vn -0.9961946980917455 0 -0.08715574274765814
vn 0 1 0
vn 0 -1 0
vn -0.08715574274765849 0 0.9961946980917457
vn 0.08715574274765775 0 -0.9961946980917457
vn 0.6427876096865395 0 -0.7660444431189781
vn -0.6427876096865394 0 0.7660444431189782
vn 0 1 0
vn 0 -1 0
vn 0.7660444431189779 0 0.6427876096865395
vn -0.7660444431189777 0 -0.64278760968654
vn 0.9961946980917455 0 -0.08715574274765814
vn -0.9961946980917455 0 0.08715574274765814
vn 0 1 0
vn 0 -1 0
vn 0.08715574274765849 0 0.9961946980917457
vn -0.08715574274765775 0 -0.9961946980917457
vn 1 0 0
vn -1 0 0
vn 0 1 0
vn 0 -1 0
vn 0 0 1
vn 0 0 -1
vn 1 0 0
vn -1 0 0
vn 0 1 0
vn 0 -1 0
vn 0 0 1
vn 0 0 -1
vn 1 0 0
vn -1 0 0
vn 0 1 0
vn 0 -1 0
vn 0 0 1
vn 0 0 -1
vn -0.6948591999657796 -0.08361424165309869 -0.7142684025040544
vn 0.6948591999657799 0.0836142416530985 0.7142684025040542
vn -0.024166128140320688 0.9953717165477739 -0.09301152696007035
vn 0.024166128140319234 -0.9953717165477739 0.0930115269600701
vn -0.7187396541680598 0.04736881346957464 0.6936638271070954
vn 0.71873965416806 -0.047368813469574986 -0.6936638271070954
vn -0.6948591759171123 -0.0836142075781333 -0.7142684298881425
vn 0.6948591759171123 0.0836142075781333 0.7142684298881427
vn -0.17307234454966064 0.9834690010272581 0.05324178406600269
vn 0.17307234454966056 -0.9834690010272581 -0.053241784066002634
vn -0.6980090896226748 -0.16061565399900468 0.6978437665370357
vn 0.6980090896226749 0.16061565399900513 -0.6978437665370356
vn 0.18703113591140746 -0.13250249747856832 -0.9733768244424309
vn -0.1870311359114072 0.1325024974785683 0.9733768244424308
vn -0.025750719081522967 0.9898598057353079 -0.13969418547829132
vn 0.025750719081521295 -0.9898598057353079 0.13969418547829143
vn 0.9820164228089433 0.05119231535690493 0.1817225692695488
vn -0.9820164228089434 -0.051192315356904924 -0.1817225692695488
vn 0.9565255048952959 0.13443085348348496 0.2588190567104769
vn 0.9911582867873784 0.12876871006122137 -0.0319979662147155
vn -0.9911582867873784 -0.1287687100612215 0.031997966214715526
vn -0.13181881315346972 0.9831344960320364 -0.126768936300043
vn 0.13181881315346972 -0.9831344960320364 0.12676893630004377
vn 0.015134431985364712 0.12986601565075775 0.9914160413002594
vn -0.015134431985364726 -0.12986601565075773 -0.9914160413002595
vn 0.9916292669892681 0.12587421710953214 -0.028758969338095013
vn -0.9916292669892679 -0.12587421710953345 0.028758969338095224
vn -0.1291107823124002 0.9643502831733428 -0.23099553509575357
vn 0.1291107823124 -0.9643502831733431 0.23099553509575296
vn -0.0013426619110098095 0.23277502617453305 0.9725296830680482
vn 0.0013426619110102906 -0.2327750261745371 -0.9725296830680472
vn 0.9916292632358549 0.12587424161644808 -0.028758991494832926
vn -0.9916292632358549 -0.1258742416164473 0.028758991494834074
vn -0.07191341220601369 0.723413212460077 0.6866598759087935
vn 0.0719134122060142 -0.7234132124600785 -0.6866598759087916
vn 0.10723742555285305 -0.6788438696310625 0.7264097571103525
vn -0.10723742555285284 0.6788438696310594 -0.7264097571103555
vn 0.9916292577981102 0.12587430179307604 -0.028758915606729774
vn -0.9916292577981102 -0.12587430179307688 0.02875891560672699
vn -0.008660219973773687 0.28707228542101604 0.9578697737861659
vn 0.00866021997377369 -0.2870722854210161 -0.9578697737861659
vn 0.1288270766134794 -0.9496026343114563 0.28575937646902755
vn -0.12882707661347934 0.9496026343114563 -0.28575937646902805
vn 0.9916292580509817 0.12587427810388932 -0.028759010572070094
vn -0.9916292580509817 -0.12587427810388938 0.028759010572068464
vn 0.019428439497387116 0.07473591592146152 0.9970140814502456
vn -0.019428439497387012 -0.07473591592146146 -0.9970140814502456
vn 0.1276477587580607 -0.9892270765517919 0.07166478005854221
vn -0.12764775875806023 0.9892270765517929 -0.07166478005853116
vn 0.9916292580509818 0.12587427810388926 -0.028759010572068415
vn -0.9916292580509817 -0.1258742781038893 0.028759010572069952
vn 0.019428439497387262 0.07473591592146162 0.9970140814502455
vn -0.019428439497385912 -0.07473591592146148 -0.9970140814502455
vn 0.12764775875805964 -0.9892270765517929 0.07166478005853055
vn -0.1276477587580598 0.9892270765517922 -0.07166478005854215
vn 0.9916292580509817 0.12587427810388938 -0.02875901057206871
vn -0.9916292580509819 -0.12587427810388963 0.028759010572065716
vn 0.019428439497386072 0.07473591592146146 0.9970140814502455
vn -0.019428439497387318 -0.07473591592146134 -0.9970140814502455
vn 0.12764775875805948 -0.9892270765517931 0.07166478005853015
vn -0.1276477587580596 0.9892270765517929 -0.07166478005853055
vn 0.2758874505692559 0.08189996014976296 -0.9576943725144593
vn -0.2758874505692559 -0.08189996014976295 0.9576943725144591
vn 0.0060796220875265665 0.9961946660085526 0.08694380720546813
vn -0.006079622087526567 -0.9961946660085526 -0.08694380720546814
vn 0.9611707199107083 -0.02980912517294026 0.2743396858690968
vn -0.9611707199107083 0.02980912517294025 -0.2743396858690967
vn 1 0 0
vn -1 0 0
vn 0 0.9998476951563913 -0.017452406437281333
vn 0 -0.9998476951563914 0.01745240643728252
vn 0 0.017452406437283508 0.9998476951563913
vn 0 -0.0174524064372835 -0.9998476951563913
vn 0.9876883405951379 -0.0027301578646811305 -0.15641063931349794
vn -0.9876883405951378 0.0027301578646811383 0.15641063931349775
vn 1.7507363080627453e-16 0.9998476951563913 -0.017452406437283886
vn 1.7614115294533718e-16 -0.9998476951563914 0.01745240643728383
vn 0.15643446504023073 0.017237538353432467 0.9875379108768892
vn -0.1564344650402309 -0.017237538353432464 -0.9875379108768894
vn 0.9338776729355676 -0.3280999838256828 -0.1422072171376545
vn -0.9338776729355676 0.32809998382568295 0.14220721713765413
vn 0.3215598702264104 0.9444857160831501 -0.06742389765412053
vn -0.32155987022641064 -0.94448571608315 0.06742389765412053
vn 0.156434465040231 0.017237538353432568 0.9875379108768891
vn -0.15643446504023084 -0.017237538353432627 -0.9875379108768894
vn 0.9876883405951378 0.0027301578646811275 0.15641063931349777
vn -0.9876883405951379 -0.00273015786468113 -0.15641063931349794
vn -1.7293858652814934e-16 0.9998476951563913 -0.017452406437283897
vn -1.7560739187580583e-16 -0.9998476951563913 0.017452406437283827
vn -0.15643446504023073 0.017237538353432537 0.9875379108768894
vn 0.15643446504023095 -0.017237538353432467 -0.9875379108768894
vn 0.9338776729355673 0.32809998382568295 0.1422072171376548
vn -0.9338776729355676 -0.3280999838256826 -0.14220721713765455
vn -0.3215598702264103 0.9444857160831501 -0.06742389765412063
vn 0.32155987022641064 -0.9444857160831501 0.06742389765412063
vn -0.156434465040231 0.017237538353432575 0.9875379108768894
vn 0.1564344650402309 -0.0172375383534323 -0.9875379108768894
vn 0.9790976653064785 0.17960393497725094 0.0954473065732642
vn -0.9790976653064785 -0.17960393497725086 -0.09544730657326467
vn -0.1927852957942282 0.9690666600023504 0.15408970827872087
vn 0.1927852957942288 -0.9690666600023502 -0.15408970827872065
vn -0.06481968464081903 -0.16926971085394182 0.9834359020650445
vn 0.06481968464081905 0.16926971085394163 -0.9834359020650445
vn 0.9790976653064785 -0.1796039349772509 -0.09544730657326453
vn -0.9790976653064785 0.17960393497725088 0.09544730657326418
vn 0.1927852957942282 0.9690666600023504 0.15408970827872082
vn -0.192785295794229 -0.9690666600023498 -0.15408970827872365
vn 0.06481968464081905 -0.16926971085394163 0.9834359020650445
vn -0.06481968464081903 0.16926971085394182 -0.9834359020650445
usemtl m_1f00b143-2acb-6418-a837-e114bed6d3ce
f 4/1/1 2/2/1 1/3/1 3/4/1
f 7/5/2 5/6/2 6/7/2 8/8/2
f 1/9/3 2/10/3 6/11/3 5/12/3
f 4/13/4 3/14/4 7/15/4 8/16/4
f 3/17/5 1/18/5 5/19/5 7/20/5
f 8/21/6 6/22/6 2/23/6 4/24/6
f 12/25/7 10/26/7 9/27/7 11/28/7
f 15/29/8 13/30/8 14/31/8 16/32/8
f 9/33/9 10/34/9 14/35/9 13/36/9
f 12/37/10 11/38/10 15/39/10 16/40/10
f 11/41/11 9/42/11 13/43/11 15/44/11
f 16/45/12 14/46/12 10/47/12 12/48/12
f 20/49/13 18/50/13 17/51/13 19/52/13
f 23/53/14 21/54/14 22/55/14 24/56/14
f 17/57/15 18/58/15 22/59/15 21/60/15
f 20/61/16 19/62/16 23/63/16 24/64/16
f 19/65/17 17/66/17 21/67/17 23/68/17
f 24/69/18 22/70/18 18/71/18 20/72/18
f 28/73/19 26/74/19 25/75/19 27/76/19
f 31/77/20 29/78/20 30/79/20 32/80/20
f 25/81/21 26/82/21 30/83/21 29/84/21
f 28/85/22 27/86/22 31/87/22 32/88/22
f 27/89/23 25/90/23 29/91/23 31/92/23
f 32/93/24 30/94/24 26/95/24 28/96/24
f 33/97/25 34/98/25 36/99/25 35/100/25
f 38/101/26 37/102/26 39/103/26 40/104/26
f 38/105/27 34/106/27 33/107/27 37/108/27
f 39/109/28 35/110/28 36/111/28 40/112/28
f 37/113/29 33/114/29 35/115/29 39/116/29
f 34/117/30 38/118/30 40/119/30 36/120/30
f 44/121/31 42/122/31 41/123/31 43/124/31
f 47/125/32 45/126/32 46/127/32 48/128/32
f 41/129/33 42/130/33 46/131/33 45/132/33
f 44/133/34 43/134/34 47/135/34 48/136/34
f 43/137/35 41/138/35 45/139/35 47/140/35
f 48/141/36 46/142/36 42/143/36 44/144/36
f 52/145/37 50/146/37 49/147/37 51/148/37
f 55/149/38 53/150/38 54/151/38 56/152/38
f 49/153/39 50/154/39 54/155/39 53/156/39
f 52/157/40 51/158/40 55/159/40 56/160/40
f 51/161/41 49/162/41 53/163/41 55/164/41
f 56/165/42 54/166/42 50/167/42 52/168/42
f 60/169/43 58/170/43 57/171/43 59/172/43
f 63/173/44 61/174/44 62/175/44 64/176/44
f 57/177/45 58/178/45 62/179/45 61/180/45
f 60/181/46 59/182/46 63/183/46 64/184/46
f 59/185/47 57/186/47 61/187/47 63/188/47
f 64/189/48 62/190/48 58/191/48 60/192/48
f 68/193/49 66/194/49 65/195/49 67/196/49
f 71/197/50 69/198/50 70/199/50 72/200/50
f 65/201/51 66/202/51 70/203/51 69/204/51
f 68/205/52 67/206/52 71/207/52 72/208/52
f 67/209/53 65/210/53 69/211/53 71/212/53
f 72/213/54 70/214/54 66/215/54 68/216/54
f 76/217/55 74/218/55 73/219/55 75/220/55
f 79/221/56 77/222/56 78/223/56 80/224/56
f 73/225/57 74/226/57 78/227/57 77/228/57
f 76/229/58 75/230/58 79/231/58 80/232/58
f 75/233/59 73/234/59 77/235/59 79/236/59
f 80/237/60 78/238/60 74/239/60 76/240/60
f 84/241/61 82/242/61 81/243/61 83/244/61
f 87/245/62 85/246/62 86/247/62 88/248/62
f 81/249/63 82/250/63 86/251/63 85/252/63
f 84/253/64 83/254/64 87/255/64 88/256/64
f 83/257/65 81/258/65 85/259/65 87/260/65
f 88/261/66 86/262/66 82/263/66 84/264/66
f 92/265/67 90/266/67 89/267/67 91/268/67
f 95/269/68 93/270/68 94/271/68 96/272/68
f 89/273/69 90/274/69 94/275/69 93/276/69
f 92/277/70 91/278/70 95/279/70 96/280/70
f 91/281/71 89/282/71 93/283/71 95/284/71
f 96/285/72 94/286/72 90/287/72 92/288/72
f 100/289/73 98/290/73 97/291/73 99/292/73
f 103/293/74 101/294/74 102/295/74 104/296/74
f 97/297/75 98/298/75 102/299/75 101/300/75
f 100/301/76 99/302/76 103/303/76 104/304/76
f 99/305/77 97/306/77 101/307/77 103/308/77
f 104/309/78 102/310/78 98/311/78 100/312/78
f 108/313/79 106/314/79 105/315/79 107/316/79
f 111/317/80 109/318/80 110/319/80 112/320/80
f 105/321/81 106/322/81 110/323/81 109/324/81
f 108/325/82 107/326/82 111/327/82 112/328/82
f 107/329/83 105/330/83 109/331/83 111/332/83
f 112/333/84 110/334/84 106/335/84 108/336/84
f 116/337/85 114/338/85 113/339/85 115/340/85
f 119/341/86 117/342/86 118/343/86 120/344/86
f 113/345/87 114/346/87 118/347/87 117/348/87
f 116/349/88 115/350/88 119/351/88 120/352/88
f 115/353/89 113/354/89 117/355/89 119/356/89
f 120/357/90 118/358/90 114/359/90 116/360/90
f 124/361/91 122/362/91 121/363/91 123/364/91
f 127/365/92 125/366/92 126/367/92 128/368/92
f 121/369/93 122/370/93 126/371/93 125/372/93
f 124/373/94 123/374/94 127/375/94 128/376/94
f 123/377/95 121/378/95 125/379/95 127/380/95
f 128/381/96 126/382/96 122/383/96 124/384/96
f 132/385/97 130/386/97 129/387/97 131/388/97
f 135/389/98 133/390/98 134/391/98 136/392/98
f 129/393/99 130/394/99 134/395/99 133/396/99
f 132/397/100 131/398/100 135/399/100 136/400/100
f 131/401/101 129/402/101 133/403/101 135/404/101
f 136/405/102 134/406/102 130/407/102 132/408/102
f 140/409/103 138/410/103 137/411/103 139/412/103
f 143/413/104 141/414/104 142/415/104 144/416/104
f 137/417/105 138/418/105 142/419/105 141/420/105
f 140/421/106 139/422/106 143/423/106 144/424/106
f 139/425/107 137/426/107 141/427/107 143/428/107
f 144/429/108 142/430/108 138/431/108 140/432/108
f 148/433/109 146/434/109 145/435/109 147/436/109
f 151/437/110 149/438/110 150/439/110 152/440/110
f 145/441/111 146/442/111 150/443/111 149/444/111
f 148/445/112 147/446/112 151/447/112 152/448/112
f 147/449/113 145/450/113 149/451/113 151/452/113
f 152/453/114 150/454/114 146/455/114 148/456/114
f 156/457/115 154/458/115 153/459/115 155/460/115
f 159/461/116 157/462/116 158/463/116 160/464/116
f 153/465/117 154/466/117 158/467/117 157/468/117
f 156/469/118 155/470/118 159/471/118 160/472/118
f 155/473/119 153/474/119 157/475/119 159/476/119
f 160/477/120 158/478/120 154/479/120 156/480/120
f 164/481/121 162/482/121 161/483/121 163/484/121
f 167/485/122 165/486/122 166/487/122 168/488/122
f 161/489/123 162/490/123 166/491/123 165/492/123
f 164/493/124 163/494/124 167/495/124 168/496/124
f 163/497/125 161/498/125 165/499/125 167/500/125
f 168/501/126 166/502/126 162/503/126 164/504/126
f 170/505/127 169/506/127 171/507/127 172/508/127
f 175/509/128 173/510/128 174/511/128 176/512/128
f 173/513/129 169/514/129 170/515/129 174/516/129
f 172/517/130 171/518/130 175/519/130 176/520/130
f 171/521/131 169/522/131 173/523/131 175/524/131
f 174/525/132 170/526/132 172/527/132 176/528/132
f 177/529/133 178/530/133 180/531/133 179/532/133
f 182/533/134 181/534/134 183/535/134 184/536/134
f 187/537/135 185/538/135 186/539/135 188/540/135
f 185/541/136 181/542/136 182/543/136 186/544/136
f 184/545/137 183/546/137 187/547/137 188/548/137
f 183/549/138 181/550/138 185/551/138 187/552/138
f 186/553/139 182/554/139 184/555/139 188/556/139
f 190/557/140 189/558/140 191/559/140 192/560/140
f 195/561/141 193/562/141 194/563/141 196/564/141
f 193/565/142 189/566/142 190/567/142 194/568/142
f 192/569/143 191/570/143 195/571/143 196/572/143
f 191/573/144 189/574/144 193/575/144 195/576/144
f 194/577/145 190/578/145 192/579/145 196/580/145
f 198/581/146 197/582/146 199/583/146 200/584/146
f 203/585/147 201/586/147 202/587/147 204/588/147
f 201/589/148 197/590/148 198/591/148 202/592/148
f 200/593/149 199/594/149 203/595/149 204/596/149
f 199/597/150 197/598/150 201/599/150 203/600/150
f 202/601/151 198/602/151 200/603/151 204/604/151
f 206/605/152 205/606/152 207/607/152 208/608/152
f 211/609/153 209/610/153 210/611/153 212/612/153
f 209/613/154 205/614/154 206/615/154 210/616/154
f 208/617/155 207/618/155 211/619/155 212/620/155
f 207/621/156 205/622/156 209/623/156 211/624/156
f 210/625/157 206/626/157 208/627/157 212/628/157
f 214/629/158 213/630/158 215/631/158 216/632/158
f 219/633/159 217/634/159 218/635/159 220/636/159
f 217/637/160 213/638/160 214/639/160 218/640/160
f 216/641/161 215/642/161 219/643/161 220/644/161
f 215/645/162 213/646/162 217/647/162 219/648/162
f 218/649/163 214/650/163 216/651/163 220/652/163
f 222/653/164 221/654/164 223/655/164 224/656/164
f 227/657/165 225/658/165 226/659/165 228/660/165
f 225/661/166 221/662/166 222/663/166 226/664/166
f 224/665/167 223/666/167 227/667/167 228/668/167
f 223/669/168 221/670/168 225/671/168 227/672/168
f 226/673/169 222/674/169 224/675/169 228/676/169
f 232/677/170 230/678/170 229/679/170 231/680/170
f 235/681/171 233/682/171 234/683/171 236/684/171
f 229/685/172 230/686/172 234/687/172 233/688/172
f 232/689/173 231/690/173 235/691/173 236/692/173
f 231/693/174 229/694/174 233/695/174 235/696/174
f 236/697/175 234/698/175 230/699/175 232/700/175
f 240/701/176 238/702/176 237/703/176 239/704/176
f 243/705/177 241/706/177 242/707/177 244/708/177
f 237/709/178 238/710/178 242/711/178 241/712/178
f 240/713/179 239/714/179 243/715/179 244/716/179
f 239/717/180 237/718/180 241/719/180 243/720/180
f 244/721/181 242/722/181 238/723/181 240/724/181
f 248/725/182 246/726/182 245/727/182 247/728/182
f 251/729/183 249/730/183 250/731/183 252/732/183
f 245/733/184 246/734/184 250/735/184 249/736/184
f 248/737/185 247/738/185 251/739/185 252/740/185
f 247/741/186 245/742/186 249/743/186 251/744/186
f 252/745/187 250/746/187 246/747/187 248/748/187
f 256/749/188 254/750/188 253/751/188 255/752/188
f 259/753/189 257/754/189 258/755/189 260/756/189
f 253/757/190 254/758/190 258/759/190 257/760/190
f 256/761/191 255/762/191 259/763/191 260/764/191
f 255/765/192 253/766/192 257/767/192 259/768/192
f 260/769/193 258/770/193 254/771/193 256/772/193
f 264/773/194 262/774/194 261/775/194 263/776/194
f 267/777/195 265/778/195 266/779/195 268/780/195
f 261/781/196 262/782/196 266/783/196 265/784/196
f 264/785/197 263/786/197 267/787/197 268/788/197
f 263/789/198 261/790/198 265/791/198 267/792/198
f 268/793/199 266/794/199 262/795/199 264/796/199
f 272/797/200 270/798/200 269/799/200 271/800/200
f 275/801/201 273/802/201 274/803/201 276/804/201
f 269/805/202 270/806/202 274/807/202 273/808/202
f 272/809/203 271/810/203 275/811/203 276/812/203
f 271/813/204 269/814/204 273/815/204 275/816/204
f 276/817/205 274/818/205 270/819/205 272/820/205
f 280/821/206 278/822/206 277/823/206 279/824/206
f 283/825/207 281/826/207 282/827/207 284/828/207
f 277/829/208 278/830/208 282/831/208 281/832/208
f 280/833/209 279/834/209 283/835/209 284/836/209
f 279/837/210 277/838/210 281/839/210 283/840/210
f 284/841/211 282/842/211 278/843/211 280/844/211
f 288/845/212 286/846/212 285/847/212 287/848/212
f 291/849/213 289/850/213 290/851/213 292/852/213
f 285/853/214 286/854/214 290/855/214 289/856/214
f 288/857/215 287/858/215 291/859/215 292/860/215
f 287/861/216 285/862/216 289/863/216 291/864/216
f 292/865/217 290/866/217 286/867/217 288/868/217
f 295/869/218 293/870/218 294/871/218 296/872/218
f 298/873/219 297/874/219 299/875/219 300/876/219
f 294/877/220 293/878/220 297/879/220 298/880/220
f 299/881/221 295/882/221 296/883/221 300/884/221
f 297/885/222 293/886/222 295/887/222 299/888/222
f 296/889/223 294/890/223 298/891/223 300/892/223
f 303/893/224 301/894/224 302/895/224 304/896/224
f 306/897/225 305/898/225 307/899/225 308/900/225
f 302/901/226 301/902/226 305/903/226 306/904/226
f 307/905/227 303/906/227 304/907/227 308/908/227
f 305/909/228 301/910/228 303/911/228 307/912/228
f 304/913/229 302/914/229 306/915/229 308/916/229
f 310/917/230 309/918/230 311/919/230 312/920/230
f 315/921/231 313/922/231 314/923/231 316/924/231
f 313/925/232 309/926/232 310/927/232 314/928/232
f 312/929/233 311/930/233 315/931/233 316/932/233
f 311/933/234 309/934/234 313/935/234 315/936/234
f 314/937/235 310/938/235 312/939/235 316/940/235
f 317/941/236 318/942/236 320/943/236 319/944/236
f 322/945/237 321/946/237 323/947/237 324/948/237
f 327/949/238 325/950/238 326/951/238 328/952/238
f 325/953/239 321/954/239 322/955/239 326/956/239
f 324/957/240 323/958/240 327/959/240 328/960/240
f 323/961/241 321/962/241 325/963/241 327/964/241
f 326/965/242 322/966/242 324/967/242 328/968/242
f 330/969/243 329/970/243 331/971/243 332/972/243
f 335/973/244 333/974/244 334/975/244 336/976/244
f 333/977/245 329/978/245 330/979/245 334/980/245
f 332/981/246 331/982/246 335/983/246 336/984/246
f 331/985/247 329/986/247 333/987/247 335/988/247
f 334/989/248 330/990/248 332/991/248 336/992/248
f 338/993/249 337/994/249 339/995/249 340/996/249
f 343/997/250 341/998/250 342/999/250 344/1000/250
f 341/1001/251 337/1002/251 338/1003/251 342/1004/251
f 340/1005/252 339/1006/252 343/1007/252 344/1008/252
f 339/1009/253 337/1010/253 341/1011/253 343/1012/253
f 342/1013/254 338/1014/254 340/1015/254 344/1016/254
f 346/1017/255 345/1018/255 347/1019/255 348/1020/255
f 351/1021/256 349/1022/256 350/1023/256 352/1024/256
f 349/1025/257 345/1026/257 346/1027/257 350/1028/257
f 348/1029/258 347/1030/258 351/1031/258 352/1032/258
f 347/1033/259 345/1034/259 349/1035/259 351/1036/259
f 350/1037/260 346/1038/260 348/1039/260 352/1040/260
f 354/1041/261 353/1042/261 355/1043/261 356/1044/261
f 359/1045/262 357/1046/262 358/1047/262 360/1048/262
f 357/1049/263 353/1050/263 354/1051/263 358/1052/263
f 356/1053/264 355/1054/264 359/1055/264 360/1056/264
f 355/1057/265 353/1058/265 357/1059/265 359/1060/265
f 358/1061/266 354/1062/266 356/1063/266 360/1064/266
f 362/1065/267 361/1066/267 363/1067/267 364/1068/267
f 367/1069/268 365/1070/268 366/1071/268 368/1072/268
f 365/1073/269 361/1074/269 362/1075/269 366/1076/269
f 364/1077/270 363/1078/270 367/1079/270 368/1080/270
f 363/1081/271 361/1082/271 365/1083/271 367/1084/271
f 366/1085/272 362/1086/272 364/1087/272 368/1088/272
f 370/1089/273 369/1090/273 371/1091/273 372/1092/273
f 375/1093/274 373/1094/274 374/1095/274 376/1096/274
f 373/1097/275 369/1098/275 370/1099/275 374/1100/275
f 372/1101/276 371/1102/276 375/1103/276 376/1104/276
f 371/1105/277 369/1106/277 373/1107/277 375/1108/277
f 374/1109/278 370/1110/278 372/1111/278 376/1112/278
f 380/1113/279 378/1114/279 377/1115/279 379/1116/279
f 383/1117/280 381/1118/280 382/1119/280 384/1120/280
f 377/1121/281 378/1122/281 382/1123/281 381/1124/281
f 380/1125/282 379/1126/282 383/1127/282 384/1128/282
f 379/1129/283 377/1130/283 381/1131/283 383/1132/283
f 384/1133/284 382/1134/284 378/1135/284 380/1136/284
f 388/1137/285 386/1138/285 385/1139/285 387/1140/285
f 391/1141/286 389/1142/286 390/1143/286 392/1144/286
f 385/1145/287 386/1146/287 390/1147/287 389/1148/287
f 388/1149/288 387/1150/288 391/1151/288 392/1152/288
f 387/1153/289 385/1154/289 389/1155/289 391/1156/289
f 392/1157/290 390/1158/290 386/1159/290 388/1160/290
f 396/1161/291 394/1162/291 393/1163/291 395/1164/291
f 399/1165/292 397/1166/292 398/1167/292 400/1168/292
f 393/1169/293 394/1170/293 398/1171/293 397/1172/293
f 396/1173/294 395/1174/294 399/1175/294 400/1176/294
f 395/1177/295 393/1178/295 397/1179/295 399/1180/295
f 400/1181/296 398/1182/296 394/1183/296 396/1184/296
f 404/1185/297 402/1186/297 401/1187/297 403/1188/297
f 407/1189/298 405/1190/298 406/1191/298 408/1192/298
f 401/1193/299 402/1194/299 406/1195/299 405/1196/299
f 404/1197/300 403/1198/300 407/1199/300 408/1200/300
f 403/1201/301 401/1202/301 405/1203/301 407/1204/301
f 408/1205/302 406/1206/302 402/1207/302 404/1208/302
f 412/1209/303 410/1210/303 409/1211/303 411/1212/303
f 415/1213/304 413/1214/304 414/1215/304 416/1216/304
f 409/1217/305 410/1218/305 414/1219/305 413/1220/305
f 412/1221/306 411/1222/306 415/1223/306 416/1224/306
f 411/1225/307 409/1226/307 413/1227/307 415/1228/307
f 416/1229/308 414/1230/308 410/1231/308 412/1232/308
f 420/1233/309 418/1234/309 417/1235/309 419/1236/309
f 423/1237/310 421/1238/310 422/1239/310 424/1240/310
f 417/1241/311 418/1242/311 422/1243/311 421/1244/311
f 420/1245/312 419/1246/312 423/1247/312 424/1248/312
f 419/1249/313 417/1250/313 421/1251/313 423/1252/313
f 424/1253/314 422/1254/314 418/1255/314 420/1256/314
f 428/1257/315 426/1258/315 425/1259/315 427/1260/315
f 431/1261/316 429/1262/316 430/1263/316 432/1264/316
f 425/1265/317 426/1266/317 430/1267/317 429/1268/317
f 428/1269/318 427/1270/318 431/1271/318 432/1272/318
f 427/1273/319 425/1274/319 429/1275/319 431/1276/319
f 432/1277/320 430/1278/320 426/1279/320 428/1280/320
f 436/1281/321 434/1282/321 433/1283/321 435/1284/321
f 439/1285/322 437/1286/322 438/1287/322 440/1288/322
f 433/1289/323 434/1290/323 438/1291/323 437/1292/323
f 436/1293/324 435/1294/324 439/1295/324 440/1296/324
f 435/1297/325 433/1298/325 437/1299/325 439/1300/325
f 440/1301/326 438/1302/326 434/1303/326 436/1304/326
