# Made in Blockbench 5.1.6
mtllib r_police.mtl

o plane
v 0.28070414435219526 1.354634508886548 0.15739330835997395
v 0.3063340689613541 1.1067227439688616 0.1378264031389983
v 0.24900978732218432 1.3807772560311382 -0.21534926300019175
v 0.2746397119313432 1.132865491113452 -0.2349161682211674
v 0.256523621151022 0.9551233112448554 0.16835070843884334
v 0.26611833198022317 0.9568534845750973 0.13866046552384972
v 0.2906774932441393 1.389769478698626 0.204716518464135
v 0.30027220407334054 1.3914996520288683 0.17502627554914144
v -0.09504880942398591 1.4439938865620607 -0.16811023681953272
v -0.09716022327360713 1.4518738026473523 -0.2300755404502291
v -0.07499709665196197 1.2903607746045707 -0.18833047977468972
v -0.07710851050158335 1.2982406906898625 -0.2502957834053861
v -0.1879696694036866 1.4316559303580396 -0.1665130150626923
v -0.19008108325330786 1.4395358464433314 -0.2284783186933887
v -0.1679179566316627 1.2780228184005495 -0.18673325801784932
v -0.17002937048128397 1.2859027344858414 -0.24869856164854565
v -0.2244265478127414 1.0781250000000002 -0.21788452501886027
v -0.3464635487027329 1.0781249999999998 -0.24493947676112313
v -0.2244265478127414 0.828125 -0.2178845250188603
v -0.346463548702733 0.828125 -0.24493947676112315
v -0.26500897542613566 1.078125 -0.03482902368387274
v -0.38704597631612725 1.0781250000000002 -0.06188397542613563
v -0.2650089754261358 0.828125 -0.03482902368387275
v -0.38704597631612725 0.828125 -0.06188397542613566
v 0.2244265478127412 1.078125 -0.21788452501886024
v 0.34646354870273294 1.078125 -0.24493947676112315
v 0.22442654781274127 0.828125 -0.21788452501886024
v 0.3464635487027329 0.828125 -0.2449394767611231
v 0.26500897542613555 1.078125 -0.03482902368387274
v 0.38704597631612725 1.078125 -0.06188397542613565
v 0.26500897542613555 0.828125 -0.03482902368387275
v 0.3870459763161272 0.8281249999999999 -0.06188397542613565
v -0.1718750000000001 1.2918966332986412 0.20397739684759644
v -0.1718750000000001 1.416853798920586 0.2007052783091123
v 0.17187499999999992 1.2918966332986412 0.2039773968475964
v 0.17187499999999986 1.4168537989205858 0.20070527830911222
v -0.07812500000000011 1.0949214720796783 -0.2388947448240588
v -0.07812500000000006 1.2822430136262764 -0.23071610969305842
v -0.23437500000000022 1.0949214720796783 -0.23889474482405884
v -0.2343750000000001 1.2822430136262764 -0.23071610969305836
v 0.22812499999999997 1.3110121748813106 -0.1809790391703012
v 0.22812499999999986 1.3175518442948224 -0.27450066888215974
v 0.22812499999999986 1.092795038886974 -0.1962382678018286
v 0.2281249999999999 1.0993347083004856 -0.28975989751368714
v 0.16562499999999994 1.3110121748813108 -0.18097903917030117
v 0.16562499999999983 1.3175518442948226 -0.27450066888215974
v 0.16562499999999986 1.092795038886974 -0.19623826780182857
v 0.16562499999999986 1.0993347083004856 -0.28975989751368714
v 0.1499999999999999 1.3110121748813108 -0.1809790391703012
v 0.1499999999999998 1.3175518442948226 -0.27450066888215974
v 0.14999999999999986 1.092795038886974 -0.1962382678018286
v 0.14999999999999988 1.0993347083004856 -0.28975989751368714
v 0.08749999999999991 1.3110121748813106 -0.18097903917030117
v 0.08749999999999994 1.3175518442948224 -0.27450066888215974
v 0.08749999999999988 1.092795038886974 -0.19623826780182854
v 0.08749999999999991 1.0993347083004856 -0.2897598975136871
v 0.07187499999999991 1.3110121748813106 -0.18097903917030117
v 0.07187499999999991 1.3175518442948224 -0.27450066888215974
v 0.07187499999999994 1.092795038886974 -0.19623826780182854
v 0.07187499999999988 1.0993347083004856 -0.2897598975136871
v 0.009374999999999911 1.3110121748813108 -0.18097903917030117
v 0.009374999999999856 1.3175518442948226 -0.2745006688821597
v 0.009374999999999911 1.092795038886974 -0.19623826780182857
v 0.009374999999999911 1.0993347083004859 -0.2897598975136871
v -0.006250000000000033 1.3110121748813108 -0.18097903917030117
v -0.006250000000000144 1.3175518442948226 -0.2745006688821596
v -0.006250000000000089 1.0927950388869743 -0.1962382678018286
v -0.006250000000000089 1.0993347083004859 -0.28975989751368714
v -0.06875000000000009 1.3110121748813106 -0.18097903917030117
v -0.06875000000000009 1.3175518442948226 -0.27450066888215974
v -0.06875000000000009 1.092795038886974 -0.1962382678018286
v -0.06875000000000009 1.0993347083004856 -0.2897598975136872
v 0.07187499999999988 1.0843307567349216 -0.19359440419356366
v 0.07187499999999991 1.088011890090716 -0.33417121551825146
v -0.07187500000000008 1.0843307567349219 -0.1935944041935637
v -0.07187500000000008 1.088011890090716 -0.33417121551825146
v 0.07187499999999991 1.0880115897909128 -0.3341709340441067
v 0.07187499999999991 0.9474347784662249 -0.3378520673999014
v -0.07187500000000008 1.0880115897909128 -0.33417093404410664
v -0.07187500000000008 0.9474347784662251 -0.33785206739990137
v -0.09664050858518847 1.0843302976246352 -0.1943167841574786
v -0.11498947624830463 1.0880114371406489 -0.3336909396618674
v -0.2391600861323222 1.0843303079913058 -0.1755537132820311
v -0.2575090537954382 1.0880114475073193 -0.31492786878641993
v -0.11498939393084462 1.0880114186201355 -0.33369032303399776
v -0.11546988486606036 0.9474346071218605 -0.3373399562264824
v -0.2575089728090294 1.0880114262770224 -0.31492726226888224
v -0.25798946374424525 0.9474346147787474 -0.3185768954613671
v 0.23116755426739521 1.0843303073960129 -0.17335158409738707
v 0.2555784661039937 1.0880114429035723 -0.3117927168928132
v 0.08960144064221628 1.0843303038556285 -0.19831351457287172
v 0.11401235247881483 1.0880114393631874 -0.33675464736829785
v 0.25557836285675867 1.0880114188845234 -0.3117921112066912
v 0.25621757658576083 0.9474346074076108 -0.31541731544828405
v 0.11401224728546785 1.0880114263650758 -0.3367540306452259
v 0.11465146101447007 0.9474346148881632 -0.3403792348868185
v 0.22567524403800282 0.8687500000000001 0.25022009876884255
v 0.3662850336569333 0.8687500000000001 0.08264787683656609
v 0.22567524403800282 0.55625 0.25022009876884255
v 0.3662850336569333 0.55625 0.0826478768365661
v 0.17779746634306665 0.86875 0.21004587316343393
v 0.31840725596199715 0.8687500000000001 0.042473651231157386
v 0.17779746634306662 0.55625 0.21004587316343387
v 0.31840725596199715 0.55625 0.042473651231157386
v 0.36680262175058453 0.8124999999999999 0.00677310509430986
v 0.35052310509430984 0.8125 -0.08555262175058465
v 0.36680262175058453 0.6875 0.006773105094309874
v 0.35052310509430984 0.6875000000000001 -0.08555262175058465
v 0.27447689490569005 0.8124999999999999 0.02305262175058459
v 0.25819737824941535 0.8124999999999999 -0.06927310509430992
v 0.27447689490569005 0.6875 0.023052621750584604
v 0.25819737824941535 0.6874999999999999 -0.06927310509430992
v 0.3281249999999999 0.07628415405277988 0.034414118233128274
v 0.3281249999999999 1.0677290154265906 -0.09611207398692306
v 0.328125 0.08852098457340962 0.12736207398692306
v 0.3281249999999999 1.0799658459472203 -0.003164118233128302
v -0.3108136808008479 0.828125 0.09043496189992714
v -0.2895880782193655 0.828125 -0.09585976103943303
v -0.3108136808008479 0.640625 0.09043496189992717
v -0.2895880782193654 0.6406249999999999 -0.09585976103943306
v -0.3729119217806346 0.8281250000000001 0.08335976103943298
v -0.3516863191991523 0.828125 -0.10293496189992718
v -0.3729119217806346 0.640625 0.08335976103943296
v -0.3516863191991523 0.6406249999999999 -0.10293496189992721
v -0.362176449185032 0.8616027336606011 0.21835880564025967
v -0.3225133671343954 0.8512712520937673 0.10026943096633456
v -0.3621764491850319 0.7370783963991328 0.22925327348371694
v -0.3225133671343954 0.726746914832299 0.1111638988097918
v -0.18436576383386954 0.866788031724278 0.27762703371349257
v -0.1447026817832332 0.8564565501574442 0.15953765903956757
v -0.18436576383386954 0.7422636944628097 0.2885215015569499
v -0.1447026817832331 0.7319322128959759 0.17043212688302478
v -0.36217637152473203 0.7370787845883318 0.2292531192609819
v -0.3233800174481398 0.7528631269059695 0.11147919409941082
v -0.3539299593293558 0.6131275657649979 0.2153573631421512
v -0.3151336052527637 0.6289119080826361 0.09758343798058017
v -0.18436568823600985 0.7422640764867506 0.2885213540611341
v -0.14556933415941786 0.7580484188043887 0.17074742889956307
v -0.17611927604063365 0.618312857663417 0.27462559794230335
v -0.1373229219640416 0.6340971999810548 0.1568516727807324
v 0.07078240925822585 0.8616029880843565 0.2773902286557013
v 0.0630345931451528 0.8512715065175227 0.15305909082566221
v 0.06796271349408223 0.7370786508228883 0.28791347650937243
v 0.06021489738100913 0.7267471692560544 0.16358233867933336
v -0.11630927010745373 0.8667882861480333 0.28861814903841526
v -0.1240570862205268 0.8564568045811997 0.16428701120837608
v -0.11912896587159744 0.7422639488865652 0.29914139689208635
v -0.12687678198467056 0.7319324673197312 0.17481025906204722
v 0.06796267839577366 0.7370790390120872 0.287913307441685
v 0.06097041287563182 0.752863381329725 0.16411119614912473
v 0.0635937422116879 0.6131278201887534 0.272356709200763
v 0.056601476691546 0.6289121625063913 0.14855459790820283
v -0.1191290007187964 0.742264330910506 0.2991412348559027
v -0.1261212662389382 0.758048673228144 0.17533912356334252
v -0.12349793690288219 0.6183131120871724 0.28358463661498073
v -0.13049020242302406 0.6340974544048102 0.15978252532242054
v 0.07812499999999997 0.8171875 0.20312500000000003
v 0.18749999999999994 0.8171875 0.20312500000000008
v 0.07812499999999997 0.7078125 0.20312500000000006
v 0.1875 0.7078125 0.20312499999999994
v 0.06561415858996619 0.828125 0.18227608037060083
v 0.18981064054953964 0.828125 0.16812567864961245
v 0.06561415858996617 0.671875 0.18227608037060083
v 0.18981064054953958 0.6718750000000001 0.16812567864961248
v 0.07268935945046032 0.828125 0.24437432135038756
v 0.1968858414100338 0.828125 0.2302239196293992
v 0.07268935945046029 0.6718749999999999 0.2443743213503875
v 0.1968858414100338 0.671875 0.2302239196293992
v 0.07812499999999997 0.8171874999999998 0.21875000000000006
v 0.18749999999999994 0.8171875 0.21875000000000006
v 0.07812499999999994 0.7078124999999998 0.21875
v 0.1875 0.7078125 0.21874999999999994
v 0.3463690662447025 0.8125 -0.10240944205550057
v 0.2838690662447025 0.8125 -0.10240944205550057
v 0.3463690662447025 0.6875000000000001 -0.10240944205550054
v 0.2838690662447025 0.6875000000000001 -0.10240944205550054
v 0.3151190662447025 0.8125 -0.13365973415277027
v 0.3151190662447025 0.8125 -0.07115973415277026
v 0.3151190662447025 0.6875000000000001 -0.13365973415277027
v 0.3151190662447025 0.6875000000000002 -0.07115973415277026
v 0.363448570923682 0.8281249999999999 -0.10977940451223483
v 0.32454140613383065 0.828125 -0.06086639470895895
v 0.363448570923682 0.671875 -0.10977940451223483
v 0.32454140613383065 0.671875 -0.060866394708958965
v 0.3145355611204061 0.828125 -0.14868656930208604
v 0.2756283963305549 0.828125 -0.0997735594988102
v 0.3145355611204061 0.6718750000000001 -0.14868656930208604
v 0.2756283963305549 0.671875 -0.0997735594988102
v 0.24999999999999997 1.25 -0.10000000000000003
v 0.24999999999999997 1.2499999999999998 -0.22500000000000003
v 0.24999999999999997 0.75 -0.1
v 0.24999999999999994 0.75 -0.22499999999999998
v -0.2500000000000001 1.25 -0.1
v -0.2500000000000001 1.2499999999999998 -0.225
v -0.25 0.75 -0.1
v -0.25 0.75 -0.225
v 0.2656249999999999 1.4375 0.20000000000000007
v 0.26562499999999994 1.4375 0.10625000000000007
v 0.2656249999999999 0.8124999999999999 0.2000000000000001
v 0.26562499999999994 0.8125 0.10625000000000007
v -0.265625 1.4375 0.2
v -0.2656250000000001 1.4375 0.10625000000000004
v -0.265625 0.8125 0.20000000000000007
v -0.265625 0.8125 0.10625000000000004
v 0.15624999999999994 1.4373828369752373 -0.12048961372297433
v 0.15624999999999994 1.4503773176513473 -0.18162383876883717
v 0.15624999999999997 1.23563989432389 -0.1633713999541372
v 0.15624999999999994 1.248634375 -0.22450562500000004
v -0.1562500000000001 1.4373828369752373 -0.12048961372297431
v -0.15625000000000006 1.4503773176513475 -0.18162383876883717
v -0.15625000000000006 1.23563989432389 -0.16337139995413713
v -0.1562500000000001 1.248634375 -0.22450562500000001
v -0.18637932214963365 1.5934633632595316 0.16268628065124613
v -0.18094056438112321 1.5891033196912479 0.10057621758560331
v -0.10214331668392285 1.300355800853827 0.19063828851770795
v -0.09670455891541246 1.2959957572855432 0.1285282254520651
v -0.34795438542152146 1.545996897653438 0.15186980841900125
v -0.3425156276530109 1.541636854085154 0.0897597453533584
v -0.2637183799558106 1.2528893352477333 0.179821816285463
v -0.2582796221873003 1.2485292916794495 0.11771175321982022
v -0.18608206090751167 1.6161070555499037 0.058877738101884985
v -0.1680520376208558 1.5576281891007024 0.046173784422057926
v -0.18637946904352948 1.5934639316339632 0.1626865189815776
v -0.16834944575687366 1.5349850651847623 0.14998256530175058
v -0.3476571007467958 1.5686405097703475 0.04806126766596833
v -0.32962707746013975 1.5101616433211467 0.03535731398614125
v -0.34795450888281354 1.5459973858544072 0.15187004854566097
v -0.3299244855961575 1.4875185194052063 0.13916609486583392
v -0.17686380459710738 1.5677429342461968 0.08059916499449744
v -0.1943874140865191 1.6327053845044697 0.06647947424349315
v -0.15215072583503492 1.5346566307227736 -0.10229646168163592
v -0.1696743353244466 1.5996190809810469 -0.11641615243264014
v -0.3265427915576965 1.5246649637150518 0.0681672778742876
v -0.34406640104710806 1.5896274139733249 0.054047587123283364
v -0.3018297127956239 1.4915786601916288 -0.11472834880184571
v -0.31935332228503555 1.5565411104499016 -0.12884803955285
v -0.17005287582661482 1.5558631762833284 0.07499991959010127
v -0.18598342990789818 1.6149199492453947 0.06216383708918832
v -0.1453397970645423 1.5227768727599054 -0.10789570708603205
v -0.16127035114582572 1.5818336457219715 -0.12073178958694503
v -0.33170618174405064 1.5093389681096916 0.061573481500274696
v -0.34763673582533405 1.5683957410717582 0.048737398999361733
v -0.30699310298197835 1.4762526645862686 -0.12132214517585868
v -0.32292365706326165 1.5353094375483352 -0.1341582276767716
v -0.1566415753216313 1.5706334005404163 -0.05909994499634585
v -0.15514744023361954 1.5848490804840467 -0.12634758067284407
v -0.03146151407191372 1.1599341482648493 -0.14313759397468923
v -0.029967378983901893 1.1741498282084797 -0.21038522965118744
v -0.32428204665678084 1.522386130414859 -0.07302378412068142
v -0.32278791156876907 1.5366018103584893 -0.14027141979717966
v -0.19910198540706342 1.1116868781392921 -0.1570614330990248
v -0.19760785031905154 1.1259025580829225 -0.224309068775523
v 0.3479543854215213 1.545996897653438 0.15186980841900125
v 0.3425156276530109 1.5416368540851537 0.08975974535335837
v 0.2637183799558105 1.2528893352477335 0.179821816285463
v 0.25827962218730016 1.2485292916794495 0.11771175321982022
v 0.1863793221496335 1.5934633632595314 0.1626862806512461
v 0.1809405643811231 1.5891033196912476 0.10057621758560328
v 0.10214331668392262 1.3003558008538272 0.19063828851770795
v 0.09670455891541233 1.2959957572855432 0.1285282254520651
v 0.3476571007467956 1.568640509770347 0.0480612676659683
v 0.32962707746013975 1.5101616433211467 0.03535731398614128
v 0.34795450888281343 1.5459973858544072 0.15187004854566094
v 0.32992448559615756 1.4875185194052065 0.13916609486583392
v 0.1860820609075115 1.6161070555499035 0.058877738101884985
v 0.1680520376208557 1.5576281891007024 0.046173784422057926
v 0.18637946904352937 1.5934639316339632 0.16268651898157757
v 0.16834944575687344 1.5349850651847625 0.14998256530175058
v 0.3317061817440507 1.5093389681096918 0.061573481500274696
v 0.3476367358253341 1.5683957410717582 0.04873739899936172
v 0.3069931029819782 1.4762526645862686 -0.12132214517585868
v 0.32292365706326154 1.5353094375483352 -0.1341582276767716
v 0.17005287582661463 1.5558631762833284 0.07499991959010126
v 0.18598342990789798 1.614919949245395 0.06216383708918831
v 0.14533979706454214 1.5227768727599056 -0.10789570708603206
v 0.16127035114582558 1.5818336457219717 -0.12073178958694505
v 0.31643678561892735 1.5208736986157265 0.038181948913073735
v 0.33396039510833914 1.5858361488739998 0.024062258162069514
v 0.29501878402513115 1.4921989022287605 -0.1203275942062419
v 0.3125423935145428 1.5571613524870334 -0.13444728495724614
v 0.17873211761518545 1.5605054315043805 0.049619285063666835
v 0.1962557271045971 1.6254678817626536 0.0354995943126626
v 0.15731411602138917 1.5318306351174138 -0.10889025805564884
v 0.1748377255108009 1.5967930853756864 -0.1230099488066531
v 0.32428204665678084 1.522386130414859 -0.07302378412068142
v 0.32278791156876896 1.5366018103584893 -0.14027141979717964
v 0.19910198540706328 1.1116868781392923 -0.15706143309902476
v 0.1976078503190515 1.1259025580829223 -0.22430906877552306
v 0.1566415753216312 1.5706334005404161 -0.05909994499634585
v 0.15514744023361934 1.5848490804840467 -0.1263475806728441
v 0.03146151407191358 1.1599341482648495 -0.14313759397468917
v 0.029967378983901755 1.1741498282084797 -0.21038522965118742
v 0.2699673972760063 1.2056315101096362 -0.10889755150177588
v 0.25326828017764663 1.0471151176901974 -0.2190463387055474
v 0.3031566267617369 1.0331423747647572 0.13430190004801587
v 0.2864575096633773 0.8746259823453185 0.024153112844244276
v 0.22046153167417856 1.2059802952654262 -0.10189415090428953
v 0.2037624145758189 1.0474639028459873 -0.21204293810806107
v 0.25365076115990925 1.0334911599205474 0.1413053006455022
v 0.23695164406154956 0.8749747675011086 0.03115651344173058
v 0.3124999999999999 1.0625 0.14218750000000005
v 0.3124999999999999 1.0625 -0.17031250000000003
v 0.31249999999999994 0.8125 0.14218750000000002
v 0.31249999999999994 0.8125 -0.17031250000000003
v 0.24999999999999994 1.0625000000000002 0.14218750000000005
v 0.24999999999999994 1.0625 -0.17031250000000003
v 0.24999999999999994 0.8125 0.14218750000000002
v 0.24999999999999992 0.8125 -0.17031250000000003
v 0.24999999999999986 1.0625000000000002 -0.24062500000000006
v 0.10312499999999994 1.0625 -0.24062500000000006
v 0.24999999999999992 0.8125 -0.24062499999999998
v 0.10312499999999991 0.8125 -0.24062500000000003
v 0.2499999999999999 1.0625000000000002 -0.17812499999999998
v 0.10312499999999991 1.0625000000000002 -0.17812499999999998
v 0.24999999999999994 0.8125 -0.17812500000000003
v 0.10312499999999991 0.8125 -0.178125
v 0.3124999999999999 1.0625 -0.17031250000000006
v 0.24178932188134517 1.0625 -0.24102317811865476
v 0.31249999999999994 0.8125 -0.17031250000000006
v 0.24178932188134522 0.8125 -0.24102317811865473
v 0.26830582617584064 1.0625 -0.1261183261758408
v 0.19759514805718598 1.0625000000000002 -0.1968290042944955
v 0.26830582617584064 0.8125 -0.1261183261758408
v 0.19759514805718595 0.8125 -0.19682900429449554
v 0.22769519038435737 1.0625 0.19517942642332048
v 0.3124999999999999 1.0625 0.1421875000000001
v 0.22769519038435732 0.8124999999999999 0.19517942642332053
v 0.31249999999999994 0.8125 0.14218750000000008
v 0.19457523636978202 1.0625 0.1421764204135439
v 0.2793800459854246 1.0625 0.08918449399022338
v 0.194575236369782 0.8125 0.14217642041354392
v 0.27938004598542465 0.8125 0.08918449399022338
v -0.2204615316741787 1.2059802952654264 -0.10189415090428953
v -0.203762414575819 1.0474639028459873 -0.21204293810806107
v -0.25365076115990937 1.0334911599205474 0.14130530064550217
v -0.23695164406154967 0.8749747675011086 0.031156513441730607
v -0.2699673972760065 1.2056315101096364 -0.10889755150177585
v -0.2532682801776468 1.0471151176901974 -0.21904633870554746
v -0.30315662676173694 1.0331423747647572 0.13430190004801584
v -0.28645750966337735 0.8746259823453184 0.02415311284424429
v -0.2500000000000001 1.0625 0.14218750000000005
v -0.2500000000000001 1.0625 -0.17031249999999998
v -0.2500000000000001 0.8125 0.14218750000000002
v -0.2500000000000001 0.8125 -0.17031250000000003
v -0.3125 1.0625000000000002 0.14218750000000002
v -0.3125 1.0625000000000002 -0.17031250000000003
v -0.3125 0.8125 0.1421875
v -0.3125 0.8125 -0.1703125
v -0.25 1.0625000000000002 -0.17812499999999998
v -0.10312500000000002 1.0625000000000002 -0.178125
v -0.2500000000000001 0.8125 -0.17812499999999998
v -0.10312500000000008 0.8124999999999999 -0.17812500000000003
v -0.2500000000000001 1.0625000000000002 -0.24062499999999998
v -0.10312500000000013 1.0625000000000002 -0.24062500000000003
v -0.25 0.8125 -0.2406250000000001
v -0.10312500000000008 0.8124999999999999 -0.24062500000000006
v -0.26830582617584076 1.0625 -0.12611832617584084
v -0.1975951480571862 1.0625000000000002 -0.19682900429449554
v -0.26830582617584076 0.8125 -0.12611832617584084
v -0.1975951480571862 0.8125 -0.1968290042944955
v -0.3125 1.0625000000000002 -0.17031250000000003
v -0.24178932188134528 1.0625000000000002 -0.24102317811865473
v -0.3125 0.8125 -0.17031250000000006
v -0.24178932188134528 0.8125 -0.24102317811865476
v -0.1945752363697822 1.0625 0.14217642041354395
v -0.27938004598542465 1.0625000000000002 0.0891844939902234
v -0.1945752363697822 0.8125 0.14217642041354392
v -0.27938004598542465 0.8125 0.08918449399022338
v -0.22769519038435748 1.0625000000000002 0.1951794264233205
v -0.3125 1.0625000000000002 0.14218750000000008
v -0.22769519038435748 0.8125 0.19517942642332053
v -0.3125 0.8125 0.14218750000000005
v 0.031249999999999944 1.4291241490194293 -0.16522807871980144
v 0.031249999999999944 1.4352129721864322 -0.2085523067272452
v 0.031249999999999917 1.1877463072636711 -0.1991515220788175
v 0.031249999999999972 1.193835130430674 -0.2424757500862612
v -0.031250000000000056 1.4291241490194295 -0.16522807871980144
v -0.031250000000000056 1.4352129721864324 -0.2085523067272452
v -0.031250000000000056 1.1877463072636711 -0.19915152207881742
v -0.031250000000000056 1.193835130430674 -0.2424757500862612
v 0.17187499999999992 1.6023161525793705 0.21371408176887585
v 0.17187499999999992 1.614254464793972 0.1460085487492865
v 0.17187499999999992 1.4176646988895816 0.1811550484563264
v 0.17187499999999992 1.429603011104183 0.11344951543673704
v -0.1718750000000001 1.6023161525793708 0.21371408176887585
v -0.1718750000000001 1.6142544647939723 0.14600854874928654
v -0.1718750000000001 1.4176646988895818 0.18115504845632635
v -0.1718750000000001 1.429603011104183 0.11344951543673706
v 0.12499999999999994 1.4375 -0.18125
v 0.12499999999999994 1.4375 -0.20625000000000002
v 0.12499999999999994 1.3125 -0.18124999999999997
v 0.12499999999999994 1.3125 -0.20624999999999996
v -0.12500000000000006 1.4375 -0.18124999999999997
v -0.12500000000000006 1.4375 -0.20625
v -0.12500000000000017 1.3125 -0.18124999999999997
v -0.1250000000000001 1.3125 -0.20625000000000002
v 0.17187499999999992 1.5625 -0.12499999999999997
v 0.17187499999999992 1.5625 -0.19374999999999998
v 0.17187499999999994 1.4374999999999998 -0.125
v 0.17187499999999994 1.4375 -0.19374999999999995
v -0.1718750000000001 1.5625000000000002 -0.12499999999999996
v -0.17187500000000006 1.5625000000000002 -0.19374999999999998
v -0.1718750000000001 1.4375 -0.125
v -0.17187500000000006 1.4375 -0.19374999999999995
v 0.19850865193965087 1.1125 0.20306988720853683
v 0.3159702295378893 1.1125000000000003 0.24582240512424552
v 0.1985086519396509 0.8625 0.20306988720853686
v 0.3159702295378893 0.8625 0.24582240512424547
v 0.2519492993342865 1.1125000000000003 0.05624291521073865
v 0.36941087693252506 1.1125 0.09899543312644732
v 0.2519492993342865 0.8624999999999999 0.05624291521073865
v 0.36941087693252506 0.8625 0.09899543312644732
v 0.22386668228865914 1.1999999999999997 0.17138644537345837
v 0.29082693511419777 1.1999999999999997 0.21740695212360062
v 0.22386668228865914 1.0749999999999997 0.17138644537345837
v 0.29082693511419777 1.075 0.21740695212360056
v 0.28050730598114254 1.1999999999999997 0.0889738265112563
v 0.3474675588066811 1.1999999999999997 0.13499433326139898
v 0.28050730598114254 1.0749999999999997 0.0889738265112563
v 0.3474675588066811 1.075 0.13499433326139898
v 0.2663089307824045 1.4440438434919547 -0.1649467212108695
v 0.2771317836270394 1.4552032814373055 -0.22548251889329257
v 0.24517974443719256 1.3236126163804267 -0.1909251164808021
v 0.2560025972818274 1.3347720543257773 -0.25146091416322514
v 0.17534527451435664 1.462766633479165 -0.1777581564717301
v 0.1861681273589914 1.4739260714245157 -0.23829395415415314
v 0.15421608816914464 1.342335406367637 -0.20373655174166272
v 0.16503894101377944 1.353494844312988 -0.26427234942408573
v 0.07742812499999993 1.0786327822008048 -0.2029659219849482
v 0.07742812499999993 1.0742703451129918 -0.3278897753623352
v 0.07742812499999993 0.7663231487573373 -0.19205982926541673
v 0.0774281249999999 0.7619607116695246 -0.31698368264280363
v -0.07882187500000004 1.0786327822008048 -0.20296592198494826
v -0.0788218750000001 1.074270345112992 -0.32788977536233527
v -0.07882187500000015 0.7663231487573372 -0.19205982926541673
v -0.07882187500000015 0.7619607116695246 -0.31698368264280363
v -0.08886488975681289 1.0793757319461916 -0.20174130996404996
v -0.10516509007607155 1.0739234048102249 -0.32555397328389973
v -0.08708580496071866 0.7671731521922647 -0.18822709329117837
v -0.10338600527997732 0.7617208250562982 -0.312039756611028
v -0.243778157056606 1.0793757767943892 -0.18134665099409306
v -0.2600783573758645 1.0739234496584225 -0.3051593143139427
v -0.24199907226051176 0.767173197040462 -0.16783243432122133
v -0.25829927257977026 0.7617208699044957 -0.291645097641071
v 0.2391107506501725 1.0793757273198565 -0.1783949101589142
v 0.2607961467886058 1.0739233394936036 -0.3013787101543256
v 0.2367435752392857 0.7671731541903773 -0.16497105780922755
v 0.2584289713777189 0.7617207663641243 -0.2879548578046389
v 0.08523454720640633 1.0793758180053756 -0.20552748308748964
v 0.10691994334483962 1.0739234301791227 -0.32851128308290106
v 0.08286737179551948 0.7671732448758963 -0.192103630737803
v 0.10455276793395274 0.7617208570496434 -0.3150874307332144
v 0.20559946608862614 0.8125 0.1896844541080495
v 0.31332446590223245 0.8125 0.09929244649587993
v 0.20559946608862611 0.6875 0.18968445410804946
v 0.31332446590223245 0.6875 0.09929244649587987
v 0.18149493072538092 0.8125 0.16095778749108783
v 0.2892199305389872 0.8125 0.07056577987891827
v 0.1814949307253809 0.6875 0.16095778749108786
v 0.2892199305389872 0.6875000000000001 0.07056577987891825
v 0.20624999999999996 0.8125 0.18750000000000003
v 0.20624999999999993 0.8125 0.14375
v 0.20624999999999993 0.625 0.1875
v 0.20624999999999993 0.625 0.14375000000000004
v -0.20624999999999993 0.8125 0.18750000000000003
v -0.20625 0.8125 0.14375
v -0.20625 0.6249999999999999 0.1875
v -0.20624999999999993 0.6249999999999999 0.14374999999999993
v -0.27723616960864306 0.8124999999999999 0.10193584315367041
v -0.2540854254412964 0.8124999999999998 -0.16267837352694953
v -0.2772361696086433 0.6875 0.10193584315367044
v -0.2540854254412964 0.6874999999999999 -0.16267837352694953
v -0.31459347078708355 0.8125 0.09866750280063324
v -0.2914427266197369 0.8125 -0.16594671387998663
v -0.31459347078708355 0.6875 0.09866750280063322
v -0.2914427266197369 0.6875 -0.16594671387998666
v -0.18149493072538103 0.8125 0.16095778749108786
v -0.2892199305389873 0.8125 0.07056577987891827
v -0.18149493072538098 0.6875 0.16095778749108786
v -0.2892199305389873 0.6875 0.07056577987891824
v -0.20559946608862617 0.8125 0.18968445410804952
v -0.3133244659022326 0.8125 0.09929244649587993
v -0.20559946608862634 0.6875 0.18968445410804952
v -0.3133244659022324 0.6875 0.0992924464958799
v 0.31459347078708355 0.8124999999999999 0.09866750280063324
v 0.2914427266197369 0.8125 -0.16594671387998666
v 0.31459347078708355 0.6875 0.09866750280063319
v 0.2914427266197369 0.6875 -0.16594671387998666
v 0.2772361696086431 0.8124999999999999 0.10193584315367038
v 0.2540854254412964 0.8125 -0.1626783735269495
v 0.2772361696086431 0.6874999999999999 0.10193584315367044
v 0.2540854254412964 0.6875 -0.1626783735269495
v 0.26874999999999993 0.8125 -0.11875000000000002
v 0.26874999999999993 0.8125 -0.16875000000000004
v 0.26874999999999993 0.6875 -0.11875000000000001
v 0.26874999999999993 0.6875 -0.16875000000000004
v 0.018749999999999933 0.8125 -0.11875000000000002
v 0.018749999999999933 0.8125 -0.16875000000000007
v 0.018749999999999933 0.6875 -0.11875000000000001
v 0.018749999999999933 0.6875 -0.16875000000000007
v 0.049999999999999906 0.79375 -0.13750000000000004
v 0.04999999999999996 0.79375 -0.18125000000000002
v 0.04999999999999993 0.7062499999999999 -0.13750000000000007
v 0.04999999999999999 0.70625 -0.18125000000000002
v -0.04999999999999999 0.79375 -0.13750000000000004
v -0.04999999999999999 0.79375 -0.18125
v -0.0500000000000001 0.70625 -0.13750000000000004
v -0.050000000000000044 0.70625 -0.18125
v -0.018750000000000044 0.8124999999999999 -0.11875000000000004
v -0.01874999999999999 0.8124999999999998 -0.16875000000000007
v -0.01874999999999999 0.6874999999999999 -0.11875000000000002
v -0.018750000000000044 0.6874999999999999 -0.16875000000000007
v -0.26875000000000004 0.8124999999999999 -0.11875000000000004
v -0.26874999999999993 0.8124999999999998 -0.16875000000000007
v -0.2687499999999998 0.6874999999999999 -0.11875000000000002
v -0.26875000000000004 0.6874999999999999 -0.16875
vt 0.1171875 0.8203125
vt 0.1171875 0.8515625
vt 0.0703125 0.8515625
vt 0.0703125 0.8203125
vt 0.2890625 0.4609375
vt 0.29296875 0.4609375
vt 0.29296875 0.515625
vt 0.2890625 0.515625
vt 0.125 0.4765625
vt 0.125 0.46875
vt 0.14453125 0.46875
vt 0.14453125 0.4765625
vt 0.09375 0.4765625
vt 0.09375 0.45703125
vt 0.1015625 0.45703125
vt 0.1015625 0.4765625
vt 0.5390625 0.6015625
vt 0.55078125 0.6015625
vt 0.55078125 0.609375
vt 0.5390625 0.609375
vt 0.5546875 0.953125
vt 0.546875 0.953125
vt 0.546875 0.94140625
vt 0.5546875 0.94140625
vt 0.49609375 0.8984375
vt 0.4765625 0.8984375
vt 0.4765625 0.88671875
vt 0.49609375 0.88671875
vt 0.171875 0.50390625
vt 0.18359375 0.50390625
vt 0.18359375 0.5234375
vt 0.171875 0.5234375
vt 0.3984375 0.8828125
vt 0.3984375 0.8984375
vt 0.3671875 0.8984375
vt 0.3671875 0.8828125
vt 0.3828125 0.7890625
vt 0.3828125 0.8203125
vt 0.3671875 0.8203125
vt 0.3671875 0.7890625
vt 0.4140625 0.8515625
vt 0.4140625 0.875
vt 0.3984375 0.875
vt 0.3984375 0.8515625
vt 0.4296875 0.9296875
vt 0.4296875 0.9453125
vt 0.40625 0.9453125
vt 0.40625 0.9296875
vt 0.3203125 0.671875
vt 0.3203125 0.703125
vt 0.296875 0.703125
vt 0.296875 0.671875
vt 0.203125 0.671875
vt 0.203125 0.6953125
vt 0.171875 0.6953125
vt 0.171875 0.671875
vt 0.078125 0.6171875
vt 0.109375 0.6171875
vt 0.109375 0.6328125
vt 0.078125 0.6328125
vt 0.375 0.7109375
vt 0.359375 0.7109375
vt 0.359375 0.6796875
vt 0.375 0.6796875
vt 0.40625 1
vt 0.40625 0.984375
vt 0.4296875 0.984375
vt 0.4296875 1
vt 0.140625 0.6015625
vt 0.140625 0.578125
vt 0.15625 0.578125
vt 0.15625 0.6015625
vt 0.3203125 0.7734375
vt 0.296875 0.7734375
vt 0.296875 0.7421875
vt 0.3203125 0.7421875
vt 0.296875 0.7109375
vt 0.328125 0.7109375
vt 0.328125 0.734375
vt 0.296875 0.734375
vt 0.2578125 0.65234375
vt 0.2734375 0.65234375
vt 0.2734375 0.6953125
vt 0.2578125 0.6953125
vt 0.39453125 0.9765625
vt 0.39453125 1
vt 0.375 1
vt 0.375 0.9765625
vt 0.43359375 0.8515625
vt 0.421875 0.8515625
vt 0.421875 0.82421875
vt 0.43359375 0.82421875
vt 0.421875 0.96484375
vt 0.44921875 0.96484375
vt 0.44921875 0.9765625
vt 0.421875 0.9765625
vt 0.1875 0.44921875
vt 0.1953125 0.44921875
vt 0.1953125 0.4609375
vt 0.1875 0.4609375
vt 0.36328125 0.4609375
vt 0.3515625 0.4609375
vt 0.3515625 0.453125
vt 0.36328125 0.453125
vt 0.1484375 0.48828125
vt 0.1484375 0.515625
vt 0.140625 0.515625
vt 0.140625 0.48828125
vt 0.48828125 0.515625
vt 0.48828125 0.5234375
vt 0.4609375 0.5234375
vt 0.4609375 0.515625
vt 0.43359375 0.890625
vt 0.421875 0.890625
vt 0.421875 0.86328125
vt 0.43359375 0.86328125
vt 0.234375 0.55859375
vt 0.26171875 0.55859375
vt 0.26171875 0.5703125
vt 0.234375 0.5703125
vt 0.5390625 0.83984375
vt 0.546875 0.83984375
vt 0.546875 0.8515625
vt 0.5390625 0.8515625
vt 0.31640625 0.4609375
vt 0.3046875 0.4609375
vt 0.3046875 0.453125
vt 0.31640625 0.453125
vt 0.453125 0.49609375
vt 0.453125 0.5234375
vt 0.4453125 0.5234375
vt 0.4453125 0.49609375
vt 0.51171875 0.96875
vt 0.51171875 0.9765625
vt 0.484375 0.9765625
vt 0.484375 0.96875
vt 0.19921875 0.578125
vt 0.1875 0.578125
vt 0.1875 0.55078125
vt 0.19921875 0.55078125
vt 0.390625 0.56640625
vt 0.41796875 0.56640625
vt 0.41796875 0.578125
vt 0.390625 0.578125
vt 0.5390625 0.81640625
vt 0.546875 0.81640625
vt 0.546875 0.828125
vt 0.5390625 0.828125
vt 0.55078125 0.625
vt 0.5390625 0.625
vt 0.5390625 0.6171875
vt 0.55078125 0.6171875
vt 0.1328125 0.48828125
vt 0.1328125 0.515625
vt 0.125 0.515625
vt 0.125 0.48828125
vt 0.50390625 0.5390625
vt 0.50390625 0.546875
vt 0.4765625 0.546875
vt 0.4765625 0.5390625
vt 0.17578125 0.578125
vt 0.1640625 0.578125
vt 0.1640625 0.55078125
vt 0.17578125 0.55078125
vt 0.4296875 0.91015625
vt 0.45703125 0.91015625
vt 0.45703125 0.921875
vt 0.4296875 0.921875
vt 0.171875 0.44921875
vt 0.1796875 0.44921875
vt 0.1796875 0.4609375
vt 0.171875 0.4609375
vt 0.23046875 0.4609375
vt 0.21875 0.4609375
vt 0.21875 0.453125
vt 0.23046875 0.453125
vt 0.21875 0.48828125
vt 0.21875 0.515625
vt 0.2109375 0.515625
vt 0.2109375 0.48828125
vt 0.51171875 0.953125
vt 0.51171875 0.9609375
vt 0.484375 0.9609375
vt 0.484375 0.953125
vt 0.447265625 0.646484375
vt 0.447265625 0.6640625
vt 0.4296875 0.6640625
vt 0.4296875 0.646484375
vt 0.150390625 0.5703125
vt 0.1328125 0.5703125
vt 0.1328125 0.552734375
vt 0.150390625 0.552734375
vt 0.447265625 0.578125
vt 0.4296875 0.578125
vt 0.4296875 0.560546875
vt 0.447265625 0.560546875
vt 0.345703125 0.578125
vt 0.328125 0.578125
vt 0.328125 0.560546875
vt 0.345703125 0.560546875
vt 0.291015625 0.552734375
vt 0.291015625 0.5703125
vt 0.2734375 0.5703125
vt 0.2734375 0.552734375
vt 0.041015625 0.5625
vt 0.0234375 0.5625
vt 0.0234375 0.544921875
vt 0.041015625 0.544921875
vt 0.23828125 1
vt 0.2109375 1
vt 0.2109375 0.9609375
vt 0.23828125 0.9609375
vt 0.203125 0.77734375
vt 0.2421875 0.77734375
vt 0.2421875 0.8046875
vt 0.203125 0.8046875
vt 0.2734375 0.48828125
vt 0.28125 0.48828125
vt 0.28125 0.515625
vt 0.2734375 0.515625
vt 0.51171875 0.875
vt 0.484375 0.875
vt 0.484375 0.8671875
vt 0.51171875 0.8671875
vt 0.3125 0.515625
vt 0.3125 0.5546875
vt 0.3046875 0.5546875
vt 0.3046875 0.515625
vt 0.484375 0.765625
vt 0.484375 0.7734375
vt 0.4453125 0.7734375
vt 0.4453125 0.765625
vt 0.390625 0.48828125
vt 0.390625 0.5
vt 0.375 0.5
vt 0.375 0.48828125
vt 0.41015625 0.484375
vt 0.41015625 0.5
vt 0.3984375 0.5
vt 0.3984375 0.484375
vt 0.51171875 0.828125
vt 0.51171875 0.84375
vt 0.5 0.84375
vt 0.5 0.828125
vt 0.2421875 0.48828125
vt 0.2421875 0.5
vt 0.2265625 0.5
vt 0.2265625 0.48828125
vt 0.16015625 0.796875
vt 0.16015625 0.921875
vt 0.1484375 0.921875
vt 0.1484375 0.796875
vt 0.359375 0.8984375
vt 0.3359375 0.8984375
vt 0.3359375 0.875
vt 0.359375 0.875
vt 0.078125 0.640625
vt 0.1015625 0.640625
vt 0.1015625 0.6640625
vt 0.078125 0.6640625
vt 0.09375 0.7578125
vt 0.1015625 0.7578125
vt 0.1015625 0.78125
vt 0.09375 0.78125
vt 0.1640625 0.7890625
vt 0.140625 0.7890625
vt 0.140625 0.78125
vt 0.1640625 0.78125
vt 0.2890625 0.671875
vt 0.2890625 0.6953125
vt 0.28125 0.6953125
vt 0.28125 0.671875
vt 0.2890625 0.8125
vt 0.2890625 0.8203125
vt 0.265625 0.8203125
vt 0.265625 0.8125
vt 0.46875 0.984375
vt 0.484375 0.984375
vt 0.484375 1
vt 0.46875 1
vt 0.0390625 0.53125
vt 0.0234375 0.53125
vt 0.0234375 0.515625
vt 0.0390625 0.515625
vt 0.234375 0.59375
vt 0.234375 0.578125
vt 0.2578125 0.578125
vt 0.2578125 0.59375
vt 0.2109375 0.59375
vt 0.2109375 0.5703125
vt 0.2265625 0.5703125
vt 0.2265625 0.59375
vt 0.4375 0.7734375
vt 0.4140625 0.7734375
vt 0.4140625 0.7578125
vt 0.4375 0.7578125
vt 0.3046875 0.5625
vt 0.3203125 0.5625
vt 0.3203125 0.5859375
vt 0.3046875 0.5859375
vt 0.1015625 0.515625
vt 0.1171875 0.515625
vt 0.1171875 0.53125
vt 0.1015625 0.53125
vt 0.484375 0.921875
vt 0.46875 0.921875
vt 0.46875 0.90625
vt 0.484375 0.90625
vt 0.3046875 0.609375
vt 0.3046875 0.59375
vt 0.328125 0.59375
vt 0.328125 0.609375
vt 0.3359375 0.609375
vt 0.3359375 0.5859375
vt 0.3515625 0.5859375
vt 0.3515625 0.609375
vt 0.125 0.5859375
vt 0.1015625 0.5859375
vt 0.1015625 0.5703125
vt 0.125 0.5703125
vt 0.0546875 0.5625
vt 0.0703125 0.5625
vt 0.0703125 0.5859375
vt 0.0546875 0.5859375
vt 0.4765625 0.6640625
vt 0.4609375 0.6640625
vt 0.4609375 0.6484375
vt 0.4765625 0.6484375
vt 0.4609375 0.625
vt 0.4765625 0.625
vt 0.4765625 0.640625
vt 0.4609375 0.640625
vt 0.40625 0.671875
vt 0.4296875 0.671875
vt 0.4296875 0.6875
vt 0.40625 0.6875
vt 0.421875 0.6640625
vt 0.40625 0.6640625
vt 0.40625 0.640625
vt 0.421875 0.640625
vt 0.3828125 0.59375
vt 0.3828125 0.609375
vt 0.359375 0.609375
vt 0.359375 0.59375
vt 0.40625 0.5859375
vt 0.40625 0.609375
vt 0.390625 0.609375
vt 0.390625 0.5859375
vt 0.2890625 0.5390625
vt 0.2734375 0.5390625
vt 0.2734375 0.5234375
vt 0.2890625 0.5234375
vt 0.4609375 0.7421875
vt 0.4765625 0.7421875
vt 0.4765625 0.7578125
vt 0.4609375 0.7578125
vt 0.40625 0.78125
vt 0.4296875 0.78125
vt 0.4296875 0.796875
vt 0.40625 0.796875
vt 0.421875 0.921875
vt 0.40625 0.921875
vt 0.40625 0.8984375
vt 0.421875 0.8984375
vt 0.4140625 0.8046875
vt 0.4140625 0.8203125
vt 0.390625 0.8203125
vt 0.390625 0.8046875
vt 0.0625 0.8203125
vt 0.0625 0.84375
vt 0.046875 0.84375
vt 0.046875 0.8203125
vt 0.474609375 0.494140625
vt 0.474609375 0.5078125
vt 0.4609375 0.5078125
vt 0.4609375 0.494140625
vt 0.4296875 0.6171875
vt 0.44921875 0.6171875
vt 0.44921875 0.6328125
vt 0.4296875 0.6328125
vt 0.453125 0.953125
vt 0.4375 0.953125
vt 0.4375 0.93359375
vt 0.453125 0.93359375
vt 0.28125 0.765625
vt 0.28125 0.75
vt 0.2890625 0.75
vt 0.2890625 0.765625
vt 0.2890625 0.96875
vt 0.2890625 0.9609375
vt 0.3046875 0.9609375
vt 0.3046875 0.96875
vt 0.53125 0.8515625
vt 0.5234375 0.8515625
vt 0.5234375 0.83203125
vt 0.53125 0.83203125
vt 0.171875 0.46875
vt 0.19140625 0.46875
vt 0.19140625 0.4765625
vt 0.171875 0.4765625
vt 0.498046875 0.494140625
vt 0.498046875 0.5078125
vt 0.484375 0.5078125
vt 0.484375 0.494140625
vt 0.0390625 0.8046875
vt 0.03125 0.8046875
vt 0.03125 0.7890625
vt 0.0390625 0.7890625
vt 0.0546875 0.6875
vt 0.046875 0.6875
vt 0.046875 0.671875
vt 0.0546875 0.671875
vt 0.2109375 0.45703125
vt 0.2109375 0.4765625
vt 0.203125 0.4765625
vt 0.203125 0.45703125
vt 0.23828125 0.46875
vt 0.23828125 0.4765625
vt 0.21875 0.4765625
vt 0.21875 0.46875
vt 0.3984375 0.7890625
vt 0.3984375 0.796875
vt 0.390625 0.796875
vt 0.390625 0.7890625
vt 0.0390625 0.6328125
vt 0.0390625 0.640625
vt 0.03125 0.640625
vt 0.03125 0.6328125
vt 0.54296875 0.7109375
vt 0.54296875 0.71875
vt 0.5234375 0.71875
vt 0.5234375 0.7109375
vt 0.28125 0.45703125
vt 0.28125 0.4765625
vt 0.2734375 0.4765625
vt 0.2734375 0.45703125
vt 0.203125 0.703125
vt 0.203125 0.765625
vt 0.1875 0.765625
vt 0.1875 0.703125
vt 0.2109375 0.75
vt 0.2734375 0.75
vt 0.2734375 0.765625
vt 0.2109375 0.765625
vt 0.296875 0.8515625
vt 0.296875 0.8671875
vt 0.234375 0.8671875
vt 0.234375 0.8515625
vt 0.0859375 0.78125
vt 0.0703125 0.78125
vt 0.0703125 0.71875
vt 0.0859375 0.71875
vt 0.140625 0.859375
vt 0.140625 0.921875
vt 0.078125 0.921875
vt 0.078125 0.859375
vt 0 0.8515625
vt 0.0625 0.8515625
vt 0.0625 0.9140625
vt 0 0.9140625
vt 0.10546875 0.671875
vt 0.10546875 0.75
vt 0.09375 0.75
vt 0.09375 0.671875
vt 0.2421875 0.91015625
vt 0.3203125 0.91015625
vt 0.3203125 0.921875
vt 0.2421875 0.921875
vt 0.33203125 0.83203125
vt 0.33203125 0.84375
vt 0.265625 0.84375
vt 0.265625 0.83203125
vt 0.12890625 0.75
vt 0.1171875 0.75
vt 0.1171875 0.68359375
vt 0.12890625 0.68359375
vt 0.06640625 0.921875
vt 0.06640625 1
vt 0 1
vt 0 0.921875
vt 0.078125 0.93359375
vt 0.15625 0.93359375
vt 0.15625 1
vt 0.078125 1
vt 0.4296875 0.490234375
vt 0.4296875 0.515625
vt 0.421875 0.515625
vt 0.421875 0.490234375
vt 0.484375 0.8515625
vt 0.509765625 0.8515625
vt 0.509765625 0.859375
vt 0.484375 0.859375
vt 0.484375 0.8203125
vt 0.484375 0.828125
vt 0.4453125 0.828125
vt 0.4453125 0.8203125
vt 0.453125 0.875
vt 0.4453125 0.875
vt 0.4453125 0.8359375
vt 0.453125 0.8359375
vt 0.1796875 0.748046875
vt 0.1796875 0.7734375
vt 0.140625 0.7734375
vt 0.140625 0.748046875
vt 0.03125 0.7421875
vt 0.056640625 0.7421875
vt 0.056640625 0.78125
vt 0.03125 0.78125
vt 0.4130859375 0.5546875
vt 0.375 0.5546875
vt 0.375 0.546875
vt 0.4130859375 0.546875
vt 0.2265625 0.546875
vt 0.2265625 0.5087890625
vt 0.234375 0.5087890625
vt 0.234375 0.546875
vt 0.537109375 0.75
vt 0.537109375 0.7578125
vt 0.515625 0.7578125
vt 0.515625 0.75
vt 0.4609375 0.484375
vt 0.453125 0.484375
vt 0.453125 0.462890625
vt 0.4609375 0.462890625
vt 0.3037109375 0.953125
vt 0.265625 0.953125
vt 0.265625 0.931640625
vt 0.3037109375 0.931640625
vt 0.03125 0.734375
vt 0.03125 0.6962890625
vt 0.052734375 0.6962890625
vt 0.052734375 0.734375
vt 0.2734375 0.580078125
vt 0.2734375 0.59375
vt 0.265625 0.59375
vt 0.265625 0.580078125
vt 0.3828125 0.6796875
vt 0.396484375 0.6796875
vt 0.396484375 0.6875
vt 0.3828125 0.6875
vt 0.052734375 0.4765625
vt 0.052734375 0.484375
vt 0.03125 0.484375
vt 0.03125 0.4765625
vt 0.1640625 0.484375
vt 0.15625 0.484375
vt 0.15625 0.462890625
vt 0.1640625 0.462890625
vt 0.341796875 0.533203125
vt 0.341796875 0.546875
vt 0.3203125 0.546875
vt 0.3203125 0.533203125
vt 0.453125 0.712890625
vt 0.466796875 0.712890625
vt 0.466796875 0.734375
vt 0.453125 0.734375
vt 0.484375 0.640625
vt 0.484375 0.6171875
vt 0.4931640625 0.6171875
vt 0.4931640625 0.640625
vt 0.515625 1
vt 0.4921875 1
vt 0.4921875 0.9912109375
vt 0.515625 0.9912109375
vt 0.3603515625 0.4921875
vt 0.3515625 0.4921875
vt 0.3515625 0.47265625
vt 0.3603515625 0.47265625
vt 0.52734375 0.6083984375
vt 0.52734375 0.6171875
vt 0.5078125 0.6171875
vt 0.5078125 0.6083984375
vt 0.3984375 0.671875
vt 0.375 0.671875
vt 0.375 0.65234375
vt 0.3984375 0.65234375
vt 0.375 0.9296875
vt 0.375 0.90625
vt 0.39453125 0.90625
vt 0.39453125 0.9296875
vt 0.2421875 0.671875
vt 0.2421875 0.6484375
vt 0.25 0.6484375
vt 0.25 0.671875
vt 0.53125 0.8984375
vt 0.5078125 0.8984375
vt 0.5078125 0.890625
vt 0.53125 0.890625
vt 0.4765625 0.484375
vt 0.46875 0.484375
vt 0.46875 0.462890625
vt 0.4765625 0.462890625
vt 0.537109375 0.546875
vt 0.537109375 0.5546875
vt 0.515625 0.5546875
vt 0.515625 0.546875
vt 0.3046875 0.6640625
vt 0.28125 0.6640625
vt 0.28125 0.642578125
vt 0.3046875 0.642578125
vt 0.3125 0.6640625
vt 0.3125 0.640625
vt 0.333984375 0.640625
vt 0.333984375 0.6640625
vt 0.359375 0.6328125
vt 0.3046875 0.6328125
vt 0.3046875 0.6240234375
vt 0.359375 0.6240234375
vt 0.28125 0.6328125
vt 0.28125 0.578125
vt 0.2900390625 0.578125
vt 0.2900390625 0.6328125
vt 0.513671875 0.9130859375
vt 0.513671875 0.921875
vt 0.4921875 0.921875
vt 0.4921875 0.9130859375
vt 0.0712890625 0.5078125
vt 0.0625 0.5078125
vt 0.0625 0.486328125
vt 0.0712890625 0.486328125
vt 0.2578125 0.8359375
vt 0.203125 0.8359375
vt 0.203125 0.814453125
vt 0.2578125 0.814453125
vt 0 0.8046875
vt 0 0.75
vt 0.021484375 0.75
vt 0.021484375 0.8046875
vt 0.4453125 0.5859375
vt 0.4833984375 0.5859375
vt 0.4833984375 0.59375
vt 0.4453125 0.59375
vt 0.25 0.5087890625
vt 0.25 0.546875
vt 0.2421875 0.546875
vt 0.2421875 0.5087890625
vt 0.4921875 0.484375
vt 0.484375 0.484375
vt 0.484375 0.462890625
vt 0.4921875 0.462890625
vt 0.544921875 0.9921875
vt 0.544921875 1
vt 0.5234375 1
vt 0.5234375 0.9921875
vt 0.021484375 0.7041015625
vt 0.021484375 0.7421875
vt 0 0.7421875
vt 0 0.7041015625
vt 0.2421875 0.876953125
vt 0.2802734375 0.876953125
vt 0.2802734375 0.8984375
vt 0.2421875 0.8984375
vt 0.25 0.4609375
vt 0.263671875 0.4609375
vt 0.263671875 0.46875
vt 0.25 0.46875
vt 0.0546875 0.455078125
vt 0.0546875 0.46875
vt 0.046875 0.46875
vt 0.046875 0.455078125
vt 0.515625 0.5078125
vt 0.5078125 0.5078125
vt 0.5078125 0.486328125
vt 0.515625 0.486328125
vt 0.021484375 0.4765625
vt 0.021484375 0.484375
vt 0 0.484375
vt 0 0.4765625
vt 0.466796875 0.533203125
vt 0.466796875 0.546875
vt 0.4453125 0.546875
vt 0.4453125 0.533203125
vt 0.421875 0.525390625
vt 0.435546875 0.525390625
vt 0.435546875 0.546875
vt 0.421875 0.546875
vt 0.3125 0.484375
vt 0.3125 0.5078125
vt 0.3046875 0.5078125
vt 0.3046875 0.484375
vt 0.171875 0.484375
vt 0.1953125 0.484375
vt 0.1953125 0.4921875
vt 0.171875 0.4921875
vt 0.537109375 0.9375
vt 0.537109375 0.9453125
vt 0.515625 0.9453125
vt 0.515625 0.9375
vt 0.4453125 0.484375
vt 0.4375 0.484375
vt 0.4375 0.462890625
vt 0.4453125 0.462890625
vt 0.365234375 0.640625
vt 0.365234375 0.6640625
vt 0.34375 0.6640625
vt 0.34375 0.640625
vt 0 0.619140625
vt 0.0234375 0.619140625
vt 0.0234375 0.640625
vt 0 0.640625
vt 0.5166015625 0.6669921875
vt 0.5166015625 0.6875
vt 0.5078125 0.6875
vt 0.5078125 0.6669921875
vt 0.5078125 0.8115234375
vt 0.5283203125 0.8115234375
vt 0.5283203125 0.8203125
vt 0.5078125 0.8203125
vt 0.541015625 0.9208984375
vt 0.541015625 0.9296875
vt 0.5234375 0.9296875
vt 0.5234375 0.9208984375
vt 0.5322265625 0.8828125
vt 0.5234375 0.8828125
vt 0.5234375 0.865234375
vt 0.5322265625 0.865234375
vt 0.376953125 0.5654296875
vt 0.376953125 0.5859375
vt 0.359375 0.5859375
vt 0.359375 0.5654296875
vt 0.4140625 0.591796875
vt 0.4345703125 0.591796875
vt 0.4345703125 0.609375
vt 0.4140625 0.609375
vt 0.0400390625 0.5703125
vt 0.0400390625 0.625
vt 0.03125 0.625
vt 0.03125 0.5703125
vt 0.3671875 0.6240234375
vt 0.421875 0.6240234375
vt 0.421875 0.6328125
vt 0.3671875 0.6328125
vt 0.513671875 0.7724609375
vt 0.513671875 0.78125
vt 0.4921875 0.78125
vt 0.4921875 0.7724609375
vt 0.0947265625 0.5078125
vt 0.0859375 0.5078125
vt 0.0859375 0.486328125
vt 0.0947265625 0.486328125
vt 0.130859375 0.7578125
vt 0.130859375 0.8125
vt 0.109375 0.8125
vt 0.109375 0.7578125
vt 0.046875 0.791015625
vt 0.1015625 0.791015625
vt 0.1015625 0.8125
vt 0.046875 0.8125
vt 0.25 0.7802734375
vt 0.287109375 0.7802734375
vt 0.287109375 0.8046875
vt 0.25 0.8046875
vt 0.2744140625 0.962890625
vt 0.2744140625 1
vt 0.25 1
vt 0.25 0.962890625
vt 0.5478515625 0.640625
vt 0.5234375 0.640625
vt 0.5234375 0.634765625
vt 0.5478515625 0.634765625
vt 0.396484375 0.4521484375
vt 0.396484375 0.4765625
vt 0.390625 0.4765625
vt 0.390625 0.4521484375
vt 0.341796875 0.486328125
vt 0.341796875 0.5234375
vt 0.3359375 0.5234375
vt 0.3359375 0.486328125
vt 0.4765625 0.712890625
vt 0.513671875 0.712890625
vt 0.513671875 0.71875
vt 0.4765625 0.71875
vt 0.203125 0.96875
vt 0.203125 1
vt 0.1640625 1
vt 0.1640625 0.96875
vt 0.171875 0.875
vt 0.203125 0.875
vt 0.203125 0.9140625
vt 0.171875 0.9140625
vt 0.4453125 0.6953125
vt 0.4453125 0.734375
vt 0.4375 0.734375
vt 0.4375 0.6953125
vt 0.453125 0.75
vt 0.4140625 0.75
vt 0.4140625 0.7421875
vt 0.453125 0.7421875
vt 0.1796875 0.703125
vt 0.1796875 0.734375
vt 0.171875 0.734375
vt 0.171875 0.703125
vt 0.453125 0.6953125
vt 0.484375 0.6953125
vt 0.484375 0.703125
vt 0.453125 0.703125
vt 0.3359375 0.9814453125
vt 0.3671875 0.9814453125
vt 0.3671875 1
vt 0.3359375 1
vt 0.0654296875 0.6328125
vt 0.0654296875 0.6640625
vt 0.046875 0.6640625
vt 0.046875 0.6328125
vt 0.3232421875 0.4765625
vt 0.3046875 0.4765625
vt 0.3046875 0.46875
vt 0.3232421875 0.46875
vt 0.3828125 0.4580078125
vt 0.3828125 0.4765625
vt 0.375 0.4765625
vt 0.375 0.4580078125
vt 0.3828125 0.5078125
vt 0.3828125 0.5390625
vt 0.375 0.5390625
vt 0.375 0.5078125
vt 0.4609375 0.5703125
vt 0.4921875 0.5703125
vt 0.4921875 0.578125
vt 0.4609375 0.578125
vt 0.234375 0.6044921875
vt 0.265625 0.6044921875
vt 0.265625 0.6171875
vt 0.234375 0.6171875
vt 0.2001953125 0.5859375
vt 0.2001953125 0.6171875
vt 0.1875 0.6171875
vt 0.1875 0.5859375
vt 0.5439453125 0.6875
vt 0.53125 0.6875
vt 0.53125 0.6796875
vt 0.5439453125 0.6796875
vt 0.546875 0.8935546875
vt 0.546875 0.90625
vt 0.5390625 0.90625
vt 0.5390625 0.8935546875
vt 0.3984375 0.5078125
vt 0.3984375 0.5390625
vt 0.390625 0.5390625
vt 0.390625 0.5078125
vt 0.4609375 0.5546875
vt 0.4921875 0.5546875
vt 0.4921875 0.5625
vt 0.4609375 0.5625
vt 0.0673828125 0.59375
vt 0.0673828125 0.625
vt 0.0546875 0.625
vt 0.0546875 0.59375
vt 0.375 0.7451171875
vt 0.40625 0.7451171875
vt 0.40625 0.7578125
vt 0.375 0.7578125
vt 0.1484375 0.4482421875
vt 0.1484375 0.4609375
vt 0.140625 0.4609375
vt 0.140625 0.4482421875
vt 0.5439453125 0.703125
vt 0.53125 0.703125
vt 0.53125 0.6953125
vt 0.5439453125 0.6953125
vt 0.0546875 0.4921875
vt 0.0546875 0.5234375
vt 0.046875 0.5234375
vt 0.046875 0.4921875
vt 0.46875 0.6796875
vt 0.5 0.6796875
vt 0.5 0.6875
vt 0.46875 0.6875
vt 0.2822265625 0.705078125
vt 0.2822265625 0.7421875
vt 0.2578125 0.7421875
vt 0.2578125 0.705078125
vt 0.2109375 0.7177734375
vt 0.248046875 0.7177734375
vt 0.248046875 0.7421875
vt 0.2109375 0.7421875
vt 0.412109375 0.4521484375
vt 0.412109375 0.4765625
vt 0.40625 0.4765625
vt 0.40625 0.4521484375
vt 0.5478515625 0.578125
vt 0.5234375 0.578125
vt 0.5234375 0.572265625
vt 0.5478515625 0.572265625
vt 0.326171875 0.486328125
vt 0.326171875 0.5234375
vt 0.3203125 0.5234375
vt 0.3203125 0.486328125
vt 0.4765625 0.728515625
vt 0.513671875 0.728515625
vt 0.513671875 0.734375
vt 0.4765625 0.734375
vt 0.0390625 0.8125
vt 0.0390625 0.84375
vt 0 0.84375
vt 0 0.8125
vt 0.171875 0.921875
vt 0.203125 0.921875
vt 0.203125 0.9609375
vt 0.171875 0.9609375
vt 0.21875 0.5234375
vt 0.21875 0.5625
vt 0.2109375 0.5625
vt 0.2109375 0.5234375
vt 0.4609375 0.8125
vt 0.421875 0.8125
vt 0.421875 0.8046875
vt 0.4609375 0.8046875
vt 0.265625 0.515625
vt 0.265625 0.546875
vt 0.2578125 0.546875
vt 0.2578125 0.515625
vt 0.15625 0.53125
vt 0.1875 0.53125
vt 0.1875 0.5390625
vt 0.15625 0.5390625
vt 0.3466796875 0.671875
vt 0.3466796875 0.703125
vt 0.328125 0.703125
vt 0.328125 0.671875
vt 0.328125 0.7705078125
vt 0.359375 0.7705078125
vt 0.359375 0.7890625
vt 0.328125 0.7890625
vt 0.5234375 0.6484375
vt 0.5419921875 0.6484375
vt 0.5419921875 0.65625
vt 0.5234375 0.65625
vt 0.3359375 0.4765625
vt 0.3359375 0.4580078125
vt 0.34375 0.4580078125
vt 0.34375 0.4765625
vt 0.4609375 0.8359375
vt 0.4921875 0.8359375
vt 0.4921875 0.84375
vt 0.4609375 0.84375
vt 0.203125 0.5078125
vt 0.203125 0.5390625
vt 0.1953125 0.5390625
vt 0.1953125 0.5078125
vt 0.1298828125 0.59375
vt 0.1298828125 0.625
vt 0.1171875 0.625
vt 0.1171875 0.59375
vt 0.3828125 0.9560546875
vt 0.4140625 0.9560546875
vt 0.4140625 0.96875
vt 0.3828125 0.96875
vt 0.1171875 0.4560546875
vt 0.1171875 0.46875
vt 0.109375 0.46875
vt 0.109375 0.4560546875
vt 0.5439453125 0.671875
vt 0.53125 0.671875
vt 0.53125 0.6640625
vt 0.5439453125 0.6640625
vt 0.0078125 0.4921875
vt 0.0078125 0.5234375
vt 0 0.5234375
vt 0 0.4921875
vt 0.46875 0.7890625
vt 0.5 0.7890625
vt 0.5 0.796875
vt 0.46875 0.796875
vt 0.3828125 0.8310546875
vt 0.4140625 0.8310546875
vt 0.4140625 0.84375
vt 0.3828125 0.84375
vt 0.1767578125 0.5859375
vt 0.1767578125 0.6171875
vt 0.1640625 0.6171875
vt 0.1640625 0.5859375
vt 0.5439453125 0.59375
vt 0.53125 0.59375
vt 0.53125 0.5859375
vt 0.5439453125 0.5859375
vt 0.1328125 0.4482421875
vt 0.1328125 0.4609375
vt 0.125 0.4609375
vt 0.125 0.4482421875
vt 0.4140625 0.5078125
vt 0.4140625 0.5390625
vt 0.40625 0.5390625
vt 0.40625 0.5078125
vt 0.46875 0.8046875
vt 0.5 0.8046875
vt 0.5 0.8125
vt 0.46875 0.8125
vt 0.513671875 0.6259765625
vt 0.513671875 0.65625
vt 0.5078125 0.65625
vt 0.5078125 0.6259765625
vt 0.5078125 0.791015625
vt 0.5380859375 0.791015625
vt 0.5380859375 0.796875
vt 0.5078125 0.796875
vt 0.4140625 0.884765625
vt 0.4140625 0.890625
vt 0.40625 0.890625
vt 0.40625 0.884765625
vt 0.560546875 0.9296875
vt 0.5546875 0.9296875
vt 0.5546875 0.921875
vt 0.560546875 0.921875
vt 0.1640625 0.4931640625
vt 0.1640625 0.5234375
vt 0.15625 0.5234375
vt 0.15625 0.4931640625
vt 0.0625 0.515625
vt 0.0927734375 0.515625
vt 0.0927734375 0.5234375
vt 0.0625 0.5234375
vt 0.4931640625 0.6484375
vt 0.4931640625 0.671875
vt 0.484375 0.671875
vt 0.484375 0.6484375
vt 0.484375 0.7490234375
vt 0.5078125 0.7490234375
vt 0.5078125 0.7578125
vt 0.484375 0.7578125
vt 0.42578125 0.7021484375
vt 0.42578125 0.7109375
vt 0.3828125 0.7109375
vt 0.3828125 0.7021484375
vt 0.0869140625 0.609375
vt 0.078125 0.609375
vt 0.078125 0.56640625
vt 0.0869140625 0.56640625
vt 0.25390625 0.9296875
vt 0.25390625 0.953125
vt 0.2109375 0.953125
vt 0.2109375 0.9296875
vt 0.2109375 0.87890625
vt 0.234375 0.87890625
vt 0.234375 0.921875
vt 0.2109375 0.921875
vt 0.0966796875 0.4296875
vt 0.0966796875 0.4453125
vt 0.09375 0.4453125
vt 0.09375 0.4296875
vt 0.5546875 0.9111328125
vt 0.5703125 0.9111328125
vt 0.5703125 0.9140625
vt 0.5546875 0.9140625
vt 0.578125 0.8798828125
vt 0.578125 0.8828125
vt 0.546875 0.8828125
vt 0.546875 0.8798828125
vt 0.1591796875 0.453125
vt 0.15625 0.453125
vt 0.15625 0.421875
vt 0.1591796875 0.421875
vt 0.375 0.828125
vt 0.375 0.84375
vt 0.34375 0.84375
vt 0.34375 0.828125
vt 0.125 0.8203125
vt 0.140625 0.8203125
vt 0.140625 0.8515625
vt 0.125 0.8515625
vt 0.5087890625 0.4609375
vt 0.5087890625 0.4765625
vt 0.5 0.4765625
vt 0.5 0.4609375
vt 0.5234375 0.5146484375
vt 0.5390625 0.5146484375
vt 0.5390625 0.5234375
vt 0.5234375 0.5234375
vt 0.42578125 0.7255859375
vt 0.42578125 0.734375
vt 0.3828125 0.734375
vt 0.3828125 0.7255859375
vt 0.0087890625 0.609375
vt 0 0.609375
vt 0 0.56640625
vt 0.0087890625 0.56640625
vt 0.34765625 0.8515625
vt 0.34765625 0.8671875
vt 0.3046875 0.8671875
vt 0.3046875 0.8515625
vt 0 0.65234375
vt 0.015625 0.65234375
vt 0.015625 0.6953125
vt 0 0.6953125
vt 0.2265625 0.6015625
vt 0.2265625 0.6328125
vt 0.2109375 0.6328125
vt 0.2109375 0.6015625
vt 0.3671875 0.765625
vt 0.3984375 0.765625
vt 0.3984375 0.78125
vt 0.3671875 0.78125
vt 0.1015625 0.54296875
vt 0.1171875 0.54296875
vt 0.1171875 0.5625
vt 0.1015625 0.5625
vt 0.4375 1
vt 0.4375 0.984375
vt 0.45703125 0.984375
vt 0.45703125 1
vt 0.328125 0.80078125
vt 0.359375 0.80078125
vt 0.359375 0.8203125
vt 0.328125 0.8203125
vt 0.23046875 0.640625
vt 0.23046875 0.671875
vt 0.2109375 0.671875
vt 0.2109375 0.640625
vt 0.533203125 0.765625
vt 0.533203125 0.78125
vt 0.5234375 0.78125
vt 0.5234375 0.765625
vt 0.5234375 0.732421875
vt 0.5390625 0.732421875
vt 0.5390625 0.7421875
vt 0.5234375 0.7421875
vt 0.0234375 0.4560546875
vt 0.033203125 0.4560546875
vt 0.033203125 0.46875
vt 0.0234375 0.46875
vt 0 0.46875
vt 0 0.458984375
vt 0.0126953125 0.458984375
vt 0.0126953125 0.46875
vt 0.4921875 0.9326171875
vt 0.5078125 0.9326171875
vt 0.5078125 0.9453125
vt 0.4921875 0.9453125
vt 0.0283203125 0.4921875
vt 0.0283203125 0.5078125
vt 0.015625 0.5078125
vt 0.015625 0.4921875
vt 0.109375 0.59375
vt 0.109375 0.609375
vt 0.1015625 0.609375
vt 0.1015625 0.59375
vt 0.3828125 0.9375
vt 0.3984375 0.9375
vt 0.3984375 0.9453125
vt 0.3828125 0.9453125
vt 0.55859375 0.7265625
vt 0.55859375 0.734375
vt 0.546875 0.734375
vt 0.546875 0.7265625
vt 0.5546875 0.7578125
vt 0.546875 0.7578125
vt 0.546875 0.74609375
vt 0.5546875 0.74609375
vt 0.51171875 0.515625
vt 0.51171875 0.53125
vt 0.5 0.53125
vt 0.5 0.515625
vt 0.5 0.56640625
vt 0.515625 0.56640625
vt 0.515625 0.578125
vt 0.5 0.578125
vt 0.15625 0.6484375
vt 0.15625 0.6875
vt 0.140625 0.6875
vt 0.140625 0.6484375
vt 0.3125 0.9296875
vt 0.3515625 0.9296875
vt 0.3515625 0.9453125
vt 0.3125 0.9453125
vt 0.45703125 0.78125
vt 0.45703125 0.796875
vt 0.4375 0.796875
vt 0.4375 0.78125
vt 0.015625 0.5546875
vt 0 0.5546875
vt 0 0.53515625
vt 0.015625 0.53515625
vt 0.08203125 0.671875
vt 0.08203125 0.7109375
vt 0.0625 0.7109375
vt 0.0625 0.671875
vt 0.2890625 0.87890625
vt 0.328125 0.87890625
vt 0.328125 0.8984375
vt 0.2890625 0.8984375
vt 0.3125 0.953125
vt 0.3515625 0.953125
vt 0.3515625 0.96875
vt 0.3125 0.96875
vt 0.0390625 0.6484375
vt 0.0390625 0.6875
vt 0.0234375 0.6875
vt 0.0234375 0.6484375
vt 0.0703125 0.5546875
vt 0.0546875 0.5546875
vt 0.0546875 0.53515625
vt 0.0703125 0.53515625
vt 0.45703125 0.671875
vt 0.45703125 0.6875
vt 0.4375 0.6875
vt 0.4375 0.671875
vt 0.16015625 0.6953125
vt 0.16015625 0.734375
vt 0.140625 0.734375
vt 0.140625 0.6953125
vt 0.2890625 0.98046875
vt 0.328125 0.98046875
vt 0.328125 1
vt 0.2890625 1
vt 0.1328125 0.6328125
vt 0.1328125 0.671875
vt 0.1171875 0.671875
vt 0.1171875 0.6328125
vt 0.328125 0.90625
vt 0.3671875 0.90625
vt 0.3671875 0.921875
vt 0.328125 0.921875
vt 0.46484375 0.8828125
vt 0.46484375 0.8984375
vt 0.4453125 0.8984375
vt 0.4453125 0.8828125
vt 0.09375 0.5546875
vt 0.078125 0.5546875
vt 0.078125 0.53515625
vt 0.09375 0.53515625
vt 0.31640625 0.78125
vt 0.31640625 0.8203125
vt 0.296875 0.8203125
vt 0.296875 0.78125
vt 0.2109375 0.68359375
vt 0.25 0.68359375
vt 0.25 0.703125
vt 0.2109375 0.703125
vt 0.478515625 0.9296875
vt 0.478515625 0.9453125
vt 0.4609375 0.9453125
vt 0.4609375 0.9296875
vt 0.4609375 0.958984375
vt 0.4765625 0.958984375
vt 0.4765625 0.9765625
vt 0.4609375 0.9765625
vt 0.2939453125 0.435546875
vt 0.2939453125 0.453125
vt 0.2890625 0.453125
vt 0.2890625 0.435546875
vt 0.564453125 0.5625
vt 0.546875 0.5625
vt 0.546875 0.5576171875
vt 0.564453125 0.5576171875
vt 0.5439453125 0.4375
vt 0.5439453125 0.453125
vt 0.5390625 0.453125
vt 0.5390625 0.4375
vt 0.546875 0.4638671875
vt 0.5625 0.4638671875
vt 0.5625 0.46875
vt 0.546875 0.46875
vt 0.427734375 0.453125
vt 0.427734375 0.4765625
vt 0.421875 0.4765625
vt 0.421875 0.453125
vt 0.5234375 0.533203125
vt 0.546875 0.533203125
vt 0.546875 0.5390625
vt 0.5234375 0.5390625
vt 0.4970703125 0.603515625
vt 0.4970703125 0.609375
vt 0.4453125 0.609375
vt 0.4453125 0.603515625
vt 0.365234375 0.5546875
vt 0.359375 0.5546875
vt 0.359375 0.5029296875
vt 0.365234375 0.5029296875
vt 0.2236328125 0.84375
vt 0.2236328125 0.8671875
vt 0.171875 0.8671875
vt 0.171875 0.84375
vt 0.171875 0.7841796875
vt 0.1953125 0.7841796875
vt 0.1953125 0.8359375
vt 0.171875 0.8359375
vt 0.369140625 0.71875
vt 0.369140625 0.734375
vt 0.3359375 0.734375
vt 0.3359375 0.71875
vt 0.1875 0.630859375
vt 0.203125 0.630859375
vt 0.203125 0.6640625
vt 0.1875 0.6640625
vt 0.0830078125 0.443359375
vt 0.0830078125 0.4765625
vt 0.078125 0.4765625
vt 0.078125 0.443359375
vt 0.556640625 0.96875
vt 0.5234375 0.96875
vt 0.5234375 0.9638671875
vt 0.556640625 0.9638671875
vt 0.5126953125 0.4375
vt 0.5126953125 0.453125
vt 0.5078125 0.453125
vt 0.5078125 0.4375
vt 0.546875 0.4951171875
vt 0.5625 0.4951171875
vt 0.5625 0.5
vt 0.546875 0.5
vt 0.4609375 0.857421875
vt 0.4765625 0.857421875
vt 0.4765625 0.875
vt 0.4609375 0.875
vt 0.142578125 0.5234375
vt 0.142578125 0.5390625
vt 0.125 0.5390625
vt 0.125 0.5234375
vt 0.455078125 0.453125
vt 0.4375 0.453125
vt 0.4375 0.4482421875
vt 0.455078125 0.4482421875
vt 0.4736328125 0.435546875
vt 0.4736328125 0.453125
vt 0.46875 0.453125
vt 0.46875 0.435546875
vt 0.5283203125 0.4375
vt 0.5283203125 0.453125
vt 0.5234375 0.453125
vt 0.5234375 0.4375
vt 0.546875 0.4794921875
vt 0.5625 0.4794921875
vt 0.5625 0.484375
vt 0.546875 0.484375
vt 0.1640625 0.630859375
vt 0.1796875 0.630859375
vt 0.1796875 0.6640625
vt 0.1640625 0.6640625
vt 0.361328125 0.7421875
vt 0.361328125 0.7578125
vt 0.328125 0.7578125
vt 0.328125 0.7421875
vt 0.556640625 0.984375
vt 0.5234375 0.984375
vt 0.5234375 0.9794921875
vt 0.556640625 0.9794921875
vt 0.0673828125 0.443359375
vt 0.0673828125 0.4765625
vt 0.0625 0.4765625
vt 0.0625 0.443359375
vt 0.5517578125 0.5078125
vt 0.5517578125 0.5234375
vt 0.546875 0.5234375
vt 0.546875 0.5078125
vt 0.484375 0.4482421875
vt 0.5 0.4482421875
vt 0.5 0.453125
vt 0.484375 0.453125
vt 0.552734375 0.765625
vt 0.552734375 0.78125
vt 0.546875 0.78125
vt 0.546875 0.765625
vt 0.546875 0.861328125
vt 0.5625 0.861328125
vt 0.5625 0.8671875
vt 0.546875 0.8671875
vt 0.5234375 0.697265625
vt 0.5234375 0.703125
vt 0.4921875 0.703125
vt 0.4921875 0.697265625
vt 0.263671875 0.5078125
vt 0.2578125 0.5078125
vt 0.2578125 0.4765625
vt 0.263671875 0.4765625
vt 0.390625 0.8515625
vt 0.390625 0.8671875
vt 0.359375 0.8671875
vt 0.359375 0.8515625
vt 0.359375 0.9375
vt 0.375 0.9375
vt 0.375 0.96875
vt 0.359375 0.96875
vt 0.044921875 0.4345703125
vt 0.044921875 0.4453125
vt 0.0390625 0.4453125
vt 0.0390625 0.4345703125
vt 0.015625 0.439453125
vt 0.0263671875 0.439453125
vt 0.0263671875 0.4453125
vt 0.015625 0.4453125
vt 0.5673828125 0.994140625
vt 0.5673828125 1
vt 0.5546875 1
vt 0.5546875 0.994140625
vt 0.005859375 0.4453125
vt 0 0.4453125
vt 0 0.4326171875
vt 0.005859375 0.4326171875
vt 0.5361328125 0.4658203125
vt 0.5361328125 0.4765625
vt 0.5234375 0.4765625
vt 0.5234375 0.4658203125
vt 0.5234375 0.4873046875
vt 0.5341796875 0.4873046875
vt 0.5341796875 0.5
vt 0.5234375 0.5
vt 0.552734375 0.7890625
vt 0.552734375 0.8046875
vt 0.546875 0.8046875
vt 0.546875 0.7890625
vt 0.2421875 0.447265625
vt 0.2578125 0.447265625
vt 0.2578125 0.453125
vt 0.2421875 0.453125
vt 0.5234375 0.587890625
vt 0.5234375 0.59375
vt 0.4921875 0.59375
vt 0.4921875 0.587890625
vt 0.115234375 0.5078125
vt 0.109375 0.5078125
vt 0.109375 0.4765625
vt 0.115234375 0.4765625
vt 0.2734375 0.625
vt 0.2734375 0.640625
vt 0.2421875 0.640625
vt 0.2421875 0.625
vt 0.140625 0.609375
vt 0.15625 0.609375
vt 0.15625 0.640625
vt 0.140625 0.640625
vn 0.9911338814021277 0.10851759448139797 -0.07666525174239086
vn 0.9484923939409818 -0.09969050991137762 0.3007058045161668
vn 0.9911558397834737 0.13160486617622497 -0.01703703207296428
vn -0.9911558397834735 -0.13160486617622535 0.017037032072964187
vn -0.12833096174095382 0.9832519165279369 0.1294095549130003
vn 0.1283309617409514 -0.9832519165279369 -0.12940955491300377
vn 0.033782621593941006 -0.1260786573646698 0.9914448580911411
vn -0.03378262159394037 0.12607865736467028 -0.9914448580911411
vn 0.21643961393810324 1.1102230246251565e-16 -0.9762960071199334
vn -0.21643961393810313 0 0.9762960071199334
vn -2.844946500601963e-15 1 5.5511151231257815e-17
vn -7.494005416219805e-16 -1 2.775557561562891e-16
vn 0.9762960071199335 1.942890293094024e-16 0.2164396139381025
vn -0.9762960071199333 4.718447854656914e-16 -0.2164396139381032
vn -0.2164396139381031 0 -0.9762960071199334
vn 0.21643961393810315 -5.551115123125783e-17 0.9762960071199334
vn -6.800116025829082e-16 1 9.714451465470117e-17
vn 6.10622663543836e-16 -1 -6.938893903907227e-17
vn -0.9762960071199333 -1.6653345369377343e-16 0.2164396139381031
vn 0.9762960071199333 -1.1102230246251563e-16 -0.21643961393810307
vn -2.1510571102112408e-16 -0.02617694830787308 -0.9996573249755574
vn 1.3791051634015616e-16 -0.04361938736533567 0.9990482215818578
vn 1 -2.914335439641036e-16 -1.1379786002407855e-15
vn -1 3.469446951953614e-16 1.1431827706687159e-15
vn 1.6930901125533637e-15 0.9975640502598243 0.06975647374412625
vn -1.6514567491299204e-15 -0.9975640502598244 -0.06975647374412401
vn -4.4560709289154245e-17 -0.06975647374412525 0.9975640502598244
vn 2.515349040166371e-17 0.06975647374412529 -0.9975640502598244
vn 1 -2.498001805406602e-16 -1.177877240188252e-15
vn -1 2.775557561562892e-17 -2.6714741530042834e-16
vn -1.8735013540549517e-15 0.9975640502598243 0.06975647374412623
vn 1.7069679003611782e-15 -0.9975640502598244 -0.069756473744124
vn 8.25294693695966e-16 -0.06975647374412523 0.9975640502598243
vn 2.49366499671666e-16 0.06975647374412529 -0.9975640502598243
vn 1 2.7755575615628907e-17 -1.040834085586084e-17
vn -1 -1.3877787807814454e-16 2.51534904016637e-16
vn 1.7069679003611782e-15 0.9975640502598243 0.06975647374412636
vn -1.734723475976807e-15 -0.9975640502598244 -0.06975647374412394
vn -5.4860629927766537e-17 -0.06975647374412529 0.9975640502598244
vn -8.577123386532826e-16 0.069756473744125 -0.9975640502598243
vn 1 1.8041124150158794e-16 -5.707240235963695e-16
vn -1 -1.2490009027033009e-16 -3.989863994746656e-17
vn -1.8041124150158794e-15 0.9975640502598242 0.06975647374412627
vn 1.831867990631508e-15 -0.9975640502598243 -0.06975647374412393
vn -8.18572640226556e-17 -0.06975647374412529 0.9975640502598244
vn 1.650155706522938e-16 0.06975647374412532 -0.9975640502598244
vn 4.718447854656915e-16 0.9996573249755575 0.026176948307871775
vn -3.079134169858833e-16 0.026176948307873545 -0.9996573249755574
vn 0.0034168568231931337 0.9996573238284532 0.025953034612254414
vn -0.1304814783177409 0.02617690116805914 -0.991105117362056
vn -0.004545607172721607 0.9996573245748746 0.025779272279006137
vn 0.1735886318750928 0.02617690696927668 -0.9844702923020358
vn 0.7660444431189782 -1.4918621893400543e-16 0.6427876096865394
vn -0.7660444431189781 6.938893903907228e-17 -0.6427876096865394
vn 1.942890293094024e-16 1 2.0816681711721685e-16
vn -2.498001805406602e-16 -1 -2.220446049250313e-16
vn -0.6427876096865383 6.938893903907228e-17 0.7660444431189791
vn 0.6427876096865389 -2.7755575615628914e-17 -0.7660444431189783
vn 0.9848077530122081 6.938893903907227e-17 -0.17364817766692975
vn -0.9848077530122082 -4.163336342344338e-17 0.1736481776669302
vn 0.1736481776669305 5.551115123125783e-17 0.984807753012208
vn -0.1736481776669304 -5.551115123125784e-17 -0.9848077530122081
vn 1 -1.3877787807814454e-17 -6.938893903907227e-17
vn 0.9935718556765875 2.775557561562891e-16 0.11320321376790668
vn -0.9935718556765876 -2.7755575615628914e-16 -0.11320321376790614
vn 1.5543122344752188e-15 1 -6.938893903907227e-17
vn -1.5959455978986621e-15 -1 5.5511151231257815e-17
vn -0.11320321376790686 -6.938893903907228e-17 0.9935718556765875
vn 0.11320321376790629 1.5265566588595902e-16 -0.9935718556765876
vn -0.9483236552061992 -0.027654923006277234 -0.316097216390576
vn 0.9483236552061995 0.027654923006276484 0.3160972163905756
vn -8.326672684688672e-17 0.9961946980917455 -0.08715574274765826
vn 7.632783294297949e-16 -0.9961946980917455 0.0871557427476577
vn -0.31730465640509187 0.08265185253466965 0.9447149973914006
vn 0.3173046564050925 -0.08265185253467011 -0.9447149973914003
vn -0.9483236442065176 -0.02765489012490112 -0.31609725226747887
vn 0.9483236442065175 0.02765489012490112 0.3160972522674786
vn -0.06597129756300907 0.991609750586669 0.11116604895064397
vn 0.06597129756301046 -0.9916097505866687 -0.1111660489506463
vn -0.31037083261273585 -0.12627473854110388 0.9421914012925681
vn 0.3103708326127364 0.1262747385411036 -0.942191401292568
vn 0.9978222899502913 -0.02765492300627575 -0.05988224204114047
vn -0.9978222899502913 0.02765492300627638 0.059882242041140586
vn 0.022557566113149848 0.9961946980917455 -0.08418598282936933
vn -0.02255756611315053 -0.9961946980917457 0.08418598282936932
vn 0.06198252890458539 0.08265185253467056 0.9946491026403127
vn -0.06198252890458477 -0.08265185253467033 -0.9946491026403129
vn 0.9978222886110404 -0.027654890124900945 -0.059882279542494296
vn -0.9978222886110404 0.02765489012490134 0.059882279542494775
vn 0.03495148947268582 0.991609750586669 0.12445278592737476
vn -0.034951489472685796 -0.991609750586669 -0.12445278592737472
vn 0.055938124161135 -0.12627473854110396 0.9904168903404816
vn -0.05593812416113518 0.1262747385411033 -0.9904168903404816
vn -3.469446951953615e-18 6.383782391594651e-16 -1
vn -0.11320321376790703 6.93889390390723e-17 -0.9935718556765876
vn 0.11320321376790651 -5.551115123125784e-17 0.9935718556765876
vn 4.718447854656914e-16 1 1.3183898417423732e-15
vn -2.7755575615628907e-17 -1 -1.249000902703301e-15
vn -0.9935718556765877 2.7755575615628914e-16 0.11320321376790635
vn 0.9935718556765876 -3.191891195797325e-16 -0.11320321376790701
vn -3.469446951953615e-18 6.383782391594651e-16 -1
vn -6.245004513516506e-17 2.7755575615628914e-16 1
vn 1 4.163336342344336e-17 -1.2143064331837647e-16
vn 0.7826081568524134 -1.7347234759768074e-17 0.6225146366376202
vn -0.7826081568524142 3.1225022567582534e-17 -0.6225146366376193
vn 2.0677903833643537e-15 1 7.216449660063516e-16
vn -2.0400348077487247e-15 -1 -7.216449660063516e-16
vn 0.6225146366376193 1.3877787807814454e-17 -0.782608156852414
vn -0.6225146366376206 -6.938893903907227e-17 0.7826081568524129
vn 1 -4.163336342344336e-17 -1.4224732503009816e-16
vn -1 -9.714451465470117e-17 -8.049116928532383e-16
vn -6.938893903907227e-17 1 -3.3306690738754686e-16
vn 6.938893903907227e-17 -1 -5.273559366969493e-16
vn 5.204170427930421e-18 2.7755575615628914e-17 1
vn -3.2959746043559335e-17 -2.7755575615628914e-17 -1
vn 1 -1.3877787807814457e-17 6.158268339717665e-16
vn -1 -4.163336342344337e-17 6.938893903907228e-18
vn 6.938893903907228e-17 1 -1.4849232954361469e-15
vn -1.52655665885959e-16 -1 -9.298117831235684e-16
vn -6.418476861114187e-17 2.775557561562892e-17 1
vn 7.806255641895633e-17 -2.775557561562892e-17 -1
vn 1 -1.6653345369377348e-16 4.909267437014364e-16
vn -1 -1.6653345369377348e-16 -5.186823193170653e-16
vn 2.498001805406602e-16 0.9781476007338056 0.20791169081776006
vn -3.191891195797325e-16 -0.9781476007338056 -0.20791169081775998
vn 1.7347234759768074e-17 -0.20791169081775937 0.9781476007338058
vn -3.1225022567582534e-17 0.20791169081775923 -0.9781476007338058
vn 0.9574818564260025 0.28128275914722306 0.0640976132281191
vn -0.9574818564260024 -0.28128275914722334 -0.06409761322812017
vn -0.27505634437783216 0.9570859180594433 -0.09127186242109787
vn 0.2750563443778306 -0.9570859180594439 0.09127186242109787
vn -0.08702012429616499 0.06976069709254304 0.993761009050286
vn 0.08702012429616532 -0.06976069709254305 -0.9937610090502861
vn 0.9574817175661284 0.2812832342492202 0.06409760258320983
vn -0.9574817175661281 -0.28128323424922175 -0.06409760258320917
vn 0.002799135397815327 0.2131117545029656 -0.9770238200441648
vn -0.002799135397815093 -0.213111754502966 0.9770238200441648
vn -0.2884803725864942 0.9356618631872116 0.2032632588772343
vn 0.28848037258649306 -0.9356618631872121 -0.20326325887723246
vn 0.9579455165477695 0.2756990113993287 0.07956407756934282
vn -0.9579455165477693 -0.2756990113993286 -0.07956407756934306
vn -0.13180308673105345 0.17646028545825698 0.9754433422727109
vn 0.1318030867310529 -0.1764602854582553 -0.9754433422727112
vn 0.2548888653005349 -0.9449083673930627 0.20537732001460823
vn -0.2548888653005333 0.944908367393063 -0.20537732001460804
vn 0.9579455165477695 0.27569901139932823 0.07956407756934258
vn -0.9579455165477697 -0.27569901139932734 -0.07956407756934253
vn -0.13180308673105337 0.17646028545825584 0.975443342272711
vn 0.13180308673105412 -0.1764602854582571 -0.9754433422727108
vn 0.2548888653005341 -0.9449083673930632 0.2053773200146068
vn -0.2548888653005341 0.9449083673930632 -0.20537732001460704
vn 0.9579455504865694 0.2756986864317564 0.07956479499620339
vn -0.9579455504865694 -0.2756986864317566 -0.0795647949962029
vn -0.28612585428506965 0.9387411480584377 0.19208605480764523
vn 0.28612585428506804 -0.9387411480584388 -0.19208605480764157
vn -0.021732874007444957 -0.20677352645280503 0.9781474280217926
vn 0.021732874007444745 0.20677352645280486 -0.9781474280217926
vn 0.9574818564260024 -0.28128275914722345 -0.06409761322811758
vn -0.9574818564260024 0.28128275914722356 0.06409761322811902
vn 0.27505634437783116 0.9570859180594432 -0.0912718624211022
vn -0.27505634437783033 -0.957085918059444 0.0912718624210986
vn 0.08702012429616489 0.06976069709254314 0.9937610090502861
vn -0.08702012429616517 -0.06976069709254311 -0.9937610090502861
vn 0.9574817175661279 -0.2812832342492223 -0.06409760258320936
vn -0.9574817175661285 0.28128323424921947 0.06409760258321022
vn -0.002799135397814968 0.21311175450296646 -0.9770238200441645
vn 0.002799135397814909 -0.21311175450296643 0.9770238200441645
vn 0.28848037258649434 0.9356618631872122 0.20326325887723118
vn -0.28848037258649295 -0.9356618631872125 -0.2032632588772313
vn 0.9579455165477693 -0.2756990113993291 -0.07956407756934301
vn -0.9579455165477695 0.2756990113993277 0.07956407756934274
vn 0.13180308673105345 0.17646028545825626 0.975443342272711
vn -0.13180308673105354 -0.176460285458255 -0.9754433422727111
vn -0.25488886530053373 -0.9449083673930628 0.20537732001460834
vn 0.25488886530053395 0.9449083673930628 -0.20537732001460846
vn 0.9579455165477692 -0.2756990113993286 -0.07956407756934371
vn -0.9579455165477697 0.27569901139932684 0.07956407756934356
vn 0.131803086731054 0.17646028545825518 0.9754433422727112
vn -0.13180308673105343 -0.17646028545825623 -0.975443342272711
vn -0.2548888653005362 -0.9449083673930628 0.2053773200146053
vn 0.25488886530053556 0.9449083673930619 -0.2053773200146105
vn 0.9579455504865693 -0.27569868643175605 -0.07956479499620381
vn -0.9579455504865693 0.27569868643175655 0.07956479499620432
vn 0.2861258542850682 0.9387411480584388 0.19208605480764163
vn -0.2861258542850669 -0.9387411480584403 -0.1920860548076362
vn 0.021732874007445217 -0.20677352645280506 0.9781474280217927
vn -0.021732874007444794 0.20677352645280478 -0.9781474280217927
vn 0.9901173120365543 -0.006975703115801047 -0.14006801194972632
vn -0.9901173120365545 0.006975703115800938 0.1400680119497263
vn -0.11063076495243776 0.5749637844829294 -0.8106648384993059
vn 0.11063076495243634 -0.5749637844829298 0.8106648384993059
vn 0.08618899147540439 0.8181491221648456 0.568509869438821
vn -0.08618899147540171 -0.818149122164846 -0.5685098694388209
vn 1 5.551115123125783e-17 6.245004513516506e-17
vn -1 4.163336342344337e-17 -6.765421556309548e-17
vn 2.1788126858268693e-15 1 -4.0245584642661915e-16
vn 8.326672684688672e-17 -1 -4.163336342344336e-17
vn 3.8163916471489756e-17 -2.7755575615628914e-17 1
vn -5.0306980803327406e-17 1.3877787807814457e-17 -1
vn 1.2663481374630692e-16 -6.938893903907228e-17 -1
vn -6.245004513516506e-17 -1.3877787807814457e-16 1
vn -4.85722573273506e-16 1 -2.0816681711721685e-16
vn -2.7755575615628907e-17 -1 3.608224830031758e-16
vn 1 2.2204460492503126e-16 -2.307182223049153e-16
vn -1 -6.938893903907228e-17 -6.088879400678593e-16
vn 0.7071067811865472 2.7755575615628914e-17 -0.707106781186548
vn -0.707106781186548 -1.1102230246251563e-16 0.7071067811865471
vn 1.4432899320127031e-15 1 1.5959455978986621e-15
vn 5.412337245047637e-16 -1 -4.3021142204224806e-16
vn 0.7071067811865474 5.551115123125784e-17 0.7071067811865477
vn -0.7071067811865476 7.632783294297952e-17 -0.7071067811865476
vn 0.5299192642332045 4.6837533851373804e-17 0.8480480961564265
vn -0.5299192642332047 -5.204170427930421e-17 -0.8480480961564261
vn -6.522560269672794e-16 1 -1.804112415015879e-16
vn -1.5265566588595902e-16 -1 -1.1518563880486e-15
vn -0.8480480961564255 1.3877787807814454e-16 0.5299192642332056
vn 0.8480480961564263 1.1102230246251563e-16 -0.5299192642332043
vn 0.9901173120365545 0.006975703115801021 0.14006801194972626
vn -0.9901173120365544 -0.006975703115801285 -0.1400680119497263
vn 0.11063076495243696 0.5749637844829294 -0.8106648384993063
vn -0.11063076495243589 -0.5749637844829301 0.8106648384993058
vn -0.08618899147540449 0.8181491221648451 0.5685098694388215
vn 0.08618899147540507 -0.8181491221648454 -0.5685098694388211
vn 1 9.71445146547012e-17 -1.2836953722228372e-16
vn -1 -1.942890293094024e-16 -1.9949319973733282e-16
vn 1.9290125052862095e-15 1 -3.3306690738754696e-16
vn 9.714451465470117e-17 -1 1.3877787807814454e-16
vn -1.5612511283791264e-17 -4.163336342344337e-17 1
vn 9.610368056911511e-16 -1.5265566588595902e-16 -1
vn 2.5673907444456745e-16 -1.1102230246251565e-16 1
vn -2.498001805406602e-16 3.0531133177191805e-16 -1
vn -6.522560269672794e-16 1 -4.0245584642661915e-16
vn -5.5511151231257815e-17 -1 2.775557561562891e-16
vn -1 2.0816681711721685e-16 1.9567680809018384e-15
vn 1 2.775557561562891e-16 -9.818534874028726e-16
vn 0.7071067811865477 -4.5102810375396997e-17 0.7071067811865472
vn -0.7071067811865477 -9.367506770274761e-17 -0.7071067811865474
vn -2.1094237467877974e-15 1 1.5126788710517758e-15
vn 5.412337245047638e-16 -1 -1.3877787807814457e-17
vn -0.7071067811865469 2.775557561562891e-16 0.7071067811865483
vn 0.7071067811865478 1.6653345369377348e-16 -0.7071067811865475
vn 0.5299192642332053 1.5265566588595902e-16 -0.8480480961564258
vn -0.5299192642332049 -1.804112415015879e-16 0.848048096156426
vn 9.298117831235684e-16 1 -9.714451465470118e-16
vn 9.159339953157541e-16 -1 1.3877787807814457e-16
vn 0.848048096156426 1.3183898417423734e-16 0.5299192642332051
vn -0.8480480961564261 -1.249000902703301e-16 -0.5299192642332048
vn 1 1.387778780781446e-17 4.926614671774133e-16
vn -1 -1.3877787807814454e-17 8.153200337090992e-17
vn 1.6792123247455489e-15 0.9902680687415701 0.13917310096006624
vn -1.7208456881689922e-15 -0.9902680687415701 -0.13917310096006633
vn -2.0469737016526324e-16 -0.1391731009600655 0.9902680687415704
vn 1.734723475976807e-16 0.13917310096006524 -0.9902680687415704
vn 1 -1.3877787807814454e-17 9.714451465470117e-17
vn -1 -1.3877787807814457e-17 -1.3010426069826053e-16
vn 4.0245584642661925e-16 0.9848077530122082 0.17364817766693014
vn -4.0245584642661925e-16 -0.9848077530122082 -0.17364817766693014
vn -2.775557561562892e-17 -0.17364817766693044 0.9848077530122082
vn -1.734723475976807e-18 0.17364817766693044 -0.984807753012208
vn 1 1.249000902703301e-16 7.095019016745141e-16
vn -1 7.771561172376094e-16 1.4137996329210974e-15
vn -9.714451465470117e-17 1 -1.804112415015879e-16
vn 5.5511151231257815e-17 -1 2.6367796834847463e-16
vn 2.42861286636753e-17 2.3592239273284576e-16 1
vn -1.5265566588595902e-16 1.8041124150158794e-16 -1
vn 1 2.498001805406602e-16 1.9081958235744878e-16
vn -1 -2.0816681711721685e-16 -1.1622647289044608e-16
vn 4.163336342344336e-16 1 1.3183898417423732e-15
vn -3.885780586188047e-16 -1 -1.2628786905111154e-15
vn 8.326672684688677e-17 -3.1918911957973255e-16 1
vn 1.908195823574488e-17 -1.2490009027033014e-16 -1
vn -0.3420201433256696 -2.7755575615628914e-17 0.9396926207859082
vn 0.3420201433256692 2.7755575615628914e-17 -0.9396926207859083
vn -3.05311331771918e-16 1 -1.1241008124329708e-15
vn -3.05311331771918e-16 -1 2.081668171172168e-16
vn -0.9396926207859088 5.551115123125784e-17 -0.3420201433256682
vn 0.9396926207859083 -9.71445146547012e-17 0.34202014332566905
vn -0.5664062369248298 -1.8041124150158794e-16 0.8241261886220177
vn 0.5664062369248338 1.8041124150158794e-16 -0.8241261886220151
vn -3.7470027081099033e-16 1 -4.3021142204224816e-16
vn 5.967448757360216e-16 -1 1.3877787807814457e-16
vn -0.8241261886220168 4.163336342344337e-17 -0.5664062369248312
vn 0.8241261886220154 2.0816681711721685e-17 0.5664062369248332
vn 0.970279000192512 -0.1997097598635783 0.13665530944918045
vn -0.9702790001925122 0.1997097598635782 -0.13665530944917886
vn 0.16903349076169516 0.9634498168922248 0.20782716215946032
vn -0.1690334907616961 -0.9634498168922254 -0.20782716215945662
vn -0.17316564551415736 -0.17855100712561434 0.968572762918767
vn 0.17316564551415695 0.1785510071256143 -0.968572762918767
vn 1 -2.7755575615628914e-17 8.326672684688674e-17
vn -1 1.6653345369377343e-16 1.6653345369377343e-16
vn 2.775557561562891e-16 0.9993908270190957 -0.03489949670250261
vn 4.718447854656915e-16 -0.9993908270190958 0.03489949670250095
vn -2.2551405187698497e-16 0.03489949670250073 0.9993908270190959
vn 2.1337098754514732e-16 -0.03489949670250129 -0.9993908270190959
vn 0.9914449107186758 -2.870284645378751e-7 -0.13052581740772465
vn -0.9914449107186759 2.870284643713416e-7 0.13052581740772382
vn -0.005693071347502257 0.9990482552125656 -0.04324549335319265
vn 0.005693071347501896 -0.9990482552125657 0.043245493353189154
vn 0.13040160255406835 0.04361861708773077 0.9905013065587974
vn -0.13040160255406874 -0.04361861708773131 -0.9905013065587973
vn 0.9848077020401034 -5.803873223131362e-7 0.1736484667428833
vn -0.9848077020401035 5.803873221466028e-7 -0.17364846674288337
vn 0.007574961314838299 0.9990482340143341 -0.04295632751899582
vn -0.007574961314837203 -0.9990482340143341 0.04295632751899793
vn -0.17348316910746597 0.043619102610024066 0.9838703999632912
vn 0.17348316910746603 -0.04361910261002414 -0.9838703999632913
vn 0.6427876096865394 -1.1969591984239971e-16 0.7660444431189782
vn -0.6427876096865394 -1.2576745200831854e-16 -0.7660444431189781
vn 2.0816681711721685e-15 1 2.1094237467877974e-15
vn -1.52655665885959e-16 -1 5.5511151231257815e-17
vn -0.7660444431189781 1.942890293094024e-16 0.6427876096865395
vn 0.7660444431189777 0 -0.6427876096865398
vn 1 -1.3877787807814457e-17 -1.8041124150158794e-16
vn -1 2.9143354396410354e-16 1.5022705301959145e-15
vn -6.938893903907227e-17 1 2.2204460492503127e-15
vn 2.2204460492503126e-16 -1 -2.1926904736346838e-15
vn 2.9490299091605727e-17 -2.2204460492503136e-16 1
vn 4.857225732735061e-17 2.6367796834847473e-16 -1
vn 0.9961946980917455 -3.3306690738754696e-16 0.08715574274765817
vn -0.9961946980917455 3.469446951953613e-16 -0.08715574274765779
vn 4.635181127810028e-15 1 9.714451465470117e-17
vn -2.164934898019055e-15 -1 -5.5511151231257815e-17
vn -0.08715574274765832 -2.775557561562892e-17 0.9961946980917457
vn 0.08715574274765615 1.1102230246251565e-16 -0.9961946980917458
vn 0.6427876096865397 -2.4980018054066027e-16 -0.7660444431189779
vn -0.6427876096865393 2.220446049250313e-16 0.7660444431189781
vn -8.187894806610529e-16 1 1.5265566588595902e-15
vn -9.992007221626407e-16 -1 7.910339050454238e-16
vn 0.7660444431189786 4.0245584642661934e-16 0.6427876096865389
vn -0.7660444431189773 -4.0592529337857306e-16 -0.6427876096865403
vn 0.9961946980917455 4.163336342344337e-17 -0.08715574274765797
vn -0.9961946980917455 -5.551115123125783e-17 0.08715574274765817
vn -8.187894806610529e-16 1 3.3306690738754696e-16
vn 8.049116928532385e-16 -1 -3.191891195797325e-16
vn 0.08715574274765765 -1.8041124150158799e-16 0.9961946980917458
vn -0.08715574274765762 6.93889390390723e-17 -0.9961946980917458
vn 1 1.3877787807814454e-17 -2.758210326803123e-16
vn -1 -6.938893903907228e-17 4.527628272299467e-16
vn -8.326672684688672e-17 1 -2.9143354396410354e-16
vn 5.5511151231257815e-17 -1 3.3306690738754686e-16
vn 2.6020852139652113e-17 8.326672684688677e-17 1
vn -4.163336342344337e-17 1.942890293094024e-16 -1
vn 1 1.3877787807814454e-16 1.1171619185290636e-15
vn -1 4.996003610813204e-16 2.2551405187698492e-17
vn 3.608224830031759e-16 1 2.3314683517128287e-15
vn -4.0245584642661915e-16 -1 -2.289834988289385e-15
vn -6.765421556309549e-17 -2.081668171172169e-16 1
vn -3.642919299551296e-16 1.9428902930940244e-16 -1
vn 1 5.551115123125783e-17 -4.128641872824801e-16
vn -1 -5.134781488891349e-16 -6.557254739192331e-16
vn -5.5511151231257815e-17 1 -3.1918911957973246e-16
vn 5.5511151231257815e-17 -1 3.05311331771918e-16
vn -2.4286128663675305e-17 4.163336342344338e-17 1
vn 3.642919299551295e-17 -2.914335439641036e-16 -1
usemtl m_003fa4ab-9385-748f-fa8e-81f2a4530fa7
f 1/1/1 2/2/1 4/3/1 3/4/1
f 5/5/2 6/6/2 8/7/2 7/8/2
f 10/9/3 9/10/3 11/11/3 12/12/3
f 15/13/4 13/14/4 14/15/4 16/16/4
f 13/17/5 9/18/5 10/19/5 14/20/5
f 12/21/6 11/22/6 15/23/6 16/24/6
f 11/25/7 9/26/7 13/27/7 15/28/7
f 14/29/8 10/30/8 12/31/8 16/32/8
f 18/33/9 17/34/9 19/35/9 20/36/9
f 23/37/10 21/38/10 22/39/10 24/40/10
f 21/41/11 17/42/11 18/43/11 22/44/11
f 20/45/12 19/46/12 23/47/12 24/48/12
f 19/49/13 17/50/13 21/51/13 23/52/13
f 22/53/14 18/54/14 20/55/14 24/56/14
f 27/57/15 25/58/15 26/59/15 28/60/15
f 30/61/16 29/62/16 31/63/16 32/64/16
f 26/65/17 25/66/17 29/67/17 30/68/17
f 31/69/18 27/70/18 28/71/18 32/72/18
f 29/73/19 25/74/19 27/75/19 31/76/19
f 28/77/20 26/78/20 30/79/20 32/80/20
f 33/81/21 34/82/21 36/83/21 35/84/21
f 37/85/22 38/86/22 40/87/22 39/88/22
f 42/89/23 41/90/23 43/91/23 44/92/23
f 47/93/24 45/94/24 46/95/24 48/96/24
f 45/97/25 41/98/25 42/99/25 46/100/25
f 44/101/26 43/102/26 47/103/26 48/104/26
f 43/105/27 41/106/27 45/107/27 47/108/27
f 46/109/28 42/110/28 44/111/28 48/112/28
f 50/113/29 49/114/29 51/115/29 52/116/29
f 55/117/30 53/118/30 54/119/30 56/120/30
f 53/121/31 49/122/31 50/123/31 54/124/31
f 52/125/32 51/126/32 55/127/32 56/128/32
f 51/129/33 49/130/33 53/131/33 55/132/33
f 54/133/34 50/134/34 52/135/34 56/136/34
f 58/137/35 57/138/35 59/139/35 60/140/35
f 63/141/36 61/142/36 62/143/36 64/144/36
f 61/145/37 57/146/37 58/147/37 62/148/37
f 60/149/38 59/150/38 63/151/38 64/152/38
f 59/153/39 57/154/39 61/155/39 63/156/39
f 62/157/40 58/158/40 60/159/40 64/160/40
f 66/161/41 65/162/41 67/163/41 68/164/41
f 71/165/42 69/166/42 70/167/42 72/168/42
f 69/169/43 65/170/43 66/171/43 70/172/43
f 68/173/44 67/174/44 71/175/44 72/176/44
f 67/177/45 65/178/45 69/179/45 71/180/45
f 70/181/46 66/182/46 68/183/46 72/184/46
f 73/185/47 74/186/47 76/187/47 75/188/47
f 77/189/48 78/190/48 80/191/48 79/192/48
f 81/193/49 82/194/49 84/195/49 83/196/49
f 85/197/50 86/198/50 88/199/50 87/200/50
f 89/201/51 90/202/51 92/203/51 91/204/51
f 93/205/52 94/206/52 96/207/52 95/208/52
f 98/209/53 97/210/53 99/211/53 100/212/53
f 103/213/54 101/214/54 102/215/54 104/216/54
f 101/217/55 97/218/55 98/219/55 102/220/55
f 100/221/56 99/222/56 103/223/56 104/224/56
f 99/225/57 97/226/57 101/227/57 103/228/57
f 102/229/58 98/230/58 100/231/58 104/232/58
f 106/233/59 105/234/59 107/235/59 108/236/59
f 111/237/60 109/238/60 110/239/60 112/240/60
f 107/241/61 105/242/61 109/243/61 111/244/61
f 110/245/62 106/246/62 108/247/62 112/248/62
f 113/249/63 114/250/63 116/251/63 115/252/63
f 118/253/64 117/254/64 119/255/64 120/256/64
f 123/257/65 121/258/65 122/259/65 124/260/65
f 121/261/66 117/262/66 118/263/66 122/264/66
f 120/265/67 119/266/67 123/267/67 124/268/67
f 119/269/68 117/270/68 121/271/68 123/272/68
f 122/273/69 118/274/69 120/275/69 124/276/69
f 127/277/70 125/278/70 126/279/70 128/280/70
f 130/281/71 129/282/71 131/283/71 132/284/71
f 126/285/72 125/286/72 129/287/72 130/288/72
f 131/289/73 127/290/73 128/291/73 132/292/73
f 129/293/74 125/294/74 127/295/74 131/296/74
f 128/297/75 126/298/75 130/299/75 132/300/75
f 135/301/76 133/302/76 134/303/76 136/304/76
f 138/305/77 137/306/77 139/307/77 140/308/77
f 134/309/78 133/310/78 137/311/78 138/312/78
f 139/313/79 135/314/79 136/315/79 140/316/79
f 137/317/80 133/318/80 135/319/80 139/320/80
f 136/321/81 134/322/81 138/323/81 140/324/81
f 142/325/82 141/326/82 143/327/82 144/328/82
f 147/329/83 145/330/83 146/331/83 148/332/83
f 145/333/84 141/334/84 142/335/84 146/336/84
f 144/337/85 143/338/85 147/339/85 148/340/85
f 143/341/86 141/342/86 145/343/86 147/344/86
f 146/345/87 142/346/87 144/347/87 148/348/87
f 150/349/88 149/350/88 151/351/88 152/352/88
f 155/353/89 153/354/89 154/355/89 156/356/89
f 153/357/90 149/358/90 150/359/90 154/360/90
f 152/361/91 151/362/91 155/363/91 156/364/91
f 151/365/92 149/366/92 153/367/92 155/368/92
f 154/369/93 150/370/93 152/371/93 156/372/93
f 157/373/94 158/374/94 160/375/94 159/376/94
f 163/377/95 161/378/95 162/379/95 164/380/95
f 166/381/96 165/382/96 167/383/96 168/384/96
f 162/385/97 161/386/97 165/387/97 166/388/97
f 167/389/98 163/390/98 164/391/98 168/392/98
f 165/393/99 161/394/99 163/395/99 167/396/99
f 164/397/100 162/398/100 166/399/100 168/400/100
f 169/401/101 170/402/101 172/403/101 171/404/101
f 173/405/102 174/406/102 176/407/102 175/408/102
f 177/409/103 178/410/103 180/411/103 179/412/103
f 183/413/104 181/414/104 182/415/104 184/416/104
f 186/417/105 185/418/105 187/419/105 188/420/105
f 182/421/106 181/422/106 185/423/106 186/424/106
f 187/425/107 183/426/107 184/427/107 188/428/107
f 185/429/108 181/430/108 183/431/108 187/432/108
f 184/433/109 182/434/109 186/435/109 188/436/109
f 192/437/110 190/438/110 189/439/110 191/440/110
f 195/441/111 193/442/111 194/443/111 196/444/111
f 189/445/112 190/446/112 194/447/112 193/448/112
f 192/449/113 191/450/113 195/451/113 196/452/113
f 191/453/114 189/454/114 193/455/114 195/456/114
f 196/457/115 194/458/115 190/459/115 192/460/115
f 200/461/116 198/462/116 197/463/116 199/464/116
f 203/465/117 201/466/117 202/467/117 204/468/117
f 197/469/118 198/470/118 202/471/118 201/472/118
f 200/473/119 199/474/119 203/475/119 204/476/119
f 199/477/120 197/478/120 201/479/120 203/480/120
f 204/481/121 202/482/121 198/483/121 200/484/121
f 208/485/122 206/486/122 205/487/122 207/488/122
f 211/489/123 209/490/123 210/491/123 212/492/123
f 205/493/124 206/494/124 210/495/124 209/496/124
f 208/497/125 207/498/125 211/499/125 212/500/125
f 207/501/126 205/502/126 209/503/126 211/504/126
f 212/505/127 210/506/127 206/507/127 208/508/127
f 216/509/128 214/510/128 213/511/128 215/512/128
f 219/513/129 217/514/129 218/515/129 220/516/129
f 213/517/130 214/518/130 218/519/130 217/520/130
f 216/521/131 215/522/131 219/523/131 220/524/131
f 215/525/132 213/526/132 217/527/132 219/528/132
f 220/529/133 218/530/133 214/531/133 216/532/133
f 224/533/134 222/534/134 221/535/134 223/536/134
f 227/537/135 225/538/135 226/539/135 228/540/135
f 221/541/136 222/542/136 226/543/136 225/544/136
f 224/545/137 223/546/137 227/547/137 228/548/137
f 223/549/138 221/550/138 225/551/138 227/552/138
f 228/553/139 226/554/139 222/555/139 224/556/139
f 232/557/140 230/558/140 229/559/140 231/560/140
f 235/561/141 233/562/141 234/563/141 236/564/141
f 229/565/142 230/566/142 234/567/142 233/568/142
f 232/569/143 231/570/143 235/571/143 236/572/143
f 231/573/144 229/574/144 233/575/144 235/576/144
f 236/577/145 234/578/145 230/579/145 232/580/145
f 240/581/146 238/582/146 237/583/146 239/584/146
f 243/585/147 241/586/147 242/587/147 244/588/147
f 237/589/148 238/590/148 242/591/148 241/592/148
f 240/593/149 239/594/149 243/595/149 244/596/149
f 239/597/150 237/598/150 241/599/150 243/600/150
f 244/601/151 242/602/151 238/603/151 240/604/151
f 248/605/152 246/606/152 245/607/152 247/608/152
f 251/609/153 249/610/153 250/611/153 252/612/153
f 245/613/154 246/614/154 250/615/154 249/616/154
f 248/617/155 247/618/155 251/619/155 252/620/155
f 247/621/156 245/622/156 249/623/156 251/624/156
f 252/625/157 250/626/157 246/627/157 248/628/157
f 256/629/158 254/630/158 253/631/158 255/632/158
f 259/633/159 257/634/159 258/635/159 260/636/159
f 253/637/160 254/638/160 258/639/160 257/640/160
f 256/641/161 255/642/161 259/643/161 260/644/161
f 255/645/162 253/646/162 257/647/162 259/648/162
f 260/649/163 258/650/163 254/651/163 256/652/163
f 264/653/164 262/654/164 261/655/164 263/656/164
f 267/657/165 265/658/165 266/659/165 268/660/165
f 261/661/166 262/662/166 266/663/166 265/664/166
f 264/665/167 263/666/167 267/667/167 268/668/167
f 263/669/168 261/670/168 265/671/168 267/672/168
f 268/673/169 266/674/169 262/675/169 264/676/169
f 272/677/170 270/678/170 269/679/170 271/680/170
f 275/681/171 273/682/171 274/683/171 276/684/171
f 269/685/172 270/686/172 274/687/172 273/688/172
f 272/689/173 271/690/173 275/691/173 276/692/173
f 271/693/174 269/694/174 273/695/174 275/696/174
f 276/697/175 274/698/175 270/699/175 272/700/175
f 280/701/176 278/702/176 277/703/176 279/704/176
f 283/705/177 281/706/177 282/707/177 284/708/177
f 277/709/178 278/710/178 282/711/178 281/712/178
f 280/713/179 279/714/179 283/715/179 284/716/179
f 279/717/180 277/718/180 281/719/180 283/720/180
f 284/721/181 282/722/181 278/723/181 280/724/181
f 288/725/182 286/726/182 285/727/182 287/728/182
f 291/729/183 289/730/183 290/731/183 292/732/183
f 285/733/184 286/734/184 290/735/184 289/736/184
f 288/737/185 287/738/185 291/739/185 292/740/185
f 287/741/186 285/742/186 289/743/186 291/744/186
f 292/745/187 290/746/187 286/747/187 288/748/187
f 296/749/188 294/750/188 293/751/188 295/752/188
f 299/753/189 297/754/189 298/755/189 300/756/189
f 293/757/190 294/758/190 298/759/190 297/760/190
f 296/761/191 295/762/191 299/763/191 300/764/191
f 295/765/192 293/766/192 297/767/192 299/768/192
f 300/769/193 298/770/193 294/771/193 296/772/193
f 304/773/194 302/774/194 301/775/194 303/776/194
f 307/777/195 305/778/195 306/779/195 308/780/195
f 301/781/196 302/782/196 306/783/196 305/784/196
f 304/785/197 303/786/197 307/787/197 308/788/197
f 303/789/198 301/790/198 305/791/198 307/792/198
f 308/793/199 306/794/199 302/795/199 304/796/199
f 312/797/200 310/798/200 309/799/200 311/800/200
f 315/801/201 313/802/201 314/803/201 316/804/201
f 309/805/202 310/806/202 314/807/202 313/808/202
f 312/809/203 311/810/203 315/811/203 316/812/203
f 311/813/204 309/814/204 313/815/204 315/816/204
f 316/817/205 314/818/205 310/819/205 312/820/205
f 320/821/206 318/822/206 317/823/206 319/824/206
f 323/825/207 321/826/207 322/827/207 324/828/207
f 317/829/208 318/830/208 322/831/208 321/832/208
f 320/833/209 319/834/209 323/835/209 324/836/209
f 319/837/210 317/838/210 321/839/210 323/840/210
f 324/841/211 322/842/211 318/843/211 320/844/211
f 328/845/212 326/846/212 325/847/212 327/848/212
f 331/849/213 329/850/213 330/851/213 332/852/213
f 325/853/214 326/854/214 330/855/214 329/856/214
f 328/857/215 327/858/215 331/859/215 332/860/215
f 327/861/216 325/862/216 329/863/216 331/864/216
f 332/865/217 330/866/217 326/867/217 328/868/217
f 336/869/218 334/870/218 333/871/218 335/872/218
f 339/873/219 337/874/219 338/875/219 340/876/219
f 333/877/220 334/878/220 338/879/220 337/880/220
f 336/881/221 335/882/221 339/883/221 340/884/221
f 335/885/222 333/886/222 337/887/222 339/888/222
f 340/889/223 338/890/223 334/891/223 336/892/223
f 344/893/224 342/894/224 341/895/224 343/896/224
f 347/897/225 345/898/225 346/899/225 348/900/225
f 341/901/226 342/902/226 346/903/226 345/904/226
f 344/905/227 343/906/227 347/907/227 348/908/227
f 343/909/228 341/910/228 345/911/228 347/912/228
f 348/913/229 346/914/229 342/915/229 344/916/229
f 352/917/230 350/918/230 349/919/230 351/920/230
f 355/921/231 353/922/231 354/923/231 356/924/231
f 349/925/232 350/926/232 354/927/232 353/928/232
f 352/929/233 351/930/233 355/931/233 356/932/233
f 351/933/234 349/934/234 353/935/234 355/936/234
f 356/937/235 354/938/235 350/939/235 352/940/235
f 360/941/236 358/942/236 357/943/236 359/944/236
f 363/945/237 361/946/237 362/947/237 364/948/237
f 357/949/238 358/950/238 362/951/238 361/952/238
f 360/953/239 359/954/239 363/955/239 364/956/239
f 359/957/240 357/958/240 361/959/240 363/960/240
f 364/961/241 362/962/241 358/963/241 360/964/241
f 368/965/242 366/966/242 365/967/242 367/968/242
f 371/969/243 369/970/243 370/971/243 372/972/243
f 365/973/244 366/974/244 370/975/244 369/976/244
f 368/977/245 367/978/245 371/979/245 372/980/245
f 367/981/246 365/982/246 369/983/246 371/984/246
f 372/985/247 370/986/247 366/987/247 368/988/247
f 376/989/248 374/990/248 373/991/248 375/992/248
f 379/993/249 377/994/249 378/995/249 380/996/249
f 373/997/250 374/998/250 378/999/250 377/1000/250
f 376/1001/251 375/1002/251 379/1003/251 380/1004/251
f 375/1005/252 373/1006/252 377/1007/252 379/1008/252
f 380/1009/253 378/1010/253 374/1011/253 376/1012/253
f 384/1013/254 382/1014/254 381/1015/254 383/1016/254
f 387/1017/255 385/1018/255 386/1019/255 388/1020/255
f 381/1021/256 382/1022/256 386/1023/256 385/1024/256
f 384/1025/257 383/1026/257 387/1027/257 388/1028/257
f 383/1029/258 381/1030/258 385/1031/258 387/1032/258
f 388/1033/259 386/1034/259 382/1035/259 384/1036/259
f 392/1037/260 390/1038/260 389/1039/260 391/1040/260
f 395/1041/261 393/1042/261 394/1043/261 396/1044/261
f 389/1045/262 390/1046/262 394/1047/262 393/1048/262
f 392/1049/263 391/1050/263 395/1051/263 396/1052/263
f 391/1053/264 389/1054/264 393/1055/264 395/1056/264
f 396/1057/265 394/1058/265 390/1059/265 392/1060/265
f 400/1061/266 398/1062/266 397/1063/266 399/1064/266
f 403/1065/267 401/1066/267 402/1067/267 404/1068/267
f 397/1069/268 398/1070/268 402/1071/268 401/1072/268
f 400/1073/269 399/1074/269 403/1075/269 404/1076/269
f 399/1077/270 397/1078/270 401/1079/270 403/1080/270
f 404/1081/271 402/1082/271 398/1083/271 400/1084/271
f 408/1085/272 406/1086/272 405/1087/272 407/1088/272
f 411/1089/273 409/1090/273 410/1091/273 412/1092/273
f 405/1093/274 406/1094/274 410/1095/274 409/1096/274
f 408/1097/275 407/1098/275 411/1099/275 412/1100/275
f 407/1101/276 405/1102/276 409/1103/276 411/1104/276
f 412/1105/277 410/1106/277 406/1107/277 408/1108/277
f 416/1109/278 414/1110/278 413/1111/278 415/1112/278
f 419/1113/279 417/1114/279 418/1115/279 420/1116/279
f 413/1117/280 414/1118/280 418/1119/280 417/1120/280
f 416/1121/281 415/1122/281 419/1123/281 420/1124/281
f 415/1125/282 413/1126/282 417/1127/282 419/1128/282
f 420/1129/283 418/1130/283 414/1131/283 416/1132/283
f 424/1133/284 422/1134/284 421/1135/284 423/1136/284
f 427/1137/285 425/1138/285 426/1139/285 428/1140/285
f 421/1141/286 422/1142/286 426/1143/286 425/1144/286
f 424/1145/287 423/1146/287 427/1147/287 428/1148/287
f 423/1149/288 421/1150/288 425/1151/288 427/1152/288
f 428/1153/289 426/1154/289 422/1155/289 424/1156/289
f 432/1157/290 430/1158/290 429/1159/290 431/1160/290
f 435/1161/291 433/1162/291 434/1163/291 436/1164/291
f 429/1165/292 430/1166/292 434/1167/292 433/1168/292
f 432/1169/293 431/1170/293 435/1171/293 436/1172/293
f 431/1173/294 429/1174/294 433/1175/294 435/1176/294
f 436/1177/295 434/1178/295 430/1179/295 432/1180/295
f 440/1181/296 438/1182/296 437/1183/296 439/1184/296
f 443/1185/297 441/1186/297 442/1187/297 444/1188/297
f 437/1189/298 438/1190/298 442/1191/298 441/1192/298
f 440/1193/299 439/1194/299 443/1195/299 444/1196/299
f 439/1197/300 437/1198/300 441/1199/300 443/1200/300
f 444/1201/301 442/1202/301 438/1203/301 440/1204/301
f 448/1205/302 446/1206/302 445/1207/302 447/1208/302
f 451/1209/303 449/1210/303 450/1211/303 452/1212/303
f 445/1213/304 446/1214/304 450/1215/304 449/1216/304
f 448/1217/305 447/1218/305 451/1219/305 452/1220/305
f 447/1221/306 445/1222/306 449/1223/306 451/1224/306
f 452/1225/307 450/1226/307 446/1227/307 448/1228/307
f 456/1229/308 454/1230/308 453/1231/308 455/1232/308
f 459/1233/309 457/1234/309 458/1235/309 460/1236/309
f 453/1237/310 454/1238/310 458/1239/310 457/1240/310
f 456/1241/311 455/1242/311 459/1243/311 460/1244/311
f 455/1245/312 453/1246/312 457/1247/312 459/1248/312
f 460/1249/313 458/1250/313 454/1251/313 456/1252/313
f 464/1253/314 462/1254/314 461/1255/314 463/1256/314
f 467/1257/315 465/1258/315 466/1259/315 468/1260/315
f 461/1261/316 462/1262/316 466/1263/316 465/1264/316
f 464/1265/317 463/1266/317 467/1267/317 468/1268/317
f 463/1269/318 461/1270/318 465/1271/318 467/1272/318
f 468/1273/319 466/1274/319 462/1275/319 464/1276/319
f 472/1277/320 470/1278/320 469/1279/320 471/1280/320
f 475/1281/321 473/1282/321 474/1283/321 476/1284/321
f 469/1285/322 470/1286/322 474/1287/322 473/1288/322
f 472/1289/323 471/1290/323 475/1291/323 476/1292/323
f 471/1293/324 469/1294/324 473/1295/324 475/1296/324
f 476/1297/325 474/1298/325 470/1299/325 472/1300/325
f 480/1301/326 478/1302/326 477/1303/326 479/1304/326
f 483/1305/327 481/1306/327 482/1307/327 484/1308/327
f 477/1309/328 478/1310/328 482/1311/328 481/1312/328
f 480/1313/329 479/1314/329 483/1315/329 484/1316/329
f 479/1317/330 477/1318/330 481/1319/330 483/1320/330
f 484/1321/331 482/1322/331 478/1323/331 480/1324/331
f 488/1325/332 486/1326/332 485/1327/332 487/1328/332
f 491/1329/333 489/1330/333 490/1331/333 492/1332/333
f 485/1333/334 486/1334/334 490/1335/334 489/1336/334
f 488/1337/335 487/1338/335 491/1339/335 492/1340/335
f 487/1341/336 485/1342/336 489/1343/336 491/1344/336
f 492/1345/337 490/1346/337 486/1347/337 488/1348/337
f 496/1349/338 494/1350/338 493/1351/338 495/1352/338
f 499/1353/339 497/1354/339 498/1355/339 500/1356/339
f 493/1357/340 494/1358/340 498/1359/340 497/1360/340
f 496/1361/341 495/1362/341 499/1363/341 500/1364/341
f 495/1365/342 493/1366/342 497/1367/342 499/1368/342
f 500/1369/343 498/1370/343 494/1371/343 496/1372/343
f 504/1373/344 502/1374/344 501/1375/344 503/1376/344
f 507/1377/345 505/1378/345 506/1379/345 508/1380/345
f 501/1381/346 502/1382/346 506/1383/346 505/1384/346
f 504/1385/347 503/1386/347 507/1387/347 508/1388/347
f 503/1389/348 501/1390/348 505/1391/348 507/1392/348
f 508/1393/349 506/1394/349 502/1395/349 504/1396/349
f 512/1397/350 510/1398/350 509/1399/350 511/1400/350
f 515/1401/351 513/1402/351 514/1403/351 516/1404/351
f 509/1405/352 510/1406/352 514/1407/352 513/1408/352
f 512/1409/353 511/1410/353 515/1411/353 516/1412/353
f 511/1413/354 509/1414/354 513/1415/354 515/1416/354
f 516/1417/355 514/1418/355 510/1419/355 512/1420/355
