# Blender 4.4.3
# www.blender.org
mtllib ratnik.mtl
o ratnik
v -0.159532 0.787875 -0.157760
v -0.159532 0.787875 -0.226510
v -0.203726 0.743681 -0.157760
v -0.203726 0.743681 -0.226510
v -0.225823 0.854166 -0.226510
v -0.225823 0.854166 -0.157760
v -0.270017 0.809972 -0.226510
v -0.270017 0.809972 -0.157760
v 0.268750 1.243432 -0.095260
v 0.268750 1.243432 -0.232760
v 0.268750 0.805932 -0.095260
v 0.268750 0.805932 -0.232760
v -0.268750 1.243432 -0.232760
v -0.268750 1.243432 -0.095260
v -0.268750 0.805932 -0.232760
v -0.268750 0.805932 -0.095260
v 0.268750 1.434538 -0.032338
v 0.268750 1.477094 -0.143201
v 0.268750 1.201142 -0.121930
v 0.268750 1.243699 -0.232793
v -0.268750 1.477094 -0.143201
v -0.268750 1.434538 -0.032338
v -0.268750 1.243699 -0.232793
v -0.268750 1.201142 -0.121930
v 0.340614 1.486212 -0.082124
v 0.351597 1.512728 -0.151415
v 0.263274 1.299497 -0.165836
v 0.274257 1.326014 -0.235127
v 0.195692 1.577306 -0.151415
v 0.184709 1.550790 -0.082124
v 0.118353 1.390591 -0.235127
v 0.107369 1.364075 -0.165836
v 0.344625 1.495895 0.013649
v 0.365556 1.546428 0.000517
v 0.330666 1.462196 -0.138284
v 0.351597 1.512728 -0.151415
v 0.209651 1.611005 0.000517
v 0.188720 1.560473 0.013649
v 0.195692 1.577306 -0.151415
v 0.174761 1.526774 -0.138284
v 0.334941 1.472517 0.146044
v 0.356202 1.523845 0.154844
v 0.344295 1.495099 -0.008282
v 0.365556 1.546428 0.000517
v 0.200297 1.588423 0.154844
v 0.179036 1.537095 0.146044
v 0.209651 1.611005 0.000517
v 0.188390 1.559677 -0.008282
v 0.356202 1.523845 0.154844
v 0.351433 1.512333 0.093598
v 0.278858 1.337121 0.195963
v 0.274089 1.325609 0.134718
v 0.195529 1.576911 0.093598
v 0.200297 1.588423 0.154844
v 0.118185 1.390186 0.134718
v 0.122953 1.401698 0.195963
v 0.341289 1.503900 -0.122201
v 0.394091 1.509597 -0.183691
v 0.257320 1.301181 -0.213089
v 0.310122 1.306878 -0.274578
v 0.339426 1.551544 -0.226747
v 0.286624 1.545847 -0.165257
v 0.255457 1.348825 -0.317634
v 0.202655 1.343128 -0.256144
v -0.286624 1.545847 -0.165257
v -0.339426 1.551544 -0.226747
v -0.202655 1.343128 -0.256144
v -0.255457 1.348825 -0.317634
v -0.394091 1.509597 -0.183691
v -0.341289 1.503900 -0.122201
v -0.310122 1.306878 -0.274578
v -0.257320 1.301181 -0.213089
v -0.184709 1.550790 -0.082124
v -0.195692 1.577306 -0.151415
v -0.107369 1.364075 -0.165836
v -0.118353 1.390591 -0.235127
v -0.351597 1.512728 -0.151415
v -0.340614 1.486212 -0.082124
v -0.274257 1.326014 -0.235127
v -0.263274 1.299497 -0.165836
v -0.188720 1.560473 0.013649
v -0.209651 1.611005 0.000517
v -0.174761 1.526774 -0.138284
v -0.195692 1.577306 -0.151415
v -0.365556 1.546428 0.000517
v -0.344625 1.495895 0.013649
v -0.351597 1.512728 -0.151415
v -0.330666 1.462196 -0.138284
v -0.179036 1.537095 0.146044
v -0.200297 1.588423 0.154844
v -0.188390 1.559677 -0.008282
v -0.209651 1.611005 0.000517
v -0.356202 1.523845 0.154844
v -0.334941 1.472517 0.146044
v -0.365556 1.546428 0.000517
v -0.344295 1.495099 -0.008282
v -0.200297 1.588423 0.154844
v -0.195529 1.576911 0.093598
v -0.122953 1.401698 0.195963
v -0.118185 1.390186 0.134718
v -0.351433 1.512333 0.093598
v -0.356202 1.523845 0.154844
v -0.274089 1.325609 0.134718
v -0.278858 1.337121 0.195963
v 0.268750 1.502697 0.196686
v 0.268750 1.502697 0.121686
v 0.268750 0.746448 0.196686
v 0.268750 0.746448 0.121686
v -0.268750 1.502697 0.121686
v -0.268750 1.502697 0.196686
v -0.268750 0.746448 0.121686
v -0.268750 0.746448 0.196686
v -0.231250 1.052698 0.153314
v -0.231250 1.052698 -0.221686
v -0.231250 0.821447 0.153314
v -0.231250 0.821447 -0.221686
v -0.331250 1.052698 -0.221686
v -0.331250 1.052698 0.153314
v -0.331250 0.821447 -0.221686
v -0.331250 0.821447 0.153314
v 0.331250 1.052698 0.153314
v 0.331250 1.052698 -0.221686
v 0.331250 0.821447 0.153314
v 0.331250 0.821447 -0.221686
v 0.231250 1.052698 -0.221686
v 0.231250 1.052698 0.153314
v 0.231250 0.821447 -0.221686
v 0.231250 0.821447 0.153314
v 0.100000 1.480137 0.239590
v 0.100000 1.472619 0.215747
v 0.100000 1.390726 0.267781
v 0.100000 1.383208 0.243938
v -0.100000 1.472619 0.215747
v -0.100000 1.480137 0.239590
v -0.100000 1.383208 0.243938
v -0.100000 1.390726 0.267781
v -0.102535 1.480217 0.239844
v -0.079438 1.477340 0.230719
v -0.102535 1.390806 0.268035
v -0.079438 1.387929 0.258910
v -0.124882 1.444350 0.126086
v -0.147979 1.447227 0.135211
v -0.124882 1.354939 0.154278
v -0.147979 1.357816 0.163402
v 0.147979 1.447227 0.135211
v 0.124882 1.444350 0.126086
v 0.147979 1.357816 0.163402
v 0.124882 1.354939 0.154278
v 0.079438 1.477340 0.230719
v 0.102535 1.480217 0.239844
v 0.079438 1.387929 0.258910
v 0.102535 1.390806 0.268035
v 0.206250 0.805932 -0.157760
v 0.206250 0.805932 -0.232760
v 0.206250 0.743432 -0.157760
v 0.206250 0.743432 -0.232760
v -0.206250 0.805932 -0.232760
v -0.206250 0.805932 -0.157760
v -0.206250 0.743432 -0.232760
v -0.206250 0.743432 -0.157760
v 0.225823 0.854166 -0.157760
v 0.225823 0.854166 -0.226510
v 0.270017 0.809972 -0.157760
v 0.270017 0.809972 -0.226510
v 0.159532 0.787875 -0.226510
v 0.159532 0.787875 -0.157760
v 0.203726 0.743681 -0.226510
v 0.203726 0.743681 -0.157760
vn -0.0000 -0.0000 -1.0000
vn 0.7071 -0.7071 -0.0000
vn -0.0000 -0.0000 1.0000
vn -0.7071 0.7071 -0.0000
vn 0.7071 0.7071 -0.0000
vn -0.7071 -0.7071 -0.0000
vn 1.0000 -0.0000 -0.0000
vn -1.0000 -0.0000 -0.0000
vn -0.0000 1.0000 -0.0000
vn -0.0000 -1.0000 -0.0000
vn -0.0000 0.3584 -0.9336
vn -0.0000 -0.3584 0.9336
vn -0.0000 0.9336 0.3584
vn -0.0000 -0.9336 -0.3584
vn 0.1464 0.3536 -0.9239
vn 0.9239 -0.3827 -0.0000
vn -0.1464 -0.3536 0.9239
vn -0.9239 0.3827 -0.0000
vn 0.3536 0.8536 0.3827
vn -0.3536 -0.8536 -0.3827
vn 0.3721 0.8984 -0.2334
vn 0.3721 0.8984 -0.2335
vn -0.3721 -0.8984 0.2334
vn 0.0893 0.2157 0.9724
vn -0.0893 -0.2157 -0.9724
vn 0.3780 0.9125 0.1564
vn -0.3780 -0.9125 -0.1564
vn -0.0599 -0.1445 0.9877
vn 0.0599 0.1445 -0.9877
vn -0.0763 -0.1842 -0.9799
vn 0.0763 0.1842 0.9799
vn 0.3750 0.9053 -0.1994
vn -0.3750 -0.9053 0.1994
vn 0.6499 0.0701 -0.7568
vn 0.6728 -0.5163 0.5299
vn -0.6499 -0.0701 0.7568
vn -0.6728 0.5163 -0.5299
vn -0.6499 0.0701 -0.7568
vn 0.6728 0.5163 -0.5299
vn 0.6499 -0.0701 0.7568
vn -0.6728 -0.5163 0.5299
vn -0.3536 0.8536 0.3827
vn 0.3536 -0.8536 -0.3827
vn -0.1464 0.3536 -0.9239
vn 0.9239 0.3827 -0.0000
vn 0.1464 -0.3536 0.9239
vn -0.9239 -0.3827 -0.0000
vn -0.3721 0.8984 -0.2334
vn 0.3721 -0.8984 0.2334
vn -0.0893 0.2157 0.9724
vn 0.0893 -0.2157 -0.9724
vn -0.3780 0.9125 0.1564
vn 0.3780 -0.9125 -0.1564
vn 0.0599 -0.1445 0.9877
vn -0.0599 0.1445 -0.9877
vn 0.0763 -0.1842 -0.9799
vn -0.0763 0.1842 0.9799
vn -0.3750 0.9053 -0.1994
vn 0.3750 -0.9053 0.1994
vn -0.0000 -0.3007 -0.9537
vn -0.0000 0.3007 0.9537
vn -0.0000 0.9537 -0.3007
vn -0.0000 -0.9537 0.3007
vn 0.9239 -0.1151 -0.3650
vn 0.3827 0.2778 0.8811
vn -0.9239 0.1151 0.3650
vn -0.3827 -0.2778 -0.8811
vn -0.9239 -0.1151 -0.3650
vn 0.3827 -0.2778 -0.8811
vn 0.9239 0.1151 0.3650
vn -0.3827 0.2778 0.8811
vn -0.3721 0.8984 -0.2335
vt 0.546875 0.625000
vt 0.570312 0.640625
vt 0.546875 0.640625
vt 0.533203 0.437500
vt 0.515625 0.453125
vt 0.515625 0.437500
vt 0.570312 0.609375
vt 0.546875 0.609375
vt 0.564453 0.437500
vt 0.546875 0.453125
vt 0.546875 0.437500
vt 0.546875 0.687500
vt 0.570312 0.669922
vt 0.570312 0.687500
vt 0.328125 0.435547
vt 0.351562 0.453125
vt 0.351562 0.435547
vt 0.134766 0.687500
vt 0.000000 0.796875
vt 0.000000 0.687500
vt 0.034180 0.515625
vt 0.000000 0.625000
vt 0.000000 0.515625
vt 0.275391 0.687500
vt 0.140625 0.796875
vt 0.140625 0.687500
vt 0.081055 0.515625
vt 0.046875 0.625000
vt 0.046875 0.515625
vt 0.093750 0.687500
vt 0.228516 0.653320
vt 0.228516 0.687500
vt 0.234375 0.653320
vt 0.369141 0.687500
vt 0.369141 0.653320
vt 0.416016 0.937500
vt 0.281250 1.000000
vt 0.281250 0.937500
vt 0.466797 0.750000
vt 0.437500 0.812500
vt 0.437500 0.750000
vt 0.416016 0.875000
vt 0.281250 0.875000
vt 0.466797 0.687500
vt 0.437500 0.687500
vt 0.093750 0.640625
vt 0.228516 0.611328
vt 0.228516 0.640625
vt 0.234375 0.611328
vt 0.369141 0.640625
vt 0.369141 0.611328
vt 0.463867 0.945312
vt 0.421875 1.000000
vt 0.421875 0.945312
vt 0.362305 0.460938
vt 0.343750 0.515625
vt 0.343750 0.460938
vt 0.463867 0.882812
vt 0.421875 0.937500
vt 0.421875 0.882812
vt 0.502930 0.539062
vt 0.484375 0.593750
vt 0.484375 0.539062
vt 0.515625 0.937500
vt 0.557617 0.918945
vt 0.557617 0.937500
vt 0.515625 0.793945
vt 0.557617 0.812500
vt 0.557617 0.793945
vt 0.437500 0.648438
vt 0.479492 0.687500
vt 0.388672 0.429688
vt 0.375000 0.468750
vt 0.375000 0.429688
vt 0.479492 0.601562
vt 0.437500 0.640625
vt 0.437500 0.601562
vt 0.404297 0.429688
vt 0.390625 0.468750
vt 0.390625 0.429688
vt 0.531250 1.000000
vt 0.573242 0.986328
vt 0.573242 1.000000
vt 0.573242 0.970703
vt 0.531250 0.984375
vt 0.573242 0.984375
vt 0.437500 0.554688
vt 0.479492 0.593750
vt 0.437500 0.593750
vt 0.107422 0.414062
vt 0.093750 0.453125
vt 0.093750 0.414062
vt 0.437500 0.507812
vt 0.479492 0.546875
vt 0.437500 0.546875
vt 0.109375 0.414062
vt 0.123047 0.453125
vt 0.109375 0.453125
vt 0.531250 0.968750
vt 0.573242 0.955078
vt 0.573242 0.968750
vt 0.573242 0.939453
vt 0.531250 0.953125
vt 0.573242 0.953125
vt 0.229492 0.526367
vt 0.187500 0.578125
vt 0.187500 0.526367
vt 0.453125 0.448242
vt 0.437500 0.500000
vt 0.437500 0.448242
vt 0.234375 0.526367
vt 0.276367 0.578125
vt 0.234375 0.578125
vt 0.468750 0.500000
vt 0.453125 0.500000
vt 0.515625 0.531250
vt 0.557617 0.515625
vt 0.557617 0.531250
vt 0.515625 0.500000
vt 0.557617 0.500000
vt 0.125000 0.456055
vt 0.145508 0.515625
vt 0.125000 0.515625
vt 0.176758 0.456055
vt 0.156250 0.515625
vt 0.156250 0.456055
vt 0.208008 0.456055
vt 0.187500 0.515625
vt 0.187500 0.456055
vt 0.239258 0.456055
vt 0.218750 0.515625
vt 0.218750 0.456055
vt 0.171875 0.453125
vt 0.192383 0.432617
vt 0.192383 0.453125
vt 0.223633 0.432617
vt 0.203125 0.453125
vt 0.223633 0.453125
vt 0.270508 0.456055
vt 0.250000 0.515625
vt 0.250000 0.456055
vt 0.301758 0.456055
vt 0.281250 0.515625
vt 0.281250 0.456055
vt 0.484375 0.659180
vt 0.504883 0.718750
vt 0.484375 0.718750
vt 0.312500 0.456055
vt 0.333008 0.515625
vt 0.312500 0.515625
vt 0.254883 0.453125
vt 0.234375 0.432617
vt 0.254883 0.432617
vt 0.265625 0.432617
vt 0.286133 0.453125
vt 0.286133 0.432617
vt 0.135742 0.523438
vt 0.093750 0.578125
vt 0.093750 0.523438
vt 0.484375 0.476562
vt 0.502930 0.531250
vt 0.484375 0.531250
vt 0.140625 0.523438
vt 0.182617 0.578125
vt 0.140625 0.578125
vt 0.424805 0.445312
vt 0.406250 0.500000
vt 0.406250 0.445312
vt 0.557617 0.781250
vt 0.515625 0.762695
vt 0.557617 0.762695
vt 0.557617 0.731445
vt 0.515625 0.750000
vt 0.557617 0.750000
vt 0.510742 0.960938
vt 0.468750 1.000000
vt 0.468750 0.960938
vt 0.125000 0.414062
vt 0.138672 0.453125
vt 0.125000 0.453125
vt 0.468750 0.914062
vt 0.510742 0.953125
vt 0.468750 0.953125
vt 0.560547 0.835938
vt 0.546875 0.875000
vt 0.546875 0.835938
vt 0.526367 0.468750
vt 0.484375 0.455078
vt 0.526367 0.455078
vt 0.531250 0.455078
vt 0.573242 0.468750
vt 0.573242 0.455078
vt 0.510742 0.773438
vt 0.468750 0.812500
vt 0.468750 0.773438
vt 0.154297 0.414062
vt 0.140625 0.453125
vt 0.140625 0.414062
vt 0.510742 0.726562
vt 0.468750 0.765625
vt 0.468750 0.726562
vt 0.156250 0.414062
vt 0.169922 0.453125
vt 0.156250 0.453125
vt 0.041992 0.453125
vt 0.000000 0.439453
vt 0.041992 0.439453
vt 0.046875 0.439453
vt 0.088867 0.453125
vt 0.088867 0.439453
vt 0.281250 0.526367
vt 0.323242 0.578125
vt 0.281250 0.578125
vt 0.484375 0.448242
vt 0.468750 0.448242
vt 0.370117 0.526367
vt 0.328125 0.578125
vt 0.328125 0.526367
vt 0.515625 0.948242
vt 0.515625 1.000000
vt 0.557617 0.484375
vt 0.557617 0.468750
vt 0.515625 0.484375
vt 0.134766 0.810547
vt 0.000000 1.000000
vt 0.000000 0.810547
vt 0.393555 0.685547
vt 0.375000 0.875000
vt 0.375000 0.685547
vt 0.275391 0.810547
vt 0.140625 1.000000
vt 0.140625 0.810547
vt 0.393555 0.482422
vt 0.375000 0.671875
vt 0.375000 0.482422
vt 0.093750 0.609375
vt 0.228516 0.590820
vt 0.228516 0.609375
vt 0.234375 0.590820
vt 0.369141 0.609375
vt 0.369141 0.590820
vt 0.025391 0.458008
vt 0.000000 0.458008
vt 0.375000 0.817383
vt 0.281250 0.817383
vt 0.056641 0.458008
vt 0.031250 0.515625
vt 0.031250 0.458008
vt 0.375000 0.754883
vt 0.281250 0.812500
vt 0.281250 0.754883
vt 0.406250 0.875000
vt 0.431641 0.781250
vt 0.431641 0.875000
vt 0.406250 0.687500
vt 0.431641 0.687500
vt 0.087891 0.458008
vt 0.062500 0.515625
vt 0.062500 0.458008
vt 0.375000 0.692383
vt 0.281250 0.750000
vt 0.281250 0.692383
vt 0.119141 0.458008
vt 0.093750 0.515625
vt 0.093750 0.458008
vt 0.093750 0.629883
vt 0.000000 0.629883
vt 0.431641 0.593750
vt 0.431641 0.500000
vt 0.534180 0.632812
vt 0.484375 0.656250
vt 0.484375 0.632812
vt 0.474609 0.695312
vt 0.468750 0.718750
vt 0.468750 0.695312
vt 0.534180 0.601562
vt 0.484375 0.625000
vt 0.484375 0.601562
vt 0.365234 0.429688
vt 0.359375 0.453125
vt 0.359375 0.429688
vt 0.596680 0.603516
vt 0.596680 0.609375
vt 0.546875 0.587891
vt 0.596680 0.593750
vt 0.596680 0.587891
vt 0.515625 0.695312
vt 0.544922 0.718750
vt 0.515625 0.718750
vt 0.562500 0.851562
vt 0.568359 0.875000
vt 0.562500 0.875000
vt 0.544922 0.664062
vt 0.515625 0.687500
vt 0.515625 0.664062
vt 0.562500 0.789062
vt 0.568359 0.812500
vt 0.562500 0.812500
vt 0.000000 0.437500
vt 0.029297 0.431641
vt 0.029297 0.437500
vt 0.060547 0.431641
vt 0.031250 0.437500
vt 0.060547 0.437500
vt 0.544922 0.570312
vt 0.515625 0.593750
vt 0.515625 0.570312
vt 0.568359 0.757812
vt 0.562500 0.781250
vt 0.562500 0.757812
vt 0.515625 0.539062
vt 0.544922 0.562500
vt 0.515625 0.562500
vt 0.568359 0.726562
vt 0.562500 0.750000
vt 0.562500 0.726562
vt 0.062500 0.437500
vt 0.091797 0.431641
vt 0.091797 0.437500
vt 0.562500 0.931641
vt 0.591797 0.937500
vt 0.591797 0.931641
vt 0.572266 0.890625
vt 0.468750 0.906250
vt 0.468750 0.890625
vt 0.565430 0.562500
vt 0.546875 0.578125
vt 0.546875 0.562500
vt 0.572266 0.875000
vt 0.468750 0.875000
vt 0.565430 0.546875
vt 0.546875 0.546875
vt 0.437500 0.875000
vt 0.541016 0.856445
vt 0.541016 0.875000
vt 0.437500 0.825195
vt 0.541016 0.843750
vt 0.541016 0.825195
vt 0.570312 0.812500
vt 0.546875 0.828125
vt 0.546875 0.812500
vt 0.564453 0.531250
vt 0.546875 0.531250
vt 0.570312 0.656250
vt 0.546875 0.656250
vt 0.501953 0.437500
vt 0.484375 0.453125
vt 0.484375 0.437500
vt 0.546875 0.718750
vt 0.570312 0.701172
vt 0.570312 0.718750
vt 0.296875 0.435547
vt 0.320312 0.453125
vt 0.320312 0.435547
vt 0.570312 0.625000
vt 0.533203 0.453125
vt 0.564453 0.453125
vt 0.546875 0.669922
vt 0.328125 0.453125
vt 0.134766 0.796875
vt 0.034180 0.625000
vt 0.275391 0.796875
vt 0.081055 0.625000
vt 0.093750 0.653320
vt 0.234375 0.687500
vt 0.416016 1.000000
vt 0.466797 0.812500
vt 0.093750 0.611328
vt 0.234375 0.640625
vt 0.463867 1.000000
vt 0.362305 0.515625
vt 0.463867 0.937500
vt 0.502930 0.593750
vt 0.515625 0.918945
vt 0.515625 0.812500
vt 0.479492 0.648438
vt 0.388672 0.468750
vt 0.479492 0.640625
vt 0.404297 0.468750
vt 0.531250 0.986328
vt 0.531250 0.970703
vt 0.479492 0.554688
vt 0.107422 0.453125
vt 0.479492 0.507812
vt 0.123047 0.414062
vt 0.531250 0.955078
vt 0.531250 0.939453
vt 0.229492 0.578125
vt 0.276367 0.526367
vt 0.515625 0.515625
vt 0.145508 0.456055
vt 0.176758 0.515625
vt 0.208008 0.515625
vt 0.239258 0.515625
vt 0.171875 0.432617
vt 0.203125 0.432617
vt 0.270508 0.515625
vt 0.301758 0.515625
vt 0.504883 0.659180
vt 0.333008 0.456055
vt 0.234375 0.453125
vt 0.265625 0.453125
vt 0.135742 0.578125
vt 0.502930 0.476562
vt 0.182617 0.523438
vt 0.424805 0.500000
vt 0.515625 0.781250
vt 0.515625 0.731445
vt 0.510742 1.000000
vt 0.138672 0.414062
vt 0.510742 0.914062
vt 0.560547 0.875000
vt 0.484375 0.468750
vt 0.531250 0.468750
vt 0.510742 0.812500
vt 0.154297 0.453125
vt 0.510742 0.765625
vt 0.169922 0.414062
vt 0.000000 0.453125
vt 0.046875 0.453125
vt 0.323242 0.526367
vt 0.484375 0.500000
vt 0.370117 0.578125
vt 0.531250 0.948242
vt 0.515625 0.468750
vt 0.134766 1.000000
vt 0.393555 0.875000
vt 0.275391 1.000000
vt 0.393555 0.671875
vt 0.093750 0.590820
vt 0.234375 0.609375
vt 0.025391 0.515625
vt 0.056641 0.515625
vt 0.375000 0.812500
vt 0.406250 0.781250
vt 0.087891 0.515625
vt 0.375000 0.750000
vt 0.119141 0.515625
vt 0.406250 0.593750
vt 0.534180 0.656250
vt 0.474609 0.718750
vt 0.534180 0.625000
vt 0.365234 0.453125
vt 0.546875 0.603516
vt 0.546875 0.593750
vt 0.544922 0.695312
vt 0.568359 0.851562
vt 0.544922 0.687500
vt 0.568359 0.789062
vt 0.000000 0.431641
vt 0.031250 0.431641
vt 0.544922 0.593750
vt 0.568359 0.781250
vt 0.544922 0.539062
vt 0.568359 0.750000
vt 0.062500 0.431641
vt 0.562500 0.937500
vt 0.572266 0.906250
vt 0.565430 0.578125
vt 0.437500 0.856445
vt 0.437500 0.843750
vt 0.570312 0.828125
vt 0.564453 0.546875
vt 0.501953 0.453125
vt 0.546875 0.701172
vt 0.296875 0.453125
s 1
usemtl m_45a70fad-b609-8587-046e-620f2dba6b87
f 4/1/1 5/2/1 2/3/1
f 4/4/2 1/5/2 3/6/2
f 3/7/3 6/1/3 8/8/3
f 8/9/4 5/10/4 7/11/4
f 1/12/5 5/13/5 6/14/5
f 4/15/6 8/16/6 7/17/6
f 15/18/1 10/19/1 12/20/1
f 12/21/7 9/22/7 11/23/7
f 11/24/3 14/25/3 16/26/3
f 16/27/8 13/28/8 15/29/8
f 9/30/9 13/31/9 14/32/9
f 12/33/10 16/34/10 15/35/10
f 23/36/11 18/37/11 20/38/11
f 20/39/7 17/40/7 19/41/7
f 19/42/12 22/38/12 24/43/12
f 24/44/8 21/41/8 23/45/8
f 17/46/13 21/47/13 22/48/13
f 20/49/14 24/50/14 23/51/14
f 31/52/15 26/53/15 28/54/15
f 28/55/16 25/56/16 27/57/16
f 27/58/17 30/59/17 32/60/17
f 32/61/18 29/62/18 31/63/18
f 25/64/19 29/65/19 30/66/19
f 28/67/20 32/68/20 31/69/20
f 36/70/21 37/71/21 34/45/22
f 36/72/16 33/73/16 35/74/16
f 35/75/23 38/76/23 40/77/23
f 40/78/18 37/79/18 39/80/18
f 33/81/24 37/82/24 38/83/24
f 39/84/25 35/85/25 40/86/25
f 44/87/26 45/88/26 42/89/26
f 44/90/16 41/91/16 43/92/16
f 48/93/27 41/94/27 46/95/27
f 47/96/18 46/97/18 45/98/18
f 41/99/28 45/100/28 46/101/28
f 47/102/29 43/103/29 48/104/29
f 55/105/30 50/106/30 52/107/30
f 52/108/16 49/109/16 51/110/16
f 56/111/31 49/112/31 54/113/31
f 55/108/18 54/114/18 53/115/18
f 49/116/32 53/117/32 54/118/32
f 52/119/33 56/117/33 55/120/33
f 60/121/34 61/122/34 58/123/34
f 60/124/35 57/125/35 59/126/35
f 59/127/36 62/128/36 64/129/36
f 64/130/37 61/131/37 63/132/37
f 57/133/19 61/134/19 62/135/19
f 63/136/20 59/137/20 64/138/20
f 71/139/38 66/140/38 68/141/38
f 68/142/39 65/143/39 67/144/39
f 72/145/40 65/146/40 70/147/40
f 71/148/41 70/149/41 69/150/41
f 70/151/42 66/152/42 69/153/42
f 68/154/43 72/155/43 71/156/43
f 79/157/44 74/158/44 76/159/44
f 75/160/45 74/161/45 73/162/45
f 80/163/46 73/164/46 78/165/46
f 80/166/47 77/167/47 79/168/47
f 78/169/42 74/170/42 77/171/42
f 79/172/43 75/173/43 80/174/43
f 87/175/48 82/176/48 84/177/48
f 83/178/45 82/179/45 81/180/45
f 88/181/49 81/182/49 86/183/49
f 88/184/47 85/185/47 87/186/47
f 86/187/50 82/188/50 85/189/50
f 84/190/51 88/191/51 87/192/51
f 95/193/52 90/194/52 92/195/52
f 92/196/45 89/197/45 91/198/45
f 91/199/53 94/200/53 96/201/53
f 95/202/47 94/203/47 93/204/47
f 94/205/54 90/206/54 93/207/54
f 92/208/55 96/209/55 95/210/55
f 100/211/56 101/212/56 98/213/56
f 100/214/45 97/114/45 99/215/45
f 99/216/57 102/217/57 104/218/57
f 103/219/47 102/81/47 101/220/47
f 97/119/58 101/221/58 102/120/58
f 103/222/59 99/223/59 104/221/59
f 111/224/1 106/225/1 108/226/1
f 108/227/7 105/228/7 107/229/7
f 107/230/3 110/231/3 112/232/3
f 112/233/8 109/234/8 111/235/8
f 105/236/9 109/237/9 110/238/9
f 108/239/10 112/240/10 111/241/10
f 119/242/1 114/23/1 116/243/1
f 116/244/7 113/43/7 115/245/7
f 115/246/3 118/247/3 120/248/3
f 120/249/8 117/250/8 119/251/8
f 113/252/9 117/253/9 118/254/9
f 116/255/10 120/253/10 119/256/10
f 127/257/1 122/258/1 124/259/1
f 124/260/7 121/261/7 123/262/7
f 123/263/3 126/264/3 128/265/3
f 128/266/8 125/20/8 127/267/8
f 121/255/9 125/268/9 126/256/9
f 124/167/10 128/268/10 127/269/10
f 135/270/60 130/271/60 132/272/60
f 132/273/7 129/274/7 131/275/7
f 131/276/61 134/277/61 136/278/61
f 136/279/8 133/280/8 135/281/8
f 129/8/62 133/282/62 134/283/62
f 132/284/63 136/285/63 135/286/63
f 140/287/64 141/288/64 138/289/64
f 139/290/65 138/291/65 137/292/65
f 139/293/66 142/294/66 144/295/66
f 143/296/67 142/297/67 141/298/67
f 137/299/62 141/300/62 142/301/62
f 143/302/63 139/303/63 144/304/63
f 151/305/68 146/306/68 148/307/68
f 148/308/69 145/309/69 147/310/69
f 152/311/70 145/312/70 150/313/70
f 152/314/71 149/315/71 151/316/71
f 145/317/62 149/318/62 150/319/62
f 148/320/63 152/321/63 151/322/63
f 159/323/1 154/324/1 156/325/1
f 156/326/7 153/327/7 155/328/7
f 155/329/3 158/325/3 160/330/3
f 160/331/8 157/328/8 159/332/8
f 153/333/9 157/334/9 158/335/9
f 156/336/10 160/337/10 159/338/10
f 167/339/1 162/340/1 164/341/1
f 164/342/5 161/332/5 163/343/5
f 168/3/3 161/344/3 166/345/3
f 168/346/6 165/347/6 167/348/6
f 161/349/4 165/350/4 166/351/4
f 164/352/2 168/353/2 167/354/2
f 4/1/1 7/355/1 5/2/1
f 4/4/2 2/356/2 1/5/2
f 3/7/3 1/355/3 6/1/3
f 8/9/4 6/357/4 5/10/4
f 1/12/5 2/358/5 5/13/5
f 4/15/6 3/359/6 8/16/6
f 15/18/1 13/360/1 10/19/1
f 12/21/7 10/361/7 9/22/7
f 11/24/3 9/362/3 14/25/3
f 16/27/8 14/363/8 13/28/8
f 9/30/9 10/364/9 13/31/9
f 12/33/10 11/365/10 16/34/10
f 23/36/11 21/366/11 18/37/11
f 20/39/7 18/367/7 17/40/7
f 19/42/12 17/36/12 22/38/12
f 24/44/8 22/39/8 21/41/8
f 17/46/13 18/368/13 21/47/13
f 20/49/14 19/369/14 24/50/14
f 31/52/15 29/370/15 26/53/15
f 28/55/16 26/371/16 25/56/16
f 27/58/17 25/372/17 30/59/17
f 32/61/18 30/373/18 29/62/18
f 25/64/19 26/374/19 29/65/19
f 28/67/20 27/375/20 32/68/20
f 36/70/21 39/376/21 37/71/21
f 36/72/16 34/377/16 33/73/16
f 35/75/23 33/378/23 38/76/23
f 40/78/18 38/379/18 37/79/18
f 33/81/24 34/380/24 37/82/24
f 39/84/25 36/381/25 35/85/25
f 44/87/26 47/382/26 45/88/26
f 44/90/16 42/383/16 41/91/16
f 48/93/27 43/384/27 41/94/27
f 47/96/18 48/385/18 46/97/18
f 41/99/28 42/386/28 45/100/28
f 47/102/29 44/387/29 43/103/29
f 55/105/30 53/388/30 50/106/30
f 52/108/16 50/115/16 49/109/16
f 56/111/31 51/389/31 49/112/31
f 55/108/18 56/215/18 54/114/18
f 49/116/32 50/390/32 53/117/32
f 52/119/33 51/390/33 56/117/33
f 60/121/34 63/391/34 61/122/34
f 60/124/35 58/392/35 57/125/35
f 59/127/36 57/393/36 62/128/36
f 64/130/37 62/394/37 61/131/37
f 57/133/19 58/395/19 61/134/19
f 63/136/20 60/396/20 59/137/20
f 71/139/38 69/397/38 66/140/38
f 68/142/39 66/398/39 65/143/39
f 72/145/40 67/399/40 65/146/40
f 71/148/41 72/400/41 70/149/41
f 70/151/42 65/401/42 66/152/42
f 68/154/43 67/402/43 72/155/43
f 79/157/44 77/403/44 74/158/44
f 75/160/45 76/404/45 74/161/45
f 80/163/46 75/405/46 73/164/46
f 80/166/47 78/406/47 77/167/47
f 78/169/42 73/407/42 74/170/42
f 79/172/43 76/408/43 75/173/43
f 87/175/48 85/409/72 82/176/48
f 83/178/45 84/410/45 82/179/45
f 88/181/49 83/411/49 81/182/49
f 88/184/47 86/412/47 85/185/47
f 86/187/50 81/413/50 82/188/50
f 84/190/51 83/414/51 88/191/51
f 95/193/52 93/415/52 90/194/52
f 92/196/45 90/416/45 89/197/45
f 91/199/53 89/417/53 94/200/53
f 95/202/47 96/418/47 94/203/47
f 94/205/54 89/419/54 90/206/54
f 92/208/55 91/420/55 96/209/55
f 100/211/56 103/421/56 101/212/56
f 100/214/45 98/422/45 97/114/45
f 99/216/57 97/423/57 102/217/57
f 103/219/47 104/424/47 102/81/47
f 97/119/58 98/223/58 101/221/58
f 103/222/59 100/425/59 99/223/59
f 111/224/1 109/426/1 106/225/1
f 108/227/7 106/427/7 105/228/7
f 107/230/3 105/428/3 110/231/3
f 112/233/8 110/429/8 109/234/8
f 105/236/9 106/430/9 109/237/9
f 108/239/10 107/431/10 112/240/10
f 119/242/1 117/432/1 114/23/1
f 116/244/7 114/228/7 113/43/7
f 115/246/3 113/433/3 118/247/3
f 120/249/8 118/434/8 117/250/8
f 113/252/9 114/435/9 117/253/9
f 116/255/10 115/435/10 120/253/10
f 127/257/1 125/436/1 122/258/1
f 124/260/7 122/437/7 121/261/7
f 123/263/3 121/438/3 126/264/3
f 128/266/8 126/30/8 125/20/8
f 121/255/9 122/439/9 125/268/9
f 124/167/10 123/439/10 128/268/10
f 135/270/60 133/440/60 130/271/60
f 132/273/7 130/441/7 129/274/7
f 131/276/61 129/442/61 134/277/61
f 136/279/8 134/443/8 133/280/8
f 129/8/62 130/444/62 133/282/62
f 132/284/63 131/445/63 136/285/63
f 140/287/64 143/446/64 141/288/64
f 139/290/65 140/447/65 138/291/65
f 139/293/66 137/448/66 142/294/66
f 143/296/67 144/449/67 142/297/67
f 137/299/62 138/450/62 141/300/62
f 143/302/63 140/451/63 139/303/63
f 151/305/68 149/452/68 146/306/68
f 148/308/69 146/453/69 145/309/69
f 152/311/70 147/454/70 145/312/70
f 152/314/71 150/455/71 149/315/71
f 145/317/62 146/456/62 149/318/62
f 148/320/63 147/457/63 152/321/63
f 159/323/1 157/458/1 154/324/1
f 156/326/7 154/459/7 153/327/7
f 155/329/3 153/323/3 158/325/3
f 160/331/8 158/326/8 157/328/8
f 153/333/9 154/460/9 157/334/9
f 156/336/10 155/461/10 160/337/10
f 167/339/1 165/462/1 162/340/1
f 164/342/5 162/463/5 161/332/5
f 168/3/3 163/2/3 161/344/3
f 168/346/6 166/464/6 165/347/6
f 161/349/4 162/465/4 165/350/4
f 164/352/2 163/466/2 168/353/2
