# Blender 4.4.3
# www.blender.org
mtllib ratnik_advance.mtl
o ratnik_advance
v 0.208346 2.132617 -0.256250
v 0.208346 2.132617 -0.287500
v 0.201804 2.007788 -0.256250
v 0.201804 2.007788 -0.287500
v 0.164656 2.134907 -0.287500
v 0.164656 2.134907 -0.256250
v 0.158114 2.010078 -0.287500
v 0.158114 2.010078 -0.256250
v 0.268750 1.243432 -0.095260
v 0.268750 1.243432 -0.232760
v 0.268750 0.805932 -0.095260
v 0.268750 0.805932 -0.232760
v -0.268750 1.243432 -0.232760
v -0.268750 1.243432 -0.095260
v -0.268750 0.805932 -0.232760
v -0.268750 0.805932 -0.095260
v 0.268750 1.434538 -0.032338
v 0.268750 1.477094 -0.143201
v 0.268750 1.201142 -0.121930
v 0.268750 1.243699 -0.232793
v -0.268750 1.477094 -0.143201
v -0.268750 1.434538 -0.032338
v -0.268750 1.243699 -0.232793
v -0.268750 1.201142 -0.121930
v 0.340614 1.486212 -0.082124
v 0.351597 1.512728 -0.151415
v 0.263274 1.299497 -0.165836
v 0.274257 1.326014 -0.235127
v 0.195692 1.577306 -0.151415
v 0.184709 1.550790 -0.082124
v 0.118353 1.390591 -0.235127
v 0.107369 1.364075 -0.165836
v 0.344625 1.495895 0.013649
v 0.365556 1.546428 0.000517
v 0.330666 1.462196 -0.138284
v 0.351597 1.512728 -0.151415
v 0.209651 1.611005 0.000517
v 0.188720 1.560473 0.013649
v 0.195692 1.577306 -0.151415
v 0.174761 1.526774 -0.138284
v 0.334941 1.472517 0.146044
v 0.356202 1.523845 0.154844
v 0.344295 1.495099 -0.008282
v 0.365556 1.546428 0.000517
v 0.200297 1.588423 0.154844
v 0.179036 1.537095 0.146044
v 0.209651 1.611005 0.000517
v 0.188390 1.559677 -0.008282
v 0.356202 1.523845 0.154844
v 0.351433 1.512333 0.093598
v 0.278858 1.337121 0.195963
v 0.274089 1.325609 0.134718
v 0.195529 1.576911 0.093598
v 0.200297 1.588423 0.154844
v 0.118185 1.390186 0.134718
v 0.122953 1.401698 0.195963
v 0.341289 1.503900 -0.122201
v 0.394091 1.509597 -0.183691
v 0.257320 1.301181 -0.213089
v 0.310122 1.306878 -0.274578
v 0.339426 1.551544 -0.226747
v 0.286624 1.545847 -0.165257
v 0.255457 1.348825 -0.317634
v 0.202655 1.343128 -0.256144
v -0.286624 1.545847 -0.165257
v -0.339426 1.551544 -0.226747
v -0.202655 1.343128 -0.256144
v -0.255457 1.348825 -0.317634
v -0.394091 1.509597 -0.183691
v -0.341289 1.503900 -0.122201
v -0.310122 1.306878 -0.274578
v -0.257320 1.301181 -0.213089
v -0.184709 1.550790 -0.082124
v -0.195692 1.577306 -0.151415
v -0.107369 1.364075 -0.165836
v -0.118353 1.390591 -0.235127
v -0.351597 1.512728 -0.151415
v -0.340614 1.486212 -0.082124
v -0.274257 1.326014 -0.235127
v -0.263274 1.299497 -0.165836
v -0.188720 1.560473 0.013649
v -0.209651 1.611005 0.000517
v -0.174761 1.526774 -0.138284
v -0.195692 1.577306 -0.151415
v -0.365556 1.546428 0.000517
v -0.344625 1.495895 0.013649
v -0.351597 1.512728 -0.151415
v -0.330666 1.462196 -0.138284
v -0.179036 1.537095 0.146044
v -0.200297 1.588423 0.154844
v -0.188390 1.559677 -0.008282
v -0.209651 1.611005 0.000517
v -0.356202 1.523845 0.154844
v -0.334941 1.472517 0.146044
v -0.365556 1.546428 0.000517
v -0.344295 1.495099 -0.008282
v -0.200297 1.588423 0.154844
v -0.195529 1.576911 0.093598
v -0.122953 1.401698 0.195963
v -0.118185 1.390186 0.134718
v -0.351433 1.512333 0.093598
v -0.356202 1.523845 0.154844
v -0.274089 1.325609 0.134718
v -0.278858 1.337121 0.195963
v 0.268750 1.502697 0.196686
v 0.268750 1.502697 0.121686
v 0.268750 0.746448 0.196686
v 0.268750 0.746448 0.121686
v -0.268750 1.502697 0.121686
v -0.268750 1.502697 0.196686
v -0.268750 0.746448 0.121686
v -0.268750 0.746448 0.196686
v -0.231250 1.052698 0.153314
v -0.231250 1.052698 -0.221686
v -0.231250 0.821447 0.153314
v -0.231250 0.821447 -0.221686
v -0.331250 1.052698 -0.221686
v -0.331250 1.052698 0.153314
v -0.331250 0.821447 -0.221686
v -0.331250 0.821447 0.153314
v 0.331250 1.052698 0.153314
v 0.331250 1.052698 -0.221686
v 0.331250 0.821447 0.153314
v 0.331250 0.821447 -0.221686
v 0.231250 1.052698 -0.221686
v 0.231250 1.052698 0.153314
v 0.231250 0.821447 -0.221686
v 0.231250 0.821447 0.153314
v 0.100000 1.480137 0.239590
v 0.100000 1.472619 0.215747
v 0.100000 1.390726 0.267781
v 0.100000 1.383208 0.243938
v -0.100000 1.472619 0.215747
v -0.100000 1.480137 0.239590
v -0.100000 1.383208 0.243938
v -0.100000 1.390726 0.267781
v -0.102535 1.480217 0.239844
v -0.079438 1.477340 0.230719
v -0.102535 1.390806 0.268035
v -0.079438 1.387929 0.258910
v -0.124882 1.444350 0.126086
v -0.147979 1.447227 0.135211
v -0.124882 1.354939 0.154278
v -0.147979 1.357816 0.163402
v 0.147979 1.447227 0.135211
v 0.124882 1.444350 0.126086
v 0.147979 1.357816 0.163402
v 0.124882 1.354939 0.154278
v 0.079438 1.477340 0.230719
v 0.102535 1.480217 0.239844
v 0.079438 1.387929 0.258910
v 0.102535 1.390806 0.268035
v 0.206250 0.805932 -0.157760
v 0.206250 0.805932 -0.232760
v 0.206250 0.743432 -0.157760
v 0.206250 0.743432 -0.232760
v -0.206250 0.805932 -0.232760
v -0.206250 0.805932 -0.157760
v -0.206250 0.743432 -0.232760
v -0.206250 0.743432 -0.157760
v 0.225823 0.854166 -0.157760
v 0.225823 0.854166 -0.226510
v 0.270017 0.809972 -0.157760
v 0.270017 0.809972 -0.226510
v 0.159532 0.787875 -0.226510
v 0.159532 0.787875 -0.157760
v 0.203726 0.743681 -0.226510
v 0.203726 0.743681 -0.157760
v -0.159532 0.787875 -0.157760
v -0.159532 0.787875 -0.226510
v -0.203726 0.743681 -0.157760
v -0.203726 0.743681 -0.226510
v -0.225823 0.854166 -0.226510
v -0.225823 0.854166 -0.157760
v -0.270017 0.809972 -0.226510
v -0.270017 0.809972 -0.157760
v 0.206250 1.538277 -0.105842
v 0.206250 1.536804 -0.162073
v 0.206250 1.369585 -0.101425
v 0.206250 1.368112 -0.157656
v -0.206250 1.536804 -0.162073
v -0.206250 1.538277 -0.105842
v -0.206250 1.368112 -0.157656
v -0.206250 1.369585 -0.101425
v -0.184801 1.336813 -0.206250
v -0.184801 1.336813 -0.256250
v -0.113020 1.258477 -0.206250
v -0.113020 1.258477 -0.256250
v -0.263137 1.265031 -0.256250
v -0.263137 1.265031 -0.206250
v -0.191355 1.186696 -0.256250
v -0.191355 1.186696 -0.206250
v -0.113020 1.258477 -0.206250
v -0.113020 1.258477 -0.268750
v -0.100352 1.244653 -0.206250
v -0.100352 1.244653 -0.268750
v -0.191355 1.186696 -0.268750
v -0.191355 1.186696 -0.206250
v -0.178688 1.172872 -0.268750
v -0.178688 1.172872 -0.206250
v -0.197469 1.350637 -0.206250
v -0.197469 1.350637 -0.268750
v -0.184801 1.336813 -0.206250
v -0.184801 1.336813 -0.268750
v -0.275804 1.278855 -0.268750
v -0.275804 1.278855 -0.206250
v -0.263137 1.265031 -0.268750
v -0.263137 1.265031 -0.206250
v -0.276961 1.252364 -0.206250
v -0.276961 1.252364 -0.268750
v -0.263137 1.265031 -0.206250
v -0.263137 1.265031 -0.268750
v -0.205179 1.174029 -0.268750
v -0.205179 1.174029 -0.206250
v -0.191355 1.186696 -0.268750
v -0.191355 1.186696 -0.206250
v -0.184801 1.336813 -0.206250
v -0.184801 1.336813 -0.268750
v -0.170977 1.349480 -0.206250
v -0.170977 1.349480 -0.268750
v -0.113020 1.258477 -0.268750
v -0.113020 1.258477 -0.206250
v -0.099196 1.271145 -0.268750
v -0.099196 1.271145 -0.206250
v 0.081250 1.075000 -0.231250
v 0.081250 1.075000 -0.312500
v 0.081250 0.800000 -0.231250
v 0.081250 0.800000 -0.312500
v -0.081250 1.075000 -0.312500
v -0.081250 1.075000 -0.231250
v -0.081250 0.800000 -0.312500
v -0.081250 0.800000 -0.231250
v -0.085660 1.075000 -0.234307
v -0.096968 1.075000 -0.314766
v -0.085660 0.800000 -0.234307
v -0.096968 0.800000 -0.314766
v -0.257886 1.075000 -0.292150
v -0.246578 1.075000 -0.211691
v -0.257886 0.800000 -0.292150
v -0.246578 0.800000 -0.211691
v 0.062500 1.093465 -0.221744
v 0.062500 1.110830 -0.320225
v 0.062500 1.075000 -0.225000
v 0.062500 1.092365 -0.323481
v -0.062500 1.110830 -0.320225
v -0.062500 1.093465 -0.221744
v -0.062500 1.092365 -0.323481
v -0.062500 1.075000 -0.225000
v 0.062500 1.100818 -0.324982
v 0.062500 1.000913 -0.329344
v 0.062500 1.100000 -0.306250
v 0.062500 1.000095 -0.310612
v -0.062500 1.000913 -0.329344
v -0.062500 1.100818 -0.324982
v -0.062500 1.000095 -0.310612
v -0.062500 1.100000 -0.306250
v 0.253134 1.075000 -0.230319
v 0.248555 1.075000 -0.317699
v 0.253134 0.800000 -0.230319
v 0.248555 0.800000 -0.317699
v 0.086277 1.075000 -0.309195
v 0.090857 1.075000 -0.221815
v 0.086277 0.800000 -0.309195
v 0.090857 0.800000 -0.221815
v -0.112347 1.100007 -0.324482
v -0.119130 1.003007 -0.347827
v -0.112652 1.095640 -0.306250
v -0.119435 0.998640 -0.329595
v -0.243825 1.011726 -0.347827
v -0.237042 1.108726 -0.324482
v -0.244131 1.007360 -0.329595
v -0.237348 1.104360 -0.306250
v -0.111364 1.089060 -0.221744
v -0.110153 1.106383 -0.320225
v -0.112652 1.070640 -0.225000
v -0.111441 1.087963 -0.323481
v -0.234848 1.115102 -0.320225
v -0.236060 1.097780 -0.221744
v -0.236136 1.096682 -0.323481
v -0.237348 1.079360 -0.225000
v 0.250888 1.207348 -0.224847
v 0.255678 1.207097 -0.293430
v 0.229954 0.807896 -0.224847
v 0.234743 0.807645 -0.293430
v 0.106248 1.214929 -0.303893
v 0.101459 1.215180 -0.235311
v 0.085314 0.815477 -0.303893
v 0.080525 0.815728 -0.235311
v 0.240685 1.259143 -0.250000
v 0.240685 1.259143 -0.281250
v 0.237414 1.196729 -0.250000
v 0.237414 1.196729 -0.281250
v 0.209478 1.260779 -0.281250
v 0.209478 1.260779 -0.250000
v 0.206207 1.198364 -0.281250
v 0.206207 1.198364 -0.250000
v 0.156310 1.259143 -0.256250
v 0.156310 1.259143 -0.287500
v 0.153039 1.196729 -0.256250
v 0.153039 1.196729 -0.287500
v 0.125103 1.260779 -0.287500
v 0.125103 1.260779 -0.256250
v 0.121832 1.198364 -0.287500
v 0.121832 1.198364 -0.256250
v 0.202104 2.132944 -0.268750
v 0.202104 2.132944 -0.275000
v 0.156310 1.259143 -0.268750
v 0.156310 1.259143 -0.275000
v 0.170897 2.134580 -0.275000
v 0.170897 2.134580 -0.268750
v 0.125103 1.260779 -0.275000
v 0.125103 1.260779 -0.268750
vn -0.0000 -0.0000 -1.0000
vn 0.9986 -0.0523 -0.0000
vn -0.0000 -0.0000 1.0000
vn -0.9986 0.0523 -0.0000
vn 0.0523 0.9986 -0.0000
vn -0.0523 -0.9986 -0.0000
vn 1.0000 -0.0000 -0.0000
vn -1.0000 -0.0000 -0.0000
vn -0.0000 1.0000 -0.0000
vn -0.0000 -1.0000 -0.0000
vn -0.0000 0.3584 -0.9336
vn -0.0000 -0.3584 0.9336
vn -0.0000 0.9336 0.3584
vn -0.0000 -0.9336 -0.3584
vn 0.1464 0.3536 -0.9239
vn 0.9239 -0.3827 -0.0000
vn -0.1464 -0.3536 0.9239
vn -0.9239 0.3827 -0.0000
vn 0.3536 0.8536 0.3827
vn -0.3536 -0.8536 -0.3827
vn 0.3721 0.8984 -0.2334
vn 0.3721 0.8984 -0.2335
vn -0.3721 -0.8984 0.2334
vn 0.0893 0.2157 0.9724
vn -0.0893 -0.2157 -0.9724
vn 0.3780 0.9125 0.1564
vn -0.3780 -0.9125 -0.1564
vn -0.0599 -0.1445 0.9877
vn 0.0599 0.1445 -0.9877
vn -0.0763 -0.1842 -0.9799
vn 0.0763 0.1842 0.9799
vn 0.3750 0.9053 -0.1994
vn -0.3750 -0.9053 0.1994
vn 0.6499 0.0701 -0.7568
vn 0.6728 -0.5163 0.5299
vn -0.6499 -0.0701 0.7568
vn -0.6728 0.5163 -0.5299
vn -0.6499 0.0701 -0.7568
vn 0.6728 0.5163 -0.5299
vn 0.6499 -0.0701 0.7568
vn -0.6728 -0.5163 0.5299
vn -0.3536 0.8536 0.3827
vn 0.3536 -0.8536 -0.3827
vn -0.1464 0.3536 -0.9239
vn 0.9239 0.3827 -0.0000
vn 0.1464 -0.3536 0.9239
vn -0.9239 -0.3827 -0.0000
vn -0.3721 0.8984 -0.2334
vn 0.3721 -0.8984 0.2334
vn -0.0893 0.2157 0.9724
vn 0.0893 -0.2157 -0.9724
vn -0.3780 0.9125 0.1564
vn 0.3780 -0.9125 -0.1564
vn 0.0599 -0.1445 0.9877
vn -0.0599 0.1445 -0.9877
vn 0.0763 -0.1842 -0.9799
vn -0.0763 0.1842 0.9799
vn -0.3750 0.9053 -0.1994
vn 0.3750 -0.9053 0.1994
vn -0.0000 -0.3007 -0.9537
vn -0.0000 0.3007 0.9537
vn -0.0000 0.9537 -0.3007
vn -0.0000 -0.9537 0.3007
vn 0.9239 -0.1151 -0.3650
vn 0.3827 0.2778 0.8811
vn -0.9239 0.1151 0.3650
vn -0.3827 -0.2778 -0.8811
vn -0.9239 -0.1151 -0.3650
vn 0.3827 -0.2778 -0.8811
vn 0.9239 0.1151 0.3650
vn -0.3827 0.2778 0.8811
vn 0.7071 0.7071 -0.0000
vn -0.7071 -0.7071 -0.0000
vn -0.7071 0.7071 -0.0000
vn 0.7071 -0.7071 -0.0000
vn -0.0000 -0.0262 -0.9997
vn -0.0000 0.0262 0.9997
vn -0.0000 0.9997 -0.0262
vn -0.0000 -0.9997 0.0262
vn 0.7373 0.6756 -0.0000
vn -0.7373 -0.6756 -0.0000
vn -0.6756 0.7373 -0.0000
vn 0.6756 -0.7373 -0.0000
vn -0.1392 -0.0000 -0.9903
vn 0.9903 -0.0000 -0.1392
vn 0.1392 -0.0000 0.9903
vn -0.9903 -0.0000 0.1392
vn -0.0000 0.1737 -0.9848
vn -0.0000 -0.1737 0.9848
vn -0.0000 0.9848 0.1736
vn -0.0000 -0.9848 -0.1736
vn -0.0000 -0.9990 -0.0436
vn -0.0000 0.9990 0.0436
vn -0.0000 0.0436 -0.9990
vn -0.0000 -0.0436 0.9990
vn -0.0523 -0.0000 -0.9986
vn 0.9986 -0.0000 -0.0523
vn 0.0523 -0.0000 0.9986
vn -0.9986 -0.0000 0.0523
vn -0.0678 -0.9700 -0.2334
vn -0.0678 -0.9700 -0.2335
vn 0.9976 -0.0698 -0.0000
vn 0.0678 0.9700 0.2334
vn 0.0678 0.9700 0.2335
vn -0.9976 0.0698 -0.0000
vn 0.0163 0.2329 -0.9724
vn -0.0163 -0.2329 0.9724
vn 0.0121 0.1732 -0.9848
vn -0.0121 -0.1732 0.9848
vn 0.0687 0.9824 0.1736
vn -0.0687 -0.9824 -0.1736
vn 0.0697 -0.0037 -0.9976
vn 0.9962 -0.0522 0.0698
vn -0.0697 0.0037 0.9976
vn -0.9962 0.0522 -0.0698
vn 0.0524 0.9986 -0.0000
vn -0.0524 -0.9986 -0.0000
vn -0.3721 0.8984 -0.2335
vn 0.0687 0.9824 0.1737
vn -0.0687 -0.9824 -0.1737
vt 0.648438 0.578125
vt 0.640625 0.593750
vt 0.640625 0.578125
vt 0.429688 0.343750
vt 0.421875 0.359375
vt 0.421875 0.343750
vt 0.640625 0.562500
vt 0.648438 0.546875
vt 0.640625 0.546875
vt 0.656250 0.906250
vt 0.664062 0.898438
vt 0.664062 0.906250
vt 0.109375 0.335938
vt 0.117188 0.343750
vt 0.117188 0.335938
vt 0.134766 0.687500
vt 0.000000 0.796875
vt 0.000000 0.687500
vt 0.035156 0.515625
vt 0.000000 0.625000
vt 0.000000 0.515625
vt 0.275391 0.687500
vt 0.140625 0.796875
vt 0.140625 0.687500
vt 0.082031 0.515625
vt 0.046875 0.625000
vt 0.046875 0.515625
vt 0.093750 0.687500
vt 0.228516 0.652344
vt 0.228516 0.687500
vt 0.234375 0.652344
vt 0.369141 0.687500
vt 0.369141 0.652344
vt 0.416016 0.937500
vt 0.281250 1.000000
vt 0.281250 0.937500
vt 0.357422 0.468750
vt 0.328125 0.531250
vt 0.328125 0.468750
vt 0.416016 0.875000
vt 0.281250 0.875000
vt 0.498047 0.562500
vt 0.468750 0.625000
vt 0.468750 0.562500
vt 0.093750 0.640625
vt 0.228516 0.611328
vt 0.228516 0.640625
vt 0.234375 0.611328
vt 0.369141 0.640625
vt 0.369141 0.611328
vt 0.480469 0.507812
vt 0.437500 0.562500
vt 0.437500 0.507812
vt 0.566406 0.820312
vt 0.546875 0.875000
vt 0.546875 0.820312
vt 0.496094 0.945312
vt 0.453125 1.000000
vt 0.453125 0.945312
vt 0.160156 0.398438
vt 0.140625 0.453125
vt 0.140625 0.398438
vt 0.562500 0.625000
vt 0.605469 0.605469
vt 0.605469 0.625000
vt 0.562500 0.574219
vt 0.605469 0.593750
vt 0.605469 0.574219
vt 0.484375 0.523438
vt 0.527344 0.562500
vt 0.484375 0.562500
vt 0.529297 0.367188
vt 0.515625 0.406250
vt 0.515625 0.367188
vt 0.527344 0.476562
vt 0.484375 0.515625
vt 0.484375 0.476562
vt 0.294922 0.351562
vt 0.281250 0.390625
vt 0.281250 0.351562
vt 0.609375 0.843750
vt 0.652344 0.830078
vt 0.652344 0.843750
vt 0.652344 0.814453
vt 0.609375 0.828125
vt 0.652344 0.828125
vt 0.500000 0.960938
vt 0.542969 1.000000
vt 0.500000 1.000000
vt 0.310547 0.351562
vt 0.296875 0.390625
vt 0.296875 0.351562
vt 0.500000 0.914062
vt 0.542969 0.953125
vt 0.500000 0.953125
vt 0.312500 0.351562
vt 0.326172 0.390625
vt 0.312500 0.390625
vt 0.609375 0.812500
vt 0.652344 0.798828
vt 0.652344 0.812500
vt 0.652344 0.783203
vt 0.609375 0.796875
vt 0.652344 0.796875
vt 0.496094 0.761719
vt 0.453125 0.812500
vt 0.453125 0.761719
vt 0.453125 0.386719
vt 0.437500 0.437500
vt 0.437500 0.386719
vt 0.187500 0.480469
vt 0.230469 0.531250
vt 0.187500 0.531250
vt 0.468750 0.437500
vt 0.453125 0.437500
vt 0.468750 0.406250
vt 0.511719 0.390625
vt 0.511719 0.406250
vt 0.593750 0.515625
vt 0.636719 0.531250
vt 0.636719 0.515625
vt 0.406250 0.410156
vt 0.425781 0.468750
vt 0.406250 0.468750
vt 0.488281 0.410156
vt 0.468750 0.468750
vt 0.468750 0.410156
vt 0.550781 0.457031
vt 0.531250 0.515625
vt 0.531250 0.457031
vt 0.519531 0.410156
vt 0.500000 0.468750
vt 0.500000 0.410156
vt 0.593750 0.390625
vt 0.613281 0.371094
vt 0.613281 0.390625
vt 0.019531 0.355469
vt 0.000000 0.375000
vt 0.019531 0.375000
vt 0.566406 0.941406
vt 0.546875 1.000000
vt 0.546875 0.941406
vt 0.566406 0.878906
vt 0.546875 0.937500
vt 0.546875 0.878906
vt 0.078125 0.394531
vt 0.097656 0.453125
vt 0.078125 0.453125
vt 0.109375 0.394531
vt 0.128906 0.453125
vt 0.109375 0.453125
vt 0.644531 1.000000
vt 0.625000 0.980469
vt 0.644531 0.980469
vt 0.031250 0.355469
vt 0.050781 0.375000
vt 0.050781 0.355469
vt 0.496094 0.882812
vt 0.453125 0.937500
vt 0.453125 0.882812
vt 0.546875 0.664062
vt 0.566406 0.718750
vt 0.546875 0.718750
vt 0.453125 0.820312
vt 0.496094 0.875000
vt 0.453125 0.875000
vt 0.550781 0.398438
vt 0.531250 0.453125
vt 0.531250 0.398438
vt 0.605469 0.515625
vt 0.562500 0.496094
vt 0.605469 0.496094
vt 0.605469 0.464844
vt 0.562500 0.484375
vt 0.605469 0.484375
vt 0.121094 0.460938
vt 0.078125 0.500000
vt 0.078125 0.460938
vt 0.328125 0.351562
vt 0.341797 0.390625
vt 0.328125 0.390625
vt 0.500000 0.867188
vt 0.542969 0.906250
vt 0.500000 0.906250
vt 0.357422 0.351562
vt 0.343750 0.390625
vt 0.343750 0.351562
vt 0.652344 0.781250
vt 0.609375 0.767578
vt 0.652344 0.767578
vt 0.234375 0.376953
vt 0.277344 0.390625
vt 0.277344 0.376953
vt 0.167969 0.460938
vt 0.125000 0.500000
vt 0.125000 0.460938
vt 0.623047 0.617188
vt 0.609375 0.656250
vt 0.609375 0.617188
vt 0.542969 0.820312
vt 0.500000 0.859375
vt 0.500000 0.820312
vt 0.375000 0.351562
vt 0.388672 0.390625
vt 0.375000 0.390625
vt 0.652344 0.765625
vt 0.609375 0.751953
vt 0.652344 0.751953
vt 0.609375 0.736328
vt 0.652344 0.750000
vt 0.652344 0.736328
vt 0.234375 0.480469
vt 0.277344 0.531250
vt 0.234375 0.531250
vt 0.593750 0.855469
vt 0.578125 0.906250
vt 0.578125 0.855469
vt 0.324219 0.480469
vt 0.281250 0.531250
vt 0.281250 0.480469
vt 0.578125 0.667969
vt 0.593750 0.718750
vt 0.578125 0.718750
vt 0.593750 0.421875
vt 0.636719 0.406250
vt 0.636719 0.421875
vt 0.636719 0.390625
vt 0.593750 0.406250
vt 0.134766 0.810547
vt 0.000000 1.000000
vt 0.000000 0.810547
vt 0.394531 0.685547
vt 0.375000 0.875000
vt 0.375000 0.685547
vt 0.275391 0.810547
vt 0.140625 1.000000
vt 0.140625 0.810547
vt 0.394531 0.482422
vt 0.375000 0.671875
vt 0.375000 0.482422
vt 0.406250 0.718750
vt 0.541016 0.699219
vt 0.541016 0.718750
vt 0.406250 0.667969
vt 0.541016 0.687500
vt 0.541016 0.667969
vt 0.525391 0.566406
vt 0.500000 0.625000
vt 0.500000 0.566406
vt 0.375000 0.816406
vt 0.281250 0.816406
vt 0.462891 0.441406
vt 0.437500 0.500000
vt 0.437500 0.441406
vt 0.375000 0.753906
vt 0.281250 0.812500
vt 0.281250 0.753906
vt 0.406250 0.656250
vt 0.431641 0.562500
vt 0.431641 0.656250
vt 0.421875 0.906250
vt 0.447266 1.000000
vt 0.447266 0.906250
vt 0.197266 0.410156
vt 0.171875 0.468750
vt 0.171875 0.410156
vt 0.375000 0.691406
vt 0.281250 0.750000
vt 0.281250 0.691406
vt 0.228516 0.410156
vt 0.203125 0.468750
vt 0.203125 0.410156
vt 0.093750 0.628906
vt 0.000000 0.628906
vt 0.437500 0.656250
vt 0.462891 0.562500
vt 0.462891 0.656250
vt 0.431641 0.468750
vt 0.550781 0.757812
vt 0.500000 0.781250
vt 0.500000 0.757812
vt 0.271484 0.351562
vt 0.265625 0.375000
vt 0.265625 0.351562
vt 0.582031 0.523438
vt 0.531250 0.546875
vt 0.531250 0.523438
vt 0.443359 0.351562
vt 0.437500 0.375000
vt 0.437500 0.351562
vt 0.171875 0.375000
vt 0.222656 0.369141
vt 0.222656 0.375000
vt 0.625000 0.712891
vt 0.675781 0.718750
vt 0.675781 0.712891
vt 0.593750 0.695312
vt 0.623047 0.718750
vt 0.625000 0.539062
vt 0.630859 0.562500
vt 0.625000 0.562500
vt 0.623047 0.664062
vt 0.593750 0.687500
vt 0.593750 0.664062
vt 0.453125 0.351562
vt 0.458984 0.375000
vt 0.453125 0.375000
vt 0.625000 0.656250
vt 0.654297 0.650391
vt 0.654297 0.656250
vt 0.654297 0.634766
vt 0.625000 0.640625
vt 0.654297 0.640625
vt 0.435547 0.382812
vt 0.406250 0.406250
vt 0.406250 0.382812
vt 0.474609 0.351562
vt 0.468750 0.375000
vt 0.468750 0.351562
vt 0.593750 0.539062
vt 0.623047 0.562500
vt 0.593750 0.562500
vt 0.490234 0.351562
vt 0.484375 0.375000
vt 0.484375 0.351562
vt 0.625000 0.625000
vt 0.654297 0.619141
vt 0.654297 0.625000
vt 0.406250 0.369141
vt 0.435547 0.375000
vt 0.435547 0.369141
vt 0.603516 0.796875
vt 0.500000 0.812500
vt 0.500000 0.796875
vt 0.644531 0.859375
vt 0.625000 0.875000
vt 0.625000 0.859375
vt 0.603516 0.781250
vt 0.644531 0.843750
vt 0.625000 0.843750
vt 0.453125 0.750000
vt 0.556641 0.730469
vt 0.556641 0.750000
vt 0.468750 0.636719
vt 0.572266 0.656250
vt 0.572266 0.636719
vt 0.648438 0.953125
vt 0.625000 0.968750
vt 0.625000 0.953125
vt 0.251953 0.359375
vt 0.234375 0.375000
vt 0.234375 0.359375
vt 0.625000 0.937500
vt 0.642578 0.687500
vt 0.625000 0.703125
vt 0.625000 0.687500
vt 0.609375 0.484375
vt 0.632812 0.466797
vt 0.632812 0.484375
vt 0.531250 0.373047
vt 0.554688 0.390625
vt 0.554688 0.373047
vt 0.625000 0.921875
vt 0.648438 0.937500
vt 0.642578 0.671875
vt 0.625000 0.671875
vt 0.648438 0.906250
vt 0.625000 0.906250
vt 0.642578 0.656250
vt 0.609375 0.453125
vt 0.632812 0.435547
vt 0.632812 0.453125
vt 0.562500 0.373047
vt 0.585938 0.390625
vt 0.585938 0.373047
vt 0.199219 0.378906
vt 0.171875 0.406250
vt 0.171875 0.378906
vt 0.183594 0.472656
vt 0.171875 0.500000
vt 0.171875 0.472656
vt 0.230469 0.378906
vt 0.203125 0.406250
vt 0.203125 0.378906
vt 0.480469 0.472656
vt 0.468750 0.500000
vt 0.468750 0.472656
vt 0.652344 0.894531
vt 0.652344 0.906250
vt 0.625000 0.878906
vt 0.652344 0.890625
vt 0.652344 0.878906
vt 0.667969 0.542969
vt 0.640625 0.542969
vt 0.671875 0.996094
vt 0.656250 1.000000
vt 0.656250 0.996094
vt 0.640625 0.527344
vt 0.667969 0.531250
vt 0.640625 0.531250
vt 0.671875 0.980469
vt 0.656250 0.984375
vt 0.656250 0.980469
vt 0.562500 0.562500
vt 0.589844 0.546875
vt 0.589844 0.562500
vt 0.609375 0.718750
vt 0.636719 0.734375
vt 0.636719 0.718750
vt 0.640625 0.511719
vt 0.667969 0.515625
vt 0.640625 0.515625
vt 0.046875 0.339844
vt 0.031250 0.343750
vt 0.031250 0.339844
vt 0.667969 0.496094
vt 0.640625 0.500000
vt 0.640625 0.496094
vt 0.671875 0.964844
vt 0.656250 0.968750
vt 0.656250 0.964844
vt 0.609375 0.609375
vt 0.636719 0.593750
vt 0.636719 0.609375
vt 0.609375 0.578125
vt 0.636719 0.578125
vt 0.515625 0.355469
vt 0.542969 0.359375
vt 0.515625 0.359375
vt 0.062500 0.339844
vt 0.046875 0.343750
vt 0.667969 0.480469
vt 0.640625 0.484375
vt 0.640625 0.480469
vt 0.671875 0.949219
vt 0.656250 0.953125
vt 0.656250 0.949219
vt 0.636719 0.562500
vt 0.496094 0.390625
vt 0.496094 0.375000
vt 0.640625 0.464844
vt 0.667969 0.468750
vt 0.640625 0.468750
vt 0.671875 0.933594
vt 0.656250 0.937500
vt 0.656250 0.933594
vt 0.574219 0.355469
vt 0.546875 0.359375
vt 0.546875 0.355469
vt 0.093750 0.339844
vt 0.078125 0.343750
vt 0.078125 0.339844
vt 0.609375 0.515625
vt 0.636719 0.500000
vt 0.636719 0.484375
vt 0.228516 0.541016
vt 0.187500 0.609375
vt 0.187500 0.541016
vt 0.316406 0.400391
vt 0.296875 0.468750
vt 0.296875 0.400391
vt 0.275391 0.541016
vt 0.234375 0.609375
vt 0.234375 0.541016
vt 0.347656 0.400391
vt 0.328125 0.400391
vt 0.562500 0.453125
vt 0.603516 0.433594
vt 0.603516 0.453125
vt 0.578125 0.980469
vt 0.619141 1.000000
vt 0.619141 0.980469
vt 0.322266 0.541016
vt 0.281250 0.609375
vt 0.281250 0.541016
vt 0.394531 0.400391
vt 0.375000 0.468750
vt 0.375000 0.400391
vt 0.369141 0.541016
vt 0.328125 0.609375
vt 0.328125 0.541016
vt 0.550781 0.556641
vt 0.531250 0.625000
vt 0.531250 0.556641
vt 0.578125 0.968750
vt 0.619141 0.949219
vt 0.619141 0.968750
vt 0.578125 0.917969
vt 0.619141 0.937500
vt 0.619141 0.917969
vt 0.656250 0.386719
vt 0.625000 0.390625
vt 0.625000 0.386719
vt 0.640625 0.449219
vt 0.666016 0.453125
vt 0.640625 0.453125
vt 0.656250 0.371094
vt 0.625000 0.375000
vt 0.625000 0.371094
vt 0.666016 0.433594
vt 0.640625 0.437500
vt 0.640625 0.433594
vt 0.453125 0.880859
vt 0.453125 0.906250
vt 0.578125 0.818359
vt 0.609375 0.818359
vt 0.109375 0.355469
vt 0.078125 0.359375
vt 0.078125 0.355469
vt 0.578125 0.355469
vt 0.603516 0.359375
vt 0.578125 0.359375
vt 0.140625 0.355469
vt 0.109375 0.359375
vt 0.666016 0.417969
vt 0.640625 0.421875
vt 0.640625 0.417969
vt 0.578125 0.656250
vt 0.609375 0.630859
vt 0.562500 0.396484
vt 0.593750 0.396484
vt 0.447266 0.806641
vt 0.406250 0.875000
vt 0.406250 0.806641
vt 0.255859 0.400391
vt 0.234375 0.468750
vt 0.234375 0.400391
vt 0.447266 0.728516
vt 0.406250 0.796875
vt 0.406250 0.728516
vt 0.287109 0.400391
vt 0.265625 0.468750
vt 0.265625 0.400391
vt 0.562500 0.781250
vt 0.603516 0.759766
vt 0.562500 0.728516
vt 0.603516 0.750000
vt 0.603516 0.728516
vt 0.171875 0.355469
vt 0.140625 0.359375
vt 0.640625 0.402344
vt 0.666016 0.406250
vt 0.640625 0.406250
vt 0.203125 0.359375
vt 0.171875 0.359375
vt 0.634766 0.355469
vt 0.609375 0.359375
vt 0.609375 0.355469
vt 0.000000 0.406250
vt 0.031250 0.380859
vt 0.031250 0.406250
vt 0.062500 0.406250
vt 0.062500 0.380859
vt 0.203125 0.355469
vt 0.666016 0.355469
vt 0.640625 0.359375
vt 0.640625 0.355469
vt 0.234375 0.355469
vt 0.265625 0.359375
vt 0.025391 0.339844
vt 0.000000 0.343750
vt 0.000000 0.339844
vt 0.593750 0.906250
vt 0.625000 0.880859
vt 0.593750 0.849609
vt 0.625000 0.849609
vt 0.130859 0.509766
vt 0.093750 0.609375
vt 0.093750 0.509766
vt 0.017578 0.416016
vt 0.000000 0.416016
vt 0.177734 0.509766
vt 0.140625 0.609375
vt 0.140625 0.509766
vt 0.048828 0.416016
vt 0.031250 0.515625
vt 0.031250 0.416016
vt 0.115234 0.390625
vt 0.078125 0.373047
vt 0.115234 0.373047
vt 0.125000 0.373047
vt 0.162109 0.390625
vt 0.162109 0.373047
vt 0.085938 0.500000
vt 0.078125 0.515625
vt 0.648438 0.718750
vt 0.640625 0.734375
vt 0.640625 0.718750
vt 0.648438 0.609375
vt 0.640625 0.609375
vt 0.414062 0.343750
vt 0.406250 0.359375
vt 0.406250 0.343750
vt 0.656250 0.921875
vt 0.664062 0.914062
vt 0.664062 0.921875
vt 0.093750 0.335938
vt 0.101562 0.343750
vt 0.101562 0.335938
vt 0.367188 0.312500
vt 0.359375 0.531250
vt 0.359375 0.312500
vt 0.392578 0.171875
vt 0.390625 0.390625
vt 0.390625 0.171875
vt 0.070312 0.296875
vt 0.062500 0.515625
vt 0.062500 0.296875
vt 0.501953 0.171875
vt 0.500000 0.390625
vt 0.500000 0.171875
vt 0.656250 0.890625
vt 0.664062 0.888672
vt 0.664062 0.890625
vt 0.125000 0.341797
vt 0.132812 0.343750
vt 0.132812 0.341797
vt 0.648438 0.593750
vt 0.429688 0.359375
vt 0.648438 0.562500
vt 0.656250 0.898438
vt 0.109375 0.343750
vt 0.134766 0.796875
vt 0.035156 0.625000
vt 0.275391 0.796875
vt 0.082031 0.625000
vt 0.093750 0.652344
vt 0.234375 0.687500
vt 0.416016 1.000000
vt 0.357422 0.531250
vt 0.498047 0.625000
vt 0.093750 0.611328
vt 0.234375 0.640625
vt 0.480469 0.562500
vt 0.566406 0.875000
vt 0.496094 1.000000
vt 0.160156 0.453125
vt 0.562500 0.605469
vt 0.562500 0.593750
vt 0.527344 0.523438
vt 0.529297 0.406250
vt 0.527344 0.515625
vt 0.294922 0.390625
vt 0.609375 0.830078
vt 0.609375 0.814453
vt 0.542969 0.960938
vt 0.310547 0.390625
vt 0.542969 0.914062
vt 0.326172 0.351562
vt 0.609375 0.798828
vt 0.609375 0.783203
vt 0.496094 0.812500
vt 0.230469 0.480469
vt 0.468750 0.386719
vt 0.468750 0.390625
vt 0.593750 0.531250
vt 0.425781 0.410156
vt 0.488281 0.468750
vt 0.550781 0.515625
vt 0.519531 0.468750
vt 0.593750 0.371094
vt 0.000000 0.355469
vt 0.566406 1.000000
vt 0.566406 0.937500
vt 0.097656 0.394531
vt 0.128906 0.394531
vt 0.625000 1.000000
vt 0.031250 0.375000
vt 0.496094 0.937500
vt 0.566406 0.664062
vt 0.496094 0.820312
vt 0.550781 0.453125
vt 0.562500 0.515625
vt 0.562500 0.464844
vt 0.121094 0.500000
vt 0.341797 0.351562
vt 0.542969 0.867188
vt 0.357422 0.390625
vt 0.609375 0.781250
vt 0.234375 0.390625
vt 0.167969 0.500000
vt 0.623047 0.656250
vt 0.542969 0.859375
vt 0.388672 0.351562
vt 0.609375 0.765625
vt 0.609375 0.750000
vt 0.277344 0.480469
vt 0.324219 0.531250
vt 0.593750 0.667969
vt 0.134766 1.000000
vt 0.394531 0.875000
vt 0.275391 1.000000
vt 0.394531 0.671875
vt 0.406250 0.699219
vt 0.406250 0.687500
vt 0.525391 0.625000
vt 0.462891 0.500000
vt 0.375000 0.812500
vt 0.406250 0.562500
vt 0.421875 1.000000
vt 0.197266 0.468750
vt 0.375000 0.750000
vt 0.228516 0.468750
vt 0.550781 0.781250
vt 0.271484 0.375000
vt 0.582031 0.546875
vt 0.443359 0.375000
vt 0.171875 0.369141
vt 0.625000 0.718750
vt 0.623047 0.695312
vt 0.630859 0.539062
vt 0.623047 0.687500
vt 0.458984 0.351562
vt 0.625000 0.650391
vt 0.625000 0.634766
vt 0.435547 0.406250
vt 0.474609 0.375000
vt 0.623047 0.539062
vt 0.490234 0.375000
vt 0.625000 0.619141
vt 0.406250 0.375000
vt 0.603516 0.812500
vt 0.644531 0.875000
vt 0.453125 0.730469
vt 0.468750 0.656250
vt 0.648438 0.968750
vt 0.251953 0.375000
vt 0.642578 0.703125
vt 0.609375 0.466797
vt 0.531250 0.390625
vt 0.648438 0.921875
vt 0.609375 0.435547
vt 0.562500 0.390625
vt 0.199219 0.406250
vt 0.183594 0.500000
vt 0.230469 0.406250
vt 0.480469 0.500000
vt 0.625000 0.894531
vt 0.625000 0.890625
vt 0.667969 0.546875
vt 0.671875 1.000000
vt 0.667969 0.527344
vt 0.671875 0.984375
vt 0.562500 0.546875
vt 0.609375 0.734375
vt 0.667969 0.511719
vt 0.667969 0.500000
vt 0.671875 0.968750
vt 0.609375 0.593750
vt 0.542969 0.355469
vt 0.062500 0.343750
vt 0.667969 0.484375
vt 0.671875 0.953125
vt 0.609375 0.562500
vt 0.667969 0.464844
vt 0.671875 0.937500
vt 0.574219 0.359375
vt 0.093750 0.343750
vt 0.609375 0.500000
vt 0.228516 0.609375
vt 0.316406 0.468750
vt 0.275391 0.609375
vt 0.347656 0.468750
vt 0.562500 0.433594
vt 0.578125 1.000000
vt 0.322266 0.609375
vt 0.394531 0.468750
vt 0.369141 0.609375
vt 0.550781 0.625000
vt 0.578125 0.949219
vt 0.578125 0.937500
vt 0.656250 0.390625
vt 0.666016 0.449219
vt 0.656250 0.375000
vt 0.666016 0.437500
vt 0.421875 0.880859
vt 0.578125 0.843750
vt 0.603516 0.355469
vt 0.666016 0.421875
vt 0.578125 0.630859
vt 0.562500 0.421875
vt 0.447266 0.875000
vt 0.255859 0.468750
vt 0.447266 0.796875
vt 0.287109 0.468750
vt 0.562500 0.759766
vt 0.562500 0.750000
vt 0.666016 0.402344
vt 0.634766 0.359375
vt 0.000000 0.380859
vt 0.666016 0.359375
vt 0.265625 0.355469
vt 0.025391 0.343750
vt 0.593750 0.880859
vt 0.593750 0.875000
vt 0.130859 0.609375
vt 0.017578 0.515625
vt 0.177734 0.609375
vt 0.048828 0.515625
vt 0.078125 0.390625
vt 0.125000 0.390625
vt 0.085938 0.515625
vt 0.648438 0.734375
vt 0.414062 0.359375
vt 0.656250 0.914062
vt 0.367188 0.531250
vt 0.392578 0.390625
vt 0.070312 0.515625
vt 0.501953 0.390625
vt 0.656250 0.888672
vt 0.125000 0.343750
s 1
usemtl m_f852838a-e133-9b5e-6766-725d1f1ee5a7
f 7/1/1 2/2/1 4/3/1
f 4/4/2 1/5/2 3/6/2
f 8/7/3 1/1/3 6/3/3
f 8/8/4 5/7/4 7/9/4
f 1/10/5 5/11/5 6/12/5
f 4/13/6 8/14/6 7/15/6
f 15/16/1 10/17/1 12/18/1
f 12/19/7 9/20/7 11/21/7
f 11/22/3 14/23/3 16/24/3
f 16/25/8 13/26/8 15/27/8
f 9/28/9 13/29/9 14/30/9
f 12/31/10 16/32/10 15/33/10
f 23/34/11 18/35/11 20/36/11
f 20/37/7 17/38/7 19/39/7
f 19/40/12 22/36/12 24/41/12
f 24/42/8 21/43/8 23/44/8
f 17/45/13 21/46/13 22/47/13
f 20/48/14 24/49/14 23/50/14
f 31/51/15 26/52/15 28/53/15
f 28/54/16 25/55/16 27/56/16
f 27/57/17 30/58/17 32/59/17
f 32/60/18 29/61/18 31/62/18
f 25/63/19 29/64/19 30/65/19
f 28/66/20 32/67/20 31/68/20
f 36/69/21 37/70/21 34/71/22
f 36/72/16 33/73/16 35/74/16
f 35/75/23 38/76/23 40/77/23
f 40/78/18 37/79/18 39/80/18
f 33/81/24 37/82/24 38/83/24
f 39/84/25 35/85/25 40/86/25
f 44/87/26 45/88/26 42/89/26
f 44/90/16 41/91/16 43/92/16
f 48/93/27 41/94/27 46/95/27
f 47/96/18 46/97/18 45/98/18
f 41/99/28 45/100/28 46/101/28
f 47/102/29 43/103/29 48/104/29
f 55/105/30 50/106/30 52/107/30
f 52/108/16 49/109/16 51/110/16
f 56/111/31 49/112/31 54/113/31
f 55/108/18 54/114/18 53/115/18
f 49/116/32 53/117/32 54/118/32
f 52/119/33 56/120/33 55/121/33
f 60/122/34 61/123/34 58/124/34
f 60/125/35 57/126/35 59/127/35
f 59/128/36 62/129/36 64/130/36
f 64/131/37 61/132/37 63/133/37
f 57/134/19 61/135/19 62/136/19
f 63/137/20 59/138/20 64/139/20
f 71/140/38 66/141/38 68/142/38
f 68/143/39 65/144/39 67/145/39
f 72/146/40 65/147/40 70/148/40
f 71/149/41 70/150/41 69/151/41
f 70/152/42 66/153/42 69/154/42
f 68/155/43 72/156/43 71/157/43
f 79/158/44 74/159/44 76/160/44
f 75/161/45 74/162/45 73/163/45
f 80/164/46 73/165/46 78/166/46
f 80/167/47 77/168/47 79/169/47
f 78/170/42 74/171/42 77/172/42
f 79/173/43 75/174/43 80/175/43
f 87/176/48 82/177/48 84/178/48
f 83/179/45 82/180/45 81/181/45
f 88/182/49 81/183/49 86/184/49
f 88/185/47 85/186/47 87/187/47
f 86/188/50 82/189/50 85/190/50
f 84/191/51 88/192/51 87/193/51
f 95/194/52 90/195/52 92/196/52
f 92/197/45 89/198/45 91/199/45
f 91/200/53 94/201/53 96/202/53
f 95/203/47 94/204/47 93/205/47
f 94/206/54 90/207/54 93/208/54
f 92/209/55 96/210/55 95/211/55
f 100/212/56 101/213/56 98/214/56
f 100/215/45 97/216/45 99/217/45
f 99/218/57 102/219/57 104/220/57
f 103/221/47 102/222/47 101/223/47
f 97/224/58 101/225/58 102/226/58
f 103/227/59 99/228/59 104/225/59
f 111/229/1 106/230/1 108/231/1
f 108/232/7 105/233/7 107/234/7
f 107/235/3 110/236/3 112/237/3
f 112/238/8 109/239/8 111/240/8
f 105/241/9 109/242/9 110/243/9
f 108/244/10 112/245/10 111/246/10
f 119/247/1 114/248/1 116/249/1
f 116/250/7 113/41/7 115/251/7
f 115/252/3 118/253/3 120/254/3
f 120/255/8 117/256/8 119/257/8
f 113/258/9 117/259/9 118/260/9
f 116/261/10 120/262/10 119/263/10
f 127/264/1 122/265/1 124/266/1
f 124/267/7 121/268/7 123/269/7
f 123/270/3 126/271/3 128/272/3
f 128/273/8 125/18/8 127/274/8
f 121/275/9 125/276/9 126/277/9
f 124/124/10 128/259/10 127/278/10
f 135/279/60 130/280/60 132/281/60
f 132/282/7 129/283/7 131/284/7
f 131/285/61 134/286/61 136/287/61
f 136/288/8 133/289/8 135/290/8
f 129/291/62 133/292/62 134/293/62
f 132/294/63 136/295/63 135/296/63
f 140/297/64 141/298/64 138/222/64
f 139/299/65 138/300/65 137/301/65
f 139/302/66 142/303/66 144/304/66
f 143/305/67 142/306/67 141/307/67
f 137/308/62 141/309/62 142/310/62
f 143/311/63 139/312/63 144/313/63
f 151/314/68 146/315/68 148/316/68
f 148/317/69 145/318/69 147/319/69
f 152/320/70 145/321/70 150/322/70
f 152/323/71 149/324/71 151/325/71
f 145/326/62 149/327/62 150/328/62
f 148/329/63 152/330/63 151/331/63
f 159/332/1 154/333/1 156/334/1
f 156/335/7 153/336/7 155/337/7
f 155/338/3 158/334/3 160/280/3
f 160/339/8 157/337/8 159/340/8
f 153/341/9 157/342/9 158/343/9
f 156/344/10 160/345/10 159/346/10
f 167/347/1 162/348/1 164/349/1
f 164/350/72 161/351/72 163/352/72
f 168/353/3 161/347/3 166/349/3
f 168/354/73 165/355/73 167/356/73
f 161/357/74 165/358/74 166/359/74
f 164/360/75 168/361/75 167/362/75
f 172/363/1 173/364/1 170/353/1
f 172/365/75 169/356/75 171/366/75
f 171/367/3 174/363/3 176/368/3
f 176/369/74 173/366/74 175/308/74
f 169/370/72 173/371/72 174/372/72
f 172/373/73 176/374/73 175/375/73
f 183/34/76 178/35/76 180/36/76
f 180/37/7 177/38/7 179/39/7
f 179/40/77 182/36/77 184/41/77
f 184/42/8 181/43/8 183/44/8
f 177/45/78 181/46/78 182/47/78
f 180/48/79 184/49/79 183/50/79
f 191/376/1 186/377/1 188/378/1
f 188/379/80 185/380/80 187/381/80
f 187/382/3 190/383/3 192/384/3
f 192/385/81 189/386/81 191/387/81
f 185/368/82 189/388/82 190/389/82
f 188/390/83 192/391/83 191/392/83
f 199/393/1 194/9/1 196/394/1
f 196/395/80 193/396/80 195/397/80
f 200/398/3 193/399/3 198/400/3
f 200/401/81 197/402/81 199/403/81
f 193/404/82 197/405/82 198/406/82
f 196/407/83 200/408/83 199/409/83
f 204/410/1 205/411/1 202/412/1
f 204/413/80 201/414/80 203/415/80
f 203/416/3 206/417/3 208/418/3
f 208/419/81 205/420/81 207/421/81
f 201/422/82 205/423/82 206/424/82
f 204/425/83 208/423/83 207/426/83
f 212/427/1 213/428/1 210/429/1
f 212/430/82 209/431/82 211/413/82
f 211/432/3 214/433/3 216/434/3
f 216/435/83 213/436/83 215/437/83
f 209/425/81 213/438/81 214/426/81
f 212/318/80 216/439/80 215/440/80
f 220/441/1 221/442/1 218/443/1
f 220/444/82 217/445/82 219/446/82
f 219/447/3 222/448/3 224/449/3
f 224/450/83 221/451/83 223/452/83
f 217/453/81 221/454/81 222/121/81
f 220/357/80 224/454/80 223/455/80
f 231/456/1 226/457/1 228/458/1
f 228/459/7 225/460/7 227/461/7
f 227/462/3 230/463/3 232/464/3
f 232/465/8 229/39/8 231/466/8
f 225/467/9 229/468/9 230/469/9
f 228/470/10 232/471/10 231/472/10
f 239/473/84 234/474/84 236/475/84
f 236/476/85 233/477/85 235/478/85
f 235/479/86 238/480/86 240/481/86
f 240/482/87 237/483/87 239/484/87
f 233/485/9 237/486/9 238/487/9
f 236/488/10 240/489/10 239/490/10
f 247/491/88 242/492/88 244/493/88
f 243/494/7 242/495/7 241/496/7
f 243/497/89 246/498/89 248/499/89
f 248/500/8 245/501/8 247/502/8
f 241/261/90 245/503/90 246/504/90
f 244/505/91 248/81/91 247/506/91
f 255/507/92 250/508/92 252/509/92
f 251/510/7 250/511/7 249/512/7
f 251/513/93 254/514/93 256/507/93
f 256/515/8 253/516/8 255/517/8
f 249/518/94 253/519/94 254/198/94
f 252/520/95 256/224/95 255/521/95
f 263/522/96 258/523/96 260/524/96
f 260/525/97 257/526/97 259/527/97
f 259/528/98 262/529/98 264/530/98
f 264/531/99 261/532/99 263/533/99
f 257/534/9 261/535/9 262/338/9
f 260/536/10 264/537/10 263/538/10
f 271/539/100 266/540/101 268/513/101
f 267/541/102 266/542/102 265/543/102
f 272/539/103 265/544/104 270/545/103
f 272/546/105 269/547/105 271/548/105
f 265/549/106 269/550/106 270/551/106
f 268/550/107 272/552/107 271/553/107
f 276/554/108 277/352/108 274/544/108
f 276/555/102 273/556/102 275/557/102
f 280/558/109 273/559/109 278/352/109
f 280/560/105 277/561/105 279/562/105
f 273/563/110 277/564/110 278/368/110
f 276/565/111 280/336/111 279/566/111
f 287/567/112 282/568/112 284/569/112
f 284/570/113 281/21/113 283/571/113
f 283/572/114 286/573/114 288/574/114
f 288/575/115 285/576/115 287/577/115
f 286/578/5 282/579/5 285/580/5
f 284/581/6 288/582/6 287/583/6
f 295/584/1 290/585/1 292/177/1
f 292/586/2 289/587/2 291/588/2
f 296/2/3 289/589/3 294/590/3
f 296/591/4 293/592/4 295/593/4
f 289/594/116 293/595/116 294/596/116
f 292/597/6 296/598/6 295/599/6
f 303/1/1 298/2/1 300/3/1
f 300/4/2 297/5/2 299/6/2
f 304/7/3 297/1/3 302/3/3
f 304/8/4 301/7/4 303/9/4
f 297/10/116 301/11/116 302/12/116
f 300/13/6 304/14/6 303/15/6
f 311/600/1 306/601/1 308/602/1
f 308/603/2 305/604/2 307/605/2
f 307/606/3 310/607/3 312/608/3
f 312/609/4 309/610/4 311/611/4
f 305/612/5 309/613/5 310/614/5
f 308/615/117 312/616/117 311/617/117
f 7/1/1 5/618/1 2/2/1
f 4/4/2 2/619/2 1/5/2
f 8/7/3 3/620/3 1/1/3
f 8/8/4 6/620/4 5/7/4
f 1/10/5 2/621/5 5/11/5
f 4/13/6 3/622/6 8/14/6
f 15/16/1 13/623/1 10/17/1
f 12/19/7 10/624/7 9/20/7
f 11/22/3 9/625/3 14/23/3
f 16/25/8 14/626/8 13/26/8
f 9/28/9 10/627/9 13/29/9
f 12/31/10 11/628/10 16/32/10
f 23/34/11 21/629/11 18/35/11
f 20/37/7 18/630/7 17/38/7
f 19/40/12 17/34/12 22/36/12
f 24/42/8 22/631/8 21/43/8
f 17/45/13 18/632/13 21/46/13
f 20/48/14 19/633/14 24/49/14
f 31/51/15 29/634/15 26/52/15
f 28/54/16 26/635/16 25/55/16
f 27/57/17 25/636/17 30/58/17
f 32/60/18 30/637/18 29/61/18
f 25/63/19 26/638/19 29/64/19
f 28/66/20 27/639/20 32/67/20
f 36/69/21 39/640/21 37/70/21
f 36/72/16 34/641/16 33/73/16
f 35/75/23 33/642/23 38/76/23
f 40/78/18 38/643/18 37/79/18
f 33/81/24 34/644/24 37/82/24
f 39/84/25 36/645/25 35/85/25
f 44/87/26 47/646/26 45/88/26
f 44/90/16 42/647/16 41/91/16
f 48/93/27 43/648/27 41/94/27
f 47/96/18 48/649/18 46/97/18
f 41/99/28 42/650/28 45/100/28
f 47/102/29 44/651/29 43/103/29
f 55/105/30 53/652/30 50/106/30
f 52/108/16 50/115/16 49/109/16
f 56/111/31 51/653/31 49/112/31
f 55/108/18 56/654/18 54/114/18
f 49/116/32 50/655/32 53/117/32
f 52/119/33 51/656/33 56/120/33
f 60/122/34 63/657/34 61/123/34
f 60/125/35 58/658/35 57/126/35
f 59/128/36 57/659/36 62/129/36
f 64/131/37 62/660/37 61/132/37
f 57/134/19 58/661/19 61/135/19
f 63/137/20 60/662/20 59/138/20
f 71/140/38 69/663/38 66/141/38
f 68/143/39 66/664/39 65/144/39
f 72/146/40 67/665/40 65/147/40
f 71/149/41 72/666/41 70/150/41
f 70/152/42 65/667/42 66/153/42
f 68/155/43 67/668/43 72/156/43
f 79/158/44 77/669/44 74/159/44
f 75/161/45 76/670/45 74/162/45
f 80/164/46 75/671/46 73/165/46
f 80/167/47 78/672/47 77/168/47
f 78/170/42 73/673/42 74/171/42
f 79/173/43 76/674/43 75/174/43
f 87/176/48 85/675/118 82/177/48
f 83/179/45 84/676/45 82/180/45
f 88/182/49 83/677/49 81/183/49
f 88/185/47 86/678/47 85/186/47
f 86/188/50 81/679/50 82/189/50
f 84/191/51 83/680/51 88/192/51
f 95/194/52 93/681/52 90/195/52
f 92/197/45 90/682/45 89/198/45
f 91/200/53 89/683/53 94/201/53
f 95/203/47 96/684/47 94/204/47
f 94/206/54 89/685/54 90/207/54
f 92/209/55 91/686/55 96/210/55
f 100/212/56 103/687/56 101/213/56
f 100/215/45 98/563/45 97/216/45
f 99/218/57 97/688/57 102/219/57
f 103/221/47 104/689/47 102/222/47
f 97/224/58 98/228/58 101/225/58
f 103/227/59 100/134/59 99/228/59
f 111/229/1 109/690/1 106/230/1
f 108/232/7 106/691/7 105/233/7
f 107/235/3 105/692/3 110/236/3
f 112/238/8 110/693/8 109/239/8
f 105/241/9 106/694/9 109/242/9
f 108/244/10 107/695/10 112/245/10
f 119/247/1 117/696/1 114/248/1
f 116/250/7 114/233/7 113/41/7
f 115/252/3 113/697/3 118/253/3
f 120/255/8 118/698/8 117/256/8
f 113/258/9 114/699/9 117/259/9
f 116/261/10 115/700/10 120/262/10
f 127/264/1 125/701/1 122/265/1
f 124/267/7 122/702/7 121/268/7
f 123/270/3 121/703/3 126/271/3
f 128/273/8 126/28/8 125/18/8
f 121/275/9 122/52/9 125/276/9
f 124/124/10 123/699/10 128/259/10
f 135/279/60 133/704/60 130/280/60
f 132/282/7 130/705/7 129/283/7
f 131/285/61 129/706/61 134/286/61
f 136/288/8 134/707/8 133/289/8
f 129/291/62 130/708/62 133/292/62
f 132/294/63 131/709/63 136/295/63
f 140/297/64 143/710/64 141/298/64
f 139/299/65 140/711/65 138/300/65
f 139/302/66 137/712/66 142/303/66
f 143/305/67 144/713/67 142/306/67
f 137/308/62 138/714/62 141/309/62
f 143/311/63 140/715/63 139/312/63
f 151/314/68 149/716/68 146/315/68
f 148/317/69 146/717/69 145/318/69
f 152/320/70 147/718/70 145/321/70
f 152/323/71 150/719/71 149/324/71
f 145/326/62 146/720/62 149/327/62
f 148/329/63 147/721/63 152/330/63
f 159/332/1 157/722/1 154/333/1
f 156/335/7 154/723/7 153/336/7
f 155/338/3 153/332/3 158/334/3
f 160/339/8 158/335/8 157/337/8
f 153/341/9 154/724/9 157/342/9
f 156/344/10 155/725/10 160/345/10
f 167/347/1 165/726/1 162/348/1
f 164/350/72 162/727/72 161/351/72
f 168/353/3 163/364/3 161/347/3
f 168/354/73 166/728/73 165/355/73
f 161/357/74 162/729/74 165/358/74
f 164/360/75 163/730/75 168/361/75
f 172/363/1 175/731/1 173/364/1
f 172/365/75 170/354/75 169/356/75
f 171/367/3 169/731/3 174/363/3
f 176/369/74 174/365/74 173/366/74
f 169/370/72 170/732/72 173/371/72
f 172/373/73 171/733/73 176/374/73
f 183/34/76 181/629/76 178/35/76
f 180/37/7 178/630/7 177/38/7
f 179/40/77 177/34/77 182/36/77
f 184/42/8 182/631/8 181/43/8
f 177/45/78 178/632/78 181/46/78
f 180/48/79 179/633/79 184/49/79
f 191/376/1 189/734/1 186/377/1
f 188/379/80 186/735/80 185/380/80
f 187/382/3 185/736/3 190/383/3
f 192/385/81 190/737/81 189/386/81
f 185/368/82 186/738/82 189/388/82
f 188/390/83 187/739/83 192/391/83
f 199/393/1 197/740/1 194/9/1
f 196/395/80 194/741/80 193/396/80
f 200/398/3 195/742/3 193/399/3
f 200/401/81 198/743/81 197/402/81
f 193/404/82 194/744/82 197/405/82
f 196/407/83 195/745/83 200/408/83
f 204/410/1 207/746/1 205/411/1
f 204/413/80 202/431/80 201/414/80
f 203/416/3 201/747/3 206/417/3
f 208/419/81 206/748/81 205/420/81
f 201/422/82 202/749/82 205/423/82
f 204/425/83 203/749/83 208/423/83
f 212/427/1 215/750/1 213/428/1
f 212/430/82 210/751/82 209/431/82
f 211/432/3 209/752/3 214/433/3
f 216/435/83 214/753/83 213/436/83
f 209/425/81 210/754/81 213/438/81
f 212/318/80 211/655/80 216/439/80
f 220/441/1 223/755/1 221/442/1
f 220/444/82 218/756/82 217/445/82
f 219/447/3 217/757/3 222/448/3
f 224/450/83 222/758/83 221/451/83
f 217/453/81 218/759/81 221/454/81
f 220/357/80 219/759/80 224/454/80
f 231/456/1 229/760/1 226/457/1
f 228/459/7 226/761/7 225/460/7
f 227/462/3 225/762/3 230/463/3
f 232/465/8 230/763/8 229/39/8
f 225/467/9 226/764/9 229/468/9
f 228/470/10 227/765/10 232/471/10
f 239/473/84 237/766/84 234/474/84
f 236/476/85 234/767/85 233/477/85
f 235/479/86 233/768/86 238/480/86
f 240/482/87 238/769/87 237/483/87
f 233/485/9 234/770/9 237/486/9
f 236/488/10 235/771/10 240/489/10
f 247/491/88 245/772/88 242/492/88
f 243/494/7 244/773/7 242/495/7
f 243/497/89 241/774/89 246/498/89
f 248/500/8 246/775/8 245/501/8
f 241/261/90 242/776/90 245/503/90
f 244/505/91 243/777/91 248/81/91
f 255/507/92 253/514/92 250/508/92
f 251/510/7 252/778/7 250/511/7
f 251/513/93 249/540/93 254/514/93
f 256/515/8 254/779/8 253/516/8
f 249/518/94 250/780/94 253/519/94
f 252/520/95 251/781/95 256/224/95
f 263/522/96 261/782/96 258/523/96
f 260/525/97 258/783/97 257/526/97
f 259/528/98 257/784/98 262/529/98
f 264/531/99 262/785/99 261/532/99
f 257/534/9 258/786/9 261/535/9
f 260/536/10 259/787/10 264/537/10
f 271/539/100 269/545/100 266/540/101
f 267/541/102 268/788/102 266/542/102
f 272/539/103 267/554/104 265/544/104
f 272/546/105 270/789/105 269/547/105
f 265/549/106 266/790/106 269/550/106
f 268/550/107 267/551/107 272/552/107
f 276/554/108 279/558/108 277/352/108
f 276/555/102 274/791/102 273/556/102
f 280/558/109 275/792/109 273/559/109
f 280/560/105 278/793/105 277/561/105
f 273/563/110 274/794/119 277/564/110
f 276/565/111 275/795/120 280/336/111
f 287/567/112 285/796/112 282/568/112
f 284/570/113 282/797/113 281/21/113
f 283/572/114 281/798/114 286/573/114
f 288/575/115 286/799/115 285/576/115
f 286/578/5 281/800/5 282/579/5
f 284/581/6 283/801/6 288/582/6
f 295/584/1 293/802/1 290/585/1
f 292/586/2 290/803/2 289/587/2
f 296/2/3 291/618/3 289/589/3
f 296/591/4 294/804/4 293/592/4
f 289/594/116 290/805/116 293/595/116
f 292/597/6 291/758/6 296/598/6
f 303/1/1 301/618/1 298/2/1
f 300/4/2 298/619/2 297/5/2
f 304/7/3 299/620/3 297/1/3
f 304/8/4 302/620/4 301/7/4
f 297/10/116 298/621/116 301/11/116
f 300/13/6 299/622/6 304/14/6
f 311/600/1 309/806/1 306/601/1
f 308/603/2 306/807/2 305/604/2
f 307/606/3 305/808/3 310/607/3
f 312/609/4 310/809/4 309/610/4
f 305/612/5 306/810/5 309/613/5
f 308/615/117 307/811/117 312/616/117
