# Made in Blockbench 5.1.6
mtllib sobr_kit.mtl

o plane
v 0.140625 1.14057683333958 -0.29564907662925244
v 0.140625 1.265191500056221 -0.2858416896632718
v -0.015625 1.14057683333958 -0.29564907662925244
v -0.015625 1.265191500056221 -0.2858416896632718
v 0.28070414435219526 1.354634508886548 0.15739330835997378
v 0.3063340689613541 1.1067227439688616 0.13782640313899824
v 0.24900978732218432 1.3807772560311382 -0.21534926300019186
v 0.2746397119313432 1.132865491113452 -0.2349161682211675
v 0.256523621151022 0.9551233112448554 0.1683507084388432
v 0.2661183319802232 0.9568534845750974 0.13866046552384959
v 0.29067749324413933 1.3897694786986259 0.20471651846413486
v 0.3002722040733406 1.391499652028868 0.17502627554914135
v -0.2244265478127413 1.078125 -0.2178845250188603
v -0.34646354870273294 1.0781250000000002 -0.24493947676112318
v -0.2244265478127413 0.828125 -0.2178845250188603
v -0.34646354870273294 0.828125 -0.2449394767611232
v -0.2650089754261356 1.078125 -0.034829023683872806
v -0.38704597631612725 1.078125 -0.06188397542613572
v -0.2650089754261356 0.828125 -0.034829023683872806
v -0.38704597631612725 0.828125 -0.06188397542613572
v -0.06193251205092237 1.328125 -0.17273840709301186
v -0.08363853425928866 1.328125 -0.2958393762195378
v -0.06193251205092237 1.078125 -0.17273840709301186
v -0.08363853425928866 1.078125 -0.2958393762195378
v -0.24658396574071137 1.328125 -0.14017937378046244
v -0.26828998794907766 1.3281250000000002 -0.2632803429069884
v -0.24658396574071137 1.078125 -0.14017937378046244
v -0.26828998794907766 1.0781250000000002 -0.2632803429069884
v 0.2244265478127413 1.078125 -0.2178845250188603
v 0.34646354870273294 1.0781250000000002 -0.24493947676112318
v 0.2244265478127413 0.828125 -0.2178845250188603
v 0.34646354870273294 0.828125 -0.2449394767611232
v 0.2650089754261356 1.078125 -0.034829023683872806
v 0.38704597631612725 1.078125 -0.06188397542613572
v 0.2650089754261356 0.828125 -0.034829023683872806
v 0.38704597631612725 0.828125 -0.06188397542613572
v -0.17187500000000003 1.291896633298641 0.2039773968475963
v -0.17187500000000003 1.4168537989205858 0.20070527830911222
v 0.17187499999999997 1.291896633298641 0.2039773968475963
v 0.17187499999999997 1.4168537989205858 0.2007052783091121
v 0.22812499999999997 1.3110121748813106 -0.18097903917030125
v 0.22812499999999997 1.3175518442948224 -0.2745006688821598
v 0.22812499999999997 1.092795038886974 -0.19623826780182865
v 0.22812499999999997 1.0993347083004856 -0.2897598975136872
v 0.16562499999999997 1.3110121748813106 -0.18097903917030125
v 0.16562499999999997 1.3175518442948224 -0.2745006688821598
v 0.16562499999999997 1.092795038886974 -0.19623826780182865
v 0.16562499999999997 1.0993347083004856 -0.2897598975136872
v 0.14999999999999997 1.3110121748813106 -0.18097903917030125
v 0.14999999999999997 1.3175518442948224 -0.2745006688821598
v 0.14999999999999997 1.092795038886974 -0.19623826780182865
v 0.14999999999999997 1.0993347083004856 -0.2897598975136872
v 0.08749999999999997 1.3110121748813106 -0.18097903917030125
v 0.08749999999999997 1.3175518442948224 -0.2745006688821598
v 0.08749999999999997 1.092795038886974 -0.19623826780182865
v 0.08749999999999997 1.0993347083004856 -0.2897598975136872
v 0.07187499999999997 1.3110121748813106 -0.18097903917030125
v 0.07187499999999997 1.3175518442948224 -0.2745006688821598
v 0.07187499999999997 1.092795038886974 -0.19623826780182865
v 0.07187499999999997 1.0993347083004856 -0.2897598975136872
v 0.009374999999999967 1.3110121748813106 -0.18097903917030125
v 0.009374999999999967 1.3175518442948224 -0.2745006688821598
v 0.009374999999999967 1.092795038886974 -0.19623826780182865
v 0.009374999999999967 1.0993347083004856 -0.2897598975136872
v -0.006250000000000033 1.3110121748813106 -0.18097903917030125
v -0.006250000000000033 1.3175518442948224 -0.2745006688821598
v -0.006250000000000033 1.092795038886974 -0.19623826780182865
v -0.006250000000000033 1.0993347083004856 -0.2897598975136872
v -0.06875000000000003 1.3110121748813106 -0.18097903917030125
v -0.06875000000000003 1.3175518442948224 -0.2745006688821598
v -0.06875000000000003 1.092795038886974 -0.19623826780182865
v -0.06875000000000003 1.0993347083004856 -0.2897598975136872
v 0.07187499999999997 1.0843307567349214 -0.19359440419356375
v 0.07187499999999997 1.0880118900907163 -0.33417121551825146
v -0.07187500000000002 1.0843307567349214 -0.19359440419356375
v -0.07187500000000002 1.0880118900907163 -0.33417121551825146
v 0.07187499999999997 1.0880115897909128 -0.33417093404410675
v 0.07187499999999997 0.947434778466225 -0.3378520673999015
v -0.07187500000000002 1.0880115897909128 -0.33417093404410675
v -0.07187500000000002 0.947434778466225 -0.3378520673999015
v -0.09664050858518841 1.0843302976246354 -0.1943167841574786
v -0.11498947624830455 1.0880114371406486 -0.3336909396618674
v -0.2391600861323221 1.0843303079913056 -0.17555371328203115
v -0.2575090537954382 1.0880114475073193 -0.31492786878641993
v -0.11498939393084455 1.088011418620135 -0.33369032303399776
v -0.11546988486606025 0.9474346071218605 -0.3373399562264826
v -0.2575089728090294 1.0880114262770222 -0.3149272622688824
v -0.2579894637442451 0.9474346147787474 -0.3185768954613671
v 0.23116755426739527 1.0843303073960129 -0.17335158409738718
v 0.25557846610399376 1.0880114429035723 -0.31179271689281324
v 0.08960144064221637 1.0843303038556282 -0.19831351457287177
v 0.11401235247881487 1.0880114393631874 -0.3367546473682979
v 0.2555783628567587 1.0880114188845234 -0.3117921112066913
v 0.2562175765857609 0.9474346074076109 -0.315417315448284
v 0.11401224728546795 1.0880114263650755 -0.33675403064522585
v 0.11465146101447013 0.9474346148881632 -0.3403792348868186
v 0.25 1.25 -0.10000000000000009
v 0.25 1.2500000000000002 -0.22500000000000003
v 0.25 0.75 -0.10000000000000006
v 0.25 0.75 -0.22500000000000006
v -0.25 1.25 -0.10000000000000009
v -0.25 1.2500000000000002 -0.22500000000000003
v -0.25 0.75 -0.10000000000000006
v -0.25 0.75 -0.22500000000000006
v 0.265625 1.4375 0.2
v 0.265625 1.4375 0.10624999999999996
v 0.265625 0.8125 0.2
v 0.265625 0.8125 0.10625000000000001
v -0.265625 1.4375 0.2
v -0.265625 1.4375 0.10624999999999996
v -0.265625 0.8125 0.2
v -0.265625 0.8125 0.10625000000000001
v 0.15625 1.437382836975237 -0.1204896137229744
v 0.15625 1.450377317651347 -0.18162383876883723
v 0.15625 1.2356398943238902 -0.1633713999541372
v 0.15625 1.248634375 -0.22450562500000004
v -0.15625 1.437382836975237 -0.1204896137229744
v -0.15625 1.450377317651347 -0.18162383876883723
v -0.15625 1.2356398943238902 -0.1633713999541372
v -0.15625 1.248634375 -0.22450562500000004
v -0.1863793221496335 1.5934633632595314 0.16268628065124602
v -0.18094056438112316 1.5891033196912476 0.1005762175856032
v -0.10214331668392268 1.3003558008538272 0.19063828851770787
v -0.09670455891541235 1.2959957572855432 0.12852822545206505
v -0.34795438542152135 1.5459968976534377 0.1518698084190011
v -0.34251562765301097 1.5416368540851537 0.08975974535335829
v -0.26371837995581054 1.2528893352477333 0.1798218162854629
v -0.2582796221873002 1.2485292916794493 0.11771175321982014
v -0.18608206090751156 1.6161070555499033 0.0588777381018849
v -0.16805203762085572 1.5576281891007024 0.046173784422057884
v -0.1863794690435294 1.5934639316339632 0.1626865189815775
v -0.16834944575687355 1.534985065184762 0.14998256530175047
v -0.3476571007467956 1.5686405097703473 0.048061267665968244
v -0.3296270774601398 1.5101616433211464 0.03535731398614117
v -0.3479545088828135 1.545997385854407 0.15187004854566083
v -0.3299244855961576 1.4875185194052063 0.13916609486583376
v -0.17686380459710735 1.5677429342461966 0.08059916499449732
v -0.19438741408651905 1.6327053845044697 0.0664794742434931
v -0.1521507258350348 1.5346566307227736 -0.10229646168163598
v -0.16967433532444653 1.5996190809810469 -0.11641615243264022
v -0.32654279155769633 1.5246649637150516 0.06816727787428756
v -0.34406640104710806 1.5896274139733246 0.05404758712328328
v -0.30182971279562376 1.4915786601916285 -0.11472834880184576
v -0.3193533222850355 1.5565411104499016 -0.12884803955285004
v -0.1700528758266147 1.5558631762833284 0.07499991959010116
v -0.1859834299078981 1.6149199492453947 0.06216383708918821
v -0.1453397970645422 1.5227768727599054 -0.10789570708603213
v -0.16127035114582558 1.5818336457219717 -0.12073178958694505
v -0.33170618174405075 1.5093389681096916 0.06157348150027464
v -0.3476367358253341 1.5683957410717582 0.048737398999361636
v -0.30699310298197824 1.4762526645862684 -0.12132214517585874
v -0.3229236570632616 1.5353094375483352 -0.13415822767677166
v -0.15664157532163123 1.5706334005404161 -0.05909994499634591
v -0.1551474402336194 1.5848490804840465 -0.12634758067284416
v -0.031461514071913665 1.1599341482648493 -0.14313759397468928
v -0.029967378983901838 1.1741498282084795 -0.21038522965118753
v -0.32428204665678084 1.522386130414859 -0.0730237841206815
v -0.322787911568769 1.536601810358489 -0.1402714197971797
v -0.19910198540706334 1.1116868781392921 -0.15706143309902484
v -0.1976078503190515 1.1259025580829223 -0.22430906877552304
v 0.34795438542152135 1.5459968976534377 0.1518698084190011
v 0.34251562765301097 1.5416368540851537 0.08975974535335829
v 0.26371837995581054 1.2528893352477333 0.1798218162854629
v 0.2582796221873002 1.2485292916794493 0.11771175321982014
v 0.1863793221496335 1.5934633632595314 0.16268628065124602
v 0.18094056438112316 1.5891033196912476 0.1005762175856032
v 0.10214331668392268 1.3003558008538272 0.19063828851770787
v 0.09670455891541235 1.2959957572855432 0.12852822545206505
v 0.3476571007467956 1.5686405097703473 0.048061267665968244
v 0.3296270774601398 1.5101616433211464 0.03535731398614117
v 0.3479545088828135 1.545997385854407 0.15187004854566083
v 0.3299244855961576 1.4875185194052063 0.13916609486583376
v 0.18608206090751156 1.6161070555499033 0.0588777381018849
v 0.16805203762085572 1.5576281891007024 0.046173784422057884
v 0.1863794690435294 1.5934639316339632 0.1626865189815775
v 0.16834944575687355 1.534985065184762 0.14998256530175047
v 0.33170618174405075 1.5093389681096916 0.06157348150027464
v 0.3476367358253341 1.5683957410717582 0.048737398999361636
v 0.30699310298197824 1.4762526645862684 -0.12132214517585874
v 0.3229236570632616 1.5353094375483352 -0.13415822767677166
v 0.1700528758266147 1.5558631762833284 0.07499991959010116
v 0.1859834299078981 1.6149199492453947 0.06216383708918821
v 0.1453397970645422 1.5227768727599054 -0.10789570708603213
v 0.16127035114582558 1.5818336457219717 -0.12073178958694505
v 0.31643678561892735 1.5208736986157267 0.03818194891307369
v 0.3339603951083391 1.5858361488739998 0.024062258162069416
v 0.29501878402513115 1.4921989022287603 -0.12032759420624192
v 0.3125423935145429 1.5571613524870336 -0.13444728495724617
v 0.17873211761518548 1.5605054315043803 0.04961928506366675
v 0.19625572710459718 1.625467881762653 0.035499594312662475
v 0.15731411602138926 1.5318306351174136 -0.10889025805564889
v 0.17483772551080096 1.5967930853756869 -0.12300994880665314
v 0.32428204665678084 1.522386130414859 -0.0730237841206815
v 0.322787911568769 1.536601810358489 -0.1402714197971797
v 0.19910198540706334 1.1116868781392921 -0.15706143309902484
v 0.1976078503190515 1.1259025580829223 -0.22430906877552304
v 0.15664157532163123 1.5706334005404161 -0.05909994499634591
v 0.1551474402336194 1.5848490804840465 -0.12634758067284416
v 0.031461514071913665 1.1599341482648493 -0.14313759397468928
v 0.029967378983901838 1.1741498282084795 -0.21038522965118753
v 0.2699673972760063 1.2056315101096362 -0.10889755150177596
v 0.2532682801776467 1.0471151176901974 -0.2190463387055475
v 0.303156626761737 1.0331423747647572 0.13430190004801568
v 0.28645750966337735 0.8746259823453185 0.024153112844244207
v 0.22046153167417862 1.2059802952654262 -0.10189415090428963
v 0.20376241457581895 1.0474639028459873 -0.21204293810806113
v 0.25365076115990925 1.0334911599205474 0.14130530064550206
v 0.23695164406154962 0.8749747675011086 0.031156513441730538
v 0.3125 1.0625 0.1421874999999999
v 0.3125 1.0625 -0.17031250000000006
v 0.3125 0.8125 0.14218749999999997
v 0.3125 0.8125 -0.1703125000000001
v 0.25 1.0625 0.1421874999999999
v 0.25 1.0625 -0.17031250000000006
v 0.25 0.8125 0.14218749999999997
v 0.25 0.8125 -0.1703125000000001
v 0.24999999999999997 1.0625 -0.24062500000000003
v 0.103125 1.0625 -0.2406250000000001
v 0.24999999999999997 0.8125 -0.2406250000000001
v 0.103125 0.8125 -0.2406250000000001
v 0.24999999999999994 1.0624999999999998 -0.1781250000000001
v 0.10312499999999997 1.0624999999999998 -0.17812500000000014
v 0.24999999999999994 0.8124999999999999 -0.1781250000000001
v 0.10312499999999997 0.8124999999999999 -0.1781250000000001
v 0.3125 1.0625 -0.17031250000000012
v 0.24178932188134522 1.0624999999999998 -0.2410231781186548
v 0.3125 0.8125 -0.17031250000000012
v 0.24178932188134522 0.8125 -0.24102317811865484
v 0.26830582617584076 1.0625 -0.12611832617584087
v 0.19759514805718603 1.0624999999999998 -0.19682900429449557
v 0.26830582617584076 0.8124999999999999 -0.1261183261758409
v 0.19759514805718603 0.8125 -0.19682900429449562
v 0.2276951903843574 1.0624999999999998 0.19517942642332037
v 0.3125 1.0625 0.14218749999999997
v 0.2276951903843574 0.8125 0.19517942642332042
v 0.3125 0.8125 0.14218749999999997
v 0.19457523636978208 1.0624999999999998 0.14217642041354384
v 0.27938004598542465 1.0624999999999998 0.08918449399022327
v 0.19457523636978208 0.8125 0.14217642041354378
v 0.27938004598542465 0.8125 0.08918449399022332
v -0.22046153167417862 1.2059802952654262 -0.10189415090428963
v -0.20376241457581895 1.0474639028459873 -0.21204293810806113
v -0.25365076115990925 1.0334911599205474 0.14130530064550206
v -0.23695164406154962 0.8749747675011086 0.031156513441730538
v -0.2699673972760063 1.2056315101096362 -0.10889755150177596
v -0.2532682801776467 1.0471151176901974 -0.2190463387055475
v -0.303156626761737 1.0331423747647572 0.13430190004801568
v -0.28645750966337735 0.8746259823453185 0.024153112844244207
v -0.25 1.0625 0.1421874999999999
v -0.25 1.0625 -0.17031250000000006
v -0.25 0.8125 0.14218749999999997
v -0.25 0.8125 -0.1703125000000001
v -0.3125 1.0625 0.1421874999999999
v -0.3125 1.0625 -0.17031250000000006
v -0.3125 0.8125 0.14218749999999997
v -0.3125 0.8125 -0.1703125000000001
v -0.24999999999999994 1.0624999999999998 -0.1781250000000001
v -0.10312499999999997 1.0624999999999998 -0.17812500000000014
v -0.24999999999999994 0.8124999999999999 -0.1781250000000001
v -0.10312499999999997 0.8124999999999999 -0.1781250000000001
v -0.24999999999999997 1.0625 -0.24062500000000003
v -0.103125 1.0625 -0.2406250000000001
v -0.24999999999999997 0.8125 -0.2406250000000001
v -0.103125 0.8125 -0.2406250000000001
v -0.26830582617584076 1.0625 -0.12611832617584087
v -0.19759514805718603 1.0624999999999998 -0.19682900429449557
v -0.26830582617584076 0.8124999999999999 -0.1261183261758409
v -0.19759514805718603 0.8125 -0.19682900429449562
v -0.3125 1.0625 -0.17031250000000012
v -0.24178932188134522 1.0624999999999998 -0.2410231781186548
v -0.3125 0.8125 -0.17031250000000012
v -0.24178932188134522 0.8125 -0.24102317811865484
v -0.19457523636978208 1.0624999999999998 0.14217642041354384
v -0.27938004598542465 1.0624999999999998 0.08918449399022327
v -0.19457523636978208 0.8125 0.14217642041354378
v -0.27938004598542465 0.8125 0.08918449399022332
v -0.2276951903843574 1.0624999999999998 0.19517942642332037
v -0.3125 1.0625 0.14218749999999997
v -0.2276951903843574 0.8125 0.19517942642332042
v -0.3125 0.8125 0.14218749999999997
v 0.03125 1.429124149019429 -0.16522807871980152
v 0.03125 1.4352129721864322 -0.20855230672724528
v 0.03125 1.1877463072636711 -0.19915152207881753
v 0.03125 1.193835130430674 -0.2424757500862612
v -0.03125 1.429124149019429 -0.16522807871980152
v -0.03125 1.4352129721864322 -0.20855230672724528
v -0.03125 1.1877463072636711 -0.19915152207881753
v -0.03125 1.193835130430674 -0.2424757500862612
v 0.171875 1.6023161525793705 0.21371408176887563
v 0.171875 1.614254464793972 0.14600854874928643
v 0.171875 1.4176646988895816 0.1811550484563263
v 0.171875 1.429603011104183 0.11344951543673698
v -0.171875 1.6023161525793705 0.21371408176887563
v -0.171875 1.614254464793972 0.14600854874928643
v -0.171875 1.4176646988895816 0.1811550484563263
v -0.171875 1.429603011104183 0.11344951543673698
v 0.125 1.4375 -0.18125000000000002
v 0.125 1.4375 -0.20625000000000007
v 0.125 1.3125 -0.18125000000000005
v 0.125 1.3125 -0.20625000000000004
v -0.125 1.4375 -0.18125000000000002
v -0.125 1.4375 -0.20625000000000007
v -0.125 1.3125 -0.18125000000000005
v -0.125 1.3125 -0.20625000000000004
v 0.171875 1.5625 -0.12500000000000006
v 0.171875 1.5625 -0.19375000000000003
v 0.171875 1.4375 -0.12500000000000006
v 0.171875 1.4375 -0.1937500000000001
v -0.171875 1.5625 -0.12500000000000006
v -0.171875 1.5625 -0.19375000000000003
v -0.171875 1.4375 -0.12500000000000006
v -0.171875 1.4375 -0.1937500000000001
v -0.21250000000000002 0.746080182627463 -0.13770542892368984
v -0.21250000000000002 0.750653302895423 -0.18121576184605176
v -0.21250000000000002 0.6217649457064288 -0.15077148683214653
v -0.21250000000000002 0.6263380659743887 -0.19428181975450845
v -0.25 0.746080182627463 -0.13770542892368984
v -0.25 0.750653302895423 -0.18121576184605176
v -0.25 0.6217649457064288 -0.15077148683214653
v -0.25 0.6263380659743887 -0.19428181975450845
v -0.08125000000000002 0.7471766729771518 -0.16658517980213672
v -0.08125000000000002 0.7482661197614975 -0.17903761352828348
v -0.08125000000000002 0.5417115164957294 -0.18456105174384121
v -0.08125000000000002 0.5428009632800751 -0.19701348546998798
v -0.2125 0.7471766729771518 -0.16658517980213672
v -0.2125 0.7482661197614975 -0.17903761352828348
v -0.2125 0.5417115164957294 -0.18456105174384121
v -0.2125 0.5428009632800751 -0.19701348546998798
v -0.21440311269504495 0.6296017418548205 -0.1477409153987481
v -0.21440311269504495 0.6356905650218234 -0.19106514340619174
v -0.16656768364940872 0.5152406918035933 -0.16381331283038952
v -0.16656768364940872 0.5213295149705963 -0.20713754083783317
v -0.24904859516421818 0.6153907724732866 -0.149738136897559
v -0.24904859516421818 0.6214795956402894 -0.19306236490500267
v -0.20121316611858198 0.5010297224220595 -0.16581053432920043
v -0.20121316611858198 0.5071185455890623 -0.2091347623366441
v -0.17562808871894703 0.5282229761662589 -0.16198877174971676
v -0.17562808871894703 0.5343117993332617 -0.2053129997571604
v -0.0872397410706286 0.44069481784129994 -0.1742900521806695
v -0.0872397410706286 0.4467836410083028 -0.21761428018811313
v -0.20214459301344254 0.5019645286687712 -0.16567915587900256
v -0.20214459301344254 0.5080533518357742 -0.2090033838864462
v -0.1137562453651241 0.4144363703438123 -0.17798043630995533
v -0.1137562453651241 0.4205251935108152 -0.221304664317399
v -0.030935921676911494 0.49309963196870554 -0.18881404055258708
v -0.030935921676911494 0.49364435536087836 -0.19504025741566045
v -0.08396893026590255 0.4402684299884987 -0.19343617180630351
v -0.08396893026590255 0.4408131533806714 -0.1996623886693769
v -0.1325825214724777 0.594359435764102 -0.17995495564963054
v -0.1325825214724777 0.5949041591562749 -0.1861811725127039
v -0.18561553006146875 0.5415282337838953 -0.18457708690334698
v -0.18561553006146875 0.5420729571760681 -0.19080330376642038
v -0.10324182561109696 0.44782254246959374 -0.1732883158118803
v -0.10324182561109696 0.45391136563659673 -0.21661254381932396
v 0.012243115952813854 0.40045264453114715 -0.17994572080791668
v 0.012243115952813854 0.40654146769815 -0.22326994881536033
v -0.11759245432478782 0.4135142274542257 -0.17811003504137277
v -0.11759245432478782 0.4196030506212285 -0.22143426304881642
v -0.002107512760877006 0.366144329515779 -0.1847674400374091
v -0.002107512760877006 0.3722331526827819 -0.22809166804485273
v 0.08125 0.7471766729771518 -0.16658517980213672
v 0.08125 0.7482661197614975 -0.17903761352828348
v 0.08125 0.4047347455081144 -0.19654496637164418
v 0.08125 0.40582419229246003 -0.208997400097791
v -0.08125 0.7471766729771518 -0.16658517980213672
v -0.08125 0.7482661197614975 -0.17903761352828348
v -0.08125 0.4047347455081144 -0.19654496637164418
v -0.08125 0.40582419229246003 -0.208997400097791
v 0.11759245432478782 0.4135142274542257 -0.17811003504137277
v 0.11759245432478782 0.4196030506212285 -0.22143426304881642
v 0.002107512760877006 0.366144329515779 -0.1847674400374091
v 0.002107512760877006 0.3722331526827819 -0.22809166804485273
v 0.10324182561109696 0.44782254246959374 -0.1732883158118803
v 0.10324182561109696 0.45391136563659673 -0.21661254381932396
v -0.012243115952813854 0.40045264453114715 -0.17994572080791668
v -0.012243115952813854 0.40654146769815 -0.22326994881536033
v 0.20214459301344254 0.5019645286687712 -0.16567915587900256
v 0.20214459301344254 0.5080533518357742 -0.2090033838864462
v 0.1137562453651241 0.4144363703438123 -0.17798043630995533
v 0.1137562453651241 0.4205251935108152 -0.221304664317399
v 0.17562808871894703 0.5282229761662589 -0.16198877174971676
v 0.17562808871894703 0.5343117993332617 -0.2053129997571604
v 0.0872397410706286 0.44069481784129994 -0.1742900521806695
v 0.0872397410706286 0.4467836410083028 -0.21761428018811313
v 0.1325825214724777 0.594359435764102 -0.17995495564963054
v 0.1325825214724777 0.5949041591562749 -0.1861811725127039
v 0.18561553006146875 0.5415282337838953 -0.18457708690334698
v 0.18561553006146875 0.5420729571760681 -0.19080330376642038
v 0.030935921676911494 0.49309963196870554 -0.18881404055258708
v 0.030935921676911494 0.49364435536087836 -0.19504025741566045
v 0.08396893026590255 0.4402684299884987 -0.19343617180630351
v 0.08396893026590255 0.4408131533806714 -0.1996623886693769
v 0.24904859516421818 0.6153907724732866 -0.149738136897559
v 0.24904859516421818 0.6214795956402894 -0.19306236490500267
v 0.20121316611858198 0.5010297224220595 -0.16581053432920043
v 0.20121316611858198 0.5071185455890623 -0.2091347623366441
v 0.21440311269504495 0.6296017418548205 -0.1477409153987481
v 0.21440311269504495 0.6356905650218234 -0.19106514340619174
v 0.16656768364940872 0.5152406918035933 -0.16381331283038952
v 0.16656768364940872 0.5213295149705963 -0.20713754083783317
v 0.21249999999999997 0.7471766729771518 -0.16658517980213672
v 0.21249999999999997 0.7482661197614975 -0.17903761352828348
v 0.21249999999999997 0.5417115164957294 -0.18456105174384121
v 0.21249999999999997 0.5428009632800751 -0.19701348546998798
v 0.08124999999999999 0.7471766729771518 -0.16658517980213672
v 0.08124999999999999 0.7482661197614975 -0.17903761352828348
v 0.08124999999999999 0.5417115164957294 -0.18456105174384121
v 0.08124999999999999 0.5428009632800751 -0.19701348546998798
v 0.25 0.7470048202337431 -0.14389386880102573
v 0.25 0.7511980719065028 -0.18744245247958985
v 0.25 0.6225802954378457 -0.15587458786605374
v 0.25 0.6267735471106053 -0.1994231715446178
v 0.21250000000000002 0.7470048202337431 -0.14389386880102573
v 0.21250000000000002 0.7511980719065028 -0.18744245247958985
v 0.21250000000000002 0.6225802954378457 -0.15587458786605374
v 0.21250000000000002 0.6267735471106053 -0.1994231715446178
v 0.1985086519396509 1.1125 0.2030698872085367
v 0.3159702295378894 1.1125 0.24582240512424547
v 0.1985086519396509 0.8625 0.2030698872085367
v 0.3159702295378894 0.8625 0.24582240512424536
v 0.2519492993342866 1.1125 0.05624291521073854
v 0.3694108769325251 1.1125 0.09899543312644721
v 0.2519492993342866 0.8625 0.05624291521073854
v 0.3694108769325251 0.8625 0.09899543312644721
v 0.2238666822886592 1.1999999999999997 0.17138644537345832
v 0.2908269351141978 1.1999999999999997 0.21740695212360062
v 0.2238666822886592 1.075 0.17138644537345826
v 0.2908269351141978 1.075 0.2174069521236005
v 0.28050730598114254 1.1999999999999997 0.08897382651125618
v 0.3474675588066812 1.1999999999999997 0.13499433326139887
v 0.28050730598114254 1.075 0.08897382651125624
v 0.3474675588066812 1.075 0.13499433326139887
v 0.26630893078240464 1.4440438434919545 -0.16494672121086956
v 0.27713178362703944 1.4552032814373055 -0.22548251889329263
v 0.24517974443719265 1.3236126163804265 -0.19092511648080224
v 0.25600259728182745 1.3347720543257773 -0.2514609141632252
v 0.17534527451435666 1.462766633479165 -0.1777581564717302
v 0.18616812735899146 1.4739260714245157 -0.23829395415415316
v 0.15421608816914467 1.342335406367637 -0.20373655174166277
v 0.16503894101377947 1.3534948443129875 -0.26427234942408584
v 0.07742812499999997 1.0786327822008046 -0.20296592198494834
v 0.07742812499999997 1.074270345112992 -0.3278897753623353
v 0.07742812499999997 0.7663231487573371 -0.19205982926541681
v 0.07742812499999997 0.7619607116695246 -0.31698368264280374
v -0.07882187500000004 1.0786327822008046 -0.20296592198494834
v -0.07882187500000004 1.074270345112992 -0.3278897753623353
v -0.07882187500000004 0.7663231487573371 -0.19205982926541681
v -0.07882187500000004 0.7619607116695246 -0.31698368264280374
v -0.08886488975681284 1.0793757319461914 -0.20174130996405013
v -0.10516509007607142 1.0739234048102249 -0.3255539732838998
v -0.08708580496071859 0.7671731521922647 -0.18822709329117837
v -0.10338600527997718 0.7617208250562982 -0.31203975661102806
v -0.24377815705660594 1.079375776794389 -0.18134665099409314
v -0.2600783573758645 1.0739234496584225 -0.30515931431394283
v -0.24199907226051168 0.7671731970404623 -0.1678324343212214
v -0.25829927257977026 0.761720869904496 -0.2916450976410711
v 0.23911075065017257 1.0793757273198565 -0.1783949101589143
v 0.26079614678860585 1.0739233394936036 -0.30137871015432566
v 0.23674357523928571 0.7671731541903775 -0.16497105780922758
v 0.258428971377719 0.7617207663641243 -0.2879548578046389
v 0.08523454720640641 1.0793758180053754 -0.20552748308748975
v 0.10691994334483967 1.0739234301791227 -0.3285112830829011
v 0.08286737179551956 0.7671732448758963 -0.19210363073780307
v 0.10455276793395282 0.7617208570496434 -0.3150874307332144
v 0.128125 0.6087002755890056 -0.22019908635505747
v 0.128125 0.6242048768537118 -0.2742700567515879
v 0.128125 0.5486214195928607 -0.23742642109361994
v 0.128125 0.5641260208575668 -0.29149739149015036
v -0.12187500000000001 0.6087002755890056 -0.22019908635505747
v -0.12187500000000001 0.6242048768537118 -0.2742700567515879
v -0.12187500000000001 0.5486214195928607 -0.23742642109361994
v -0.12187500000000001 0.5641260208575668 -0.29149739149015036
v -0.0785691738241592 0.5919575206406702 -0.22499999408138308
v -0.0785691738241592 0.6074621219053763 -0.2790709644779135
v -0.12276334764831842 0.5494753541598661 -0.23718155929679122
v -0.12276334764831842 0.5649799554245724 -0.29125252969332166
v -0.12276334764831845 0.6344396871214744 -0.21281842886597502
v -0.12276334764831845 0.6499442883861806 -0.26688939926250543
v -0.16695752147247767 0.5919575206406703 -0.22499999408138308
v -0.16695752147247767 0.6074621219053764 -0.2790709644779136
v 0.1714308261758408 0.5919575206406703 -0.22499999408138308
v 0.1714308261758408 0.6074621219053764 -0.2790709644779136
v 0.12723665235168158 0.5494753541598661 -0.23718155929679122
v 0.12723665235168158 0.5649799554245724 -0.29125252969332166
v 0.12723665235168158 0.6344396871214744 -0.21281842886597502
v 0.12723665235168158 0.6499442883861806 -0.26688939926250543
v 0.08304247852752236 0.5919575206406703 -0.22499999408138308
v 0.08304247852752236 0.6074621219053764 -0.2790709644779136
v 0.17054249999999999 0.7721940679884347 -0.1733179957843127
v 0.17054249999999999 0.7894214027269973 -0.2333968517804576
v 0.17054249999999999 0.5919575 -0.22500000000000003
v 0.17054249999999999 0.6091848347385626 -0.28507885599614496
v -0.16695750000000004 0.7721940679884347 -0.1733179957843127
v -0.16695750000000004 0.7894214027269973 -0.2333968517804576
v -0.16695750000000004 0.5919575 -0.22500000000000003
v -0.16695750000000004 0.6091848347385626 -0.28507885599614496
v 0.10804249999999999 0.736577437759212 -0.1851563680273538
v 0.10804249999999999 0.7555275059716307 -0.25124310962311325
v 0.10804249999999999 0.6164197257669222 -0.21961103750447872
v 0.10804249999999999 0.6353697939793408 -0.2856977791002381
v -0.10445750000000001 0.736577437759212 -0.1851563680273538
v -0.10445750000000001 0.7555275059716307 -0.25124310962311325
v -0.10445750000000001 0.6164197257669222 -0.21961103750447872
v -0.10445750000000001 0.6353697939793408 -0.2856977791002381
vt 0.43359375 0.84375
vt 0.43359375 0.859375
vt 0.4140625 0.859375
vt 0.4140625 0.84375
vt 0.1875 0.8828125
vt 0.1875 0.9140625
vt 0.140625 0.9140625
vt 0.140625 0.8828125
vt 0.5234375 0.59765625
vt 0.5234375 0.6015625
vt 0.46875 0.6015625
vt 0.46875 0.59765625
vt 0.375 0.65625
vt 0.359375 0.65625
vt 0.359375 0.625
vt 0.375 0.625
vt 0.015625 0.6015625
vt 0.015625 0.6328125
vt 0 0.6328125
vt 0 0.6015625
vt 0.2421875 0.5859375
vt 0.265625 0.5859375
vt 0.265625 0.6015625
vt 0.2421875 0.6015625
vt 0.15625 0.578125
vt 0.15625 0.59375
vt 0.1328125 0.59375
vt 0.1328125 0.578125
vt 0.3125 0.75
vt 0.3125 0.78125
vt 0.2890625 0.78125
vt 0.2890625 0.75
vt 0.3125 0.7421875
vt 0.2890625 0.7421875
vt 0.2890625 0.7109375
vt 0.3125 0.7109375
vt 0.375 0.65625
vt 0.359375 0.65625
vt 0.359375 0.625
vt 0.375 0.625
vt 0.015625 0.6015625
vt 0.015625 0.6328125
vt 0 0.6328125
vt 0 0.6015625
vt 0.2421875 0.5859375
vt 0.265625 0.5859375
vt 0.265625 0.6015625
vt 0.2421875 0.6015625
vt 0.15625 0.578125
vt 0.15625 0.59375
vt 0.1328125 0.59375
vt 0.1328125 0.578125
vt 0.3125 0.75
vt 0.3125 0.78125
vt 0.2890625 0.78125
vt 0.2890625 0.75
vt 0.3125 0.7421875
vt 0.2890625 0.7421875
vt 0.2890625 0.7109375
vt 0.3125 0.7109375
vt 0.359375 0.625
vt 0.359375 0.65625
vt 0.375 0.65625
vt 0.375 0.625
vt 0 0.6328125
vt 0.015625 0.6328125
vt 0.015625 0.6015625
vt 0 0.6015625
vt 0.265625 0.6015625
vt 0.265625 0.5859375
vt 0.2421875 0.5859375
vt 0.2421875 0.6015625
vt 0.1328125 0.59375
vt 0.15625 0.59375
vt 0.15625 0.578125
vt 0.1328125 0.578125
vt 0.2890625 0.78125
vt 0.3125 0.78125
vt 0.3125 0.75
vt 0.2890625 0.75
vt 0.2890625 0.7109375
vt 0.2890625 0.7421875
vt 0.3125 0.7421875
vt 0.3125 0.7109375
vt 0.17578125 0.6796875
vt 0.17578125 0.6953125
vt 0.1328125 0.6953125
vt 0.1328125 0.6796875
vt 0.41796875 0.8046875
vt 0.40625 0.8046875
vt 0.40625 0.77734375
vt 0.41796875 0.77734375
vt 0.41796875 0.73828125
vt 0.41796875 0.765625
vt 0.40625 0.765625
vt 0.40625 0.73828125
vt 0.5625 0.98828125
vt 0.5703125 0.98828125
vt 0.5703125 1
vt 0.5625 1
vt 0.0625 0.42578125
vt 0.0625 0.4375
vt 0.0546875 0.4375
vt 0.0546875 0.42578125
vt 0.0703125 0.49609375
vt 0.0703125 0.5234375
vt 0.0625 0.5234375
vt 0.0625 0.49609375
vt 0.1328125 0.5234375
vt 0.125 0.5234375
vt 0.125 0.49609375
vt 0.1328125 0.49609375
vt 0.41796875 0.8046875
vt 0.40625 0.8046875
vt 0.40625 0.77734375
vt 0.41796875 0.77734375
vt 0.41796875 0.73828125
vt 0.41796875 0.765625
vt 0.40625 0.765625
vt 0.40625 0.73828125
vt 0.5625 0.98828125
vt 0.5703125 0.98828125
vt 0.5703125 1
vt 0.5625 1
vt 0.0625 0.42578125
vt 0.0625 0.4375
vt 0.0546875 0.4375
vt 0.0546875 0.42578125
vt 0.0703125 0.49609375
vt 0.0703125 0.5234375
vt 0.0625 0.5234375
vt 0.0625 0.49609375
vt 0.1328125 0.5234375
vt 0.125 0.5234375
vt 0.125 0.49609375
vt 0.1328125 0.49609375
vt 0.41796875 0.8046875
vt 0.40625 0.8046875
vt 0.40625 0.77734375
vt 0.41796875 0.77734375
vt 0.41796875 0.73828125
vt 0.41796875 0.765625
vt 0.40625 0.765625
vt 0.40625 0.73828125
vt 0.5625 0.98828125
vt 0.5703125 0.98828125
vt 0.5703125 1
vt 0.5625 1
vt 0.0625 0.42578125
vt 0.0625 0.4375
vt 0.0546875 0.4375
vt 0.0546875 0.42578125
vt 0.0703125 0.49609375
vt 0.0703125 0.5234375
vt 0.0625 0.5234375
vt 0.0625 0.49609375
vt 0.1328125 0.5234375
vt 0.125 0.5234375
vt 0.125 0.49609375
vt 0.1328125 0.49609375
vt 0.41796875 0.8046875
vt 0.40625 0.8046875
vt 0.40625 0.77734375
vt 0.41796875 0.77734375
vt 0.41796875 0.73828125
vt 0.41796875 0.765625
vt 0.40625 0.765625
vt 0.40625 0.73828125
vt 0.5625 0.98828125
vt 0.5703125 0.98828125
vt 0.5703125 1
vt 0.5625 1
vt 0.0625 0.42578125
vt 0.0625 0.4375
vt 0.0546875 0.4375
vt 0.0546875 0.42578125
vt 0.0703125 0.49609375
vt 0.0703125 0.5234375
vt 0.0625 0.5234375
vt 0.0625 0.49609375
vt 0.1328125 0.5234375
vt 0.125 0.5234375
vt 0.125 0.49609375
vt 0.1328125 0.49609375
vt 0.423828125 0.708984375
vt 0.423828125 0.7265625
vt 0.40625 0.7265625
vt 0.40625 0.708984375
vt 0.345703125 0.576171875
vt 0.345703125 0.59375
vt 0.328125 0.59375
vt 0.328125 0.576171875
vt 0.376953125 0.576171875
vt 0.376953125 0.59375
vt 0.359375 0.59375
vt 0.359375 0.576171875
vt 0.423828125 0.599609375
vt 0.423828125 0.6171875
vt 0.40625 0.6171875
vt 0.40625 0.599609375
vt 0.431640625 0.982421875
vt 0.431640625 1
vt 0.4140625 1
vt 0.4140625 0.982421875
vt 0.095703125 0.568359375
vt 0.095703125 0.5859375
vt 0.078125 0.5859375
vt 0.078125 0.568359375
vt 0.0703125 0.734375
vt 0.0703125 0.796875
vt 0.0546875 0.796875
vt 0.0546875 0.734375
vt 0.2421875 0.8671875
vt 0.2421875 0.9296875
vt 0.2265625 0.9296875
vt 0.2265625 0.8671875
vt 0.125 0.765625
vt 0.125 0.75
vt 0.1875 0.75
vt 0.1875 0.765625
vt 0.25 0.953125
vt 0.25 0.96875
vt 0.3125 0.96875
vt 0.3125 0.953125
vt 0.1328125 0.8515625
vt 0.1328125 0.9140625
vt 0.0703125 0.9140625
vt 0.0703125 0.8515625
vt 0.0625 0.8515625
vt 0.0625 0.9140625
vt 0 0.9140625
vt 0 0.8515625
vt 0.01171875 0.6875
vt 0.01171875 0.765625
vt 0 0.765625
vt 0 0.6875
vt 0.03515625 0.6875
vt 0.03515625 0.765625
vt 0.0234375 0.765625
vt 0.0234375 0.6875
vt 0.2578125 1
vt 0.2578125 0.98828125
vt 0.32421875 0.98828125
vt 0.32421875 1
vt 0.2578125 0.79296875
vt 0.2578125 0.8046875
vt 0.32421875 0.8046875
vt 0.32421875 0.79296875
vt 0.14453125 0.921875
vt 0.14453125 1
vt 0.078125 1
vt 0.078125 0.921875
vt 0.06640625 0.921875
vt 0.06640625 1
vt 0 1
vt 0 0.921875
vt 0.1484375 0.498046875
vt 0.1484375 0.5234375
vt 0.140625 0.5234375
vt 0.140625 0.498046875
vt 0.03125 0.482421875
vt 0.03125 0.5078125
vt 0.0234375 0.5078125
vt 0.0234375 0.482421875
vt 0.40625 0.6953125
vt 0.40625 0.6875
vt 0.4453125 0.6875
vt 0.4453125 0.6953125
vt 0.4140625 0.8671875
vt 0.4140625 0.875
vt 0.453125 0.875
vt 0.453125 0.8671875
vt 0.2421875 0.826171875
vt 0.2421875 0.8515625
vt 0.203125 0.8515625
vt 0.203125 0.826171875
vt 0.2421875 0.943359375
vt 0.2421875 0.96875
vt 0.203125 0.96875
vt 0.203125 0.943359375
vt 0.1484375 0.5322265625
vt 0.1484375 0.5703125
vt 0.140625 0.5703125
vt 0.140625 0.5322265625
vt 0.4375 0.7666015625
vt 0.4375 0.8046875
vt 0.4296875 0.8046875
vt 0.4296875 0.7666015625
vt 0.484375 0.5859375
vt 0.484375 0.578125
vt 0.505859375 0.578125
vt 0.505859375 0.5859375
vt 0.5078125 0.9140625
vt 0.5078125 0.921875
vt 0.529296875 0.921875
vt 0.529296875 0.9140625
vt 0.130859375 0.7041015625
vt 0.130859375 0.7421875
vt 0.109375 0.7421875
vt 0.109375 0.7041015625
vt 0.099609375 0.7041015625
vt 0.099609375 0.7421875
vt 0.078125 0.7421875
vt 0.078125 0.7041015625
vt 0.5546875 0.861328125
vt 0.5546875 0.875
vt 0.546875 0.875
vt 0.546875 0.861328125
vt 0.1484375 0.439453125
vt 0.1484375 0.453125
vt 0.140625 0.453125
vt 0.140625 0.439453125
vt 0.296875 0.4921875
vt 0.296875 0.484375
vt 0.318359375 0.484375
vt 0.318359375 0.4921875
vt 0.5078125 0.671875
vt 0.5078125 0.6796875
vt 0.529296875 0.6796875
vt 0.529296875 0.671875
vt 0.177734375 0.548828125
vt 0.177734375 0.5625
vt 0.15625 0.5625
vt 0.15625 0.548828125
vt 0.451171875 0.744140625
vt 0.451171875 0.7578125
vt 0.4296875 0.7578125
vt 0.4296875 0.744140625
vt 0.3603515625 0.4921875
vt 0.3603515625 0.515625
vt 0.3515625 0.515625
vt 0.3515625 0.4921875
vt 0.4072265625 0.4921875
vt 0.4072265625 0.515625
vt 0.3984375 0.515625
vt 0.3984375 0.4921875
vt 0.5 0.7734375
vt 0.5 0.7646484375
vt 0.51953125 0.7646484375
vt 0.51953125 0.7734375
vt 0.5078125 0.9599609375
vt 0.5078125 0.96875
vt 0.52734375 0.96875
vt 0.52734375 0.9599609375
vt 0.39453125 0.765625
vt 0.39453125 0.7890625
vt 0.375 0.7890625
vt 0.375 0.765625
vt 0.39453125 0.796875
vt 0.39453125 0.8203125
vt 0.375 0.8203125
vt 0.375 0.796875
vt 0.1953125 0.484375
vt 0.1953125 0.5078125
vt 0.1875 0.5078125
vt 0.1875 0.484375
vt 0.3828125 0.484375
vt 0.3828125 0.5078125
vt 0.375 0.5078125
vt 0.375 0.484375
vt 0.5078125 0.6640625
vt 0.5078125 0.65625
vt 0.529296875 0.65625
vt 0.529296875 0.6640625
vt 0.5078125 0.640625
vt 0.5078125 0.6484375
vt 0.529296875 0.6484375
vt 0.529296875 0.640625
vt 0.365234375 0.6875
vt 0.365234375 0.7109375
vt 0.34375 0.7109375
vt 0.34375 0.6875
vt 0.365234375 0.7421875
vt 0.365234375 0.765625
vt 0.34375 0.765625
vt 0.34375 0.7421875
vt 0.0634765625 0.578125
vt 0.0634765625 0.6328125
vt 0.0546875 0.6328125
vt 0.0546875 0.578125
vt 0.2900390625 0.578125
vt 0.2900390625 0.6328125
vt 0.28125 0.6328125
vt 0.28125 0.578125
vt 0.4921875 0.90625
vt 0.4921875 0.8974609375
vt 0.513671875 0.8974609375
vt 0.513671875 0.90625
vt 0.4921875 0.8115234375
vt 0.4921875 0.8203125
vt 0.513671875 0.8203125
vt 0.513671875 0.8115234375
vt 0.193359375 0.7734375
vt 0.193359375 0.828125
vt 0.171875 0.828125
vt 0.171875 0.7734375
vt 0.162109375 0.7734375
vt 0.162109375 0.828125
vt 0.140625 0.828125
vt 0.140625 0.7734375
vt 0.28125 0.5322265625
vt 0.28125 0.5703125
vt 0.2734375 0.5703125
vt 0.2734375 0.5322265625
vt 0.296875 0.5322265625
vt 0.296875 0.5703125
vt 0.2890625 0.5703125
vt 0.2890625 0.5322265625
vt 0.5078125 0.6328125
vt 0.5078125 0.625
vt 0.529296875 0.625
vt 0.529296875 0.6328125
vt 0.5078125 0.609375
vt 0.5078125 0.6171875
vt 0.529296875 0.6171875
vt 0.529296875 0.609375
vt 0.279296875 0.8134765625
vt 0.279296875 0.8515625
vt 0.2578125 0.8515625
vt 0.2578125 0.8134765625
vt 0.162109375 0.7041015625
vt 0.162109375 0.7421875
vt 0.140625 0.7421875
vt 0.140625 0.7041015625
vt 0.1640625 0.439453125
vt 0.1640625 0.453125
vt 0.15625 0.453125
vt 0.15625 0.439453125
vt 0.3046875 0.439453125
vt 0.3046875 0.453125
vt 0.296875 0.453125
vt 0.296875 0.439453125
vt 0.5078125 0.5703125
vt 0.5078125 0.5625
vt 0.529296875 0.5625
vt 0.529296875 0.5703125
vt 0.5078125 0.5078125
vt 0.5078125 0.515625
vt 0.529296875 0.515625
vt 0.529296875 0.5078125
vt 0.458984375 0.720703125
vt 0.458984375 0.734375
vt 0.4375 0.734375
vt 0.4375 0.720703125
vt 0.458984375 0.822265625
vt 0.458984375 0.8359375
vt 0.4375 0.8359375
vt 0.4375 0.822265625
vt 0.4609375 0.484375
vt 0.4609375 0.5078125
vt 0.453125 0.5078125
vt 0.453125 0.484375
vt 0.4765625 0.484375
vt 0.4765625 0.5078125
vt 0.46875 0.5078125
vt 0.46875 0.484375
vt 0.5078125 0.5
vt 0.5078125 0.4921875
vt 0.529296875 0.4921875
vt 0.529296875 0.5
vt 0.515625 0.9921875
vt 0.515625 1
vt 0.537109375 1
vt 0.537109375 0.9921875
vt 0.208984375 0.625
vt 0.208984375 0.6484375
vt 0.1875 0.6484375
vt 0.1875 0.625
vt 0.177734375 0.625
vt 0.177734375 0.6484375
vt 0.15625 0.6484375
vt 0.15625 0.625
vt 0.1650390625 0.4794921875
vt 0.1650390625 0.5
vt 0.15625 0.5
vt 0.15625 0.4794921875
vt 0.2119140625 0.4794921875
vt 0.2119140625 0.5
vt 0.203125 0.5
vt 0.203125 0.4794921875
vt 0.328125 0.484375
vt 0.328125 0.4755859375
vt 0.345703125 0.4755859375
vt 0.345703125 0.484375
vt 0.390625 0.4755859375
vt 0.390625 0.484375
vt 0.408203125 0.484375
vt 0.408203125 0.4755859375
vt 0.423828125 0.8154296875
vt 0.423828125 0.8359375
vt 0.40625 0.8359375
vt 0.40625 0.8154296875
vt 0.181640625 0.5732421875
vt 0.181640625 0.59375
vt 0.1640625 0.59375
vt 0.1640625 0.5732421875
vt 0.3134765625 0.578125
vt 0.3134765625 0.6328125
vt 0.3046875 0.6328125
vt 0.3046875 0.578125
vt 0.3837890625 0.8828125
vt 0.3837890625 0.9375
vt 0.375 0.9375
vt 0.375 0.8828125
vt 0.4921875 0.796875
vt 0.4921875 0.7880859375
vt 0.513671875 0.7880859375
vt 0.513671875 0.796875
vt 0.265625 0.4990234375
vt 0.265625 0.5078125
vt 0.287109375 0.5078125
vt 0.287109375 0.4990234375
vt 0.115234375 0.75
vt 0.115234375 0.8046875
vt 0.09375 0.8046875
vt 0.09375 0.75
vt 0.216796875 0.859375
vt 0.216796875 0.9140625
vt 0.1953125 0.9140625
vt 0.1953125 0.859375
vt 0.2744140625 0.908203125
vt 0.2744140625 0.9453125
vt 0.25 0.9453125
vt 0.25 0.908203125
vt 0.2744140625 0.861328125
vt 0.2744140625 0.8984375
vt 0.25 0.8984375
vt 0.25 0.861328125
vt 0.1953125 0.46875
vt 0.1953125 0.4443359375
vt 0.201171875 0.4443359375
vt 0.201171875 0.46875
vt 0.2109375 0.4443359375
vt 0.2109375 0.46875
vt 0.216796875 0.46875
vt 0.216796875 0.4443359375
vt 0.443359375 0.494140625
vt 0.443359375 0.53125
vt 0.4375 0.53125
vt 0.4375 0.494140625
vt 0.427734375 0.494140625
vt 0.427734375 0.53125
vt 0.421875 0.53125
vt 0.421875 0.494140625
vt 0.1953125 0.921875
vt 0.1953125 0.953125
vt 0.15625 0.953125
vt 0.15625 0.921875
vt 0.1328125 0.8125
vt 0.1328125 0.84375
vt 0.09375 0.84375
vt 0.09375 0.8125
vt 0.078125 0.796875
vt 0.078125 0.7578125
vt 0.0859375 0.7578125
vt 0.0859375 0.796875
vt 0.390625 0.5546875
vt 0.390625 0.59375
vt 0.3984375 0.59375
vt 0.3984375 0.5546875
vt 0.0078125 0.515625
vt 0.0078125 0.546875
vt 0 0.546875
vt 0 0.515625
vt 0.1328125 0.7734375
vt 0.1328125 0.8046875
vt 0.125 0.8046875
vt 0.125 0.7734375
vt 0.3388671875 0.8125
vt 0.3388671875 0.84375
vt 0.3203125 0.84375
vt 0.3203125 0.8125
vt 0.0810546875 0.640625
vt 0.0810546875 0.671875
vt 0.0625 0.671875
vt 0.0625 0.640625
vt 0.1796875 0.4765625
vt 0.1796875 0.4580078125
vt 0.1875 0.4580078125
vt 0.1875 0.4765625
vt 0.0625 0.4501953125
vt 0.0625 0.46875
vt 0.0703125 0.46875
vt 0.0703125 0.4501953125
vt 0.0390625 0.515625
vt 0.0390625 0.546875
vt 0.03125 0.546875
vt 0.03125 0.515625
vt 0.0234375 0.515625
vt 0.0234375 0.546875
vt 0.015625 0.546875
vt 0.015625 0.515625
vt 0.2080078125 0.5859375
vt 0.2080078125 0.6171875
vt 0.1953125 0.6171875
vt 0.1953125 0.5859375
vt 0.2314453125 0.5859375
vt 0.2314453125 0.6171875
vt 0.21875 0.6171875
vt 0.21875 0.5859375
vt 0.546875 0.59375
vt 0.546875 0.5810546875
vt 0.5546875 0.5810546875
vt 0.5546875 0.59375
vt 0.546875 0.5419921875
vt 0.546875 0.5546875
vt 0.5546875 0.5546875
vt 0.5546875 0.5419921875
vt 0.4609375 0.9140625
vt 0.4609375 0.9453125
vt 0.453125 0.9453125
vt 0.453125 0.9140625
vt 0.0546875 0.515625
vt 0.0546875 0.546875
vt 0.046875 0.546875
vt 0.046875 0.515625
vt 0.1953125 0.5859375
vt 0.1953125 0.6171875
vt 0.2080078125 0.6171875
vt 0.2080078125 0.5859375
vt 0.21875 0.5859375
vt 0.21875 0.6171875
vt 0.2314453125 0.6171875
vt 0.2314453125 0.5859375
vt 0.546875 0.5810546875
vt 0.546875 0.59375
vt 0.5546875 0.59375
vt 0.5546875 0.5810546875
vt 0.546875 0.5546875
vt 0.546875 0.5419921875
vt 0.5546875 0.5419921875
vt 0.5546875 0.5546875
vt 0.046875 0.515625
vt 0.046875 0.546875
vt 0.0546875 0.546875
vt 0.0546875 0.515625
vt 0.453125 0.9140625
vt 0.453125 0.9453125
vt 0.4609375 0.9453125
vt 0.4609375 0.9140625
vt 0.25 0.861328125
vt 0.25 0.8984375
vt 0.2744140625 0.8984375
vt 0.2744140625 0.861328125
vt 0.25 0.908203125
vt 0.25 0.9453125
vt 0.2744140625 0.9453125
vt 0.2744140625 0.908203125
vt 0.201171875 0.46875
vt 0.201171875 0.4443359375
vt 0.1953125 0.4443359375
vt 0.1953125 0.46875
vt 0.216796875 0.4443359375
vt 0.216796875 0.46875
vt 0.2109375 0.46875
vt 0.2109375 0.4443359375
vt 0.4375 0.494140625
vt 0.4375 0.53125
vt 0.443359375 0.53125
vt 0.443359375 0.494140625
vt 0.421875 0.494140625
vt 0.421875 0.53125
vt 0.427734375 0.53125
vt 0.427734375 0.494140625
vt 0.09375 0.8125
vt 0.09375 0.84375
vt 0.1328125 0.84375
vt 0.1328125 0.8125
vt 0.15625 0.921875
vt 0.15625 0.953125
vt 0.1953125 0.953125
vt 0.1953125 0.921875
vt 0.0859375 0.796875
vt 0.0859375 0.7578125
vt 0.078125 0.7578125
vt 0.078125 0.796875
vt 0.3984375 0.5546875
vt 0.3984375 0.59375
vt 0.390625 0.59375
vt 0.390625 0.5546875
vt 0 0.515625
vt 0 0.546875
vt 0.0078125 0.546875
vt 0.0078125 0.515625
vt 0.125 0.7734375
vt 0.125 0.8046875
vt 0.1328125 0.8046875
vt 0.1328125 0.7734375
vt 0.0625 0.640625
vt 0.0625 0.671875
vt 0.0810546875 0.671875
vt 0.0810546875 0.640625
vt 0.3203125 0.8125
vt 0.3203125 0.84375
vt 0.3388671875 0.84375
vt 0.3388671875 0.8125
vt 0.1875 0.4765625
vt 0.1875 0.4580078125
vt 0.1796875 0.4580078125
vt 0.1796875 0.4765625
vt 0.0703125 0.4501953125
vt 0.0703125 0.46875
vt 0.0625 0.46875
vt 0.0625 0.4501953125
vt 0.03125 0.515625
vt 0.03125 0.546875
vt 0.0390625 0.546875
vt 0.0390625 0.515625
vt 0.015625 0.515625
vt 0.015625 0.546875
vt 0.0234375 0.546875
vt 0.0234375 0.515625
vt 0.21875 0.5859375
vt 0.21875 0.6171875
vt 0.2314453125 0.6171875
vt 0.2314453125 0.5859375
vt 0.1953125 0.5859375
vt 0.1953125 0.6171875
vt 0.2080078125 0.6171875
vt 0.2080078125 0.5859375
vt 0.5546875 0.59375
vt 0.5546875 0.5810546875
vt 0.546875 0.5810546875
vt 0.546875 0.59375
vt 0.5546875 0.5419921875
vt 0.5546875 0.5546875
vt 0.546875 0.5546875
vt 0.546875 0.5419921875
vt 0.453125 0.9140625
vt 0.453125 0.9453125
vt 0.4609375 0.9453125
vt 0.4609375 0.9140625
vt 0.046875 0.515625
vt 0.046875 0.546875
vt 0.0546875 0.546875
vt 0.0546875 0.515625
vt 0.2314453125 0.5859375
vt 0.2314453125 0.6171875
vt 0.21875 0.6171875
vt 0.21875 0.5859375
vt 0.2080078125 0.5859375
vt 0.2080078125 0.6171875
vt 0.1953125 0.6171875
vt 0.1953125 0.5859375
vt 0.5546875 0.5810546875
vt 0.5546875 0.59375
vt 0.546875 0.59375
vt 0.546875 0.5810546875
vt 0.5546875 0.5546875
vt 0.5546875 0.5419921875
vt 0.546875 0.5419921875
vt 0.546875 0.5546875
vt 0.0546875 0.515625
vt 0.0546875 0.546875
vt 0.046875 0.546875
vt 0.046875 0.515625
vt 0.4609375 0.9140625
vt 0.4609375 0.9453125
vt 0.453125 0.9453125
vt 0.453125 0.9140625
vt 0.232421875 0.4697265625
vt 0.232421875 0.5
vt 0.2265625 0.5
vt 0.2265625 0.4697265625
vt 0.505859375 0.5244140625
vt 0.505859375 0.5546875
vt 0.5 0.5546875
vt 0.5 0.5244140625
vt 0.5234375 0.4140625
vt 0.5234375 0.408203125
vt 0.53125 0.408203125
vt 0.53125 0.4140625
vt 0.5390625 0.408203125
vt 0.5390625 0.4140625
vt 0.546875 0.4140625
vt 0.546875 0.408203125
vt 0.4765625 0.6337890625
vt 0.4765625 0.6640625
vt 0.46875 0.6640625
vt 0.46875 0.6337890625
vt 0.34375 0.5009765625
vt 0.34375 0.53125
vt 0.3359375 0.53125
vt 0.3359375 0.5009765625
vt 0.0087890625 0.484375
vt 0.0087890625 0.5078125
vt 0 0.5078125
vt 0 0.484375
vt 0.5009765625 0.9765625
vt 0.5009765625 1
vt 0.4921875 1
vt 0.4921875 0.9765625
vt 0.078125 0.609375
vt 0.078125 0.6005859375
vt 0.12109375 0.6005859375
vt 0.12109375 0.609375
vt 0.3984375 0.9287109375
vt 0.3984375 0.9375
vt 0.44140625 0.9375
vt 0.44140625 0.9287109375
vt 0.24609375 0.9765625
vt 0.24609375 1
vt 0.203125 1
vt 0.203125 0.9765625
vt 0.04296875 0.7734375
vt 0.04296875 0.796875
vt 0 0.796875
vt 0 0.7734375
vt 0.5576171875 0.3984375
vt 0.5576171875 0.4140625
vt 0.5546875 0.4140625
vt 0.5546875 0.3984375
vt 0.0029296875 0.390625
vt 0.0029296875 0.40625
vt 0 0.40625
vt 0 0.390625
vt 0 0.4453125
vt 0 0.4423828125
vt 0.03125 0.4423828125
vt 0.03125 0.4453125
vt 0.5546875 0.9736328125
vt 0.5546875 0.9765625
vt 0.5859375 0.9765625
vt 0.5859375 0.9736328125
vt 0.25 0.625
vt 0.25 0.640625
vt 0.21875 0.640625
vt 0.21875 0.625
vt 0.3828125 0.9453125
vt 0.3828125 0.9609375
vt 0.3515625 0.9609375
vt 0.3515625 0.9453125
vt 0.2509765625 0.453125
vt 0.2509765625 0.46875
vt 0.2421875 0.46875
vt 0.2421875 0.453125
vt 0.4853515625 0.453125
vt 0.4853515625 0.46875
vt 0.4765625 0.46875
vt 0.4765625 0.453125
vt 0.3984375 0.9140625
vt 0.3984375 0.9052734375
vt 0.44140625 0.9052734375
vt 0.44140625 0.9140625
vt 0 0.5849609375
vt 0 0.59375
vt 0.04296875 0.59375
vt 0.04296875 0.5849609375
vt 0.12109375 0.6796875
vt 0.12109375 0.6953125
vt 0.078125 0.6953125
vt 0.078125 0.6796875
vt 0.33203125 0.6875
vt 0.33203125 0.703125
vt 0.2890625 0.703125
vt 0.2890625 0.6875
vt 0.466796875 0.4375
vt 0.466796875 0.453125
vt 0.4609375 0.453125
vt 0.4609375 0.4375
vt 0.044921875 0.4296875
vt 0.044921875 0.4453125
vt 0.0390625 0.4453125
vt 0.0390625 0.4296875
vt 0.1875 0.40625
vt 0.1875 0.400390625
vt 0.1923828125 0.400390625
vt 0.1923828125 0.40625
vt 0.203125 0.400390625
vt 0.203125 0.40625
vt 0.2080078125 0.40625
vt 0.2080078125 0.400390625
vt 0.5673828125 0.8359375
vt 0.5673828125 0.8515625
vt 0.5625 0.8515625
vt 0.5625 0.8359375
vt 0.5673828125 0.859375
vt 0.5673828125 0.875
vt 0.5625 0.875
vt 0.5625 0.859375
vt 0.462890625 0.388671875
vt 0.462890625 0.4140625
vt 0.4609375 0.4140625
vt 0.4609375 0.388671875
vt 0.494140625 0.388671875
vt 0.494140625 0.4140625
vt 0.4921875 0.4140625
vt 0.4921875 0.388671875
vt 0.0703125 0.40625
vt 0.0703125 0.404296875
vt 0.0869140625 0.404296875
vt 0.0869140625 0.40625
vt 0.140625 0.404296875
vt 0.140625 0.40625
vt 0.1572265625 0.40625
vt 0.1572265625 0.404296875
vt 0.3916015625 0.693359375
vt 0.3916015625 0.71875
vt 0.375 0.71875
vt 0.375 0.693359375
vt 0.3916015625 0.732421875
vt 0.3916015625 0.7578125
vt 0.375 0.7578125
vt 0.375 0.732421875
vt 0.560546875 0.9453125
vt 0.560546875 0.9609375
vt 0.5546875 0.9609375
vt 0.5546875 0.9453125
vt 0.560546875 0.921875
vt 0.560546875 0.9375
vt 0.5546875 0.9375
vt 0.5546875 0.921875
vt 0.234375 0.40625
vt 0.234375 0.400390625
vt 0.2392578125 0.400390625
vt 0.2392578125 0.40625
vt 0.3046875 0.400390625
vt 0.3046875 0.40625
vt 0.3095703125 0.40625
vt 0.3095703125 0.400390625
vt 0.5673828125 0.578125
vt 0.5673828125 0.59375
vt 0.5625 0.59375
vt 0.5625 0.578125
vt 0.5673828125 0.7109375
vt 0.5673828125 0.7265625
vt 0.5625 0.7265625
vt 0.5625 0.7109375
vt 0.560546875 0.8984375
vt 0.560546875 0.9140625
vt 0.5546875 0.9140625
vt 0.5546875 0.8984375
vt 0.177734375 0.4296875
vt 0.177734375 0.4453125
vt 0.171875 0.4453125
vt 0.171875 0.4296875
vt 0.359375 0.40625
vt 0.359375 0.400390625
vt 0.3642578125 0.400390625
vt 0.3642578125 0.40625
vt 0.375 0.400390625
vt 0.375 0.40625
vt 0.3798828125 0.40625
vt 0.3798828125 0.400390625
vt 0.5673828125 0.5390625
vt 0.5673828125 0.5546875
vt 0.5625 0.5546875
vt 0.5625 0.5390625
vt 0.4267578125 0.421875
vt 0.4267578125 0.4375
vt 0.421875 0.4375
vt 0.421875 0.421875
vt 0.2900390625 0.388671875
vt 0.2900390625 0.3984375
vt 0.2890625 0.3984375
vt 0.2890625 0.388671875
vt 0.6025390625 0.662109375
vt 0.6025390625 0.671875
vt 0.6015625 0.671875
vt 0.6015625 0.662109375
vt 0.6015625 0.71875
vt 0.6015625 0.7177734375
vt 0.619140625 0.7177734375
vt 0.619140625 0.71875
vt 0.6015625 0.7021484375
vt 0.6015625 0.703125
vt 0.619140625 0.703125
vt 0.619140625 0.7021484375
vt 0.525390625 0.841796875
vt 0.525390625 0.8515625
vt 0.5078125 0.8515625
vt 0.5078125 0.841796875
vt 0.525390625 0.935546875
vt 0.525390625 0.9453125
vt 0.5078125 0.9453125
vt 0.5078125 0.935546875
vt 0.560546875 0.8125
vt 0.560546875 0.828125
vt 0.5546875 0.828125
vt 0.5546875 0.8125
vt 0.560546875 0.7890625
vt 0.560546875 0.8046875
vt 0.5546875 0.8046875
vt 0.5546875 0.7890625
vt 0.4375 0.40625
vt 0.4375 0.400390625
vt 0.4423828125 0.400390625
vt 0.4423828125 0.40625
vt 0.59375 0.501953125
vt 0.59375 0.5078125
vt 0.5986328125 0.5078125
vt 0.5986328125 0.501953125
vt 0.5595703125 0.421875
vt 0.5595703125 0.4375
vt 0.5546875 0.4375
vt 0.5546875 0.421875
vt 0.5439453125 0.421875
vt 0.5439453125 0.4375
vt 0.5390625 0.4375
vt 0.5390625 0.421875
vt 0.111328125 0.39453125
vt 0.111328125 0.4375
vt 0.109375 0.4375
vt 0.109375 0.39453125
vt 0.126953125 0.39453125
vt 0.126953125 0.4375
vt 0.125 0.4375
vt 0.125 0.39453125
vt 0.015625 0.40625
vt 0.015625 0.404296875
vt 0.0361328125 0.404296875
vt 0.0361328125 0.40625
vt 0.59375 0.982421875
vt 0.59375 0.984375
vt 0.6142578125 0.984375
vt 0.6142578125 0.982421875
vt 0.2470703125 0.70703125
vt 0.2470703125 0.75
vt 0.2265625 0.75
vt 0.2265625 0.70703125
vt 0.2158203125 0.70703125
vt 0.2158203125 0.75
vt 0.1953125 0.75
vt 0.1953125 0.70703125
vt 0.248046875 0.4296875
vt 0.248046875 0.4453125
vt 0.2421875 0.4453125
vt 0.2421875 0.4296875
vt 0.560546875 0.734375
vt 0.560546875 0.75
vt 0.5546875 0.75
vt 0.5546875 0.734375
vt 0.59375 0.4453125
vt 0.59375 0.439453125
vt 0.5986328125 0.439453125
vt 0.5986328125 0.4453125
vt 0.5703125 0.400390625
vt 0.5703125 0.40625
vt 0.5751953125 0.40625
vt 0.5751953125 0.400390625
vt 0.0205078125 0.4140625
vt 0.0205078125 0.4296875
vt 0.015625 0.4296875
vt 0.015625 0.4140625
vt 0.0048828125 0.4140625
vt 0.0048828125 0.4296875
vt 0 0.4296875
vt 0 0.4140625
vt 0.560546875 0.671875
vt 0.560546875 0.6875
vt 0.5546875 0.6875
vt 0.5546875 0.671875
vt 0.560546875 0.6484375
vt 0.560546875 0.6640625
vt 0.5546875 0.6640625
vt 0.5546875 0.6484375
vt 0.59375 0.4296875
vt 0.59375 0.423828125
vt 0.5986328125 0.423828125
vt 0.5986328125 0.4296875
vt 0.5859375 0.400390625
vt 0.5859375 0.40625
vt 0.5908203125 0.40625
vt 0.5908203125 0.400390625
vt 0.5751953125 0.921875
vt 0.5751953125 0.9375
vt 0.5703125 0.9375
vt 0.5703125 0.921875
vt 0.5751953125 0.9453125
vt 0.5751953125 0.9609375
vt 0.5703125 0.9609375
vt 0.5703125 0.9453125
vt 0.3916015625 0.388671875
vt 0.3916015625 0.3984375
vt 0.390625 0.3984375
vt 0.390625 0.388671875
vt 0.4072265625 0.388671875
vt 0.4072265625 0.3984375
vt 0.40625 0.3984375
vt 0.40625 0.388671875
vt 0.6015625 0.6875
vt 0.6015625 0.6865234375
vt 0.619140625 0.6865234375
vt 0.619140625 0.6875
vt 0.3203125 0.3974609375
vt 0.3203125 0.3984375
vt 0.337890625 0.3984375
vt 0.337890625 0.3974609375
vt 0.525390625 0.716796875
vt 0.525390625 0.7265625
vt 0.5078125 0.7265625
vt 0.5078125 0.716796875
vt 0.525390625 0.740234375
vt 0.525390625 0.75
vt 0.5078125 0.75
vt 0.5078125 0.740234375
vt 0.560546875 0.625
vt 0.560546875 0.640625
vt 0.5546875 0.640625
vt 0.5546875 0.625
vt 0.560546875 0.6015625
vt 0.560546875 0.6171875
vt 0.5546875 0.6171875
vt 0.5546875 0.6015625
vt 0.6015625 1
vt 0.6015625 0.994140625
vt 0.6064453125 0.994140625
vt 0.6064453125 1
vt 0.6015625 0.962890625
vt 0.6015625 0.96875
vt 0.6064453125 0.96875
vt 0.6064453125 0.962890625
vt 0.0908203125 0.4140625
vt 0.0908203125 0.4296875
vt 0.0859375 0.4296875
vt 0.0859375 0.4140625
vt 0.0751953125 0.4140625
vt 0.0751953125 0.4296875
vt 0.0703125 0.4296875
vt 0.0703125 0.4140625
vt 0.509765625 0.388671875
vt 0.509765625 0.4140625
vt 0.5078125 0.4140625
vt 0.5078125 0.388671875
vt 0.587890625 0.458984375
vt 0.587890625 0.484375
vt 0.5859375 0.484375
vt 0.5859375 0.458984375
vt 0.59375 0.859375
vt 0.59375 0.857421875
vt 0.6103515625 0.857421875
vt 0.6103515625 0.859375
vt 0.59375 0.841796875
vt 0.59375 0.84375
vt 0.6103515625 0.84375
vt 0.6103515625 0.841796875
vt 0.3994140625 0.849609375
vt 0.3994140625 0.875
vt 0.3828125 0.875
vt 0.3828125 0.849609375
vt 0.3994140625 0.974609375
vt 0.3994140625 1
vt 0.3828125 1
vt 0.3828125 0.974609375
vt 0.560546875 0.515625
vt 0.560546875 0.53125
vt 0.5546875 0.53125
vt 0.5546875 0.515625
vt 0.482421875 0.4296875
vt 0.482421875 0.4453125
vt 0.4765625 0.4453125
vt 0.4765625 0.4296875
vt 0.6015625 0.953125
vt 0.6015625 0.947265625
vt 0.6064453125 0.947265625
vt 0.6064453125 0.953125
vt 0.6015625 0.931640625
vt 0.6015625 0.9375
vt 0.6064453125 0.9375
vt 0.6064453125 0.931640625
vt 0.1455078125 0.4140625
vt 0.1455078125 0.4296875
vt 0.140625 0.4296875
vt 0.140625 0.4140625
vt 0.5751953125 0.8984375
vt 0.5751953125 0.9140625
vt 0.5703125 0.9140625
vt 0.5703125 0.8984375
vt 0.046875 0.609375
vt 0.046875 0.640625
vt 0.03125 0.640625
vt 0.03125 0.609375
vt 0.2734375 0.609375
vt 0.2734375 0.640625
vt 0.2578125 0.640625
vt 0.2578125 0.609375
vt 0.4140625 0.6796875
vt 0.4140625 0.6640625
vt 0.43359375 0.6640625
vt 0.43359375 0.6796875
vt 0.40625 0.5703125
vt 0.40625 0.5859375
vt 0.42578125 0.5859375
vt 0.42578125 0.5703125
vt 0.05078125 0.6484375
vt 0.05078125 0.6796875
vt 0.03125 0.6796875
vt 0.03125 0.6484375
vt 0.33984375 0.9453125
vt 0.33984375 0.9765625
vt 0.3203125 0.9765625
vt 0.3203125 0.9453125
vt 0.283203125 0.46875
vt 0.283203125 0.484375
vt 0.2734375 0.484375
vt 0.2734375 0.46875
vt 0.431640625 0.46875
vt 0.431640625 0.484375
vt 0.421875 0.484375
vt 0.421875 0.46875
vt 0.5390625 0.8515625
vt 0.5390625 0.841796875
vt 0.5517578125 0.841796875
vt 0.5517578125 0.8515625
vt 0.421875 0.451171875
vt 0.421875 0.4609375
vt 0.4345703125 0.4609375
vt 0.4345703125 0.451171875
vt 0.0908203125 0.4921875
vt 0.0908203125 0.5078125
vt 0.078125 0.5078125
vt 0.078125 0.4921875
vt 0.0517578125 0.4921875
vt 0.0517578125 0.5078125
vt 0.0390625 0.5078125
vt 0.0390625 0.4921875
vt 0.1953125 0.8359375
vt 0.1953125 0.8515625
vt 0.1875 0.8515625
vt 0.1875 0.8359375
vt 0.34375 0.984375
vt 0.34375 1
vt 0.3359375 1
vt 0.3359375 0.984375
vt 0.4921875 0.4453125
vt 0.4921875 0.4375
vt 0.50390625 0.4375
vt 0.50390625 0.4453125
vt 0.515625 0.4375
vt 0.515625 0.4453125
vt 0.52734375 0.4453125
vt 0.52734375 0.4375
vt 0.49609375 0.4921875
vt 0.49609375 0.5078125
vt 0.484375 0.5078125
vt 0.484375 0.4921875
vt 0.50390625 0.6875
vt 0.50390625 0.703125
vt 0.4921875 0.703125
vt 0.4921875 0.6875
vt 0.1875 0.703125
vt 0.1875 0.7421875
vt 0.171875 0.7421875
vt 0.171875 0.703125
vt 0.3359375 0.8984375
vt 0.3359375 0.9375
vt 0.3203125 0.9375
vt 0.3203125 0.8984375
vt 0.1953125 0.578125
vt 0.1953125 0.5625
vt 0.21484375 0.5625
vt 0.21484375 0.578125
vt 0.2265625 0.5625
vt 0.2265625 0.578125
vt 0.24609375 0.578125
vt 0.24609375 0.5625
vt 0.27734375 0.6953125
vt 0.27734375 0.734375
vt 0.2578125 0.734375
vt 0.2578125 0.6953125
vt 0.27734375 0.7421875
vt 0.27734375 0.78125
vt 0.2578125 0.78125
vt 0.2578125 0.7421875
vt 0.3359375 0.8515625
vt 0.3359375 0.890625
vt 0.3203125 0.890625
vt 0.3203125 0.8515625
vt 0.3359375 0.7421875
vt 0.3359375 0.78125
vt 0.3203125 0.78125
vt 0.3203125 0.7421875
vt 0.421875 0.65625
vt 0.421875 0.640625
vt 0.44140625 0.640625
vt 0.44140625 0.65625
vt 0 0.5546875
vt 0 0.5703125
vt 0.01953125 0.5703125
vt 0.01953125 0.5546875
vt 0.30859375 0.90625
vt 0.30859375 0.9453125
vt 0.2890625 0.9453125
vt 0.2890625 0.90625
vt 0.06640625 0.6875
vt 0.06640625 0.7265625
vt 0.046875 0.7265625
vt 0.046875 0.6875
vt 0.296875 0.640625
vt 0.296875 0.6796875
vt 0.28125 0.6796875
vt 0.28125 0.640625
vt 0.3203125 0.640625
vt 0.3203125 0.6796875
vt 0.3046875 0.6796875
vt 0.3046875 0.640625
vt 0.03125 0.5703125
vt 0.03125 0.5546875
vt 0.05078125 0.5546875
vt 0.05078125 0.5703125
vt 0.4296875 0.953125
vt 0.4296875 0.96875
vt 0.44921875 0.96875
vt 0.44921875 0.953125
vt 0.30859375 0.8125
vt 0.30859375 0.8515625
vt 0.2890625 0.8515625
vt 0.2890625 0.8125
vt 0.30859375 0.859375
vt 0.30859375 0.8984375
vt 0.2890625 0.8984375
vt 0.2890625 0.859375
vt 0.5927734375 0.7890625
vt 0.5927734375 0.796875
vt 0.5859375 0.796875
vt 0.5859375 0.7890625
vt 0.5927734375 0.7421875
vt 0.5927734375 0.75
vt 0.5859375 0.75
vt 0.5859375 0.7421875
vt 0.46875 0.5703125
vt 0.46875 0.5634765625
vt 0.5 0.5634765625
vt 0.5 0.5703125
vt 0.265625 0.5166015625
vt 0.265625 0.5234375
vt 0.296875 0.5234375
vt 0.296875 0.5166015625
vt 0.484375 0.8984375
vt 0.484375 0.90625
vt 0.453125 0.90625
vt 0.453125 0.8984375
vt 0.4765625 0.671875
vt 0.4765625 0.6796875
vt 0.4453125 0.6796875
vt 0.4453125 0.671875
vt 0.2802734375 0.40625
vt 0.2802734375 0.4140625
vt 0.2734375 0.4140625
vt 0.2734375 0.40625
vt 0.2958984375 0.40625
vt 0.2958984375 0.4140625
vt 0.2890625 0.4140625
vt 0.2890625 0.40625
vt 0.5859375 0.703125
vt 0.5859375 0.6962890625
vt 0.59375 0.6962890625
vt 0.59375 0.703125
vt 0.5859375 0.6806640625
vt 0.5859375 0.6875
vt 0.59375 0.6875
vt 0.59375 0.6806640625
vt 0.2265625 0.421875
vt 0.2265625 0.4296875
vt 0.21875 0.4296875
vt 0.21875 0.421875
vt 0.25 0.609375
vt 0.25 0.6171875
vt 0.2421875 0.6171875
vt 0.2421875 0.609375
vt 0.3349609375 0.40625
vt 0.3349609375 0.4140625
vt 0.328125 0.4140625
vt 0.328125 0.40625
vt 0.5927734375 0.6640625
vt 0.5927734375 0.671875
vt 0.5859375 0.671875
vt 0.5859375 0.6640625
vt 0.34375 0.4140625
vt 0.34375 0.4072265625
vt 0.3515625 0.4072265625
vt 0.3515625 0.4140625
vt 0.5859375 0.6494140625
vt 0.5859375 0.65625
vt 0.59375 0.65625
vt 0.59375 0.6494140625
vt 0.265625 0.421875
vt 0.265625 0.4296875
vt 0.2578125 0.4296875
vt 0.2578125 0.421875
vt 0.578125 0.7421875
vt 0.578125 0.75
vt 0.5703125 0.75
vt 0.5703125 0.7421875
vt 0.109375 0.4765625
vt 0.109375 0.5
vt 0.1015625 0.5
vt 0.1015625 0.4765625
vt 0.5078125 0.859375
vt 0.5078125 0.8828125
vt 0.5 0.8828125
vt 0.5 0.859375
vt 0.3828125 0.6328125
vt 0.3828125 0.625
vt 0.4248046875 0.625
vt 0.4248046875 0.6328125
vt 0.3984375 0.8828125
vt 0.3984375 0.890625
vt 0.4404296875 0.890625
vt 0.4404296875 0.8828125
vt 0.2451171875 0.7578125
vt 0.2451171875 0.78125
vt 0.203125 0.78125
vt 0.203125 0.7578125
vt 0.2451171875 0.7890625
vt 0.2451171875 0.8125
vt 0.203125 0.8125
vt 0.203125 0.7890625
vt 0.5087890625 0.453125
vt 0.5087890625 0.46875
vt 0.5 0.46875
vt 0.5 0.453125
vt 0.5322265625 0.453125
vt 0.5322265625 0.46875
vt 0.5234375 0.46875
vt 0.5234375 0.453125
vt 0.46875 0.84375
vt 0.46875 0.8349609375
vt 0.4951171875 0.8349609375
vt 0.4951171875 0.84375
vt 0.46875 0.6162109375
vt 0.46875 0.625
vt 0.4951171875 0.625
vt 0.4951171875 0.6162109375
vt 0.1826171875 0.6015625
vt 0.1826171875 0.6171875
vt 0.15625 0.6171875
vt 0.15625 0.6015625
vt 0.4013671875 0.6640625
vt 0.4013671875 0.6796875
vt 0.375 0.6796875
vt 0.375 0.6640625
vn 0 -0.07845909572784504 0.9969173337331281
vn 0.9911338814021277 0.10851759448139796 -0.07666525174239087
vn 0.9484923939409812 -0.0996905099113777 0.3007058045161684
vn 0.21643961393810318 -2.775557561562892e-17 -0.9762960071199334
vn -0.21643961393810335 1.387778780781446e-17 0.9762960071199334
vn 1.6098233857064774e-15 1 -3.191891195797325e-16
vn 2.5442610980993184e-16 -1 1.3877787807814457e-16
vn 0.9762960071199335 1.0408340855860843e-17 0.216439613938103
vn -0.9762960071199333 6.938893903907227e-18 -0.216439613938103
vn 0.9848077530122081 0 -0.17364817766693036
vn -0.9848077530122081 0 0.17364817766693044
vn -2.6136500371383907e-16 1 -7.91033905045424e-16
vn 2.5905203907920336e-16 -1 7.91033905045424e-16
vn 0.1736481776669303 -1.3877787807814457e-17 0.9848077530122081
vn -0.17364817766693041 0 -0.9848077530122081
vn -0.21643961393810318 -4.163336342344338e-17 -0.9762960071199334
vn 0.21643961393810332 0 0.9762960071199334
vn -1.6028844918025701e-15 1 -3.191891195797325e-16
vn -2.590520390792033e-16 -1 1.3877787807814457e-16
vn -0.9762960071199335 6.93889390390723e-18 0.21643961393810304
vn 0.9762960071199335 6.93889390390723e-18 -0.21643961393810304
vn -3.1792750250629455e-16 -0.026176948307872795 -0.9996573249755574
vn 1 0 0
vn -1 0 0
vn 0 0.9975640502598243 0.06975647374412604
vn 0 -0.9975640502598245 -0.06975647374412368
vn 0 -0.0697564737441252 0.9975640502598243
vn 0 0.06975647374412522 -0.9975640502598243
vn 1 0 0
vn -1 0 0
vn 0 0.9975640502598243 0.06975647374412604
vn 0 -0.9975640502598245 -0.06975647374412368
vn 0 -0.0697564737441252 0.9975640502598243
vn 0 0.06975647374412522 -0.9975640502598243
vn 1 0 0
vn -1 0 0
vn 0 0.9975640502598243 0.06975647374412604
vn 0 -0.9975640502598245 -0.06975647374412368
vn 0 -0.0697564737441252 0.9975640502598243
vn 0 0.06975647374412522 -0.9975640502598243
vn 1 0 0
vn -1 0 0
vn 0 0.9975640502598243 0.06975647374412604
vn 0 -0.9975640502598245 -0.06975647374412368
vn 0 -0.0697564737441252 0.9975640502598243
vn 0 0.06975647374412522 -0.9975640502598243
vn 0 0.9996573249755574 0.026176948307873524
vn 0 0.026176948307873565 -0.9996573249755574
vn 0.0034168568231950146 0.9996573238284534 0.02595303461225206
vn -0.13048147831774196 0.026176901168059985 -0.9911051173620559
vn -0.004545607172721889 0.9996573245748746 0.025779272279006983
vn 0.17358863187509327 0.026176906969276194 -0.9844702923020356
vn 1 0 0
vn -1 0 0
vn 0 1 1.096345236817342e-15
vn 0 -1 -2.081668171172169e-16
vn 0 0 1
vn 0 1.3877787807814457e-17 -1
vn 1 0 0
vn -1 0 0
vn 0 1 -1.2628786905111158e-15
vn 0 -1 8.326672684688677e-17
vn 0 4.163336342344338e-17 1
vn 0 -5.551115123125784e-17 -1
vn 1 0 0
vn -1 0 0
vn 0 0.9781476007338055 0.20791169081776079
vn 0 -0.9781476007338062 -0.20791169081775734
vn 0 -0.20791169081775948 0.9781476007338057
vn 0 0.20791169081775934 -0.9781476007338057
vn 0.9574818564260025 0.2812827591472233 0.06409761322811851
vn -0.9574818564260023 -0.28128275914722334 -0.06409761322811947
vn -0.27505634437783083 0.9570859180594437 -0.09127186242109857
vn 0.2750563443778307 -0.9570859180594439 0.09127186242109855
vn -0.08702012429616525 0.06976069709254319 0.9937610090502861
vn 0.08702012429616489 -0.069760697092543 -0.9937610090502861
vn 0.9574817175661281 0.2812832342492212 0.06409760258321048
vn -0.9574817175661284 -0.28128323424921975 -0.06409760258321043
vn 0.002799135397815055 0.21311175450296652 -0.9770238200441647
vn -0.002799135397814887 -0.213111754502966 0.9770238200441647
vn -0.28848037258649284 0.9356618631872123 0.20326325887723262
vn 0.288480372586494 -0.9356618631872123 -0.2032632588772306
vn 0.9579455165477695 0.27569901139932845 0.07956407756934313
vn -0.9579455165477694 -0.27569901139932873 -0.079564077569343
vn -0.131803086731053 0.17646028545825646 0.975443342272711
vn 0.1318030867310532 -0.17646028545825557 -0.9754433422727112
vn 0.2548888653005334 -0.9449083673930634 0.20537732001460732
vn -0.25488886530053323 0.9449083673930633 -0.20537732001460715
vn 0.9579455165477693 0.275699011399329 0.07956407756934265
vn -0.9579455165477696 -0.2756990113993276 -0.07956407756934261
vn -0.1318030867310534 0.17646028545825612 0.975443342272711
vn 0.131803086731054 -0.17646028545825593 -0.9754433422727109
vn 0.2548888653005348 -0.944908367393063 0.20537732001460737
vn -0.2548888653005335 0.9449083673930632 -0.20537732001460723
vn 0.9579455504865693 0.2756986864317565 0.079564794996203
vn -0.9579455504865693 -0.2756986864317565 -0.07956479499620284
vn -0.2861258542850686 0.9387411480584387 0.19208605480764124
vn 0.28612585428506737 -0.9387411480584392 -0.1920860548076414
vn -0.02173287400744499 -0.20677352645280497 0.9781474280217927
vn 0.021732874007444683 0.20677352645280495 -0.9781474280217926
vn 0.9574818564260025 -0.281282759147223 -0.06409761322811941
vn -0.9574818564260023 0.28128275914722334 0.06409761322811852
vn 0.27505634437783083 0.9570859180594439 -0.09127186242109894
vn -0.2750563443778304 -0.9570859180594435 0.09127186242110204
vn 0.08702012429616522 0.06976069709254303 0.993761009050286
vn -0.08702012429616493 -0.06976069709254325 -0.993761009050286
vn 0.9574817175661284 -0.28128323424922014 -0.06409760258320876
vn -0.9574817175661282 0.28128323424922136 0.06409760258320991
vn -0.0027991353978149463 0.21311175450296693 -0.9770238200441647
vn 0.002799135397814612 -0.2131117545029669 0.9770238200441647
vn 0.28848037258649284 0.9356618631872118 0.20326325887723445
vn -0.288480372586494 -0.9356618631872115 -0.20326325887723445
vn 0.9579455165477695 -0.2756990113993277 -0.07956407756934293
vn -0.9579455165477693 0.27569901139932906 0.07956407756934265
vn 0.1318030867310534 0.17646028545825618 0.975443342272711
vn -0.13180308673105354 -0.17646028545825432 -0.9754433422727113
vn -0.2548888653005346 -0.9449083673930627 0.2053773200146083
vn 0.2548888653005335 0.9449083673930634 -0.2053773200146072
vn 0.9579455165477694 -0.2756990113993289 -0.07956407756934326
vn -0.9579455165477694 0.2756990113993284 0.07956407756934313
vn 0.1318030867310537 0.17646028545825626 0.975443342272711
vn -0.13180308673105334 -0.17646028545825637 -0.975443342272711
vn -0.25488886530053473 -0.9449083673930633 0.2053773200146057
vn 0.25488886530053445 0.9449083673930632 -0.20537732001460696
vn 0.9579455504865693 -0.2756986864317565 -0.07956479499620284
vn -0.9579455504865693 0.2756986864317565 0.079564794996203
vn 0.2861258542850686 0.9387411480584389 0.19208605480764135
vn -0.2861258542850674 -0.9387411480584391 -0.19208605480764146
vn 0.021732874007445002 -0.206773526452805 0.9781474280217926
vn -0.021732874007444673 0.2067735264528049 -0.9781474280217927
vn 0.9901173120365545 -0.006975703115800895 -0.14006801194972615
vn -0.9901173120365544 0.00697570311580111 0.14006801194972618
vn -0.11063076495243719 0.5749637844829296 -0.8106648384993062
vn 0.11063076495243485 -0.5749637844829296 0.8106648384993064
vn 0.08618899147540415 0.8181491221648455 0.5685098694388212
vn -0.08618899147540322 -0.8181491221648456 -0.5685098694388212
vn 1 0 0
vn -1 0 0
vn 0 1 -3.3306690738754706e-16
vn 0 -1 -4.163336342344337e-17
vn 0 2.220446049250313e-16 1
vn 0 8.326672684688677e-17 -1
vn 3.7794826370218125e-16 -2.775557561562892e-17 -1
vn -3.7794826370218125e-16 2.775557561562892e-17 1
vn 2.965347900198185e-17 1 1.054711873393899e-15
vn 0 -1 -1.1102230246251567e-15
vn 1 -8.628166150854817e-32 4.440892098500629e-16
vn -1 -6.77927340424307e-32 -4.44089209850063e-16
vn 0.7071067811865471 1.1102230246251568e-16 -0.707106781186548
vn -0.7071067811865474 0 0.7071067811865477
vn 2.6888213877640525e-16 1 -1.7486012637846216e-15
vn 1.7347234759768073e-16 -1 -3.1918911957973255e-16
vn 0.7071067811865475 2.775557561562892e-17 0.7071067811865477
vn -0.7071067811865479 1.3183898417423736e-16 -0.7071067811865472
vn 0.5299192642332043 -1.387778780781446e-17 0.8480480961564265
vn -0.5299192642332052 1.8041124150158799e-16 -0.848048096156426
vn -2.896988204881267e-15 1 -1.3739009929736312e-15
vn 1.2184780704489921e-16 -1 1.0408340855860845e-15
vn -0.8480480961564256 1.5265566588595905e-16 0.5299192642332058
vn 0.8480480961564261 -3.469446951953615e-17 -0.5299192642332051
vn 0.9901173120365544 0.0069757031158009936 0.14006801194972626
vn -0.9901173120365544 -0.006975703115800928 -0.14006801194972618
vn 0.110630764952437 0.5749637844829297 -0.810664838499306
vn -0.11063076495243494 -0.5749637844829296 0.8106648384993063
vn -0.08618899147540326 0.8181491221648458 0.5685098694388209
vn 0.08618899147540365 -0.8181491221648456 -0.5685098694388212
vn 1 0 0
vn -1 0 0
vn 0 1 -3.3306690738754706e-16
vn 0 -1 -4.163336342344337e-17
vn 0 2.220446049250313e-16 1
vn 0 8.326672684688677e-17 -1
vn 3.7794826370218125e-16 1.387778780781446e-16 1
vn -3.7794826370218125e-16 1.9428902930940244e-16 -1
vn -2.965347900198185e-17 1 1.0408340855860845e-15
vn 1.4826739500990914e-17 -1 -1.1102230246251567e-15
vn -1 1.8488927466117464e-32 4.44089209850063e-16
vn 1 -1.232595164407831e-32 -4.440892098500629e-16
vn 0.7071067811865474 -1.2490009027033014e-16 0.7071067811865477
vn -0.707106781186547 -2.775557561562892e-17 -0.707106781186548
vn -2.775557561562895e-16 1 -1.762479051592436e-15
vn -1.6913553890773877e-16 -1 -3.3306690738754706e-16
vn -0.7071067811865475 0 0.7071067811865477
vn 0.7071067811865479 1.0408340855860845e-16 -0.7071067811865472
vn 0.5299192642332053 -5.551115123125783e-17 -0.8480480961564257
vn -0.5299192642332043 2.498001805406602e-16 0.8480480961564265
vn 1.0972083633905934e-15 1 -2.511879593214417e-15
vn -1.0668549377257364e-15 -1 4.440892098500626e-16
vn 0.8480480961564256 -1.0408340855860845e-16 0.5299192642332058
vn -0.8480480961564258 6.938893903907228e-18 -0.5299192642332051
vn 1 0 0
vn -1 0 0
vn 0 0.99026806874157 0.13917310096006857
vn 0 -0.9902680687415707 -0.13917310096006363
vn 0 -0.1391731009600655 0.9902680687415704
vn 0 0.13917310096006522 -0.9902680687415704
vn 1 0 0
vn -1 0 0
vn 0 0.984807753012208 0.17364817766693094
vn 0 -0.984807753012208 -0.1736481776669309
vn 0 -0.17364817766693016 0.9848077530122081
vn 0 0.17364817766693044 -0.9848077530122081
vn 1 0 0
vn -1 0 0
vn 0 1 -2.3314683517128287e-15
vn 0 -1 2.5118795932144167e-15
vn 0 -2.220446049250313e-16 1
vn 0 -2.220446049250313e-16 -1
vn 1 0 0
vn -1 0 0
vn 0 1 2.3869795029440866e-15
vn 0 -1 -2.4147350785597155e-15
vn 0 -1.387778780781446e-17 1
vn 0 2.359223927328458e-16 -1
vn 1 0 0
vn -1 0 0
vn 0 0.9945218953682732 0.10452846326765483
vn 0 -0.9945218953682732 -0.10452846326765483
vn 0 -0.1045284632676535 0.9945218953682734
vn 0 0.1045284632676535 -0.9945218953682734
vn 1 0 0
vn -1 0 0
vn 0 0.9961946980917454 0.08715574274766001
vn 0 -0.9961946980917454 -0.08715574274766003
vn 0 -0.08715574274765824 0.9961946980917455
vn 0 0.0871557427476581 -0.9961946980917455
vn 0.9238795325112867 0.37895918350757296 0.053259239968290364
vn -0.923879532511287 -0.3789591835075728 -0.05325923996829131
vn -0.3826834323650896 0.914888400409817 0.12857917945312974
vn 0.3826834323650895 -0.914888400409817 -0.12857917945313213
vn 3.9320398788807596e-16 -0.1391731009600652 0.9902680687415704
vn -3.4694469519536186e-16 0.13917310096006552 -0.9902680687415704
vn 0.7071067811865482 0.7002252665996701 0.09841024344762106
vn -0.7071067811865477 -0.7002252665996701 -0.09841024344762442
vn -0.707106781186546 0.7002252665996722 0.09841024344762127
vn 0.7071067811865476 -0.7002252665996708 -0.0984102434476211
vn 9.251858538542956e-17 -0.13917310096006505 0.9902680687415704
vn -2.3129646346357488e-17 0.13917310096006544 -0.9902680687415704
vn 0.7071067811865476 -0.7044160264027587 -0.061628416716220505
vn -0.7071067811865469 0.7044160264027592 0.061628416716220526
vn 0.7071067811865476 0.7044160264027586 0.06162841671622067
vn -0.7071067811865476 -0.7044160264027597 -0.06162841671620813
vn 3.6454333915454695e-16 -0.08715574274765801 0.9961946980917457
vn 2.356961244533707e-17 0.08715574274765814 -0.9961946980917457
vn 0.38268343236509067 0.9148884004098161 0.12857917945313438
vn -0.3826834323650906 -0.9148884004098168 -0.1285791794531297
vn -0.9238795325112875 0.3789591835075713 0.05325923996829208
vn 0.9238795325112871 -0.37895918350757246 -0.053259239968291266
vn -3.0646781408923674e-16 -0.13917310096006616 0.9902680687415703
vn 5.78241158658934e-16 0.13917310096006563 -0.9902680687415704
vn 1 0 0
vn -1 0 0
vn 0 0.9961946980917454 0.08715574274766001
vn 0 -0.9961946980917462 -0.08715574274765114
vn 0 -0.08715574274765814 0.9961946980917457
vn 0 0.08715574274765821 -0.9961946980917457
vn 0.38268343236508984 -0.9148884004098171 -0.12857917945312972
vn -0.38268343236508984 0.9148884004098164 0.12857917945313443
vn 0.9238795325112875 0.3789591835075715 0.05325923996829015
vn -0.9238795325112871 -0.37895918350757246 -0.05325923996829128
vn 5.60893923899169e-16 -0.13917310096006605 0.9902680687415704
vn -2.1828603739374753e-16 0.1391731009600658 -0.9902680687415704
vn 0.7071067811865481 -0.7002252665996698 -0.09841024344762453
vn -0.7071067811865482 0.7002252665996701 0.09841024344762106
vn 0.707106781186546 0.7002252665996717 0.0984102434476248
vn -0.7071067811865476 -0.7002252665996704 -0.09841024344762281
vn -1.3877787807814444e-16 -0.1391731009600651 0.9902680687415704
vn -3.12250225675826e-16 0.13917310096006513 -0.9902680687415704
vn 0.7071067811865477 0.7044160264027585 0.061628416716220456
vn -0.7071067811865469 -0.7044160264027594 -0.06162841671622056
vn -0.7071067811865476 0.7044160264027585 0.06162841671622063
vn 0.7071067811865476 -0.7044160264027596 -0.06162841671620815
vn 1.5775927263412295e-16 -0.08715574274765854 0.9961946980917457
vn -2.388387394460822e-17 0.08715574274765814 -0.9961946980917457
vn 0.923879532511287 -0.37895918350757274 -0.0532592399682913
vn -0.9238795325112868 0.37895918350757274 0.05325923996829032
vn 0.38268343236508967 0.9148884004098169 0.1285791794531321
vn -0.38268343236508945 -0.914888400409817 -0.1285791794531321
vn -4.1633363423443365e-16 -0.13917310096006522 0.9902680687415704
vn 2.5442610980993194e-16 0.1391731009600653 -0.9902680687415704
vn 1 0 0
vn -1 0 0
vn 0 0.9961946980917454 0.08715574274766001
vn 0 -0.9961946980917454 -0.08715574274766003
vn 0 -0.08715574274765824 0.9961946980917455
vn 0 0.0871557427476581 -0.9961946980917455
vn 1 0 0
vn -1 0 0
vn 0 0.9953961983671791 0.09584575252022158
vn 0 -0.9953961983671791 -0.09584575252022162
vn 0 -0.09584575252022422 0.995396198367179
vn 0 0.09584575252022354 -0.9953961983671789
vn -0.34202014332566977 -2.0816681711721685e-16 0.939692620785908
vn 0.34202014332566943 -1.387778780781446e-17 -0.9396926207859083
vn 2.3869795029440865e-16 1 2.220446049250313e-16
vn -2.1649348980190567e-16 -1 -1.8041124150158794e-16
vn -0.9396926207859085 -3.469446951953614e-18 -0.3420201433256687
vn 0.9396926207859085 0 0.3420201433256686
vn -0.5664062369248299 -6.93889390390723e-17 0.8241261886220178
vn 0.5664062369248337 -2.9143354396410364e-16 -0.8241261886220153
vn 5.3376106953132706e-17 1 -4.85722573273506e-16
vn 1.2009624064454823e-16 -1 2.2204460492503136e-16
vn -0.8241261886220171 4.85722573273506e-17 -0.5664062369248307
vn 0.8241261886220157 2.0122792321330962e-16 0.5664062369248328
vn 0.9702790001925125 -0.19970975986357772 0.13665530944917859
vn -0.9702790001925121 0.19970975986357814 -0.1366553094491794
vn 0.16903349076169394 0.9634498168922246 0.2078271621594626
vn -0.16903349076169674 -0.9634498168922246 -0.20782716215945976
vn -0.173165645514158 -0.17855100712561467 0.9685727629187669
vn 0.17316564551415664 0.17855100712561475 -0.9685727629187673
vn 1 0 0
vn -1 0 0
vn 0 0.9993908270190958 -0.03489949670250102
vn 0 -0.9993908270190959 0.03489949670250019
vn 0 0.03489949670250083 0.9993908270190959
vn 0 -0.03489949670250104 -0.9993908270190959
vn 0.9914449107186758 -2.8702846450318065e-7 -0.13052581740772448
vn -0.9914449107186759 2.870284643938931e-7 0.13052581740772434
vn -0.005693071347501324 0.9990482552125657 -0.04324549335319066
vn 0.005693071347501855 -0.9990482552125657 0.04324549335318965
vn 0.13040160255406888 0.043618617087731376 0.9905013065587973
vn -0.13040160255406888 -0.04361861708773121 -0.9905013065587973
vn 0.9848077020401034 -5.803873221778277e-7 0.1736484667428832
vn -0.9848077020401034 5.803873221223166e-7 -0.17364846674288298
vn 0.007574961314837085 0.9990482340143342 -0.04295632751899548
vn -0.00757496131483741 -0.9990482340143341 0.04295632751899727
vn -0.17348316910746625 0.04361910261002425 0.9838703999632913
vn 0.17348316910746622 -0.04361910261002425 -0.9838703999632912
vn 1 0 0
vn -1 0 0
vn 0 0.9612616959383189 0.2756373558169995
vn 0 -0.9612616959383193 -0.27563735581699766
vn 0 -0.27563735581699955 0.9612616959383188
vn 0 0.2756373558169992 -0.961261695938319
vn 0.7071067811865464 -0.6797146636928679 -0.19490504344652865
vn -0.7071067811865462 0.6797146636928671 0.19490504344653126
vn 0.7071067811865486 0.6797146636928658 0.19490504344652804
vn -0.7071067811865478 -0.6797146636928663 -0.19490504344652956
vn -6.106226635438369e-16 -0.27563735581699983 0.9612616959383187
vn 8.658498277866784e-16 0.27563735581699916 -0.961261695938319
vn 0.7071067811865471 -0.6797146636928673 -0.19490504344652837
vn -0.7071067811865462 0.6797146636928671 0.19490504344653126
vn 0.7071067811865479 0.6797146636928664 0.19490504344652798
vn -0.7071067811865479 -0.679714663692866 -0.19490504344652948
vn -1.1102230246251585e-16 -0.27563735581699983 0.9612616959383187
vn 0 0.27563735581700005 -0.9612616959383187
vn 1 0 0
vn -1 0 0
vn 0 0.9612616959383187 0.2756373558170005
vn 0 -0.9612616959383187 -0.2756373558170004
vn 0 -0.2756373558169991 0.9612616959383189
vn 0 0.2756373558169993 -0.9612616959383189
vn 1 0 0
vn -1 0 0
vn 0 0.9612616959383193 0.2756373558169982
vn 0 -0.9612616959383189 -0.2756373558169998
vn 0 -0.27563735581699916 0.9612616959383189
vn 0 0.27563735581699916 -0.961261695938319
usemtl m_21dd21d4-a866-f1f3-86bf-bec125196934
f 1/1/1 2/2/1 4/3/1 3/4/1
f 5/5/2 6/6/2 8/7/2 7/8/2
f 9/9/3 10/10/3 12/11/3 11/12/3
f 14/13/4 13/14/4 15/15/4 16/16/4
f 19/17/5 17/18/5 18/19/5 20/20/5
f 17/21/6 13/22/6 14/23/6 18/24/6
f 16/25/7 15/26/7 19/27/7 20/28/7
f 15/29/8 13/30/8 17/31/8 19/32/8
f 18/33/9 14/34/9 16/35/9 20/36/9
f 22/37/10 21/38/10 23/39/10 24/40/10
f 27/41/11 25/42/11 26/43/11 28/44/11
f 25/45/12 21/46/12 22/47/12 26/48/12
f 24/49/13 23/50/13 27/51/13 28/52/13
f 23/53/14 21/54/14 25/55/14 27/56/14
f 26/57/15 22/58/15 24/59/15 28/60/15
f 31/61/16 29/62/16 30/63/16 32/64/16
f 34/65/17 33/66/17 35/67/17 36/68/17
f 30/69/18 29/70/18 33/71/18 34/72/18
f 35/73/19 31/74/19 32/75/19 36/76/19
f 33/77/20 29/78/20 31/79/20 35/80/20
f 32/81/21 30/82/21 34/83/21 36/84/21
f 37/85/22 38/86/22 40/87/22 39/88/22
f 42/89/23 41/90/23 43/91/23 44/92/23
f 47/93/24 45/94/24 46/95/24 48/96/24
f 45/97/25 41/98/25 42/99/25 46/100/25
f 44/101/26 43/102/26 47/103/26 48/104/26
f 43/105/27 41/106/27 45/107/27 47/108/27
f 46/109/28 42/110/28 44/111/28 48/112/28
f 50/113/29 49/114/29 51/115/29 52/116/29
f 55/117/30 53/118/30 54/119/30 56/120/30
f 53/121/31 49/122/31 50/123/31 54/124/31
f 52/125/32 51/126/32 55/127/32 56/128/32
f 51/129/33 49/130/33 53/131/33 55/132/33
f 54/133/34 50/134/34 52/135/34 56/136/34
f 58/137/35 57/138/35 59/139/35 60/140/35
f 63/141/36 61/142/36 62/143/36 64/144/36
f 61/145/37 57/146/37 58/147/37 62/148/37
f 60/149/38 59/150/38 63/151/38 64/152/38
f 59/153/39 57/154/39 61/155/39 63/156/39
f 62/157/40 58/158/40 60/159/40 64/160/40
f 66/161/41 65/162/41 67/163/41 68/164/41
f 71/165/42 69/166/42 70/167/42 72/168/42
f 69/169/43 65/170/43 66/171/43 70/172/43
f 68/173/44 67/174/44 71/175/44 72/176/44
f 67/177/45 65/178/45 69/179/45 71/180/45
f 70/181/46 66/182/46 68/183/46 72/184/46
f 73/185/47 74/186/47 76/187/47 75/188/47
f 77/189/48 78/190/48 80/191/48 79/192/48
f 81/193/49 82/194/49 84/195/49 83/196/49
f 85/197/50 86/198/50 88/199/50 87/200/50
f 89/201/51 90/202/51 92/203/51 91/204/51
f 93/205/52 94/206/52 96/207/52 95/208/52
f 100/209/53 98/210/53 97/211/53 99/212/53
f 103/213/54 101/214/54 102/215/54 104/216/54
f 97/217/55 98/218/55 102/219/55 101/220/55
f 100/221/56 99/222/56 103/223/56 104/224/56
f 99/225/57 97/226/57 101/227/57 103/228/57
f 104/229/58 102/230/58 98/231/58 100/232/58
f 108/233/59 106/234/59 105/235/59 107/236/59
f 111/237/60 109/238/60 110/239/60 112/240/60
f 105/241/61 106/242/61 110/243/61 109/244/61
f 108/245/62 107/246/62 111/247/62 112/248/62
f 107/249/63 105/250/63 109/251/63 111/252/63
f 112/253/64 110/254/64 106/255/64 108/256/64
f 116/257/65 114/258/65 113/259/65 115/260/65
f 119/261/66 117/262/66 118/263/66 120/264/66
f 113/265/67 114/266/67 118/267/67 117/268/67
f 116/269/68 115/270/68 119/271/68 120/272/68
f 115/273/69 113/274/69 117/275/69 119/276/69
f 120/277/70 118/278/70 114/279/70 116/280/70
f 124/281/71 122/282/71 121/283/71 123/284/71
f 127/285/72 125/286/72 126/287/72 128/288/72
f 121/289/73 122/290/73 126/291/73 125/292/73
f 124/293/74 123/294/74 127/295/74 128/296/74
f 123/297/75 121/298/75 125/299/75 127/300/75
f 128/301/76 126/302/76 122/303/76 124/304/76
f 132/305/77 130/306/77 129/307/77 131/308/77
f 135/309/78 133/310/78 134/311/78 136/312/78
f 129/313/79 130/314/79 134/315/79 133/316/79
f 132/317/80 131/318/80 135/319/80 136/320/80
f 131/321/81 129/322/81 133/323/81 135/324/81
f 136/325/82 134/326/82 130/327/82 132/328/82
f 140/329/83 138/330/83 137/331/83 139/332/83
f 143/333/84 141/334/84 142/335/84 144/336/84
f 137/337/85 138/338/85 142/339/85 141/340/85
f 140/341/86 139/342/86 143/343/86 144/344/86
f 139/345/87 137/346/87 141/347/87 143/348/87
f 144/349/88 142/350/88 138/351/88 140/352/88
f 148/353/89 146/354/89 145/355/89 147/356/89
f 151/357/90 149/358/90 150/359/90 152/360/90
f 145/361/91 146/362/91 150/363/91 149/364/91
f 148/365/92 147/366/92 151/367/92 152/368/92
f 147/369/93 145/370/93 149/371/93 151/372/93
f 152/373/94 150/374/94 146/375/94 148/376/94
f 156/377/95 154/378/95 153/379/95 155/380/95
f 159/381/96 157/382/96 158/383/96 160/384/96
f 153/385/97 154/386/97 158/387/97 157/388/97
f 156/389/98 155/390/98 159/391/98 160/392/98
f 155/393/99 153/394/99 157/395/99 159/396/99
f 160/397/100 158/398/100 154/399/100 156/400/100
f 164/401/101 162/402/101 161/403/101 163/404/101
f 167/405/102 165/406/102 166/407/102 168/408/102
f 161/409/103 162/410/103 166/411/103 165/412/103
f 164/413/104 163/414/104 167/415/104 168/416/104
f 163/417/105 161/418/105 165/419/105 167/420/105
f 168/421/106 166/422/106 162/423/106 164/424/106
f 172/425/107 170/426/107 169/427/107 171/428/107
f 175/429/108 173/430/108 174/431/108 176/432/108
f 169/433/109 170/434/109 174/435/109 173/436/109
f 172/437/110 171/438/110 175/439/110 176/440/110
f 171/441/111 169/442/111 173/443/111 175/444/111
f 176/445/112 174/446/112 170/447/112 172/448/112
f 180/449/113 178/450/113 177/451/113 179/452/113
f 183/453/114 181/454/114 182/455/114 184/456/114
f 177/457/115 178/458/115 182/459/115 181/460/115
f 180/461/116 179/462/116 183/463/116 184/464/116
f 179/465/117 177/466/117 181/467/117 183/468/117
f 184/469/118 182/470/118 178/471/118 180/472/118
f 188/473/119 186/474/119 185/475/119 187/476/119
f 191/477/120 189/478/120 190/479/120 192/480/120
f 185/481/121 186/482/121 190/483/121 189/484/121
f 188/485/122 187/486/122 191/487/122 192/488/122
f 187/489/123 185/490/123 189/491/123 191/492/123
f 192/493/124 190/494/124 186/495/124 188/496/124
f 196/497/125 194/498/125 193/499/125 195/500/125
f 199/501/126 197/502/126 198/503/126 200/504/126
f 193/505/127 194/506/127 198/507/127 197/508/127
f 196/509/128 195/510/128 199/511/128 200/512/128
f 195/513/129 193/514/129 197/515/129 199/516/129
f 200/517/130 198/518/130 194/519/130 196/520/130
f 204/521/131 202/522/131 201/523/131 203/524/131
f 207/525/132 205/526/132 206/527/132 208/528/132
f 201/529/133 202/530/133 206/531/133 205/532/133
f 204/533/134 203/534/134 207/535/134 208/536/134
f 203/537/135 201/538/135 205/539/135 207/540/135
f 208/541/136 206/542/136 202/543/136 204/544/136
f 212/545/137 210/546/137 209/547/137 211/548/137
f 215/549/138 213/550/138 214/551/138 216/552/138
f 209/553/139 210/554/139 214/555/139 213/556/139
f 212/557/140 211/558/140 215/559/140 216/560/140
f 211/561/141 209/562/141 213/563/141 215/564/141
f 216/565/142 214/566/142 210/567/142 212/568/142
f 220/569/143 218/570/143 217/571/143 219/572/143
f 223/573/144 221/574/144 222/575/144 224/576/144
f 217/577/145 218/578/145 222/579/145 221/580/145
f 220/581/146 219/582/146 223/583/146 224/584/146
f 219/585/147 217/586/147 221/587/147 223/588/147
f 224/589/148 222/590/148 218/591/148 220/592/148
f 228/593/149 226/594/149 225/595/149 227/596/149
f 231/597/150 229/598/150 230/599/150 232/600/150
f 225/601/151 226/602/151 230/603/151 229/604/151
f 228/605/152 227/606/152 231/607/152 232/608/152
f 227/609/153 225/610/153 229/611/153 231/612/153
f 232/613/154 230/614/154 226/615/154 228/616/154
f 236/617/155 234/618/155 233/619/155 235/620/155
f 239/621/156 237/622/156 238/623/156 240/624/156
f 233/625/157 234/626/157 238/627/157 237/628/157
f 236/629/158 235/630/158 239/631/158 240/632/158
f 235/633/159 233/634/159 237/635/159 239/636/159
f 240/637/160 238/638/160 234/639/160 236/640/160
f 244/641/161 242/642/161 241/643/161 243/644/161
f 247/645/162 245/646/162 246/647/162 248/648/162
f 241/649/163 242/650/163 246/651/163 245/652/163
f 244/653/164 243/654/164 247/655/164 248/656/164
f 243/657/165 241/658/165 245/659/165 247/660/165
f 248/661/166 246/662/166 242/663/166 244/664/166
f 252/665/167 250/666/167 249/667/167 251/668/167
f 255/669/168 253/670/168 254/671/168 256/672/168
f 249/673/169 250/674/169 254/675/169 253/676/169
f 252/677/170 251/678/170 255/679/170 256/680/170
f 251/681/171 249/682/171 253/683/171 255/684/171
f 256/685/172 254/686/172 250/687/172 252/688/172
f 260/689/173 258/690/173 257/691/173 259/692/173
f 263/693/174 261/694/174 262/695/174 264/696/174
f 257/697/175 258/698/175 262/699/175 261/700/175
f 260/701/176 259/702/176 263/703/176 264/704/176
f 259/705/177 257/706/177 261/707/177 263/708/177
f 264/709/178 262/710/178 258/711/178 260/712/178
f 268/713/179 266/714/179 265/715/179 267/716/179
f 271/717/180 269/718/180 270/719/180 272/720/180
f 265/721/181 266/722/181 270/723/181 269/724/181
f 268/725/182 267/726/182 271/727/182 272/728/182
f 267/729/183 265/730/183 269/731/183 271/732/183
f 272/733/184 270/734/184 266/735/184 268/736/184
f 276/737/185 274/738/185 273/739/185 275/740/185
f 279/741/186 277/742/186 278/743/186 280/744/186
f 273/745/187 274/746/187 278/747/187 277/748/187
f 276/749/188 275/750/188 279/751/188 280/752/188
f 275/753/189 273/754/189 277/755/189 279/756/189
f 280/757/190 278/758/190 274/759/190 276/760/190
f 284/761/191 282/762/191 281/763/191 283/764/191
f 287/765/192 285/766/192 286/767/192 288/768/192
f 281/769/193 282/770/193 286/771/193 285/772/193
f 284/773/194 283/774/194 287/775/194 288/776/194
f 283/777/195 281/778/195 285/779/195 287/780/195
f 288/781/196 286/782/196 282/783/196 284/784/196
f 292/785/197 290/786/197 289/787/197 291/788/197
f 295/789/198 293/790/198 294/791/198 296/792/198
f 289/793/199 290/794/199 294/795/199 293/796/199
f 292/797/200 291/798/200 295/799/200 296/800/200
f 291/801/201 289/802/201 293/803/201 295/804/201
f 296/805/202 294/806/202 290/807/202 292/808/202
f 300/809/203 298/810/203 297/811/203 299/812/203
f 303/813/204 301/814/204 302/815/204 304/816/204
f 297/817/205 298/818/205 302/819/205 301/820/205
f 300/821/206 299/822/206 303/823/206 304/824/206
f 299/825/207 297/826/207 301/827/207 303/828/207
f 304/829/208 302/830/208 298/831/208 300/832/208
f 308/833/209 306/834/209 305/835/209 307/836/209
f 311/837/210 309/838/210 310/839/210 312/840/210
f 305/841/211 306/842/211 310/843/211 309/844/211
f 308/845/212 307/846/212 311/847/212 312/848/212
f 307/849/213 305/850/213 309/851/213 311/852/213
f 312/853/214 310/854/214 306/855/214 308/856/214
f 316/857/215 314/858/215 313/859/215 315/860/215
f 319/861/216 317/862/216 318/863/216 320/864/216
f 313/865/217 314/866/217 318/867/217 317/868/217
f 316/869/218 315/870/218 319/871/218 320/872/218
f 315/873/219 313/874/219 317/875/219 319/876/219
f 320/877/220 318/878/220 314/879/220 316/880/220
f 324/881/221 322/882/221 321/883/221 323/884/221
f 327/885/222 325/886/222 326/887/222 328/888/222
f 321/889/223 322/890/223 326/891/223 325/892/223
f 324/893/224 323/894/224 327/895/224 328/896/224
f 323/897/225 321/898/225 325/899/225 327/900/225
f 328/901/226 326/902/226 322/903/226 324/904/226
f 332/905/227 330/906/227 329/907/227 331/908/227
f 335/909/228 333/910/228 334/911/228 336/912/228
f 329/913/229 330/914/229 334/915/229 333/916/229
f 332/917/230 331/918/230 335/919/230 336/920/230
f 331/921/231 329/922/231 333/923/231 335/924/231
f 336/925/232 334/926/232 330/927/232 332/928/232
f 340/929/233 338/930/233 337/931/233 339/932/233
f 343/933/234 341/934/234 342/935/234 344/936/234
f 337/937/235 338/938/235 342/939/235 341/940/235
f 340/941/236 339/942/236 343/943/236 344/944/236
f 339/945/237 337/946/237 341/947/237 343/948/237
f 344/949/238 342/950/238 338/951/238 340/952/238
f 348/953/239 346/954/239 345/955/239 347/956/239
f 351/957/240 349/958/240 350/959/240 352/960/240
f 345/961/241 346/962/241 350/963/241 349/964/241
f 348/965/242 347/966/242 351/967/242 352/968/242
f 347/969/243 345/970/243 349/971/243 351/972/243
f 352/973/244 350/974/244 346/975/244 348/976/244
f 356/977/245 354/978/245 353/979/245 355/980/245
f 359/981/246 357/982/246 358/983/246 360/984/246
f 353/985/247 354/986/247 358/987/247 357/988/247
f 356/989/248 355/990/248 359/991/248 360/992/248
f 355/993/249 353/994/249 357/995/249 359/996/249
f 360/997/250 358/998/250 354/999/250 356/1000/250
f 364/1001/251 362/1002/251 361/1003/251 363/1004/251
f 367/1005/252 365/1006/252 366/1007/252 368/1008/252
f 361/1009/253 362/1010/253 366/1011/253 365/1012/253
f 364/1013/254 363/1014/254 367/1015/254 368/1016/254
f 363/1017/255 361/1018/255 365/1019/255 367/1020/255
f 368/1021/256 366/1022/256 362/1023/256 364/1024/256
f 372/1025/257 370/1026/257 369/1027/257 371/1028/257
f 375/1029/258 373/1030/258 374/1031/258 376/1032/258
f 369/1033/259 370/1034/259 374/1035/259 373/1036/259
f 372/1037/260 371/1038/260 375/1039/260 376/1040/260
f 371/1041/261 369/1042/261 373/1043/261 375/1044/261
f 376/1045/262 374/1046/262 370/1047/262 372/1048/262
f 380/1049/263 378/1050/263 377/1051/263 379/1052/263
f 383/1053/264 381/1054/264 382/1055/264 384/1056/264
f 377/1057/265 378/1058/265 382/1059/265 381/1060/265
f 380/1061/266 379/1062/266 383/1063/266 384/1064/266
f 379/1065/267 377/1066/267 381/1067/267 383/1068/267
f 384/1069/268 382/1070/268 378/1071/268 380/1072/268
f 388/1073/269 386/1074/269 385/1075/269 387/1076/269
f 391/1077/270 389/1078/270 390/1079/270 392/1080/270
f 385/1081/271 386/1082/271 390/1083/271 389/1084/271
f 388/1085/272 387/1086/272 391/1087/272 392/1088/272
f 387/1089/273 385/1090/273 389/1091/273 391/1092/273
f 392/1093/274 390/1094/274 386/1095/274 388/1096/274
f 396/1097/275 394/1098/275 393/1099/275 395/1100/275
f 399/1101/276 397/1102/276 398/1103/276 400/1104/276
f 393/1105/277 394/1106/277 398/1107/277 397/1108/277
f 396/1109/278 395/1110/278 399/1111/278 400/1112/278
f 395/1113/279 393/1114/279 397/1115/279 399/1116/279
f 400/1117/280 398/1118/280 394/1119/280 396/1120/280
f 404/1121/281 402/1122/281 401/1123/281 403/1124/281
f 407/1125/282 405/1126/282 406/1127/282 408/1128/282
f 401/1129/283 402/1130/283 406/1131/283 405/1132/283
f 404/1133/284 403/1134/284 407/1135/284 408/1136/284
f 403/1137/285 401/1138/285 405/1139/285 407/1140/285
f 408/1141/286 406/1142/286 402/1143/286 404/1144/286
f 412/1145/287 410/1146/287 409/1147/287 411/1148/287
f 415/1149/288 413/1150/288 414/1151/288 416/1152/288
f 409/1153/289 410/1154/289 414/1155/289 413/1156/289
f 412/1157/290 411/1158/290 415/1159/290 416/1160/290
f 411/1161/291 409/1162/291 413/1163/291 415/1164/291
f 416/1165/292 414/1166/292 410/1167/292 412/1168/292
f 420/1169/293 418/1170/293 417/1171/293 419/1172/293
f 423/1173/294 421/1174/294 422/1175/294 424/1176/294
f 417/1177/295 418/1178/295 422/1179/295 421/1180/295
f 420/1181/296 419/1182/296 423/1183/296 424/1184/296
f 419/1185/297 417/1186/297 421/1187/297 423/1188/297
f 424/1189/298 422/1190/298 418/1191/298 420/1192/298
f 428/1193/299 426/1194/299 425/1195/299 427/1196/299
f 431/1197/300 429/1198/300 430/1199/300 432/1200/300
f 425/1201/301 426/1202/301 430/1203/301 429/1204/301
f 428/1205/302 427/1206/302 431/1207/302 432/1208/302
f 427/1209/303 425/1210/303 429/1211/303 431/1212/303
f 432/1213/304 430/1214/304 426/1215/304 428/1216/304
f 436/1217/305 434/1218/305 433/1219/305 435/1220/305
f 439/1221/306 437/1222/306 438/1223/306 440/1224/306
f 433/1225/307 434/1226/307 438/1227/307 437/1228/307
f 436/1229/308 435/1230/308 439/1231/308 440/1232/308
f 435/1233/309 433/1234/309 437/1235/309 439/1236/309
f 440/1237/310 438/1238/310 434/1239/310 436/1240/310
f 444/1241/311 442/1242/311 441/1243/311 443/1244/311
f 447/1245/312 445/1246/312 446/1247/312 448/1248/312
f 441/1249/313 442/1250/313 446/1251/313 445/1252/313
f 444/1253/314 443/1254/314 447/1255/314 448/1256/314
f 443/1257/315 441/1258/315 445/1259/315 447/1260/315
f 448/1261/316 446/1262/316 442/1263/316 444/1264/316
f 452/1265/317 450/1266/317 449/1267/317 451/1268/317
f 455/1269/318 453/1270/318 454/1271/318 456/1272/318
f 449/1273/319 450/1274/319 454/1275/319 453/1276/319
f 452/1277/320 451/1278/320 455/1279/320 456/1280/320
f 451/1281/321 449/1282/321 453/1283/321 455/1284/321
f 456/1285/322 454/1286/322 450/1287/322 452/1288/322
f 460/1289/323 458/1290/323 457/1291/323 459/1292/323
f 463/1293/324 461/1294/324 462/1295/324 464/1296/324
f 457/1297/325 458/1298/325 462/1299/325 461/1300/325
f 460/1301/326 459/1302/326 463/1303/326 464/1304/326
f 459/1305/327 457/1306/327 461/1307/327 463/1308/327
f 464/1309/328 462/1310/328 458/1311/328 460/1312/328
f 468/1313/329 466/1314/329 465/1315/329 467/1316/329
f 471/1317/330 469/1318/330 470/1319/330 472/1320/330
f 465/1321/331 466/1322/331 470/1323/331 469/1324/331
f 468/1325/332 467/1326/332 471/1327/332 472/1328/332
f 467/1329/333 465/1330/333 469/1331/333 471/1332/333
f 472/1333/334 470/1334/334 466/1335/334 468/1336/334
f 476/1337/335 474/1338/335 473/1339/335 475/1340/335
f 479/1341/336 477/1342/336 478/1343/336 480/1344/336
f 473/1345/337 474/1346/337 478/1347/337 477/1348/337
f 476/1349/338 475/1350/338 479/1351/338 480/1352/338
f 475/1353/339 473/1354/339 477/1355/339 479/1356/339
f 480/1357/340 478/1358/340 474/1359/340 476/1360/340
f 484/1361/341 482/1362/341 481/1363/341 483/1364/341
f 487/1365/342 485/1366/342 486/1367/342 488/1368/342
f 481/1369/343 482/1370/343 486/1371/343 485/1372/343
f 484/1373/344 483/1374/344 487/1375/344 488/1376/344
f 483/1377/345 481/1378/345 485/1379/345 487/1380/345
f 488/1381/346 486/1382/346 482/1383/346 484/1384/346
f 492/1385/347 490/1386/347 489/1387/347 491/1388/347
f 495/1389/348 493/1390/348 494/1391/348 496/1392/348
f 489/1393/349 490/1394/349 494/1395/349 493/1396/349
f 492/1397/350 491/1398/350 495/1399/350 496/1400/350
f 491/1401/351 489/1402/351 493/1403/351 495/1404/351
f 496/1405/352 494/1406/352 490/1407/352 492/1408/352
f 500/1409/353 498/1410/353 497/1411/353 499/1412/353
f 503/1413/354 501/1414/354 502/1415/354 504/1416/354
f 497/1417/355 498/1418/355 502/1419/355 501/1420/355
f 500/1421/356 499/1422/356 503/1423/356 504/1424/356
f 499/1425/357 497/1426/357 501/1427/357 503/1428/357
f 504/1429/358 502/1430/358 498/1431/358 500/1432/358
