# Made in Blockbench 5.2.1
mtllib spn.mtl

o spn
v -0.15625 1.156126 -0.306654
v 0.15625 1.342913 -0.290312
v 0.15625 1.156126 -0.306654
v 0.15625 1.142508 -0.150999
v 0.15625 1.329294 -0.134657
v -0.15625 1.329294 -0.134657
v -0.15625 1.142508 -0.150999
v -0.15625 1.342913 -0.290312
v -0.03125 0.7 -0.35625
v 0.03125 0.775 -0.35625
v 0.03125 0.7 -0.35625
v 0.03125 0.775 -0.2875
v 0.03125 0.7 -0.2875
v -0.03125 0.775 -0.2875
v -0.03125 0.7 -0.2875
v -0.03125 0.775 -0.35625
v -0.25 0.75 -0.225
v 0.25 1.25 -0.225
v 0.25 0.75 -0.225
v 0.25 1.25 -0.1
v 0.25 0.75 -0.1
v -0.25 1.25 -0.1
v -0.25 0.75 -0.1
v -0.25 1.25 -0.225
v -0.1875 1.248634 -0.224506
v 0.1875 1.450377 -0.181624
v 0.1875 1.248634 -0.224506
v 0.1875 1.437383 -0.12049
v 0.1875 1.23564 -0.163371
v -0.1875 1.437383 -0.12049
v -0.1875 1.23564 -0.163371
v -0.1875 1.450377 -0.181624
v -0.197608 1.125903 -0.224309
v -0.185083 1.576234 -0.128834
v -0.059903 1.165534 -0.212871
v -0.186577 1.562018 -0.061586
v -0.061397 1.151319 -0.145624
v -0.199102 1.111687 -0.157061
v -0.324282 1.522386 -0.073024
v -0.322788 1.536602 -0.140271
v -0.185219 1.574941 -0.122721
v -0.347637 1.568396 0.048738
v -0.209932 1.608028 0.060175
v -0.194001 1.548971 0.073011
v -0.169288 1.515885 -0.109885
v -0.331706 1.509339 0.061574
v -0.306993 1.476253 -0.121322
v -0.322924 1.53531 -0.134158
v -0.329924 1.487518 0.139166
v -0.191989 1.550596 0.044571
v -0.192286 1.527953 0.14838
v -0.210019 1.609075 0.057275
v -0.210316 1.586431 0.161084
v -0.347657 1.56864 0.048061
v -0.347954 1.545997 0.15187
v -0.329627 1.510161 0.035357
v -0.265625 0.75 0.10625
v 0.265625 1.4375 0.10625
v 0.265625 0.75 0.10625
v 0.265625 1.4375 0.2
v 0.265625 0.75 0.2
v -0.265625 1.4375 0.2
v -0.265625 0.75 0.2
v -0.265625 1.4375 0.10625
v -0.328856 1.5354543393604243 -0.148132
v -0.189886 1.594702 -0.056445
v -0.179177 1.5799063375729299 -0.1357
v -0.161654 1.5128707801320498 -0.12158
v -0.172363 1.5276654106395757 -0.042326
v -0.311333 1.46841775 -0.134012
v -0.322042 1.483212380507526 -0.054758
v -0.339565 1.55024896986795 -0.068877
v -0.345332 1.5575113243848926 -0.026202
v -0.206362 1.616759 0.065485
v -0.195653 1.60196436575296 -0.01377
v -0.178129 1.5349277594482622 0.00035
v -0.188838 1.5497234256151076 0.079605
v -0.338517 1.5052703842470398 0.067173
v -0.327808 1.49047575 -0.012082
v -0.356041 1.5723059586319326 0.053053
v -0.3125 0.8125 -0.1625
v -0.25 1.0625 -0.1625
v -0.25 0.8125 -0.1625
v -0.25 1.0625 0.15
v -0.25 0.8125 0.15
v -0.3125 1.0625 0.15
v -0.3125 0.8125 0.15
v -0.3125 1.0625 -0.1625
v 0.25 0.8125 -0.1625
v 0.3125 1.0625 -0.1625
v 0.3125 0.8125 -0.1625
v 0.3125 1.0625 0.15
v 0.3125 0.8125 0.15
v 0.25 1.0625 0.15
v 0.25 0.8125 0.15
v 0.25 1.0625 -0.1625
v 0.059903 1.165534 -0.212871
v 0.322788 1.536602 -0.140271
v 0.197608 1.125903 -0.224309
v 0.199102 1.111687 -0.157061
v 0.324282 1.522386 -0.073024
v 0.186577 1.562018 -0.061586
v 0.061397 1.151319 -0.145624
v 0.185083 1.576234 -0.128834
v 0.179177 1.5794486751458596 -0.1357
v 0.339565 1.5488739397359002 -0.068877
v 0.328856 1.5336216787208485 -0.148132
v 0.322042 1.4797637610150518 -0.054758
v 0.311333 1.4645115 -0.134012
v 0.172363 1.5255918212791515 -0.042326
v 0.161654 1.5103395602640997 -0.12158
v 0.189886 1.594702 -0.056445
v 0.185219 1.574941 -0.122721
v 0.347637 1.568396 0.048738
v 0.322924 1.53531 -0.134158
v 0.331706 1.509339 0.061574
v 0.306993 1.476253 -0.121322
v 0.194001 1.548971 0.073011
v 0.169288 1.515885 -0.109885
v 0.209932 1.608028 0.060175
v 0.345332 1.5575113243848926 -0.026202
v 0.206362 1.616759 0.065485
v 0.356041 1.5723059586319326 0.053053
v 0.338517 1.5052703842470398 0.067173
v 0.327808 1.49047575 -0.012082
v 0.188838 1.5497234256151076 0.079605
v 0.178129 1.5349277594482622 0.00035
v 0.195653 1.60196436575296 -0.01377
v 0.329924 1.487518 0.139166
v 0.191989 1.550596 0.044571
v 0.329627 1.510161 0.035357
v 0.347954 1.545997 0.15187
v 0.347657 1.56864 0.048061
v 0.210316 1.586431 0.161084
v 0.210019 1.609075 0.057275
v 0.192286 1.527953 0.14838
v 0.209762 1.098207 -0.362053
v 0.321117 1.094135 -0.290209
v 0.328714 1.099175 -0.306593
v 0.338371 0.95568 -0.3248
v 0.345969 0.96072 -0.341184
v 0.219418 0.954712 -0.38026
v 0.227016 0.959752 -0.396644
v 0.202164 1.093167 -0.34567
v 0.3408 1.083098 -0.302652
v 0.198499 1.100647 -0.367521
v 0.340109 1.101799 -0.301497
v 0.279589 1.091538 -0.171512
v 0.28028 1.072836 -0.172667
v 0.137978 1.090385 -0.237536
v 0.138669 1.071684 -0.238691
v 0.199189 1.081945 -0.368676
v 0.011803 0.772631 -0.342026
v 0.168053 1.085084 -0.34748
v 0.168053 0.772631 -0.342026
v 0.168053 1.087265 -0.222499
v 0.168053 0.774813 -0.217045
v 0.011803 1.087265 -0.222499
v 0.011803 0.774813 -0.217045
v 0.011803 1.085084 -0.34748
v -0.149222 0.773075 -0.354122
v 0.000726 1.085459 -0.363502
v 0.000726 0.773006 -0.358048
v 0.003998 1.087639 -0.238564
v 0.003998 0.775187 -0.23311
v -0.14595 1.087708 -0.234638
v -0.14595 0.775256 -0.229184
v -0.149222 1.085527 -0.359576
v 0.33842 0.773524 -0.290911
v 0.199838 1.084974 -0.353758
v 0.33842 1.085976 -0.296365
v 0.290585 1.087991 -0.180897
v 0.290585 0.775539 -0.175443
v 0.152003 0.774537 -0.232837
v 0.152003 1.08699 -0.238291
v 0.199838 0.772522 -0.348304
v 0.011803 1.084756 -0.366227
v 0.168053 1.103504 -0.366554
v 0.168053 1.084756 -0.366227
v 0.168053 1.106012 -0.222826
v 0.168053 1.087265 -0.222499
v 0.011803 1.106012 -0.222826
v 0.011803 1.087265 -0.222499
v 0.011803 1.103504 -0.366554
v 0.024303 1.10490525 -0.366134
v 0.155553 1.10148825 -0.347698
v 0.155553 1.10490525 -0.366134
v 0.155553 0.96356225 -0.39233
v 0.155553 0.96014525 -0.373894
v 0.024303 0.96014525 -0.373894
v 0.024303 0.96356225 -0.39233
v 0.024303 1.10148825 -0.347698
v -0.144447 1.106336 -0.377099
v -0.013197 1.100387 -0.359318
v -0.013197 1.106336 -0.377099
v -0.013197 0.964065 -0.404931
v -0.013197 0.970014 -0.422712
v -0.144447 0.964065 -0.404931
v -0.144447 0.970014 -0.422712
v -0.144447 1.100387 -0.359318
v -0.156947 1.084756 -0.366227
v -0.000697 1.103504 -0.366554
v -0.000697 1.084756 -0.366227
v -0.000697 1.106012 -0.222826
v -0.000697 1.087265 -0.222499
v -0.156947 1.106012 -0.222826
v -0.156947 1.087265 -0.222499
v -0.156947 1.103504 -0.366554
v -0.33842 0.773524 -0.290911
v -0.199838 1.084974 -0.353758
v -0.199838 0.772522 -0.348304
v -0.152003 1.08699 -0.238291
v -0.152003 0.774537 -0.232837
v -0.290585 1.087991 -0.180897
v -0.290585 0.775539 -0.175443
v -0.33842 1.085976 -0.296365
v -0.212749 1.1051915 -0.371088
v -0.32461 1.1011405 -0.300032
v -0.205268 1.1001465 -0.354651
v -0.229797 0.9667455 -0.405818
v -0.222316 0.9617005 -0.389381
v -0.341657 0.9626945 -0.334762
v -0.349138 0.9677385 -0.351199
v -0.33209 1.1061845 -0.316469
v -0.343555 1.084729 -0.31095
v -0.201475 1.102293 -0.376297
v -0.201482 1.083546 -0.375972
v -0.141644 1.104533 -0.245609
v -0.141652 1.085786 -0.245284
v -0.283717 1.105716 -0.180586
v -0.283725 1.086969 -0.180262
v -0.343548 1.103476 -0.311274
v -0.125 0.55 -0.28125
v 0.125 0.6125 -0.28125
v 0.125 0.55 -0.28125
v 0.125 0.6125 -0.225
v 0.125 0.55 -0.225
v -0.125 0.6125 -0.225
v -0.125 0.55 -0.225
v -0.125 0.6125 -0.28125
v -0.170083 0.595083 -0.2875
v 0.167417 0.782583 -0.2875
v 0.167417 0.595083 -0.2875
v 0.167417 0.782583 -0.225
v 0.167417 0.595083 -0.225
v -0.170083 0.782583 -0.225
v -0.170083 0.595083 -0.225
v -0.170083 0.782583 -0.2875
v -0.18125 1.41875 -0.1875
v -0.125 1.60625 -0.1875
v -0.125 1.41875 -0.1875
v -0.125 1.60625 0.15625
v -0.125 1.41875 0.15625
v -0.18125 1.60625 0.15625
v -0.18125 1.41875 0.15625
v -0.18125 1.60625 -0.1875
v 0.125 1.41875 -0.1875
v 0.18125 1.60625 -0.1875
v 0.18125 1.41875 -0.1875
v 0.18125 1.60625 0.15625
v 0.18125 1.41875 0.15625
v 0.125 1.60625 0.15625
v 0.125 1.41875 0.15625
v 0.125 1.60625 -0.1875
v 0.125 1.4375 0.125
v 0.125 1.609375 0.1875
v 0.125 1.4375 0.1875
v -0.125 1.609375 0.1875
v -0.125 1.4375 0.1875
v -0.125 1.609375 0.125
v -0.125 1.4375 0.125
v 0.125 1.609375 0.125
v 0.125 1.39375 -0.23125
v 0.125 1.6046875 -0.16875
v 0.125 1.39375 -0.16875
v -0.125 1.6046875 -0.16875
v -0.125 1.39375 -0.16875
v -0.125 1.6046875 -0.23125
v -0.125 1.39375 -0.23125
v 0.125 1.6046875 -0.23125
v -0.008158 0.70625 -0.343215
v 0.115773 0.76875 -0.359531
v 0.115773 0.70625 -0.359531
v 0.123931 0.76875 -0.297566
v 0.123931 0.70625 -0.297566
v 0 0.76875 -0.28125
v 0 0.70625 -0.28125
v -0.008158 0.76875 -0.343215
v -0.115773 0.70625 -0.359531
v 0.008158 0.76875 -0.343215
v 0.008158 0.70625 -0.343215
v 0 0.76875 -0.28125
v 0 0.70625 -0.28125
v -0.123931 0.76875 -0.297566
v -0.123931 0.70625 -0.297566
v -0.115773 0.76875 -0.359531
v -0.126048 0.65 -0.329364
v -0.119852 0.76875 -0.328548
v -0.119852 0.65 -0.328548
v -0.120667 0.76875 -0.322352
v -0.120667 0.65 -0.322352
v -0.126864 0.76875 -0.323168
v -0.126864 0.65 -0.323168
v -0.126048 0.76875 -0.329364
v 0 1.203609 -0.304497
v -0.125 1.297131 -0.297957
v 0 1.297131 -0.297957
v -0.125 1.296695 -0.291723
v 0 1.296695 -0.291723
v -0.125 1.203173 -0.298262
v 0 1.203173 -0.298262
v -0.125 1.203609 -0.304497
v 0.007812499999999995 1.2037198558810065 -0.30520743585469196
v 0.1328125 1.297131 -0.297957
v 0.1328125 1.2037198558810065 -0.30520743585469196
v 0.1328125 1.2965858941189934 -0.292432435854692
v 0.1328125 1.2031747499999998 -0.2996828717093839
v 0.007812499999999995 1.2965858941189934 -0.292432435854692
v 0.007812499999999995 1.2031747499999998 -0.2996828717093839
v 0.007812499999999995 1.297131 -0.297957
v -0.12588174896287918 0.5508942499998422 -0.2812437489628792
v -0.12588174896287918 0.6392832499998421 -0.2812437489628792
v -0.08168774896287918 0.5950892499998421 -0.2812437489628792
v -0.08168774896287918 0.5950892499998421 -0.2249937489628792
v -0.12588174896287918 0.5508942499998422 -0.2249937489628792
v -0.12588174896287918 0.6392832499998421 -0.2249937489628792
v -0.1700767489628792 0.5950892499998421 -0.2249937489628792
v -0.1700767489628792 0.5950892499998421 -0.2812437489628792
v 0.12410574896287918 0.5508942499998422 -0.2812437489628792
v 0.12410574896287918 0.6392832499998421 -0.2812437489628792
v 0.1682997489628792 0.5950892499998421 -0.2812437489628792
v 0.1682997489628792 0.5950892499998421 -0.2249937489628792
v 0.12410574896287918 0.5508942499998422 -0.2249937489628792
v 0.12410574896287918 0.6392832499998421 -0.2249937489628792
v 0.07991074896287918 0.5950892499998421 -0.2249937489628792
v 0.07991074896287918 0.5950892499998421 -0.2812437489628792
v 0.1205795008046627 1.2889014970793724 0.12686350080466272
v 0.3424535008046627 1.5415744970793723 0.08969750080466271
v 0.2582175008046627 1.2484664970793724 0.1176495008046627
v 0.3478915008046627 1.5459344970793725 0.1518075008046627
v 0.2636555008046627 1.2528274970793725 0.17975950080466271
v 0.1260175008046627 1.2932614970793723 0.18897350080466271
v 0.2102535008046627 1.5863684970793723 0.1610215008046627
v 0.2048155008046627 1.5820084970793724 0.09891150080466271
v -0.2582175008046627 1.2484664970793724 0.1176495008046627
v -0.2048155008046627 1.5820084970793724 0.09891150080466271
v -0.1205795008046627 1.2889014970793724 0.12686350080466272
v -0.1260175008046627 1.2932614970793723 0.18897350080466271
v -0.2102535008046627 1.5863684970793723 0.1610215008046627
v -0.3478915008046627 1.5459344970793725 0.1518075008046627
v -0.2636555008046627 1.2528274970793725 0.17975950080466271
v -0.3424535008046627 1.5415744970793723 0.08969750080466271
vt 0.484375 0.625
vt 0.40625 0.671875
vt 0.40625 0.625
vt 0.546875 0.953125
vt 0.585938 1
vt 0.546875 1
vt 0.484375 0.578125
vt 0.40625 0.625
vt 0.40625 0.578125
vt 0.585938 0.90625
vt 0.546875 0.953125
vt 0.546875 0.90625
vt 0.421875 0.84375
vt 0.5 0.804688
vt 0.5 0.84375
vt 0.03125 0.523438
vt 0.109375 0.5625
vt 0.109375 0.523438
vt 0.453125 0.293945
vt 0.4375 0.3125
vt 0.4375 0.293945
vt 0.705078 0.668945
vt 0.6875 0.6875
vt 0.6875 0.668945
vt 0.46875 0.293945
vt 0.453125 0.3125
vt 0.453125 0.293945
vt 0.361328 0.293945
vt 0.34375 0.3125
vt 0.34375 0.293945
vt 0.46875 0.3125
vt 0.484375 0.294922
vt 0.484375 0.3125
vt 0.484375 0.294922
vt 0.5 0.3125
vt 0.5 0.294922
vt 0.125 0.703125
vt 0 0.828125
vt 0 0.703125
vt 0.40625 0.578125
vt 0.375 0.703125
vt 0.375 0.578125
vt 0.25 0.703125
vt 0.125 0.828125
vt 0.125 0.703125
vt 0.03125 0.46875
vt 0 0.59375
vt 0 0.46875
vt 0.03125 0.59375
vt 0.15625 0.5625
vt 0.15625 0.59375
vt 0.40625 0.671875
vt 0.53125 0.703125
vt 0.53125 0.671875
vt 0.25 0.651367
vt 0.15625 0.703125
vt 0.15625 0.651367
vt 0.484375 0.32324200000000003
vt 0.46875 0.375
vt 0.46875 0.32324200000000003
vt 0.34375 0.651367
vt 0.25 0.703125
vt 0.25 0.651367
vt 0.484375 0.32324200000000003
vt 0.5 0.375
vt 0.484375 0.375
vt 0.53125 0.609375
vt 0.625 0.59375
vt 0.625 0.609375
vt 0.546875 0.78125
vt 0.640625 0.796875
vt 0.640625 0.78125
vt 0.223633 0.53125
vt 0.1875 0.640625
vt 0.1875 0.53125
vt 0.017578 0.359375
vt 0 0.46875
vt 0 0.359375
vt 0.234375 0.53125
vt 0.270508 0.640625
vt 0.234375 0.640625
vt 0.548828 0.609375
vt 0.53125 0.71875
vt 0.53125 0.609375
vt 0.65625 0.359375
vt 0.692383 0.341797
vt 0.692383 0.359375
vt 0.0625 0.310547
vt 0.098633 0.328125
vt 0.098633 0.310547
vt 0.546875 0.796875
vt 0.583008 0.84375
vt 0.546875 0.84375
vt 0.515625 0.796875
vt 0.5 0.84375
vt 0.5 0.796875
vt 0.239258 0.40625
vt 0.203125 0.453125
vt 0.203125 0.40625
vt 0.609375 0.609375
vt 0.625 0.65625
vt 0.609375 0.65625
vt 0.65625 0.734375
vt 0.692383 0.71875
vt 0.692383 0.734375
vt 0.692383 0.453125
vt 0.65625 0.46875
vt 0.692383 0.46875
vt 0.458008 0.34863299999999997
vt 0.421875 0.375
vt 0.421875 0.34863299999999997
vt 0.375 0.879883
vt 0.359375 0.90625
vt 0.359375 0.879883
vt 0.583008 0.34863299999999997
vt 0.546875 0.375
vt 0.546875 0.34863299999999997
vt 0.171875 0.567383
vt 0.15625 0.59375
vt 0.15625 0.567383
vt 0.25 0.328125
vt 0.286133 0.3125
vt 0.286133 0.328125
vt 0.359375 0.3125
vt 0.395508 0.328125
vt 0.395508 0.3125
vt 0.132812 0.828125
vt 0 1
vt 0 0.828125
vt 0.367188 0.703125
vt 0.34375 0.875
vt 0.34375 0.703125
vt 0.273438 0.828125
vt 0.140625 1
vt 0.140625 0.828125
vt 0.367188 0.53125
vt 0.34375 0.703125
vt 0.34375 0.53125
vt 0.421875 0.90625
vt 0.554688 0.882812
vt 0.554688 0.90625
vt 0.421875 0.851562
vt 0.554688 0.875
vt 0.554688 0.851562
vt 0.101562 0.33886700000000003
vt 0.0625 0.359375
vt 0.0625 0.33886700000000003
vt 0 0.29199200000000003
vt 0.017578 0.3125
vt 0 0.3125
vt 0.640625 0.916992
vt 0.679688 0.9375
vt 0.640625 0.9375
vt 0.6875 0.916992
vt 0.705078 0.9375
vt 0.6875 0.9375
vt 0.65625 0.828125
vt 0.695312 0.810547
vt 0.695312 0.828125
vt 0.695312 0.779297
vt 0.65625 0.796875
vt 0.695312 0.796875
vt 0.148438 0.33886700000000003
vt 0.109375 0.359375
vt 0.109375 0.33886700000000003
vt 0.6875 0.885742
vt 0.705078 0.90625
vt 0.6875 0.90625
vt 0.679688 0.838867
vt 0.640625 0.859375
vt 0.640625 0.838867
vt 0.705078 0.838867
vt 0.6875 0.859375
vt 0.6875 0.838867
vt 0.695312 0.765625
vt 0.65625 0.748047
vt 0.695312 0.748047
vt 0.65625 0.638672
vt 0.695312 0.65625
vt 0.695312 0.638672
vt 0.1875 0.53125
vt 0.171875 0.59375
vt 0.171875 0.53125
vt 0.359375 0.9375
vt 0.28125 1
vt 0.28125 0.9375
vt 0.171875 0.328125
vt 0.15625 0.390625
vt 0.15625 0.328125
vt 0.359375 0.875
vt 0.28125 0.9375
vt 0.28125 0.875
vt 0.328125 0.640625
vt 0.34375 0.5625
vt 0.34375 0.640625
vt 0.34375 0.375
vt 0.359375 0.453125
vt 0.359375 0.375
vt 0.40625 0.328125
vt 0.390625 0.390625
vt 0.390625 0.328125
vt 0.078125 0.640625
vt 0 0.703125
vt 0 0.640625
vt 0.609375 0.328125
vt 0.59375 0.390625
vt 0.59375 0.328125
vt 0.15625 0.640625
vt 0.078125 0.703125
vt 0.078125 0.640625
vt 0.5625 0.6875
vt 0.578125 0.609375
vt 0.578125 0.6875
vt 0.578125 0.609375
vt 0.59375 0.6875
vt 0.59375 0.609375
vt 0.317383 0.53125
vt 0.28125 0.640625
vt 0.28125 0.53125
vt 0.515625 0.359375
vt 0.533203 0.46875
vt 0.515625 0.46875
vt 0.411133 0.796875
vt 0.375 0.90625
vt 0.375 0.796875
vt 0.171875 0.34375
vt 0.189453 0.453125
vt 0.171875 0.453125
vt 0.145508 0.328125
vt 0.109375 0.310547
vt 0.145508 0.310547
vt 0.203125 0.310547
vt 0.239258 0.328125
vt 0.239258 0.310547
vt 0.242188 0.33886700000000003
vt 0.203125 0.359375
vt 0.203125 0.33886700000000003
vt 0.267578 0.29199200000000003
vt 0.25 0.3125
vt 0.25 0.29199200000000003
vt 0.289062 0.33886700000000003
vt 0.25 0.359375
vt 0.25 0.33886700000000003
vt 0.298828 0.29199200000000003
vt 0.28125 0.3125
vt 0.28125 0.29199200000000003
vt 0.65625 0.625
vt 0.695312 0.607422
vt 0.695312 0.625
vt 0.65625 0.576172
vt 0.695312 0.59375
vt 0.695312 0.576172
vt 0.286133 0.40625
vt 0.25 0.453125
vt 0.25 0.40625
vt 0.015625 0.3125
vt 0 0.359375
vt 0 0.3125
vt 0.333008 0.40625
vt 0.296875 0.453125
vt 0.296875 0.40625
vt 0.03125 0.3125
vt 0.015625 0.359375
vt 0.015625 0.3125
vt 0.708008 0.484375
vt 0.671875 0.46875
vt 0.708008 0.46875
vt 0.671875 0.4375
vt 0.708008 0.453125
vt 0.708008 0.4375
vt 0.640625 0.698242
vt 0.679688 0.71875
vt 0.640625 0.71875
vt 0.705078 0.698242
vt 0.6875 0.71875
vt 0.6875 0.698242
vt 0.679688 0.666992
vt 0.640625 0.6875
vt 0.640625 0.666992
vt 0.330078 0.29199200000000003
vt 0.3125 0.3125
vt 0.3125 0.29199200000000003
vt 0.421875 0.34375
vt 0.460938 0.326172
vt 0.460938 0.34375
vt 0.65625 0.529297
vt 0.695312 0.546875
vt 0.695312 0.529297
vt 0.625 0.36425799999999997
vt 0.661133 0.390625
vt 0.625 0.390625
vt 0.328125 0.536133
vt 0.34375 0.5625
vt 0.328125 0.5625
vt 0.640625 0.973633
vt 0.676758 1
vt 0.640625 1
vt 0.359375 0.504883
vt 0.375 0.53125
vt 0.359375 0.53125
vt 0.708008 0.4375
vt 0.671875 0.421875
vt 0.708008 0.421875
vt 0.578125 0.3125
vt 0.614258 0.328125
vt 0.614258 0.3125
vt 0.736328 0.37011700000000003
vt 0.703125 0.375
vt 0.703125 0.37011700000000003
vt 0.739258 0.651367
vt 0.703125 0.65625
vt 0.703125 0.651367
vt 0.736328 0.35449200000000003
vt 0.703125 0.359375
vt 0.703125 0.35449200000000003
vt 0.739258 0.635742
vt 0.703125 0.640625
vt 0.703125 0.635742
vt 0.546875 0.421875
vt 0.580078 0.38574200000000003
vt 0.580078 0.421875
vt 0.59375 0.963867
vt 0.626953 1
vt 0.626953 0.963867
vt 0.09375 0.29199200000000003
vt 0.132812 0.296875
vt 0.09375 0.296875
vt 0.739258 0.620117
vt 0.703125 0.625
vt 0.703125 0.620117
vt 0.742188 0.870117
vt 0.703125 0.875
vt 0.703125 0.870117
vt 0.703125 0.604492
vt 0.739258 0.609375
vt 0.703125 0.609375
vt 0.070312 0.4375
vt 0.03125 0.40136700000000003
vt 0.070312 0.40136700000000003
vt 0.117188 0.40136700000000003
vt 0.078125 0.4375
vt 0.117188 0.4375
vt 0.414062 0.5
vt 0.375 0.578125
vt 0.375 0.5
vt 0.390625 0.421875
vt 0.359375 0.5
vt 0.359375 0.421875
vt 0.460938 0.5
vt 0.421875 0.578125
vt 0.421875 0.5
vt 0.421875 0.421875
vt 0.390625 0.5
vt 0.390625 0.421875
vt 0.5625 0.515625
vt 0.601562 0.484375
vt 0.601562 0.515625
vt 0.359375 0.390625
vt 0.398438 0.421875
vt 0.398438 0.390625
vt 0.208984 0.453125
vt 0.171875 0.53125
vt 0.171875 0.453125
vt 0.453125 0.421875
vt 0.421875 0.5
vt 0.421875 0.421875
vt 0.505859 0.71875
vt 0.46875 0.796875
vt 0.46875 0.71875
vt 0.453125 0.421875
vt 0.484375 0.5
vt 0.453125 0.5
vt 0.59375 0.59375
vt 0.630859 0.5625
vt 0.630859 0.59375
vt 0.0625 0.359375
vt 0.099609 0.390625
vt 0.099609 0.359375
vt 0.21875 0.453125
vt 0.255859 0.53125
vt 0.21875 0.53125
vt 0.515625 0.421875
vt 0.484375 0.5
vt 0.484375 0.421875
vt 0.265625 0.453125
vt 0.302734 0.53125
vt 0.265625 0.53125
vt 0.546875 0.921875
vt 0.515625 1
vt 0.515625 0.921875
vt 0.609375 0.90625
vt 0.646484 0.875
vt 0.646484 0.90625
vt 0.109375 0.359375
vt 0.146484 0.390625
vt 0.146484 0.359375
vt 0.085938 0.29199200000000003
vt 0.046875 0.296875
vt 0.046875 0.29199200000000003
vt 0.739258 0.776367
vt 0.703125 0.78125
vt 0.703125 0.776367
vt 0.742188 0.948242
vt 0.703125 0.953125
vt 0.703125 0.948242
vt 0.739258 0.760742
vt 0.703125 0.765625
vt 0.703125 0.760742
vt 0.546875 0.59375
vt 0.585938 0.557617
vt 0.585938 0.59375
vt 0.546875 0.43261700000000003
vt 0.585938 0.46875
vt 0.585938 0.43261700000000003
vt 0.626953 0.29199200000000003
vt 0.59375 0.296875
vt 0.59375 0.29199200000000003
vt 0.703125 0.745117
vt 0.739258 0.75
vt 0.703125 0.75
vt 0.736328 0.38574200000000003
vt 0.703125 0.390625
vt 0.703125 0.38574200000000003
vt 0.739258 0.729492
vt 0.703125 0.734375
vt 0.703125 0.729492
vt 0.40625 0.421875
vt 0.439453 0.38574200000000003
vt 0.439453 0.421875
vt 0.453125 0.38574200000000003
vt 0.486328 0.421875
vt 0.486328 0.38574200000000003
vt 0.736328 0.33886700000000003
vt 0.703125 0.34375
vt 0.703125 0.33886700000000003
vt 0.739258 0.588867
vt 0.703125 0.59375
vt 0.703125 0.588867
vt 0.705078 0.29199200000000003
vt 0.671875 0.296875
vt 0.671875 0.29199200000000003
vt 0.703125 0.573242
vt 0.739258 0.578125
vt 0.703125 0.578125
vt 0.59375 0.953125
vt 0.626953 0.916992
vt 0.626953 0.953125
vt 0.59375 0.823242
vt 0.626953 0.859375
vt 0.626953 0.823242
vt 0.742188 0.823242
vt 0.703125 0.828125
vt 0.703125 0.823242
vt 0.739258 0.557617
vt 0.703125 0.5625
vt 0.703125 0.557617
vt 0.742188 0.807617
vt 0.703125 0.8125
vt 0.703125 0.807617
vt 0.739258 0.541992
vt 0.703125 0.546875
vt 0.703125 0.541992
vt 0.5625 0.90625
vt 0.601562 0.870117
vt 0.601562 0.90625
vt 0.125 0.40136700000000003
vt 0.164062 0.4375
vt 0.164062 0.40136700000000003
vt 0.349609 0.453125
vt 0.3125 0.53125
vt 0.3125 0.453125
vt 0.546875 0.765625
vt 0.515625 0.84375
vt 0.515625 0.765625
vt 0.505859 0.5
vt 0.46875 0.578125
vt 0.46875 0.5
vt 0.546875 0.515625
vt 0.515625 0.59375
vt 0.515625 0.515625
vt 0.609375 0.78125
vt 0.646484 0.75
vt 0.646484 0.78125
vt 0.646484 0.71875
vt 0.609375 0.75
vt 0.646484 0.75
vt 0.703125 0.30761700000000003
vt 0.736328 0.3125
vt 0.703125 0.3125
vt 0.703125 0.526367
vt 0.739258 0.53125
vt 0.703125 0.53125
vt 0.033203 0.27636700000000003
vt 0 0.28125
vt 0 0.27636700000000003
vt 0.5 0.29199200000000003
vt 0.536133 0.296875
vt 0.5 0.296875
vt 0.203125 0.40625
vt 0.236328 0.37011700000000003
vt 0.236328 0.40625
vt 0.25 0.37011700000000003
vt 0.283203 0.40625
vt 0.283203 0.37011700000000003
vt 0.242188 0.29199200000000003
vt 0.203125 0.296875
vt 0.203125 0.29199200000000003
vt 0.739258 0.46386700000000003
vt 0.703125 0.46875
vt 0.703125 0.46386700000000003
vt 0.742188 0.791992
vt 0.703125 0.796875
vt 0.703125 0.791992
vt 0.583008 0.29199200000000003
vt 0.546875 0.296875
vt 0.546875 0.29199200000000003
vt 0.5625 0.78125
vt 0.601562 0.745117
vt 0.601562 0.78125
vt 0.5625 0.698242
vt 0.601562 0.734375
vt 0.601562 0.698242
vt 0.53125 0.703125
vt 0.46875 0.71875
vt 0.46875 0.703125
vt 0.591797 0.296875
vt 0.578125 0.3125
vt 0.578125 0.296875
vt 0.65625 0.796875
vt 0.59375 0.8125
vt 0.59375 0.796875
vt 0.607422 0.296875
vt 0.59375 0.3125
vt 0.59375 0.296875
vt 0.640625 0.96875
vt 0.703125 0.955078
vt 0.703125 0.96875
vt 0.640625 0.939453
vt 0.703125 0.953125
vt 0.703125 0.939453
vt 0.458984 0.75
vt 0.375 0.796875
vt 0.375 0.75
vt 0.65625 0.609375
vt 0.640625 0.65625
vt 0.640625 0.609375
vt 0.458984 0.703125
vt 0.375 0.75
vt 0.375 0.703125
vt 0.65625 0.5625
vt 0.640625 0.609375
vt 0.640625 0.5625
vt 0.546875 0.546875
vt 0.630859 0.53125
vt 0.630859 0.546875
vt 0.546875 0.515625
vt 0.630859 0.53125
vt 0.630859 0.515625
vt 0.669922 0.46875
vt 0.65625 0.515625
vt 0.65625 0.46875
vt 0.085938 0.59375
vt 0 0.640625
vt 0 0.59375
vt 0.513672 0.296875
vt 0.5 0.34375
vt 0.5 0.296875
vt 0.445312 0.953125
vt 0.359375 1
vt 0.359375 0.953125
vt 0.328125 0.40625
vt 0.341797 0.32031199999999993
vt 0.341797 0.40625
vt 0.59375 0.39843800000000007
vt 0.607422 0.484375
vt 0.607422 0.39843800000000007
vt 0.560547 0.296875
vt 0.546875 0.34375
vt 0.546875 0.296875
vt 0.445312 0.90625
vt 0.359375 0.953125
vt 0.359375 0.90625
vt 0.576172 0.296875
vt 0.5625 0.34375
vt 0.5625 0.296875
vt 0.179688 0.59375
vt 0.09375 0.640625
vt 0.09375 0.59375
vt 0.03125 0.390625
vt 0.044922 0.30468800000000007
vt 0.044922 0.390625
vt 0.046875 0.30468800000000007
vt 0.060547 0.390625
vt 0.060547 0.30468800000000007
vt 0.65625 0.5
vt 0.640625 0.546875
vt 0.640625 0.5
vt 0.34375 0.828125
vt 0.28125 0.875
vt 0.28125 0.828125
vt 0.65625 0.453125
vt 0.640625 0.5
vt 0.640625 0.453125
vt 0.171875 0.515625
vt 0.109375 0.5625
vt 0.109375 0.515625
vt 0.609375 0.390625
vt 0.625 0.328125
vt 0.625 0.390625
vt 0.34375 0.3125
vt 0.359375 0.375
vt 0.359375 0.3125
vt 0.53125 0.3125
vt 0.515625 0.359375
vt 0.515625 0.3125
vt 0.515625 0.953125
vt 0.453125 1
vt 0.453125 0.953125
vt 0.546875 0.3125
vt 0.53125 0.359375
vt 0.53125 0.3125
vt 0.515625 0.90625
vt 0.453125 0.953125
vt 0.453125 0.90625
vt 0.625 0.65625
vt 0.640625 0.59375
vt 0.640625 0.65625
vt 0.40625 0.3125
vt 0.421875 0.375
vt 0.421875 0.3125
vt 0.515625 0.578125
vt 0.484375 0.59375
vt 0.484375 0.578125
vt 0.703125 0.96875
vt 0.6875 0.984375
vt 0.6875 0.96875
vt 0.546875 0.90625
vt 0.515625 0.921875
vt 0.515625 0.90625
vt 0.703125 0.546875
vt 0.6875 0.5625
vt 0.6875 0.546875
vt 0.5625 0.859375
vt 0.59375 0.84375
vt 0.59375 0.859375
vt 0.5625 0.46875
vt 0.59375 0.484375
vt 0.59375 0.46875
vt 0.328125 0.3125
vt 0.296875 0.328125
vt 0.296875 0.3125
vt 0.53125 0.296875
vt 0.515625 0.3125
vt 0.515625 0.296875
vt 0.703125 0.375
vt 0.671875 0.390625
vt 0.671875 0.375
vt 0.546875 0.296875
vt 0.53125 0.3125
vt 0.53125 0.296875
vt 0.625 0.328125
vt 0.65625 0.3125
vt 0.65625 0.328125
vt 0.703125 0.359375
vt 0.671875 0.375
vt 0.703125 0.375
vt 0.328125 0.3125
vt 0.296875 0.328125
vt 0.296875 0.3125
vt 0.53125 0.296875
vt 0.515625 0.3125
vt 0.515625 0.296875
vt 0.703125 0.375
vt 0.671875 0.390625
vt 0.671875 0.375
vt 0.546875 0.296875
vt 0.53125 0.3125
vt 0.53125 0.296875
vt 0.625 0.328125
vt 0.65625 0.3125
vt 0.65625 0.328125
vt 0.703125 0.359375
vt 0.671875 0.375
vt 0.703125 0.375
vt 0.484375 0.625
vt 0.484375 0.671875
vt 0.40625 0.671875
vt 0.546875 0.953125
vt 0.585938 0.953125
vt 0.585938 1
vt 0.484375 0.578125
vt 0.484375 0.625
vt 0.40625 0.625
vt 0.585938 0.90625
vt 0.585938 0.953125
vt 0.546875 0.953125
vt 0.421875 0.84375
vt 0.421875 0.804688
vt 0.5 0.804688
vt 0.03125 0.523438
vt 0.03125 0.5625
vt 0.109375 0.5625
vt 0.453125 0.293945
vt 0.453125 0.3125
vt 0.4375 0.3125
vt 0.705078 0.668945
vt 0.705078 0.6875
vt 0.6875 0.6875
vt 0.46875 0.293945
vt 0.46875 0.3125
vt 0.453125 0.3125
vt 0.361328 0.293945
vt 0.361328 0.3125
vt 0.34375 0.3125
vt 0.46875 0.3125
vt 0.46875 0.294922
vt 0.484375 0.294922
vt 0.484375 0.294922
vt 0.484375 0.3125
vt 0.5 0.3125
vt 0.125 0.703125
vt 0.125 0.828125
vt 0 0.828125
vt 0.40625 0.578125
vt 0.40625 0.703125
vt 0.375 0.703125
vt 0.25 0.703125
vt 0.25 0.828125
vt 0.125 0.828125
vt 0.03125 0.46875
vt 0.03125 0.59375
vt 0 0.59375
vt 0.03125 0.59375
vt 0.03125 0.5625
vt 0.15625 0.5625
vt 0.40625 0.671875
vt 0.40625 0.703125
vt 0.53125 0.703125
vt 0.25 0.651367
vt 0.25 0.703125
vt 0.15625 0.703125
vt 0.484375 0.32324200000000003
vt 0.484375 0.375
vt 0.46875 0.375
vt 0.34375 0.651367
vt 0.34375 0.703125
vt 0.25 0.703125
vt 0.484375 0.32324200000000003
vt 0.5 0.32324200000000003
vt 0.5 0.375
vt 0.53125 0.609375
vt 0.53125 0.59375
vt 0.625 0.59375
vt 0.546875 0.78125
vt 0.546875 0.796875
vt 0.640625 0.796875
vt 0.223633 0.53125
vt 0.223633 0.640625
vt 0.1875 0.640625
vt 0.017578 0.359375
vt 0.017578 0.46875
vt 0 0.46875
vt 0.234375 0.53125
vt 0.270508 0.53125
vt 0.270508 0.640625
vt 0.548828 0.609375
vt 0.548828 0.71875
vt 0.53125 0.71875
vt 0.65625 0.359375
vt 0.65625 0.341797
vt 0.692383 0.341797
vt 0.0625 0.310547
vt 0.0625 0.328125
vt 0.098633 0.328125
vt 0.546875 0.796875
vt 0.583008 0.796875
vt 0.583008 0.84375
vt 0.515625 0.796875
vt 0.515625 0.84375
vt 0.5 0.84375
vt 0.239258 0.40625
vt 0.239258 0.453125
vt 0.203125 0.453125
vt 0.609375 0.609375
vt 0.625 0.609375
vt 0.625 0.65625
vt 0.65625 0.734375
vt 0.65625 0.71875
vt 0.692383 0.71875
vt 0.692383 0.453125
vt 0.65625 0.453125
vt 0.65625 0.46875
vt 0.458008 0.34863299999999997
vt 0.458008 0.375
vt 0.421875 0.375
vt 0.375 0.879883
vt 0.375 0.90625
vt 0.359375 0.90625
vt 0.583008 0.34863299999999997
vt 0.583008 0.375
vt 0.546875 0.375
vt 0.171875 0.567383
vt 0.171875 0.59375
vt 0.15625 0.59375
vt 0.25 0.328125
vt 0.25 0.3125
vt 0.286133 0.3125
vt 0.359375 0.3125
vt 0.359375 0.328125
vt 0.395508 0.328125
vt 0.132812 0.828125
vt 0.132812 1
vt 0 1
vt 0.367188 0.703125
vt 0.367188 0.875
vt 0.34375 0.875
vt 0.273438 0.828125
vt 0.273438 1
vt 0.140625 1
vt 0.367188 0.53125
vt 0.367188 0.703125
vt 0.34375 0.703125
vt 0.421875 0.90625
vt 0.421875 0.882812
vt 0.554688 0.882812
vt 0.421875 0.851562
vt 0.421875 0.875
vt 0.554688 0.875
vt 0.101562 0.33886700000000003
vt 0.101562 0.359375
vt 0.0625 0.359375
vt 0 0.29199200000000003
vt 0.017578 0.29199200000000003
vt 0.017578 0.3125
vt 0.640625 0.916992
vt 0.679688 0.916992
vt 0.679688 0.9375
vt 0.6875 0.916992
vt 0.705078 0.916992
vt 0.705078 0.9375
vt 0.65625 0.828125
vt 0.65625 0.810547
vt 0.695312 0.810547
vt 0.695312 0.779297
vt 0.65625 0.779297
vt 0.65625 0.796875
vt 0.148438 0.33886700000000003
vt 0.148438 0.359375
vt 0.109375 0.359375
vt 0.6875 0.885742
vt 0.705078 0.885742
vt 0.705078 0.90625
vt 0.679688 0.838867
vt 0.679688 0.859375
vt 0.640625 0.859375
vt 0.705078 0.838867
vt 0.705078 0.859375
vt 0.6875 0.859375
vt 0.695312 0.765625
vt 0.65625 0.765625
vt 0.65625 0.748047
vt 0.65625 0.638672
vt 0.65625 0.65625
vt 0.695312 0.65625
vt 0.1875 0.53125
vt 0.1875 0.59375
vt 0.171875 0.59375
vt 0.359375 0.9375
vt 0.359375 1
vt 0.28125 1
vt 0.171875 0.328125
vt 0.171875 0.390625
vt 0.15625 0.390625
vt 0.359375 0.875
vt 0.359375 0.9375
vt 0.28125 0.9375
vt 0.328125 0.640625
vt 0.328125 0.5625
vt 0.34375 0.5625
vt 0.34375 0.375
vt 0.34375 0.453125
vt 0.359375 0.453125
vt 0.40625 0.328125
vt 0.40625 0.390625
vt 0.390625 0.390625
vt 0.078125 0.640625
vt 0.078125 0.703125
vt 0 0.703125
vt 0.609375 0.328125
vt 0.609375 0.390625
vt 0.59375 0.390625
vt 0.15625 0.640625
vt 0.15625 0.703125
vt 0.078125 0.703125
vt 0.5625 0.6875
vt 0.5625 0.609375
vt 0.578125 0.609375
vt 0.578125 0.609375
vt 0.578125 0.6875
vt 0.59375 0.6875
vt 0.317383 0.53125
vt 0.317383 0.640625
vt 0.28125 0.640625
vt 0.515625 0.359375
vt 0.533203 0.359375
vt 0.533203 0.46875
vt 0.411133 0.796875
vt 0.411133 0.90625
vt 0.375 0.90625
vt 0.171875 0.34375
vt 0.189453 0.34375
vt 0.189453 0.453125
vt 0.145508 0.328125
vt 0.109375 0.328125
vt 0.109375 0.310547
vt 0.203125 0.310547
vt 0.203125 0.328125
vt 0.239258 0.328125
vt 0.242188 0.33886700000000003
vt 0.242188 0.359375
vt 0.203125 0.359375
vt 0.267578 0.29199200000000003
vt 0.267578 0.3125
vt 0.25 0.3125
vt 0.289062 0.33886700000000003
vt 0.289062 0.359375
vt 0.25 0.359375
vt 0.298828 0.29199200000000003
vt 0.298828 0.3125
vt 0.28125 0.3125
vt 0.65625 0.625
vt 0.65625 0.607422
vt 0.695312 0.607422
vt 0.65625 0.576172
vt 0.65625 0.59375
vt 0.695312 0.59375
vt 0.286133 0.40625
vt 0.286133 0.453125
vt 0.25 0.453125
vt 0.015625 0.3125
vt 0.015625 0.359375
vt 0 0.359375
vt 0.333008 0.40625
vt 0.333008 0.453125
vt 0.296875 0.453125
vt 0.03125 0.3125
vt 0.03125 0.359375
vt 0.015625 0.359375
vt 0.708008 0.484375
vt 0.671875 0.484375
vt 0.671875 0.46875
vt 0.671875 0.4375
vt 0.671875 0.453125
vt 0.708008 0.453125
vt 0.640625 0.698242
vt 0.679688 0.698242
vt 0.679688 0.71875
vt 0.705078 0.698242
vt 0.705078 0.71875
vt 0.6875 0.71875
vt 0.679688 0.666992
vt 0.679688 0.6875
vt 0.640625 0.6875
vt 0.330078 0.29199200000000003
vt 0.330078 0.3125
vt 0.3125 0.3125
vt 0.421875 0.34375
vt 0.421875 0.326172
vt 0.460938 0.326172
vt 0.65625 0.529297
vt 0.65625 0.546875
vt 0.695312 0.546875
vt 0.625 0.36425799999999997
vt 0.661133 0.36425799999999997
vt 0.661133 0.390625
vt 0.328125 0.536133
vt 0.34375 0.536133
vt 0.34375 0.5625
vt 0.640625 0.973633
vt 0.676758 0.973633
vt 0.676758 1
vt 0.359375 0.504883
vt 0.375 0.504883
vt 0.375 0.53125
vt 0.708008 0.4375
vt 0.671875 0.4375
vt 0.671875 0.421875
vt 0.578125 0.3125
vt 0.578125 0.328125
vt 0.614258 0.328125
vt 0.736328 0.37011700000000003
vt 0.736328 0.375
vt 0.703125 0.375
vt 0.739258 0.651367
vt 0.739258 0.65625
vt 0.703125 0.65625
vt 0.736328 0.35449200000000003
vt 0.736328 0.359375
vt 0.703125 0.359375
vt 0.739258 0.635742
vt 0.739258 0.640625
vt 0.703125 0.640625
vt 0.546875 0.421875
vt 0.546875 0.38574200000000003
vt 0.580078 0.38574200000000003
vt 0.59375 0.963867
vt 0.59375 1
vt 0.626953 1
vt 0.09375 0.29199200000000003
vt 0.132812 0.29199200000000003
vt 0.132812 0.296875
vt 0.739258 0.620117
vt 0.739258 0.625
vt 0.703125 0.625
vt 0.742188 0.870117
vt 0.742188 0.875
vt 0.703125 0.875
vt 0.703125 0.604492
vt 0.739258 0.604492
vt 0.739258 0.609375
vt 0.070312 0.4375
vt 0.03125 0.4375
vt 0.03125 0.40136700000000003
vt 0.117188 0.40136700000000003
vt 0.078125 0.40136700000000003
vt 0.078125 0.4375
vt 0.414062 0.5
vt 0.414062 0.578125
vt 0.375 0.578125
vt 0.390625 0.421875
vt 0.390625 0.5
vt 0.359375 0.5
vt 0.460938 0.5
vt 0.460938 0.578125
vt 0.421875 0.578125
vt 0.421875 0.421875
vt 0.421875 0.5
vt 0.390625 0.5
vt 0.5625 0.515625
vt 0.5625 0.484375
vt 0.601562 0.484375
vt 0.359375 0.390625
vt 0.359375 0.421875
vt 0.398438 0.421875
vt 0.208984 0.453125
vt 0.208984 0.53125
vt 0.171875 0.53125
vt 0.453125 0.421875
vt 0.453125 0.5
vt 0.421875 0.5
vt 0.505859 0.71875
vt 0.505859 0.796875
vt 0.46875 0.796875
vt 0.453125 0.421875
vt 0.484375 0.421875
vt 0.484375 0.5
vt 0.59375 0.59375
vt 0.59375 0.5625
vt 0.630859 0.5625
vt 0.0625 0.359375
vt 0.0625 0.390625
vt 0.099609 0.390625
vt 0.21875 0.453125
vt 0.255859 0.453125
vt 0.255859 0.53125
vt 0.515625 0.421875
vt 0.515625 0.5
vt 0.484375 0.5
vt 0.265625 0.453125
vt 0.302734 0.453125
vt 0.302734 0.53125
vt 0.546875 0.921875
vt 0.546875 1
vt 0.515625 1
vt 0.609375 0.90625
vt 0.609375 0.875
vt 0.646484 0.875
vt 0.109375 0.359375
vt 0.109375 0.390625
vt 0.146484 0.390625
vt 0.085938 0.29199200000000003
vt 0.085938 0.296875
vt 0.046875 0.296875
vt 0.739258 0.776367
vt 0.739258 0.78125
vt 0.703125 0.78125
vt 0.742188 0.948242
vt 0.742188 0.953125
vt 0.703125 0.953125
vt 0.739258 0.760742
vt 0.739258 0.765625
vt 0.703125 0.765625
vt 0.546875 0.59375
vt 0.546875 0.557617
vt 0.585938 0.557617
vt 0.546875 0.43261700000000003
vt 0.546875 0.46875
vt 0.585938 0.46875
vt 0.626953 0.29199200000000003
vt 0.626953 0.296875
vt 0.59375 0.296875
vt 0.703125 0.745117
vt 0.739258 0.745117
vt 0.739258 0.75
vt 0.736328 0.38574200000000003
vt 0.736328 0.390625
vt 0.703125 0.390625
vt 0.739258 0.729492
vt 0.739258 0.734375
vt 0.703125 0.734375
vt 0.40625 0.421875
vt 0.40625 0.38574200000000003
vt 0.439453 0.38574200000000003
vt 0.453125 0.38574200000000003
vt 0.453125 0.421875
vt 0.486328 0.421875
vt 0.736328 0.33886700000000003
vt 0.736328 0.34375
vt 0.703125 0.34375
vt 0.739258 0.588867
vt 0.739258 0.59375
vt 0.703125 0.59375
vt 0.705078 0.29199200000000003
vt 0.705078 0.296875
vt 0.671875 0.296875
vt 0.703125 0.573242
vt 0.739258 0.573242
vt 0.739258 0.578125
vt 0.59375 0.953125
vt 0.59375 0.916992
vt 0.626953 0.916992
vt 0.59375 0.823242
vt 0.59375 0.859375
vt 0.626953 0.859375
vt 0.742188 0.823242
vt 0.742188 0.828125
vt 0.703125 0.828125
vt 0.739258 0.557617
vt 0.739258 0.5625
vt 0.703125 0.5625
vt 0.742188 0.807617
vt 0.742188 0.8125
vt 0.703125 0.8125
vt 0.739258 0.541992
vt 0.739258 0.546875
vt 0.703125 0.546875
vt 0.5625 0.90625
vt 0.5625 0.870117
vt 0.601562 0.870117
vt 0.125 0.40136700000000003
vt 0.125 0.4375
vt 0.164062 0.4375
vt 0.349609 0.453125
vt 0.349609 0.53125
vt 0.3125 0.53125
vt 0.546875 0.765625
vt 0.546875 0.84375
vt 0.515625 0.84375
vt 0.505859 0.5
vt 0.505859 0.578125
vt 0.46875 0.578125
vt 0.546875 0.515625
vt 0.546875 0.59375
vt 0.515625 0.59375
vt 0.609375 0.78125
vt 0.609375 0.75
vt 0.646484 0.75
vt 0.646484 0.71875
vt 0.609375 0.71875
vt 0.609375 0.75
vt 0.703125 0.30761700000000003
vt 0.736328 0.30761700000000003
vt 0.736328 0.3125
vt 0.703125 0.526367
vt 0.739258 0.526367
vt 0.739258 0.53125
vt 0.033203 0.27636700000000003
vt 0.033203 0.28125
vt 0 0.28125
vt 0.5 0.29199200000000003
vt 0.536133 0.29199200000000003
vt 0.536133 0.296875
vt 0.203125 0.40625
vt 0.203125 0.37011700000000003
vt 0.236328 0.37011700000000003
vt 0.25 0.37011700000000003
vt 0.25 0.40625
vt 0.283203 0.40625
vt 0.242188 0.29199200000000003
vt 0.242188 0.296875
vt 0.203125 0.296875
vt 0.739258 0.46386700000000003
vt 0.739258 0.46875
vt 0.703125 0.46875
vt 0.742188 0.791992
vt 0.742188 0.796875
vt 0.703125 0.796875
vt 0.583008 0.29199200000000003
vt 0.583008 0.296875
vt 0.546875 0.296875
vt 0.5625 0.78125
vt 0.5625 0.745117
vt 0.601562 0.745117
vt 0.5625 0.698242
vt 0.5625 0.734375
vt 0.601562 0.734375
vt 0.53125 0.703125
vt 0.53125 0.71875
vt 0.46875 0.71875
vt 0.591797 0.296875
vt 0.591797 0.3125
vt 0.578125 0.3125
vt 0.65625 0.796875
vt 0.65625 0.8125
vt 0.59375 0.8125
vt 0.607422 0.296875
vt 0.607422 0.3125
vt 0.59375 0.3125
vt 0.640625 0.96875
vt 0.640625 0.955078
vt 0.703125 0.955078
vt 0.640625 0.939453
vt 0.640625 0.953125
vt 0.703125 0.953125
vt 0.458984 0.75
vt 0.458984 0.796875
vt 0.375 0.796875
vt 0.65625 0.609375
vt 0.65625 0.65625
vt 0.640625 0.65625
vt 0.458984 0.703125
vt 0.458984 0.75
vt 0.375 0.75
vt 0.65625 0.5625
vt 0.65625 0.609375
vt 0.640625 0.609375
vt 0.546875 0.546875
vt 0.546875 0.53125
vt 0.630859 0.53125
vt 0.546875 0.515625
vt 0.546875 0.53125
vt 0.630859 0.53125
vt 0.669922 0.46875
vt 0.669922 0.515625
vt 0.65625 0.515625
vt 0.085938 0.59375
vt 0.085938 0.640625
vt 0 0.640625
vt 0.513672 0.296875
vt 0.513672 0.34375
vt 0.5 0.34375
vt 0.445312 0.953125
vt 0.445312 1
vt 0.359375 1
vt 0.328125 0.40625
vt 0.328125 0.32031199999999993
vt 0.341797 0.32031199999999993
vt 0.59375 0.39843800000000007
vt 0.59375 0.484375
vt 0.607422 0.484375
vt 0.560547 0.296875
vt 0.560547 0.34375
vt 0.546875 0.34375
vt 0.445312 0.90625
vt 0.445312 0.953125
vt 0.359375 0.953125
vt 0.576172 0.296875
vt 0.576172 0.34375
vt 0.5625 0.34375
vt 0.179688 0.59375
vt 0.179688 0.640625
vt 0.09375 0.640625
vt 0.03125 0.390625
vt 0.03125 0.30468800000000007
vt 0.044922 0.30468800000000007
vt 0.046875 0.30468800000000007
vt 0.046875 0.390625
vt 0.060547 0.390625
vt 0.65625 0.5
vt 0.65625 0.546875
vt 0.640625 0.546875
vt 0.34375 0.828125
vt 0.34375 0.875
vt 0.28125 0.875
vt 0.65625 0.453125
vt 0.65625 0.5
vt 0.640625 0.5
vt 0.171875 0.515625
vt 0.171875 0.5625
vt 0.109375 0.5625
vt 0.609375 0.390625
vt 0.609375 0.328125
vt 0.625 0.328125
vt 0.34375 0.3125
vt 0.34375 0.375
vt 0.359375 0.375
vt 0.53125 0.3125
vt 0.53125 0.359375
vt 0.515625 0.359375
vt 0.515625 0.953125
vt 0.515625 1
vt 0.453125 1
vt 0.546875 0.3125
vt 0.546875 0.359375
vt 0.53125 0.359375
vt 0.515625 0.90625
vt 0.515625 0.953125
vt 0.453125 0.953125
vt 0.625 0.65625
vt 0.625 0.59375
vt 0.640625 0.59375
vt 0.40625 0.3125
vt 0.40625 0.375
vt 0.421875 0.375
vt 0.515625 0.578125
vt 0.515625 0.59375
vt 0.484375 0.59375
vt 0.703125 0.96875
vt 0.703125 0.984375
vt 0.6875 0.984375
vt 0.546875 0.90625
vt 0.546875 0.921875
vt 0.515625 0.921875
vt 0.703125 0.546875
vt 0.703125 0.5625
vt 0.6875 0.5625
vt 0.5625 0.859375
vt 0.5625 0.84375
vt 0.59375 0.84375
vt 0.5625 0.46875
vt 0.5625 0.484375
vt 0.59375 0.484375
vt 0.328125 0.3125
vt 0.328125 0.328125
vt 0.296875 0.328125
vt 0.53125 0.296875
vt 0.53125 0.3125
vt 0.515625 0.3125
vt 0.703125 0.375
vt 0.703125 0.390625
vt 0.671875 0.390625
vt 0.546875 0.296875
vt 0.546875 0.3125
vt 0.53125 0.3125
vt 0.625 0.328125
vt 0.625 0.3125
vt 0.65625 0.3125
vt 0.703125 0.359375
vt 0.671875 0.359375
vt 0.671875 0.375
vt 0.328125 0.3125
vt 0.328125 0.328125
vt 0.296875 0.328125
vt 0.53125 0.296875
vt 0.53125 0.3125
vt 0.515625 0.3125
vt 0.703125 0.375
vt 0.703125 0.390625
vt 0.671875 0.390625
vt 0.546875 0.296875
vt 0.546875 0.3125
vt 0.53125 0.3125
vt 0.625 0.328125
vt 0.625 0.3125
vt 0.65625 0.3125
vt 0.703125 0.359375
vt 0.671875 0.359375
vt 0.671875 0.375
vt 0.648438 0.328125
vt 0.625 0.359375
vt 0.625 0.328125
vt 0.142578 0.265625
vt 0.140625 0.296875
vt 0.140625 0.265625
vt 0.679688 0.875
vt 0.65625 0.90625
vt 0.65625 0.875
vt 0.642578 0.265625
vt 0.640625 0.296875
vt 0.640625 0.265625
vt 0.71875 0.859375
vt 0.742188 0.857422
vt 0.742188 0.859375
vt 0.179688 0.279297
vt 0.15625 0.28125
vt 0.179688 0.28125
vt 0.648438 0.328125
vt 0.648438 0.359375
vt 0.625 0.359375
vt 0.142578 0.265625
vt 0.142578 0.296875
vt 0.140625 0.296875
vt 0.679688 0.875
vt 0.679688 0.90625
vt 0.65625 0.90625
vt 0.642578 0.265625
vt 0.642578 0.296875
vt 0.640625 0.296875
vt 0.71875 0.859375
vt 0.71875 0.857422
vt 0.742188 0.857422
vt 0.179688 0.279297
vt 0.15625 0.279297
vt 0.15625 0.28125
vt 0.671875 0.42968800000000007
vt 0.640625 0.453125
vt 0.640625 0.42968800000000007
vt 0.720703 0.882812
vt 0.71875 0.90625
vt 0.71875 0.882812
vt 0.671875 0.39843800000000007
vt 0.640625 0.421875
vt 0.640625 0.39843800000000007
vt 0.109375 0.25781199999999993
vt 0.111328 0.28125
vt 0.109375 0.28125
vt 0.078125 0.28125
vt 0.109375 0.279297
vt 0.109375 0.28125
vt 0.71875 0.919922
vt 0.75 0.921875
vt 0.75 0.919922
vt 0.671875 0.42968800000000007
vt 0.671875 0.453125
vt 0.640625 0.453125
vt 0.720703 0.882812
vt 0.720703 0.90625
vt 0.71875 0.90625
vt 0.671875 0.39843800000000007
vt 0.671875 0.421875
vt 0.640625 0.421875
vt 0.109375 0.25781199999999993
vt 0.111328 0.25781199999999993
vt 0.111328 0.28125
vt 0.078125 0.28125
vt 0.078125 0.279297
vt 0.109375 0.279297
vt 0.71875 0.919922
vt 0.71875 0.921875
vt 0.75 0.921875
vt 0.546875 0.765625
vt 0.5625 0.78125
vt 0.546875 0.78125
vt 0.623047 0.296875
vt 0.609375 0.3125
vt 0.609375 0.296875
vt 0.65625 0.8125
vt 0.640625 0.828125
vt 0.640625 0.8125
vt 0.638672 0.296875
vt 0.625 0.3125
vt 0.625 0.296875
vt 0.640625 0.3125
vt 0.65625 0.298828
vt 0.65625 0.3125
vt 0.671875 0.298828
vt 0.6875 0.3125
vt 0.6875 0.298828
vt 0.546875 0.765625
vt 0.5625 0.765625
vt 0.5625 0.78125
vt 0.623047 0.296875
vt 0.623047 0.3125
vt 0.609375 0.3125
vt 0.65625 0.8125
vt 0.65625 0.828125
vt 0.640625 0.828125
vt 0.638672 0.296875
vt 0.638672 0.3125
vt 0.625 0.3125
vt 0.640625 0.3125
vt 0.640625 0.298828
vt 0.65625 0.298828
vt 0.671875 0.298828
vt 0.671875 0.3125
vt 0.6875 0.3125
vt 0.640625 0.78125
vt 0.65625 0.796875
vt 0.640625 0.796875
vt 0.701172 0.296875
vt 0.6875 0.3125
vt 0.6875 0.296875
vt 0.59375 0.328125
vt 0.578125 0.34375
vt 0.578125 0.328125
vt 0.716797 0.96875
vt 0.703125 0.984375
vt 0.703125 0.96875
vt 0.03125 0.296875
vt 0.046875 0.283203
vt 0.046875 0.296875
vt 0.703125 0.955078
vt 0.71875 0.96875
vt 0.71875 0.955078
vt 0.640625 0.78125
vt 0.65625 0.78125
vt 0.65625 0.796875
vt 0.701172 0.296875
vt 0.701172 0.3125
vt 0.6875 0.3125
vt 0.59375 0.328125
vt 0.59375 0.34375
vt 0.578125 0.34375
vt 0.716797 0.96875
vt 0.716797 0.984375
vt 0.703125 0.984375
vt 0.03125 0.296875
vt 0.03125 0.283203
vt 0.046875 0.283203
vt 0.703125 0.955078
vt 0.703125 0.96875
vt 0.71875 0.96875
vt 0.161133 0.439453
vt 0.125 0.515625
vt 0.125 0.439453
vt 0.328125 0.330078
vt 0.3125 0.40625
vt 0.3125 0.330078
vt 0.484375 0.595703
vt 0.520508 0.671875
vt 0.484375 0.671875
vt 0.609375 0.611328
vt 0.59375 0.6875
vt 0.59375 0.611328
vt 0.671875 0.421875
vt 0.708008 0.40625
vt 0.708008 0.421875
vt 0.708008 0.390625
vt 0.671875 0.40625
vt 0.708008 0.40625
vt 0.161133 0.439453
vt 0.161133 0.515625
vt 0.125 0.515625
vt 0.328125 0.330078
vt 0.328125 0.40625
vt 0.3125 0.40625
vt 0.484375 0.595703
vt 0.520508 0.595703
vt 0.520508 0.671875
vt 0.609375 0.611328
vt 0.609375 0.6875
vt 0.59375 0.6875
vt 0.671875 0.421875
vt 0.671875 0.40625
vt 0.708008 0.40625
vt 0.708008 0.390625
vt 0.671875 0.390625
vt 0.671875 0.40625
vt 0.067383 0.439453
vt 0.03125 0.515625
vt 0.03125 0.439453
vt 0.5 0.345703
vt 0.515625 0.421875
vt 0.5 0.421875
vt 0.114258 0.439453
vt 0.078125 0.515625
vt 0.078125 0.439453
vt 0.296875 0.330078
vt 0.3125 0.40625
vt 0.296875 0.40625
vt 0.671875 0.515625
vt 0.708008 0.5
vt 0.708008 0.515625
vt 0.671875 0.484375
vt 0.708008 0.5
vt 0.708008 0.484375
vt 0.067383 0.439453
vt 0.067383 0.515625
vt 0.03125 0.515625
vt 0.5 0.345703
vt 0.515625 0.345703
vt 0.515625 0.421875
vt 0.114258 0.439453
vt 0.114258 0.515625
vt 0.078125 0.515625
vt 0.296875 0.330078
vt 0.3125 0.330078
vt 0.3125 0.40625
vt 0.671875 0.515625
vt 0.671875 0.5
vt 0.708008 0.5
vt 0.671875 0.484375
vt 0.671875 0.5
vt 0.708008 0.5
vn 0 0.08715709244478788 -0.9961945800076262
vn 1 0 0
vn 0 -0.08715755551488234 0.996194539493502
vn -1 0 0
vn 0 0.9961941690266047 0.08716178977850615
vn 0 -0.9961947247203048 -0.08715543838129851
vn 0 0 -1
vn 1 0 0
vn 0 0 1
vn -1 0 0
vn 0 1 0
vn 0 -1 0
vn 0 0 -1
vn 1 0 0
vn 0 0 1
vn -1 0 0
vn 0 1 0
vn 0 -1 0
vn 0 0.20791262592166637 -0.9781474019708674
vn 1 0 0
vn 0 -0.2079079870207193 0.9781483879928405
vn -1 0 0
vn 0 0.9781490091373777 0.20790506468955142
vn 0 -0.9781497007169386 -0.20790181092853272
vn 0.021737944225926314 0.20677314015422182 -0.9781473970172354
vn 0.9579456458084283 0.2756994507509077 0.0795609988142515
vn -0.021736431069455643 -0.2067731872575969 0.9781474206865229
vn -0.9579455838140145 -0.2756988608450832 -0.07956378937651437
vn -0.286128057324933 0.9387391688101288 0.19209244585128482
vn 0.28612174086996395 -0.9387415469682339 -0.1920902324357705
vn -0.2548900487990172 0.9449073849000093 -0.20538037146879543
vn 0.9579429471670671 0.2757085719931401 0.07956188347681009
vn 0.25489071301011645 -0.9449082741766572 0.20537545572362345
vn -0.9579440715969043 -0.27570440371256855 -0.07956278945488288
vn -0.13180019287809772 0.1764581969517452 0.9754441111031608
vn 0.13180019287809738 -0.1764581969517453 -0.9754441111031608
vn 0.2884836590862732 -0.9356609830916488 -0.20326264575707062
vn 0.9574807134113478 0.281286822355768 0.06409685650865728
vn -0.28847742688414163 0.9356628139575071 0.20326306293919807
vn -0.9574820191487874 -0.28128317552670534 -0.06409335513431808
vn 0.0027981009423279327 0.21311172374210208 -0.9770238297169557
vn -0.002798100942328177 -0.21311172374210124 0.9770238297169558
vn 0 0 -1
vn 1 0 0
vn 0 0 1
vn -1 0 0
vn 0 1 0
vn 0 -1 0
vn -0.262108793675907 0.941642664225638 -0.2112062337806428
vn 0.9601731802027312 0.26778139529241596 0.07975329682602778
vn 0.2621159837373854 -0.9416425998299676 0.21119759765405072
vn -0.9601733067776901 -0.267781226669628 -0.07975233911870754
vn -0.13192637169589053 0.17115495128113908 0.9763715558654446
vn 0.1319300105972495 -0.1711679801963821 -0.976368780153944
vn -0.26211639220028743 0.9416430429072749 -0.21119511519974488
vn 0.9601691751560155 0.26779819231412233 0.07974511441778262
vn 0.2621104614353762 -0.9416447999500117 0.21119464181942824
vn -0.9601687365677776 -0.26779877664302704 -0.07974843287699222
vn -0.13193017817648198 0.17116853471192417 0.9763686602973769
vn 0.13193017817648223 -0.1711685347119248 -0.9763686602973768
vn 0 0 -1
vn 1 0 0
vn 0 0 1
vn -1 0 0
vn 0 1 0
vn 0 -1 0
vn 0 0 -1
vn 1 0 0
vn 0 0 1
vn -1 0 0
vn 0 1 0
vn 0 -1 0
vn -0.021737169296648047 0.2067756826357841 -0.978146876773358
vn 0.9579455066276338 -0.2756987922669321 -0.07956495632174508
vn 0.02172927302945636 -0.20677341007532668 0.9781475326245179
vn -0.9579457120864953 0.2756984400000957 0.07956370326104248
vn 0.28612671652134997 0.9387401149740083 0.1920898191765943
vn -0.2861215047858473 -0.9387437926316508 -0.1920796092629997
vn 0.26926145811395297 0.938311318054228 -0.21695653386262728
vn 0.9622142313274589 -0.2603001125872334 -0.07992261518482176
vn -0.2692671562027265 -0.9383089761076422 0.21695959058387954
vn -0.9622138775790532 0.26030298714041444 0.07991751172340163
vn 0.1320407361481169 0.16616351862516096 0.977217953721466
vn -0.13204397465879264 -0.16617877606641332 -0.9772149216735164
vn 0.2548844161719119 0.944910086410623 -0.20537493272591134
vn 0.9579440715969043 -0.27570440371256855 -0.07956278945488288
vn -0.2548907130101163 -0.9449082741766569 0.20537545572362456
vn -0.9579431409746446 0.2757083125182476 0.07956044914385839
vn 0.1318001928780977 0.17645819695174522 0.9754441111031608
vn -0.13179973659980362 -0.17646120321377487 -0.9754436289158741
vn 0.2621163922002873 0.9416430429072747 -0.21119511519974488
vn 0.9601687365677776 -0.26779877664302715 -0.07974843287699292
vn -0.2621088524200883 -0.9416426372568163 0.21120628111647774
vn -0.9601696997487978 0.26779507890332516 0.07974925328468821
vn 0.1319301781764824 0.1711685347119247 0.9763686602973768
vn -0.1319295198791774 -0.17116617770529868 -0.9763691624555785
vn -0.2884836590862731 -0.9356609830916488 -0.20326264575707076
vn 0.9574820191487872 -0.28128317552670645 -0.06409335513431771
vn 0.28848368371739197 0.9356591063590076 0.2032712496058088
vn -0.9574820191487871 0.2812831755267066 0.0640933551343186
vn -0.002798100942327932 0.2131117237421021 -0.9770238297169557
vn 0.002797117261590519 -0.21311491418682144 0.9770231366176385
vn -0.12002936595109805 0.9631665154934976 0.24063086822245275
vn 0.9063034787162391 0.007377024329169997 0.422563112420962
vn 0.1200259431389862 -0.9631682429757754 -0.24062566092699791
vn -0.9062951024921757 -0.00736489358798115 -0.42258128867844447
vn -0.4052141014701307 -0.2688002056273209 0.8738123262030955
vn 0.40521616995635545 0.2688060831945601 -0.8738095589105795
vn 0.42101079565606436 0.07140348652313498 -0.9042408152994357
vn 0.9063079368448783 0.007390102521819909 0.4225533220750931
vn -0.4210083536448444 -0.07140346661006533 0.9042419538582156
vn -0.9063070624651917 -0.0073414415737565715 -0.422556045704395
vn -0.036831998203959056 0.9974214039370191 0.0615950231480546
vn 0.03682897123018554 -0.9974218826901249 -0.06158908027412698
vn 0 -0.01745276664039491 -0.9998476888689578
vn 1 0 0
vn 0 0.017452822480813656 0.999847687894238
vn -1 0 0
vn 0 0.9998477721307195 -0.017447996023532277
vn 0 -0.9998476325360658 0.01745599358457456
vn -0.026177479278837304 -0.017446785770494713 -0.9995050521357481
vn 0.9996573490746049 -0.00045684556969570765 -0.0261720410602427
vn 0.0261774792790123 0.017446841591777493 0.9995050511613578
vn -0.9996573490746049 0.00045684556969570976 0.026172041060242665
vn 0.0000030995356463883393 0.9998476659304902 -0.017454080432494704
vn -0.00000309953564712804 -0.9998476659304902 0.017454080432494717
vn 0.3826788924660791 -0.016124338294167255 -0.9237406946624743
vn 0.9238814942993889 0.0066788233511878336 0.3826204095572682
vn -0.3826844826530908 0.01612424629203114 0.9237383803967714
vn -0.92388032292496 -0.006678872707364857 -0.38262323710332913
vn 0.000006604658999909966 0.9998476649076088 -0.017454138053212383
vn 0.0000027220950043281057 -0.9998477485998325 0.017449344183560526
vn 0 -0.017439208002012107 -0.9998479254487967
vn 1 0 0
vn 0 0.017440137959012583 0.9998479092281839
vn -1 0 0
vn 0 0.9998477900163731 -0.01744697106590935
vn 0 -0.9998476686403415 0.017453925474636037
vn 0 0.9832540535125661 0.18224013348082232
vn 1 0 0
vn 0 -0.9832540535125661 -0.18224013348082232
vn -1 0 0
vn 0 -0.1822329924833447 0.9832553770260123
vn 0 0.1822329924833447 -0.9832553770260123
vn 0 0.948330706334778 0.31728358202494683
vn 1 0 0
vn 0 -0.9483307063347763 -0.3172835820249522
vn -1 0 0
vn 0 -0.31730651355733563 0.9483230338097292
vn 0 0.31730651355733597 -0.948323033809729
vn 0 -0.017439208002012107 -0.9998479254487967
vn 1 0 0
vn 0 0.017440137959012583 0.9998479092281839
vn -1 0 0
vn 0 0.9998477900163731 -0.01744697106590935
vn 0 -0.9998476686403415 0.017453925474636037
vn -0.3826788924660791 -0.01612433829416725 -0.9237406946624743
vn 0.9238803229249947 -0.006678851338266828 -0.3826232374762529
vn 0.38268458196539923 0.016124297163876256 0.9237383383658702
vn -0.9238814942993889 0.0066788233511878535 0.3826204095572682
vn -0.000003490224698102244 0.9998477961307268 -0.017446620313029227
vn -0.000002668041517441511 -0.9998477516271591 0.01744917072517669
vn 0.11860413715972425 0.96309500431807 0.24162175255174023
vn 0.9092612992976472 -0.007569422910642344 -0.4161569336636774
vn -0.11857779458991546 -0.9631088713765322 -0.24157940414284929
vn -0.9092815569921304 0.00757648573996405 0.41611254124070757
vn 0.3989610880697076 -0.2690285408959744 0.8766149065522546
vn -0.39896262270749044 0.2690312293912263 -0.876613383022759
vn -0.41621004270620104 -0.015605444374120809 -0.9091345722479091
vn 0.9092687249315476 -0.0076022662639504785 -0.41614011031022924
vn 0.4162100141570457 0.01553476917376054 0.9091357957214697
vn -0.9092687528391202 0.007531587648958724 0.41614133452215124
vn 0.00039857462594466417 0.9998499187992096 -0.01731996003118224
vn -0.00039867657049341286 -0.9998499180031704 0.017320003638740682
vn 0 0 -1
vn 1 0 0
vn 0 0 1
vn -1 0 0
vn 0 1 0
vn 0 -1 0
vn 0 0 -1
vn 1 0 0
vn 0 0 1
vn -1 0 0
vn 0 1 0
vn 0 -1 0
vn 0 0 -1
vn 1 0 0
vn 0 0 1
vn -1 0 0
vn 0 1 0
vn 0 -1 0
vn 0 0 -1
vn 1 0 0
vn 0 0 1
vn -1 0 0
vn 0 1 0
vn 0 -1 0
vn 1 0 0
vn 0 0 1
vn -1 0 0
vn 0 0 -1
vn 0 1 0
vn 0 -1 0
vn 1 0 0
vn 0 0 1
vn -1 0 0
vn 0 0 -1
vn 0 1 0
vn 0 -1 0
vn -0.13052756302786545 0 -0.991444680902574
vn 0.991444544601851 0 -0.13052859831940453
vn 0.13052756302786545 0 0.991444680902574
vn -0.991444544601851 0 0.13052859831940455
vn 0 1 0
vn 0 -1 0
vn 0.13052756302786545 0 -0.991444680902574
vn 0.991444544601851 0 0.13052859831940455
vn -0.13052756302786545 0 0.991444680902574
vn -0.991444544601851 0 -0.13052859831940453
vn 0 1 0
vn 0 -1 0
vn 0.13057040927903468 0 -0.991439039084454
vn 0.9914597411079396 0 0.13041311959376528
vn -0.13054969846863287 0 0.9914417664339894
vn -0.9914390390844534 0 -0.13057040927903935
vn 0 1 0
vn 0 -1 0
vn 0 0.08715709244478788 -0.9961945800076262
vn 1 0 0
vn 0 -0.08715755551488234 0.996194539493502
vn -1 0 0
vn 0 0.9961941690266047 0.08716178977850615
vn 0 -0.9961947247203048 -0.08715543838129851
vn 0 0 -1
vn 1 0 0
vn 0 0 1
vn -1 0 0
vn 0 1 0
vn 0 -1 0
vn 0 0 -1
vn 1 0 0
vn 0 0 1
vn -1 0 0
vn 0 1 0
vn 0 -1 0
vn 0 0.20791262592166637 -0.9781474019708674
vn 1 0 0
vn 0 -0.2079079870207193 0.9781483879928405
vn -1 0 0
vn 0 0.9781490091373777 0.20790506468955142
vn 0 -0.9781497007169386 -0.20790181092853272
vn 0.021729273029456275 0.20677341007532668 -0.9781475326245179
vn 0.9579457120864953 0.2756984400000957 0.07956370326104248
vn -0.02172927302945636 -0.20677341007532668 0.9781475326245179
vn -0.9579455066276338 -0.2756987922669321 -0.07956495632174508
vn -0.28612671652134997 0.9387401149740083 0.1920898191765943
vn 0.2861264805233128 -0.9387423606096804 -0.1920791960111954
vn -0.2548844161719119 0.944910086410623 -0.20537493272591134
vn 0.9579442654004937 0.27570414424552214 0.07956135514276311
vn 0.2548907130101177 -0.9449082741766565 0.20537545572362464
vn -0.9579440715969043 -0.27570440371256855 -0.07956278945488288
vn -0.1318001928780977 0.17645819695174522 0.9754441111031608
vn 0.13179973659980362 -0.17646120321377487 -0.9754436289158741
vn 0.2884836590862731 -0.9356609830916488 -0.20326264575707076
vn 0.9574820191487871 0.2812831755267066 0.0640933551343186
vn -0.28848368371739197 0.9356591063590076 0.2032712496058088
vn -0.9574820191487872 -0.28128317552670645 -0.06409335513431771
vn 0.002798100942327932 0.2131117237421021 -0.9770238297169557
vn -0.0027985367649196223 -0.21311533120536166 0.9770230415897081
vn 0 0 -1
vn 1 0 0
vn 0 0 1
vn -1 0 0
vn 0 1 0
vn 0 -1 0
vn -0.2621163334543651 0.9416430698759264 -0.21119506786637252
vn 0.9601725043063133 0.26778540711125387 0.07974796368812857
vn 0.2621159837373854 -0.9416425998299677 0.21119759765405086
vn -0.9601729022468213 -0.2677824624629568 -0.07975306005534483
vn -0.1319263716958906 0.17115495128113858 0.9763715558654447
vn 0.1319295864250899 -0.17117063982921552 -0.9763683712032881
vn -0.2621163922002873 0.9416430429072747 -0.21119511519974488
vn 0.9601696997487978 0.26779507890332516 0.07974925328468821
vn 0.26211478317444314 -0.9416408802223697 0.2112067544740358
vn -0.9601687365677776 -0.2677987766430263 -0.07974843287699308
vn -0.1319301781764824 0.1711685347119247 0.9763686602973768
vn 0.13192843743002972 -0.17116648030165 -0.9763692556704231
vn 0 0 -1
vn 1 0 0
vn 0 0 1
vn -1 0 0
vn 0 1 0
vn 0 -1 0
vn 0 0 -1
vn 1 0 0
vn 0 0 1
vn -1 0 0
vn 0 1 0
vn 0 -1 0
vn -0.021730047971153386 0.20677086760111182 -0.9781480528665663
vn 0.9579455838140145 -0.2756988608450832 -0.07956378937651437
vn 0.021736431069455643 -0.2067731872575969 0.9781474206865229
vn -0.9579456458084283 0.2756994507509077 0.0795609988142515
vn 0.286128057324933 0.9387391688101288 0.19209244585128482
vn -0.28612671652135 -0.9387401149740083 -0.1920898191765943
vn 0.2692658357669245 0.938307196175021 -0.21696892702622259
vn 0.9622146178171495 -0.2602989062111464 -0.07992189114553064
vn -0.26926715620272657 -0.9383089761076423 0.2169595905838796
vn -0.9622144935521407 0.2602990708199763 0.07992285110313839
vn 0.1320407361481172 0.1661635186251613 0.9772179537214659
vn -0.13204439563941184 -0.16617618951732374 -0.9772153046374812
vn 0.2548900487990172 0.9449073849000093 -0.20538037146879543
vn 0.9579440715969043 -0.27570440371256855 -0.07956278945488288
vn -0.25489071301011784 -0.9449082741766567 0.20537545572362353
vn -0.9579440715969044 0.2757044037125689 0.07956278945488258
vn 0.13180019287809772 0.1764581969517452 0.9754441111031608
vn -0.13180019287809738 -0.1764581969517453 -0.9754441111031608
vn 0.26211639220028743 0.9416430429072749 -0.21119511519974488
vn 0.9601687365677778 -0.2677987766430262 -0.07974843287699238
vn -0.26211639220028893 -0.9416430429072749 0.21119511519974254
vn -0.9601691751560155 0.26779819231412233 0.07974511441778262
vn 0.13193017817648198 0.17116853471192417 0.9763686602973769
vn -0.13192909571359873 -0.17116883731661764 -0.9763687535126621
vn -0.2884836590862732 -0.9356609830916488 -0.20326264575707062
vn 0.9574820191487874 -0.28128317552670534 -0.06409335513431808
vn 0.28847742688414163 0.9356628139575071 0.20326306293919807
vn -0.9574807134113478 0.281286822355768 0.06409685650865728
vn -0.0027981009423279327 0.21311172374210208 -0.9770238297169557
vn 0.002799520426331325 -0.2131121407481556 0.9770237346918041
vn -0.12003280522266398 0.9631647796610675 0.24063610055605847
vn 0.9063238216708186 0.007383945087447235 0.4225193576949436
vn 0.12002594313898605 -0.9631682429757756 -0.24062566092699755
vn -0.9063038826324873 -0.007373783114896788 -0.422562302681928
vn -0.40521940567394144 -0.2688061095163489 0.8738080502901896
vn 0.40521303350713467 0.26880877547450077 -0.8738101851682925
vn 0.42100890691957116 0.07137726947971469 -0.9042437645325558
vn 0.9063079439661733 0.007390499328436796 0.4225532998610756
vn -0.421008079783306 -0.07139966494641466 0.9042423815563575
vn -0.9063079439661733 -0.007390499328436019 -0.42255329986107554
vn -0.03683475663728087 0.9974218356055171 0.061586382916952315
vn 0.03683767784107921 -0.99742134029931 -0.061592657085120586
vn 0 -0.01745276664039491 -0.9998476888689578
vn 1 0 0
vn 0 0.017452822480813656 0.999847687894238
vn -1 0 0
vn 0 0.9998477721307195 -0.017447996023532277
vn 0 -0.9998476325360658 0.01745599358457456
vn -0.026177363006130574 -0.017446841644917284 -0.9995050542056617
vn 0.9996573489789379 -0.00045684417177914655 -0.026172044738707247
vn 0.026177479279012098 0.017446841591777396 0.9995050511613578
vn -0.9996573490746049 0.0004568455696957104 0.026172041060242665
vn -0.0000033544707461617746 0.9998478085053976 -0.017445911145636688
vn -0.0000030995356471244266 -0.9998476659304902 0.017454080432494724
vn 0.3826788924660791 -0.01612433829416725 -0.9237406946624743
vn 0.9238814942993889 0.006678823351187849 0.3826204095572682
vn -0.38268458196539923 0.016124297163876256 0.9237383383658702
vn -0.9238803433720563 -0.006678850476730821 -0.3826231881199062
vn -0.0000027755147883046314 0.9998477508500943 -0.017449215234633983
vn 0.000002668041517441511 -0.9998477516271591 0.01744917072517669
vn 0 -0.017439208002012107 -0.9998479254487967
vn 1 0 0
vn 0 0.017440137959012583 0.9998479092281839
vn -1 0 0
vn 0 0.9998477900163731 -0.01744697106590935
vn 0 -0.9998476686403415 0.017453925474636037
vn 0 0.9832540535125661 0.18224013348082232
vn 1 0 0
vn 0 -0.9832540535125661 -0.18224013348082232
vn -1 0 0
vn 0 -0.1822329924833447 0.9832553770260123
vn 0 0.1822329924833447 -0.9832553770260123
vn 0 0.948330706334778 0.31728358202494683
vn 1 0 0
vn 0 -0.9483307063347763 -0.3172835820249522
vn -1 0 0
vn 0 -0.31730651355733563 0.9483230338097292
vn 0 0.31730651355733597 -0.948323033809729
vn 0 -0.017439208002012107 -0.9998479254487967
vn 1 0 0
vn 0 0.017440137959012583 0.9998479092281839
vn -1 0 0
vn 0 0.9998477900163731 -0.01744697106590935
vn 0 -0.9998476686403415 0.017453925474636037
vn -0.3826788924660791 -0.016124338294167255 -0.9237406946624743
vn 0.9238803433720871 -0.006678871845823315 -0.3826231877468246
vn 0.3826844826530908 0.01612424629203114 0.9237383803967714
vn -0.9238814942993889 0.006678823351187852 0.3826204095572682
vn -3.388818239577882e-7 0.9998476196263187 -0.017456733012500582
vn -0.0000027220950043281057 -0.9998477485998325 0.017449344183560526
vn 0.11858031768927622 0.9631071701368171 0.24158494797433594
vn 0.9092612992976468 -0.007569422910641861 -0.41615693366367834
vn -0.118604958815766 -0.9630949974779779 -0.24162137649058343
vn -0.9092614603593323 0.007569531516216559 0.4161565797843878
vn 0.3989579950387624 -0.2690311908483977 0.8766155009725438
vn -0.39896262270749044 0.26903122939122637 -0.8766133830227587
vn -0.4162153138805415 -0.015556920135509135 -0.9091329906714529
vn 0.9092661118829021 -0.007553877452071411 -0.416146700956272
vn 0.4162153244957886 0.015583205392221633 0.9091325356429444
vn -0.9092661014998991 0.00758017348641681 0.4161462454871978
vn 0.00039857462594466536 0.9998499187992096 -0.01731996003118224
vn -0.00039867657049340684 -0.9998499180031704 0.017320003638740682
vn 0 0 -1
vn 1 0 0
vn 0 0 1
vn -1 0 0
vn 0 1 0
vn 0 -1 0
vn 0 0 -1
vn 1 0 0
vn 0 0 1
vn -1 0 0
vn 0 1 0
vn 0 -1 0
vn 0 0 -1
vn 1 0 0
vn 0 0 1
vn -1 0 0
vn 0 1 0
vn 0 -1 0
vn 0 0 -1
vn 1 0 0
vn 0 0 1
vn -1 0 0
vn 0 1 0
vn 0 -1 0
vn 1 0 0
vn 0 0 1
vn -1 0 0
vn 0 0 -1
vn 0 1 0
vn 0 -1 0
vn 1 0 0
vn 0 0 1
vn -1 0 0
vn 0 0 -1
vn 0 1 0
vn 0 -1 0
vn -0.13052756302786545 0 -0.991444680902574
vn 0.991444544601851 0 -0.13052859831940453
vn 0.13052756302786545 0 0.991444680902574
vn -0.991444544601851 0 0.13052859831940455
vn 0 1 0
vn 0 -1 0
vn 0.13052756302786545 0 -0.991444680902574
vn 0.991444544601851 0 0.13052859831940455
vn -0.13052756302786545 0 0.991444680902574
vn -0.991444544601851 0 -0.13052859831940453
vn 0 1 0
vn 0 -1 0
vn 0.13057040927903468 0 -0.991439039084454
vn 0.9914597411079396 0 0.13041311959376528
vn -0.13054969846863287 0 0.9914417664339894
vn -0.9914390390844534 0 -0.13057040927903935
vn 0 1 0
vn 0 -1 0
vn 0 0.06975970797866034 -0.9975638240948456
vn 0 0.9975632010767693 0.06976861656553945
vn 0 -0.06974909325302787 0.9975645663266016
vn 0 -0.9975639798120782 -0.06975748118651932
vn -1 0 0
vn 1 0 0
vn 0 0.06975970797866034 -0.9975638240948456
vn 0 0.9975632010767693 0.06976861656553945
vn 0 -0.06974909325302787 0.9975645663266016
vn 0 -0.9975639798120782 -0.06975748118651932
vn -1 0 0
vn 1 0 0
vn 0 0.07738577121843075 -0.9970012248803553
vn 1 0 0
vn 0 -0.07738577121843075 0.9970012248803553
vn -1 0 0
vn 0 0.9951674244563793 0.09819265400658346
vn 0 -0.9951674244563793 -0.09819265400658346
vn 0 0.07738577121843075 -0.9970012248803553
vn 1 0 0
vn 0 -0.07738577121843075 0.9970012248803553
vn -1 0 0
vn 0 0.9951674244563793 0.09819265400658346
vn 0 -0.9951674244563793 -0.09819265400658346
vn 0 0 -1
vn 0.707114781082249 -0.7070987812003376 0
vn 0 0 1
vn -0.7070987812003371 0.7071147810822496 0
vn 0.7071067811865472 0.7071067811865478 0
vn -0.7071067811865474 -0.7071067811865477 0
vn 0 0 -1
vn 0.707114781082249 -0.7070987812003376 0
vn 0 0 1
vn -0.7070987812003371 0.7071147810822496 0
vn 0.7071067811865472 0.7071067811865478 0
vn -0.7071067811865474 -0.7071067811865477 0
vn 0 0 -1
vn 0.707114781082249 -0.7070987812003378 0
vn 0 0 1
vn -0.7070987812003373 0.7071147810822495 0
vn 0.7071067811865471 0.707106781186548 0
vn -0.7071067811865475 -0.7071067811865476 0
vn 0 0 -1
vn 0.707114781082249 -0.7070987812003378 0
vn 0 0 1
vn -0.7070987812003373 0.7071147810822495 0
vn 0.7071067811865471 0.707106781186548 0
vn -0.7071067811865475 -0.7071067811865476 0
vn -0.0870201692569708 -0.06976055554653926 -0.9937610150495573
vn 0.9574830985227099 -0.28128212995990975 -0.06408181808100645
vn 0.08701976725396701 0.06976091006556917 0.9937610253646946
vn -0.957482706945059 0.2812824439372336 0.06408629052972008
vn 0.2750542064368034 0.95708691883139 -0.09126781099191943
vn -0.27505420643680334 -0.95708691883139 0.09126781099191948
vn -0.08701976725396715 -0.06976091006556914 -0.9937610253646946
vn 0.9574829595769664 -0.28128156488034023 -0.06408637435680609
vn 0.08701976725396698 0.06976091006556918 0.9937610253646946
vn -0.957482706945059 0.2812824439372336 0.06408629052972004
vn 0.27505420643680456 0.9570869188313894 -0.09126781099192297
vn -0.27505924875676635 -0.957083977728106 0.09128345550815682
vn 0.08702023191293538 -0.06976077356085233 -0.9937609942586851
vn 0.957482706945059 0.2812824439372336 0.06408629052972004
vn -0.08701976725396698 0.06976091006556918 0.9937610253646946
vn -0.9574829595769664 -0.28128156488034023 -0.06408637435680609
vn -0.2750542064368031 0.9570869188313897 -0.09126781099192288
vn 0.27505924875676635 -0.957083977728106 0.09128345550815682
vn 0.08701970459933206 -0.06976069205040286 -0.9937610461555101
vn 0.957482706945059 0.2812824439372336 0.06408629052972008
vn -0.08701976725396701 0.06976091006556917 0.9937610253646946
vn -0.9574830985227099 -0.28128212995990975 -0.06408181808100645
vn -0.2750542064368048 0.9570869188313895 -0.09126781099191958
vn 0.27505420643680334 -0.95708691883139 0.09126781099191948
usemtl m_53e3fb48-c94c-e499-ec33-111195c799a5
f 1/1/1 2/2/1 3/3/1
f 4/4/2 2/5/2 5/6/2
f 4/7/3 6/8/3 7/9/3
f 7/10/4 8/11/4 1/12/4
f 5/13/5 8/14/5 6/15/5
f 3/16/6 7/17/6 1/18/6
f 9/19/7 10/20/7 11/21/7
f 11/22/8 12/23/8 13/24/8
f 13/25/9 14/26/9 15/27/9
f 15/28/10 16/29/10 9/30/10
f 12/31/11 16/32/11 14/33/11
f 11/34/12 15/35/12 9/36/12
f 17/37/13 18/38/13 19/39/13
f 19/40/14 20/41/14 21/42/14
f 21/43/15 22/44/15 23/45/15
f 23/46/16 24/47/16 17/48/16
f 20/49/17 24/50/17 22/51/17
f 19/52/18 23/53/18 17/54/18
f 25/55/19 26/56/19 27/57/19
f 27/58/20 28/59/20 29/60/20
f 29/61/21 30/62/21 31/63/21
f 25/64/22 30/65/22 32/66/22
f 28/67/23 32/68/23 30/69/23
f 27/70/24 31/71/24 25/72/24
f 33/73/25 34/74/25 35/75/25
f 35/76/26 36/77/26 37/78/26
f 38/79/27 36/80/27 39/81/27
f 38/82/28 40/83/28 33/84/28
f 36/85/29 40/86/29 39/87/29
f 35/88/30 38/89/30 33/90/30
f 41/91/31 42/92/31 43/93/31
f 41/94/32 44/95/32 45/96/32
f 45/97/33 46/98/33 47/99/33
f 48/100/34 46/101/34 42/102/34
f 44/103/35 42/104/35 46/105/35
f 48/106/36 45/107/36 47/108/36
f 49/109/37 50/110/37 51/111/37
f 51/112/38 52/113/38 53/114/38
f 53/115/39 54/116/39 55/117/39
f 55/118/40 56/119/40 49/120/40
f 52/121/41 56/122/41 54/123/41
f 51/124/42 55/125/42 49/126/42
f 57/127/43 58/128/43 59/129/43
f 59/130/44 60/131/44 61/132/44
f 61/133/45 62/134/45 63/135/45
f 63/136/46 64/137/46 57/138/46
f 60/139/47 64/140/47 62/141/47
f 59/142/48 63/143/48 57/144/48
f 65/145/49 66/146/49 67/147/49
f 68/148/50 66/149/50 69/150/50
f 70/151/51 69/152/51 71/153/51
f 65/154/52 71/155/52 72/156/52
f 69/157/53 72/158/53 71/159/53
f 65/160/54 68/161/54 70/162/54
f 73/163/55 74/164/55 75/165/55
f 76/166/56 74/167/56 77/168/56
f 76/169/57 78/170/57 79/171/57
f 79/172/58 80/173/58 73/174/58
f 78/175/59 74/176/59 80/177/59
f 75/178/60 79/179/60 73/180/60
f 81/181/61 82/182/61 83/183/61
f 83/184/62 84/185/62 85/186/62
f 85/187/63 86/188/63 87/189/63
f 87/190/64 88/191/64 81/192/64
f 84/193/65 88/194/65 86/195/65
f 83/196/66 87/197/66 81/198/66
f 89/199/67 90/200/67 91/201/67
f 91/202/68 92/203/68 93/204/68
f 93/205/69 94/206/69 95/207/69
f 95/208/70 96/209/70 89/210/70
f 92/211/71 96/212/71 94/213/71
f 91/214/72 95/215/72 89/216/72
f 97/217/73 98/218/73 99/219/73
f 100/220/74 98/221/74 101/222/74
f 100/223/75 102/224/75 103/225/75
f 97/226/76 102/227/76 104/228/76
f 102/229/77 98/230/77 104/231/77
f 99/232/78 103/233/78 97/234/78
f 105/235/79 106/236/79 107/237/79
f 107/238/80 108/239/80 109/240/80
f 109/241/81 110/242/81 111/243/81
f 111/244/82 112/245/82 105/246/82
f 108/247/83 112/248/83 110/249/83
f 107/250/84 111/251/84 105/252/84
f 113/253/85 114/254/85 115/255/85
f 115/256/86 116/257/86 117/258/86
f 117/259/87 118/260/87 119/261/87
f 119/262/88 120/263/88 113/264/88
f 118/265/89 114/266/89 120/267/89
f 115/268/90 119/269/90 113/270/90
f 121/271/91 122/272/91 123/273/91
f 121/274/92 124/275/92 125/276/92
f 125/277/93 126/278/93 127/279/93
f 127/280/94 122/281/94 128/282/94
f 124/283/95 122/284/95 126/285/95
f 121/286/96 127/287/96 128/288/96
f 129/289/97 130/290/97 131/291/97
f 132/292/98 131/293/98 133/294/98
f 134/295/99 133/296/99 135/297/99
f 136/298/100 135/299/100 130/300/100
f 135/301/101 131/302/101 130/303/101
f 129/304/102 134/305/102 136/306/102
f 137/307/103 138/308/103 139/309/103
f 139/310/104 140/311/104 141/312/104
f 141/313/105 142/314/105 143/315/105
f 143/316/106 144/317/106 137/318/106
f 140/319/107 144/320/107 142/321/107
f 139/322/108 143/323/108 137/324/108
f 145/325/109 146/326/109 147/327/109
f 145/328/110 148/329/110 149/330/110
f 149/331/111 150/332/111 151/333/111
f 152/334/112 150/335/112 146/336/112
f 150/337/113 147/338/113 146/339/113
f 152/340/114 149/341/114 151/342/114
f 153/343/115 154/344/115 155/345/115
f 155/346/116 156/347/116 157/348/116
f 157/349/117 158/350/117 159/351/117
f 159/352/118 160/353/118 153/354/118
f 156/355/119 160/356/119 158/357/119
f 155/358/120 159/359/120 153/360/120
f 161/361/121 162/362/121 163/363/121
f 163/364/122 164/365/122 165/366/122
f 165/367/123 166/368/123 167/369/123
f 161/370/124 166/371/124 168/372/124
f 164/373/125 168/374/125 166/375/125
f 163/376/126 167/377/126 161/378/126
f 169/379/127 170/380/127 171/381/127
f 169/382/128 172/383/128 173/384/128
f 174/385/129 172/386/129 175/387/129
f 174/388/130 170/389/130 176/390/130
f 172/391/131 170/392/131 175/393/131
f 169/394/132 174/395/132 176/396/132
f 177/397/133 178/398/133 179/399/133
f 179/400/134 180/401/134 181/402/134
f 181/403/135 182/404/135 183/405/135
f 183/406/136 184/407/136 177/408/136
f 180/409/137 184/410/137 182/411/137
f 179/412/138 183/413/138 177/414/138
f 185/415/139 186/416/139 187/417/139
f 188/418/140 186/419/140 189/420/140
f 188/421/141 190/422/141 191/423/141
f 191/424/142 192/425/142 185/426/142
f 189/427/143 192/428/143 190/429/143
f 187/430/144 191/431/144 185/432/144
f 193/433/145 194/434/145 195/435/145
f 195/436/146 196/437/146 197/438/146
f 197/439/147 198/440/147 199/441/147
f 193/442/148 198/443/148 200/444/148
f 196/445/149 200/446/149 198/447/149
f 195/448/150 199/449/150 193/450/150
f 201/451/151 202/452/151 203/453/151
f 203/454/152 204/455/152 205/456/152
f 205/457/153 206/458/153 207/459/153
f 207/460/154 208/461/154 201/462/154
f 204/463/155 208/464/155 206/465/155
f 203/466/156 207/467/156 201/468/156
f 209/469/157 210/470/157 211/471/157
f 211/472/158 212/473/158 213/474/158
f 213/475/159 214/476/159 215/477/159
f 215/478/160 216/479/160 209/480/160
f 212/481/161 216/482/161 214/483/161
f 209/484/162 213/485/162 215/486/162
f 217/487/163 218/488/163 219/489/163
f 220/490/164 219/491/164 221/492/164
f 220/493/165 222/494/165 223/495/165
f 224/496/166 222/497/166 218/498/166
f 221/499/167 218/500/167 222/501/167
f 217/502/168 223/503/168 224/504/168
f 225/505/169 226/506/169 227/507/169
f 227/508/170 228/509/170 229/510/170
f 229/511/171 230/512/171 231/513/171
f 231/514/172 232/515/172 225/516/172
f 228/517/173 232/518/173 230/519/173
f 227/520/174 231/521/174 225/522/174
f 233/523/175 234/524/175 235/525/175
f 235/526/176 236/527/176 237/528/176
f 237/529/177 238/530/177 239/531/177
f 239/532/178 240/533/178 233/534/178
f 236/535/179 240/536/179 238/537/179
f 235/538/180 239/539/180 233/540/180
f 241/541/181 242/542/181 243/543/181
f 243/544/182 244/545/182 245/546/182
f 245/547/183 246/548/183 247/549/183
f 247/550/184 248/551/184 241/552/184
f 244/553/185 248/554/185 246/555/185
f 243/556/186 247/557/186 241/558/186
f 249/559/187 250/560/187 251/561/187
f 251/562/188 252/563/188 253/564/188
f 253/565/189 254/566/189 255/567/189
f 255/568/190 256/569/190 249/570/190
f 252/571/191 256/572/191 254/573/191
f 251/574/192 255/575/192 249/576/192
f 257/577/193 258/578/193 259/579/193
f 259/580/194 260/581/194 261/582/194
f 261/583/195 262/584/195 263/585/195
f 263/586/196 264/587/196 257/588/196
f 260/589/197 264/590/197 262/591/197
f 259/592/198 263/593/198 257/594/198
f 265/595/199 266/596/199 267/597/199
f 267/598/200 268/599/200 269/600/200
f 269/601/201 270/602/201 271/603/201
f 271/604/202 272/605/202 265/606/202
f 268/607/203 272/608/203 270/609/203
f 267/610/204 271/611/204 265/612/204
f 273/613/205 274/614/205 275/615/205
f 275/616/206 276/617/206 277/618/206
f 277/619/207 278/620/207 279/621/207
f 279/622/208 280/623/208 273/624/208
f 276/625/209 280/626/209 278/627/209
f 275/628/210 279/629/210 273/630/210
f 281/631/211 282/632/211 283/633/211
f 283/634/212 284/635/212 285/636/212
f 285/637/213 286/638/213 287/639/213
f 287/640/214 288/641/214 281/642/214
f 284/643/215 288/644/215 286/645/215
f 283/646/216 287/647/216 281/648/216
f 289/649/217 290/650/217 291/651/217
f 291/652/218 292/653/218 293/654/218
f 293/655/219 294/656/219 295/657/219
f 295/658/220 296/659/220 289/660/220
f 292/661/221 296/662/221 294/663/221
f 289/664/222 293/665/222 295/666/222
f 297/667/223 298/668/223 299/669/223
f 299/670/224 300/671/224 301/672/224
f 301/673/225 302/674/225 303/675/225
f 303/676/226 304/677/226 297/678/226
f 300/679/227 304/680/227 302/681/227
f 297/682/228 301/683/228 303/684/228
f 1/685/229 8/686/229 2/687/229
f 4/688/230 3/689/230 2/690/230
f 4/691/231 5/692/231 6/693/231
f 7/694/232 6/695/232 8/696/232
f 5/697/233 2/698/233 8/699/233
f 3/700/234 4/701/234 7/702/234
f 9/703/235 16/704/235 10/705/235
f 11/706/236 10/707/236 12/708/236
f 13/709/237 12/710/237 14/711/237
f 15/712/238 14/713/238 16/714/238
f 12/715/239 10/716/239 16/717/239
f 11/718/240 13/719/240 15/720/240
f 17/721/241 24/722/241 18/723/241
f 19/724/242 18/725/242 20/726/242
f 21/727/243 20/728/243 22/729/243
f 23/730/244 22/731/244 24/732/244
f 20/733/245 18/734/245 24/735/245
f 19/736/246 21/737/246 23/738/246
f 25/739/247 32/740/247 26/741/247
f 27/742/248 26/743/248 28/744/248
f 29/745/249 28/746/249 30/747/249
f 25/748/250 31/749/250 30/750/250
f 28/751/251 26/752/251 32/753/251
f 27/754/252 29/755/252 31/756/252
f 33/757/253 40/758/253 34/759/253
f 35/760/254 34/761/254 36/762/254
f 38/763/255 37/764/255 36/765/255
f 38/766/256 39/767/256 40/768/256
f 36/769/257 34/770/257 40/771/257
f 35/772/258 37/773/258 38/774/258
f 41/775/259 48/776/259 42/777/259
f 41/778/260 43/779/260 44/780/260
f 45/781/261 44/782/261 46/783/261
f 48/784/262 47/785/262 46/786/262
f 44/787/263 43/788/263 42/789/263
f 48/790/264 41/791/264 45/792/264
f 49/793/265 56/794/265 50/795/265
f 51/796/266 50/797/266 52/798/266
f 53/799/267 52/800/267 54/801/267
f 55/802/268 54/803/268 56/804/268
f 52/805/269 50/806/269 56/807/269
f 51/808/270 53/809/270 55/810/270
f 57/811/271 64/812/271 58/813/271
f 59/814/272 58/815/272 60/816/272
f 61/817/273 60/818/273 62/819/273
f 63/820/274 62/821/274 64/822/274
f 60/823/275 58/824/275 64/825/275
f 59/826/276 61/827/276 63/828/276
f 65/829/277 72/830/277 66/831/277
f 68/832/278 67/833/278 66/834/278
f 70/835/279 68/836/279 69/837/279
f 65/838/280 70/839/280 71/840/280
f 69/841/281 66/842/281 72/843/281
f 65/844/282 67/845/282 68/846/282
f 73/847/283 80/848/283 74/849/283
f 76/850/284 75/851/284 74/852/284
f 76/853/285 77/854/285 78/855/285
f 79/856/286 78/857/286 80/858/286
f 78/859/287 77/860/287 74/861/287
f 75/862/288 76/863/288 79/864/288
f 81/865/289 88/866/289 82/867/289
f 83/868/290 82/869/290 84/870/290
f 85/871/291 84/872/291 86/873/291
f 87/874/292 86/875/292 88/876/292
f 84/877/293 82/878/293 88/879/293
f 83/880/294 85/881/294 87/882/294
f 89/883/295 96/884/295 90/885/295
f 91/886/296 90/887/296 92/888/296
f 93/889/297 92/890/297 94/891/297
f 95/892/298 94/893/298 96/894/298
f 92/895/299 90/896/299 96/897/299
f 91/898/300 93/899/300 95/900/300
f 97/901/301 104/902/301 98/903/301
f 100/904/302 99/905/302 98/906/302
f 100/907/303 101/908/303 102/909/303
f 97/910/304 103/911/304 102/912/304
f 102/913/305 101/914/305 98/915/305
f 99/916/306 100/917/306 103/918/306
f 105/919/307 112/920/307 106/921/307
f 107/922/308 106/923/308 108/924/308
f 109/925/309 108/926/309 110/927/309
f 111/928/310 110/929/310 112/930/310
f 108/931/311 106/932/311 112/933/311
f 107/934/312 109/935/312 111/936/312
f 113/937/313 120/938/313 114/939/313
f 115/940/314 114/941/314 116/942/314
f 117/943/315 116/944/315 118/945/315
f 119/946/316 118/947/316 120/948/316
f 118/949/317 116/950/317 114/951/317
f 115/952/318 117/953/318 119/954/318
f 121/955/319 128/956/319 122/957/319
f 121/958/320 123/959/320 124/960/320
f 125/961/321 124/962/321 126/963/321
f 127/964/322 126/965/322 122/966/322
f 124/967/323 123/968/323 122/969/323
f 121/970/324 125/971/324 127/972/324
f 129/973/325 136/974/325 130/975/325
f 132/976/326 129/977/326 131/978/326
f 134/979/327 132/980/327 133/981/327
f 136/982/328 134/983/328 135/984/328
f 135/985/329 133/986/329 131/987/329
f 129/988/330 132/989/330 134/990/330
f 137/991/331 144/992/331 138/993/331
f 139/994/332 138/995/332 140/996/332
f 141/997/333 140/998/333 142/999/333
f 143/1000/334 142/1001/334 144/1002/334
f 140/1003/335 138/1004/335 144/1005/335
f 139/1006/336 141/1007/336 143/1008/336
f 145/1009/337 152/1010/337 146/1011/337
f 145/1012/338 147/1013/338 148/1014/338
f 149/1015/339 148/1016/339 150/1017/339
f 152/1018/340 151/1019/340 150/1020/340
f 150/1021/341 148/1022/341 147/1023/341
f 152/1024/342 145/1025/342 149/1026/342
f 153/1027/343 160/1028/343 154/1029/343
f 155/1030/344 154/1031/344 156/1032/344
f 157/1033/345 156/1034/345 158/1035/345
f 159/1036/346 158/1037/346 160/1038/346
f 156/1039/347 154/1040/347 160/1041/347
f 155/1042/348 157/1043/348 159/1044/348
f 161/1045/349 168/1046/349 162/1047/349
f 163/1048/350 162/1049/350 164/1050/350
f 165/1051/351 164/1052/351 166/1053/351
f 161/1054/352 167/1055/352 166/1056/352
f 164/1057/353 162/1058/353 168/1059/353
f 163/1060/354 165/1061/354 167/1062/354
f 169/1063/355 176/1064/355 170/1065/355
f 169/1066/356 171/1067/356 172/1068/356
f 174/1069/357 173/1070/357 172/1071/357
f 174/1072/358 175/1073/358 170/1074/358
f 172/1075/359 171/1076/359 170/1077/359
f 169/1078/360 173/1079/360 174/1080/360
f 177/1081/361 184/1082/361 178/1083/361
f 179/1084/362 178/1085/362 180/1086/362
f 181/1087/363 180/1088/363 182/1089/363
f 183/1090/364 182/1091/364 184/1092/364
f 180/1093/365 178/1094/365 184/1095/365
f 179/1096/366 181/1097/366 183/1098/366
f 185/1099/367 192/1100/367 186/1101/367
f 188/1102/368 187/1103/368 186/1104/368
f 188/1105/369 189/1106/369 190/1107/369
f 191/1108/370 190/1109/370 192/1110/370
f 189/1111/371 186/1112/371 192/1113/371
f 187/1114/372 188/1115/372 191/1116/372
f 193/1117/373 200/1118/373 194/1119/373
f 195/1120/374 194/1121/374 196/1122/374
f 197/1123/375 196/1124/375 198/1125/375
f 193/1126/376 199/1127/376 198/1128/376
f 196/1129/377 194/1130/377 200/1131/377
f 195/1132/378 197/1133/378 199/1134/378
f 201/1135/379 208/1136/379 202/1137/379
f 203/1138/380 202/1139/380 204/1140/380
f 205/1141/381 204/1142/381 206/1143/381
f 207/1144/382 206/1145/382 208/1146/382
f 204/1147/383 202/1148/383 208/1149/383
f 203/1150/384 205/1151/384 207/1152/384
f 209/1153/385 216/1154/385 210/1155/385
f 211/1156/386 210/1157/386 212/1158/386
f 213/1159/387 212/1160/387 214/1161/387
f 215/1162/388 214/1163/388 216/1164/388
f 212/1165/389 210/1166/389 216/1167/389
f 209/1168/390 211/1169/390 213/1170/390
f 217/1171/391 224/1172/391 218/1173/391
f 220/1174/392 217/1175/392 219/1176/392
f 220/1177/393 221/1178/393 222/1179/393
f 224/1180/394 223/1181/394 222/1182/394
f 221/1183/395 219/1184/395 218/1185/395
f 217/1186/396 220/1187/396 223/1188/396
f 225/1189/397 232/1190/397 226/1191/397
f 227/1192/398 226/1193/398 228/1194/398
f 229/1195/399 228/1196/399 230/1197/399
f 231/1198/400 230/1199/400 232/1200/400
f 228/1201/401 226/1202/401 232/1203/401
f 227/1204/402 229/1205/402 231/1206/402
f 233/1207/403 240/1208/403 234/1209/403
f 235/1210/404 234/1211/404 236/1212/404
f 237/1213/405 236/1214/405 238/1215/405
f 239/1216/406 238/1217/406 240/1218/406
f 236/1219/407 234/1220/407 240/1221/407
f 235/1222/408 237/1223/408 239/1224/408
f 241/1225/409 248/1226/409 242/1227/409
f 243/1228/410 242/1229/410 244/1230/410
f 245/1231/411 244/1232/411 246/1233/411
f 247/1234/412 246/1235/412 248/1236/412
f 244/1237/413 242/1238/413 248/1239/413
f 243/1240/414 245/1241/414 247/1242/414
f 249/1243/415 256/1244/415 250/1245/415
f 251/1246/416 250/1247/416 252/1248/416
f 253/1249/417 252/1250/417 254/1251/417
f 255/1252/418 254/1253/418 256/1254/418
f 252/1255/419 250/1256/419 256/1257/419
f 251/1258/420 253/1259/420 255/1260/420
f 257/1261/421 264/1262/421 258/1263/421
f 259/1264/422 258/1265/422 260/1266/422
f 261/1267/423 260/1268/423 262/1269/423
f 263/1270/424 262/1271/424 264/1272/424
f 260/1273/425 258/1274/425 264/1275/425
f 259/1276/426 261/1277/426 263/1278/426
f 265/1279/427 272/1280/427 266/1281/427
f 267/1282/428 266/1283/428 268/1284/428
f 269/1285/429 268/1286/429 270/1287/429
f 271/1288/430 270/1289/430 272/1290/430
f 268/1291/431 266/1292/431 272/1293/431
f 267/1294/432 269/1295/432 271/1296/432
f 273/1297/433 280/1298/433 274/1299/433
f 275/1300/434 274/1301/434 276/1302/434
f 277/1303/435 276/1304/435 278/1305/435
f 279/1306/436 278/1307/436 280/1308/436
f 276/1309/437 274/1310/437 280/1311/437
f 275/1312/438 277/1313/438 279/1314/438
f 281/1315/439 288/1316/439 282/1317/439
f 283/1318/440 282/1319/440 284/1320/440
f 285/1321/441 284/1322/441 286/1323/441
f 287/1324/442 286/1325/442 288/1326/442
f 284/1327/443 282/1328/443 288/1329/443
f 283/1330/444 285/1331/444 287/1332/444
f 289/1333/445 296/1334/445 290/1335/445
f 291/1336/446 290/1337/446 292/1338/446
f 293/1339/447 292/1340/447 294/1341/447
f 295/1342/448 294/1343/448 296/1344/448
f 292/1345/449 290/1346/449 296/1347/449
f 289/1348/450 291/1349/450 293/1350/450
f 297/1351/451 304/1352/451 298/1353/451
f 299/1354/452 298/1355/452 300/1356/452
f 301/1357/453 300/1358/453 302/1359/453
f 303/1360/454 302/1361/454 304/1362/454
f 300/1363/455 298/1364/455 304/1365/455
f 297/1366/456 299/1367/456 301/1368/456
f 305/1369/457 306/1370/457 307/1371/457
f 307/1372/458 308/1373/458 309/1374/458
f 309/1375/459 310/1376/459 311/1377/459
f 311/1378/460 312/1379/460 305/1380/460
f 308/1381/461 312/1382/461 310/1383/461
f 305/1384/462 309/1385/462 311/1386/462
f 305/1387/463 312/1388/463 306/1389/463
f 307/1390/464 306/1391/464 308/1392/464
f 309/1393/465 308/1394/465 310/1395/465
f 311/1396/466 310/1397/466 312/1398/466
f 308/1399/467 306/1400/467 312/1401/467
f 305/1402/468 307/1403/468 309/1404/468
f 313/1405/469 314/1406/469 315/1407/469
f 315/1408/470 316/1409/470 317/1410/470
f 317/1411/471 318/1412/471 319/1413/471
f 313/1414/472 318/1415/472 320/1416/472
f 316/1417/473 320/1418/473 318/1419/473
f 315/1420/474 319/1421/474 313/1422/474
f 313/1423/475 320/1424/475 314/1425/475
f 315/1426/476 314/1427/476 316/1428/476
f 317/1429/477 316/1430/477 318/1431/477
f 313/1432/478 319/1433/478 318/1434/478
f 316/1435/479 314/1436/479 320/1437/479
f 315/1438/480 317/1439/480 319/1440/480
f 321/1441/481 322/1442/481 323/1443/481
f 321/1444/482 324/1445/482 325/1446/482
f 325/1447/483 326/1448/483 327/1449/483
f 327/1450/484 322/1451/484 328/1452/484
f 324/1453/485 322/1454/485 326/1455/485
f 321/1456/486 327/1457/486 328/1458/486
f 321/1459/487 328/1460/487 322/1461/487
f 321/1462/488 323/1463/488 324/1464/488
f 325/1465/489 324/1466/489 326/1467/489
f 327/1468/490 326/1469/490 322/1470/490
f 324/1471/491 323/1472/491 322/1473/491
f 321/1474/492 325/1475/492 327/1476/492
f 329/1477/493 330/1478/493 331/1479/493
f 329/1480/494 332/1481/494 333/1482/494
f 333/1483/495 334/1484/495 335/1485/495
f 335/1486/496 330/1487/496 336/1488/496
f 332/1489/497 330/1490/497 334/1491/497
f 329/1492/498 335/1493/498 336/1494/498
f 329/1495/499 336/1496/499 330/1497/499
f 329/1498/500 331/1499/500 332/1500/500
f 333/1501/501 332/1502/501 334/1503/501
f 335/1504/502 334/1505/502 330/1506/502
f 332/1507/503 331/1508/503 330/1509/503
f 329/1510/504 333/1511/504 335/1512/504
f 337/1513/505 338/1514/505 339/1515/505
f 339/1516/506 340/1517/506 341/1518/506
f 342/1519/507 340/1520/507 343/1521/507
f 342/1522/508 344/1523/508 337/1524/508
f 340/1525/509 344/1526/509 343/1527/509
f 337/1528/510 341/1529/510 342/1530/510
f 337/1531/511 344/1532/511 338/1533/511
f 339/1534/512 338/1535/512 340/1536/512
f 342/1537/513 341/1538/513 340/1539/513
f 342/1540/514 343/1541/514 344/1542/514
f 340/1543/515 338/1544/515 344/1545/515
f 337/1546/516 339/1547/516 341/1548/516
f 345/1549/517 346/1550/517 347/1551/517
f 348/1552/518 346/1553/518 349/1554/518
f 348/1555/519 350/1556/519 351/1557/519
f 345/1558/520 350/1559/520 352/1560/520
f 349/1561/521 352/1562/521 350/1563/521
f 347/1564/522 351/1565/522 345/1566/522
f 345/1567/523 352/1568/523 346/1569/523
f 348/1570/524 347/1571/524 346/1572/524
f 348/1573/525 349/1574/525 350/1575/525
f 345/1576/526 351/1577/526 350/1578/526
f 349/1579/527 346/1580/527 352/1581/527
f 347/1582/528 348/1583/528 351/1584/528
