# Made in Blockbench 5.2.1
mtllib ukrainian.mtl

o cube
v 0.1317729862703573 1.4603983842658532 -0.11391434090859677
v 0.14350557114837462 1.482056293556446 -0.18475417022262444
v 0.14350557114837462 1.2429801045656872 -0.2578470964033086
v 0.13177298627035733 1.2213221952750943 -0.18700726708928095
v 0.2731396658514864 1.4760533108336633 -0.16511929846509552
v 0.26140708097346915 1.4543954015430705 -0.09427946915106786
v 0.26140708097346915 1.2153192125523116 -0.16737239533175202
v 0.27309662379966027 1.243431232506437 -0.23839468663572666
v -0.1435055711483747 1.2429801045656872 -0.2578470964033085
v -0.1435055711483747 1.482056293556446 -0.1847541702226244
v -0.13177298627035733 1.4603983842658532 -0.11391434090859665
v -0.13177298627035738 1.2213221952750943 -0.18700726708928084
v -0.2614070809734692 1.2153192125523113 -0.16737239533175188
v -0.2614070809734692 1.4543954015430705 -0.09427946915106769
v -0.2731396658514865 1.4760533108336633 -0.16511929846509538
v -0.2730966237996604 1.243431232506437 -0.2383946866357265
v 0.25 1.4964991823015024 -0.15456159345544968
v 0.25 1.3616651570856628 -0.19450125130443888
v 0.25 1.37054063660766 -0.22446436801906985
v 0.25 1.5053746618234998 -0.1845247101700807
v -0.2500000000000001 1.37054063660766 -0.22446436801906983
v -0.25000000000000006 1.3616651570856628 -0.19450125130443882
v -0.25000000000000006 1.4964991823015024 -0.15456159345544965
v -0.25000000000000006 1.5053746618234998 -0.18452471017008076
v 0.14375 0.868431875 -0.25776
v 0.14375000000000002 1.243431875 -0.25776
v 0.14375000000000002 1.2434318749999997 -0.18275999999999998
v 0.14375000000000002 0.868431875 -0.18275999999999998
v -0.14375 0.868431875 -0.18275999999999995
v -0.14375000000000004 1.243431875 -0.18275999999999995
v -0.14375000000000004 1.243431875 -0.25775999999999993
v -0.14375000000000004 0.868431875 -0.25776
v 0.14375000000000002 1.2429750442113707 -0.25782827381880763
v 0.14375 1.4820512332021296 -0.18473534763812346
v 0.14375 1.4601233553479243 -0.11301249094089579
v 0.14375 1.2210471663571654 -0.18610541712158002
v -0.14375 1.2210471663571654 -0.18610541712158002
v -0.14375 1.4601233553479243 -0.11301249094089576
v -0.14375000000000004 1.4820512332021296 -0.18473534763812344
v -0.14375000000000004 1.2429750442113707 -0.2578282738188076
v -0.14328809559021993 0.8684318749999999 -0.257794325426994
v -0.14328809559022 1.2434318749999997 -0.257794325426994
v -0.1322023897554992 1.2434318749999997 -0.18361813567485022
v -0.1322023897554992 0.8684318749999999 -0.18361813567485022
v -0.2620107218217508 0.8684318749999999 -0.16421815046408883
v -0.2620107218217508 1.243431875 -0.16421815046408877
v -0.2730964276564716 1.243431875 -0.23839434021623246
v -0.2730964276564716 0.8684318749999999 -0.23839434021623251
v 0.2730964276564716 0.8684318749999999 -0.23839434021623251
v 0.2730964276564716 1.243431875 -0.23839434021623246
v 0.2620107218217508 1.243431875 -0.16421815046408872
v 0.2620107218217508 0.868431875 -0.1642181504640888
v 0.13220238975549917 0.8684318749999997 -0.18361813567485016
v 0.13220238975549917 1.2434318749999997 -0.1836181356748502
v 0.14328809559021996 1.2434318749999997 -0.25779432542699393
v 0.14328809559021996 0.8684318749999999 -0.25779432542699393
v -0.3196252478256498 1.1555124131331702 0.0514145790509985
v -0.2840207120661468 1.15837664750849 0.17120236304750425
v -0.2420831550023675 1.1581960376146454 0.15874157705349512
v -0.27768769076187044 1.1553318032393252 0.038953793056989316
v -0.27694875976614813 0.8679097389410759 0.045606682317807096
v -0.24134422400664518 0.8707739733163959 0.16539446631431293
v -0.28328178107042457 0.8709545832102408 0.177855252308322
v -0.3188863168299275 0.8680903488349209 0.05806746831181628
v -0.27177573985099207 1.1496023753782667 -0.21019489016998366
v -0.32223576099779044 1.1555071482701869 0.05052634131675121
v -0.27928257602579537 1.1558098291717922 0.058832651269635494
v -0.228822554878997 1.1499050562798723 -0.2018885802170994
v -0.22808362414994682 0.8624829830185231 -0.19523607816708827
v -0.2785436452967453 0.868387755910443 0.0654851533196466
v -0.3214968302687404 0.8680850750088376 0.057178843366762266
v -0.27103680912194184 0.8621803021169178 -0.20354238811997252
v 0.3188863168299274 0.8680903488349208 0.05806746831181628
v 0.2832817810704245 0.8709545832102408 0.177855252308322
v 0.24134422400664512 0.870773973316396 0.16539446631431287
v 0.2769487597661481 0.8679097389410758 0.045606682317807096
v 0.27768769076187033 1.1553318032393252 0.038953793056989344
v 0.24208315500236738 1.1581960376146454 0.15874157705349512
v 0.28402071206614676 1.15837664750849 0.17120236304750425
v 0.3196252478256497 1.1555124131331702 0.0514145790509985
v 0.2710368091219417 0.8621803021169177 -0.20354238811997252
v 0.3214968302687402 0.8680850750088376 0.05717884336676224
v 0.27854364529674513 0.8683877559104429 0.06548515331964655
v 0.22808362414994676 0.862482983018523 -0.1952360781670882
v 0.22882255487899694 1.1499050562798723 -0.20188858021709943
v 0.2792825760257953 1.1558098291717922 0.05883265126963552
v 0.3222357609977904 1.1555071482701869 0.05052634131675118
v 0.27177573985099196 1.1496023753782667 -0.21019489016998358
v 0.26875000000000004 0.8684318749999997 0.12026000000000014
v 0.26875000000000004 1.2434318749999997 0.12026000000000014
v 0.26875 1.243431875 0.1952600000000001
v 0.26875 0.8684318749999997 0.19526000000000004
v -0.26875000000000004 0.8684318749999999 0.19526000000000004
v -0.26875 1.243431875 0.1952600000000001
v -0.26875000000000004 1.2434318749999997 0.12026000000000014
v -0.26875000000000004 0.8684318749999999 0.12026000000000009
v 0.26874999999999993 1.2341012533955433 0.12083068526496138
v 0.26874999999999993 1.4822377913058737 0.09036334941367452
v 0.26874999999999993 1.49137799206126 0.1648043107867737
v 0.26874999999999993 1.2432414541509293 0.19527164663806057
v -0.26875000000000004 1.2432414541509293 0.19527164663806057
v -0.26875000000000004 1.49137799206126 0.16480431078677377
v -0.26875000000000004 1.4822377913058737 0.09036334941367452
v -0.26875000000000004 1.2341012533955433 0.12083068526496143
v -0.18814436194431255 1.5539919477016475 0.16084545758062035
v -0.11155463348873335 1.3160208629835142 0.1627887365558956
v -0.11238994094414939 1.31539486161908 0.11905119108582313
v -0.18897966939972854 1.5533659463372136 0.11710791211054794
v -0.34363491424344694 1.5036209115476649 0.12077353021888287
v -0.26704518578786773 1.2656498268295315 0.12271680919415812
v -0.2662098783324516 1.2662758281939654 0.16645435466423064
v -0.34279960678803084 1.5042469129120988 0.16451107568895534
v -0.05604943457035169 1.2211712869679712 -0.20915062450390834
v -0.2105875487783842 1.5913347963906812 -0.14483880561430923
v -0.20792582112001695 1.584940800613956 -0.10164048939851332
v -0.05338770691198452 1.2147772911912462 -0.16595230828811242
v -0.20334564821451806 1.1521764512182204 -0.16597828861671132
v -0.35788376242255054 1.5223399606409302 -0.10166646972711223
v -0.3605454900809177 1.5287339564176552 -0.14486478594290822
v -0.20600737587288526 1.1585704469949454 -0.20917660483250733
v -0.2088982818980883 1.6011141748561513 -0.12439722480624746
v -0.20773826807992235 1.6124517184045286 0.07840780496182886
v -0.19431139964728145 1.5708737174246865 0.08065536777803783
v -0.19547141346544744 1.5595361738763092 -0.12214966199003849
v -0.3501266741323357 1.509791181908313 -0.118484130355904
v -0.34896666031416973 1.5211287254566903 0.0843208994121723
v -0.3623935287468106 1.5627067264365324 0.08207333659596339
v -0.3635535425649766 1.5513691828881553 -0.12073169317211288
v -0.20719191165650325 1.6048705602552609 0.04767439447847133
v -0.18884480148856964 1.5562061172870958 0.16134125657593545
v -0.17705036467267016 1.5181984303026255 0.14316518741106188
v -0.19539747484060377 1.5668628732707903 0.029498325313597695
v -0.35005268936121736 1.5171177428388947 0.0331639248411974
v -0.33170557919328375 1.46845329987073 0.1468307869386617
v -0.3435000160091832 1.5064609868552006 0.16500685610353527
v -0.36184712617711684 1.5551254298233652 0.05133999400607109
v 0.3618471261771167 1.5551254298233652 0.051339994006071116
v 0.343500016009183 1.5064609868552006 0.16500685610353533
v 0.33170557919328353 1.46845329987073 0.1468307869386617
v 0.35005268936121714 1.5171177428388947 0.0331639248411974
v 0.19539747484060366 1.5668628732707903 0.029498325313597695
v 0.17705036467267002 1.5181984303026255 0.14316518741106193
v 0.1888448014885695 1.5562061172870958 0.16134125657593545
v 0.20719191165650308 1.6048705602552609 0.047674394478471355
v 0.34279960678803073 1.5042469129120988 0.1645110756889554
v 0.2662098783324516 1.2662758281939654 0.16645435466423064
v 0.2670451857878676 1.2656498268295315 0.12271680919415806
v 0.3436349142434468 1.5036209115476649 0.12077353021888287
v 0.1889796693997285 1.5533659463372136 0.11710791211054788
v 0.1123899409441493 1.31539486161908 0.11905119108582313
v 0.11155463348873325 1.3160208629835142 0.1627887365558956
v 0.18814436194431244 1.5539919477016475 0.1608454575806203
v 0.3635535425649764 1.5513691828881553 -0.12073169317211288
v 0.3623935287468105 1.5627067264365324 0.08207333659596339
v 0.3489666603141697 1.5211287254566903 0.0843208994121723
v 0.35012667413233556 1.509791181908313 -0.11848413035590398
v 0.19547141346544727 1.5595361738763092 -0.12214966199003845
v 0.19431139964728134 1.5708737174246865 0.08065536777803783
v 0.20773826807992227 1.6124517184045286 0.07840780496182892
v 0.20889828189808818 1.6011141748561513 -0.1243972248062474
v 0.2060073758728851 1.1585704469949454 -0.20917660483250733
v 0.36054549008091763 1.5287339564176552 -0.14486478594290822
v 0.35788376242255043 1.5223399606409302 -0.1016664697271122
v 0.20334564821451795 1.1521764512182204 -0.16597828861671132
v 0.05338770691198445 1.2147772911912462 -0.1659523082881124
v 0.2079258211200169 1.584940800613956 -0.10164048939851329
v 0.21058754877838404 1.5913347963906812 -0.14483880561430923
v 0.05604943457035161 1.2211712869679712 -0.2091506245039083
v -0.17457394386367214 1.4322631862858342 -0.1718224999999999
v -0.20874310489344977 1.6166234814540759 -0.17182249999999985
v -0.16572570268752673 1.6245962856943572 -0.17182249999999982
v -0.1315565416577491 1.440235990526116 -0.17182249999999977
v -0.13155654165774916 1.440235990526116 0.17817750000000016
v -0.1657257026875268 1.624596285694357 0.1781775000000001
v -0.20874310489344977 1.6166234814540759 0.1781775000000002
v -0.17457394386367214 1.4322631862858344 0.1781775000000001
v 0.17457394386367214 1.4322631862858344 0.1781775000000001
v 0.20874310489344974 1.6166234814540759 0.1781775000000002
v 0.1657257026875267 1.624596285694357 0.1781775000000001
v 0.1315565416577491 1.440235990526116 0.1781775000000001
v 0.1315565416577491 1.440235990526116 -0.17182249999999982
v 0.1657257026875267 1.6245962856943572 -0.17182249999999985
v 0.2087431048934497 1.6166234814540759 -0.17182249999999982
v 0.1745739438636721 1.4322631862858342 -0.1718224999999999
v 0.175 1.4322631862858342 -0.17139644386367206
v 0.17499999999999996 1.6166234814540759 -0.20556560489344955
v 0.175 1.6245962856943572 -0.1625482026875266
v 0.17499999999999996 1.4402359905261157 -0.12837904165774888
v -0.17500000000000004 1.4402359905261157 -0.12837904165774897
v -0.175 1.6245962856943572 -0.16254820268752665
v -0.17500000000000004 1.6166234814540759 -0.2055656048934496
v -0.17500000000000004 1.4322631862858342 -0.17139644386367203
v 0.175 1.4402359905261157 0.12837904165774927
v 0.175 1.6245962856943572 0.1625482026875269
v 0.175 1.6166234814540759 0.20556560489344994
v 0.175 1.4322631862858344 0.17139644386367225
v -0.175 1.4322631862858344 0.17139644386367225
v -0.1750000000000001 1.6166234814540759 0.20556560489344983
v -0.17500000000000004 1.6245962856943572 0.1625482026875269
v -0.17500000000000004 1.4402359905261157 0.12837904165774927
v -0.21250000000000002 0.7513380659743887 -0.19428181975450826
v -0.21250000000000008 0.8756533028954228 -0.18121576184605157
v -0.21250000000000008 0.8710801826274629 -0.13770542892368967
v -0.21250000000000008 0.7467649457064287 -0.1507714868321463
v -0.25000000000000006 0.7467649457064288 -0.15077148683214636
v -0.25000000000000006 0.8710801826274629 -0.13770542892368964
v -0.25000000000000006 0.8756533028954226 -0.1812157618460516
v -0.25000000000000006 0.7513380659743887 -0.19428181975450826
v -0.08125000000000002 0.667800963280075 -0.19701348546998781
v -0.08125000000000004 0.8732661197614975 -0.1790376135282833
v -0.08125000000000004 0.8721766729771516 -0.1665851798021365
v -0.08125000000000002 0.6667115164957291 -0.18456105174384108
v -0.21250000000000002 0.6667115164957291 -0.18456105174384108
v -0.21250000000000008 0.8721766729771516 -0.16658517980213652
v -0.21250000000000002 0.8732661197614975 -0.1790376135282833
v -0.21250000000000008 0.667800963280075 -0.19701348546998776
v -0.16656768364940877 0.6463295149705962 -0.20713754083783298
v -0.21440311269504497 0.7606905650218232 -0.19106514340619157
v -0.21440311269504497 0.7546017418548203 -0.1477409153987479
v -0.16656768364940872 0.6402406918035934 -0.16381331283038936
v -0.20121316611858198 0.6260297224220593 -0.16581053432920023
v -0.24904859516421823 0.7403907724732864 -0.14973813689755888
v -0.24904859516421823 0.7464795956402893 -0.1930623649050025
v -0.20121316611858203 0.6321185455890622 -0.20913476233664396
v -0.08723974107062862 0.5717836410083027 -0.21761428018811302
v -0.17562808871894708 0.6593117993332616 -0.20531299975716027
v -0.17562808871894703 0.6532229761662587 -0.1619887717497166
v -0.08723974107062862 0.5656948178412998 -0.17429005218066934
v -0.11375624536512413 0.5394363703438121 -0.1779804363099552
v -0.20214459301344256 0.6269645286687711 -0.1656791558790024
v -0.20214459301344256 0.6330533518357739 -0.20900338388644601
v -0.11375624536512413 0.545525193510815 -0.22130466431739887
v -0.08396893026590263 0.5658131533806713 -0.1996623886693768
v -0.03093592167691145 0.6186443553608784 -0.19504025741566033
v -0.03093592167691142 0.6180996319687055 -0.188814040552587
v -0.08396893026590263 0.5652684299884985 -0.1934361718063034
v -0.1856155300614688 0.6665282337838951 -0.1845770869033468
v -0.13258252147247762 0.7193594357641021 -0.17995495564963038
v -0.13258252147247768 0.719904159156275 -0.18618117251270375
v -0.1856155300614688 0.6670729571760677 -0.19080330376642024
v 0.012243115952813827 0.5315414676981498 -0.22326994881536022
v -0.10324182561109696 0.5789113656365965 -0.21661254381932382
v -0.10324182561109702 0.5728225424695936 -0.1732883158118801
v 0.012243115952813854 0.525452644531147 -0.1799457208079166
v -0.002107512760877034 0.4911443295157789 -0.18476744003740897
v -0.11759245432478788 0.5385142274542255 -0.17811003504137257
v -0.11759245432478788 0.5446030506212284 -0.2214342630488163
v -0.002107512760877006 0.4972331526827818 -0.2280916680448526
v 0.08124999999999999 0.5308241922924601 -0.20899740009779075
v 0.08124999999999999 0.8732661197614976 -0.17903761352828326
v 0.08124999999999999 0.8721766729771517 -0.16658517980213647
v 0.08124999999999999 0.5297347455081142 -0.1965449663716441
v -0.08125000000000004 0.5297347455081142 -0.19654496637164404
v -0.08125000000000004 0.8721766729771516 -0.1665851798021365
v -0.08125000000000004 0.8732661197614975 -0.1790376135282833
v -0.08125000000000002 0.5308241922924601 -0.20899740009779078
v 0.002107512760877006 0.4972331526827818 -0.2280916680448526
v 0.11759245432478783 0.5446030506212284 -0.22143426304881625
v 0.1175924543247878 0.5385142274542254 -0.17811003504137257
v 0.0021075127608769784 0.4911443295157789 -0.18476744003740903
v -0.012243115952813882 0.5254526445311469 -0.17994572080791654
v 0.10324182561109696 0.5728225424695937 -0.1732883158118802
v 0.10324182561109695 0.5789113656365965 -0.21661254381932382
v -0.012243115952813854 0.5315414676981498 -0.2232699488153602
v 0.1137562453651241 0.5455251935108149 -0.22130466431739884
v 0.20214459301344254 0.6330533518357739 -0.20900338388644601
v 0.2021445930134425 0.6269645286687711 -0.16567915587900234
v 0.1137562453651241 0.539436370343812 -0.1779804363099552
v 0.0872397410706286 0.5656948178412999 -0.17429005218066929
v 0.17562808871894703 0.6532229761662587 -0.16198877174971663
v 0.17562808871894703 0.6593117993332615 -0.20531299975716027
v 0.08723974107062858 0.5717836410083027 -0.21761428018811294
v 0.1856155300614688 0.6670729571760678 -0.19080330376642024
v 0.13258252147247762 0.7199041591562749 -0.18618117251270372
v 0.13258252147247762 0.7193594357641021 -0.17995495564963032
v 0.1856155300614688 0.6665282337838951 -0.1845770869033468
v 0.08396893026590262 0.5652684299884985 -0.19343617180630335
v 0.030935921676911407 0.6180996319687055 -0.188814040552587
v 0.030935921676911407 0.6186443553608784 -0.1950402574156603
v 0.08396893026590262 0.5658131533806713 -0.19966238866937677
v 0.20121316611858198 0.6321185455890622 -0.20913476233664394
v 0.24904859516421818 0.7464795956402893 -0.1930623649050025
v 0.2490485951642182 0.7403907724732864 -0.14973813689755885
v 0.20121316611858198 0.6260297224220593 -0.16581053432920026
v 0.16656768364940872 0.6402406918035934 -0.16381331283038936
v 0.21440311269504492 0.7546017418548203 -0.14774091539874795
v 0.21440311269504495 0.7606905650218233 -0.1910651434061916
v 0.16656768364940872 0.6463295149705961 -0.207137540837833
v 0.21249999999999997 0.667800963280075 -0.19701348546998781
v 0.21249999999999997 0.8732661197614976 -0.17903761352828323
v 0.21249999999999997 0.8721766729771516 -0.16658517980213647
v 0.21249999999999997 0.6667115164957292 -0.18456105174384105
v 0.08124999999999999 0.6667115164957292 -0.18456105174384105
v 0.08124999999999999 0.8721766729771517 -0.16658517980213647
v 0.08124999999999998 0.8732661197614976 -0.17903761352828326
v 0.08124999999999999 0.667800963280075 -0.1970134854699878
v 0.25 0.7517735471106054 -0.19942317154461767
v 0.25000000000000006 0.8761980719065027 -0.18744245247958966
v 0.25 0.872004820233743 -0.1438938688010255
v 0.25 0.7475802954378455 -0.15587458786605354
v 0.21250000000000002 0.7475802954378455 -0.15587458786605354
v 0.21250000000000005 0.872004820233743 -0.14389386880102556
v 0.21250000000000002 0.8761980719065027 -0.18744245247958966
v 0.21250000000000002 0.7517735471106054 -0.19942317154461767
vt 0.67578125 0.953125
vt 0.65625 0.953125
vt 0.65625 0.890625
vt 0.67578125 0.890625
vt 0.69076171875 0.453125
vt 0.67201171875 0.453125
vt 0.67201171875 0.390625
vt 0.69126953125 0.39215468750000004
vt 0.421875 0.25
vt 0.390625 0.25
vt 0.390625 0.23046875
vt 0.421875 0.23046875
vt 0.7537690750641317 0.5588019629339674
vt 0.7532599174593085 0.5916105123499878
vt 0.7345121749358683 0.5913195651472317
vt 0.7345121749358683 0.55859375
vt 0.15625 0.421875
vt 0.125 0.421875
vt 0.125 0.359375
vt 0.15625 0.359375
vt 0.25 0.421875
vt 0.21875 0.421875
vt 0.218840625 0.360903125
vt 0.25 0.35937656250000005
vt 0.11328125 0.28125
vt 0.11328125 0.34375
vt 0.09375 0.34375
vt 0.09375 0.28125
vt 0.16015625 0.28125
vt 0.16015625 0.34375
vt 0.1411328125 0.34375
vt 0.140625 0.28277968750000004
vt 0.46875 0.23046875
vt 0.46875 0.25
vt 0.4375 0.25
vt 0.4375 0.23046875
vt 0.515625 0.23097656249999998
vt 0.515625 0.24972656250000003
vt 0.484375 0.24972656250000003
vt 0.484465625 0.23046875
vt 0.203125 0.359375
vt 0.203125 0.421875
vt 0.171875 0.421875
vt 0.171875 0.359375
vt 0.47139375 0.407778125
vt 0.471484375 0.46875
vt 0.438671875 0.46875
vt 0.438671875 0.40625156250000005
vt 0.84765625 0.59375
vt 0.8125 0.59375
vt 0.8125 0.5859375
vt 0.84765625 0.5859375
vt 0.86328125 0.8671875
vt 0.86328125 0.875
vt 0.828125 0.875
vt 0.828125 0.8671875
vt 0.34375 0.79296875
vt 0.46875 0.79296875
vt 0.46875 0.828125
vt 0.34375 0.828125
vt 0.3125 0.62109375
vt 0.3125 0.65625
vt 0.1875 0.65625
vt 0.1875 0.62109375
vt 0.828125 0.3671875
vt 0.828125 0.375
vt 0.703125 0.375
vt 0.703125 0.3671875
vt 0.828125 0.34375
vt 0.703125 0.34375
vt 0.703125 0.3359375
vt 0.828125 0.3359375
vt 0.28515625 0.328125
vt 0.28515625 0.421875
vt 0.265625 0.421875
vt 0.265625 0.328125
vt 0.01953125 0.3125
vt 0.01953125 0.40625
vt 0 0.40625
vt 0 0.3125
vt 0.609375 1
vt 0.609375 0.98046875
vt 0.6796875 0.98046875
vt 0.6796875 1
vt 0.640625 0.82421875
vt 0.640625 0.84375
vt 0.7109375 0.84375
vt 0.7109375 0.82421875
vt 0.0703125 0.6875
vt 0.0703125 0.78125
vt 0 0.78125
vt 0 0.6875
vt 0.2265625 0.75
vt 0.2265625 0.84375
vt 0.15625 0.84375
vt 0.15625 0.75
vt 0.51953125 0.296875
vt 0.51953125 0.359375
vt 0.5 0.359375
vt 0.5 0.296875
vt 0.56640625 0.296875
vt 0.56640625 0.359375
vt 0.546875 0.359375
vt 0.546875 0.296875
vt 0.640625 0.59375
vt 0.640625 0.57421875
vt 0.7109375 0.57421875
vt 0.7109375 0.59375
vt 0.640625 0.52734375
vt 0.640625 0.546875
vt 0.7109375 0.546875
vt 0.7109375 0.52734375
vt 0.4140625 0.84375
vt 0.4140625 0.90625
vt 0.34375 0.90625
vt 0.34375 0.84375
vt 0.0703125 0.609375
vt 0.0703125 0.671875
vt 0 0.671875
vt 0 0.609375
vt 0.06640625 0.3125
vt 0.06640625 0.40625
vt 0.046875 0.40625
vt 0.046875 0.3125
vt 0.33203125 0.3125
vt 0.33203125 0.40625
vt 0.3125 0.40625
vt 0.3125 0.3125
vt 0.734375 0.53125
vt 0.734375 0.51171875
vt 0.765625 0.51171875
vt 0.765625 0.53125
vt 0.734375 0.26171875
vt 0.734375 0.28125
vt 0.765625 0.28125
vt 0.765625 0.26171875
vt 0.265625 0.4375
vt 0.265625 0.53125
vt 0.234375 0.53125
vt 0.234375 0.4375
vt 0.21875 0.4375
vt 0.21875 0.53125
vt 0.1875 0.53125
vt 0.1875 0.4375
vt 0.61328125 0.484375
vt 0.61328125 0.578125
vt 0.59375 0.578125
vt 0.59375 0.484375
vt 0.62890625 0.6875
vt 0.62890625 0.78125
vt 0.609375 0.78125
vt 0.609375 0.6875
vt 0.296875 0.25
vt 0.296875 0.23046875
vt 0.328125 0.23046875
vt 0.328125 0.25
vt 0.34375 0.23046875
vt 0.34375 0.25
vt 0.375 0.25
vt 0.375 0.23046875
vt 0.359375 0.421875
vt 0.359375 0.515625
vt 0.328125 0.515625
vt 0.328125 0.421875
vt 0.3125 0.4375
vt 0.3125 0.53125
vt 0.28125 0.53125
vt 0.28125 0.4375
vt 0.63671875 0.1875
vt 0.63671875 0.21875
vt 0.625 0.21875
vt 0.625 0.1875
vt 0.49609375 0.171875
vt 0.49609375 0.203125
vt 0.484375 0.203125
vt 0.484375 0.171875
vt 0 0.296875
vt 0 0.28515625
vt 0.0703125 0.28515625
vt 0.0703125 0.296875
vt 0.703125 0.30078125
vt 0.703125 0.3125
vt 0.7734375 0.3125
vt 0.7734375 0.30078125
vt 0.5703125 0.53125
vt 0.5703125 0.5625
vt 0.5 0.5625
vt 0.5 0.53125
vt 0.1640625 0.609375
vt 0.1640625 0.640625
vt 0.09375 0.640625
vt 0.09375 0.609375
vt 0.63671875 0.24609375
vt 0.63671875 0.3125
vt 0.625 0.3125
vt 0.625 0.24609375
vt 0.71484375 0.21484375
vt 0.71484375 0.28125
vt 0.703125 0.28125
vt 0.703125 0.21484375
vt 0.71875 0.734375
vt 0.71875 0.72265625
vt 0.7890625 0.72265625
vt 0.7890625 0.734375
vt 0.296875 0.26953125
vt 0.296875 0.28125
vt 0.3671875 0.28125
vt 0.3671875 0.26953125
vt 0.3203125 0.68359375
vt 0.3203125 0.75
vt 0.25 0.75
vt 0.25 0.68359375
vt 0.3203125 0.77734375
vt 0.3203125 0.84375
vt 0.25 0.84375
vt 0.25 0.77734375
vt 0.82421875 0.9375
vt 0.82421875 0.96875
vt 0.8125 0.96875
vt 0.8125 0.9375
vt 0.07421875 0.15625
vt 0.07421875 0.1875
vt 0.0625 0.1875
vt 0.0625 0.15625
vt 0.71875 0.703125
vt 0.71875 0.69140625
vt 0.7890625 0.69140625
vt 0.7890625 0.703125
vt 0.390625 0.26953125
vt 0.390625 0.28125
vt 0.4609375 0.28125
vt 0.4609375 0.26953125
vt 0.5859375 0.671875
vt 0.5859375 0.703125
vt 0.515625 0.703125
vt 0.515625 0.671875
vt 0.5859375 0.96875
vt 0.5859375 1
vt 0.515625 1
vt 0.515625 0.96875
vt 0.01171875 0.19921875
vt 0.01171875 0.265625
vt 0 0.265625
vt 0 0.19921875
vt 0.04296875 0.19921875
vt 0.04296875 0.265625
vt 0.03125 0.265625
vt 0.03125 0.19921875
vt 0.484375 0.28125
vt 0.484375 0.26953125
vt 0.5546875 0.26953125
vt 0.5546875 0.28125
vt 0.71875 0.44140625
vt 0.71875 0.453125
vt 0.7890625 0.453125
vt 0.7890625 0.44140625
vt 0.3828125 0.93359375
vt 0.3828125 1
vt 0.3125 1
vt 0.3125 0.93359375
vt 0.1640625 0.66796875
vt 0.1640625 0.734375
vt 0.09375 0.734375
vt 0.09375 0.66796875
vt 0.37890625 0.296875
vt 0.37890625 0.390625
vt 0.359375 0.390625
vt 0.359375 0.296875
vt 0.42578125 0.296875
vt 0.42578125 0.390625
vt 0.40625 0.390625
vt 0.40625 0.296875
vt 0.484375 0.828125
vt 0.484375 0.80859375
vt 0.6171875 0.80859375
vt 0.6171875 0.828125
vt 0.375 0.49609375
vt 0.375 0.515625
vt 0.5078125 0.515625
vt 0.5078125 0.49609375
vt 0.1328125 0.796875
vt 0.1328125 0.890625
vt 0 0.890625
vt 0 0.796875
vt 0.1328125 0.90625
vt 0.1328125 1
vt 0 1
vt 0 0.90625
vt 0.20703125 0.28125
vt 0.20703125 0.34375
vt 0.1875 0.34375
vt 0.1875 0.28125
vt 0.67578125 0.734375
vt 0.67578125 0.796875
vt 0.65625 0.796875
vt 0.65625 0.734375
vt 0.5 0.9375
vt 0.5 0.91796875
vt 0.6328125 0.91796875
vt 0.6328125 0.9375
vt 0.5 0.87109375
vt 0.5 0.890625
vt 0.6328125 0.890625
vt 0.6328125 0.87109375
vt 0.2890625 0.859375
vt 0.2890625 0.921875
vt 0.15625 0.921875
vt 0.15625 0.859375
vt 0.2890625 0.9375
vt 0.2890625 1
vt 0.15625 1
vt 0.15625 0.9375
vt 0.58984375 0.71875
vt 0.58984375 0.78125
vt 0.578125 0.78125
vt 0.578125 0.71875
vt 0.07421875 0.203125
vt 0.07421875 0.265625
vt 0.0625 0.265625
vt 0.0625 0.203125
vt 0.734375 0.484375
vt 0.734375 0.47265625
vt 0.7734375 0.47265625
vt 0.7734375 0.484375
vt 0.765625 0.86328125
vt 0.765625 0.875
vt 0.8046875 0.875
vt 0.8046875 0.86328125
vt 0.5390625 0.578125
vt 0.5390625 0.640625
vt 0.5 0.640625
vt 0.5 0.578125
vt 0.2265625 0.671875
vt 0.2265625 0.734375
vt 0.1875 0.734375
vt 0.1875 0.671875
vt 0.60546875 0.2578125
vt 0.60546875 0.359375
vt 0.59375 0.359375
vt 0.59375 0.2578125
vt 0.24609375 0.2421875
vt 0.24609375 0.34375
vt 0.234375 0.34375
vt 0.234375 0.2421875
vt 0.78125 0.5625
vt 0.78125 0.55078125
vt 0.8203125 0.55078125
vt 0.8203125 0.5625
vt 0.78125 0.51953125
vt 0.78125 0.53125
vt 0.8203125 0.53125
vt 0.8203125 0.51953125
vt 0.4921875 0.6640625
vt 0.4921875 0.765625
vt 0.453125 0.765625
vt 0.453125 0.6640625
vt 0.4765625 0.5390625
vt 0.4765625 0.640625
vt 0.4375 0.640625
vt 0.4375 0.5390625
vt 0.54296875 0.19921875
vt 0.54296875 0.25
vt 0.53125 0.25
vt 0.53125 0.19921875
vt 0.57421875 0.19921875
vt 0.57421875 0.25
vt 0.5625 0.25
vt 0.5625 0.19921875
vt 0.78125 0.421875
vt 0.78125 0.41015625
vt 0.8203125 0.41015625
vt 0.8203125 0.421875
vt 0.78125 0.26953125
vt 0.78125 0.28125
vt 0.8203125 0.28125
vt 0.8203125 0.26953125
vt 0.6015625 0.60546875
vt 0.6015625 0.65625
vt 0.5625 0.65625
vt 0.5625 0.60546875
vt 0.5703125 0.46484375
vt 0.5703125 0.515625
vt 0.53125 0.515625
vt 0.53125 0.46484375
vt 0.82421875 0.890625
vt 0.82421875 0.921875
vt 0.8125 0.921875
vt 0.8125 0.890625
vt 0.10546875 0.15625
vt 0.10546875 0.1875
vt 0.09375 0.1875
vt 0.09375 0.15625
vt 0.796875 0.84375
vt 0.796875 0.83203125
vt 0.8359375 0.83203125
vt 0.8359375 0.84375
vt 0.296875 0.19140625
vt 0.296875 0.203125
vt 0.3359375 0.203125
vt 0.3359375 0.19140625
vt 0.6953125 0.6875
vt 0.6953125 0.71875
vt 0.65625 0.71875
vt 0.65625 0.6875
vt 0.1328125 0.75
vt 0.1328125 0.78125
vt 0.09375 0.78125
vt 0.09375 0.75
vt 0.13671875 0.15625
vt 0.13671875 0.1875
vt 0.125 0.1875
vt 0.125 0.15625
vt 0.82421875 0.78125
vt 0.82421875 0.8125
vt 0.8125 0.8125
vt 0.8125 0.78125
vt 0.796875 0.671875
vt 0.796875 0.66015625
vt 0.8359375 0.66015625
vt 0.8359375 0.671875
vt 0.359375 0.19140625
vt 0.359375 0.203125
vt 0.3984375 0.203125
vt 0.3984375 0.19140625
vt 0.7109375 0.46875
vt 0.7109375 0.5
vt 0.671875 0.5
vt 0.671875 0.46875
vt 0.7109375 0.640625
vt 0.7109375 0.671875
vt 0.671875 0.671875
vt 0.671875 0.640625
vt 0.10546875 0.203125
vt 0.10546875 0.265625
vt 0.09375 0.265625
vt 0.09375 0.203125
vt 0.13671875 0.203125
vt 0.13671875 0.265625
vt 0.125 0.265625
vt 0.125 0.203125
vt 0.421875 0.203125
vt 0.421875 0.19140625
vt 0.4609375 0.19140625
vt 0.4609375 0.203125
vt 0.796875 0.48828125
vt 0.796875 0.5
vt 0.8359375 0.5
vt 0.8359375 0.48828125
vt 0.4140625 0.40625
vt 0.4140625 0.46875
vt 0.375 0.46875
vt 0.375 0.40625
vt 0.5546875 0.71875
vt 0.5546875 0.78125
vt 0.515625 0.78125
vt 0.515625 0.71875
vt 0.66796875 0.19921875
vt 0.66796875 0.25
vt 0.65625 0.25
vt 0.65625 0.19921875
vt 0.60546875 0.18359375
vt 0.60546875 0.234375
vt 0.59375 0.234375
vt 0.59375 0.18359375
vt 0.796875 0.3125
vt 0.796875 0.30078125
vt 0.8359375 0.30078125
vt 0.8359375 0.3125
vt 0.796875 0.23828125
vt 0.796875 0.25
vt 0.8359375 0.25
vt 0.8359375 0.23828125
vt 0.6015625 0.38671875
vt 0.6015625 0.4375
vt 0.5625 0.4375
vt 0.5625 0.38671875
vt 0.5390625 0.38671875
vt 0.5390625 0.4375
vt 0.5 0.4375
vt 0.5 0.38671875
vt 0.68359375 0.2734375
vt 0.68359375 0.375
vt 0.671875 0.375
vt 0.671875 0.2734375
vt 0.27734375 0.2109375
vt 0.27734375 0.3125
vt 0.265625 0.3125
vt 0.265625 0.2109375
vt 0.796875 0.21875
vt 0.796875 0.20703125
vt 0.8359375 0.20703125
vt 0.8359375 0.21875
vt 0.8125 0.98828125
vt 0.8125 1
vt 0.8515625 1
vt 0.8515625 0.98828125
vt 0.1015625 0.4296875
vt 0.1015625 0.53125
vt 0.0625 0.53125
vt 0.0625 0.4296875
vt 0.0390625 0.4296875
vt 0.0390625 0.53125
vt 0 0.53125
vt 0 0.4296875
vt 0.32421875 0.859375
vt 0.32421875 0.90625
vt 0.3125 0.90625
vt 0.3125 0.859375
vt 0.10546875 0.359375
vt 0.10546875 0.40625
vt 0.09375 0.40625
vt 0.09375 0.359375
vt 0.65625 0.875
vt 0.65625 0.86328125
vt 0.7421875 0.86328125
vt 0.7421875 0.875
vt 0.671875 0.61328125
vt 0.671875 0.625
vt 0.7578125 0.625
vt 0.7578125 0.61328125
vt 0.4296875 0.65625
vt 0.4296875 0.703125
vt 0.34375 0.703125
vt 0.34375 0.65625
vt 0.4296875 0.71875
vt 0.4296875 0.765625
vt 0.34375 0.765625
vt 0.34375 0.71875
vt 0.74609375 0.1875
vt 0.74609375 0.234375
vt 0.734375 0.234375
vt 0.734375 0.1875
vt 0.77734375 0.1875
vt 0.77734375 0.234375
vt 0.765625 0.234375
vt 0.765625 0.1875
vt 0.703125 1
vt 0.703125 0.98828125
vt 0.7890625 0.98828125
vt 0.7890625 1
vt 0.703125 0.95703125
vt 0.703125 0.96875
vt 0.7890625 0.96875
vt 0.7890625 0.95703125
vt 0.0859375 0.546875
vt 0.0859375 0.59375
vt 0 0.59375
vt 0 0.546875
vt 0.4140625 0.59375
vt 0.4140625 0.640625
vt 0.328125 0.640625
vt 0.328125 0.59375
vt 0.16796875 0.171875
vt 0.16796875 0.21875
vt 0.15625 0.21875
vt 0.15625 0.171875
vt 0.19921875 0.171875
vt 0.19921875 0.21875
vt 0.1875 0.21875
vt 0.1875 0.171875
vt 0.703125 0.9375
vt 0.703125 0.92578125
vt 0.7890625 0.92578125
vt 0.7890625 0.9375
vt 0.703125 0.89453125
vt 0.703125 0.90625
vt 0.7890625 0.90625
vt 0.7890625 0.89453125
vt 0.1953125 0.546875
vt 0.1953125 0.59375
vt 0.109375 0.59375
vt 0.109375 0.546875
vt 0.4921875 0.953125
vt 0.4921875 1
vt 0.40625 1
vt 0.40625 0.953125
vt 0.23046875 0.171875
vt 0.23046875 0.21875
vt 0.21875 0.21875
vt 0.21875 0.171875
vt 0.79296875 0.578125
vt 0.79296875 0.625
vt 0.78125 0.625
vt 0.78125 0.578125
vt 0.703125 0.796875
vt 0.703125 0.78515625
vt 0.7890625 0.78515625
vt 0.7890625 0.796875
vt 0.703125 0.75390625
vt 0.703125 0.765625
vt 0.7890625 0.765625
vt 0.7890625 0.75390625
vt 0.4140625 0.53125
vt 0.4140625 0.578125
vt 0.328125 0.578125
vt 0.328125 0.53125
vt 0.3046875 0.546875
vt 0.3046875 0.59375
vt 0.21875 0.59375
vt 0.21875 0.546875
vt 0.82421875 0.734375
vt 0.82421875 0.765625
vt 0.8125 0.765625
vt 0.8125 0.734375
vt 0.26171875 0.15625
vt 0.26171875 0.1875
vt 0.25 0.1875
vt 0.25 0.15625
vt 0.40625 0.9375
vt 0.40625 0.92578125
vt 0.4140625 0.92578125
vt 0.4140625 0.9375
vt 0.5 0.45703125
vt 0.5 0.46875
vt 0.5078125 0.46875
vt 0.5078125 0.45703125
vt 0.7265625 0.140625
vt 0.7265625 0.171875
vt 0.71875 0.171875
vt 0.71875 0.140625
vt 0.6640625 0.140625
vt 0.6640625 0.171875
vt 0.65625 0.171875
vt 0.65625 0.140625
vt 0.58203125 0.10546875
vt 0.58203125 0.15625
vt 0.578125 0.15625
vt 0.578125 0.10546875
vt 0.84765625 0.37109375
vt 0.84765625 0.421875
vt 0.84375 0.421875
vt 0.84375 0.37109375
vt 0.453125 0.3125
vt 0.453125 0.30859375
vt 0.484375 0.30859375
vt 0.484375 0.3125
vt 0.859375 0.24609375
vt 0.859375 0.25
vt 0.890625 0.25
vt 0.890625 0.24609375
vt 0.65625 0.62109375
vt 0.65625 0.671875
vt 0.625 0.671875
vt 0.625 0.62109375
vt 0.484375 0.33984375
vt 0.484375 0.390625
vt 0.453125 0.390625
vt 0.453125 0.33984375
vt 0.82421875 0.6875
vt 0.82421875 0.71875
vt 0.8125 0.71875
vt 0.8125 0.6875
vt 0.82421875 0.609375
vt 0.82421875 0.640625
vt 0.8125 0.640625
vt 0.8125 0.609375
vt 0.59375 0.46875
vt 0.59375 0.45703125
vt 0.6015625 0.45703125
vt 0.6015625 0.46875
vt 0.640625 0.48828125
vt 0.640625 0.5
vt 0.6484375 0.5
vt 0.6484375 0.48828125
vt 0.8359375 0.15625
vt 0.8359375 0.1875
vt 0.828125 0.1875
vt 0.828125 0.15625
vt 0.7578125 0.140625
vt 0.7578125 0.171875
vt 0.75 0.171875
vt 0.75 0.140625
vt 0.82421875 0.4375
vt 0.82421875 0.46875
vt 0.8125 0.46875
vt 0.8125 0.4375
vt 0.69921875 0.15625
vt 0.69921875 0.1875
vt 0.6875 0.1875
vt 0.6875 0.15625
vt 0.125 0.140625
vt 0.125 0.12890625
vt 0.1328125 0.12890625
vt 0.1328125 0.140625
vt 0.25 0.12890625
vt 0.25 0.140625
vt 0.2578125 0.140625
vt 0.2578125 0.12890625
vt 0.8515625 0.890625
vt 0.8515625 0.921875
vt 0.84375 0.921875
vt 0.84375 0.890625
vt 0.8515625 0.9375
vt 0.8515625 0.96875
vt 0.84375 0.96875
vt 0.84375 0.9375
vt 0.87890625 0.79296875
vt 0.87890625 0.8125
vt 0.875 0.8125
vt 0.875 0.79296875
vt 0.87890625 0.74609375
vt 0.87890625 0.765625
vt 0.875 0.765625
vt 0.875 0.74609375
vt 0.859375 0.84375
vt 0.859375 0.83984375
vt 0.89453125 0.83984375
vt 0.89453125 0.84375
vt 0.859375 0.66796875
vt 0.859375 0.671875
vt 0.89453125 0.671875
vt 0.89453125 0.66796875
vt 0.19140625 0.24609375
vt 0.19140625 0.265625
vt 0.15625 0.265625
vt 0.15625 0.24609375
vt 0.75390625 0.40234375
vt 0.75390625 0.421875
vt 0.71875 0.421875
vt 0.71875 0.40234375
vt 0.80859375 0.15625
vt 0.80859375 0.1875
vt 0.796875 0.1875
vt 0.796875 0.15625
vt 0.01171875 0.140625
vt 0.01171875 0.171875
vt 0 0.171875
vt 0 0.140625
vt 0.6875 0.140625
vt 0.6875 0.12890625
vt 0.6953125 0.12890625
vt 0.6953125 0.140625
vt 0.859375 0.17578125
vt 0.859375 0.1875
vt 0.8671875 0.1875
vt 0.8671875 0.17578125
vt 0.1953125 0.125
vt 0.1953125 0.15625
vt 0.1875 0.15625
vt 0.1875 0.125
vt 0.1640625 0.125
vt 0.1640625 0.15625
vt 0.15625 0.15625
vt 0.15625 0.125
vt 0.55078125 0.0859375
vt 0.55078125 0.171875
vt 0.546875 0.171875
vt 0.546875 0.0859375
vt 0.62890625 0.0859375
vt 0.62890625 0.171875
vt 0.625 0.171875
vt 0.625 0.0859375
vt 0.84375 0.34375
vt 0.84375 0.33984375
vt 0.8828125 0.33984375
vt 0.8828125 0.34375
vt 0.84375 0.27734375
vt 0.84375 0.28125
vt 0.8828125 0.28125
vt 0.8828125 0.27734375
vt 0.1640625 0.4453125
vt 0.1640625 0.53125
vt 0.125 0.53125
vt 0.125 0.4453125
vt 0.4765625 0.8515625
vt 0.4765625 0.9375
vt 0.4375 0.9375
vt 0.4375 0.8515625
vt 0.04296875 0.140625
vt 0.04296875 0.171875
vt 0.03125 0.171875
vt 0.03125 0.140625
vt 0.29296875 0.140625
vt 0.29296875 0.171875
vt 0.28125 0.171875
vt 0.28125 0.140625
vt 0.828125 0.140625
vt 0.828125 0.12890625
vt 0.8359375 0.12890625
vt 0.8359375 0.140625
vt 0.859375 0.14453125
vt 0.859375 0.15625
vt 0.8671875 0.15625
vt 0.8671875 0.14453125
vt 0.2265625 0.125
vt 0.2265625 0.15625
vt 0.21875 0.15625
vt 0.21875 0.125
vt 0.8515625 0.78125
vt 0.8515625 0.8125
vt 0.84375 0.8125
vt 0.84375 0.78125
vt 0.32421875 0.140625
vt 0.32421875 0.171875
vt 0.3125 0.171875
vt 0.3125 0.140625
vt 0.35546875 0.140625
vt 0.35546875 0.171875
vt 0.34375 0.171875
vt 0.34375 0.140625
vt 0 0.125
vt 0 0.11328125
vt 0.0078125 0.11328125
vt 0.0078125 0.125
vt 0.875 0.98828125
vt 0.875 1
vt 0.8828125 1
vt 0.8828125 0.98828125
vt 0.8515625 0.6875
vt 0.8515625 0.71875
vt 0.84375 0.71875
vt 0.84375 0.6875
vt 0.8515625 0.734375
vt 0.8515625 0.765625
vt 0.84375 0.765625
vt 0.84375 0.734375
vt 0.28515625 0.10546875
vt 0.28515625 0.125
vt 0.28125 0.125
vt 0.28125 0.10546875
vt 0.87890625 0.69921875
vt 0.87890625 0.71875
vt 0.875 0.71875
vt 0.875 0.69921875
vt 0.859375 0.515625
vt 0.859375 0.51171875
vt 0.89453125 0.51171875
vt 0.89453125 0.515625
vt 0.859375 0.30859375
vt 0.859375 0.3125
vt 0.89453125 0.3125
vt 0.89453125 0.30859375
vt 0.76953125 0.65234375
vt 0.76953125 0.671875
vt 0.734375 0.671875
vt 0.734375 0.65234375
vt 0.76953125 0.82421875
vt 0.76953125 0.84375
vt 0.734375 0.84375
vt 0.734375 0.82421875
vt 0.38671875 0.140625
vt 0.38671875 0.171875
vt 0.375 0.171875
vt 0.375 0.140625
vt 0.41796875 0.140625
vt 0.41796875 0.171875
vt 0.40625 0.171875
vt 0.40625 0.140625
vt 0.03125 0.125
vt 0.03125 0.11328125
vt 0.0390625 0.11328125
vt 0.0390625 0.125
vt 0.875 0.95703125
vt 0.875 0.96875
vt 0.8828125 0.96875
vt 0.8828125 0.95703125
vt 0.8515625 0.53125
vt 0.8515625 0.5625
vt 0.84375 0.5625
vt 0.84375 0.53125
vt 0.8515625 0.609375
vt 0.8515625 0.640625
vt 0.84375 0.640625
vt 0.84375 0.609375
vt 0.06640625 0.08984375
vt 0.06640625 0.140625
vt 0.0625 0.140625
vt 0.0625 0.08984375
vt 0.09765625 0.08984375
vt 0.09765625 0.140625
vt 0.09375 0.140625
vt 0.09375 0.08984375
vt 0.78125 0.140625
vt 0.78125 0.13671875
vt 0.8125 0.13671875
vt 0.8125 0.140625
vt 0.859375 0.21484375
vt 0.859375 0.21875
vt 0.890625 0.21875
vt 0.890625 0.21484375
vt 0.65625 0.33984375
vt 0.65625 0.390625
vt 0.625 0.390625
vt 0.625 0.33984375
vt 0.65625 0.41796875
vt 0.65625 0.46875
vt 0.625 0.46875
vt 0.625 0.41796875
vt 0.44921875 0.140625
vt 0.44921875 0.171875
vt 0.4375 0.171875
vt 0.4375 0.140625
vt 0.52734375 0.140625
vt 0.52734375 0.171875
vt 0.515625 0.171875
vt 0.515625 0.140625
vt 0.875 0.9375
vt 0.875 0.92578125
vt 0.8828125 0.92578125
vt 0.8828125 0.9375
vt 0.875 0.89453125
vt 0.875 0.90625
vt 0.8828125 0.90625
vt 0.8828125 0.89453125
vt 0.8515625 0.4375
vt 0.8515625 0.46875
vt 0.84375 0.46875
vt 0.84375 0.4375
vt 0.4765625 0.125
vt 0.4765625 0.15625
vt 0.46875 0.15625
vt 0.46875 0.125
vn -0.9876883405951378 0.04573701122120164 -0.14959902291450594
vn 0.987688340595138 -0.04573701122120145 0.14959902291450533
vn 3.359305778875722e-16 0.9563047559630357 0.2923717047227367
vn -3.304235192336775e-16 -0.9563047559630354 -0.2923717047227367
vn -0.15643446504023095 -0.2887721238745714 0.9445310575203687
vn 0.15642904942650554 0.29671941663885465 -0.9420655711175404
vn 0.9876883405951378 0.04573701122120177 -0.14959902291450652
vn -0.9876883405951378 -0.045737011221201614 0.14959902291450597
vn -1.9825411154020626e-16 0.9563047559630358 0.29237170472273644
vn 1.894428176939751e-15 -0.9563047559630354 -0.292371704722737
vn 0.15643446504023123 -0.28877212387457146 0.9445310575203687
vn -0.15642904942650618 0.2967194166388546 -0.9420655711175405
vn 1 0 0
vn -1 -5.045126000594359e-16 1.7032059937850568e-15
vn 1.0645037461156557e-16 -0.28401534470392337 0.9588197348681928
vn -4.93432455388958e-17 0.2840153447039226 -0.958819734868193
vn -3.1225022567582694e-17 -0.9588197348681964 -0.2840153447039115
vn 1.576601875185699e-17 0.9588197348681947 0.2840153447039176
vn 1 -7.401486830834377e-17 -2.191280292280588e-31
vn -1 -1.4802973661668753e-16 0
vn 5.71638337116675e-31 1 2.9605947323337505e-15
vn 0 -1 0
vn 9.654113257610054e-17 0 1
vn -1.9308226515220108e-16 1.4802973661668753e-16 -1
vn 1 1.061711558628703e-16 3.2459779833209115e-17
vn -1 -2.1639853222139333e-16 7.078077057524684e-16
vn 3.016910393003141e-17 0.9563047559630352 0.29237170472273794
vn 0 -0.9563047559630352 -0.2923717047227382
vn 9.654113257610055e-17 -0.2923717047227369 0.9563047559630354
vn -9.654113257610057e-17 0.29237170472273655 -0.9563047559630357
vn 0.9890158633619168 1.464037577631904e-16 -0.14780941112961057
vn -0.9890158633619168 -2.1880188198983955e-17 0.14780941112961074
vn 1.6731858030078898e-15 1 -2.500592937026735e-16
vn 0 -1 0
vn 0.14780941112961102 0 0.9890158633619169
vn -0.14780941112961163 1.4640375776319031e-16 -0.9890158633619167
vn 0.9890158633619168 -2.188018819898394e-17 0.14780941112961063
vn -0.9890158633619168 -1.0940094099491973e-17 -0.14780941112961063
vn -1.6731858030078896e-15 1 -2.5005929370267357e-16
vn 1.4543839210180507e-15 -1 1.7140968713345787e-15
vn -0.14780941112961118 -2.1960563664478554e-16 0.9890158633619167
vn 0.14780941112961118 0 -0.9890158633619167
vn -0.002570194767735714 0.9997289192982579 -0.023140484385448738
vn 0.0025701947677313295 -0.999728919298258 0.02314048438545188
vn 0.28483628607602274 0.022913875002560754 0.9583022719720461
vn -0.2848362860760238 -0.02291387500256089 -0.9583022719720458
vn 0.9585727328863857 -0.004128226145026593 -0.28481796557735234
vn -0.9585727328863856 0.004128226145026744 0.28481796557735256
vn -0.0025701938401781737 0.9997289504742575 -0.023139137565257643
vn 0.0025701938401808044 -0.9997289504742575 0.023139137565257307
vn -0.1899671384350056 0.022229733240168952 0.9815387538324131
vn 0.18996713843500512 -0.02222973324016917 -0.9815387538324132
vn 0.981787085074172 0.006918420608117913 0.18985851320878344
vn -0.9817870850741718 -0.0069184206081178415 -0.18985851320878405
vn -0.0025701947677337893 -0.999728919298258 0.02314048438545117
vn 0.002570194767736732 0.999728919298258 -0.02314048438545214
vn -0.28483628607602246 0.022913875002560754 0.9583022719720461
vn 0.28483628607602407 -0.022913875002560737 -0.9583022719720458
vn -0.9585727328863856 -0.00412822614502674 -0.2848179655773524
vn 0.9585727328863856 0.004128226145026743 0.28481796557735245
vn -0.0025701938401783424 -0.9997289504742575 0.02313913756525683
vn 0.002570193840178302 0.9997289504742575 -0.023139137565256804
vn 0.18996713843500618 0.022229733240168862 0.981538753832413
vn -0.1899671384350067 -0.022229733240169434 -0.981538753832413
vn -0.981787085074172 0.006918420608118207 0.18985851320878347
vn 0.981787085074172 -0.006918420608118253 -0.18985851320878372
vn 1 0 7.401486830834381e-16
vn -1 1.4802973661668738e-16 7.401486830834377e-16
vn 0 1 -2.960594732333752e-15
vn -2.0655312086049424e-16 -1 -1.5288002039166916e-31
vn 0 -1.4802973661668746e-16 1
vn 0 1.4802973661668758e-16 -1
vn 1 0 0
vn -1 0 0
vn 0 0.9925461516413218 -0.12186934340514978
vn 0 -0.9925461516413221 0.12186934340514688
vn 1.0327656043024708e-16 0.12186934340514738 0.9925461516413222
vn 0 -0.12186934340514768 -0.992546151641322
vn 0.9517245836536508 0.3061232910126073 -0.022557649897447442
vn -0.9517245836536509 -0.3061232910126074 0.022557649897448368
vn 0.3063589138223169 -0.9518843388725325 0.007773115901105573
vn -0.3063589138223165 0.9518843388725328 -0.007773115901101148
vn -0.019092741838081146 -0.014308602615632335 -0.999715325030227
vn 0.01909274183808132 0.01430860261563288 0.999715325030227
vn 0.9228181003232836 0.3852359382955453 0.00015987894522462805
vn -0.9228181003232836 -0.38523593829554553 -0.00015987894522501842
vn -0.3804015118966945 0.9111717155020542 0.1583060157282502
vn 0.3804015118966934 -0.9111717155020554 -0.15830601572824485
vn 0.060839489334106676 -0.14614847489656965 0.987390084932481
vn -0.06083948933410643 0.14614847489656985 -0.987390084932481
vn 0.9517246810270051 0.3061230274953599 -0.02255711774852027
vn -0.9517246810270055 -0.30612302749535886 0.022557117748520473
vn 0.005710837258662711 0.05581559900739667 0.9984247619351448
vn -0.005710837258662546 -0.055815599007396605 -0.9984247619351448
vn 0.30689984988893576 -0.9503543081106751 0.05137286437048998
vn -0.3068998498889359 0.9503543081106751 -0.05137286437048896
vn 0.9517243970499291 0.30612387958089526 -0.02255753555445893
vn -0.9517243970499295 -0.3061238795808933 0.022557535554461012
vn 0.1467768813434689 -0.38931554374531846 0.9093348967797136
vn -0.14677688134346906 0.3893155437453178 -0.909334896779714
vn 0.2695871272205593 -0.8687471310736103 -0.4154530094828262
vn -0.26958712722055844 0.8687471310736113 0.415453009482825
vn 0.9517243970499293 -0.30612387958089465 0.022557535554460904
vn -0.9517243970499291 0.3061238795808956 -0.02255753555445958
vn -0.14677688134346903 -0.38931554374531774 0.909334896779714
vn 0.14677688134346956 0.389315543745319 -0.9093348967797132
vn -0.26958712722055983 -0.8687471310736111 -0.41545300948282443
vn 0.26958712722055783 0.86874713107361 0.41545300948282776
vn 0.9517245836536508 -0.30612329101260716 0.022557649897446113
vn -0.9517245836536509 0.30612329101260705 -0.02255764989744742
vn -0.3063589138223166 -0.9518843388725328 0.0077731159011007285
vn 0.30635891382231667 0.9518843388725327 -0.007773115901100735
vn 0.019092741838080816 -0.014308602615632243 -0.999715325030227
vn -0.019092741838081313 0.014308602615632871 0.999715325030227
vn 0.9517246810270055 -0.3061230274953588 0.022557117748519626
vn -0.9517246810270049 0.3061230274953606 -0.02255711774852031
vn -0.005710837258662773 0.055815599007395356 0.9984247619351451
vn 0.005710837258662959 -0.05581559900739479 -0.998424761935145
vn -0.3068998498889357 -0.9503543081106751 0.051372864370490164
vn 0.3068998498889358 0.9503543081106751 -0.05137286437049011
vn 0.9228181003232835 -0.3852359382955458 -0.0001598789452242375
vn -0.9228181003232838 0.38523593829554503 0.00015987894522697055
vn 0.38040151189669447 0.9111717155020549 0.15830601572824474
vn -0.3804015118966935 -0.9111717155020554 -0.15830601572824432
vn -0.06083948933410669 -0.14614847489656974 0.987390084932481
vn 0.060839489334106364 0.1461484748965697 -0.987390084932481
vn 5.698372962916353e-16 4.067145450195416e-16 -1
vn 2.4412068462113826e-15 7.535523901156251e-16 1
vn -0.18223552549214514 0.9832549075639551 0
vn 0.1822355254921549 -0.9832549075639532 2.832201593431516e-17
vn 0.9832549075639547 0.18223552549214758 2.6433881538694243e-16
vn -0.9832549075639547 -0.1822355254921474 0
vn -2.603064507256211e-15 -1.197533998469248e-16 1
vn 5.968135731324418e-16 -2.611635800257847e-16 -1
vn 0.18223552549214023 0.983254907563956 -2.832201593431524e-17
vn -0.18223552549215005 -0.9832549075639542 0
vn -0.9832549075639546 0.18223552549214764 1.189524669241242e-16
vn 0.9832549075639547 -0.182235525492147 -1.5860328923216505e-16
vn 1 2.993834996173129e-17 -6.507661268140542e-16
vn -1 5.223271600515695e-16 1.1936271462648844e-15
vn 2.832201593431527e-17 0.983254907563955 -0.18223552549214547
vn -4.2483023901472664e-17 -0.9832549075639544 0.1822355254921495
vn -1.5860328923216522e-16 0.1822355254921478 0.9832549075639545
vn 1.5860328923216505e-16 -0.18223552549214686 -0.9832549075639547
vn 1 0 0
vn -1 -3.509786299109773e-16 -1.3554848073097208e-15
vn 0 0.9832549075639551 0.1822355254921451
vn 0 -0.9832549075639552 -0.18223552549214533
vn -3.039896376949833e-16 -0.18223552549214767 0.9832549075639547
vn 0 0.18223552549214736 -0.9832549075639547
vn 1 4.4165644269268343e-16 4.6419962659373857e-17
vn -1 0 0
vn -3.0233752009881555e-15 0.9945218953682733 0.10452846326765415
vn -2.7755575615628933e-15 -0.9945218953682732 -0.10452846326765657
vn 7.401486830834382e-16 -0.10452846326765308 0.9945218953682735
vn 4.625929269271497e-16 0.10452846326765351 -0.9945218953682735
vn 1 1.3406039888860139e-16 1.1728765130517456e-17
vn -1 1.1892845152982814e-16 -4.4474506935848995e-15
vn 0 0.9961946980917447 0.0871557427476689
vn 0 -0.9961946980917445 -0.08715574274766927
vn -2.0826694545637858e-16 -0.08715574274765858 0.9961946980917457
vn 0 0.08715574274765804 -0.9961946980917455
vn 0.9238795325112868 0.37895918350757307 0.0532592399682913
vn -0.9238795325112866 -0.378959183507573 -0.0532592399682913
vn -0.38268343236508745 0.9148884004098178 0.12857917945313188
vn 0.3826834323650924 -0.9148884004098161 -0.12857917945312994
vn -1.942890293094028e-15 -0.1391731009600668 0.9902680687415701
vn 6.476300976980086e-16 0.13917310096006608 -0.9902680687415704
vn 0.7071067811865477 0.7002252665996707 0.09841024344762168
vn -0.7071067811865482 -0.7002252665996699 -0.09841024344762268
vn -0.7071067811865478 0.7002252665996702 0.09841024344762343
vn 0.7071067811865491 -0.700225266599669 -0.09841024344762234
vn 4.1633363423443385e-16 -0.13917310096006447 0.9902680687415705
vn -2.035408878479455e-15 0.139173100960064 -0.9902680687415705
vn 0.707106781186548 -0.7044160264027585 -0.061628416716218236
vn -0.7071067811865471 0.7044160264027579 0.06162841671623366
vn 0.7071067811865478 0.7044160264027591 0.06162841671621186
vn -0.7071067811865481 -0.7044160264027586 -0.06162841671621442
vn 9.352422218309714e-16 -0.08715574274765805 0.9961946980917455
vn -1.5335961164432567e-16 0.08715574274765847 -0.9961946980917455
vn 0.3826834323650908 0.9148884004098164 0.12857917945313208
vn -0.38268343236508984 -0.9148884004098168 -0.12857917945313155
vn -0.9238795325112863 0.378959183507574 0.05325923996829008
vn 0.9238795325112866 -0.3789591835075734 -0.05325923996829094
vn 4.0766001685454957e-16 -0.13917310096006721 0.9902680687415701
vn 1.2258712563569428e-15 0.13917310096006652 -0.9902680687415701
vn 1 0 0
vn -1 0 0
vn -6.955573937330088e-16 0.9961946980917447 0.08715574274766888
vn -2.919005848999467e-17 -0.9961946980917438 -0.08715574274767866
vn -1.242207580000175e-16 -0.08715574274765854 0.9961946980917457
vn 1.2422075800001757e-16 0.0871557427476582 -0.9961946980917455
vn 0.38268343236508984 -0.9148884004098166 -0.12857917945313377
vn -0.3826834323650912 0.9148884004098164 0.12857917945312963
vn 0.9238795325112867 0.3789591835075732 0.05325923996829278
vn -0.9238795325112865 -0.37895918350757357 -0.053259239968291995
vn -1.5728159515522975e-15 -0.13917310096006363 0.9902680687415706
vn -1.61907524424502e-16 0.1391731009600654 -0.9902680687415704
vn 0.7071067811865487 -0.7002252665996695 -0.09841024344762202
vn -0.7071067811865472 0.7002252665996711 0.09841024344762088
vn 0.7071067811865459 0.700225266599672 0.09841024344762322
vn -0.7071067811865521 -0.700225266599666 -0.09841024344762199
vn -2.4517425127138884e-15 -0.13917310096006344 0.9902680687415707
vn 7.864079757761556e-16 0.13917310096006338 -0.9902680687415707
vn 0.707106781186548 0.7044160264027587 0.061628416716213975
vn -0.7071067811865478 -0.704416026402759 -0.0616284167162148
vn -0.7071067811865476 0.7044160264027592 0.06162841671621448
vn 0.707106781186548 -0.7044160264027598 -0.061628416716201416
vn -5.958398026181197e-16 -0.08715574274765896 0.9961946980917455
vn 2.815783033469591e-16 0.08715574274765843 -0.9961946980917455
vn 0.923879532511287 -0.3789591835075727 -0.053259239968291766
vn -0.9238795325112867 0.37895918350757335 0.053259239968291676
vn 0.38268343236509017 0.9148884004098167 0.12857917945313155
vn -0.3826834323650924 -0.9148884004098157 -0.12857917945313158
vn 1.8503717077085946e-16 -0.13917310096006535 0.9902680687415704
vn 1.8503717077085933e-16 0.1391731009600651 -0.9902680687415704
vn 1 0 0
vn -1 -9.676231232675766e-17 1.1059982908309635e-15
vn -1.8586322956894416e-17 0.996194698091744 0.08715574274767791
vn 0 -0.9961946980917454 -0.08715574274766028
vn -6.408213706350117e-17 -0.08715574274765864 0.9961946980917457
vn 2.2428747972225376e-16 0.08715574274765828 -0.9961946980917457
vn 1 -5.636563240897541e-16 1.220420824697628e-15
vn -1 1.6021654917575986e-16 6.52774476853004e-16
vn 0 0.9953961983671792 0.0958457525202201
vn 0 -0.9953961983671789 -0.0958457525202252
vn -1.4802973661668758e-15 -0.09584575252022422 0.995396198367179
vn 0 0.09584575252022416 -0.9953961983671789
usemtl m_06327845-3ca3-2858-6960-bd87e4edcb39
f 1/1/1 2/2/1 3/3/1 4/4/1
f 5/5/2 6/6/2 7/7/2 8/8/2
f 5/9/3 2/10/3 1/11/3 6/12/3
f 7/13/4 4/14/4 3/15/4 8/16/4
f 6/17/5 1/18/5 4/19/5 7/20/5
f 2/21/6 5/22/6 8/23/6 3/24/6
f 9/25/7 10/26/7 11/27/7 12/28/7
f 13/29/8 14/30/8 15/31/8 16/32/8
f 11/33/9 10/34/9 15/35/9 14/36/9
f 9/37/10 12/38/10 13/39/10 16/40/10
f 12/41/11 11/42/11 14/43/11 13/44/11
f 16/45/12 15/46/12 10/47/12 9/48/12
f 17/49/13 18/50/13 19/51/13 20/52/13
f 21/53/14 22/54/14 23/55/14 24/56/14
f 22/57/15 18/58/15 17/59/15 23/60/15
f 20/61/16 19/62/16 21/63/16 24/64/16
f 19/65/17 18/66/17 22/67/17 21/68/17
f 23/69/18 17/70/18 20/71/18 24/72/18
f 25/73/19 26/74/19 27/75/19 28/76/19
f 29/77/20 30/78/20 31/79/20 32/80/20
f 27/81/21 26/82/21 31/83/21 30/84/21
f 25/85/22 28/86/22 29/87/22 32/88/22
f 28/89/23 27/90/23 30/91/23 29/92/23
f 32/93/24 31/94/24 26/95/24 25/96/24
f 33/97/25 34/98/25 35/99/25 36/100/25
f 37/101/26 38/102/26 39/103/26 40/104/26
f 35/105/27 34/106/27 39/107/27 38/108/27
f 33/109/28 36/110/28 37/111/28 40/112/28
f 36/113/29 35/114/29 38/115/29 37/116/29
f 40/117/30 39/118/30 34/119/30 33/120/30
f 41/121/31 42/122/31 43/123/31 44/124/31
f 45/125/32 46/126/32 47/127/32 48/128/32
f 43/129/33 42/130/33 47/131/33 46/132/33
f 41/133/34 44/134/34 45/135/34 48/136/34
f 44/137/35 43/138/35 46/139/35 45/140/35
f 48/141/36 47/142/36 42/143/36 41/144/36
f 49/145/37 50/146/37 51/147/37 52/148/37
f 53/149/38 54/150/38 55/151/38 56/152/38
f 51/153/39 50/154/39 55/155/39 54/156/39
f 49/157/40 52/158/40 53/159/40 56/160/40
f 52/161/41 51/162/41 54/163/41 53/164/41
f 56/165/42 55/166/42 50/167/42 49/168/42
f 57/169/43 58/170/43 59/171/43 60/172/43
f 61/173/44 62/174/44 63/175/44 64/176/44
f 59/177/45 58/178/45 63/179/45 62/180/45
f 57/181/46 60/182/46 61/183/46 64/184/46
f 60/185/47 59/186/47 62/187/47 61/188/47
f 64/189/48 63/190/48 58/191/48 57/192/48
f 65/193/49 66/194/49 67/195/49 68/196/49
f 69/197/50 70/198/50 71/199/50 72/200/50
f 67/201/51 66/202/51 71/203/51 70/204/51
f 65/205/52 68/206/52 69/207/52 72/208/52
f 68/209/53 67/210/53 70/211/53 69/212/53
f 72/213/54 71/214/54 66/215/54 65/216/54
f 73/217/55 74/218/55 75/219/55 76/220/55
f 77/221/56 78/222/56 79/223/56 80/224/56
f 75/225/57 74/226/57 79/227/57 78/228/57
f 73/229/58 76/230/58 77/231/58 80/232/58
f 76/233/59 75/234/59 78/235/59 77/236/59
f 80/237/60 79/238/60 74/239/60 73/240/60
f 81/241/61 82/242/61 83/243/61 84/244/61
f 85/245/62 86/246/62 87/247/62 88/248/62
f 83/249/63 82/250/63 87/251/63 86/252/63
f 81/253/64 84/254/64 85/255/64 88/256/64
f 84/257/65 83/258/65 86/259/65 85/260/65
f 88/261/66 87/262/66 82/263/66 81/264/66
f 89/265/67 90/266/67 91/267/67 92/268/67
f 93/269/68 94/270/68 95/271/68 96/272/68
f 91/273/69 90/274/69 95/275/69 94/276/69
f 89/277/70 92/278/70 93/279/70 96/280/70
f 92/281/71 91/282/71 94/283/71 93/284/71
f 96/285/72 95/286/72 90/287/72 89/288/72
f 97/289/73 98/290/73 99/291/73 100/292/73
f 101/293/74 102/294/74 103/295/74 104/296/74
f 99/297/75 98/298/75 103/299/75 102/300/75
f 97/301/76 100/302/76 101/303/76 104/304/76
f 100/305/77 99/306/77 102/307/77 101/308/77
f 104/309/78 103/310/78 98/311/78 97/312/78
f 105/313/79 106/314/79 107/315/79 108/316/79
f 109/317/80 110/318/80 111/319/80 112/320/80
f 107/321/81 106/322/81 111/323/81 110/324/81
f 105/325/82 108/326/82 109/327/82 112/328/82
f 108/329/83 107/330/83 110/331/83 109/332/83
f 112/333/84 111/334/84 106/335/84 105/336/84
f 113/337/85 114/338/85 115/339/85 116/340/85
f 117/341/86 118/342/86 119/343/86 120/344/86
f 115/345/87 114/346/87 119/347/87 118/348/87
f 113/349/88 116/350/88 117/351/88 120/352/88
f 116/353/89 115/354/89 118/355/89 117/356/89
f 120/357/90 119/358/90 114/359/90 113/360/90
f 121/361/91 122/362/91 123/363/91 124/364/91
f 125/365/92 126/366/92 127/367/92 128/368/92
f 123/369/93 122/370/93 127/371/93 126/372/93
f 121/373/94 124/374/94 125/375/94 128/376/94
f 124/377/95 123/378/95 126/379/95 125/380/95
f 128/381/96 127/382/96 122/383/96 121/384/96
f 129/385/97 130/386/97 131/387/97 132/388/97
f 133/389/98 134/390/98 135/391/98 136/392/98
f 131/393/99 130/394/99 135/395/99 134/396/99
f 129/397/100 132/398/100 133/399/100 136/400/100
f 132/401/101 131/402/101 134/403/101 133/404/101
f 136/405/102 135/406/102 130/407/102 129/408/102
f 137/409/103 138/410/103 139/411/103 140/412/103
f 141/413/104 142/414/104 143/415/104 144/416/104
f 139/417/105 138/418/105 143/419/105 142/420/105
f 137/421/106 140/422/106 141/423/106 144/424/106
f 140/425/107 139/426/107 142/427/107 141/428/107
f 144/429/108 143/430/108 138/431/108 137/432/108
f 145/433/109 146/434/109 147/435/109 148/436/109
f 149/437/110 150/438/110 151/439/110 152/440/110
f 147/441/111 146/442/111 151/443/111 150/444/111
f 145/445/112 148/446/112 149/447/112 152/448/112
f 148/449/113 147/450/113 150/451/113 149/452/113
f 152/453/114 151/454/114 146/455/114 145/456/114
f 153/457/115 154/458/115 155/459/115 156/460/115
f 157/461/116 158/462/116 159/463/116 160/464/116
f 155/465/117 154/466/117 159/467/117 158/468/117
f 153/469/118 156/470/118 157/471/118 160/472/118
f 156/473/119 155/474/119 158/475/119 157/476/119
f 160/477/120 159/478/120 154/479/120 153/480/120
f 161/481/121 162/482/121 163/483/121 164/484/121
f 165/485/122 166/486/122 167/487/122 168/488/122
f 163/489/123 162/490/123 167/491/123 166/492/123
f 161/493/124 164/494/124 165/495/124 168/496/124
f 164/497/125 163/498/125 166/499/125 165/500/125
f 168/501/126 167/502/126 162/503/126 161/504/126
f 169/505/127 170/506/127 171/507/127 172/508/127
f 173/509/128 174/510/128 175/511/128 176/512/128
f 171/513/129 170/514/129 175/515/129 174/516/129
f 169/517/130 172/518/130 173/519/130 176/520/130
f 172/521/131 171/522/131 174/523/131 173/524/131
f 176/525/132 175/526/132 170/527/132 169/528/132
f 177/529/133 178/530/133 179/531/133 180/532/133
f 181/533/134 182/534/134 183/535/134 184/536/134
f 179/537/135 178/538/135 183/539/135 182/540/135
f 177/541/136 180/542/136 181/543/136 184/544/136
f 180/545/137 179/546/137 182/547/137 181/548/137
f 184/549/138 183/550/138 178/551/138 177/552/138
f 185/553/139 186/554/139 187/555/139 188/556/139
f 189/557/140 190/558/140 191/559/140 192/560/140
f 187/561/141 186/562/141 191/563/141 190/564/141
f 185/565/142 188/566/142 189/567/142 192/568/142
f 188/569/143 187/570/143 190/571/143 189/572/143
f 192/573/144 191/574/144 186/575/144 185/576/144
f 193/577/145 194/578/145 195/579/145 196/580/145
f 197/581/146 198/582/146 199/583/146 200/584/146
f 195/585/147 194/586/147 199/587/147 198/588/147
f 193/589/148 196/590/148 197/591/148 200/592/148
f 196/593/149 195/594/149 198/595/149 197/596/149
f 200/597/150 199/598/150 194/599/150 193/600/150
f 201/601/151 202/602/151 203/603/151 204/604/151
f 205/605/152 206/606/152 207/607/152 208/608/152
f 203/609/153 202/610/153 207/611/153 206/612/153
f 201/613/154 204/614/154 205/615/154 208/616/154
f 204/617/155 203/618/155 206/619/155 205/620/155
f 208/621/156 207/622/156 202/623/156 201/624/156
f 209/625/157 210/626/157 211/627/157 212/628/157
f 213/629/158 214/630/158 215/631/158 216/632/158
f 211/633/159 210/634/159 215/635/159 214/636/159
f 209/637/160 212/638/160 213/639/160 216/640/160
f 212/641/161 211/642/161 214/643/161 213/644/161
f 216/645/162 215/646/162 210/647/162 209/648/162
f 217/649/163 218/650/163 219/651/163 220/652/163
f 221/653/164 222/654/164 223/655/164 224/656/164
f 219/657/165 218/658/165 223/659/165 222/660/165
f 217/661/166 220/662/166 221/663/166 224/664/166
f 220/665/167 219/666/167 222/667/167 221/668/167
f 224/669/168 223/670/168 218/671/168 217/672/168
f 225/673/169 226/674/169 227/675/169 228/676/169
f 229/677/170 230/678/170 231/679/170 232/680/170
f 227/681/171 226/682/171 231/683/171 230/684/171
f 225/685/172 228/686/172 229/687/172 232/688/172
f 228/689/173 227/690/173 230/691/173 229/692/173
f 232/693/174 231/694/174 226/695/174 225/696/174
f 233/697/175 234/698/175 235/699/175 236/700/175
f 237/701/176 238/702/176 239/703/176 240/704/176
f 235/705/177 234/706/177 239/707/177 238/708/177
f 233/709/178 236/710/178 237/711/178 240/712/178
f 236/713/179 235/714/179 238/715/179 237/716/179
f 240/717/180 239/718/180 234/719/180 233/720/180
f 241/721/181 242/722/181 243/723/181 244/724/181
f 245/725/182 246/726/182 247/727/182 248/728/182
f 243/729/183 242/730/183 247/731/183 246/732/183
f 241/733/184 244/734/184 245/735/184 248/736/184
f 244/737/185 243/738/185 246/739/185 245/740/185
f 248/741/186 247/742/186 242/743/186 241/744/186
f 249/745/187 250/746/187 251/747/187 252/748/187
f 253/749/188 254/750/188 255/751/188 256/752/188
f 251/753/189 250/754/189 255/755/189 254/756/189
f 249/757/190 252/758/190 253/759/190 256/760/190
f 252/761/191 251/762/191 254/763/191 253/764/191
f 256/765/192 255/766/192 250/767/192 249/768/192
f 257/769/193 258/770/193 259/771/193 260/772/193
f 261/773/194 262/774/194 263/775/194 264/776/194
f 259/777/195 258/778/195 263/779/195 262/780/195
f 257/781/196 260/782/196 261/783/196 264/784/196
f 260/785/197 259/786/197 262/787/197 261/788/197
f 264/789/198 263/790/198 258/791/198 257/792/198
f 265/793/199 266/794/199 267/795/199 268/796/199
f 269/797/200 270/798/200 271/799/200 272/800/200
f 267/801/201 266/802/201 271/803/201 270/804/201
f 265/805/202 268/806/202 269/807/202 272/808/202
f 268/809/203 267/810/203 270/811/203 269/812/203
f 272/813/204 271/814/204 266/815/204 265/816/204
f 273/817/205 274/818/205 275/819/205 276/820/205
f 277/821/206 278/822/206 279/823/206 280/824/206
f 275/825/207 274/826/207 279/827/207 278/828/207
f 273/829/208 276/830/208 277/831/208 280/832/208
f 276/833/209 275/834/209 278/835/209 277/836/209
f 280/837/210 279/838/210 274/839/210 273/840/210
f 281/841/211 282/842/211 283/843/211 284/844/211
f 285/845/212 286/846/212 287/847/212 288/848/212
f 283/849/213 282/850/213 287/851/213 286/852/213
f 281/853/214 284/854/214 285/855/214 288/856/214
f 284/857/215 283/858/215 286/859/215 285/860/215
f 288/861/216 287/862/216 282/863/216 281/864/216
f 289/865/217 290/866/217 291/867/217 292/868/217
f 293/869/218 294/870/218 295/871/218 296/872/218
f 291/873/219 290/874/219 295/875/219 294/876/219
f 289/877/220 292/878/220 293/879/220 296/880/220
f 292/881/221 291/882/221 294/883/221 293/884/221
f 296/885/222 295/886/222 290/887/222 289/888/222
f 297/889/223 298/890/223 299/891/223 300/892/223
f 301/893/224 302/894/224 303/895/224 304/896/224
f 299/897/225 298/898/225 303/899/225 302/900/225
f 297/901/226 300/902/226 301/903/226 304/904/226
f 300/905/227 299/906/227 302/907/227 301/908/227
f 304/909/228 303/910/228 298/911/228 297/912/228
