# Made in Blockbench 5.1.6
mtllib ukrainian_basic.mtl

o cube
v 0.1317729862703573 1.4603983842658532 -0.11391434090859677
v 0.14350557114837462 1.482056293556446 -0.18475417022262444
v 0.13177298627035733 1.2213221952750943 -0.18700726708928095
v 0.14350557114837462 1.2429801045656872 -0.2578470964033086
v 0.26140708097346915 1.4543954015430705 -0.09427946915106786
v 0.2731396658514864 1.4760533108336633 -0.16511929846509552
v 0.26140708097346915 1.2153192125523116 -0.16737239533175202
v 0.27309662379966027 1.243431232506437 -0.23839468663572666
v -0.13177298627035733 1.4603983842658532 -0.11391434090859665
v -0.1435055711483747 1.482056293556446 -0.1847541702226244
v -0.13177298627035738 1.2213221952750943 -0.18700726708928084
v -0.1435055711483747 1.2429801045656872 -0.2578470964033085
v -0.2614070809734692 1.4543954015430705 -0.09427946915106769
v -0.2731396658514865 1.4760533108336633 -0.16511929846509538
v -0.2614070809734692 1.2153192125523113 -0.16737239533175188
v -0.2730966237996604 1.243431232506437 -0.2383946866357265
v 0.25 1.3616651570856628 -0.19450125130443888
v 0.25 1.4964991823015024 -0.15456159345544968
v 0.25 1.37054063660766 -0.22446436801906985
v 0.25 1.5053746618234998 -0.1845247101700807
v -0.25000000000000006 1.3616651570856628 -0.19450125130443882
v -0.25000000000000006 1.4964991823015024 -0.15456159345544965
v -0.2500000000000001 1.37054063660766 -0.22446436801906983
v -0.25000000000000006 1.5053746618234998 -0.18452471017008076
v 0.14375000000000002 1.2434318749999997 -0.18275999999999998
v 0.14375000000000002 1.243431875 -0.25776
v 0.14375000000000002 0.868431875 -0.18275999999999998
v 0.14375 0.868431875 -0.25776
v -0.14375000000000004 1.243431875 -0.18275999999999995
v -0.14375000000000004 1.243431875 -0.25775999999999993
v -0.14375 0.868431875 -0.18275999999999995
v -0.14375000000000004 0.868431875 -0.25776
v 0.14375 1.4601233553479243 -0.11301249094089579
v 0.14375 1.4820512332021296 -0.18473534763812346
v 0.14375 1.2210471663571654 -0.18610541712158002
v 0.14375000000000002 1.2429750442113707 -0.25782827381880763
v -0.14375 1.4601233553479243 -0.11301249094089576
v -0.14375000000000004 1.4820512332021296 -0.18473534763812344
v -0.14375 1.2210471663571654 -0.18610541712158002
v -0.14375000000000004 1.2429750442113707 -0.2578282738188076
v -0.1322023897554992 1.2434318749999997 -0.18361813567485022
v -0.14328809559022 1.2434318749999997 -0.257794325426994
v -0.1322023897554992 0.8684318749999999 -0.18361813567485022
v -0.14328809559021993 0.8684318749999999 -0.257794325426994
v -0.2620107218217508 1.243431875 -0.16421815046408877
v -0.2730964276564716 1.243431875 -0.23839434021623246
v -0.2620107218217508 0.8684318749999999 -0.16421815046408883
v -0.2730964276564716 0.8684318749999999 -0.23839434021623251
v 0.2620107218217508 1.243431875 -0.16421815046408872
v 0.2730964276564716 1.243431875 -0.23839434021623246
v 0.2620107218217508 0.868431875 -0.1642181504640888
v 0.2730964276564716 0.8684318749999999 -0.23839434021623251
v 0.13220238975549917 1.2434318749999997 -0.1836181356748502
v 0.14328809559021996 1.2434318749999997 -0.25779432542699393
v 0.13220238975549917 0.8684318749999997 -0.18361813567485016
v 0.14328809559021996 0.8684318749999999 -0.25779432542699393
v -0.2420831550023675 1.1581960376146454 0.15874157705349512
v -0.2840207120661468 1.15837664750849 0.17120236304750425
v -0.27768769076187044 1.1553318032393252 0.038953793056989316
v -0.3196252478256498 1.1555124131331702 0.0514145790509985
v -0.24134422400664518 0.8707739733163959 0.16539446631431293
v -0.28328178107042457 0.8709545832102408 0.177855252308322
v -0.27694875976614813 0.8679097389410759 0.045606682317807096
v -0.3188863168299275 0.8680903488349209 0.05806746831181628
v -0.27928257602579537 1.1558098291717922 0.058832651269635494
v -0.32223576099779044 1.1555071482701869 0.05052634131675121
v -0.228822554878997 1.1499050562798723 -0.2018885802170994
v -0.27177573985099207 1.1496023753782667 -0.21019489016998366
v -0.2785436452967453 0.868387755910443 0.0654851533196466
v -0.3214968302687404 0.8680850750088376 0.057178843366762266
v -0.22808362414994682 0.8624829830185231 -0.19523607816708827
v -0.27103680912194184 0.8621803021169178 -0.20354238811997252
v 0.24134422400664512 0.870773973316396 0.16539446631431287
v 0.2832817810704245 0.8709545832102408 0.177855252308322
v 0.2769487597661481 0.8679097389410758 0.045606682317807096
v 0.3188863168299274 0.8680903488349208 0.05806746831181628
v 0.24208315500236738 1.1581960376146454 0.15874157705349512
v 0.28402071206614676 1.15837664750849 0.17120236304750425
v 0.27768769076187033 1.1553318032393252 0.038953793056989344
v 0.3196252478256497 1.1555124131331702 0.0514145790509985
v 0.27854364529674513 0.8683877559104429 0.06548515331964655
v 0.3214968302687402 0.8680850750088376 0.05717884336676224
v 0.22808362414994676 0.862482983018523 -0.1952360781670882
v 0.2710368091219417 0.8621803021169177 -0.20354238811997252
v 0.2792825760257953 1.1558098291717922 0.05883265126963552
v 0.3222357609977904 1.1555071482701869 0.05052634131675118
v 0.22882255487899694 1.1499050562798723 -0.20188858021709943
v 0.27177573985099196 1.1496023753782667 -0.21019489016998358
v 0.26875 1.243431875 0.1952600000000001
v 0.26875000000000004 1.2434318749999997 0.12026000000000014
v 0.26875 0.8684318749999997 0.19526000000000004
v 0.26875000000000004 0.8684318749999997 0.12026000000000014
v -0.26875 1.243431875 0.1952600000000001
v -0.26875000000000004 1.2434318749999997 0.12026000000000014
v -0.26875000000000004 0.8684318749999999 0.19526000000000004
v -0.26875000000000004 0.8684318749999999 0.12026000000000009
v 0.26874999999999993 1.49137799206126 0.1648043107867737
v 0.26874999999999993 1.4822377913058737 0.09036334941367452
v 0.26874999999999993 1.2432414541509293 0.19527164663806057
v 0.26874999999999993 1.2341012533955433 0.12083068526496138
v -0.26875000000000004 1.49137799206126 0.16480431078677377
v -0.26875000000000004 1.4822377913058737 0.09036334941367452
v -0.26875000000000004 1.2432414541509293 0.19527164663806057
v -0.26875000000000004 1.2341012533955433 0.12083068526496143
v -0.11238994094414939 1.31539486161908 0.11905119108582313
v -0.11155463348873335 1.3160208629835142 0.1627887365558956
v -0.18897966939972854 1.5533659463372136 0.11710791211054794
v -0.18814436194431255 1.5539919477016475 0.16084545758062035
v -0.26704518578786773 1.2656498268295315 0.12271680919415812
v -0.2662098783324516 1.2662758281939654 0.16645435466423064
v -0.34363491424344694 1.5036209115476649 0.12077353021888287
v -0.34279960678803084 1.5042469129120988 0.16451107568895534
v -0.20792582112001695 1.584940800613956 -0.10164048939851332
v -0.2105875487783842 1.5913347963906812 -0.14483880561430923
v -0.05338770691198452 1.2147772911912462 -0.16595230828811242
v -0.05604943457035169 1.2211712869679712 -0.20915062450390834
v -0.35788376242255054 1.5223399606409302 -0.10166646972711223
v -0.3605454900809177 1.5287339564176552 -0.14486478594290822
v -0.20334564821451806 1.1521764512182204 -0.16597828861671132
v -0.20600737587288526 1.1585704469949454 -0.20917660483250733
v -0.19431139964728145 1.5708737174246865 0.08065536777803783
v -0.20773826807992235 1.6124517184045286 0.07840780496182886
v -0.19547141346544744 1.5595361738763092 -0.12214966199003849
v -0.2088982818980883 1.6011141748561513 -0.12439722480624746
v -0.34896666031416973 1.5211287254566903 0.0843208994121723
v -0.3623935287468106 1.5627067264365324 0.08207333659596339
v -0.3501266741323357 1.509791181908313 -0.118484130355904
v -0.3635535425649766 1.5513691828881553 -0.12073169317211288
v -0.17705036467267016 1.5181984303026255 0.14316518741106188
v -0.18884480148856964 1.5562061172870958 0.16134125657593545
v -0.19539747484060377 1.5668628732707903 0.029498325313597695
v -0.20719191165650325 1.6048705602552609 0.04767439447847133
v -0.33170557919328375 1.46845329987073 0.1468307869386617
v -0.3435000160091832 1.5064609868552006 0.16500685610353527
v -0.35005268936121736 1.5171177428388947 0.0331639248411974
v -0.36184712617711684 1.5551254298233652 0.05133999400607109
v 0.33170557919328353 1.46845329987073 0.1468307869386617
v 0.343500016009183 1.5064609868552006 0.16500685610353533
v 0.35005268936121714 1.5171177428388947 0.0331639248411974
v 0.3618471261771167 1.5551254298233652 0.051339994006071116
v 0.17705036467267002 1.5181984303026255 0.14316518741106193
v 0.1888448014885695 1.5562061172870958 0.16134125657593545
v 0.19539747484060366 1.5668628732707903 0.029498325313597695
v 0.20719191165650308 1.6048705602552609 0.047674394478471355
v 0.2670451857878676 1.2656498268295315 0.12271680919415806
v 0.2662098783324516 1.2662758281939654 0.16645435466423064
v 0.3436349142434468 1.5036209115476649 0.12077353021888287
v 0.34279960678803073 1.5042469129120988 0.1645110756889554
v 0.1123899409441493 1.31539486161908 0.11905119108582313
v 0.11155463348873325 1.3160208629835142 0.1627887365558956
v 0.1889796693997285 1.5533659463372136 0.11710791211054788
v 0.18814436194431244 1.5539919477016475 0.1608454575806203
v 0.3489666603141697 1.5211287254566903 0.0843208994121723
v 0.3623935287468105 1.5627067264365324 0.08207333659596339
v 0.35012667413233556 1.509791181908313 -0.11848413035590398
v 0.3635535425649764 1.5513691828881553 -0.12073169317211288
v 0.19431139964728134 1.5708737174246865 0.08065536777803783
v 0.20773826807992227 1.6124517184045286 0.07840780496182892
v 0.19547141346544727 1.5595361738763092 -0.12214966199003845
v 0.20889828189808818 1.6011141748561513 -0.1243972248062474
v 0.35788376242255043 1.5223399606409302 -0.1016664697271122
v 0.36054549008091763 1.5287339564176552 -0.14486478594290822
v 0.20334564821451795 1.1521764512182204 -0.16597828861671132
v 0.2060073758728851 1.1585704469949454 -0.20917660483250733
v 0.2079258211200169 1.584940800613956 -0.10164048939851329
v 0.21058754877838404 1.5913347963906812 -0.14483880561430923
v 0.05338770691198445 1.2147772911912462 -0.1659523082881124
v 0.05604943457035161 1.2211712869679712 -0.2091506245039083
v -0.16572570268752673 1.6245962856943572 -0.17182249999999982
v -0.20874310489344977 1.6166234814540759 -0.17182249999999985
v -0.1315565416577491 1.440235990526116 -0.17182249999999977
v -0.17457394386367214 1.4322631862858342 -0.1718224999999999
v -0.1657257026875268 1.624596285694357 0.1781775000000001
v -0.20874310489344977 1.6166234814540759 0.1781775000000002
v -0.13155654165774916 1.440235990526116 0.17817750000000016
v -0.17457394386367214 1.4322631862858344 0.1781775000000001
v 0.1657257026875267 1.624596285694357 0.1781775000000001
v 0.20874310489344974 1.6166234814540759 0.1781775000000002
v 0.1315565416577491 1.440235990526116 0.1781775000000001
v 0.17457394386367214 1.4322631862858344 0.1781775000000001
v 0.1657257026875267 1.6245962856943572 -0.17182249999999985
v 0.2087431048934497 1.6166234814540759 -0.17182249999999982
v 0.1315565416577491 1.440235990526116 -0.17182249999999982
v 0.1745739438636721 1.4322631862858342 -0.1718224999999999
v 0.175 1.6245962856943572 -0.1625482026875266
v 0.17499999999999996 1.6166234814540759 -0.20556560489344955
v 0.17499999999999996 1.4402359905261157 -0.12837904165774888
v 0.175 1.4322631862858342 -0.17139644386367206
v -0.175 1.6245962856943572 -0.16254820268752665
v -0.17500000000000004 1.6166234814540759 -0.2055656048934496
v -0.17500000000000004 1.4402359905261157 -0.12837904165774897
v -0.17500000000000004 1.4322631862858342 -0.17139644386367203
v 0.175 1.6166234814540759 0.20556560489344994
v 0.175 1.6245962856943572 0.1625482026875269
v 0.175 1.4322631862858344 0.17139644386367225
v 0.175 1.4402359905261157 0.12837904165774927
v -0.1750000000000001 1.6166234814540759 0.20556560489344983
v -0.17500000000000004 1.6245962856943572 0.1625482026875269
v -0.175 1.4322631862858344 0.17139644386367225
v -0.17500000000000004 1.4402359905261157 0.12837904165774927
v -0.21250000000000008 0.8710801826274629 -0.13770542892368967
v -0.21250000000000008 0.8756533028954228 -0.18121576184605157
v -0.21250000000000008 0.7467649457064287 -0.1507714868321463
v -0.21250000000000002 0.7513380659743887 -0.19428181975450826
v -0.25000000000000006 0.8710801826274629 -0.13770542892368964
v -0.25000000000000006 0.8756533028954226 -0.1812157618460516
v -0.25000000000000006 0.7467649457064288 -0.15077148683214636
v -0.25000000000000006 0.7513380659743887 -0.19428181975450826
v -0.08125000000000004 0.8721766729771516 -0.1665851798021365
v -0.08125000000000004 0.8732661197614975 -0.1790376135282833
v -0.08125000000000002 0.6667115164957291 -0.18456105174384108
v -0.08125000000000002 0.667800963280075 -0.19701348546998781
v -0.21250000000000008 0.8721766729771516 -0.16658517980213652
v -0.21250000000000002 0.8732661197614975 -0.1790376135282833
v -0.21250000000000002 0.6667115164957291 -0.18456105174384108
v -0.21250000000000008 0.667800963280075 -0.19701348546998776
v -0.21440311269504497 0.7546017418548203 -0.1477409153987479
v -0.21440311269504497 0.7606905650218232 -0.19106514340619157
v -0.16656768364940872 0.6402406918035934 -0.16381331283038936
v -0.16656768364940877 0.6463295149705962 -0.20713754083783298
v -0.24904859516421823 0.7403907724732864 -0.14973813689755888
v -0.24904859516421823 0.7464795956402893 -0.1930623649050025
v -0.20121316611858198 0.6260297224220593 -0.16581053432920023
v -0.20121316611858203 0.6321185455890622 -0.20913476233664396
v -0.17562808871894703 0.6532229761662587 -0.1619887717497166
v -0.17562808871894708 0.6593117993332616 -0.20531299975716027
v -0.08723974107062862 0.5656948178412998 -0.17429005218066934
v -0.08723974107062862 0.5717836410083027 -0.21761428018811302
v -0.20214459301344256 0.6269645286687711 -0.1656791558790024
v -0.20214459301344256 0.6330533518357739 -0.20900338388644601
v -0.11375624536512413 0.5394363703438121 -0.1779804363099552
v -0.11375624536512413 0.545525193510815 -0.22130466431739887
v -0.03093592167691142 0.6180996319687055 -0.188814040552587
v -0.03093592167691145 0.6186443553608784 -0.19504025741566033
v -0.08396893026590263 0.5652684299884985 -0.1934361718063034
v -0.08396893026590263 0.5658131533806713 -0.1996623886693768
v -0.13258252147247762 0.7193594357641021 -0.17995495564963038
v -0.13258252147247768 0.719904159156275 -0.18618117251270375
v -0.1856155300614688 0.6665282337838951 -0.1845770869033468
v -0.1856155300614688 0.6670729571760677 -0.19080330376642024
v -0.10324182561109702 0.5728225424695936 -0.1732883158118801
v -0.10324182561109696 0.5789113656365965 -0.21661254381932382
v 0.012243115952813854 0.525452644531147 -0.1799457208079166
v 0.012243115952813827 0.5315414676981498 -0.22326994881536022
v -0.11759245432478788 0.5385142274542255 -0.17811003504137257
v -0.11759245432478788 0.5446030506212284 -0.2214342630488163
v -0.002107512760877034 0.4911443295157789 -0.18476744003740897
v -0.002107512760877006 0.4972331526827818 -0.2280916680448526
v 0.08124999999999999 0.8721766729771517 -0.16658517980213647
v 0.08124999999999999 0.8732661197614976 -0.17903761352828326
v 0.08124999999999999 0.5297347455081142 -0.1965449663716441
v 0.08124999999999999 0.5308241922924601 -0.20899740009779075
v -0.08125000000000004 0.8721766729771516 -0.1665851798021365
v -0.08125000000000004 0.8732661197614975 -0.1790376135282833
v -0.08125000000000004 0.5297347455081142 -0.19654496637164404
v -0.08125000000000002 0.5308241922924601 -0.20899740009779078
v 0.1175924543247878 0.5385142274542254 -0.17811003504137257
v 0.11759245432478783 0.5446030506212284 -0.22143426304881625
v 0.0021075127608769784 0.4911443295157789 -0.18476744003740903
v 0.002107512760877006 0.4972331526827818 -0.2280916680448526
v 0.10324182561109696 0.5728225424695937 -0.1732883158118802
v 0.10324182561109695 0.5789113656365965 -0.21661254381932382
v -0.012243115952813882 0.5254526445311469 -0.17994572080791654
v -0.012243115952813854 0.5315414676981498 -0.2232699488153602
v 0.2021445930134425 0.6269645286687711 -0.16567915587900234
v 0.20214459301344254 0.6330533518357739 -0.20900338388644601
v 0.1137562453651241 0.539436370343812 -0.1779804363099552
v 0.1137562453651241 0.5455251935108149 -0.22130466431739884
v 0.17562808871894703 0.6532229761662587 -0.16198877174971663
v 0.17562808871894703 0.6593117993332615 -0.20531299975716027
v 0.0872397410706286 0.5656948178412999 -0.17429005218066929
v 0.08723974107062858 0.5717836410083027 -0.21761428018811294
v 0.13258252147247762 0.7193594357641021 -0.17995495564963032
v 0.13258252147247762 0.7199041591562749 -0.18618117251270372
v 0.1856155300614688 0.6665282337838951 -0.1845770869033468
v 0.1856155300614688 0.6670729571760678 -0.19080330376642024
v 0.030935921676911407 0.6180996319687055 -0.188814040552587
v 0.030935921676911407 0.6186443553608784 -0.1950402574156603
v 0.08396893026590262 0.5652684299884985 -0.19343617180630335
v 0.08396893026590262 0.5658131533806713 -0.19966238866937677
v 0.2490485951642182 0.7403907724732864 -0.14973813689755885
v 0.24904859516421818 0.7464795956402893 -0.1930623649050025
v 0.20121316611858198 0.6260297224220593 -0.16581053432920026
v 0.20121316611858198 0.6321185455890622 -0.20913476233664394
v 0.21440311269504492 0.7546017418548203 -0.14774091539874795
v 0.21440311269504495 0.7606905650218233 -0.1910651434061916
v 0.16656768364940872 0.6402406918035934 -0.16381331283038936
v 0.16656768364940872 0.6463295149705961 -0.207137540837833
v 0.21249999999999997 0.8721766729771516 -0.16658517980213647
v 0.21249999999999997 0.8732661197614976 -0.17903761352828323
v 0.21249999999999997 0.6667115164957292 -0.18456105174384105
v 0.21249999999999997 0.667800963280075 -0.19701348546998781
v 0.08124999999999999 0.8721766729771517 -0.16658517980213647
v 0.08124999999999998 0.8732661197614976 -0.17903761352828326
v 0.08124999999999999 0.6667115164957292 -0.18456105174384105
v 0.08124999999999999 0.667800963280075 -0.1970134854699878
v 0.25 0.872004820233743 -0.1438938688010255
v 0.25000000000000006 0.8761980719065027 -0.18744245247958966
v 0.25 0.7475802954378455 -0.15587458786605354
v 0.25 0.7517735471106054 -0.19942317154461767
v 0.21250000000000005 0.872004820233743 -0.14389386880102556
v 0.21250000000000002 0.8761980719065027 -0.18744245247958966
v 0.21250000000000002 0.7475802954378455 -0.15587458786605354
v 0.21250000000000002 0.7517735471106054 -0.19942317154461767
vt 0.67578125 0.953125
vt 0.65625 0.953125
vt 0.65625 0.890625
vt 0.67578125 0.890625
vt 0.69076171875 0.453125
vt 0.67201171875 0.453125
vt 0.67201171875 0.390625
vt 0.69126953125 0.39215468750000004
vt 0.421875 0.25
vt 0.390625 0.25
vt 0.390625 0.23046875
vt 0.421875 0.23046875
vt 0.7537690750641317 0.5588019629339674
vt 0.7532599174593085 0.5916105123499878
vt 0.7345121749358683 0.5913195651472317
vt 0.7345121749358683 0.55859375
vt 0.15625 0.421875
vt 0.125 0.421875
vt 0.125 0.359375
vt 0.15625 0.359375
vt 0.25 0.421875
vt 0.21875 0.421875
vt 0.218840625 0.360903125
vt 0.25 0.35937656250000005
vt 0.11328125 0.28125
vt 0.11328125 0.34375
vt 0.09375 0.34375
vt 0.09375 0.28125
vt 0.16015625 0.28125
vt 0.16015625 0.34375
vt 0.1411328125 0.34375
vt 0.140625 0.28277968750000004
vt 0.46875 0.23046875
vt 0.46875 0.25
vt 0.4375 0.25
vt 0.4375 0.23046875
vt 0.515625 0.23097656249999998
vt 0.515625 0.24972656250000003
vt 0.484375 0.24972656250000003
vt 0.484465625 0.23046875
vt 0.203125 0.359375
vt 0.203125 0.421875
vt 0.171875 0.421875
vt 0.171875 0.359375
vt 0.47139375 0.407778125
vt 0.471484375 0.46875
vt 0.438671875 0.46875
vt 0.438671875 0.40625156250000005
vt 0.84765625 0.59375
vt 0.8125 0.59375
vt 0.8125 0.5859375
vt 0.84765625 0.5859375
vt 0.86328125 0.8671875
vt 0.86328125 0.875
vt 0.828125 0.875
vt 0.828125 0.8671875
vt 0.34375 0.79296875
vt 0.46875 0.79296875
vt 0.46875 0.828125
vt 0.34375 0.828125
vt 0.3125 0.62109375
vt 0.3125 0.65625
vt 0.1875 0.65625
vt 0.1875 0.62109375
vt 0.828125 0.3671875
vt 0.828125 0.375
vt 0.703125 0.375
vt 0.703125 0.3671875
vt 0.828125 0.34375
vt 0.703125 0.34375
vt 0.703125 0.3359375
vt 0.828125 0.3359375
vt 0.28515625 0.328125
vt 0.28515625 0.421875
vt 0.265625 0.421875
vt 0.265625 0.328125
vt 0.01953125 0.3125
vt 0.01953125 0.40625
vt 0 0.40625
vt 0 0.3125
vt 0.609375 1
vt 0.609375 0.98046875
vt 0.6796875 0.98046875
vt 0.6796875 1
vt 0.640625 0.82421875
vt 0.640625 0.84375
vt 0.7109375 0.84375
vt 0.7109375 0.82421875
vt 0.0703125 0.6875
vt 0.0703125 0.78125
vt 0 0.78125
vt 0 0.6875
vt 0.2265625 0.75
vt 0.2265625 0.84375
vt 0.15625 0.84375
vt 0.15625 0.75
vt 0.51953125 0.296875
vt 0.51953125 0.359375
vt 0.5 0.359375
vt 0.5 0.296875
vt 0.56640625 0.296875
vt 0.56640625 0.359375
vt 0.546875 0.359375
vt 0.546875 0.296875
vt 0.640625 0.59375
vt 0.640625 0.57421875
vt 0.7109375 0.57421875
vt 0.7109375 0.59375
vt 0.640625 0.52734375
vt 0.640625 0.546875
vt 0.7109375 0.546875
vt 0.7109375 0.52734375
vt 0.4140625 0.84375
vt 0.4140625 0.90625
vt 0.34375 0.90625
vt 0.34375 0.84375
vt 0.0703125 0.609375
vt 0.0703125 0.671875
vt 0 0.671875
vt 0 0.609375
vt 0.06640625 0.3125
vt 0.06640625 0.40625
vt 0.046875 0.40625
vt 0.046875 0.3125
vt 0.33203125 0.3125
vt 0.33203125 0.40625
vt 0.3125 0.40625
vt 0.3125 0.3125
vt 0.734375 0.53125
vt 0.734375 0.51171875
vt 0.765625 0.51171875
vt 0.765625 0.53125
vt 0.734375 0.26171875
vt 0.734375 0.28125
vt 0.765625 0.28125
vt 0.765625 0.26171875
vt 0.265625 0.4375
vt 0.265625 0.53125
vt 0.234375 0.53125
vt 0.234375 0.4375
vt 0.21875 0.4375
vt 0.21875 0.53125
vt 0.1875 0.53125
vt 0.1875 0.4375
vt 0.61328125 0.484375
vt 0.61328125 0.578125
vt 0.59375 0.578125
vt 0.59375 0.484375
vt 0.62890625 0.6875
vt 0.62890625 0.78125
vt 0.609375 0.78125
vt 0.609375 0.6875
vt 0.296875 0.25
vt 0.296875 0.23046875
vt 0.328125 0.23046875
vt 0.328125 0.25
vt 0.34375 0.23046875
vt 0.34375 0.25
vt 0.375 0.25
vt 0.375 0.23046875
vt 0.359375 0.421875
vt 0.359375 0.515625
vt 0.328125 0.515625
vt 0.328125 0.421875
vt 0.3125 0.4375
vt 0.3125 0.53125
vt 0.28125 0.53125
vt 0.28125 0.4375
vt 0.63671875 0.1875
vt 0.63671875 0.21875
vt 0.625 0.21875
vt 0.625 0.1875
vt 0.49609375 0.171875
vt 0.49609375 0.203125
vt 0.484375 0.203125
vt 0.484375 0.171875
vt 0 0.296875
vt 0 0.28515625
vt 0.0703125 0.28515625
vt 0.0703125 0.296875
vt 0.703125 0.30078125
vt 0.703125 0.3125
vt 0.7734375 0.3125
vt 0.7734375 0.30078125
vt 0.5703125 0.53125
vt 0.5703125 0.5625
vt 0.5 0.5625
vt 0.5 0.53125
vt 0.1640625 0.609375
vt 0.1640625 0.640625
vt 0.09375 0.640625
vt 0.09375 0.609375
vt 0.63671875 0.24609375
vt 0.63671875 0.3125
vt 0.625 0.3125
vt 0.625 0.24609375
vt 0.71484375 0.21484375
vt 0.71484375 0.28125
vt 0.703125 0.28125
vt 0.703125 0.21484375
vt 0.71875 0.734375
vt 0.71875 0.72265625
vt 0.7890625 0.72265625
vt 0.7890625 0.734375
vt 0.296875 0.26953125
vt 0.296875 0.28125
vt 0.3671875 0.28125
vt 0.3671875 0.26953125
vt 0.3203125 0.68359375
vt 0.3203125 0.75
vt 0.25 0.75
vt 0.25 0.68359375
vt 0.3203125 0.77734375
vt 0.3203125 0.84375
vt 0.25 0.84375
vt 0.25 0.77734375
vt 0.82421875 0.9375
vt 0.82421875 0.96875
vt 0.8125 0.96875
vt 0.8125 0.9375
vt 0.07421875 0.15625
vt 0.07421875 0.1875
vt 0.0625 0.1875
vt 0.0625 0.15625
vt 0.71875 0.703125
vt 0.71875 0.69140625
vt 0.7890625 0.69140625
vt 0.7890625 0.703125
vt 0.390625 0.26953125
vt 0.390625 0.28125
vt 0.4609375 0.28125
vt 0.4609375 0.26953125
vt 0.5859375 0.671875
vt 0.5859375 0.703125
vt 0.515625 0.703125
vt 0.515625 0.671875
vt 0.5859375 0.96875
vt 0.5859375 1
vt 0.515625 1
vt 0.515625 0.96875
vt 0.01171875 0.19921875
vt 0.01171875 0.265625
vt 0 0.265625
vt 0 0.19921875
vt 0.04296875 0.19921875
vt 0.04296875 0.265625
vt 0.03125 0.265625
vt 0.03125 0.19921875
vt 0.484375 0.28125
vt 0.484375 0.26953125
vt 0.5546875 0.26953125
vt 0.5546875 0.28125
vt 0.71875 0.44140625
vt 0.71875 0.453125
vt 0.7890625 0.453125
vt 0.7890625 0.44140625
vt 0.3828125 0.93359375
vt 0.3828125 1
vt 0.3125 1
vt 0.3125 0.93359375
vt 0.1640625 0.66796875
vt 0.1640625 0.734375
vt 0.09375 0.734375
vt 0.09375 0.66796875
vt 0.37890625 0.296875
vt 0.37890625 0.390625
vt 0.359375 0.390625
vt 0.359375 0.296875
vt 0.42578125 0.296875
vt 0.42578125 0.390625
vt 0.40625 0.390625
vt 0.40625 0.296875
vt 0.484375 0.828125
vt 0.484375 0.80859375
vt 0.6171875 0.80859375
vt 0.6171875 0.828125
vt 0.375 0.49609375
vt 0.375 0.515625
vt 0.5078125 0.515625
vt 0.5078125 0.49609375
vt 0.1328125 0.796875
vt 0.1328125 0.890625
vt 0 0.890625
vt 0 0.796875
vt 0.1328125 0.90625
vt 0.1328125 1
vt 0 1
vt 0 0.90625
vt 0.20703125 0.28125
vt 0.20703125 0.34375
vt 0.1875 0.34375
vt 0.1875 0.28125
vt 0.67578125 0.734375
vt 0.67578125 0.796875
vt 0.65625 0.796875
vt 0.65625 0.734375
vt 0.5 0.9375
vt 0.5 0.91796875
vt 0.6328125 0.91796875
vt 0.6328125 0.9375
vt 0.5 0.87109375
vt 0.5 0.890625
vt 0.6328125 0.890625
vt 0.6328125 0.87109375
vt 0.2890625 0.859375
vt 0.2890625 0.921875
vt 0.15625 0.921875
vt 0.15625 0.859375
vt 0.2890625 0.9375
vt 0.2890625 1
vt 0.15625 1
vt 0.15625 0.9375
vt 0.58984375 0.71875
vt 0.58984375 0.78125
vt 0.578125 0.78125
vt 0.578125 0.71875
vt 0.07421875 0.203125
vt 0.07421875 0.265625
vt 0.0625 0.265625
vt 0.0625 0.203125
vt 0.734375 0.484375
vt 0.734375 0.47265625
vt 0.7734375 0.47265625
vt 0.7734375 0.484375
vt 0.765625 0.86328125
vt 0.765625 0.875
vt 0.8046875 0.875
vt 0.8046875 0.86328125
vt 0.5390625 0.578125
vt 0.5390625 0.640625
vt 0.5 0.640625
vt 0.5 0.578125
vt 0.2265625 0.671875
vt 0.2265625 0.734375
vt 0.1875 0.734375
vt 0.1875 0.671875
vt 0.60546875 0.2578125
vt 0.60546875 0.359375
vt 0.59375 0.359375
vt 0.59375 0.2578125
vt 0.24609375 0.2421875
vt 0.24609375 0.34375
vt 0.234375 0.34375
vt 0.234375 0.2421875
vt 0.78125 0.5625
vt 0.78125 0.55078125
vt 0.8203125 0.55078125
vt 0.8203125 0.5625
vt 0.78125 0.51953125
vt 0.78125 0.53125
vt 0.8203125 0.53125
vt 0.8203125 0.51953125
vt 0.4921875 0.6640625
vt 0.4921875 0.765625
vt 0.453125 0.765625
vt 0.453125 0.6640625
vt 0.4765625 0.5390625
vt 0.4765625 0.640625
vt 0.4375 0.640625
vt 0.4375 0.5390625
vt 0.54296875 0.19921875
vt 0.54296875 0.25
vt 0.53125 0.25
vt 0.53125 0.19921875
vt 0.57421875 0.19921875
vt 0.57421875 0.25
vt 0.5625 0.25
vt 0.5625 0.19921875
vt 0.78125 0.421875
vt 0.78125 0.41015625
vt 0.8203125 0.41015625
vt 0.8203125 0.421875
vt 0.78125 0.26953125
vt 0.78125 0.28125
vt 0.8203125 0.28125
vt 0.8203125 0.26953125
vt 0.6015625 0.60546875
vt 0.6015625 0.65625
vt 0.5625 0.65625
vt 0.5625 0.60546875
vt 0.5703125 0.46484375
vt 0.5703125 0.515625
vt 0.53125 0.515625
vt 0.53125 0.46484375
vt 0.82421875 0.890625
vt 0.82421875 0.921875
vt 0.8125 0.921875
vt 0.8125 0.890625
vt 0.10546875 0.15625
vt 0.10546875 0.1875
vt 0.09375 0.1875
vt 0.09375 0.15625
vt 0.796875 0.84375
vt 0.796875 0.83203125
vt 0.8359375 0.83203125
vt 0.8359375 0.84375
vt 0.296875 0.19140625
vt 0.296875 0.203125
vt 0.3359375 0.203125
vt 0.3359375 0.19140625
vt 0.6953125 0.6875
vt 0.6953125 0.71875
vt 0.65625 0.71875
vt 0.65625 0.6875
vt 0.1328125 0.75
vt 0.1328125 0.78125
vt 0.09375 0.78125
vt 0.09375 0.75
vt 0.13671875 0.15625
vt 0.13671875 0.1875
vt 0.125 0.1875
vt 0.125 0.15625
vt 0.82421875 0.78125
vt 0.82421875 0.8125
vt 0.8125 0.8125
vt 0.8125 0.78125
vt 0.796875 0.671875
vt 0.796875 0.66015625
vt 0.8359375 0.66015625
vt 0.8359375 0.671875
vt 0.359375 0.19140625
vt 0.359375 0.203125
vt 0.3984375 0.203125
vt 0.3984375 0.19140625
vt 0.7109375 0.46875
vt 0.7109375 0.5
vt 0.671875 0.5
vt 0.671875 0.46875
vt 0.7109375 0.640625
vt 0.7109375 0.671875
vt 0.671875 0.671875
vt 0.671875 0.640625
vt 0.10546875 0.203125
vt 0.10546875 0.265625
vt 0.09375 0.265625
vt 0.09375 0.203125
vt 0.13671875 0.203125
vt 0.13671875 0.265625
vt 0.125 0.265625
vt 0.125 0.203125
vt 0.421875 0.203125
vt 0.421875 0.19140625
vt 0.4609375 0.19140625
vt 0.4609375 0.203125
vt 0.796875 0.48828125
vt 0.796875 0.5
vt 0.8359375 0.5
vt 0.8359375 0.48828125
vt 0.4140625 0.40625
vt 0.4140625 0.46875
vt 0.375 0.46875
vt 0.375 0.40625
vt 0.5546875 0.71875
vt 0.5546875 0.78125
vt 0.515625 0.78125
vt 0.515625 0.71875
vt 0.66796875 0.19921875
vt 0.66796875 0.25
vt 0.65625 0.25
vt 0.65625 0.19921875
vt 0.60546875 0.18359375
vt 0.60546875 0.234375
vt 0.59375 0.234375
vt 0.59375 0.18359375
vt 0.796875 0.3125
vt 0.796875 0.30078125
vt 0.8359375 0.30078125
vt 0.8359375 0.3125
vt 0.796875 0.23828125
vt 0.796875 0.25
vt 0.8359375 0.25
vt 0.8359375 0.23828125
vt 0.6015625 0.38671875
vt 0.6015625 0.4375
vt 0.5625 0.4375
vt 0.5625 0.38671875
vt 0.5390625 0.38671875
vt 0.5390625 0.4375
vt 0.5 0.4375
vt 0.5 0.38671875
vt 0.68359375 0.2734375
vt 0.68359375 0.375
vt 0.671875 0.375
vt 0.671875 0.2734375
vt 0.27734375 0.2109375
vt 0.27734375 0.3125
vt 0.265625 0.3125
vt 0.265625 0.2109375
vt 0.796875 0.21875
vt 0.796875 0.20703125
vt 0.8359375 0.20703125
vt 0.8359375 0.21875
vt 0.8125 0.98828125
vt 0.8125 1
vt 0.8515625 1
vt 0.8515625 0.98828125
vt 0.1015625 0.4296875
vt 0.1015625 0.53125
vt 0.0625 0.53125
vt 0.0625 0.4296875
vt 0.0390625 0.4296875
vt 0.0390625 0.53125
vt 0 0.53125
vt 0 0.4296875
vt 0.32421875 0.859375
vt 0.32421875 0.90625
vt 0.3125 0.90625
vt 0.3125 0.859375
vt 0.10546875 0.359375
vt 0.10546875 0.40625
vt 0.09375 0.40625
vt 0.09375 0.359375
vt 0.65625 0.875
vt 0.65625 0.86328125
vt 0.7421875 0.86328125
vt 0.7421875 0.875
vt 0.671875 0.61328125
vt 0.671875 0.625
vt 0.7578125 0.625
vt 0.7578125 0.61328125
vt 0.4296875 0.65625
vt 0.4296875 0.703125
vt 0.34375 0.703125
vt 0.34375 0.65625
vt 0.4296875 0.71875
vt 0.4296875 0.765625
vt 0.34375 0.765625
vt 0.34375 0.71875
vt 0.74609375 0.1875
vt 0.74609375 0.234375
vt 0.734375 0.234375
vt 0.734375 0.1875
vt 0.77734375 0.1875
vt 0.77734375 0.234375
vt 0.765625 0.234375
vt 0.765625 0.1875
vt 0.703125 1
vt 0.703125 0.98828125
vt 0.7890625 0.98828125
vt 0.7890625 1
vt 0.703125 0.95703125
vt 0.703125 0.96875
vt 0.7890625 0.96875
vt 0.7890625 0.95703125
vt 0.0859375 0.546875
vt 0.0859375 0.59375
vt 0 0.59375
vt 0 0.546875
vt 0.4140625 0.59375
vt 0.4140625 0.640625
vt 0.328125 0.640625
vt 0.328125 0.59375
vt 0.16796875 0.171875
vt 0.16796875 0.21875
vt 0.15625 0.21875
vt 0.15625 0.171875
vt 0.19921875 0.171875
vt 0.19921875 0.21875
vt 0.1875 0.21875
vt 0.1875 0.171875
vt 0.703125 0.9375
vt 0.703125 0.92578125
vt 0.7890625 0.92578125
vt 0.7890625 0.9375
vt 0.703125 0.89453125
vt 0.703125 0.90625
vt 0.7890625 0.90625
vt 0.7890625 0.89453125
vt 0.1953125 0.546875
vt 0.1953125 0.59375
vt 0.109375 0.59375
vt 0.109375 0.546875
vt 0.4921875 0.953125
vt 0.4921875 1
vt 0.40625 1
vt 0.40625 0.953125
vt 0.23046875 0.171875
vt 0.23046875 0.21875
vt 0.21875 0.21875
vt 0.21875 0.171875
vt 0.79296875 0.578125
vt 0.79296875 0.625
vt 0.78125 0.625
vt 0.78125 0.578125
vt 0.703125 0.796875
vt 0.703125 0.78515625
vt 0.7890625 0.78515625
vt 0.7890625 0.796875
vt 0.703125 0.75390625
vt 0.703125 0.765625
vt 0.7890625 0.765625
vt 0.7890625 0.75390625
vt 0.4140625 0.53125
vt 0.4140625 0.578125
vt 0.328125 0.578125
vt 0.328125 0.53125
vt 0.3046875 0.546875
vt 0.3046875 0.59375
vt 0.21875 0.59375
vt 0.21875 0.546875
vt 0.82421875 0.734375
vt 0.82421875 0.765625
vt 0.8125 0.765625
vt 0.8125 0.734375
vt 0.26171875 0.15625
vt 0.26171875 0.1875
vt 0.25 0.1875
vt 0.25 0.15625
vt 0.40625 0.9375
vt 0.40625 0.92578125
vt 0.4140625 0.92578125
vt 0.4140625 0.9375
vt 0.5 0.45703125
vt 0.5 0.46875
vt 0.5078125 0.46875
vt 0.5078125 0.45703125
vt 0.7265625 0.140625
vt 0.7265625 0.171875
vt 0.71875 0.171875
vt 0.71875 0.140625
vt 0.6640625 0.140625
vt 0.6640625 0.171875
vt 0.65625 0.171875
vt 0.65625 0.140625
vt 0.58203125 0.10546875
vt 0.58203125 0.15625
vt 0.578125 0.15625
vt 0.578125 0.10546875
vt 0.84765625 0.37109375
vt 0.84765625 0.421875
vt 0.84375 0.421875
vt 0.84375 0.37109375
vt 0.453125 0.3125
vt 0.453125 0.30859375
vt 0.484375 0.30859375
vt 0.484375 0.3125
vt 0.859375 0.24609375
vt 0.859375 0.25
vt 0.890625 0.25
vt 0.890625 0.24609375
vt 0.65625 0.62109375
vt 0.65625 0.671875
vt 0.625 0.671875
vt 0.625 0.62109375
vt 0.484375 0.33984375
vt 0.484375 0.390625
vt 0.453125 0.390625
vt 0.453125 0.33984375
vt 0.82421875 0.6875
vt 0.82421875 0.71875
vt 0.8125 0.71875
vt 0.8125 0.6875
vt 0.82421875 0.609375
vt 0.82421875 0.640625
vt 0.8125 0.640625
vt 0.8125 0.609375
vt 0.59375 0.46875
vt 0.59375 0.45703125
vt 0.6015625 0.45703125
vt 0.6015625 0.46875
vt 0.640625 0.48828125
vt 0.640625 0.5
vt 0.6484375 0.5
vt 0.6484375 0.48828125
vt 0.8359375 0.15625
vt 0.8359375 0.1875
vt 0.828125 0.1875
vt 0.828125 0.15625
vt 0.7578125 0.140625
vt 0.7578125 0.171875
vt 0.75 0.171875
vt 0.75 0.140625
vt 0.82421875 0.4375
vt 0.82421875 0.46875
vt 0.8125 0.46875
vt 0.8125 0.4375
vt 0.69921875 0.15625
vt 0.69921875 0.1875
vt 0.6875 0.1875
vt 0.6875 0.15625
vt 0.125 0.140625
vt 0.125 0.12890625
vt 0.1328125 0.12890625
vt 0.1328125 0.140625
vt 0.25 0.12890625
vt 0.25 0.140625
vt 0.2578125 0.140625
vt 0.2578125 0.12890625
vt 0.8515625 0.890625
vt 0.8515625 0.921875
vt 0.84375 0.921875
vt 0.84375 0.890625
vt 0.8515625 0.9375
vt 0.8515625 0.96875
vt 0.84375 0.96875
vt 0.84375 0.9375
vt 0.87890625 0.79296875
vt 0.87890625 0.8125
vt 0.875 0.8125
vt 0.875 0.79296875
vt 0.87890625 0.74609375
vt 0.87890625 0.765625
vt 0.875 0.765625
vt 0.875 0.74609375
vt 0.859375 0.84375
vt 0.859375 0.83984375
vt 0.89453125 0.83984375
vt 0.89453125 0.84375
vt 0.859375 0.66796875
vt 0.859375 0.671875
vt 0.89453125 0.671875
vt 0.89453125 0.66796875
vt 0.19140625 0.24609375
vt 0.19140625 0.265625
vt 0.15625 0.265625
vt 0.15625 0.24609375
vt 0.75390625 0.40234375
vt 0.75390625 0.421875
vt 0.71875 0.421875
vt 0.71875 0.40234375
vt 0.80859375 0.15625
vt 0.80859375 0.1875
vt 0.796875 0.1875
vt 0.796875 0.15625
vt 0.01171875 0.140625
vt 0.01171875 0.171875
vt 0 0.171875
vt 0 0.140625
vt 0.6875 0.140625
vt 0.6875 0.12890625
vt 0.6953125 0.12890625
vt 0.6953125 0.140625
vt 0.859375 0.17578125
vt 0.859375 0.1875
vt 0.8671875 0.1875
vt 0.8671875 0.17578125
vt 0.1953125 0.125
vt 0.1953125 0.15625
vt 0.1875 0.15625
vt 0.1875 0.125
vt 0.1640625 0.125
vt 0.1640625 0.15625
vt 0.15625 0.15625
vt 0.15625 0.125
vt 0.55078125 0.0859375
vt 0.55078125 0.171875
vt 0.546875 0.171875
vt 0.546875 0.0859375
vt 0.62890625 0.0859375
vt 0.62890625 0.171875
vt 0.625 0.171875
vt 0.625 0.0859375
vt 0.84375 0.34375
vt 0.84375 0.33984375
vt 0.8828125 0.33984375
vt 0.8828125 0.34375
vt 0.84375 0.27734375
vt 0.84375 0.28125
vt 0.8828125 0.28125
vt 0.8828125 0.27734375
vt 0.1640625 0.4453125
vt 0.1640625 0.53125
vt 0.125 0.53125
vt 0.125 0.4453125
vt 0.4765625 0.8515625
vt 0.4765625 0.9375
vt 0.4375 0.9375
vt 0.4375 0.8515625
vt 0.04296875 0.140625
vt 0.04296875 0.171875
vt 0.03125 0.171875
vt 0.03125 0.140625
vt 0.29296875 0.140625
vt 0.29296875 0.171875
vt 0.28125 0.171875
vt 0.28125 0.140625
vt 0.828125 0.140625
vt 0.828125 0.12890625
vt 0.8359375 0.12890625
vt 0.8359375 0.140625
vt 0.859375 0.14453125
vt 0.859375 0.15625
vt 0.8671875 0.15625
vt 0.8671875 0.14453125
vt 0.2265625 0.125
vt 0.2265625 0.15625
vt 0.21875 0.15625
vt 0.21875 0.125
vt 0.8515625 0.78125
vt 0.8515625 0.8125
vt 0.84375 0.8125
vt 0.84375 0.78125
vt 0.32421875 0.140625
vt 0.32421875 0.171875
vt 0.3125 0.171875
vt 0.3125 0.140625
vt 0.35546875 0.140625
vt 0.35546875 0.171875
vt 0.34375 0.171875
vt 0.34375 0.140625
vt 0 0.125
vt 0 0.11328125
vt 0.0078125 0.11328125
vt 0.0078125 0.125
vt 0.875 0.98828125
vt 0.875 1
vt 0.8828125 1
vt 0.8828125 0.98828125
vt 0.8515625 0.6875
vt 0.8515625 0.71875
vt 0.84375 0.71875
vt 0.84375 0.6875
vt 0.8515625 0.734375
vt 0.8515625 0.765625
vt 0.84375 0.765625
vt 0.84375 0.734375
vt 0.28515625 0.10546875
vt 0.28515625 0.125
vt 0.28125 0.125
vt 0.28125 0.10546875
vt 0.87890625 0.69921875
vt 0.87890625 0.71875
vt 0.875 0.71875
vt 0.875 0.69921875
vt 0.859375 0.515625
vt 0.859375 0.51171875
vt 0.89453125 0.51171875
vt 0.89453125 0.515625
vt 0.859375 0.30859375
vt 0.859375 0.3125
vt 0.89453125 0.3125
vt 0.89453125 0.30859375
vt 0.76953125 0.65234375
vt 0.76953125 0.671875
vt 0.734375 0.671875
vt 0.734375 0.65234375
vt 0.76953125 0.82421875
vt 0.76953125 0.84375
vt 0.734375 0.84375
vt 0.734375 0.82421875
vt 0.38671875 0.140625
vt 0.38671875 0.171875
vt 0.375 0.171875
vt 0.375 0.140625
vt 0.41796875 0.140625
vt 0.41796875 0.171875
vt 0.40625 0.171875
vt 0.40625 0.140625
vt 0.03125 0.125
vt 0.03125 0.11328125
vt 0.0390625 0.11328125
vt 0.0390625 0.125
vt 0.875 0.95703125
vt 0.875 0.96875
vt 0.8828125 0.96875
vt 0.8828125 0.95703125
vt 0.8515625 0.53125
vt 0.8515625 0.5625
vt 0.84375 0.5625
vt 0.84375 0.53125
vt 0.8515625 0.609375
vt 0.8515625 0.640625
vt 0.84375 0.640625
vt 0.84375 0.609375
vt 0.06640625 0.08984375
vt 0.06640625 0.140625
vt 0.0625 0.140625
vt 0.0625 0.08984375
vt 0.09765625 0.08984375
vt 0.09765625 0.140625
vt 0.09375 0.140625
vt 0.09375 0.08984375
vt 0.78125 0.140625
vt 0.78125 0.13671875
vt 0.8125 0.13671875
vt 0.8125 0.140625
vt 0.859375 0.21484375
vt 0.859375 0.21875
vt 0.890625 0.21875
vt 0.890625 0.21484375
vt 0.65625 0.33984375
vt 0.65625 0.390625
vt 0.625 0.390625
vt 0.625 0.33984375
vt 0.65625 0.41796875
vt 0.65625 0.46875
vt 0.625 0.46875
vt 0.625 0.41796875
vt 0.44921875 0.140625
vt 0.44921875 0.171875
vt 0.4375 0.171875
vt 0.4375 0.140625
vt 0.52734375 0.140625
vt 0.52734375 0.171875
vt 0.515625 0.171875
vt 0.515625 0.140625
vt 0.875 0.9375
vt 0.875 0.92578125
vt 0.8828125 0.92578125
vt 0.8828125 0.9375
vt 0.875 0.89453125
vt 0.875 0.90625
vt 0.8828125 0.90625
vt 0.8828125 0.89453125
vt 0.8515625 0.4375
vt 0.8515625 0.46875
vt 0.84375 0.46875
vt 0.84375 0.4375
vt 0.4765625 0.125
vt 0.4765625 0.15625
vt 0.46875 0.15625
vt 0.46875 0.125
vn -0.9876883405951378 0.04573701122120166 -0.14959902291450597
vn 0.9876883405951378 -0.04573701122120166 0.14959902291450597
vn 0 0.9563047559630357 0.29237170472273677
vn 0 -0.9563047559630357 -0.29237170472273677
vn -0.15643446504023084 -0.2887721238745714 0.9445310575203687
vn 0.1564290494265053 0.2967194166388546 -0.9420655711175406
vn 0.9876883405951378 0.04573701122120161 -0.14959902291450636
vn -0.9876883405951378 -0.04573701122120153 0.14959902291450583
vn 0 0.9563047559630357 0.29237170472273677
vn 1.670939941916244e-15 -0.9563047559630354 -0.292371704722737
vn 0.15643446504023117 -0.28877212387457146 0.9445310575203686
vn -0.1564290494265062 0.29671941663885465 -0.9420655711175403
vn 1 4.649058915617843e-16 -1.1379786002407855e-15
vn -1 -9.5062846483529e-16 2.8033131371785195e-15
vn 1.1102230246251565e-16 -0.28401534470392326 0.9588197348681929
vn -1.1102230246251565e-16 0.28401534470392253 -0.9588197348681932
vn 1.0842021724855044e-18 -0.9588197348681956 -0.2840153447039142
vn -8.673617379884034e-19 0.9588197348681935 0.284015344703921
vn 1 -2.775557561562892e-17 -2.775557561562892e-17
vn -1 -6.93889390390723e-18 1.6653345369377353e-16
vn -2.081668171172168e-17 1 1.5543122344752188e-15
vn 4.85722573273506e-17 -1 -1.6653345369377348e-16
vn 5.551115123125783e-17 0 1
vn -8.326672684688674e-17 1.1102230246251565e-16 -1
vn 1 1.3877787807814457e-17 0
vn -1 1.3877787807814457e-17 0
vn 0 0.9563047559630357 0.29237170472273677
vn -2.9582283945787943e-31 -0.9563047559630348 -0.2923717047227396
vn 1.1102230246251565e-16 -0.2923717047227367 0.9563047559630355
vn -1.1102230246251565e-16 0.2923717047227367 -0.9563047559630355
vn 0.9890158633619168 -2.7755575615628914e-17 -0.1478094111296106
vn -0.9890158633619168 0 0.14780941112961085
vn 8.81239525796218e-16 1 5.551115123125783e-17
vn -1.8041124150158794e-16 -1 -1.6653345369377348e-16
vn 0.14780941112961088 0 0.9890158633619168
vn -0.14780941112961132 1.1102230246251565e-16 -0.9890158633619168
vn 0.9890158633619168 -9.540979117872439e-18 0.1478094111296109
vn -0.9890158633619168 -1.3877787807814457e-17 -0.14780941112961077
vn -9.575673587391975e-16 1 5.551115123125783e-17
vn 2.4286128663675294e-16 -1 5.5511151231257815e-17
vn -0.147809411129611 -1.1102230246251565e-16 0.9890158633619168
vn 0.1478094111296111 -5.551115123125783e-17 -0.9890158633619167
vn -0.0025701947677320004 0.9997289192982579 -0.02314048438545063
vn 0.002570194767732084 -0.9997289192982579 0.02314048438545263
vn 0.28483628607602324 0.022913875002560726 0.9583022719720458
vn -0.2848362860760231 -0.02291387500256098 -0.9583022719720459
vn 0.9585727328863857 -0.004128226145026699 -0.28481796557735223
vn -0.9585727328863856 0.004128226145026796 0.28481796557735234
vn -0.002570193840178182 0.9997289504742572 -0.023139137565257147
vn 0.002570193840178245 -0.9997289504742575 0.023139137565256762
vn -0.1899671384350063 0.022229733240169136 0.981538753832413
vn 0.1899671384350051 -0.022229733240169247 -0.9815387538324132
vn 0.981787085074172 0.0069184206081178475 0.18985851320878333
vn -0.9817870850741719 -0.006918420608117874 -0.189858513208784
vn -0.002570194767731924 -0.9997289192982579 0.02314048438545185
vn 0.002570194767732542 0.9997289192982579 -0.023140484385452464
vn -0.2848362860760216 0.022913875002560702 0.9583022719720464
vn 0.2848362860760244 -0.022913875002560757 -0.9583022719720455
vn -0.9585727328863856 -0.004128226145026823 -0.284817965577352
vn 0.9585727328863856 0.0041282261450268165 0.2848179655773522
vn -0.002570193840175504 -0.9997289504742574 0.023139137565256374
vn 0.0025701938401777383 0.9997289504742575 -0.02313913756525704
vn 0.18996713843500626 0.022229733240169025 0.981538753832413
vn -0.18996713843500626 -0.022229733240169414 -0.9815387538324131
vn -0.981787085074172 0.006918420608118149 0.1898585132087837
vn 0.9817870850741719 -0.006918420608118231 -0.1898585132087836
vn 1 -6.938893903907228e-18 4.718447854656915e-16
vn -1 -2.7755575615628914e-17 2.220446049250313e-16
vn 6.938893903907227e-18 1 -1.4432899320127031e-15
vn 6.938893903907227e-18 -1 2.775557561562891e-16
vn 0 -2.220446049250313e-16 1
vn 0 0 -1
vn 1 -1.3877787807814457e-17 2.498001805406602e-16
vn -1 1.3877787807814457e-17 -2.498001805406602e-16
vn -1.3877787807814457e-17 0.992546151641322 -0.12186934340514882
vn -1.3877787807814457e-17 -0.992546151641322 0.12186934340514882
vn 0 0.12186934340514743 0.9925461516413221
vn -2.7755575615628914e-17 -0.12186934340514743 -0.9925461516413221
vn 0.9517245836536508 0.3061232910126072 -0.022557649897447435
vn -0.9517245836536508 -0.30612329101260727 0.022557649897449655
vn 0.3063589138223163 -0.9518843388725328 0.007773115901103578
vn -0.306358913822317 0.9518843388725325 -0.00777311590109947
vn -0.01909274183808124 -0.014308602615632326 -0.9997153250302271
vn 0.019092741838081382 0.014308602615633163 0.9997153250302271
vn 0.9228181003232834 0.3852359382955458 0.0001598789452230687
vn -0.9228181003232835 -0.38523593829554537 -0.00015987894522595525
vn -0.3804015118966938 0.9111717155020551 0.15830601572824604
vn 0.38040151189669374 -0.9111717155020552 -0.15830601572824557
vn 0.06083948933410685 -0.14614847489656954 0.987390084932481
vn -0.060839489334106364 0.14614847489656976 -0.987390084932481
vn 0.9517246810270054 0.3061230274953592 -0.02255711774852029
vn -0.9517246810270052 -0.30612302749535936 0.022557117748520122
vn 0.00571083725866256 0.05581559900739663 0.998424761935145
vn -0.0057108372586626155 -0.05581559900739669 -0.9984247619351448
vn 0.30689984988893587 -0.9503543081106751 0.05137286437048981
vn -0.3068998498889358 0.9503543081106752 -0.051372864370488935
vn 0.9517243970499292 0.30612387958089493 -0.022557535554459357
vn -0.9517243970499298 -0.3061238795808928 0.022557535554461605
vn 0.1467768813434689 -0.38931554374531907 0.9093348967797134
vn -0.14677688134346892 0.3893155437453173 -0.909334896779714
vn 0.26958712722055933 -0.8687471310736108 -0.4154530094828255
vn -0.26958712722055844 0.8687471310736117 0.41545300948282404
vn 0.9517243970499292 -0.306123879580895 0.0225575355544606
vn -0.9517243970499291 0.3061238795808955 -0.02255753555445982
vn -0.1467768813434684 -0.38931554374531685 0.9093348967797144
vn 0.1467768813434694 0.38931554374531896 -0.9093348967797134
vn -0.2695871272205597 -0.8687471310736113 -0.41545300948282393
vn 0.26958712722055783 0.8687471310736105 0.41545300948282693
vn 0.9517245836536508 -0.3061232910126071 0.022557649897446526
vn -0.9517245836536509 0.30612329101260705 -0.022557649897446845
vn -0.30635891382231617 -0.9518843388725327 0.0077731159011035205
vn 0.30635891382231734 0.9518843388725323 -0.0077731159011036315
vn 0.019092741838081073 -0.014308602615632549 -0.999715325030227
vn -0.019092741838081295 0.014308602615632826 0.9997153250302271
vn 0.9517246810270051 -0.3061230274953597 0.022557117748519612
vn -0.9517246810270048 0.3061230274953609 -0.022557117748520254
vn -0.005710837258663448 0.05581559900739419 0.9984247619351451
vn 0.0057108372586629486 -0.055815599007394856 -0.9984247619351451
vn -0.3068998498889357 -0.9503543081106751 0.05137286437048999
vn 0.306899849888936 0.9503543081106751 -0.051372864370489935
vn 0.9228181003232836 -0.38523593829554553 -0.00015987894522456056
vn -0.9228181003232835 0.3852359382955453 0.0001598789452254279
vn 0.3804015118966936 0.9111717155020552 0.15830601572824599
vn -0.38040151189669397 -0.9111717155020551 -0.15830601572824565
vn -0.060839489334106794 -0.1461484748965696 0.987390084932481
vn 0.06083948933410614 0.1461484748965698 -0.987390084932481
vn -2.7755575615628914e-17 3.3306690738754696e-16 -1
vn 1.4432899320127035e-15 3.885780586188048e-16 1
vn -0.18223552549214433 0.9832549075639553 -8.326672684688674e-17
vn 0.18223552549215397 -0.9832549075639535 1.942890293094024e-16
vn 0.9832549075639547 0.1822355254921473 2.498001805406602e-16
vn -0.9832549075639547 -0.18223552549214722 2.7755575615628914e-17
vn -2.9698465908722937e-15 -5.551115123125783e-17 1
vn 1.0547118733938987e-15 -4.996003610813204e-16 -1
vn 0.18223552549214017 0.9832549075639561 0
vn -0.18223552549214955 -0.9832549075639543 1.1102230246251565e-16
vn -0.9832549075639547 0.18223552549214747 1.1102230246251568e-16
vn 0.9832549075639548 -0.18223552549214697 -1.1102230246251565e-16
vn 1 6.938893903907228e-18 -5.273559366969494e-16
vn -1 4.649058915617843e-16 7.216449660063518e-16
vn 8.326672684688674e-17 0.9832549075639557 -0.18223552549214203
vn -6.938893903907228e-17 -0.9832549075639543 0.1822355254921498
vn -1.1102230246251565e-16 0.18223552549214794 0.9832549075639545
vn 1.6653345369377348e-16 -0.1822355254921469 -0.9832549075639547
vn 1 3.4694469519536136e-17 -2.7755575615628907e-17
vn -1 -1.457167719820518e-16 -5.551115123125783e-16
vn -1.3877787807814454e-17 0.9832549075639545 0.18223552549214786
vn 1.3877787807814454e-17 -0.9832549075639546 -0.18223552549214764
vn -1.6653345369377353e-16 -0.1822355254921477 0.9832549075639547
vn -1.942890293094024e-16 0.18223552549214772 -0.9832549075639546
vn 1 3.5388358909926875e-16 -3.6082248300317597e-16
vn -1 7.632783294297951e-17 0
vn 2.324529457808921e-16 0.9945218953682734 0.10452846326765397
vn -2.7408630920433547e-16 -0.9945218953682733 -0.10452846326765414
vn 1.6375789613221059e-15 -0.10452846326765317 0.9945218953682735
vn 1.1934897514720433e-15 0.10452846326765328 -0.9945218953682734
vn 1 4.371503159461553e-16 -2.1926904736346838e-15
vn -1 -1.2490009027033009e-16 2.109423746787797e-15
vn 4.163336342344337e-17 0.9961946980917451 0.08715574274766447
vn 5.551115123125783e-17 -0.9961946980917451 -0.0871557427476635
vn -1.6653345369377348e-16 -0.08715574274765853 0.9961946980917455
vn 1.6653345369377348e-16 0.087155742747658 -0.9961946980917455
vn 0.923879532511287 0.37895918350757263 0.053259239968291266
vn -0.9238795325112868 -0.3789591835075728 -0.05325923996829132
vn -0.3826834323650904 0.9148884004098164 0.12857917945313135
vn 0.3826834323650906 -0.9148884004098164 -0.1285791794531318
vn -1.1657341758564144e-15 -0.13917310096006608 0.9902680687415703
vn 1.2212453270876722e-15 0.1391731009600662 -0.9902680687415703
vn 0.7071067811865472 0.7002252665996711 0.09841024344762148
vn -0.7071067811865485 -0.7002252665996699 -0.09841024344762136
vn -0.7071067811865471 0.7002252665996709 0.09841024344762309
vn 0.70710678118655 -0.7002252665996681 -0.09841024344762177
vn 8.326672684688672e-17 -0.139173100960065 0.9902680687415704
vn -2.775557561562891e-16 0.13917310096006516 -0.9902680687415704
vn 0.7071067811865476 -0.7044160264027582 -0.06162841671622495
vn -0.7071067811865466 0.7044160264027588 0.06162841671622853
vn 0.7071067811865478 0.7044160264027585 0.061628416716219964
vn -0.7071067811865476 -0.7044160264027597 -0.061628416716207
vn 6.661338147750939e-16 -0.08715574274765797 0.9961946980917457
vn 2.7755575615628914e-17 0.08715574274765803 -0.9961946980917457
vn 0.3826834323650906 0.9148884004098164 0.12857917945313177
vn -0.3826834323650897 -0.9148884004098168 -0.1285791794531314
vn -0.9238795325112868 0.3789591835075726 0.053259239968290656
vn 0.9238795325112868 -0.378959183507573 -0.05325923996829145
vn 4.440892098500626e-16 -0.13917310096006535 0.9902680687415704
vn 1.9428902930940235e-16 0.13917310096006535 -0.9902680687415703
vn 1 6.938893903907228e-18 -2.498001805406602e-16
vn -1 -1.8041124150158794e-16 2.3592239273284576e-15
vn 2.7755575615628907e-17 0.996194698091745 0.08715574274766448
vn -2.0816681711721685e-17 -0.9961946980917443 -0.0871557427476731
vn -5.551115123125783e-17 -0.08715574274765825 0.9961946980917455
vn 1.6653345369377348e-16 0.0871557427476582 -0.9961946980917455
vn 0.38268343236508984 -0.9148884004098168 -0.12857917945313138
vn -0.38268343236509067 0.9148884004098164 0.1285791794531316
vn 0.9238795325112872 0.37895918350757196 0.05325923996829146
vn -0.923879532511287 -0.3789591835075727 -0.053259239968291266
vn -8.881784197001252e-16 -0.13917310096006416 0.9902680687415705
vn 5.551115123125783e-17 0.13917310096006527 -0.9902680687415704
vn 0.7071067811865483 -0.7002252665996699 -0.09841024344762199
vn -0.7071067811865475 0.7002252665996708 0.09841024344762227
vn 0.7071067811865475 0.7002252665996708 0.0984102434476225
vn -0.7071067811865499 -0.7002252665996683 -0.09841024344762192
vn -1.7486012637846216e-15 -0.13917310096006397 0.9902680687415706
vn 9.71445146547012e-16 0.1391731009600632 -0.9902680687415707
vn 0.7071067811865483 0.7044160264027574 0.06162841671622618
vn -0.7071067811865468 -0.7044160264027594 -0.061628416716222295
vn -0.7071067811865478 0.7044160264027581 0.06162841671622408
vn 0.7071067811865479 -0.7044160264027604 -0.06162841671619772
vn -3.053113317719181e-16 -0.08715574274765893 0.9961946980917457
vn -4.440892098500626e-16 0.08715574274765858 -0.9961946980917457
vn 0.9238795325112868 -0.3789591835075726 -0.05325923996829189
vn -0.9238795325112867 0.37895918350757274 0.053259239968290295
vn 0.38268343236509095 0.9148884004098164 0.12857917945313102
vn -0.38268343236509045 -0.9148884004098166 -0.12857917945313127
vn -3.0531133177191805e-16 -0.13917310096006527 0.9902680687415704
vn 2.7755575615628914e-17 0.13917310096006544 -0.9902680687415704
vn 1 -6.938893903907228e-18 0
vn -1 -3.469446951953614e-17 3.0531133177191805e-16
vn 3.469446951953614e-17 0.9961946980917451 0.08715574274766444
vn -2.7755575615628914e-17 -0.9961946980917451 -0.08715574274766438
vn -1.6653345369377348e-16 -0.08715574274765858 0.9961946980917455
vn 1.1102230246251565e-16 0.08715574274765822 -0.9961946980917457
vn 1 -2.0122792321330967e-16 6.661338147750941e-16
vn -1 6.245004513516506e-17 7.771561172376096e-16
vn -3.469446951953614e-18 0.9953961983671791 0.09584575252022193
vn 5.204170427930421e-17 -0.9953961983671789 -0.09584575252022418
vn -1.27675647831893e-15 -0.09584575252022448 0.9953961983671787
vn 8.326672684688674e-17 0.09584575252022384 -0.9953961983671789
usemtl m_061456e3-3000-b725-33a0-ad0fce623500
f 1/1/1 2/2/1 4/3/1 3/4/1
f 6/5/2 5/6/2 7/7/2 8/8/2
f 6/9/3 2/10/3 1/11/3 5/12/3
f 7/13/4 3/14/4 4/15/4 8/16/4
f 5/17/5 1/18/5 3/19/5 7/20/5
f 2/21/6 6/22/6 8/23/6 4/24/6
f 12/25/7 10/26/7 9/27/7 11/28/7
f 15/29/8 13/30/8 14/31/8 16/32/8
f 9/33/9 10/34/9 14/35/9 13/36/9
f 12/37/10 11/38/10 15/39/10 16/40/10
f 11/41/11 9/42/11 13/43/11 15/44/11
f 16/45/12 14/46/12 10/47/12 12/48/12
f 18/49/13 17/50/13 19/51/13 20/52/13
f 23/53/14 21/54/14 22/55/14 24/56/14
f 21/57/15 17/58/15 18/59/15 22/60/15
f 20/61/16 19/62/16 23/63/16 24/64/16
f 19/65/17 17/66/17 21/67/17 23/68/17
f 22/69/18 18/70/18 20/71/18 24/72/18
f 28/73/19 26/74/19 25/75/19 27/76/19
f 31/77/20 29/78/20 30/79/20 32/80/20
f 25/81/21 26/82/21 30/83/21 29/84/21
f 28/85/22 27/86/22 31/87/22 32/88/22
f 27/89/23 25/90/23 29/91/23 31/92/23
f 32/93/24 30/94/24 26/95/24 28/96/24
f 36/97/25 34/98/25 33/99/25 35/100/25
f 39/101/26 37/102/26 38/103/26 40/104/26
f 33/105/27 34/106/27 38/107/27 37/108/27
f 36/109/28 35/110/28 39/111/28 40/112/28
f 35/113/29 33/114/29 37/115/29 39/116/29
f 40/117/30 38/118/30 34/119/30 36/120/30
f 44/121/31 42/122/31 41/123/31 43/124/31
f 47/125/32 45/126/32 46/127/32 48/128/32
f 41/129/33 42/130/33 46/131/33 45/132/33
f 44/133/34 43/134/34 47/135/34 48/136/34
f 43/137/35 41/138/35 45/139/35 47/140/35
f 48/141/36 46/142/36 42/143/36 44/144/36
f 52/145/37 50/146/37 49/147/37 51/148/37
f 55/149/38 53/150/38 54/151/38 56/152/38
f 49/153/39 50/154/39 54/155/39 53/156/39
f 52/157/40 51/158/40 55/159/40 56/160/40
f 51/161/41 49/162/41 53/163/41 55/164/41
f 56/165/42 54/166/42 50/167/42 52/168/42
f 60/169/43 58/170/43 57/171/43 59/172/43
f 63/173/44 61/174/44 62/175/44 64/176/44
f 57/177/45 58/178/45 62/179/45 61/180/45
f 60/181/46 59/182/46 63/183/46 64/184/46
f 59/185/47 57/186/47 61/187/47 63/188/47
f 64/189/48 62/190/48 58/191/48 60/192/48
f 68/193/49 66/194/49 65/195/49 67/196/49
f 71/197/50 69/198/50 70/199/50 72/200/50
f 65/201/51 66/202/51 70/203/51 69/204/51
f 68/205/52 67/206/52 71/207/52 72/208/52
f 67/209/53 65/210/53 69/211/53 71/212/53
f 72/213/54 70/214/54 66/215/54 68/216/54
f 76/217/55 74/218/55 73/219/55 75/220/55
f 79/221/56 77/222/56 78/223/56 80/224/56
f 73/225/57 74/226/57 78/227/57 77/228/57
f 76/229/58 75/230/58 79/231/58 80/232/58
f 75/233/59 73/234/59 77/235/59 79/236/59
f 80/237/60 78/238/60 74/239/60 76/240/60
f 84/241/61 82/242/61 81/243/61 83/244/61
f 87/245/62 85/246/62 86/247/62 88/248/62
f 81/249/63 82/250/63 86/251/63 85/252/63
f 84/253/64 83/254/64 87/255/64 88/256/64
f 83/257/65 81/258/65 85/259/65 87/260/65
f 88/261/66 86/262/66 82/263/66 84/264/66
f 92/265/67 90/266/67 89/267/67 91/268/67
f 95/269/68 93/270/68 94/271/68 96/272/68
f 89/273/69 90/274/69 94/275/69 93/276/69
f 92/277/70 91/278/70 95/279/70 96/280/70
f 91/281/71 89/282/71 93/283/71 95/284/71
f 96/285/72 94/286/72 90/287/72 92/288/72
f 100/289/73 98/290/73 97/291/73 99/292/73
f 103/293/74 101/294/74 102/295/74 104/296/74
f 97/297/75 98/298/75 102/299/75 101/300/75
f 100/301/76 99/302/76 103/303/76 104/304/76
f 99/305/77 97/306/77 101/307/77 103/308/77
f 104/309/78 102/310/78 98/311/78 100/312/78
f 108/313/79 106/314/79 105/315/79 107/316/79
f 111/317/80 109/318/80 110/319/80 112/320/80
f 105/321/81 106/322/81 110/323/81 109/324/81
f 108/325/82 107/326/82 111/327/82 112/328/82
f 107/329/83 105/330/83 109/331/83 111/332/83
f 112/333/84 110/334/84 106/335/84 108/336/84
f 116/337/85 114/338/85 113/339/85 115/340/85
f 119/341/86 117/342/86 118/343/86 120/344/86
f 113/345/87 114/346/87 118/347/87 117/348/87
f 116/349/88 115/350/88 119/351/88 120/352/88
f 115/353/89 113/354/89 117/355/89 119/356/89
f 120/357/90 118/358/90 114/359/90 116/360/90
f 124/361/91 122/362/91 121/363/91 123/364/91
f 127/365/92 125/366/92 126/367/92 128/368/92
f 121/369/93 122/370/93 126/371/93 125/372/93
f 124/373/94 123/374/94 127/375/94 128/376/94
f 123/377/95 121/378/95 125/379/95 127/380/95
f 128/381/96 126/382/96 122/383/96 124/384/96
f 132/385/97 130/386/97 129/387/97 131/388/97
f 135/389/98 133/390/98 134/391/98 136/392/98
f 129/393/99 130/394/99 134/395/99 133/396/99
f 132/397/100 131/398/100 135/399/100 136/400/100
f 131/401/101 129/402/101 133/403/101 135/404/101
f 136/405/102 134/406/102 130/407/102 132/408/102
f 140/409/103 138/410/103 137/411/103 139/412/103
f 143/413/104 141/414/104 142/415/104 144/416/104
f 137/417/105 138/418/105 142/419/105 141/420/105
f 140/421/106 139/422/106 143/423/106 144/424/106
f 139/425/107 137/426/107 141/427/107 143/428/107
f 144/429/108 142/430/108 138/431/108 140/432/108
f 148/433/109 146/434/109 145/435/109 147/436/109
f 151/437/110 149/438/110 150/439/110 152/440/110
f 145/441/111 146/442/111 150/443/111 149/444/111
f 148/445/112 147/446/112 151/447/112 152/448/112
f 147/449/113 145/450/113 149/451/113 151/452/113
f 152/453/114 150/454/114 146/455/114 148/456/114
f 156/457/115 154/458/115 153/459/115 155/460/115
f 159/461/116 157/462/116 158/463/116 160/464/116
f 153/465/117 154/466/117 158/467/117 157/468/117
f 156/469/118 155/470/118 159/471/118 160/472/118
f 155/473/119 153/474/119 157/475/119 159/476/119
f 160/477/120 158/478/120 154/479/120 156/480/120
f 164/481/121 162/482/121 161/483/121 163/484/121
f 167/485/122 165/486/122 166/487/122 168/488/122
f 161/489/123 162/490/123 166/491/123 165/492/123
f 164/493/124 163/494/124 167/495/124 168/496/124
f 163/497/125 161/498/125 165/499/125 167/500/125
f 168/501/126 166/502/126 162/503/126 164/504/126
f 172/505/127 170/506/127 169/507/127 171/508/127
f 175/509/128 173/510/128 174/511/128 176/512/128
f 169/513/129 170/514/129 174/515/129 173/516/129
f 172/517/130 171/518/130 175/519/130 176/520/130
f 171/521/131 169/522/131 173/523/131 175/524/131
f 176/525/132 174/526/132 170/527/132 172/528/132
f 180/529/133 178/530/133 177/531/133 179/532/133
f 183/533/134 181/534/134 182/535/134 184/536/134
f 177/537/135 178/538/135 182/539/135 181/540/135
f 180/541/136 179/542/136 183/543/136 184/544/136
f 179/545/137 177/546/137 181/547/137 183/548/137
f 184/549/138 182/550/138 178/551/138 180/552/138
f 188/553/139 186/554/139 185/555/139 187/556/139
f 191/557/140 189/558/140 190/559/140 192/560/140
f 185/561/141 186/562/141 190/563/141 189/564/141
f 188/565/142 187/566/142 191/567/142 192/568/142
f 187/569/143 185/570/143 189/571/143 191/572/143
f 192/573/144 190/574/144 186/575/144 188/576/144
f 196/577/145 194/578/145 193/579/145 195/580/145
f 199/581/146 197/582/146 198/583/146 200/584/146
f 193/585/147 194/586/147 198/587/147 197/588/147
f 196/589/148 195/590/148 199/591/148 200/592/148
f 195/593/149 193/594/149 197/595/149 199/596/149
f 200/597/150 198/598/150 194/599/150 196/600/150
f 204/601/151 202/602/151 201/603/151 203/604/151
f 207/605/152 205/606/152 206/607/152 208/608/152
f 201/609/153 202/610/153 206/611/153 205/612/153
f 204/613/154 203/614/154 207/615/154 208/616/154
f 203/617/155 201/618/155 205/619/155 207/620/155
f 208/621/156 206/622/156 202/623/156 204/624/156
f 212/625/157 210/626/157 209/627/157 211/628/157
f 215/629/158 213/630/158 214/631/158 216/632/158
f 209/633/159 210/634/159 214/635/159 213/636/159
f 212/637/160 211/638/160 215/639/160 216/640/160
f 211/641/161 209/642/161 213/643/161 215/644/161
f 216/645/162 214/646/162 210/647/162 212/648/162
f 220/649/163 218/650/163 217/651/163 219/652/163
f 223/653/164 221/654/164 222/655/164 224/656/164
f 217/657/165 218/658/165 222/659/165 221/660/165
f 220/661/166 219/662/166 223/663/166 224/664/166
f 219/665/167 217/666/167 221/667/167 223/668/167
f 224/669/168 222/670/168 218/671/168 220/672/168
f 228/673/169 226/674/169 225/675/169 227/676/169
f 231/677/170 229/678/170 230/679/170 232/680/170
f 225/681/171 226/682/171 230/683/171 229/684/171
f 228/685/172 227/686/172 231/687/172 232/688/172
f 227/689/173 225/690/173 229/691/173 231/692/173
f 232/693/174 230/694/174 226/695/174 228/696/174
f 236/697/175 234/698/175 233/699/175 235/700/175
f 239/701/176 237/702/176 238/703/176 240/704/176
f 233/705/177 234/706/177 238/707/177 237/708/177
f 236/709/178 235/710/178 239/711/178 240/712/178
f 235/713/179 233/714/179 237/715/179 239/716/179
f 240/717/180 238/718/180 234/719/180 236/720/180
f 244/721/181 242/722/181 241/723/181 243/724/181
f 247/725/182 245/726/182 246/727/182 248/728/182
f 241/729/183 242/730/183 246/731/183 245/732/183
f 244/733/184 243/734/184 247/735/184 248/736/184
f 243/737/185 241/738/185 245/739/185 247/740/185
f 248/741/186 246/742/186 242/743/186 244/744/186
f 252/745/187 250/746/187 249/747/187 251/748/187
f 255/749/188 253/750/188 254/751/188 256/752/188
f 249/753/189 250/754/189 254/755/189 253/756/189
f 252/757/190 251/758/190 255/759/190 256/760/190
f 251/761/191 249/762/191 253/763/191 255/764/191
f 256/765/192 254/766/192 250/767/192 252/768/192
f 260/769/193 258/770/193 257/771/193 259/772/193
f 263/773/194 261/774/194 262/775/194 264/776/194
f 257/777/195 258/778/195 262/779/195 261/780/195
f 260/781/196 259/782/196 263/783/196 264/784/196
f 259/785/197 257/786/197 261/787/197 263/788/197
f 264/789/198 262/790/198 258/791/198 260/792/198
f 268/793/199 266/794/199 265/795/199 267/796/199
f 271/797/200 269/798/200 270/799/200 272/800/200
f 265/801/201 266/802/201 270/803/201 269/804/201
f 268/805/202 267/806/202 271/807/202 272/808/202
f 267/809/203 265/810/203 269/811/203 271/812/203
f 272/813/204 270/814/204 266/815/204 268/816/204
f 276/817/205 274/818/205 273/819/205 275/820/205
f 279/821/206 277/822/206 278/823/206 280/824/206
f 273/825/207 274/826/207 278/827/207 277/828/207
f 276/829/208 275/830/208 279/831/208 280/832/208
f 275/833/209 273/834/209 277/835/209 279/836/209
f 280/837/210 278/838/210 274/839/210 276/840/210
f 284/841/211 282/842/211 281/843/211 283/844/211
f 287/845/212 285/846/212 286/847/212 288/848/212
f 281/849/213 282/850/213 286/851/213 285/852/213
f 284/853/214 283/854/214 287/855/214 288/856/214
f 283/857/215 281/858/215 285/859/215 287/860/215
f 288/861/216 286/862/216 282/863/216 284/864/216
f 292/865/217 290/866/217 289/867/217 291/868/217
f 295/869/218 293/870/218 294/871/218 296/872/218
f 289/873/219 290/874/219 294/875/219 293/876/219
f 292/877/220 291/878/220 295/879/220 296/880/220
f 291/881/221 289/882/221 293/883/221 295/884/221
f 296/885/222 294/886/222 290/887/222 292/888/222
f 300/889/223 298/890/223 297/891/223 299/892/223
f 303/893/224 301/894/224 302/895/224 304/896/224
f 297/897/225 298/898/225 302/899/225 301/900/225
f 300/901/226 299/902/226 303/903/226 304/904/226
f 299/905/227 297/906/227 301/907/227 303/908/227
f 304/909/228 302/910/228 298/911/228 300/912/228
