# Made in Blockbench 5.1.6
mtllib ukrainian_mobilized.mtl

o cube
v 0.1317729862703573 1.4603983842658532 -0.11391434090859677
v 0.14350557114837462 1.482056293556446 -0.18475417022262444
v 0.13177298627035733 1.2213221952750943 -0.18700726708928095
v 0.14350557114837462 1.2429801045656872 -0.2578470964033086
v 0.26140708097346915 1.4543954015430705 -0.09427946915106786
v 0.2731396658514864 1.4760533108336633 -0.16511929846509552
v 0.26140708097346915 1.2153192125523116 -0.16737239533175202
v 0.27309662379966027 1.243431232506437 -0.23839468663572666
v -0.13177298627035733 1.4603983842658532 -0.11391434090859665
v -0.1435055711483747 1.482056293556446 -0.1847541702226244
v -0.13177298627035738 1.2213221952750943 -0.18700726708928084
v -0.1435055711483747 1.2429801045656872 -0.2578470964033085
v -0.2614070809734692 1.4543954015430705 -0.09427946915106769
v -0.2731396658514865 1.4760533108336633 -0.16511929846509538
v -0.2614070809734692 1.2153192125523113 -0.16737239533175188
v -0.2730966237996604 1.243431232506437 -0.2383946866357265
v 0.25 1.3616651570856628 -0.19450125130443888
v 0.25 1.4964991823015024 -0.15456159345544968
v 0.25 1.37054063660766 -0.22446436801906985
v 0.25 1.5053746618234998 -0.1845247101700807
v -0.25000000000000006 1.3616651570856628 -0.19450125130443882
v -0.25000000000000006 1.4964991823015024 -0.15456159345544965
v -0.2500000000000001 1.37054063660766 -0.22446436801906983
v -0.25000000000000006 1.5053746618234998 -0.18452471017008076
v 0.14375000000000002 1.2434318749999997 -0.18275999999999998
v 0.14375000000000002 1.243431875 -0.25776
v 0.14375000000000002 0.868431875 -0.18275999999999998
v 0.14375 0.868431875 -0.25776
v -0.14375000000000004 1.243431875 -0.18275999999999995
v -0.14375000000000004 1.243431875 -0.25775999999999993
v -0.14375 0.868431875 -0.18275999999999995
v -0.14375000000000004 0.868431875 -0.25776
v 0.14375 1.4601233553479243 -0.11301249094089579
v 0.14375 1.4820512332021296 -0.18473534763812346
v 0.14375 1.2210471663571654 -0.18610541712158002
v 0.14375000000000002 1.2429750442113707 -0.25782827381880763
v -0.14375 1.4601233553479243 -0.11301249094089576
v -0.14375000000000004 1.4820512332021296 -0.18473534763812344
v -0.14375 1.2210471663571654 -0.18610541712158002
v -0.14375000000000004 1.2429750442113707 -0.2578282738188076
v -0.1322023897554992 1.2434318749999997 -0.18361813567485022
v -0.14328809559022 1.2434318749999997 -0.257794325426994
v -0.1322023897554992 0.8684318749999999 -0.18361813567485022
v -0.14328809559021993 0.8684318749999999 -0.257794325426994
v -0.2620107218217508 1.243431875 -0.16421815046408877
v -0.2730964276564716 1.243431875 -0.23839434021623246
v -0.2620107218217508 0.8684318749999999 -0.16421815046408883
v -0.2730964276564716 0.8684318749999999 -0.23839434021623251
v 0.2620107218217508 1.243431875 -0.16421815046408872
v 0.2730964276564716 1.243431875 -0.23839434021623246
v 0.2620107218217508 0.868431875 -0.1642181504640888
v 0.2730964276564716 0.8684318749999999 -0.23839434021623251
v 0.13220238975549917 1.2434318749999997 -0.1836181356748502
v 0.14328809559021996 1.2434318749999997 -0.25779432542699393
v 0.13220238975549917 0.8684318749999997 -0.18361813567485016
v 0.14328809559021996 0.8684318749999999 -0.25779432542699393
v -0.2420831550023675 1.1581960376146454 0.15874157705349512
v -0.2840207120661468 1.15837664750849 0.17120236304750425
v -0.27768769076187044 1.1553318032393252 0.038953793056989316
v -0.3196252478256498 1.1555124131331702 0.0514145790509985
v -0.24134422400664518 0.8707739733163959 0.16539446631431293
v -0.28328178107042457 0.8709545832102408 0.177855252308322
v -0.27694875976614813 0.8679097389410759 0.045606682317807096
v -0.3188863168299275 0.8680903488349209 0.05806746831181628
v -0.27928257602579537 1.1558098291717922 0.058832651269635494
v -0.32223576099779044 1.1555071482701869 0.05052634131675121
v -0.228822554878997 1.1499050562798723 -0.2018885802170994
v -0.27177573985099207 1.1496023753782667 -0.21019489016998366
v -0.2785436452967453 0.868387755910443 0.0654851533196466
v -0.3214968302687404 0.8680850750088376 0.057178843366762266
v -0.22808362414994682 0.8624829830185231 -0.19523607816708827
v -0.27103680912194184 0.8621803021169178 -0.20354238811997252
v 0.24134422400664512 0.870773973316396 0.16539446631431287
v 0.2832817810704245 0.8709545832102408 0.177855252308322
v 0.2769487597661481 0.8679097389410758 0.045606682317807096
v 0.3188863168299274 0.8680903488349208 0.05806746831181628
v 0.24208315500236738 1.1581960376146454 0.15874157705349512
v 0.28402071206614676 1.15837664750849 0.17120236304750425
v 0.27768769076187033 1.1553318032393252 0.038953793056989344
v 0.3196252478256497 1.1555124131331702 0.0514145790509985
v 0.27854364529674513 0.8683877559104429 0.06548515331964655
v 0.3214968302687402 0.8680850750088376 0.05717884336676224
v 0.22808362414994676 0.862482983018523 -0.1952360781670882
v 0.2710368091219417 0.8621803021169177 -0.20354238811997252
v 0.2792825760257953 1.1558098291717922 0.05883265126963552
v 0.3222357609977904 1.1555071482701869 0.05052634131675118
v 0.22882255487899694 1.1499050562798723 -0.20188858021709943
v 0.27177573985099196 1.1496023753782667 -0.21019489016998358
v 0.26875 1.243431875 0.1952600000000001
v 0.26875000000000004 1.2434318749999997 0.12026000000000014
v 0.26875 0.8684318749999997 0.19526000000000004
v 0.26875000000000004 0.8684318749999997 0.12026000000000014
v -0.26875 1.243431875 0.1952600000000001
v -0.26875000000000004 1.2434318749999997 0.12026000000000014
v -0.26875000000000004 0.8684318749999999 0.19526000000000004
v -0.26875000000000004 0.8684318749999999 0.12026000000000009
v 0.26874999999999993 1.49137799206126 0.1648043107867737
v 0.26874999999999993 1.4822377913058737 0.09036334941367452
v 0.26874999999999993 1.2432414541509293 0.19527164663806057
v 0.26874999999999993 1.2341012533955433 0.12083068526496138
v -0.26875000000000004 1.49137799206126 0.16480431078677377
v -0.26875000000000004 1.4822377913058737 0.09036334941367452
v -0.26875000000000004 1.2432414541509293 0.19527164663806057
v -0.26875000000000004 1.2341012533955433 0.12083068526496143
v -0.11238994094414939 1.31539486161908 0.11905119108582313
v -0.11155463348873335 1.3160208629835142 0.1627887365558956
v -0.18897966939972854 1.5533659463372136 0.11710791211054794
v -0.18814436194431255 1.5539919477016475 0.16084545758062035
v -0.26704518578786773 1.2656498268295315 0.12271680919415812
v -0.2662098783324516 1.2662758281939654 0.16645435466423064
v -0.34363491424344694 1.5036209115476649 0.12077353021888287
v -0.34279960678803084 1.5042469129120988 0.16451107568895534
v -0.20792582112001695 1.584940800613956 -0.10164048939851332
v -0.2105875487783842 1.5913347963906812 -0.14483880561430923
v -0.05338770691198452 1.2147772911912462 -0.16595230828811242
v -0.05604943457035169 1.2211712869679712 -0.20915062450390834
v -0.35788376242255054 1.5223399606409302 -0.10166646972711223
v -0.3605454900809177 1.5287339564176552 -0.14486478594290822
v -0.20334564821451806 1.1521764512182204 -0.16597828861671132
v -0.20600737587288526 1.1585704469949454 -0.20917660483250733
v -0.19431139964728145 1.5708737174246865 0.08065536777803783
v -0.20773826807992235 1.6124517184045286 0.07840780496182886
v -0.19547141346544744 1.5595361738763092 -0.12214966199003849
v -0.2088982818980883 1.6011141748561513 -0.12439722480624746
v -0.34896666031416973 1.5211287254566903 0.0843208994121723
v -0.3623935287468106 1.5627067264365324 0.08207333659596339
v -0.3501266741323357 1.509791181908313 -0.118484130355904
v -0.3635535425649766 1.5513691828881553 -0.12073169317211288
v -0.17705036467267016 1.5181984303026255 0.14316518741106188
v -0.18884480148856964 1.5562061172870958 0.16134125657593545
v -0.19539747484060377 1.5668628732707903 0.029498325313597695
v -0.20719191165650325 1.6048705602552609 0.04767439447847133
v -0.33170557919328375 1.46845329987073 0.1468307869386617
v -0.3435000160091832 1.5064609868552006 0.16500685610353527
v -0.35005268936121736 1.5171177428388947 0.0331639248411974
v -0.36184712617711684 1.5551254298233652 0.05133999400607109
v 0.33170557919328353 1.46845329987073 0.1468307869386617
v 0.343500016009183 1.5064609868552006 0.16500685610353533
v 0.35005268936121714 1.5171177428388947 0.0331639248411974
v 0.3618471261771167 1.5551254298233652 0.051339994006071116
v 0.17705036467267002 1.5181984303026255 0.14316518741106193
v 0.1888448014885695 1.5562061172870958 0.16134125657593545
v 0.19539747484060366 1.5668628732707903 0.029498325313597695
v 0.20719191165650308 1.6048705602552609 0.047674394478471355
v 0.2670451857878676 1.2656498268295315 0.12271680919415806
v 0.2662098783324516 1.2662758281939654 0.16645435466423064
v 0.3436349142434468 1.5036209115476649 0.12077353021888287
v 0.34279960678803073 1.5042469129120988 0.1645110756889554
v 0.1123899409441493 1.31539486161908 0.11905119108582313
v 0.11155463348873325 1.3160208629835142 0.1627887365558956
v 0.1889796693997285 1.5533659463372136 0.11710791211054788
v 0.18814436194431244 1.5539919477016475 0.1608454575806203
v 0.3489666603141697 1.5211287254566903 0.0843208994121723
v 0.3623935287468105 1.5627067264365324 0.08207333659596339
v 0.35012667413233556 1.509791181908313 -0.11848413035590398
v 0.3635535425649764 1.5513691828881553 -0.12073169317211288
v 0.19431139964728134 1.5708737174246865 0.08065536777803783
v 0.20773826807992227 1.6124517184045286 0.07840780496182892
v 0.19547141346544727 1.5595361738763092 -0.12214966199003845
v 0.20889828189808818 1.6011141748561513 -0.1243972248062474
v 0.35788376242255043 1.5223399606409302 -0.1016664697271122
v 0.36054549008091763 1.5287339564176552 -0.14486478594290822
v 0.20334564821451795 1.1521764512182204 -0.16597828861671132
v 0.2060073758728851 1.1585704469949454 -0.20917660483250733
v 0.2079258211200169 1.584940800613956 -0.10164048939851329
v 0.21058754877838404 1.5913347963906812 -0.14483880561430923
v 0.05338770691198445 1.2147772911912462 -0.1659523082881124
v 0.05604943457035161 1.2211712869679712 -0.2091506245039083
v -0.16572570268752673 1.6245962856943572 -0.17182249999999982
v -0.20874310489344977 1.6166234814540759 -0.17182249999999985
v -0.1315565416577491 1.440235990526116 -0.17182249999999977
v -0.17457394386367214 1.4322631862858342 -0.1718224999999999
v -0.1657257026875268 1.624596285694357 0.1781775000000001
v -0.20874310489344977 1.6166234814540759 0.1781775000000002
v -0.13155654165774916 1.440235990526116 0.17817750000000016
v -0.17457394386367214 1.4322631862858344 0.1781775000000001
v 0.1657257026875267 1.624596285694357 0.1781775000000001
v 0.20874310489344974 1.6166234814540759 0.1781775000000002
v 0.1315565416577491 1.440235990526116 0.1781775000000001
v 0.17457394386367214 1.4322631862858344 0.1781775000000001
v 0.1657257026875267 1.6245962856943572 -0.17182249999999985
v 0.2087431048934497 1.6166234814540759 -0.17182249999999982
v 0.1315565416577491 1.440235990526116 -0.17182249999999982
v 0.1745739438636721 1.4322631862858342 -0.1718224999999999
v 0.175 1.6245962856943572 -0.1625482026875266
v 0.17499999999999996 1.6166234814540759 -0.20556560489344955
v 0.17499999999999996 1.4402359905261157 -0.12837904165774888
v 0.175 1.4322631862858342 -0.17139644386367206
v -0.175 1.6245962856943572 -0.16254820268752665
v -0.17500000000000004 1.6166234814540759 -0.2055656048934496
v -0.17500000000000004 1.4402359905261157 -0.12837904165774897
v -0.17500000000000004 1.4322631862858342 -0.17139644386367203
v 0.175 1.6166234814540759 0.20556560489344994
v 0.175 1.6245962856943572 0.1625482026875269
v 0.175 1.4322631862858344 0.17139644386367225
v 0.175 1.4402359905261157 0.12837904165774927
v -0.1750000000000001 1.6166234814540759 0.20556560489344983
v -0.17500000000000004 1.6245962856943572 0.1625482026875269
v -0.175 1.4322631862858344 0.17139644386367225
v -0.17500000000000004 1.4402359905261157 0.12837904165774927
v 0.30308488236810266 1.1571516917794669 -0.18047219352221489
v 0.35092031141373886 1.1351161260985383 -0.29383535144021466
v 0.30308488236810266 0.8503931969520719 -0.12084438246704457
v 0.35092031141373886 0.8283576312711429 -0.23420754038504443
v 0.16450295249140973 1.1461987755879424 -0.23682006250190896
v 0.21233838153704593 1.1241632099070136 -0.3501832204199088
v 0.16450295249140967 0.8394402807605473 -0.1771922514467387
v 0.21233838153704593 0.8174047150796186 -0.29055540936473856
v 0.18055312499999998 1.1492125419651749 -0.22131557858272105
v 0.18055312499999998 1.1253614175431068 -0.3440189765136789
v 0.18055312499999998 0.8424540471377798 -0.16168776752755076
v 0.18055312499999998 0.8186029227157119 -0.28439116545850884
v 0.024303124999999995 1.1492125419651749 -0.221315578582721
v 0.02430312499999998 1.1253614175431068 -0.34401897651367896
v 0.02430312499999998 0.8424540471377797 -0.16168776752755076
v 0.024303124999999995 0.8186029227157119 -0.2843911654585088
v -0.0006968750000000135 0.9962051443756181 -0.3795822645740392
v -0.0006968750000000412 1.1383761747338934 -0.35833466172415773
v -0.0006968750000000135 0.9989765708342981 -0.39812631201207505
v -0.0006968750000000135 1.1411476011925739 -0.37687870916219346
v -0.13194687500000002 0.9962051443756181 -0.37958226457403926
v -0.13194687500000002 1.1383761747338936 -0.35833466172415773
v -0.13194687500000002 0.9989765708342981 -0.39812631201207505
v -0.13194687500000007 1.1411476011925739 -0.37687870916219346
v 0.01180312499999997 1.1676180516548182 -0.22489324724603124
v 0.011803124999999998 1.14018925856944 -0.36600215486663285
v 0.01180312499999997 1.1492125419651749 -0.22131557858272102
v 0.011803124999999998 1.1217837488797966 -0.3624244862033227
v -0.14444687500000009 1.1676180516548182 -0.22489324724603119
v -0.14444687500000003 1.14018925856944 -0.3660021548666329
v -0.14444687500000003 1.1492125419651749 -0.22131557858272094
v -0.14444687500000009 1.1217837488797966 -0.36242448620332257
v 0.016498006458843417 1.1467913560384853 -0.23720139179567884
v 0.01322588792035928 1.1229484048010612 -0.3598627423367517
v 0.016498006458843445 0.8400328612110899 -0.17757358074050872
v 0.01322588792035928 0.8161899099736661 -0.3002349312815815
v -0.13345059228749018 1.147540575619782 -0.23334699118987204
v -0.13672271082597431 1.1236976243823587 -0.3560083417309448
v -0.13345059228749018 0.8407820807923873 -0.1737191801347018
v -0.13672271082597431 0.8169391295549635 -0.2963805306757746
v -0.1652047455207198 1.0547441115487264 -0.351480021450447
v -0.15684913570686432 1.1475105864395663 -0.3150854487648691
v -0.1647085886832947 1.059267046055188 -0.3631224821801613
v -0.15635297886943927 1.1520335209460277 -0.3267279094945834
v -0.22743676100062665 1.0605109753094135 -0.35189176369301145
v -0.21908115118677118 1.153277450200253 -0.31549719100743356
v -0.2269406041632016 1.065033909815875 -0.36353422442272576
v -0.2185849943493462 1.1578003847067149 -0.3271396517371479
v -0.15619050332598516 1.1625 -0.22701685905866498
v -0.15444526268225683 1.1625 -0.32700162857430404
v -0.15619050332598522 1.1499999999999997 -0.22701685905866492
v -0.15444526268225683 1.15 -0.32700162857430404
v -0.21868098427325966 1.1625 -0.2281076344609952
v -0.21693574362953127 1.1625 -0.3280924039766343
v -0.21868098427325972 1.15 -0.22810763446099513
v -0.21693574362953133 1.15 -0.3280924039766343
v -0.15625000000000006 1.1437499999999998 -0.22499999999999992
v -0.15625000000000006 1.14375 -0.32499999999999996
v -0.15625000000000006 0.8499999999999998 -0.22499999999999995
v -0.15625000000000006 0.8499999999999998 -0.32499999999999996
v -0.2187500000000001 1.1437499999999998 -0.22499999999999992
v -0.21875000000000006 1.14375 -0.32499999999999996
v -0.2187500000000001 0.8499999999999998 -0.22499999999999998
v -0.21875 0.8499999999999998 -0.3249999999999999
v -0.2632194919069926 1.0541976117021001 -0.3416378656170377
v -0.2513939994546944 1.146585566738616 -0.305242488267278
v -0.2667881824510016 1.0589811540678586 -0.35262113335647227
v -0.25496268999870336 1.151369109104374 -0.31622575600671254
v -0.32266051568375254 1.0541975472401268 -0.32232427733400504
v -0.31083502323145434 1.1465855022766425 -0.28592889998424537
v -0.3262292062277616 1.0589810896058847 -0.3333075450734395
v -0.3144037137754634 1.1513690446424008 -0.2969121677236798
v -0.22469410322684474 1.1625 -0.22306864378515656
v -0.2555958026643395 1.1625 -0.31817429541467196
v -0.2246941032268448 1.1499999999999997 -0.2230686437851565
v -0.2555958026643395 1.15 -0.3181742954146719
v -0.28413513549529196 1.1624999999999999 -0.2037550816367223
v -0.3150368349327866 1.1625 -0.2988607332662377
v -0.2841351354952919 1.15 -0.20375508163672232
v -0.3150368349327866 1.15 -0.29886073326623774
v -0.2246941032268448 1.1437499999999998 -0.2230686437851565
v -0.2555958026643395 1.1437499999999998 -0.3181742954146719
v -0.2246941032268448 0.8499999999999998 -0.2230686437851566
v -0.25559580266433946 0.8499999999999998 -0.31817429541467185
v -0.2841351354952919 1.1437499999999998 -0.20375508163672232
v -0.3150368349327866 1.1437499999999998 -0.2988607332662377
v -0.2841351354952919 0.8499999999999998 -0.2037550816367223
v -0.3150368349327866 0.8499999999999998 -0.29886073326623774
v -0.04062500000000002 1.021875 -0.38749999999999984
v -0.04062500000000005 1.0218749999999999 -0.4062499999999999
v -0.04062500000000005 0.9468749999999999 -0.38749999999999984
v -0.04062500000000002 0.9468749999999999 -0.4062499999999999
v -0.09062500000000001 1.021875 -0.38749999999999984
v -0.09062500000000001 1.021875 -0.40624999999999994
v -0.09062500000000004 0.9468749999999998 -0.3874999999999998
v -0.09062500000000001 0.9468749999999999 -0.40625
v 0.15575891829799918 1.218522361520023 -0.25877070701884797
v 0.1605415674038285 1.221841223275457 -0.32099900784876645
v 0.15612153440115625 1.0936988091162287 -0.26540013194555995
v 0.16090418350698563 1.0970176708716624 -0.32762843277547843
v 0.03424178675192088 1.2186649646962429 -0.2681024823133589
v 0.03902443585775023 1.2219838264516767 -0.33033078314327735
v 0.034604402855078015 1.0938414122924485 -0.27473190724007107
v 0.039387051960907374 1.0971602740478823 -0.3369602080699896
v 0.3034060788425396 1.2116728290523475 -0.22261084819903088
v 0.32415441975648834 1.2148596365250668 -0.28148020022069303
v 0.3037686867287705 1.0868492722778098 -0.22924019127920092
v 0.3245170276427193 1.0900360797505289 -0.2881095433008631
v 0.18844330866953615 1.213485570564163 -0.2630310296355426
v 0.20919164958348485 1.2166723780368824 -0.3219003816572046
v 0.188805916555767 1.0886620137896252 -0.2696603727157125
v 0.20955425746971573 1.0918488212623447 -0.32852972473737463
v -0.21250000000000008 0.8710801826274629 -0.13770542892368967
v -0.21250000000000008 0.8756533028954228 -0.18121576184605157
v -0.21250000000000008 0.7467649457064287 -0.1507714868321463
v -0.21250000000000002 0.7513380659743887 -0.19428181975450826
v -0.25000000000000006 0.8710801826274629 -0.13770542892368964
v -0.25000000000000006 0.8756533028954226 -0.1812157618460516
v -0.25000000000000006 0.7467649457064288 -0.15077148683214636
v -0.25000000000000006 0.7513380659743887 -0.19428181975450826
v -0.08125000000000004 0.8721766729771516 -0.1665851798021365
v -0.08125000000000004 0.8732661197614975 -0.1790376135282833
v -0.08125000000000002 0.6667115164957291 -0.18456105174384108
v -0.08125000000000002 0.667800963280075 -0.19701348546998781
v -0.21250000000000008 0.8721766729771516 -0.16658517980213652
v -0.21250000000000002 0.8732661197614975 -0.1790376135282833
v -0.21250000000000002 0.6667115164957291 -0.18456105174384108
v -0.21250000000000008 0.667800963280075 -0.19701348546998776
v -0.21440311269504497 0.7546017418548203 -0.1477409153987479
v -0.21440311269504497 0.7606905650218232 -0.19106514340619157
v -0.16656768364940872 0.6402406918035934 -0.16381331283038936
v -0.16656768364940877 0.6463295149705962 -0.20713754083783298
v -0.24904859516421823 0.7403907724732864 -0.14973813689755888
v -0.24904859516421823 0.7464795956402893 -0.1930623649050025
v -0.20121316611858198 0.6260297224220593 -0.16581053432920023
v -0.20121316611858203 0.6321185455890622 -0.20913476233664396
v -0.17562808871894703 0.6532229761662587 -0.1619887717497166
v -0.17562808871894708 0.6593117993332616 -0.20531299975716027
v -0.08723974107062862 0.5656948178412998 -0.17429005218066934
v -0.08723974107062862 0.5717836410083027 -0.21761428018811302
v -0.20214459301344256 0.6269645286687711 -0.1656791558790024
v -0.20214459301344256 0.6330533518357739 -0.20900338388644601
v -0.11375624536512413 0.5394363703438121 -0.1779804363099552
v -0.11375624536512413 0.545525193510815 -0.22130466431739887
v -0.03093592167691142 0.6180996319687055 -0.188814040552587
v -0.03093592167691145 0.6186443553608784 -0.19504025741566033
v -0.08396893026590263 0.5652684299884985 -0.1934361718063034
v -0.08396893026590263 0.5658131533806713 -0.1996623886693768
v -0.13258252147247762 0.7193594357641021 -0.17995495564963038
v -0.13258252147247768 0.719904159156275 -0.18618117251270375
v -0.1856155300614688 0.6665282337838951 -0.1845770869033468
v -0.1856155300614688 0.6670729571760677 -0.19080330376642024
v -0.10324182561109702 0.5728225424695936 -0.1732883158118801
v -0.10324182561109696 0.5789113656365965 -0.21661254381932382
v 0.012243115952813854 0.525452644531147 -0.1799457208079166
v 0.012243115952813827 0.5315414676981498 -0.22326994881536022
v -0.11759245432478788 0.5385142274542255 -0.17811003504137257
v -0.11759245432478788 0.5446030506212284 -0.2214342630488163
v -0.002107512760877034 0.4911443295157789 -0.18476744003740897
v -0.002107512760877006 0.4972331526827818 -0.2280916680448526
v 0.08124999999999999 0.8721766729771517 -0.16658517980213647
v 0.08124999999999999 0.8732661197614976 -0.17903761352828326
v 0.08124999999999999 0.5297347455081142 -0.1965449663716441
v 0.08124999999999999 0.5308241922924601 -0.20899740009779075
v -0.08125000000000004 0.8721766729771516 -0.1665851798021365
v -0.08125000000000004 0.8732661197614975 -0.1790376135282833
v -0.08125000000000004 0.5297347455081142 -0.19654496637164404
v -0.08125000000000002 0.5308241922924601 -0.20899740009779078
v 0.1175924543247878 0.5385142274542254 -0.17811003504137257
v 0.11759245432478783 0.5446030506212284 -0.22143426304881625
v 0.0021075127608769784 0.4911443295157789 -0.18476744003740903
v 0.002107512760877006 0.4972331526827818 -0.2280916680448526
v 0.10324182561109696 0.5728225424695937 -0.1732883158118802
v 0.10324182561109695 0.5789113656365965 -0.21661254381932382
v -0.012243115952813882 0.5254526445311469 -0.17994572080791654
v -0.012243115952813854 0.5315414676981498 -0.2232699488153602
v 0.2021445930134425 0.6269645286687711 -0.16567915587900234
v 0.20214459301344254 0.6330533518357739 -0.20900338388644601
v 0.1137562453651241 0.539436370343812 -0.1779804363099552
v 0.1137562453651241 0.5455251935108149 -0.22130466431739884
v 0.17562808871894703 0.6532229761662587 -0.16198877174971663
v 0.17562808871894703 0.6593117993332615 -0.20531299975716027
v 0.0872397410706286 0.5656948178412999 -0.17429005218066929
v 0.08723974107062858 0.5717836410083027 -0.21761428018811294
v 0.13258252147247762 0.7193594357641021 -0.17995495564963032
v 0.13258252147247762 0.7199041591562749 -0.18618117251270372
v 0.1856155300614688 0.6665282337838951 -0.1845770869033468
v 0.1856155300614688 0.6670729571760678 -0.19080330376642024
v 0.030935921676911407 0.6180996319687055 -0.188814040552587
v 0.030935921676911407 0.6186443553608784 -0.1950402574156603
v 0.08396893026590262 0.5652684299884985 -0.19343617180630335
v 0.08396893026590262 0.5658131533806713 -0.19966238866937677
v 0.2490485951642182 0.7403907724732864 -0.14973813689755885
v 0.24904859516421818 0.7464795956402893 -0.1930623649050025
v 0.20121316611858198 0.6260297224220593 -0.16581053432920026
v 0.20121316611858198 0.6321185455890622 -0.20913476233664394
v 0.21440311269504492 0.7546017418548203 -0.14774091539874795
v 0.21440311269504495 0.7606905650218233 -0.1910651434061916
v 0.16656768364940872 0.6402406918035934 -0.16381331283038936
v 0.16656768364940872 0.6463295149705961 -0.207137540837833
v 0.21249999999999997 0.8721766729771516 -0.16658517980213647
v 0.21249999999999997 0.8732661197614976 -0.17903761352828323
v 0.21249999999999997 0.6667115164957292 -0.18456105174384105
v 0.21249999999999997 0.667800963280075 -0.19701348546998781
v 0.08124999999999999 0.8721766729771517 -0.16658517980213647
v 0.08124999999999998 0.8732661197614976 -0.17903761352828326
v 0.08124999999999999 0.6667115164957292 -0.18456105174384105
v 0.08124999999999999 0.667800963280075 -0.1970134854699878
v 0.25 0.872004820233743 -0.1438938688010255
v 0.25000000000000006 0.8761980719065027 -0.18744245247958966
v 0.25 0.7475802954378455 -0.15587458786605354
v 0.25 0.7517735471106054 -0.19942317154461767
v 0.21250000000000005 0.872004820233743 -0.14389386880102556
v 0.21250000000000002 0.8761980719065027 -0.18744245247958966
v 0.21250000000000002 0.7475802954378455 -0.15587458786605354
v 0.21250000000000002 0.7517735471106054 -0.19942317154461767
vt 0.236328125 0.6484375
vt 0.2265625 0.6484375
vt 0.2265625 0.6171875
vt 0.236328125 0.6171875
vt 0.392255859375 0.9140625
vt 0.382880859375 0.9140625
vt 0.382880859375 0.8828125
vt 0.392509765625 0.88357734375
vt 0.3125 0.5859375
vt 0.296875 0.5859375
vt 0.296875 0.576171875
vt 0.3125 0.576171875
vt 0.14250953753206586 0.5684634814669838
vt 0.14225495872965427 0.584867756174994
vt 0.13288108746793414 0.5847222825736158
vt 0.13288108746793414 0.568359375
vt 0.328125 0.9375
vt 0.3125 0.9375
vt 0.3125 0.90625
vt 0.328125 0.90625
vt 0.25 0.6875
vt 0.234375 0.6875
vt 0.2344203125 0.6570140625
vt 0.25 0.65625078125
vt 0.314453125 0.6171875
vt 0.314453125 0.6484375
vt 0.3046875 0.6484375
vt 0.3046875 0.6171875
vt 0.369140625 0.90625
vt 0.369140625 0.9375
vt 0.35962890625 0.9375
vt 0.359375 0.90701484375
vt 0.3359375 0.576171875
vt 0.3359375 0.5859375
vt 0.3203125 0.5859375
vt 0.3203125 0.576171875
vt 0.359375 0.57642578125
vt 0.359375 0.58580078125
vt 0.34375 0.58580078125
vt 0.3437953125 0.576171875
vt 0.2265625 0.65625
vt 0.2265625 0.6875
vt 0.2109375 0.6875
vt 0.2109375 0.65625
vt 0.31382187500000003 0.8445140625
vt 0.3138671875 0.875
vt 0.2974609375 0.875
vt 0.2974609375 0.84375078125
vt 0.470703125 0.765625
vt 0.453125 0.765625
vt 0.453125 0.76171875
vt 0.470703125 0.76171875
vt 0.478515625 0.82421875
vt 0.478515625 0.828125
vt 0.4609375 0.828125
vt 0.4609375 0.82421875
vt 0.171875 0.896484375
vt 0.234375 0.896484375
vt 0.234375 0.9140625
vt 0.171875 0.9140625
vt 0.15625 0.810546875
vt 0.15625 0.828125
vt 0.09375 0.828125
vt 0.09375 0.810546875
vt 0.453125 0.83984375
vt 0.453125 0.84375
vt 0.390625 0.84375
vt 0.390625 0.83984375
vt 0.453125 0.6640625
vt 0.390625 0.6640625
vt 0.390625 0.66015625
vt 0.453125 0.66015625
vt 0.009765625 0.6328125
vt 0.009765625 0.6796875
vt 0 0.6796875
vt 0 0.6328125
vt 0.033203125 0.6328125
vt 0.033203125 0.6796875
vt 0.0234375 0.6796875
vt 0.0234375 0.6328125
vt 0.296875 0.8359375
vt 0.296875 0.826171875
vt 0.33203125 0.826171875
vt 0.33203125 0.8359375
vt 0.34375 0.951171875
vt 0.34375 0.9609375
vt 0.37890625 0.9609375
vt 0.37890625 0.951171875
vt 0.03515625 0.84375
vt 0.03515625 0.890625
vt 0 0.890625
vt 0 0.84375
vt 0.11328125 0.875
vt 0.11328125 0.921875
vt 0.078125 0.921875
vt 0.078125 0.875
vt 0.212890625 0.6171875
vt 0.212890625 0.6484375
vt 0.203125 0.6484375
vt 0.203125 0.6171875
vt 0.361328125 0.7578125
vt 0.361328125 0.7890625
vt 0.3515625 0.7890625
vt 0.3515625 0.7578125
vt 0.34375 0.84375
vt 0.34375 0.833984375
vt 0.37890625 0.833984375
vt 0.37890625 0.84375
vt 0.34375 0.654296875
vt 0.34375 0.6640625
vt 0.37890625 0.6640625
vt 0.37890625 0.654296875
vt 0.20703125 0.921875
vt 0.20703125 0.953125
vt 0.171875 0.953125
vt 0.171875 0.921875
vt 0.03515625 0.8046875
vt 0.03515625 0.8359375
vt 0 0.8359375
vt 0 0.8046875
vt 0.330078125 0.65625
vt 0.330078125 0.703125
vt 0.3203125 0.703125
vt 0.3203125 0.65625
vt 0.095703125 0.625
vt 0.095703125 0.671875
vt 0.0859375 0.671875
vt 0.0859375 0.625
vt 0.203125 0.5859375
vt 0.203125 0.576171875
vt 0.21875 0.576171875
vt 0.21875 0.5859375
vt 0.2265625 0.576171875
vt 0.2265625 0.5859375
vt 0.2421875 0.5859375
vt 0.2421875 0.576171875
vt 0.265625 0.71875
vt 0.265625 0.765625
vt 0.25 0.765625
vt 0.25 0.71875
vt 0.265625 0.7734375
vt 0.265625 0.8203125
vt 0.25 0.8203125
vt 0.25 0.7734375
vt 0.337890625 0.8515625
vt 0.337890625 0.8984375
vt 0.328125 0.8984375
vt 0.328125 0.8515625
vt 0.119140625 0.625
vt 0.119140625 0.671875
vt 0.109375 0.671875
vt 0.109375 0.625
vt 0.25 0.5859375
vt 0.25 0.576171875
vt 0.265625 0.576171875
vt 0.265625 0.5859375
vt 0.2734375 0.576171875
vt 0.2734375 0.5859375
vt 0.2890625 0.5859375
vt 0.2890625 0.576171875
vt 0.2890625 0.8203125
vt 0.2890625 0.8671875
vt 0.2734375 0.8671875
vt 0.2734375 0.8203125
vt 0.2734375 0.875
vt 0.2734375 0.921875
vt 0.2578125 0.921875
vt 0.2578125 0.875
vt 0.451171875 0.9296875
vt 0.451171875 0.9453125
vt 0.4453125 0.9453125
vt 0.4453125 0.9296875
vt 0.107421875 0.5390625
vt 0.107421875 0.5546875
vt 0.1015625 0.5546875
vt 0.1015625 0.5390625
vt 0.3984375 1
vt 0.3984375 0.994140625
vt 0.43359375 0.994140625
vt 0.43359375 1
vt 0.25 0.595703125
vt 0.25 0.6015625
vt 0.28515625 0.6015625
vt 0.28515625 0.595703125
vt 0.31640625 0.8828125
vt 0.31640625 0.8984375
vt 0.28125 0.8984375
vt 0.28125 0.8828125
vt 0.08203125 0.8046875
vt 0.08203125 0.8203125
vt 0.046875 0.8203125
vt 0.046875 0.8046875
vt 0.005859375 0.568359375
vt 0.005859375 0.6015625
vt 0 0.6015625
vt 0 0.568359375
vt 0.021484375 0.568359375
vt 0.021484375 0.6015625
vt 0.015625 0.6015625
vt 0.015625 0.568359375
vt 0.3984375 0.71875
vt 0.3984375 0.712890625
vt 0.43359375 0.712890625
vt 0.43359375 0.71875
vt 0.296875 0.595703125
vt 0.296875 0.6015625
vt 0.33203125 0.6015625
vt 0.33203125 0.595703125
vt 0.16015625 0.841796875
vt 0.16015625 0.875
vt 0.125 0.875
vt 0.125 0.841796875
vt 0.16015625 0.888671875
vt 0.16015625 0.921875
vt 0.125 0.921875
vt 0.125 0.888671875
vt 0.451171875 0.8828125
vt 0.451171875 0.8984375
vt 0.4453125 0.8984375
vt 0.4453125 0.8828125
vt 0.123046875 0.5390625
vt 0.123046875 0.5546875
vt 0.1171875 0.5546875
vt 0.1171875 0.5390625
vt 0.3984375 0.703125
vt 0.3984375 0.697265625
vt 0.43359375 0.697265625
vt 0.43359375 0.703125
vt 0.3984375 0.681640625
vt 0.3984375 0.6875
vt 0.43359375 0.6875
vt 0.43359375 0.681640625
vt 0.03515625 0.6875
vt 0.03515625 0.703125
vt 0 0.703125
vt 0 0.6875
vt 0.24609375 0.6953125
vt 0.24609375 0.7109375
vt 0.2109375 0.7109375
vt 0.2109375 0.6953125
vt 0.076171875 0.560546875
vt 0.076171875 0.59375
vt 0.0703125 0.59375
vt 0.0703125 0.560546875
vt 0.091796875 0.560546875
vt 0.091796875 0.59375
vt 0.0859375 0.59375
vt 0.0859375 0.560546875
vt 0.34375 0.6015625
vt 0.34375 0.595703125
vt 0.37890625 0.595703125
vt 0.37890625 0.6015625
vt 0.390625 0.595703125
vt 0.390625 0.6015625
vt 0.42578125 0.6015625
vt 0.42578125 0.595703125
vt 0.19140625 0.966796875
vt 0.19140625 1
vt 0.15625 1
vt 0.15625 0.966796875
vt 0.08203125 0.833984375
vt 0.08203125 0.8671875
vt 0.046875 0.8671875
vt 0.046875 0.833984375
vt 0.056640625 0.6171875
vt 0.056640625 0.6640625
vt 0.046875 0.6640625
vt 0.046875 0.6171875
vt 0.142578125 0.6171875
vt 0.142578125 0.6640625
vt 0.1328125 0.6640625
vt 0.1328125 0.6171875
vt 0.2578125 1
vt 0.2578125 0.990234375
vt 0.32421875 0.990234375
vt 0.32421875 1
vt 0.2734375 0.802734375
vt 0.2734375 0.8125
vt 0.33984375 0.8125
vt 0.33984375 0.802734375
vt 0.06640625 0.8984375
vt 0.06640625 0.9453125
vt 0 0.9453125
vt 0 0.8984375
vt 0.06640625 0.953125
vt 0.06640625 1
vt 0 1
vt 0 0.953125
vt 0.369140625 0.71875
vt 0.369140625 0.75
vt 0.359375 0.75
vt 0.359375 0.71875
vt 0.337890625 0.609375
vt 0.337890625 0.640625
vt 0.328125 0.640625
vt 0.328125 0.609375
vt 0.2734375 0.7890625
vt 0.2734375 0.779296875
vt 0.33984375 0.779296875
vt 0.33984375 0.7890625
vt 0.2734375 0.755859375
vt 0.2734375 0.765625
vt 0.33984375 0.765625
vt 0.33984375 0.755859375
vt 0.14453125 0.9296875
vt 0.14453125 0.9609375
vt 0.078125 0.9609375
vt 0.078125 0.9296875
vt 0.14453125 0.96875
vt 0.14453125 1
vt 0.078125 1
vt 0.078125 0.96875
vt 0.052734375 0.671875
vt 0.052734375 0.703125
vt 0.046875 0.703125
vt 0.046875 0.671875
vt 0.412109375 0.8828125
vt 0.412109375 0.9140625
vt 0.40625 0.9140625
vt 0.40625 0.8828125
vt 0.203125 0.5625
vt 0.203125 0.556640625
vt 0.22265625 0.556640625
vt 0.22265625 0.5625
vt 0.4375 0.791015625
vt 0.4375 0.796875
vt 0.45703125 0.796875
vt 0.45703125 0.791015625
vt 0.29296875 0.7109375
vt 0.29296875 0.7421875
vt 0.2734375 0.7421875
vt 0.2734375 0.7109375
vt 0.11328125 0.8359375
vt 0.11328125 0.8671875
vt 0.09375 0.8671875
vt 0.09375 0.8359375
vt 0.037109375 0.57421875
vt 0.037109375 0.625
vt 0.03125 0.625
vt 0.03125 0.57421875
vt 0.107421875 0.56640625
vt 0.107421875 0.6171875
vt 0.1015625 0.6171875
vt 0.1015625 0.56640625
vt 0.4375 0.78125
vt 0.4375 0.775390625
vt 0.45703125 0.775390625
vt 0.45703125 0.78125
vt 0.234375 0.556640625
vt 0.234375 0.5625
vt 0.25390625 0.5625
vt 0.25390625 0.556640625
vt 0.24609375 0.83203125
vt 0.24609375 0.8828125
vt 0.2265625 0.8828125
vt 0.2265625 0.83203125
vt 0.23828125 0.76953125
vt 0.23828125 0.8203125
vt 0.21875 0.8203125
vt 0.21875 0.76953125
vt 0.373046875 0.560546875
vt 0.373046875 0.5859375
vt 0.3671875 0.5859375
vt 0.3671875 0.560546875
vt 0.388671875 0.560546875
vt 0.388671875 0.5859375
vt 0.3828125 0.5859375
vt 0.3828125 0.560546875
vt 0.4375 0.75
vt 0.4375 0.744140625
vt 0.45703125 0.744140625
vt 0.45703125 0.75
vt 0.265625 0.556640625
vt 0.265625 0.5625
vt 0.28515625 0.5625
vt 0.28515625 0.556640625
vt 0.30859375 0.677734375
vt 0.30859375 0.703125
vt 0.2890625 0.703125
vt 0.2890625 0.677734375
vt 0.27734375 0.677734375
vt 0.27734375 0.703125
vt 0.2578125 0.703125
vt 0.2578125 0.677734375
vt 0.138671875 0.5390625
vt 0.138671875 0.5546875
vt 0.1328125 0.5546875
vt 0.1328125 0.5390625
vt 0.154296875 0.5390625
vt 0.154296875 0.5546875
vt 0.1484375 0.5546875
vt 0.1484375 0.5390625
vt 0.4375 0.734375
vt 0.4375 0.728515625
vt 0.45703125 0.728515625
vt 0.45703125 0.734375
vt 0.296875 0.556640625
vt 0.296875 0.5625
vt 0.31640625 0.5625
vt 0.31640625 0.556640625
vt 0.37109375 0.8515625
vt 0.37109375 0.8671875
vt 0.3515625 0.8671875
vt 0.3515625 0.8515625
vt 0.06640625 0.875
vt 0.06640625 0.890625
vt 0.046875 0.890625
vt 0.046875 0.875
vt 0.451171875 0.703125
vt 0.451171875 0.71875
vt 0.4453125 0.71875
vt 0.4453125 0.703125
vt 0.451171875 0.6796875
vt 0.451171875 0.6953125
vt 0.4453125 0.6953125
vt 0.4453125 0.6796875
vt 0.328125 0.5625
vt 0.328125 0.556640625
vt 0.34765625 0.556640625
vt 0.34765625 0.5625
vt 0.4375 0.642578125
vt 0.4375 0.6484375
vt 0.45703125 0.6484375
vt 0.45703125 0.642578125
vt 0.38671875 0.984375
vt 0.38671875 1
vt 0.3671875 1
vt 0.3671875 0.984375
vt 0.37109375 0.625
vt 0.37109375 0.640625
vt 0.3515625 0.640625
vt 0.3515625 0.625
vt 0.412109375 0.796875
vt 0.412109375 0.828125
vt 0.40625 0.828125
vt 0.40625 0.796875
vt 0.052734375 0.5546875
vt 0.052734375 0.5859375
vt 0.046875 0.5859375
vt 0.046875 0.5546875
vt 0.4375 0.6328125
vt 0.4375 0.626953125
vt 0.45703125 0.626953125
vt 0.45703125 0.6328125
vt 0.4375 0.611328125
vt 0.4375 0.6171875
vt 0.45703125 0.6171875
vt 0.45703125 0.611328125
vt 0.30078125 0.90625
vt 0.30078125 0.9375
vt 0.28125 0.9375
vt 0.28125 0.90625
vt 0.30078125 0.9453125
vt 0.30078125 0.9765625
vt 0.28125 0.9765625
vt 0.28125 0.9453125
vt 0.404296875 0.560546875
vt 0.404296875 0.5859375
vt 0.3984375 0.5859375
vt 0.3984375 0.560546875
vt 0.419921875 0.560546875
vt 0.419921875 0.5859375
vt 0.4140625 0.5859375
vt 0.4140625 0.560546875
vt 0.4375 0.6015625
vt 0.4375 0.595703125
vt 0.45703125 0.595703125
vt 0.45703125 0.6015625
vt 0 0.548828125
vt 0 0.5546875
vt 0.01953125 0.5546875
vt 0.01953125 0.548828125
vt 0.33203125 0.951171875
vt 0.33203125 0.9765625
vt 0.3125 0.9765625
vt 0.3125 0.951171875
vt 0.32421875 0.716796875
vt 0.32421875 0.7421875
vt 0.3046875 0.7421875
vt 0.3046875 0.716796875
vt 0.123046875 0.56640625
vt 0.123046875 0.6171875
vt 0.1171875 0.6171875
vt 0.1171875 0.56640625
vt 0.162109375 0.56640625
vt 0.162109375 0.6171875
vt 0.15625 0.6171875
vt 0.15625 0.56640625
vt 0.4453125 1
vt 0.4453125 0.994140625
vt 0.46484375 0.994140625
vt 0.46484375 1
vt 0.4453125 0.955078125
vt 0.4453125 0.9609375
vt 0.46484375 0.9609375
vt 0.46484375 0.955078125
vt 0.05078125 0.71484375
vt 0.05078125 0.765625
vt 0.03125 0.765625
vt 0.03125 0.71484375
vt 0.01953125 0.71484375
vt 0.01953125 0.765625
vt 0 0.765625
vt 0 0.71484375
vt 0.162109375 0.9296875
vt 0.162109375 0.953125
vt 0.15625 0.953125
vt 0.15625 0.9296875
vt 0.248046875 0.890625
vt 0.248046875 0.9140625
vt 0.2421875 0.9140625
vt 0.2421875 0.890625
vt 0.3671875 0.9765625
vt 0.3671875 0.970703125
vt 0.41015625 0.970703125
vt 0.41015625 0.9765625
vt 0.375 0.759765625
vt 0.375 0.765625
vt 0.41796875 0.765625
vt 0.41796875 0.759765625
vt 0.21484375 0.828125
vt 0.21484375 0.8515625
vt 0.171875 0.8515625
vt 0.171875 0.828125
vt 0.21484375 0.859375
vt 0.21484375 0.8828125
vt 0.171875 0.8828125
vt 0.171875 0.859375
vt 0.427734375 0.8984375
vt 0.427734375 0.921875
vt 0.421875 0.921875
vt 0.421875 0.8984375
vt 0.427734375 0.8046875
vt 0.427734375 0.828125
vt 0.421875 0.828125
vt 0.421875 0.8046875
vt 0.25 0.6171875
vt 0.25 0.611328125
vt 0.29296875 0.611328125
vt 0.29296875 0.6171875
vt 0.3828125 0.744140625
vt 0.3828125 0.75
vt 0.42578125 0.75
vt 0.42578125 0.744140625
vt 0.04296875 0.7734375
vt 0.04296875 0.796875
vt 0 0.796875
vt 0 0.7734375
vt 0.20703125 0.796875
vt 0.20703125 0.8203125
vt 0.1640625 0.8203125
vt 0.1640625 0.796875
vt 0.177734375 0.546875
vt 0.177734375 0.5703125
vt 0.171875 0.5703125
vt 0.171875 0.546875
vt 0.193359375 0.546875
vt 0.193359375 0.5703125
vt 0.1875 0.5703125
vt 0.1875 0.546875
vt 0.3828125 0.734375
vt 0.3828125 0.728515625
vt 0.42578125 0.728515625
vt 0.42578125 0.734375
vt 0.3515625 0.611328125
vt 0.3515625 0.6171875
vt 0.39453125 0.6171875
vt 0.39453125 0.611328125
vt 0.09765625 0.7734375
vt 0.09765625 0.796875
vt 0.0546875 0.796875
vt 0.0546875 0.7734375
vt 0.24609375 0.9765625
vt 0.24609375 1
vt 0.203125 1
vt 0.203125 0.9765625
vt 0.435546875 0.5625
vt 0.435546875 0.5859375
vt 0.4296875 0.5859375
vt 0.4296875 0.5625
vt 0.037109375 0.5390625
vt 0.037109375 0.5625
vt 0.03125 0.5625
vt 0.03125 0.5390625
vt 0.3828125 0.640625
vt 0.3828125 0.634765625
vt 0.42578125 0.634765625
vt 0.42578125 0.640625
vt 0.390625 0.955078125
vt 0.390625 0.9609375
vt 0.43359375 0.9609375
vt 0.43359375 0.955078125
vt 0.20703125 0.765625
vt 0.20703125 0.7890625
vt 0.1640625 0.7890625
vt 0.1640625 0.765625
vt 0.15234375 0.7734375
vt 0.15234375 0.796875
vt 0.109375 0.796875
vt 0.109375 0.7734375
vt 0.109375 0.6796875
vt 0.109375 0.71875
vt 0.09375 0.71875
vt 0.09375 0.6796875
vt 0.1328125 0.6796875
vt 0.1328125 0.71875
vt 0.1171875 0.71875
vt 0.1171875 0.6796875
vt 0.3671875 0.7109375
vt 0.3671875 0.6953125
vt 0.38671875 0.6953125
vt 0.38671875 0.7109375
vt 0.3671875 0.671875
vt 0.3671875 0.6875
vt 0.38671875 0.6875
vt 0.38671875 0.671875
vt 0.14453125 0.7265625
vt 0.14453125 0.765625
vt 0.125 0.765625
vt 0.125 0.7265625
vt 0.11328125 0.7265625
vt 0.11328125 0.765625
vt 0.09375 0.765625
vt 0.09375 0.7265625
vt 0.078125 0.671875
vt 0.078125 0.7109375
vt 0.0625 0.7109375
vt 0.0625 0.671875
vt 0.15625 0.671875
vt 0.15625 0.7109375
vt 0.140625 0.7109375
vt 0.140625 0.671875
vt 0 0.625
vt 0 0.609375
vt 0.01953125 0.609375
vt 0.01953125 0.625
vt 0.375 0.7734375
vt 0.375 0.7890625
vt 0.39453125 0.7890625
vt 0.39453125 0.7734375
vt 0.20703125 0.71875
vt 0.20703125 0.7578125
vt 0.1875 0.7578125
vt 0.1875 0.71875
vt 0.17578125 0.71875
vt 0.17578125 0.7578125
vt 0.15625 0.7578125
vt 0.15625 0.71875
vt 0.494140625 0.849609375
vt 0.494140625 0.8515625
vt 0.4765625 0.8515625
vt 0.4765625 0.849609375
vt 0.212890625 0.521484375
vt 0.212890625 0.5234375
vt 0.1953125 0.5234375
vt 0.1953125 0.521484375
vt 0.3828125 0.875
vt 0.3828125 0.857421875
vt 0.3984375 0.857421875
vt 0.3984375 0.875
vt 0.3828125 0.802734375
vt 0.3828125 0.8203125
vt 0.3984375 0.8203125
vt 0.3984375 0.802734375
vt 0.4921875 0.677734375
vt 0.4921875 0.6796875
vt 0.4765625 0.6796875
vt 0.4765625 0.677734375
vt 0.3359375 0.521484375
vt 0.3359375 0.5234375
vt 0.3203125 0.5234375
vt 0.3203125 0.521484375
vt 0.244140625 0.521484375
vt 0.244140625 0.5234375
vt 0.2265625 0.5234375
vt 0.2265625 0.521484375
vt 0.275390625 0.521484375
vt 0.275390625 0.5234375
vt 0.2578125 0.5234375
vt 0.2578125 0.521484375
vt 0.3515625 0.8984375
vt 0.3515625 0.880859375
vt 0.37109375 0.880859375
vt 0.37109375 0.8984375
vt 0.3515625 0.802734375
vt 0.3515625 0.8203125
vt 0.37109375 0.8203125
vt 0.37109375 0.802734375
vt 0.49609375 0.998046875
vt 0.49609375 1
vt 0.4765625 1
vt 0.4765625 0.998046875
vt 0.48828125 0.607421875
vt 0.48828125 0.609375
vt 0.46875 0.609375
vt 0.46875 0.607421875
vt 0.1796875 0.671875
vt 0.1796875 0.7109375
vt 0.1640625 0.7109375
vt 0.1640625 0.671875
vt 0.203125 0.671875
vt 0.203125 0.7109375
vt 0.1875 0.7109375
vt 0.1875 0.671875
vt 0.3828125 0.9375
vt 0.3828125 0.921875
vt 0.40234375 0.921875
vt 0.40234375 0.9375
vt 0.0703125 0.6015625
vt 0.0703125 0.6171875
vt 0.08984375 0.6171875
vt 0.08984375 0.6015625
vt 0.26953125 0.9296875
vt 0.26953125 0.96875
vt 0.25 0.96875
vt 0.25 0.9296875
vt 0.23828125 0.71875
vt 0.23828125 0.7578125
vt 0.21875 0.7578125
vt 0.21875 0.71875
vt 0.48828125 0.591796875
vt 0.48828125 0.59375
vt 0.4765625 0.59375
vt 0.4765625 0.591796875
vt 0.48828125 0.576171875
vt 0.48828125 0.578125
vt 0.4765625 0.578125
vt 0.4765625 0.576171875
vt 0.4453125 0.5859375
vt 0.4453125 0.57421875
vt 0.453125 0.57421875
vt 0.453125 0.5859375
vt 0.4296875 0.54296875
vt 0.4296875 0.5546875
vt 0.4375 0.5546875
vt 0.4375 0.54296875
vt 0.1484375 0.505859375
vt 0.1484375 0.5078125
vt 0.140625 0.5078125
vt 0.140625 0.505859375
vt 0.1328125 0.505859375
vt 0.1328125 0.5078125
vt 0.125 0.5078125
vt 0.125 0.505859375
vt 0.48828125 0.560546875
vt 0.48828125 0.5625
vt 0.4765625 0.5625
vt 0.4765625 0.560546875
vt 0.48828125 0.544921875
vt 0.48828125 0.546875
vt 0.4765625 0.546875
vt 0.4765625 0.544921875
vt 0.4453125 0.5625
vt 0.4453125 0.55078125
vt 0.453125 0.55078125
vt 0.453125 0.5625
vt 0.453125 0.97265625
vt 0.453125 0.984375
vt 0.4609375 0.984375
vt 0.4609375 0.97265625
vt 0.203125 0.505859375
vt 0.203125 0.5078125
vt 0.1953125 0.5078125
vt 0.1953125 0.505859375
vt 0.5 0.833984375
vt 0.5 0.8359375
vt 0.4921875 0.8359375
vt 0.4921875 0.833984375
vt 0.16796875 0.626953125
vt 0.16796875 0.6640625
vt 0.15625 0.6640625
vt 0.15625 0.626953125
vt 0.19140625 0.626953125
vt 0.19140625 0.6640625
vt 0.1796875 0.6640625
vt 0.1796875 0.626953125
vt 0.046875 0.546875
vt 0.046875 0.53515625
vt 0.0546875 0.53515625
vt 0.0546875 0.546875
vt 0.0625 0.53515625
vt 0.0625 0.546875
vt 0.0703125 0.546875
vt 0.0703125 0.53515625
vt 0.078125 0.626953125
vt 0.078125 0.6640625
vt 0.0703125 0.6640625
vt 0.0703125 0.626953125
vt 0.265625 0.830078125
vt 0.265625 0.8671875
vt 0.2578125 0.8671875
vt 0.2578125 0.830078125
vt 0.48828125 0.529296875
vt 0.48828125 0.53125
vt 0.4765625 0.53125
vt 0.4765625 0.529296875
vt 0.01171875 0.513671875
vt 0.01171875 0.515625
vt 0 0.515625
vt 0 0.513671875
vt 0.078125 0.546875
vt 0.078125 0.53515625
vt 0.0859375 0.53515625
vt 0.0859375 0.546875
vt 0.453125 0.91015625
vt 0.453125 0.921875
vt 0.4609375 0.921875
vt 0.4609375 0.91015625
vt 0.234375 0.505859375
vt 0.234375 0.5078125
vt 0.2265625 0.5078125
vt 0.2265625 0.505859375
vt 0.21875 0.505859375
vt 0.21875 0.5078125
vt 0.2109375 0.5078125
vt 0.2109375 0.505859375
vt 0.49609375 0.982421875
vt 0.49609375 0.984375
vt 0.484375 0.984375
vt 0.484375 0.982421875
vt 0.49609375 0.919921875
vt 0.49609375 0.921875
vt 0.484375 0.921875
vt 0.484375 0.919921875
vt 0.453125 0.875
vt 0.453125 0.86328125
vt 0.4609375 0.86328125
vt 0.4609375 0.875
vt 0.203125 0.53515625
vt 0.203125 0.546875
vt 0.2109375 0.546875
vt 0.2109375 0.53515625
vt 0.265625 0.505859375
vt 0.265625 0.5078125
vt 0.2578125 0.5078125
vt 0.2578125 0.505859375
vt 0.25 0.505859375
vt 0.25 0.5078125
vt 0.2421875 0.5078125
vt 0.2421875 0.505859375
vt 0.26953125 0.626953125
vt 0.26953125 0.6640625
vt 0.2578125 0.6640625
vt 0.2578125 0.626953125
vt 0.29296875 0.626953125
vt 0.29296875 0.6640625
vt 0.28125 0.6640625
vt 0.28125 0.626953125
vt 0.21875 0.546875
vt 0.21875 0.53515625
vt 0.2265625 0.53515625
vt 0.2265625 0.546875
vt 0.234375 0.53515625
vt 0.234375 0.546875
vt 0.2421875 0.546875
vt 0.2421875 0.53515625
vt 0.1953125 0.580078125
vt 0.1953125 0.6171875
vt 0.1875 0.6171875
vt 0.1875 0.580078125
vt 0.1796875 0.580078125
vt 0.1796875 0.6171875
vt 0.171875 0.6171875
vt 0.171875 0.580078125
vt 0.494140625 0.958984375
vt 0.494140625 0.96875
vt 0.4921875 0.96875
vt 0.4921875 0.958984375
vt 0.494140625 0.935546875
vt 0.494140625 0.9453125
vt 0.4921875 0.9453125
vt 0.4921875 0.935546875
vt 0.2734375 0.5078125
vt 0.2734375 0.505859375
vt 0.279296875 0.505859375
vt 0.279296875 0.5078125
vt 0.2890625 0.505859375
vt 0.2890625 0.5078125
vt 0.294921875 0.5078125
vt 0.294921875 0.505859375
vt 0.474609375 0.740234375
vt 0.474609375 0.75
vt 0.46875 0.75
vt 0.46875 0.740234375
vt 0.474609375 0.779296875
vt 0.474609375 0.7890625
vt 0.46875 0.7890625
vt 0.46875 0.779296875
vt 0.4296875 0.96875
vt 0.4296875 0.984375
vt 0.421875 0.984375
vt 0.421875 0.96875
vt 0.4453125 0.96875
vt 0.4453125 0.984375
vt 0.4375 0.984375
vt 0.4375 0.96875
vt 0.421875 0.890625
vt 0.421875 0.8828125
vt 0.4375 0.8828125
vt 0.4375 0.890625
vt 0.4296875 0.7578125
vt 0.4296875 0.765625
vt 0.4453125 0.765625
vt 0.4453125 0.7578125
vt 0.1484375 0.59375
vt 0.1484375 0.609375
vt 0.1328125 0.609375
vt 0.1328125 0.59375
vt 0.0625 0.59375
vt 0.0625 0.609375
vt 0.046875 0.609375
vt 0.046875 0.59375
vt 0.4453125 0.90625
vt 0.4453125 0.921875
vt 0.4375 0.921875
vt 0.4375 0.90625
vt 0.4453125 0.859375
vt 0.4453125 0.875
vt 0.4375 0.875
vt 0.4375 0.859375
vt 0.4375 0.828125
vt 0.4375 0.8203125
vt 0.453125 0.8203125
vt 0.453125 0.828125
vt 0.4375 0.8046875
vt 0.4375 0.8125
vt 0.453125 0.8125
vt 0.453125 0.8046875
vt 0.2421875 0.59375
vt 0.2421875 0.609375
vt 0.2265625 0.609375
vt 0.2265625 0.59375
vt 0.21875 0.59375
vt 0.21875 0.609375
vt 0.203125 0.609375
vt 0.203125 0.59375
vt 0.255859375 0.53125
vt 0.255859375 0.546875
vt 0.25 0.546875
vt 0.25 0.53125
vt 0.271484375 0.53125
vt 0.271484375 0.546875
vt 0.265625 0.546875
vt 0.265625 0.53125
vt 0.203125 0.96875
vt 0.203125 0.962890625
vt 0.20703125 0.962890625
vt 0.20703125 0.96875
vt 0.3046875 0.658203125
vt 0.3046875 0.6640625
vt 0.30859375 0.6640625
vt 0.30859375 0.658203125
vt 0.46484375 0.6796875
vt 0.46484375 0.6953125
vt 0.4609375 0.6953125
vt 0.4609375 0.6796875
vt 0.46484375 0.703125
vt 0.46484375 0.71875
vt 0.4609375 0.71875
vt 0.4609375 0.703125
vt 0.470703125 0.623046875
vt 0.470703125 0.6484375
vt 0.46875 0.6484375
vt 0.46875 0.623046875
vt 0.423828125 0.505859375
vt 0.423828125 0.53125
vt 0.421875 0.53125
vt 0.421875 0.505859375
vt 0.4765625 0.6640625
vt 0.4765625 0.662109375
vt 0.4921875 0.662109375
vt 0.4921875 0.6640625
vt 0.34375 0.521484375
vt 0.34375 0.5234375
vt 0.359375 0.5234375
vt 0.359375 0.521484375
vt 0.3515625 0.716796875
vt 0.3515625 0.7421875
vt 0.3359375 0.7421875
vt 0.3359375 0.716796875
vt 0.3515625 0.912109375
vt 0.3515625 0.9375
vt 0.3359375 0.9375
vt 0.3359375 0.912109375
vt 0.287109375 0.53125
vt 0.287109375 0.546875
vt 0.28125 0.546875
vt 0.28125 0.53125
vt 0.302734375 0.53125
vt 0.302734375 0.546875
vt 0.296875 0.546875
vt 0.296875 0.53125
vt 0.484375 0.8828125
vt 0.484375 0.876953125
vt 0.48828125 0.876953125
vt 0.48828125 0.8828125
vt 0.484375 0.861328125
vt 0.484375 0.8671875
vt 0.48828125 0.8671875
vt 0.48828125 0.861328125
vt 0.46484375 0.5703125
vt 0.46484375 0.5859375
vt 0.4609375 0.5859375
vt 0.4609375 0.5703125
vt 0.46484375 0.65625
vt 0.46484375 0.671875
vt 0.4609375 0.671875
vt 0.4609375 0.65625
vt 0.318359375 0.53125
vt 0.318359375 0.546875
vt 0.3125 0.546875
vt 0.3125 0.53125
vt 0.333984375 0.53125
vt 0.333984375 0.546875
vt 0.328125 0.546875
vt 0.328125 0.53125
vt 0.484375 0.8125
vt 0.484375 0.806640625
vt 0.48828125 0.806640625
vt 0.48828125 0.8125
vt 0.484375 0.791015625
vt 0.484375 0.796875
vt 0.48828125 0.796875
vt 0.48828125 0.791015625
vt 0.44921875 0.5234375
vt 0.44921875 0.5390625
vt 0.4453125 0.5390625
vt 0.4453125 0.5234375
vt 0.46484375 0.546875
vt 0.46484375 0.5625
vt 0.4609375 0.5625
vt 0.4609375 0.546875
vt 0.064453125 0.498046875
vt 0.064453125 0.5078125
vt 0.0625 0.5078125
vt 0.0625 0.498046875
vt 0.080078125 0.498046875
vt 0.080078125 0.5078125
vt 0.078125 0.5078125
vt 0.078125 0.498046875
vt 0.4765625 0.7265625
vt 0.4765625 0.724609375
vt 0.494140625 0.724609375
vt 0.494140625 0.7265625
vt 0.2890625 0.521484375
vt 0.2890625 0.5234375
vt 0.306640625 0.5234375
vt 0.306640625 0.521484375
vt 0.423828125 0.779296875
vt 0.423828125 0.7890625
vt 0.40625 0.7890625
vt 0.40625 0.779296875
vt 0.423828125 0.865234375
vt 0.423828125 0.875
vt 0.40625 0.875
vt 0.40625 0.865234375
vt 0.349609375 0.53125
vt 0.349609375 0.546875
vt 0.34375 0.546875
vt 0.34375 0.53125
vt 0.365234375 0.53125
vt 0.365234375 0.546875
vt 0.359375 0.546875
vt 0.359375 0.53125
vt 0.484375 0.78125
vt 0.484375 0.775390625
vt 0.48828125 0.775390625
vt 0.48828125 0.78125
vt 0.484375 0.759765625
vt 0.484375 0.765625
vt 0.48828125 0.765625
vt 0.48828125 0.759765625
vt 0.47265625 0.96875
vt 0.47265625 0.984375
vt 0.46875 0.984375
vt 0.46875 0.96875
vt 0.46484375 0.5234375
vt 0.46484375 0.5390625
vt 0.4609375 0.5390625
vt 0.4609375 0.5234375
vt 0.166015625 0.49609375
vt 0.166015625 0.5390625
vt 0.1640625 0.5390625
vt 0.1640625 0.49609375
vt 0.181640625 0.49609375
vt 0.181640625 0.5390625
vt 0.1796875 0.5390625
vt 0.1796875 0.49609375
vt 0.0625 0.5234375
vt 0.0625 0.521484375
vt 0.08203125 0.521484375
vt 0.08203125 0.5234375
vt 0.4765625 0.896484375
vt 0.4765625 0.8984375
vt 0.49609375 0.8984375
vt 0.49609375 0.896484375
vt 0.08203125 0.72265625
vt 0.08203125 0.765625
vt 0.0625 0.765625
vt 0.0625 0.72265625
vt 0.23828125 0.92578125
vt 0.23828125 0.96875
vt 0.21875 0.96875
vt 0.21875 0.92578125
vt 0.380859375 0.53125
vt 0.380859375 0.546875
vt 0.375 0.546875
vt 0.375 0.53125
vt 0.396484375 0.53125
vt 0.396484375 0.546875
vt 0.390625 0.546875
vt 0.390625 0.53125
vt 0.484375 0.75
vt 0.484375 0.744140625
vt 0.48828125 0.744140625
vt 0.48828125 0.75
vt 0.484375 0.642578125
vt 0.484375 0.6484375
vt 0.48828125 0.6484375
vt 0.48828125 0.642578125
vt 0.47265625 0.90625
vt 0.47265625 0.921875
vt 0.46875 0.921875
vt 0.46875 0.90625
vt 0.03515625 0.515625
vt 0.03515625 0.53125
vt 0.03125 0.53125
vt 0.03125 0.515625
vt 0.412109375 0.53125
vt 0.412109375 0.546875
vt 0.40625 0.546875
vt 0.40625 0.53125
vt 0.005859375 0.5234375
vt 0.005859375 0.5390625
vt 0 0.5390625
vt 0 0.5234375
vt 0.484375 0.6328125
vt 0.484375 0.626953125
vt 0.48828125 0.626953125
vt 0.48828125 0.6328125
vt 0.4375 0.509765625
vt 0.4375 0.515625
vt 0.44140625 0.515625
vt 0.44140625 0.509765625
vt 0.11328125 0.515625
vt 0.11328125 0.53125
vt 0.109375 0.53125
vt 0.109375 0.515625
vt 0.09765625 0.515625
vt 0.09765625 0.53125
vt 0.09375 0.53125
vt 0.09375 0.515625
vt 0.095703125 0.498046875
vt 0.095703125 0.5078125
vt 0.09375 0.5078125
vt 0.09375 0.498046875
vt 0.111328125 0.498046875
vt 0.111328125 0.5078125
vt 0.109375 0.5078125
vt 0.109375 0.498046875
vt 0.4765625 0.7109375
vt 0.4765625 0.708984375
vt 0.494140625 0.708984375
vt 0.494140625 0.7109375
vt 0.4765625 0.693359375
vt 0.4765625 0.6953125
vt 0.494140625 0.6953125
vt 0.494140625 0.693359375
vt 0.431640625 0.935546875
vt 0.431640625 0.9453125
vt 0.4140625 0.9453125
vt 0.4140625 0.935546875
vt 0.423828125 0.615234375
vt 0.423828125 0.625
vt 0.40625 0.625
vt 0.40625 0.615234375
vt 0.021484375 0.5234375
vt 0.021484375 0.5390625
vt 0.015625 0.5390625
vt 0.015625 0.5234375
vt 0.466796875 0.9296875
vt 0.466796875 0.9453125
vt 0.4609375 0.9453125
vt 0.4609375 0.9296875
vt 0.453125 0.515625
vt 0.453125 0.509765625
vt 0.45703125 0.509765625
vt 0.45703125 0.515625
vt 0.46875 0.509765625
vt 0.46875 0.515625
vt 0.47265625 0.515625
vt 0.47265625 0.509765625
vt 0.47265625 0.859375
vt 0.47265625 0.875
vt 0.46875 0.875
vt 0.46875 0.859375
vt 0.12890625 0.515625
vt 0.12890625 0.53125
vt 0.125 0.53125
vt 0.125 0.515625
vt 0.478515625 0.935546875
vt 0.478515625 0.9609375
vt 0.4765625 0.9609375
vt 0.4765625 0.935546875
vt 0.048828125 0.498046875
vt 0.048828125 0.5234375
vt 0.046875 0.5234375
vt 0.046875 0.498046875
vt 0.3671875 0.5234375
vt 0.3671875 0.521484375
vt 0.3828125 0.521484375
vt 0.3828125 0.5234375
vt 0.390625 0.521484375
vt 0.390625 0.5234375
vt 0.40625 0.5234375
vt 0.40625 0.521484375
vt 0.359375 0.677734375
vt 0.359375 0.703125
vt 0.34375 0.703125
vt 0.34375 0.677734375
vt 0.359375 0.974609375
vt 0.359375 1
vt 0.34375 1
vt 0.34375 0.974609375
vt 0.466796875 0.8828125
vt 0.466796875 0.8984375
vt 0.4609375 0.8984375
vt 0.4609375 0.8828125
vt 0.466796875 0.8359375
vt 0.466796875 0.8515625
vt 0.4609375 0.8515625
vt 0.4609375 0.8359375
vt 0.484375 0.515625
vt 0.484375 0.509765625
vt 0.48828125 0.509765625
vt 0.48828125 0.515625
vt 0.0234375 0.501953125
vt 0.0234375 0.5078125
vt 0.02734375 0.5078125
vt 0.02734375 0.501953125
vt 0.47265625 0.796875
vt 0.47265625 0.8125
vt 0.46875 0.8125
vt 0.46875 0.796875
vt 0.14453125 0.515625
vt 0.14453125 0.53125
vt 0.140625 0.53125
vt 0.140625 0.515625
vn -0.9876883405951378 0.04573701122120166 -0.14959902291450597
vn 0.9876883405951378 -0.04573701122120166 0.14959902291450597
vn 0 0.9563047559630357 0.29237170472273677
vn 0 -0.9563047559630357 -0.29237170472273677
vn -0.15643446504023084 -0.2887721238745714 0.9445310575203687
vn 0.1564290494265053 0.2967194166388546 -0.9420655711175406
vn 0.9876883405951378 0.04573701122120161 -0.14959902291450636
vn -0.9876883405951378 -0.04573701122120153 0.14959902291450583
vn 0 0.9563047559630357 0.29237170472273677
vn 1.670939941916244e-15 -0.9563047559630354 -0.292371704722737
vn 0.15643446504023117 -0.28877212387457146 0.9445310575203686
vn -0.1564290494265062 0.29671941663885465 -0.9420655711175403
vn 1 4.649058915617843e-16 -1.1379786002407855e-15
vn -1 -9.5062846483529e-16 2.8033131371785195e-15
vn 1.1102230246251565e-16 -0.28401534470392326 0.9588197348681929
vn -1.1102230246251565e-16 0.28401534470392253 -0.9588197348681932
vn 1.0842021724855044e-18 -0.9588197348681956 -0.2840153447039142
vn -8.673617379884034e-19 0.9588197348681935 0.284015344703921
vn 1 -2.775557561562892e-17 -2.775557561562892e-17
vn -1 -6.93889390390723e-18 1.6653345369377353e-16
vn -2.081668171172168e-17 1 1.5543122344752188e-15
vn 4.85722573273506e-17 -1 -1.6653345369377348e-16
vn 5.551115123125783e-17 0 1
vn -8.326672684688674e-17 1.1102230246251565e-16 -1
vn 1 1.3877787807814457e-17 0
vn -1 1.3877787807814457e-17 0
vn 0 0.9563047559630357 0.29237170472273677
vn -2.9582283945787943e-31 -0.9563047559630348 -0.2923717047227396
vn 1.1102230246251565e-16 -0.2923717047227367 0.9563047559630355
vn -1.1102230246251565e-16 0.2923717047227367 -0.9563047559630355
vn 0.9890158633619168 -2.7755575615628914e-17 -0.1478094111296106
vn -0.9890158633619168 0 0.14780941112961085
vn 8.81239525796218e-16 1 5.551115123125783e-17
vn -1.8041124150158794e-16 -1 -1.6653345369377348e-16
vn 0.14780941112961088 0 0.9890158633619168
vn -0.14780941112961132 1.1102230246251565e-16 -0.9890158633619168
vn 0.9890158633619168 -9.540979117872439e-18 0.1478094111296109
vn -0.9890158633619168 -1.3877787807814457e-17 -0.14780941112961077
vn -9.575673587391975e-16 1 5.551115123125783e-17
vn 2.4286128663675294e-16 -1 5.5511151231257815e-17
vn -0.147809411129611 -1.1102230246251565e-16 0.9890158633619168
vn 0.1478094111296111 -5.551115123125783e-17 -0.9890158633619167
vn -0.0025701947677320004 0.9997289192982579 -0.02314048438545063
vn 0.002570194767732084 -0.9997289192982579 0.02314048438545263
vn 0.28483628607602324 0.022913875002560726 0.9583022719720458
vn -0.2848362860760231 -0.02291387500256098 -0.9583022719720459
vn 0.9585727328863857 -0.004128226145026699 -0.28481796557735223
vn -0.9585727328863856 0.004128226145026796 0.28481796557735234
vn -0.002570193840178182 0.9997289504742572 -0.023139137565257147
vn 0.002570193840178245 -0.9997289504742575 0.023139137565256762
vn -0.1899671384350063 0.022229733240169136 0.981538753832413
vn 0.1899671384350051 -0.022229733240169247 -0.9815387538324132
vn 0.981787085074172 0.0069184206081178475 0.18985851320878333
vn -0.9817870850741719 -0.006918420608117874 -0.189858513208784
vn -0.002570194767731924 -0.9997289192982579 0.02314048438545185
vn 0.002570194767732542 0.9997289192982579 -0.023140484385452464
vn -0.2848362860760216 0.022913875002560702 0.9583022719720464
vn 0.2848362860760244 -0.022913875002560757 -0.9583022719720455
vn -0.9585727328863856 -0.004128226145026823 -0.284817965577352
vn 0.9585727328863856 0.0041282261450268165 0.2848179655773522
vn -0.002570193840175504 -0.9997289504742574 0.023139137565256374
vn 0.0025701938401777383 0.9997289504742575 -0.02313913756525704
vn 0.18996713843500626 0.022229733240169025 0.981538753832413
vn -0.18996713843500626 -0.022229733240169414 -0.9815387538324131
vn -0.981787085074172 0.006918420608118149 0.1898585132087837
vn 0.9817870850741719 -0.006918420608118231 -0.1898585132087836
vn 1 -6.938893903907228e-18 4.718447854656915e-16
vn -1 -2.7755575615628914e-17 2.220446049250313e-16
vn 6.938893903907227e-18 1 -1.4432899320127031e-15
vn 6.938893903907227e-18 -1 2.775557561562891e-16
vn 0 -2.220446049250313e-16 1
vn 0 0 -1
vn 1 -1.3877787807814457e-17 2.498001805406602e-16
vn -1 1.3877787807814457e-17 -2.498001805406602e-16
vn -1.3877787807814457e-17 0.992546151641322 -0.12186934340514882
vn -1.3877787807814457e-17 -0.992546151641322 0.12186934340514882
vn 0 0.12186934340514743 0.9925461516413221
vn -2.7755575615628914e-17 -0.12186934340514743 -0.9925461516413221
vn 0.9517245836536508 0.3061232910126072 -0.022557649897447435
vn -0.9517245836536508 -0.30612329101260727 0.022557649897449655
vn 0.3063589138223163 -0.9518843388725328 0.007773115901103578
vn -0.306358913822317 0.9518843388725325 -0.00777311590109947
vn -0.01909274183808124 -0.014308602615632326 -0.9997153250302271
vn 0.019092741838081382 0.014308602615633163 0.9997153250302271
vn 0.9228181003232834 0.3852359382955458 0.0001598789452230687
vn -0.9228181003232835 -0.38523593829554537 -0.00015987894522595525
vn -0.3804015118966938 0.9111717155020551 0.15830601572824604
vn 0.38040151189669374 -0.9111717155020552 -0.15830601572824557
vn 0.06083948933410685 -0.14614847489656954 0.987390084932481
vn -0.060839489334106364 0.14614847489656976 -0.987390084932481
vn 0.9517246810270054 0.3061230274953592 -0.02255711774852029
vn -0.9517246810270052 -0.30612302749535936 0.022557117748520122
vn 0.00571083725866256 0.05581559900739663 0.998424761935145
vn -0.0057108372586626155 -0.05581559900739669 -0.9984247619351448
vn 0.30689984988893587 -0.9503543081106751 0.05137286437048981
vn -0.3068998498889358 0.9503543081106752 -0.051372864370488935
vn 0.9517243970499292 0.30612387958089493 -0.022557535554459357
vn -0.9517243970499298 -0.3061238795808928 0.022557535554461605
vn 0.1467768813434689 -0.38931554374531907 0.9093348967797134
vn -0.14677688134346892 0.3893155437453173 -0.909334896779714
vn 0.26958712722055933 -0.8687471310736108 -0.4154530094828255
vn -0.26958712722055844 0.8687471310736117 0.41545300948282404
vn 0.9517243970499292 -0.306123879580895 0.0225575355544606
vn -0.9517243970499291 0.3061238795808955 -0.02255753555445982
vn -0.1467768813434684 -0.38931554374531685 0.9093348967797144
vn 0.1467768813434694 0.38931554374531896 -0.9093348967797134
vn -0.2695871272205597 -0.8687471310736113 -0.41545300948282393
vn 0.26958712722055783 0.8687471310736105 0.41545300948282693
vn 0.9517245836536508 -0.3061232910126071 0.022557649897446526
vn -0.9517245836536509 0.30612329101260705 -0.022557649897446845
vn -0.30635891382231617 -0.9518843388725327 0.0077731159011035205
vn 0.30635891382231734 0.9518843388725323 -0.0077731159011036315
vn 0.019092741838081073 -0.014308602615632549 -0.999715325030227
vn -0.019092741838081295 0.014308602615632826 0.9997153250302271
vn 0.9517246810270051 -0.3061230274953597 0.022557117748519612
vn -0.9517246810270048 0.3061230274953609 -0.022557117748520254
vn -0.005710837258663448 0.05581559900739419 0.9984247619351451
vn 0.0057108372586629486 -0.055815599007394856 -0.9984247619351451
vn -0.3068998498889357 -0.9503543081106751 0.05137286437048999
vn 0.306899849888936 0.9503543081106751 -0.051372864370489935
vn 0.9228181003232836 -0.38523593829554553 -0.00015987894522456056
vn -0.9228181003232835 0.3852359382955453 0.0001598789452254279
vn 0.3804015118966936 0.9111717155020552 0.15830601572824599
vn -0.38040151189669397 -0.9111717155020551 -0.15830601572824565
vn -0.060839489334106794 -0.1461484748965696 0.987390084932481
vn 0.06083948933410614 0.1461484748965698 -0.987390084932481
vn -2.7755575615628914e-17 3.3306690738754696e-16 -1
vn 1.4432899320127035e-15 3.885780586188048e-16 1
vn -0.18223552549214433 0.9832549075639553 -8.326672684688674e-17
vn 0.18223552549215397 -0.9832549075639535 1.942890293094024e-16
vn 0.9832549075639547 0.1822355254921473 2.498001805406602e-16
vn -0.9832549075639547 -0.18223552549214722 2.7755575615628914e-17
vn -2.9698465908722937e-15 -5.551115123125783e-17 1
vn 1.0547118733938987e-15 -4.996003610813204e-16 -1
vn 0.18223552549214017 0.9832549075639561 0
vn -0.18223552549214955 -0.9832549075639543 1.1102230246251565e-16
vn -0.9832549075639547 0.18223552549214747 1.1102230246251568e-16
vn 0.9832549075639548 -0.18223552549214697 -1.1102230246251565e-16
vn 1 6.938893903907228e-18 -5.273559366969494e-16
vn -1 4.649058915617843e-16 7.216449660063518e-16
vn 8.326672684688674e-17 0.9832549075639557 -0.18223552549214203
vn -6.938893903907228e-17 -0.9832549075639543 0.1822355254921498
vn -1.1102230246251565e-16 0.18223552549214794 0.9832549075639545
vn 1.6653345369377348e-16 -0.1822355254921469 -0.9832549075639547
vn 1 3.4694469519536136e-17 -2.7755575615628907e-17
vn -1 -1.457167719820518e-16 -5.551115123125783e-16
vn -1.3877787807814454e-17 0.9832549075639545 0.18223552549214786
vn 1.3877787807814454e-17 -0.9832549075639546 -0.18223552549214764
vn -1.6653345369377353e-16 -0.1822355254921477 0.9832549075639547
vn -1.942890293094024e-16 0.18223552549214772 -0.9832549075639546
vn 0.9238795325112867 0.07301944127683066 0.37565245986462775
vn -0.9238795325112868 -0.0730194412768306 -0.3756524598646277
vn -1.942890293094024e-16 0.9816271834476642 -0.19080899537654417
vn 1.8041124150158794e-16 -0.9816271834476639 0.19080899537654583
vn -0.38268343236508934 0.17628452544743084 0.906905263343999
vn 0.3826834323650897 -0.17628452544743034 -0.9069052633439991
vn 1 0 -5.551115123125784e-17
vn -1 2.775557561562892e-17 1.1102230246251568e-16
vn 1.8041124150158794e-16 0.9816271834476642 -0.190808995376544
vn 1.3877787807814457e-17 -0.9816271834476644 0.1908089953765432
vn 2.220446049250313e-16 0.19080899537654494 0.9816271834476641
vn 3.608224830031758e-16 -0.1908089953765446 -0.981627183447664
vn 1 2.0816681711721685e-16 -3.885780586188048e-16
vn -1 -2.0122792321330962e-16 3.608224830031759e-16
vn -1.3877787807814457e-16 -0.14780941112961068 0.9890158633619168
vn 1.6653345369377343e-16 0.14780941112961102 -0.9890158633619168
vn -2.42861286636753e-17 -0.9890158633619182 -0.147809411129602
vn 2.42861286636753e-17 0.9890158633619156 0.14780941112961937
vn 1 -7.147060721024445e-16 1.6653345369377348e-16
vn -1 -2.220446049250313e-15 8.326672684688674e-17
vn 1.8041124150158794e-16 0.9816271834476642 -0.19080899537654442
vn 9.71445146547012e-17 -0.9816271834476642 0.19080899537654433
vn 2.498001805406602e-16 0.19080899537654694 0.9816271834476636
vn 3.608224830031759e-16 -0.19080899537655188 -0.9816271834476626
vn 0.9996573249755574 -0.004994797208649038 -0.02569600403871261
vn -0.9996573249755574 0.00499479720864919 0.02569600403871261
vn 1.6653345369377348e-15 0.9816271834476636 -0.19080899537654672
vn -1.1102230246251565e-16 -0.981627183447664 0.19080899537654514
vn 0.026176948307872067 0.19074360989938977 0.9812908043285826
vn -0.026176948307873454 -0.1907436098993901 -0.9812908043285824
vn 0.9957122476785095 -0.09226982017098974 0.00658787588103199
vn -0.9957122476785096 0.09226982017098977 -0.006587875881031602
vn -0.039692546993999385 -0.36183476051691665 0.931396858377134
vn 0.03969254699399974 0.36183476051691654 -0.9313968583771339
vn -0.08355609813855779 -0.9276647489083937 -0.3639457268557861
vn 0.08355609813855198 0.9276647489083882 0.36394572685580173
vn 0.9998476951563914 -1.3947176746853533e-15 0.01745240643728341
vn -0.9998476951563914 2.636779683484747e-15 -0.017452406437283605
vn 4.371503159461553e-16 1 9.436895709313829e-16
vn 3.469446951953614e-17 -1 -1.2212453270876722e-15
vn -0.017452406437283324 5.995204332975845e-15 0.9998476951563913
vn 0.017452406437284993 2.4424906541753448e-15 -0.9998476951563914
vn 1 3.469446951953615e-17 -1.1102230246251568e-16
vn -1 -9.020562075079397e-17 -4.440892098500626e-16
vn -9.714451465470117e-17 1 9.992007221626407e-16
vn -1.734723475976807e-16 -1 2.220446049250313e-16
vn 2.775557561562891e-16 0 1
vn -3.6082248300317597e-16 -1.1102230246251568e-16 -1
vn 0.9510563804281591 0.0000010313915778104035 -0.30901741252852594
vn -0.9510563804281581 -0.0000010313915792259374 0.30901741252852843
vn 0.2854952435207114 -0.3826833892606424 0.8786614191547489
vn -0.2854952435207147 0.3826833892606435 -0.8786614191547474
vn -0.11825492452299141 -0.9238795503651482 -0.363953773497615
vn 0.11825492452298558 0.9238795503651515 0.3639537734976088
vn 0.9510565162951536 -4.440892098500626e-15 -0.30901699437494723
vn -0.9510565162951539 -3.3861802251067274e-15 0.30901699437494673
vn -4.371503159461554e-16 1 1.6653345369377348e-16
vn -4.163336342344336e-17 -1 -5.5511151231257815e-17
vn 0.3090169943749479 4.801714581503802e-15 0.9510565162951534
vn -0.30901699437494834 8.326672684688674e-16 -0.9510565162951534
vn 0.9510565162951539 2.7755575615628914e-17 -0.3090169943749469
vn -0.9510565162951539 2.7755575615628914e-17 0.3090169943749469
vn 3.469446951953614e-17 1 5.551115123125783e-17
vn 5.134781488891349e-16 -1 5.551115123125783e-17
vn 0.3090169943749469 -1.942890293094024e-16 0.9510565162951539
vn -0.309016994374947 -5.551115123125783e-17 -0.9510565162951539
vn 1 5.828670879282072e-16 -3.2751579226442118e-15
vn -1 3.95516952522712e-16 -6.106226635438361e-16
vn 3.5388358909926855e-16 1 -4.32986979603811e-15
vn 2.359223927328457e-16 -1 2.7755575615628906e-15
vn 8.049116928532385e-16 9.992007221626409e-16 1
vn 1.1379786002407853e-15 4.440892098500625e-16 -1
vn 0.9970636434550011 -0.001170077343342825 0.0765684126729112
vn -0.997063643455001 0.0011700773433430608 -0.07656841267291153
vn -0.002900928825259538 0.9985884192303554 0.053035399413701126
vn 0.002900928825257921 -0.9985884192303556 -0.05303539941369735
vn -0.07652238569326851 -0.053101788086938245 0.9956528132786954
vn 0.07652238569326801 0.053101788086939467 -0.9956528132786954
vn 0.9432842680861829 -0.014873776507204416 0.33165277076112004
vn -0.9432842680861828 0.014873776507204804 -0.3316527707611202
vn -0.002900863089844857 0.9985884541963019 0.05303474464135825
vn 0.002900863089848382 -0.998588454196302 -0.053034744641357004
vn -0.33197345462318106 -0.05098891956350954 0.9419096323465945
vn 0.33197345462318023 0.05098891956350954 -0.9419096323465947
vn 1 3.5388358909926875e-16 -3.6082248300317597e-16
vn -1 7.632783294297951e-17 0
vn 2.324529457808921e-16 0.9945218953682734 0.10452846326765397
vn -2.7408630920433547e-16 -0.9945218953682733 -0.10452846326765414
vn 1.6375789613221059e-15 -0.10452846326765317 0.9945218953682735
vn 1.1934897514720433e-15 0.10452846326765328 -0.9945218953682734
vn 1 4.371503159461553e-16 -2.1926904736346838e-15
vn -1 -1.2490009027033009e-16 2.109423746787797e-15
vn 4.163336342344337e-17 0.9961946980917451 0.08715574274766447
vn 5.551115123125783e-17 -0.9961946980917451 -0.0871557427476635
vn -1.6653345369377348e-16 -0.08715574274765853 0.9961946980917455
vn 1.6653345369377348e-16 0.087155742747658 -0.9961946980917455
vn 0.923879532511287 0.37895918350757263 0.053259239968291266
vn -0.9238795325112868 -0.3789591835075728 -0.05325923996829132
vn -0.3826834323650904 0.9148884004098164 0.12857917945313135
vn 0.3826834323650906 -0.9148884004098164 -0.1285791794531318
vn -1.1657341758564144e-15 -0.13917310096006608 0.9902680687415703
vn 1.2212453270876722e-15 0.1391731009600662 -0.9902680687415703
vn 0.7071067811865472 0.7002252665996711 0.09841024344762148
vn -0.7071067811865485 -0.7002252665996699 -0.09841024344762136
vn -0.7071067811865471 0.7002252665996709 0.09841024344762309
vn 0.70710678118655 -0.7002252665996681 -0.09841024344762177
vn 8.326672684688672e-17 -0.139173100960065 0.9902680687415704
vn -2.775557561562891e-16 0.13917310096006516 -0.9902680687415704
vn 0.7071067811865476 -0.7044160264027582 -0.06162841671622495
vn -0.7071067811865466 0.7044160264027588 0.06162841671622853
vn 0.7071067811865478 0.7044160264027585 0.061628416716219964
vn -0.7071067811865476 -0.7044160264027597 -0.061628416716207
vn 6.661338147750939e-16 -0.08715574274765797 0.9961946980917457
vn 2.7755575615628914e-17 0.08715574274765803 -0.9961946980917457
vn 0.3826834323650906 0.9148884004098164 0.12857917945313177
vn -0.3826834323650897 -0.9148884004098168 -0.1285791794531314
vn -0.9238795325112868 0.3789591835075726 0.053259239968290656
vn 0.9238795325112868 -0.378959183507573 -0.05325923996829145
vn 4.440892098500626e-16 -0.13917310096006535 0.9902680687415704
vn 1.9428902930940235e-16 0.13917310096006535 -0.9902680687415703
vn 1 6.938893903907228e-18 -2.498001805406602e-16
vn -1 -1.8041124150158794e-16 2.3592239273284576e-15
vn 2.7755575615628907e-17 0.996194698091745 0.08715574274766448
vn -2.0816681711721685e-17 -0.9961946980917443 -0.0871557427476731
vn -5.551115123125783e-17 -0.08715574274765825 0.9961946980917455
vn 1.6653345369377348e-16 0.0871557427476582 -0.9961946980917455
vn 0.38268343236508984 -0.9148884004098168 -0.12857917945313138
vn -0.38268343236509067 0.9148884004098164 0.1285791794531316
vn 0.9238795325112872 0.37895918350757196 0.05325923996829146
vn -0.923879532511287 -0.3789591835075727 -0.053259239968291266
vn -8.881784197001252e-16 -0.13917310096006416 0.9902680687415705
vn 5.551115123125783e-17 0.13917310096006527 -0.9902680687415704
vn 0.7071067811865483 -0.7002252665996699 -0.09841024344762199
vn -0.7071067811865475 0.7002252665996708 0.09841024344762227
vn 0.7071067811865475 0.7002252665996708 0.0984102434476225
vn -0.7071067811865499 -0.7002252665996683 -0.09841024344762192
vn -1.7486012637846216e-15 -0.13917310096006397 0.9902680687415706
vn 9.71445146547012e-16 0.1391731009600632 -0.9902680687415707
vn 0.7071067811865483 0.7044160264027574 0.06162841671622618
vn -0.7071067811865468 -0.7044160264027594 -0.061628416716222295
vn -0.7071067811865478 0.7044160264027581 0.06162841671622408
vn 0.7071067811865479 -0.7044160264027604 -0.06162841671619772
vn -3.053113317719181e-16 -0.08715574274765893 0.9961946980917457
vn -4.440892098500626e-16 0.08715574274765858 -0.9961946980917457
vn 0.9238795325112868 -0.3789591835075726 -0.05325923996829189
vn -0.9238795325112867 0.37895918350757274 0.053259239968290295
vn 0.38268343236509095 0.9148884004098164 0.12857917945313102
vn -0.38268343236509045 -0.9148884004098166 -0.12857917945313127
vn -3.0531133177191805e-16 -0.13917310096006527 0.9902680687415704
vn 2.7755575615628914e-17 0.13917310096006544 -0.9902680687415704
vn 1 -6.938893903907228e-18 0
vn -1 -3.469446951953614e-17 3.0531133177191805e-16
vn 3.469446951953614e-17 0.9961946980917451 0.08715574274766444
vn -2.7755575615628914e-17 -0.9961946980917451 -0.08715574274766438
vn -1.6653345369377348e-16 -0.08715574274765858 0.9961946980917455
vn 1.1102230246251565e-16 0.08715574274765822 -0.9961946980917457
vn 1 -2.0122792321330967e-16 6.661338147750941e-16
vn -1 6.245004513516506e-17 7.771561172376096e-16
vn -3.469446951953614e-18 0.9953961983671791 0.09584575252022193
vn 5.204170427930421e-17 -0.9953961983671789 -0.09584575252022418
vn -1.27675647831893e-15 -0.09584575252022448 0.9953961983671787
vn 8.326672684688674e-17 0.09584575252022384 -0.9953961983671789
usemtl m_4a48ed31-739d-db2c-4d1a-274d0e1517ee
f 1/1/1 2/2/1 4/3/1 3/4/1
f 6/5/2 5/6/2 7/7/2 8/8/2
f 6/9/3 2/10/3 1/11/3 5/12/3
f 7/13/4 3/14/4 4/15/4 8/16/4
f 5/17/5 1/18/5 3/19/5 7/20/5
f 2/21/6 6/22/6 8/23/6 4/24/6
f 12/25/7 10/26/7 9/27/7 11/28/7
f 15/29/8 13/30/8 14/31/8 16/32/8
f 9/33/9 10/34/9 14/35/9 13/36/9
f 12/37/10 11/38/10 15/39/10 16/40/10
f 11/41/11 9/42/11 13/43/11 15/44/11
f 16/45/12 14/46/12 10/47/12 12/48/12
f 18/49/13 17/50/13 19/51/13 20/52/13
f 23/53/14 21/54/14 22/55/14 24/56/14
f 21/57/15 17/58/15 18/59/15 22/60/15
f 20/61/16 19/62/16 23/63/16 24/64/16
f 19/65/17 17/66/17 21/67/17 23/68/17
f 22/69/18 18/70/18 20/71/18 24/72/18
f 28/73/19 26/74/19 25/75/19 27/76/19
f 31/77/20 29/78/20 30/79/20 32/80/20
f 25/81/21 26/82/21 30/83/21 29/84/21
f 28/85/22 27/86/22 31/87/22 32/88/22
f 27/89/23 25/90/23 29/91/23 31/92/23
f 32/93/24 30/94/24 26/95/24 28/96/24
f 36/97/25 34/98/25 33/99/25 35/100/25
f 39/101/26 37/102/26 38/103/26 40/104/26
f 33/105/27 34/106/27 38/107/27 37/108/27
f 36/109/28 35/110/28 39/111/28 40/112/28
f 35/113/29 33/114/29 37/115/29 39/116/29
f 40/117/30 38/118/30 34/119/30 36/120/30
f 44/121/31 42/122/31 41/123/31 43/124/31
f 47/125/32 45/126/32 46/127/32 48/128/32
f 41/129/33 42/130/33 46/131/33 45/132/33
f 44/133/34 43/134/34 47/135/34 48/136/34
f 43/137/35 41/138/35 45/139/35 47/140/35
f 48/141/36 46/142/36 42/143/36 44/144/36
f 52/145/37 50/146/37 49/147/37 51/148/37
f 55/149/38 53/150/38 54/151/38 56/152/38
f 49/153/39 50/154/39 54/155/39 53/156/39
f 52/157/40 51/158/40 55/159/40 56/160/40
f 51/161/41 49/162/41 53/163/41 55/164/41
f 56/165/42 54/166/42 50/167/42 52/168/42
f 60/169/43 58/170/43 57/171/43 59/172/43
f 63/173/44 61/174/44 62/175/44 64/176/44
f 57/177/45 58/178/45 62/179/45 61/180/45
f 60/181/46 59/182/46 63/183/46 64/184/46
f 59/185/47 57/186/47 61/187/47 63/188/47
f 64/189/48 62/190/48 58/191/48 60/192/48
f 68/193/49 66/194/49 65/195/49 67/196/49
f 71/197/50 69/198/50 70/199/50 72/200/50
f 65/201/51 66/202/51 70/203/51 69/204/51
f 68/205/52 67/206/52 71/207/52 72/208/52
f 67/209/53 65/210/53 69/211/53 71/212/53
f 72/213/54 70/214/54 66/215/54 68/216/54
f 76/217/55 74/218/55 73/219/55 75/220/55
f 79/221/56 77/222/56 78/223/56 80/224/56
f 73/225/57 74/226/57 78/227/57 77/228/57
f 76/229/58 75/230/58 79/231/58 80/232/58
f 75/233/59 73/234/59 77/235/59 79/236/59
f 80/237/60 78/238/60 74/239/60 76/240/60
f 84/241/61 82/242/61 81/243/61 83/244/61
f 87/245/62 85/246/62 86/247/62 88/248/62
f 81/249/63 82/250/63 86/251/63 85/252/63
f 84/253/64 83/254/64 87/255/64 88/256/64
f 83/257/65 81/258/65 85/259/65 87/260/65
f 88/261/66 86/262/66 82/263/66 84/264/66
f 92/265/67 90/266/67 89/267/67 91/268/67
f 95/269/68 93/270/68 94/271/68 96/272/68
f 89/273/69 90/274/69 94/275/69 93/276/69
f 92/277/70 91/278/70 95/279/70 96/280/70
f 91/281/71 89/282/71 93/283/71 95/284/71
f 96/285/72 94/286/72 90/287/72 92/288/72
f 100/289/73 98/290/73 97/291/73 99/292/73
f 103/293/74 101/294/74 102/295/74 104/296/74
f 97/297/75 98/298/75 102/299/75 101/300/75
f 100/301/76 99/302/76 103/303/76 104/304/76
f 99/305/77 97/306/77 101/307/77 103/308/77
f 104/309/78 102/310/78 98/311/78 100/312/78
f 108/313/79 106/314/79 105/315/79 107/316/79
f 111/317/80 109/318/80 110/319/80 112/320/80
f 105/321/81 106/322/81 110/323/81 109/324/81
f 108/325/82 107/326/82 111/327/82 112/328/82
f 107/329/83 105/330/83 109/331/83 111/332/83
f 112/333/84 110/334/84 106/335/84 108/336/84
f 116/337/85 114/338/85 113/339/85 115/340/85
f 119/341/86 117/342/86 118/343/86 120/344/86
f 113/345/87 114/346/87 118/347/87 117/348/87
f 116/349/88 115/350/88 119/351/88 120/352/88
f 115/353/89 113/354/89 117/355/89 119/356/89
f 120/357/90 118/358/90 114/359/90 116/360/90
f 124/361/91 122/362/91 121/363/91 123/364/91
f 127/365/92 125/366/92 126/367/92 128/368/92
f 121/369/93 122/370/93 126/371/93 125/372/93
f 124/373/94 123/374/94 127/375/94 128/376/94
f 123/377/95 121/378/95 125/379/95 127/380/95
f 128/381/96 126/382/96 122/383/96 124/384/96
f 132/385/97 130/386/97 129/387/97 131/388/97
f 135/389/98 133/390/98 134/391/98 136/392/98
f 129/393/99 130/394/99 134/395/99 133/396/99
f 132/397/100 131/398/100 135/399/100 136/400/100
f 131/401/101 129/402/101 133/403/101 135/404/101
f 136/405/102 134/406/102 130/407/102 132/408/102
f 140/409/103 138/410/103 137/411/103 139/412/103
f 143/413/104 141/414/104 142/415/104 144/416/104
f 137/417/105 138/418/105 142/419/105 141/420/105
f 140/421/106 139/422/106 143/423/106 144/424/106
f 139/425/107 137/426/107 141/427/107 143/428/107
f 144/429/108 142/430/108 138/431/108 140/432/108
f 148/433/109 146/434/109 145/435/109 147/436/109
f 151/437/110 149/438/110 150/439/110 152/440/110
f 145/441/111 146/442/111 150/443/111 149/444/111
f 148/445/112 147/446/112 151/447/112 152/448/112
f 147/449/113 145/450/113 149/451/113 151/452/113
f 152/453/114 150/454/114 146/455/114 148/456/114
f 156/457/115 154/458/115 153/459/115 155/460/115
f 159/461/116 157/462/116 158/463/116 160/464/116
f 153/465/117 154/466/117 158/467/117 157/468/117
f 156/469/118 155/470/118 159/471/118 160/472/118
f 155/473/119 153/474/119 157/475/119 159/476/119
f 160/477/120 158/478/120 154/479/120 156/480/120
f 164/481/121 162/482/121 161/483/121 163/484/121
f 167/485/122 165/486/122 166/487/122 168/488/122
f 161/489/123 162/490/123 166/491/123 165/492/123
f 164/493/124 163/494/124 167/495/124 168/496/124
f 163/497/125 161/498/125 165/499/125 167/500/125
f 168/501/126 166/502/126 162/503/126 164/504/126
f 172/505/127 170/506/127 169/507/127 171/508/127
f 175/509/128 173/510/128 174/511/128 176/512/128
f 169/513/129 170/514/129 174/515/129 173/516/129
f 172/517/130 171/518/130 175/519/130 176/520/130
f 171/521/131 169/522/131 173/523/131 175/524/131
f 176/525/132 174/526/132 170/527/132 172/528/132
f 180/529/133 178/530/133 177/531/133 179/532/133
f 183/533/134 181/534/134 182/535/134 184/536/134
f 177/537/135 178/538/135 182/539/135 181/540/135
f 180/541/136 179/542/136 183/543/136 184/544/136
f 179/545/137 177/546/137 181/547/137 183/548/137
f 184/549/138 182/550/138 178/551/138 180/552/138
f 188/553/139 186/554/139 185/555/139 187/556/139
f 191/557/140 189/558/140 190/559/140 192/560/140
f 185/561/141 186/562/141 190/563/141 189/564/141
f 188/565/142 187/566/142 191/567/142 192/568/142
f 187/569/143 185/570/143 189/571/143 191/572/143
f 192/573/144 190/574/144 186/575/144 188/576/144
f 196/577/145 194/578/145 193/579/145 195/580/145
f 199/581/146 197/582/146 198/583/146 200/584/146
f 193/585/147 194/586/147 198/587/147 197/588/147
f 196/589/148 195/590/148 199/591/148 200/592/148
f 195/593/149 193/594/149 197/595/149 199/596/149
f 200/597/150 198/598/150 194/599/150 196/600/150
f 204/601/151 202/602/151 201/603/151 203/604/151
f 207/605/152 205/606/152 206/607/152 208/608/152
f 201/609/153 202/610/153 206/611/153 205/612/153
f 204/613/154 203/614/154 207/615/154 208/616/154
f 203/617/155 201/618/155 205/619/155 207/620/155
f 208/621/156 206/622/156 202/623/156 204/624/156
f 212/625/157 210/626/157 209/627/157 211/628/157
f 215/629/158 213/630/158 214/631/158 216/632/158
f 209/633/159 210/634/159 214/635/159 213/636/159
f 212/637/160 211/638/160 215/639/160 216/640/160
f 211/641/161 209/642/161 213/643/161 215/644/161
f 216/645/162 214/646/162 210/647/162 212/648/162
f 220/649/163 218/650/163 217/651/163 219/652/163
f 223/653/164 221/654/164 222/655/164 224/656/164
f 217/657/165 218/658/165 222/659/165 221/660/165
f 220/661/166 219/662/166 223/663/166 224/664/166
f 219/665/167 217/666/167 221/667/167 223/668/167
f 224/669/168 222/670/168 218/671/168 220/672/168
f 228/673/169 226/674/169 225/675/169 227/676/169
f 231/677/170 229/678/170 230/679/170 232/680/170
f 225/681/171 226/682/171 230/683/171 229/684/171
f 228/685/172 227/686/172 231/687/172 232/688/172
f 227/689/173 225/690/173 229/691/173 231/692/173
f 232/693/174 230/694/174 226/695/174 228/696/174
f 236/697/175 234/698/175 233/699/175 235/700/175
f 239/701/176 237/702/176 238/703/176 240/704/176
f 233/705/177 234/706/177 238/707/177 237/708/177
f 236/709/178 235/710/178 239/711/178 240/712/178
f 235/713/179 233/714/179 237/715/179 239/716/179
f 240/717/180 238/718/180 234/719/180 236/720/180
f 244/721/181 242/722/181 241/723/181 243/724/181
f 247/725/182 245/726/182 246/727/182 248/728/182
f 241/729/183 242/730/183 246/731/183 245/732/183
f 244/733/184 243/734/184 247/735/184 248/736/184
f 243/737/185 241/738/185 245/739/185 247/740/185
f 248/741/186 246/742/186 242/743/186 244/744/186
f 252/745/187 250/746/187 249/747/187 251/748/187
f 255/749/188 253/750/188 254/751/188 256/752/188
f 249/753/189 250/754/189 254/755/189 253/756/189
f 252/757/190 251/758/190 255/759/190 256/760/190
f 251/761/191 249/762/191 253/763/191 255/764/191
f 256/765/192 254/766/192 250/767/192 252/768/192
f 260/769/193 258/770/193 257/771/193 259/772/193
f 263/773/194 261/774/194 262/775/194 264/776/194
f 257/777/195 258/778/195 262/779/195 261/780/195
f 260/781/196 259/782/196 263/783/196 264/784/196
f 259/785/197 257/786/197 261/787/197 263/788/197
f 264/789/198 262/790/198 258/791/198 260/792/198
f 268/793/199 266/794/199 265/795/199 267/796/199
f 271/797/200 269/798/200 270/799/200 272/800/200
f 265/801/201 266/802/201 270/803/201 269/804/201
f 268/805/202 267/806/202 271/807/202 272/808/202
f 267/809/203 265/810/203 269/811/203 271/812/203
f 272/813/204 270/814/204 266/815/204 268/816/204
f 276/817/205 274/818/205 273/819/205 275/820/205
f 279/821/206 277/822/206 278/823/206 280/824/206
f 273/825/207 274/826/207 278/827/207 277/828/207
f 276/829/208 275/830/208 279/831/208 280/832/208
f 275/833/209 273/834/209 277/835/209 279/836/209
f 280/837/210 278/838/210 274/839/210 276/840/210
f 284/841/211 282/842/211 281/843/211 283/844/211
f 287/845/212 285/846/212 286/847/212 288/848/212
f 281/849/213 282/850/213 286/851/213 285/852/213
f 284/853/214 283/854/214 287/855/214 288/856/214
f 283/857/215 281/858/215 285/859/215 287/860/215
f 288/861/216 286/862/216 282/863/216 284/864/216
f 292/865/217 290/866/217 289/867/217 291/868/217
f 295/869/218 293/870/218 294/871/218 296/872/218
f 289/873/219 290/874/219 294/875/219 293/876/219
f 292/877/220 291/878/220 295/879/220 296/880/220
f 291/881/221 289/882/221 293/883/221 295/884/221
f 296/885/222 294/886/222 290/887/222 292/888/222
f 300/889/223 298/890/223 297/891/223 299/892/223
f 303/893/224 301/894/224 302/895/224 304/896/224
f 297/897/225 298/898/225 302/899/225 301/900/225
f 300/901/226 299/902/226 303/903/226 304/904/226
f 299/905/227 297/906/227 301/907/227 303/908/227
f 304/909/228 302/910/228 298/911/228 300/912/228
f 308/913/229 306/914/229 305/915/229 307/916/229
f 311/917/230 309/918/230 310/919/230 312/920/230
f 305/921/231 306/922/231 310/923/231 309/924/231
f 308/925/232 307/926/232 311/927/232 312/928/232
f 307/929/233 305/930/233 309/931/233 311/932/233
f 312/933/234 310/934/234 306/935/234 308/936/234
f 316/937/235 314/938/235 313/939/235 315/940/235
f 319/941/236 317/942/236 318/943/236 320/944/236
f 313/945/237 314/946/237 318/947/237 317/948/237
f 316/949/238 315/950/238 319/951/238 320/952/238
f 315/953/239 313/954/239 317/955/239 319/956/239
f 320/957/240 318/958/240 314/959/240 316/960/240
f 324/961/241 322/962/241 321/963/241 323/964/241
f 327/965/242 325/966/242 326/967/242 328/968/242
f 321/969/243 322/970/243 326/971/243 325/972/243
f 324/973/244 323/974/244 327/975/244 328/976/244
f 323/977/245 321/978/245 325/979/245 327/980/245
f 328/981/246 326/982/246 322/983/246 324/984/246
f 332/985/247 330/986/247 329/987/247 331/988/247
f 335/989/248 333/990/248 334/991/248 336/992/248
f 329/993/249 330/994/249 334/995/249 333/996/249
f 332/997/250 331/998/250 335/999/250 336/1000/250
f 331/1001/251 329/1002/251 333/1003/251 335/1004/251
f 336/1005/252 334/1006/252 330/1007/252 332/1008/252
f 340/1009/253 338/1010/253 337/1011/253 339/1012/253
f 343/1013/254 341/1014/254 342/1015/254 344/1016/254
f 337/1017/255 338/1018/255 342/1019/255 341/1020/255
f 340/1021/256 339/1022/256 343/1023/256 344/1024/256
f 339/1025/257 337/1026/257 341/1027/257 343/1028/257
f 344/1029/258 342/1030/258 338/1031/258 340/1032/258
f 348/1033/259 346/1034/259 345/1035/259 347/1036/259
f 351/1037/260 349/1038/260 350/1039/260 352/1040/260
f 345/1041/261 346/1042/261 350/1043/261 349/1044/261
f 348/1045/262 347/1046/262 351/1047/262 352/1048/262
f 347/1049/263 345/1050/263 349/1051/263 351/1052/263
f 352/1053/264 350/1054/264 346/1055/264 348/1056/264
f 356/1057/265 354/1058/265 353/1059/265 355/1060/265
f 359/1061/266 357/1062/266 358/1063/266 360/1064/266
f 353/1065/267 354/1066/267 358/1067/267 357/1068/267
f 356/1069/268 355/1070/268 359/1071/268 360/1072/268
f 355/1073/269 353/1074/269 357/1075/269 359/1076/269
f 360/1077/270 358/1078/270 354/1079/270 356/1080/270
f 364/1081/271 362/1082/271 361/1083/271 363/1084/271
f 367/1085/272 365/1086/272 366/1087/272 368/1088/272
f 361/1089/273 362/1090/273 366/1091/273 365/1092/273
f 364/1093/274 363/1094/274 367/1095/274 368/1096/274
f 363/1097/275 361/1098/275 365/1099/275 367/1100/275
f 368/1101/276 366/1102/276 362/1103/276 364/1104/276
f 372/1105/277 370/1106/277 369/1107/277 371/1108/277
f 375/1109/278 373/1110/278 374/1111/278 376/1112/278
f 369/1113/279 370/1114/279 374/1115/279 373/1116/279
f 372/1117/280 371/1118/280 375/1119/280 376/1120/280
f 371/1121/281 369/1122/281 373/1123/281 375/1124/281
f 376/1125/282 374/1126/282 370/1127/282 372/1128/282
f 380/1129/283 378/1130/283 377/1131/283 379/1132/283
f 383/1133/284 381/1134/284 382/1135/284 384/1136/284
f 377/1137/285 378/1138/285 382/1139/285 381/1140/285
f 380/1141/286 379/1142/286 383/1143/286 384/1144/286
f 379/1145/287 377/1146/287 381/1147/287 383/1148/287
f 384/1149/288 382/1150/288 378/1151/288 380/1152/288
f 388/1153/289 386/1154/289 385/1155/289 387/1156/289
f 391/1157/290 389/1158/290 390/1159/290 392/1160/290
f 385/1161/291 386/1162/291 390/1163/291 389/1164/291
f 388/1165/292 387/1166/292 391/1167/292 392/1168/292
f 387/1169/293 385/1170/293 389/1171/293 391/1172/293
f 392/1173/294 390/1174/294 386/1175/294 388/1176/294
f 396/1177/295 394/1178/295 393/1179/295 395/1180/295
f 399/1181/296 397/1182/296 398/1183/296 400/1184/296
f 393/1185/297 394/1186/297 398/1187/297 397/1188/297
f 396/1189/298 395/1190/298 399/1191/298 400/1192/298
f 395/1193/299 393/1194/299 397/1195/299 399/1196/299
f 400/1197/300 398/1198/300 394/1199/300 396/1200/300
f 404/1201/301 402/1202/301 401/1203/301 403/1204/301
f 407/1205/302 405/1206/302 406/1207/302 408/1208/302
f 401/1209/303 402/1210/303 406/1211/303 405/1212/303
f 404/1213/304 403/1214/304 407/1215/304 408/1216/304
f 403/1217/305 401/1218/305 405/1219/305 407/1220/305
f 408/1221/306 406/1222/306 402/1223/306 404/1224/306
f 412/1225/307 410/1226/307 409/1227/307 411/1228/307
f 415/1229/308 413/1230/308 414/1231/308 416/1232/308
f 409/1233/309 410/1234/309 414/1235/309 413/1236/309
f 412/1237/310 411/1238/310 415/1239/310 416/1240/310
f 411/1241/311 409/1242/311 413/1243/311 415/1244/311
f 416/1245/312 414/1246/312 410/1247/312 412/1248/312
