# Blender 4.4.3
# www.blender.org
mtllib vanderer.mtl
o vanderer
v 0.250000 0.747005 -0.143894
v 0.250000 0.751198 -0.187443
v 0.250000 0.622580 -0.155875
v 0.250000 0.626774 -0.199423
v 0.212500 0.751198 -0.187443
v 0.212500 0.747005 -0.143894
v 0.212500 0.626774 -0.199423
v 0.212500 0.622580 -0.155875
v 0.250000 1.250000 -0.100000
v 0.250000 1.250000 -0.225000
v 0.250000 0.750000 -0.100000
v 0.250000 0.750000 -0.225000
v -0.250000 1.250000 -0.225000
v -0.250000 1.250000 -0.100000
v -0.250000 0.750000 -0.225000
v -0.250000 0.750000 -0.100000
v 0.187500 1.437383 -0.120490
v 0.187500 1.450377 -0.181624
v 0.187500 1.235640 -0.163371
v 0.187500 1.248634 -0.224506
v -0.187500 1.450377 -0.181624
v -0.187500 1.437383 -0.120490
v -0.187500 1.248634 -0.224506
v -0.187500 1.235640 -0.163371
v -0.186577 1.562018 -0.061586
v -0.185083 1.576234 -0.128834
v -0.061397 1.151319 -0.145624
v -0.059903 1.165534 -0.212871
v -0.322788 1.536602 -0.140271
v -0.324282 1.522386 -0.073024
v -0.197608 1.125903 -0.224309
v -0.199102 1.111687 -0.157061
v -0.194001 1.548971 0.073011
v -0.209932 1.608028 0.060175
v -0.169288 1.515885 -0.109885
v -0.185219 1.574941 -0.122721
v -0.347637 1.568396 0.048738
v -0.331706 1.509339 0.061574
v -0.322924 1.535310 -0.134158
v -0.306993 1.476253 -0.121322
v -0.210019 1.609075 0.057275
v -0.191989 1.550596 0.044571
v -0.210316 1.586431 0.161084
v -0.192286 1.527953 0.148380
v -0.329627 1.510161 0.035357
v -0.347657 1.568640 0.048061
v -0.329924 1.487518 0.139166
v -0.347954 1.545997 0.151870
v -0.210316 1.586431 0.161084
v -0.204878 1.582071 0.098974
v -0.126080 1.293324 0.189036
v -0.120642 1.288964 0.126926
v -0.342516 1.541637 0.089760
v -0.347954 1.545997 0.151870
v -0.258280 1.248529 0.117712
v -0.263718 1.252890 0.179822
v 0.265625 1.437500 0.200000
v 0.265625 1.437500 0.106250
v 0.265625 0.750000 0.200000
v 0.265625 0.750000 0.106250
v -0.265625 1.437500 0.106250
v -0.265625 1.437500 0.200000
v -0.265625 0.750000 0.106250
v -0.265625 0.750000 0.200000
v -0.172363 1.529739 -0.042326
v -0.189886 1.594702 -0.056445
v -0.161654 1.515402 -0.121580
v -0.179177 1.580364 -0.135700
v -0.339565 1.551624 -0.068877
v -0.322042 1.486661 -0.054758
v -0.328856 1.537287 -0.148132
v -0.311333 1.472324 -0.134012
v -0.188838 1.551797 0.079605
v -0.206362 1.616759 0.065485
v -0.178129 1.537459 0.000350
v -0.195653 1.602422 -0.013770
v -0.356041 1.573681 0.053053
v -0.338517 1.508719 0.067173
v -0.345332 1.559344 -0.026202
v -0.327808 1.494382 -0.012082
v -0.250000 1.062500 0.150000
v -0.250000 1.062500 -0.162500
v -0.250000 0.812500 0.150000
v -0.250000 0.812500 -0.162500
v -0.312500 1.062500 -0.162500
v -0.312500 1.062500 0.150000
v -0.312500 0.812500 -0.162500
v -0.312500 0.812500 0.150000
v 0.312500 1.062500 0.150000
v 0.312500 1.062500 -0.162500
v 0.312500 0.812500 0.150000
v 0.312500 0.812500 -0.162500
v 0.250000 1.062500 -0.162500
v 0.250000 1.062500 0.150000
v 0.250000 0.812500 -0.162500
v 0.250000 0.812500 0.150000
v 0.324282 1.522386 -0.073024
v 0.322788 1.536602 -0.140271
v 0.199102 1.111687 -0.157061
v 0.197608 1.125903 -0.224309
v 0.185083 1.576234 -0.128834
v 0.186577 1.562018 -0.061586
v 0.059903 1.165534 -0.212871
v 0.061397 1.151319 -0.145624
v 0.322042 1.486661 -0.054758
v 0.339565 1.551624 -0.068877
v 0.311333 1.472324 -0.134012
v 0.328856 1.537287 -0.148132
v 0.189886 1.594702 -0.056445
v 0.172363 1.529739 -0.042326
v 0.179177 1.580364 -0.135700
v 0.161654 1.515402 -0.121580
v 0.331706 1.509339 0.061574
v 0.347637 1.568396 0.048738
v 0.306993 1.476253 -0.121322
v 0.322924 1.535310 -0.134158
v 0.209932 1.608028 0.060175
v 0.194001 1.548971 0.073011
v 0.185219 1.574941 -0.122721
v 0.169288 1.515885 -0.109885
v 0.338517 1.508719 0.067173
v 0.356041 1.573681 0.053053
v 0.327808 1.494382 -0.012082
v 0.345332 1.559344 -0.026202
v 0.206362 1.616759 0.065485
v 0.188838 1.551797 0.079605
v 0.195653 1.602422 -0.013770
v 0.178129 1.537459 0.000350
v 0.347657 1.568640 0.048061
v 0.329627 1.510161 0.035357
v 0.347954 1.545997 0.151870
v 0.329924 1.487518 0.139166
v 0.191989 1.550596 0.044571
v 0.210019 1.609075 0.057275
v 0.192286 1.527953 0.148380
v 0.210316 1.586431 0.161084
v 0.347954 1.545997 0.151870
v 0.342516 1.541637 0.089760
v 0.263718 1.252890 0.179822
v 0.258280 1.248529 0.117712
v 0.204878 1.582071 0.098974
v 0.210316 1.586431 0.161084
v 0.120642 1.288964 0.126926
v 0.126080 1.293324 0.189036
v 0.086803 1.087265 -0.222499
v 0.086803 1.085084 -0.347480
v 0.086803 0.774813 -0.217045
v 0.086803 0.772631 -0.342026
v -0.069447 1.085084 -0.347480
v -0.069447 1.087265 -0.222499
v -0.069447 0.772631 -0.342026
v -0.069447 0.774813 -0.217045
v -0.059647 1.086990 -0.238291
v -0.107482 1.084974 -0.353758
v -0.059647 0.774537 -0.232837
v -0.107482 0.772522 -0.348304
v -0.246064 1.085976 -0.296365
v -0.198229 1.087991 -0.180897
v -0.246064 0.773524 -0.290911
v -0.198229 0.775539 -0.175443
v 0.209335 1.087991 -0.180897
v 0.257170 1.085976 -0.296365
v 0.209335 0.775539 -0.175443
v 0.257170 0.773524 -0.290911
v 0.118588 1.084974 -0.353758
v 0.070753 1.086990 -0.238291
v 0.118588 0.772522 -0.348304
v 0.070753 0.774537 -0.232837
v 0.086803 1.106012 -0.222826
v 0.086803 1.103504 -0.366554
v 0.086803 1.087265 -0.222499
v 0.086803 1.084756 -0.366227
v -0.069447 1.103504 -0.366554
v -0.069447 1.106012 -0.222826
v -0.069447 1.084756 -0.366227
v -0.069447 1.087265 -0.222499
v 0.074303 0.956239 -0.373894
v 0.074303 1.097582 -0.347698
v 0.074303 0.959656 -0.392330
v 0.074303 1.100999 -0.366134
v -0.056947 1.097582 -0.347698
v -0.056947 0.956239 -0.373894
v -0.056947 1.100999 -0.366134
v -0.056947 0.959656 -0.392330
v -0.104822 0.954627 -0.365488
v -0.105477 1.097141 -0.346691
v -0.106780 0.957056 -0.383977
v -0.107436 1.099570 -0.365180
v -0.236008 1.094759 -0.333180
v -0.235353 0.952244 -0.351977
v -0.237967 1.097188 -0.351669
v -0.237311 0.954674 -0.370466
v -0.084494 1.106111 -0.223388
v -0.099243 1.103468 -0.366354
v -0.084120 1.087368 -0.223080
v -0.098869 1.084725 -0.366047
v -0.254637 1.100632 -0.350270
v -0.239888 1.103275 -0.207303
v -0.254263 1.081889 -0.349962
v -0.239514 1.084532 -0.206995
v 0.257121 0.955680 -0.324800
v 0.239867 1.094135 -0.290209
v 0.264719 0.960720 -0.341184
v 0.247464 1.099175 -0.306593
v 0.120914 1.093167 -0.345670
v 0.138168 0.954712 -0.380260
v 0.128512 1.098207 -0.362053
v 0.145766 0.959752 -0.396644
v 0.198339 1.091538 -0.171512
v 0.258859 1.101799 -0.301497
v 0.199030 1.072836 -0.172667
v 0.259550 1.083098 -0.302652
v 0.117249 1.100647 -0.367521
v 0.056728 1.090385 -0.237536
v 0.117939 1.081945 -0.368676
v 0.057419 1.071684 -0.238691
v 0.125000 0.612500 -0.225000
v 0.125000 0.612500 -0.281250
v 0.125000 0.550000 -0.225000
v 0.125000 0.550000 -0.281250
v -0.125000 0.612500 -0.281250
v -0.125000 0.612500 -0.225000
v -0.125000 0.550000 -0.281250
v -0.125000 0.550000 -0.225000
v -0.081694 0.595083 -0.225000
v -0.081694 0.595083 -0.281250
v -0.125888 0.550888 -0.225000
v -0.125888 0.550888 -0.281250
v -0.125888 0.639277 -0.281250
v -0.125888 0.639277 -0.225000
v -0.170083 0.595083 -0.281250
v -0.170083 0.595083 -0.225000
v 0.168306 0.595083 -0.225000
v 0.168306 0.595083 -0.281250
v 0.124112 0.550888 -0.225000
v 0.124112 0.550888 -0.281250
v 0.124112 0.639277 -0.281250
v 0.124112 0.639277 -0.225000
v 0.079917 0.595083 -0.281250
v 0.079917 0.595083 -0.225000
v 0.167417 0.782583 -0.225000
v 0.167417 0.782583 -0.287500
v 0.167417 0.595083 -0.225000
v 0.167417 0.595083 -0.287500
v -0.170083 0.782583 -0.287500
v -0.170083 0.782583 -0.225000
v -0.170083 0.595083 -0.287500
v -0.170083 0.595083 -0.225000
v 0.162352 1.511473 -0.182248
v 0.172194 1.511473 -0.224876
v 0.204909 1.348473 -0.172423
v 0.214750 1.348473 -0.215051
v 0.060430 1.480738 -0.250679
v 0.050589 1.480738 -0.208050
v 0.102986 1.317738 -0.240854
v 0.093145 1.317738 -0.198225
v -0.044475 1.498518 -0.196633
v -0.057129 1.498518 -0.251441
v -0.086654 1.303259 -0.186895
v -0.099307 1.303259 -0.241704
v -0.176038 1.525573 -0.223989
v -0.163384 1.525573 -0.169181
v -0.218216 1.330314 -0.214251
v -0.205563 1.330314 -0.159443
v -0.128038 1.516597 -0.196069
v -0.176038 1.525573 -0.223989
v -0.154400 1.394560 -0.189983
v -0.202399 1.403536 -0.217903
v -0.226700 1.541110 -0.131896
v -0.178700 1.532134 -0.103976
v -0.253062 1.419073 -0.125810
v -0.205062 1.410097 -0.097890
v 0.170598 1.517970 -0.110166
v 0.209973 1.527246 -0.126830
v 0.202121 1.397230 -0.102889
v 0.241496 1.406505 -0.119552
v 0.172194 1.511473 -0.224876
v 0.132820 1.502197 -0.208213
v 0.203717 1.390732 -0.217599
v 0.164343 1.381456 -0.200935
v 0.051171 1.492793 -0.216974
v 0.039453 1.492581 -0.271989
v 0.032190 1.243565 -0.211968
v 0.020473 1.243353 -0.266984
v -0.082436 1.502384 -0.246066
v -0.070718 1.502597 -0.191051
v -0.101416 1.253156 -0.241061
v -0.089698 1.253368 -0.186045
v 0.056415 1.482314 -0.207142
v 0.060430 1.480738 -0.250679
v 0.103700 1.301203 -0.196226
v 0.107715 1.299627 -0.239762
v -0.023860 1.458312 -0.257641
v -0.027875 1.459888 -0.214104
v 0.023425 1.277201 -0.246724
v 0.019409 1.278777 -0.203188
v -0.135259 1.453751 -0.203860
v -0.209925 1.467714 -0.247291
v -0.148440 1.392733 -0.200817
v -0.223106 1.406695 -0.244248
v -0.266547 1.485078 -0.144364
v -0.191881 1.471115 -0.100933
v -0.279728 1.424060 -0.141321
v -0.205062 1.410097 -0.097890
v -0.055020 1.449704 -0.194199
v -0.074703 1.449704 -0.279456
v -0.073473 1.364278 -0.189938
v -0.093156 1.364278 -0.275196
v -0.193612 1.476759 -0.252004
v -0.173929 1.476759 -0.166746
v -0.212065 1.391333 -0.247743
v -0.192382 1.391333 -0.162486
v 0.047849 1.449178 -0.216098
v 0.029622 1.448848 -0.301677
v 0.039308 1.337026 -0.213845
v 0.021081 1.336695 -0.299425
v -0.092267 1.458651 -0.275754
v -0.074039 1.458982 -0.190175
v -0.100808 1.346498 -0.273502
v -0.082581 1.346829 -0.187922
v 0.070316 1.453731 -0.204825
v 0.077200 1.451029 -0.279460
v 0.092383 1.369212 -0.199731
v 0.099266 1.366511 -0.274366
v -0.013111 1.427001 -0.286919
v -0.019995 1.429702 -0.212285
v 0.008955 1.342482 -0.281825
v 0.002072 1.345184 -0.207190
v 0.171809 1.475250 -0.180064
v 0.187275 1.475250 -0.247052
v 0.190723 1.402806 -0.175698
v 0.206189 1.402806 -0.242686
v 0.075511 1.444516 -0.272855
v 0.060046 1.444516 -0.205867
v 0.094425 1.372071 -0.268488
v 0.078959 1.372071 -0.201500
v 0.180055 1.481748 -0.107983
v 0.236304 1.494999 -0.131788
v 0.194241 1.427415 -0.104708
v 0.250490 1.440665 -0.128514
v 0.194081 1.477370 -0.241369
v 0.137832 1.464119 -0.217564
v 0.208267 1.423037 -0.238094
v 0.152017 1.409786 -0.214289
v 0.172194 1.511473 0.224876
v 0.162352 1.511473 0.182247
v 0.214750 1.348473 0.215051
v 0.204909 1.348473 0.172423
v 0.050589 1.480738 0.208050
v 0.060430 1.480738 0.250679
v 0.093145 1.317738 0.198225
v 0.102986 1.317738 0.240854
v -0.057129 1.498518 0.251441
v -0.044475 1.498518 0.196633
v -0.099307 1.303259 0.241703
v -0.086654 1.303259 0.186895
v -0.163384 1.525573 0.169180
v -0.176038 1.525573 0.223989
v -0.205563 1.330314 0.159443
v -0.218216 1.330314 0.214251
v -0.176038 1.525573 0.223989
v -0.128038 1.516597 0.196069
v -0.202399 1.403536 0.217903
v -0.154400 1.394560 0.189983
v -0.178700 1.532134 0.103976
v -0.226700 1.541110 0.131896
v -0.205062 1.410097 0.097890
v -0.253062 1.419073 0.125810
v 0.209973 1.527246 0.126830
v 0.170598 1.517970 0.110166
v 0.241496 1.406505 0.119552
v 0.202121 1.397230 0.102889
v 0.132820 1.502197 0.208212
v 0.172194 1.511473 0.224876
v 0.164343 1.381456 0.200935
v 0.203717 1.390732 0.217598
v 0.039453 1.492581 0.271989
v 0.051171 1.492793 0.216973
v 0.020473 1.243353 0.266984
v 0.032190 1.243565 0.211968
v -0.070718 1.502597 0.191050
v -0.082436 1.502384 0.246066
v -0.089698 1.253368 0.186045
v -0.101416 1.253156 0.241061
v 0.060430 1.480738 0.250679
v 0.056415 1.482314 0.207142
v 0.107715 1.299627 0.239762
v 0.103700 1.301203 0.196225
v -0.027875 1.459888 0.214104
v -0.023860 1.458312 0.257641
v 0.019409 1.278777 0.203187
v 0.023425 1.277201 0.246724
v -0.209925 1.467714 0.247291
v -0.135259 1.453751 0.203860
v -0.223106 1.406695 0.244248
v -0.148440 1.392733 0.200817
v -0.191881 1.471115 0.100933
v -0.266547 1.485078 0.144364
v -0.205062 1.410097 0.097890
v -0.279728 1.424060 0.141321
v -0.074703 1.449704 0.279456
v -0.055020 1.449704 0.194198
v -0.093156 1.364278 0.275195
v -0.073473 1.364278 0.189938
v -0.173929 1.476759 0.166746
v -0.193612 1.476759 0.252003
v -0.192382 1.391333 0.162486
v -0.212065 1.391333 0.247743
v 0.029622 1.448848 0.301677
v 0.047849 1.449178 0.216098
v 0.021081 1.336695 0.299425
v 0.039308 1.337026 0.213845
v -0.074039 1.458982 0.190174
v -0.092267 1.458651 0.275754
v -0.082581 1.346829 0.187922
v -0.100808 1.346498 0.273502
v 0.077200 1.451029 0.279460
v 0.070316 1.453731 0.204825
v 0.099266 1.366511 0.274366
v 0.092383 1.369212 0.199731
v -0.019995 1.429702 0.212285
v -0.013111 1.427001 0.286919
v 0.002072 1.345184 0.207190
v 0.008955 1.342482 0.281825
v 0.187275 1.475250 0.247052
v 0.171809 1.475250 0.180064
v 0.206189 1.402806 0.242685
v 0.190723 1.402806 0.175698
v 0.060046 1.444516 0.205867
v 0.075511 1.444516 0.272855
v 0.078959 1.372071 0.201500
v 0.094425 1.372071 0.268488
v 0.236304 1.494999 0.131788
v 0.180055 1.481748 0.107983
v 0.250490 1.440665 0.128513
v 0.194241 1.427415 0.104708
v 0.137832 1.464119 0.217564
v 0.194081 1.477370 0.241369
v 0.152017 1.409786 0.214289
v 0.208267 1.423037 0.238094
v 0.114622 1.292808 -0.218227
v 0.146686 1.304307 -0.305569
v 0.202718 1.288622 -0.186437
v 0.234782 1.300121 -0.273779
v 0.146686 1.118411 -0.330043
v 0.114622 1.106912 -0.242701
v 0.234782 1.114225 -0.298253
v 0.202718 1.102726 -0.210911
v 0.144527 1.312581 -0.224771
v 0.176591 1.324080 -0.312113
v 0.185638 1.310628 -0.209935
v 0.217703 1.322127 -0.297278
v 0.176591 1.138184 -0.336587
v 0.144527 1.126685 -0.249244
v 0.217703 1.136231 -0.321752
v 0.185638 1.124732 -0.234409
v -0.197064 1.284437 -0.179647
v -0.229128 1.295936 -0.266989
v -0.108968 1.288622 -0.211437
v -0.141032 1.300121 -0.298779
v -0.229128 1.110040 -0.291463
v -0.197064 1.098541 -0.204120
v -0.141032 1.114225 -0.323253
v -0.108968 1.102726 -0.235911
v -0.179985 1.306443 -0.203145
v -0.212049 1.317941 -0.290488
v -0.138873 1.308396 -0.217981
v -0.170937 1.319895 -0.305323
v -0.212049 1.132046 -0.314961
v -0.179985 1.120547 -0.227619
v -0.170937 1.133999 -0.329797
v -0.138873 1.122500 -0.242454
v -0.212500 0.746080 -0.137705
v -0.212500 0.750653 -0.181216
v -0.212500 0.621765 -0.150772
v -0.212500 0.626338 -0.194282
v -0.250000 0.750653 -0.181216
v -0.250000 0.746080 -0.137705
v -0.250000 0.626338 -0.194282
v -0.250000 0.621765 -0.150772
v -0.081250 0.747177 -0.166585
v -0.081250 0.748266 -0.179038
v -0.081250 0.541712 -0.184561
v -0.081250 0.542801 -0.197014
v -0.212500 0.748266 -0.179038
v -0.212500 0.747177 -0.166585
v -0.212500 0.542801 -0.197014
v -0.212500 0.541712 -0.184561
v -0.214403 0.629602 -0.147741
v -0.214403 0.635690 -0.191065
v -0.166568 0.515241 -0.163813
v -0.166568 0.521329 -0.207138
v -0.249049 0.621480 -0.193062
v -0.249049 0.615391 -0.149738
v -0.201213 0.507118 -0.209135
v -0.201213 0.501030 -0.165811
v -0.175628 0.528223 -0.161989
v -0.175628 0.534312 -0.205313
v -0.087240 0.440695 -0.174290
v -0.087240 0.446784 -0.217614
v -0.202145 0.508053 -0.209003
v -0.202145 0.501965 -0.165679
v -0.113756 0.420525 -0.221305
v -0.113756 0.414436 -0.177980
v -0.030936 0.493100 -0.188814
v -0.030936 0.493644 -0.195040
v -0.083969 0.440268 -0.193436
v -0.083969 0.440813 -0.199662
v -0.132583 0.594904 -0.186181
v -0.132583 0.594359 -0.179955
v -0.185616 0.542073 -0.190803
v -0.185616 0.541528 -0.184577
v -0.103241 0.447823 -0.173288
v -0.103241 0.453911 -0.216613
v 0.012243 0.400453 -0.179946
v 0.012243 0.406542 -0.223270
v -0.117592 0.419603 -0.221434
v -0.117592 0.413514 -0.178110
v -0.002107 0.372233 -0.228092
v -0.002107 0.366144 -0.184767
v 0.081250 0.747177 -0.166585
v 0.081250 0.748266 -0.179038
v 0.081250 0.404735 -0.196545
v 0.081250 0.405824 -0.208997
v -0.081250 0.748266 -0.179038
v -0.081250 0.747177 -0.166585
v -0.081250 0.405824 -0.208997
v -0.081250 0.404735 -0.196545
v 0.117592 0.413514 -0.178110
v 0.117592 0.419603 -0.221434
v 0.002107 0.366144 -0.184767
v 0.002107 0.372233 -0.228092
v 0.103241 0.453911 -0.216613
v 0.103241 0.447823 -0.173288
v -0.012243 0.406542 -0.223270
v -0.012243 0.400453 -0.179946
v 0.202145 0.501965 -0.165679
v 0.202145 0.508053 -0.209003
v 0.113756 0.414436 -0.177980
v 0.113756 0.420525 -0.221305
v 0.175628 0.534312 -0.205313
v 0.175628 0.528223 -0.161989
v 0.087240 0.446784 -0.217614
v 0.087240 0.440695 -0.174290
v 0.132583 0.594359 -0.179955
v 0.132583 0.594904 -0.186181
v 0.185616 0.541528 -0.184577
v 0.185616 0.542073 -0.190803
v 0.030936 0.493644 -0.195040
v 0.030936 0.493100 -0.188814
v 0.083969 0.440813 -0.199662
v 0.083969 0.440268 -0.193436
v 0.249049 0.615391 -0.149738
v 0.249049 0.621480 -0.193062
v 0.201213 0.501030 -0.165811
v 0.201213 0.507118 -0.209135
v 0.214403 0.635690 -0.191065
v 0.214403 0.629602 -0.147741
v 0.166568 0.521329 -0.207138
v 0.166568 0.515241 -0.163813
v 0.212500 0.747177 -0.166585
v 0.212500 0.748266 -0.179038
v 0.212500 0.541712 -0.184561
v 0.212500 0.542801 -0.197014
v 0.081250 0.748266 -0.179038
v 0.081250 0.747177 -0.166585
v 0.081250 0.542801 -0.197014
v 0.081250 0.541712 -0.184561
vn -0.0000 0.0958 -0.9954
vn 1.0000 -0.0000 -0.0000
vn -0.0000 -0.0958 0.9954
vn -1.0000 -0.0000 -0.0000
vn -0.0000 0.9954 0.0958
vn -0.0000 -0.9954 -0.0959
vn -0.0000 -0.0000 -1.0000
vn -0.0000 -0.0000 1.0000
vn -0.0000 1.0000 -0.0000
vn -0.0000 -1.0000 -0.0000
vn -0.0000 0.2079 -0.9781
vn -0.0000 -0.2079 0.9781
vn -0.0000 0.9781 0.2079
vn -0.0000 -0.9782 -0.2079
vn -0.0000 -0.9781 -0.2079
vn 0.0217 0.2068 -0.9781
vn 0.9579 0.2757 0.0796
vn -0.0217 -0.2068 0.9781
vn -0.9579 -0.2757 -0.0796
vn -0.2861 0.9387 0.1921
vn 0.2861 -0.9387 -0.1921
vn -0.2549 0.9449 -0.2054
vn 0.2549 -0.9449 0.2054
vn -0.1318 0.1765 0.9754
vn 0.1318 -0.1765 -0.9754
vn 0.2885 -0.9357 -0.2033
vn 0.9575 0.2813 0.0641
vn -0.2885 0.9357 0.2033
vn -0.9575 -0.2813 -0.0641
vn 0.0028 0.2131 -0.9770
vn -0.0028 -0.2131 0.9770
vn 0.0870 -0.0698 -0.9938
vn -0.0870 0.0698 0.9938
vn -0.2751 0.9571 -0.0913
vn 0.2751 -0.9571 0.0913
vn -0.0217 0.2068 -0.9781
vn 0.9579 -0.2757 -0.0796
vn 0.0217 -0.2068 0.9781
vn -0.9579 0.2757 0.0796
vn 0.2861 0.9387 0.1921
vn -0.2861 -0.9387 -0.1921
vn 0.2549 0.9449 -0.2054
vn -0.2549 -0.9449 0.2054
vn 0.1318 0.1765 0.9754
vn -0.1318 -0.1765 -0.9754
vn -0.2885 -0.9357 -0.2033
vn 0.9575 -0.2813 -0.0641
vn 0.2885 0.9357 0.2033
vn -0.9575 0.2813 0.0641
vn -0.0028 0.2131 -0.9770
vn 0.0028 -0.2131 0.9770
vn -0.0870 -0.0698 -0.9938
vn 0.0870 0.0698 0.9938
vn 0.2751 0.9571 -0.0913
vn -0.2751 -0.9571 0.0913
vn -0.0000 -0.0175 -0.9998
vn -0.0000 0.0175 0.9998
vn -0.0000 0.9998 -0.0174
vn -0.0000 -0.9998 0.0175
vn -0.3827 -0.0161 -0.9237
vn 0.9239 -0.0067 -0.3826
vn 0.3827 0.0161 0.9237
vn -0.9239 0.0067 0.3826
vn -0.0000 0.9998 -0.0175
vn -0.0000 -0.9998 0.0174
vn 0.3827 -0.0161 -0.9237
vn 0.9239 0.0067 0.3826
vn -0.3827 0.0161 0.9237
vn -0.9239 -0.0067 -0.3826
vn -0.0000 -0.0174 -0.9998
vn -0.0000 0.0174 0.9998
vn -0.0000 0.9833 0.1822
vn -0.0000 -0.9833 -0.1822
vn -0.0000 -0.1822 0.9833
vn -0.0000 0.1822 -0.9833
vn -0.0046 0.9914 0.1307
vn 0.9945 0.0181 -0.1029
vn 0.9945 0.0182 -0.1030
vn 0.0046 -0.9914 -0.1307
vn 0.0046 -0.9914 -0.1308
vn -0.9945 -0.0181 0.1029
vn -0.9945 -0.0182 0.1030
vn 0.1044 -0.1296 0.9861
vn -0.1044 0.1296 -0.9861
vn -0.1026 -0.0184 -0.9946
vn -0.1026 -0.0183 -0.9946
vn 0.9945 0.0182 -0.1029
vn 0.1026 0.0184 0.9946
vn -0.9945 -0.0182 0.1029
vn -0.0199 0.9997 -0.0164
vn 0.0199 -0.9997 0.0164
vn -0.1200 0.9632 0.2406
vn 0.9063 0.0074 0.4225
vn 0.9063 0.0074 0.4226
vn 0.1200 -0.9632 -0.2406
vn -0.9063 -0.0074 -0.4226
vn -0.4052 -0.2688 0.8738
vn 0.4052 0.2688 -0.8738
vn 0.4210 0.0714 -0.9042
vn -0.4210 -0.0714 0.9042
vn -0.9063 -0.0073 -0.4226
vn -0.0368 0.9974 0.0616
vn 0.0368 -0.9974 -0.0616
vn 0.7071 -0.7071 -0.0000
vn -0.7071 0.7071 -0.0000
vn 0.7071 0.7071 -0.0000
vn -0.7071 -0.7071 -0.0000
vn 0.2250 -0.0000 -0.9744
vn 0.9412 0.2588 0.2173
vn -0.2249 -0.0000 0.9744
vn -0.9412 -0.2588 -0.2173
vn -0.2522 0.9659 -0.0582
vn 0.2522 -0.9659 0.0582
vn -0.2250 -0.0000 -0.9744
vn 0.9513 -0.2164 -0.2196
vn 0.2249 -0.0000 0.9744
vn -0.9513 0.2164 0.2196
vn 0.2109 0.9763 -0.0487
vn -0.2109 -0.9763 0.0487
vn -0.8533 0.1596 -0.4964
vn 0.4768 -0.1462 -0.8668
vn 0.8533 -0.1596 0.4964
vn -0.4768 0.1462 0.8668
vn 0.9000 0.2120 -0.3809
vn 0.3556 0.1484 0.9228
vn 0.3556 0.1485 0.9228
vn 0.3555 0.1484 0.9228
vn -0.9000 -0.2120 0.3809
vn -0.3556 -0.1484 -0.9228
vn -0.3556 -0.1485 -0.9228
vn -0.2083 -0.0038 -0.9781
vn 0.9751 -0.0784 -0.2074
vn 0.2083 0.0038 0.9781
vn -0.9751 0.0784 0.2074
vn 0.0759 0.9969 -0.0200
vn -0.0759 -0.9969 0.0200
vn 0.0918 -0.0360 -0.9951
vn 0.9633 0.2563 0.0796
vn -0.0918 0.0360 0.9951
vn -0.9633 -0.2563 -0.0796
vn 0.2250 -0.0000 0.9744
vn 0.2249 -0.0000 -0.9744
vn -0.2250 -0.0000 0.9744
vn -0.2249 -0.0000 -0.9744
vn 0.9412 0.2588 -0.2173
vn -0.9412 -0.2588 0.2173
vn -0.2522 0.9659 0.0582
vn 0.2522 -0.9659 -0.0582
vn 0.9513 -0.2164 0.2196
vn -0.9513 0.2164 -0.2196
vn 0.2109 0.9763 0.0487
vn -0.2109 -0.9763 -0.0487
vn 0.8533 -0.1596 -0.4964
vn 0.4768 -0.1462 0.8668
vn -0.8533 0.1596 0.4964
vn -0.4768 0.1462 -0.8668
vn -0.9000 -0.2120 -0.3809
vn 0.3556 0.1484 -0.9228
vn 0.3555 0.1484 -0.9228
vn 0.9000 0.2120 0.3809
vn -0.3556 -0.1485 0.9228
vn -0.3556 -0.1484 0.9228
vn 0.2083 0.0038 -0.9781
vn 0.9751 -0.0784 0.2074
vn -0.2083 -0.0038 0.9781
vn -0.9751 0.0784 -0.2074
vn 0.0759 0.9969 0.0200
vn -0.0759 -0.9969 -0.0200
vn -0.0918 0.0360 -0.9951
vn 0.9633 0.2563 -0.0796
vn 0.0918 -0.0360 0.9951
vn -0.9633 -0.2563 0.0796
vn 0.3556 0.1485 -0.9228
vn 0.3420 0.1227 -0.9317
vn -0.0000 0.9914 0.1305
vn -0.3420 -0.1227 0.9317
vn -0.0000 -0.9914 -0.1305
vn -0.9397 0.0446 -0.3391
vn 0.9397 -0.0446 0.3391
vn -0.3420 -0.1227 0.9316
vn -0.3420 0.1227 -0.9317
vn 0.3420 -0.1227 0.9317
vn -0.9397 -0.0446 0.3391
vn 0.9397 0.0446 -0.3391
vn -0.0000 0.1045 -0.9945
vn -0.0000 -0.1045 0.9945
vn -0.0000 0.9945 0.1045
vn -0.0000 -0.9945 -0.1045
vn -0.0000 0.0872 -0.9962
vn -0.0000 -0.0872 0.9962
vn -0.0000 0.9962 0.0871
vn -0.0000 -0.9962 -0.0871
vn -0.0000 0.1392 -0.9903
vn 0.9239 0.3790 0.0533
vn -0.0000 -0.1392 0.9903
vn -0.9239 -0.3790 -0.0533
vn -0.3827 0.9149 0.1286
vn 0.3827 -0.9149 -0.1286
vn 0.7071 0.7002 0.0984
vn -0.7071 -0.7002 -0.0984
vn -0.7071 0.7002 0.0984
vn 0.7071 -0.7002 -0.0984
vn 0.7071 -0.7044 -0.0617
vn 0.7071 -0.7044 -0.0616
vn -0.7071 0.7044 0.0617
vn 0.7071 0.7044 0.0615
vn 0.7071 0.7044 0.0617
vn -0.7071 -0.7044 -0.0617
vn 0.3827 0.9149 0.1286
vn -0.3827 -0.9149 -0.1286
vn -0.9239 0.3790 0.0533
vn 0.9239 -0.3789 -0.0533
vn -0.9239 -0.3789 -0.0533
vn -0.7071 -0.7044 -0.0616
vn -0.7071 0.7044 0.0615
vn 0.9239 -0.3790 -0.0533
vn 0.3420 -0.1227 0.9316
vt 0.634766 0.250000
vt 0.625000 0.281250
vt 0.625000 0.250000
vt 0.031250 0.250000
vt 0.041992 0.281250
vt 0.031250 0.281250
vt 0.728516 0.343750
vt 0.718750 0.375000
vt 0.718750 0.343750
vt 0.057617 0.250000
vt 0.046875 0.281250
vt 0.046875 0.250000
vt 0.015625 0.250000
vt 0.025391 0.239258
vt 0.025391 0.250000
vt 0.031250 0.239258
vt 0.041016 0.250000
vt 0.041016 0.239258
vt 0.125000 0.703125
vt 0.000000 0.828125
vt 0.000000 0.703125
vt 0.390625 0.875000
vt 0.359375 1.000000
vt 0.359375 0.875000
vt 0.250000 0.703125
vt 0.125000 0.828125
vt 0.125000 0.515625
vt 0.093750 0.640625
vt 0.093750 0.515625
vt 0.375000 0.875000
vt 0.500000 0.843750
vt 0.500000 0.875000
vt 0.375000 0.812500
vt 0.500000 0.812500
vt 0.093750 0.651367
vt 0.000000 0.651367
vt 0.187500 0.338867
vt 0.171875 0.390625
vt 0.171875 0.338867
vt 0.187500 0.651367
vt 0.093750 0.703125
vt 0.609375 0.776367
vt 0.625000 0.828125
vt 0.609375 0.828125
vt 0.437500 0.921875
vt 0.531250 0.906250
vt 0.531250 0.921875
vt 0.484375 0.921875
vt 0.578125 0.937500
vt 0.578125 0.921875
vt 0.286133 0.593750
vt 0.250000 0.593750
vt 0.486328 0.453125
vt 0.468750 0.562500
vt 0.468750 0.453125
vt 0.296875 0.593750
vt 0.333008 0.703125
vt 0.296875 0.703125
vt 0.017578 0.406250
vt 0.000000 0.515625
vt 0.000000 0.406250
vt 0.109375 0.343750
vt 0.145508 0.326172
vt 0.145508 0.343750
vt 0.656250 0.841797
vt 0.692383 0.859375
vt 0.692383 0.841797
vt 0.281250 0.828125
vt 0.317383 0.875000
vt 0.281250 0.875000
vt 0.562500 0.343750
vt 0.546875 0.390625
vt 0.546875 0.343750
vt 0.426758 0.656250
vt 0.390625 0.703125
vt 0.390625 0.656250
vt 0.578125 0.390625
vt 0.562500 0.390625
vt 0.640625 0.968750
vt 0.676758 0.953125
vt 0.676758 0.968750
vt 0.692383 0.562500
vt 0.656250 0.578125
vt 0.692383 0.578125
vt 0.614258 0.520508
vt 0.578125 0.546875
vt 0.578125 0.520508
vt 0.640625 0.286133
vt 0.625000 0.312500
vt 0.625000 0.286133
vt 0.614258 0.489258
vt 0.578125 0.515625
vt 0.578125 0.489258
vt 0.703125 0.348633
vt 0.687500 0.375000
vt 0.687500 0.348633
vt 0.656250 0.562500
vt 0.692383 0.546875
vt 0.453125 0.328125
vt 0.489258 0.343750
vt 0.489258 0.328125
vt 0.333008 0.517578
vt 0.296875 0.517578
vt 0.453125 0.392578
vt 0.468750 0.468750
vt 0.453125 0.468750
vt 0.473633 0.923828
vt 0.437500 1.000000
vt 0.437500 0.923828
vt 0.093750 0.376953
vt 0.109375 0.453125
vt 0.093750 0.453125
vt 0.656250 0.546875
vt 0.692383 0.531250
vt 0.656250 0.515625
vt 0.692383 0.515625
vt 0.132812 0.828125
vt 0.000000 1.000000
vt 0.210938 0.531250
vt 0.187500 0.703125
vt 0.187500 0.531250
vt 0.273438 0.828125
vt 0.140625 1.000000
vt 0.140625 0.828125
vt 0.242188 0.531250
vt 0.218750 0.703125
vt 0.218750 0.531250
vt 0.507812 0.789062
vt 0.507812 0.812500
vt 0.390625 0.882812
vt 0.523438 0.906250
vt 0.523438 0.882812
vt 0.648438 0.745117
vt 0.609375 0.765625
vt 0.609375 0.745117
vt 0.140625 0.276367
vt 0.158203 0.296875
vt 0.140625 0.296875
vt 0.609375 0.713867
vt 0.648438 0.734375
vt 0.609375 0.734375
vt 0.703125 0.838867
vt 0.720703 0.859375
vt 0.703125 0.859375
vt 0.625000 1.000000
vt 0.664062 0.982422
vt 0.664062 1.000000
vt 0.054688 0.357422
vt 0.015625 0.375000
vt 0.054688 0.375000
vt 0.648438 0.666992
vt 0.609375 0.687500
vt 0.609375 0.666992
vt 0.703125 0.807617
vt 0.720703 0.828125
vt 0.703125 0.828125
vt 0.648438 0.635742
vt 0.609375 0.656250
vt 0.609375 0.635742
vt 0.205078 0.276367
vt 0.187500 0.296875
vt 0.187500 0.276367
vt 0.664062 0.953125
vt 0.625000 0.935547
vt 0.664062 0.935547
vt 0.062500 0.357422
vt 0.101562 0.375000
vt 0.101562 0.357422
vt 0.343750 0.703125
vt 0.328125 0.765625
vt 0.328125 0.703125
vt 0.250000 0.828125
vt 0.250000 0.765625
vt 0.171875 0.359375
vt 0.156250 0.421875
vt 0.156250 0.359375
vt 0.171875 0.640625
vt 0.187500 0.562500
vt 0.187500 0.640625
vt 0.187500 0.468750
vt 0.187500 0.390625
vt 0.406250 0.359375
vt 0.390625 0.421875
vt 0.390625 0.359375
vt 0.359375 0.937500
vt 0.281250 1.000000
vt 0.281250 0.937500
vt 0.421875 0.359375
vt 0.406250 0.421875
vt 0.421875 0.468750
vt 0.437500 0.390625
vt 0.437500 0.468750
vt 0.453125 0.390625
vt 0.364258 0.765625
vt 0.328125 0.875000
vt 0.031250 0.406250
vt 0.048828 0.515625
vt 0.031250 0.515625
vt 0.379883 0.656250
vt 0.343750 0.765625
vt 0.343750 0.656250
vt 0.062500 0.406250
vt 0.080078 0.515625
vt 0.062500 0.515625
vt 0.223633 0.343750
vt 0.187500 0.326172
vt 0.223633 0.326172
vt 0.656250 0.779297
vt 0.692383 0.796875
vt 0.692383 0.779297
vt 0.648438 0.604492
vt 0.609375 0.625000
vt 0.609375 0.604492
vt 0.720703 0.776367
vt 0.703125 0.796875
vt 0.703125 0.776367
vt 0.648438 0.573242
vt 0.609375 0.593750
vt 0.609375 0.573242
vt 0.251953 0.276367
vt 0.234375 0.296875
vt 0.234375 0.276367
vt 0.625000 0.921875
vt 0.664062 0.904297
vt 0.664062 0.921875
vt 0.109375 0.357422
vt 0.148438 0.375000
vt 0.148438 0.357422
vt 0.333008 0.468750
vt 0.296875 0.515625
vt 0.296875 0.468750
vt 0.593750 0.343750
vt 0.578125 0.343750
vt 0.536133 0.828125
vt 0.500000 0.828125
vt 0.609375 0.343750
vt 0.593750 0.390625
vt 0.656250 0.500000
vt 0.692383 0.500000
vt 0.656250 0.484375
vt 0.692383 0.484375
vt 0.421875 0.370117
vt 0.460938 0.390625
vt 0.421875 0.390625
vt 0.720703 0.713867
vt 0.703125 0.734375
vt 0.703125 0.713867
vt 0.539062 0.370117
vt 0.500000 0.390625
vt 0.500000 0.370117
vt 0.392578 0.276367
vt 0.375000 0.296875
vt 0.375000 0.276367
vt 0.625000 0.890625
vt 0.664062 0.873047
vt 0.664062 0.890625
vt 0.625000 0.810547
vt 0.664062 0.828125
vt 0.664062 0.810547
vt 0.500000 0.395508
vt 0.536133 0.421875
vt 0.500000 0.421875
vt 0.656250 0.312500
vt 0.640625 0.312500
vt 0.546875 0.395508
vt 0.583008 0.421875
vt 0.546875 0.421875
vt 0.656250 0.286133
vt 0.671875 0.312500
vt 0.656250 0.468750
vt 0.692383 0.468750
vt 0.656250 0.453125
vt 0.692383 0.453125
vt 0.473633 0.705078
vt 0.437500 0.781250
vt 0.437500 0.705078
vt 0.125000 0.376953
vt 0.109375 0.376953
vt 0.437500 0.626953
vt 0.473633 0.703125
vt 0.437500 0.703125
vt 0.390625 0.376953
vt 0.375000 0.453125
vt 0.375000 0.376953
vt 0.583008 0.328125
vt 0.583008 0.343750
vt 0.692383 0.437500
vt 0.429688 0.703125
vt 0.390625 0.781250
vt 0.468750 0.546875
vt 0.437500 0.625000
vt 0.437500 0.546875
vt 0.382812 0.531250
vt 0.343750 0.609375
vt 0.343750 0.531250
vt 0.156250 0.468750
vt 0.125000 0.546875
vt 0.125000 0.468750
vt 0.531250 0.546875
vt 0.570312 0.515625
vt 0.570312 0.546875
vt 0.531250 0.484375
vt 0.570312 0.484375
vt 0.427734 0.531250
vt 0.390625 0.609375
vt 0.390625 0.531250
vt 0.187500 0.546875
vt 0.156250 0.546875
vt 0.037109 0.515625
vt 0.000000 0.593750
vt 0.546875 0.484375
vt 0.583984 0.453125
vt 0.583984 0.484375
vt 0.583984 0.421875
vt 0.046875 0.515625
vt 0.083984 0.593750
vt 0.046875 0.593750
vt 0.218750 0.453125
vt 0.187500 0.453125
vt 0.287109 0.515625
vt 0.250000 0.515625
vt 0.250000 0.453125
vt 0.599609 0.828125
vt 0.562500 0.796875
vt 0.599609 0.796875
vt 0.562500 0.656250
vt 0.599609 0.687500
vt 0.599609 0.656250
vt 0.773438 0.807617
vt 0.734375 0.812500
vt 0.734375 0.807617
vt 0.770508 0.713867
vt 0.734375 0.718750
vt 0.734375 0.713867
vt 0.242188 0.260742
vt 0.203125 0.265625
vt 0.203125 0.260742
vt 0.770508 0.698242
vt 0.734375 0.703125
vt 0.734375 0.698242
vt 0.515625 0.828125
vt 0.554688 0.791992
vt 0.554688 0.828125
vt 0.531250 0.963867
vt 0.570312 1.000000
vt 0.570312 0.963867
vt 0.767578 0.495117
vt 0.734375 0.500000
vt 0.734375 0.495117
vt 0.343750 0.260742
vt 0.379883 0.265625
vt 0.343750 0.265625
vt 0.767578 0.479492
vt 0.734375 0.484375
vt 0.734375 0.479492
vt 0.770508 0.635742
vt 0.734375 0.640625
vt 0.734375 0.635742
vt 0.500000 0.468750
vt 0.533203 0.432617
vt 0.533203 0.468750
vt 0.546875 0.838867
vt 0.580078 0.875000
vt 0.580078 0.838867
vt 0.562500 0.260742
vt 0.595703 0.265625
vt 0.562500 0.265625
vt 0.734375 0.557617
vt 0.770508 0.562500
vt 0.734375 0.562500
vt 0.767578 0.432617
vt 0.734375 0.437500
vt 0.734375 0.432617
vt 0.770508 0.541992
vt 0.734375 0.546875
vt 0.734375 0.541992
vt 0.314453 0.453125
vt 0.281250 0.416992
vt 0.314453 0.416992
vt 0.328125 0.416992
vt 0.361328 0.453125
vt 0.361328 0.416992
vt 0.289062 0.260742
vt 0.250000 0.265625
vt 0.250000 0.260742
vt 0.770508 0.526367
vt 0.734375 0.531250
vt 0.734375 0.526367
vt 0.734375 0.729492
vt 0.773438 0.734375
vt 0.734375 0.734375
vt 0.770508 0.510742
vt 0.734375 0.515625
vt 0.734375 0.510742
vt 0.570312 0.781250
vt 0.531250 0.745117
vt 0.570312 0.745117
vt 0.531250 0.698242
vt 0.570312 0.734375
vt 0.570312 0.698242
vt 0.767578 0.463867
vt 0.734375 0.468750
vt 0.734375 0.463867
vt 0.770508 0.620117
vt 0.734375 0.625000
vt 0.734375 0.620117
vt 0.734375 0.448242
vt 0.767578 0.453125
vt 0.734375 0.453125
vt 0.770508 0.604492
vt 0.734375 0.609375
vt 0.734375 0.604492
vt 0.220703 0.453125
vt 0.187500 0.416992
vt 0.220703 0.416992
vt 0.234375 0.416992
vt 0.267578 0.453125
vt 0.267578 0.416992
vt 0.773438 0.791992
vt 0.734375 0.796875
vt 0.734375 0.791992
vt 0.770508 0.588867
vt 0.734375 0.593750
vt 0.734375 0.588867
vt 0.773438 0.776367
vt 0.734375 0.781250
vt 0.734375 0.776367
vt 0.734375 0.573242
vt 0.770508 0.578125
vt 0.734375 0.578125
vt 0.570312 0.885742
vt 0.570312 0.921875
vt 0.125000 0.432617
vt 0.164062 0.468750
vt 0.164062 0.432617
vt 0.625000 0.546875
vt 0.562500 0.562500
vt 0.562500 0.546875
vt 0.576172 0.781250
vt 0.562500 0.781250
vt 0.640625 0.953125
vt 0.578125 0.968750
vt 0.578125 0.953125
vt 0.388672 0.359375
vt 0.375000 0.375000
vt 0.375000 0.359375
vt 0.578125 0.703125
vt 0.640625 0.689453
vt 0.640625 0.703125
vt 0.593750 0.830078
vt 0.656250 0.843750
vt 0.656250 0.830078
vt 0.375000 0.765625
vt 0.375000 0.781250
vt 0.654297 0.687500
vt 0.640625 0.687500
vt 0.171875 0.562500
vt 0.171875 0.546875
vt 0.466797 0.343750
vt 0.453125 0.359375
vt 0.453125 0.343750
vt 0.109375 0.265625
vt 0.125000 0.251953
vt 0.125000 0.265625
vt 0.734375 0.876953
vt 0.750000 0.890625
vt 0.750000 0.876953
vt 0.138672 0.250000
vt 0.125000 0.250000
vt 0.546875 0.468750
vt 0.531250 0.468750
vt 0.748047 0.859375
vt 0.734375 0.875000
vt 0.734375 0.859375
vt 0.140625 0.265625
vt 0.156250 0.251953
vt 0.156250 0.265625
vt 0.734375 0.845703
vt 0.750000 0.859375
vt 0.750000 0.845703
vt 0.427734 0.609375
vt 0.625000 0.343750
vt 0.609375 0.390625
vt 0.000000 0.640625
vt 0.015625 0.328125
vt 0.000000 0.375000
vt 0.000000 0.328125
vt 0.531250 0.953125
vt 0.615234 0.937500
vt 0.615234 0.953125
vt 0.296875 0.453125
vt 0.380859 0.468750
vt 0.380859 0.453125
vt 0.560547 0.645508
vt 0.531250 0.687500
vt 0.531250 0.645508
vt 0.218750 0.270508
vt 0.229492 0.312500
vt 0.218750 0.312500
vt 0.531250 0.598633
vt 0.560547 0.640625
vt 0.531250 0.640625
vt 0.687500 0.692383
vt 0.698242 0.734375
vt 0.687500 0.734375
vt 0.703125 0.453125
vt 0.732422 0.442383
vt 0.732422 0.453125
vt 0.718750 0.958008
vt 0.748047 0.968750
vt 0.748047 0.958008
vt 0.125000 0.465820
vt 0.093750 0.465820
vt 0.263672 0.325195
vt 0.250000 0.375000
vt 0.250000 0.325195
vt 0.500000 0.606445
vt 0.531250 0.656250
vt 0.500000 0.656250
vt 0.265625 0.325195
vt 0.279297 0.375000
vt 0.265625 0.375000
vt 0.687500 0.625000
vt 0.718750 0.611328
vt 0.718750 0.625000
vt 0.687500 0.595703
vt 0.718750 0.609375
vt 0.718750 0.595703
vt 0.276367 0.406250
vt 0.250000 0.406250
vt 0.498047 0.625000
vt 0.484375 0.656250
vt 0.484375 0.625000
vt 0.281250 0.375000
vt 0.307617 0.406250
vt 0.281250 0.406250
vt 0.482422 0.281250
vt 0.468750 0.312500
vt 0.468750 0.281250
vt 0.703125 0.984375
vt 0.729492 0.970703
vt 0.729492 0.984375
vt 0.703125 0.689453
vt 0.729492 0.703125
vt 0.729492 0.689453
vt 0.338867 0.375000
vt 0.312500 0.406250
vt 0.312500 0.375000
vt 0.276367 0.265625
vt 0.265625 0.296875
vt 0.265625 0.265625
vt 0.370117 0.375000
vt 0.343750 0.406250
vt 0.343750 0.375000
vt 0.448242 0.265625
vt 0.437500 0.296875
vt 0.437500 0.265625
vt 0.640625 0.281250
vt 0.666992 0.270508
vt 0.666992 0.281250
vt 0.718750 0.333008
vt 0.745117 0.343750
vt 0.745117 0.333008
vt 0.375000 0.468750
vt 0.343750 0.468750
vt 0.201172 0.343750
vt 0.187500 0.406250
vt 0.187500 0.343750
vt 0.406250 0.531250
vt 0.375000 0.531250
vt 0.203125 0.343750
vt 0.216797 0.406250
vt 0.203125 0.406250
vt 0.687500 0.593750
vt 0.718750 0.580078
vt 0.718750 0.593750
vt 0.484375 0.298828
vt 0.515625 0.312500
vt 0.515625 0.298828
vt 0.468750 0.406250
vt 0.490234 0.453125
vt 0.166992 0.312500
vt 0.156250 0.312500
vt 0.125000 0.375000
vt 0.146484 0.421875
vt 0.125000 0.421875
vt 0.245117 0.296875
vt 0.234375 0.343750
vt 0.755859 0.953125
vt 0.734375 0.942383
vt 0.755859 0.942383
vt 0.734375 0.926758
vt 0.755859 0.937500
vt 0.755859 0.926758
vt 0.654297 0.843750
vt 0.625000 0.859375
vt 0.625000 0.843750
vt 0.724609 0.546875
vt 0.703125 0.562500
vt 0.703125 0.546875
vt 0.687500 0.953125
vt 0.716797 0.968750
vt 0.687500 0.968750
vt 0.724609 0.531250
vt 0.703125 0.531250
vt 0.685547 0.765625
vt 0.656250 0.744141
vt 0.685547 0.744141
vt 0.685547 0.712891
vt 0.656250 0.734375
vt 0.685547 0.734375
vt 0.656250 0.775391
vt 0.625000 0.796875
vt 0.625000 0.775391
vt 0.583984 0.306641
vt 0.562500 0.328125
vt 0.562500 0.306641
vt 0.343750 0.353516
vt 0.312500 0.353516
vt 0.037109 0.291016
vt 0.015625 0.312500
vt 0.015625 0.291016
vt 0.375000 0.353516
vt 0.656250 0.541016
vt 0.625000 0.562500
vt 0.000000 0.377930
vt 0.677734 0.643555
vt 0.656250 0.671875
vt 0.656250 0.643555
vt 0.062500 0.377930
vt 0.031250 0.377930
vt 0.365234 0.315430
vt 0.343750 0.343750
vt 0.343750 0.315430
vt 0.500000 0.375000
vt 0.468750 0.353516
vt 0.500000 0.353516
vt 0.656250 0.509766
vt 0.625000 0.531250
vt 0.656250 0.531250
vt 0.671875 0.806641
vt 0.695312 0.828125
vt 0.671875 0.828125
vt 0.703125 0.931641
vt 0.721680 0.953125
vt 0.703125 0.953125
vt 0.398438 0.306641
vt 0.375000 0.328125
vt 0.375000 0.306641
vt 0.721680 0.900391
vt 0.703125 0.921875
vt 0.703125 0.900391
vt 0.335938 0.312500
vt 0.312500 0.293945
vt 0.335938 0.293945
vt 0.687500 0.668945
vt 0.710938 0.687500
vt 0.710938 0.668945
vt 0.685547 0.387695
vt 0.656250 0.406250
vt 0.656250 0.387695
vt 0.080078 0.262695
vt 0.062500 0.281250
vt 0.062500 0.262695
vt 0.625000 0.325195
vt 0.654297 0.343750
vt 0.718750 0.747070
vt 0.736328 0.765625
vt 0.718750 0.765625
vt 0.671875 1.000000
vt 0.701172 0.982422
vt 0.701172 1.000000
vt 0.671875 0.935547
vt 0.701172 0.953125
vt 0.701172 0.935547
vt 0.716797 0.330078
vt 0.687500 0.343750
vt 0.687500 0.330078
vt 0.171875 0.265625
vt 0.701172 0.298828
vt 0.671875 0.298828
vt 0.750000 0.830078
vt 0.734375 0.843750
vt 0.734375 0.830078
vt 0.109375 0.312500
vt 0.138672 0.296875
vt 0.138672 0.312500
vt 0.169922 0.312500
vt 0.169922 0.296875
vt 0.419922 0.426758
vt 0.390625 0.468750
vt 0.390625 0.426758
vt 0.291992 0.270508
vt 0.281250 0.312500
vt 0.281250 0.270508
vt 0.531250 0.551758
vt 0.560547 0.593750
vt 0.531250 0.593750
vt 0.307617 0.270508
vt 0.296875 0.312500
vt 0.296875 0.270508
vt 0.343750 0.281250
vt 0.373047 0.270508
vt 0.373047 0.281250
vt 0.718750 0.645508
vt 0.748047 0.656250
vt 0.748047 0.645508
vt 0.531250 0.543945
vt 0.500000 0.593750
vt 0.500000 0.543945
vt 0.294922 0.325195
vt 0.281250 0.325195
vt 0.531250 0.481445
vt 0.500000 0.531250
vt 0.500000 0.481445
vt 0.310547 0.325195
vt 0.296875 0.375000
vt 0.296875 0.325195
vt 0.546875 0.298828
vt 0.546875 0.312500
vt 0.718750 0.423828
vt 0.687500 0.437500
vt 0.718750 0.437500
vt 0.495117 0.375000
vt 0.468750 0.375000
vt 0.560547 0.281250
vt 0.546875 0.281250
vt 0.620117 0.453125
vt 0.593750 0.484375
vt 0.593750 0.453125
vt 0.687500 0.390625
vt 0.701172 0.421875
vt 0.687500 0.421875
vt 0.432617 0.296875
vt 0.406250 0.283203
vt 0.432617 0.283203
vt 0.703125 0.564453
vt 0.729492 0.578125
vt 0.729492 0.564453
vt 0.593750 0.421875
vt 0.463867 0.265625
vt 0.453125 0.296875
vt 0.453125 0.265625
vt 0.620117 0.390625
vt 0.703125 0.500000
vt 0.713867 0.531250
vt 0.718750 0.328125
vt 0.745117 0.317383
vt 0.745117 0.328125
vt 0.718750 0.301758
vt 0.745117 0.312500
vt 0.745117 0.301758
vt 0.500000 0.562500
vt 0.468750 0.625000
vt 0.218750 0.343750
vt 0.232422 0.406250
vt 0.218750 0.406250
vt 0.406250 0.468750
vt 0.437500 0.531250
vt 0.248047 0.343750
vt 0.234375 0.406250
vt 0.593750 0.312500
vt 0.625000 0.298828
vt 0.687500 0.376953
vt 0.718750 0.390625
vt 0.718750 0.376953
vt 0.599609 0.750000
vt 0.578125 0.796875
vt 0.578125 0.750000
vt 0.000000 0.281250
vt 0.010742 0.328125
vt 0.599609 0.703125
vt 0.171875 0.281250
vt 0.182617 0.328125
vt 0.171875 0.328125
vt 0.734375 0.921875
vt 0.755859 0.911133
vt 0.755859 0.921875
vt 0.755859 0.895508
vt 0.734375 0.906250
vt 0.755859 0.906250
vt 0.216797 0.296875
vt 0.187500 0.312500
vt 0.484375 0.281250
vt 0.505859 0.296875
vt 0.484375 0.296875
vt 0.716797 0.750000
vt 0.687500 0.765625
vt 0.687500 0.750000
vt 0.724609 0.484375
vt 0.703125 0.484375
vt 0.656250 0.703125
vt 0.685547 0.681641
vt 0.685547 0.703125
vt 0.312500 0.322266
vt 0.341797 0.343750
vt 0.341797 0.322266
vt 0.625000 0.478516
vt 0.625000 0.500000
vt 0.046875 0.291016
vt 0.068359 0.312500
vt 0.046875 0.312500
vt 0.656250 0.447266
vt 0.625000 0.468750
vt 0.625000 0.447266
vt 0.078125 0.291016
vt 0.099609 0.312500
vt 0.078125 0.312500
vt 0.656250 0.437500
vt 0.625000 0.416016
vt 0.656250 0.416016
vt 0.625000 0.384766
vt 0.656250 0.384766
vt 0.093750 0.377930
vt 0.656250 0.612305
vt 0.677734 0.640625
vt 0.656250 0.640625
vt 0.625000 0.846680
vt 0.593750 0.875000
vt 0.593750 0.846680
vt 0.677734 0.581055
vt 0.656250 0.609375
vt 0.656250 0.581055
vt 0.625000 0.375000
vt 0.656250 0.353516
vt 0.656250 0.375000
vt 0.375000 0.337891
vt 0.406250 0.337891
vt 0.406250 0.306641
vt 0.429688 0.328125
vt 0.406250 0.328125
vt 0.127930 0.275391
vt 0.109375 0.296875
vt 0.109375 0.275391
vt 0.460938 0.306641
vt 0.437500 0.328125
vt 0.437500 0.306641
vt 0.703125 0.869141
vt 0.721680 0.890625
vt 0.703125 0.890625
vt 0.343750 0.312500
vt 0.367188 0.293945
vt 0.367188 0.312500
vt 0.687500 0.637695
vt 0.710938 0.656250
vt 0.710938 0.637695
vt 0.685547 0.356445
vt 0.656250 0.356445
vt 0.312500 0.262695
vt 0.330078 0.281250
vt 0.312500 0.281250
vt 0.656250 0.325195
vt 0.685547 0.343750
vt 0.656250 0.343750
vt 0.736328 0.668945
vt 0.718750 0.687500
vt 0.718750 0.668945
vt 0.671875 0.921875
vt 0.701172 0.904297
vt 0.701172 0.921875
vt 0.671875 0.873047
vt 0.701172 0.890625
vt 0.701172 0.873047
vt 0.687500 0.314453
vt 0.716797 0.328125
vt 0.687500 0.328125
vt 0.750000 0.814453
vt 0.734375 0.828125
vt 0.734375 0.814453
vt 0.703125 0.986328
vt 0.732422 1.000000
vt 0.703125 1.000000
vt 0.203125 0.251953
vt 0.187500 0.265625
vt 0.187500 0.251953
vt 0.279297 0.312500
vt 0.250000 0.296875
vt 0.279297 0.296875
vt 0.716797 0.734375
vt 0.609375 0.632812
vt 0.562500 0.632812
vt 0.679688 0.414062
vt 0.656250 0.414062
vt 0.562500 0.601562
vt 0.562500 0.625000
vt 0.617188 0.320312
vt 0.593750 0.320312
vt 0.562500 0.593750
vt 0.609375 0.570312
vt 0.578125 0.976562
vt 0.625000 0.976562
vt 0.468750 0.317383
vt 0.515625 0.328125
vt 0.468750 0.328125
vt 0.734375 0.989258
vt 0.757812 1.000000
vt 0.734375 1.000000
vt 0.515625 0.317383
vt 0.734375 0.973633
vt 0.757812 0.984375
vt 0.734375 0.984375
vt 0.625000 0.914062
vt 0.625000 0.937500
vt 0.578125 0.882812
vt 0.625000 0.906250
vt 0.625000 0.882812
vt 0.757812 0.989258
vt 0.562500 0.317383
vt 0.757812 0.973633
vt 0.103516 0.250000
vt 0.093750 0.281250
vt 0.093750 0.250000
vt 0.526367 0.265625
vt 0.515625 0.296875
vt 0.515625 0.265625
vt 0.181641 0.250000
vt 0.171875 0.250000
vt 0.713867 0.484375
vt 0.525391 0.254883
vt 0.525391 0.265625
vt 0.531250 0.254883
vt 0.541016 0.265625
vt 0.541016 0.254883
vt 0.517578 0.948242
vt 0.484375 1.000000
vt 0.484375 0.948242
vt 0.299805 0.213867
vt 0.296875 0.265625
vt 0.296875 0.213867
vt 0.517578 0.729492
vt 0.484375 0.781250
vt 0.484375 0.729492
vt 0.390625 0.213867
vt 0.393555 0.265625
vt 0.390625 0.265625
vt 0.750000 0.968750
vt 0.783203 0.965820
vt 0.783203 0.968750
vt 0.046875 0.247070
vt 0.080078 0.250000
vt 0.080078 0.247070
vt 0.728516 0.609375
vt 0.718750 0.640625
vt 0.531250 0.265625
vt 0.541992 0.296875
vt 0.531250 0.296875
vt 0.728516 0.578125
vt 0.718750 0.578125
vt 0.573242 0.296875
vt 0.562500 0.296875
vt 0.609375 0.265625
vt 0.619141 0.254883
vt 0.619141 0.265625
vt 0.744141 0.379883
vt 0.734375 0.390625
vt 0.744141 0.390625
vt 0.406250 0.250000
vt 0.416016 0.281250
vt 0.406250 0.281250
vt 0.588867 0.265625
vt 0.578125 0.296875
vt 0.578125 0.265625
vt 0.431641 0.250000
vt 0.421875 0.281250
vt 0.421875 0.250000
vt 0.703125 0.390625
vt 0.713867 0.421875
vt 0.703125 0.421875
vt 0.734375 0.375000
vt 0.744141 0.364258
vt 0.744141 0.375000
vt 0.650391 0.254883
vt 0.640625 0.265625
vt 0.650391 0.265625
vt 0.442383 0.340820
vt 0.406250 0.340820
vt 0.187500 0.231445
vt 0.189453 0.250000
vt 0.187500 0.250000
vt 0.536133 0.340820
vt 0.500000 0.359375
vt 0.500000 0.340820
vt 0.203125 0.231445
vt 0.205078 0.250000
vt 0.203125 0.250000
vt 0.750000 0.875000
vt 0.786133 0.873047
vt 0.786133 0.875000
vt 0.176758 0.248047
vt 0.140625 0.250000
vt 0.176758 0.250000
vt 0.468750 0.250000
vt 0.478516 0.281250
vt 0.604492 0.265625
vt 0.593750 0.296875
vt 0.593750 0.265625
vt 0.728516 0.500000
vt 0.718750 0.531250
vt 0.718750 0.500000
vt 0.620117 0.296875
vt 0.609375 0.296875
vt 0.734375 0.359375
vt 0.744141 0.348633
vt 0.744141 0.359375
vt 0.656250 0.254883
vt 0.666016 0.265625
vt 0.666016 0.254883
vt 0.166016 0.554688
vt 0.125000 0.640625
vt 0.125000 0.554688
vt 0.706055 0.195312
vt 0.703125 0.281250
vt 0.703125 0.195312
vt 0.431641 0.914062
vt 0.390625 1.000000
vt 0.390625 0.914062
vt 0.721680 0.210938
vt 0.718750 0.296875
vt 0.718750 0.210938
vt 0.734375 0.421875
vt 0.775391 0.418945
vt 0.775391 0.421875
vt 0.734375 0.403320
vt 0.775391 0.406250
vt 0.775391 0.403320
vt 0.494141 0.250000
vt 0.484375 0.250000
vt 0.713867 0.343750
vt 0.703125 0.375000
vt 0.703125 0.343750
vt 0.509766 0.250000
vt 0.500000 0.281250
vt 0.500000 0.250000
vt 0.671875 0.265625
vt 0.682617 0.296875
vt 0.671875 0.296875
vt 0.681641 0.265625
vt 0.671875 0.254883
vt 0.681641 0.254883
vt 0.687500 0.254883
vt 0.697266 0.265625
vt 0.697266 0.254883
vt 0.728516 0.453125
vt 0.718750 0.484375
vt 0.718750 0.453125
vt 0.698242 0.265625
vt 0.687500 0.296875
vt 0.687500 0.265625
vt 0.556641 0.250000
vt 0.546875 0.250000
vt 0.713867 0.312500
vt 0.703125 0.312500
vt 0.744141 0.296875
vt 0.734375 0.286133
vt 0.744141 0.286133
vt 0.734375 0.270508
vt 0.744141 0.281250
vt 0.744141 0.270508
vt 0.015625 0.325195
vt 0.051758 0.343750
vt 0.015625 0.343750
vt 0.220703 0.231445
vt 0.218750 0.250000
vt 0.218750 0.231445
vt 0.098633 0.325195
vt 0.062500 0.343750
vt 0.062500 0.325195
vt 0.236328 0.231445
vt 0.234375 0.250000
vt 0.234375 0.231445
vt 0.786133 0.859375
vt 0.750000 0.857422
vt 0.786133 0.857422
vt 0.786133 0.841797
vt 0.750000 0.843750
vt 0.786133 0.843750
vt 0.718750 0.406250
vt 0.728516 0.437500
vt 0.010742 0.250000
vt 0.000000 0.250000
vt 0.728516 0.406250
vt 0.026367 0.250000
vt 0.015625 0.281250
vt 0.734375 0.265625
vt 0.744141 0.254883
vt 0.744141 0.265625
vt 0.000000 0.239258
vt 0.009766 0.250000
vt 0.009766 0.239258
vt 0.283203 0.463867
vt 0.250000 0.463867
vt 0.440430 0.213867
vt 0.437500 0.213867
vt 0.517578 0.666992
vt 0.484375 0.718750
vt 0.484375 0.666992
vt 0.453125 0.213867
vt 0.456055 0.265625
vt 0.126953 0.247070
vt 0.126953 0.250000
vt 0.750000 0.887695
vt 0.783203 0.890625
vt 0.783203 0.887695
vt 0.634766 0.281250
vt 0.041992 0.250000
vt 0.728516 0.375000
vt 0.057617 0.281250
vt 0.015625 0.239258
vt 0.375000 0.843750
vt 0.625000 0.776367
vt 0.437500 0.906250
vt 0.484375 0.937500
vt 0.286133 0.703125
vt 0.486328 0.562500
vt 0.333008 0.593750
vt 0.017578 0.515625
vt 0.109375 0.326172
vt 0.656250 0.859375
vt 0.317383 0.828125
vt 0.426758 0.703125
vt 0.614258 0.546875
vt 0.614258 0.515625
vt 0.468750 0.392578
vt 0.473633 1.000000
vt 0.132812 1.000000
vt 0.210938 0.703125
vt 0.273438 1.000000
vt 0.242188 0.703125
vt 0.375000 0.789062
vt 0.390625 0.906250
vt 0.648438 0.765625
vt 0.158203 0.276367
vt 0.648438 0.713867
vt 0.720703 0.838867
vt 0.625000 0.982422
vt 0.015625 0.357422
vt 0.648438 0.687500
vt 0.720703 0.807617
vt 0.648438 0.656250
vt 0.205078 0.296875
vt 0.625000 0.953125
vt 0.062500 0.375000
vt 0.328125 0.828125
vt 0.171875 0.421875
vt 0.171875 0.468750
vt 0.421875 0.421875
vt 0.364258 0.875000
vt 0.048828 0.406250
vt 0.379883 0.765625
vt 0.080078 0.406250
vt 0.656250 0.796875
vt 0.648438 0.625000
vt 0.720703 0.796875
vt 0.648438 0.593750
vt 0.251953 0.296875
vt 0.625000 0.904297
vt 0.109375 0.375000
vt 0.333008 0.515625
vt 0.536133 0.875000
vt 0.460938 0.370117
vt 0.720703 0.734375
vt 0.539062 0.390625
vt 0.392578 0.296875
vt 0.625000 0.873047
vt 0.536133 0.395508
vt 0.583008 0.395508
vt 0.671875 0.286133
vt 0.473633 0.781250
vt 0.125000 0.453125
vt 0.473633 0.626953
vt 0.390625 0.453125
vt 0.546875 0.328125
vt 0.429688 0.781250
vt 0.382812 0.609375
vt 0.531250 0.515625
vt 0.037109 0.593750
vt 0.546875 0.453125
vt 0.083984 0.515625
vt 0.287109 0.593750
vt 0.250000 0.531250
vt 0.562500 0.828125
vt 0.562500 0.687500
vt 0.773438 0.812500
vt 0.770508 0.718750
vt 0.242188 0.265625
vt 0.770508 0.703125
vt 0.515625 0.791992
vt 0.531250 1.000000
vt 0.767578 0.500000
vt 0.379883 0.260742
vt 0.767578 0.484375
vt 0.770508 0.640625
vt 0.500000 0.432617
vt 0.546875 0.875000
vt 0.595703 0.260742
vt 0.770508 0.557617
vt 0.767578 0.437500
vt 0.770508 0.546875
vt 0.281250 0.453125
vt 0.328125 0.453125
vt 0.289062 0.265625
vt 0.770508 0.531250
vt 0.773438 0.729492
vt 0.770508 0.515625
vt 0.531250 0.781250
vt 0.531250 0.734375
vt 0.767578 0.468750
vt 0.770508 0.625000
vt 0.767578 0.448242
vt 0.770508 0.609375
vt 0.234375 0.453125
vt 0.773438 0.796875
vt 0.770508 0.593750
vt 0.773438 0.781250
vt 0.770508 0.573242
vt 0.531250 0.885742
vt 0.576172 0.796875
vt 0.388672 0.375000
vt 0.578125 0.689453
vt 0.593750 0.843750
vt 0.390625 0.765625
vt 0.654297 0.703125
vt 0.466797 0.359375
vt 0.109375 0.251953
vt 0.734375 0.890625
vt 0.515625 0.812500
vt 0.138672 0.265625
vt 0.748047 0.875000
vt 0.140625 0.251953
vt 0.427734 0.656250
vt 0.625000 0.390625
vt 0.083984 0.640625
vt 0.531250 0.937500
vt 0.560547 0.687500
vt 0.229492 0.270508
vt 0.560547 0.598633
vt 0.698242 0.692383
vt 0.703125 0.442383
vt 0.718750 0.968750
vt 0.263672 0.375000
vt 0.531250 0.606445
vt 0.279297 0.325195
vt 0.687500 0.611328
vt 0.687500 0.609375
vt 0.276367 0.375000
vt 0.498047 0.656250
vt 0.307617 0.375000
vt 0.482422 0.312500
vt 0.703125 0.970703
vt 0.703125 0.703125
vt 0.338867 0.406250
vt 0.276367 0.296875
vt 0.370117 0.406250
vt 0.448242 0.296875
vt 0.640625 0.270508
vt 0.201172 0.406250
vt 0.216797 0.343750
vt 0.687500 0.580078
vt 0.484375 0.312500
vt 0.490234 0.406250
vt 0.166992 0.359375
vt 0.146484 0.375000
vt 0.245117 0.343750
vt 0.734375 0.953125
vt 0.734375 0.937500
vt 0.654297 0.859375
vt 0.724609 0.562500
vt 0.716797 0.953125
vt 0.656250 0.765625
vt 0.656250 0.712891
vt 0.583984 0.328125
vt 0.037109 0.312500
vt 0.625000 0.541016
vt 0.677734 0.671875
vt 0.365234 0.343750
vt 0.625000 0.509766
vt 0.695312 0.806641
vt 0.721680 0.931641
vt 0.398438 0.328125
vt 0.721680 0.921875
vt 0.312500 0.312500
vt 0.687500 0.687500
vt 0.685547 0.406250
vt 0.080078 0.281250
vt 0.654297 0.325195
vt 0.736328 0.747070
vt 0.671875 0.982422
vt 0.671875 0.953125
vt 0.716797 0.343750
vt 0.171875 0.251953
vt 0.701172 0.312500
vt 0.140625 0.312500
vt 0.419922 0.468750
vt 0.291992 0.312500
vt 0.560547 0.551758
vt 0.307617 0.312500
vt 0.343750 0.270508
vt 0.718750 0.656250
vt 0.294922 0.375000
vt 0.531250 0.531250
vt 0.310547 0.375000
vt 0.687500 0.423828
vt 0.495117 0.406250
vt 0.560547 0.312500
vt 0.620117 0.484375
vt 0.701172 0.390625
vt 0.406250 0.296875
vt 0.703125 0.578125
vt 0.620117 0.421875
vt 0.463867 0.296875
vt 0.713867 0.500000
vt 0.718750 0.317383
vt 0.718750 0.312500
vt 0.500000 0.625000
vt 0.232422 0.343750
vt 0.248047 0.406250
vt 0.593750 0.298828
vt 0.010742 0.281250
vt 0.182617 0.281250
vt 0.734375 0.911133
vt 0.734375 0.895508
vt 0.216797 0.312500
vt 0.505859 0.281250
vt 0.716797 0.765625
vt 0.724609 0.500000
vt 0.656250 0.681641
vt 0.312500 0.343750
vt 0.656250 0.478516
vt 0.068359 0.291016
vt 0.099609 0.291016
vt 0.625000 0.437500
vt 0.625000 0.406250
vt 0.093750 0.406250
vt 0.677734 0.612305
vt 0.625000 0.875000
vt 0.677734 0.609375
vt 0.625000 0.353516
vt 0.429688 0.306641
vt 0.127930 0.296875
vt 0.460938 0.328125
vt 0.721680 0.869141
vt 0.343750 0.293945
vt 0.687500 0.656250
vt 0.685547 0.375000
vt 0.330078 0.262695
vt 0.685547 0.325195
vt 0.736328 0.687500
vt 0.671875 0.904297
vt 0.671875 0.890625
vt 0.716797 0.314453
vt 0.750000 0.828125
vt 0.732422 0.986328
vt 0.250000 0.312500
vt 0.679688 0.437500
vt 0.609375 0.601562
vt 0.617188 0.343750
vt 0.562500 0.570312
vt 0.578125 1.000000
vt 0.578125 0.914062
vt 0.578125 0.906250
vt 0.103516 0.281250
vt 0.526367 0.296875
vt 0.181641 0.281250
vt 0.713867 0.453125
vt 0.515625 0.254883
vt 0.517578 1.000000
vt 0.299805 0.265625
vt 0.517578 0.781250
vt 0.393555 0.213867
vt 0.750000 0.965820
vt 0.728516 0.640625
vt 0.541992 0.265625
vt 0.573242 0.265625
vt 0.609375 0.254883
vt 0.734375 0.379883
vt 0.416016 0.250000
vt 0.588867 0.296875
vt 0.431641 0.281250
vt 0.713867 0.390625
vt 0.734375 0.364258
vt 0.640625 0.254883
vt 0.442383 0.359375
vt 0.189453 0.231445
vt 0.536133 0.359375
vt 0.205078 0.231445
vt 0.750000 0.873047
vt 0.140625 0.248047
vt 0.478516 0.250000
vt 0.604492 0.296875
vt 0.728516 0.531250
vt 0.620117 0.265625
vt 0.734375 0.348633
vt 0.656250 0.265625
vt 0.166016 0.640625
vt 0.706055 0.281250
vt 0.431641 1.000000
vt 0.721680 0.296875
vt 0.734375 0.418945
vt 0.734375 0.406250
vt 0.494141 0.281250
vt 0.713867 0.375000
vt 0.509766 0.281250
vt 0.682617 0.265625
vt 0.728516 0.484375
vt 0.698242 0.296875
vt 0.556641 0.281250
vt 0.713867 0.281250
vt 0.734375 0.296875
vt 0.734375 0.281250
vt 0.051758 0.325195
vt 0.220703 0.250000
vt 0.098633 0.343750
vt 0.236328 0.250000
vt 0.750000 0.841797
vt 0.026367 0.281250
vt 0.734375 0.254883
vt 0.283203 0.515625
vt 0.440430 0.265625
vt 0.517578 0.718750
vt 0.456055 0.213867
vt 0.093750 0.247070
s 1
usemtl m_dfc0fa55-3518-5ae6-d1fb-2fced7214833
f 7/1/1 2/2/1 4/3/1
f 3/4/2 2/5/2 1/6/2
f 3/7/3 6/8/3 8/9/3
f 8/10/4 5/11/4 7/12/4
f 1/13/5 5/14/5 6/15/5
f 4/16/6 8/17/6 7/18/6
f 15/19/7 10/20/7 12/21/7
f 12/22/2 9/23/2 11/24/2
f 11/25/8 14/26/8 16/19/8
f 16/27/4 13/28/4 15/29/4
f 9/30/9 13/31/9 14/32/9
f 12/33/10 16/31/10 15/34/10
f 23/35/11 18/21/11 20/36/11
f 20/37/2 17/38/2 19/39/2
f 19/40/12 22/41/12 24/35/12
f 23/42/4 22/43/4 21/44/4
f 17/45/13 21/46/13 22/47/13
f 20/48/14 24/49/15 23/50/15
f 31/51/16 26/25/16 28/52/16
f 28/53/17 25/54/17 27/55/17
f 32/56/18 25/57/18 30/58/18
f 32/59/19 29/60/19 31/61/19
f 25/62/20 29/63/20 30/64/20
f 28/65/21 32/66/21 31/67/21
f 36/68/22 37/69/22 34/70/22
f 36/71/17 33/72/17 35/73/17
f 35/74/23 38/75/23 40/76/23
f 39/71/19 38/77/19 37/78/19
f 33/79/24 37/80/24 38/81/24
f 39/82/25 35/83/25 40/84/25
f 47/85/26 42/86/26 44/87/26
f 44/88/27 41/89/27 43/90/27
f 43/91/28 46/92/28 48/93/28
f 48/94/29 45/95/29 47/96/29
f 41/97/30 45/98/30 46/82/30
f 44/99/31 48/100/31 47/101/31
f 55/102/32 50/56/32 52/103/32
f 51/104/27 50/105/27 49/106/27
f 51/107/33 54/108/33 56/109/33
f 55/110/29 54/111/29 53/112/29
f 49/113/34 53/114/34 54/98/34
f 52/115/35 56/114/35 55/116/35
f 63/117/7 58/118/7 60/20/7
f 60/119/2 57/120/2 59/121/2
f 59/122/8 62/123/8 64/124/8
f 64/125/4 61/126/4 63/127/4
f 57/33/9 61/128/9 62/129/9
f 60/130/10 64/131/10 63/132/10
f 71/133/22 66/134/22 68/135/22
f 67/136/17 66/137/17 65/138/17
f 72/139/23 65/140/23 70/141/23
f 71/142/19 70/143/19 69/144/19
f 65/145/24 69/146/24 70/147/24
f 71/148/25 67/149/25 72/150/25
f 79/151/22 74/152/22 76/153/22
f 75/154/17 74/155/17 73/156/17
f 75/157/23 78/158/23 80/159/23
f 80/160/19 77/161/19 79/162/19
f 78/163/24 74/164/24 77/165/24
f 76/166/25 80/167/25 79/168/25
f 87/169/7 82/170/7 84/171/7
f 84/170/2 81/172/2 83/173/2
f 83/174/8 86/175/8 88/176/8
f 88/171/4 85/173/4 87/25/4
f 81/177/9 85/178/9 86/179/9
f 84/38/10 88/180/10 87/181/10
f 95/182/7 90/183/7 92/184/7
f 92/185/2 89/186/2 91/187/2
f 91/188/8 94/189/8 96/182/8
f 96/24/4 93/187/4 95/70/4
f 89/190/9 93/191/9 94/192/9
f 92/191/10 96/106/10 95/193/10
f 103/194/36 98/195/36 100/170/36
f 99/196/37 98/197/37 97/198/37
f 99/199/38 102/200/38 104/201/38
f 103/202/39 102/203/39 101/204/39
f 102/205/40 98/206/40 101/207/40
f 100/208/41 104/209/41 103/210/41
f 111/211/42 106/212/42 108/213/42
f 108/214/37 105/215/37 107/216/37
f 107/217/43 110/218/43 112/219/43
f 112/220/39 109/221/39 111/222/39
f 105/223/44 109/224/44 110/225/44
f 108/226/45 112/227/45 111/228/45
f 119/229/42 114/230/42 116/231/42
f 116/232/37 113/77/37 115/233/37
f 115/234/43 118/32/43 120/235/43
f 120/236/39 117/237/39 119/232/39
f 118/116/44 114/238/44 117/239/44
f 116/240/45 120/239/45 119/241/45
f 124/242/42 125/243/42 122/244/42
f 124/245/37 121/246/37 123/247/37
f 123/248/43 126/249/43 128/250/43
f 128/251/39 125/252/39 127/253/39
f 121/254/44 125/255/44 126/256/44
f 124/257/45 128/258/45 127/259/45
f 132/260/46 133/261/46 130/262/46
f 131/88/47 130/263/47 129/264/47
f 136/265/48 129/266/48 134/267/48
f 135/268/49 134/269/49 133/263/49
f 134/241/50 130/270/50 133/271/50
f 132/272/51 136/271/51 135/273/51
f 143/274/52 138/275/52 140/276/52
f 140/277/47 137/111/47 139/278/47
f 144/279/53 137/280/53 142/281/53
f 144/282/49 141/283/49 143/284/49
f 137/73/54 141/285/54 142/286/54
f 143/287/55 139/272/55 144/273/55
f 151/288/56 146/289/56 148/75/56
f 148/290/2 145/291/2 147/292/2
f 147/293/57 150/294/57 152/295/57
f 152/296/4 149/297/4 151/298/4
f 145/299/58 149/300/58 150/301/58
f 148/302/59 152/300/59 151/303/59
f 159/304/60 154/305/60 156/306/60
f 155/296/61 154/307/61 153/308/61
f 155/309/62 158/310/62 160/60/62
f 159/192/63 158/290/63 157/292/63
f 153/311/64 157/312/64 158/313/58
f 156/267/65 160/312/65 159/314/65
f 164/315/66 165/316/66 162/317/66
f 164/318/67 161/121/67 163/319/67
f 163/320/68 166/52/68 168/321/68
f 168/322/69 165/127/69 167/318/69
f 166/323/64 162/324/64 165/325/64
f 164/326/65 168/327/65 167/328/65
f 175/329/70 170/330/70 172/331/70
f 172/332/2 169/333/2 171/334/2
f 171/335/71 174/336/71 176/337/71
f 176/338/4 173/339/4 175/340/4
f 169/341/58 173/342/58 174/343/58
f 172/344/59 176/345/59 175/346/59
f 183/347/72 178/348/72 180/349/72
f 179/350/2 178/351/2 177/352/2
f 179/353/73 182/354/73 184/355/73
f 184/356/4 181/357/4 183/358/4
f 177/359/74 181/360/74 182/361/74
f 180/362/75 184/363/75 183/364/75
f 188/365/76 189/366/76 186/367/76
f 187/368/77 186/369/78 185/370/77
f 187/371/79 190/372/80 192/373/80
f 192/374/81 189/375/82 191/376/82
f 190/377/83 186/378/83 189/379/83
f 188/380/84 192/381/84 191/382/84
f 199/383/85 194/384/86 196/385/86
f 196/386/87 193/387/87 195/388/87
f 200/389/88 193/390/88 198/391/88
f 200/392/89 197/393/89 199/394/89
f 198/395/90 194/396/90 197/397/90
f 196/398/91 200/399/91 199/400/91
f 207/401/92 202/402/92 204/403/92
f 204/404/93 201/405/94 203/406/94
f 208/407/95 201/408/95 206/409/95
f 208/410/96 205/411/96 207/412/96
f 206/413/97 202/414/97 205/415/97
f 204/416/98 208/417/98 207/418/98
f 215/419/99 210/420/99 212/421/99
f 212/422/94 209/423/94 211/424/94
f 211/425/100 214/426/100 216/427/100
f 215/428/101 214/429/96 213/430/101
f 209/47/102 213/431/102 214/432/102
f 212/433/103 216/434/103 215/435/103
f 223/436/7 218/437/7 220/438/7
f 220/439/2 217/324/2 219/440/2
f 219/441/8 222/442/8 224/443/8
f 224/444/4 221/445/4 223/446/4
f 217/447/9 221/448/9 222/449/9
f 220/450/10 224/451/10 223/452/10
f 228/453/7 229/289/7 226/454/7
f 228/455/104 225/449/104 227/456/104
f 227/307/8 230/457/8 232/458/8
f 232/459/105 229/460/105 231/461/105
f 225/462/106 229/463/106 230/464/106
f 228/465/107 232/466/107 231/467/107
f 236/34/7 237/341/7 234/235/7
f 236/468/104 233/464/104 235/469/104
f 235/470/8 238/302/8 240/471/8
f 240/472/105 237/473/105 239/474/105
f 233/475/106 237/476/106 238/477/106
f 236/478/107 240/479/107 239/480/107
f 247/481/7 242/201/7 244/294/7
f 244/482/2 241/483/2 243/236/2
f 243/316/8 246/484/8 248/310/8
f 248/485/4 245/486/4 247/487/4
f 241/488/9 245/489/9 246/490/9
f 244/491/10 248/492/10 247/493/10
f 255/494/108 250/495/108 252/496/108
f 251/497/109 250/498/109 249/499/109
f 256/500/110 249/501/110 254/502/110
f 255/503/111 254/504/111 253/505/111
f 249/506/112 253/507/112 254/508/112
f 252/509/113 256/510/113 255/511/113
f 263/512/114 258/29/114 260/513/114
f 260/514/115 257/515/115 259/516/115
f 264/517/116 257/518/116 262/519/116
f 263/520/117 262/521/117 261/522/117
f 257/523/118 261/524/118 262/525/118
f 260/526/119 264/527/119 263/528/119
f 268/515/120 269/529/120 266/530/120
f 268/531/121 265/532/121 267/533/121
f 272/534/122 265/535/122 270/536/122
f 272/537/123 269/538/123 271/539/123
f 265/540/118 269/541/118 270/542/118
f 268/543/119 272/544/119 271/545/119
f 279/546/124 274/547/124 276/548/124
f 276/549/125 273/550/126 275/551/127
f 275/552/128 278/553/128 280/554/128
f 280/555/129 277/556/130 279/557/129
f 273/558/112 277/559/112 278/560/112
f 276/561/113 280/562/113 279/563/113
f 287/564/131 282/295/131 284/565/131
f 284/566/132 281/567/132 283/568/132
f 288/564/133 281/569/133 286/570/133
f 287/571/134 286/572/134 285/573/134
f 281/574/135 285/575/135 286/576/135
f 284/577/136 288/578/136 287/579/136
f 292/580/137 293/581/137 290/55/137
f 292/582/138 289/176/138 291/583/138
f 296/584/139 289/585/139 294/586/139
f 296/587/140 293/588/140 295/221/140
f 294/589/112 290/590/112 293/591/112
f 292/592/113 296/593/113 295/594/113
f 303/595/120 298/596/120 300/597/120
f 300/598/121 297/599/121 299/600/121
f 304/601/122 297/602/122 302/603/122
f 304/604/123 301/600/123 303/605/123
f 302/606/118 298/607/118 301/608/118
f 303/609/119 299/610/119 304/611/119
f 311/612/114 306/613/114 308/614/114
f 308/615/115 305/616/115 307/617/115
f 307/618/141 310/548/141 312/619/116
f 312/620/117 309/621/117 311/622/117
f 305/554/118 309/623/118 310/445/118
f 311/624/119 307/625/119 312/97/119
f 316/626/131 317/196/131 314/61/131
f 316/627/132 313/628/132 315/629/132
f 315/630/133 318/196/133 320/631/133
f 320/632/134 317/633/134 319/634/134
f 318/635/135 314/636/135 317/637/135
f 319/638/136 315/639/136 320/640/136
f 324/641/137 325/642/137 322/643/137
f 323/644/138 322/645/138 321/646/138
f 323/647/139 326/648/139 328/649/139
f 328/650/140 325/651/140 327/652/140
f 326/653/112 322/654/112 325/655/112
f 324/656/113 328/657/113 327/658/113
f 335/659/108 330/660/142 332/661/142
f 332/662/109 329/663/109 331/664/109
f 336/665/143 329/666/110 334/482/143
f 335/667/111 334/668/111 333/669/111
f 329/670/112 333/671/112 334/672/112
f 332/673/113 336/674/113 335/675/113
f 343/676/124 338/677/124 340/678/124
f 339/476/125 338/679/125 337/477/126
f 339/680/128 342/269/128 344/681/128
f 344/682/130 341/683/130 343/684/130
f 337/685/112 341/686/112 342/687/112
f 340/138/113 344/688/113 343/689/113
f 351/690/144 346/691/114 348/692/144
f 348/693/145 345/694/145 347/695/145
f 352/696/141 345/697/141 350/698/141
f 352/699/146 349/700/146 351/701/146
f 345/702/147 349/703/147 350/704/147
f 348/705/148 352/706/148 351/707/148
f 359/708/108 354/709/108 356/710/142
f 356/711/149 353/534/149 355/712/149
f 355/713/110 358/714/110 360/715/110
f 360/716/150 357/717/150 359/718/150
f 353/578/151 357/719/151 358/720/151
f 359/721/152 355/722/152 360/723/152
f 367/724/153 362/580/153 364/725/153
f 364/726/154 361/720/154 363/727/154
f 363/728/155 366/729/155 368/730/155
f 367/731/156 366/732/156 365/733/156
f 366/734/151 362/735/151 365/736/151
f 364/737/152 368/738/152 367/739/152
f 372/740/157 373/728/157 370/730/157
f 372/741/158 369/742/158 371/743/159
f 371/744/160 374/740/160 376/237/160
f 375/745/161 374/746/162 373/605/162
f 369/747/147 373/748/147 374/749/147
f 372/750/148 376/751/148 375/752/148
f 383/753/163 378/754/163 380/54/163
f 379/755/164 378/756/164 377/757/164
f 384/758/165 377/759/165 382/569/165
f 384/760/166 381/761/166 383/588/166
f 377/762/167 381/763/167 382/89/167
f 380/764/168 384/765/168 383/766/168
f 391/767/169 386/768/169 388/769/169
f 387/770/170 386/771/170 385/487/170
f 387/772/171 390/769/171 392/447/171
f 391/773/172 390/774/172 389/775/172
f 385/776/147 389/777/147 390/778/147
f 391/779/148 387/780/148 392/781/148
f 399/782/153 394/783/153 396/161/153
f 395/784/154 394/785/154 393/786/154
f 395/787/155 398/788/155 400/789/155
f 400/790/156 397/745/156 399/791/156
f 393/792/151 397/793/151 398/794/151
f 396/795/152 400/796/152 399/797/152
f 404/798/142 405/238/142 402/799/142
f 403/800/149 402/801/149 401/802/149
f 403/803/143 406/804/143 408/805/110
f 407/806/150 406/807/150 405/808/150
f 406/809/151 402/810/151 405/811/151
f 404/812/152 408/660/152 407/813/152
f 415/814/163 410/202/163 412/630/163
f 411/815/164 410/816/164 409/817/164
f 411/818/165 414/819/165 416/820/165
f 416/821/166 413/822/166 415/823/166
f 409/824/167 413/825/167 414/826/167
f 412/827/168 416/182/168 415/828/168
f 420/829/169 421/830/169 418/831/169
f 420/832/170 417/833/170 419/834/170
f 419/835/171 422/836/171 424/837/171
f 423/838/172 422/839/172 421/840/172
f 417/841/147 421/842/147 422/843/147
f 420/844/148 424/845/148 423/846/148
f 431/847/114 426/826/144 428/848/144
f 427/849/145 426/850/145 425/851/145
f 432/852/141 425/853/141 430/854/141
f 432/855/146 429/856/146 431/857/146
f 425/858/147 429/859/147 430/860/147
f 428/861/148 432/862/148 431/863/148
f 436/864/157 437/865/157 434/866/157
f 436/867/173 433/868/173 435/869/173
f 440/870/160 433/871/160 438/872/160
f 440/873/161 437/874/161 439/875/162
f 438/876/147 434/877/147 437/878/147
f 439/879/148 435/789/148 440/787/148
f 447/880/174 442/326/174 444/881/174
f 444/882/175 441/809/175 443/883/175
f 448/884/176 441/212/176 446/885/176
f 448/886/177 445/232/177 447/887/177
f 441/888/178 445/889/178 446/218/178
f 444/890/179 448/145/179 447/891/179
f 452/892/174 453/893/174 450/894/174
f 451/895/175 450/896/175 449/897/175
f 456/898/176 449/616/180 454/893/176
f 455/899/177 454/900/177 453/901/177
f 449/49/178 453/902/178 454/903/178
f 452/904/179 456/905/179 455/906/179
f 463/880/181 458/326/181 460/881/181
f 460/882/175 457/809/175 459/883/175
f 464/884/182 457/212/182 462/885/182
f 464/886/177 461/232/177 463/887/177
f 457/888/183 461/889/183 462/218/183
f 460/890/184 464/145/184 463/891/184
f 471/898/181 466/894/181 468/892/181
f 468/907/175 465/897/175 467/895/175
f 467/908/182 470/893/182 472/898/182
f 472/909/177 469/901/177 471/899/177
f 465/49/183 469/902/183 470/903/183
f 468/904/184 472/905/184 471/906/184
f 479/910/185 474/911/185 476/912/185
f 476/913/2 473/914/2 475/915/2
f 475/916/186 478/773/186 480/917/186
f 479/506/4 478/918/4 477/791/4
f 473/915/187 477/919/187 478/920/187
f 476/921/188 480/922/188 479/923/188
f 487/924/189 482/925/189 484/926/189
f 484/927/2 481/928/2 483/929/2
f 483/930/190 486/931/190 488/932/190
f 487/933/4 486/934/4 485/935/4
f 481/936/191 485/937/191 486/938/191
f 484/939/192 488/940/192 487/941/192
f 495/942/193 490/943/193 492/527/193
f 491/944/194 490/945/194 489/946/194
f 491/947/195 494/527/195 496/948/195
f 495/367/196 494/949/196 493/950/196
f 489/951/197 493/952/197 494/953/197
f 495/954/198 491/955/198 496/956/198
f 500/957/193 501/958/193 498/959/193
f 500/960/199 497/961/199 499/962/199
f 499/963/195 502/964/195 504/965/195
f 503/966/200 502/967/200 501/968/200
f 497/969/201 501/970/201 502/971/201
f 503/972/202 499/973/202 504/974/202
f 511/975/189 506/182/189 508/976/189
f 507/977/203 506/978/204 505/979/204
f 507/980/190 510/981/190 512/982/190
f 511/983/205 510/984/205 509/985/205
f 505/986/206 509/987/207 510/988/207
f 511/989/208 507/990/208 512/991/208
f 516/992/193 517/993/193 514/539/193
f 516/994/209 513/995/209 515/996/209
f 515/997/195 518/998/195 520/999/195
f 519/951/210 518/1000/210 517/1001/210
f 513/1002/211 517/1003/211 518/1004/211
f 516/1005/212 520/1006/212 519/1007/212
f 527/1008/189 522/1009/189 524/1010/189
f 524/1011/2 521/1012/2 523/1013/2
f 523/1014/190 526/1015/190 528/1016/190
f 528/1017/4 525/1018/4 527/1019/4
f 521/1020/191 525/1021/191 526/1022/191
f 524/1023/192 528/1024/192 527/1025/192
f 535/1026/193 530/784/193 532/1027/193
f 532/1028/198 529/1029/198 531/1030/198
f 531/1031/195 534/1032/195 536/1033/195
f 535/1034/197 534/1035/197 533/1036/197
f 534/1037/194 530/1038/194 533/1039/194
f 532/1040/213 536/1041/213 535/1042/213
f 543/1043/193 538/1044/193 540/1045/193
f 540/1046/202 537/1047/202 539/1048/202
f 539/1049/195 542/727/195 544/1050/195
f 543/1012/201 542/1051/201 541/1052/201
f 542/1053/199 538/1054/199 541/1055/199
f 540/1056/200 544/1057/200 543/1058/200
f 548/1059/189 549/1060/189 546/1061/189
f 548/1062/207 545/1063/207 547/1064/207
f 547/1065/190 550/1066/190 552/1067/190
f 552/1068/208 549/1069/214 551/1070/208
f 550/1071/215 546/1072/205 549/1073/215
f 551/1074/203 547/1075/203 552/1076/203
f 556/1077/193 557/1078/193 554/723/193
f 556/1079/216 553/770/216 555/1080/216
f 560/8/195 553/1081/195 558/1077/195
f 560/1082/211 557/1083/211 559/13/211
f 553/1084/209 557/1085/209 558/1086/209
f 556/1087/210 560/1088/210 559/1089/210
f 567/1090/189 562/321/189 564/1091/189
f 564/1092/2 561/557/2 563/1093/2
f 563/1094/190 566/1095/190 568/1096/190
f 567/1097/4 566/1098/4 565/743/4
f 561/912/191 565/1099/191 566/1100/191
f 564/1101/192 568/1102/192 567/1103/192
f 7/1/1 5/1104/1 2/2/1
f 3/4/2 4/1105/2 2/5/2
f 3/7/3 1/1106/3 6/8/3
f 8/10/4 6/1107/4 5/11/4
f 1/13/5 2/1108/5 5/14/5
f 4/16/6 3/4/6 8/17/6
f 15/19/7 13/26/7 10/20/7
f 12/22/2 10/1015/2 9/23/2
f 11/25/8 9/172/8 14/26/8
f 16/27/4 14/1009/4 13/28/4
f 9/30/9 10/1109/9 13/31/9
f 12/33/10 11/1109/10 16/31/10
f 23/35/11 21/41/11 18/21/11
f 20/37/2 18/181/2 17/38/2
f 19/40/12 17/120/12 22/41/12
f 23/42/4 24/1110/4 22/43/4
f 17/45/13 18/1111/13 21/46/13
f 20/48/14 19/1112/14 24/49/15
f 31/51/16 29/1113/16 26/25/16
f 28/53/17 26/1114/17 25/54/17
f 32/56/18 27/1115/18 25/57/18
f 32/59/19 30/1116/19 29/60/19
f 25/62/20 26/1117/20 29/63/20
f 28/65/21 27/1118/21 32/66/21
f 36/68/22 39/1119/22 37/69/22
f 36/71/17 34/78/17 33/72/17
f 35/74/23 33/1120/23 38/75/23
f 39/71/19 40/233/19 38/77/19
f 33/79/24 34/441/24 37/80/24
f 39/82/25 36/97/25 35/83/25
f 47/85/26 45/1121/26 42/86/26
f 44/88/27 42/264/27 41/89/27
f 43/91/28 41/1122/28 46/92/28
f 48/94/29 46/1029/29 45/95/29
f 41/97/30 42/113/30 45/98/30
f 44/99/31 43/461/31 48/100/31
f 55/102/32 53/1115/32 50/56/32
f 51/104/27 52/1123/27 50/105/27
f 51/107/33 49/1124/33 54/108/33
f 55/110/29 56/278/29 54/111/29
f 49/113/34 50/640/34 53/114/34
f 52/115/35 51/640/35 56/114/35
f 63/117/7 61/1125/7 58/118/7
f 60/119/2 58/1126/2 57/120/2
f 59/122/8 57/1127/8 62/123/8
f 64/125/4 62/1128/4 61/126/4
f 57/33/9 58/1129/9 61/128/9
f 60/130/10 59/1130/10 64/131/10
f 71/133/22 69/1131/22 66/134/22
f 67/136/17 68/1132/17 66/137/17
f 72/139/23 67/1133/23 65/140/23
f 71/142/19 72/1134/19 70/143/19
f 65/145/24 66/1135/24 69/146/24
f 71/148/25 68/1136/25 67/149/25
f 79/151/22 77/1137/22 74/152/22
f 75/154/17 76/1138/17 74/155/17
f 75/157/23 73/1139/23 78/158/23
f 80/160/19 78/1140/19 77/161/19
f 78/163/24 73/1141/24 74/164/24
f 76/166/25 75/1142/25 80/167/25
f 87/169/7 85/200/7 82/170/7
f 84/170/2 82/1143/2 81/172/2
f 83/174/8 81/1144/8 86/175/8
f 88/171/4 86/170/4 85/173/4
f 81/177/9 82/457/9 85/178/9
f 84/38/10 83/1145/10 88/180/10
f 95/182/7 93/189/7 90/183/7
f 92/185/2 90/23/2 89/186/2
f 91/188/8 89/1146/8 94/189/8
f 96/24/4 94/185/4 93/187/4
f 89/190/9 90/244/9 93/191/9
f 92/191/10 91/192/10 96/106/10
f 103/194/36 101/1147/36 98/195/36
f 99/196/37 100/1148/37 98/197/37
f 99/199/38 97/1149/38 102/200/38
f 103/202/39 104/1150/39 102/203/39
f 102/205/40 97/568/40 98/206/40
f 100/208/41 99/1151/41 104/209/41
f 111/211/42 109/1152/42 106/212/42
f 108/214/37 106/1153/37 105/215/37
f 107/217/43 105/1154/43 110/218/43
f 112/220/39 110/1155/39 109/221/39
f 105/223/44 106/1156/44 109/224/44
f 108/226/45 107/1157/45 112/227/45
f 119/229/42 117/1158/42 114/230/42
f 116/232/37 114/237/37 113/77/37
f 115/234/43 113/1159/43 118/32/43
f 120/236/39 118/483/39 117/237/39
f 118/116/44 113/115/44 114/238/44
f 116/240/45 115/238/45 120/239/45
f 124/242/42 127/1160/42 125/243/42
f 124/245/37 122/1161/37 121/246/37
f 123/248/43 121/1162/43 126/249/43
f 128/251/39 126/1163/39 125/252/39
f 121/254/44 122/1164/44 125/255/44
f 124/257/45 123/43/45 128/258/45
f 132/260/46 135/1165/46 133/261/46
f 131/88/47 132/268/47 130/263/47
f 136/265/48 131/1166/48 129/266/48
f 135/268/49 136/1167/49 134/269/49
f 134/241/50 129/240/50 130/270/50
f 132/272/51 131/270/51 136/271/51
f 143/274/52 141/1168/52 138/275/52
f 140/277/47 138/1169/47 137/111/47
f 144/279/53 139/1170/53 137/280/53
f 144/282/49 142/1171/49 141/283/49
f 137/73/54 138/1172/54 141/285/54
f 143/287/55 140/809/55 139/272/55
f 151/288/56 149/1173/56 146/289/56
f 148/290/2 146/754/2 145/291/2
f 147/293/57 145/1174/57 150/294/57
f 152/296/4 150/308/4 149/297/4
f 145/299/58 146/1175/58 149/300/58
f 148/302/59 147/1175/59 152/300/59
f 159/304/60 157/481/60 154/305/60
f 155/296/61 156/180/61 154/307/61
f 155/309/62 153/1176/62 158/310/62
f 159/192/63 160/105/63 158/290/63
f 153/311/64 154/1177/64 157/312/64
f 156/267/65 155/1177/65 160/312/65
f 164/315/66 167/1178/66 165/316/66
f 164/318/67 162/127/67 161/121/67
f 163/320/68 161/1179/68 166/52/68
f 168/322/69 166/1180/69 165/127/69
f 166/323/64 161/1181/58 162/324/64
f 164/326/65 163/1182/65 168/327/65
f 175/329/70 173/1183/70 170/330/70
f 172/332/2 170/1184/2 169/333/2
f 171/335/71 169/1185/71 174/336/71
f 176/338/4 174/1186/4 173/339/4
f 169/341/58 170/1187/58 173/342/58
f 172/344/59 171/1188/59 176/345/59
f 183/347/72 181/1189/72 178/348/72
f 179/350/2 180/1190/2 178/351/2
f 179/353/73 177/1191/73 182/354/73
f 184/356/4 182/1192/4 181/357/4
f 177/359/74 178/1193/74 181/360/74
f 180/362/75 179/1194/75 184/363/75
f 188/365/76 191/1195/76 189/366/76
f 187/368/77 188/1196/78 186/369/78
f 187/371/79 185/1197/79 190/372/80
f 192/374/81 190/1198/81 189/375/82
f 190/377/83 185/1199/83 186/378/83
f 188/380/84 187/1200/84 192/381/84
f 199/383/85 197/1201/85 194/384/86
f 196/386/87 194/1202/87 193/387/87
f 200/389/88 195/1203/88 193/390/88
f 200/392/89 198/1204/89 197/393/89
f 198/395/90 193/1205/90 194/396/90
f 196/398/91 195/1206/91 200/399/91
f 207/401/92 205/1207/92 202/402/92
f 204/404/93 202/1208/93 201/405/94
f 208/407/95 203/1209/95 201/408/95
f 208/410/96 206/1210/96 205/411/96
f 206/413/97 201/319/97 202/414/97
f 204/416/98 203/1211/98 208/417/98
f 215/419/99 213/1212/99 210/420/99
f 212/422/94 210/1213/94 209/423/94
f 211/425/100 209/1214/100 214/426/100
f 215/428/101 216/1215/96 214/429/96
f 209/47/102 210/1216/102 213/431/102
f 212/433/103 211/298/103 216/434/103
f 223/436/7 221/625/7 218/437/7
f 220/439/2 218/1217/2 217/324/2
f 219/441/8 217/79/8 222/442/8
f 224/444/4 222/1218/4 221/445/4
f 217/447/9 218/1219/9 221/448/9
f 220/450/10 219/1220/10 224/451/10
f 228/453/7 231/1221/7 229/289/7
f 228/455/104 226/1222/104 225/449/104
f 227/307/8 225/178/8 230/457/8
f 232/459/105 230/1223/105 229/460/105
f 225/462/106 226/1224/106 229/463/106
f 228/465/107 227/1225/107 232/466/107
f 236/34/7 239/1226/7 237/341/7
f 236/468/104 234/1227/104 233/464/104
f 235/470/8 233/311/8 238/302/8
f 240/472/105 238/1228/105 237/473/105
f 233/475/106 234/1229/106 237/476/106
f 236/478/107 235/474/107 240/479/107
f 247/481/7 245/1230/7 242/201/7
f 244/482/2 242/1231/2 241/483/2
f 243/316/8 241/1232/8 246/484/8
f 248/485/4 246/149/4 245/486/4
f 241/488/9 242/1233/9 245/489/9
f 244/491/10 243/231/10 248/492/10
f 255/494/108 253/1234/108 250/495/108
f 251/497/109 252/1235/109 250/498/109
f 256/500/110 251/1236/110 249/501/110
f 255/503/111 256/1237/111 254/504/111
f 249/506/112 250/1238/112 253/507/112
f 252/509/113 251/1239/113 256/510/113
f 263/512/114 261/27/144 258/29/114
f 260/514/115 258/1240/115 257/515/115
f 264/517/116 259/1241/116 257/518/116
f 263/520/117 264/1242/117 262/521/117
f 257/523/118 258/1243/118 261/524/118
f 260/526/119 259/1244/119 264/527/119
f 268/515/120 271/1245/120 269/529/120
f 268/531/121 266/1246/121 265/532/121
f 272/534/122 267/1247/122 265/535/122
f 272/537/123 270/1248/123 269/538/123
f 265/540/118 266/1249/118 269/541/118
f 268/543/119 267/1250/119 272/544/119
f 279/546/124 277/1251/124 274/547/124
f 276/549/125 274/1252/126 273/550/126
f 275/552/128 273/1253/128 278/553/128
f 280/555/129 278/1254/130 277/556/130
f 273/558/112 274/1255/112 277/559/112
f 276/561/113 275/9/113 280/562/113
f 287/564/131 285/570/131 282/295/131
f 284/566/132 282/1256/132 281/567/132
f 288/564/133 283/758/133 281/569/133
f 287/571/134 288/1257/134 286/572/134
f 281/574/135 282/1258/135 285/575/135
f 284/577/136 283/1259/136 288/578/136
f 292/580/137 295/1260/137 293/581/137
f 292/582/138 290/1261/138 289/176/138
f 296/584/139 291/1262/139 289/585/139
f 296/587/140 294/1263/140 293/588/140
f 294/589/112 289/1264/112 290/590/112
f 292/592/113 291/1265/113 296/593/113
f 303/595/120 301/1266/120 298/596/120
f 300/598/121 298/1267/121 297/599/121
f 304/601/122 299/1268/122 297/602/122
f 304/604/123 302/598/123 301/600/123
f 302/606/118 297/1269/118 298/607/118
f 303/609/119 300/1270/119 299/610/119
f 311/612/114 309/1151/114 306/613/114
f 308/615/115 306/1271/115 305/616/115
f 307/618/141 305/554/141 310/548/141
f 312/620/117 310/1272/117 309/621/117
f 305/554/118 306/618/118 309/623/118
f 311/624/119 308/1273/119 307/625/119
f 316/626/131 319/631/131 317/196/131
f 316/627/132 314/1274/132 313/628/132
f 315/630/133 313/202/133 318/196/133
f 320/632/134 318/1275/134 317/633/134
f 318/635/135 313/725/135 314/636/135
f 319/638/136 316/1276/136 315/639/136
f 324/641/137 327/1277/137 325/642/137
f 323/644/138 324/1278/138 322/645/138
f 323/647/139 321/1279/139 326/648/139
f 328/650/140 326/1280/140 325/651/140
f 326/653/112 321/1281/112 322/654/112
f 324/656/113 323/1282/113 328/657/113
f 335/659/108 333/1283/108 330/660/142
f 332/662/109 330/1284/109 329/663/109
f 336/665/143 331/1285/110 329/666/110
f 335/667/111 336/1286/111 334/668/111
f 329/670/112 330/1287/112 333/671/112
f 332/673/113 331/1288/113 336/674/113
f 343/676/124 341/1289/124 338/677/124
f 339/476/125 340/1290/125 338/679/125
f 339/680/128 337/1291/128 342/269/128
f 344/682/130 342/1075/130 341/683/130
f 337/685/112 338/833/112 341/686/112
f 340/138/113 339/1292/113 344/688/113
f 351/690/144 349/1293/114 346/691/114
f 348/693/145 346/1294/145 345/694/145
f 352/696/141 347/1295/141 345/697/141
f 352/699/146 350/1296/146 349/700/146
f 345/702/147 346/1297/147 349/703/147
f 348/705/148 347/1298/148 352/706/148
f 359/708/108 357/698/108 354/709/108
f 356/711/149 354/1299/149 353/534/149
f 355/713/110 353/1300/110 358/714/110
f 360/716/150 358/1301/150 357/717/150
f 353/578/151 354/579/151 357/719/151
f 359/721/152 356/1302/152 355/722/152
f 367/724/153 365/1303/153 362/580/153
f 364/726/154 362/1304/154 361/720/154
f 363/728/155 361/1305/155 366/729/155
f 367/731/156 368/1306/156 366/732/156
f 366/734/151 361/1307/151 362/735/151
f 364/737/152 363/1308/152 368/738/152
f 372/740/157 375/1309/157 373/728/157
f 372/741/158 370/1310/158 369/742/158
f 371/744/160 369/1309/160 374/740/160
f 375/745/161 376/1311/161 374/746/162
f 369/747/147 370/1312/147 373/748/147
f 372/750/148 371/1313/148 376/751/148
f 383/753/163 381/1314/163 378/754/163
f 379/755/164 380/1315/164 378/756/164
f 384/758/165 379/192/165 377/759/165
f 384/760/166 382/1316/166 381/761/166
f 377/762/167 378/1317/167 381/763/167
f 380/764/168 379/731/168 384/765/168
f 391/767/169 389/325/169 386/768/169
f 387/770/170 388/1318/170 386/771/170
f 387/772/171 385/767/171 390/769/171
f 391/773/172 392/1319/172 390/774/172
f 385/776/147 386/1320/147 389/777/147
f 391/779/148 388/1321/148 387/780/148
f 399/782/153 397/1322/153 394/783/153
f 395/784/154 396/1323/154 394/785/154
f 395/787/155 393/1324/155 398/788/155
f 400/790/156 398/1325/156 397/745/156
f 393/792/151 394/1326/151 397/793/151
f 396/795/152 395/1327/152 400/796/152
f 404/798/142 407/1328/142 405/238/142
f 403/800/149 404/1329/149 402/801/149
f 403/803/143 401/270/143 406/804/143
f 407/806/150 408/1330/150 406/807/150
f 406/809/151 401/1331/151 402/810/151
f 404/812/152 403/1332/152 408/660/152
f 415/814/163 413/1333/163 410/202/163
f 411/815/164 412/1334/164 410/816/164
f 411/818/165 409/1335/165 414/819/165
f 416/821/166 414/1336/166 413/822/166
f 409/824/167 410/1337/167 413/825/167
f 412/827/168 411/446/168 416/182/168
f 420/829/169 423/1338/169 421/830/169
f 420/832/170 418/1339/170 417/833/170
f 419/835/171 417/1340/171 422/836/171
f 423/838/172 424/1341/172 422/839/172
f 417/841/147 418/1342/147 421/842/147
f 420/844/148 419/1343/148 424/845/148
f 431/847/114 429/1344/114 426/826/144
f 427/849/145 428/1345/145 426/850/145
f 432/852/141 427/1346/141 425/853/141
f 432/855/146 430/1347/146 429/856/146
f 425/858/147 426/1348/147 429/859/147
f 428/861/148 427/1349/148 432/862/148
f 436/864/157 439/1350/157 437/865/157
f 436/867/173 434/1351/173 433/868/173
f 440/870/160 435/1352/160 433/871/160
f 440/873/161 438/336/161 437/874/161
f 438/876/147 433/1353/147 434/877/147
f 439/879/148 436/505/148 435/789/148
f 447/880/174 445/158/174 442/326/174
f 444/882/175 442/1354/175 441/809/175
f 448/884/176 443/1355/176 441/212/176
f 448/886/177 446/1356/177 445/232/177
f 441/888/178 442/1357/178 445/889/178
f 444/890/179 443/1358/179 448/145/179
f 452/892/174 455/898/174 453/893/174
f 451/895/175 452/907/175 450/896/175
f 456/898/176 451/908/180 449/616/180
f 455/899/177 456/909/177 454/900/177
f 449/49/178 450/1359/178 453/902/178
f 452/904/179 451/1360/179 456/905/179
f 463/880/181 461/158/181 458/326/181
f 460/882/175 458/1354/175 457/809/175
f 464/884/182 459/1355/182 457/212/182
f 464/886/177 462/1356/177 461/232/177
f 457/888/183 458/1357/183 461/889/183
f 460/890/184 459/1358/184 464/145/184
f 471/898/181 469/893/181 466/894/181
f 468/907/175 466/896/175 465/897/175
f 467/908/182 465/616/217 470/893/182
f 472/909/177 470/900/177 469/901/177
f 465/49/183 466/1359/183 469/902/183
f 468/904/184 467/1360/184 472/905/184
f 479/910/185 477/1361/185 474/911/185
f 476/913/2 474/1362/2 473/914/2
f 475/916/186 473/1363/186 478/773/186
f 479/506/4 480/1364/4 478/918/4
f 473/915/187 474/1365/187 477/919/187
f 476/921/188 475/944/188 480/922/188
f 487/924/189 485/1366/189 482/925/189
f 484/927/2 482/1367/2 481/928/2
f 483/930/190 481/1368/190 486/931/190
f 487/933/4 488/1369/4 486/934/4
f 481/936/191 482/1370/191 485/937/191
f 484/939/192 483/12/192 488/940/192
f 495/942/193 493/1371/193 490/943/193
f 491/944/194 492/1372/194 490/945/194
f 491/947/195 489/942/195 494/527/195
f 495/367/196 496/1373/196 494/949/196
f 489/951/197 490/1374/197 493/952/197
f 495/954/198 492/1375/198 491/955/198
f 500/957/193 503/1376/193 501/958/193
f 500/960/199 498/1377/199 497/961/199
f 499/963/195 497/1378/195 502/964/195
f 503/966/200 504/1379/200 502/967/200
f 497/969/201 498/1380/201 501/970/201
f 503/972/202 500/1381/202 499/973/202
f 511/975/189 509/1382/189 506/182/189
f 507/977/203 508/1383/203 506/978/204
f 507/980/190 505/1384/190 510/981/190
f 511/983/205 512/1385/205 510/984/205
f 505/986/206 506/1386/206 509/987/207
f 511/989/208 508/1387/208 507/990/208
f 516/992/193 519/1388/193 517/993/193
f 516/994/209 514/1389/209 513/995/209
f 515/997/195 513/1390/195 518/998/195
f 519/951/210 520/1391/210 518/1000/210
f 513/1002/211 514/1392/211 517/1003/211
f 516/1005/212 515/1393/212 520/1006/212
f 527/1008/189 525/1394/189 522/1009/189
f 524/1011/2 522/1395/2 521/1012/2
f 523/1014/190 521/1396/190 526/1015/190
f 528/1017/4 526/1397/4 525/1018/4
f 521/1020/191 522/1398/191 525/1021/191
f 524/1023/192 523/1399/192 528/1024/192
f 535/1026/193 533/1400/193 530/784/193
f 532/1028/198 530/1401/198 529/1029/198
f 531/1031/195 529/1402/195 534/1032/195
f 535/1034/197 536/1403/197 534/1035/197
f 534/1037/194 529/1034/194 530/1038/194
f 532/1040/213 531/1048/213 536/1041/213
f 543/1043/193 541/1404/193 538/1044/193
f 540/1046/202 538/1405/202 537/1047/202
f 539/1049/195 537/1406/195 542/727/195
f 543/1012/201 544/1407/201 542/1051/201
f 542/1053/199 537/1408/199 538/1054/199
f 540/1056/200 539/1409/200 544/1057/200
f 548/1059/189 551/1410/189 549/1060/189
f 548/1062/207 546/1411/207 545/1063/207
f 547/1065/190 545/1412/190 550/1066/190
f 552/1068/208 550/1413/214 549/1069/214
f 550/1071/215 545/479/205 546/1072/205
f 551/1074/203 548/1414/203 547/1075/203
f 556/1077/193 559/1081/193 557/1078/193
f 556/1079/216 554/1318/216 553/770/216
f 560/8/195 555/1106/195 553/1081/195
f 560/1082/211 558/1415/211 557/1083/211
f 553/1084/209 554/1416/209 557/1085/209
f 556/1087/210 555/1080/210 560/1088/210
f 567/1090/189 565/1417/189 562/321/189
f 564/1092/2 562/1418/2 561/557/2
f 563/1094/190 561/1419/190 566/1095/190
f 567/1097/4 568/1420/4 566/1098/4
f 561/912/191 562/1421/191 565/1099/191
f 564/1101/192 563/466/192 568/1102/192
