# Blender 4.4.3
# www.blender.org
mtllib veteran.mtl
o veteran
v 0.062500 1.286952 -0.295797
v 0.062500 1.287606 -0.302013
v 0.062500 1.162637 -0.308863
v 0.062500 1.163290 -0.315079
v -0.062500 1.287606 -0.302013
v -0.062500 1.286952 -0.295797
v -0.062500 1.163290 -0.315079
v -0.062500 1.162637 -0.308863
v 0.168750 1.309202 -0.212071
v 0.168750 1.317695 -0.292876
v 0.168750 1.122729 -0.231670
v 0.168750 1.131222 -0.312475
v -0.168750 1.317695 -0.292876
v -0.168750 1.309202 -0.212071
v -0.168750 1.131222 -0.312475
v -0.168750 1.122729 -0.231670
v 0.231694 1.437500 -0.173454
v 0.247870 1.437500 -0.233824
v 0.231694 1.312500 -0.173454
v 0.247870 1.312500 -0.233824
v 0.127130 1.437500 -0.266176
v 0.110953 1.437500 -0.205806
v 0.127130 1.312500 -0.266176
v 0.110953 1.312500 -0.205806
v 0.220646 1.468750 -0.192590
v 0.228734 1.468750 -0.222775
v 0.220646 1.281250 -0.192590
v 0.228734 1.281250 -0.222775
v 0.138178 1.468750 -0.247040
v 0.130090 1.468750 -0.216854
v 0.138178 1.281250 -0.247040
v 0.130090 1.281250 -0.216854
v 0.000000 0.729064 -0.186412
v 0.000000 0.730372 -0.205116
v 0.185616 0.543900 -0.199360
v 0.185616 0.545208 -0.218064
v -0.185616 0.545208 -0.218064
v -0.185616 0.543900 -0.199360
v 0.000000 0.360045 -0.231012
v 0.000000 0.358737 -0.212308
v 0.268750 1.243432 -0.095260
v 0.268750 1.243432 -0.232760
v 0.268750 0.805932 -0.095260
v 0.268750 0.805932 -0.232760
v -0.268750 1.243432 -0.232760
v -0.268750 1.243432 -0.095260
v -0.268750 0.805932 -0.232760
v -0.268750 0.805932 -0.095260
v 0.268750 1.434538 -0.032338
v 0.268750 1.477094 -0.143201
v 0.268750 1.201142 -0.121930
v 0.268750 1.243699 -0.232793
v -0.268750 1.477094 -0.143201
v -0.268750 1.434538 -0.032338
v -0.268750 1.243699 -0.232793
v -0.268750 1.201142 -0.121930
v 0.340614 1.486212 -0.082124
v 0.351597 1.512728 -0.151415
v 0.263274 1.299497 -0.165836
v 0.274257 1.326014 -0.235127
v 0.195692 1.577306 -0.151415
v 0.184709 1.550790 -0.082124
v 0.118353 1.390591 -0.235127
v 0.107369 1.364075 -0.165836
v 0.344625 1.495895 0.013649
v 0.365556 1.546428 0.000517
v 0.330666 1.462196 -0.138284
v 0.351597 1.512728 -0.151415
v 0.209651 1.611005 0.000517
v 0.188720 1.560473 0.013649
v 0.195692 1.577306 -0.151415
v 0.174761 1.526774 -0.138284
v 0.334941 1.472517 0.146044
v 0.356202 1.523845 0.154844
v 0.344295 1.495099 -0.008282
v 0.365556 1.546428 0.000517
v 0.200297 1.588423 0.154844
v 0.179036 1.537095 0.146044
v 0.209651 1.611005 0.000517
v 0.188390 1.559677 -0.008282
v 0.356202 1.523845 0.154844
v 0.351433 1.512333 0.093598
v 0.278858 1.337121 0.195963
v 0.274089 1.325609 0.134718
v 0.195529 1.576911 0.093598
v 0.200297 1.588423 0.154844
v 0.118185 1.390186 0.134718
v 0.122953 1.401698 0.195963
v 0.341289 1.503900 -0.122201
v 0.394091 1.509597 -0.183691
v 0.257320 1.301181 -0.213089
v 0.310122 1.306878 -0.274578
v 0.339426 1.551544 -0.226747
v 0.286624 1.545847 -0.165257
v 0.255457 1.348825 -0.317634
v 0.202655 1.343128 -0.256144
v -0.286624 1.545847 -0.165257
v -0.339426 1.551544 -0.226747
v -0.202655 1.343128 -0.256144
v -0.255457 1.348825 -0.317634
v -0.394091 1.509597 -0.183691
v -0.341289 1.503900 -0.122201
v -0.310122 1.306878 -0.274578
v -0.257320 1.301181 -0.213089
v -0.184709 1.550790 -0.082124
v -0.195692 1.577306 -0.151415
v -0.107369 1.364075 -0.165836
v -0.118353 1.390591 -0.235127
v -0.351597 1.512728 -0.151415
v -0.340614 1.486212 -0.082124
v -0.274257 1.326014 -0.235127
v -0.263274 1.299497 -0.165836
v -0.188720 1.560473 0.013649
v -0.209651 1.611005 0.000517
v -0.174761 1.526774 -0.138284
v -0.195692 1.577306 -0.151415
v -0.365556 1.546428 0.000517
v -0.344625 1.495895 0.013649
v -0.351597 1.512728 -0.151415
v -0.330666 1.462196 -0.138284
v -0.179036 1.537095 0.146044
v -0.200297 1.588423 0.154844
v -0.188390 1.559677 -0.008282
v -0.209651 1.611005 0.000517
v -0.356202 1.523845 0.154844
v -0.334941 1.472517 0.146044
v -0.365556 1.546428 0.000517
v -0.344295 1.495099 -0.008282
v -0.200297 1.588423 0.154844
v -0.195529 1.576911 0.093598
v -0.122953 1.401698 0.195963
v -0.118185 1.390186 0.134718
v -0.351433 1.512333 0.093598
v -0.356202 1.523845 0.154844
v -0.274089 1.325609 0.134718
v -0.278858 1.337121 0.195963
v 0.268750 1.502697 0.196686
v 0.268750 1.502697 0.121686
v 0.268750 0.746448 0.196686
v 0.268750 0.746448 0.121686
v -0.268750 1.502697 0.121686
v -0.268750 1.502697 0.196686
v -0.268750 0.746448 0.121686
v -0.268750 0.746448 0.196686
v -0.231250 1.052698 0.153314
v -0.231250 1.052698 -0.221686
v -0.231250 0.821447 0.153314
v -0.231250 0.821447 -0.221686
v -0.331250 1.052698 -0.221686
v -0.331250 1.052698 0.153314
v -0.331250 0.821447 -0.221686
v -0.331250 0.821447 0.153314
v 0.331250 1.052698 0.153314
v 0.331250 1.052698 -0.221686
v 0.331250 0.821447 0.153314
v 0.331250 0.821447 -0.221686
v 0.231250 1.052698 -0.221686
v 0.231250 1.052698 0.153314
v 0.231250 0.821447 -0.221686
v 0.231250 0.821447 0.153314
v 0.100000 1.480137 0.239590
v 0.100000 1.472619 0.215747
v 0.100000 1.390726 0.267781
v 0.100000 1.383208 0.243938
v -0.100000 1.472619 0.215747
v -0.100000 1.480137 0.239590
v -0.100000 1.383208 0.243938
v -0.100000 1.390726 0.267781
v -0.102535 1.480217 0.239844
v -0.079438 1.477340 0.230719
v -0.102535 1.390806 0.268035
v -0.079438 1.387929 0.258910
v -0.124882 1.444350 0.126086
v -0.147979 1.447227 0.135211
v -0.124882 1.354939 0.154278
v -0.147979 1.357816 0.163402
v 0.147979 1.447227 0.135211
v 0.124882 1.444350 0.126086
v 0.147979 1.357816 0.163402
v 0.124882 1.354939 0.154278
v 0.079438 1.477340 0.230719
v 0.102535 1.480217 0.239844
v 0.079438 1.387929 0.258910
v 0.102535 1.390806 0.268035
v 0.206250 0.805932 -0.157760
v 0.206250 0.805932 -0.232760
v 0.206250 0.743432 -0.157760
v 0.206250 0.743432 -0.232760
v -0.206250 0.805932 -0.232760
v -0.206250 0.805932 -0.157760
v -0.206250 0.743432 -0.232760
v -0.206250 0.743432 -0.157760
v 0.225823 0.854166 -0.157760
v 0.225823 0.854166 -0.226510
v 0.270017 0.809972 -0.157760
v 0.270017 0.809972 -0.226510
v 0.159532 0.787875 -0.226510
v 0.159532 0.787875 -0.157760
v 0.203726 0.743681 -0.226510
v 0.203726 0.743681 -0.157760
v -0.159532 0.787875 -0.157760
v -0.159532 0.787875 -0.226510
v -0.203726 0.743681 -0.157760
v -0.203726 0.743681 -0.226510
v -0.225823 0.854166 -0.226510
v -0.225823 0.854166 -0.157760
v -0.270017 0.809972 -0.226510
v -0.270017 0.809972 -0.157760
v 0.206250 1.538277 -0.105842
v 0.206250 1.536804 -0.162073
v 0.206250 1.369585 -0.101425
v 0.206250 1.368112 -0.157656
v -0.206250 1.536804 -0.162073
v -0.206250 1.538277 -0.105842
v -0.206250 1.368112 -0.157656
v -0.206250 1.369585 -0.101425
v 0.081250 1.075000 -0.231250
v 0.081250 1.075000 -0.312500
v 0.081250 0.800000 -0.231250
v 0.081250 0.800000 -0.312500
v -0.081250 1.075000 -0.312500
v -0.081250 1.075000 -0.231250
v -0.081250 0.800000 -0.312500
v -0.081250 0.800000 -0.231250
v -0.085660 1.075000 -0.234307
v -0.096968 1.075000 -0.314766
v -0.085660 0.800000 -0.234307
v -0.096968 0.800000 -0.314766
v -0.257886 1.075000 -0.292150
v -0.246578 1.075000 -0.211691
v -0.257886 0.800000 -0.292150
v -0.246578 0.800000 -0.211691
v 0.062500 1.093465 -0.221744
v 0.062500 1.110830 -0.320225
v 0.062500 1.075000 -0.225000
v 0.062500 1.092365 -0.323481
v -0.062500 1.110830 -0.320225
v -0.062500 1.093465 -0.221744
v -0.062500 1.092365 -0.323481
v -0.062500 1.075000 -0.225000
v 0.062500 1.100818 -0.324982
v 0.062500 1.000913 -0.329344
v 0.062500 1.100000 -0.306250
v 0.062500 1.000095 -0.310612
v -0.062500 1.000913 -0.329344
v -0.062500 1.100818 -0.324982
v -0.062500 1.000095 -0.310612
v -0.062500 1.100000 -0.306250
v 0.253134 1.075000 -0.230319
v 0.248555 1.075000 -0.317699
v 0.253134 0.800000 -0.230319
v 0.248555 0.800000 -0.317699
v 0.086277 1.075000 -0.309195
v 0.090857 1.075000 -0.221815
v 0.086277 0.800000 -0.309195
v 0.090857 0.800000 -0.221815
v -0.112347 1.100007 -0.324482
v -0.119130 1.003007 -0.347827
v -0.112652 1.095640 -0.306250
v -0.119435 0.998640 -0.329595
v -0.243825 1.011726 -0.347827
v -0.237042 1.108726 -0.324482
v -0.244131 1.007360 -0.329595
v -0.237348 1.104360 -0.306250
v -0.111364 1.089060 -0.221744
v -0.110153 1.106383 -0.320225
v -0.112652 1.070640 -0.225000
v -0.111441 1.087963 -0.323481
v -0.234848 1.115102 -0.320225
v -0.236060 1.097780 -0.221744
v -0.236136 1.096682 -0.323481
v -0.237348 1.079360 -0.225000
v 0.231250 1.082068 -0.324982
v 0.231250 0.982163 -0.329344
v 0.231250 1.081250 -0.306250
v 0.231250 0.981345 -0.310612
v 0.106250 0.982163 -0.329344
v 0.106250 1.082068 -0.324982
v 0.106250 0.981345 -0.310612
v 0.106250 1.081250 -0.306250
v 0.231250 1.074715 -0.221744
v 0.231250 1.092080 -0.320225
v 0.231250 1.056250 -0.225000
v 0.231250 1.073615 -0.323481
v 0.106250 1.092080 -0.320225
v 0.106250 1.074715 -0.221744
v 0.106250 1.073615 -0.323481
v 0.106250 1.056250 -0.225000
v 0.156250 0.775460 -0.187682
v 0.156250 0.785362 -0.268326
v 0.156250 0.564544 -0.213579
v 0.156250 0.574446 -0.294224
v -0.156250 0.785362 -0.268326
v -0.156250 0.775460 -0.187682
v -0.156250 0.574446 -0.294224
v -0.156250 0.564544 -0.213579
v 0.143750 0.784407 -0.172088
v 0.143750 0.805198 -0.269903
v 0.143750 0.772180 -0.174687
v 0.143750 0.792971 -0.272501
v -0.143750 0.805198 -0.269903
v -0.143750 0.784407 -0.172088
v -0.143750 0.792971 -0.272501
v -0.143750 0.772180 -0.174687
v 0.143750 0.792686 -0.276621
v 0.143750 0.693234 -0.287074
v 0.143750 0.791379 -0.264190
v 0.143750 0.691927 -0.274642
v -0.143750 0.693234 -0.287074
v -0.143750 0.792686 -0.276621
v -0.143750 0.691927 -0.274642
v -0.143750 0.791379 -0.264190
v -0.056250 0.725549 -0.288394
v -0.056250 0.651472 -0.300126
v -0.056250 0.723593 -0.276048
v -0.056250 0.649517 -0.287780
v -0.093750 0.651472 -0.300126
v -0.093750 0.725549 -0.288394
v -0.093750 0.649517 -0.287780
v -0.093750 0.723593 -0.276048
v 0.093750 0.725549 -0.288394
v 0.093750 0.651472 -0.300126
v 0.093750 0.723593 -0.276048
v 0.093750 0.649517 -0.287780
v 0.056250 0.651472 -0.300126
v 0.056250 0.725549 -0.288394
v 0.056250 0.649517 -0.287780
v 0.056250 0.723593 -0.276048
v 0.187500 0.763103 -0.177767
v 0.187500 0.765282 -0.208941
v 0.187500 0.544885 -0.193026
v 0.187500 0.547065 -0.224200
v -0.187500 0.765282 -0.208941
v -0.187500 0.763103 -0.177767
v -0.187500 0.547065 -0.224200
v -0.187500 0.544885 -0.193026
vn -0.0000 0.1045 -0.9945
vn 1.0000 -0.0000 -0.0000
vn -0.0000 -0.1045 0.9945
vn -1.0000 -0.0000 -0.0000
vn -0.0000 0.9945 0.1046
vn -0.0000 -0.9945 -0.1045
vn -0.0000 0.9945 0.1045
vn 0.2588 -0.0000 -0.9659
vn 0.9659 -0.0000 0.2588
vn -0.2588 -0.0000 0.9659
vn -0.9659 -0.0000 -0.2588
vn -0.0000 1.0000 -0.0000
vn -0.0000 -1.0000 -0.0000
vn -0.0000 0.0698 -0.9976
vn 0.7071 0.7054 0.0493
vn -0.0000 -0.0698 0.9976
vn -0.7071 -0.7054 -0.0493
vn -0.7071 0.7054 0.0493
vn 0.7071 -0.7054 -0.0493
vn -0.0000 -0.0000 -1.0000
vn -0.0000 -0.0000 1.0000
vn -0.0000 0.3584 -0.9336
vn -0.0000 -0.3584 0.9336
vn -0.0000 0.9336 0.3584
vn -0.0000 -0.9336 -0.3584
vn 0.1464 0.3536 -0.9239
vn 0.9239 -0.3827 -0.0000
vn -0.1464 -0.3536 0.9239
vn -0.9239 0.3827 -0.0000
vn 0.3536 0.8536 0.3827
vn -0.3536 -0.8536 -0.3827
vn 0.3721 0.8984 -0.2334
vn 0.3721 0.8984 -0.2335
vn -0.3721 -0.8984 0.2334
vn 0.0893 0.2157 0.9724
vn -0.0893 -0.2157 -0.9724
vn 0.3780 0.9125 0.1564
vn -0.3780 -0.9125 -0.1564
vn -0.0599 -0.1445 0.9877
vn 0.0599 0.1445 -0.9877
vn -0.0763 -0.1842 -0.9799
vn 0.0763 0.1842 0.9799
vn 0.3750 0.9053 -0.1994
vn -0.3750 -0.9053 0.1994
vn 0.6499 0.0701 -0.7568
vn 0.6728 -0.5163 0.5299
vn -0.6499 -0.0701 0.7568
vn -0.6728 0.5163 -0.5299
vn -0.6499 0.0701 -0.7568
vn 0.6728 0.5163 -0.5299
vn 0.6499 -0.0701 0.7568
vn -0.6728 -0.5163 0.5299
vn -0.3536 0.8536 0.3827
vn 0.3536 -0.8536 -0.3827
vn -0.1464 0.3536 -0.9239
vn 0.9239 0.3827 -0.0000
vn 0.1464 -0.3536 0.9239
vn -0.9239 -0.3827 -0.0000
vn -0.3721 0.8984 -0.2334
vn 0.3721 -0.8984 0.2334
vn -0.0893 0.2157 0.9724
vn 0.0893 -0.2157 -0.9724
vn -0.3780 0.9125 0.1564
vn 0.3780 -0.9125 -0.1564
vn 0.0599 -0.1445 0.9877
vn -0.0599 0.1445 -0.9877
vn 0.0763 -0.1842 -0.9799
vn -0.0763 0.1842 0.9799
vn -0.3750 0.9053 -0.1994
vn 0.3750 -0.9053 0.1994
vn -0.0000 -0.3007 -0.9537
vn -0.0000 0.3007 0.9537
vn -0.0000 0.9537 -0.3007
vn -0.0000 -0.9537 0.3007
vn 0.9239 -0.1151 -0.3650
vn 0.3827 0.2778 0.8811
vn -0.9239 0.1151 0.3650
vn -0.3827 -0.2778 -0.8811
vn -0.9239 -0.1151 -0.3650
vn 0.3827 -0.2778 -0.8811
vn 0.9239 0.1151 0.3650
vn -0.3827 0.2778 0.8811
vn 0.7071 0.7071 -0.0000
vn -0.7071 -0.7071 -0.0000
vn -0.7071 0.7071 -0.0000
vn 0.7071 -0.7071 -0.0000
vn -0.0000 -0.0262 -0.9997
vn -0.0000 0.0262 0.9997
vn -0.0000 0.9997 -0.0262
vn -0.0000 -0.9997 0.0262
vn -0.1392 -0.0000 -0.9903
vn 0.9903 -0.0000 -0.1392
vn 0.1392 -0.0000 0.9903
vn -0.9903 -0.0000 0.1392
vn -0.0000 0.1737 -0.9848
vn -0.0000 -0.1737 0.9848
vn -0.0000 0.9848 0.1736
vn -0.0000 -0.9848 -0.1736
vn -0.0000 -0.9990 -0.0436
vn -0.0000 0.9990 0.0436
vn -0.0000 0.0436 -0.9990
vn -0.0000 -0.0436 0.9990
vn -0.0523 -0.0000 -0.9986
vn 0.9986 -0.0000 -0.0523
vn 0.0523 -0.0000 0.9986
vn -0.9986 -0.0000 0.0523
vn -0.0678 -0.9700 -0.2334
vn -0.0678 -0.9700 -0.2335
vn 0.9976 -0.0698 -0.0000
vn 0.0678 0.9700 0.2334
vn 0.0678 0.9700 0.2335
vn -0.9976 0.0698 -0.0000
vn 0.0163 0.2329 -0.9724
vn -0.0163 -0.2329 0.9724
vn 0.0121 0.1732 -0.9848
vn -0.0121 -0.1732 0.9848
vn 0.0687 0.9824 0.1736
vn -0.0687 -0.9824 -0.1736
vn -0.0000 0.1219 -0.9925
vn -0.0000 -0.1219 0.9925
vn -0.0000 0.9925 0.1219
vn -0.0000 -0.9925 -0.1219
vn -0.0000 0.2078 -0.9782
vn -0.0000 -0.2079 0.9781
vn -0.0000 0.9781 0.2079
vn -0.0000 -0.9781 -0.2079
vn -0.0000 -0.9945 -0.1046
vn -0.0000 -0.9877 -0.1564
vn -0.0000 0.9877 0.1565
vn -0.0000 0.1564 -0.9877
vn -0.0000 -0.1564 0.9877
vn -0.0000 0.9976 0.0697
vn -0.0000 -0.9976 -0.0698
vn -0.3721 0.8984 -0.2335
vn 0.0687 0.9824 0.1737
vn -0.0687 -0.9824 -0.1737
vt 0.625000 0.546875
vt 0.593750 0.578125
vt 0.593750 0.546875
vt 0.080078 0.281250
vt 0.078125 0.312500
vt 0.078125 0.281250
vt 0.640625 0.843750
vt 0.609375 0.875000
vt 0.609375 0.843750
vt 0.687500 0.687500
vt 0.689453 0.718750
vt 0.687500 0.718750
vt 0.312500 0.312500
vt 0.343750 0.310547
vt 0.343750 0.312500
vt 0.375000 0.312500
vt 0.375000 0.310547
vt 0.458984 0.703125
vt 0.375000 0.750000
vt 0.375000 0.703125
vt 0.593750 0.343750
vt 0.614258 0.390625
vt 0.593750 0.390625
vt 0.318359 0.546875
vt 0.234375 0.593750
vt 0.234375 0.546875
vt 0.645508 0.953125
vt 0.625000 1.000000
vt 0.625000 0.953125
vt 0.000000 0.468750
vt 0.083984 0.448242
vt 0.083984 0.468750
vt 0.531250 0.651367
vt 0.615234 0.671875
vt 0.615234 0.651367
vt 0.265625 0.593750
vt 0.234375 0.625000
vt 0.281250 0.593750
vt 0.265625 0.625000
vt 0.578125 0.484375
vt 0.546875 0.515625
vt 0.546875 0.484375
vt 0.500000 0.578125
vt 0.484375 0.609375
vt 0.484375 0.578125
vt 0.468750 0.937500
vt 0.500000 0.921875
vt 0.500000 0.937500
vt 0.687500 0.921875
vt 0.656250 0.937500
vt 0.687500 0.937500
vt 0.445312 0.875000
vt 0.421875 0.921875
vt 0.421875 0.875000
vt 0.289062 0.296875
vt 0.281250 0.343750
vt 0.281250 0.296875
vt 0.617188 0.671875
vt 0.593750 0.718750
vt 0.593750 0.671875
vt 0.476562 0.296875
vt 0.468750 0.343750
vt 0.468750 0.296875
vt 0.179688 0.328125
vt 0.156250 0.320312
vt 0.179688 0.320312
vt 0.671875 0.773438
vt 0.695312 0.781250
vt 0.695312 0.773438
vt 0.065430 0.559570
vt 0.000000 0.625000
vt 0.000000 0.559570
vt 0.489258 0.278320
vt 0.484375 0.343750
vt 0.484375 0.278320
vt 0.078125 0.559570
vt 0.143555 0.625000
vt 0.078125 0.625000
vt 0.504883 0.278320
vt 0.500000 0.343750
vt 0.500000 0.278320
vt 0.656250 0.562500
vt 0.721680 0.557617
vt 0.721680 0.562500
vt 0.656250 0.541992
vt 0.721680 0.546875
vt 0.721680 0.541992
vt 0.134766 0.687500
vt 0.000000 0.796875
vt 0.000000 0.687500
vt 0.362305 0.484375
vt 0.328125 0.593750
vt 0.328125 0.484375
vt 0.275391 0.687500
vt 0.140625 0.796875
vt 0.140625 0.687500
vt 0.409180 0.484375
vt 0.375000 0.593750
vt 0.375000 0.484375
vt 0.281250 0.687500
vt 0.416016 0.653320
vt 0.416016 0.687500
vt 0.281250 0.606445
vt 0.416016 0.640625
vt 0.416016 0.606445
vt 0.416016 0.937500
vt 0.281250 1.000000
vt 0.281250 0.937500
vt 0.451172 0.437500
vt 0.421875 0.500000
vt 0.421875 0.437500
vt 0.416016 0.875000
vt 0.281250 0.875000
vt 0.216797 0.421875
vt 0.187500 0.484375
vt 0.187500 0.421875
vt 0.375000 0.812500
vt 0.509766 0.783203
vt 0.509766 0.812500
vt 0.375000 0.751953
vt 0.509766 0.781250
vt 0.509766 0.751953
vt 0.495117 0.523438
vt 0.453125 0.578125
vt 0.453125 0.523438
vt 0.612305 0.585938
vt 0.593750 0.640625
vt 0.593750 0.585938
vt 0.510742 0.945312
vt 0.468750 1.000000
vt 0.468750 0.945312
vt 0.393555 0.351562
vt 0.375000 0.406250
vt 0.375000 0.351562
vt 0.625000 0.421875
vt 0.666992 0.403320
vt 0.666992 0.421875
vt 0.625000 0.372070
vt 0.666992 0.390625
vt 0.666992 0.372070
vt 0.093750 0.429688
vt 0.135742 0.468750
vt 0.093750 0.468750
vt 0.419922 0.445312
vt 0.406250 0.484375
vt 0.406250 0.445312
vt 0.588867 0.898438
vt 0.546875 0.937500
vt 0.546875 0.898438
vt 0.591797 0.710938
vt 0.578125 0.750000
vt 0.578125 0.710938
vt 0.640625 0.500000
vt 0.682617 0.486328
vt 0.682617 0.500000
vt 0.682617 0.470703
vt 0.640625 0.484375
vt 0.682617 0.484375
vt 0.218750 0.414062
vt 0.260742 0.453125
vt 0.218750 0.453125
vt 0.310547 0.335938
vt 0.296875 0.375000
vt 0.296875 0.335938
vt 0.265625 0.414062
vt 0.307617 0.453125
vt 0.265625 0.453125
vt 0.515625 0.320312
vt 0.529297 0.359375
vt 0.515625 0.359375
vt 0.640625 0.468750
vt 0.682617 0.455078
vt 0.682617 0.468750
vt 0.666992 0.345703
vt 0.625000 0.359375
vt 0.666992 0.359375
vt 0.541992 0.885742
vt 0.500000 0.885742
vt 0.156250 0.495117
vt 0.140625 0.546875
vt 0.140625 0.495117
vt 0.500000 0.557617
vt 0.541992 0.609375
vt 0.500000 0.609375
vt 0.140625 0.432617
vt 0.156250 0.484375
vt 0.140625 0.484375
vt 0.416992 0.687500
vt 0.416992 0.703125
vt 0.625000 0.515625
vt 0.666992 0.531250
vt 0.666992 0.515625
vt 0.437500 0.362305
vt 0.458008 0.421875
vt 0.437500 0.421875
vt 0.489258 0.362305
vt 0.468750 0.421875
vt 0.468750 0.362305
vt 0.598633 0.456055
vt 0.578125 0.515625
vt 0.578125 0.456055
vt 0.520508 0.362305
vt 0.500000 0.421875
vt 0.500000 0.362305
vt 0.218750 0.343750
vt 0.239258 0.323242
vt 0.239258 0.343750
vt 0.270508 0.323242
vt 0.250000 0.343750
vt 0.270508 0.343750
vt 0.614258 0.940430
vt 0.593750 1.000000
vt 0.593750 0.940430
vt 0.614258 0.784180
vt 0.593750 0.843750
vt 0.593750 0.784180
vt 0.218750 0.346680
vt 0.239258 0.406250
vt 0.218750 0.406250
vt 0.593750 0.721680
vt 0.614258 0.781250
vt 0.593750 0.781250
vt 0.333008 0.343750
vt 0.312500 0.323242
vt 0.333008 0.323242
vt 0.343750 0.323242
vt 0.364258 0.343750
vt 0.364258 0.323242
vt 0.526367 0.617188
vt 0.484375 0.671875
vt 0.484375 0.617188
vt 0.593750 0.398438
vt 0.612305 0.453125
vt 0.593750 0.453125
vt 0.453125 0.460938
vt 0.495117 0.515625
vt 0.453125 0.515625
vt 0.627930 0.460938
vt 0.609375 0.515625
vt 0.609375 0.460938
vt 0.682617 0.875000
vt 0.640625 0.856445
vt 0.682617 0.856445
vt 0.682617 0.700195
vt 0.640625 0.718750
vt 0.682617 0.718750
vt 0.354492 0.414062
vt 0.312500 0.453125
vt 0.312500 0.414062
vt 0.093750 0.304688
vt 0.107422 0.343750
vt 0.093750 0.343750
vt 0.359375 0.414062
vt 0.401367 0.453125
vt 0.359375 0.453125
vt 0.123047 0.304688
vt 0.109375 0.343750
vt 0.109375 0.304688
vt 0.698242 1.000000
vt 0.656250 0.986328
vt 0.698242 0.986328
vt 0.656250 0.970703
vt 0.698242 0.984375
vt 0.698242 0.970703
vt 0.588867 0.601562
vt 0.546875 0.640625
vt 0.546875 0.601562
vt 0.138672 0.304688
vt 0.125000 0.343750
vt 0.125000 0.304688
vt 0.588867 0.554688
vt 0.546875 0.593750
vt 0.546875 0.554688
vt 0.140625 0.304688
vt 0.154297 0.343750
vt 0.140625 0.343750
vt 0.073242 0.343750
vt 0.031250 0.330078
vt 0.073242 0.330078
vt 0.656250 0.955078
vt 0.698242 0.968750
vt 0.698242 0.955078
vt 0.500000 0.495117
vt 0.541992 0.546875
vt 0.500000 0.546875
vt 0.093750 0.323242
vt 0.078125 0.375000
vt 0.078125 0.323242
vt 0.557617 0.948242
vt 0.515625 1.000000
vt 0.515625 0.948242
vt 0.625000 0.666992
vt 0.625000 0.718750
vt 0.468750 0.359375
vt 0.510742 0.343750
vt 0.510742 0.359375
vt 0.640625 0.515625
vt 0.682617 0.515625
vt 0.134766 0.810547
vt 0.000000 1.000000
vt 0.000000 0.810547
vt 0.440430 0.513672
vt 0.421875 0.703125
vt 0.421875 0.513672
vt 0.275391 0.810547
vt 0.140625 1.000000
vt 0.140625 0.810547
vt 0.174805 0.373047
vt 0.156250 0.562500
vt 0.156250 0.373047
vt 0.453125 0.843750
vt 0.587891 0.825195
vt 0.587891 0.843750
vt 0.453125 0.684570
vt 0.587891 0.703125
vt 0.587891 0.684570
vt 0.587891 0.942383
vt 0.562500 1.000000
vt 0.562500 0.942383
vt 0.375000 0.817383
vt 0.281250 0.817383
vt 0.056641 0.379883
vt 0.031250 0.437500
vt 0.031250 0.379883
vt 0.375000 0.754883
vt 0.281250 0.812500
vt 0.281250 0.754883
vt 0.259766 0.453125
vt 0.259766 0.546875
vt 0.291016 0.546875
vt 0.291016 0.453125
vt 0.087891 0.379883
vt 0.062500 0.437500
vt 0.062500 0.379883
vt 0.375000 0.692383
vt 0.281250 0.750000
vt 0.281250 0.692383
vt 0.431641 0.379883
vt 0.406250 0.437500
vt 0.406250 0.379883
vt 0.093750 0.629883
vt 0.000000 0.629883
vt 0.296875 0.546875
vt 0.322266 0.453125
vt 0.322266 0.546875
vt 0.478516 0.671875
vt 0.478516 0.578125
vt 0.643555 0.914062
vt 0.593750 0.937500
vt 0.593750 0.914062
vt 0.302734 0.304688
vt 0.296875 0.328125
vt 0.296875 0.304688
vt 0.299805 0.382812
vt 0.250000 0.406250
vt 0.250000 0.382812
vt 0.677734 0.351562
vt 0.671875 0.375000
vt 0.671875 0.351562
vt 0.531250 0.343750
vt 0.581055 0.337891
vt 0.581055 0.343750
vt 0.656250 0.447266
vt 0.706055 0.453125
vt 0.706055 0.447266
vt 0.000000 0.335938
vt 0.029297 0.359375
vt 0.000000 0.359375
vt 0.656250 0.304688
vt 0.662109 0.328125
vt 0.656250 0.328125
vt 0.185547 0.335938
vt 0.156250 0.359375
vt 0.156250 0.335938
vt 0.671875 0.304688
vt 0.677734 0.328125
vt 0.671875 0.328125
vt 0.671875 0.734375
vt 0.701172 0.728516
vt 0.701172 0.734375
vt 0.701172 0.681641
vt 0.671875 0.687500
vt 0.701172 0.687500
vt 0.669922 0.664062
vt 0.640625 0.687500
vt 0.640625 0.664062
vt 0.005859 0.289062
vt 0.000000 0.312500
vt 0.000000 0.289062
vt 0.437500 0.335938
vt 0.466797 0.359375
vt 0.437500 0.359375
vt 0.021484 0.289062
vt 0.015625 0.312500
vt 0.015625 0.289062
vt 0.671875 0.671875
vt 0.701172 0.666016
vt 0.701172 0.671875
vt 0.437500 0.322266
vt 0.466797 0.328125
vt 0.466797 0.322266
vt 0.572266 0.703125
vt 0.468750 0.718750
vt 0.468750 0.703125
vt 0.674805 0.421875
vt 0.656250 0.437500
vt 0.656250 0.421875
vt 0.650391 0.875000
vt 0.546875 0.890625
vt 0.546875 0.875000
vt 0.612305 0.328125
vt 0.593750 0.328125
vt 0.468750 0.750000
vt 0.572266 0.731445
vt 0.572266 0.750000
vt 0.500000 0.856445
vt 0.603516 0.875000
vt 0.603516 0.856445
vt 0.679688 0.906250
vt 0.656250 0.921875
vt 0.656250 0.906250
vt 0.642578 0.328125
vt 0.625000 0.343750
vt 0.625000 0.328125
vt 0.656250 0.875000
vt 0.679688 0.890625
vt 0.656250 0.890625
vt 0.673828 0.328125
vt 0.656250 0.343750
vt 0.656250 0.656250
vt 0.679688 0.638672
vt 0.679688 0.656250
vt 0.375000 0.326172
vt 0.398438 0.343750
vt 0.398438 0.326172
vt 0.656250 0.578125
vt 0.679688 0.593750
vt 0.656250 0.593750
vt 0.017578 0.312500
vt 0.000000 0.328125
vt 0.679688 0.562500
vt 0.048828 0.312500
vt 0.031250 0.328125
vt 0.031250 0.312500
vt 0.656250 0.625000
vt 0.679688 0.607422
vt 0.679688 0.625000
vt 0.406250 0.326172
vt 0.429688 0.343750
vt 0.429688 0.326172
vt 0.462891 0.931641
vt 0.421875 1.000000
vt 0.421875 0.931641
vt 0.583008 0.384766
vt 0.562500 0.453125
vt 0.562500 0.384766
vt 0.228516 0.494141
vt 0.187500 0.562500
vt 0.187500 0.494141
vt 0.114258 0.353516
vt 0.093750 0.421875
vt 0.093750 0.353516
vt 0.625000 0.812500
vt 0.666016 0.791992
vt 0.666016 0.812500
vt 0.625000 0.760742
vt 0.666016 0.781250
vt 0.666016 0.760742
vt 0.041016 0.478516
vt 0.000000 0.546875
vt 0.000000 0.478516
vt 0.145508 0.353516
vt 0.125000 0.421875
vt 0.125000 0.353516
vt 0.087891 0.478516
vt 0.046875 0.546875
vt 0.046875 0.478516
vt 0.208008 0.353516
vt 0.187500 0.353516
vt 0.250000 0.375000
vt 0.291016 0.354492
vt 0.291016 0.375000
vt 0.625000 0.729492
vt 0.666016 0.750000
vt 0.666016 0.729492
vt 0.703125 0.526367
vt 0.671875 0.531250
vt 0.671875 0.526367
vt 0.031250 0.307617
vt 0.056641 0.312500
vt 0.562500 0.323242
vt 0.531250 0.328125
vt 0.531250 0.323242
vt 0.712891 0.932617
vt 0.687500 0.932617
vt 0.625000 0.656250
vt 0.656250 0.630859
vt 0.625000 0.599609
vt 0.656250 0.599609
vt 0.593750 0.323242
vt 0.562500 0.328125
vt 0.687500 0.916992
vt 0.712891 0.921875
vt 0.703125 0.416992
vt 0.671875 0.421875
vt 0.671875 0.416992
vt 0.712891 0.901367
vt 0.687500 0.906250
vt 0.687500 0.901367
vt 0.406250 0.375000
vt 0.437500 0.349609
vt 0.437500 0.375000
vt 0.625000 0.568359
vt 0.656250 0.568359
vt 0.494141 0.853516
vt 0.453125 0.921875
vt 0.453125 0.853516
vt 0.552734 0.384766
vt 0.531250 0.453125
vt 0.531250 0.384766
vt 0.134766 0.478516
vt 0.093750 0.546875
vt 0.093750 0.478516
vt 0.021484 0.369141
vt 0.000000 0.437500
vt 0.000000 0.369141
vt 0.031250 0.375000
vt 0.072266 0.353516
vt 0.072266 0.375000
vt 0.625000 0.822266
vt 0.666016 0.843750
vt 0.666016 0.822266
vt 0.625000 0.323242
vt 0.687500 0.885742
vt 0.712891 0.890625
vt 0.687500 0.890625
vt 0.671875 0.401367
vt 0.703125 0.406250
vt 0.671875 0.406250
vt 0.712891 0.870117
vt 0.687500 0.875000
vt 0.687500 0.870117
vt 0.625000 0.562500
vt 0.656250 0.537109
vt 0.531250 0.349609
vt 0.562500 0.375000
vt 0.562500 0.349609
vt 0.671875 0.385742
vt 0.703125 0.390625
vt 0.671875 0.390625
vt 0.712891 0.854492
vt 0.687500 0.859375
vt 0.687500 0.854492
vt 0.181641 0.307617
vt 0.156250 0.312500
vt 0.156250 0.307617
vt 0.625000 0.453125
vt 0.656250 0.427734
vt 0.656250 0.453125
vt 0.593750 0.375000
vt 0.593750 0.349609
vt 0.712891 0.916992
vt 0.712891 0.906250
vt 0.056641 0.307617
vt 0.453125 0.822266
vt 0.375000 0.875000
vt 0.375000 0.822266
vt 0.333008 0.353516
vt 0.312500 0.406250
vt 0.312500 0.353516
vt 0.234375 0.572266
vt 0.156250 0.625000
vt 0.156250 0.572266
vt 0.343750 0.353516
vt 0.364258 0.406250
vt 0.343750 0.406250
vt 0.453125 0.453125
vt 0.531250 0.432617
vt 0.546875 0.526367
vt 0.625000 0.526367
vt 0.744141 0.840820
vt 0.671875 0.843750
vt 0.671875 0.840820
vt 0.218750 0.309570
vt 0.244141 0.312500
vt 0.218750 0.312500
vt 0.744141 0.825195
vt 0.671875 0.828125
vt 0.671875 0.825195
vt 0.712891 0.762695
vt 0.687500 0.765625
vt 0.687500 0.762695
vt 0.515625 0.812500
vt 0.587891 0.787109
vt 0.587891 0.812500
vt 0.515625 0.755859
vt 0.587891 0.781250
vt 0.587891 0.755859
vt 0.744141 0.809570
vt 0.671875 0.812500
vt 0.671875 0.809570
vt 0.275391 0.309570
vt 0.250000 0.312500
vt 0.250000 0.309570
vt 0.744141 0.793945
vt 0.671875 0.796875
vt 0.671875 0.793945
vt 0.687500 0.747070
vt 0.712891 0.750000
vt 0.687500 0.750000
vt 0.400391 0.458984
vt 0.400391 0.484375
vt 0.500000 0.458984
vt 0.572266 0.484375
vt 0.572266 0.458984
vt 0.447266 0.434570
vt 0.437500 0.437500
vt 0.437500 0.434570
vt 0.706055 0.653320
vt 0.687500 0.656250
vt 0.687500 0.653320
vt 0.697266 0.606445
vt 0.687500 0.609375
vt 0.687500 0.606445
vt 0.687500 0.637695
vt 0.706055 0.640625
vt 0.687500 0.640625
vt 0.218750 0.484375
vt 0.228516 0.465820
vt 0.228516 0.484375
vt 0.531250 0.622070
vt 0.541016 0.640625
vt 0.541016 0.622070
vt 0.416016 0.309570
vt 0.406250 0.312500
vt 0.406250 0.309570
vt 0.393555 0.309570
vt 0.375000 0.309570
vt 0.697266 0.590820
vt 0.687500 0.593750
vt 0.687500 0.590820
vt 0.687500 0.622070
vt 0.706055 0.625000
vt 0.687500 0.625000
vt 0.062500 0.328125
vt 0.072266 0.309570
vt 0.072266 0.328125
vt 0.671875 0.747070
vt 0.681641 0.765625
vt 0.681641 0.747070
vt 0.187500 0.632812
vt 0.093750 0.687500
vt 0.093750 0.632812
vt 0.195312 0.289062
vt 0.187500 0.343750
vt 0.187500 0.289062
vt 0.281250 0.632812
vt 0.187500 0.687500
vt 0.203125 0.289062
vt 0.210938 0.343750
vt 0.203125 0.343750
vt 0.593750 0.906250
vt 0.687500 0.898438
vt 0.625000 0.945312
vt 0.718750 0.953125
vt 0.718750 0.945312
vt 0.625000 0.578125
vt 0.080078 0.312500
vt 0.640625 0.875000
vt 0.689453 0.687500
vt 0.312500 0.310547
vt 0.458984 0.750000
vt 0.614258 0.343750
vt 0.318359 0.593750
vt 0.645508 1.000000
vt 0.000000 0.448242
vt 0.531250 0.671875
vt 0.281250 0.625000
vt 0.468750 0.921875
vt 0.445312 0.921875
vt 0.289062 0.343750
vt 0.617188 0.718750
vt 0.476562 0.343750
vt 0.156250 0.328125
vt 0.671875 0.781250
vt 0.065430 0.625000
vt 0.489258 0.343750
vt 0.143555 0.559570
vt 0.504883 0.343750
vt 0.656250 0.557617
vt 0.656250 0.546875
vt 0.134766 0.796875
vt 0.362305 0.593750
vt 0.275391 0.796875
vt 0.409180 0.593750
vt 0.281250 0.653320
vt 0.281250 0.640625
vt 0.416016 1.000000
vt 0.451172 0.500000
vt 0.216797 0.484375
vt 0.375000 0.783203
vt 0.375000 0.781250
vt 0.495117 0.578125
vt 0.612305 0.640625
vt 0.510742 1.000000
vt 0.393555 0.406250
vt 0.625000 0.403320
vt 0.625000 0.390625
vt 0.135742 0.429688
vt 0.419922 0.484375
vt 0.588867 0.937500
vt 0.591797 0.750000
vt 0.640625 0.486328
vt 0.640625 0.470703
vt 0.260742 0.414062
vt 0.310547 0.375000
vt 0.307617 0.414062
vt 0.529297 0.320312
vt 0.640625 0.455078
vt 0.625000 0.345703
vt 0.541992 0.937500
vt 0.156250 0.546875
vt 0.541992 0.557617
vt 0.156250 0.432617
vt 0.375000 0.687500
vt 0.625000 0.531250
vt 0.458008 0.362305
vt 0.489258 0.421875
vt 0.598633 0.515625
vt 0.520508 0.421875
vt 0.218750 0.323242
vt 0.250000 0.323242
vt 0.614258 1.000000
vt 0.614258 0.843750
vt 0.239258 0.346680
vt 0.614258 0.721680
vt 0.312500 0.343750
vt 0.343750 0.343750
vt 0.526367 0.671875
vt 0.612305 0.398438
vt 0.495117 0.460938
vt 0.627930 0.515625
vt 0.640625 0.700195
vt 0.354492 0.453125
vt 0.107422 0.304688
vt 0.401367 0.414062
vt 0.123047 0.343750
vt 0.656250 1.000000
vt 0.656250 0.984375
vt 0.588867 0.640625
vt 0.138672 0.343750
vt 0.588867 0.593750
vt 0.154297 0.304688
vt 0.031250 0.343750
vt 0.656250 0.968750
vt 0.541992 0.495117
vt 0.093750 0.375000
vt 0.557617 1.000000
vt 0.640625 0.666992
vt 0.134766 1.000000
vt 0.440430 0.703125
vt 0.275391 1.000000
vt 0.174805 0.562500
vt 0.453125 0.825195
vt 0.453125 0.703125
vt 0.587891 1.000000
vt 0.056641 0.437500
vt 0.234375 0.453125
vt 0.265625 0.546875
vt 0.087891 0.437500
vt 0.431641 0.437500
vt 0.296875 0.453125
vt 0.453125 0.671875
vt 0.643555 0.937500
vt 0.302734 0.328125
vt 0.299805 0.406250
vt 0.677734 0.375000
vt 0.531250 0.337891
vt 0.029297 0.335938
vt 0.662109 0.304688
vt 0.185547 0.359375
vt 0.677734 0.304688
vt 0.671875 0.728516
vt 0.671875 0.681641
vt 0.669922 0.687500
vt 0.005859 0.312500
vt 0.466797 0.335938
vt 0.021484 0.312500
vt 0.671875 0.666016
vt 0.437500 0.328125
vt 0.572266 0.718750
vt 0.674805 0.437500
vt 0.650391 0.890625
vt 0.612305 0.343750
vt 0.468750 0.731445
vt 0.500000 0.875000
vt 0.679688 0.921875
vt 0.642578 0.343750
vt 0.679688 0.875000
vt 0.673828 0.343750
vt 0.656250 0.638672
vt 0.375000 0.343750
vt 0.679688 0.578125
vt 0.017578 0.328125
vt 0.048828 0.328125
vt 0.656250 0.607422
vt 0.406250 0.343750
vt 0.462891 1.000000
vt 0.583008 0.453125
vt 0.228516 0.562500
vt 0.114258 0.421875
vt 0.625000 0.791992
vt 0.625000 0.781250
vt 0.041016 0.546875
vt 0.145508 0.421875
vt 0.087891 0.546875
vt 0.208008 0.421875
vt 0.250000 0.354492
vt 0.625000 0.750000
vt 0.703125 0.531250
vt 0.712891 0.937500
vt 0.625000 0.630859
vt 0.625000 0.625000
vt 0.703125 0.421875
vt 0.406250 0.349609
vt 0.625000 0.593750
vt 0.494141 0.921875
vt 0.552734 0.453125
vt 0.134766 0.546875
vt 0.021484 0.437500
vt 0.031250 0.353516
vt 0.625000 0.843750
vt 0.712891 0.885742
vt 0.703125 0.401367
vt 0.712891 0.875000
vt 0.625000 0.537109
vt 0.531250 0.375000
vt 0.703125 0.385742
vt 0.712891 0.859375
vt 0.656250 0.323242
vt 0.181641 0.312500
vt 0.625000 0.427734
vt 0.453125 0.875000
vt 0.333008 0.406250
vt 0.364258 0.353516
vt 0.453125 0.432617
vt 0.546875 0.546875
vt 0.744141 0.843750
vt 0.244141 0.309570
vt 0.744141 0.828125
vt 0.712891 0.765625
vt 0.515625 0.787109
vt 0.515625 0.781250
vt 0.744141 0.812500
vt 0.275391 0.312500
vt 0.744141 0.796875
vt 0.712891 0.747070
vt 0.328125 0.458984
vt 0.500000 0.484375
vt 0.447266 0.437500
vt 0.706055 0.656250
vt 0.697266 0.609375
vt 0.706055 0.637695
vt 0.218750 0.465820
vt 0.531250 0.640625
vt 0.416016 0.312500
vt 0.393555 0.312500
vt 0.697266 0.593750
vt 0.706055 0.622070
vt 0.062500 0.309570
vt 0.671875 0.765625
vt 0.195312 0.343750
vt 0.210938 0.289062
vt 0.593750 0.898438
s 1
usemtl m_e586116d-fe47-ad1c-76f1-d270e816dec2
f 7/1/1 2/2/1 4/3/1
f 4/4/2 1/5/2 3/6/2
f 3/7/3 6/8/3 8/9/3
f 7/10/4 6/11/4 5/12/4
f 1/13/5 5/14/5 6/15/5
f 4/14/6 8/16/6 7/17/6
f 15/18/1 10/19/1 12/20/1
f 11/21/2 10/22/2 9/23/2
f 11/24/3 14/25/3 16/26/3
f 16/27/4 13/28/4 15/29/4
f 9/30/7 13/31/7 14/32/7
f 12/33/6 16/34/6 15/35/6
f 23/36/8 18/37/8 20/25/8
f 20/38/9 17/39/9 19/36/9
f 19/40/10 22/41/10 24/42/10
f 24/43/11 21/44/11 23/45/11
f 17/46/12 21/47/12 22/48/12
f 23/49/13 19/50/13 24/51/13
f 31/52/8 26/53/8 28/54/8
f 28/55/9 25/56/9 27/57/9
f 27/58/10 30/59/10 32/60/10
f 32/61/11 29/62/11 31/63/11
f 30/64/12 26/65/12 29/66/12
f 28/67/13 32/68/13 31/69/13
f 39/70/14 34/71/14 36/72/14
f 36/73/15 33/74/15 35/75/15
f 40/76/16 33/77/16 38/78/16
f 40/79/17 37/80/17 39/81/17
f 33/82/18 37/83/18 38/84/18
f 36/85/19 40/86/19 39/87/19
f 47/88/20 42/89/20 44/90/20
f 44/91/2 41/92/2 43/93/2
f 43/94/21 46/95/21 48/96/21
f 48/97/4 45/98/4 47/99/4
f 41/100/12 45/101/12 46/102/12
f 44/103/13 48/104/13 47/105/13
f 55/106/22 50/107/22 52/108/22
f 52/109/2 49/110/2 51/111/2
f 51/112/23 54/108/23 56/113/23
f 56/114/4 53/115/4 55/116/4
f 49/117/24 53/118/24 54/119/24
f 52/120/25 56/121/25 55/122/25
f 63/123/26 58/124/26 60/125/26
f 60/126/27 57/127/27 59/128/27
f 59/129/28 62/130/28 64/131/28
f 64/132/29 61/133/29 63/134/29
f 57/135/30 61/136/30 62/137/30
f 60/138/31 64/139/31 63/140/31
f 68/141/32 69/142/32 66/143/33
f 68/144/27 65/145/27 67/146/27
f 67/147/34 70/148/34 72/149/34
f 72/150/29 69/151/29 71/152/29
f 65/153/35 69/154/35 70/155/35
f 71/156/36 67/157/36 72/158/36
f 76/159/37 77/160/37 74/161/37
f 76/162/27 73/163/27 75/164/27
f 80/165/38 73/166/38 78/167/38
f 79/168/29 78/169/29 77/170/29
f 73/171/39 77/172/39 78/173/39
f 79/174/40 75/175/40 80/176/40
f 87/177/41 82/48/41 84/178/41
f 84/179/27 81/180/27 83/181/27
f 88/182/42 81/183/42 86/184/42
f 87/185/29 86/186/29 85/187/29
f 81/20/43 85/188/43 86/189/43
f 84/190/44 88/191/44 87/192/44
f 92/193/45 93/194/45 90/195/45
f 92/196/46 89/197/46 91/198/46
f 91/199/47 94/200/47 96/201/47
f 96/202/48 93/203/48 95/204/48
f 89/205/30 93/206/30 94/207/30
f 95/208/31 91/209/31 96/210/31
f 103/211/49 98/212/49 100/213/49
f 100/214/50 97/215/50 99/216/50
f 104/217/51 97/218/51 102/219/51
f 103/220/52 102/221/52 101/222/52
f 102/223/53 98/224/53 101/225/53
f 100/226/54 104/227/54 103/228/54
f 111/229/55 106/230/55 108/231/55
f 107/232/56 106/233/56 105/234/56
f 112/235/57 105/236/57 110/237/57
f 112/238/58 109/239/58 111/240/58
f 110/241/53 106/242/53 109/243/53
f 111/244/54 107/245/54 112/246/54
f 119/247/59 114/248/59 116/249/59
f 115/250/56 114/251/56 113/252/56
f 120/253/60 113/254/60 118/255/60
f 120/256/58 117/257/58 119/258/58
f 118/259/61 114/260/61 117/261/61
f 116/262/62 120/263/62 119/264/62
f 127/265/63 122/266/63 124/267/63
f 124/268/56 121/269/56 123/270/56
f 123/271/64 126/272/64 128/273/64
f 127/274/58 126/275/58 125/276/58
f 126/277/65 122/278/65 125/279/65
f 124/280/66 128/281/66 127/282/66
f 132/283/67 133/284/67 130/285/67
f 132/286/56 129/287/56 131/288/56
f 131/289/68 134/290/68 136/291/68
f 135/292/58 134/245/58 133/293/58
f 129/294/69 133/295/69 134/296/69
f 135/155/70 131/297/70 136/298/70
f 143/299/20 138/300/20 140/301/20
f 140/302/2 137/303/2 139/304/2
f 139/305/21 142/306/21 144/307/21
f 144/308/4 141/309/4 143/310/4
f 137/311/12 141/312/12 142/313/12
f 140/314/13 144/315/13 143/316/13
f 151/317/20 146/318/20 148/319/20
f 148/320/2 145/113/2 147/321/2
f 147/322/21 150/323/21 152/324/21
f 152/325/4 149/326/4 151/327/4
f 145/26/12 149/328/12 150/329/12
f 148/167/13 152/330/13 151/331/13
f 159/332/20 154/333/20 156/334/20
f 156/335/2 153/336/2 155/337/2
f 155/338/21 158/339/21 160/340/21
f 160/341/4 157/90/4 159/342/4
f 153/343/12 157/344/12 158/345/12
f 156/124/13 160/346/13 159/347/13
f 167/348/71 162/349/71 164/350/71
f 164/351/2 161/352/2 163/353/2
f 163/354/72 166/355/72 168/356/72
f 168/357/4 165/358/4 167/359/4
f 161/360/73 165/361/73 166/362/73
f 164/363/74 168/364/74 167/365/74
f 172/366/75 173/367/75 170/368/75
f 171/369/76 170/370/76 169/371/76
f 171/372/77 174/373/77 176/374/77
f 175/375/78 174/376/78 173/377/78
f 169/378/73 173/379/73 174/380/73
f 175/381/74 171/382/74 176/383/74
f 183/384/79 178/385/79 180/386/79
f 180/387/80 177/388/80 179/389/80
f 184/390/81 177/391/81 182/392/81
f 184/393/82 181/394/82 183/395/82
f 177/396/73 181/397/73 182/398/73
f 180/399/74 184/400/74 183/401/74
f 191/402/20 186/403/20 188/404/20
f 188/405/2 185/406/2 187/407/2
f 187/408/21 190/409/21 192/410/21
f 192/411/4 189/21/4 191/412/4
f 185/413/12 189/414/12 190/415/12
f 188/416/13 192/417/13 191/418/13
f 199/419/20 194/420/20 196/421/20
f 196/422/83 193/423/83 195/424/83
f 200/425/21 193/426/21 198/427/21
f 200/428/84 197/429/84 199/371/84
f 193/430/85 197/431/85 198/432/85
f 196/433/86 200/434/86 199/435/86
f 204/436/20 205/437/20 202/438/20
f 204/439/86 201/440/86 203/388/86
f 203/441/21 206/436/21 208/82/21
f 208/442/85 205/443/85 207/444/85
f 201/445/83 205/446/83 206/447/83
f 204/448/84 208/449/84 207/450/84
f 215/106/87 210/107/87 212/108/87
f 212/109/2 209/110/2 211/111/2
f 211/112/88 214/108/88 216/113/88
f 216/114/4 213/115/4 215/116/4
f 209/117/89 213/118/89 214/119/89
f 212/120/90 216/121/90 215/122/90
f 223/451/20 218/452/20 220/453/20
f 220/454/2 217/455/2 219/456/2
f 219/457/21 222/458/21 224/459/21
f 224/460/4 221/461/4 223/462/4
f 217/463/12 221/464/12 222/465/12
f 220/466/13 224/467/13 223/468/13
f 231/469/91 226/470/91 228/471/91
f 228/472/92 225/473/92 227/474/92
f 227/475/93 230/476/93 232/477/93
f 232/478/94 229/116/94 231/479/94
f 225/480/12 229/481/12 230/482/12
f 228/483/13 232/484/13 231/485/13
f 239/486/95 234/487/95 236/488/95
f 235/489/2 234/490/2 233/444/2
f 235/491/96 238/492/96 240/493/96
f 240/494/4 237/51/4 239/495/4
f 233/496/97 237/497/97 238/430/97
f 236/498/98 240/445/98 239/499/98
f 247/500/99 242/501/99 244/491/99
f 243/502/2 242/503/2 241/49/2
f 243/504/100 246/505/100 248/506/100
f 248/507/4 245/508/4 247/509/4
f 241/510/101 245/511/101 246/512/101
f 244/513/102 248/438/102 247/514/102
f 255/515/103 250/516/103 252/517/103
f 252/518/104 249/519/104 251/520/104
f 251/521/105 254/522/105 256/523/105
f 256/524/106 253/525/106 255/526/106
f 249/527/12 253/528/12 254/529/12
f 252/530/13 256/531/13 255/532/13
f 263/533/107 258/412/108 260/500/108
f 259/534/109 258/535/109 257/536/109
f 264/537/110 257/538/111 262/539/110
f 264/540/112 261/541/112 263/542/112
f 257/543/113 261/544/113 262/82/113
f 260/545/114 264/546/114 263/547/114
f 268/548/115 269/549/115 266/550/115
f 268/551/109 265/552/109 267/553/109
f 272/533/116 265/371/116 270/424/116
f 272/554/112 269/555/112 271/556/112
f 265/557/117 269/558/117 270/559/117
f 268/547/118 272/560/118 271/561/118
f 279/500/99 274/501/99 276/491/99
f 276/562/2 273/49/2 275/502/2
f 275/504/100 278/505/100 280/506/100
f 279/509/4 278/563/4 277/508/4
f 273/510/101 277/511/101 278/512/101
f 276/513/102 280/438/102 279/514/102
f 287/486/95 282/487/95 284/488/95
f 284/564/2 281/444/2 283/489/2
f 283/491/96 286/492/96 288/493/96
f 288/494/4 285/51/4 287/495/4
f 281/496/97 285/497/97 286/430/97
f 284/498/98 288/445/98 287/499/98
f 295/565/119 290/566/119 292/567/119
f 292/568/2 289/569/2 291/570/2
f 291/571/120 294/572/120 296/573/120
f 295/574/4 294/575/4 293/576/4
f 289/577/121 293/578/121 294/519/121
f 292/579/122 296/1/122 295/580/122
f 303/581/123 298/582/123 300/583/123
f 299/584/2 298/585/2 297/586/2
f 299/587/124 302/588/124 304/589/124
f 304/590/4 301/591/4 303/592/4
f 297/593/125 301/594/125 302/595/125
f 300/596/126 304/597/126 303/598/126
f 311/599/127 306/600/127 308/601/127
f 308/602/2 305/603/2 307/604/2
f 307/605/5 310/606/5 312/607/5
f 311/608/4 310/609/4 309/610/4
f 305/93/1 309/611/1 310/612/1
f 308/613/3 312/614/3 311/615/3
f 319/616/128 314/617/128 316/618/128
f 316/619/2 313/620/2 315/621/2
f 315/622/129 318/623/129 320/624/129
f 319/625/4 318/626/4 317/627/4
f 313/628/130 317/629/130 318/630/130
f 316/631/131 320/632/131 319/633/131
f 327/634/128 322/635/128 324/636/128
f 324/637/2 321/16/2 323/638/2
f 323/639/129 326/640/129 328/641/129
f 327/642/4 326/643/4 325/644/4
f 321/645/130 325/646/130 326/647/130
f 324/648/131 328/649/131 327/650/131
f 335/651/14 330/652/14 332/653/14
f 332/654/2 329/655/2 331/656/2
f 331/657/16 334/658/16 336/651/16
f 335/659/4 334/660/4 333/661/4
f 329/662/132 333/663/132 334/508/132
f 332/664/133 336/665/133 335/666/133
f 7/1/1 5/667/1 2/2/1
f 4/4/2 2/668/2 1/5/2
f 3/7/3 1/669/3 6/8/3
f 7/10/4 8/670/4 6/11/4
f 1/13/5 2/671/5 5/14/5
f 4/14/6 3/15/6 8/16/6
f 15/18/1 13/672/1 10/19/1
f 11/21/2 12/673/2 10/22/2
f 11/24/3 9/674/3 14/25/3
f 16/27/4 14/675/4 13/28/4
f 9/30/7 10/676/7 13/31/7
f 12/33/6 11/677/6 16/34/6
f 23/36/8 21/39/8 18/37/8
f 20/38/9 18/678/9 17/39/9
f 19/40/10 17/200/10 22/41/10
f 24/43/11 22/184/11 21/44/11
f 17/46/12 18/679/12 21/47/12
f 23/49/13 20/420/13 19/50/13
f 31/52/8 29/680/8 26/53/8
f 28/55/9 26/681/9 25/56/9
f 27/58/10 25/682/10 30/59/10
f 32/61/11 30/683/11 29/62/11
f 30/64/12 25/684/12 26/65/12
f 28/67/13 27/685/13 32/68/13
f 39/70/14 37/686/14 34/71/14
f 36/73/15 34/687/15 33/74/15
f 40/76/16 35/688/16 33/77/16
f 40/79/17 38/689/17 37/80/17
f 33/82/18 34/690/18 37/83/18
f 36/85/19 35/691/19 40/86/19
f 47/88/20 45/692/20 42/89/20
f 44/91/2 42/693/2 41/92/2
f 43/94/21 41/694/21 46/95/21
f 48/97/4 46/695/4 45/98/4
f 41/100/12 42/696/12 45/101/12
f 44/103/13 43/697/13 48/104/13
f 55/106/22 53/698/22 50/107/22
f 52/109/2 50/699/2 49/110/2
f 51/112/23 49/106/23 54/108/23
f 56/114/4 54/700/4 53/115/4
f 49/117/24 50/701/24 53/118/24
f 52/120/25 51/702/25 56/121/25
f 63/123/26 61/703/26 58/124/26
f 60/126/27 58/704/27 57/127/27
f 59/129/28 57/705/28 62/130/28
f 64/132/29 62/706/29 61/133/29
f 57/135/30 58/707/30 61/136/30
f 60/138/31 59/708/31 64/139/31
f 68/141/32 71/709/32 69/142/32
f 68/144/27 66/710/27 65/145/27
f 67/147/34 65/711/34 70/148/34
f 72/150/29 70/712/29 69/151/29
f 65/153/35 66/713/35 69/154/35
f 71/156/36 68/714/36 67/157/36
f 76/159/37 79/715/37 77/160/37
f 76/162/27 74/716/27 73/163/27
f 80/165/38 75/717/38 73/166/38
f 79/168/29 80/718/29 78/169/29
f 73/171/39 74/719/39 77/172/39
f 79/174/40 76/720/40 75/175/40
f 87/177/41 85/721/41 82/48/41
f 84/179/27 82/722/27 81/180/27
f 88/182/42 83/723/42 81/183/42
f 87/185/29 88/724/29 86/186/29
f 81/20/43 82/725/43 85/188/43
f 84/190/44 83/726/44 88/191/44
f 92/193/45 95/727/45 93/194/45
f 92/196/46 90/728/46 89/197/46
f 91/199/47 89/729/47 94/200/47
f 96/202/48 94/730/48 93/203/48
f 89/205/30 90/731/30 93/206/30
f 95/208/31 92/732/31 91/209/31
f 103/211/49 101/733/49 98/212/49
f 100/214/50 98/734/50 97/215/50
f 104/217/51 99/735/51 97/218/51
f 103/220/52 104/736/52 102/221/52
f 102/223/53 97/737/53 98/224/53
f 100/226/54 99/738/54 104/227/54
f 111/229/55 109/739/55 106/230/55
f 107/232/56 108/740/56 106/233/56
f 112/235/57 107/741/57 105/236/57
f 112/238/58 110/742/58 109/239/58
f 110/241/53 105/669/53 106/242/53
f 111/244/54 108/743/54 107/245/54
f 119/247/59 117/744/134 114/248/59
f 115/250/56 116/745/56 114/251/56
f 120/253/60 115/746/60 113/254/60
f 120/256/58 118/747/58 117/257/58
f 118/259/61 113/748/61 114/260/61
f 116/262/62 115/749/62 120/263/62
f 127/265/63 125/750/63 122/266/63
f 124/268/56 122/751/56 121/269/56
f 123/271/64 121/752/64 126/272/64
f 127/274/58 128/753/58 126/275/58
f 126/277/65 121/754/65 122/278/65
f 124/280/66 123/755/66 128/281/66
f 132/283/67 135/756/67 133/284/67
f 132/286/56 130/757/56 129/287/56
f 131/289/68 129/758/68 134/290/68
f 135/292/58 136/759/58 134/245/58
f 129/294/69 130/62/69 133/295/69
f 135/155/70 132/153/70 131/297/70
f 143/299/20 141/760/20 138/300/20
f 140/302/2 138/761/2 137/303/2
f 139/305/21 137/762/21 142/306/21
f 144/308/4 142/763/4 141/309/4
f 137/311/12 138/764/12 141/312/12
f 140/314/13 139/765/13 144/315/13
f 151/317/20 149/766/20 146/318/20
f 148/320/2 146/566/2 145/113/2
f 147/322/21 145/767/21 150/323/21
f 152/325/4 150/117/4 149/326/4
f 145/26/12 146/768/12 149/328/12
f 148/167/13 147/769/13 152/330/13
f 159/332/20 157/770/20 154/333/20
f 156/335/2 154/19/2 153/336/2
f 155/338/21 153/771/21 158/339/21
f 160/341/4 158/652/4 157/90/4
f 153/343/12 154/772/12 157/344/12
f 156/124/13 155/773/13 160/346/13
f 167/348/71 165/774/71 162/349/71
f 164/351/2 162/775/2 161/352/2
f 163/354/72 161/776/72 166/355/72
f 168/357/4 166/777/4 165/358/4
f 161/360/73 162/778/73 165/361/73
f 164/363/74 163/559/74 168/364/74
f 172/366/75 175/779/75 173/367/75
f 171/369/76 172/780/76 170/370/76
f 171/372/77 169/781/77 174/373/77
f 175/375/78 176/782/78 174/376/78
f 169/378/73 170/783/73 173/379/73
f 175/381/74 172/784/74 171/382/74
f 183/384/79 181/785/79 178/385/79
f 180/387/80 178/786/80 177/388/80
f 184/390/81 179/787/81 177/391/81
f 184/393/82 182/788/82 181/394/82
f 177/396/73 178/789/73 181/397/73
f 180/399/74 179/790/74 184/400/74
f 191/402/20 189/791/20 186/403/20
f 188/405/2 186/792/2 185/406/2
f 187/408/21 185/793/21 190/409/21
f 192/411/4 190/794/4 189/21/4
f 185/413/12 186/795/12 189/414/12
f 188/416/13 187/796/13 192/417/13
f 199/419/20 197/797/20 194/420/20
f 196/422/83 194/798/83 193/423/83
f 200/425/21 195/799/21 193/426/21
f 200/428/84 198/800/84 197/429/84
f 193/430/85 194/801/85 197/431/85
f 196/433/86 195/802/86 200/434/86
f 204/436/20 207/803/20 205/437/20
f 204/439/86 202/804/86 201/440/86
f 203/441/21 201/803/21 206/436/21
f 208/442/85 206/805/85 205/443/85
f 201/445/83 202/806/83 205/446/83
f 204/448/84 203/807/84 208/449/84
f 215/106/87 213/698/87 210/107/87
f 212/109/2 210/699/2 209/110/2
f 211/112/88 209/106/88 214/108/88
f 216/114/4 214/700/4 213/115/4
f 209/117/89 210/701/89 213/118/89
f 212/120/90 211/702/90 216/121/90
f 223/451/20 221/808/20 218/452/20
f 220/454/2 218/809/2 217/455/2
f 219/457/21 217/810/21 222/458/21
f 224/460/4 222/811/4 221/461/4
f 217/463/12 218/812/12 221/464/12
f 220/466/13 219/813/13 224/467/13
f 231/469/91 229/814/91 226/470/91
f 228/472/92 226/815/92 225/473/92
f 227/475/93 225/816/93 230/476/93
f 232/478/94 230/817/94 229/116/94
f 225/480/12 226/818/12 229/481/12
f 228/483/13 227/819/13 232/484/13
f 239/486/95 237/820/95 234/487/95
f 235/489/2 236/564/2 234/490/2
f 235/491/96 233/501/96 238/492/96
f 240/494/4 238/821/4 237/51/4
f 233/496/97 234/822/97 237/497/97
f 236/498/98 235/823/98 240/445/98
f 247/500/99 245/412/99 242/501/99
f 243/502/2 244/562/2 242/503/2
f 243/504/100 241/824/100 246/505/100
f 248/507/4 246/563/4 245/508/4
f 241/510/101 242/825/101 245/511/101
f 244/513/102 243/826/102 248/438/102
f 255/515/103 253/827/103 250/516/103
f 252/518/104 250/828/104 249/519/104
f 251/521/105 249/829/105 254/522/105
f 256/524/106 254/830/106 253/525/106
f 249/527/12 250/831/12 253/528/12
f 252/530/13 251/832/13 256/531/13
f 263/533/107 261/424/107 258/412/108
f 259/534/109 260/833/109 258/535/109
f 264/537/110 259/834/111 257/538/111
f 264/540/112 262/835/112 261/541/112
f 257/543/113 258/836/113 261/544/113
f 260/545/114 259/837/114 264/546/114
f 268/548/115 271/838/115 269/549/115
f 268/551/109 266/839/109 265/552/109
f 272/533/116 267/840/116 265/371/116
f 272/554/112 270/841/112 269/555/112
f 265/557/117 266/842/135 269/558/117
f 268/547/118 267/546/136 272/560/118
f 279/500/99 277/412/99 274/501/99
f 276/562/2 274/503/2 273/49/2
f 275/504/100 273/824/100 278/505/100
f 279/509/4 280/507/4 278/563/4
f 273/510/101 274/825/101 277/511/101
f 276/513/102 275/826/102 280/438/102
f 287/486/95 285/820/95 282/487/95
f 284/564/2 282/490/2 281/444/2
f 283/491/96 281/501/96 286/492/96
f 288/494/4 286/821/4 285/51/4
f 281/496/97 282/822/97 285/497/97
f 284/498/98 283/823/98 288/445/98
f 295/565/119 293/843/119 290/566/119
f 292/568/2 290/844/2 289/569/2
f 291/571/120 289/37/120 294/572/120
f 295/574/4 296/845/4 294/575/4
f 289/577/121 290/846/121 293/578/121
f 292/579/122 291/847/122 296/1/122
f 303/581/123 301/848/123 298/582/123
f 299/584/2 300/849/2 298/585/2
f 299/587/124 297/850/124 302/588/124
f 304/590/4 302/851/4 301/591/4
f 297/593/125 298/852/125 301/594/125
f 300/596/126 299/853/126 304/597/126
f 311/599/127 309/854/127 306/600/127
f 308/602/2 306/855/2 305/603/2
f 307/605/5 305/856/5 310/606/5
f 311/608/4 312/857/4 310/609/4
f 305/93/1 306/858/1 309/611/1
f 308/613/3 307/859/3 312/614/3
f 319/616/128 317/860/128 314/617/128
f 316/619/2 314/861/2 313/620/2
f 315/622/129 313/862/129 318/623/129
f 319/625/4 320/863/4 318/626/4
f 313/628/130 314/864/130 317/629/130
f 316/631/131 315/865/131 320/632/131
f 327/634/128 325/866/128 322/635/128
f 324/637/2 322/867/2 321/16/2
f 323/639/129 321/868/129 326/640/129
f 327/642/4 328/869/4 326/643/4
f 321/645/130 322/870/130 325/646/130
f 324/648/131 323/871/131 328/649/131
f 335/651/14 333/658/14 330/652/14
f 332/654/2 330/872/2 329/655/2
f 331/657/16 329/100/16 334/658/16
f 335/659/4 336/873/4 334/660/4
f 329/662/132 330/874/132 333/663/132
f 332/664/133 331/29/133 336/665/133
