# Made in Blockbench 5.2.0
mtllib vietnamese_basic.mtl

o mesh
v 0.265625 1.203125 -0.125
v 0.265625 1.203125 -0.1875
v 0.265625 0.859375 -0.125
v 0.265625 0.859375 -0.1875
v -0.265625 1.203125 -0.125
v -0.265625 1.203125 -0.1875
v -0.265625 0.859375 -0.125
v -0.265625 0.859375 -0.1875
v -0.265625 1.171875 0.109375
v -0.25 1.203125 -0.1875
v -0.265625 0.953125 0.109375
v -0.25 0.859375 -0.1875
v -0.296875 1.171875 0.109375
v -0.28125 1.203125 -0.1875
v -0.296875 0.953125 0.109375
v -0.28125 0.859375 -0.1875
v 0.265625 1.171875 0.109375
v 0.25 1.203125 -0.1875
v 0.265625 0.953125 0.109375
v 0.25 0.859375 -0.1875
v 0.296875 1.171875 0.109375
v 0.28125 1.203125 -0.1875
v 0.296875 0.953125 0.109375
v 0.28125 0.859375 -0.1875
v -0.09375 1.15625 -0.1875
v -0.09375 1.15625 -0.265625
v -0.09375 0.875 -0.1875
v -0.09375 0.875 -0.265625
v -0.25 1.15625 -0.1875
v -0.25 1.15625 -0.265625
v -0.25 0.875 -0.1875
v -0.25 0.875 -0.265625
v 0.078125 1.15625 -0.1875
v 0.078125 1.15625 -0.265625
v 0.078125 0.875 -0.1875
v 0.078125 0.875 -0.265625
v -0.078125 1.15625 -0.1875
v -0.078125 1.15625 -0.265625
v -0.078125 0.875 -0.1875
v -0.078125 0.875 -0.265625
v 0.25 1.15625 -0.1875
v 0.25 1.15625 -0.265625
v 0.25 0.875 -0.1875
v 0.25 0.875 -0.265625
v 0.09375 1.15625 -0.1875
v 0.09375 1.15625 -0.265625
v 0.09375 0.875 -0.1875
v 0.09375 0.875 -0.265625
v 0.0625 1.2012352416718628 -0.17258713657755276
v 0.0625 1.2175147583281374 -0.26491286342244724
v -0.0625 1.2012352416718628 -0.17258713657755276
v -0.0625 1.2175147583281374 -0.26491286342244724
v 0.0625 1.0001886954155759 -0.2811920827703373
v 0.0625 1.2175147384224474 -0.26491274167186263
v -0.0625 1.0001886954155759 -0.2811920827703373
v -0.0625 1.2175147384224474 -0.26491274167186263
v 0.234375 1.2012352416718628 -0.17258713657755276
v 0.234375 1.2175147583281374 -0.26491286342244724
v 0.109375 1.2012352416718628 -0.17258713657755276
v 0.109375 1.2175147583281374 -0.26491286342244724
v 0.234375 1.0001886954155759 -0.2811920827703373
v 0.234375 1.2175147384224474 -0.26491274167186263
v 0.109375 1.0001886954155759 -0.2811920827703373
v 0.109375 1.2175147384224474 -0.26491274167186263
v 0.3769302265386252 1.109375 -0.07489771336170131
v 0.34987527479636227 1.109375 -0.19693471425169298
v 0.3769302265386252 0.921875 -0.07489771336170131
v 0.34987527479636227 0.921875 -0.19693471425169298
v 0.2548932256486335 1.109375 -0.047842761619438456
v 0.22783827390637063 1.109375 -0.16987976250943013
v 0.2548932256486335 0.921875 -0.047842761619438456
v 0.22783827390637063 0.921875 -0.16987976250943013
v -0.37765185402141616 1.109375 0.07465774921094924
v -0.3721994306007491 1.109375 -0.050223278486782985
v -0.37765185402141616 0.921875 0.07465774921094924
v -0.3721994306007491 0.921875 -0.050223278486782985
v -0.2527708263236839 1.109375 0.08011017263161624
v -0.24731840290301693 1.109375 -0.044770855066115986
v -0.2527708263236839 0.921875 0.08011017263161624
v -0.24731840290301693 0.921875 -0.044770855066115986
v -0.3769302265386252 1.109375 -0.07489771336170131
v -0.34987527479636227 1.109375 -0.19693471425169298
v -0.3769302265386252 0.921875 -0.07489771336170131
v -0.34987527479636227 0.921875 -0.19693471425169298
v -0.2548932256486335 1.109375 -0.047842761619438456
v -0.22783827390637063 1.109375 -0.16987976250943013
v -0.2548932256486335 0.921875 -0.047842761619438456
v -0.22783827390637063 0.921875 -0.16987976250943013
v 0.37765185402141616 1.109375 0.07465774921094924
v 0.3721994306007491 1.109375 -0.050223278486782985
v 0.37765185402141616 0.921875 0.07465774921094924
v 0.3721994306007491 0.921875 -0.050223278486782985
v 0.2527708263236839 1.109375 0.08011017263161624
v 0.24731840290301693 1.109375 -0.044770855066115986
v 0.2527708263236839 0.921875 0.08011017263161624
v 0.24731840290301693 0.921875 -0.044770855066115986
v 0.20643991163494635 1.192428596767409 -0.19005673406934487
v 0.23895782819877603 1.5622326576724603 -0.14689140445047283
v 0.14417774300421224 1.1977930749659986 -0.1891108318255112
v 0.17669565956804195 1.5675971358710499 -0.14594550220663915
v -0.2140725179501824 1.5647270050815003 0.15247675763822094
v -0.2378967667336099 1.5636657329569383 -0.14233407700750234
v -0.1520472756685509 1.5705395037072394 0.1474434506109582
v -0.1758715244519784 1.5694782315826774 -0.14736738403476501
v 0.2140725179501824 1.5647270050815003 0.15247675763822094
v 0.2378967667336099 1.5636657329569383 -0.14233407700750234
v 0.1520472756685509 1.5705395037072394 0.1474434506109582
v 0.1758715244519784 1.5694782315826774 -0.14736738403476501
v -0.20643991163494635 1.192428596767409 -0.19005673406934487
v -0.23895782819877603 1.5622326576724603 -0.14689140445047283
v -0.14417774300421224 1.1977930749659986 -0.1891108318255112
v -0.17669565956804195 1.5675971358710499 -0.14594550220663915
v 0.21875 1.571875 0.14687500000000012
v 0.21875 0.9156249999999999 0.14687499999999998
v -0.21875 1.571875 0.14687500000000012
v -0.21875 0.9156249999999999 0.14687499999999998
v 0.2181441972749699 0.9203125 0.14591145788897664
v 0.2925298913642462 0.9203125 0.03967767714524803
v 0.21814419727496986 1.1703125 0.14591145788897664
v 0.2925298913642462 1.1703125 0.039677677145248016
v -0.2181441972749699 0.9203125 0.14591145788897664
v -0.2925298913642462 0.9203125 0.03967767714524803
v -0.21814419727496986 1.1703125 0.14591145788897664
v -0.2925298913642462 1.1703125 0.039677677145248016
v -0.12911418203693018 1.2342554714437195 -0.1929185687494394
v -0.12849852710008905 1.2348046710268237 -0.2554131233027496
v -0.11382279194113591 1.1101978614701078 -0.19385814129771134
v -0.11320713700429479 1.110747061053212 -0.2563526958510215
v -0.2500678629957052 1.2193566889467882 -0.19424105414897852
v -0.2494522080588641 1.2199058885298923 -0.2567356087022887
v -0.23477647289991097 1.0952990789731765 -0.19518062669725042
v -0.23416081796306984 1.0958482785562806 -0.2576751812505606
v 0.05838581796306981 1.2030054714437195 -0.1929185687494394
v 0.05900147289991094 1.2035546710268237 -0.2554131233027496
v 0.07367720805886409 1.0789478614701078 -0.19385814129771134
v 0.07429286299570521 1.079497061053212 -0.2563526958510215
v -0.06256786299570523 1.1881066889467882 -0.19424105414897852
v -0.0619522080588641 1.1886558885298923 -0.2567356087022887
v -0.04727647289991095 1.0640490789731765 -0.19518062669725042
v -0.046660817963069826 1.0645982785562806 -0.2576751812505606
v 0.23026081796306982 1.2030054714437195 -0.1929185687494394
v 0.23087647289991095 1.2035546710268237 -0.2554131233027496
v 0.24555220805886407 1.0789478614701078 -0.19385814129771134
v 0.2461678629957052 1.079497061053212 -0.2563526958510215
v 0.10930713700429477 1.1881066889467882 -0.19424105414897852
v 0.1099227919411359 1.1886558885298923 -0.2567356087022887
v 0.12459852710008903 1.0640490789731765 -0.19518062669725042
v 0.12521418203693016 1.0645982785562806 -0.2576751812505606
vt 0.75 0.42500000000000004
vt 0.725 0.42500000000000004
vt 0.725 0.2875
vt 0.75 0.2875
vt 0.325 0.11250000000000004
vt 0.325 0.25
vt 0.3 0.25
vt 0.3 0.11250000000000004
vt 0.55 0.8
vt 0.7625 0.8
vt 0.7625 0.825
vt 0.55 0.825
vt 0.7625 0.75
vt 0.7625 0.775
vt 0.55 0.775
vt 0.55 0.75
vt 0.4125 0.8625
vt 0.4125 1
vt 0.2 1
vt 0.2 0.8625
vt 0.4125 0.825
vt 0.2 0.825
vt 0.2 0.6875
vt 0.4125 0.6875
vt 0.11875 0.7
vt 0 0.6875
vt 0 0.6
vt 0.11875 0.5625
vt 0.26875 0.55
vt 0.26875 0.6375
vt 0.15 0.65
vt 0.15 0.5125
vt 0.8523890745261591 0.5
vt 0.8530424658994198 0.48750000000000004
vt 0.9726109254738409 0.48750000000000004
vt 0.9719575341005802 0.5
vt 0.8625 0.54375
vt 0.8625 0.6684367410753846
vt 0.85 0.6690633113051155
vt 0.85 0.544376570229731
vt 0.4875 0.03749999999999998
vt 0.4875 0.125
vt 0.475 0.125
vt 0.475 0.03749999999999998
vt 0.5375 0.19999999999999996
vt 0.525 0.19999999999999996
vt 0.525 0.0625
vt 0.5375 0.0625
vt 0.41875 0.55
vt 0.41875 0.6375
vt 0.3 0.65
vt 0.3 0.5125
vt 0.56875 1
vt 0.45 0.9875
vt 0.45 0.9
vt 0.56875 0.8625
vt 0.65 0.15000000000000002
vt 0.65 0.03043154042557883
vt 0.6625 0.029778149052318015
vt 0.6625 0.14934660862673932
vt 0.9782816556525578 0.7125
vt 0.9776550854228269 0.725
vt 0.8529683443474422 0.725
vt 0.8535949145771731 0.7125
vt 0.5875 0.125
vt 0.575 0.125
vt 0.575 0.03749999999999998
vt 0.5875 0.03749999999999998
vt 0.2375 0.012499999999999956
vt 0.2375 0.15000000000000002
vt 0.225 0.15000000000000002
vt 0.225 0.012499999999999956
vt 0.73125 0.725
vt 0.7 0.725
vt 0.7 0.6125
vt 0.73125 0.6125
vt 0.73125 0.4625
vt 0.73125 0.575
vt 0.7 0.575
vt 0.7 0.4625
vt 0.775 0.31875
vt 0.8375 0.31875
vt 0.8375 0.35
vt 0.775 0.35
vt 0.8375 0.24375000000000002
vt 0.8375 0.275
vt 0.775 0.275
vt 0.775 0.24375000000000002
vt 0.5125 0.7125
vt 0.5125 0.825
vt 0.45 0.825
vt 0.45 0.7125
vt 0.5125 0.675
vt 0.45 0.675
vt 0.45 0.5625
vt 0.5125 0.5625
vt 0.03125 0.275
vt 0 0.275
vt 0 0.16249999999999998
vt 0.03125 0.16249999999999998
vt 0.40625 0.16249999999999998
vt 0.40625 0.275
vt 0.375 0.275
vt 0.375 0.16249999999999998
vt 0.8 0.84375
vt 0.8625 0.84375
vt 0.8625 0.875
vt 0.8 0.875
vt 0.8625 0.76875
vt 0.8625 0.8
vt 0.8 0.8
vt 0.8 0.76875
vt 0.0625 0.4125
vt 0.0625 0.525
vt 0 0.525
vt 0 0.4125
vt 0.5125 0.525
vt 0.45 0.525
vt 0.45 0.4125
vt 0.5125 0.4125
vt 0.48125 0.275
vt 0.45 0.275
vt 0.45 0.16249999999999998
vt 0.48125 0.16249999999999998
vt 0.60625 0.16249999999999998
vt 0.60625 0.275
vt 0.575 0.275
vt 0.575 0.16249999999999998
vt 0.775 0.16874999999999996
vt 0.8375 0.16874999999999996
vt 0.8375 0.19999999999999996
vt 0.775 0.19999999999999996
vt 0.9125 0.91875
vt 0.9125 0.95
vt 0.85 0.95
vt 0.85 0.91875
vt 0.1625 0.36250000000000004
vt 0.1625 0.475
vt 0.1 0.475
vt 0.1 0.36250000000000004
vt 0.2625 0.475
vt 0.2 0.475
vt 0.2 0.36250000000000004
vt 0.2625 0.36250000000000004
vt 0.125 0.11250000000000004
vt 0.125 0.15000000000000002
vt 0.075 0.15000000000000002
vt 0.075 0.11250000000000004
vt 0.6 0.6375
vt 0.6 0.725
vt 0.55 0.725
vt 0.55 0.6375
vt 0.2 0.11250000000000004
vt 0.2 0.15000000000000002
vt 0.15 0.15000000000000002
vt 0.15 0.11250000000000004
vt 0.6 0.5125
vt 0.6 0.6
vt 0.55 0.6
vt 0.55 0.5125
vt 0.7 0.42500000000000004
vt 0.65 0.42500000000000004
vt 0.65 0.35
vt 0.7 0.35
vt 0.625 0.30000000000000004
vt 0.625 0.375
vt 0.575 0.375
vt 0.575 0.30000000000000004
vt 0.775 0.9
vt 0.825 0.9
vt 0.825 0.95
vt 0.775 0.95
vt 0.075 0.17500000000000004
vt 0.125 0.17500000000000004
vt 0.125 0.22499999999999998
vt 0.075 0.22499999999999998
vt 0.125 0.25
vt 0.125 0.32499999999999996
vt 0.075 0.32499999999999996
vt 0.075 0.25
vt 0.275 0.32499999999999996
vt 0.225 0.32499999999999996
vt 0.225 0.25
vt 0.275 0.25
vt 0.05 0.30000000000000004
vt 0.05 0.375
vt 0 0.375
vt 0 0.30000000000000004
vt 0.6 0.475
vt 0.55 0.475
vt 0.55 0.4
vt 0.6 0.4
vt 0.2 0.22499999999999998
vt 0.15 0.22499999999999998
vt 0.15 0.17500000000000004
vt 0.2 0.17500000000000004
vt 0.275 0.22499999999999998
vt 0.225 0.22499999999999998
vt 0.225 0.17500000000000004
vt 0.275 0.17500000000000004
vt 0.425 0.375
vt 0.375 0.375
vt 0.375 0.30000000000000004
vt 0.425 0.30000000000000004
vt 0.5 0.30000000000000004
vt 0.5 0.375
vt 0.45 0.375
vt 0.45 0.30000000000000004
vt 0.725 0.925
vt 0.725 1
vt 0.675 1
vt 0.675 0.925
vt 0.35 0.35
vt 0.3 0.35
vt 0.3 0.275
vt 0.35 0.275
vt 0.825 0.725
vt 0.775 0.725
vt 0.775 0.675
vt 0.825 0.675
vt 0.825 0.65
vt 0.775 0.65
vt 0.775 0.6
vt 0.825 0.6
vt 0.2 0.32499999999999996
vt 0.15 0.32499999999999996
vt 0.15 0.25
vt 0.2 0.25
vt 0.7 0.25
vt 0.7 0.32499999999999996
vt 0.65 0.32499999999999996
vt 0.65 0.25
vt 0.675 0.725
vt 0.625 0.725
vt 0.625 0.65
vt 0.675 0.65
vt 0.65 0.925
vt 0.65 1
vt 0.6 1
vt 0.6 0.925
vt 0.775 0.525
vt 0.825 0.525
vt 0.825 0.575
vt 0.775 0.575
vt 0.775 0.44999999999999996
vt 0.825 0.44999999999999996
vt 0.825 0.5
vt 0.775 0.5
vt 0.675 0.55
vt 0.675 0.625
vt 0.625 0.625
vt 0.625 0.55
vt 0.675 0.525
vt 0.625 0.525
vt 0.625 0.44999999999999996
vt 0.675 0.44999999999999996
vt 0.6 0.875
vt 0.75 0.875
vt 0.75 0.9
vt 0.6 0.9
vt 0.75 1
vt 0.75 0.975
vt 0.86875 0.975
vt 0.86875 1
vt 0.725 0.25
vt 0.725 0.13124999999999998
vt 0.75 0.13124999999999998
vt 0.75 0.25
vt 0.55 0.375
vt 0.525 0.375
vt 0.525 0.22499999999999998
vt 0.55 0.22499999999999998
vt 0 1
vt 0 0.7375
vt 0.175 0.7375
vt 0.175 1
vt 0.375 0.4
vt 0.425 0.4
vt 0.425 0.5
vt 0.375 0.5
vt 0.3 0.475
vt 0.3 0.375
vt 0.35 0.375
vt 0.35 0.475
vt 0.875 0.4
vt 0.875 0.44999999999999996
vt 0.85 0.44999999999999996
vt 0.85 0.4
vt 0 0.09999999999999998
vt 0.05 0.09999999999999998
vt 0.05 0.125
vt 0 0.125
vt 0.4 0.09999999999999998
vt 0.4 0.125
vt 0.35 0.125
vt 0.35 0.09999999999999998
vt 0.45 0.125
vt 0.425 0.125
vt 0.425 0.07499999999999996
vt 0.45 0.07499999999999996
vt 0.7 0.17500000000000004
vt 0.7 0.22499999999999998
vt 0.65 0.22499999999999998
vt 0.65 0.17500000000000004
vt 0.775 0.375
vt 0.825 0.375
vt 0.825 0.42500000000000004
vt 0.775 0.42500000000000004
vt 0.875 0.4
vt 0.875 0.44999999999999996
vt 0.85 0.44999999999999996
vt 0.85 0.4
vt 0 0.09999999999999998
vt 0.05 0.09999999999999998
vt 0.05 0.125
vt 0 0.125
vt 0.4 0.09999999999999998
vt 0.4 0.125
vt 0.35 0.125
vt 0.35 0.09999999999999998
vt 0.45 0.125
vt 0.425 0.125
vt 0.425 0.07499999999999996
vt 0.45 0.07499999999999996
vt 0.7 0.17500000000000004
vt 0.7 0.22499999999999998
vt 0.65 0.22499999999999998
vt 0.65 0.17500000000000004
vt 0.775 0.375
vt 0.825 0.375
vt 0.825 0.42500000000000004
vt 0.775 0.42500000000000004
vt 0.875 0.4
vt 0.875 0.44999999999999996
vt 0.85 0.44999999999999996
vt 0.85 0.4
vt 0 0.09999999999999998
vt 0.05 0.09999999999999998
vt 0.05 0.125
vt 0 0.125
vt 0.4 0.09999999999999998
vt 0.4 0.125
vt 0.35 0.125
vt 0.35 0.09999999999999998
vt 0.45 0.125
vt 0.425 0.125
vt 0.425 0.07499999999999996
vt 0.45 0.07499999999999996
vt 0.7 0.17500000000000004
vt 0.7 0.22499999999999998
vt 0.65 0.22499999999999998
vt 0.65 0.17500000000000004
vt 0.775 0.375
vt 0.825 0.375
vt 0.825 0.42500000000000004
vt 0.775 0.42500000000000004
vn 1 0 0
vn -1 0 0
vn 0 1 0
vn 0 -1 0
vn 0 0 1
vn 0 0 -1
vn 0.9986178293325098 0 0.05255883312276367
vn -0.9986178293325098 0 -0.05255883312276367
vn 0 0.9945054529214061 0.10468478451804275
vn 0 -0.9535826651341418 0.3011313679370974
vn 0 0 1
vn 0 0 -1
vn -0.9986178293325098 0 0.05255883312276367
vn 0.9986178293325098 0 -0.05255883312276367
vn 0 0.9945054529214061 0.10468478451804275
vn 0 -0.9535826651341418 0.3011313679370974
vn 0 0 1
vn 0 0 -1
vn 1 0 0
vn -1 0 0
vn 0 1 0
vn 0 -1 0
vn 0 0 1
vn 0 0 -1
vn 1 0 0
vn -1 0 0
vn 0 1 0
vn 0 -1 0
vn 0 0 1
vn 0 0 -1
vn 1 0 0
vn -1 0 0
vn 0 1 0
vn 0 -1 0
vn 0 0 1
vn 0 0 -1
vn 0 0.9848077530122085 0.173648177666929
vn 0 -0.0746981791076666 0.997206188327168
vn 0 0.9848077530122085 0.173648177666929
vn 0 -0.0746981791076666 0.997206188327168
vn 0.9762960071199333 0 -0.2164396139381033
vn -0.9762960071199335 0 0.21643961393810288
vn 0 1 0
vn 0 -1 0
vn 0.21643961393810282 0 0.9762960071199335
vn -0.21643961393810293 0 -0.9762960071199335
vn -0.9990482215818578 0 -0.043619387365336326
vn 0.9990482215818578 0 0.04361938736533588
vn 0 1 0
vn 0 -1 0
vn -0.043619387365335986 0 0.9990482215818578
vn 0.04361938736533601 0 -0.9990482215818578
vn -0.9762960071199333 0 -0.2164396139381033
vn 0.9762960071199335 0 0.21643961393810288
vn 0 1 0
vn 0 -1 0
vn -0.21643961393810282 0 0.9762960071199335
vn 0.21643961393810293 0 -0.9762960071199335
vn 0.9990482215818578 0 -0.043619387365336326
vn -0.9990482215818578 0 0.04361938736533588
vn 0 1 0
vn 0 -1 0
vn 0.043619387365335986 0 0.9990482215818578
vn -0.04361938736533601 0 -0.9990482215818578
vn 0.005061979411497331 -0.11637536483702936 0.9931924037282435
vn -0.09298615064967236 0.9956596454010636 0.003930179027063323
vn 0.09298615064967236 0.9956596454010636 0.003930179027063325
vn -0.005061979411497445 -0.11637536483702934 0.9931924037282434
vn 0 2.1147105230955362e-16 -1
vn 0.8191520442889919 5.350472407832079e-17 0.5735764363510462
vn -0.8191520442889919 3.183988830096884e-17 0.5735764363510462
vn 0.9924404591489235 0.12224642048764135 0.010851162252628277
vn -0.9924404591489234 -0.12224642048764123 -0.010851162252628286
vn -0.12233112076635451 0.9924608797888943 0.007516580386174929
vn 0.12233112076635451 -0.9924608797888943 -0.007516580386174937
vn -0.009850478989458242 -0.008787193329667344 0.9999128728529629
vn 0.00985047898945779 0.008787193329667285 -0.9999128728529629
vn 0.9924404591489235 0.12224642048764146 0.010851162252628277
vn -0.9924404591489234 -0.12224642048764145 -0.010851162252628286
vn -0.12233112076635451 0.9924608797888943 0.007516580386174929
vn 0.12233112076635451 -0.9924608797888943 -0.007516580386174935
vn -0.00985047898945824 -0.008787193329667344 0.9999128728529629
vn 0.00985047898945779 0.008787193329667287 -0.9999128728529629
vn 0.9924404591489235 0.12224642048764124 0.010851162252628277
vn -0.9924404591489234 -0.12224642048764134 -0.010851162252628286
vn -0.1223311207663545 0.9924608797888943 0.00751658038617493
vn 0.12233112076635451 -0.9924608797888943 -0.007516580386174935
vn -0.00985047898945824 -0.00878719332966734 0.9999128728529629
vn 0.00985047898945779 0.008787193329667285 -0.9999128728529629
usemtl m_18cd4111-6c0e-4fd7-b42d-7d3528906fdd
f 2/1/1 1/2/1 3/3/1 4/4/1
f 7/5/2 5/6/2 6/7/2 8/8/2
f 5/9/3 1/10/3 2/11/3 6/12/3
f 4/13/4 3/14/4 7/15/4 8/16/4
f 3/17/5 1/18/5 5/19/5 7/20/5
f 6/21/6 2/22/6 4/23/6 8/24/6
f 10/25/7 9/26/7 11/27/7 12/28/7
f 15/29/8 13/30/8 14/31/8 16/32/8
f 13/33/9 9/34/9 10/35/9 14/36/9
f 12/37/10 11/38/10 15/39/10 16/40/10
f 11/41/11 9/42/11 13/43/11 15/44/11
f 14/45/12 10/46/12 12/47/12 16/48/12
f 19/49/13 17/50/13 18/51/13 20/52/13
f 22/53/14 21/54/14 23/55/14 24/56/14
f 18/57/15 17/58/15 21/59/15 22/60/15
f 23/61/16 19/62/16 20/63/16 24/64/16
f 21/65/17 17/66/17 19/67/17 23/68/17
f 20/69/18 18/70/18 22/71/18 24/72/18
f 26/73/19 25/74/19 27/75/19 28/76/19
f 31/77/20 29/78/20 30/79/20 32/80/20
f 29/81/21 25/82/21 26/83/21 30/84/21
f 28/85/22 27/86/22 31/87/22 32/88/22
f 27/89/23 25/90/23 29/91/23 31/92/23
f 30/93/24 26/94/24 28/95/24 32/96/24
f 34/97/25 33/98/25 35/99/25 36/100/25
f 39/101/26 37/102/26 38/103/26 40/104/26
f 37/105/27 33/106/27 34/107/27 38/108/27
f 36/109/28 35/110/28 39/111/28 40/112/28
f 35/113/29 33/114/29 37/115/29 39/116/29
f 38/117/30 34/118/30 36/119/30 40/120/30
f 42/121/31 41/122/31 43/123/31 44/124/31
f 47/125/32 45/126/32 46/127/32 48/128/32
f 45/129/33 41/130/33 42/131/33 46/132/33
f 44/133/34 43/134/34 47/135/34 48/136/34
f 43/137/35 41/138/35 45/139/35 47/140/35
f 46/141/36 42/142/36 44/143/36 48/144/36
f 49/145/37 50/146/37 52/147/37 51/148/37
f 53/149/38 54/150/38 56/151/38 55/152/38
f 57/153/39 58/154/39 60/155/39 59/156/39
f 61/157/40 62/158/40 64/159/40 63/160/40
f 66/161/41 65/162/41 67/163/41 68/164/41
f 71/165/42 69/166/42 70/167/42 72/168/42
f 69/169/43 65/170/43 66/171/43 70/172/43
f 68/173/44 67/174/44 71/175/44 72/176/44
f 67/177/45 65/178/45 69/179/45 71/180/45
f 70/181/46 66/182/46 68/183/46 72/184/46
f 75/185/47 73/186/47 74/187/47 76/188/47
f 78/189/48 77/190/48 79/191/48 80/192/48
f 74/193/49 73/194/49 77/195/49 78/196/49
f 79/197/50 75/198/50 76/199/50 80/200/50
f 77/201/51 73/202/51 75/203/51 79/204/51
f 76/205/52 74/206/52 78/207/52 80/208/52
f 83/209/53 81/210/53 82/211/53 84/212/53
f 86/213/54 85/214/54 87/215/54 88/216/54
f 82/217/55 81/218/55 85/219/55 86/220/55
f 87/221/56 83/222/56 84/223/56 88/224/56
f 85/225/57 81/226/57 83/227/57 87/228/57
f 84/229/58 82/230/58 86/231/58 88/232/58
f 90/233/59 89/234/59 91/235/59 92/236/59
f 95/237/60 93/238/60 94/239/60 96/240/60
f 93/241/61 89/242/61 90/243/61 94/244/61
f 92/245/62 91/246/62 95/247/62 96/248/62
f 91/249/63 89/250/63 93/251/63 95/252/63
f 94/253/64 90/254/64 92/255/64 96/256/64
f 97/257/65 98/258/65 100/259/65 99/260/65
f 104/261/66 102/262/66 101/263/66 103/264/66
f 105/265/67 106/266/67 108/267/67 107/268/67
f 112/269/68 110/270/68 109/271/68 111/272/68
f 113/273/69 114/274/69 116/275/69 115/276/69
f 117/277/70 118/278/70 120/279/70 119/280/70
f 124/281/71 122/282/71 121/283/71 123/284/71
f 128/285/72 126/286/72 125/287/72 127/288/72
f 131/289/73 129/290/73 130/291/73 132/292/73
f 125/293/74 126/294/74 130/295/74 129/296/74
f 128/297/75 127/298/75 131/299/75 132/300/75
f 127/301/76 125/302/76 129/303/76 131/304/76
f 132/305/77 130/306/77 126/307/77 128/308/77
f 136/309/78 134/310/78 133/311/78 135/312/78
f 139/313/79 137/314/79 138/315/79 140/316/79
f 133/317/80 134/318/80 138/319/80 137/320/80
f 136/321/81 135/322/81 139/323/81 140/324/81
f 135/325/82 133/326/82 137/327/82 139/328/82
f 140/329/83 138/330/83 134/331/83 136/332/83
f 144/333/84 142/334/84 141/335/84 143/336/84
f 147/337/85 145/338/85 146/339/85 148/340/85
f 141/341/86 142/342/86 146/343/86 145/344/86
f 144/345/87 143/346/87 147/347/87 148/348/87
f 143/349/88 141/350/88 145/351/88 147/352/88
f 148/353/89 146/354/89 142/355/89 144/356/89
