# Made in Blockbench 5.2.1
mtllib a_police_b_l.mtl

o cube
v 0.0546875 0.046875 -0.015625
v 0.0421875 0.046875 -0.203125
v 0.0546875 -0.03125 -0.015625
v 0.0421875 -0.03125 -0.203125
v -0.3046875 0.046875 -0.015625
v -0.2921875 0.046875 -0.203125
v -0.3046875 -0.03125 -0.015625
v -0.2921875 -0.03125 -0.203125
v 0.0234375 0.125 0.15625
v 0.0234375 0.125 -0.15625
v 0.0234375 -0.02031250000000001 0.15625
v 0.0234375 -0.02031250000000001 -0.15625
v -0.2734375 0.125 0.15625
v -0.2734375 0.125 -0.15625
v -0.2734375 -0.02031250000000001 0.15625
v -0.2734375 -0.02031250000000001 -0.15625
v 0.050932419637181474 0.1608004311977515 -0.038319340687980985
v -0.0110328841986817 0.16186526324260558 -0.04640743398896452
v 0.05093240539898263 0.09883512748369971 -0.04647722862697101
v -0.011032898436880541 0.0998999595285538 -0.054565321927954546
v 0.020340343335653568 0.13047007781943792 0.19206259253706193
v -0.041624960500209605 0.131534909864292 0.1839744992360784
v 0.020340329097454726 0.06850477410538608 0.1839047045980719
v -0.04162497473840845 0.06956960615024016 0.17581661129708837
v -0.0078125 0.13104323591124206 0.1877090939828382
v -0.0078125 0.1392011229249953 0.12574379014697507
v -0.0078125 0.06907793207537893 0.17955120696908494
v -0.0078125 0.07723581908913218 0.11758590313322183
v -0.2421875 0.13104323591124206 0.1877090939828382
v -0.2421875 0.1392011229249953 0.12574379014697507
v -0.2421875 0.06907793207537893 0.17955120696908494
v -0.2421875 0.07723581908913218 0.11758590313322183
v -0.27034042672970165 0.13046999694805622 0.1920627977544782
v -0.2083751228938385 0.1315348289929103 0.18397470445349468
v -0.2703404124915028 0.06850469323400443 0.18390490981548818
v -0.20837510865563966 0.06956952527885851 0.17581681651450465
v -0.3009325030312296 0.1608003503263698 -0.038319135470564675
v -0.2389671991953664 0.16186518237122388 -0.04640722877154824
v -0.30093248879303075 0.09883504661231801 -0.0464770234095547
v -0.23896718495716757 0.09989987865717209 -0.054565116710538264
v -0.0078125 0.15625 -0.109375
v -0.0078125 0.15625 -0.171875
v -0.0078125 0.03125 -0.109375
v -0.0078125 0.03125 -0.171875
v -0.2421875 0.15625 -0.109375
v -0.2421875 0.15625 -0.171875
v -0.2421875 0.03125 -0.109375
v -0.2421875 0.03125 -0.171875
v 0.0390625 0.12298017503951464 -0.02706017059955869
v 0.0390625 0.051227031471060336 -0.20028758294542492
v 0.0390625 0.050802086562070414 0.002836972553963951
v 0.0390625 -0.02095105700638389 -0.1703904397919023
v -0.2890625 0.12298017503951464 -0.02706017059955869
v -0.2890625 0.051227031471060336 -0.20028758294542492
v -0.2890625 0.050802086562070414 0.002836972553963951
v -0.2890625 -0.02095105700638389 -0.1703904397919023
v 0.03281250000000002 0.1579801569204038 -0.0698618332733632
v 0.03281250000000002 0.0973505625993506 -0.09497543352232224
v 0.03281250000000002 0.1280830137668812 0.002316255204081019
v 0.03281250000000002 0.067453419445828 -0.022797345044878015
v -0.2828125 0.1579801569204038 -0.0698618332733632
v -0.2828125 0.0973505625993506 -0.09497543352232224
v -0.2828125 0.1280830137668812 0.002316255204081019
v -0.2828125 0.067453419445828 -0.022797345044878015
v 0.0546875 0.03125 0.171875
v 0.0546875 0.03125 0.046875
v 0.0546875 -0.03125 0.171875
v 0.0546875 -0.03125 0.046875
v -0.3046875 0.03125 0.171875
v -0.3046875 0.03125 0.046875
v -0.3046875 -0.03125 0.171875
v -0.3046875 -0.03125 0.046875
vt 0.3125 0.296875
vt 0.3125 0.34375
vt 0.21875 0.34375
vt 0.21875 0.296875
vt 0.4375 0.296875
vt 0.4375 0.34375
vt 0.34375 0.34375
vt 0.34375 0.296875
vt 0.37109375 0.90625
vt 0.36484375 1
vt 0.19765625 1
vt 0.19140625 0.90625
vt 0.36484375 0.78125
vt 0.37109375 0.875
vt 0.19140625 0.875
vt 0.19765625 0.78125
vt 0.1875 0.453125
vt 0.1875 0.5
vt 0 0.5
vt 0 0.453125
vt 0.390625 0.390625
vt 0.390625 0.4375
vt 0.21875 0.4375
vt 0.21875 0.390625
vt 0.5625 0.921875
vt 0.5625 1
vt 0.40625 1
vt 0.40625 0.921875
vt 0.5625 0.671875
vt 0.5625 0.75
vt 0.40625 0.75
vt 0.40625 0.671875
vt 0 1
vt 0 0.84375
vt 0.15625 0.84375
vt 0.15625 1
vt 0 0.65625
vt 0 0.8125
vt 0.15625 0.8125
vt 0.15625 0.65625
vt 0.5625 0.796875
vt 0.5625 0.875
vt 0.40625 0.875
vt 0.40625 0.796875
vt 0.375 0.546875
vt 0.375 0.625
vt 0.21875 0.625
vt 0.21875 0.546875
vt 0.1875 0.28125
vt 0.1875 0.3125
vt 0.15625 0.3125
vt 0.15625 0.28125
vt 0.03125 0.15625
vt 0.03125 0.1875
vt 0 0.1875
vt 0 0.15625
vt 0.59375 0.28125
vt 0.59375 0.25
vt 0.71875 0.25
vt 0.71875 0.28125
vt 0 0.21875
vt 0 0.25
vt 0.125 0.25
vt 0.125 0.21875
vt 0.125 0.28125
vt 0.125 0.3125
vt 0 0.3125
vt 0 0.28125
vt 0.71875 0.3125
vt 0.71875 0.34375
vt 0.59375 0.34375
vt 0.59375 0.3125
vt 0.09375 0.15625
vt 0.09375 0.1875
vt 0.0625 0.1875
vt 0.0625 0.15625
vt 0.15625 0.15625
vt 0.15625 0.1875
vt 0.125 0.1875
vt 0.125 0.15625
vt 0.75 0.875
vt 0.75 0.84375
vt 0.875 0.84375
vt 0.875 0.875
vt 0.15625 0.21875
vt 0.15625 0.25
vt 0.28125 0.25
vt 0.28125 0.21875
vt 0.875 0.90625
vt 0.875 0.9375
vt 0.75 0.9375
vt 0.75 0.90625
vt 0.875 0.96875
vt 0.875 1
vt 0.75 1
vt 0.75 0.96875
vt 0.21875 0.15625
vt 0.21875 0.1875
vt 0.1875 0.1875
vt 0.1875 0.15625
vt 0.28125 0.15625
vt 0.28125 0.1875
vt 0.25 0.1875
vt 0.25 0.15625
vt 0.75 0.28125
vt 0.75 0.25
vt 0.875 0.25
vt 0.875 0.28125
vt 0.78125 0.78125
vt 0.78125 0.8125
vt 0.90625 0.8125
vt 0.90625 0.78125
vt 0.875 0.3125
vt 0.875 0.34375
vt 0.75 0.34375
vt 0.75 0.3125
vt 0.4375 0.21875
vt 0.4375 0.25
vt 0.3125 0.25
vt 0.3125 0.21875
vt 0.5 0.1875
vt 0.5 0.25
vt 0.46875 0.25
vt 0.46875 0.1875
vt 0.5625 0.1875
vt 0.5625 0.25
vt 0.53125 0.25
vt 0.53125 0.1875
vt 0.78125 0.75
vt 0.78125 0.71875
vt 0.90625 0.71875
vt 0.90625 0.75
vt 0.78125 0.65625
vt 0.78125 0.6875
vt 0.90625 0.6875
vt 0.90625 0.65625
vt 0.71875 0.84375
vt 0.71875 0.90625
vt 0.59375 0.90625
vt 0.59375 0.84375
vt 0.71875 0.9375
vt 0.71875 1
vt 0.59375 1
vt 0.59375 0.9375
vt 0.5625 0.296875
vt 0.5625 0.34375
vt 0.46875 0.34375
vt 0.46875 0.296875
vt 0.75 0.390625
vt 0.75 0.4375
vt 0.65625 0.4375
vt 0.65625 0.390625
vt 0.1875 0.75
vt 0.1875 0.65625
vt 0.359375 0.65625
vt 0.359375 0.75
vt 0 0.53125
vt 0 0.625
vt 0.171875 0.625
vt 0.171875 0.53125
vt 0.171875 0.359375
vt 0.171875 0.40625
vt 0 0.40625
vt 0 0.359375
vt 0.609375 0.390625
vt 0.609375 0.4375
vt 0.4375 0.4375
vt 0.4375 0.390625
vt 0.71875 0.171875
vt 0.71875 0.21875
vt 0.6875 0.21875
vt 0.6875 0.171875
vt 0.78125 0.171875
vt 0.78125 0.21875
vt 0.75 0.21875
vt 0.75 0.171875
vt 0.21875 0.5
vt 0.21875 0.46875
vt 0.375 0.46875
vt 0.375 0.5
vt 0.625 0.46875
vt 0.625 0.5
vt 0.78125 0.5
vt 0.78125 0.46875
vt 0.75 0.671875
vt 0.75 0.71875
vt 0.59375 0.71875
vt 0.59375 0.671875
vt 0.75 0.765625
vt 0.75 0.8125
vt 0.59375 0.8125
vt 0.59375 0.765625
vt 0.84375 0.40625
vt 0.84375 0.4375
vt 0.78125 0.4375
vt 0.78125 0.40625
vt 0.65625 0.1875
vt 0.65625 0.21875
vt 0.59375 0.21875
vt 0.59375 0.1875
vt 0.40625 0.625
vt 0.40625 0.5625
vt 0.59375 0.5625
vt 0.59375 0.625
vt 0.40625 0.46875
vt 0.40625 0.53125
vt 0.59375 0.53125
vt 0.59375 0.46875
vt 0.8125 0.53125
vt 0.8125 0.5625
vt 0.625 0.5625
vt 0.625 0.53125
vt 0.8125 0.59375
vt 0.8125 0.625
vt 0.625 0.625
vt 0.625 0.59375
vn 0.9977851578566089 0 -0.06651901052377392
vn -0.9977851578566089 0 -0.06651901052377399
vn 0 1 0
vn 0 -1 0
vn 0 0 1
vn 0 0 -1
vn 1 0 0
vn -1 0 0
vn 0 1 0
vn 0 -1 0
vn 0 0 1
vn 0 0 -1
vn 0.1305261922198521 0.1294095077474713 -0.9829629150935164
vn -0.13052619221985215 -0.1294095077474712 0.9829629150935165
vn 2.2781118172443546e-7 0.9914448594248285 0.13052620702384043
vn -2.2781118169297914e-7 -0.9914448594248285 -0.13052620702384066
vn 0.9914448613738105 -0.01703731271766507 0.12940949281573683
vn -0.9914448613738105 0.017037312717665055 -0.1294094928157368
vn 1 0 0
vn -1 0 0
vn 0 0.9914448613738104 0.13052619222005207
vn 0 -0.9914448613738104 -0.13052619222005207
vn 0 -0.13052619222005207 0.9914448613738104
vn 0 0.13052619222005185 -0.9914448613738104
vn 0.13052619221985212 -0.1294095077474713 0.9829629150935164
vn -0.13052619221985254 0.1294095077474713 -0.9829629150935163
vn -2.2781118172258514e-7 0.9914448594248285 0.13052620702384043
vn 2.2781118172258514e-7 -0.9914448594248285 -0.13052620702384043
vn -0.9914448613738105 -0.01703731271766509 0.12940949281573694
vn 0.9914448613738105 0.017037312717665076 -0.12940949281573683
vn 1 0 0
vn -1 0 0
vn 0 1 0
vn 0 -1 0
vn 0 0 1
vn 0 0 -1
vn 1 0 0
vn -1 0 0
vn 0 0.9238795325112868 -0.38268343236508967
vn 0 -0.9238795325112868 0.38268343236508967
vn 0 0.3826834323650901 0.9238795325112868
vn 0 -0.38268343236509 -0.9238795325112868
vn 1 0 0
vn -1 0 0
vn 0 0.38268343236509 -0.9238795325112867
vn 0 -0.38268343236509 0.9238795325112867
vn 0 0.923879532511287 0.3826834323650896
vn 0 -0.923879532511287 -0.3826834323650896
vn 1 0 0
vn -1 0 0
vn 0 1 0
vn 0 -1 0
vn 0 0 1
vn 0 0 -1
usemtl m_22a3f194-1697-903b-ec4d-9a3a932dc2df
f 4/1/1 2/2/1 1/3/1 3/4/1
f 7/5/2 5/6/2 6/7/2 8/8/2
f 1/9/3 2/10/3 6/11/3 5/12/3
f 4/13/4 3/14/4 7/15/4 8/16/4
f 3/17/5 1/18/5 5/19/5 7/20/5
f 8/21/6 6/22/6 2/23/6 4/24/6
f 12/25/7 10/26/7 9/27/7 11/28/7
f 15/29/8 13/30/8 14/31/8 16/32/8
f 9/33/9 10/34/9 14/35/9 13/36/9
f 12/37/10 11/38/10 15/39/10 16/40/10
f 11/41/11 9/42/11 13/43/11 15/44/11
f 16/45/12 14/46/12 10/47/12 12/48/12
f 20/49/13 18/50/13 17/51/13 19/52/13
f 23/53/14 21/54/14 22/55/14 24/56/14
f 17/57/15 18/58/15 22/59/15 21/60/15
f 20/61/16 19/62/16 23/63/16 24/64/16
f 19/65/17 17/66/17 21/67/17 23/68/17
f 24/69/18 22/70/18 18/71/18 20/72/18
f 28/73/19 26/74/19 25/75/19 27/76/19
f 31/77/20 29/78/20 30/79/20 32/80/20
f 25/81/21 26/82/21 30/83/21 29/84/21
f 28/85/22 27/86/22 31/87/22 32/88/22
f 27/89/23 25/90/23 29/91/23 31/92/23
f 32/93/24 30/94/24 26/95/24 28/96/24
f 36/97/25 34/98/25 33/99/25 35/100/25
f 39/101/26 37/102/26 38/103/26 40/104/26
f 33/105/27 34/106/27 38/107/27 37/108/27
f 36/109/28 35/110/28 39/111/28 40/112/28
f 35/113/29 33/114/29 37/115/29 39/116/29
f 40/117/30 38/118/30 34/119/30 36/120/30
f 44/121/31 42/122/31 41/123/31 43/124/31
f 47/125/32 45/126/32 46/127/32 48/128/32
f 41/129/33 42/130/33 46/131/33 45/132/33
f 44/133/34 43/134/34 47/135/34 48/136/34
f 43/137/35 41/138/35 45/139/35 47/140/35
f 48/141/36 46/142/36 42/143/36 44/144/36
f 52/145/37 50/146/37 49/147/37 51/148/37
f 55/149/38 53/150/38 54/151/38 56/152/38
f 49/153/39 50/154/39 54/155/39 53/156/39
f 52/157/40 51/158/40 55/159/40 56/160/40
f 51/161/41 49/162/41 53/163/41 55/164/41
f 56/165/42 54/166/42 50/167/42 52/168/42
f 60/169/43 58/170/43 57/171/43 59/172/43
f 63/173/44 61/174/44 62/175/44 64/176/44
f 57/177/45 58/178/45 62/179/45 61/180/45
f 60/181/46 59/182/46 63/183/46 64/184/46
f 59/185/47 57/186/47 61/187/47 63/188/47
f 64/189/48 62/190/48 58/191/48 60/192/48
f 68/193/49 66/194/49 65/195/49 67/196/49
f 71/197/50 69/198/50 70/199/50 72/200/50
f 65/201/51 66/202/51 70/203/51 69/204/51
f 68/205/52 67/206/52 71/207/52 72/208/52
f 67/209/53 65/210/53 69/211/53 71/212/53
f 72/213/54 70/214/54 66/215/54 68/216/54
