# Made in Blockbench 5.2.1
mtllib base_b_r.mtl

o cube
v 0.2421875 0.3252303537040354 -0.11698257969817494
v 0.2421875 0.3208705740950276 -0.17933033283941394
v 0.2421875 0.07583934113907931 -0.09954346126214361
v 0.2421875 0.07147956153007151 -0.16189121440338264
v 0.0078125 0.3252303537040354 -0.11698257969817494
v 0.0078125 0.3208705740950276 -0.17933033283941394
v 0.0078125 0.07583934113907931 -0.09954346126214361
v 0.0078125 0.07147956153007151 -0.16189121440338264
v 0.30093259224443947 0.31705026407988157 -0.03831910010040071
v 0.2389672884085763 0.31811509612473554 -0.04640719340138427
v 0.3009325780062406 0.2550849603658297 -0.04647698803939074
v 0.23896727417037747 0.2561497924106838 -0.0545650813403743
v 0.27034051594291153 0.2867199107015679 0.19206283312464226
v 0.2083752121070484 0.2877847427464221 0.18397473982365867
v 0.2703405017047127 0.22475460698751615 0.1839049451856522
v 0.20837519786884956 0.22581943903237023 0.17581685188466867
v 0.26093749999999993 0.2812499999999999 0.15624999999999994
v 0.26093749999999993 0.28125 -0.15624999999999997
v 0.26093749999999993 -0.020312499999999956 0.15625000000000003
v 0.26093749999999993 -0.020312499999999956 -0.15624999999999997
v -0.010937499999999933 0.2812500000000001 0.15625
v -0.010937500000000044 0.2812499999999999 -0.15625
v -0.010937499999999933 -0.020312499999999956 0.15624999999999997
v -0.010937499999999933 -0.02031250000000001 -0.15624999999999994
v 0.24218749999999997 0.2872930577633086 0.1877094160193166
v 0.24218749999999997 0.2954509447770616 0.1257441121834534
v 0.24218749999999997 0.22532775392744553 0.17955152900556334
v 0.24218749999999997 0.23348564094119884 0.11758622516970023
v 0.0078125 0.2872930577633086 0.1877094160193166
v 0.007812500000000028 0.2954509447770617 0.12574411218345344
v 0.0078125 0.22532775392744553 0.1795515290055634
v 0.007812500000000028 0.23348564094119872 0.11758622516970019
v -0.020340599336959753 0.2867198298301864 0.1920630383420585
v 0.041624704498903486 0.28778466187504026 0.1839749450410749
v -0.02034058509876091 0.22475452611613445 0.18390515040306843
v 0.0416247187371023 0.22581935816098841 0.1758170571020849
v -0.05093267563848769 0.31705018320849965 -0.03831889488298437
v 0.011032628197375605 0.31811501525335395 -0.04640698818396796
v -0.05093266140028885 0.2550848794944479 -0.04647678282197444
v 0.011032642435574419 0.2561497115393021 -0.05456487612295799
v 0.29218749999999993 0.09999999999999998 0.015625
v 0.25468749999999996 0.07812500000000006 -0.22499999999999998
v 0.2890625 -0.03125000000000003 0.015625
v 0.2640625 -0.031250000000000056 -0.21874999999999994
v -0.04218749999999993 0.09999999999999998 0.015625
v -0.004687500000000039 0.07812500000000006 -0.22499999999999987
v -0.0390625 -0.03125 0.015625000000000007
v -0.014062499999999978 -0.031250000000000056 -0.21874999999999994
v 0.2890625 0.17104450224365075 -0.021080951343356635
v 0.2265625 0.08733250141378734 -0.22317959908020052
v 0.2890625 0.08443079607071774 0.01479562044087053
v 0.24531249999999996 0.0007187952408542753 -0.18730302729597342
v -0.0390625 0.17104450224365075 -0.021080951343356635
v 0.0234375 0.08733250141378734 -0.22317959908020052
v -0.0390625 0.08443079607071768 0.014795620440870516
v 0.004687499999999983 0.0007187952408542753 -0.18730302729597337
v 0.2828125 0.2734650984843148 -0.02202640422772706
v 0.2578125 0.09735056259935065 -0.09497543352232224
v 0.2828125 0.24356795533079212 0.05015168424971721
v 0.2828125 0.06745341944582806 -0.022797345044877987
v -0.03281250000000002 0.2734650984843148 -0.022026404227727073
v -0.0078125 0.09735056259935077 -0.09497543352232224
v -0.03281250000000002 0.24356795533079212 0.050151684249717235
v -0.03281250000000002 0.06745341944582806 -0.022797345044877973
v 0.26093749999999993 0.07812499999999994 0.17187499999999997
v 0.2796875 0.09374999999999989 0.046874999999999986
v 0.2671875 -0.03125000000000003 0.17187499999999997
v 0.28593749999999996 -0.031250000000000056 0.046874999999999986
v -0.010937499999999933 0.07812499999999994 0.17187499999999997
v -0.029687499999999978 0.09374999999999989 0.046874999999999986
v -0.017187500000000022 -0.03125000000000003 0.17187499999999997
v -0.035937499999999956 -0.03125 0.046874999999999986
vt 0.7916666666666666 0.10416666666666663
vt 0.7916666666666666 0.1875
vt 0.7708333333333334 0.1875
vt 0.7708333333333334 0.10416666666666663
vt 0.8333333333333334 0.10416666666666663
vt 0.8333333333333334 0.1875
vt 0.8125 0.1875
vt 0.8125 0.10416666666666663
vt 0.08333333333333333 0.14583333333333337
vt 0.08333333333333333 0.16666666666666663
vt 0 0.16666666666666663
vt 0 0.14583333333333337
vt 0.1875 0.14583333333333337
vt 0.1875 0.16666666666666663
vt 0.10416666666666667 0.16666666666666663
vt 0.10416666666666667 0.14583333333333337
vt 0.6041666666666666 0.8125
vt 0.6041666666666666 0.8958333333333334
vt 0.5208333333333334 0.8958333333333334
vt 0.5208333333333334 0.8125
vt 0.22916666666666666 0.41666666666666663
vt 0.22916666666666666 0.5
vt 0.14583333333333334 0.5
vt 0.14583333333333334 0.41666666666666663
vt 0.6666666666666666 0.6041666666666667
vt 0.6666666666666666 0.625
vt 0.6458333333333334 0.625
vt 0.6458333333333334 0.6041666666666667
vt 0.6875 0.375
vt 0.6875 0.39583333333333337
vt 0.6666666666666666 0.39583333333333337
vt 0.6666666666666666 0.375
vt 0.6666666666666666 0.20833333333333337
vt 0.6666666666666666 0.22916666666666663
vt 0.5833333333333334 0.22916666666666663
vt 0.5833333333333334 0.20833333333333337
vt 0.7708333333333334 0.20833333333333337
vt 0.7708333333333334 0.22916666666666663
vt 0.6875 0.22916666666666663
vt 0.6875 0.20833333333333337
vt 0.5625 0.20833333333333337
vt 0.5625 0.22916666666666663
vt 0.4791666666666667 0.22916666666666663
vt 0.4791666666666667 0.20833333333333337
vt 0.8541666666666666 0.6458333333333333
vt 0.8541666666666666 0.6666666666666667
vt 0.7708333333333334 0.6666666666666667
vt 0.7708333333333334 0.6458333333333333
vt 0.10416666666666667 0.8958333333333334
vt 0.10416666666666667 1
vt 0 1
vt 0 0.8958333333333334
vt 0.10416666666666667 0.7708333333333334
vt 0.10416666666666667 0.875
vt 0 0.875
vt 0 0.7708333333333334
vt 0.09375 0.6458333333333333
vt 0.09375 0.75
vt 0 0.75
vt 0 0.6458333333333333
vt 0.34375 0.8958333333333334
vt 0.34375 1
vt 0.25 1
vt 0.25 0.8958333333333334
vt 0.21875 0.6458333333333333
vt 0.21875 0.75
vt 0.125 0.75
vt 0.125 0.6458333333333333
vt 0.34375 0.7708333333333334
vt 0.34375 0.875
vt 0.25 0.875
vt 0.25 0.7708333333333334
vt 0.7291666666666666 0.375
vt 0.7291666666666666 0.39583333333333337
vt 0.7083333333333334 0.39583333333333337
vt 0.7083333333333334 0.375
vt 0.875 0.35416666666666663
vt 0.875 0.375
vt 0.8541666666666666 0.375
vt 0.8541666666666666 0.35416666666666663
vt 0.875 0.20833333333333337
vt 0.875 0.22916666666666663
vt 0.7916666666666666 0.22916666666666663
vt 0.7916666666666666 0.20833333333333337
vt 0.5416666666666666 0.16666666666666663
vt 0.5416666666666666 0.1875
vt 0.4583333333333333 0.1875
vt 0.4583333333333333 0.16666666666666663
vt 0.3541666666666667 0.1875
vt 0.3541666666666667 0.20833333333333337
vt 0.2708333333333333 0.20833333333333337
vt 0.2708333333333333 0.1875
vt 0.08333333333333333 0.1875
vt 0.08333333333333333 0.20833333333333337
vt 0 0.20833333333333337
vt 0 0.1875
vt 0.75 0.125
vt 0.75 0.14583333333333337
vt 0.7291666666666666 0.14583333333333337
vt 0.7291666666666666 0.125
vt 0.8958333333333334 0.9791666666666666
vt 0.8958333333333334 1
vt 0.875 1
vt 0.875 0.9791666666666666
vt 0.8958333333333334 0.29166666666666663
vt 0.8958333333333334 0.3125
vt 0.8125 0.3125
vt 0.8125 0.29166666666666663
vt 0.8958333333333334 0.25
vt 0.8958333333333334 0.27083333333333337
vt 0.8125 0.27083333333333337
vt 0.8125 0.25
vt 0.75 0.16666666666666663
vt 0.75 0.1875
vt 0.6666666666666666 0.1875
vt 0.6666666666666666 0.16666666666666663
vt 0.6458333333333334 0.16666666666666663
vt 0.6458333333333334 0.1875
vt 0.5625 0.1875
vt 0.5625 0.16666666666666663
vt 0.6718161120348976 0.41666666666666663
vt 0.7084680079707758 0.41666666666666663
vt 0.7100967341595168 0.5
vt 0.6666666666666666 0.49679405842985236
vt 0.1541538802415035 0.3125
vt 0.19791666666666666 0.3125
vt 0.1903292740476854 0.39583333333333337
vt 0.1539553444166049 0.39316838203632487
vt 0.37656249999999997 0.875
vt 0.38906250000000003 0.7916666666666666
vt 0.47552083333333334 0.7916666666666666
vt 0.48802083333333335 0.875
vt 0.3536458333333334 0.5416666666666667
vt 0.3619791666666667 0.625
vt 0.2526041666666667 0.625
vt 0.2609375 0.5416666666666667
vt 0.6328125 0.375
vt 0.6338541666666667 0.41666666666666663
vt 0.5223958333333333 0.41666666666666663
vt 0.5234375 0.375
vt 0.7182291666666667 0.3125
vt 0.7151041666666668 0.35416666666666663
vt 0.6286458333333333 0.35416666666666663
vt 0.6255208333333333 0.3125
vt 0.8241187499999999 0.4056770833333333
vt 0.8258354166666667 0.4375
vt 0.75 0.4375
vt 0.75 0.4068125
vt 0.84375 0.96875
vt 0.84375 1
vt 0.7708333333333334 1
vt 0.77255 0.96875
vt 0.5078125 0.48958333333333337
vt 0.4869791666666667 0.5625
vt 0.4192708333333333 0.5625
vt 0.3984375 0.48958333333333337
vt 0.34739583333333335 0.44791666666666663
vt 0.3619791666666667 0.5208333333333333
vt 0.2526041666666667 0.5208333333333333
vt 0.26718749999999997 0.44791666666666663
vt 0.8020833333333334 0.59375
vt 0.8020833333333334 0.625
vt 0.6875 0.625
vt 0.6875 0.59375
vt 0.20677083333333335 0.26041666666666663
vt 0.20052083333333334 0.29166666666666663
vt 0.1328125 0.29166666666666663
vt 0.1265625 0.26041666666666663
vt 0.8541666666666666 0.125
vt 0.8815092292611629 0.125
vt 0.8789700917383332 0.1875
vt 0.8541666666666666 0.1865164876439479
vt 0.1875 0.19791666666666663
vt 0.1875 0.22916666666666663
vt 0.125 0.22916666666666663
vt 0.12608333333333333 0.19791666666666663
vt 0.4848958333333333 0.39583333333333337
vt 0.4765625 0.45833333333333337
vt 0.3880208333333333 0.45833333333333337
vt 0.3796875 0.39583333333333337
vt 0.6458333333333334 0.4375
vt 0.6458333333333334 0.5
vt 0.5416666666666666 0.5
vt 0.5416666666666666 0.4375
vt 0.7916666666666666 0.26041666666666663
vt 0.7916666666666666 0.29166666666666663
vt 0.6875 0.29166666666666663
vt 0.6875 0.26041666666666663
vt 0.5057291666666667 0.26041666666666663
vt 0.4973958333333333 0.29166666666666663
vt 0.4088541666666667 0.29166666666666663
vt 0.4005208333333334 0.26041666666666663
vt 0.8125 0.7707820835497339
vt 0.8125 0.8125
vt 0.7708333333333334 0.8076116889513685
vt 0.7708715166805146 0.7710957161166387
vt 0.7711892191458324 0.6875
vt 0.8077073135596714 0.6875
vt 0.8125512244428812 0.7291666666666667
vt 0.7708333333333334 0.7291206848953389
vt 0.47239583333333335 0.33333333333333337
vt 0.4786458333333334 0.375
vt 0.3755208333333333 0.375
vt 0.38177083333333334 0.33333333333333337
vt 0.7359375 0.8958333333333334
vt 0.7296874999999999 0.9375
vt 0.6348958333333333 0.9375
vt 0.6286458333333333 0.8958333333333334
vt 0.7453124999999999 0.6458333333333333
vt 0.7432291666666666 0.6875
vt 0.6526041666666667 0.6875
vt 0.6505208333333333 0.6458333333333333
vt 0.7359375 0.8333333333333334
vt 0.7338541666666667 0.875
vt 0.6307291666666667 0.875
vt 0.6286458333333333 0.8333333333333334
vn 1 0 0
vn -1 0 0
vn 0 0.9975640502598242 -0.06975647374412525
vn 0 -0.9975640502598242 0.06975647374412525
vn 0 0.06975647374412525 0.9975640502598242
vn 0 -0.06975647374412525 -0.9975640502598242
vn 0.13052619221985248 0.12940950774747154 -0.9829629150935163
vn -0.13052619221985304 -0.12940950774747143 0.9829629150935162
vn 2.2781118187431537e-7 0.9914448594248283 0.13052620702384046
vn -2.2781118185581165e-7 -0.9914448594248284 -0.13052620702384043
vn 0.9914448613738105 -0.017037312717665107 0.1294094928157369
vn -0.9914448613738105 0.01703731271766509 -0.12940949281573683
vn 1 0 0
vn -1 -4.3140830754274083e-32 3.5527136788005006e-16
vn -4.185668414678751e-16 1 5.689893001203926e-16
vn 0 -1 -2.7755575615628907e-17
vn 1.481090807670986e-16 1.9428902930940235e-16 1
vn 1.7984674093147673e-16 -2.081668171172168e-16 -1
vn 1 0 0
vn -1 5.796527356774022e-17 -4.4028996509740047e-16
vn 5.107025913275719e-16 0.9914448613738108 0.13052619222004913
vn -5.181040781584066e-17 -0.9914448613738103 -0.1305261922200529
vn 0 -0.13052619222005266 0.9914448613738103
vn -1.4062824978585338e-16 0.13052619222005266 -0.9914448613738104
vn 0.13052619221985295 -0.12940950774747031 0.9829629150935164
vn -0.13052619221985268 0.12940950774747187 -0.9829629150935162
vn -2.2781117994252722e-7 0.9914448594248285 0.1305262070238403
vn 2.278111802681927e-7 -0.9914448594248285 -0.1305262070238398
vn -0.9914448613738105 -0.017037312717665128 0.129409492815737
vn 0.9914448613738105 0.01703731271766465 -0.12940949281573683
vn 0.9842121153158406 0.07520557691782183 -0.16022057691188094
vn -0.9881228372239508 -0.023526734219617394 -0.15185437541753327
vn -6.9201287303283945e-18 0.995893206467704 -0.09053574604251825
vn -1.691768418476429e-16 -1 4.163336342344336e-17
vn 0 5.5511151231257815e-17 1
vn -4.27340662208478e-16 -0.05704979053851207 -0.9983713344239769
vn 0.9442232237987953 0.0712301066315765 -0.3215101484374397
vn -0.9615239476408232 -0.10513122416697752 -0.2538092272128031
vn 0 0.9238795325112867 -0.38268343236508984
vn 1.4500872158369388e-16 -0.9238795325112866 0.3826834323650901
vn 2.819614030794052e-17 0.3826834323650903 0.9238795325112865
vn 0 -0.38268343236508984 -0.9238795325112867
vn 0.9450800979851943 0.0012230938406001847 -0.3268365224906068
vn -0.9915095306014199 -0.12013578512951166 -0.049761871526983754
vn 1.71297670144672e-16 0.3826834323650892 -0.923879532511287
vn 5.766456222691932e-17 -0.3826834323650895 0.9238795325112868
vn -1.7587691479210395e-17 0.9238795325112867 0.3826834323650902
vn -3.7616968363769975e-16 -0.9238795325112863 -0.3826834323650909
vn 0.9868086539767047 0.049340432698835514 0.1541888521838601
vn -0.9863068845940283 0.056360393405373875 0.15499108186477634
vn 0 0.9922778767136676 0.12403473458920851
vn 0 -1 2.775557561562891e-16
vn 0 -4.163336342344336e-17 1
vn 0 -2.7755575615628907e-17 -1
usemtl m_4ceefedf-36aa-adb8-58c8-503f43d762d4
f 4/1/1 2/2/1 1/3/1 3/4/1
f 7/5/2 5/6/2 6/7/2 8/8/2
f 1/9/3 2/10/3 6/11/3 5/12/3
f 4/13/4 3/14/4 7/15/4 8/16/4
f 3/17/5 1/18/5 5/19/5 7/20/5
f 8/21/6 6/22/6 2/23/6 4/24/6
f 12/25/7 10/26/7 9/27/7 11/28/7
f 15/29/8 13/30/8 14/31/8 16/32/8
f 9/33/9 10/34/9 14/35/9 13/36/9
f 12/37/10 11/38/10 15/39/10 16/40/10
f 11/41/11 9/42/11 13/43/11 15/44/11
f 16/45/12 14/46/12 10/47/12 12/48/12
f 20/49/13 18/50/13 17/51/13 19/52/13
f 23/53/14 21/54/14 22/55/14 24/56/14
f 17/57/15 18/58/15 22/59/15 21/60/15
f 20/61/16 19/62/16 23/63/16 24/64/16
f 19/65/17 17/66/17 21/67/17 23/68/17
f 24/69/18 22/70/18 18/71/18 20/72/18
f 28/73/19 26/74/19 25/75/19 27/76/19
f 31/77/20 29/78/20 30/79/20 32/80/20
f 25/81/21 26/82/21 30/83/21 29/84/21
f 28/85/22 27/86/22 31/87/22 32/88/22
f 27/89/23 25/90/23 29/91/23 31/92/23
f 32/93/24 30/94/24 26/95/24 28/96/24
f 36/97/25 34/98/25 33/99/25 35/100/25
f 39/101/26 37/102/26 38/103/26 40/104/26
f 33/105/27 34/106/27 38/107/27 37/108/27
f 36/109/28 35/110/28 39/111/28 40/112/28
f 35/113/29 33/114/29 37/115/29 39/116/29
f 40/117/30 38/118/30 34/119/30 36/120/30
f 44/121/31 42/122/31 41/123/31 43/124/31
f 47/125/32 45/126/32 46/127/32 48/128/32
f 41/129/33 42/130/33 46/131/33 45/132/33
f 44/133/34 43/134/34 47/135/34 48/136/34
f 43/137/35 41/138/35 45/139/35 47/140/35
f 48/141/36 46/142/36 42/143/36 44/144/36
f 52/145/37 50/146/37 49/147/37 51/148/37
f 55/149/38 53/150/38 54/151/38 56/152/38
f 49/153/39 50/154/39 54/155/39 53/156/39
f 52/157/40 51/158/40 55/159/40 56/160/40
f 51/161/41 49/162/41 53/163/41 55/164/41
f 56/165/42 54/166/42 50/167/42 52/168/42
f 60/169/43 58/170/43 57/171/43 59/172/43
f 63/173/44 61/174/44 62/175/44 64/176/44
f 57/177/45 58/178/45 62/179/45 61/180/45
f 60/181/46 59/182/46 63/183/46 64/184/46
f 59/185/47 57/186/47 61/187/47 63/188/47
f 64/189/48 62/190/48 58/191/48 60/192/48
f 68/193/49 66/194/49 65/195/49 67/196/49
f 71/197/50 69/198/50 70/199/50 72/200/50
f 65/201/51 66/202/51 70/203/51 69/204/51
f 68/205/52 67/206/52 71/207/52 72/208/52
f 67/209/53 65/210/53 69/211/53 71/212/53
f 72/213/54 70/214/54 66/215/54 68/216/54
