# Made in Blockbench 5.2.1
mtllib berserk_b_l.mtl

o cube
v -0.0013482985418409154 0.28180017583299755 0.15625
v -0.0013482985418409154 0.28180017583299755 -0.15625
v 0.011805672960518224 -0.019475303487781436 0.15625
v 0.011805672960518224 -0.019475303487781436 -0.15625
v -0.2729645337844085 0.2699411548930468 0.15625
v -0.2729645337844085 0.2699411548930468 -0.15625
v -0.25981056228204935 -0.03133432442773216 0.15625
v -0.25981056228204935 -0.03133432442773216 -0.15625
v 0.050932592244439495 0.31705026407988146 -0.03831910010040068
v -0.011032711591423662 0.3181150961247355 -0.04640719340138423
v 0.05093257800624065 0.25508496036582967 -0.04647698803939071
v -0.011032725829622505 0.2561497924106837 -0.05456508134037426
v 0.0203405159429116 0.2867199107015678 0.19206283312464223
v -0.04162478789295156 0.2877847427464219 0.18397473982365864
v 0.02034050170471276 0.22475460698751612 0.1839049451856522
v -0.04162480213115041 0.2258194390323702 0.1758168518846686
v -0.007812499999999998 0.28729305776330855 0.18770941601931657
v -0.007812499999999998 0.2954509447770617 0.12574411218345344
v -0.007812499999999998 0.2253277539274455 0.17955152900556337
v -0.0078125 0.2334856409411987 0.1175862251697002
v -0.24218749999999994 0.2872930577633085 0.18770941601931657
v -0.24218749999999994 0.29545094477706174 0.12574411218345344
v -0.24218749999999994 0.2253277539274455 0.17955152900556337
v -0.24218749999999997 0.2334856409411987 0.1175862251697002
v -0.2703405993369597 0.28671982983018607 0.1920630383420585
v -0.20837529550109646 0.28778466187504015 0.18397494504107498
v -0.27034058509876085 0.22475452611613445 0.18390515040306848
v -0.20837528126289764 0.22581935816098847 0.17581705710208495
v -0.3009326756384876 0.31705018320849965 -0.03831889488298439
v -0.23896737180262437 0.3181150152533538 -0.04640698818396795
v -0.30093266140028874 0.255084879494448 -0.04647678282197442
v -0.23896735756442553 0.25614971153930205 -0.054564876122957975
v 0.0421875 0.09999999999999995 0.015625
v 0.004687499999999999 0.078125 -0.22499999999999998
v 0.039062499999999986 -0.031249999999999997 0.015625
v 0.014062499999999995 -0.031249999999999997 -0.21875
v -0.29218749999999993 0.09999999999999996 0.015625
v -0.25468749999999996 0.07812499999999999 -0.22499999999999998
v -0.28906249999999994 -0.031249999999999997 0.015625
v -0.2640624999999999 -0.031249999999999993 -0.21875
v -0.0078125 0.32523035370403536 -0.11698257969817494
v -0.0078125 0.32087057409502756 -0.17933033283941394
v -0.007812499999999999 0.0758393411390793 -0.09954346126214361
v -0.0078125 0.0714795615300715 -0.16189121440338264
v -0.24218749999999997 0.3252303537040353 -0.11698257969817494
v -0.24218749999999994 0.32087057409502756 -0.17933033283941394
v -0.24218749999999994 0.0758393411390793 -0.09954346126214361
v -0.24218749999999992 0.0714795615300715 -0.16189121440338264
v 0.03906249999999999 0.1710445022436508 -0.021080951343356635
v -0.0234375 0.08733250141378739 -0.22317959908020057
v 0.0390625 0.08443079607071767 0.014795620440870516
v -0.004687500000000001 0.0007187952408542752 -0.18730302729597345
v -0.2890625 0.17104450224365078 -0.021080951343356635
v -0.22656249999999997 0.0873325014137874 -0.22317959908020057
v -0.28906249999999994 0.08443079607071767 0.014795620440870516
v -0.24531249999999993 0.0007187952408542753 -0.18730302729597345
v 0.032812499999999994 0.2734650984843147 -0.02202640422772706
v 0.0078124999999999965 0.09735056259935071 -0.09497543352232227
v 0.0328125 0.24356795533079206 0.05015168424971722
v 0.03281249999999999 0.06745341944582804 -0.022797345044877987
v -0.2828125 0.2734650984843147 -0.02202640422772706
v -0.2578125 0.09735056259935071 -0.09497543352232227
v -0.28281249999999997 0.24356795533079206 0.05015168424971722
v -0.2828125 0.06745341944582806 -0.022797345044877987
v 0.010937499999999996 0.07812499999999999 0.171875
v 0.0296875 0.09374999999999999 0.046875
v 0.017187499999999998 -0.031249999999999997 0.171875
v 0.0359375 -0.031249999999999993 0.046875
v -0.26093749999999993 0.078125 0.171875
v -0.2796875 0.09375 0.046875
v -0.26718749999999997 -0.031249999999999993 0.171875
v -0.28593749999999996 -0.031249999999999993 0.046875
vt 0.125 0.875
vt 0.125 1
vt 0 1
vt 0 0.875
vt 0.125 0.725
vt 0.125 0.85
vt 0 0.85
vt 0 0.725
vt 0.2625 0.875
vt 0.2625 1
vt 0.15 1
vt 0.15 0.875
vt 0.2625 0.725
vt 0.2625 0.85
vt 0.15 0.85
vt 0.15 0.725
vt 0.1125 0.575
vt 0.1125 0.7
vt 0 0.7
vt 0 0.575
vt 0.4125 0.875
vt 0.4125 1
vt 0.3 1
vt 0.3 0.875
vt 0.675 0.25
vt 0.675 0.275
vt 0.65 0.275
vt 0.65 0.25
vt 0.775 0.9
vt 0.775 0.925
vt 0.75 0.925
vt 0.75 0.9
vt 0.625 0.65
vt 0.625 0.625
vt 0.725 0.625
vt 0.725 0.65
vt 0.65 0.75
vt 0.65 0.775
vt 0.75 0.775
vt 0.75 0.75
vt 0.1 0.4
vt 0.1 0.42500000000000004
vt 0 0.42500000000000004
vt 0 0.4
vt 0.6 0.625
vt 0.6 0.65
vt 0.5 0.65
vt 0.5 0.625
vt 0.15 0.22499999999999998
vt 0.15 0.25
vt 0.125 0.25
vt 0.125 0.22499999999999998
vt 0.775 0.85
vt 0.775 0.875
vt 0.75 0.875
vt 0.75 0.85
vt 0.275 0.32499999999999996
vt 0.275 0.30000000000000004
vt 0.375 0.30000000000000004
vt 0.375 0.32499999999999996
vt 0.4 0.30000000000000004
vt 0.4 0.32499999999999996
vt 0.5 0.32499999999999996
vt 0.5 0.30000000000000004
vt 0.75 0.575
vt 0.75 0.6
vt 0.65 0.6
vt 0.65 0.575
vt 0.75 0.7
vt 0.75 0.725
vt 0.65 0.725
vt 0.65 0.7
vt 0.2 0.22499999999999998
vt 0.2 0.25
vt 0.175 0.25
vt 0.175 0.22499999999999998
vt 0.775 0.8
vt 0.775 0.825
vt 0.75 0.825
vt 0.75 0.8
vt 0.525 0.30000000000000004
vt 0.525 0.275
vt 0.625 0.275
vt 0.625 0.30000000000000004
vt 0.7 0.35
vt 0.7 0.375
vt 0.8 0.375
vt 0.8 0.35
vt 0.225 0.275
vt 0.225 0.30000000000000004
vt 0.125 0.30000000000000004
vt 0.125 0.275
vt 0.1 0.275
vt 0.1 0.30000000000000004
vt 0 0.30000000000000004
vt 0 0.275
vt 0.531179334441877 0.35
vt 0.5751616095649309 0.35
vt 0.5771160809914202 0.44999999999999996
vt 0.525 0.44615287011582283
vt 0.4349846562898042 0.35
vt 0.4875 0.35
vt 0.47839512885722246 0.44999999999999996
vt 0.4347464132999259 0.4468020584435898
vt 0.151875 0.7
vt 0.16687500000000002 0.6
vt 0.270625 0.6
vt 0.285625 0.7
vt 0.42437500000000006 0.75
vt 0.434375 0.85
vt 0.303125 0.85
vt 0.313125 0.75
vt 0.609375 0.75
vt 0.610625 0.8
vt 0.476875 0.8
vt 0.478125 0.75
vt 0.236875 0.4
vt 0.23312499999999997 0.44999999999999996
vt 0.12937500000000002 0.44999999999999996
vt 0.12562500000000001 0.4
vt 0.725 0.22499999999999998
vt 0.725 0.32499999999999996
vt 0.7 0.32499999999999996
vt 0.7 0.22499999999999998
vt 0.275 0.17500000000000004
vt 0.275 0.275
vt 0.25 0.275
vt 0.25 0.17500000000000004
vt 0.3 0.275
vt 0.3 0.25
vt 0.4 0.25
vt 0.4 0.275
vt 0 0.22499999999999998
vt 0 0.25
vt 0.1 0.25
vt 0.1 0.22499999999999998
vt 0.1 0.44999999999999996
vt 0.1 0.55
vt 0 0.55
vt 0 0.44999999999999996
vt 0.25 0.475
vt 0.25 0.575
vt 0.15 0.575
vt 0.15 0.475
vt 0.7139425 0.4868125
vt 0.7160025 0.525
vt 0.625 0.525
vt 0.625 0.488175
vt 0.7125 0.4125
vt 0.7125 0.44999999999999996
vt 0.625 0.44999999999999996
vt 0.62706 0.4125
vt 0.459375 0.6375
vt 0.434375 0.725
vt 0.353125 0.725
vt 0.328125 0.6375
vt 0.416875 0.5125
vt 0.434375 0.6
vt 0.303125 0.6
vt 0.320625 0.5125
vt 0.1375 0.3375
vt 0.1375 0.375
vt 0 0.375
vt 0 0.3375
vt 0.723125 0.8875
vt 0.715625 0.925
vt 0.634375 0.925
vt 0.626875 0.8875
vt 0.425 0.19999999999999996
vt 0.4578110751133956 0.19999999999999996
vt 0.4547641100859997 0.275
vt 0.425 0.27381978517273753
vt 0.25 0.3375
vt 0.25 0.375
vt 0.175 0.375
vt 0.17629999999999998 0.3375
vt 0.5818749999999999 0.925
vt 0.571875 1
vt 0.465625 1
vt 0.45562500000000006 0.925
vt 0.6 0.825
vt 0.6 0.9
vt 0.475 0.9
vt 0.475 0.825
vt 0.4 0.36250000000000004
vt 0.4 0.4
vt 0.275 0.4
vt 0.275 0.36250000000000004
vt 0.756875 0.9625
vt 0.746875 1
vt 0.640625 1
vt 0.630625 0.9625
vt 0.675 0.32493850025968063
vt 0.675 0.375
vt 0.625 0.3691340267416422
vt 0.6250458200166176 0.3253148593399665
vt 0.6504270629749989 0.8
vt 0.6942487762716056 0.8
vt 0.7000614693314574 0.85
vt 0.65 0.8499448218744066
vt 0.6168750000000001 0.675
vt 0.624375 0.725
vt 0.500625 0.725
vt 0.5081249999999999 0.675
vt 0.608125 0.55
vt 0.600625 0.6
vt 0.48687500000000006 0.6
vt 0.479375 0.55
vt 0.39437500000000003 0.42500000000000004
vt 0.39187500000000003 0.475
vt 0.28312499999999996 0.475
vt 0.280625 0.42500000000000004
vt 0.583125 0.475
vt 0.5806250000000001 0.525
vt 0.456875 0.525
vt 0.45437500000000003 0.475
vn 0.9990482215818578 0.043619387365336 0
vn -0.9990482215818578 -0.043619387365336 0
vn -0.043619387365336 0.9990482215818578 0
vn 0.043619387365336 -0.9990482215818578 0
vn 0 0 1
vn 0 0 -1
vn 0.1305261922198523 0.12940950774747126 -0.9829629150935163
vn -0.13052619221985293 -0.12940950774747145 0.9829629150935164
vn 2.2781118117626292e-7 0.9914448594248284 0.13052620702384055
vn -2.2781118123177407e-7 -0.9914448594248284 -0.13052620702384019
vn 0.9914448613738105 -0.017037312717665124 0.12940949281573677
vn -0.9914448613738105 0.017037312717665173 -0.12940949281573683
vn 1 -2.081668171172169e-17 1.3877787807814494e-17
vn -1 -5.551115123125784e-17 9.020562075079422e-17
vn -1.1102230246251568e-16 0.9914448613738106 0.13052619222005063
vn -6.93889390390723e-18 -0.9914448613738106 -0.13052619222005102
vn 1.6479873021779667e-17 -0.1305261922200513 0.9914448613738105
vn -1.1275702593849249e-17 0.13052619222005207 -0.9914448613738105
vn 0.1305261922198521 -0.12940950774747145 0.9829629150935164
vn -0.13052619221985243 0.12940950774747154 -0.9829629150935163
vn -2.2781118239056935e-7 0.9914448594248284 0.13052620702384055
vn 2.2781118110687398e-7 -0.9914448594248285 -0.13052620702384024
vn -0.9914448613738106 -0.01703731271766471 0.12940949281573683
vn 0.9914448613738105 0.01703731271766522 -0.12940949281573685
vn 0.9842121153158407 0.07520557691782172 -0.16022057691188105
vn -0.9881228372239508 -0.02352673421961768 -0.15185437541753355
vn -2.7755575615628926e-17 0.995893206467704 -0.09053574604251846
vn 0 -1 4.934324553889586e-18
vn 0 0 1
vn 1.3010426069826053e-18 -0.05704979053851274 -0.9983713344239766
vn 1 2.081668171172169e-17 -2.7755575615628926e-17
vn -1 -2.081668171172169e-17 -2.7755575615628933e-16
vn -9.714451465470122e-17 0.9975640502598244 -0.06975647374412429
vn -1.387778780781446e-17 -0.9975640502598244 0.06975647374412469
vn 2.6020852139652114e-18 0.06975647374412532 0.9975640502598244
vn 7.372574772901432e-18 -0.0697564737441252 -0.9975640502598244
vn 0.9442232237987953 0.07123010663157685 -0.32151014843743964
vn -0.9615239476408233 -0.10513122416697765 -0.2538092272128031
vn 2.775557561562892e-17 0.9238795325112868 -0.38268343236509006
vn 2.7755575615628914e-17 -0.9238795325112867 0.3826834323650899
vn -1.0408340855860843e-17 0.3826834323650897 0.9238795325112868
vn -6.938893903907228e-18 -0.38268343236508945 -0.923879532511287
vn 0.9450800979851942 0.0012230938406001814 -0.32683652249060696
vn -0.9915095306014198 -0.12013578512951176 -0.04976187152698377
vn -2.0816681711721685e-17 0.38268343236508967 -0.9238795325112868
vn 6.591949208711868e-17 -0.3826834323650897 0.923879532511287
vn 2.0816681711721685e-17 0.9238795325112867 0.3826834323650899
vn 1.387778780781446e-17 -0.9238795325112868 -0.3826834323650899
vn 0.9868086539767047 0.049340432698835236 0.15418885218386016
vn -0.9863068845940284 0.05636039340537332 0.15499108186477603
vn 2.0816681711721694e-17 0.9922778767136677 0.1240347345892085
vn -1.387778780781446e-17 -1 -5.490113858036491e-17
vn 0 0 1
vn 0 0 -1
usemtl m_d6ac9141-8f1e-9703-7bfa-454c28cdca7c
f 4/1/1 2/2/1 1/3/1 3/4/1
f 7/5/2 5/6/2 6/7/2 8/8/2
f 1/9/3 2/10/3 6/11/3 5/12/3
f 4/13/4 3/14/4 7/15/4 8/16/4
f 3/17/5 1/18/5 5/19/5 7/20/5
f 8/21/6 6/22/6 2/23/6 4/24/6
f 12/25/7 10/26/7 9/27/7 11/28/7
f 15/29/8 13/30/8 14/31/8 16/32/8
f 9/33/9 10/34/9 14/35/9 13/36/9
f 12/37/10 11/38/10 15/39/10 16/40/10
f 11/41/11 9/42/11 13/43/11 15/44/11
f 16/45/12 14/46/12 10/47/12 12/48/12
f 20/49/13 18/50/13 17/51/13 19/52/13
f 23/53/14 21/54/14 22/55/14 24/56/14
f 17/57/15 18/58/15 22/59/15 21/60/15
f 20/61/16 19/62/16 23/63/16 24/64/16
f 19/65/17 17/66/17 21/67/17 23/68/17
f 24/69/18 22/70/18 18/71/18 20/72/18
f 28/73/19 26/74/19 25/75/19 27/76/19
f 31/77/20 29/78/20 30/79/20 32/80/20
f 25/81/21 26/82/21 30/83/21 29/84/21
f 28/85/22 27/86/22 31/87/22 32/88/22
f 27/89/23 25/90/23 29/91/23 31/92/23
f 32/93/24 30/94/24 26/95/24 28/96/24
f 36/97/25 34/98/25 33/99/25 35/100/25
f 39/101/26 37/102/26 38/103/26 40/104/26
f 33/105/27 34/106/27 38/107/27 37/108/27
f 36/109/28 35/110/28 39/111/28 40/112/28
f 35/113/29 33/114/29 37/115/29 39/116/29
f 40/117/30 38/118/30 34/119/30 36/120/30
f 44/121/31 42/122/31 41/123/31 43/124/31
f 47/125/32 45/126/32 46/127/32 48/128/32
f 41/129/33 42/130/33 46/131/33 45/132/33
f 44/133/34 43/134/34 47/135/34 48/136/34
f 43/137/35 41/138/35 45/139/35 47/140/35
f 48/141/36 46/142/36 42/143/36 44/144/36
f 52/145/37 50/146/37 49/147/37 51/148/37
f 55/149/38 53/150/38 54/151/38 56/152/38
f 49/153/39 50/154/39 54/155/39 53/156/39
f 52/157/40 51/158/40 55/159/40 56/160/40
f 51/161/41 49/162/41 53/163/41 55/164/41
f 56/165/42 54/166/42 50/167/42 52/168/42
f 60/169/43 58/170/43 57/171/43 59/172/43
f 63/173/44 61/174/44 62/175/44 64/176/44
f 57/177/45 58/178/45 62/179/45 61/180/45
f 60/181/46 59/182/46 63/183/46 64/184/46
f 59/185/47 57/186/47 61/187/47 63/188/47
f 64/189/48 62/190/48 58/191/48 60/192/48
f 68/193/49 66/194/49 65/195/49 67/196/49
f 71/197/50 69/198/50 70/199/50 72/200/50
f 65/201/51 66/202/51 70/203/51 69/204/51
f 68/205/52 67/206/52 71/207/52 72/208/52
f 67/209/53 65/210/53 69/211/53 71/212/53
f 72/213/54 70/214/54 66/215/54 68/216/54
