# Made in Blockbench 5.2.1
mtllib hazard_kit_b_l.mtl

o cube
v 0.0109375 0.28125 0.15625
v 0.0109375 0.28125 -0.15625
v 0.0109375 -0.0203125 0.15625
v 0.0109375 -0.0203125 -0.15625
v -0.2609375 0.28125 0.15625
v -0.2609375 0.28125 -0.15625
v -0.2609375 -0.0203125 0.15625
v -0.2609375 -0.0203125 -0.15625
v 0.0421875 0.09999999999999998 0.015625
v 0.004687500000000001 0.078125 -0.22499999999999998
v 0.0390625 -0.03125 0.015625
v 0.014062499999999999 -0.03125 -0.21875
v -0.2921875 0.09999999999999998 0.015625
v -0.2546875 0.078125 -0.22499999999999998
v -0.2890625 -0.03125 0.015625
v -0.2640625 -0.03125 -0.21875
v 0.0390625 0.1710445022436508 -0.021080951343356635
v -0.0234375 0.0873325014137874 -0.22317959908020057
v 0.0390625 0.08443079607071768 0.014795620440870516
v -0.0046875 0.0007187952408542753 -0.18730302729597345
v -0.2890625 0.1710445022436508 -0.021080951343356635
v -0.2265625 0.0873325014137874 -0.22317959908020057
v -0.2890625 0.08443079607071768 0.014795620440870516
v -0.2453125 0.0007187952408542753 -0.18730302729597345
v 0.0328125 0.2734650984843148 -0.02202640422772706
v 0.0078125 0.09735056259935071 -0.09497543352232227
v 0.0328125 0.24356795533079212 0.05015168424971722
v 0.0328125 0.06745341944582806 -0.022797345044877987
v -0.2828125 0.2734650984843148 -0.02202640422772706
v -0.2578125 0.09735056259935071 -0.09497543352232227
v -0.2828125 0.24356795533079212 0.05015168424971722
v -0.2828125 0.06745341944582806 -0.022797345044877987
v 0.0109375 0.078125 0.171875
v 0.0296875 0.09375 0.046875
v 0.0171875 -0.03125 0.171875
v 0.0359375 -0.03125 0.046875
v -0.2609375 0.078125 0.171875
v -0.2796875 0.09375 0.046875
v -0.2671875 -0.03125 0.171875
v -0.2859375 -0.03125 0.046875
v 0.05093259224443951 0.31705026407988146 -0.03831910010040068
v -0.011032711591423666 0.31811509612473554 -0.04640719340138423
v 0.05093257800624067 0.2550849603658297 -0.04647698803939071
v -0.011032725829622508 0.2561497924106838 -0.05456508134037426
v 0.020340515942911603 0.2867199107015679 0.19206283312464223
v -0.04162478789295157 0.28778474274642196 0.18397473982365864
v 0.02034050170471276 0.22475460698751615 0.1839049451856522
v -0.04162480213115041 0.22581943903237023 0.1758168518846686
v -0.0078125 0.2872930577633086 0.18770941601931657
v -0.0078125 0.2954509447770618 0.12574411218345344
v -0.0078125 0.22532775392744553 0.17955152900556337
v -0.0078125 0.23348564094119872 0.1175862251697002
v -0.2421875 0.2872930577633086 0.18770941601931657
v -0.2421875 0.2954509447770618 0.12574411218345344
v -0.2421875 0.22532775392744553 0.17955152900556337
v -0.2421875 0.23348564094119872 0.1175862251697002
v -0.27034059933695975 0.2867198298301862 0.1920630383420585
v -0.2083752955010965 0.28778466187504026 0.18397494504107498
v -0.2703405850987609 0.22475452611613445 0.18390515040306848
v -0.20837528126289767 0.22581935816098853 0.17581705710208495
v -0.30093267563848763 0.31705018320849976 -0.03831889488298439
v -0.23896737180262442 0.31811501525335384 -0.04640698818396795
v -0.3009326614002888 0.255084879494448 -0.04647678282197442
v -0.23896735756442558 0.2561497115393021 -0.054564876122957975
v -0.0078125 0.3252303537040354 -0.11698257969817494
v -0.0078125 0.3208705740950276 -0.17933033283941394
v -0.0078125 0.07583934113907931 -0.09954346126214361
v -0.0078125 0.07147956153007151 -0.16189121440338264
v -0.2421875 0.3252303537040354 -0.11698257969817494
v -0.2421875 0.3208705740950276 -0.17933033283941394
v -0.2421875 0.07583934113907931 -0.09954346126214361
v -0.2421875 0.07147956153007151 -0.16189121440338264
vt 0 0.875
vt 0 1
vt 0.125 1
vt 0.125 0.875
vt 0 0.725
vt 0 0.85
vt 0.125 0.85
vt 0.125 0.725
vt 0.15 0.875
vt 0.15 1
vt 0.2625 1
vt 0.2625 0.875
vt 0.15 0.725
vt 0.15 0.85
vt 0.2625 0.85
vt 0.2625 0.725
vt 0 0.575
vt 0 0.7
vt 0.1125 0.7
vt 0.1125 0.575
vt 0.3 0.875
vt 0.3 1
vt 0.4125 1
vt 0.4125 0.875
vt 0.5763191081428396 0.3810265081153952
vt 0.5771980486838325 0.42500000000000004
vt 0.675 0.42500000000000004
vt 0.670112152098534 0.3729712074987115
vt 0.45 0.3627382429898782
vt 0.45 0.41525358670007395
vt 0.5473776959972017 0.4061487155572966
vt 0.5441797544407915 0.36250000000000004
vt 0.301875 0.85
vt 0.316875 0.75
vt 0.42062499999999997 0.75
vt 0.43562500000000004 0.85
vt 0.338125 0.625
vt 0.328125 0.725
vt 0.459375 0.725
vt 0.449375 0.625
vt 0.503125 0.725
vt 0.501875 0.775
vt 0.635625 0.775
vt 0.634375 0.725
vt 0.0006250000000000089 0.375
vt 0.004374999999999995 0.42500000000000004
vt 0.108125 0.42500000000000004
vt 0.11187499999999999 0.375
vt 0.65206 0.8868125
vt 0.65 0.925
vt 0.7375 0.925
vt 0.7375 0.888175
vt 0 0.3125
vt 0 0.35
vt 0.0910025 0.35
vt 0.0889425 0.3125
vt 0.303125 0.5125
vt 0.328125 0.6
vt 0.409375 0.6
vt 0.434375 0.5125
vt 0.020624999999999998 0.4625
vt 0.003125 0.55
vt 0.134375 0.55
vt 0.11687499999999999 0.4625
vt 0.575 0.9625
vt 0.575 1
vt 0.7125 1
vt 0.7125 0.9625
vt 0.32687499999999997 0.36250000000000004
vt 0.334375 0.4
vt 0.415625 0.4
vt 0.42312500000000003 0.36250000000000004
vt 0.660657885828331 0.5125
vt 0.660657885828331 0.55
vt 0.7375 0.5469530349726042
vt 0.7363197851727376 0.5125
vt 0.65 0.8125
vt 0.65 0.85
vt 0.7269025 0.85
vt 0.7256025 0.8125
vt 0.480625 0.8
vt 0.490625 0.875
vt 0.596875 0.875
vt 0.6068749999999999 0.8
vt 0.475 0.525
vt 0.475 0.6
vt 0.6 0.6
vt 0.6 0.525
vt 0.625 0.5875
vt 0.625 0.625
vt 0.75 0.625
vt 0.75 0.5875
vt 0.15562499999999999 0.3375
vt 0.165625 0.375
vt 0.271875 0.375
vt 0.281875 0.3375
vt 0.325 0.32499999999999996
vt 0.3750614997403194 0.32499999999999996
vt 0.36919552648196163 0.27439557855056307
vt 0.32537635908028595 0.27444139856718064
vt 0.6868891216669584 0.7253655936435415
vt 0.6868891216669584 0.7691873069401483
vt 0.7375 0.775
vt 0.7374448218744065 0.7249385306685425
vt 0.30812500000000004 0.42500000000000004
vt 0.30062500000000003 0.475
vt 0.42437500000000006 0.475
vt 0.416875 0.42500000000000004
vt 0.504375 0.65
vt 0.5118750000000001 0.7
vt 0.625625 0.7
vt 0.6331249999999999 0.65
vt 0.15562499999999999 0.4
vt 0.158125 0.44999999999999996
vt 0.26687500000000003 0.44999999999999996
vt 0.26937500000000003 0.4
vt 0.479375 0.44999999999999996
vt 0.48187499999999994 0.5
vt 0.6056250000000001 0.5
vt 0.608125 0.44999999999999996
vt 0.2 0.22499999999999998
vt 0.2 0.25
vt 0.175 0.25
vt 0.175 0.22499999999999998
vt 0.6 0.9
vt 0.6 0.925
vt 0.575 0.925
vt 0.575 0.9
vt 0.425 0.32499999999999996
vt 0.425 0.30000000000000004
vt 0.525 0.30000000000000004
vt 0.525 0.32499999999999996
vt 0.55 0.30000000000000004
vt 0.55 0.32499999999999996
vt 0.65 0.32499999999999996
vt 0.65 0.30000000000000004
vt 0.775 0.65
vt 0.775 0.675
vt 0.675 0.675
vt 0.675 0.65
vt 0.75 0.44999999999999996
vt 0.75 0.475
vt 0.65 0.475
vt 0.65 0.44999999999999996
vt 0.8 0.875
vt 0.8 0.9
vt 0.775 0.9
vt 0.775 0.875
vt 0.8 0.925
vt 0.8 0.95
vt 0.775 0.95
vt 0.775 0.925
vt 0.7 0.42500000000000004
vt 0.7 0.4
vt 0.8 0.4
vt 0.8 0.42500000000000004
vt 0.7 0.35
vt 0.7 0.375
vt 0.8 0.375
vt 0.8 0.35
vt 0.225 0.275
vt 0.225 0.30000000000000004
vt 0.125 0.30000000000000004
vt 0.125 0.275
vt 0.775 0.30000000000000004
vt 0.775 0.32499999999999996
vt 0.675 0.32499999999999996
vt 0.675 0.30000000000000004
vt 0.8 0.775
vt 0.8 0.8
vt 0.775 0.8
vt 0.775 0.775
vt 0.8 0.825
vt 0.8 0.85
vt 0.775 0.85
vt 0.775 0.825
vt 0.525 0.275
vt 0.525 0.25
vt 0.625 0.25
vt 0.625 0.275
vt 0.65 0.25
vt 0.65 0.275
vt 0.75 0.275
vt 0.75 0.25
vt 0.5 0.25
vt 0.5 0.275
vt 0.4 0.275
vt 0.4 0.25
vt 0.1 0.25
vt 0.1 0.275
vt 0 0.275
vt 0 0.25
vt 0.15 0.15000000000000002
vt 0.15 0.25
vt 0.125 0.25
vt 0.125 0.15000000000000002
vt 0.275 0.19999999999999996
vt 0.275 0.30000000000000004
vt 0.25 0.30000000000000004
vt 0.25 0.19999999999999996
vt 0.75 1
vt 0.75 0.975
vt 0.85 0.975
vt 0.85 1
vt 0 0.19999999999999996
vt 0 0.22499999999999998
vt 0.1 0.22499999999999998
vt 0.1 0.19999999999999996
vt 0.55 0.9
vt 0.55 1
vt 0.45 1
vt 0.45 0.9
vt 0.275 0.475
vt 0.275 0.575
vt 0.175 0.575
vt 0.175 0.475
vn 1 0 0
vn -1 0 0
vn 0 1 0
vn 0 -1 0
vn 0 0 1
vn 0 0 -1
vn 0.9842121153158406 0.07520557691782173 -0.16022057691188107
vn -0.9881228372239508 -0.0235267342196178 -0.1518543754175335
vn 0 0.995893206467704 -0.09053574604251846
vn 0 -1 0
vn 0 0 1
vn 0 -0.05704979053851275 -0.9983713344239767
vn 0.9442232237987953 0.0712301066315768 -0.32151014843743964
vn -0.9615239476408232 -0.10513122416697744 -0.2538092272128031
vn 0 0.9238795325112867 -0.38268343236508995
vn 0 -0.9238795325112867 0.38268343236508984
vn 0 0.38268343236508967 0.9238795325112868
vn 0 -0.3826834323650895 -0.923879532511287
vn 0.9450800979851941 0.001223093840600189 -0.326836522490607
vn -0.9915095306014198 -0.12013578512951158 -0.04976187152698371
vn 0 0.38268343236508967 -0.9238795325112868
vn 0 -0.38268343236508967 0.923879532511287
vn 0 0.9238795325112867 0.38268343236509
vn 0 -0.9238795325112868 -0.38268343236509
vn 0.9868086539767046 0.049340432698835215 0.15418885218386008
vn -0.9863068845940285 0.056360393405373355 0.15499108186477584
vn 0 0.9922778767136677 0.12403473458920847
vn 0 -1 0
vn 0 0 1
vn 0 0 -1
vn 0.1305261922198523 0.12940950774747137 -0.9829629150935163
vn -0.130526192219853 -0.1294095077474714 0.9829629150935163
vn 2.2781118169112877e-7 0.9914448594248285 0.13052620702384043
vn -2.2781118169297912e-7 -0.9914448594248285 -0.13052620702384043
vn 0.9914448613738105 -0.017037312717665086 0.1294094928157368
vn -0.9914448613738105 0.01703731271766509 -0.12940949281573683
vn 1 0 0
vn -1 0 0
vn 0 0.9914448613738105 0.13052619222005118
vn 0 -0.9914448613738105 -0.1305261922200511
vn 0 -0.1305261922200513 0.9914448613738105
vn 0 0.13052619222005196 -0.9914448613738104
vn 0.13052619221985196 -0.1294095077474714 0.9829629150935164
vn -0.13052619221985237 0.1294095077474714 -0.9829629150935163
vn -2.2781118172258485e-7 0.9914448594248285 0.13052620702384043
vn 2.2781118172443522e-7 -0.9914448594248285 -0.13052620702384043
vn -0.9914448613738105 -0.017037312717665072 0.12940949281573672
vn 0.9914448613738105 0.01703731271766509 -0.12940949281573683
vn 1 0 0
vn -1 0 0
vn 0 0.9975640502598244 -0.06975647374412478
vn 0 -0.9975640502598244 0.06975647374412475
vn 0 0.06975647374412532 0.9975640502598244
vn 0 -0.06975647374412519 -0.9975640502598244
usemtl m_0100683f-ccc7-8cfd-14a9-4d7d5d018ca5
f 4/1/1 2/2/1 1/3/1 3/4/1
f 7/5/2 5/6/2 6/7/2 8/8/2
f 1/9/3 2/10/3 6/11/3 5/12/3
f 4/13/4 3/14/4 7/15/4 8/16/4
f 3/17/5 1/18/5 5/19/5 7/20/5
f 8/21/6 6/22/6 2/23/6 4/24/6
f 12/25/7 10/26/7 9/27/7 11/28/7
f 15/29/8 13/30/8 14/31/8 16/32/8
f 9/33/9 10/34/9 14/35/9 13/36/9
f 12/37/10 11/38/10 15/39/10 16/40/10
f 11/41/11 9/42/11 13/43/11 15/44/11
f 16/45/12 14/46/12 10/47/12 12/48/12
f 20/49/13 18/50/13 17/51/13 19/52/13
f 23/53/14 21/54/14 22/55/14 24/56/14
f 17/57/15 18/58/15 22/59/15 21/60/15
f 20/61/16 19/62/16 23/63/16 24/64/16
f 19/65/17 17/66/17 21/67/17 23/68/17
f 24/69/18 22/70/18 18/71/18 20/72/18
f 28/73/19 26/74/19 25/75/19 27/76/19
f 31/77/20 29/78/20 30/79/20 32/80/20
f 25/81/21 26/82/21 30/83/21 29/84/21
f 28/85/22 27/86/22 31/87/22 32/88/22
f 27/89/23 25/90/23 29/91/23 31/92/23
f 32/93/24 30/94/24 26/95/24 28/96/24
f 36/97/25 34/98/25 33/99/25 35/100/25
f 39/101/26 37/102/26 38/103/26 40/104/26
f 33/105/27 34/106/27 38/107/27 37/108/27
f 36/109/28 35/110/28 39/111/28 40/112/28
f 35/113/29 33/114/29 37/115/29 39/116/29
f 40/117/30 38/118/30 34/119/30 36/120/30
f 44/121/31 42/122/31 41/123/31 43/124/31
f 47/125/32 45/126/32 46/127/32 48/128/32
f 41/129/33 42/130/33 46/131/33 45/132/33
f 44/133/34 43/134/34 47/135/34 48/136/34
f 43/137/35 41/138/35 45/139/35 47/140/35
f 48/141/36 46/142/36 42/143/36 44/144/36
f 52/145/37 50/146/37 49/147/37 51/148/37
f 55/149/38 53/150/38 54/151/38 56/152/38
f 49/153/39 50/154/39 54/155/39 53/156/39
f 52/157/40 51/158/40 55/159/40 56/160/40
f 51/161/41 49/162/41 53/163/41 55/164/41
f 56/165/42 54/166/42 50/167/42 52/168/42
f 60/169/43 58/170/43 57/171/43 59/172/43
f 63/173/44 61/174/44 62/175/44 64/176/44
f 57/177/45 58/178/45 62/179/45 61/180/45
f 60/181/46 59/182/46 63/183/46 64/184/46
f 59/185/47 57/186/47 61/187/47 63/188/47
f 64/189/48 62/190/48 58/191/48 60/192/48
f 68/193/49 66/194/49 65/195/49 67/196/49
f 71/197/50 69/198/50 70/199/50 72/200/50
f 65/201/51 66/202/51 70/203/51 69/204/51
f 68/205/52 67/206/52 71/207/52 72/208/52
f 67/209/53 65/210/53 69/211/53 71/212/53
f 72/213/54 70/214/54 66/215/54 68/216/54
