# Made in Blockbench 5.2.1
mtllib ukrainian_veteran_b_r.mtl

o cube
v 0.2609375 0.078125 0.171875
v 0.2609375 0.28125 0.15625
v 0.2609375 0.28125 -0.15625
v 0.2609375 -0.0203125 0.15625
v 0.2609375 -0.0203125 -0.15625
v -0.010937499999999989 0.28125 0.15625
v -0.010937499999999989 0.28125 -0.15625
v -0.010937499999999989 -0.0203125 0.15625
v -0.010937499999999989 -0.0203125 -0.15625
v 0.3009325922444395 0.31705026407988146 -0.03831910010040071
v 0.23896728840857634 0.31811509612473554 -0.04640719340138426
v 0.3009325780062407 0.2550849603658297 -0.04647698803939074
v 0.2389672741703775 0.2561497924106838 -0.054565081340374286
v 0.2703405159429116 0.2867199107015679 0.19206283312464223
v 0.20837521210704843 0.28778474274642196 0.18397473982365864
v 0.27034050170471274 0.22475460698751615 0.1839049451856522
v 0.2083751978688496 0.22581943903237023 0.1758168518846686
v 0.2421875 0.2872930577633086 0.18770941601931657
v 0.2421875 0.2954509447770618 0.12574411218345344
v 0.2421875 0.22532775392744553 0.17955152900556337
v 0.2421875 0.23348564094119872 0.1175862251697002
v 0.0078125 0.2872930577633086 0.18770941601931657
v 0.0078125 0.2954509447770618 0.12574411218345344
v 0.0078125 0.22532775392744553 0.17955152900556337
v 0.0078125 0.23348564094119872 0.1175862251697002
v -0.020340599336959753 0.2867198298301862 0.1920630383420585
v 0.041624704498903486 0.28778466187504026 0.18397494504107492
v -0.02034058509876091 0.22475452611613445 0.18390515040306848
v 0.04162471873710233 0.22581935816098853 0.1758170571020849
v -0.050932675638487634 0.31705018320849976 -0.03831889488298441
v 0.011032628197375577 0.31811501525335384 -0.04640698818396796
v -0.05093266140028879 0.255084879494448 -0.046476782821974434
v 0.011032642435574419 0.2561497115393021 -0.05456487612295799
v 0.2921875 0.09999999999999998 0.015625
v 0.2546875 0.078125 -0.22499999999999998
v 0.2890625 -0.03125 0.015625
v 0.2640625 -0.03125 -0.21875
v -0.04218749999999999 0.09999999999999998 0.015625
v -0.004687500000000011 0.078125 -0.22499999999999998
v -0.0390625 -0.03125 0.015625
v -0.014062499999999978 -0.03125 -0.21875
v 0.2421875 0.3252303537040354 -0.11698257969817494
v 0.2421875 0.3208705740950276 -0.17933033283941394
v 0.2421875 0.07583934113907931 -0.09954346126214361
v 0.2421875 0.07147956153007151 -0.16189121440338264
v 0.0078125 0.3252303537040354 -0.11698257969817494
v 0.0078125 0.3208705740950276 -0.17933033283941394
v 0.0078125 0.07583934113907931 -0.09954346126214361
v 0.0078125 0.07147956153007151 -0.16189121440338264
v 0.2890625 0.1710445022436508 -0.021080951343356635
v 0.2265625 0.0873325014137874 -0.22317959908020057
v 0.2890625 0.08443079607071768 0.014795620440870516
v 0.2453125 0.0007187952408542753 -0.18730302729597345
v -0.0390625 0.1710445022436508 -0.021080951343356635
v 0.0234375 0.0873325014137874 -0.22317959908020057
v -0.0390625 0.08443079607071768 0.014795620440870516
v 0.004687500000000011 0.0007187952408542753 -0.18730302729597345
v 0.2828125 0.2734650984843148 -0.02202640422772706
v 0.2578125 0.09735056259935071 -0.09497543352232227
v 0.2828125 0.24356795533079212 0.05015168424971722
v 0.2828125 0.06745341944582806 -0.022797345044877987
v -0.03281250000000002 0.2734650984843148 -0.02202640422772706
v -0.0078125 0.09735056259935071 -0.09497543352232227
v -0.03281250000000002 0.24356795533079212 0.05015168424971722
v -0.03281250000000002 0.06745341944582806 -0.022797345044877987
v 0.2796875 0.09375 0.046875
v 0.2671875 -0.03125 0.171875
v 0.2859375 -0.03125 0.046875
v -0.010937499999999989 0.078125 0.171875
v -0.029687499999999978 0.09375 0.046875
v -0.017187500000000022 -0.03125 0.171875
v -0.03593750000000001 -0.03125 0.046875
vt 0.171875 0.921875
vt 0.171875 1
vt 0.09375 1
vt 0.09375 0.921875
vt 0.171875 0.828125
vt 0.171875 0.90625
vt 0.09375 0.90625
vt 0.09375 0.828125
vt 0.2578125 0.734375
vt 0.2578125 0.8125
vt 0.1875 0.8125
vt 0.1875 0.734375
vt 0.0703125 0.640625
vt 0.0703125 0.71875
vt 0 0.71875
vt 0 0.640625
vt 0.3515625 0.921875
vt 0.3515625 1
vt 0.28125 1
vt 0.28125 0.921875
vt 0.1640625 0.640625
vt 0.1640625 0.71875
vt 0.09375 0.71875
vt 0.09375 0.640625
vt 0.671875 0.953125
vt 0.671875 0.96875
vt 0.65625 0.96875
vt 0.65625 0.953125
vt 0.0625 0.328125
vt 0.0625 0.34375
vt 0.046875 0.34375
vt 0.046875 0.328125
vt 0.203125 0.375
vt 0.203125 0.359375
vt 0.265625 0.359375
vt 0.265625 0.375
vt 0.625 0.703125
vt 0.625 0.71875
vt 0.6875 0.71875
vt 0.6875 0.703125
vt 0.6875 0.8125
vt 0.6875 0.828125
vt 0.625 0.828125
vt 0.625 0.8125
vt 0.6875 0.84375
vt 0.6875 0.859375
vt 0.625 0.859375
vt 0.625 0.84375
vt 0.671875 0.921875
vt 0.671875 0.9375
vt 0.65625 0.9375
vt 0.65625 0.921875
vt 0.09375 0.328125
vt 0.09375 0.34375
vt 0.078125 0.34375
vt 0.078125 0.328125
vt 0.640625 0.90625
vt 0.640625 0.890625
vt 0.703125 0.890625
vt 0.703125 0.90625
vt 0.640625 0.78125
vt 0.640625 0.796875
vt 0.703125 0.796875
vt 0.703125 0.78125
vt 0.6875 0.640625
vt 0.6875 0.65625
vt 0.625 0.65625
vt 0.625 0.640625
vt 0.6875 0.671875
vt 0.6875 0.6875
vt 0.625 0.6875
vt 0.625 0.671875
vt 0.125 0.328125
vt 0.125 0.34375
vt 0.109375 0.34375
vt 0.109375 0.328125
vt 0.203125 0.328125
vt 0.203125 0.34375
vt 0.1875 0.34375
vt 0.1875 0.328125
vt 0.640625 0.625
vt 0.640625 0.609375
vt 0.703125 0.609375
vt 0.703125 0.625
vt 0.640625 0.578125
vt 0.640625 0.59375
vt 0.703125 0.59375
vt 0.703125 0.578125
vt 0.421875 0.34375
vt 0.421875 0.359375
vt 0.359375 0.359375
vt 0.359375 0.34375
vt 0.34375 0.34375
vt 0.34375 0.359375
vt 0.28125 0.359375
vt 0.28125 0.34375
vt 0.23823703125 0.421875
vt 0.2657259375 0.421875
vt 0.2669475 0.484375
vt 0.234375 0.48197046875000005
vt 0.17811546875 0.4375
vt 0.2109375 0.4375
vt 0.20524703125 0.5
vt 0.1779665625 0.49800124999999995
vt 0.282421875 0.828125
vt 0.291796875 0.765625
vt 0.356640625 0.765625
vt 0.366015625 0.828125
vt 0.374609375 0.6875
vt 0.380859375 0.75
vt 0.298828125 0.75
vt 0.305078125 0.6875
vt 0.083984375 0.515625
vt 0.084765625 0.546875
vt 0.001171875 0.546875
vt 0.001953125 0.515625
vt 0.069921875 0.46875
vt 0.067578125 0.5
vt 0.002734375 0.5
vt 0.000390625 0.46875
vt 0.171875 0.296875
vt 0.171875 0.359375
vt 0.15625 0.359375
vt 0.15625 0.296875
vt 0.453125 0.296875
vt 0.453125 0.359375
vt 0.4375 0.359375
vt 0.4375 0.296875
vt 0.640625 0.5625
vt 0.640625 0.546875
vt 0.703125 0.546875
vt 0.703125 0.5625
vt 0.46875 0.34375
vt 0.46875 0.359375
vt 0.53125 0.359375
vt 0.53125 0.34375
vt 0.46875 0.703125
vt 0.46875 0.765625
vt 0.40625 0.765625
vt 0.40625 0.703125
vt 0.453125 0.78125
vt 0.453125 0.84375
vt 0.390625 0.84375
vt 0.390625 0.78125
vt 0.6180890625 0.5073828125
vt 0.6193765625 0.53125
vt 0.5625 0.53125
vt 0.5625 0.508234375
vt 0.6328125 0.9296875
vt 0.6328125 0.953125
vt 0.578125 0.953125
vt 0.5794125 0.9296875
vt 0.083984375 0.5703125
vt 0.068359375 0.625
vt 0.017578125 0.625
vt 0.001953125 0.5703125
vt 0.448046875 0.9453125
vt 0.458984375 1
vt 0.376953125 1
vt 0.387890625 0.9453125
vt 0.6015625 0.6484375
vt 0.6015625 0.671875
vt 0.515625 0.671875
vt 0.515625 0.6484375
vt 0.623828125 0.6015625
vt 0.619140625 0.625
vt 0.568359375 0.625
vt 0.563671875 0.6015625
vt 0 0.296875
vt 0.020506875 0.296875
vt 0.0186025 0.34375
vt 0 0.34301234375
vt 0.625 0.8828125
vt 0.625 0.90625
vt 0.578125 0.90625
vt 0.5789375 0.8828125
vt 0.488671875 0.640625
vt 0.482421875 0.6875
vt 0.416015625 0.6875
vt 0.409765625 0.640625
vt 0.265625 0.515625
vt 0.265625 0.5625
vt 0.1875 0.5625
vt 0.1875 0.515625
vt 0.078125 0.4296875
vt 0.078125 0.453125
vt 0 0.453125
vt 0 0.4296875
vt 0.488671875 0.4453125
vt 0.482421875 0.46875
vt 0.416015625 0.46875
vt 0.409765625 0.4453125
vt 0.1875 0.3905865625
vt 0.1875 0.421875
vt 0.15625 0.41820875
vt 0.15627859375 0.39082171875000005
vt 0.297141875 0.390625
vt 0.32453046875 0.390625
vt 0.3281634375 0.421875
vt 0.296875 0.42184046875000003
vt 0.557421875 0.96875
vt 0.562109375 1
vt 0.484765625 1
vt 0.489453125 0.96875
vt 0.551953125 0.828125
vt 0.547265625 0.859375
vt 0.476171875 0.859375
vt 0.471484375 0.828125
vt 0.449609375 0.484375
vt 0.448046875 0.515625
vt 0.380078125 0.515625
vt 0.378515625 0.484375
vt 0.551953125 0.78125
vt 0.550390625 0.8125
vt 0.473046875 0.8125
vt 0.471484375 0.78125
vn 1 0 0
vn -1 0 0
vn 0 1 0
vn 0 -1 0
vn 0 0 1
vn 0 0 -1
vn 0.1305261922198523 0.1294095077474714 -0.9829629150935163
vn -0.13052619221985304 -0.1294095077474714 0.9829629150935163
vn 2.2781118169482946e-7 0.9914448594248285 0.13052620702384043
vn -2.2781118169667978e-7 -0.9914448594248285 -0.1305262070238404
vn 0.9914448613738105 -0.0170373127176651 0.1294094928157369
vn -0.9914448613738105 0.01703731271766509 -0.12940949281573683
vn 1 0 0
vn -1 0 0
vn 0 0.9914448613738105 0.13052619222005118
vn 0 -0.9914448613738105 -0.1305261922200511
vn 0 -0.1305261922200513 0.9914448613738105
vn 0 0.13052619222005196 -0.9914448613738104
vn 0.13052619221985284 -0.1294095077474714 0.9829629150935164
vn -0.13052619221985237 0.1294095077474714 -0.9829629150935163
vn -2.278111816078618e-7 0.9914448594248285 0.13052620702384043
vn 2.2781118160786178e-7 -0.9914448594248285 -0.13052620702384043
vn -0.9914448613738105 -0.017037312717665072 0.12940949281573672
vn 0.9914448613738105 0.01703731271766509 -0.12940949281573683
vn 0.9842121153158409 0.07520557691782147 -0.16022057691188096
vn -0.9881228372239508 -0.0235267342196178 -0.1518543754175335
vn 0 0.9958932064677039 -0.09053574604251845
vn 0 -1 0
vn 0 0 1
vn 0 -0.05704979053851275 -0.9983713344239767
vn 1 0 0
vn -1 0 0
vn 0 0.9975640502598244 -0.06975647374412478
vn 0 -0.9975640502598244 0.06975647374412475
vn 0 0.06975647374412532 0.9975640502598244
vn 0 -0.06975647374412519 -0.9975640502598244
vn 0.9442232237987953 0.07123010663157671 -0.3215101484374396
vn -0.9615239476408232 -0.10513122416697744 -0.2538092272128031
vn 0 0.9238795325112867 -0.38268343236508995
vn 0 -0.9238795325112867 0.3826834323650899
vn 0 0.38268343236508967 0.9238795325112868
vn 0 -0.3826834323650895 -0.923879532511287
vn 0.9450800979851941 0.0012230938406001901 -0.32683652249060724
vn -0.9915095306014198 -0.12013578512951158 -0.04976187152698371
vn 0 0.38268343236508956 -0.9238795325112868
vn 0 -0.38268343236508967 0.923879532511287
vn 0 0.9238795325112867 0.38268343236509
vn 0 -0.9238795325112868 -0.38268343236509
vn 0.9868086539767046 0.04934043269883549 0.15418885218386003
vn -0.9863068845940285 0.056360393405373355 0.15499108186477584
vn 0 0.9922778767136677 0.12403473458920847
vn 0 -1 0
vn 0 0 1
vn 0 0 -1
usemtl m_0bfc56c3-de43-2743-8a27-e8a277908e3a
f 5/1/1 3/2/1 2/3/1 4/4/1
f 8/5/2 6/6/2 7/7/2 9/8/2
f 2/9/3 3/10/3 7/11/3 6/12/3
f 5/13/4 4/14/4 8/15/4 9/16/4
f 4/17/5 2/18/5 6/19/5 8/20/5
f 9/21/6 7/22/6 3/23/6 5/24/6
f 13/25/7 11/26/7 10/27/7 12/28/7
f 16/29/8 14/30/8 15/31/8 17/32/8
f 10/33/9 11/34/9 15/35/9 14/36/9
f 13/37/10 12/38/10 16/39/10 17/40/10
f 12/41/11 10/42/11 14/43/11 16/44/11
f 17/45/12 15/46/12 11/47/12 13/48/12
f 21/49/13 19/50/13 18/51/13 20/52/13
f 24/53/14 22/54/14 23/55/14 25/56/14
f 18/57/15 19/58/15 23/59/15 22/60/15
f 21/61/16 20/62/16 24/63/16 25/64/16
f 20/65/17 18/66/17 22/67/17 24/68/17
f 25/69/18 23/70/18 19/71/18 21/72/18
f 29/73/19 27/74/19 26/75/19 28/76/19
f 32/77/20 30/78/20 31/79/20 33/80/20
f 26/81/21 27/82/21 31/83/21 30/84/21
f 29/85/22 28/86/22 32/87/22 33/88/22
f 28/89/23 26/90/23 30/91/23 32/92/23
f 33/93/24 31/94/24 27/95/24 29/96/24
f 37/97/25 35/98/25 34/99/25 36/100/25
f 40/101/26 38/102/26 39/103/26 41/104/26
f 34/105/27 35/106/27 39/107/27 38/108/27
f 37/109/28 36/110/28 40/111/28 41/112/28
f 36/113/29 34/114/29 38/115/29 40/116/29
f 41/117/30 39/118/30 35/119/30 37/120/30
f 45/121/31 43/122/31 42/123/31 44/124/31
f 48/125/32 46/126/32 47/127/32 49/128/32
f 42/129/33 43/130/33 47/131/33 46/132/33
f 45/133/34 44/134/34 48/135/34 49/136/34
f 44/137/35 42/138/35 46/139/35 48/140/35
f 49/141/36 47/142/36 43/143/36 45/144/36
f 53/145/37 51/146/37 50/147/37 52/148/37
f 56/149/38 54/150/38 55/151/38 57/152/38
f 50/153/39 51/154/39 55/155/39 54/156/39
f 53/157/40 52/158/40 56/159/40 57/160/40
f 52/161/41 50/162/41 54/163/41 56/164/41
f 57/165/42 55/166/42 51/167/42 53/168/42
f 61/169/43 59/170/43 58/171/43 60/172/43
f 64/173/44 62/174/44 63/175/44 65/176/44
f 58/177/45 59/178/45 63/179/45 62/180/45
f 61/181/46 60/182/46 64/183/46 65/184/46
f 60/185/47 58/186/47 62/187/47 64/188/47
f 65/189/48 63/190/48 59/191/48 61/192/48
f 68/193/49 66/194/49 1/195/49 67/196/49
f 71/197/50 69/198/50 70/199/50 72/200/50
f 1/201/51 66/202/51 70/203/51 69/204/51
f 68/205/52 67/206/52 71/207/52 72/208/52
f 67/209/53 1/210/53 69/211/53 71/212/53
f 72/213/54 70/214/54 66/215/54 68/216/54
