# Made in Blockbench 5.2.1
mtllib us_b_r.mtl

o cube
v 0.2609375 0.28125 0.15625
v 0.2609375 0.28125 -0.15625
v 0.2609375 -0.0203125 0.15625
v 0.2609375 -0.0203125 -0.15625
v -0.010937499999999989 0.28125 0.15625
v -0.010937499999999989 0.28125 -0.15625
v -0.010937499999999989 -0.0203125 0.15625
v -0.010937499999999989 -0.0203125 -0.15625
v 0.3009325922444395 0.31705026407988146 -0.03831910010040071
v 0.23896728840857634 0.31811509612473554 -0.04640719340138426
v 0.3009325780062407 0.2550849603658297 -0.04647698803939074
v 0.2389672741703775 0.2561497924106838 -0.054565081340374286
v 0.2703405159429116 0.2867199107015679 0.19206283312464223
v 0.20837521210704843 0.28778474274642196 0.18397473982365864
v 0.27034050170471274 0.22475460698751615 0.1839049451856522
v 0.2083751978688496 0.22581943903237023 0.1758168518846686
v 0.2421875 0.2872930577633086 0.18770941601931657
v 0.2421875 0.2954509447770618 0.12574411218345344
v 0.2421875 0.22532775392744553 0.17955152900556337
v 0.2421875 0.23348564094119872 0.1175862251697002
v 0.0078125 0.2872930577633086 0.18770941601931657
v 0.0078125 0.2954509447770618 0.12574411218345344
v 0.0078125 0.22532775392744553 0.17955152900556337
v 0.0078125 0.23348564094119872 0.1175862251697002
v -0.020340599336959753 0.2867198298301862 0.1920630383420585
v 0.041624704498903486 0.28778466187504026 0.18397494504107492
v -0.02034058509876091 0.22475452611613445 0.18390515040306848
v 0.04162471873710233 0.22581935816098853 0.1758170571020849
v -0.050932675638487634 0.31705018320849976 -0.03831889488298441
v 0.011032628197375577 0.31811501525335384 -0.04640698818396796
v -0.05093266140028879 0.255084879494448 -0.046476782821974434
v 0.011032642435574419 0.2561497115393021 -0.05456487612295799
v 0.2921875 0.09999999999999998 0.015625
v 0.2546875 0.078125 -0.22499999999999998
v 0.2890625 -0.03125 0.015625
v 0.2640625 -0.03125 -0.21875
v -0.04218749999999999 0.09999999999999998 0.015625
v -0.004687500000000011 0.078125 -0.22499999999999998
v -0.0390625 -0.03125 0.015625
v -0.014062499999999978 -0.03125 -0.21875
v 0.2421875 0.3252303537040354 -0.11698257969817494
v 0.2421875 0.3208705740950276 -0.17933033283941394
v 0.2421875 0.07583934113907931 -0.09954346126214361
v 0.2421875 0.07147956153007151 -0.16189121440338264
v 0.0078125 0.3252303537040354 -0.11698257969817494
v 0.0078125 0.3208705740950276 -0.17933033283941394
v 0.0078125 0.07583934113907931 -0.09954346126214361
v 0.0078125 0.07147956153007151 -0.16189121440338264
v 0.2890625 0.1710445022436508 -0.021080951343356635
v 0.2265625 0.0873325014137874 -0.22317959908020057
v 0.2890625 0.08443079607071768 0.014795620440870516
v 0.2453125 0.0007187952408542753 -0.18730302729597345
v -0.0390625 0.1710445022436508 -0.021080951343356635
v 0.0234375 0.0873325014137874 -0.22317959908020057
v -0.0390625 0.08443079607071768 0.014795620440870516
v 0.004687500000000011 0.0007187952408542753 -0.18730302729597345
v 0.2609375 0.078125 0.171875
v 0.2796875 0.09375 0.046875
v 0.2671875 -0.03125 0.171875
v 0.2859375 -0.03125 0.046875
v -0.010937499999999989 0.078125 0.171875
v -0.029687499999999978 0.09375 0.046875
v -0.017187500000000022 -0.03125 0.171875
v -0.03593750000000001 -0.03125 0.046875
vt 0.10416666666666667 0.8958333333333334
vt 0.10416666666666667 1
vt 0 1
vt 0 0.8958333333333334
vt 0.10416666666666667 0.7708333333333334
vt 0.10416666666666667 0.875
vt 0 0.875
vt 0 0.7708333333333334
vt 0.09375 0.6458333333333333
vt 0.09375 0.75
vt 0 0.75
vt 0 0.6458333333333333
vt 0.34375 0.8958333333333334
vt 0.34375 1
vt 0.25 1
vt 0.25 0.8958333333333334
vt 0.21875 0.6458333333333333
vt 0.21875 0.75
vt 0.125 0.75
vt 0.125 0.6458333333333333
vt 0.34375 0.7708333333333334
vt 0.34375 0.875
vt 0.25 0.875
vt 0.25 0.7708333333333334
vt 0.8333333333333334 0.75
vt 0.8333333333333334 0.7708333333333334
vt 0.8125 0.7708333333333334
vt 0.8125 0.75
vt 0.8333333333333334 0.7083333333333333
vt 0.8333333333333334 0.7291666666666667
vt 0.8125 0.7291666666666667
vt 0.8125 0.7083333333333333
vt 0.4166666666666667 0.25
vt 0.4166666666666667 0.27083333333333337
vt 0.3333333333333333 0.27083333333333337
vt 0.3333333333333333 0.25
vt 0.5208333333333334 0.25
vt 0.5208333333333334 0.27083333333333337
vt 0.4375 0.27083333333333337
vt 0.4375 0.25
vt 0.8125 0.6666666666666667
vt 0.8125 0.6875
vt 0.7291666666666666 0.6875
vt 0.7291666666666666 0.6666666666666667
vt 0.7708333333333334 0.47916666666666663
vt 0.7708333333333334 0.5
vt 0.6875 0.5
vt 0.6875 0.47916666666666663
vt 0.3333333333333333 0.16666666666666663
vt 0.3333333333333333 0.1875
vt 0.3125 0.1875
vt 0.3125 0.16666666666666663
vt 0.375 0.16666666666666663
vt 0.375 0.1875
vt 0.3541666666666667 0.1875
vt 0.3541666666666667 0.16666666666666663
vt 0.8125 0.27083333333333337
vt 0.8125 0.29166666666666663
vt 0.7291666666666666 0.29166666666666663
vt 0.7291666666666666 0.27083333333333337
vt 0.8333333333333334 0.9166666666666666
vt 0.8333333333333334 0.9375
vt 0.75 0.9375
vt 0.75 0.9166666666666666
vt 0.8125 0.3125
vt 0.8125 0.33333333333333337
vt 0.7291666666666666 0.33333333333333337
vt 0.7291666666666666 0.3125
vt 0.625 0.25
vt 0.625 0.27083333333333337
vt 0.5416666666666666 0.27083333333333337
vt 0.5416666666666666 0.25
vt 0.4166666666666667 0.16666666666666663
vt 0.4166666666666667 0.1875
vt 0.3958333333333333 0.1875
vt 0.3958333333333333 0.16666666666666663
vt 0.4583333333333333 0.16666666666666663
vt 0.4583333333333333 0.1875
vt 0.4375 0.1875
vt 0.4375 0.16666666666666663
vt 0.8333333333333334 0.7916666666666666
vt 0.8333333333333334 0.8125
vt 0.75 0.8125
vt 0.75 0.7916666666666666
vt 0.8333333333333334 0.5625
vt 0.8333333333333334 0.5833333333333333
vt 0.75 0.5833333333333333
vt 0.75 0.5625
vt 0.8333333333333334 0.8333333333333334
vt 0.8333333333333334 0.8541666666666666
vt 0.75 0.8541666666666666
vt 0.75 0.8333333333333334
vt 0.8333333333333334 0.875
vt 0.8333333333333334 0.8958333333333334
vt 0.75 0.8958333333333334
vt 0.75 0.875
vt 0.08848277870156422 0.25
vt 0.1251346746374424 0.25
vt 0.1267634008261835 0.33333333333333337
vt 0.08333333333333333 0.33012739176318584
vt 0.6541538802415036 0.6666666666666667
vt 0.6979166666666666 0.6666666666666667
vt 0.6903292740476855 0.75
vt 0.653955344416605 0.7473350487029915
vt 0.37656249999999997 0.875
vt 0.38906250000000003 0.7916666666666666
vt 0.47552083333333334 0.7916666666666666
vt 0.48802083333333335 0.875
vt 0.3536458333333334 0.5416666666666667
vt 0.3619791666666667 0.625
vt 0.2526041666666667 0.625
vt 0.2609375 0.5416666666666667
vt 0.4869791666666667 0.41666666666666663
vt 0.48802083333333335 0.45833333333333337
vt 0.37656249999999997 0.45833333333333337
vt 0.3776041666666667 0.41666666666666663
vt 0.7182291666666667 0.8333333333333334
vt 0.7151041666666668 0.875
vt 0.6286458333333333 0.875
vt 0.6255208333333333 0.8333333333333334
vt 0.6666666666666666 0.1875
vt 0.6666666666666666 0.27083333333333337
vt 0.6458333333333334 0.27083333333333337
vt 0.6458333333333334 0.1875
vt 0.7083333333333334 0.16666666666666663
vt 0.7083333333333334 0.25
vt 0.6875 0.25
vt 0.6875 0.16666666666666663
vt 0.8333333333333334 0.5208333333333333
vt 0.8333333333333334 0.5416666666666667
vt 0.75 0.5416666666666667
vt 0.75 0.5208333333333333
vt 0.8125 0.22916666666666663
vt 0.8125 0.25
vt 0.7291666666666666 0.25
vt 0.7291666666666666 0.22916666666666663
vt 0.6041666666666666 0.8125
vt 0.6041666666666666 0.8958333333333334
vt 0.5208333333333334 0.8958333333333334
vt 0.5208333333333334 0.8125
vt 0.22916666666666666 0.41666666666666663
vt 0.22916666666666666 0.5
vt 0.14583333333333334 0.5
vt 0.14583333333333334 0.41666666666666663
vt 0.5324520833333334 0.30151041666666656
vt 0.53416875 0.33333333333333337
vt 0.4583333333333333 0.33333333333333337
vt 0.4583333333333333 0.3026458333333334
vt 0.6354166666666666 0.30208333333333337
vt 0.6354166666666666 0.33333333333333337
vt 0.5625 0.33333333333333337
vt 0.5642166666666667 0.30208333333333337
vt 0.5078125 0.48958333333333337
vt 0.4869791666666667 0.5625
vt 0.4192708333333333 0.5625
vt 0.3984375 0.48958333333333337
vt 0.34739583333333335 0.44791666666666663
vt 0.3619791666666667 0.5208333333333333
vt 0.2526041666666667 0.5208333333333333
vt 0.26718749999999997 0.44791666666666663
vt 0.7604166666666666 0.96875
vt 0.7604166666666666 1
vt 0.6458333333333334 1
vt 0.6458333333333334 0.96875
vt 0.33177083333333335 0.30208333333333337
vt 0.3255208333333333 0.33333333333333337
vt 0.2578125 0.33333333333333337
vt 0.25156249999999997 0.30208333333333337
vt 0.7083333333333334 0.29161541688306725
vt 0.7083333333333334 0.33333333333333337
vt 0.6666666666666666 0.32844502228470185
vt 0.6667048500138479 0.2919290494499721
vt 0.25035588581249907 0.22916666666666663
vt 0.28687398022633803 0.22916666666666663
vt 0.2917178911095479 0.27083333333333337
vt 0.25 0.2707873515620055
vt 0.38906250000000003 0.35416666666666663
vt 0.3953125 0.39583333333333337
vt 0.2921875 0.39583333333333337
vt 0.29843749999999997 0.35416666666666663
vt 0.6526041666666667 0.47916666666666663
vt 0.6463541666666667 0.5208333333333333
vt 0.5515625000000001 0.5208333333333333
vt 0.5453125 0.47916666666666663
vt 0.6411458333333333 0.35416666666666663
vt 0.6390625 0.39583333333333337
vt 0.5484375 0.39583333333333337
vt 0.5463541666666667 0.35416666666666663
vt 0.6317708333333333 0.41666666666666663
vt 0.6296875000000001 0.45833333333333337
vt 0.5265624999999999 0.45833333333333337
vt 0.5244791666666667 0.41666666666666663
vn 1 0 0
vn -1 0 0
vn 0 1 0
vn 0 -1 0
vn 0 0 1
vn 0 0 -1
vn 0.1305261922198523 0.1294095077474714 -0.9829629150935163
vn -0.13052619221985304 -0.1294095077474714 0.9829629150935163
vn 2.2781118169482946e-7 0.9914448594248285 0.13052620702384043
vn -2.2781118169667978e-7 -0.9914448594248285 -0.1305262070238404
vn 0.9914448613738105 -0.0170373127176651 0.1294094928157369
vn -0.9914448613738105 0.01703731271766509 -0.12940949281573683
vn 1 0 0
vn -1 0 0
vn 0 0.9914448613738105 0.13052619222005118
vn 0 -0.9914448613738105 -0.1305261922200511
vn 0 -0.1305261922200513 0.9914448613738105
vn 0 0.13052619222005196 -0.9914448613738104
vn 0.13052619221985284 -0.1294095077474714 0.9829629150935164
vn -0.13052619221985237 0.1294095077474714 -0.9829629150935163
vn -2.278111816078618e-7 0.9914448594248285 0.13052620702384043
vn 2.2781118160786178e-7 -0.9914448594248285 -0.13052620702384043
vn -0.9914448613738105 -0.017037312717665072 0.12940949281573672
vn 0.9914448613738105 0.01703731271766509 -0.12940949281573683
vn 0.9842121153158409 0.07520557691782147 -0.16022057691188096
vn -0.9881228372239508 -0.0235267342196178 -0.1518543754175335
vn 0 0.9958932064677039 -0.09053574604251845
vn 0 -1 0
vn 0 0 1
vn 0 -0.05704979053851275 -0.9983713344239767
vn 1 0 0
vn -1 0 0
vn 0 0.9975640502598244 -0.06975647374412478
vn 0 -0.9975640502598244 0.06975647374412475
vn 0 0.06975647374412532 0.9975640502598244
vn 0 -0.06975647374412519 -0.9975640502598244
vn 0.9442232237987953 0.07123010663157671 -0.3215101484374396
vn -0.9615239476408232 -0.10513122416697744 -0.2538092272128031
vn 0 0.9238795325112867 -0.38268343236508995
vn 0 -0.9238795325112867 0.3826834323650899
vn 0 0.38268343236508967 0.9238795325112868
vn 0 -0.3826834323650895 -0.923879532511287
vn 0.9868086539767046 0.04934043269883549 0.15418885218386003
vn -0.9863068845940285 0.056360393405373355 0.15499108186477584
vn 0 0.9922778767136677 0.12403473458920847
vn 0 -1 0
vn 0 0 1
vn 0 0 -1
usemtl m_49dfa803-428c-a7ec-65e4-7ef3efd6a684
f 4/1/1 2/2/1 1/3/1 3/4/1
f 7/5/2 5/6/2 6/7/2 8/8/2
f 1/9/3 2/10/3 6/11/3 5/12/3
f 4/13/4 3/14/4 7/15/4 8/16/4
f 3/17/5 1/18/5 5/19/5 7/20/5
f 8/21/6 6/22/6 2/23/6 4/24/6
f 12/25/7 10/26/7 9/27/7 11/28/7
f 15/29/8 13/30/8 14/31/8 16/32/8
f 9/33/9 10/34/9 14/35/9 13/36/9
f 12/37/10 11/38/10 15/39/10 16/40/10
f 11/41/11 9/42/11 13/43/11 15/44/11
f 16/45/12 14/46/12 10/47/12 12/48/12
f 20/49/13 18/50/13 17/51/13 19/52/13
f 23/53/14 21/54/14 22/55/14 24/56/14
f 17/57/15 18/58/15 22/59/15 21/60/15
f 20/61/16 19/62/16 23/63/16 24/64/16
f 19/65/17 17/66/17 21/67/17 23/68/17
f 24/69/18 22/70/18 18/71/18 20/72/18
f 28/73/19 26/74/19 25/75/19 27/76/19
f 31/77/20 29/78/20 30/79/20 32/80/20
f 25/81/21 26/82/21 30/83/21 29/84/21
f 28/85/22 27/86/22 31/87/22 32/88/22
f 27/89/23 25/90/23 29/91/23 31/92/23
f 32/93/24 30/94/24 26/95/24 28/96/24
f 36/97/25 34/98/25 33/99/25 35/100/25
f 39/101/26 37/102/26 38/103/26 40/104/26
f 33/105/27 34/106/27 38/107/27 37/108/27
f 36/109/28 35/110/28 39/111/28 40/112/28
f 35/113/29 33/114/29 37/115/29 39/116/29
f 40/117/30 38/118/30 34/119/30 36/120/30
f 44/121/31 42/122/31 41/123/31 43/124/31
f 47/125/32 45/126/32 46/127/32 48/128/32
f 41/129/33 42/130/33 46/131/33 45/132/33
f 44/133/34 43/134/34 47/135/34 48/136/34
f 43/137/35 41/138/35 45/139/35 47/140/35
f 48/141/36 46/142/36 42/143/36 44/144/36
f 52/145/37 50/146/37 49/147/37 51/148/37
f 55/149/38 53/150/38 54/151/38 56/152/38
f 49/153/39 50/154/39 54/155/39 53/156/39
f 52/157/40 51/158/40 55/159/40 56/160/40
f 51/161/41 49/162/41 53/163/41 55/164/41
f 56/165/42 54/166/42 50/167/42 52/168/42
f 60/169/43 58/170/43 57/171/43 59/172/43
f 63/173/44 61/174/44 62/175/44 64/176/44
f 57/177/45 58/178/45 62/179/45 61/180/45
f 60/181/46 59/182/46 63/183/46 64/184/46
f 59/185/47 57/186/47 61/187/47 63/188/47
f 64/189/48 62/190/48 58/191/48 60/192/48
