# Made in Blockbench 5.2.1
mtllib generic_light_tan_p_l.mtl

o mesh
v -0.03125 0.54681 -0.170381875
v -0.03125 0.54408625 -0.13925125
v -0.03125 0.419561875 -0.150145625
v -0.03125 0.422285625 -0.181276875
v -0.21875 0.419561875 -0.150145625
v -0.21875 0.54408625 -0.13925125
v -0.21875 0.54681 -0.170381875
v -0.21875 0.422285625 -0.181276875
v -0.03125 0.422285625 -0.181276875
v -0.03125 0.429049375 -0.1507675
v -0.03125 0.337521875 -0.13047625
v -0.03125 0.330758125 -0.160985625
v -0.21875 0.337521875 -0.13047625
v -0.21875 0.429049375 -0.1507675
v -0.21875 0.422285625 -0.181276875
v -0.21875 0.330758125 -0.160985625
v 0.03125 0.5625 -0.15625
v 0.03125 0.5625 0.15625
v 0.03125 0.3125 0.15625
v 0.03125 0.3125 -0.15625
v -0.28125 0.3125 0.15625
v -0.28125 0.5625 0.15625
v -0.28125 0.5625 -0.15625
v -0.28125 0.3125 -0.15625
vt 0.4375 0.375
vt 0.4166666666666667 0.375
vt 0.4166666666666667 0.29166666666666663
vt 0.4375 0.29166666666666663
vt 0.6666666666666666 0.8958333333333334
vt 0.75 0.8958333333333334
vt 0.75 0.9166666666666666
vt 0.6666666666666666 0.9166666666666666
vt 0.5 0.39583333333333337
vt 0.625 0.39583333333333337
vt 0.625 0.41666666666666663
vt 0.5 0.41666666666666663
vt 0.5 0.5
vt 0.5 0.47916666666666663
vt 0.625 0.47916666666666663
vt 0.625 0.5
vt 0.625 0.9166666666666666
vt 0.625 1
vt 0.5 1
vt 0.5 0.9166666666666666
vt 0.625 0.875
vt 0.5 0.875
vt 0.5 0.7916666666666666
vt 0.625 0.7916666666666666
vt 0.7291666666666666 0.8125
vt 0.7291666666666666 0.8333333333333334
vt 0.6666666666666666 0.8333333333333334
vt 0.6666666666666666 0.8125
vt 0.6875 0.6875
vt 0.6875 0.75
vt 0.6666666666666666 0.75
vt 0.6666666666666666 0.6875
vt 0.375 0.375
vt 0.25 0.375
vt 0.25 0.35416666666666663
vt 0.375 0.35416666666666663
vt 0.7916666666666666 0.9791666666666666
vt 0.7916666666666666 1
vt 0.6666666666666666 1
vt 0.6666666666666666 0.9791666666666666
vt 0.625 0.6875
vt 0.625 0.75
vt 0.5 0.75
vt 0.5 0.6875
vt 0.625 0.625
vt 0.5 0.625
vt 0.5 0.5625
vt 0.625 0.5625
vt 0.4583333333333333 1
vt 0.25 1
vt 0.25 0.8333333333333334
vt 0.4583333333333333 0.8333333333333334
vt 0.4583333333333333 0.625
vt 0.4583333333333333 0.7916666666666666
vt 0.25 0.7916666666666666
vt 0.25 0.625
vt 0 0.7916666666666666
vt 0.20833333333333334 0.7916666666666666
vt 0.20833333333333334 1
vt 0 1
vt 0.20833333333333334 0.5416666666666667
vt 0.20833333333333334 0.75
vt 0 0.75
vt 0 0.5416666666666667
vt 0.4583333333333333 0.41666666666666663
vt 0.4583333333333333 0.5833333333333333
vt 0.25 0.5833333333333333
vt 0.25 0.41666666666666663
vt 0.20833333333333334 0.5
vt 0 0.5
vt 0 0.33333333333333337
vt 0.20833333333333334 0.33333333333333337
vn 1 0 0
vn -1 0 0
vn 0 0.9961942167891124 0.08716124388698814
vn 0 -0.9961943687283887 -0.08715950730613045
vn 0 -0.08715497942924849 0.9961947648731584
vn 0 0.08715994144488161 -0.996194330744421
vn 1 0 0
vn -1 0 0
vn 0 0.9762961125918782 -0.2164391381843557
vn 0 -0.9762961125918782 0.2164391381843557
vn 0 0.21644054691228468 0.9762958002840694
vn 0 -0.21644054691228468 -0.9762958002840694
vn 1 0 0
vn -1 0 0
vn 0 1 0
vn 0 -1 0
vn 0 0 1
vn 0 0 -1
usemtl m_59bcd4c3-6ed4-06e9-aa5e-71dade7acf6e
f 1/1/1 2/2/1 3/3/1 4/4/1
f 5/5/2 6/6/2 7/7/2 8/8/2
f 6/9/3 2/10/3 1/11/3 7/12/3
f 4/13/4 3/14/4 5/15/4 8/16/4
f 3/17/5 2/18/5 6/19/5 5/20/5
f 7/21/6 1/22/6 4/23/6 8/24/6
f 9/25/7 10/26/7 11/27/7 12/28/7
f 13/29/8 14/30/8 15/31/8 16/32/8
f 14/33/9 10/34/9 9/35/9 15/36/9
f 12/37/10 11/38/10 13/39/10 16/40/10
f 11/41/11 10/42/11 14/43/11 13/44/11
f 15/45/12 9/46/12 12/47/12 16/48/12
f 17/49/13 18/50/13 19/51/13 20/52/13
f 21/53/14 22/54/14 23/55/14 24/56/14
f 22/57/15 18/58/15 17/59/15 23/60/15
f 20/61/16 19/62/16 21/63/16 24/64/16
f 19/65/17 18/66/17 22/67/17 21/68/17
f 23/69/18 17/70/18 20/71/18 24/72/18
