# Made in Blockbench 5.2.1
mtllib hazard_kit_p_l.mtl

o cube
v -0.0000062500000000131894 0.34375625 -0.12811875
v -0.0000062500000000131894 0.53749375 -0.12811875
v -0.0000062500000000131894 0.53749375 -0.10938125
v -0.0000062500000000131894 0.34375625 -0.10938125
v -0.25624375 0.34375625 -0.10938125
v -0.25624375 0.53749375 -0.10938125
v -0.25624375 0.53749375 -0.12811875
v -0.25624375 0.34375625 -0.12811875
v -0.2375125 0.5000125000000001 -0.1281125
v -0.2375125 0.5374875 -0.1281125
v -0.2375125 0.5374875 0.12811250000000002
v -0.2375125 0.5000125000000001 0.12811250000000002
v -0.25623749999999995 0.5000125000000001 0.12811250000000002
v -0.25623749999999995 0.5374875 0.12811250000000002
v -0.25623749999999995 0.5374875 -0.1281125
v -0.25623749999999995 0.5000125000000001 -0.1281125
v -0.2375125 0.34376249999999997 -0.1281125
v -0.2375125 0.3812375 -0.1281125
v -0.2375125 0.3812375 0.12811250000000002
v -0.2375125 0.34376249999999997 0.12811250000000002
v -0.25623749999999995 0.34376249999999997 0.12811250000000002
v -0.25623749999999995 0.3812375 0.12811250000000002
v -0.25623749999999995 0.3812375 -0.1281125
v -0.25623749999999995 0.34376249999999997 -0.1281125
v -0.000006249999999985434 0.34375625 0.10938124999999999
v -0.000006249999999985434 0.38124375 0.10938124999999999
v -0.000006249999999985434 0.38124375 0.12811875000000006
v -0.000006249999999985434 0.34375625 0.12811875000000006
v -0.24999375000000001 0.34375625 0.12811875000000006
v -0.24999375000000001 0.38124375 0.12811875000000006
v -0.24999375000000001 0.38124375 0.10938124999999999
v -0.24999375000000001 0.34375625 0.10938124999999999
v -0.0000062500000000131894 0.5000062500000001 0.10938124999999999
v -0.0000062500000000131894 0.53749375 0.10938124999999999
v -0.0000062500000000131894 0.53749375 0.12811875000000006
v -0.0000062500000000131894 0.5000062500000001 0.12811875000000006
v -0.25624375 0.5000062500000001 0.12811875000000006
v -0.25624375 0.53749375 0.12811875000000006
v -0.25624375 0.53749375 0.10938124999999999
v -0.25624375 0.5000062500000001 0.10938124999999999
v -0.000018750000000011813 0.5000187500000001 -0.12810624999999998
v -0.000018750000000011813 0.53748125 -0.12810624999999998
v -0.000018750000000011813 0.53748125 0.12810625000000003
v -0.000018750000000011813 0.5000187500000001 0.12810625000000003
v -0.018731249999999977 0.5000187500000001 0.12810625000000003
v -0.018731249999999977 0.53748125 0.12810625000000003
v -0.018731249999999977 0.53748125 -0.12810624999999998
v -0.018731249999999977 0.5000187500000001 -0.12810624999999998
v -0.000018750000000011813 0.34376875 -0.12810624999999998
v -0.000018750000000011813 0.38123124999999997 -0.12810624999999998
v -0.000018750000000011813 0.38123124999999997 0.12810625000000003
v -0.000018750000000011813 0.34376875 0.12810625000000003
v -0.018731249999999977 0.34376875 0.12810625000000003
v -0.018731249999999977 0.38123124999999997 0.12810625000000003
v -0.018731249999999977 0.38123124999999997 -0.12810624999999998
v -0.018731249999999977 0.34376875 -0.12810624999999998
v -0.03125 0.34375 -0.140625
v -0.03125 0.50625 -0.140625
v -0.03125 0.50625 -0.128125
v -0.03125 0.34375 -0.128125
v -0.22499999999999998 0.34375 -0.128125
v -0.22499999999999998 0.50625 -0.128125
v -0.22499999999999998 0.50625 -0.140625
v -0.22499999999999998 0.34375 -0.140625
vt 0.3958333333333333 0.20833333333333337
vt 0.3958333333333333 0.33333333333333337
vt 0.375 0.33333333333333337
vt 0.375 0.20833333333333337
vt 0.4791666666666667 0.20833333333333337
vt 0.4791666666666667 0.33333333333333337
vt 0.4583333333333333 0.33333333333333337
vt 0.4583333333333333 0.20833333333333337
vt 0.16666666666666666 0.6458333333333333
vt 0.16666666666666666 0.6666666666666667
vt 0 0.6666666666666667
vt 0 0.6458333333333333
vt 0.375 0.6458333333333333
vt 0.375 0.6666666666666667
vt 0.20833333333333334 0.6666666666666667
vt 0.20833333333333334 0.6458333333333333
vt 0.16666666666666666 0.875
vt 0.16666666666666666 1
vt 0 1
vt 0 0.875
vt 0.16666666666666666 0.7083333333333333
vt 0.16666666666666666 0.8333333333333334
vt 0 0.8333333333333334
vt 0 0.7083333333333333
vt 0.5416666666666666 0.9791666666666666
vt 0.5416666666666666 1
vt 0.375 1
vt 0.375 0.9791666666666666
vt 0.5416666666666666 0.8958333333333334
vt 0.5416666666666666 0.9166666666666666
vt 0.375 0.9166666666666666
vt 0.375 0.8958333333333334
vt 0.020833333333333332 0.41666666666666663
vt 0.020833333333333332 0.5833333333333333
vt 0 0.5833333333333333
vt 0 0.41666666666666663
vt 0.10416666666666667 0.41666666666666663
vt 0.10416666666666667 0.5833333333333333
vt 0.08333333333333333 0.5833333333333333
vt 0.08333333333333333 0.41666666666666663
vt 0.8125 0.9791666666666666
vt 0.8125 1
vt 0.7916666666666666 1
vt 0.7916666666666666 0.9791666666666666
vt 0.10416666666666667 0.1875
vt 0.10416666666666667 0.20833333333333337
vt 0.08333333333333333 0.20833333333333337
vt 0.08333333333333333 0.1875
vt 0.5416666666666666 0.8125
vt 0.5416666666666666 0.8333333333333334
vt 0.375 0.8333333333333334
vt 0.375 0.8125
vt 0.5416666666666666 0.7291666666666667
vt 0.5416666666666666 0.75
vt 0.375 0.75
vt 0.375 0.7291666666666667
vt 0.1875 0.41666666666666663
vt 0.1875 0.5833333333333333
vt 0.16666666666666666 0.5833333333333333
vt 0.16666666666666666 0.41666666666666663
vt 0.2708333333333333 0.41666666666666663
vt 0.2708333333333333 0.5833333333333333
vt 0.25 0.5833333333333333
vt 0.25 0.41666666666666663
vt 0.8125 0.8958333333333334
vt 0.8125 0.9166666666666666
vt 0.7916666666666666 0.9166666666666666
vt 0.7916666666666666 0.8958333333333334
vt 0.1875 0.1875
vt 0.1875 0.20833333333333337
vt 0.16666666666666666 0.20833333333333337
vt 0.16666666666666666 0.1875
vt 0.8125 0.8125
vt 0.8125 0.8333333333333334
vt 0.7916666666666666 0.8333333333333334
vt 0.7916666666666666 0.8125
vt 0.8125 0.7291666666666667
vt 0.8125 0.75
vt 0.7916666666666666 0.75
vt 0.7916666666666666 0.7291666666666667
vt 0.5 0.5625
vt 0.5 0.5833333333333333
vt 0.3333333333333333 0.5833333333333333
vt 0.3333333333333333 0.5625
vt 0.5833333333333334 0.6458333333333333
vt 0.5833333333333334 0.6666666666666667
vt 0.4166666666666667 0.6666666666666667
vt 0.4166666666666667 0.6458333333333333
vt 0.5 0.47916666666666663
vt 0.5 0.5
vt 0.3333333333333333 0.5
vt 0.3333333333333333 0.47916666666666663
vt 0.7083333333333334 0.5625
vt 0.7083333333333334 0.5833333333333333
vt 0.5416666666666666 0.5833333333333333
vt 0.5416666666666666 0.5625
vt 0.5625 0.1875
vt 0.5625 0.20833333333333337
vt 0.5416666666666666 0.20833333333333337
vt 0.5416666666666666 0.1875
vt 0.6458333333333334 0.1875
vt 0.6458333333333334 0.20833333333333337
vt 0.625 0.20833333333333337
vt 0.625 0.1875
vt 0.7083333333333334 0.47916666666666663
vt 0.7083333333333334 0.5
vt 0.5416666666666666 0.5
vt 0.5416666666666666 0.47916666666666663
vt 0.75 0.9791666666666666
vt 0.75 1
vt 0.5833333333333334 1
vt 0.5833333333333334 0.9791666666666666
vt 0.75 0.8958333333333334
vt 0.75 0.9166666666666666
vt 0.5833333333333334 0.9166666666666666
vt 0.5833333333333334 0.8958333333333334
vt 0.75 0.8125
vt 0.75 0.8333333333333334
vt 0.5833333333333334 0.8333333333333334
vt 0.5833333333333334 0.8125
vt 0.75 0.7291666666666667
vt 0.75 0.75
vt 0.5833333333333334 0.75
vt 0.5833333333333334 0.7291666666666667
vt 0.5 0.39583333333333337
vt 0.5 0.41666666666666663
vt 0.3333333333333333 0.41666666666666663
vt 0.3333333333333333 0.39583333333333337
vt 0.5625 0.25
vt 0.5625 0.41666666666666663
vt 0.5416666666666666 0.41666666666666663
vt 0.5416666666666666 0.25
vt 0.020833333333333332 0.20833333333333337
vt 0.020833333333333332 0.375
vt 0 0.375
vt 0 0.20833333333333337
vt 0.8125 0.3125
vt 0.8125 0.33333333333333337
vt 0.7916666666666666 0.33333333333333337
vt 0.7916666666666666 0.3125
vt 0.8125 0.22916666666666663
vt 0.8125 0.25
vt 0.7916666666666666 0.25
vt 0.7916666666666666 0.22916666666666663
vt 0.25 0.35416666666666663
vt 0.25 0.375
vt 0.08333333333333333 0.375
vt 0.08333333333333333 0.35416666666666663
vt 0.7916666666666666 0.6458333333333333
vt 0.7916666666666666 0.6666666666666667
vt 0.625 0.6666666666666667
vt 0.625 0.6458333333333333
vt 0.6458333333333334 0.25
vt 0.6458333333333334 0.41666666666666663
vt 0.625 0.41666666666666663
vt 0.625 0.25
vt 0.3125 0.16666666666666663
vt 0.3125 0.33333333333333337
vt 0.2916666666666667 0.33333333333333337
vt 0.2916666666666667 0.16666666666666663
vt 0.020833333333333332 0.14583333333333337
vt 0.020833333333333332 0.16666666666666663
vt 0 0.16666666666666663
vt 0 0.14583333333333337
vt 0.8541666666666666 0.6458333333333333
vt 0.8541666666666666 0.6666666666666667
vt 0.8333333333333334 0.6666666666666667
vt 0.8333333333333334 0.6458333333333333
vt 0.7291666666666666 0.22916666666666663
vt 0.7291666666666666 0.33333333333333337
vt 0.7083333333333334 0.33333333333333337
vt 0.7083333333333334 0.22916666666666663
vt 0.7708333333333334 0.47916666666666663
vt 0.7708333333333334 0.5833333333333333
vt 0.75 0.5833333333333333
vt 0.75 0.47916666666666663
vt 0.20833333333333334 0.27083333333333337
vt 0.20833333333333334 0.29166666666666663
vt 0.08333333333333333 0.29166666666666663
vt 0.08333333333333333 0.27083333333333337
vt 0.8333333333333334 0.39583333333333337
vt 0.8333333333333334 0.41666666666666663
vt 0.7083333333333334 0.41666666666666663
vt 0.7083333333333334 0.39583333333333337
vt 0.3333333333333333 0.8958333333333334
vt 0.3333333333333333 1
vt 0.20833333333333334 1
vt 0.20833333333333334 0.8958333333333334
vt 0.3333333333333333 0.7291666666666667
vt 0.3333333333333333 0.8333333333333334
vt 0.20833333333333334 0.8333333333333334
vt 0.20833333333333334 0.7291666666666667
vn 1 0 0
vn -1 0 0
vn 0 1 0
vn 0 -1 0
vn 0 0 1
vn 0 0 -1
vn 1 0 0
vn -1 0 0
vn 0 1 0
vn 0 -1 0
vn 0 0 1
vn 0 0 -1
vn 1 0 0
vn -1 0 0
vn 0 1 0
vn 0 -1 0
vn 0 0 1
vn 0 0 -1
vn 1 0 0
vn -1 0 0
vn 0 1 0
vn 0 -1 0
vn 0 0 1
vn 0 0 -1
vn 1 0 0
vn -1 0 0
vn 0 1 0
vn 0 -1 0
vn 0 0 1
vn 0 0 -1
vn 1 0 0
vn -1 0 0
vn 0 1 0
vn 0 -1 0
vn 0 0 1
vn 0 0 -1
vn 1 0 0
vn -1 0 0
vn 0 1 0
vn 0 -1 0
vn 0 0 1
vn 0 0 -1
vn 1 0 0
vn -1 0 0
vn 0 1 0
vn 0 -1 0
vn 0 0 1
vn 0 0 -1
usemtl m_28b76cfb-cdd9-ea75-9266-ca98cba80bbb
f 1/1/1 2/2/1 3/3/1 4/4/1
f 5/5/2 6/6/2 7/7/2 8/8/2
f 3/9/3 2/10/3 7/11/3 6/12/3
f 1/13/4 4/14/4 5/15/4 8/16/4
f 4/17/5 3/18/5 6/19/5 5/20/5
f 8/21/6 7/22/6 2/23/6 1/24/6
f 9/25/7 10/26/7 11/27/7 12/28/7
f 13/29/8 14/30/8 15/31/8 16/32/8
f 11/33/9 10/34/9 15/35/9 14/36/9
f 9/37/10 12/38/10 13/39/10 16/40/10
f 12/41/11 11/42/11 14/43/11 13/44/11
f 16/45/12 15/46/12 10/47/12 9/48/12
f 17/49/13 18/50/13 19/51/13 20/52/13
f 21/53/14 22/54/14 23/55/14 24/56/14
f 19/57/15 18/58/15 23/59/15 22/60/15
f 17/61/16 20/62/16 21/63/16 24/64/16
f 20/65/17 19/66/17 22/67/17 21/68/17
f 24/69/18 23/70/18 18/71/18 17/72/18
f 25/73/19 26/74/19 27/75/19 28/76/19
f 29/77/20 30/78/20 31/79/20 32/80/20
f 27/81/21 26/82/21 31/83/21 30/84/21
f 25/85/22 28/86/22 29/87/22 32/88/22
f 28/89/23 27/90/23 30/91/23 29/92/23
f 32/93/24 31/94/24 26/95/24 25/96/24
f 33/97/25 34/98/25 35/99/25 36/100/25
f 37/101/26 38/102/26 39/103/26 40/104/26
f 35/105/27 34/106/27 39/107/27 38/108/27
f 33/109/28 36/110/28 37/111/28 40/112/28
f 36/113/29 35/114/29 38/115/29 37/116/29
f 40/117/30 39/118/30 34/119/30 33/120/30
f 41/121/31 42/122/31 43/123/31 44/124/31
f 45/125/32 46/126/32 47/127/32 48/128/32
f 43/129/33 42/130/33 47/131/33 46/132/33
f 41/133/34 44/134/34 45/135/34 48/136/34
f 44/137/35 43/138/35 46/139/35 45/140/35
f 48/141/36 47/142/36 42/143/36 41/144/36
f 49/145/37 50/146/37 51/147/37 52/148/37
f 53/149/38 54/150/38 55/151/38 56/152/38
f 51/153/39 50/154/39 55/155/39 54/156/39
f 49/157/40 52/158/40 53/159/40 56/160/40
f 52/161/41 51/162/41 54/163/41 53/164/41
f 56/165/42 55/166/42 50/167/42 49/168/42
f 57/169/43 58/170/43 59/171/43 60/172/43
f 61/173/44 62/174/44 63/175/44 64/176/44
f 59/177/45 58/178/45 63/179/45 62/180/45
f 57/181/46 60/182/46 61/183/46 64/184/46
f 60/185/47 59/186/47 62/187/47 61/188/47
f 64/189/48 63/190/48 58/191/48 57/192/48
