# Made in Blockbench 5.1.5
mtllib osprey_kneeguards_p_r.mtl

o mesh
v 0.25 0.5752172876193395 -0.13652743735108036
v 0.25 0.5779409045802038 -0.1676585216664474
v 0.25 0.41956186604250423 -0.15014552215540194
v 0.25 0.42228548300336854 -0.181276606470769
v 0 0.5752172876193395 -0.13652743735108036
v 0 0.5779409045802038 -0.1676585216664474
v 0 0.41956186604250423 -0.15014552215540194
v 0 0.42228548300336854 -0.181276606470769
v 0.25 0.42904936293556567 -0.15076762477750208
v 0.25 0.422285625 -0.181276875
v 0.25 0.30701236204557397 -0.12371267303523921
v 0.25 0.3002486241100083 -0.15422192325773712
v 0 0.42904936293556567 -0.15076762477750208
v 0 0.422285625 -0.181276875
v 0 0.30701236204557397 -0.12371267303523921
v 0 0.3002486241100083 -0.15422192325773712
v 0.28125 0.5625 0.15625
v 0.28125 0.5625 -0.15625
v 0.28125 0.3125 0.15625
v 0.28125 0.3125 -0.15625
v -0.03125 0.5625 0.15625
v -0.03125 0.5625 -0.15625
v -0.03125 0.3125 0.15625
v -0.03125 0.3125 -0.15625
vt 0.390625 0.28125
vt 0.375 0.28125
vt 0.375 0.203125
vt 0.390625 0.203125
vt 0.453125 0.203125
vt 0.453125 0.28125
vt 0.4375 0.28125
vt 0.4375 0.203125
vt 0.71875 0.921875
vt 0.84375 0.921875
vt 0.84375 0.9375
vt 0.71875 0.9375
vt 0.84375 0.859375
vt 0.84375 0.875
vt 0.71875 0.875
vt 0.71875 0.859375
vt 0.6875 0.671875
vt 0.6875 0.75
vt 0.5625 0.75
vt 0.5625 0.671875
vt 0.6875 0.625
vt 0.5625 0.625
vt 0.5625 0.546875
vt 0.6875 0.546875
vt 0.171875 0.25
vt 0.15625 0.25
vt 0.15625 0.1875
vt 0.171875 0.1875
vt 0.234375 0.1875
vt 0.234375 0.25
vt 0.21875 0.25
vt 0.21875 0.1875
vt 0.71875 0.796875
vt 0.84375 0.796875
vt 0.84375 0.8125
vt 0.71875 0.8125
vt 0.84375 0.734375
vt 0.84375 0.75
vt 0.71875 0.75
vt 0.71875 0.734375
vt 0.5 0.3125
vt 0.5 0.375
vt 0.375 0.375
vt 0.375 0.3125
vt 0.125 0.3125
vt 0 0.3125
vt 0 0.25
vt 0.125 0.25
vt 0.53125 0.6875
vt 0.375 0.6875
vt 0.375 0.5625
vt 0.53125 0.5625
vt 0.53125 0.40625
vt 0.53125 0.53125
vt 0.375 0.53125
vt 0.375 0.40625
vt 0.1875 0.84375
vt 0.34375 0.84375
vt 0.34375 1
vt 0.1875 1
vt 0.34375 0.65625
vt 0.34375 0.8125
vt 0.1875 0.8125
vt 0.1875 0.65625
vt 0.15625 0.34375
vt 0.15625 0.46875
vt 0 0.46875
vt 0 0.34375
vt 0.34375 0.46875
vt 0.1875 0.46875
vt 0.1875 0.34375
vt 0.34375 0.34375
vn 1 0 0
vn -1 0 0
vn 0 0.9961946980917455 0.08715574274765818
vn 0 -0.9961946980917455 -0.08715574274765818
vn 0 -0.08715574274765818 0.9961946980917455
vn 0 0.08715574274765818 -0.9961946980917455
vn 1 0 0
vn -1 0 0
vn 0 0.9762960071199339 -0.2164396139381014
vn 0 -0.9762960071199339 0.2164396139381014
vn 0 0.21643961393810301 0.9762960071199335
vn 0 -0.21643961393810301 -0.9762960071199335
vn 1 0 0
vn -1 0 0
vn 0 1 4.163336342344336e-17
vn 0 -1 -4.163336342344336e-17
vn 0 -4.163336342344337e-17 1
vn 0 4.163336342344337e-17 -1
usemtl m_d2ad5003-538f-a227-29ab-a62d9ce4776f
f 2/1/1 1/2/1 3/3/1 4/4/1
f 7/5/2 5/6/2 6/7/2 8/8/2
f 5/9/3 1/10/3 2/11/3 6/12/3
f 4/13/4 3/14/4 7/15/4 8/16/4
f 3/17/5 1/18/5 5/19/5 7/20/5
f 6/21/6 2/22/6 4/23/6 8/24/6
f 10/25/7 9/26/7 11/27/7 12/28/7
f 15/29/8 13/30/8 14/31/8 16/32/8
f 13/33/9 9/34/9 10/35/9 14/36/9
f 12/37/10 11/38/10 15/39/10 16/40/10
f 11/41/11 9/42/11 13/43/11 15/44/11
f 14/45/12 10/46/12 12/47/12 16/48/12
f 18/49/13 17/50/13 19/51/13 20/52/13
f 23/53/14 21/54/14 22/55/14 24/56/14
f 21/57/15 17/58/15 18/59/15 22/60/15
f 20/61/16 19/62/16 23/63/16 24/64/16
f 19/65/17 17/66/17 21/67/17 23/68/17
f 22/69/18 18/70/18 20/71/18 24/72/18
