# Made in Blockbench 5.2.1
mtllib r_police_p_r.mtl

o mesh
v 0.21875 0.5440862033039724 -0.13925105431194468
v 0.21875 0.5468098202648368 -0.17038213862731172
v 0.21875 0.41956186604250423 -0.15014552215540194
v 0.21875 0.42228548300336854 -0.181276606470769
v 0.03125 0.5440862033039724 -0.13925105431194468
v 0.03125 0.5468098202648368 -0.17038213862731172
v 0.03125 0.41956186604250423 -0.15014552215540194
v 0.03125 0.42228548300336854 -0.181276606470769
v 0.21875 0.42904908656142315 -0.1507678997390715
v 0.21875 0.42228548300336854 -0.181276606470769
v 0.21875 0.3375216666506189 -0.13047657538789995
v 0.21875 0.3307581175649036 -0.16098590474128371
v 0.03125 0.42904908656142315 -0.1507678997390715
v 0.03125 0.42228548300336854 -0.181276606470769
v 0.03125 0.3375216666506189 -0.13047657538789995
v 0.03125 0.3307581175649036 -0.16098590474128371
v 0.29296875 0.5625001394736513 0.16406240023923452
v 0.29296875 0.5624999813286055 -0.1640624777684428
v 0.29296875 0.3125000804674816 0.16406220868065524
v 0.29296875 0.31249992232243584 -0.1640626693270221
v -0.03125 0.5625001394736513 0.16406240023923452
v -0.03125 0.5624999813286055 -0.1640624777684428
v -0.03125 0.3125000804674816 0.16406220868065524
v -0.03125 0.31249992232243584 -0.1640626693270221
vt 0.765625 0.25
vt 0.75 0.25
vt 0.75 0.1875
vt 0.765625 0.1875
vt 0.796875 0.9375
vt 0.796875 1
vt 0.78125 1
vt 0.78125 0.9375
vt 0.5625 0.265625
vt 0.65625 0.265625
vt 0.65625 0.28125
vt 0.5625 0.28125
vt 0.09375 0.234375
vt 0.09375 0.25
vt 0 0.25
vt 0 0.234375
vt 0.75 0.9375
vt 0.75 1
vt 0.65625 1
vt 0.65625 0.9375
vt 0.75 0.90625
vt 0.65625 0.90625
vt 0.65625 0.84375
vt 0.75 0.84375
vt 0.796875 0.71875
vt 0.78125 0.71875
vt 0.78125 0.671875
vt 0.796875 0.671875
vt 0.796875 0.578125
vt 0.796875 0.625
vt 0.78125 0.625
vt 0.78125 0.578125
vt 0.125 0.234375
vt 0.21875 0.234375
vt 0.21875 0.25
vt 0.125 0.25
vt 0.34375 0.234375
vt 0.34375 0.25
vt 0.25 0.25
vt 0.25 0.234375
vt 0.75 0.578125
vt 0.75 0.625
vt 0.65625 0.625
vt 0.65625 0.578125
vt 0.75 0.53125
vt 0.65625 0.53125
vt 0.65625 0.484375
vt 0.75 0.484375
vt 0.6015625 0.6875
vt 0.4375 0.6875
vt 0.4375 0.5625
vt 0.6015625 0.5625
vt 0.6015625 0.40625
vt 0.6015625 0.53125
vt 0.4375 0.53125
vt 0.4375 0.40625
vt 0.21875 0.8359375
vt 0.3828125 0.8359375
vt 0.3828125 1
vt 0.21875 1
vt 0.3828125 0.6171875
vt 0.3828125 0.78125
vt 0.21875 0.78125
vt 0.21875 0.6171875
vt 0.1640625 0.28125
vt 0.1640625 0.40625
vt 0 0.40625
vt 0 0.28125
vt 0.3828125 0.40625
vt 0.21875 0.40625
vt 0.21875 0.28125
vt 0.3828125 0.28125
vn 1 0 0
vn -1 0 0
vn 0 0.9961946980917455 0.08715574274765818
vn 0 -0.9961946980917455 -0.08715574274765818
vn 0 -0.08715574274765818 0.9961946980917455
vn 0 0.08715574274765818 -0.9961946980917455
vn 1 0 0
vn -1 0 0
vn 0 0.9762961010340732 -0.21643919031835973
vn 0 -0.9762974027035057 0.2164333187713683
vn 0 0.21644148336025282 0.9762955926771427
vn 0 -0.21643527592968018 -0.976296968823136
vn 1 0 0
vn -1 0 0
vn 0 0.999999999999884 -4.81966033138992e-7
vn 0 -0.999999999999884 4.819660330557253e-7
vn 0 -7.662341363207092e-7 0.9999999999997065
vn 0 7.662341364178538e-7 -0.9999999999997065
usemtl m_219817b0-2d51-b07b-2aff-265b47660844
f 2/1/1 1/2/1 3/3/1 4/4/1
f 7/5/2 5/6/2 6/7/2 8/8/2
f 5/9/3 1/10/3 2/11/3 6/12/3
f 4/13/4 3/14/4 7/15/4 8/16/4
f 3/17/5 1/18/5 5/19/5 7/20/5
f 6/21/6 2/22/6 4/23/6 8/24/6
f 10/25/7 9/26/7 11/27/7 12/28/7
f 15/29/8 13/30/8 14/31/8 16/32/8
f 13/33/9 9/34/9 10/35/9 14/36/9
f 12/37/10 11/38/10 15/39/10 16/40/10
f 11/41/11 9/42/11 13/43/11 15/44/11
f 14/45/12 10/46/12 12/47/12 16/48/12
f 18/49/13 17/50/13 19/51/13 20/52/13
f 23/53/14 21/54/14 22/55/14 24/56/14
f 21/57/15 17/58/15 18/59/15 22/60/15
f 20/61/16 19/62/16 23/63/16 24/64/16
f 19/65/17 17/66/17 21/67/17 23/68/17
f 22/69/18 18/70/18 20/71/18 24/72/18
