# Made in Blockbench 5.2.1
mtllib taro_p_l.mtl

o mesh
v -0.03125 0.5440862033039724 -0.13925105431194468
v -0.03125 0.5468098202648368 -0.17038213862731172
v -0.03125 0.41956186604250423 -0.15014552215540194
v -0.03125 0.42228548300336854 -0.181276606470769
v -0.21875 0.5440862033039724 -0.13925105431194468
v -0.21875 0.5468098202648368 -0.17038213862731172
v -0.21875 0.41956186604250423 -0.15014552215540194
v -0.21875 0.42228548300336854 -0.181276606470769
v -0.03125 0.42904936293556567 -0.15076762477750208
v -0.03125 0.422285625 -0.181276875
v -0.03125 0.337521612268072 -0.13047641097080492
v -0.03125 0.33075787433250625 -0.16098566119330282
v -0.21875 0.42904936293556567 -0.15076762477750208
v -0.21875 0.422285625 -0.181276875
v -0.21875 0.337521612268072 -0.13047641097080492
v -0.21875 0.33075787433250625 -0.16098566119330282
v 0.03125 0.5625 0.16406249999999994
v 0.03125 0.5625 -0.1640625
v 0.03125 0.3125 0.16406250000000006
v 0.03125 0.3125 -0.16406249999999997
v -0.2890625 0.5625 0.16406249999999994
v -0.2890625 0.5625 -0.1640625
v -0.2890625 0.3125 0.16406250000000006
v -0.2890625 0.3125 -0.16406249999999997
vt 0.44642857142857145 0.1428571428571429
vt 0.42857142857142855 0.1428571428571429
vt 0.42857142857142855 0.0714285714285714
vt 0.44642857142857145 0.0714285714285714
vt 0.8035714285714286 0.0714285714285714
vt 0.8035714285714286 0.1428571428571429
vt 0.7857142857142857 0.1428571428571429
vt 0.7857142857142857 0.0714285714285714
vt 0.75 0.3392857142857143
vt 0.8571428571428571 0.3392857142857143
vt 0.8571428571428571 0.3571428571428571
vt 0.75 0.3571428571428571
vt 0.8928571428571429 0.2678571428571429
vt 0.8928571428571429 0.2857142857142857
vt 0.7857142857142857 0.2857142857142857
vt 0.7857142857142857 0.2678571428571429
vt 0.6071428571428571 0.2142857142857143
vt 0.6071428571428571 0.2857142857142857
vt 0.5 0.2857142857142857
vt 0.5 0.2142857142857143
vt 0.75 0.2857142857142857
vt 0.6428571428571429 0.2857142857142857
vt 0.6428571428571429 0.2142857142857143
vt 0.75 0.2142857142857143
vt 0.9107142857142857 0.8928571428571429
vt 0.8928571428571429 0.8928571428571429
vt 0.8928571428571429 0.8392857142857143
vt 0.9107142857142857 0.8392857142857143
vt 0.9107142857142857 0.7321428571428572
vt 0.9107142857142857 0.7857142857142857
vt 0.8928571428571429 0.7857142857142857
vt 0.8928571428571429 0.7321428571428572
vt 0.7857142857142857 0.1964285714285714
vt 0.8928571428571429 0.1964285714285714
vt 0.8928571428571429 0.2142857142857143
vt 0.7857142857142857 0.2142857142857143
vt 0.6071428571428571 0.1607142857142857
vt 0.6071428571428571 0.1785714285714286
vt 0.5 0.1785714285714286
vt 0.5 0.1607142857142857
vt 0.8571428571428571 0.7321428571428572
vt 0.8571428571428571 0.7857142857142857
vt 0.75 0.7857142857142857
vt 0.75 0.7321428571428572
vt 0.8571428571428571 0.6785714285714286
vt 0.75 0.6785714285714286
vt 0.75 0.625
vt 0.8571428571428571 0.625
vt 0.1875 0.5
vt 0 0.5
vt 0 0.3571428571428571
vt 0.1875 0.3571428571428571
vt 0.6875 0.8571428571428572
vt 0.6875 1
vt 0.5 1
vt 0.5 0.8571428571428572
vt 0 0.8125
vt 0.1875 0.8125
vt 0.1875 1
vt 0 1
vt 0.1875 0.5625
vt 0.1875 0.75
vt 0 0.75
vt 0 0.5625
vt 0.6875 0.6785714285714286
vt 0.6875 0.8214285714285714
vt 0.5 0.8214285714285714
vt 0.5 0.6785714285714286
vt 0.4375 0.5
vt 0.25 0.5
vt 0.25 0.3571428571428571
vt 0.4375 0.3571428571428571
vn 1 0 0
vn -1 0 0
vn 0 0.9961946980917455 0.08715574274765818
vn 0 -0.9961946980917455 -0.08715574274765818
vn 0 -0.08715574274765818 0.9961946980917455
vn 0 0.08715574274765818 -0.9961946980917455
vn 1 0 0
vn -1 0 0
vn 0 0.9762960071199339 -0.2164396139381014
vn 0 -0.9762960071199334 0.21643961393810307
vn 0 0.21643961393810324 0.9762960071199333
vn 0 -0.21643961393810318 -0.9762960071199335
vn 1 0 0
vn -1 0 0
vn 0 1 2.081668171172168e-16
vn 0 -1 1.5265566588595905e-16
vn 0 2.0816681711721685e-16 1
vn 0 -6.938893903907228e-17 -1
usemtl m_ba09bf8c-46a0-f2fc-72eb-157c25b655db
f 2/1/1 1/2/1 3/3/1 4/4/1
f 7/5/2 5/6/2 6/7/2 8/8/2
f 5/9/3 1/10/3 2/11/3 6/12/3
f 4/13/4 3/14/4 7/15/4 8/16/4
f 3/17/5 1/18/5 5/19/5 7/20/5
f 6/21/6 2/22/6 4/23/6 8/24/6
f 10/25/7 9/26/7 11/27/7 12/28/7
f 15/29/8 13/30/8 14/31/8 16/32/8
f 13/33/9 9/34/9 10/35/9 14/36/9
f 12/37/10 11/38/10 15/39/10 16/40/10
f 11/41/11 9/42/11 13/43/11 15/44/11
f 14/45/12 10/46/12 12/47/12 16/48/12
f 18/49/13 17/50/13 19/51/13 20/52/13
f 23/53/14 21/54/14 22/55/14 24/56/14
f 21/57/15 17/58/15 18/59/15 22/60/15
f 20/61/16 19/62/16 23/63/16 24/64/16
f 19/65/17 17/66/17 21/67/17 23/68/17
f 22/69/18 18/70/18 20/71/18 24/72/18
