# Made in Blockbench 5.2.1
mtllib tmspmg_p_r.mtl

o mesh
v 0.21875 0.54681 -0.170381875
v 0.21875 0.54408625 -0.13925125
v 0.21875 0.419561875 -0.150145625
v 0.21875 0.422285625 -0.181276875
v 0.03125 0.419561875 -0.150145625
v 0.03125 0.54408625 -0.13925125
v 0.03125 0.54681 -0.170381875
v 0.03125 0.422285625 -0.181276875
v 0.21875 0.422285625 -0.181276875
v 0.21875 0.429049375 -0.1507675
v 0.21875 0.337521875 -0.13047625
v 0.21875 0.330758125 -0.160985625
v 0.03125 0.337521875 -0.13047625
v 0.03125 0.429049375 -0.1507675
v 0.03125 0.422285625 -0.181276875
v 0.03125 0.330758125 -0.160985625
v 0.28125 0.5625 -0.15625
v 0.28125 0.5625 0.15625
v 0.28125 0.3125 0.15625
v 0.28125 0.3125 -0.15625
v -0.03125 0.3125 0.15625
v -0.03125 0.5625 0.15625
v -0.03125 0.5625 -0.15625
v -0.03125 0.3125 -0.15625
vt 0.0859375 0.265625
vt 0.078125 0.265625
vt 0.078125 0.234375
vt 0.0859375 0.234375
vt 0.3359375 0.234375
vt 0.3359375 0.265625
vt 0.328125 0.265625
vt 0.328125 0.234375
vt 0.6875 0.3671875
vt 0.734375 0.3671875
vt 0.734375 0.375
vt 0.6875 0.375
vt 0.75 0.9609375
vt 0.75 0.96875
vt 0.703125 0.96875
vt 0.703125 0.9609375
vt 0.515625 0.65625
vt 0.515625 0.6875
vt 0.46875 0.6875
vt 0.46875 0.65625
vt 0.53125 0.953125
vt 0.484375 0.953125
vt 0.484375 0.921875
vt 0.53125 0.921875
vt 0.7578125 0.734375
vt 0.75 0.734375
vt 0.75 0.7109375
vt 0.7578125 0.7109375
vt 0.7578125 0.6640625
vt 0.7578125 0.6875
vt 0.75 0.6875
vt 0.75 0.6640625
vt 0.703125 0.5390625
vt 0.75 0.5390625
vt 0.75 0.546875
vt 0.703125 0.546875
vt 0.75 0.5078125
vt 0.75 0.515625
vt 0.703125 0.515625
vt 0.703125 0.5078125
vt 0.59375 0.4765625
vt 0.59375 0.5
vt 0.546875 0.5
vt 0.546875 0.4765625
vt 0.609375 0.453125
vt 0.5625 0.453125
vt 0.5625 0.4296875
vt 0.609375 0.4296875
vt 0.203125 0.8125
vt 0.125 0.8125
vt 0.125 0.75
vt 0.203125 0.75
vt 0.296875 0.9375
vt 0.296875 1
vt 0.21875 1
vt 0.21875 0.9375
vt 0.125 0.921875
vt 0.203125 0.921875
vt 0.203125 1
vt 0.125 1
vt 0.203125 0.828125
vt 0.203125 0.90625
vt 0.125 0.90625
vt 0.125 0.828125
vt 0.296875 0.859375
vt 0.296875 0.921875
vt 0.21875 0.921875
vt 0.21875 0.859375
vt 0.296875 0.84375
vt 0.21875 0.84375
vt 0.21875 0.78125
vt 0.296875 0.78125
vn 1 0 0
vn -1 0 0
vn 0 0.9961942167891124 0.08716124388698814
vn 0 -0.9961943687283887 -0.08715950730613045
vn 0 -0.08715497942924849 0.9961947648731584
vn 0 0.08715994144488161 -0.996194330744421
vn 1 0 0
vn -1 0 0
vn 0 0.9762961125918782 -0.2164391381843557
vn 0 -0.9762961125918782 0.2164391381843557
vn 0 0.21644054691228468 0.9762958002840694
vn 0 -0.21644054691228468 -0.9762958002840694
vn 1 0 0
vn -1 0 0
vn 0 1 0
vn 0 -1 0
vn 0 0 1
vn 0 0 -1
usemtl m_0a48a121-d244-9117-4e96-c0c884c5ae0b
f 1/1/1 2/2/1 3/3/1 4/4/1
f 5/5/2 6/6/2 7/7/2 8/8/2
f 6/9/3 2/10/3 1/11/3 7/12/3
f 4/13/4 3/14/4 5/15/4 8/16/4
f 3/17/5 2/18/5 6/19/5 5/20/5
f 7/21/6 1/22/6 4/23/6 8/24/6
f 9/25/7 10/26/7 11/27/7 12/28/7
f 13/29/8 14/30/8 15/31/8 16/32/8
f 14/33/9 10/34/9 9/35/9 15/36/9
f 12/37/10 11/38/10 13/39/10 16/40/10
f 11/41/11 10/42/11 14/43/11 13/44/11
f 15/45/12 9/46/12 12/47/12 16/48/12
f 17/49/13 18/50/13 19/51/13 20/52/13
f 21/53/14 22/54/14 23/55/14 24/56/14
f 22/57/15 18/58/15 17/59/15 23/60/15
f 20/61/16 19/62/16 21/63/16 24/64/16
f 19/65/17 18/66/17 22/67/17 21/68/17
f 23/69/18 17/70/18 20/71/18 24/72/18
