# Made in Blockbench 5.1.6
mtllib a_police_h.mtl

o mesh
v 0.290625 2.031579208639055 0.299747705803232
v 0.290625 2.0495166140208343 -0.2813599107259009
v 0.290625 1.8443361708725727 0.28993471400768006
v 0.290625 1.8810404161307435 -0.29182724376279356
v -0.290625 2.031579208639055 0.299747705803232
v -0.290625 2.049516828778563 -0.28760971462538476
v -0.290625 1.8443361708725727 0.28993471400768006
v -0.290625 1.8810404161307435 -0.29182724376279356
v -0.000211875 2.1026897359680126 0.061755057596899275
v 0 2.0870165892065717 -0.29386006969890344
v 0 1.8810405419398664 -0.34807682527498507
v 0.275 1.8913156130637947 -0.2698195891529144
v 0.275 1.8586840650087817 -0.5176808044963671
v -0.275 1.8913156130637947 -0.2698195891529144
v -0.275 1.8586840650087817 -0.5176808044963671
v 0 1.9350657006790806 -0.2885692776832058
v 0 1.9024341526240676 -0.5364304930266585
v 0.140625 1.9474611583621846 -0.3309839008208994
v 0.140625 2.0389889090296784 -0.3106926870142024
v -0.140625 1.9474611583621846 -0.3309839008208994
v -0.140625 2.0389889090296784 -0.3106926870142024
vt 0.6351375 0.86875
vt 0.3445125 0.875
vt 0.3445125 0.78125
vt 0.63595625 0.784353125
vt 0.63671875 0.90625
vt 0.63671875 1
vt 0.34375 0.9935875
vt 0.346053125 0.909353125
vt 0 0.65625
vt 0 0.36328125
vt 0.2890625 0.36328125
vt 0.2890625 0.65625
vt 0.6328125 0.65625
vt 0.6328125 0.75
vt 0.34375 0.75
vt 0.34375 0.65625
vt 0.0090459375 0.6979721875
vt 0.2996709375 0.6979721875
vt 0.1542521875 0.8221659375
vt 0.1542525 0.82216625
vt 0.0007121875 0.9916690625
vt 0.0090459375 0.6979721875
vt 0.2996709375 0.6979721875
vt 0.3078825 0.98854625
vt 0.1542521875 0.8221659375
vt 0.651021875 0.4443325
vt 0.5065203125 0.46875
vt 0.501321875 0.36328125
vt 0.6480571875 0.36328125
vt 0.6796875 0.5185059375000001
vt 0.6796875 0.625
vt 0.532465625 0.6084596875
vt 0.53125 0.5256653124999999
vt 0.3078825 0.98854625
vt 0.1616809375 0.9999896875
vt 0.154251875 0.8221653125
vt 0.1470253125 1
vt 0.00071125 0.99167
vt 0.1542525 0.82216625
vt 0.3453128125 0.625
vt 0.351079375 0.5
vt 0.4906246875 0.5
vt 0.484858125 0.625
vt 0.34375 0.46875
vt 0.34375 0.3292046875
vt 0.46875 0.323438125
vt 0.46875 0.46298343750000004
vt 0.140625 0.265625
vt 0.140625 0.3125
vt 0 0.3125
vt 0 0.265625
vn 1 0 0
vn -1 0 0
vn 0 -0.9980156522735074 -0.06296632288045297
vn 0 -0.05233595624294384 0.998629534754574
vn 0 0.9581440058313998 0.286286681648586
vn -0.2146106150773363 0.976244542259852 0.02981405044571601
vn 0.21406014977681703 0.9763554514257551 0.03013776283563053
vn -0.053565893517373966 0.25418287797440137 -0.9656716624175817
vn 0.07423404392010884 0.2538459908891136 -0.9643917874146334
vn 0.12969324701155763 0.9905959346294044 -0.043581601339279734
vn -0.12877330553198402 0.9907089369819595 -0.043740575744294595
vn 0.16436336047096153 0.9779610734251096 -0.1287510178596667
vn -0.16436336047096153 0.9779610734251096 -0.12875101785966667
vn 0 -0.2164396139381015 0.9762960071199337
usemtl m_410da598-b7de-0a71-6248-814ff1539d99
f 2/1/1 1/2/1 3/3/1 4/4/1
f 7/5/2 5/6/2 6/7/2 8/8/2
f 4/9/3 3/10/3 7/11/3 8/12/3
f 3/13/4 1/14/4 5/15/4 7/16/4
f 5/17/5 1/18/5 9/19/5
f 9/20/6 6/21/6 5/22/6
f 1/23/7 2/24/7 9/25/7
f 6/26/8 10/27/8 11/28/8 8/29/8
f 11/30/9 10/31/9 2/32/9 4/33/9
f 2/34/10 10/35/10 9/36/10
f 10/37/11 6/38/11 9/39/11
f 12/40/12 13/41/12 17/42/12 16/43/12
f 17/44/13 15/45/13 14/46/13 16/47/13
f 18/48/14 19/49/14 21/50/14 20/51/14
