# Made in Blockbench 5.1.6
mtllib berserk_h.mtl

o mesh
v 0.33119143876759216 2.00325145986415 0.3215751471749804
v 0.09168668861522772 2.178577597899502 -0.35081186904611156
v 0.14158138671050308 2.0311101682404655 0.2300067174440607
v 0.08079221644932433 2.05511858304398 -0.33455818862811354
v -0.2635202379635696 2.0983068305132826 0.3227170490523203
v -0.2856993926153945 2.1808233596401108 -0.2502446539728152
v -0.21681557387292683 2.0973775400239076 0.25280209156852923
v -0.27791521424880244 2.05574415463612 -0.23377767055973048
v 0.08514998169643834 2.1624231634810265 0.09889399950718744
v -0.2967120933979384 2.126068693362731 0.18592499949562596
v 0.08371920252101295 2.031094739061732 0.34027395400779514
v -0.12197003169189877 2.170348922225639 0.25512857717980236
v 0.33119191714570784 2.0032515518318332 0.3215751350672361
v 0.3570292949565599 1.9751713531754933 -0.3303368565783234
v 0.2903425500447686 1.878636706562693 0.300157396017536
v 0.3465925860278656 1.8952837942160312 -0.31981946478015727
v 0.08515013760502294 2.16242319259087 0.09889399567481388
v 0.09168696861303455 2.1785776028852415 -0.3508118697024812
v 0.07425571530098718 2.0389638325127395 0.11514772154221448
v 0.08079254630899879 2.0551182428071115 -0.3345581438350807
v 0.3448425583153002 1.9890531122762702 0.03258669412314011
v 0.24617246695794548 2.111909603878171 -0.33558026151314607
v 0.19390330292174496 2.0032477111958187 -0.3196595934983804
v 0.20129373482988555 2.0701195671475117 -0.22113838137116854
v 0.23653221165613925 2.0476140763534407 -0.2938226481356034
v 0.2097777163832254 1.9486504068569082 -0.266819286493528
v 0.21405297124384848 1.9537697675872159 -0.3179247102916896
v 0.06033984349281252 2.1209836884117976 -0.22783477479962694
v 0.06033984815012883 2.109562651187463 -0.3145862007747678
v 0.022897221048304495 1.9847479658944942 -0.25896376646602076
v 0.025034850474608794 1.9824129160206474 -0.32169566092587615
v 0.06033984349281252 2.1209836884117976 -0.22783477479962694
v 0.06033984815012883 2.109562651187463 -0.3145862007747678
v 0.022897221048304495 1.9847479658944942 -0.25896376646602076
v 0.025034850474608794 1.9824129160206474 -0.32169566092587615
v -0.22696881096621385 2.166156427967728 -0.19788289613928262
v -0.285699596362004 2.180823504842513 -0.25024530348217316
v -0.26384718652234224 1.9859773282605415 -0.2339099065811288
v -0.28146641961282176 1.9841774596869102 -0.296712260027644
v 0.25685980124079977 2.017503601669814 0.2462405389709596
v 0.3311914622683104 2.002435837627671 0.3153781092184312
v 0.23491750987415694 1.9129848922788577 0.25983692881931236
v 0.2903419780770744 1.8786370152353316 0.3001571092193967
v 0.07550418209438431 2.0416344816701404 0.2529016484981522
v 0.08371943028635892 2.0310950241785806 0.3402740098770681
v 0.04727420166389962 1.9129420313442174 0.271092171346717
v 0.06433362786775132 1.937453406593178 0.3412953120243245
v 0.07550418209438431 2.0416344816701404 0.2529016484981522
v 0.08371943028635892 2.0310950241785806 0.3402740098770681
v 0.04727420166389962 1.9129420313442174 0.271092171346717
v 0.06433362786775132 1.937453406593178 0.3412953120243245
v -0.21681544845002726 2.097377308140193 0.2528018704217306
v -0.26351994740011003 2.098306959986329 0.3227168345793222
v -0.22557740993877853 1.959721185691163 0.2588352775135671
v -0.28136088838306605 1.9619009770025517 0.31819918254532453
v 0.2772418445930034 2.058403969989655 -0.2256502325454593
v 0.29250688261885327 2.0435217251850157 -0.28427851339158555
v 0.2626102583784401 1.9219338969142024 -0.2429313661621978
v 0.3012854423393526 1.9320526367604927 -0.2905918805195728
v 0.20129391575929445 2.0701194754651855 -0.2211380323499917
v 0.23653235516504 2.0476139327915144 -0.29382279855304444
v 0.2097778992144188 1.9486502616827788 -0.2668193385829057
v 0.21405343930962983 1.9537695359881389 -0.317924625265732
v -0.2344499171212328 2.1206681455028784 0.18663597636616355
v -0.2269683461110636 2.166156330763162 -0.1978818168284739
v -0.24786111649451067 1.9651473976326135 0.17974400906767812
v -0.2638468665923425 1.9859773611988132 -0.23390924213953368
v -0.2967120855628842 2.1260687793311086 0.185924966382541
v -0.28569943643167983 2.18082290480807 -0.2502442718183629
v -0.31012328493616215 1.9705480314608428 0.1790329990840555
v -0.2814662295092418 1.9841776318737865 -0.2967115421583216
v -0.21681533900197658 2.0973772497293273 0.2528019532361158
v -0.23572729114283078 2.1214283426156557 0.17196516629975078
v -0.22557700244073553 1.9597206800269165 0.2588353661634017
v -0.24913849051610873 1.96590759474539 0.16507319900126535
v -0.26351992991732603 2.098306460484951 0.32271711793449503
v -0.29671206134941447 2.1260686756837046 0.18592501821097773
v -0.2813603308617221 1.9619003636441397 0.3181994483141869
v -0.3101232607226923 1.9705479278134388 0.17903305091249233
v -0.06276792470294854 2.1579330232133604 -0.32524901465749806
v -0.052073615538617696 2.033408686410242 -0.3273277871897788
v -0.24612263446138213 2.141591313589758 -0.2896084628102213
v -0.23542832529705135 2.0170669767866394 -0.2916872353425018
v 0.13306019854887274 1.5629620876843373 -0.23131978007080273
v 0.14738300251969982 1.6262248174108207 -0.241285969862653
v 0.15489826915344435 1.5340730888359184 -0.3833151317030346
v 0.16922107312427137 1.5973358185624018 -0.393281321494885
v 0.06967745233823869 1.5755019742096008 -0.2428097475960777
v 0.08400025630906577 1.6387647039360842 -0.2527759373879281
v 0.09151552294281029 1.5466129753611815 -0.3948050992283096
v 0.10583832691363726 1.609875705087665 -0.40477128902015985
vt 0.21183109375 0.9529721875
vt 0.21735359375 0.8109953125
vt 0.30828484375 0.8191573437499999
vt 0.3028703125 0.94107171875
vt 0.140625 0.5117339062499999
vt 0.140625 0.609375
vt 0.10988234375 0.60587453125
vt 0.109375 0.51273453125
vt 0.2671296875 0.96918703125
vt 0.2723375 1
vt 0.15982671875 1
vt 0.1261 0.96974125
vt 0.4357621875 0.5605640625
vt 0.34375 0.5605640625
vt 0.3923015625 0.5390625
vt 0.30828484375 0.8191573437499999
vt 0.3221928125 0.8033959374999999
vt 0.32663234375 0.838988125
vt 0.3029965625 0.93822765625
vt 0.1871690625 0.55859375
vt 0.1871690625 0.6685281249999999
vt 0.1565809375 0.6605995312499999
vt 0.21735359375 0.8109953125
vt 0.17336765625 0.78125
vt 0.23563484375 0.785796875
vt 0.30806296875 0.8191375
vt 0.23563484375 0.785796875
vt 0.3223525 0.80361484375
vt 0.3082928125 0.81924328125
vt 0.07173703125 0.8376264062500001
vt 0.0234675 0.83696875
vt 0.04206125 0.80629578125
vt 0.1181590625 0.8202446875
vt 0.1181590625 0.8202446875
vt 0.17885578125 0.834868125
vt 0.10324859375 0.8873068749999999
vt 0.05796140625 0.842784375
vt 0.05796140625 0.842784375
vt 0.10423484375 0.8882765625
vt 0.09095046875 1
vt 0.00086765625 0.9626296875
vt 0.00083171875 0.9627053125
vt 0.010831875 0.8532275
vt 0.05796140625 0.842784375
vt 0 0.66015625
vt 0.03125 0.6653640625
vt 0.03125 0.777875
vt 0 0.77266703125
vt 0.203125 0.49609375
vt 0.234375 0.49950109374999996
vt 0.234375 0.5915123437500001
vt 0.208328125 0.5775264062500001
vt 0.460250625 0.76093953125
vt 0.45991359375 0.78125
vt 0.3696415625 0.7710315624999999
vt 0.307378125 0.7324451562500001
vt 0.3696415625 0.7710315624999999
vt 0.297561875 0.7640784375
vt 0.3070509375 0.7322425
vt 0.04788359375 0.699215625
vt 0.08283515625 0.6141015624999999
vt 0.12358359375 0.6739640625000001
vt 0.13775859375 0.772171875
vt 0.12358359375 0.6739640625000001
vt 0.17477265625 0.74901890625
vt 0.13788609375 0.77305515625
vt 0.13835390625 0.772655
vt 0.10375265625 0.796875
vt 0.04788359375 0.699215625
vt 0.2502746875 0.76229546875
vt 0.203605625 0.7650615625
vt 0.203605625 0.609375
vt 0.2734375 0.6516143750000001
vt 0.34375 0.82781734375
vt 0.4519221875 0.796875
vt 0.45684515625 0.82781734375
vt 0.079170625 0.560853125
vt 0.0923675 0.5891796874999999
vt 0.05038 0.59375
vt 0.047958125 0.5634515625000001
vt 0.05038 0.59375
vt 0.00919921875 0.578178125
vt 0.0013825 0.55942953125
vt 0.04795765625 0.5634453125000001
vt 0.55078125 0.47216328124999996
vt 0.533743125 0.484375
vt 0.533743125 0.45186171875000003
vt 0.545088125 0.44849984374999996
vt 0.5052934375 0.55859375
vt 0.54146171875 0.55859375
vt 0.53410671875 0.578125
vt 0.50150703125 0.57276265625
vt 0.484375 0.6640625
vt 0.521875 0.6640625
vt 0.53125 0.684375
vt 0.484375 0.6875
vt 0.3125 0.49738234375
vt 0.2995409375 0.49676875
vt 0.296875 0.44921875
vt 0.3125 0.44963203124999995
vt 0.08022015625 0.49609375
vt 0.07183140625 0.52713984375
vt 0.03455734375 0.53125
vt 0.03306109375 0.49609375
vt 0.5181615625 0.78126828125
vt 0.51476359375 0.828125
vt 0.4898984375 0.828125
vt 0.4857446875 0.780930625
vt 0.52201953125 0.94576984375
vt 0.50141796875 0.953125
vt 0.50141796875 0.91695671875
vt 0.5166571875 0.91317015625
vt 0.34166875 0.467321875
vt 0.34811515625 0.5137290624999999
vt 0.328125 0.5146073437500001
vt 0.328125 0.46484375
vt 0.4694875 0.50082796875
vt 0.47555203125 0.5736696875
vt 0.45413546875 0.578125
vt 0.45413546875 0.48840531249999997
vt 0.26558703125 0.5143796875
vt 0.25 0.51247828125
vt 0.25 0.44051828125000003
vt 0.26603125 0.4375
vt 0.35623625 0.5889079687500001
vt 0.359375 0.62494015625
vt 0.28628140625 0.62494015625
vt 0.28510296875 0.578125
vt 0.390625 0.8477210937499999
vt 0.390625 0.9375
vt 0.35921734375 0.9356209375
vt 0.34375 0.86057859375
vt 0.50227953125 0.97923140625
vt 0.52837953125 0.97265625
vt 0.53263640625 0.99795640625
vt 0.5 0.99795640625
vt 0.50684359375 0.47736828124999997
vt 0.48534390625 0.48246968749999997
vt 0.48534390625 0.44921875
vt 0.50388390625 0.45365296875000005
vt 0.1796875 0.53125
vt 0.1604140625 0.5143145312499999
vt 0.15712515625 0.46875
vt 0.17920921875 0.46875
vt 0.4318071875 0.453125
vt 0.434859375 0.5000207812499999
vt 0.421875 0.5141196875
vt 0.421875 0.4569865625
vt 0.158248125 0.9065559375
vt 0.16184265625 0.95218296875
vt 0.13492734375 0.95218296875
vt 0.125 0.90625
vt 0.30939390625 0.53027328125
vt 0.3155671875 0.5625
vt 0.25297578125 0.5625
vt 0.2508390625 0.538921875
vt 0.50095265625 0.5078125
vt 0.53420359375 0.5078125
vt 0.5291021875 0.53125
vt 0.505386875 0.5282903125
vt 0.1328125 0.47954687500000004
vt 0.11183 0.48081906249999995
vt 0.11183 0.44630187499999996
vt 0.131899375 0.4453125
vt 0.4609375 0.734375
vt 0.4375 0.73077796875
vt 0.4411653125 0.6564715624999999
vt 0.4609375 0.645844375
vt 0.48277328125 0.8594153125
vt 0.5519371875 0.85546875
vt 0.55693484375 0.87387453125
vt 0.47040890625 0.87387453125
vt 0.44140625 0.859375
vt 0.44140625 0.93377203125
vt 0.407110625 0.93286765625
vt 0.40625 0.86367046875
vt 0.46484375 0.60109203125
vt 0.46484375 0.625
vt 0.375 0.62389765625
vt 0.377470625 0.5896140624999999
vt 0.3433075 0.43240296874999995
vt 0.3285675 0.4375
vt 0.3285675 0.4029159375
vt 0.34298421875 0.40494624999999995
vt 0.5534246875 0.890625
vt 0.5859375 0.890625
vt 0.57372375 0.90625
vt 0.55006203125 0.90055625
vt 0.36084375 0.41244515625
vt 0.3774375 0.42219062500000004
vt 0.37446671875 0.4375
vt 0.36084375 0.43340390625
vt 0.4064928125 0.43660515624999996
vt 0.4114809375 0.421875
vt 0.42722046875 0.42451296875
vt 0.4296875 0.43660515624999996
vt 0.05078125 0.4296875
vt 0.05078125 0.46427234375000004
vt 0.03125 0.46529343749999996
vt 0.03698765625 0.434133125
vt 0.234375 0.45465640625000003
vt 0.2323934375 0.46875
vt 0.20439546875 0.46875
vt 0.211125 0.44649249999999996
vt 0.425665625 1
vt 0.32911875 0.9927609375
vt 0.32911875 0.9536984375
vt 0.4326 0.9539765625
vt 0.4140625 0.6550109375
vt 0.4140625 0.6940734375
vt 0.3063984375 0.703125
vt 0.296875 0.653771875
vt 0.46875 0.890625
vt 0.484375 0.890625
vt 0.4841625 0.9868890625
vt 0.46906875 1
vt 0.010366875 0.5139765625
vt 0 0.41087578125
vt 0.015625 0.41015625
vt 0.015625 0.5293467187500001
vt 0.09375 0.4296875
vt 0.09375 0.46875
vt 0.078125 0.46875
vt 0.078125 0.4296875
vt 0.39453125 0.515625
vt 0.375 0.5147468749999999
vt 0.3814484375 0.4683396875
vt 0.39453125 0.46586265625
vt 0.5078125 0.640625
vt 0.4875 0.6359375
vt 0.484375 0.6015625
vt 0.5078125 0.6015625
vt 0.48631421875 0.71484375
vt 0.52072515625 0.71484375
vt 0.52540453125 0.75
vt 0.48638109375 0.75
vt 0.56583203125 1
vt 0.579559375 0.984375
vt 0.6011671875 0.984375
vt 0.6015625 0.9994521875
vt 0.56396765625 0.6640625
vt 0.5649946875 0.68825953125
vt 0.5482865625 0.6999159374999999
vt 0.5482865625 0.6643229687500001
vt 0.5357959375 0.62109375
vt 0.5703125 0.62109375
vt 0.569039375 0.640625
vt 0.53480671875 0.6397123437500001
vt 0.46875 0.46875
vt 0.453125 0.46875
vt 0.453125 0.4296875
vt 0.46875 0.4296875
vt 0.046875 0.609375
vt 0.046875 0.640625
vt 0 0.640625
vt 0 0.609375
vt 0.171875 0.4140625
vt 0.171875 0.453125
vt 0.15625 0.453125
vt 0.15625 0.4140625
vt 0.5625 0.7265625
vt 0.5625 0.765625
vt 0.546875 0.765625
vt 0.546875 0.7265625
vt 0.171875 0.890625
vt 0.171875 0.875
vt 0.1875 0.875
vt 0.1875 0.890625
vt 0.296875 0.984375
vt 0.296875 1
vt 0.3125 1
vt 0.3125 0.984375
vt 0.5625 0.7890625
vt 0.5625 0.828125
vt 0.546875 0.828125
vt 0.546875 0.7890625
vt 0.5625 0.9296875
vt 0.5625 0.96875
vt 0.546875 0.96875
vt 0.546875 0.9296875
vn -0.18313081038782483 -0.9828406272591711 -0.0220773117815051
vn -0.2566821141756788 -0.10385425068566916 -0.9608998838988493
vn 0.9961946950664233 -0.08641014125166327 0.01137615973796094
vn 0.2644650185335614 -0.6221228374001173 -0.7368998772949216
vn -0.22875441011750824 -0.9633634723055826 -0.1400080000540034
vn -0.9972247909705518 -0.06647473347653786 -0.03352351537298584
vn -0.1161534795295636 -0.9913508060615421 -0.061089676004264876
vn -0.18354317790919364 -0.9768797153525245 -0.1096262905318107
vn -0.3340489740180385 0.9046386595219255 0.26465105073637984
vn 0.13373754469087168 0.8701811593410175 0.4742351938310568
vn 0.0658994721096662 0.9971482652701131 0.036777665022011734
vn -0.28563480252811746 0.9517401537328048 0.11226504067331135
vn -0.9961947508595432 0.0864094578786841 -0.011376464697115615
vn -0.6404991913796801 0.07866285048194266 0.7639194602810112
vn 0.991486992407603 -0.12452010845954063 0.03805635920250704
vn 0.9453943141315528 -0.32028474334080476 0.060392665041755625
vn 0.5525507086700602 0.8333471001135194 -0.014843351393891441
vn 0.7767502366624012 0.6298056037523582 0.001992818865662341
vn 0.39271000116916893 0.9188470917722592 0.03871533189025784
vn -0.5758013530548087 -0.814224335560373 -0.0741048797416253
vn -0.41231407059816955 -0.9102198423709715 -0.038690383054859105
vn 0.039853983560891974 -0.13387855775351853 -0.9901960370392148
vn -0.09795353378899811 -0.11730900355072583 -0.9882528537293396
vn 0.8801007450604811 -0.11204003253311862 0.4613780550199196
vn -0.9615006097474001 0.27245181658696216 -0.03586899906384773
vn 0.3420201759439602 0.9316534172513046 -0.12265443070361991
vn -0.1930297975006084 -0.9745742973810826 -0.11377361803618462
vn -0.1725274851064885 -0.3572572884059888 0.9179332746793912
vn 0.1846189172906983 0.20276205201134595 -0.9616669931127713
vn 0.9615006097474001 -0.27245181658696216 0.035868999063847724
vn -0.6671491206840728 -0.012378296778419517 0.7448213400133846
vn 0.1408563156630377 0.9815602127176334 -0.12922479308379325
vn -0.001037407506658678 -0.9993087303752952 0.03716160897190233
vn 0.06346272006256592 -0.23884786997276142 0.9689809999023384
vn -0.16197215487582417 0.09986642392462813 -0.9817289434550601
vn 0.6375300863537733 -0.22951174647700484 -0.7354452713987802
vn -0.96626463790252 0.22870137384790926 0.11844125606895045
vn 0.13413046615851834 0.9884022503267943 0.07120399986677628
vn -0.03689921377861005 -0.7851854979415264 -0.6181603205033769
vn -0.052130457277779395 -0.11805382749106581 -0.9916378921958959
vn 0.08198167496945648 -0.1482240623604805 0.9855499136555991
vn 0.96626463790252 -0.22870137384790926 -0.11844125606895045
vn -0.8310168009476335 0.028547174152067298 -0.5555142980974414
vn 0.1863370202350775 0.9773452021032811 0.10037365598407319
vn -0.17329515268948772 -0.9159608101098358 0.361917924946058
vn -0.025303897838778868 -0.13446870524764248 -0.9905947102943702
vn -0.04652413704587188 0.0205238724783625 0.9987063008365518
vn 0.9494707339892591 -0.13752213579473205 0.2821222916827971
vn -0.880102151428341 0.11204035626495593 -0.4613752936809981
vn 0.13684686773112564 0.9680550160984969 -0.21010097714841464
vn -0.26314109595249235 -0.8779593953678945 -0.3999300735205623
vn 0.038868560312688795 -0.12963177354155725 0.9908001000745253
vn 0.17259893111336863 0.0692425405685292 -0.9825553824360936
vn 0.9962256559921379 -0.08631515775817146 0.009172561486115671
vn -0.9961463440084171 0.08653501876590834 -0.014288171536220138
vn 0.08445973831300517 0.9893338226521831 0.11868083232147394
vn -0.08579059176056233 -0.9952134273474522 -0.04679966231405904
vn -0.015134494323861616 -0.04296430921583641 0.9989619688532528
vn 0.6671476975513603 0.01238002451130268 -0.744822586019663
vn 0.9661672793458328 -0.07234580560353579 -0.24756185637744596
vn -0.9594266383816343 0.11698578729610945 0.25654405300927585
vn 0.31915476153809064 0.9261655828406286 0.20089188970449642
vn -0.08583167598898332 -0.995332786369701 -0.04410859071030812
vn 0.8310171713223872 -0.02854530220030381 0.555513840232295
vn -0.21822335458656325 0.061978368053627456 -0.97392877019133
vn -0.1908090359114841 7.057356765649557e-8 -0.9816271755684665
vn 0.9658323232096617 -0.19108398514686964 0.17508521943276206
vn -0.9658323232096617 0.19108398514686945 -0.1750852194327622
vn -0.13976365186925813 0.18488959262988028 0.9727702504462838
vn 0.13976365186925743 -0.18488959262988056 -0.9727702504462838
vn -0.2182522509840347 -0.9640035005940315 0.15186574920914644
vn 0.21825225098403508 0.964003500594031 -0.1518657492091492
usemtl m_17ecb8eb-daf3-13ba-3eb0-904f8699a8e8
f 4/1/1 3/2/1 7/3/1 8/4/1
f 6/5/2 2/6/2 4/7/2 8/8/2
f 4/9/3 2/10/3 9/11/3 3/12/3
f 9/13/4 1/14/4 3/15/4
f 7/16/5 5/17/5 10/18/5 8/19/5
f 10/20/6 6/21/6 8/22/6
f 3/23/7 1/24/7 11/25/7 7/26/7
f 11/27/8 5/28/8 7/29/8
f 12/30/9 10/31/9 5/32/9 11/33/9
f 11/34/10 1/35/10 9/36/10 12/37/10
f 12/38/11 9/39/11 2/40/11 6/41/11
f 6/42/12 10/43/12 12/44/12
f 19/45/13 17/46/13 18/47/13 20/48/13
f 15/49/14 13/50/14 17/51/14 19/52/14
f 16/53/15 14/54/15 21/55/15 15/56/15
f 21/57/16 13/58/16 15/59/16
f 17/60/17 13/61/17 21/62/17 22/63/17
f 21/64/18 14/65/18 22/66/18
f 22/67/19 18/68/19 17/69/19
f 23/70/20 16/71/20 15/72/20 19/73/20
f 19/74/21 20/75/21 23/76/21
f 20/77/22 18/78/22 22/79/22 23/80/22
f 22/81/23 14/82/23 16/83/23 23/84/23
f 25/85/24 24/86/24 26/87/24 27/88/24
f 30/89/25 28/90/25 29/91/25 31/92/25
f 28/93/26 24/94/26 25/95/26 29/96/26
f 27/97/27 26/98/27 30/99/27 31/100/27
f 26/101/28 24/102/28 28/103/28 30/104/28
f 29/105/29 25/106/29 27/107/29 31/108/29
f 33/109/30 32/110/30 34/111/30 35/112/30
f 38/113/31 36/114/31 37/115/31 39/116/31
f 36/117/32 32/118/32 33/119/32 37/120/32
f 35/121/33 34/122/33 38/123/33 39/124/33
f 34/125/34 32/126/34 36/127/34 38/128/34
f 37/129/35 33/130/35 35/131/35 39/132/35
f 42/133/36 40/134/36 41/135/36 43/136/36
f 45/137/37 44/138/37 46/139/37 47/140/37
f 41/141/38 40/142/38 44/143/38 45/144/38
f 46/145/39 42/146/39 43/147/39 47/148/39
f 44/149/40 40/150/40 42/151/40 46/152/40
f 43/153/41 41/154/41 45/155/41 47/156/41
f 50/157/42 48/158/42 49/159/42 51/160/42
f 53/161/43 52/162/43 54/163/43 55/164/43
f 49/165/44 48/166/44 52/167/44 53/168/44
f 54/169/45 50/170/45 51/171/45 55/172/45
f 52/173/46 48/174/46 50/175/46 54/176/46
f 51/177/47 49/178/47 53/179/47 55/180/47
f 57/181/48 56/182/48 58/183/48 59/184/48
f 62/185/49 60/186/49 61/187/49 63/188/49
f 60/189/50 56/190/50 57/191/50 61/192/50
f 59/193/51 58/194/51 62/195/51 63/196/51
f 58/197/52 56/198/52 60/199/52 62/200/52
f 61/201/53 57/202/53 59/203/53 63/204/53
f 65/205/54 64/206/54 66/207/54 67/208/54
f 70/209/55 68/210/55 69/211/55 71/212/55
f 68/213/56 64/214/56 65/215/56 69/216/56
f 67/217/57 66/218/57 70/219/57 71/220/57
f 66/221/58 64/222/58 68/223/58 70/224/58
f 69/225/59 65/226/59 67/227/59 71/228/59
f 73/229/60 72/230/60 74/231/60 75/232/60
f 78/233/61 76/234/61 77/235/61 79/236/61
f 76/237/62 72/238/62 73/239/62 77/240/62
f 75/241/63 74/242/63 78/243/63 79/244/63
f 74/245/64 72/246/64 76/247/64 78/248/64
f 77/249/65 73/250/65 75/251/65 79/252/65
f 80/253/66 81/254/66 83/255/66 82/256/66
f 87/257/67 85/258/67 84/259/67 86/260/67
f 90/261/68 88/262/68 89/263/68 91/264/68
f 84/265/69 85/266/69 89/267/69 88/268/69
f 87/269/70 86/270/70 90/271/70 91/272/70
f 86/273/71 84/274/71 88/275/71 90/276/71
f 91/277/72 89/278/72 85/279/72 87/280/72
