# Made in Blockbench 5.2.1
mtllib cap_h.mtl

o mesh
v 0.290625 2.047204208639055 0.299747705803232
v 0.290625 2.0651416140208343 -0.2813599107259009
v 0.290625 1.8599611708725727 0.28993471400768006
v 0.290625 1.8966654161307435 -0.29182724376279356
v -0.290625 2.047204208639055 0.299747705803232
v -0.290625 2.065141828778563 -0.28760971462538476
v -0.290625 1.8599611708725727 0.28993471400768006
v -0.290625 1.8966654161307435 -0.29182724376279356
v -0.000211875 2.1183147359680126 0.061755057596899275
v 0 2.1026415892065717 -0.29386006969890344
v 0 1.8966655419398664 -0.34807682527498507
v 0.275 1.9069406130637947 -0.26981958915291443
v 0.275 1.8743090650087817 -0.5176808044963671
v -0.275 1.9069406130637947 -0.26981958915291443
v -0.275 1.8743090650087817 -0.5176808044963671
v 0 1.9506907006790806 -0.2885692776832058
v 0 1.9180591526240676 -0.5364304930266584
vt 0.668340625 0.86875
vt 0.377715625 0.875
vt 0.377715625 0.78125
vt 0.669159375 0.784353125
vt 0.640625 0.59375
vt 0.640625 0.6875
vt 0.34375 0.6810875000000001
vt 0.346053125 0.596853125
vt 0 0.65625
vt 0 0.359375
vt 0.296875 0.359375
vt 0.296875 0.65625
vt 0.671875 0.90625
vt 0.671875 1
vt 0.375 1
vt 0.375 0.90625
vt 0.018874375 0.6919434375
vt 0.309499375 0.6919434375
vt 0.164080625 0.8214809375000001
vt 0.164078125 0.82147875
vt 0.0010728125 0.9852184375
vt 0.018874375 0.6919434375
vt 0.309499375 0.6919434375
vt 0.3270521875 0.982105
vt 0.1640825 0.8214790625
vt 0.496725 0.3818325
vt 0.3522234375 0.40625
vt 0.347025 0.296875
vt 0.4937603125 0.296875
vt 0.671875 0.26850593749999996
vt 0.671875 0.375
vt 0.532465625 0.3584596875
vt 0.53125 0.27566531250000004
vt 0.3270521875 0.982105
vt 0.1814946875 0.9999790625
vt 0.16408 0.821476875
vt 0.146875 1
vt 0.00107375 0.9852175
vt 0.164078125 0.82147875
vt 0.3492190625 0.5625
vt 0.354985625 0.4375
vt 0.4945309375 0.4375
vt 0.488764375 0.5625
vt 0.53125 0.5625
vt 0.53125 0.4229546875
vt 0.65625 0.417188125
vt 0.65625 0.5567334374999999
vn 1 0 0
vn -1 0 0
vn 0 -0.9980156522735074 -0.06296632288045297
vn 0 -0.05233595624294384 0.998629534754574
vn 0 0.9581440058313998 0.286286681648586
vn -0.2146106150773363 0.976244542259852 0.02981405044571601
vn 0.21406014977681703 0.9763554514257551 0.03013776283563053
vn -0.053565893517373966 0.25418287797440137 -0.9656716624175817
vn 0.07423404392010884 0.2538459908891136 -0.9643917874146334
vn 0.12969324701155763 0.9905959346294044 -0.043581601339279734
vn -0.12877330553198402 0.9907089369819595 -0.043740575744294595
vn 0.16436336047096145 0.9779610734251096 -0.12875101785966672
vn -0.16436336047096145 0.9779610734251096 -0.12875101785966672
usemtl m_8e3653d3-69e3-6fe3-2640-6649b97ad6d4
f 2/1/1 1/2/1 3/3/1 4/4/1
f 7/5/2 5/6/2 6/7/2 8/8/2
f 4/9/3 3/10/3 7/11/3 8/12/3
f 3/13/4 1/14/4 5/15/4 7/16/4
f 5/17/5 1/18/5 9/19/5
f 9/20/6 6/21/6 5/22/6
f 1/23/7 2/24/7 9/25/7
f 6/26/8 10/27/8 11/28/8 8/29/8
f 11/30/9 10/31/9 2/32/9 4/33/9
f 2/34/10 10/35/10 9/36/10
f 10/37/11 6/38/11 9/39/11
f 12/40/12 13/41/12 17/42/12 16/43/12
f 17/44/13 15/45/13 14/46/13 16/47/13
