# Made in Blockbench 5.1.6
mtllib civilian_medic_h.mtl

o scient glasses
v 0.265625 1.6404309999236535 -0.3112195027199502
v -0.265625 1.6404309999236535 -0.3112195027199502
v -0.265625 1.8269038553052048 -0.3308185895826352
v 0.265625 1.8269038553052048 -0.3308185895826352
v 0.265625 1.6730961446947952 -0.0004314104173647748
v 0.265625 1.8595690000763465 -0.020030497280049797
v -0.265625 1.6730961446947952 -0.0004314104173647748
v -0.265625 1.8595690000763465 -0.020030497280049797
v 0.1125 2.1654900415033373 0.15769872597500503
v 0.1125 2.1846730717829725 -0.1166313878464467
v 0.09790966475900592 2.1048649617444175 0.15345940742364264
v 0.09790966475900592 2.1240479920240514 -0.12087070639780906
v 0.23750004706063876 2.1368664036564553 0.15041805658837695
v 0.2375003153657499 2.141864867588281 -0.11744013227917754
v 0.23749986091538977 2.0819029279692884 0.13311810653087155
v 0.23749998331714853 2.085028042319267 -0.1079586473680492
v 0.23749982232535105 2.136866629952004 0.15041807241250324
v 0.23750001031779183 2.141864987251885 -0.1174401239114832
v 0.23749993012282145 2.0819027327567374 0.13311809288028023
v 0.2375001181152622 2.0850283467255695 -0.10795862608188697
v 0.357426813279281 1.969698177187165 0.13533712920668287
v 0.35351887873316024 1.9884582497010401 -0.1426106761718594
v 0.2816222312018771 1.9710162112341414 0.11648314325188677
v 0.28501522088756764 1.9861615289407433 -0.12693144349049634
v 0.3157065162281315 1.8832284525339351 0.16343575606131203
v 0.3358478717044794 1.904425575412038 -0.013561641003147967
v 0.3148875312896009 1.6936495017881226 0.18336165184512407
v 0.33481266558326944 1.7004832089584085 -0.04986305589769059
v 0.363552956699433 1.8838122802518833 0.1709569717657022
v 0.3858473779973269 1.9042079598379809 -0.013577022475139228
v 0.3627339717609024 1.694233329506071 0.1908828675495142
v 0.38481207457327377 1.700265658334905 -0.04987782341644072
v 0.3353813126879115 1.8183176318965129 0.08928696680847656
v 0.33595484737229164 1.9586452839814525 -0.03269968304995949
v 0.33481215249761936 1.6973579708393616 -0.04986272745695727
v 0.3353862072525817 1.8376856954081155 -0.17184866631420753
v 0.385380818980759 1.8181000163224557 0.08927158533648524
v 0.38595425636229597 1.9584277333579492 -0.03271445056870961
v 0.38481165879046686 1.6971403552653046 -0.049878108928948464
v 0.3853857135454293 1.8374680798340584 -0.17186404778619882
v 0.26826828831516103 1.9585371361002326 0.29494549704393436
v 0.29412252155042545 1.9710162523311925 0.11648322333166936
v 0.26826831318691835 1.7172513098177231 0.27807317262612663
v 0.2941223912638283 1.7029211097445789 0.09773628929168024
v 0.3164113964221442 1.9574823981136695 0.3100287124556811
v 0.357426446353211 1.9696978201417 0.13533704169576274
v 0.3163705263508712 1.7174516870609997 0.29311383655042733
v 0.3699268975105795 1.7016027761643011 0.11659062900784015
v 0.2941224713026565 1.9710161056503552 0.11648313586874923
v 0.28349599248183815 1.9865318154692142 -0.128693656269757
v 0.3327054059907167 1.8301623118096217 0.1269124521873141
v 0.3301728024100658 1.8555627322965527 -0.13991443092448771
v 0.35742671891316463 1.9696980116781395 0.1353371176331644
v 0.3535186486525886 1.9884586619149176 -0.14261064734705708
v 0.3706938480370426 1.8399455949162775 0.1275965659853033
v 0.3674263738481212 1.8329205982180452 -0.15733693169206409
v 0.29751534320101974 1.9861614396635707 -0.12693157048929748
v 0.26656175167155527 1.9990835290807583 -0.2602775294701427
v 0.3299721094357206 1.836811059333689 -0.1406753827691525
v 0.26796936644128816 1.868484781788828 -0.27326014578730373
v 0.3535192205348564 1.9884581024721983 -0.14261059144998461
v 0.32256562900539193 2.001380191889386 -0.2759565504308299
v 0.3672258130753727 1.8390712034949637 -0.15635821752812856
v 0.3239732437751248 1.870781444597456 -0.2889391667479908
v 0.31637061303607283 1.717452140244977 0.2931138395515721
v 0.3164116429085016 1.9574822655617587 0.31002881209136945
v 0.25572747519004424 1.718370281783158 0.2780220565449468
v 0.2557681458888514 1.9585370229442296 0.2949454402504381
v 0.1125002804334334 1.7285022057973551 0.38119567172162605
v 0.1125002699286374 1.9627965839085313 0.37506040434280596
v 0.1124934414629315 1.7294835165641782 0.3188786488072778
v 0.11250031101906142 1.9611609838680706 0.3125822634371933
v 0.11249999999999999 2.1654900415033373 0.15769872597500503
v 0.11249999999999999 2.099455871205249 0.29930951396694927
v 0.11249999999999999 2.1113634537668102 0.12644872597500498
v 0.11249999999999999 2.03323845376681 0.2617651953163236
v 0.2375 2.136866896805501 0.1504179668640542
v 0.2375 2.0579045555791526 0.2996847537526782
v 0.2375 2.081902967842626 0.13311828441135962
v 0.2375 2.003777967842626 0.2684347537526782
v 0.11249999999999999 2.1855745789374463 -0.1177938966210437
v 0.11249999999999999 2.104283074587411 -0.3194328871631418
v 0.11249999999999999 2.1249310567332245 -0.10267355323217398
v 0.11249999999999999 2.0871306050705654 -0.25428218606233377
v 0.2375 2.14186483185107 -0.11744045058821592
v 0.2375 2.085028157613989 -0.10795862789065572
v 0.2375 2.026495877392753 -0.25283110516671625
v 0.11249999999999999 2.1855745789374463 -0.1177938966210437
v 0.11249999999999999 2.1249310567332245 -0.10267355323217398
v 0.11249999999999999 2.0871311845604743 -0.25428242019145475
v -0.11249999999999999 2.1855745789374463 -0.1177938966210437
v -0.11249999999999999 2.1249310567332245 -0.10267355323217398
v -0.11249999999999999 2.0871311845604743 -0.25428242019145475
v -0.11249999999999999 2.1855745789374463 -0.1177938966210437
v -0.11249999999999999 2.1043918732640394 -0.320992185995298
v -0.11249999999999999 2.1249310567332245 -0.10267355323217398
v -0.11249999999999999 2.0871306050705654 -0.25428218606233377
v -0.2375 2.14186483185107 -0.11744045058821592
v -0.2375 2.085028157613989 -0.10795862789065572
v -0.2375 2.026495877392753 -0.25283110516671625
v 0.2375 2.14186483185107 -0.11744045058821592
v 0.2375 2.085028157613989 -0.10795862789065572
v 0.2375 2.026495877392753 -0.25283110516671625
v 0.35351875 1.9884585899237481 -0.14261063144061323
v 0.322565 2.001380359092651 -0.2759565739096357
v 0.285015625 1.9861616691899937 -0.12693163036675337
v 0.254061875 1.999083438358896 -0.2602775728357758
v -0.2375 2.14186483185107 -0.11744045058821592
v -0.2375 2.085028157613989 -0.10795862789065572
v -0.2375 2.026495877392753 -0.25283110516671625
v -0.35351875000000005 1.9884585899237481 -0.14261063144061323
v -0.32256500000000005 2.001380359092651 -0.2759565739096357
v -0.285015625 1.9861616691899937 -0.12693163036675337
v -0.254061875 1.999083438358896 -0.2602775728357758
v -0.11249999999999999 1.9777222612339502 -0.364295332345762
v -0.11249999999999999 1.9409855898662998 -0.3137316829858622
v -0.11249999999999999 2.111037690036258 -0.2188383006013947
v 0.11249999999999999 1.9777222612339502 -0.364295332345762
v 0.11249999999999999 1.9409855898662998 -0.3137316829858622
v 0.11249999999999999 2.111037690036258 -0.2188383006013947
v -0.11249999999999999 1.8904955139360997 -0.39865533029340405
v -0.11249999999999999 2.1080474458390106 -0.2219382357368384
v -0.11249999999999999 1.8675895842136614 -0.3405040132306854
v -0.2375 2.068857674880706 -0.2773343453127085
v -0.32397250000000005 1.870781584041962 -0.2889393957250509
v -0.2375 2.046616707941166 -0.2545943970752059
v -0.255469375 1.8684848974373283 -0.27325981516128195
v -0.32256500000000005 2.0013809385825603 -0.2759568080387566
v 0.11249999999999999 1.8904955139360997 -0.39865533029340405
v 0.11249999999999999 2.1080474458390106 -0.2219382357368384
v 0.11249999999999999 1.8675895842136614 -0.3405040132306854
v 0.2375 2.068857674880706 -0.2773343453127085
v 0.3239725 1.870781584041962 -0.2889393957250509
v 0.2375 2.046616707941166 -0.2545943970752059
v 0.255469375 1.8684848974373283 -0.27325981516128195
v 0.322565 2.0013809385825603 -0.2759568080387566
v -0.11249999999999999 1.8904955139360997 -0.39865533029340405
v -0.11249999999999999 1.977722606594738 -0.3642961459647919
v -0.11249999999999999 1.8675895842136614 -0.3405040132306854
v -0.11249999999999999 1.9548160973823907 -0.3061445947729524
v 0.11249999999999999 1.8904955139360997 -0.39865533029340405
v 0.11249999999999999 1.977722606594738 -0.3642961459647919
v 0.11249999999999999 1.8675895842136614 -0.3405040132306854
v 0.11249999999999999 1.9548160973823907 -0.3061445947729524
v 0.2375 2.136866896805501 0.1504179668640542
v 0.2375 2.0579045555791526 0.2996847537526782
v 0.2375 2.081902967842626 0.13311828441135962
v 0.2375 2.003777967842626 0.2684347537526782
v 0.357426875 1.969697673725706 0.13533730470007435
v 0.31641125 1.9574822376448504 0.3100288106287261
v 0.2816225 1.9710164032553517 0.11648319815328625
v 0.255768125 1.9585371130153917 0.29494546289129564
v 0.11250000000000003 2.0994559213891546 0.2993098769526116
v 0.11250000000000003 1.9627965895196018 0.3750607830790935
v 0.11250000000000003 2.069155234179035 0.24464595670479047
v 0.11250000000000003 1.961160447427266 0.3125821643114207
v 0.23750000000000004 2.0579040644971807 0.29968480423834054
v 0.31641125000000003 1.9574822878287554 0.31002917361438853
v 0.23750000000000004 2.003777476760653 0.26843480423834054
v 0.25576750000000004 1.9585371631992965 0.29494582587695795
v 0.3840835845433991 1.8670747681844635 -0.162294263355964
v 0.3451631889667742 1.877145287965624 -0.16992308430205738
v 0.3787381536648177 1.836475174702162 -0.1533523180793028
v 0.33732503304567674 1.8352561959890485 -0.15841514972710216
v 0.3347781877899066 1.901016998773115 -0.3545951942113978
v 0.2951940149325196 1.9257653308753768 -0.30974257837429425
v 0.3326641623163369 1.8705872928841973 -0.3478054655177796
v 0.29096634371857705 1.8649051492361708 -0.29616333161983965
v 0.1125 2.1654900415033373 0.15769872597500503
v 0.1125 2.1846730717829717 -0.11663138784644671
v 0.1125 2.1031422883620983 0.15333894636599718
v 0.1125 2.1223253186417326 -0.12099116745545452
v -0.1125 2.1654900415033373 0.15769872597500503
v -0.1125 2.1846730717829717 -0.11663138784644671
v -0.1125 2.1031422883620983 0.15333894636599718
v -0.1125 2.1223253186417326 -0.12099116745545452
v -0.1125 2.1654900415033373 0.15769872597500503
v -0.1125 2.1846730717829725 -0.1166313878464467
v -0.09790966475900592 2.1048649617444175 0.15345940742364264
v -0.09790966475900592 2.1240479920240514 -0.12087070639780906
v -0.23750004706063876 2.1368664036564553 0.15041805658837695
v -0.2375003153657499 2.141864867588281 -0.11744013227917754
v -0.23749986091538977 2.0819029279692884 0.13311810653087155
v -0.23749998331714853 2.085028042319267 -0.1079586473680492
v -0.23749982232535105 2.136866629952004 0.15041807241250324
v -0.23750001031779183 2.141864987251885 -0.1174401239114832
v -0.23749993012282145 2.0819027327567374 0.13311809288028023
v -0.2375001181152622 2.0850283467255695 -0.10795862608188697
v -0.357426813279281 1.969698177187165 0.13533712920668287
v -0.35351887873316024 1.9884582497010401 -0.1426106761718594
v -0.2816222312018771 1.9710162112341414 0.11648314325188677
v -0.28501522088756764 1.9861615289407433 -0.12693144349049634
v -0.2941224713026565 1.9710161056503552 0.11648313586874923
v -0.29751540790455683 1.9861615019494938 -0.1269314453779083
v -0.3327054059907167 1.8301623118096217 0.1269124521873141
v -0.3301728024100658 1.8555627322965527 -0.13991443092448771
v -0.35742671891316463 1.9696980116781395 0.1353371176331644
v -0.3535186486525886 1.9884586619149176 -0.14261064734705708
v -0.3706938480370426 1.8399455949162775 0.1275965659853033
v -0.3674263738481212 1.8329205982180452 -0.15733693169206409
v -0.29751534320101974 1.9861614396635707 -0.12693157048929748
v -0.26656175167155527 1.9990835290807583 -0.2602775294701427
v -0.3299721094357206 1.836811059333689 -0.1406753827691525
v -0.26796936644128816 1.868484781788828 -0.27326014578730373
v -0.3535192205348564 1.9884581024721983 -0.14261059144998461
v -0.32256562900539193 2.001380191889386 -0.2759565504308299
v -0.3672258130753727 1.8390712034949637 -0.15635821752812856
v -0.3239732437751248 1.870781444597456 -0.2889391667479908
v -0.2682680652415139 1.9585370562911322 0.2949456025411391
v -0.29412228510868366 1.9710163559182559 0.1164833034561373
v -0.2682680652415139 1.7172512516345373 0.27807325545427874
v -0.29412228510868366 1.7029210174109277 0.09773625113740361
v -0.3164115625118742 1.9574823495701297 0.3100286113569054
v -0.3574266531021064 1.9696979676604012 0.13533713392848076
v -0.3163705523617405 1.717451947199107 0.2931136992070217
v -0.3699266387239959 1.701602609726668 0.11659035942028953
v -0.3353812766966968 1.8183177803041886 0.08928668155572497
v -0.3359550765051461 1.9586451947845278 -0.03269961584098441
v -0.33481252306872633 1.6973578259247635 -0.0498627402688713
v -0.3353863228771755 1.8376852404051034 -0.17184903766558082
v -0.3853809151517954 1.8181002040928753 0.08927121641902461
v -0.3859545637590599 1.9584275762704593 -0.03271447602010066
v -0.3848120103226401 1.6971402074106956 -0.04987760044798764
v -0.3853858101310893 1.8374676218910349 -0.1718638978446971
v -0.3157064458700459 1.8832285287715331 0.1634356540581424
v -0.33584767134377114 1.9044256256091454 -0.013561707080939206
v -0.3148877570056119 1.6936492384702229 0.18336190037983682
v -0.334812839744727 1.7004829584554326 -0.049863025043769854
v -0.363552995399406 1.8838121554664307 0.1709571063655346
v -0.3858473097988697 1.9042080493978317 -0.013577172217639627
v -0.36273385130132774 1.6942335414926684 0.19088264049457468
v -0.3848123269986409 1.7002659634188955 -0.04987784162509004
v -0.31637061303607283 1.717452140244977 0.2931138395515721
v -0.3164116429085016 1.9574822655617587 0.31002881209136945
v -0.25572747519004424 1.718370281783158 0.2780220565449468
v -0.2557681458888514 1.9585370229442296 0.2949454402504381
v -0.1125002804334334 1.7285022057973551 0.38119567172162605
v -0.1125002699286374 1.9627965839085313 0.37506040434280596
v -0.1124934414629315 1.7294835165641782 0.3188786488072778
v -0.11250031101906142 1.9611609838680706 0.3125822634371933
v -0.11249999999999999 2.1654900415033373 0.15769872597500503
v -0.11249999999999999 2.099455871205249 0.29930951396694927
v -0.11249999999999999 2.1113634537668102 0.12644872597500498
v -0.11249999999999999 2.03323845376681 0.2617651953163236
v -0.2375 2.136866896805501 0.1504179668640542
v -0.2375 2.0579045555791526 0.2996847537526782
v -0.2375 2.081902967842626 0.13311828441135962
v -0.2375 2.003777967842626 0.2684347537526782
v -0.2375 2.136866896805501 0.1504179668640542
v -0.2375 2.0579045555791526 0.2996847537526782
v -0.2375 2.081902967842626 0.13311828441135962
v -0.2375 2.003777967842626 0.2684347537526782
v -0.357426875 1.969697673725706 0.13533730470007435
v -0.31641125 1.9574822376448504 0.3100288106287261
v -0.2816225 1.9710164032553517 0.11648319815328625
v -0.255768125 1.9585371130153917 0.29494546289129564
v -0.11250000000000003 2.0994559213891546 0.2993098769526116
v -0.11250000000000003 1.9627965895196018 0.3750607830790935
v -0.11250000000000003 2.069155234179035 0.24464595670479047
v -0.11250000000000003 1.961160447427266 0.3125821643114207
v -0.23750000000000004 2.0579040644971807 0.29968480423834054
v -0.31641125000000003 1.9574822878287554 0.31002917361438853
v -0.23750000000000004 2.003777476760653 0.26843480423834054
v -0.25576750000000004 1.9585371631992965 0.29494582587695795
v 0.1125 2.1655811630336848 0.1574593949505296
v 0.1125 2.0995470596367003 0.29906998667500617
v 0.1125 2.1089369263438944 0.1310457535917358
v 0.1125 2.04290282294691 0.2726563453162124
v -0.1125 2.1655811630336848 0.1574593949505296
v -0.1125 2.0995470596367003 0.29906998667500617
v -0.1125 2.1089369263438944 0.1310457535917358
v -0.1125 2.04290282294691 0.2726563453162124
v -0.1125 1.9628875915221353 0.3748211724796022
v -0.1125 2.099546920762666 0.299069669316112
v -0.11250000000000002 1.9325869902567392 0.32015744078339015
v -0.11250000000000002 2.0692463194972697 0.24440593761989984
v 0.1125 1.9628875915221353 0.3748211724796022
v 0.1125 2.099546920762666 0.299069669316112
v 0.11249999999999999 1.9325869902567392 0.32015744078339003
v 0.11249999999999999 2.0692463194972697 0.2444059376198998
v -0.11249999999999998 1.7285928435671418 0.38095646415380835
v -0.11249999999999998 1.9628875291082881 0.37482124189415067
v -0.11249999999999999 1.7269567842979 0.31847788134283606
v -0.11249999999999999 1.961251469839046 0.3123426590831785
v 0.11249999999999998 1.7285928435671418 0.38095646415380835
v 0.11249999999999998 1.9628875291082881 0.37482124189415067
v 0.11249999999999996 1.7269567842979 0.31847788134283606
v 0.11249999999999996 1.961251469839046 0.3123426590831784
v -0.3840835845433991 1.8695271567238605 -0.16194812090611765
v -0.3451631889667742 1.8795307198736881 -0.1696645321184427
v -0.3787381536648177 1.8390067605831972 -0.15273948767257378
v -0.33732503304567674 1.8377436473049613 -0.15779148908224566
v -0.3347781877899066 1.9017899739968955 -0.3545379276114732
v -0.2951940149325196 1.9269287717028012 -0.30990298682316064
v -0.3326641623163369 1.871420677586405 -0.3474829115412741
v -0.29096634371857705 1.8661894072116694 -0.2957931585893013
v -0.11249999999999998 1.9230055992469877 -0.4388315751152061
v -0.11249999999999998 1.929871262750752 -0.3519789628390959
v -0.11249999999999999 1.8690981427258972 -0.33738862759810184
v 0.11249999999999998 1.9230055992469877 -0.4388315751152061
v 0.11249999999999998 1.929871262750752 -0.3519789628390959
v 0.11249999999999996 1.869098142725897 -0.33738862759810173
v 0.00011999999999999998 1.929871262750752 -0.3519789628390959
v -0.0011556249999999976 1.9267606015917051 -0.43775530044915134
v -0.0003968750000000016 1.8963740415792778 -0.43046013282865436
v 0.0006818749999999922 1.8690981427258972 -0.33738862759810184
v 0.3347781249999999 1.9010175895776547 -0.3545955017860086
v 0.29519437499999995 1.925765755607256 -0.30974294160128335
v 0.33266437499999996 1.870587404648472 -0.3478059966249527
v 0.29096687499999996 1.8649053857488913 -0.2961639312791716
v 0.11249999999999998 1.9290750130928644 -0.3517910140067926
v 0.11249999999999998 1.8925558872007575 -0.43180213193257
v 0.11249999999999996 1.86669501791806 -0.3408604304418823
v -0.3347781249999999 1.901790471592359 -0.3545380912515107
v -0.29519437499999995 1.926929205071917 -0.3099033505982439
v -0.33266437499999996 1.8714207159654737 -0.3474834935015848
v -0.29096687499999996 1.8661892319902982 -0.29579340146383926
v -0.11249999999999998 1.929871262750752 -0.3519789628390959
v -0.11249999999999998 1.892618893331208 -0.43153701522590926
v -0.11249999999999999 1.8675891059449126 -0.34050431155339334
v 0 1.6930365058922023 -0.31022079823481397
v 0 1.5685121686307342 -0.32111526607827134
v -0.26335254130241836 1.690014727408978 -0.27568171212420106
v -0.26335254130241836 1.5654903901475097 -0.28657617996765833
v -0.271316875 1.4902479560458992 -0.16977157348539715
v -0.2633525 1.4720967060458992 -0.2947471984853972
v -0.26562500000000006 1.6874998310458993 -0.15625032348539714
v -0.26335250000000004 1.6900148310458991 -0.27568219848539716
v -4.600304733895781e-8 1.5685121178687358 -0.321114685865974
v 0.0008493836674744035 1.4401844711566776 -0.2885371277656015
v -0.26335258730546574 1.5654903393855113 -0.28657559975536107
v -0.26335258730546574 1.4720970864394103 -0.29474645063795407
v 4.600304733895781e-8 1.5685121178687358 -0.321114685865974
v -0.0008493836674744035 1.4401844711566776 -0.2885371277656015
v 0.26335258730546574 1.5654903393855113 -0.28657559975536107
v 0.26335258730546574 1.4720970864394103 -0.29474645063795407
v 2.8346235289578026e-9 1.4401748963764045 -0.2884261467801984
v 0.0009181026813979976 1.446425305236759 -0.2046558738554288
v -0.2633524431007298 1.47209687736718 -0.29474709276044075
v -0.2713171515014472 1.4902479774596102 -0.16977119507483496
v 0 1.6930365058922023 -0.31022079823481397
v 0 1.5685121686307342 -0.32111526607827134
v 0.26335254130241836 1.690014727408978 -0.27568171212420106
v 0.26335254130241836 1.5654903901475097 -0.28657617996765833
v 0.271316875 1.4902479560458992 -0.16977157348539715
v 0.2633525 1.4720967060458992 -0.2947471984853972
v 0.26562500000000006 1.6874998310458993 -0.15625032348539714
v 0.26335250000000004 1.6900148310458991 -0.27568219848539716
v -2.8346235289578026e-9 1.4401748963764045 -0.2884261467801984
v 0.000644597990364512 1.4464249716333168 -0.20465556900833848
v 0.2633524431007298 1.47209687736718 -0.29474709276044075
v 0.2713171515014472 1.4902479774596102 -0.16977119507483496
vt 0.15625 0.953125
vt 0.2890625 0.953125
vt 0.2890625 1
vt 0.15625 1
vt 0.265625 0.65625
vt 0.34375 0.65625
vt 0.34375 0.703125
vt 0.265625 0.703125
vt 0.15625 0.890625
vt 0.2890625 0.890625
vt 0.2890625 0.9375
vt 0.15625 0.9375
vt 0.3125 0.953125
vt 0.390625 0.953125
vt 0.390625 1
vt 0.3125 1
vt 0 0.921875
vt 0.1328125 0.921875
vt 0.1328125 1
vt 0 1
vt 0 0.828125
vt 0.1328125 0.828125
vt 0.1328125 0.90625
vt 0 0.90625
vt 0.7734375 0.265625
vt 0.7734375 0.28125
vt 0.703125 0.28125
vt 0.703125 0.265625
vt 0.296875 0.19864984375000005
vt 0.296875 0.265625
vt 0.2815915625 0.26155828125
vt 0.28125 0.20128390625000003
vt 0.484375 0.4375
vt 0.485173125 0.36875468749999996
vt 0.515625 0.37044421875
vt 0.515625 0.43733625
vt 0.474203125 0.6244125
vt 0.46953125 0.58984375
vt 0.53828125 0.58984375
vt 0.53438125 0.625
vt 0.87773859375 0.125
vt 0.8456284375 0.125
vt 0.84551671875 0.10937546875000004
vt 0.88104578125 0.11135406250000002
vt 0.89453125 0.3125
vt 0.89453125 0.328125
vt 0.8627 0.325025
vt 0.859375 0.311403125
vt 0.28483046875 0.6255109375
vt 0.2871284375 0.6397318750000001
vt 0.2206840625 0.63131625
vt 0.2250765625 0.61759828125
vt 0.67578125 0.2578125
vt 0.67578125 0.32746343749999995
vt 0.65625 0.3224734375
vt 0.65795328125 0.26152093750000005
vt 0.19022734375 0.6362625
vt 0.19411046875 0.703125
vt 0.1425378125 0.703125
vt 0.14182703125 0.6334864062500001
vt 0.28498671875 0.5953875
vt 0.28483046875 0.6255109375
vt 0.22507734375 0.6175984375
vt 0.22429140625 0.58984375
vt 0.15625 0.1640625
vt 0.15625 0.21563468750000003
vt 0.1480321875 0.20418375
vt 0.140625 0.17500203125000002
vt 0.5357184375 0.14764828124999996
vt 0.546875 0.13671875
vt 0.546875 0.18521203124999996
vt 0.53125 0.17491515624999998
vt 0.33018640625 0.5103009375
vt 0.33421203125 0.55497015625
vt 0.28297546875 0.5625
vt 0.28297546875 0.50397546875
vt 0.475650625 0.875
vt 0.4290690625 0.87107265625
vt 0.42290734375 0.82421875
vt 0.48334265625 0.82421875
vt 0.92181015625 0.98757875
vt 0.9204096875 1
vt 0.87556015625 1
vt 0.87506484375 0.9879090625
vt 0.14665625 0.32986875000000004
vt 0.134546875 0.32986875000000004
vt 0.130434375 0.2714703125
vt 0.1427796875 0.26953125
vt 0.13671875 0.109375
vt 0.125 0.109375
vt 0.125 0.0625
vt 0.13671875 0.0625
vt 0.046840625 0.15625
vt 0.034340625 0.15625
vt 0.034375 0.10546875
vt 0.046875 0.10546875
vt 0.1875 0.421875
vt 0.1875 0.46875
vt 0.140625 0.46875
vt 0.140625 0.421875
vt 0.578125 0.8125
vt 0.53125 0.8125
vt 0.53125 0.765625
vt 0.578125 0.765625
vt 0.27734375 0.109375
vt 0.265625 0.109375
vt 0.265625 0.0625
vt 0.27734375 0.0625
vt 0.328125 0.0625
vt 0.33984375 0.0625
vt 0.33984375 0.109375
vt 0.328125 0.109375
vt 0.24609375 0.109375
vt 0.234375 0.109375
vt 0.234375 0.0625
vt 0.24609375 0.0625
vt 0.16796875 0.109375
vt 0.15625 0.109375
vt 0.15625 0.0625
vt 0.16796875 0.0625
vt 0.84384015625 0.35906046875
vt 0.84438765625 0.34765625
vt 0.897165 0.34765625
vt 0.89834734375 0.359375
vt 0.8594609375 0.609375
vt 0.9048675 0.5982562499999999
vt 0.9139765625 0.609375
vt 0.41296796875 0.890625
vt 0.47265625 0.890625
vt 0.47265625 0.9375
vt 0.40625 0.9375
vt 0.26491203125 0.5593746875000001
vt 0.2199484375 0.5593746875000001
vt 0.21997765625 0.49921890625
vt 0.265625 0.4921875
vt 0.08024578125 0.1875
vt 0.03505546875 0.1875
vt 0.03303546875 0.17504796874999995
vt 0.077831875 0.17116140624999998
vt 0.7361425 0.359375
vt 0.748743125 0.359375
vt 0.756045 0.40506359375
vt 0.736550625 0.40625
vt 0.88671875 0.62890625
vt 0.88671875 0.640625
vt 0.828125 0.640625
vt 0.82843703125 0.62890625
vt 0.25390625 0.24609375
vt 0.25390625 0.3125
vt 0.2373703125 0.3125
vt 0.234375 0.24609375
vt 0.12678125 0.35577187499999996
vt 0.134546875 0.32986875000000004
vt 0.14665625 0.32986875000000004
vt 0.1392453125 0.3575453125
vt 0.67365171875 0.9986128125
vt 0.6870875 0.9733009375
vt 0.7265625 1
vt 0.673064375 1
vt 0.55078125 0.6536759375000001
vt 0.55078125 0.71514953125
vt 0.5168684375 0.71537734375
vt 0.515625 0.6484375
vt 0.43095703125 0.5431021874999999
vt 0.36130546875 0.5431021874999999
vt 0.3610053125 0.5104384375
vt 0.4319634375 0.50390625
vt 0.422863125 0.24284859375
vt 0.440418125 0.24610718750000005
vt 0.43861984375 0.30755453125
vt 0.422863125 0.3125
vt 0.82986265625 0.8107871875
vt 0.82986265625 0.80097828125
vt 0.8968734375 0.80078125
vt 0.90060609375 0.80831140625
vt 0.4845459375 0.12017687499999996
vt 0.46875 0.125
vt 0.46875 0.08839624999999995
vt 0.47821484375 0.08823515625
vt 0.84765625 1
vt 0.82985578125 0.9985990625
vt 0.82985578125 0.9593860937500001
vt 0.83917421875 0.96623390625
vt 0.7075921875 0.609375
vt 0.6732171875 0.609375
vt 0.6732171875 0.5765625
vt 0.7095953125 0.5717953124999999
vt 0.72265625 0.953125
vt 0.6884484375 0.953125
vt 0.6875 0.9154765625
vt 0.72265625 0.920409375
vt 0.8906640625 0.390625
vt 0.8913671875 0.375
vt 0.9257421875 0.375
vt 0.9250390625 0.390625
vt 0.87690859375 0.66533296875
vt 0.8869484375 0.6640625
vt 0.89262265625 0.70106796875
vt 0.878073125 0.70106796875
vt 0.79620671875 0.12224546874999997
vt 0.78191828125 0.125
vt 0.78191828125 0.08663687499999995
vt 0.79180265625 0.08486578125
vt 0.765625 0.09371718750000002
vt 0.75 0.09375
vt 0.75 0.06093749999999998
vt 0.765625 0.0609046875
vt 0.15247484375 0.780951875
vt 0.0945340625 0.76477609375
vt 0.098698125 0.7497159375
vt 0.156670625 0.7659
vt 0.80989296875 0.953181875
vt 0.8105475 0.96874953125
vt 0.7519525 0.96874953125
vt 0.7519525 0.953125
vt 0.32938640625 0.9351946875
vt 0.32938640625 0.8796053125
vt 0.38936359375 0.88425453125
vt 0.38770296875 0.9375
vt 0.156670625 0.7659
vt 0.0986971875 0.749715625
vt 0.11204875 0.71484375
vt 0.1671846875 0.731803125
vt 0.1922821875 0.20682640625000004
vt 0.203125 0.194409375
vt 0.203125 0.25
vt 0.1875 0.24384249999999996
vt 0.85098125 0.70238265625
vt 0.79745625 0.70238265625
vt 0.81075765625 0.69418359375
vt 0.8462253125 0.6875
vt 0.8514140625 0.9375
vt 0.8125 0.9340953125
vt 0.8125 0.91796875
vt 0.8515625 0.91796875
vt 0.883203125 0.5
vt 0.886328125 0.5140625
vt 0.844140625 0.515625
vt 0.844140625 0.5
vt 0.60985546875 0.2859625
vt 0.640625 0.28458796875000003
vt 0.640625 0.32365093749999996
vt 0.609375 0.328125
vt 0.11853046875 0.6875
vt 0.07946796875 0.6875
vt 0.08459453125 0.65625
vt 0.12365703125 0.65625
vt 0.9384725 0.65625
vt 0.94118046875 0.671875
vt 0.9091084375 0.67030171875
vt 0.90647578125 0.65625
vt 0.79730609375 0.19413593750000002
vt 0.765625 0.203125
vt 0.765625 0.18409374999999994
vt 0.797286875 0.17851093750000002
vt 0.34570296875 0.1953125
vt 0.36132828125 0.1953125
vt 0.3538084375 0.25
vt 0.34570296875 0.2352340625
vt 0.65625 0.12793171874999998
vt 0.65625 0.171875
vt 0.640625 0.16812953124999996
vt 0.64235703125 0.12910546874999995
vt 0.6638946875 0.390625
vt 0.6095428125 0.390625
vt 0.61354796875 0.35776203124999995
vt 0.657445 0.35714984375000003
vt 0.353425 0.58203125
vt 0.37109375 0.6097015625
vt 0.3360140625 0.6268859375
vt 0.318 0.597646875
vt 0.875 0.38750921875
vt 0.875 0.4206140625
vt 0.859375 0.41559921875000005
vt 0.8606025 0.3828125
vt 0.3360140625 0.6268859375
vt 0.32289171875 0.63744484375
vt 0.312643125 0.604875625
vt 0.3183525 0.5982190625
vt 0.835508125 0.38310515624999997
vt 0.781679375 0.390625
vt 0.781679375 0.375
vt 0.8207425 0.375
vt 0.3125 0.19740984375000004
vt 0.328125 0.19529640625
vt 0.328125 0.25
vt 0.3177871875 0.23611343750000002
vt 0.453125 0.7421875
vt 0.5078125 0.7421875
vt 0.5078125 0.7965234375
vt 0.453125 0.796875
vt 0.3917975 0.60546875
vt 0.3917975 0.56640625
vt 0.4480475 0.56640625
vt 0.4480475 0.60546875
vt 0.8046875 0.625
vt 0.8046875 0.640625
vt 0.75 0.640625
vt 0.75 0.625
vt 0.4480471875 0.6226953125
vt 0.39179609375 0.6223109375
vt 0.3917975 0.60546875
vt 0.44804765625 0.60546875
vt 0.83789859375 0.421875
vt 0.78319515625 0.421875
vt 0.7853084375 0.40639328124999996
vt 0.82401203125 0.41168046875
vt 0.90103859375 0.95483984375
vt 0.9047840625 0.96875
vt 0.8608409375 0.96875
vt 0.86201453125 0.956571875
vt 0.3443326388888889 0.35551765625
vt 0.375 0.35154578125
vt 0.375 0.40625
vt 0.34375 0.39940984375
vt 0.0975796875 0.6268843749999999
vt 0.0625 0.6097015625
vt 0.08016875 0.58203125
vt 0.11559375 0.597646875
vt 0.907788125 0.265625
vt 0.9128015625 0.28042328125000004
vt 0.87969671875 0.28042328125000004
vt 0.875 0.26685296875
vt 0.12092796875 0.604849375
vt 0.11102140625 0.6376593749999999
vt 0.0975796875 0.6268843749999999
vt 0.115236875 0.59822609375
vt 0.043553125 0.3609375
vt 0.046678125 0.375
vt 0.002778125 0.37305156250000004
vt 0.004490625 0.3609375
vt 0.92578125 0.78125
vt 0.890625 0.78125
vt 0.890625 0.765625
vt 0.92578125 0.765625
vt 0.44739453125 0.37100437500000005
vt 0.40807421875 0.390625
vt 0.40807421875 0.342130625
vt 0.44189234375 0.34498765625000005
vt 0.029896875 0.33668906249999997
vt 0.043553125 0.3609375
vt 0.004490625 0.3609375
vt 0.000196875 0.35397812500000003
vt 0.125 0.13671875
vt 0.125 0.18521312499999998
vt 0.1138421875 0.17428406249999995
vt 0.109375 0.14701656249999995
vt 0.94255953125 0.5675154687499999
vt 0.94921875 0.57777859375
vt 0.9220721875 0.57777859375
vt 0.93508015625 0.56640625
vt 0.106596875 0.35742656250000004
vt 0.062696875 0.359375
vt 0.065821875 0.3453125
vt 0.104884375 0.3453125
vt 0.328125 0.13671875
vt 0.34765625 0.13671875
vt 0.34765625 0.171875
vt 0.328125 0.171875
vt 0.6105184375 0.4140625
vt 0.6590128125 0.4140625
vt 0.6393921875 0.453125
vt 0.613376875 0.4476234375
vt 0.104884375 0.3453125
vt 0.065821875 0.3453125
vt 0.079478125 0.32106406249999997
vt 0.109178125 0.33835312500000003
vt 0.490689375 0.14509281249999995
vt 0.50161828125 0.15447765624999998
vt 0.453125 0.15447765624999998
vt 0.46342203125 0.140625
vt 0.30859375 0.05078125
vt 0.30859375 0.07792874999999999
vt 0.29798265625 0.07126812500000002
vt 0.296875 0.06378968750000003
vt 0.73896265625 0.328125
vt 0.70603421875 0.32214718750000004
vt 0.704173125 0.3046875
vt 0.752858125 0.3046875
vt 0.53239984375 0.21694000000000002
vt 0.54791421875 0.21880109375
vt 0.55353765625 0.25189562499999996
vt 0.53239984375 0.265625
vt 0.59375 0.54296875
vt 0.6484375 0.54296875
vt 0.6484375 0.578025
vt 0.59375 0.578125
vt 0.140625 0.53125
vt 0.140625 0.484375
vt 0.1953125 0.484375
vt 0.1953125 0.53125
vt 0.8203125 0.5
vt 0.8203125 0.515625
vt 0.765625 0.515625
vt 0.765625 0.5
vt 0.68359375 0.67812234375
vt 0.68359375 0.734375
vt 0.65625 0.73419875
vt 0.6566359375 0.67794984375
vt 0.3046875 0.29317531249999995
vt 0.3046875 0.35006499999999996
vt 0.28125 0.359375
vt 0.2885978125 0.29275359375
vt 0.50164390625 0.83984375
vt 0.56866859375 0.83984375
vt 0.5512834375 0.87077171875
vt 0.5092796875 0.875
vt 0.254084375 0.1953125
vt 0.24796546875 0.21875
vt 0.21898828125 0.20044906250000005
vt 0.21875 0.1953125
vt 0.59375 0.203125
vt 0.59375 0.262889375
vt 0.578125 0.25574406250000004
vt 0.5808446875 0.21642921874999999
vt 0.878579375 0.46875
vt 0.8849275 0.47220453124999995
vt 0.86066078125 0.484375
vt 0.84375 0.46875
vt 0.90781296875 0.9355465625
vt 0.875 0.9355465625
vt 0.87500015625 0.91796875
vt 0.2528675 0.743846875
vt 0.2372171875 0.76602921875
vt 0.2065096875 0.78125
vt 0.18891875 0.7284715625
vt 0.18891875 0.7284715625
vt 0.2464109375 0.71215125
vt 0.25390625 0.7440965625
vt 0.72474046875 0.63372203125
vt 0.71538875 0.65625
vt 0.658390625 0.65625
vt 0.65807203125 0.6406296874999999
vt 0.0330434375 0.51057765625
vt 0.00178984375 0.52796203125
vt 0.00178984375 0.4609375
vt 0.03727265625 0.46857249999999995
vt 0.8338690625 0.296875
vt 0.841014375 0.31077109375
vt 0.78125 0.31077109375
vt 0.79455359375 0.29959328124999995
vt 0.26953125 0.14760828125000003
vt 0.25736078125 0.171875
vt 0.25257171875 0.16552703125
vt 0.25257171875 0.13069750000000002
vt 0.69140625 0.08984375
vt 0.69140625 0.12265671874999995
vt 0.6738284375 0.08984390625000005
vt 0.65003765625 0.19927796875000003
vt 0.66796875 0.22833328124999996
vt 0.64433640625 0.234375
vt 0.64433640625 0.19904234374999996
vt 0.198634375 0.875
vt 0.1697234375 0.8568375
vt 0.15625 0.8332703125
vt 0.221559375 0.8239265625
vt 0.16670609375 0.80216796875
vt 0.22241421875 0.82380421875
vt 0.15625 0.8332703125
vt 0.9453125 0.75
vt 0.921875 0.75
vt 0.921875 0.734375
vt 0.9453125 0.734375
vt 0.921875 0.6953125
vt 0.9375 0.6953125
vt 0.9375 0.71875
vt 0.921875 0.71875
vt 0.6875 0.4296875
vt 0.7421875 0.4296875
vt 0.7421875 0.453125
vt 0.6875 0.453125
vt 0.53125 0.3125
vt 0.53125 0.2890625
vt 0.5859375 0.2890625
vt 0.5859375 0.3125
vt 0.8203125 0.53125
vt 0.8203125 0.546875
vt 0.765625 0.546875
vt 0.765625 0.53125
vt 0.7578125 0.25
vt 0.703125 0.25
vt 0.703125 0.234375
vt 0.7578125 0.234375
vt 0.10523984375 0.484375
vt 0.06305234375 0.4828125
vt 0.06617734375 0.46875
vt 0.10523984375 0.46875
vt 0.73600703125 0.5625
vt 0.7555371875 0.5625
vt 0.75618046875 0.609375
vt 0.74055546875 0.609375
vt 0.51741859375 0.5176240624999999
vt 0.56851890625 0.52457765625
vt 0.5499678125 0.5625
vt 0.518051875 0.5625
vt 0.10523984375 0.46875
vt 0.06617734375 0.46875
vt 0.07643671875 0.4404265625
vt 0.11663515625 0.4610015625
vt 0.72762015625 0.20662671875000005
vt 0.73907171875 0.21536656249999997
vt 0.6875 0.21536656249999997
vt 0.6984390625 0.19921875
vt 0.93359375 0.82734140625
vt 0.93359375 0.859375
vt 0.921875 0.84940078125
vt 0.92358265625 0.8371884375
vt 0.078125 0.10156265625000005
vt 0.078125 0.140625
vt 0.0625 0.140625
vt 0.06426578125 0.108776875
vt 0.2277828125 0.33549843749999997
vt 0.2277828125 0.351125
vt 0.203125 0.33067500000000005
vt 0.21729375 0.32901875
vt 0.61975046875 0.7929515625
vt 0.6328125 0.82318265625
vt 0.5940640625 0.828125
vt 0.5940640625 0.7750215625
vt 0.5078125 0.25
vt 0.50622703125 0.28125
vt 0.47564625 0.2627071875
vt 0.47172015625 0.25
vt 0.261659375 0.3439671875
vt 0.2590625 0.359375
vt 0.2277828125 0.34907968749999996
vt 0.2277828125 0.33549843749999997
vt 0.515625 0.1796875
vt 0.515625 0.23321218749999995
vt 0.5 0.22845734375000004
vt 0.50668375 0.19298843750000005
vt 0.51171875 0.06873937500000005
vt 0.51171875 0.07682140625
vt 0.5001559375 0.078125
vt 0.5 0.06709046875000002
vt 0.9375 0.53125
vt 0.934580625 0.546875
vt 0.926768125 0.546875
vt 0.921875 0.53125
vt 0.441965 0.07927734374999995
vt 0.44921875 0.0746496875
vt 0.44921875 0.125
vt 0.4375 0.11775921874999995
vt 0.89453125 0.5442843749999999
vt 0.84384875 0.5442843749999999
vt 0.84736453125 0.5344599999999999
vt 0.8842775 0.53125
vt 0.95969734375 0.125
vt 0.9093459375 0.125
vt 0.90625 0.11753531250000004
vt 0.9569234375 0.11775093749999999
vt 0.722635 0.04948328125000001
vt 0.73046875 0.05469140625000002
vt 0.73046875 0.09375
vt 0.71875 0.08631578124999995
vt 0.8046875 0.890625
vt 0.734375 0.890625
vt 0.734375 0.875
vt 0.8046875 0.875
vt 0.8046875 0.84375
vt 0.8046875 0.859375
vt 0.734375 0.859375
vt 0.734375 0.84375
vt 0.25 0.8046875
vt 0.3046875 0.8046875
vt 0.3046875 0.875
vt 0.25 0.875
vt 0.0546875 0.6484375
vt 0.0546875 0.71875
vt 0 0.71875
vt 0 0.6484375
vt 0.8203125 0.46875
vt 0.8203125 0.484375
vt 0.765625 0.484375
vt 0.765625 0.46875
vt 0.8203125 0.453125
vt 0.765625 0.453125
vt 0.765625 0.4375
vt 0.8203125 0.4375
vt 0.8046875 0.828125
vt 0.734375 0.828125
vt 0.734375 0.8125
vt 0.8046875 0.8125
vt 0.79895203125 0.78305546875
vt 0.80301875 0.796875
vt 0.73604375 0.796875
vt 0.73867765625 0.78271390625
vt 0.0020984375 0.4210984375
vt 0.00078125 0.390625
vt 0.06953125 0.390625
vt 0.0689859375 0.421875
vt 0.50078125 0.96484375
vt 0.56953125 0.96484375
vt 0.564859375 0.9994125
vt 0.50468125 1
vt 0.09376546875 0.07379078125000005
vt 0.10935953125 0.07477124999999996
vt 0.1075740625 0.10683171874999997
vt 0.09376546875 0.109375
vt 0.82601859375 0.09203531249999997
vt 0.82812140625 0.125
vt 0.81250359375 0.12452687500000004
vt 0.81250359375 0.08829937499999996
vt 0.3965034375 0.85006625
vt 0.3300590625 0.85848203125
vt 0.33235703125 0.84426109375
vt 0.3921109375 0.8363484375
vt 0.736866875 0.52734375
vt 0.74185671875 0.5462265625
vt 0.67220578125 0.5462265625
vt 0.67591421875 0.52904703125
vt 0.3515625 0.7296773437499999
vt 0.3515625 0.78125
vt 0.28402609375 0.777366875
vt 0.28125 0.7289665625
vt 0.3921109375 0.8363484375
vt 0.3323578125 0.8442609375
vt 0.3322015625 0.8141375
vt 0.392896875 0.80859375
vt 0.82292890625 0.23787593750000002
vt 0.83437984375 0.24661578125000005
vt 0.78280765625 0.24661578125000005
vt 0.7937471875 0.23046875
vt 0.87776234375 0.18572812500000002
vt 0.82926890625 0.18572812500000002
vt 0.84019859375 0.17634343750000003
vt 0.86746546875 0.171875
vt 0.56640625 0.8984375
vt 0.56640625 0.93224828125
vt 0.50607390625 0.9346384375
vt 0.5 0.89855578125
vt 0.4596571875 0.47265625
vt 0.4921875 0.47295640625
vt 0.4921875 0.5426079687500001
vt 0.453125 0.543614375
vt 0.76858984375 0.6875
vt 0.70761234375 0.6875
vt 0.70346921875 0.6735528125
vt 0.77309328125 0.67161484375
vt 0.29783 0.16469609375000005
vt 0.29783 0.09768515624999996
vt 0.30763875 0.09765625
vt 0.30537109375 0.16840671875000002
vt 0.72120875 0.109375
vt 0.7578125 0.109375
vt 0.752989375 0.125
vt 0.72104765625 0.11866890625000004
vt 0.765625 0.140625
vt 0.8048371875 0.140625
vt 0.805878125 0.15625
vt 0.7724721875 0.15118328125000002
vt 0.20703125 0.2796875
vt 0.20703125 0.3125
vt 0.173878125 0.3125
vt 0.171875 0.27492031250000004
vt 0.03515625 0.27397390624999995
vt 0.03515625 0.311634375
vt 0.00082390625 0.3125
vt 0 0.2797946875
vt 0.8906640625 0.140625
vt 0.9250390625 0.140625
vt 0.9257421875 0.15625
vt 0.8913671875 0.15625
vt 0.8974915625 0.25
vt 0.8603209375 0.24553421875000003
vt 0.86126359375 0.234375
vt 0.89701765625 0.234375
vt 0.83131328125 0.140625
vt 0.8696765625 0.140625
vt 0.866921875 0.15625
vt 0.8295421875 0.15184593749999997
vt 0.921875 0.18593749999999998
vt 0.921875 0.21875
vt 0.90625 0.21871718750000002
vt 0.90625 0.1859046875
vt 0.046875 0.625
vt 0 0.625
vt 0 0.5645312499999999
vt 0.046875 0.5578125
vt 0.414855 0.953125
vt 0.47501125 0.953125
vt 0.4749890625 0.999320625
vt 0.40780125 1
vt 0.81428625 0.76173859375
vt 0.81630609375 0.75
vt 0.861495 0.75
vt 0.859081875 0.765625
vt 0.00118453125 0.2265625
vt 0.046875 0.23385921875000004
vt 0.046875 0.24645968750000002
vt 0 0.24605421875
vt 0.83984375 0.83015625
vt 0.83984375 0.890625
vt 0.828125 0.890625
vt 0.8281453125 0.83046875
vt 0.39152578125 0.3125
vt 0.37501015625 0.3125
vt 0.37501015625 0.24609375
vt 0.39452109375 0.24609375
vt 0.25 0.421875
vt 0.25 0.46875
vt 0.203125 0.46875
vt 0.203125 0.421875
vt 0.421875 0.40625
vt 0.46875 0.40625
vt 0.46875 0.453125
vt 0.421875 0.453125
vt 0.62109375 0.0625
vt 0.62109375 0.109375
vt 0.609375 0.109375
vt 0.609375 0.0625
vt 0.9375 0.421875
vt 0.890625 0.421875
vt 0.890625 0.41015625
vt 0.9375 0.41015625
vt 0.58984375 0.0625
vt 0.58984375 0.109375
vt 0.578125 0.109375
vt 0.578125 0.0625
vt 0.515625 0.09765625
vt 0.5625 0.09765625
vt 0.5625 0.109375
vt 0.515625 0.109375
vt 0.44095046875 0.64460125
vt 0.4921875 0.6521306250000001
vt 0.488161875 0.69679890625
vt 0.44095046875 0.703125
vt 0.125 0.51171875
vt 0.11883921875 0.5585728125
vt 0.07225625 0.5625
vt 0.0645646875 0.51171875
vt 0.65234375 0.06312375000000003
vt 0.65234375 0.10797343749999999
vt 0.640625 0.109375
vt 0.64095390625 0.06262859374999996
vt 0.173960625 0.16015625
vt 0.23250375 0.16015625
vt 0.233355 0.17150218750000001
vt 0.172895 0.171875
vt 0.359375 0.09765625
vt 0.40625 0.09765625
vt 0.40625 0.109375
vt 0.359375 0.109375
vt 0.5625 0.12890625
vt 0.61328125 0.12890625
vt 0.61328125 0.140625
vt 0.5625 0.140625
vt 0.8438359375 0.44140625
vt 0.8983515625 0.44140625
vt 0.897081875 0.453125
vt 0.84431296875 0.45276140625000005
vt 0.21484375 0.08610968750000003
vt 0.21484375 0.140625
vt 0.20372296875 0.13151609374999995
vt 0.36115875 0.07460937499999998
vt 0.36115875 0.0625
vt 0.38884125 0.06719968750000005
vt 0.3664121875 0.07460937499999998
vt 0.06927109375 0.780965625
vt 0.07343515625 0.79602578125
vt 0.015494375 0.81220171875
vt 0.01129859375 0.7971496875
vt 0.625 0.20703125
vt 0.625 0.265625
vt 0.609431875 0.264970625
vt 0.609375 0.20703125
vt 0.36165140625 0.70268109375
vt 0.359375 0.64256703125
vt 0.4140625 0.6447628125
vt 0.4140625 0.703125
vt 0.05591953125 0.74609375
vt 0.06927109375 0.780965625
vt 0.01129765625 0.79715
vt 0.00078359375 0.763053125
vt 0.8539671875 0.28125
vt 0.7983765625 0.28125
vt 0.81079359375 0.271765625
vt 0.8478096875 0.2669834375
vt 0.47543359375 0.19298906250000003
vt 0.484375 0.1796875
vt 0.484375 0.23321250000000004
vt 0.46875 0.22845656250000002
vt 0.4296875 0.16796875
vt 0.4296875 0.1840953125
vt 0.3907734375 0.1875
vt 0.390625 0.16796875
vt 0.13671875 0.8125
vt 0.09375 0.8109375
vt 0.096875 0.796875
vt 0.13671875 0.796875
vt 0.5111509375 0.34375
vt 0.47208796875 0.34375
vt 0.4734625 0.31166921875
vt 0.515625 0.31118875
vt 0.71228046875 0.859375
vt 0.71740703125 0.890625
vt 0.67834453125 0.890625
vt 0.67321796875 0.859375
vt 0.92018359375 0.48355296875
vt 0.92175671875 0.515625
vt 0.90636828125 0.51291703125
vt 0.90636828125 0.4809203125
vt 0.7057428125 0.15356640624999995
vt 0.7109375 0.171875
vt 0.67800578125 0.171875
vt 0.673759375 0.15683812500000005
vt 0.33226015625 0.46875
vt 0.33538515625 0.4828125
vt 0.29319765625 0.484375
vt 0.29319765625 0.46875
vt 0.796059375 0.937496875
vt 0.751095 0.937496875
vt 0.750815625 0.91796875
vt 0.79583640625 0.92187359375
vt 0.40547796875 0.46529062499999996
vt 0.36782109375 0.484375
vt 0.36014703125 0.43359375
vt 0.4050275 0.43359375
vt 0.32200078125 0.4404265625
vt 0.33226015625 0.46875
vt 0.29319765625 0.46875
vt 0.28180234375 0.4610015625
vt 0.015625 0.1484375
vt 0.015625 0.20000921875
vt 0.00740796875 0.18855765624999998
vt 0 0.15937656249999999
vt 0.94705703125 0.95672265625
vt 0.95703125 0.96875
vt 0.92499765625 0.96875
vt 0.9348446875 0.9584303125
vt 0.8984375 0.87499984375
vt 0.8984375 0.890625
vt 0.859375 0.890625
vt 0.86659 0.87676390625
vt 0.66796875 0.4848796875
vt 0.6433109375 0.5053296875
vt 0.6433109375 0.48970468749999996
vt 0.6538 0.48322343749999996
vt 0.6468534375 0.8515625
vt 0.64191109375 0.890625
vt 0.61168 0.87756296875
vt 0.59375 0.8515625
vt 0.07581421875 0.26173859374999997
vt 0.09435703125 0.29231937500000005
vt 0.0625 0.29390484375000003
vt 0.0625 0.2578125
vt 0.6433109375 0.5053296875
vt 0.61203125 0.515625
vt 0.609434375 0.5002171875
vt 0.6433109375 0.49174843749999997
vt 0.84622609375 0.65625
vt 0.85098109375 0.6711325
vt 0.79745640625 0.6711325
vt 0.8107571875 0.66293375
vt 0.1796875 0.125
vt 0.1796875 0.140625
vt 0.140625 0.140625
vt 0.140625 0.125
vt 0.8984375 0.84375
vt 0.859375 0.84375
vt 0.859375 0.828125
vt 0.8984375 0.828125
vt 0.6328125 0.7109375
vt 0.6328125 0.75
vt 0.578125 0.75
vt 0.578125 0.7109375
vt 0.265625 0.3828125
vt 0.3203125 0.3828125
vt 0.3203125 0.421875
vt 0.265625 0.421875
vt 0.8203125 0.34375
vt 0.765625 0.34375
vt 0.765625 0.328125
vt 0.8203125 0.328125
vt 0.1171875 0.203125
vt 0.1171875 0.21875
vt 0.0625 0.21875
vt 0.0625 0.203125
vt 0.8984375 0.71875
vt 0.8984375 0.734375
vt 0.859375 0.734375
vt 0.859375 0.71875
vt 0.4140625 0.140625
vt 0.375 0.140625
vt 0.375 0.125
vt 0.4140625 0.125
vt 0.6328125 0.6484375
vt 0.6328125 0.6875
vt 0.578125 0.6875
vt 0.578125 0.6484375
vt 0.59375 0.9609375
vt 0.6484375 0.9609375
vt 0.6484375 1
vt 0.59375 1
vt 0.8359375 0.734375
vt 0.78125 0.734375
vt 0.78125 0.71875
vt 0.8359375 0.71875
vt 0.4453125 0.203125
vt 0.4453125 0.21875
vt 0.390625 0.21875
vt 0.390625 0.203125
vt 0.79296875 0.75
vt 0.79296875 0.765625
vt 0.734375 0.765625
vt 0.734375 0.75
vt 0.80859375 1
vt 0.75 1
vt 0.75 0.984375
vt 0.80859375 0.984375
vt 0.4296875 0.72265625
vt 0.4296875 0.78125
vt 0.375 0.78125
vt 0.375 0.72265625
vt 0.140625 0.55078125
vt 0.1953125 0.55078125
vt 0.1953125 0.609375
vt 0.140625 0.609375
vt 0.8359375 0.609375
vt 0.78125 0.609375
vt 0.78125 0.59375
vt 0.8359375 0.59375
vt 0.8359375 0.5625
vt 0.8359375 0.578125
vt 0.78125 0.578125
vt 0.78125 0.5625
vt 0.54228453125 0.06797890625000003
vt 0.5409809375 0.078125
vt 0.53289890625 0.078125
vt 0.53125 0.06782296875000005
vt 0.421875 0.06348687500000005
vt 0.421875 0.07129937500000005
vt 0.40625 0.07421875
vt 0.40625 0.05859375
vt 0.8784753125 0.21875
vt 0.828125 0.21875
vt 0.83275265625 0.20962546875
vt 0.87123453125 0.20516046875000005
vt 0.00321 0.07773453124999996
vt 0.01171875 0.07421875
vt 0.01171875 0.12490124999999996
vt 0 0.11464750000000001
vt 0.03125 0.024677656249999957
vt 0.0390625 0.02777375000000004
vt 0.0390625 0.078125
vt 0.031465625 0.07535109375000004
vt 0.90494578125 0.578125
vt 0.86588734375 0.578125
vt 0.86067921875 0.568395
vt 0.8975115625 0.5645100000000001
vt 0.936615625 0.88560015625
vt 0.9296875 0.90625
vt 0.922759375 0.902639375
vt 0.922759375 0.87837875
vt 0.24476546875 0.671875
vt 0.24830609375 0.68059890625
vt 0.2276471875 0.6875
vt 0.22044390625 0.671875
vt 0.24412375 0.40625
vt 0.21634375 0.40020625
vt 0.22099328125 0.379255625
vt 0.24849375 0.38493187500000003
vt 0.21634375 0.40020625
vt 0.18900625 0.394875
vt 0.1934375 0.37355000000000005
vt 0.2209890625 0.37927500000000003
vt 0.712785625 0.75
vt 0.7144028125 0.7742078125
vt 0.68642 0.7760421875
vt 0.68457 0.7518843749999999
vt 0.68456859375 0.751865625
vt 0.68642 0.7760421875
vt 0.65824015625 0.777939375
vt 0.6566909375 0.7536878124999999
vt 0.9636765625 0.62890625
vt 0.9636765625 0.63671875
vt 0.9358359375 0.63756875
vt 0.935646875 0.62975625
vt 0.935646875 0.62975625
vt 0.9358359375 0.63756875
vt 0.9074171875 0.63671875
vt 0.9074171875 0.6289078125
vt 0.166796875 0.25
vt 0.1387015625 0.25
vt 0.1388421875 0.234375
vt 0.166796875 0.234375
vt 0.1387015625 0.25
vt 0.110546875 0.25
vt 0.110546875 0.234375
vt 0.1388421875 0.234375
vt 0.17676796875 0.328125
vt 0.18458109375 0.328125
vt 0.1875 0.34375
vt 0.17187546875 0.34375
vt 0.0774390625 0.05760859375000005
vt 0.0700278125 0.078125
vt 0.0631859375 0.07435296874999997
vt 0.0631859375 0.05071593750000003
vt 0.7089525 0.72978453125
vt 0.703125 0.71484375
vt 0.762805 0.71484375
vt 0.75526640625 0.734375
vt 0.74833328125 0.49833015625
vt 0.68916671875 0.49833015625
vt 0.694150625 0.48243875
vt 0.73966390625 0.4765625
vt 0.93548671875 0.09370812500000003
vt 0.8758075 0.09370812500000003
vt 0.875 0.0859375
vt 0.93416515625 0.08600828125000004
vt 0.73452765625 0.140625
vt 0.75 0.140625
vt 0.75 0.1875
vt 0.734375 0.18661218749999997
vt 0.4375 0.484375
vt 0.421875 0.48145593750000004
vt 0.421875 0.47364421874999996
vt 0.4375 0.46875
vt 0.55679015625 0.734375
vt 0.5605625 0.7425890625
vt 0.54008109375 0.75
vt 0.5331875 0.734375
vt 0.69126921875 0.40625
vt 0.69126921875 0.34658359375000003
vt 0.7063653125 0.35241750000000005
vt 0.7109375 0.39873421875000004
vt 0.33397625 0.27061718749999997
vt 0.3515625 0.265625
vt 0.3515625 0.32477999999999996
vt 0.328125 0.31613437499999997
vt 0.84375 0.03125
vt 0.8515625 0.032055312500000044
vt 0.8515625 0.09172359375000005
vt 0.843820625 0.0904040625
vt 0.61328125 0.1875
vt 0.56640625 0.1875
vt 0.56640625 0.17187515625000005
vt 0.61239328125 0.17172078125
vt 0.66015625 0.90625
vt 0.66015625 0.9375
vt 0.59375 0.9375
vt 0.59375 0.90625
vt 0.581634375 0.32858125000000005
vt 0.588878125 0.359375
vt 0.534190625 0.359375
vt 0.532215625 0.32960156249999994
vt 0.56674703125 0.625
vt 0.5625 0.59375
vt 0.62904796875 0.59375
vt 0.6317996875 0.6141278125
vt 0.62904796875 0.59375
vt 0.5625 0.59375
vt 0.56674703125 0.625
vt 0.6317996875 0.6141278125
vt 0.5803284375 0.453125
vt 0.5593278125 0.453125
vt 0.55055875 0.38419640624999996
vt 0.58203125 0.38683296874999995
vt 0.16015625 0.40625
vt 0.09375 0.40625
vt 0.09375 0.375
vt 0.16015625 0.375
vt 0.711903125 0.828125
vt 0.657215625 0.828125
vt 0.664459375 0.79733125
vt 0.713878125 0.7983515625
vt 0.515625 0.46849171874999995
vt 0.5859375 0.4785209375
vt 0.5859375 0.4995215625
vt 0.517685625 0.5
vn 0 -0.10452846326765346 -0.9945218953682733
vn 1 0 0
vn 0 0.10452846326765346 0.9945218953682733
vn -1 0 0
vn 0 0.9945218953682733 -0.10452846326765346
vn 0 -0.9945218953682733 0.10452846326765346
vn -0.972369920397676 0.2328767026824784 0.016284325394502985
vn 0.9999999999927922 -0.0000036803699295035776 9.329896384155515e-7
vn 0.2264544110439623 0.9716490974595186 0.06794432371313561
vn -0.17167327334782626 -0.9827541553869205 -0.06872086501044211
vn 0.039869180589219476 -0.07924623995492575 0.996057469171408
vn 0.016109541426576727 0.06588876233497325 -0.997696924758712
vn -0.999999999998234 -0.0000017301753946129235 -7.341215549611553e-7
vn -0.0006007720887728194 -0.997730356501341 -0.06733331113649624
vn 0.8129501537667563 0.5822319065881266 0.010865286069059121
vn -0.9293821964374024 -0.36908783080271396 -0.004786031606359792
vn -0.2860718435177923 -0.28768439583751937 0.9140025102470634
vn -0.39624280842448856 -0.15107821959418458 -0.9056307240460238
vn -0.9936131179033788 0.02464411186809976 -0.11011648232920837
vn 0.9926345259739643 0.008414375780389519 0.1208548556106456
vn 0.00435790893503696 0.9928369584595901 0.11939758182821009
vn 0.01657661709937061 -0.9994741191384178 -0.027869354818955992
vn -0.1556845490384745 0.1039208862623991 0.9823251857654494
vn 0.0004598291763179041 0.175238784296202 -0.9845258539192954
vn -0.9999904867175629 0.004351329130006153 0.00030398877354932035
vn 0.9999904796448533 -0.004352780915068737 -0.00030646037540611325
vn 0.0030774383529045017 0.6560539136271829 0.754707752568927
vn -0.003087541886131442 -0.6560514921000091 -0.7547098162860035
vn -0.0030829112233110223 -0.7547033022318343 0.6560590074518861
vn 0.0030899916588848844 0.7547030718622847 -0.656059239149316
vn 0.06673794799902054 -0.9335850047896639 -0.35208675795713135
vn 0.9913439241063082 0.04195629454959367 0.12440616337293747
vn -0.9897178617271056 0.009977390019411654 -0.1426849882318623
vn 0.9736511997637276 -0.0161952714233285 0.22746660058606052
vn 6.376312588343063e-7 0.9975641144772024 0.06975555538384512
vn -0.01973209012749877 -0.9968829842630869 0.07638691187580762
vn -0.299634640632342 -0.06655138034694781 0.9517300015797776
vn 0.28607953631787086 0.06684055355907248 -0.9558717692766479
vn -0.02435209623770626 -0.972784584997012 0.230428137606979
vn 0.9133121910755401 0.03866661625298217 0.4054204415422844
vn -0.9412578174622953 -0.3371275352664206 0.019461398493036592
vn 0.9947452203521198 0.10213539937594752 -0.007092727326527639
vn -0.014780450907471484 0.9978539756177469 0.06378856962519926
vn 0.24987770344806243 -0.9636931355558154 -0.09410990278457954
vn -0.28557182382470875 -0.007266220945795916 0.9583297634272852
vn -0.19637297949055293 0.07500507168064723 -0.9776563261945292
vn -0.9742727052888038 -0.03266816796873667 0.22299212212722247
vn 0.9705865401259529 0.10881700566501601 -0.21475713586382175
vn -0.012966162936230952 0.9949602815361629 0.09942794770179376
vn -0.032517861405127566 -0.9754467264068836 -0.21782165326645425
vn 0.27060852064859303 -0.029739670158255564 0.9622300039861874
vn -0.2719542446450317 0.09228962949059331 -0.9578744766972546
vn 0.2419062895096874 0.06816691567767102 -0.967902174138817
vn -0.9999999939691405 0.000002830125284540236 0.00010978938615967188
vn 0.39282495458143357 -0.06471183643041734 0.9173335997792176
vn -0.26880788813214185 0.06774900766685263 -0.9608081969040932
vn -0.02935545335628588 -0.9979283427987692 0.05724753267302639
vn 0.021184056932114937 0.9996590193659995 -0.015266981761470521
vn -1 0 0
vn 1 0 0
vn 0.22613343636770325 0.8828311521022909 0.4116707735973929
vn -0.174701386203367 -0.8527072001830206 -0.4923107315655998
vn 0.0639190234114626 0.4989775441956618 -0.8642544583828257
vn -0.1643002005780275 -0.4865198234917991 0.8580815261031605
vn -1 0 0
vn 1 0 0
vn 0.3094053406965012 0.8819542045085307 -0.35556309749214277
vn -0.28691912350874904 -0.9294992069325636 0.23175124784282483
vn 0.08157948993758365 0.24111876038871285 0.9670607686232207
vn -0.18506555536395805 -0.9503423597938467 -0.25020019863959436
vn 1 0 0
vn -1 0 0
vn 0 0.9274646663648122 -0.3739108084086465
vn 0 -0.9702964231020309 0.2419191007659473
vn 0 0.24192513595524545 0.9702949183588647
vn 0.0012967528917175912 -0.9670480365463254 -0.25459067823436704
vn 1 0 0
vn -1 0 0
vn -0.30974828461351017 0.8829575868855437 -0.35276323496113554
vn 0.28691912350874904 -0.9294992069325636 0.23175124784282483
vn -0.08157948993758365 0.24111876038871285 0.9670607686232207
vn 0.18449672515010837 -0.9514968328446197 -0.2462006001120698
vn -1 0 0
vn 0.010724620068408682 -0.9950383095754024 -0.09891281515412431
vn 0.7437675500997477 0.6080529399876913 -0.277635468899319
vn -0.8717929657788427 -0.454203726282246 0.1835102172900807
vn 0.3962447341050421 0.1510823007449755 0.9056292006641733
vn -0.35779216582316214 -0.46755369437638616 -0.8083181978345927
vn 1 0 0
vn -0.010724620068408719 -0.9950383095754024 -0.09891281515412434
vn -0.7437675500997475 0.6080529399876914 -0.27763546889931906
vn 0.8717929657788427 -0.454203726282246 0.1835102172900807
vn -0.396244734105042 0.15108230074497556 0.9056292006641732
vn 0.35779216582316203 -0.46755369437638616 -0.8083181978345929
vn -1 0 0
vn 1 0 0
vn 0 0.32347905930147897 -0.9462353291826671
vn 0 -0.4872901291876476 0.8732401330655192
vn 0 -0.8090167681263594 -0.5877855636968135
vn 0.000932436676973232 0.997890058874424 -0.06491965004097278
vn 1 0 0
vn -0.016971719045922932 -0.4421802374929207 0.8967656317697118
vn -0.2846739843932399 0.957972248509096 -0.03535383566325264
vn -0.10285999365203186 -0.9254851104222359 -0.36455058920902317
vn -0.48578462840306796 0.6248847413970573 0.6111729336091594
vn -0.2251239724882419 -0.0939781518830445 0.969787246760732
vn -0.40877719612092533 0.49973777423419424 -0.7636513346645629
vn -0.46533423344737956 0.09252227861542095 -0.8802861348117158
vn -1 0 0
vn 0.01697171904592296 -0.4421802374929207 0.8967656317697118
vn 0.10285999365203187 -0.9254851104222358 -0.3645505892090231
vn 0.48578462840306835 0.6248847413970574 0.6111729336091593
vn 0.22512397248824204 -0.0939781518830445 0.969787246760732
vn 0.2839913314818377 0.9581129297210359 -0.03699375007411778
vn 0.39963922197151786 0.48796580335169637 -0.7760012029767309
vn 0.46533423344737956 0.09252227861542091 -0.8802861348117156
vn -1 0 0
vn 1 0 0
vn 0 0.36649678313844586 -0.9304193183447832
vn 0 -0.3665010528425969 0.9304176364758292
vn 0 -0.9304202045031649 -0.36649453345485095
vn 0 0.9304175460239039 0.3665012824682294
vn -1 0 0
vn -0.000004250135941975718 -0.9975640539283421 -0.06975642115238116
vn 0.7905580396496451 0.5413121628513785 0.28635489919761
vn -0.9210457323659846 -0.3372774364937644 -0.1947272187512621
vn 0.28606897358507555 0.28767949641974144 -0.9140049505837841
vn -0.5999087465490526 -0.4000342159784456 0.6928795868406392
vn -1 0 0
vn 0.5999087465490507 0.4000342159784409 -0.6928795868406435
vn 0.1565781688999915 0.47882687570173027 0.8638333752117047
vn -0.11660659037333354 -0.5288411612702554 -0.8406723078749729
vn 0.28046359620325206 0.8395166713505323 -0.4653514045635423
vn -0.01770133125504871 -0.9995006635493725 0.026174155882535882
vn -0.10929465832722689 0.29635604667699456 0.9488033364502455
vn -0.7703356808527652 -0.08741481687392533 -0.6316182301010674
vn 0.22825018277199388 0.9671182236802993 0.11217930063079402
vn 0.05142974037173255 -0.9815107412989587 -0.18436823620153456
vn 0.9280814451946288 -0.24426196880747866 -0.28107102604100576
vn -0.8711634627363651 0.27479299176698413 0.4068943755680781
vn 1 0 0
vn -1 0 0
vn 0 0.9975640502598243 0.06975647374412598
vn 0 -0.9975640502598243 -0.06975647374412439
vn 0 -0.06975647374412551 0.9975640502598243
vn 0 0.06975647374412472 -0.9975640502598244
vn 0.972369920397676 0.2328767026824784 0.016284325394502985
vn -0.9999999999927922 -0.0000036803699295035764 9.329896384155511e-7
vn -0.22645441104396236 0.9716490974595186 0.06794432371313558
vn 0.17167327334782623 -0.9827541553869205 -0.06872086501044208
vn -0.039869180589219476 -0.07924623995492575 0.996057469171408
vn -0.016109541426576723 0.06588876233497325 -0.997696924758712
vn 0.999999999998234 -0.0000017301753946129235 -7.341215549611551e-7
vn 0.0006007720887728708 -0.997730356501341 -0.06733331113649624
vn -0.8129501537667563 0.5822319065881266 0.010865286069059121
vn 0.9293821964374024 -0.36908783080271396 -0.004786031606359764
vn 0.28607184351779225 -0.28768439583751937 0.9140025102470634
vn 0.39624280842448856 -0.15107821959418452 -0.9056307240460238
vn 0.9703983069096094 -0.23982869701976237 -0.02844858577797767
vn -0.9947452203521198 0.10213539937594751 -0.0070927273265276375
vn 0.02363907493133984 0.9978113682786798 0.06175489835000646
vn -0.24987770344806243 -0.9636931355558154 -0.09410990278457954
vn 0.2855718238247087 -0.007266220945795902 0.9583297634272852
vn 0.27153694575379095 0.06662374170647566 -0.9601192447460533
vn 0.9742727052888038 -0.032668167968736686 0.22299212212722247
vn -0.9705865401259529 0.108817005665016 -0.2147571358638217
vn 0.012966162936230931 0.9949602815361629 0.09942794770179376
vn 0.03251786140512757 -0.9754467264068837 -0.21782165326645428
vn -0.27060852064859303 -0.029739670158255564 0.9622300039861874
vn 0.2719542446450317 0.09228962949059334 -0.9578744766972546
vn 0.9897178765092659 0.009977498638204584 -0.14268487810176117
vn -0.9736510976627905 -0.01619592232368468 0.22746699127594014
vn -2.552851448582377e-15 0.9975640502598242 0.06975647374412616
vn 0.01972537152854014 -0.9968830337676353 0.07638800104922756
vn 0.29962867922278813 -0.06655157512902346 0.9517318647786538
vn -0.28607782268030496 0.06684109865011663 -0.9558722440272766
vn 0.999990480432985 0.004352806742494503 0.00030350761170226805
vn -0.9999904804120524 -0.004352731044721808 -0.0003046600153867751
vn -0.0030797210996624407 0.6560534533974393 0.7547081433264401
vn 0.003079721099657583 -0.6560534533974385 -0.7547081433264408
vn 0.0030812044900650993 -0.7547018904010331 0.6560606395783835
vn -0.0030897900289079618 0.7547018530326243 -0.65606064218691
vn 0.9936132176309926 0.024642118259598837 -0.11011602860921581
vn -0.9926346407859317 0.008413235549110823 0.12085399198777001
vn -0.004357315635161322 0.9928369838537643 0.1193973923191612
vn -0.016586262098493218 -0.9994739813068402 -0.027868559350177118
vn 0.15568851063661238 0.1039222097377663 0.9823244178879874
vn -0.00045804071005283787 0.1752383579647619 -0.9845259306369345
vn 0.0041884684293457975 -0.9388147570473266 -0.34439702188373494
vn -0.9913444271406805 0.04194880813046837 0.12440467946805378
vn 0.02142021972806501 -0.9769962456177825 0.2121780154388263
vn -0.24190628950968737 0.06816691567767102 -0.967902174138817
vn 0.9999999939691405 0.000002830125284540229 0.00010978938615967187
vn -0.39282495458143357 -0.06471183643041736 0.9173335997792176
vn 0.26880788813214185 0.0677490076668526 -0.9608081969040932
vn 0.02935545335628588 -0.9979283427987692 0.05724753267302639
vn -0.021184056932114937 0.9996590193659995 -0.015266981761470521
vn 1 0 0
vn -1 0 0
vn -0.22613343636770325 0.8828311521022909 0.4116707735973929
vn 0.17470138620336706 -0.8527072001830206 -0.4923107315655998
vn -0.0639190234114626 0.4989775441956618 -0.8642544583828257
vn 0.16430020057802747 -0.4865198234917991 0.8580815261031605
vn 1 0 0
vn 0.000004250135941937134 -0.9975640539283421 -0.06975642115238119
vn -0.790558039649645 0.5413121628513784 0.28635489919760987
vn 0.9210457323659846 -0.3372774364937644 -0.1947272187512621
vn -0.2860689735850756 0.2876794964197414 -0.9140049505837841
vn 0.5999087465490526 -0.4000342159784456 0.6928795868406392
vn 1 0 0
vn -0.5999087465490507 0.400034215978441 -0.6928795868406437
vn -0.1565781688999915 0.47882687570173027 0.8638333752117047
vn 0.11660659037333354 -0.5288411612702554 -0.8406723078749729
vn -0.28046359620325206 0.8395166713505323 -0.4653514045635423
vn 0.01770133125504871 -0.9995006635493725 0.026174155882535896
vn 1 0 0
vn -1 0 0
vn 0 0.9063077870366498 0.42261826174069994
vn 0 -0.9063077870366498 -0.42261826174069994
vn 0 0.42261826174070205 -0.9063077870366487
vn 0 -0.42261826174070205 0.9063077870366487
vn -1 1.0764936059145256e-16 1.9420458733141398e-16
vn 1 -1.0764936059145233e-16 -1.942045873314136e-16
vn 0 0.4848096202463372 0.8746197071393957
vn -4.542069700364907e-16 -0.48480962024633806 -0.8746197071393954
vn 0 -0.8746197071393951 0.48480962024633856
vn 0 0.8746197071393935 -0.48480962024634106
vn -1 5.81245014516466e-18 2.2196851578461105e-16
vn 1 -5.812450145164663e-18 -2.2196851578461107e-16
vn 0 0.026176948307873163 0.9996573249755574
vn 0 -0.02617694830787247 -0.9996573249755574
vn 0 -0.9996573249755574 0.026176948307874245
vn 0 0.9996573249755574 -0.026176948307874023
vn 0.10929465832722984 0.30462452834332776 0.9461810473650059
vn 0.7703356808527642 -0.09292332729194801 -0.6308313515117188
vn -0.22825018277198147 0.9680603354308974 0.10373543767669491
vn -0.051429740371731335 -0.9830822643354326 -0.17579602769805522
vn -0.9280814451946301 -0.24670544434647398 -0.27892876297588226
vn 0.8711634627363652 0.2783333067043532 0.4044808914796915
vn -1 0 0
vn 1 0 0
vn 0.03265093113581642 0.9987925430717143 -0.03670657434713855
vn -0.032839890178765145 0.99635245093069 -0.07876125403682792
vn 0.03480566450498408 -0.9695942874450647 -0.242230228238062
vn -0.035774191037628515 -0.9591363491546223 -0.28067360222497917
vn 0.01726867875858513 -0.23339110916349537 -0.9722295937160967
vn -0.01693050247589507 -0.23381159874975072 -0.9721345042616272
vn 0 0.2334453638559058 0.9723699203976767
vn 0 0.2334453638559058 0.9723699203976766
vn 0.7703386012696012 0.08741477825784301 0.6316146736231882
vn -1 0 0
vn 0.21299427825489395 0.9227573919920284 -0.3211732133207048
vn -0.04368840871742613 -0.988605728652016 -0.14404872863082033
vn 0.32534133367079 -0.2273872309935286 -0.917849695639982
vn -0.21453883452293718 0.2268645823901136 0.9500029209105092
vn -0.7703370525016595 0.09291985470952242 0.6308301880409787
vn 1 0 0
vn -0.21273065999735608 0.9198996906674445 -0.329439259055489
vn 0.04362352864142284 -0.9898342874431344 -0.13537012650807892
vn -0.32489919192567934 -0.23538808133888994 -0.9159874269058702
vn 0.21454004027837964 0.23514991527136314 0.9479858060462836
vn -0.1305261922200517 0.08641011328638391 -0.9876721143508955
vn 0.9979074455849464 -0.0056352580513458475 0.06441252916026723
vn -0.006946652471265876 -0.24609467790172707 -0.9692209002739721
vn 0.006946652471265876 -0.24609467790172704 -0.9692209002739719
vn -0.14907750777519954 -0.985961886459527 0.07520010056313922
vn 0.1305261922200517 0.08641011328638389 -0.9876721143508955
vn -0.9979074455849464 -0.005635258051345853 0.06441252916026723
vn 0.15030316037958438 -0.9859848657451542 0.07240721304828238
usemtl m_67c2acc0-d342-941b-5661-117e7593d343
f 1/1/1 2/2/1 3/3/1 4/4/1
f 5/5/2 1/6/2 4/7/2 6/8/2
f 7/9/3 5/10/3 6/11/3 8/12/3
f 2/13/4 7/14/4 8/15/4 3/16/4
f 8/17/5 6/18/5 4/19/5 3/20/5
f 2/21/6 1/22/6 5/23/6 7/24/6
f 11/25/7 9/26/7 10/27/7 12/28/7
f 14/29/8 13/30/8 15/31/8 16/32/8
f 10/33/9 9/34/9 13/35/9 14/36/9
f 15/37/10 11/38/10 12/39/10 16/40/10
f 13/41/11 9/42/11 11/43/11 15/44/11
f 12/45/12 10/46/12 14/47/12 16/48/12
f 19/49/13 17/50/13 18/51/13 20/52/13
f 22/53/14 21/54/14 23/55/14 24/56/14
f 18/57/15 17/58/15 21/59/15 22/60/15
f 23/61/16 19/62/16 20/63/16 24/64/16
f 21/65/17 17/66/17 19/67/17 23/68/17
f 20/69/18 18/70/18 22/71/18 24/72/18
f 25/73/19 26/74/19 28/75/19 27/76/19
f 30/77/20 29/78/20 31/79/20 32/80/20
f 30/81/21 26/82/21 25/83/21 29/84/21
f 31/85/22 27/86/22 28/87/22 32/88/22
f 29/89/23 25/90/23 27/91/23 31/92/23
f 26/93/24 30/94/24 32/95/24 28/96/24
f 33/97/25 34/98/25 36/99/25 35/100/25
f 38/101/26 37/102/26 39/103/26 40/104/26
f 38/105/27 34/106/27 33/107/27 37/108/27
f 39/109/28 35/110/28 36/111/28 40/112/28
f 37/113/29 33/114/29 35/115/29 39/116/29
f 34/117/30 38/118/30 40/119/30 36/120/30
f 29/121/31 25/122/31 34/123/31 38/124/31
f 29/125/32 30/126/32 38/127/32
f 43/128/33 41/129/33 42/130/33 44/131/33
f 46/132/34 45/133/34 47/134/34 48/135/34
f 42/136/35 41/137/35 45/138/35 46/139/35
f 47/140/36 43/141/36 44/142/36 48/143/36
f 45/144/37 41/145/37 43/146/37 47/147/37
f 44/148/38 42/149/38 46/150/38 48/151/38
f 43/152/39 27/153/39 31/154/39 47/155/39
f 47/156/40 31/157/40 29/158/40 43/159/40
f 49/160/41 50/161/41 52/162/41 51/163/41
f 54/164/42 53/165/42 55/166/42 56/167/42
f 54/168/43 50/169/43 49/170/43 53/171/43
f 55/172/44 51/173/44 52/174/44 56/175/44
f 53/176/45 49/177/45 51/178/45 55/179/45
f 50/180/46 54/181/46 56/182/46 52/183/46
f 57/184/47 58/185/47 60/186/47 59/187/47
f 62/188/48 61/189/48 63/190/48 64/191/48
f 62/192/49 58/193/49 57/194/49 61/195/49
f 63/196/50 59/197/50 60/198/50 64/199/50
f 61/200/51 57/201/51 59/202/51 63/203/51
f 58/204/52 62/205/52 64/206/52 60/207/52
f 66/208/53 65/209/53 67/210/53 68/211/53
f 71/212/54 69/213/54 70/214/54 72/215/54
f 69/216/55 65/217/55 66/218/55 70/219/55
f 68/220/56 67/221/56 71/222/56 72/223/56
f 67/224/57 65/225/57 69/226/57 71/227/57
f 70/228/58 66/229/58 68/230/58 72/231/58
f 74/232/59 73/233/59 75/234/59 76/235/59
f 79/236/60 77/237/60 78/238/60 80/239/60
f 77/240/61 73/241/61 74/242/61 78/243/61
f 76/244/62 75/245/62 79/246/62 80/247/62
f 75/248/63 73/249/63 77/250/63 79/251/63
f 78/252/64 74/253/64 76/254/64 80/255/64
f 83/256/65 81/257/65 82/258/65 84/259/65
f 132/260/66 85/261/66 86/262/66 87/263/66
f 82/264/67 81/265/67 85/266/67 132/267/67
f 86/268/68 83/269/68 84/270/68 87/271/68
f 85/272/69 81/273/69 83/274/69 86/275/69
f 84/276/70 82/277/70 132/278/70 87/279/70
f 82/280/71 88/281/71 89/282/71 90/283/71
f 92/284/72 91/285/72 95/286/72 93/287/72
f 91/288/73 88/289/73 82/290/73 95/291/73
f 90/292/74 89/293/74 92/294/74 93/295/74
f 89/296/75 88/297/75 91/298/75 92/299/75
f 95/300/76 82/301/76 90/302/76 93/303/76
f 95/304/77 94/305/77 96/306/77 97/307/77
f 99/308/78 98/309/78 124/310/78 100/311/78
f 98/312/79 94/313/79 95/314/79 124/315/79
f 97/316/80 96/317/80 99/318/80 100/319/80
f 96/320/81 94/321/81 98/322/81 99/323/81
f 124/324/82 95/325/82 97/326/82 100/327/82
f 102/328/83 101/329/83 132/330/83 103/331/83
f 105/332/84 104/333/84 106/334/84 107/335/84
f 132/336/85 101/337/85 104/338/85 105/339/85
f 106/340/86 102/341/86 103/342/86 107/343/86
f 104/344/87 101/345/87 102/346/87 106/347/87
f 103/348/88 132/349/88 105/350/88 107/351/88
f 124/352/89 108/353/89 109/354/89 110/355/89
f 113/356/90 111/357/90 112/358/90 114/359/90
f 111/360/91 108/361/91 124/362/91 112/363/91
f 110/364/92 109/365/92 113/366/92 114/367/92
f 109/368/93 108/369/93 111/370/93 113/371/93
f 112/372/94 124/373/94 110/374/94 114/375/94
f 95/376/95 115/377/95 116/378/95 117/379/95
f 119/380/96 118/381/96 82/382/96 120/383/96
f 118/384/97 115/385/97 95/386/97 82/387/97
f 117/388/98 116/389/98 119/390/98 120/391/98
f 116/392/99 115/393/99 118/394/99 119/395/99
f 82/396/100 95/397/100 117/398/100 120/399/100
f 121/400/101 95/401/101 122/402/101 123/403/101
f 123/404/102 122/405/102 126/406/102 127/407/102
f 122/408/103 95/409/103 124/410/103 126/411/103
f 125/412/104 121/413/104 123/414/104 127/415/104
f 126/416/105 124/417/105 128/418/105 127/419/105
f 128/420/106 125/421/106 127/422/106
f 128/423/107 124/424/107 95/425/107 121/426/107
f 121/427/108 125/428/108 128/429/108
f 130/430/109 82/431/109 129/432/109 131/433/109
f 134/434/110 130/435/110 131/436/110 135/437/110
f 131/438/111 129/439/111 133/440/111 135/441/111
f 136/442/112 132/443/112 134/444/112 135/445/112
f 133/446/113 136/447/113 135/448/113
f 132/449/114 82/450/114 130/451/114 134/452/114
f 82/453/115 132/454/115 136/455/115 129/456/115
f 133/457/116 129/458/116 136/459/116
f 138/460/117 137/461/117 139/462/117 140/463/117
f 143/464/118 141/465/118 142/466/118 144/467/118
f 141/468/119 137/469/119 138/470/119 142/471/119
f 140/472/120 139/473/120 143/474/120 144/475/120
f 139/476/121 137/477/121 141/478/121 143/479/121
f 142/480/122 138/481/122 140/482/122 144/483/122
f 146/484/123 145/485/123 147/486/123 148/487/123
f 151/488/124 149/489/124 150/490/124 152/491/124
f 149/492/125 145/493/125 146/494/125 150/495/125
f 148/496/126 147/497/126 151/498/126 152/499/126
f 147/500/127 145/501/127 149/502/127 151/503/127
f 150/504/128 146/505/128 148/506/128 152/507/128
f 154/508/129 153/509/129 155/510/129 156/511/129
f 159/512/130 157/513/130 158/514/130 160/515/130
f 157/516/131 153/517/131 154/518/131 158/519/131
f 156/520/132 155/521/132 159/522/132 160/523/132
f 155/524/133 153/525/133 157/526/133 159/527/133
f 158/528/134 154/529/134 156/530/134 160/531/134
f 163/532/135 161/533/135 162/534/135 164/535/135
f 166/536/136 165/537/136 167/538/136 168/539/136
f 162/540/137 161/541/137 165/542/137 166/543/137
f 167/544/138 163/545/138 164/546/138 168/547/138
f 165/548/139 161/549/139 163/550/139 167/551/139
f 164/552/140 162/553/140 166/554/140 168/555/140
f 170/556/141 169/557/141 171/558/141 172/559/141
f 175/560/142 173/561/142 174/562/142 176/563/142
f 173/564/143 169/565/143 170/566/143 174/567/143
f 172/568/144 171/569/144 175/570/144 176/571/144
f 171/572/145 169/573/145 173/574/145 175/575/145
f 174/576/146 170/577/146 172/578/146 176/579/146
f 178/580/147 177/581/147 179/582/147 180/583/147
f 183/584/148 181/585/148 182/586/148 184/587/148
f 181/588/149 177/589/149 178/590/149 182/591/149
f 180/592/150 179/593/150 183/594/150 184/595/150
f 179/596/151 177/597/151 181/598/151 183/599/151
f 182/600/152 178/601/152 180/602/152 184/603/152
f 186/604/153 185/605/153 187/606/153 188/607/153
f 191/608/154 189/609/154 190/610/154 192/611/154
f 189/612/155 185/613/155 186/614/155 190/615/155
f 188/616/156 187/617/156 191/618/156 192/619/156
f 187/620/157 185/621/157 189/622/157 191/623/157
f 190/624/158 186/625/158 188/626/158 192/627/158
f 196/628/159 194/629/159 193/630/159 195/631/159
f 199/632/160 197/633/160 198/634/160 200/635/160
f 193/636/161 194/637/161 198/638/161 197/639/161
f 196/640/162 195/641/162 199/642/162 200/643/162
f 195/644/163 193/645/163 197/646/163 199/647/163
f 200/648/164 198/649/164 194/650/164 196/651/164
f 204/652/165 202/653/165 201/654/165 203/655/165
f 207/656/166 205/657/166 206/658/166 208/659/166
f 201/660/167 202/661/167 206/662/167 205/663/167
f 204/664/168 203/665/168 207/666/168 208/667/168
f 203/668/169 201/669/169 205/670/169 207/671/169
f 208/672/170 206/673/170 202/674/170 204/675/170
f 210/676/171 209/677/171 211/678/171 212/679/171
f 215/680/172 213/681/172 214/682/172 216/683/172
f 213/684/173 209/685/173 210/686/173 214/687/173
f 212/688/174 211/689/174 215/690/174 216/691/174
f 211/692/175 209/693/175 213/694/175 215/695/175
f 214/696/176 210/697/176 212/698/176 216/699/176
f 220/700/177 218/701/177 217/702/177 219/703/177
f 223/704/178 221/705/178 222/706/178 224/707/178
f 217/708/179 218/709/179 222/710/179 221/711/179
f 220/712/180 219/713/180 223/714/180 224/715/180
f 219/716/181 217/717/181 221/718/181 223/719/181
f 224/720/182 222/721/182 218/722/182 220/723/182
f 228/724/183 226/725/183 225/726/183 227/727/183
f 231/728/184 229/729/184 230/730/184 232/731/184
f 225/732/185 226/733/185 230/734/185 229/735/185
f 228/736/186 227/737/186 231/738/186 232/739/186
f 227/740/187 225/741/187 229/742/187 231/743/187
f 232/744/188 230/745/188 226/746/188 228/747/188
f 229/748/189 222/749/189 218/750/189 225/751/189
f 229/752/190 222/753/190 230/754/190
f 231/755/191 227/756/191 215/757/191 229/758/191
f 235/759/192 233/760/192 234/761/192 236/762/192
f 238/763/193 237/764/193 239/765/193 240/766/193
f 234/767/194 233/768/194 237/769/194 238/770/194
f 239/771/195 235/772/195 236/773/195 240/774/195
f 237/775/196 233/776/196 235/777/196 239/778/196
f 236/779/197 234/780/197 238/781/197 240/782/197
f 243/783/198 241/784/198 242/785/198 244/786/198
f 246/787/199 245/788/199 247/789/199 248/790/199
f 242/791/200 241/792/200 245/793/200 246/794/200
f 247/795/201 243/796/201 244/797/201 248/798/201
f 245/799/202 241/800/202 243/801/202 247/802/202
f 244/803/203 242/804/203 246/805/203 248/806/203
f 251/807/204 249/808/204 250/809/204 252/810/204
f 254/811/205 253/812/205 255/813/205 256/814/205
f 250/815/206 249/816/206 253/817/206 254/818/206
f 255/819/207 251/820/207 252/821/207 256/822/207
f 253/823/208 249/824/208 251/825/208 255/826/208
f 252/827/209 250/828/209 254/829/209 256/830/209
f 259/831/210 257/832/210 258/833/210 260/834/210
f 262/835/211 261/836/211 263/837/211 264/838/211
f 258/839/212 257/840/212 261/841/212 262/842/212
f 263/843/213 259/844/213 260/845/213 264/846/213
f 261/847/214 257/848/214 259/849/214 263/850/214
f 260/851/215 258/852/215 262/853/215 264/854/215
f 267/855/216 265/856/216 266/857/216 268/858/216
f 270/859/217 269/860/217 271/861/217 272/862/217
f 266/863/218 265/864/218 269/865/218 270/866/218
f 271/867/219 267/868/219 268/869/219 272/870/219
f 269/871/220 265/872/220 267/873/220 271/874/220
f 268/875/221 266/876/221 270/877/221 272/878/221
f 275/879/222 273/880/222 274/881/222 276/882/222
f 278/883/223 277/884/223 279/885/223 280/886/223
f 274/887/224 273/888/224 277/889/224 278/890/224
f 279/891/225 275/892/225 276/893/225 280/894/225
f 277/895/226 273/896/226 275/897/226 279/898/226
f 276/899/227 274/900/227 278/901/227 280/902/227
f 283/903/228 281/904/228 282/905/228 284/906/228
f 286/907/229 285/908/229 287/909/229 288/910/229
f 282/911/230 281/912/230 285/913/230 286/914/230
f 287/915/231 283/916/231 284/917/231 288/918/231
f 285/919/232 281/920/232 283/921/232 287/922/232
f 284/923/233 282/924/233 286/925/233 288/926/233
f 290/927/234 289/928/234 291/929/234 292/930/234
f 295/931/235 293/932/235 294/933/235 296/934/235
f 293/935/236 289/936/236 290/937/236 294/938/236
f 292/939/237 291/940/237 295/941/237 296/942/237
f 291/943/238 289/944/238 293/945/238 295/946/238
f 294/947/239 290/948/239 292/949/239 296/950/239
f 298/951/240 297/952/240 319/953/240 299/954/240
f 312/955/241 300/956/241 301/957/241 302/958/241
f 300/959/242 304/960/242 303/961/242 301/962/242
f 304/963/243 297/964/243 298/965/243 303/966/243
f 299/967/244 319/968/244 305/969/244 306/970/244
f 306/971/245 305/972/245 312/973/245 302/974/245
f 319/975/246 297/976/246 304/977/246 305/978/246
f 305/979/247 304/980/247 300/981/247 312/982/247
f 301/983/248 303/984/248 306/985/248 302/986/248
f 303/987/249 298/988/249 299/989/249 306/990/249
f 309/991/250 307/992/250 308/993/250 310/994/250
f 311/995/251 300/996/251 312/997/251 313/998/251
f 308/999/252 307/1000/252 300/1001/252 311/1002/252
f 312/1003/253 309/1004/253 310/1005/253 313/1006/253
f 300/1007/254 307/1008/254 309/1009/254 312/1010/254
f 310/1011/255 308/1012/255 311/1013/255 313/1014/255
f 315/1015/256 314/1016/256 316/1017/256 317/1018/256
f 319/1019/257 297/1020/257 318/1021/257 320/1022/257
f 297/1023/258 314/1024/258 315/1025/258 318/1026/258
f 317/1027/259 316/1028/259 319/1029/259 320/1030/259
f 316/1031/260 314/1032/260 297/1033/260 319/1034/260
f 318/1035/261 315/1036/261 317/1037/261 320/1038/261
f 321/1039/262 322/1040/262 324/1041/262 323/1042/262
f 325/1043/263 326/1044/263 328/1045/263 327/1046/263
f 329/1047/264 330/1048/264 332/1049/264 331/1050/264
f 336/1051/265 334/1052/265 333/1053/265 335/1054/265
f 337/1055/266 338/1056/266 340/1057/266 339/1058/266
f 344/1059/267 342/1060/267 341/1061/267 343/1062/267
f 348/1063/268 346/1064/268 345/1065/268 347/1066/268
f 352/1067/269 350/1068/269 349/1069/269 351/1070/269
