# Made in Blockbench 5.2.1
mtllib cossack_red_h.mtl

o mesh
v -0.08809148641114734 2.113709462427423 -0.23268380515133733
v -0.10151286809512552 2.120654274149984 -0.3252078485337532
v -0.07042838790305866 1.9121288384153925 -0.2503765324429098
v -0.08384976958703685 1.9190736501379537 -0.3429005758253256
v -0.3037509562405544 2.0922086542707263 -0.20301444685851336
v -0.3171723379245326 2.0991534659932873 -0.29553849024092915
v -0.28608785773246576 1.8906280302586957 -0.22070717415008587
v -0.2995092394164439 1.897572841981257 -0.3132312175325016
v -0.015363536316550408 2.075098933882387 0.28546093513675197
v -0.015455370550140762 2.0665373889408034 0.37790605038172054
v -0.0039420994615510865 1.873191189321367 0.2677682485616144
v -0.004033933695141462 1.8646296443797832 0.3602133638065831
v -0.30054790915783847 2.0533846042086656 0.24252183731216956
v -0.313122365904465 2.0441689258964475 0.33496650622700164
v -0.28288481064974974 1.8518039801966357 0.22482911002059708
v -0.29545926739637635 1.842588301884417 0.3172737789354292
v -0.27131261650903693 2.0708590592960183 0.07261441392459542
v -0.36282855740606046 2.061265526657264 0.09055484851358102
v -0.2536495180009483 1.8692784352839877 0.05492168663302284
v -0.34516545889797173 1.859684902645234 0.07286212122200846
v -0.22160687201692608 2.053762421964988 0.31702604203679513
v -0.31312281291394956 2.0441688893262344 0.3349664766257807
v -0.2039437735088374 1.852181797952958 0.2993333147452225
v -0.29545971440586083 1.8425882653142043 0.31727374933420827
v -0.22442278095680945 2.106256617305787 -0.2838734210926984
v -0.31717265511622705 2.09915341575082 -0.29553823446804706
v -0.20675968244872078 1.904675993293756 -0.301566148384271
v -0.2995095566081384 1.897572791738789 -0.3132309617596195
v -0.2700786855963486 2.0683687203302483 0.10221974934588406
v -0.36282855975576617 2.061265518775281 0.09055493597053546
v -0.25241558708825995 1.866788096318218 0.08452702205431156
v -0.3451654612476776 1.859684894763251 0.07286220867896298
v 0.055818407899280595 2.119504939707597 -0.23329104684879734
v 0.05457579488746135 2.127593088439574 -0.32668323208392436
v 0.06463884992657361 1.9173384336937576 -0.25091685955628196
v 0.06339623691475442 1.925426582425734 -0.344309044791409
v -0.10027046982529819 2.1125661711341994 -0.23181516021143686
v -0.10151308283711735 2.1206543198661763 -0.32520734544656393
v -0.09145002779800507 1.9103996651203596 -0.24944097291892156
v -0.09269264080982431 1.9184878138523365 -0.3428331581540486
v 0.041389040156592664 2.1192769035939913 -0.23423853465508868
v 0.05457571501963533 2.127592977789308 -0.32668320468010625
v 0.044947562045798466 1.9169552033659154 -0.2519312496469951
v 0.05813423690884108 1.925271277561233 -0.34437591967201253
v 0.2721200532460548 2.1221888838554728 -0.20126955203536437
v 0.2853067281090975 2.1305049580507904 -0.293714222060382
v 0.2756785751352606 1.9198671836273973 -0.21896226702727087
v 0.2888652499983033 1.928183257822715 -0.3114069370522884
v -0.01587747230989095 2.0750525150639576 0.2854574983248236
v -0.01545578731626468 2.066537474101567 0.37790599251020074
v -0.006077317100392637 1.873056259848763 0.2678028239096842
v -0.005655632106766395 1.864541218886372 0.36025131809506133
v 0.27027245203245426 2.0831956143224413 0.24425900950079626
v 0.28317669868420214 2.075331497513853 0.3367830527823765
v 0.27383097392166006 1.8808739140943664 0.22656629450888996
v 0.28673522057340806 1.8730097972857778 0.3190903377904702
v 0.2404079440334022 2.097544509855029 0.07416829999975862
v 0.33231452632709446 2.097543224189619 0.09266810079435696
v 0.24396646592260798 1.8952228096269534 0.056475585007852214
v 0.33587304821630026 1.8952215239615435 0.07497538580245057
v 0.19126994004498113 2.0753327825938053 0.31828322321443414
v 0.2831765223386736 2.075331496928395 0.33678302400903243
v 0.19482846193418696 1.8730110823657298 0.30059050822252775
v 0.2867350442278793 1.8730097967003196 0.3190903090171261
v 0.19225223076009626 2.127897739864869 -0.28261584905061043
v 0.2853064232961271 2.1305049847661905 -0.29371458886609514
v 0.19581075264930203 1.9255760396367931 -0.3003085640425168
v 0.28886494518533296 1.9281832845381157 -0.3114073038580015
v 0.23926033641775982 2.0949359716850533 0.10376692808359109
v 0.33231452895379077 2.0975432165863763 0.09266818826810642
v 0.2428188583069656 1.8926142714569785 0.08607421309168478
v 0.3358730508429965 1.8952215163583008 0.07497547327620009
v 0.24313586569527962 2.0704399708663064 0.29262333474013724
v 0.24057010630795794 2.119398082970061 -0.26773663917217083
v -0.26866143253124475 2.0436173369148767 0.292623343644982
v -0.2712271919185665 2.0925754490186304 -0.2677366302673262
v 0.24448318366824623 2.0551113015859297 0.28991090826692756
v 0.24191742428092441 2.1040694136896843 -0.2704490656453805
v -0.2673141145582782 2.0282886676345004 0.2899109171717722
v -0.2698798739455999 2.0772467797382546 -0.2704490567405359
vt 0.453125 0.796875
vt 0.421875 0.796875
vt 0.421875 0.75
vt 0.453125 0.75
vt 0.453125 0.59375
vt 0.453125 0.640625
vt 0.421875 0.640625
vt 0.421875 0.59375
vt 0.390625 0.8125
vt 0.453125 0.8125
vt 0.453125 0.84375
vt 0.390625 0.84375
vt 0.328125 0.578125
vt 0.328125 0.609375
vt 0.265625 0.609375
vt 0.265625 0.578125
vt 0.125 0.671875
vt 0.125 0.71875
vt 0.0625 0.71875
vt 0.0625 0.671875
vt 0.34375 0.90625
vt 0.28125 0.90625
vt 0.28125 0.859375
vt 0.34375 0.859375
vt 0.48448796875 0.65625
vt 0.53523796875 0.65625
vt 0.535125 0.671875
vt 0.484375 0.671875
vt 0.453125 0.578125
vt 0.421875 0.578125
vt 0.421875 0.53125
vt 0.453125 0.53125
vt 0.07683875 0.5551434375
vt 0.073590625 0.578125
vt 0.00128625 0.578125
vt 0.0014446875 0.554688125
vt 0.5 0.4375
vt 0.5 0.5082590625000001
vt 0.4848396875 0.51158078125
vt 0.484375 0.43773312499999995
vt 0.328125 0.92196171875
vt 0.328125 0.994265
vt 0.28130421875 0.99263453125
vt 0.28125 0.921875
vt 0.293959375 0.7930221875
vt 0.2955140625 0.84375
vt 0.2201109375 0.84375
vt 0.2201109375 0.79296875
vt 0.28125 0.5625
vt 0.25 0.5625
vt 0.25 0.515625
vt 0.28125 0.515625
vt 0.328125 0.515625
vt 0.328125 0.5625
vt 0.296875 0.5625
vt 0.296875 0.515625
vt 0.34375 0.578125
vt 0.40625 0.578125
vt 0.40625 0.609375
vt 0.34375 0.609375
vt 0.1875 0.5625
vt 0.1875 0.59375
vt 0.125 0.59375
vt 0.125 0.5625
vt 0.203125 0.671875
vt 0.203125 0.71875
vt 0.140625 0.71875
vt 0.140625 0.671875
vt 0.375 0.84375
vt 0.3125 0.84375
vt 0.3125 0.796875
vt 0.375 0.796875
vt 0.375 0.5625
vt 0.34375 0.5625
vt 0.34375 0.515625
vt 0.375 0.515625
vt 0.484375 0.953125
vt 0.484375 1
vt 0.453125 1
vt 0.453125 0.953125
vt 0.21875 0.65625
vt 0.3125 0.65625
vt 0.3125 0.6875
vt 0.21875 0.6875
vt 0.40625 0.75
vt 0.40625 0.78125
vt 0.3125 0.78125
vt 0.3125 0.75
vt 0.09375 0.796875
vt 0.09375 0.84375
vt 0 0.84375
vt 0 0.796875
vt 0.203125 0.84375
vt 0.109375 0.84375
vt 0.109375 0.796875
vt 0.203125 0.796875
vt 0.125 0.546875
vt 0.09375 0.546875
vt 0.09375 0.5
vt 0.125 0.5
vt 0.171875 0.5
vt 0.171875 0.546875
vt 0.140625 0.546875
vt 0.140625 0.5
vt 0 0.59375
vt 0.046875 0.59375
vt 0.046875 0.625
vt 0 0.625
vt 0.046875 0.5
vt 0.046875 0.53125
vt 0 0.53125
vt 0 0.5
vt 0.40625 0.859375
vt 0.40625 0.90625
vt 0.359375 0.90625
vt 0.359375 0.859375
vt 0.25 0.640625
vt 0.203125 0.640625
vt 0.203125 0.59375
vt 0.25 0.59375
vt 0.5 0.8125
vt 0.5 0.859375
vt 0.46875 0.859375
vt 0.46875 0.8125
vt 0.5 0.796875
vt 0.46875 0.796875
vt 0.46875 0.75
vt 0.5 0.75
vt 0.20705625 0.515625
vt 0.23049375 0.515625
vt 0.23044375 0.578125
vt 0.20700625 0.578125
vt 0.51350171875 0.9375
vt 0.45522828125 0.9375
vt 0.45524828125 0.921875
vt 0.51352171875 0.921875
vt 0.18557453125 0.65625
vt 0.12730265625 0.65625
vt 0.12692546875 0.609375
vt 0.18519734375 0.609375
vt 0.0625 0.5976009375
vt 0.109375 0.597978125
vt 0.109375 0.65625
vt 0.0625 0.6558728125
vt 0.203125 0.49606249999999996
vt 0.1875 0.49617546874999996
vt 0.1875 0.44542546875
vt 0.203125 0.4453125
vt 0.5 0.59375
vt 0.5 0.640625
vt 0.46875 0.640625
vt 0.46875 0.59375
vt 0.078125 0.45569734375000004
vt 0.078125 0.528001875
vt 0.0629553125 0.53125
vt 0.0625 0.4558559375
vt 0.4979778125 0.8832771875000001
vt 0.49465625 0.9062475
vt 0.4238971875 0.9062475
vt 0.4241303125 0.8828125
vt 0.2923771875 0.71099171875
vt 0.2940075 0.7617171875
vt 0.22170421875 0.7617171875
vt 0.2216175 0.7109375
vt 0.046875 0.640625
vt 0.046875 0.71875
vt 0.0000534375 0.7171951562500001
vt 0 0.640625
vt 0.5 0.53125
vt 0.5 0.578125
vt 0.46875 0.578125
vt 0.46875 0.53125
vt 0.515625 0.734375
vt 0.484375 0.734375
vt 0.484375 0.6875
vt 0.515625 0.6875
vt 0.40625 0.734375
vt 0.40625 0.703125
vt 0.46875 0.703125
vt 0.46875 0.734375
vt 0.46875 0.6875
vt 0.40625 0.6875
vt 0.40625 0.65625
vt 0.46875 0.65625
vt 0.390625 0.734375
vt 0.328125 0.734375
vt 0.328125 0.6875
vt 0.390625 0.6875
vt 0.390625 0.625
vt 0.390625 0.671875
vt 0.328125 0.671875
vt 0.328125 0.625
vt 0.421875 0.46875
vt 0.421875 0.515625
vt 0.390625 0.515625
vt 0.390625 0.46875
vt 0.46875 0.515625
vt 0.4375 0.515625
vt 0.4375 0.46875
vt 0.46875 0.46875
vt 0.34375 1
vt 0.34375 0.96875
vt 0.4375 0.96875
vt 0.4375 1
vt 0.4375 0.953125
vt 0.34375 0.953125
vt 0.34375 0.921875
vt 0.4375 0.921875
vt 0.09375 0.78125
vt 0 0.78125
vt 0 0.734375
vt 0.09375 0.734375
vt 0.203125 0.734375
vt 0.203125 0.78125
vt 0.109375 0.78125
vt 0.109375 0.734375
vt 0 1
vt 0 0.859375
vt 0.125 0.859375
vt 0.125 1
vt 0.140625 1
vt 0.140625 0.859375
vt 0.265625 0.859375
vt 0.265625 1
vn 0.9858718620772897 0.09828940871632802 -0.13563135219576683
vn -0.9858718620772897 -0.09828940871632802 0.13563135219576683
vn -0.08695679265520583 0.9923969182130733 0.08710265743543386
vn 0.08695679265520583 -0.9923969182130733 -0.08710265743543386
vn 0.14316140462910062 -0.07407799170731896 0.9869231294124348
vn -0.14316140462910062 0.07407799170731896 -0.9869231294124348
vn 0.9984152165722134 0.05593709274060249 0.006172274523181311
vn -0.9871414891452968 -0.07406318195699337 -0.141655658151771
vn -0.08933051212698949 0.9917661003963789 0.09176089421801305
vn 0.09015945500460848 -0.9916917993394916 -0.09175318956893865
vn 0.14119597039738943 0.09434200715010706 -0.985476171010963
vn -0.13521343609416825 -0.09407927681359116 0.9863399091458482
vn -0.19882297796844348 0.06838654932411915 -0.9776465124487991
vn 0.1988229779684437 -0.06838654932411925 0.9776465124487991
vn -0.0869567926552101 0.9923969182130727 0.08710265743543649
vn 0.08695679265520583 -0.9923969182130733 -0.08710265743543386
vn 0.9761700362349173 0.1023310148133732 -0.1913646356158466
vn -0.976170036234917 -0.10233101481337376 0.19136463561584696
vn 0.11687911587722061 0.09699301625737822 -0.9883985163227711
vn -0.11687911587722094 -0.09699301625737825 0.9883985163227711
vn -0.08695679265521064 0.9923969182130729 0.0871026574354344
vn 0.08695679265520341 -0.9923969182130735 -0.08710265743543359
vn 0.9893319910337879 0.07576748325298234 0.12442467600371804
vn -0.989331991033788 -0.0757674832529824 -0.12442467600371773
vn 0.9989688174373038 0.044408118869745945 -0.009445674479106965
vn -0.9989688174373039 -0.04440811886974641 0.009445674479106412
vn -0.043423714595903815 0.9952812603758256 0.08677323179069364
vn 0.04342371459590378 -0.9952812603758256 -0.08677323179069366
vn 0.013254538792738666 -0.08627358647441538 0.9961833091746888
vn -0.013254538792738305 0.08627358647441573 -0.9961833091746888
vn -0.9899032548207194 -0.005023287232022702 -0.14165561295173085
vn 0.9899032548207194 0.005023287232022608 0.14165561295173135
vn -0.02486539783374822 0.9959805768324542 0.08604883824353102
vn 0.024865397833752058 -0.9959805768324534 -0.08604883824353762
vn -0.1397978071533336 -0.08870039382537105 0.9861991752431876
vn 0.13979780715333356 0.08870039382537075 -0.9861991752431878
vn -0.9988247547647863 -0.04846752358477282 0.0000917966458140185
vn 0.9903266435840139 0.02927904775824251 -0.13563139890892556
vn -0.015120701879001143 0.9956649175424227 0.09177546703736753
vn 0.014288498642321018 -0.9956774514349923 -0.09177282555564721
vn -0.14426599293791523 0.07920987831585286 -0.9863635832991936
vn 0.1382835294038114 -0.07957243581046065 0.9871909100851849
vn 0.19655201595368466 0.08884690904489433 -0.9764596928587022
vn -0.1965520159536839 -0.0888469090448941 0.9764596928587023
vn -0.01751887699301179 0.9960452934305252 0.08710259688323208
vn 0.017518876993012023 -0.9960452934305252 -0.08710259688323291
vn -0.980336877799385 0.00001371376437355951 -0.19733120847571578
vn 0.9803368777993852 -0.000013713764373198687 0.19733120847571511
vn -0.1203407504836185 0.084382126540326 -0.9891399094635562
vn 0.12034075048361861 -0.08438212654032583 0.9891399094635562
vn -0.017518876993007377 0.9960452934305253 0.08710259688323191
vn 0.017518876993014753 -0.9960452934305252 -0.08710259688323106
vn -0.9925780537176627 -0.0278106122807723 0.11838655803183679
vn 0.9925780537176626 0.02781061228077289 -0.11838655803183701
vn -0.05213771842619033 0.9948293762144524 0.08715601263295006
vn -0.0521377184261886 0.9948293762144524 0.08715601263295004
usemtl m_ec1a8958-4e3b-bc79-7b64-4d12b95ee85a
f 2/1/1 1/2/1 3/3/1 4/4/1
f 7/5/2 5/6/2 6/7/2 8/8/2
f 5/9/3 1/10/3 2/11/3 6/12/3
f 4/13/4 3/14/4 7/15/4 8/16/4
f 3/17/5 1/18/5 5/19/5 7/20/5
f 6/21/6 2/22/6 4/23/6 8/24/6
f 11/25/7 9/26/7 10/27/7 12/28/7
f 14/29/8 13/30/8 15/31/8 16/32/8
f 10/33/9 9/34/9 13/35/9 14/36/9
f 15/37/10 11/38/10 12/39/10 16/40/10
f 13/41/11 9/42/11 11/43/11 15/44/11
f 12/45/12 10/46/12 14/47/12 16/48/12
f 18/49/13 17/50/13 19/51/13 20/52/13
f 23/53/14 21/54/14 22/55/14 24/56/14
f 21/57/15 17/58/15 18/59/15 22/60/15
f 20/61/16 19/62/16 23/63/16 24/64/16
f 19/65/17 17/66/17 21/67/17 23/68/17
f 22/69/18 18/70/18 20/71/18 24/72/18
f 26/73/19 25/74/19 27/75/19 28/76/19
f 31/77/20 29/78/20 30/79/20 32/80/20
f 29/81/21 25/82/21 26/83/21 30/84/21
f 28/85/22 27/86/22 31/87/22 32/88/22
f 27/89/23 25/90/23 29/91/23 31/92/23
f 30/93/24 26/94/24 28/95/24 32/96/24
f 34/97/25 33/98/25 35/99/25 36/100/25
f 39/101/26 37/102/26 38/103/26 40/104/26
f 37/105/27 33/106/27 34/107/27 38/108/27
f 36/109/28 35/110/28 39/111/28 40/112/28
f 35/113/29 33/114/29 37/115/29 39/116/29
f 38/117/30 34/118/30 36/119/30 40/120/30
f 43/121/31 41/122/31 42/123/31 44/124/31
f 46/125/32 45/126/32 47/127/32 48/128/32
f 42/129/33 41/130/33 45/131/33 46/132/33
f 47/133/34 43/134/34 44/135/34 48/136/34
f 45/137/35 41/138/35 43/139/35 47/140/35
f 44/141/36 42/142/36 46/143/36 48/144/36
f 50/145/37 49/146/37 51/147/37 52/148/37
f 55/149/38 53/150/38 54/151/38 56/152/38
f 53/153/39 49/154/39 50/155/39 54/156/39
f 52/157/40 51/158/40 55/159/40 56/160/40
f 51/161/41 49/162/41 53/163/41 55/164/41
f 54/165/42 50/166/42 52/167/42 56/168/42
f 59/169/43 57/170/43 58/171/43 60/172/43
f 62/173/44 61/174/44 63/175/44 64/176/44
f 58/177/45 57/178/45 61/179/45 62/180/45
f 63/181/46 59/182/46 60/183/46 64/184/46
f 61/185/47 57/186/47 59/187/47 63/188/47
f 60/189/48 58/190/48 62/191/48 64/192/48
f 67/193/49 65/194/49 66/195/49 68/196/49
f 70/197/50 69/198/50 71/199/50 72/200/50
f 66/201/51 65/202/51 69/203/51 70/204/51
f 71/205/52 67/206/52 68/207/52 72/208/52
f 69/209/53 65/210/53 67/211/53 71/212/53
f 68/213/54 66/214/54 70/215/54 72/216/54
f 73/217/55 74/218/55 76/219/55 75/220/55
f 77/221/56 78/222/56 80/223/56 79/224/56
