# Made in Blockbench 5.2.1
mtllib gasmask_alt_h.mtl

o mesh
v 0.296875 2.0625 0.09375
v 0.296875 2.0625 -0.28125
v 0.296875 1.46875 -0.03125
v 0.28125 1.4875 -0.28125
v -0.296875 2.0625 -0.28125
v -0.296875 1.46875 -0.03125
v -0.28125 1.4875 -0.28125
v 0 2.0625 -0.3125
v 0 1.46875 -0.1875
v 0 1.46875 -0.3125
v 0 2.0875 0.09375
v -0.296875 2.0625 0.09375
v -0.296875 2.0625 0.09375
v -0.234375 1.65625 -0.28125
v -0.234375 1.65625 -0.3125
v -0.234375 1.875 -0.28125
v -0.234375 1.875 -0.3125
v 0.234375 1.65625 -0.28125
v 0.234375 1.65625 -0.3125
v 0.234375 1.875 -0.28125
v 0.234375 1.875 -0.3125
v -1.3394574365674175e-17 1.875 -0.3375
v 1.3394574365674175e-17 1.65625 -0.3375
v 0.171875 1.6415710887005432 -0.20106938647409422
v 0.171875 1.7013653750075886 -0.3454255634289828
v 0.171875 1.5405217648321214 -0.24292538688902587
v 0.171875 1.6003160511391665 -0.38728156384391443
v -0.171875 1.6415710887005432 -0.20106938647409422
v -0.171875 1.7013653750075886 -0.3454255634289828
v -0.171875 1.5405217648321214 -0.24292538688902587
v -0.171875 1.6003160511391665 -0.38728156384391443
v 0 1.74817489629068 -0.37677355925404027
v 0 1.588265512044474 -0.2765288036228266
v 0 1.647125572422258 -0.418629559668972
v 0.109375 1.6514083538331725 -0.23389685028804108
v 0.109375 1.6936951068884611 -0.3680132964870105
v 0.109375 1.47258642556788 -0.29027918769509226
v 0.109375 1.5073555336355617 -0.4005527101253559
v -0.109375 1.6514083538331725 -0.23389685028804108
v -0.109375 1.6936951068884611 -0.3680132964870105
v -0.109375 1.47258642556788 -0.29027918769509226
v -0.109375 1.5073555336355617 -0.4005527101253559
v -6.938893903907228e-18 1.7466910171779821 -0.234375
v -6.938893903907228e-18 1.7466910171779821 -0.421875
v 0.10606601717798211 1.640625 -0.234375
v 0.10606601717798211 1.640625 -0.421875
v -0.10606601717798211 1.640625 -0.234375
v -0.10606601717798211 1.640625 -0.421875
v 6.938893903907228e-18 1.5345589828220179 -0.234375
v 6.938893903907228e-18 1.5345589828220179 -0.421875
v 0.08838834764831843 1.4896754845632632 -0.2985219888958169
v 0 1.5050239600593847 -0.38556751893581925
v 0.08838834764831843 1.366574515436737 -0.32022801110418314
v 0 1.3819229909328588 -0.4072735411441855
v 0 1.4743270090671414 -0.2114764588558145
v -0.08838834764831843 1.4896754845632632 -0.2985219888958169
v 0 1.3512260399406155 -0.23318248106418077
v -0.08838834764831843 1.366574515436737 -0.32022801110418314
v -0.06920099616294258 1.60555443477807 -0.44206420352994924
v -0.22388060454749986 1.4961794347780697 -0.5514392035299492
v -0.02007627875007259 1.4358489621426072 -0.3418315725075129
v -0.17475588713462986 1.326473962142607 -0.45120657250751284
v -0.20417004799189212 1.6518672491637687 -0.2975019543185104
v -0.3588496563764494 1.5424922491637687 -0.4068769543185104
v -0.15504533057902214 1.482161776528306 -0.19726932329607405
v -0.30972493896357944 1.372786776528306 -0.30664432329607405
vt 0.09375 0.875
vt 0 0.875
vt 0.03125 0.7265625
vt 0.09375 0.7265625
vt 0.171875 0.7265625
vt 0.203125 0.875
vt 0.109375 0.875
vt 0.109375 0.7265625
vt 0.296875 1
vt 0.21875 1
vt 0.21875 0.8515625
vt 0.296875 0.8515625
vt 0.296875 0.6796875
vt 0.296875 0.828125
vt 0.21875 0.828125
vt 0.21875 0.6796875
vt 0.07421875 0.6328125
vt 0.1484375 0.640625
vt 0.1484375 0.703125
vt 0.07421875 0.6640625
vt 0.07421875 0.6328125
vt 0.07421875 0.6640625
vt 0 0.703125
vt 0 0.640625
vt 0.0781259375 0.89843640625
vt 0.15260484375 0.899013125
vt 0.1518790625 0.9927603125
vt 0.07786453125 1
vt 0.07786453125 1
vt 0.00364578125 0.9921875
vt 0.00364578125 0.8984375
vt 0.07786453125 1
vt 0.00364515625 0.8984365625
vt 0.07812640625 0.89824515625
vt 0.3046875 0.546875
vt 0.296875 0.546875
vt 0.296875 0.4921875
vt 0.3046875 0.4921875
vt 0.4453125 0.4453125
vt 0.4453125 0.5
vt 0.4375 0.5
vt 0.4375 0.4453125
vt 0.5 0.8828125
vt 0.6171875 0.8828125
vt 0.6171875 0.890625
vt 0.5 0.890625
vt 0.4296875 0.9453125
vt 0.4296875 1
vt 0.3125 1
vt 0.3125 0.9453125
vt 0.52734375 0.84375
vt 0.5859375 0.85
vt 0.5859375 0.8578125
vt 0.46875 0.8578125
vt 0.46875 0.8578125
vt 0.46875 0.85
vt 0.52734375 0.84375
vt 0.375 0.84375
vt 0.3125 0.84375
vt 0.3125 0.7890625
vt 0.375 0.7890625
vt 0.3125 0.765625
vt 0.3125 0.7109375
vt 0.375 0.7109375
vt 0.375 0.765625
vt 0.2890625 0.65625
vt 0.25 0.65625
vt 0.25 0.625
vt 0.2890625 0.625
vt 0.5078125 0.671875
vt 0.5078125 0.703125
vt 0.46875 0.703125
vt 0.46875 0.671875
vt 0.35964421875 0.92187453125
vt 0.31667546875 0.87049640625
vt 0.40261296875 0.87049640625
vt 0.40261296875 0.90910421875
vt 0.3596446875 0.921875
vt 0.31613703125 0.9095551562499999
vt 0.31667546875 0.87049640625
vt 0.1640625 0.4704075
vt 0.1640625 0.515625
vt 0.140625 0.510900625
vt 0.140625 0.465683125
vt 0.5452175 0.9140625
vt 0.549941875 0.9375
vt 0.504724375 0.9375
vt 0.5 0.9140625
vt 0.32879234375 0.55534171875
vt 0.32879234375 0.5101234375
vt 0.36652015625 0.5
vt 0.36593015625 0.54537671875
vt 0.21541375 0.53965046875
vt 0.20496671875 0.576655625
vt 0.15958625 0.576655625
vt 0.170199375 0.5390625
vt 0.3660265625 0.58984375
vt 0.4140625 0.58203125
vt 0.4140625 0.609375
vt 0.328125 0.609375
vt 0.203125 1
vt 0.1780684375 0.9890525
vt 0.203125 0.95121640625
vt 0.115234375 0.53125
vt 0.080078125 0.53125
vt 0.080078125 0.484375
vt 0.108984375 0.484375
vt 0.4765625 0.578125
vt 0.4765625 0.625
vt 0.4375 0.625
vt 0.44375 0.578125
vt 0.421875 0.8828125
vt 0.4765625 0.8828125
vt 0.4765625 0.921875
vt 0.421875 0.921875
vt 0.0546875 0.5
vt 0.0546875 0.53125
vt 0 0.53125
vt 0 0.5
vt 0.3046875 0.5625
vt 0.3046875 0.609375
vt 0.25 0.609375
vt 0.25 0.5625
vt 0.4453125 0.6875
vt 0.390625 0.6875
vt 0.390625 0.640625
vt 0.4453125 0.640625
vt 0.4375 0.5625
vt 0.390625 0.5625
vt 0.390625 0.5234375
vt 0.4375 0.5234375
vt 0.5 0.9609375
vt 0.5 1
vt 0.453125 1
vt 0.453125 0.9609375
vt 0.234375 0.5
vt 0.2734375 0.5
vt 0.2734375 0.546875
vt 0.234375 0.546875
vt 0.4921875 0.515625
vt 0.4921875 0.5625
vt 0.453125 0.5625
vt 0.453125 0.515625
vt 0.5078125 0.7890625
vt 0.5078125 0.828125
vt 0.46875 0.828125
vt 0.46875 0.7890625
vt 0.5078125 0.765625
vt 0.46875 0.765625
vt 0.46875 0.7265625
vt 0.5078125 0.7265625
vt 0.203125 0.921875
vt 0.171875 0.921875
vt 0.171875 0.890625
vt 0.203125 0.890625
vt 0.203125 0.671875
vt 0.203125 0.703125
vt 0.171875 0.703125
vt 0.171875 0.671875
vt 0.1875 0.484375
vt 0.21875 0.484375
vt 0.21875 0.515625
vt 0.1875 0.515625
vt 0.53125 0.625
vt 0.53125 0.65625
vt 0.5 0.65625
vt 0.5 0.625
vt 0.421875 0.46875
vt 0.421875 0.5
vt 0.390625 0.5
vt 0.390625 0.46875
vt 0.53125 0.609375
vt 0.5 0.609375
vt 0.5 0.578125
vt 0.53125 0.578125
vt 0.2265625 0.6015625
vt 0.2265625 0.65625
vt 0.171875 0.65625
vt 0.171875 0.6015625
vt 0.1328125 0.5546875
vt 0.1328125 0.609375
vt 0.078125 0.609375
vt 0.078125 0.5546875
vt 0.390625 0.84375
vt 0.390625 0.7890625
vt 0.4453125 0.7890625
vt 0.4453125 0.84375
vt 0.390625 0.7109375
vt 0.390625 0.765625
vt 0.4453125 0.765625
vt 0.4453125 0.7109375
vt 0.0546875 0.5546875
vt 0.0546875 0.609375
vt 0 0.609375
vt 0 0.5546875
vt 0.3671875 0.6328125
vt 0.3671875 0.6875
vt 0.3125 0.6875
vt 0.3125 0.6328125
vn 1 0 0
vn -1 0 0
vn -0.10468478451804276 0 -0.9945054529214062
vn 0.10468478451804276 0 -0.9945054529214062
vn 0.07507316827541691 -0.9940243577207978 -0.0792438998462734
vn 0 -1 0
vn 0.0839135192357538 0.9964730409245756 0
vn 0 1 0
vn -0.0837561921099734 0.9946047813059332 -0.061206448080365176
vn -1 0 0
vn 1 0 0
vn 0 -1 0
vn 0 0 1
vn 0 1 0
vn 0 1 0
vn -0.10606498139220585 0 -0.994359200551929
vn 0.10606498139220584 1.2989213996358846e-17 -0.994359200551929
vn 1 0 0
vn -1 0 0
vn 0 0.8549466167867695 0.5187159940129633
vn -0.178885438199984 0.9089772725950241 0.376510714197765
vn -0.26311740579210896 0.3691991305329152 -0.8913255481489186
vn 0.26311740579210896 0.3691991305329152 -0.8913255481489186
vn -0.17888543819998431 -0.9089772725950247 -0.37651071419776383
vn 0.17888543819998287 -0.9089772725950243 -0.37651071419776505
vn -0.27580213085447264 -0.36784083814252 0.8880463402383576
vn 0.27580213085447264 -0.36784083814252 0.8880463402383576
vn 1 0 0
vn -1 0 0
vn 0 0.9537169507482265 0.3007057995042745
vn 0 -0.9537169507482265 -0.30070579950427456
vn 0 -0.300705799504273 0.9537169507482269
vn 0 0.1720211982409656 -0.9850932480510373
vn 0.7071067811865477 0.7071067811865475 0
vn -0.7071067811865477 -0.7071067811865475 0
vn -0.7071067811865477 0.7071067811865475 0
vn 0.7071067811865477 -0.7071067811865475 0
vn 0 0 1
vn 0 0 -1
vn 0.7071067811865476 0.12278780396897257 -0.6963642403200191
vn -0.7071067811865477 -0.12278780396897275 0.6963642403200189
vn -1.2212453270876722e-15 0.984807753012208 0.17364817766693044
vn -1.2212453270876722e-15 -0.984807753012208 -0.17364817766693044
vn 0.7071067811865477 -0.12278780396897254 0.6963642403200189
vn -0.7071067811865475 0.12278780396897278 -0.696364240320019
vn 0.6644630243886749 -0.22800154774497908 -0.7116910730409294
vn -0.6644630243886748 0.22800154774497905 0.7116910730409295
vn -0.24184476264797547 0.8354730960515085 -0.49345295272584105
vn 0.24184476264797622 -0.8354730960515088 0.49345295272584067
vn 0.7071067811865475 0.5000000000000002 0.5
vn -0.707106781186548 -0.4999999999999999 -0.49999999999999956
usemtl m_d9c815ee-8bdc-2a40-512c-8cc6baa4d647
f 2/1/1 1/2/1 3/3/1 4/4/1
f 6/5/2 12/6/2 5/7/2 7/8/2
f 5/9/3 8/10/3 10/11/3 7/12/3
f 10/13/4 8/14/4 2/15/4 4/16/4
f 10/17/5 4/18/5 3/19/5 9/20/5
f 10/21/6 9/22/6 6/23/6 7/24/6
f 11/25/7 1/26/7 2/27/7 8/28/7
f 8/29/8 5/30/8 12/31/8
f 8/32/9 12/33/9 11/34/9
f 15/35/10 14/36/10 16/37/10 17/38/10
f 20/39/11 18/40/11 19/41/11 21/42/11
f 18/43/12 14/44/12 15/45/12 19/46/12
f 16/47/13 14/48/13 18/49/13 20/50/13
f 22/51/14 17/52/14 16/53/14 20/54/14
f 20/55/15 21/56/15 22/57/15
f 23/58/16 15/59/16 17/60/16 22/61/16
f 23/62/17 22/63/17 21/64/17 19/65/17
f 25/66/18 24/67/18 26/68/18 27/69/18
f 30/70/19 28/71/19 29/72/19 31/73/19
f 32/74/20 28/75/20 24/76/20 25/77/20
f 32/78/21 29/79/21 28/80/21
f 29/81/22 32/82/22 34/83/22 31/84/22
f 34/85/23 32/86/23 25/87/23 27/88/23
f 34/89/24 27/90/24 26/91/24 33/92/24
f 34/93/25 33/94/25 30/95/25 31/96/25
f 33/97/26 26/98/26 24/99/26 28/100/26
f 28/101/27 30/102/27 33/103/27
f 36/104/28 35/105/28 37/106/28 38/107/28
f 41/108/29 39/109/29 40/110/29 42/111/29
f 39/112/30 35/113/30 36/114/30 40/115/30
f 38/116/31 37/117/31 41/118/31 42/119/31
f 37/120/32 35/121/32 39/122/32 41/123/32
f 40/124/33 36/125/33 38/126/33 42/127/33
f 44/128/34 43/129/34 45/130/34 46/131/34
f 49/132/35 47/133/35 48/134/35 50/135/35
f 47/136/36 43/137/36 44/138/36 48/139/36
f 46/140/37 45/141/37 49/142/37 50/143/37
f 45/144/38 43/145/38 47/146/38 49/147/38
f 48/148/39 44/149/39 46/150/39 50/151/39
f 52/152/40 51/153/40 53/154/40 54/155/40
f 57/156/41 55/157/41 56/158/41 58/159/41
f 55/160/42 51/161/42 52/162/42 56/163/42
f 54/164/43 53/165/43 57/166/43 58/167/43
f 53/168/44 51/169/44 55/170/44 57/171/44
f 56/172/45 52/173/45 54/174/45 58/175/45
f 62/176/46 60/177/46 59/178/46 61/179/46
f 65/180/47 63/181/47 64/182/47 66/183/47
f 59/184/48 60/185/48 64/186/48 63/187/48
f 62/188/49 61/189/49 65/190/49 66/191/49
f 61/192/50 59/193/50 63/194/50 65/195/50
f 66/196/51 64/197/51 60/198/51 62/199/51
