# Blender 4.4.3
# www.blender.org
mtllib mk_ii_h.mtl
o mk2_h
v 0.062500 1.877319 0.568858
v 0.062500 1.945027 0.449184
v 0.062500 1.850121 0.553470
v 0.062500 1.917829 0.433796
v -0.062500 1.945027 0.449184
v -0.062500 1.877319 0.568858
v -0.062500 1.917829 0.433796
v -0.062500 1.850121 0.553470
v -0.276042 2.027440 -0.305280
v -0.393406 1.981138 -0.359944
v -0.269413 2.009912 -0.304666
v -0.386777 1.963610 -0.359330
v -0.503427 1.948768 -0.096308
v -0.386064 1.995070 -0.041644
v -0.496798 1.931239 -0.095694
v -0.379435 1.977542 -0.041030
v -0.406881 2.002037 -0.095709
v -0.295532 2.138979 -0.032426
v -0.371494 1.968351 -0.085077
v -0.260146 2.105293 -0.021795
v -0.223779 2.160090 -0.204362
v -0.335128 2.023148 -0.267645
v -0.188393 2.126404 -0.193731
v -0.299741 1.989462 -0.257013
v -0.299684 2.137074 -0.034392
v -0.146029 2.215250 0.039330
v -0.278354 2.091977 -0.031028
v -0.124699 2.170153 0.042695
v -0.074276 2.236361 -0.132606
v -0.227930 2.158185 -0.206329
v -0.052946 2.191264 -0.129242
v -0.206600 2.113088 -0.202964
v -0.019547 2.044083 -0.440826
v -0.065951 2.007883 -0.558141
v -0.016801 2.026082 -0.436357
v -0.063205 1.989882 -0.553672
v -0.325792 1.994767 -0.451313
v -0.279388 2.030967 -0.333998
v -0.323046 1.976765 -0.446845
v -0.276642 2.012965 -0.329530
v -0.240289 2.034706 -0.361777
v -0.194167 2.163699 -0.233754
v -0.225631 1.998494 -0.330571
v -0.179509 2.127487 -0.202548
v -0.020939 2.172444 -0.304972
v -0.067061 2.043451 -0.432995
v -0.006282 2.136231 -0.273766
v -0.052404 2.007238 -0.401789
v -0.195886 2.162090 -0.238134
v -0.132240 2.229297 -0.075074
v -0.187051 2.115471 -0.222368
v -0.123405 2.182678 -0.059308
v 0.040987 2.238041 -0.146292
v -0.022659 2.170835 -0.309352
v 0.049822 2.191422 -0.130526
v -0.013824 2.124215 -0.293586
v 0.279388 2.030967 -0.333998
v 0.325792 1.994767 -0.451313
v 0.276642 2.012965 -0.329530
v 0.323046 1.976765 -0.446845
v 0.065951 2.007883 -0.558141
v 0.019547 2.044083 -0.440826
v 0.063205 1.989882 -0.553672
v 0.016801 2.026082 -0.436357
v 0.067061 2.043451 -0.432995
v 0.020939 2.172444 -0.304972
v 0.052404 2.007238 -0.401789
v 0.006282 2.136231 -0.273766
v 0.194167 2.163699 -0.233754
v 0.240289 2.034706 -0.361777
v 0.179509 2.127487 -0.202548
v 0.225631 1.998494 -0.330571
v 0.022659 2.170835 -0.309352
v -0.040987 2.238041 -0.146292
v 0.013824 2.124215 -0.293586
v -0.049822 2.191422 -0.130526
v 0.132240 2.229297 -0.075074
v 0.195886 2.162090 -0.238134
v 0.123405 2.182678 -0.059308
v 0.187051 2.115471 -0.222368
v 0.335128 2.023148 -0.267645
v 0.223779 2.160090 -0.204362
v 0.299741 1.989462 -0.257013
v 0.188393 2.126404 -0.193731
v 0.295532 2.138979 -0.032426
v 0.406881 2.002037 -0.095709
v 0.260146 2.105293 -0.021795
v 0.371494 1.968351 -0.085077
v 0.386064 1.995070 -0.041644
v 0.503427 1.948768 -0.096308
v 0.379435 1.977542 -0.041030
v 0.496798 1.931239 -0.095694
v 0.393406 1.981138 -0.359944
v 0.276042 2.027440 -0.305280
v 0.386777 1.963610 -0.359330
v 0.269413 2.009912 -0.304666
v 0.227930 2.158185 -0.206329
v 0.074276 2.236361 -0.132606
v 0.206600 2.113088 -0.202964
v 0.052946 2.191264 -0.129242
v 0.146029 2.215250 0.039330
v 0.299684 2.137074 -0.034392
v 0.124699 2.170153 0.042695
v 0.278354 2.091977 -0.031028
v 0.325792 1.882707 0.461341
v 0.279388 1.946212 0.356268
v 0.323046 1.866321 0.452650
v 0.276642 1.929827 0.347577
v 0.019547 1.933096 0.463096
v 0.065951 1.869590 0.568168
v 0.016801 1.916710 0.454405
v 0.063205 1.853204 0.559478
v 0.020939 2.090509 0.362331
v 0.067061 1.934376 0.455345
v 0.006282 2.062922 0.323291
v 0.052404 1.906789 0.416305
v 0.240289 1.943121 0.384127
v 0.194167 2.099254 0.291113
v 0.225631 1.915534 0.345087
v 0.179509 2.071666 0.252073
v -0.040987 2.192547 0.224234
v 0.022659 2.087888 0.366192
v -0.049822 2.151126 0.197658
v 0.013824 2.046468 0.339616
v 0.195886 2.096633 0.294973
v 0.132240 2.201291 0.153015
v 0.187051 2.055212 0.268397
v 0.123405 2.159871 0.126439
v 0.223779 2.102862 0.261721
v 0.335128 1.954679 0.289995
v 0.188393 2.072749 0.243256
v 0.299741 1.924565 0.271529
v 0.406881 1.975790 0.118058
v 0.295532 2.123974 0.089785
v 0.371494 1.945676 0.099593
v 0.260146 2.093860 0.071319
v 0.503427 1.923958 0.105753
v 0.386064 1.982109 0.063914
v 0.496798 1.907099 0.100917
v 0.379435 1.965250 0.059078
v 0.276042 1.949739 0.327550
v 0.393406 1.891587 0.369389
v 0.269413 1.932880 0.322713
v 0.386777 1.874728 0.364552
v 0.074276 2.194227 0.210548
v 0.227930 2.100538 0.263168
v 0.052946 2.151284 0.196373
v 0.206600 2.057595 0.248994
v 0.299684 2.121649 0.091232
v 0.146029 2.215338 0.038611
v 0.278354 2.078706 0.077057
v 0.124699 2.172395 0.024437
v -0.393406 1.891587 0.369389
v -0.276042 1.949739 0.327550
v -0.386777 1.874728 0.364552
v -0.269413 1.932880 0.322713
v -0.386064 1.982109 0.063914
v -0.503427 1.923958 0.105753
v -0.379435 1.965250 0.059078
v -0.496798 1.907099 0.100917
v -0.295532 2.123974 0.089785
v -0.406881 1.975790 0.118058
v -0.260146 2.093860 0.071319
v -0.371494 1.945676 0.099593
v -0.335128 1.954679 0.289995
v -0.223779 2.102862 0.261721
v -0.299741 1.924565 0.271529
v -0.188393 2.072749 0.243256
v -0.146029 2.215338 0.038611
v -0.299684 2.121649 0.091232
v -0.124699 2.172395 0.024437
v -0.278354 2.078706 0.077057
v -0.227930 2.100538 0.263168
v -0.074276 2.194227 0.210548
v -0.206600 2.057595 0.248994
v -0.052946 2.151284 0.196373
v -0.132240 2.201291 0.153015
v -0.195886 2.096633 0.294973
v -0.123405 2.159871 0.126439
v -0.187051 2.055212 0.268397
v -0.022659 2.087888 0.366192
v 0.040987 2.192547 0.224234
v -0.013824 2.046468 0.339616
v 0.049822 2.151126 0.197658
v -0.065951 1.869590 0.568168
v -0.019547 1.933096 0.463096
v -0.063205 1.853204 0.559478
v -0.016801 1.916710 0.454405
v -0.279388 1.946212 0.356268
v -0.325792 1.882707 0.461341
v -0.276642 1.929827 0.347577
v -0.323046 1.866321 0.452650
v -0.194167 2.099254 0.291113
v -0.240289 1.943121 0.384127
v -0.179509 2.071666 0.252073
v -0.225631 1.915534 0.345087
v -0.067061 1.934376 0.455345
v -0.020939 2.090509 0.362331
v -0.052404 1.906789 0.416305
v -0.006282 2.062922 0.323291
v 0.125000 2.206115 0.204712
v 0.125000 2.246484 -0.124068
v 0.125000 2.144080 0.197096
v 0.125000 2.184449 -0.131685
v -0.125000 2.246484 -0.124068
v -0.125000 2.206115 0.204712
v -0.125000 2.184449 -0.131685
v -0.125000 2.144080 0.197096
v 0.062500 2.099913 0.359236
v 0.062500 2.206115 0.204712
v 0.062500 2.048405 0.323836
v 0.062500 2.154607 0.169312
v -0.062500 2.206115 0.204712
v -0.062500 2.099913 0.359236
v -0.062500 2.154607 0.169312
v -0.062500 2.048405 0.323836
v 0.062500 1.941831 0.460559
v 0.062500 2.099082 0.358439
v 0.062500 1.907791 0.408142
v 0.062500 2.065042 0.306022
v -0.062500 2.099082 0.358439
v -0.062500 1.941831 0.460559
v -0.062500 2.065042 0.306022
v -0.062500 1.907791 0.408142
v -0.411148 1.984321 0.114510
v -0.290625 2.126884 0.132015
v -0.363270 1.944446 0.109614
v -0.242747 2.087009 0.127119
v -0.290625 2.152019 -0.072698
v -0.411148 2.009456 -0.090202
v -0.242747 2.112144 -0.077594
v -0.363270 1.969582 -0.095098
v -0.291315 2.127799 0.132127
v -0.125000 2.213731 0.142678
v -0.262455 2.072774 0.125371
v -0.096141 2.158706 0.135922
v -0.125000 2.238867 -0.062034
v -0.291315 2.152934 -0.072585
v -0.096141 2.183842 -0.068791
v -0.262455 2.097909 -0.079342
v -0.383843 2.010848 -0.086883
v -0.510876 1.958621 -0.093296
v -0.371884 1.982192 -0.090402
v -0.498918 1.929965 -0.096814
v -0.510876 1.933486 0.111417
v -0.383843 1.985713 0.117830
v -0.498918 1.904830 0.107898
v -0.371884 1.957057 0.114311
v -0.250185 2.165035 -0.171142
v -0.132583 2.236636 -0.043865
v -0.229778 2.107524 -0.157643
v -0.112176 2.179124 -0.030367
v -0.044194 2.247408 -0.131594
v -0.161796 2.175807 -0.258871
v -0.023788 2.189896 -0.118096
v -0.141390 2.118295 -0.245373
v -0.334919 2.031884 -0.272862
v -0.249697 2.164061 -0.170770
v -0.301065 1.987883 -0.244155
v -0.215842 2.120060 -0.142064
v -0.161309 2.174833 -0.258500
v -0.246531 2.042656 -0.360591
v -0.127454 2.130832 -0.229793
v -0.212676 1.998655 -0.331885
v -0.223249 2.044388 -0.360041
v -0.308992 2.004984 -0.451266
v -0.214792 2.014701 -0.355166
v -0.300536 1.975298 -0.446391
v -0.397380 1.994213 -0.363537
v -0.311637 2.033616 -0.272311
v -0.388924 1.964526 -0.358662
v -0.303181 2.003929 -0.267437
v 0.062500 2.246484 -0.124068
v 0.062500 2.180820 -0.299694
v 0.062500 2.187942 -0.102180
v 0.062500 2.122278 -0.277806
v -0.062500 2.180820 -0.299694
v -0.062500 2.246484 -0.124068
v -0.062500 2.122278 -0.277806
v -0.062500 2.187942 -0.102180
v 0.062500 2.179821 -0.299122
v 0.062500 2.051946 -0.436251
v 0.062500 2.134111 -0.256498
v 0.062500 2.006236 -0.393626
v -0.062500 2.051946 -0.436251
v -0.062500 2.179821 -0.299122
v -0.062500 2.006236 -0.393626
v -0.062500 2.134111 -0.256498
v 0.062500 2.052295 -0.424441
v 0.062500 2.015550 -0.556940
v 0.062500 2.022182 -0.416090
v 0.062500 1.985436 -0.548589
v -0.062500 2.015550 -0.556940
v -0.062500 2.052295 -0.424441
v -0.062500 1.985436 -0.548589
v -0.062500 2.022182 -0.416090
v 0.161796 2.175807 -0.258871
v 0.044194 2.247408 -0.131594
v 0.141390 2.118295 -0.245373
v 0.023788 2.189896 -0.118096
v 0.132583 2.236636 -0.043865
v 0.250185 2.165035 -0.171142
v 0.112176 2.179124 -0.030367
v 0.229778 2.107524 -0.157643
v 0.246531 2.042656 -0.360591
v 0.161309 2.174833 -0.258500
v 0.212676 1.998655 -0.331885
v 0.127454 2.130832 -0.229793
v 0.249697 2.164061 -0.170770
v 0.334919 2.031884 -0.272862
v 0.215842 2.120060 -0.142064
v 0.301065 1.987883 -0.244155
v 0.317887 2.033616 -0.272311
v 0.403630 1.994213 -0.363537
v 0.309431 2.003929 -0.267437
v 0.395174 1.964526 -0.358662
v 0.315242 2.004984 -0.451266
v 0.229499 2.044388 -0.360041
v 0.306786 1.975298 -0.446391
v 0.221042 2.014701 -0.355166
v 0.291315 2.152934 -0.072585
v 0.125000 2.238867 -0.062034
v 0.262455 2.097909 -0.079342
v 0.096141 2.183842 -0.068791
v 0.125000 2.213731 0.142678
v 0.291315 2.127799 0.132127
v 0.096141 2.158706 0.135922
v 0.262455 2.072774 0.125371
v 0.411148 2.009456 -0.090202
v 0.290625 2.152019 -0.072698
v 0.363270 1.969582 -0.095098
v 0.242747 2.112144 -0.077594
v 0.290625 2.126884 0.132015
v 0.411148 1.984321 0.114510
v 0.242747 2.087009 0.127119
v 0.363270 1.944446 0.109614
v 0.383843 1.985713 0.117830
v 0.510876 1.933486 0.111417
v 0.371884 1.957057 0.114311
v 0.498918 1.904830 0.107898
v 0.510876 1.958621 -0.093296
v 0.383843 2.010848 -0.086883
v 0.498918 1.929965 -0.096814
v 0.371884 1.982192 -0.090402
v 0.044194 2.205190 0.212238
v 0.161796 2.104926 0.318413
v 0.023788 2.152652 0.185228
v 0.141390 2.052388 0.291402
v 0.250185 2.115698 0.230683
v 0.132583 2.215962 0.124509
v 0.229778 2.063159 0.203673
v 0.112176 2.163424 0.097498
v 0.161309 2.104070 0.317817
v 0.246531 1.951121 0.384899
v 0.127454 2.068321 0.279318
v 0.212676 1.915372 0.346401
v 0.334919 1.961893 0.297170
v 0.249697 2.114842 0.230087
v 0.301065 1.926144 0.258671
v 0.215842 2.079093 0.191589
v 0.397380 1.903404 0.376038
v 0.311637 1.963707 0.297055
v 0.388924 1.875779 0.364126
v 0.303181 1.936081 0.285143
v 0.223249 1.952935 0.384784
v 0.308992 1.892632 0.463767
v 0.214792 1.925309 0.372872
v 0.300536 1.865007 0.451855
v -0.132583 2.215962 0.124509
v -0.250185 2.115698 0.230683
v -0.112176 2.163424 0.097498
v -0.229778 2.063159 0.203673
v -0.161796 2.104926 0.318413
v -0.044194 2.205190 0.212238
v -0.141390 2.052388 0.291402
v -0.023788 2.152652 0.185228
v -0.249697 2.114842 0.230087
v -0.334919 1.961893 0.297170
v -0.215842 2.079093 0.191589
v -0.301065 1.926144 0.258671
v -0.246531 1.951121 0.384899
v -0.161309 2.104070 0.317817
v -0.212676 1.915372 0.346401
v -0.127454 2.068321 0.279318
v -0.308992 1.892632 0.463767
v -0.223249 1.952935 0.384784
v -0.300536 1.865007 0.451855
v -0.214792 1.925309 0.372872
v -0.311637 1.963707 0.297055
v -0.397380 1.903404 0.376038
v -0.303181 1.936081 0.285143
v -0.388924 1.875779 0.364126
vn -0.0000 0.4924 -0.8704
vn 1.0000 -0.0000 -0.0000
vn -0.0000 -0.4924 0.8704
vn -1.0000 -0.0000 -0.0000
vn -0.0000 0.8704 0.4924
vn -0.0000 -0.8704 -0.4924
vn -0.8536 -0.3367 -0.3975
vn -0.8536 -0.3367 -0.3976
vn 0.3827 0.1126 -0.9170
vn 0.8536 0.3367 0.3976
vn -0.3827 -0.1126 0.9170
vn -0.3536 0.9348 -0.0328
vn 0.3536 -0.9348 0.0328
vn 0.5939 0.7304 0.3375
vn -0.5939 -0.7304 -0.3375
vn -0.7077 0.6737 -0.2126
vn 0.7077 -0.6737 0.2126
vn 0.8195 0.4169 0.3932
vn -0.8195 -0.4169 -0.3932
vn -0.4266 0.9019 -0.0673
vn 0.4266 -0.9019 0.0673
vn -0.3535 -0.2758 -0.8938
vn -0.3536 -0.2758 -0.8938
vn 0.9239 0.0466 -0.3798
vn 0.3535 0.2758 0.8938
vn 0.3536 0.2758 0.8938
vn -0.9239 -0.0467 0.3798
vn -0.1464 0.9601 -0.2383
vn 0.1464 -0.9601 0.2383
vn 0.2460 0.6880 0.6828
vn -0.9239 -0.0466 0.3798
vn -0.2460 -0.6880 -0.6828
vn -0.2932 0.7242 -0.6241
vn 0.2932 -0.7242 0.6241
vn 0.3394 0.3584 0.8697
vn -0.3394 -0.3584 -0.8697
vn -0.1767 0.9324 -0.3153
vn 0.1767 -0.9324 0.3153
vn 0.3535 -0.2758 -0.8938
vn 0.3536 -0.2758 -0.8938
vn 0.9239 -0.0467 0.3798
vn -0.3535 0.2758 0.8938
vn -0.3536 0.2758 0.8938
vn -0.9239 0.0466 -0.3798
vn 0.1464 0.9601 -0.2383
vn -0.1464 -0.9601 0.2383
vn -0.2460 0.6880 0.6828
vn -0.2460 0.6879 0.6828
vn 0.2460 -0.6880 -0.6828
vn 0.9239 -0.0466 0.3798
vn 0.2932 0.7242 -0.6241
vn -0.2932 -0.7242 0.6241
vn -0.3394 0.3584 0.8697
vn 0.3394 -0.3584 -0.8697
vn 0.1767 0.9324 -0.3153
vn -0.1767 -0.9324 0.3153
vn -0.5939 0.7304 0.3375
vn -0.3827 0.1126 -0.9170
vn 0.5939 -0.7304 -0.3375
vn 0.3827 -0.1126 0.9170
vn 0.7077 0.6737 -0.2126
vn -0.7077 -0.6737 0.2126
vn 0.8536 -0.3367 -0.3975
vn 0.8536 -0.3367 -0.3976
vn -0.8536 0.3367 0.3976
vn 0.3536 0.9348 -0.0328
vn -0.3536 -0.9348 0.0328
vn -0.8195 0.4169 0.3932
vn 0.8195 -0.4169 -0.3932
vn 0.4266 0.9019 -0.0673
vn -0.4266 -0.9019 0.0673
vn -0.3535 0.4839 -0.8006
vn -0.3536 0.4839 -0.8005
vn 0.3536 -0.4839 0.8006
vn 0.3536 -0.4838 0.8006
vn 0.1464 0.8739 0.4635
vn -0.1464 -0.8739 -0.4635
vn 0.2460 -0.8327 0.4961
vn -0.2460 0.8327 -0.4961
vn 0.2931 0.5517 0.7808
vn 0.2932 0.5517 0.7808
vn -0.2932 -0.5517 -0.7808
vn 0.3395 -0.5582 0.7571
vn 0.3394 -0.5582 0.7571
vn -0.3394 0.5582 -0.7571
vn 0.1767 0.8284 0.5315
vn -0.1767 -0.8284 -0.5315
vn 0.5939 -0.7903 0.1508
vn -0.5939 0.7903 -0.1508
vn 0.7077 0.6023 0.3693
vn -0.7077 -0.6023 -0.3693
vn -0.8535 0.4229 -0.3043
vn -0.8536 0.4229 -0.3043
vn 0.8536 -0.4229 0.3043
vn 0.3536 0.8991 0.2579
vn -0.3536 -0.8991 -0.2579
vn -0.3536 -0.8991 -0.2580
vn 0.8195 -0.4997 0.2806
vn -0.8195 0.4997 -0.2806
vn 0.4266 0.8589 0.2835
vn -0.4266 -0.8589 -0.2835
vn 0.8536 0.4229 -0.3043
vn 0.8535 0.4229 -0.3043
vn -0.8536 -0.4229 0.3043
vn -0.3536 0.8991 0.2579
vn 0.3536 -0.8991 -0.2579
vn -0.5939 -0.7903 0.1508
vn 0.5939 0.7903 -0.1508
vn -0.7077 0.6023 0.3693
vn 0.7077 -0.6023 -0.3693
vn -0.8195 -0.4997 0.2806
vn 0.8195 0.4997 -0.2806
vn -0.4266 0.8589 0.2835
vn 0.4266 -0.8589 -0.2835
vn -0.3395 -0.5582 0.7571
vn -0.3394 -0.5582 0.7571
vn 0.3394 0.5582 -0.7571
vn 0.3395 0.5582 -0.7571
vn -0.1767 0.8284 0.5315
vn 0.1767 -0.8284 -0.5315
vn 0.3535 0.4838 -0.8006
vn 0.3536 0.4839 -0.8005
vn -0.3536 -0.4838 0.8006
vn -0.3536 -0.4839 0.8006
vn -0.1464 0.8739 0.4635
vn 0.1464 -0.8739 -0.4635
vn -0.2460 -0.8327 0.4961
vn 0.2460 0.8327 -0.4961
vn -0.2931 0.5517 0.7808
vn 0.2932 -0.5517 -0.7808
vn -0.0000 0.1219 -0.9925
vn -0.0000 -0.1219 0.9925
vn -0.0000 0.9925 0.1219
vn -0.0000 -0.9925 -0.1219
vn -0.0000 0.5664 -0.8241
vn -0.0000 -0.5664 0.8241
vn -0.0000 0.8241 0.5664
vn -0.0000 -0.8241 -0.5664
vn -0.0000 0.8387 -0.5446
vn -0.0000 -0.8387 0.5446
vn -0.0000 0.5446 0.8387
vn -0.0000 -0.5446 -0.8387
vn 0.6428 0.7603 0.0934
vn -0.6428 -0.7603 -0.0934
vn -0.7660 0.6380 0.0783
vn 0.7660 -0.6380 -0.0783
vn 0.8870 0.4583 0.0563
vn -0.8870 -0.4583 -0.0563
vn -0.4617 0.8804 0.1081
vn 0.4617 -0.8804 -0.1081
vn 0.4618 -0.8804 -0.1081
vn -0.9239 -0.3798 -0.0466
vn 0.9239 0.3798 0.0466
vn -0.3827 0.9170 0.1126
vn 0.3827 -0.9170 -0.1126
vn 0.6272 0.3819 0.6788
vn -0.7071 -0.0862 0.7018
vn -0.6272 -0.3819 -0.6788
vn 0.7071 0.0862 -0.7018
vn -0.3265 0.9202 -0.2160
vn 0.3265 -0.9202 0.2160
vn 0.4545 0.7049 0.5445
vn -0.4545 -0.7049 -0.5445
vn -0.5417 0.7040 -0.4593
vn 0.5417 -0.7040 0.4593
vn -0.6533 -0.3002 -0.6950
vn -0.6533 -0.3002 -0.6951
vn 0.6533 0.3002 0.6950
vn -0.2706 0.9500 -0.1560
vn 0.2706 -0.9500 0.1560
vn -0.0000 -0.3502 -0.9367
vn -0.0000 0.3502 0.9367
vn -0.0000 0.9367 -0.3502
vn -0.0000 -0.9367 0.3502
vn -0.0000 -0.6820 -0.7314
vn -0.0000 0.6820 0.7314
vn -0.0000 0.7314 -0.6820
vn -0.0000 -0.7314 0.6820
vn -0.0000 -0.2672 -0.9636
vn -0.0000 0.2672 0.9636
vn -0.0000 0.9636 -0.2672
vn -0.0000 -0.9636 0.2672
vn -0.6272 0.3819 0.6788
vn -0.7071 0.0862 -0.7018
vn 0.6272 -0.3819 -0.6788
vn 0.7071 -0.0862 0.7018
vn 0.3265 0.9202 -0.2160
vn -0.3265 -0.9202 0.2160
vn -0.4545 0.7049 0.5445
vn 0.4545 -0.7049 -0.5445
vn 0.5417 0.7040 -0.4593
vn -0.5417 -0.7040 0.4593
vn 0.6533 -0.3002 -0.6950
vn 0.6533 -0.3002 -0.6951
vn -0.6533 0.3002 0.6950
vn 0.2706 0.9500 -0.1560
vn -0.2706 -0.9500 0.1560
vn -0.8870 0.4583 0.0563
vn 0.8870 -0.4583 -0.0563
vn 0.4617 0.8804 0.1081
vn -0.4617 -0.8804 -0.1081
vn -0.6428 0.7603 0.0934
vn 0.6428 -0.7603 -0.0934
vn 0.7660 0.6380 0.0783
vn -0.7660 -0.6380 -0.0783
vn 0.9239 -0.3798 -0.0466
vn -0.9239 0.3798 0.0466
vn 0.3827 0.9170 0.1126
vn -0.3827 -0.9170 -0.1126
vn 0.6272 -0.5347 0.5663
vn -0.6272 0.5347 -0.5663
vn -0.6272 0.5348 -0.5663
vn 0.3265 0.8406 0.4322
vn -0.3265 -0.8406 -0.4322
vn 0.4545 -0.8157 0.3578
vn -0.4545 0.8157 -0.3578
vn 0.5417 0.5720 0.6160
vn -0.5417 -0.5720 -0.6160
vn -0.6533 0.4594 -0.6018
vn -0.6533 0.4595 -0.6018
vn 0.6533 -0.4595 0.6018
vn 0.2706 0.8840 0.3812
vn -0.2706 -0.8840 -0.3812
vn -0.6272 -0.5347 0.5663
vn 0.6272 0.5347 -0.5663
vn -0.3265 0.8406 0.4322
vn 0.3265 -0.8406 -0.4322
vn -0.4545 -0.8157 0.3578
vn 0.4545 0.8157 -0.3578
vn -0.5417 0.5720 0.6160
vn 0.5417 -0.5720 -0.6160
vn 0.6533 0.4594 -0.6018
vn 0.6533 0.4595 -0.6018
vn -0.6533 -0.4595 0.6018
vn -0.2706 0.8840 0.3812
vn 0.2706 -0.8840 -0.3812
vn 0.2460 0.6879 0.6828
vn 0.3536 -0.8991 -0.2580
vn -0.1465 0.8739 0.4635
vn -0.4618 -0.8804 -0.1081
vn 0.6272 0.5348 -0.5663
vt 0.593750 0.914062
vt 0.562500 0.921875
vt 0.562500 0.914062
vt 0.093750 0.429688
vt 0.125000 0.437500
vt 0.093750 0.437500
vt 0.593750 0.898438
vt 0.562500 0.906250
vt 0.562500 0.898438
vt 0.593750 0.882812
vt 0.562500 0.890625
vt 0.562500 0.882812
vt 0.421875 0.640625
vt 0.453125 0.609375
vt 0.453125 0.640625
vt 0.390625 0.546875
vt 0.421875 0.578125
vt 0.421875 0.546875
vt 0.531250 0.539062
vt 0.601562 0.546875
vt 0.531250 0.546875
vt 0.562500 0.976562
vt 0.593750 0.984375
vt 0.562500 0.984375
vt 0.539062 0.460938
vt 0.468750 0.468750
vt 0.468750 0.460938
vt 0.062500 0.429688
vt 0.031250 0.437500
vt 0.031250 0.429688
vt 0.398438 0.656250
vt 0.328125 0.625000
vt 0.398438 0.625000
vt 0.070312 0.609375
vt 0.000000 0.640625
vt 0.070312 0.640625
vt 0.187500 0.484375
vt 0.234375 0.500000
vt 0.187500 0.500000
vt 0.546875 0.796875
vt 0.500000 0.812500
vt 0.500000 0.796875
vt 0.546875 0.781250
vt 0.500000 0.781250
vt 0.546875 0.765625
vt 0.500000 0.765625
vt 0.234375 0.656250
vt 0.281250 0.609375
vt 0.281250 0.656250
vt 0.328125 0.609375
vt 0.328125 0.656250
vt 0.140625 0.500000
vt 0.140625 0.484375
vt 0.546875 0.843750
vt 0.500000 0.859375
vt 0.500000 0.843750
vt 0.500000 0.828125
vt 0.546875 0.828125
vt 0.343750 0.875000
vt 0.390625 0.828125
vt 0.390625 0.875000
vt 0.343750 0.734375
vt 0.390625 0.781250
vt 0.390625 0.734375
vt 0.312500 0.460938
vt 0.382812 0.468750
vt 0.312500 0.468750
vt 0.578125 0.460938
vt 0.546875 0.468750
vt 0.546875 0.460938
vt 0.460938 0.460938
vt 0.390625 0.468750
vt 0.390625 0.460938
vt 0.000000 0.437500
vt 0.000000 0.429688
vt 0.382812 0.687500
vt 0.312500 0.656250
vt 0.382812 0.656250
vt 0.328125 0.968750
vt 0.398438 1.000000
vt 0.398438 0.968750
vt 0.468750 0.500000
vt 0.421875 0.515625
vt 0.421875 0.500000
vt 0.484375 0.531250
vt 0.484375 0.546875
vt 0.515625 0.500000
vt 0.468750 0.515625
vt 0.000000 0.484375
vt 0.046875 0.500000
vt 0.000000 0.500000
vt 0.375000 0.921875
vt 0.375000 0.968750
vt 0.187500 0.625000
vt 0.140625 0.671875
vt 0.187500 0.671875
vt 0.500000 0.984375
vt 0.546875 1.000000
vt 0.500000 1.000000
vt 0.046875 0.484375
vt 0.093750 0.500000
vt 0.093750 0.484375
vt 0.546875 0.859375
vt 0.500000 0.875000
vt 0.375000 0.734375
vt 0.328125 0.687500
vt 0.375000 0.687500
vt 0.390625 0.921875
vt 0.304688 0.460938
vt 0.234375 0.468750
vt 0.234375 0.460938
vt 0.500000 0.445312
vt 0.531250 0.453125
vt 0.500000 0.453125
vt 0.531250 0.742188
vt 0.601562 0.750000
vt 0.531250 0.750000
vt 0.531250 0.445312
vt 0.562500 0.453125
vt 0.312500 0.812500
vt 0.382812 0.781250
vt 0.382812 0.812500
vt 0.304688 0.656250
vt 0.234375 0.687500
vt 0.304688 0.687500
vt 0.484375 0.734375
vt 0.484375 0.750000
vt 0.328125 0.500000
vt 0.281250 0.515625
vt 0.281250 0.500000
vt 0.375000 0.515625
vt 0.328125 0.515625
vt 0.375000 0.500000
vt 0.140625 0.687500
vt 0.093750 0.640625
vt 0.140625 0.640625
vt 0.187500 0.640625
vt 0.234375 0.640625
vt 0.093750 0.515625
vt 0.187500 0.515625
vt 0.140625 0.515625
vt 0.234375 0.515625
vt 0.000000 0.687500
vt 0.046875 0.640625
vt 0.046875 0.687500
vt 0.093750 0.687500
vt 0.281250 0.531250
vt 0.375000 0.531250
vt 0.328125 0.531250
vt 0.515625 0.640625
vt 0.468750 0.656250
vt 0.468750 0.640625
vt 0.421875 0.531250
vt 0.328125 1.000000
vt 0.281250 0.953125
vt 0.328125 0.953125
vt 0.281250 0.906250
vt 0.328125 0.906250
vt 0.148438 0.460938
vt 0.078125 0.468750
vt 0.078125 0.460938
vt 0.578125 0.554688
vt 0.546875 0.562500
vt 0.546875 0.554688
vt 0.226562 0.460938
vt 0.156250 0.468750
vt 0.156250 0.460938
vt 0.468750 0.453125
vt 0.468750 0.445312
vt 0.265625 0.765625
vt 0.335938 0.734375
vt 0.335938 0.765625
vt 0.070312 0.718750
vt 0.070312 0.687500
vt 0.468750 0.531250
vt 0.515625 0.531250
vt 0.000000 0.515625
vt 0.046875 0.515625
vt 0.187500 0.718750
vt 0.281250 0.734375
vt 0.328125 0.734375
vt 0.484375 0.476562
vt 0.554688 0.484375
vt 0.484375 0.484375
vt 0.406250 0.445312
vt 0.437500 0.453125
vt 0.406250 0.453125
vt 0.585938 0.507812
vt 0.515625 0.515625
vt 0.515625 0.507812
vt 0.578125 0.585938
vt 0.546875 0.593750
vt 0.546875 0.585938
vt 0.187500 0.765625
vt 0.257812 0.734375
vt 0.257812 0.765625
vt 0.335938 0.875000
vt 0.265625 0.906250
vt 0.335938 0.906250
vt 0.500000 0.562500
vt 0.453125 0.578125
vt 0.453125 0.562500
vt 0.437500 0.546875
vt 0.437500 0.531250
vt 0.500000 0.546875
vt 0.453125 0.546875
vt 0.000000 0.531250
vt 0.234375 0.953125
vt 0.140625 0.765625
vt 0.500000 0.609375
vt 0.453125 0.625000
vt 0.390625 0.531250
vt 0.500000 0.593750
vt 0.453125 0.593750
vt 0.500000 0.578125
vt 0.234375 1.000000
vt 0.281250 1.000000
vt 0.046875 0.718750
vt 0.093750 0.765625
vt 0.093750 0.718750
vt 0.515625 0.968750
vt 0.468750 0.984375
vt 0.468750 0.968750
vt 0.468750 0.953125
vt 0.046875 0.531250
vt 0.515625 0.937500
vt 0.468750 0.937500
vt 0.093750 0.734375
vt 0.140625 0.734375
vt 0.187500 0.687500
vt 0.234375 0.734375
vt 0.585938 0.492188
vt 0.515625 0.492188
vt 0.546875 0.570312
vt 0.578125 0.578125
vt 0.546875 0.578125
vt 0.000000 0.460938
vt 0.070312 0.468750
vt 0.000000 0.468750
vt 0.437500 0.445312
vt 0.265625 0.875000
vt 0.335938 0.843750
vt 0.335938 0.812500
vt 0.265625 0.843750
vt 0.093750 0.531250
vt 0.140625 0.531250
vt 0.234375 0.531250
vt 0.187500 0.531250
vt 0.265625 0.812500
vt 0.312500 0.765625
vt 0.281250 0.687500
vt 0.398438 0.476562
vt 0.328125 0.484375
vt 0.328125 0.476562
vt 0.578125 0.632812
vt 0.546875 0.640625
vt 0.546875 0.632812
vt 0.515625 0.648438
vt 0.585938 0.656250
vt 0.515625 0.656250
vt 0.375000 0.453125
vt 0.375000 0.445312
vt 0.164062 0.812500
vt 0.093750 0.781250
vt 0.164062 0.781250
vt 0.187500 0.875000
vt 0.257812 0.906250
vt 0.257812 0.875000
vt 0.453125 0.812500
vt 0.453125 0.828125
vt 0.453125 0.796875
vt 0.453125 0.781250
vt 0.453125 0.765625
vt 0.093750 0.812500
vt 0.046875 0.765625
vt 0.234375 0.906250
vt 0.187500 0.953125
vt 0.343750 0.812500
vt 0.343750 0.828125
vt 0.453125 0.875000
vt 0.453125 0.859375
vt 0.453125 0.843750
vt 0.046875 0.812500
vt 0.000000 0.765625
vt 0.453125 0.671875
vt 0.500000 0.687500
vt 0.453125 0.687500
vt 0.453125 0.656250
vt 0.500000 0.671875
vt 0.343750 0.546875
vt 0.343750 0.531250
vt 0.500000 0.625000
vt 0.218750 0.765625
vt 0.000000 0.718750
vt 0.406250 0.476562
vt 0.476562 0.484375
vt 0.406250 0.484375
vt 0.578125 0.617188
vt 0.546875 0.625000
vt 0.546875 0.617188
vt 0.585938 0.523438
vt 0.515625 0.523438
vt 0.578125 0.601562
vt 0.546875 0.609375
vt 0.546875 0.601562
vt 0.257812 0.843750
vt 0.187500 0.812500
vt 0.257812 0.812500
vt 0.453125 0.750000
vt 0.250000 0.531250
vt 0.296875 0.546875
vt 0.250000 0.546875
vt 0.296875 0.531250
vt 0.500000 0.703125
vt 0.453125 0.703125
vt 0.171875 0.812500
vt 0.218750 0.812500
vt 0.140625 0.781250
vt 0.406250 0.984375
vt 0.406250 0.968750
vt 0.476562 0.734375
vt 0.390625 0.750000
vt 0.406250 0.656250
vt 0.406250 0.640625
vt 0.492188 0.984375
vt 0.406250 1.000000
vt 0.000000 1.000000
vt 0.062500 0.914062
vt 0.062500 1.000000
vt 0.125000 1.000000
vt 0.125000 0.914062
vt 0.171875 0.765625
vt 0.281250 0.484375
vt 0.234375 0.484375
vt 0.343750 0.765625
vt 0.312500 0.781250
vt 0.500000 0.750000
vt 0.203125 0.640625
vt 0.234375 0.593750
vt 0.328125 0.578125
vt 0.359375 0.625000
vt 0.359375 0.578125
vt 0.578125 0.843750
vt 0.468750 0.484375
vt 0.421875 0.484375
vt 0.187500 0.437500
vt 0.156250 0.453125
vt 0.156250 0.437500
vt 0.390625 0.796875
vt 0.421875 0.750000
vt 0.421875 0.796875
vt 0.234375 0.562500
vt 0.265625 0.609375
vt 0.265625 0.562500
vt 0.304688 0.562500
vt 0.250000 0.562500
vt 0.546875 0.718750
vt 0.500000 0.734375
vt 0.500000 0.718750
vt 0.437500 0.718750
vt 0.492188 0.734375
vt 0.437500 0.734375
vt 0.000000 0.906250
vt 0.054688 0.859375
vt 0.054688 0.906250
vt 0.062500 0.859375
vt 0.117188 0.906250
vt 0.117188 0.859375
vt 0.492188 0.703125
vt 0.437500 0.703125
vt 0.546875 0.703125
vt 0.453125 0.921875
vt 0.507812 0.937500
vt 0.453125 0.937500
vt 0.546875 0.687500
vt 0.179688 0.953125
vt 0.179688 1.000000
vt 0.125000 0.906250
vt 0.179688 0.906250
vt 0.601562 0.695312
vt 0.546875 0.695312
vt 0.156250 0.429688
vt 0.125000 0.429688
vt 0.367188 0.445312
vt 0.312500 0.453125
vt 0.312500 0.445312
vt 0.132812 0.640625
vt 0.078125 0.609375
vt 0.132812 0.609375
vt 0.429688 0.937500
vt 0.429688 0.968750
vt 0.546875 0.984375
vt 0.578125 1.000000
vt 0.546875 0.656250
vt 0.500000 0.656250
vt 0.062500 0.437500
vt 0.031250 0.453125
vt 0.500000 0.640625
vt 0.031250 0.609375
vt 0.062500 0.562500
vt 0.062500 0.609375
vt 0.093750 0.562500
vt 0.093750 0.609375
vt 0.218750 0.531250
vt 0.187500 0.546875
vt 0.000000 0.453125
vt 0.375000 0.484375
vt 0.390625 0.578125
vt 0.390625 0.625000
vt 0.031250 0.562500
vt 0.000000 0.609375
vt 0.218750 0.429688
vt 0.187500 0.429688
vt 0.250000 0.437500
vt 0.218750 0.437500
vt 0.250000 0.429688
vt 0.281250 0.437500
vt 0.281250 0.429688
vt 0.312500 0.437500
vt 0.421875 0.609375
vt 0.125000 0.453125
vt 0.578125 0.859375
vt 0.546875 0.875000
vt 0.390625 0.890625
vt 0.421875 0.843750
vt 0.421875 0.890625
vt 0.062500 0.453125
vt 0.093750 0.453125
vt 0.390625 0.937500
vt 0.421875 0.937500
vt 0.125000 0.609375
vt 0.125000 0.562500
vt 0.593750 0.960938
vt 0.562500 0.968750
vt 0.562500 0.960938
vt 0.593750 0.945312
vt 0.562500 0.953125
vt 0.562500 0.945312
vt 0.593750 0.929688
vt 0.562500 0.937500
vt 0.562500 0.929688
vt 0.359375 0.546875
vt 0.187500 0.453125
vt 0.515625 0.953125
vt 0.578125 0.812500
vt 0.546875 0.812500
vt 0.515625 0.921875
vt 0.421875 0.703125
vt 0.390625 0.656250
vt 0.421875 0.656250
vt 0.421875 0.625000
vt 0.578125 0.828125
vt 0.093750 0.468750
vt 0.046875 0.468750
vt 0.296875 0.562500
vt 0.296875 0.609375
vt 0.328125 0.562500
vt 0.406250 0.429688
vt 0.375000 0.437500
vt 0.375000 0.429688
vt 0.437500 0.429688
vt 0.406250 0.437500
vt 0.468750 0.429688
vt 0.437500 0.437500
vt 0.500000 0.429688
vt 0.468750 0.437500
vt 0.000000 0.562500
vt 0.031250 0.531250
vt 0.062500 0.531250
vt 0.507812 0.890625
vt 0.453125 0.890625
vt 0.179688 0.531250
vt 0.125000 0.546875
vt 0.125000 0.531250
vt 0.515625 0.984375
vt 0.062500 0.812500
vt 0.117188 0.812500
vt 0.179688 0.812500
vt 0.125000 0.859375
vt 0.179688 0.859375
vt 0.507812 0.906250
vt 0.453125 0.906250
vt 0.546875 0.546875
vt 0.515625 0.484375
vt 0.000000 0.812500
vt 0.054688 0.812500
vt 0.601562 0.679688
vt 0.546875 0.679688
vt 0.312500 0.429688
vt 0.343750 0.437500
vt 0.601562 0.664062
vt 0.546875 0.671875
vt 0.546875 0.664062
vt 0.343750 0.429688
vt 0.140625 0.625000
vt 0.195312 0.593750
vt 0.195312 0.625000
vt 0.375000 0.703125
vt 0.429688 0.734375
vt 0.429688 0.703125
vt 0.281250 0.453125
vt 0.281250 0.468750
vt 0.578125 0.703125
vt 0.328125 0.468750
vt 0.250000 0.453125
vt 0.140625 0.468750
vt 0.578125 0.718750
vt 0.546875 0.734375
vt 0.187500 0.468750
vt 0.562500 0.429688
vt 0.593750 0.437500
vt 0.562500 0.437500
vt 0.031250 0.414062
vt 0.000000 0.421875
vt 0.000000 0.414062
vt 0.609375 0.992188
vt 0.578125 0.992188
vt 0.062500 0.414062
vt 0.031250 0.421875
vt 0.578125 0.781250
vt 0.515625 0.906250
vt 0.515625 0.890625
vt 0.546875 0.750000
vt 0.578125 0.765625
vt 0.562500 0.875000
vt 0.515625 0.875000
vt 0.187500 0.593750
vt 0.218750 0.546875
vt 0.218750 0.593750
vt 0.578125 0.796875
vt 0.218750 0.453125
vt 0.125000 0.593750
vt 0.156250 0.546875
vt 0.156250 0.593750
vt 0.531250 0.429688
vt 0.500000 0.437500
vt 0.593750 0.476562
vt 0.562500 0.484375
vt 0.562500 0.476562
vt 0.531250 0.437500
vt 0.562500 0.445312
vt 0.593750 0.453125
vt 0.437500 0.968750
vt 0.593750 0.921875
vt 0.593750 0.906250
vt 0.593750 0.890625
vt 0.601562 0.539062
vt 0.593750 0.976562
vt 0.539062 0.468750
vt 0.234375 0.609375
vt 0.343750 0.781250
vt 0.382812 0.460938
vt 0.578125 0.468750
vt 0.460938 0.468750
vt 0.312500 0.687500
vt 0.531250 0.531250
vt 0.328125 0.921875
vt 0.343750 0.921875
vt 0.304688 0.468750
vt 0.601562 0.742188
vt 0.531250 0.734375
vt 0.148438 0.468750
vt 0.578125 0.562500
vt 0.226562 0.468750
vt 0.265625 0.734375
vt 0.140625 0.718750
vt 0.554688 0.476562
vt 0.585938 0.515625
vt 0.578125 0.593750
vt 0.187500 0.734375
vt 0.585938 0.500000
vt 0.578125 0.570312
vt 0.070312 0.460938
vt 0.398438 0.484375
vt 0.578125 0.640625
vt 0.585938 0.648438
vt 0.187500 0.906250
vt 0.390625 0.812500
vt 0.187500 1.000000
vt 0.476562 0.476562
vt 0.578125 0.625000
vt 0.585938 0.531250
vt 0.578125 0.609375
vt 0.187500 0.843750
vt 0.476562 0.750000
vt 0.492188 1.000000
vt 0.000000 0.914062
vt 0.171875 0.781250
vt 0.203125 0.593750
vt 0.304688 0.546875
vt 0.492188 0.718750
vt 0.000000 0.859375
vt 0.062500 0.906250
vt 0.507812 0.921875
vt 0.125000 0.953125
vt 0.601562 0.703125
vt 0.367188 0.453125
vt 0.078125 0.640625
vt 0.375000 0.937500
vt 0.578125 0.984375
vt 0.578125 0.875000
vt 0.390625 0.843750
vt 0.593750 0.968750
vt 0.593750 0.953125
vt 0.593750 0.937500
vt 0.328125 0.546875
vt 0.390625 0.703125
vt 0.507812 0.875000
vt 0.179688 0.546875
vt 0.125000 0.812500
vt 0.601562 0.687500
vt 0.601562 0.671875
vt 0.140625 0.593750
vt 0.578125 0.734375
vt 0.593750 0.429688
vt 0.609375 1.000000
vt 0.062500 0.421875
vt 0.218750 0.562500
vt 0.578125 0.750000
vt 0.593750 0.484375
vt 0.593750 0.445312
vt 0.437500 0.937500
s 1
usemtl m_376deca9-a205-951b-df3f-eb8a6fad713b
f 7/1/1 2/2/1 4/3/1
f 3/4/2 2/5/2 1/6/2
f 3/7/3 6/8/3 8/9/3
f 8/10/4 5/11/4 7/12/4
f 1/13/5 5/14/5 6/15/5
f 4/16/6 8/17/6 7/18/6
f 12/19/7 13/20/8 10/21/7
f 11/22/9 10/23/9 9/24/9
f 11/25/10 14/26/10 16/27/10
f 16/28/11 13/29/11 15/30/11
f 14/31/12 10/32/12 13/33/12
f 15/34/13 11/35/13 16/36/13
f 20/37/14 21/38/14 18/39/14
f 20/40/11 17/41/11 19/42/11
f 19/43/15 22/42/15 24/44/15
f 24/45/9 21/44/9 23/46/9
f 17/47/16 21/48/16 22/49/16
f 23/50/17 19/49/17 24/51/17
f 31/37/18 26/52/18 28/53/18
f 28/54/11 25/55/11 27/56/11
f 32/57/19 25/54/19 30/56/19
f 31/41/9 30/58/9 29/57/9
f 25/59/20 29/60/20 30/61/20
f 28/62/21 32/63/21 31/64/21
f 36/65/22 37/66/23 34/67/22
f 36/68/24 33/69/24 35/70/24
f 35/71/25 38/72/26 40/73/26
f 40/30/27 37/74/27 39/75/27
f 38/76/28 34/77/28 37/78/28
f 36/79/29 40/80/29 39/81/29
f 47/82/30 42/83/30 44/84/30
f 43/85/31 42/21/31 41/86/31
f 43/87/32 46/88/32 48/82/32
f 47/89/24 46/90/24 45/91/24
f 41/79/33 45/92/33 46/93/33
f 47/94/34 43/95/34 48/96/34
f 52/97/35 53/98/35 50/99/35
f 51/100/31 50/101/31 49/90/31
f 56/102/36 49/52/36 54/101/36
f 56/103/24 53/104/24 55/55/24
f 54/105/37 50/106/37 53/107/37
f 52/59/38 56/108/38 55/61/38
f 63/109/39 58/110/40 60/111/40
f 59/112/41 58/113/41 57/114/41
f 64/115/42 57/116/43 62/117/42
f 63/118/44 62/119/44 61/113/44
f 57/120/45 61/121/45 62/122/45
f 63/123/46 59/124/46 64/125/46
f 68/126/47 69/117/47 66/127/48
f 68/128/44 65/129/44 67/130/44
f 72/128/49 65/131/49 70/132/49
f 72/84/50 69/131/50 71/133/50
f 70/134/51 66/135/51 69/136/51
f 68/137/52 72/124/52 71/138/52
f 79/52/53 74/139/53 76/101/53
f 75/52/44 74/140/44 73/141/44
f 75/38/54 78/140/54 80/39/54
f 80/130/50 77/142/50 79/38/50
f 73/143/55 77/144/55 78/145/55
f 76/144/56 80/146/56 79/135/56
f 87/132/57 82/147/57 84/129/57
f 83/132/58 82/148/58 81/149/58
f 83/150/59 86/151/59 88/152/59
f 87/131/60 86/153/60 85/148/60
f 86/154/61 82/155/61 85/156/61
f 84/157/62 88/156/62 87/158/62
f 95/159/63 90/160/64 92/161/64
f 92/162/60 89/163/60 91/164/60
f 91/165/65 94/166/65 96/167/65
f 96/112/58 93/168/58 95/169/58
f 89/170/66 93/171/66 94/172/66
f 92/143/67 96/173/67 95/174/67
f 100/83/68 101/175/68 98/153/68
f 99/88/58 98/176/58 97/175/58
f 99/90/69 102/177/69 104/91/69
f 104/101/60 101/178/60 103/90/60
f 102/179/70 98/95/70 101/96/70
f 103/106/71 99/180/71 104/181/71
f 108/182/72 109/183/73 106/184/72
f 107/185/24 106/186/24 105/187/24
f 107/188/74 110/189/75 112/190/75
f 112/191/31 109/192/31 111/193/31
f 105/194/76 109/195/76 110/196/76
f 111/197/77 107/198/77 112/199/77
f 119/200/78 114/201/78 116/202/78
f 116/85/31 113/203/31 115/204/31
f 115/205/79 118/202/79 120/206/79
f 120/178/24 117/207/24 119/177/24
f 113/208/80 117/157/80 118/155/81
f 119/179/82 115/209/82 120/194/82
f 127/210/83 122/211/84 124/14/84
f 123/212/31 122/203/31 121/16/31
f 123/213/85 126/14/85 128/214/85
f 128/215/24 125/214/24 127/201/24
f 121/216/86 125/155/86 126/217/86
f 124/218/87 128/219/87 127/220/87
f 135/221/88 130/222/88 132/223/88
f 131/224/11 130/221/11 129/223/11
f 131/139/89 134/225/89 136/178/89
f 136/226/9 133/224/9 135/227/9
f 129/228/90 133/134/90 134/229/90
f 132/230/91 136/231/91 135/124/91
f 143/232/92 138/87/93 140/233/93
f 139/234/9 138/235/9 137/236/9
f 144/237/94 137/238/94 142/239/94
f 144/169/11 141/186/11 143/240/11
f 137/241/95 141/242/95 142/197/95
f 143/243/96 139/244/96 144/242/97
f 151/141/98 146/245/98 148/139/98
f 148/140/11 145/246/11 147/141/11
f 152/140/99 145/247/99 150/248/99
f 151/142/9 150/147/9 149/247/9
f 145/249/100 149/250/100 150/120/100
f 151/251/101 147/231/101 152/180/101
f 159/252/102 154/253/103 156/254/103
f 156/255/60 153/256/60 155/257/60
f 160/258/104 153/259/104 158/260/104
f 160/185/58 157/261/58 159/262/58
f 158/263/105 154/264/105 157/265/105
f 156/266/106 160/267/106 159/268/106
f 164/269/107 165/57/107 162/270/107
f 163/271/58 162/41/58 161/269/58
f 163/44/108 166/271/108 168/272/108
f 167/273/60 166/44/60 165/272/60
f 166/274/109 162/275/109 165/219/109
f 167/276/110 163/277/110 168/208/110
f 172/278/111 173/60/111 170/279/111
f 172/55/58 169/280/58 171/281/58
f 176/282/112 169/55/112 174/281/112
f 176/57/60 173/282/60 175/270/60
f 174/283/113 170/284/113 173/275/113
f 172/277/114 176/216/114 175/208/114
f 180/285/115 181/286/116 178/287/115
f 179/288/44 178/289/44 177/285/44
f 179/212/117 182/290/118 184/291/118
f 184/292/50 181/15/50 183/211/50
f 182/249/119 178/293/119 181/170/119
f 180/294/120 184/275/120 183/218/120
f 188/295/121 189/296/122 186/297/121
f 188/298/50 185/299/50 187/300/50
f 187/301/123 190/176/124 192/302/124
f 192/303/44 189/304/44 191/305/44
f 185/266/125 189/306/125 190/268/125
f 188/307/126 192/306/126 191/308/126
f 196/309/127 197/46/127 194/273/127
f 195/310/44 194/311/44 193/312/44
f 195/291/128 198/311/128 200/313/128
f 199/287/50 198/314/50 197/315/50
f 193/316/129 197/293/129 198/317/129
f 196/228/130 200/318/130 199/229/130
f 207/223/131 202/319/131 204/320/131
f 204/321/2 201/322/2 203/64/2
f 203/152/132 206/323/132 208/324/132
f 208/325/4 205/326/4 207/319/4
f 201/327/133 205/328/133 206/329/133
f 204/328/134 208/330/134 207/331/134
f 215/332/135 210/318/135 212/209/135
f 212/333/2 209/38/2 211/334/2
f 211/335/136 214/336/136 216/250/136
f 215/337/4 214/45/4 213/46/4
f 209/338/137 213/339/137 214/138/137
f 212/340/138 216/341/138 215/342/138
f 223/343/139 218/103/139 220/54/139
f 220/344/2 217/84/2 219/345/2
f 219/346/140 222/347/140 224/348/140
f 223/200/4 222/236/4 221/215/4
f 217/349/141 221/350/141 222/351/141
f 220/352/142 224/353/142 223/354/142
f 228/312/143 229/355/143 226/356/143
f 228/357/132 225/358/132 227/359/132
f 232/360/144 225/361/144 230/362/144
f 232/253/131 229/130/131 231/333/131
f 225/363/145 229/364/145 230/365/145
f 228/366/146 232/367/146 231/368/146
f 239/369/147 234/360/147 236/370/147
f 236/371/132 233/359/132 235/314/132
f 240/372/148 233/373/148 238/374/148
f 240/375/131 237/314/131 239/286/131
f 233/330/149 237/376/149 238/377/149
f 236/378/150 240/376/150 239/379/151
f 247/380/152 242/371/152 244/381/152
f 244/382/131 241/5/131 243/383/131
f 243/384/153 246/385/153 248/386/153
f 247/382/132 246/346/132 245/348/132
f 246/387/154 242/388/154 245/389/154
f 247/390/155 243/93/155 248/391/155
f 252/392/156 253/393/156 250/98/156
f 252/394/157 249/289/157 251/395/157
f 251/396/158 254/397/158 256/29/158
f 256/299/159 253/398/159 255/292/159
f 249/399/160 253/400/160 254/401/160
f 255/402/161 251/401/161 256/403/161
f 263/404/162 258/405/162 260/248/162
f 259/289/157 258/375/157 257/286/157
f 259/29/163 262/406/163 264/74/163
f 264/407/159 261/128/159 263/253/159
f 257/341/164 261/408/164 262/409/164
f 263/410/165 259/411/165 264/399/165
f 271/412/166 266/346/166 268/413/167
f 267/412/159 266/414/159 265/415/159
f 272/416/168 265/417/168 270/414/168
f 271/418/157 270/419/157 269/417/157
f 265/420/169 269/201/169 270/14/169
f 268/18/170 272/201/170 271/206/170
f 279/348/171 274/421/171 276/5/171
f 276/192/2 273/210/2 275/213/2
f 275/422/172 278/423/172 280/103/172
f 279/215/4 278/192/4 277/213/4
f 273/424/173 277/425/173 278/426/173
f 276/349/174 280/425/174 279/351/174
f 287/6/175 282/427/175 284/396/175
f 284/345/2 281/133/2 283/407/2
f 283/5/176 286/428/176 288/6/176
f 288/304/4 285/292/4 287/210/4
f 281/429/177 285/426/177 286/430/177
f 284/402/178 288/431/178 287/432/178
f 295/433/179 290/434/179 292/435/179
f 292/436/2 289/437/2 291/438/2
f 291/4/180 294/396/180 296/28/180
f 296/439/4 293/440/4 295/441/4
f 289/340/181 293/442/181 294/342/181
f 292/442/182 296/408/182 295/16/182
f 303/415/183 298/443/183 300/346/183
f 299/226/184 298/437/184 297/444/184
f 304/40/185 297/445/185 302/446/185
f 303/447/186 302/440/186 301/226/186
f 302/448/187 298/449/187 301/450/187
f 300/408/188 304/451/188 303/17/188
f 311/452/189 306/54/189 308/58/189
f 307/444/184 306/434/184 305/221/184
f 312/446/190 305/452/190 310/58/190
f 312/453/186 309/100/186 311/454/186
f 305/353/191 309/455/191 310/456/191
f 308/455/192 312/50/192 311/457/192
f 319/458/193 314/459/193 316/460/194
f 316/461/186 313/462/186 315/458/186
f 315/463/195 318/464/195 320/461/195
f 320/465/184 317/466/184 319/463/184
f 313/467/196 317/468/196 318/410/196
f 316/468/197 320/400/197 319/469/197
f 324/280/198 325/470/198 322/471/198
f 323/239/131 322/100/131 321/89/131
f 323/472/199 326/473/199 328/474/199
f 327/221/132 326/24/132 325/475/132
f 326/368/200 322/476/200 325/477/200
f 327/478/201 323/479/201 328/480/201
f 335/481/202 330/372/202 332/482/202
f 332/483/131 329/200/131 331/205/131
f 331/470/203 334/482/203 336/471/203
f 336/484/132 333/82/132 335/344/132
f 329/378/204 333/480/204 334/379/204
f 332/485/205 336/364/205 335/486/205
f 343/487/206 338/375/206 340/488/206
f 339/489/132 338/490/132 337/419/132
f 339/491/207 342/492/207 344/493/207
f 344/460/131 341/490/131 343/494/131
f 337/495/208 341/496/208 342/497/208
f 340/498/209 344/499/209 343/500/209
f 351/419/210 346/501/210 348/417/210
f 348/502/157 345/334/157 347/110/157
f 347/503/211 350/357/211 352/371/212
f 352/504/159 349/333/159 351/502/159
f 345/351/213 349/309/213 350/271/213
f 348/450/214 352/315/214 351/288/214
f 359/417/215 354/505/215 356/414/215
f 355/506/157 354/37/157 353/53/157
f 355/507/216 358/508/216 360/357/216
f 359/509/159 358/334/159 357/37/159
f 358/471/217 354/425/217 357/282/217
f 356/351/218 360/282/218 359/271/218
f 364/510/219 365/511/220 362/512/219
f 364/513/159 361/514/159 363/515/159
f 363/516/221 366/393/221 368/517/221
f 368/518/157 365/519/157 367/513/157
f 366/432/222 362/245/222 365/474/222
f 364/404/223 368/356/223 367/310/223
f 372/45/224 373/520/224 370/43/224
f 372/11/184 369/521/184 371/522/184
f 376/523/225 369/524/225 374/45/225
f 376/525/186 373/522/186 375/526/186
f 369/527/226 373/528/226 374/529/226
f 375/471/227 371/430/227 376/374/227
f 380/43/228 381/530/228 378/40/228
f 380/8/184 377/447/184 379/521/184
f 384/415/229 377/505/229 382/531/229
f 384/506/186 381/102/186 383/453/186
f 377/532/230 381/533/230 382/534/230
f 383/405/231 379/534/231 384/527/231
f 391/535/232 386/536/233 388/465/233
f 388/537/186 385/538/186 387/539/186
f 392/535/234 385/512/234 390/540/234
f 391/541/184 390/542/184 389/119/184
f 385/543/235 389/227/235 390/223/235
f 391/245/236 387/400/236 392/402/236
f 7/1/1 5/544/1 2/2/1
f 3/4/2 4/383/2 2/5/2
f 3/7/3 1/545/3 6/8/3
f 8/10/4 6/546/4 5/11/4
f 1/13/5 2/420/5 5/14/5
f 4/16/6 3/408/6 8/17/6
f 12/19/7 15/547/8 13/20/8
f 11/22/9 12/548/9 10/23/9
f 11/25/10 9/549/10 14/26/10
f 16/28/11 14/396/11 13/29/11
f 14/31/12 9/51/12 10/32/12
f 15/34/13 12/411/13 11/35/13
f 20/37/14 23/334/14 21/38/14
f 20/40/11 18/446/11 17/41/11
f 19/43/15 17/40/15 22/42/15
f 24/45/9 22/43/9 21/44/9
f 17/47/16 18/550/16 21/48/16
f 23/50/17 20/48/17 19/49/17
f 31/37/18 29/39/18 26/52/18
f 28/54/11 26/103/11 25/55/11
f 32/57/19 27/58/19 25/54/19
f 31/41/9 32/446/9 30/58/9
f 25/59/20 26/279/20 29/60/20
f 28/62/21 27/551/21 32/63/21
f 36/65/22 39/552/23 37/66/23
f 36/68/24 34/553/24 33/69/24
f 35/71/25 33/554/25 38/72/26
f 40/30/27 38/29/27 37/74/27
f 38/76/28 33/555/28 34/77/28
f 36/79/29 35/154/29 40/80/29
f 47/82/30 45/88/237 42/83/30
f 43/85/31 44/556/31 42/21/31
f 43/87/32 41/189/32 46/88/32
f 47/89/24 48/100/24 46/90/24
f 41/79/33 42/557/33 45/92/33
f 47/94/34 44/495/34 43/95/34
f 52/97/35 55/392/35 53/98/35
f 51/100/31 52/102/31 50/101/31
f 56/102/36 51/53/36 49/52/36
f 56/103/24 54/423/24 53/104/24
f 54/105/37 49/181/37 50/106/37
f 52/59/38 51/558/38 56/108/38
f 63/109/39 61/559/39 58/110/40
f 59/112/41 60/118/41 58/113/41
f 64/115/42 59/560/43 57/116/43
f 63/118/44 64/541/44 62/119/44
f 57/120/45 58/336/45 61/121/45
f 63/123/46 60/47/46 59/124/46
f 68/126/47 71/561/47 69/117/47
f 68/128/44 66/132/44 65/129/44
f 72/128/49 67/133/49 65/131/49
f 72/84/50 70/83/50 69/131/50
f 70/134/51 65/146/51 66/135/51
f 68/137/52 67/230/52 72/124/52
f 79/52/53 77/141/53 74/139/53
f 75/52/44 76/39/44 74/140/44
f 75/38/54 73/142/54 78/140/54
f 80/130/50 78/129/50 77/142/50
f 73/143/55 74/35/55 77/144/55
f 76/144/56 75/145/56 80/146/56
f 87/132/57 85/149/57 82/147/57
f 83/132/58 84/131/58 82/148/58
f 83/150/59 81/260/59 86/151/59
f 87/131/60 88/83/60 86/153/60
f 86/154/61 81/217/61 82/155/61
f 84/157/62 83/155/62 88/156/62
f 95/159/63 93/562/63 90/160/64
f 92/162/60 90/563/60 89/163/60
f 91/165/65 89/564/65 94/166/65
f 96/112/58 94/114/58 93/168/58
f 89/170/66 90/565/66 93/171/66
f 92/143/67 91/294/67 96/173/67
f 100/83/68 103/88/68 101/175/68
f 99/88/58 100/189/58 98/176/58
f 99/90/69 97/178/69 102/177/69
f 104/101/60 102/139/60 101/178/60
f 102/179/70 97/566/70 98/95/70
f 103/106/71 100/251/71 99/180/71
f 108/182/72 111/567/73 109/183/73
f 107/185/24 108/240/24 106/186/24
f 107/188/74 105/568/74 110/189/75
f 112/191/31 110/569/31 109/192/31
f 105/194/76 106/570/76 109/195/76
f 111/197/77 108/241/77 107/198/77
f 119/200/78 117/215/78 114/201/78
f 116/85/31 114/86/31 113/203/31
f 115/205/79 113/200/79 118/202/79
f 120/178/24 118/225/24 117/207/24
f 113/208/80 114/276/80 117/157/80
f 119/179/82 116/566/82 115/209/82
f 127/210/83 125/292/83 122/211/84
f 123/212/31 124/204/31 122/203/31
f 123/213/85 121/210/85 126/14/85
f 128/215/24 126/213/24 125/214/24
f 121/216/86 122/208/86 125/155/86
f 124/218/87 123/275/87 128/219/87
f 135/221/88 133/475/88 130/222/88
f 131/224/11 132/444/11 130/221/11
f 131/139/89 129/245/89 134/225/89
f 136/226/9 134/444/9 133/224/9
f 129/228/90 130/146/90 133/134/90
f 132/230/91 131/570/91 136/231/91
f 143/232/92 141/571/92 138/87/93
f 139/234/9 140/572/9 138/235/9
f 144/237/94 139/573/94 137/238/94
f 144/169/11 142/168/11 141/186/11
f 137/241/95 138/244/95 141/242/95
f 143/243/96 140/249/96 139/244/96
f 151/141/98 149/246/98 146/245/98
f 148/140/11 146/248/11 145/246/11
f 152/140/99 147/142/99 145/247/99
f 151/142/9 152/129/9 150/147/9
f 145/249/100 146/170/100 149/250/100
f 151/251/101 148/124/101 147/231/101
f 159/252/102 157/574/102 154/253/103
f 156/255/60 154/575/60 153/256/60
f 160/258/104 155/576/104 153/259/104
f 160/185/58 158/187/58 157/261/58
f 158/263/105 153/274/105 154/264/105
f 156/266/106 155/577/238 160/267/106
f 164/269/107 167/41/107 165/57/107
f 163/271/58 164/42/58 162/41/58
f 163/44/108 161/42/108 166/271/108
f 167/273/60 168/46/60 166/44/60
f 166/274/109 161/283/109 162/275/109
f 167/276/110 164/577/110 163/277/110
f 172/278/111 175/578/111 173/60/111
f 172/55/58 170/104/58 169/280/58
f 176/282/112 171/56/112 169/55/112
f 176/57/60 174/56/60 173/282/60
f 174/283/113 169/485/113 170/284/113
f 172/277/114 171/579/114 176/216/114
f 180/285/115 183/289/116 181/286/116
f 179/288/44 180/395/44 178/289/44
f 179/212/117 177/16/117 182/290/118
f 184/292/50 182/398/50 181/15/50
f 182/249/119 177/317/119 178/293/119
f 180/294/120 179/284/120 184/275/120
f 188/295/121 191/580/122 189/296/122
f 188/298/50 186/581/50 185/299/50
f 187/301/123 185/582/123 190/176/124
f 192/303/44 190/583/44 189/304/44
f 185/266/125 186/584/239 189/306/125
f 188/307/126 187/584/126 192/306/126
f 196/309/127 199/337/127 197/46/127
f 195/310/44 196/313/44 194/311/44
f 195/291/128 193/290/128 198/311/128
f 199/287/50 200/286/50 198/314/50
f 193/316/129 194/332/129 197/293/129
f 196/228/130 195/264/130 200/318/130
f 207/223/131 205/222/131 202/319/131
f 204/321/2 202/585/2 201/322/2
f 203/152/132 201/151/132 206/323/132
f 208/325/4 206/586/4 205/326/4
f 201/327/133 202/587/133 205/328/133
f 204/328/134 203/329/134 208/330/134
f 215/332/135 213/588/135 210/318/135
f 212/333/2 210/130/2 209/38/2
f 211/335/136 209/551/136 214/336/136
f 215/337/4 216/523/4 214/45/4
f 209/338/137 210/589/137 213/339/137
f 212/340/138 211/32/138 216/341/138
f 223/343/139 221/422/139 218/103/139
f 220/344/2 218/82/2 217/84/2
f 219/346/140 217/443/140 222/347/140
f 223/200/4 224/163/4 222/236/4
f 217/349/141 218/322/141 221/350/141
f 220/352/142 219/550/142 224/353/142
f 228/312/143 231/590/143 229/355/143
f 228/357/132 226/508/132 225/358/132
f 232/360/144 227/591/144 225/361/144
f 232/253/131 230/128/131 229/130/131
f 225/363/145 226/592/145 229/364/145
f 228/366/146 227/593/146 232/367/146
f 239/369/147 237/591/147 234/360/147
f 236/371/132 234/357/132 233/359/132
f 240/372/148 235/594/148 233/373/148
f 240/375/131 238/371/131 237/314/131
f 233/330/149 234/595/149 237/376/149
f 236/378/150 235/595/150 240/376/150
f 247/380/152 245/596/152 242/371/152
f 244/382/131 242/348/131 241/5/131
f 243/384/153 241/597/153 246/385/153
f 247/382/132 248/413/132 246/346/132
f 246/387/154 241/598/154 242/388/154
f 247/390/155 244/599/155 243/93/155
f 252/392/156 255/600/156 253/393/156
f 252/394/157 250/492/157 249/289/157
f 251/396/158 249/427/158 254/397/158
f 256/299/159 254/256/159 253/398/159
f 249/399/160 250/410/160 253/400/160
f 255/402/161 252/400/161 251/401/161
f 263/404/162 261/528/162 258/405/162
f 259/289/157 260/492/157 258/375/157
f 259/29/163 257/397/163 262/406/163
f 264/407/159 262/133/159 261/128/159
f 257/341/164 258/342/164 261/408/164
f 263/410/165 260/467/165 259/411/165
f 271/412/166 269/415/166 266/346/166
f 267/412/159 268/416/159 266/414/159
f 272/416/168 267/418/168 265/417/168
f 271/418/157 272/489/157 270/419/157
f 265/420/169 266/17/169 269/201/169
f 268/18/170 267/17/170 272/201/170
f 279/348/171 277/347/171 274/421/171
f 276/192/2 274/304/2 273/210/2
f 275/422/172 273/601/172 278/423/172
f 279/215/4 280/236/4 278/192/4
f 273/424/173 274/602/173 277/425/173
f 276/349/174 275/602/174 280/425/174
f 287/6/175 285/428/175 282/427/175
f 284/345/2 282/84/2 281/133/2
f 283/5/176 281/421/176 286/428/176
f 288/304/4 286/299/4 285/292/4
f 281/429/177 282/424/177 285/426/177
f 284/402/178 283/403/178 288/431/178
f 295/433/179 293/603/179 290/434/179
f 292/436/2 290/604/2 289/437/2
f 291/4/180 289/6/180 294/396/180
f 296/439/4 294/605/4 293/440/4
f 289/340/181 290/606/181 293/442/181
f 292/442/182 291/342/182 296/408/182
f 303/415/183 301/531/183 298/443/183
f 299/226/184 300/440/184 298/437/184
f 304/40/185 299/530/185 297/445/185
f 303/447/186 304/2/186 302/440/186
f 302/448/187 297/607/187 298/449/187
f 300/408/188 299/409/188 304/451/188
f 311/452/189 309/343/189 306/54/189
f 307/444/184 308/437/184 306/434/184
f 312/446/190 307/445/190 305/452/190
f 312/453/186 310/102/186 309/100/186
f 305/353/191 306/354/191 309/455/191
f 308/455/192 307/456/192 312/50/192
f 319/458/193 317/462/193 314/459/193
f 316/461/186 314/464/186 313/462/186
f 315/463/195 313/466/195 318/464/195
f 320/465/184 318/536/184 317/466/184
f 313/467/196 314/207/196 317/468/196
f 316/468/197 315/410/197 320/400/197
f 324/280/198 327/608/198 325/470/198
f 323/239/131 324/454/131 322/100/131
f 323/472/199 321/609/199 326/473/199
f 327/221/132 328/434/132 326/24/132
f 326/368/200 321/366/200 322/476/200
f 327/478/201 324/610/240 323/479/201
f 335/481/202 333/594/202 330/372/202
f 332/483/131 330/163/131 329/200/131
f 331/470/203 329/481/203 334/482/203
f 336/484/132 334/87/132 333/82/132
f 329/378/204 330/479/204 333/480/204
f 332/485/205 331/592/205 336/364/205
f 343/487/206 341/611/206 338/375/206
f 339/489/132 340/494/132 338/490/132
f 339/491/207 337/612/207 342/492/207
f 344/460/131 342/459/131 341/490/131
f 337/495/208 338/613/208 341/496/208
f 340/498/209 339/105/209 344/499/209
f 351/419/210 349/385/210 346/501/210
f 348/502/157 346/333/157 345/334/157
f 347/503/211 345/507/211 350/357/211
f 352/504/159 350/253/159 349/333/159
f 345/351/213 346/350/213 349/309/213
f 348/450/214 347/448/214 352/315/214
f 359/417/215 357/501/215 354/505/215
f 355/506/157 356/509/157 354/37/157
f 355/507/216 353/614/216 358/508/216
f 359/509/159 360/110/159 358/334/159
f 358/471/217 353/426/217 354/425/217
f 356/351/218 355/425/218 360/282/218
f 364/510/219 367/615/220 365/511/220
f 364/513/159 362/519/159 361/514/159
f 363/516/221 361/616/221 366/393/221
f 368/518/157 366/617/157 365/519/157
f 366/432/222 361/402/222 362/245/222
f 364/404/223 363/618/223 368/356/223
f 372/45/224 375/524/224 373/520/224
f 372/11/184 370/8/184 369/521/184
f 376/523/225 371/619/241 369/524/225
f 376/525/186 374/11/186 373/522/186
f 369/527/226 370/405/226 373/528/226
f 375/471/227 372/426/227 371/430/227
f 380/43/228 383/520/228 381/530/228
f 380/8/184 378/2/184 377/447/184
f 384/415/229 379/414/229 377/505/229
f 384/506/186 382/53/186 381/102/186
f 377/532/230 378/473/230 381/533/230
f 383/405/231 380/533/231 379/534/231
f 391/535/232 389/540/232 386/536/233
f 388/537/186 386/620/186 385/538/186
f 392/535/234 387/510/234 385/512/234
f 391/541/184 392/621/184 390/542/184
f 385/543/235 386/622/235 389/227/235
f 391/245/236 388/469/236 387/400/236
