# Made in Blockbench 5.2.1
mtllib osprey_h.mtl

o mesh
v -0.11249999999999981 1.989161397247679 0.3566302511875459
v 0.1125 2.1781990389977084 0.1308659608233019
v 0.1125 2.1853976997823734 -0.1440398035449764
v 0.09790966475900592 2.1174467444032437 0.12927510600190312
v 0.09790966475900592 2.1246454051879087 -0.14563065836637518
v 0.23750004706063876 2.149285066173323 0.12484076656771392
v 0.2375003153657499 2.142594962575864 -0.14298051059102776
v 0.23749986091538977 2.0936192903131423 0.10995475536625196
v 0.23749998331714853 2.0862258099336337 -0.13102886245458475
v 0.1632812500000001 2.149694569756591 0.10922100971518647
v 0.16328125000000016 2.077318308980543 0.2617900166467304
v 0.16328125000000013 2.094028352724878 0.09433528563544359
v 0.1632812500000001 2.021880131906904 0.2329307283195408
v 0.1632812500000001 2.149694569756591 0.10922100971518647
v 0.16328125000000013 2.143004185925908 -0.15860043797179638
v 0.16328125000000013 2.094028352724878 0.09433528563544359
v 0.16328125000000016 2.0866349835997995 -0.14664838665493896
v 0.3168693750000001 1.7029713795348762 0.06293133990620768
v 0.3202518750000001 1.77086620183749 -0.14208620684047385
v 0.2375000000000002 2.1492853574949717 0.12484065751140982
v 0.23750000000000004 2.0769090967189228 0.2774096644429537
v 0.2375000000000001 2.0936191404632587 0.10995493343166692
v 0.2375000000000002 2.021470919645285 0.24855037611576405
v 0.35742687500000014 1.9816174332292256 0.11706616789328882
v 0.28162250000000016 1.982112503043674 0.0981724841040215
v 0.2557681250000001 1.9774295049785402 0.27700923130502175
v 0.2375000000000002 2.1492853574949717 0.12484065751140982
v 0.2375000000000001 2.142594973664288 -0.142980790175573
v 0.2375000000000001 2.0936191404632587 0.10995493343166692
v 0.2375000000000002 2.0862257713381807 -0.13102873885871555
v 0.35742687500000014 1.9816182762038792 0.11706590210440133
v 0.3535187500000001 1.9882363648589487 -0.16143589009594272
v 0.28162250000000016 1.982112503043674 0.0981724841040215
v 0.28501500000000013 1.9866255299133928 -0.14567092007000232
v 0.371556875 1.7025621672732565 0.07855098770243107
v 0.3679081250000001 1.771173393925589 -0.15380114773030587
v 0.26814312500000015 1.9774165718930004 0.27751052525663444
v 0.2865625000000001 1.9813190018686244 0.12848409465840838
v 0.2557275000000001 1.7242890991794952 0.26894241175353506
v 0.3060937500000001 1.6979989566995746 0.125891665262415
v 0.3164118750000002 1.938495817244359 0.27157657350746367
v 0.3499918750000002 1.980837153732599 0.14687593011429237
v 0.36236687500000003 1.6975044412668967 0.14478563764456545
v 0.29751562500000006 1.9866258185062764 -0.14567147445177298
v 0.2665618750000001 1.9937192860127664 -0.2794539174357671
v 0.3174718750000001 1.7958338334360318 -0.19227652478066648
v 0.26796937500000007 1.840503219260487 -0.2982711130368467
v 0.3535193750000001 1.9882360762660651 -0.161435335714172
v 0.32256562500000013 1.9953298323654387 -0.29521833307993683
v 0.36722562500000006 1.7974080713256566 -0.20804293068515195
v 0.3239731250000001 1.826494117816936 -0.3144447409426361
v -0.11249999999999981 2.100041444677975 -0.33913499877104825
v -0.11249999999999998 2.104251228472643 -0.24590461337327257
v -0.11249999999999986 1.8366755621135589 -0.3654122494828853
v -0.23749999999999977 2.078302437471342 -0.2991289557308715
v -0.3239731249999999 1.826494117816936 -0.3144447409426361
v -0.23749999999999988 2.0414549591067295 -0.27584981167583644
v -0.25546937499999994 1.840503219260487 -0.2982711130368467
v 1.6653345369377348e-16 1.8607068432275202 -0.4363201650559184
v -0.11249999999999998 1.8570228155270074 -0.42450714099101006
v -0.11328124999999982 2.100041444677975 -0.33913499877104825
v 0.11250000000000016 2.1000414446779745 -0.33913499877104825
v 0.11250000000000013 1.8570228155270074 -0.42450714099101006
v 0.11250000000000006 2.1042512284726427 -0.2459046133732726
v 0.11250000000000014 1.836675562113559 -0.3654122494828853
v 0.23750000000000016 2.0783024374713417 -0.2991289557308715
v 0.2375000000000001 2.0414549591067295 -0.27584981167583644
v 0.25546937500000017 1.840503219260487 -0.2982711130368467
v 0.2375000000000001 2.142594973664288 -0.142980790175573
v 0.23750000000000016 2.0783029918531124 -0.29912866713798825
v 0.2375000000000002 2.0862257713381807 -0.13102873885871555
v 0.2375000000000002 2.021429961579477 -0.27321062726659084
v 0.3535187500000002 1.9882369192407197 -0.1614356015030595
v 0.2850156250000001 1.9866258185062766 -0.14567147445177298
v 0.2540618750000002 1.9937187316309957 -0.27945420602865034
v 0.11250000000000007 2.186247696404645 -0.14524081422006413
v 0.11250000000000007 2.126321116286244 -0.1274892162176001
v 0.11250000000000006 2.0819440616162814 -0.277304656438509
v 0.2375000000000001 2.142594973664288 -0.142980790175573
v 0.23750000000000016 2.0783029918531124 -0.29912866713798825
v 0.2375000000000002 2.0862257713381807 -0.13102873885871555
v 0.2375000000000002 2.021429961579477 -0.27321062726659084
v 0.11250000000000007 2.1862474078117615 -0.14524025983829336
v 0.11250000000000011 2.126321404879128 -0.12748977059937078
v 0.1125000000000001 2.081944350209165 -0.2773052108202797
v -0.11249999999999995 2.186247407811762 -0.14524025983829336
v -0.11249999999999973 2.1263214048791284 -0.12748977059937078
v -0.11249999999999992 2.081944350209165 -0.2773052108202797
v -0.11249999999999992 2.186247696404645 -0.1452408142200641
v -0.11249999999999989 2.1263211162862445 -0.12748921621760007
v -0.11249999999999992 2.081944061616282 -0.277304656438509
v -0.23749999999999993 2.142594973664288 -0.142980790175573
v -0.23749999999999988 2.0783029918531124 -0.29912866713798825
v -0.23749999999999982 2.08622577133818 -0.13102873885871555
v -0.23749999999999977 2.0214299615794764 -0.27321062726659084
v -0.23749999999999988 2.0783029918531124 -0.29912866713798825
v -0.23749999999999977 2.0214299615794764 -0.27321062726659084
v -0.2540618749999999 1.9937187316309957 -0.27945420602865034
v -0.2665618749999999 1.9937192860127662 -0.2794539174357671
v -0.26796937499999984 1.8626784900899427 -0.2867273977059709
v -0.3225656249999999 1.995329832365439 -0.29521833307993683
v -0.323973125 1.8642890364426152 -0.30249181335014064
v 5.551115123125783e-17 2.1266082806051996 -0.2714684637047514
v 0.2557681250000001 1.9774295049785402 0.27700923130502175
v 0.11250000000000013 1.7451614996156577 0.3715760815477265
v 0.11250000000000013 1.9851794426207572 0.35686214325330246
v 0.11249375000000013 1.7434235623165808 0.30927555705499465
v 0.11250000000000016 1.9808201330808466 0.29451464639516167
v 0.11250000000000013 2.1781988415534 0.13086596291678215
v 0.11250000000000009 2.1184044969699927 0.2752223388705203
v 0.1125000000000001 2.122760664479761 0.10200667458959252
v 0.11250000000000007 2.050612443661787 0.2406021172736897
v 0.2375000000000002 2.1492853574949717 0.12484065751140982
v 0.23750000000000004 2.0769090967189228 0.2774096644429537
v 0.2375000000000001 2.0936191404632587 0.10995493343166692
v 0.2375000000000002 2.021470919645285 0.24855037611576405
v 0.11250000000000011 2.1184050513517634 0.27522262746340365
v 0.11250000000000016 1.985179997002528 0.3568624318461857
v 0.11250000000000016 2.085748796969588 0.2219324325679795
v 0.11250000000000016 1.9808201330808466 0.29451464639516167
v 0.23750000000000004 2.0769090967189228 0.2774096644429537
v 0.2375000000000002 2.021470919645285 0.24855037611576405
v 0.25576750000000004 1.9774300593603107 0.277009519897905
v -0.23749999999999993 2.142594973664288 -0.142980790175573
v -0.23749999999999982 2.08622577133818 -0.13102873885871555
v 0.3163706250000002 1.7240300951339158 0.2840596512951147
v -0.2374999999999997 2.1492853574949717 0.12484065751140982
v -0.23749999999999993 2.142594973664288 -0.142980790175573
v -0.23749999999999982 2.0936191404632587 0.10995493343166692
v -0.23749999999999982 2.08622577133818 -0.13102873885871555
v -0.35742687499999976 1.9816182762038792 0.11706590210440133
v -0.3535187499999998 1.988236364858949 -0.16143589009594272
v -0.2816224999999999 1.982112503043674 0.0981724841040215
v -0.285015 1.986625529913393 -0.14567092007000232
v -0.2374999999999997 2.1492853574949717 0.12484065751140982
v -0.23749999999999988 2.076909096718923 0.2774096644429537
v -0.23749999999999982 2.0936191404632587 0.10995493343166692
v -0.23749999999999977 2.0214709196452847 0.24855037611576405
v -0.316869375 1.702971379534876 0.06293133990620767
v -0.32025187499999974 1.77086620183749 -0.14208620684047385
v -0.2374999999999997 2.1492853574949717 0.12484065751140982
v -0.23749999999999988 2.076909096718923 0.2774096644429537
v -0.23749999999999982 2.0936191404632587 0.10995493343166692
v -0.23749999999999977 2.0214709196452847 0.24855037611576405
v -0.3574268749999999 1.9816174332292253 0.11706616789328882
v -0.2816224999999999 1.982112503043674 0.0981724841040215
v -0.2557681249999999 1.9774295049785402 0.27700923130502175
v -0.37155687499999984 1.7025621672732567 0.07855098770243107
v -0.367908125 1.7711733939255887 -0.15380114773030587
v -0.2681431249999998 1.9774165718930004 0.27751052525663444
v -0.2865624999999999 1.9813190018686244 0.12848409465840838
v -0.2557274999999999 1.7242890991794955 0.26894241175353506
v -0.3060937499999999 1.6979989566995748 0.125891665262415
v -0.3164118749999998 1.938495817244359 0.27157657350746367
v -0.34999187499999984 1.9808371537325988 0.14687593011429237
v -0.3623668749999999 1.6975044412668967 0.14478563764456545
v -0.2975156249999998 1.9866258185062766 -0.14567147445177298
v -0.2665618749999998 1.9937192860127662 -0.2794539174357671
v -0.31747187499999974 1.795833833436032 -0.19227652478066648
v -0.26796937499999984 1.8405032192604873 -0.2982711130368467
v -0.35351937499999997 1.9882360762660651 -0.161435335714172
v -0.3225656249999998 1.995329832365439 -0.29521833307993683
v -0.36722562499999994 1.7974080713256566 -0.20804293068515195
v -0.3239731249999998 1.826494117816936 -0.3144447409426361
v -0.23749999999999977 2.078302437471342 -0.2991289557308715
v -0.23749999999999988 2.0414549591067295 -0.27584981167583644
v -0.25546937499999994 1.8626784900899427 -0.2867273977059709
v -0.23749999999999993 2.142594973664288 -0.142980790175573
v -0.23749999999999988 2.0783029918531124 -0.29912866713798825
v -0.23749999999999982 2.08622577133818 -0.13102873885871555
v -0.23749999999999977 2.0214299615794764 -0.27321062726659084
v -0.35351874999999994 1.9882369192407194 -0.1614356015030595
v -0.28501562499999994 1.9866258185062764 -0.14567147445177298
v -0.2540618749999999 1.9937187316309957 -0.27945420602865034
v -0.23749999999999993 2.142594973664288 -0.142980790175573
v -0.23749999999999988 2.0783029918531124 -0.29912866713798825
v -0.23749999999999982 2.08622577133818 -0.13102873885871555
v -0.23749999999999977 2.0214299615794764 -0.27321062726659084
v -0.23749999999999988 2.076909096718923 0.2774096644429537
v -0.23749999999999977 2.0214709196452847 0.24855037611576405
v -0.25576749999999987 1.977430059360311 0.277009519897905
v -0.11249999999999975 2.118405051351764 0.27522262746340365
v -0.11249999999999975 2.0857487969695883 0.22193243256797954
v -0.11249999999999984 2.1184044969699927 0.2752223388705203
v -0.11249999999999989 2.050612443661787 0.2406021172736897
v -0.2557681249999999 1.9774295049785402 0.27700923130502175
v -0.11249999999999984 1.9851794426207572 0.35686214325330246
v -0.11249999999999986 1.9808201330808466 0.29451464639516167
v -0.11249999999999981 1.9851799970025277 0.3568624318461857
v -0.11249999999999986 1.9808201330808466 0.29451464639516167
v -0.31637062499999996 1.724030095133916 0.2840596512951147
v -0.11249999999999986 1.7451614996156577 0.3715760815477265
v -0.11249374999999993 1.743423562316581 0.30927555705499465
v 0.1125000000000001 2.178199038997709 0.13086596082330185
v 0.11250000000000016 2.185397699782374 -0.14403980354497634
v 0.11250000000000006 2.115720456186736 0.1292299015540598
v 0.11250000000000011 2.122919116971401 -0.1456758628142184
v -0.11249999999999992 2.1781990389977093 0.13086596082330187
v -0.11249999999999984 2.1853976997823743 -0.1440398035449763
v -0.11249999999999981 2.1157204561867364 0.1292299015540598
v -0.11249999999999981 2.1229191169714015 -0.1456758628142184
v -0.11249999999999992 2.1781990389977093 0.13086596082330193
v -0.11249999999999984 2.1853976997823743 -0.14403980354497636
v -0.09790966475900566 2.117446744403244 0.12927510600190312
v -0.09790966475900588 2.124645405187909 -0.14563065836637518
v -0.23750004706063865 2.149285066173324 0.12484076656771398
v -0.23750031536574967 2.1425949625758642 -0.14298051059102773
v -0.23749986091538977 2.0936192903131428 0.10995475536625199
v -0.2374999833171484 2.086225809933634 -0.13102886245458473
v -0.11249999999999984 2.1781990389977093 0.13086596082330187
v -0.11249999999999989 2.1184046944143016 0.2752223367770401
v -0.11249999999999989 2.12276086192407 0.10200667249611226
v -0.11249999999999981 2.050612641106096 0.24060211518020944
v -0.23749999999999993 2.1492855549392806 0.12484065541792955
v -0.23749999999999988 2.0769092941632326 0.2774096623494734
v -0.23749999999999993 2.093619337907567 0.10995493133818666
v -0.23749999999999988 2.0214711170895936 0.24855037402228383
v 0.11250000000000018 2.1821809211465317 0.13063391242409358
v 0.11250000000000003 2.122386634839486 0.27499008937898217
v 0.11250000000000014 2.1244384503645763 0.10671619790127547
v 0.11250000000000014 2.064644164057531 0.25107237485616407
v -0.11249999999999986 2.182180921146532 0.13063391242409358
v -0.11249999999999989 2.1223866348394864 0.27499008937898217
v -0.11249999999999984 2.124438450364577 0.10671619790127548
v -0.11249999999999998 2.064644164057531 0.25107237485616407
v -0.11249999999999978 1.9891614565743023 0.35663017911661077
v -0.11249999999999984 2.1223864822546292 0.2749897783797437
v -0.11249999999999992 1.9565052962795555 0.30334016884448
v -0.11249999999999981 2.089730321959883 0.221699768107613
v 0.11250000000000017 1.9891614565743025 0.35663017911661077
v 0.11250000000000009 2.122386482254629 0.2749897783797437
v 0.11250000000000016 1.9565052962795555 0.30334016884448
v 0.11250000000000011 2.0897303219598826 0.221699768107613
v -0.11249999999999992 1.7490670937499901 0.3691639145395823
v -0.11249999999999986 1.7447073141409821 0.3068161613983432
v -0.11249999999999981 1.9848016176386711 0.2942824980463068
v 0.11250000000000018 1.7490670937499901 0.3691639145395823
v 0.11250000000000004 1.989161397247679 0.3566302511875459
v 0.11250000000000006 1.7447073141409821 0.3068161613983432
v 0.11250000000000014 1.9848016176386714 0.2942824980463068
v 0.06250000000000014 2.0810981786539764 -0.32717293078320164
v 0.06250000000000022 2.092551341989111 -0.35624847978263985
v 0.06250000000000018 1.8484937866584703 -0.4187982374642759
v 0.06250000000000017 1.8599469499936045 -0.4478737864637141
v -0.06249999999999993 2.0810981786539764 -0.32717293078320164
v -0.06249999999999971 2.092551341989111 -0.35624847978263985
v -0.062499999999999875 1.84849378665847 -0.4187982374642759
v -0.062499999999999875 1.8599469499936043 -0.4478737864637141
vt 0.6953125 0.734375
vt 0.6953125 0.75
vt 0.625 0.75
vt 0.625 0.734375
vt 0.171875 0.30802484375000005
vt 0.171875 0.375
vt 0.1565915625 0.37093328125
vt 0.15625 0.31065890625000003
vt 0.0625 0.46875
vt 0.063298125 0.40000468749999996
vt 0.09375 0.40169421875
vt 0.09375 0.46858625
vt 0.458578125 0.8275375
vt 0.45390625 0.79296875
vt 0.52265625 0.79296875
vt 0.51875625 0.828125
vt 0.83086359375 0.96875
vt 0.7987534375 0.96875
vt 0.79864171875 0.95312546875
vt 0.83417078125 0.9551040625
vt 0.81640625 0.65625
vt 0.81640625 0.671875
vt 0.784575 0.668775
vt 0.78125 0.655153125
vt 0.15234375 1
vt 0.109375 0.9984375
vt 0.1125 0.984375
vt 0.15234375 0.984375
vt 0.29895125 0.32993078124999997
vt 0.3030190625 0.34375
vt 0.2360434375 0.34375
vt 0.2386775 0.329588125
vt 0.12086484375 0.53125
vt 0.07867734375 0.5296875
vt 0.08180234375 0.515625
vt 0.12086484375 0.515625
vt 0.42187515625 0.28515625
vt 0.44140609375 0.28515625
vt 0.44086484375 0.32582515624999997
vt 0.42642203125 0.328125
vt 0.40848140625 0.45703125
vt 0.46005265625 0.45703125
vt 0.446784375 0.49889281249999995
vt 0.40713484375 0.5
vt 0.12086484375 0.515625
vt 0.08180234375 0.515625
vt 0.09206171875 0.48730312499999995
vt 0.13226015625 0.507878125
vt 0.35262015625 0.28475171875000005
vt 0.36407171875 0.29349156249999997
vt 0.3125 0.29349156249999997
vt 0.3234390625 0.27734375
vt 0.0078125 0.14764187500000003
vt 0.0078125 0.1875
vt 0 0.17520359375000005
vt 0.0042384375 0.16364484375
vt 0.34358515625 0.8296875
vt 0.34046015625 0.84375
vt 0.28184296875 0.81135
vt 0.29099921875 0.8002296875
vt 0.60970453125 0.62109375
vt 0.67935796875 0.62109375
vt 0.6743665625 0.640625
vt 0.61341515625 0.63892296875
vt 0.4234003125 0.76126015625
vt 0.427285 0.828125
vt 0.3757128125 0.828125
vt 0.375 0.7584873437499999
vt 0.35487578125 0.80175953125
vt 0.34358515625 0.8296875
vt 0.29099953125 0.80022984375
vt 0.30053890625 0.77415375
vt 0.25 0.22967828125
vt 0.25 0.28125
vt 0.24178296875 0.2697984375
vt 0.234375 0.24061750000000004
vt 0.77422625 0.52009421875
vt 0.78515625 0.52947859375
vt 0.7366615625 0.52947859375
vt 0.74695859375 0.515625
vt 0.2337896875 0.83328140625
vt 0.20554265625 0.8900346875
vt 0.17195015625 0.8732478125
vt 0.203995 0.8104617187500001
vt 0.313453125 0.93188875
vt 0.2799434375 0.9375
vt 0.25238234375 0.89140359375
vt 0.28172734375 0.86850609375
vt 0.40625 0.21244718750000002
vt 0.40625 0.25
vt 0.390625 0.2473021875
vt 0.393391875 0.21506734375000003
vt 0.2494759375 0.41910296874999997
vt 0.23448171875 0.41471015624999996
vt 0.24870265625 0.37895437499999995
vt 0.26257453125 0.38421875000000005
vt 0.69718671875 0.515724375
vt 0.70703125 0.527788125
vt 0.6437315625 0.53125
vt 0.6437315625 0.51649875
vt 0.6260478125 0.765625
vt 0.69704953125 0.765625
vt 0.69588109375 0.78125
vt 0.625 0.77957046875
vt 0.11039953125 0.84276953125
vt 0.0787103125 0.8294487500000001
vt 0.09130953125 0.79296875
vt 0.1220096875 0.795145
vt 0.05848375 0.56454375
vt 0.026905625 0.578125
vt 0.0151678125 0.53031625
vt 0.04401859375 0.524780625
vt 0.03125 0.16804624999999995
vt 0.046875 0.16875109374999997
vt 0.046875 0.203125
vt 0.03125 0.20242187499999997
vt 0.12466171875 0.2929690625
vt 0.12564765625 0.3059859375
vt 0.09488203125 0.31177796874999997
vt 0.09556265625 0.29722843750000005
vt 0.765625 0.73241875
vt 0.75120640625 0.734375
vt 0.75120640625 0.6850220312499999
vt 0.76412890625 0.683215
vt 0.265625 0.84326140625
vt 0.2510740625 0.84326140625
vt 0.25060328125 0.80078125
vt 0.2650725 0.8046734375
vt 0.37890625 0.4892375
vt 0.37890625 0.5625
vt 0.3480275 0.5451134375
vt 0.34375 0.49695609375000005
vt 0.7421875 0.796875
vt 0.71875 0.79134328125
vt 0.73575671875 0.762761875
vt 0.7421875 0.76234234375
vt 0.59468484375 0.294461875
vt 0.59468484375 0.234375
vt 0.60844015625 0.24178656249999997
vt 0.6050946875 0.28079984375
vt 0.20703125 0.34943843750000003
vt 0.20162203125 0.359375
vt 0.1875 0.33322125
vt 0.20703125 0.30614984375
vt 0.421875 0.265625
vt 0.421875 0.22314187500000005
vt 0.43934765625 0.22722093750000005
vt 0.6162890625 0.46875
vt 0.5946484375 0.46003234375
vt 0.5946484375 0.39563765625
vt 0.6102728125 0.39573468749999996
vt 0.30635328125 0.53124640625
vt 0.32374140625 0.5625
vt 0.25047734375 0.5625
vt 0.2581975 0.52696890625
vt 0.66486875 0.390625
vt 0.65745671875 0.375
vt 0.71754328125 0.375
vt 0.703881875 0.38727812500000003
vt 0.68478375 0.9345321875
vt 0.7109375 0.94865421875
vt 0.7010009375 0.953125
vt 0.65771234375 0.953125
vt 0.156735625 0.2325271875
vt 0.19921875 0.2325271875
vt 0.16081625 0.25
vt 0.73479453125 0.96309078125
vt 0.7633759375 0.9460840625
vt 0.76890765625 0.96875
vt 0.734375 0.96875
vt 0.2330434375 0.780165625
vt 0.1998171875 0.778701875
vt 0.1769665625 0.75969234375
vt 0.23236953125 0.7157765625
vt 0.17230859375 0.71746484375
vt 0.23237140625 0.71577515625
vt 0.1769665625 0.75969234375
vt 0.23236953125 0.7157765625
vt 0.26056484375 0.71484375
vt 0.26128515625 0.77990625
vt 0.23304296875 0.780134375
vt 0.0334359375 0.41772656249999995
vt 0.0085140625 0.39572031249999995
vt 0.017840625 0.392825
vt 0.0186640625 0.421875
vt 0.19447140625 0.5045046875
vt 0.18531515625 0.515625
vt 0.15811046875 0.48334374999999996
vt 0.17042296875 0.4737234375
vt 0.46875 0.23046875
vt 0.50390625 0.23046875
vt 0.50390625 0.25
vt 0.46875 0.25
vt 0.594490625 0.49239265624999995
vt 0.61099484375 0.53125
vt 0.5625 0.53125
vt 0.5653584375 0.49716859375
vt 0.20517078125 0.47881265625
vt 0.19447140625 0.5045046875
vt 0.17042234375 0.47372250000000005
vt 0.17326234375 0.4660553125
vt 0.015625 0.21713031250000003
vt 0.015625 0.265625
vt 0.00446875 0.254695
vt 0 0.22742874999999996
vt 0.13048859375 0.4539553125
vt 0.140625 0.46584781249999996
vt 0.11090046875 0.46584781249999996
vt 0.12274296875 0.453125
vt 0.76953125 0.484375
vt 0.76953125 0.5
vt 0.71875 0.49310671875
vt 0.7322859375 0.484375
vt 0.78320328125 0.78515625
vt 0.78163953125 0.828125
vt 0.76757796875 0.8249990625
vt 0.76757796875 0.78515625
vt 0.546875 0.35320125
vt 0.546875 0.40625
vt 0.515625 0.402331875
vt 0.515989375 0.36013125
vt 0.27697109375 0.48886375000000004
vt 0.2449721875 0.49620703125
vt 0.24057578125 0.4573921875
vt 0.27416703125 0.45025125
vt 0.34375 0.21689453125000002
vt 0.34375 0.25
vt 0.328125 0.24498546875000005
vt 0.32935234375 0.21219750000000004
vt 0.24057578125 0.4573921875
vt 0.23474765625 0.44237812499999996
vt 0.26799140625 0.44140625
vt 0.27253359375 0.45059843749999995
vt 0.68255296875 0.24427640625000002
vt 0.68945484375 0.296875
vt 0.67382640625 0.296875
vt 0.67382640625 0.25781359375
vt 0.76953125 0.28125
vt 0.76953125 0.296875
vt 0.71875 0.28997796875000004
vt 0.7322865625 0.28125
vt 0.7265625 0.34375
vt 0.7265625 0.359375
vt 0.671875 0.359375
vt 0.671875 0.34375
vt 0.423046875 0.51953125
vt 0.479296875 0.51953125
vt 0.479296875 0.5356375
vt 0.423046875 0.5356375
vt 0.05755296875 0.22865140625000002
vt 0.06445484375 0.28125
vt 0.04882640625 0.28125
vt 0.04882640625 0.24218859375000001
vt 0.6288953125 0.9202518749999999
vt 0.6328125 0.953125
vt 0.57976328125 0.953125
vt 0.58669421875 0.9206165625
vt 0.03676734375 0.4573921875
vt 0.03236921875 0.49620718750000004
vt 0.00037171875 0.48886203125000005
vt 0.0031759375 0.45024953125
vt 0.7046634375 0.20395140624999997
vt 0.7096775 0.21875
vt 0.6765728125 0.21875
vt 0.671875 0.20517937500000005
vt 0.00935171875 0.44140625
vt 0.04259703125 0.44237812499999996
vt 0.03676734375 0.4573921875
vt 0.00480953125 0.450596875
vt 0.80859375 0.375
vt 0.80859375 0.40472375000000005
vt 0.79770578125 0.39458890625
vt 0.796875 0.38684328125
vt 0.421908125 0.1875
vt 0.45472046875 0.1875
vt 0.45468734375 0.203125
vt 0.421875 0.203125
vt 0.313453125 0.93188875
vt 0.2817171875 0.868485625
vt 0.297146875 0.86192625
vt 0.3203125 0.9285215625
vt 0.00011 0.53076
vt 0.0151678125 0.53031625
vt 0.0269053125 0.5781240624999999
vt 0.26678671875 0.639343125
vt 0.27247734375 0.5859375
vt 0.28798171875 0.5878725
vt 0.2799375 0.65043359375
vt 0.643618125 0.41015625
vt 0.6591984375 0.41015625
vt 0.65719484375 0.46875
vt 0.6415828125 0.4680953125
vt 0.173421875 0.94477125
vt 0.22015765625 0.9144384375
vt 0.2460921875 0.9614684375
vt 0.2025078125 0.9973828125
vt 0.2799375 0.65043359375
vt 0.2880125 0.58763359375
vt 0.32421875 0.59742578125
vt 0.3151984375 0.65595546875
vt 0.39530140625 0.28192171875000005
vt 0.40625 0.26953125
vt 0.40625 0.32524671875
vt 0.390625 0.31909078125
vt 0.2025078125 0.9973828125
vt 0.24609375 0.9614671875
vt 0.2386609375 0.977934375
vt 0.2125828125 1
vt 0.7732890625 0.40625
vt 0.734375 0.4028453125
vt 0.734375 0.38671875
vt 0.7734375 0.38671875
vt 0.805078125 0.421875
vt 0.808203125 0.4359375
vt 0.766015625 0.4375
vt 0.766015625 0.421875
vt 0.60985546875 0.6609625
vt 0.640625 0.6595879687499999
vt 0.640625 0.6986509375000001
vt 0.609375 0.703125
vt 0.13415546875 0.765625
vt 0.09509296875 0.765625
vt 0.10021953125 0.734375
vt 0.13928203125 0.734375
vt 0.23534828125 0.1875
vt 0.23805609375 0.203125
vt 0.2059840625 0.20155140625
vt 0.20335015625 0.1875
vt 0.12543109375 0.25663749999999996
vt 0.09375 0.265625
vt 0.09375 0.2465953125
vt 0.125411875 0.24101249999999996
vt 0.359375 0.86718765625
vt 0.359375 0.90625
vt 0.34375 0.90625
vt 0.34551578125 0.874401875
vt 0.5089671875 0.49174843749999997
vt 0.5089671875 0.5073734375000001
vt 0.484375 0.4760078125
vt 0.4985 0.4852671875
vt 0.37758890625 0.437110625
vt 0.38671875 0.46875
vt 0.34765609375 0.46875
vt 0.348846875 0.41459828125
vt 0.6640625 0.796875
vt 0.66247671875 0.828125
vt 0.63189609375 0.80958203125
vt 0.62796859375 0.796875
vt 0.54284375 0.5002171875
vt 0.540246875 0.515625
vt 0.5089671875 0.5053296875
vt 0.5089671875 0.49174843749999997
vt 0.6875 0.84765625
vt 0.6875 0.904131875
vt 0.671875 0.89802328125
vt 0.6815778125 0.8638653125
vt 0.26257453125 0.38421875000000005
vt 0.24869953125 0.378953125
vt 0.25200890625 0.36328125
vt 0.26551828125 0.36771406250000005
vt 0.13949296875 0.30826093750000005
vt 0.12564765625 0.3059859375
vt 0.12466171875 0.29296875
vt 0.13941796875 0.29599375000000006
vt 0.479296875 0.5356375
vt 0.479296875 0.5747
vt 0.423046875 0.5747
vt 0.423046875 0.5356375
vt 0.1220096875 0.795145
vt 0.13604046875 0.7953340625
vt 0.1103203125 0.84309484375
vt 0.1103203125 0.84309484375
vt 0.136040625 0.79533390625
vt 0.1893375 0.80400421875
vt 0.17171875 0.87369953125
vt 0.1893375 0.80400421875
vt 0.203995 0.8104617187500001
vt 0.1717178125 0.873703125
vt 0.78320328125 0.55078125
vt 0.78163953125 0.59375
vt 0.76757796875 0.5906240625
vt 0.76757796875 0.55078125
vt 0.4921875 1
vt 0.4375 1
vt 0.4375 0.9453125
vt 0.4921875 0.9453125
vt 0.5944003125 0.5721087499999999
vt 0.594303125 0.5546875
vt 0.6586978125 0.5546875
vt 0.667415625 0.578125
vt 0.00645046875 0.60546875
vt 0.06640625 0.6094346875000001
vt 0.06014984375 0.65145390625
vt 0.06014984375 0.65145390625
vt 0.03659515625 0.66958203125
vt 0.00333734375 0.66978671875
vt 0.00645140625 0.60546953125
vt 0.2391615428419229 0.6841866539621835
vt 0.24305576435134013 0.6181053401415784
vt 0.1804473410024341 0.6220115901415785
vt 0.17327285180430285 0.6772589157546596
vt 0.35487578125 0.7176
vt 0.29625859375 0.75
vt 0.29313359375 0.7359375
vt 0.34571953125 0.7064796875
vt 0.362956875 0.38497453125000003
vt 0.344074375 0.38996593749999997
vt 0.344074375 0.3203125
vt 0.36125484375 0.32402312499999997
vt 0.4453125 0.85467796875
vt 0.4453125 0.90625
vt 0.3777728125 0.9023653125
vt 0.375 0.853965
vt 0.34571921875 0.70647984375
vt 0.29313359375 0.7359375
vt 0.28184296875 0.70800953125
vt 0.33617984375 0.68040375
vt 0.7463609375 0.6475101562500001
vt 0.7578125 0.65625
vt 0.70624078125 0.65625
vt 0.71718 0.6401021874999999
vt 0.375 0.21484375
vt 0.375 0.26333843749999997
vt 0.36384421875 0.25240843749999997
vt 0.359375 0.22514078125000003
vt 0.51171875 0.859375
vt 0.46875 0.8578125
vt 0.471875 0.84375
vt 0.51171875 0.84375
vt 0.51976015625 0.90625
vt 0.52288515625 0.9203125
vt 0.48069765625 0.921875
vt 0.48069765625 0.90625
vt 0.71476515625 0.99999796875
vt 0.67337140625 0.99999796875
vt 0.67362671875 0.98046875
vt 0.71725359375 0.98558640625
vt 0.55659453125 0.98673171875
vt 0.5165171875 1
vt 0.5165171875 0.94842890625
vt 0.5577015625 0.9470821875
vt 0.50950078125 0.877928125
vt 0.51976015625 0.90625
vt 0.48069765625 0.90625
vt 0.46930234375 0.898503125
vt 0.28125 0.2265625
vt 0.28125 0.27813421875
vt 0.27303296875 0.26668265625
vt 0.265625 0.23750156249999999
vt 0.8359375 0.5
vt 0.79831578125 0.48828125
vt 0.82751421875 0.48828125
vt 0.81520421875 0.48702390625
vt 0.06242484375 0.98262296875
vt 0.02883234375 0.9994096875
vt 0.0005853125 0.9426565625
vt 0.03038 0.919836875
vt 0.14606546875 0.67265359375
vt 0.118504375 0.71875
vt 0.08499453125 0.7131387499999999
vt 0.1167203125 0.64975609375
vt 0.5676146875 0.20341374999999995
vt 0.5703125 0.21875
vt 0.5327596875 0.21875
vt 0.53537984375 0.206180625
vt 0.48567390625 0.394578125
vt 0.49989484375 0.43033390625
vt 0.484900625 0.43472671875
vt 0.47180203125 0.3998425
vt 0.6553746875 0.28040687500000006
vt 0.65283 0.34375
vt 0.640625 0.33408125
vt 0.640625 0.28062062499999996
vt 0.06640625 0.37166234374999996
vt 0.04993671875 0.37283078125
vt 0.04993671875 0.30182906249999997
vt 0.06472671875 0.30078125
vt 0.14306546875 0.90234375
vt 0.1556646875 0.93882375
vt 0.12397546875 0.95214453125
vt 0.1123653125 0.90452
vt 0.4653009375 0.60844125
vt 0.453563125 0.65625
vt 0.421985 0.64266875
vt 0.43645015625 0.602905625
vt 0.1757425 0.203125
vt 0.1413684375 0.203125
vt 0.14066375 0.1875
vt 0.17503921875 0.1875
vt 0.74886796875 0.90552765625
vt 0.71810234375 0.899735625
vt 0.71908828125 0.88671875
vt 0.74818734375 0.890978125
vt 0.47055703125 0.265625
vt 0.51991 0.265625
vt 0.51795375 0.28125
vt 0.46875 0.27975390624999996
vt 0.765625 0.453125
vt 0.80810765625 0.453125
vt 0.80826890625 0.46875
vt 0.7696771875 0.46862499999999996
vt 0.01953125 0.33371968750000003
vt 0.01468109375 0.34375
vt 0 0.31790593749999996
vt 0.01953125 0.29425250000000003
vt 0.567350625 0.28125
vt 0.546875 0.24402640625000005
vt 0.567445 0.24402640625000005
vt 0.53329578125 0.67084375
vt 0.50609109375 0.703125
vt 0.49693484375 0.6920046875
vt 0.52098328125 0.6612234375
vt 0.64453125 0.25
vt 0.625 0.25
vt 0.625 0.21484375
vt 0.64453125 0.21484375
vt 0.4453125 0.38900515625
vt 0.4453125 0.4375
vt 0.40625 0.42099578125000003
vt 0.41102609375 0.39186359375
vt 0.52098390625 0.6612225
vt 0.49693484375 0.6920046875
vt 0.48623546875 0.66631265625
vt 0.51814390625 0.6535553125
vt 0.7875646875 0.615615625
vt 0.7984946875 0.625
vt 0.75 0.625
vt 0.76029859375 0.61114703125
vt 0.46484375 0.671875
vt 0.46484375 0.7015995312500001
vt 0.4539553125 0.6914631250000001
vt 0.453125 0.6837175
vt 0.8050775 0.25
vt 0.8082028125 0.26406328125
vt 0.7660159375 0.265625
vt 0.7660159375 0.25
vt 0.101290625 0.6431967187500001
vt 0.1167203125 0.64975609375
vt 0.084984375 0.71315921875
vt 0.078125 0.70979203125
vt 0.4653009375 0.60844125
vt 0.48035875 0.608885
vt 0.4535634375 0.6562490624999999
vt 0.2996265625 0.9897046875
vt 0.2996265625 0.9740796875
vt 0.32421875 0.9583390625
vt 0.31009375 0.9675984375
vt 0.48236453125 0.37890625
vt 0.48567390625 0.394578125
vt 0.47179890625 0.39984375000000005
vt 0.46885515625 0.38333906250000005
vt 0.71908828125 0.88671875
vt 0.71810234375 0.8997359375
vt 0.70425703125 0.9020109375
vt 0.70433203125 0.88974375
vt 0.09833453125 0.9047090625
vt 0.1123653125 0.90452
vt 0.1240546875 0.95246984375
vt 0.04503765625 0.913379375
vt 0.09833453125 0.9047090625
vt 0.12405484375 0.95247
vt 0.06265640625 0.9830746875
vt 0.03038 0.919836875
vt 0.04503765625 0.913379375
vt 0.0626571875 0.98307828125
vt 0.2996265625 0.9897046875
vt 0.268346875 1
vt 0.26575 0.9845921875
vt 0.2996265625 0.9761234375
vt 0.7994940625 0.90356765625
vt 0.8046875 0.921875
vt 0.77175625 0.921875
vt 0.76751046875 0.90683796875
vt 0.0074328125 0.774809375
vt 0 0.7583421875
vt 0.0435859375 0.7942578124999999
vt 0.0335109375 0.796875
vt 0.8046875 0.21874781249999997
vt 0.8046875 0.234375
vt 0.765625 0.234375
vt 0.77283875 0.22051546875000005
vt 0.2087353125 0.265625
vt 0.21484375 0.2800059375
vt 0.158368125 0.2800059375
vt 0.1745771875 0.27532781250000005
vt 0.5859375 0.85156234375
vt 0.5859375 0.890625
vt 0.55376234375 0.88149515625
vt 0.53125 0.852753125
vt 0.1070640625 0.339865
vt 0.12560703125 0.370445625
vt 0.09375 0.37203140625
vt 0.09375 0.3359375
vt 0.03620625 0.8222475
vt 0.051710625 0.8203125
vt 0.05740125 0.873718125
vt 0.04425046875 0.88480859375
vt 0.6238084375 0.34375
vt 0.5636915625 0.34375
vt 0.56421078125 0.32817828125000004
vt 0.62367453125 0.32812484374999995
vt 0.7915296875 0.99857140625
vt 0.7358140625 0.99857140625
vt 0.74820453125 0.98905140625
vt 0.78537359375 0.984375
vt 0 0.7583421875
vt 0.02593453125 0.7113121875
vt 0.0726703125 0.741645
vt 0.043584375 0.7942565625
vt 0 0.8320396875
vt 0.03620625 0.8222475
vt 0.04428125 0.8850475
vt 0.0090203125 0.890569375
vt 0.3567927243535649 0.9402930965905212
vt 0.35288647435356496 0.99609375
vt 0.41790307693930484 0.9962981072845378
vt 0.4114802243535649 0.9304252929482523
vt 0.6953125 0.5
vt 0.625 0.5
vt 0.625 0.484375
vt 0.6953125 0.484375
vt 0.6328125 0.359375
vt 0.6328125 0.375
vt 0.5625 0.375
vt 0.5625 0.359375
vt 0.34375 0.5859375
vt 0.3984375 0.5859375
vt 0.3984375 0.65625
vt 0.34375 0.65625
vt 0.1484375 0.5546875
vt 0.1484375 0.625
vt 0.09375 0.625
vt 0.09375 0.5546875
vt 0.7265625 0.3125
vt 0.7265625 0.328125
vt 0.671875 0.328125
vt 0.671875 0.3125
vt 0.7421875 0.828125
vt 0.6875 0.828125
vt 0.6875 0.8125
vt 0.7421875 0.8125
vt 0.4609375 0.359375
vt 0.390625 0.359375
vt 0.390625 0.34375
vt 0.4609375 0.34375
vt 0.72082703125 0.70493046875
vt 0.72489375 0.71875
vt 0.65791875 0.71875
vt 0.66055265625 0.7045889062499999
vt 0.5020984375 0.5773484375
vt 0.50078125 0.546875
vt 0.56953125 0.546875
vt 0.5689859375 0.578125
vt 0.45390625 0.73046875
vt 0.52265625 0.73046875
vt 0.517984375 0.7650375
vt 0.45780625 0.765625
vt 0.73439046875 0.18316578125000005
vt 0.74998453125 0.18414624999999996
vt 0.7481990625 0.21620671874999997
vt 0.73439046875 0.21875
vt 0.60726859375 0.18578531249999997
vt 0.60937140625 0.21875
vt 0.59375359375 0.21827687500000004
vt 0.59375359375 0.18204937499999996
vt 0.7421875 0.24609375
vt 0.7421875 0.2622203125
vt 0.7032734375 0.265625
vt 0.703125 0.24609375
vt 0.80859375 0.765625
vt 0.765625 0.7640625
vt 0.76875 0.75
vt 0.80859375 0.75
vt 0.6517759375 0.890625
vt 0.61271296875 0.890625
vt 0.6140875 0.85854421875
vt 0.65625 0.85806375
vt 0.32165546875 0.359375
vt 0.32678203125 0.390625
vt 0.28771953125 0.390625
vt 0.28259296875 0.359375
vt 0.27955859375 0.17105296874999998
vt 0.28113171875 0.203125
vt 0.26574328125 0.20041703125
vt 0.26574328125 0.1684203125
vt 0.7838678125 0.34106640624999995
vt 0.7890625 0.359375
vt 0.75613078125 0.359375
vt 0.751884375 0.34433812500000005
vt 0.1171875 0.203125
vt 0.1171875 0.21875
vt 0.078125 0.21875
vt 0.078125 0.203125
vt 0.8203125 0.875
vt 0.78125 0.875
vt 0.78125 0.859375
vt 0.8203125 0.859375
vt 0.5703125 0.4296875
vt 0.5703125 0.46875
vt 0.515625 0.46875
vt 0.515625 0.4296875
vt 0.546875 0.7890625
vt 0.6015625 0.7890625
vt 0.6015625 0.828125
vt 0.546875 0.828125
vt 0.2890625 0.3125
vt 0.234375 0.3125
vt 0.234375 0.296875
vt 0.2890625 0.296875
vt 0.7421875 0.578125
vt 0.7421875 0.59375
vt 0.6875 0.59375
vt 0.6875 0.578125
vt 0.8203125 0.71875
vt 0.8203125 0.734375
vt 0.78125 0.734375
vt 0.78125 0.71875
vt 0.8203125 0.703125
vt 0.78125 0.703125
vt 0.78125 0.6875
vt 0.8203125 0.6875
vt 0.6015625 0.7265625
vt 0.6015625 0.765625
vt 0.546875 0.765625
vt 0.546875 0.7265625
vt 0.109375 0.3984375
vt 0.1640625 0.3984375
vt 0.1640625 0.4375
vt 0.109375 0.4375
vt 0.7421875 0.5625
vt 0.6875 0.5625
vt 0.6875 0.546875
vt 0.7421875 0.546875
vt 0.5703125 0.296875
vt 0.5703125 0.3125
vt 0.515625 0.3125
vt 0.515625 0.296875
vt 0.484375 0.29899453125
vt 0.5 0.2992703125
vt 0.5 0.359375
vt 0.484375 0.35909921874999995
vt 0.7176903125 0.6875
vt 0.657585625 0.6875
vt 0.6573096875 0.671875
vt 0.717414375 0.671875
vt 0.171875 0.59375
vt 0.171875 0.53515625
vt 0.2265625 0.53515625
vt 0.2265625 0.59375
vt 0.375 0.67578125
vt 0.4296875 0.67578125
vt 0.4296875 0.734375
vt 0.375 0.734375
vt 0.7421875 0.46875
vt 0.6875 0.46875
vt 0.6875 0.453125
vt 0.7421875 0.453125
vt 0.7421875 0.421875
vt 0.7421875 0.4375
vt 0.6875 0.4375
vt 0.6875 0.421875
vt 0.4921875 0.203125
vt 0.484375 0.203125
vt 0.484375 0.140625
vt 0.4921875 0.140625
vt 0.7734375 0.140625
vt 0.7734375 0.203125
vt 0.765625 0.203125
vt 0.765625 0.140625
vt 0.796875 0.3046875
vt 0.828125 0.3046875
vt 0.828125 0.3125
vt 0.796875 0.3125
vt 0.84375 0.9921875
vt 0.84375 1
vt 0.8125 1
vt 0.8125 0.9921875
vt 0.21875 0.375
vt 0.21875 0.4375
vt 0.1875 0.4375
vt 0.1875 0.375
vt 0.59375 0.703125
vt 0.5625 0.703125
vt 0.5625 0.640625
vt 0.59375 0.640625
vt 0.30859375 0.1875
vt 0.30859375 0.25
vt 0.296875 0.25
vt 0.296875 0.1953125
vt 0.57895578125 0.59375
vt 0.5764575 0.6230218750000001
vt 0.50319578125 0.6230218750000001
vt 0.5 0.5938146875
vt 0.328125 0.494404375
vt 0.29885515625 0.49692609374999996
vt 0.29885515625 0.41796875
vt 0.32806484375 0.42114125
vt 0.765625 0.859375
vt 0.703125 0.859375
vt 0.703125 0.84375
vt 0.7578125 0.84375
vt 0.0087890625 0.3955078125
vt 0.017578125 0.392578125
vt 0.01953125 0.36328125
vn -0.9723699203976767 0.23336536796014004 0.006110887222368675
vn 0.9999999999927923 -0.0000036361705958463606 0.0000010926371207019628
vn 0.22645441104396247 0.9736879925938684 0.025496917406922098
vn -0.1716732733478248 -0.9848163532224552 -0.025788323785535902
vn 0.03986918058922002 -0.03572339850809243 0.9985661156068618
vn 0.016109541426576623 0.022307122198730513 -0.9996213658051915
vn -1 -5.83163641507042e-16 -3.4202252710778358e-18
vn -1 -5.824837929821673e-16 -2.938259299140044e-17
vn -1 1.4823886820187685e-15 -3.9414707529875355e-16
vn 0.05707481441532436 -0.9654423180287183 -0.25429037755839606
vn 0.7905580396496444 0.5532875788893611 0.26247064786764285
vn -0.9210457323659844 -0.3454503050940706 -0.17983004643501926
vn 0.28606897358507416 0.24753735329035742 -0.9256834237891415
vn -0.5970958719005184 -0.37040083064176793 0.7115333754780926
vn -1 1.2694738743441734e-15 3.1193853324790203e-16
vn -0.0005989779510662263 -0.9997177953732618 -0.023748070225588034
vn 0.8129502495958336 0.5821515307827831 -0.014542588811292733
vn -0.929381614832538 -0.3689467280366485 0.01131927039678317
vn -0.28606549234832357 -0.24753762177637015 0.9256844278115574
vn -0.3962481867170363 -0.1904415921121295 -0.8981755811183346
vn -0.9912351795247959 0.05271927147699718 -0.12113421187831552
vn 0.9641804252668233 0.015227928101933196 0.26480977651516213
vn 0.6319516927911015 0.7687562700411056 0.09823876653820603
vn -0.04536342266669952 -0.9852336646583034 0.1650962928352188
vn 0.091549642922783 -0.03817249333395579 0.9950686024759198
vn 0.2785739956846301 0.027988306896498318 -0.9600068664365726
vn -0.9740387393712205 -0.0363893178710973 0.22343757908865694
vn 0.9683117950888392 0.1226798658197819 -0.21753601544174303
vn -0.012965384098072796 0.9983502384438301 0.055934785369547144
vn -0.08269603060828123 -0.9315900348626632 -0.35397934045112894
vn 0.2707527155885618 -0.2016128382120843 0.9412997559064208
vn -0.27225371381595026 0.10663027540034464 -0.956299063934222
vn -0.013865820576522248 -0.407765884788411 0.912981227749215
vn -0.18492646252353526 0.9817520037373492 -0.044330650979109126
vn -0.03292282469046853 -0.9450096966621486 -0.3253809472432499
vn -0.4342691201422729 0.48111609171141473 0.7615363665559184
vn -0.20724756766184024 -0.10898284441894751 0.9721991490022025
vn -1 5.571405822737161e-16 -1.1235519374768762e-15
vn 0.013865820576523084 -0.4077658847884116 0.912981227749215
vn 0.032922824690468235 -0.9450096966621488 -0.3253809472432497
vn 0.43426912014227403 0.48111609171141506 0.7615363665559176
vn 0.20724756766184044 -0.10898284441894768 0.9721991490022024
vn 0.18492646252353365 0.9817520037373495 -0.04433065097910848
vn 0.3379724751621194 0.30452610815570597 -0.890527066115528
vn 0.47091977373611565 0.10368854632831233 -0.8760612147930344
vn -5.551115123125783e-17 0.3314418252710662 -0.9434756575879337
vn -0.0023083402687044674 -0.948192501849871 -0.31768797742578553
vn -1 -2.012265266429494e-15 4.773963018486287e-16
vn 0.01072868974807273 -0.9984057153348253 -0.055415907490953126
vn 0.76008952365277 0.6008785100759085 -0.24740438994136993
vn -0.8717927750618899 -0.44576737883846285 0.2031472404768906
vn 0.39624553620372155 0.1904418293785555 0.8981767001328718
vn -0.34092935977258376 -0.3898423779695293 -0.8554473052059485
vn -1 -2.399798891539617e-16 -3.802259683337958e-16
vn 1 2.0677764176607522e-15 -4.765289401106404e-16
vn 0.3103318408121133 0.868643463070403 -0.3862029034629629
vn -0.2869186684679519 -0.9185066085642603 0.27207221046692415
vn 0.08157867762892704 0.2830765562984245 0.9556215687344759
vn -0.07677286455448039 -0.9569019357849186 -0.2800796539543266
vn 1 7.749977819930628e-16 1.023728176094387e-16
vn -1 -3.2682302821384574e-15 7.1125266359968175e-16
vn 5.551115123125783e-16 0.28400943843065435 0.9588214843662528
vn -1.6653345369377352e-15 -0.959735016861401 -0.28090691947698054
vn 1 2.3987197386399797e-16 3.8434708699210197e-16
vn -0.3103318408121157 0.8686434630704022 -0.3862029034629627
vn 0.28691866846795616 -0.9185066085642588 0.272072210466925
vn -0.081578677628928 0.28307655629842443 0.9556215687344758
vn 0.0767728645544821 -0.9569019357849173 -0.28007965395432954
vn 0.34092935977258104 -0.3898423779695279 -0.8554473052059501
vn 0.27195699103933946 0.05041899672530526 -0.9609876793143826
vn 0.9891867295571541 0.04216796872368775 0.14046877404512206
vn 0.9975690410360807 0.06682254432999485 0.01976754753682317
vn 0.24126741367910973 -0.05643680837832401 -0.9688162476737587
vn -0.9999999949662509 0.000006139478320159153 0.00010014891513290647
vn 0.3985585174909861 0.053216134866544966 0.9155977015727231
vn -0.26711399763669275 0.030736331925041008 -0.9631746415714747
vn -0.040317067992326185 -0.9886400373774213 0.14479437324313904
vn 0.4252356343247794 0.563528234033592 0.7082447209456516
vn -1 5.562203228041032e-16 -2.759861477790835e-17
vn 1 -1.4823886820187685e-15 3.9414707529875355e-16
vn 0.22613343636770572 0.8999477194053875 0.37277040023796754
vn -0.17470138620336817 -0.8733699043771641 -0.45464759516228026
vn 0.06391902341146367 0.46080437813553554 -0.8851969744284305
vn -0.16430020057802794 -0.4486277739456672 0.8784865192674134
vn -1 -6.568339081902573e-16 -3.7162897710294966e-16
vn 0.5970958719005183 0.37040083064176793 -0.7115333754780925
vn 0.1565781688999932 0.5160510212278758 0.8421250622761394
vn -0.11660659037333083 -0.5650074327108437 -0.8168044466474259
vn 0.2804635962032551 0.8184192943244095 -0.5015276960271219
vn -0.19537026131871282 -0.9783404579770257 0.06841351677527886
vn 0.016715050201553033 -0.9969770318642363 -0.07587756606492575
vn -0.11048684897804475 -0.8922805958585203 -0.4377533488818411
vn -1.5265566588595902e-15 -0.9588202585524312 0.28401357676957806
vn -0.9944943366890642 -0.10474805825551047 0.0029763375276374137
vn -0.9930936813337727 -0.10550275933475983 -0.051323560551534655
vn -0.9826271054353523 -0.06615277335308396 -0.17340064083340878
vn 1 1.197641484294695e-15 -1.2819061908037453e-16
vn 1.6375789613221063e-15 0.9137581541730301 -0.40625858228755873
vn 1 -1.0633880065137874e-16 -1.243135196635051e-15
vn -0.47091977373611565 0.10368854632831244 -0.8760612147930344
vn -0.33797247516212 0.30452610815570713 -0.8905270661155273
vn 0.9987152100880896 0.050669607232140375 -0.0007211391292261636
vn 1 -2.2092346720786482e-15 -4.871258189669411e-16
vn 0.0005989779510696959 -0.9997177953732618 -0.02374807022558868
vn -0.8129502495958335 0.5821515307827831 -0.014542588811292004
vn 0.9293816148325378 -0.3689467280366492 0.011319270396784114
vn 0.2860654923483248 -0.24753762177637098 0.9256844278115566
vn 0.3962481867170344 -0.19044159211212758 -0.8981755811183358
vn -1 2.305269682386083e-15 1.2594692168818952e-18
vn 1 -2.360780833617341e-15 -2.1268309548702988e-18
vn -0.05707481441532121 -0.9654423180287186 -0.2542903775583955
vn -0.7905580396496448 0.553287578889362 0.2624706478676408
vn 0.921045732365984 -0.34545030509407076 -0.17983004643502107
vn -0.28606897358507516 0.2475373532903583 -0.9256834237891407
vn 0.5970958719005144 -0.3704008306417645 0.7115333754780977
vn 0.9912351795247958 0.05271927147699681 -0.12113421187831647
vn -0.9641804252668232 0.015227928101933984 0.26480977651516274
vn -0.6319516927911013 0.7687562700411058 0.09823876653820637
vn 0.045363422666699904 -0.9852336646583033 0.16509629283521882
vn -0.09154964292278323 -0.03817249333395577 0.9950686024759198
vn -0.2785739956846308 0.027988306896498293 -0.9600068664365723
vn 0.9740387393712207 -0.03638931787109771 0.22343757908865686
vn -0.9683117950888388 0.12267986581978207 -0.21753601544174433
vn 0.012965384098076797 0.99835023844383 0.055934785369547456
vn 0.08269603060828523 -0.9315900348626635 -0.3539793404511274
vn -0.27075271558856123 -0.20161283821208464 0.9412997559064209
vn 0.27225371381595087 0.10663027540034442 -0.9562990639342219
vn -0.4342691201422734 0.4811160917114145 0.7615363665559179
vn -0.3251827699195478 -0.10431924207253927 0.9398795996726718
vn 1 1.197641484294695e-15 -1.2819061908037453e-16
vn -0.01072868974807076 -0.9984057153348251 -0.05541590749095522
vn -0.7600895236527705 0.6008785100759079 -0.2474043899413703
vn 0.8717927750618886 -0.4457673788384648 0.20314724047689162
vn -0.39624553620371966 0.1904418293785536 0.8981767001328729
vn 0.3409293597725815 -0.3898423779695278 -0.85544730520595
vn -1 -1.1977156223808138e-15 1.3102183836448113e-16
vn -0.9891867295571545 0.04216796872368852 0.1404687740451206
vn -0.9975690410360807 0.06682254432999475 0.01976754753682333
vn -0.5970958719005144 0.3704008306417645 -0.7115333754780977
vn -0.016715050201548176 -0.9969770318642368 -0.07587756606492166
vn 0.11048684897804995 -0.8922805958585182 -0.43775334888184436
vn 0.9944943366890643 -0.10474805825551006 0.0029763375276368703
vn 0.9930936813337728 -0.1055027593347593 -0.051323560551533365
vn 0.9826271054353521 -0.06615277335308378 -0.1734006408334095
vn -0.2804635962032555 0.8184192943244095 -0.5015276960271218
vn 0.16430020057802758 -0.4486277739456651 0.8784865192674144
vn -0.425235634324779 0.5635282340335921 0.7082447209456517
vn 1 -4.718447854656915e-16 -1.3010426069826053e-17
vn 0.19537026131871213 -0.978340457977026 0.06841351677527852
vn -0.15657816889999307 0.5160510212278746 0.8421250622761404
vn 0.11660659037333251 -0.565007432710842 -0.816804446647427
vn -0.24126741367910973 -0.05643680837832385 -0.9688162476737586
vn 0.9999999949662508 0.000006139478320069682 0.00010014891513207823
vn 0.04031706799232593 -0.9886400373774216 0.1447943732431366
vn -0.3985585174909859 0.053216134866545306 0.9155977015727232
vn 0.26711399763669275 0.030736331925041008 -0.9631746415714747
vn -0.9987152100880896 0.05066960723214034 -0.0007211391292258041
vn 1 -6.990274373770587e-16 1.779995017061281e-16
vn -1 -1.9048968791545253e-15 -4.3953952944797045e-16
vn 1.8041124150158798e-15 0.9996573249755575 0.026176948307873097
vn -1.6098233857064774e-15 -0.9996573249755575 -0.026176948307873107
vn 7.88860905221012e-31 -0.026176948307872712 0.9996573249755575
vn 0 0.026176948307873156 -0.9996573249755575
vn 0.9723699203976761 0.23336536796014212 0.006110887222369088
vn -0.9999999999927922 -0.0000036361705944716282 0.0000010926371201766753
vn -0.22645441104396374 0.973687992593868 0.025496917406921914
vn 0.1716732733478245 -0.9848163532224553 -0.025788323785534584
vn -0.03986918058921979 -0.03572339850809247 0.9985661156068618
vn -0.016109541426576855 0.022307122198730527 -0.9996213658051915
vn 1 -1.5276916796710587e-15 3.446056112570786e-18
vn -1 3.229840857071593e-16 3.9372104272053506e-16
vn -0.22613343636770794 0.8999477194053873 0.37277040023796687
vn 0.17470138620337028 -0.8733699043771633 -0.45464759516228137
vn -0.06391902341146481 0.46080437813553543 -0.8851969744284304
vn 0.1643002005780244 -0.4486277739456665 0.8784865192674143
vn 1 -1.0166562365048385e-15 6.397109850880198e-16
vn -1 -1.909139211799285e-17 -3.3087181884143584e-16
vn 1.6930901125533637e-15 0.9238795325112856 0.3826834323650926
vn -1.609823385706477e-15 -0.9238795325112866 -0.38268343236509034
vn 6.38378239159465e-16 0.3826834323650903 -0.9238795325112866
vn -6.106226635438362e-16 -0.3826834323650926 0.9238795325112857
vn -1 8.653656790528214e-16 1.9562795777277816e-15
vn 1 2.406444453895582e-16 -7.059624418208154e-16
vn 2.7755575615628914e-17 0.5224985647159492 0.852640164354092
vn -1.2490009027033014e-16 -0.5224985647159475 -0.8526401643540933
vn 4.163336342344338e-16 -0.852640164354092 0.5224985647159495
vn 1.4432899320127035e-15 0.8526401643540964 -0.5224985647159421
vn -1 2.9417942341666218e-16 -6.270259848981584e-16
vn 1 4.1522721221894217e-16 -2.0689591698421104e-15
vn -1.3877787807814457e-17 0.052132099196043814 0.9986401975854036
vn 2.7755575615628914e-17 -0.052132099196043745 -0.9986401975854036
vn 1.6653345369377353e-16 -0.9975640502598243 0.06975647374412684
vn -3.885780586188048e-16 0.9975640502598244 -0.06975647374412297
vn 1 -9.352581397034911e-16 2.8344258738011726e-15
vn -1 2.272172350852407e-15 -6.158739928999846e-15
vn -1.27675647831893e-15 0.9304175679820212 0.3665012267243057
vn 1.3045120539345591e-15 -0.9304175679820259 -0.36650122672429425
vn 4.163336342344337e-16 -0.36650122672429725 0.9304175679820246
vn -5.412337245047638e-16 0.3665012267242966 -0.9304175679820248
vn 0.0630827262754107 -0.9574190850863086 -0.28172551385729605
vn 0.27721549480951624 0.3918222980170658 -0.8772837945694316
vn -0.2854519895351483 0.5049993858389655 -0.81455066261878
vn -0.07124289701424778 -0.9465352026693626 -0.3146355983239757
vn -0.0032220949713406563 -0.9455173590737065 -0.32555574299078127
usemtl m_2bf61c33-3ba9-a63e-ce65-180e28551863
f 4/1/1 2/2/1 3/3/1 5/4/1
f 7/5/2 6/6/2 8/7/2 9/8/2
f 3/9/3 2/10/3 6/11/3 7/12/3
f 8/13/4 4/14/4 5/15/4 9/16/4
f 6/17/5 2/18/5 4/19/5 8/20/5
f 5/21/6 3/22/6 7/23/6 9/24/6
f 11/25/7 10/26/7 12/27/7 13/28/7
f 16/29/8 14/30/8 15/31/8 17/32/8
f 21/33/9 20/34/9 22/35/9 23/36/9
f 25/37/10 24/38/10 41/39/10 26/40/10
f 24/41/11 20/42/11 21/43/11 41/44/11
f 23/45/12 22/46/12 25/47/12 26/48/12
f 22/49/13 20/50/13 24/51/13 25/52/13
f 41/53/14 21/54/14 23/55/14 26/56/14
f 29/57/15 27/58/15 28/59/15 30/60/15
f 32/61/16 31/62/16 33/63/16 34/64/16
f 28/65/17 27/66/17 31/67/17 32/68/17
f 33/69/18 29/70/18 30/71/18 34/72/18
f 31/73/19 27/74/19 29/75/19 33/76/19
f 30/77/20 28/78/20 32/79/20 34/80/20
f 39/81/21 37/82/21 38/83/21 40/84/21
f 42/85/22 41/86/22 126/87/22 43/88/22
f 38/89/23 37/90/23 41/91/23 42/92/23
f 126/93/24 39/94/24 40/95/24 43/96/24
f 41/97/25 37/98/25 39/99/25 126/100/25
f 40/101/26 38/102/26 42/103/26 43/104/26
f 44/105/27 45/106/27 47/107/27 46/108/27
f 49/109/28 48/110/28 50/111/28 51/112/28
f 49/113/29 45/114/29 44/115/29 48/116/29
f 50/117/30 46/118/30 47/119/30 51/120/30
f 48/121/31 44/122/31 46/123/31 50/124/31
f 45/125/32 49/126/32 51/127/32 47/128/32
f 54/129/33 53/130/33 57/131/33 58/132/33
f 53/133/34 52/134/34 55/135/34 57/136/34
f 56/137/35 60/138/35 54/139/35 58/140/35
f 57/141/36 55/142/36 101/143/36 58/144/36
f 101/145/37 56/146/37 58/147/37
f 64/148/38 62/149/38 63/150/38 65/151/38
f 67/152/39 64/153/39 65/154/39 68/155/39
f 65/156/40 63/157/40 51/158/40 68/159/40
f 49/160/41 66/161/41 67/162/41 68/163/41
f 51/164/42 49/165/42 68/166/42
f 66/167/43 62/168/43 64/169/43 67/170/43
f 62/171/44 66/172/44 49/173/44 63/174/44
f 51/175/45 63/176/45 49/177/45
f 63/178/46 60/179/46 61/180/46 62/181/46
f 65/182/47 60/183/47 59/184/47 63/185/47
f 71/186/48 69/187/48 70/188/48 72/189/48
f 49/190/49 73/191/49 74/192/49 75/193/49
f 70/194/50 69/195/50 73/196/50 49/197/50
f 74/198/51 71/199/51 72/200/51 75/201/51
f 73/202/52 69/203/52 71/204/52 74/205/52
f 72/206/53 70/207/53 49/208/53 75/209/53
f 77/210/54 76/211/54 62/212/54 78/213/54
f 80/214/55 79/215/55 81/216/55 82/217/55
f 62/218/56 76/219/56 79/220/56 80/221/56
f 81/222/57 77/223/57 78/224/57 82/225/57
f 79/226/58 76/227/58 77/228/58 81/229/58
f 78/230/59 62/231/59 80/232/59 82/233/59
f 62/234/60 83/235/60 84/236/60 85/237/60
f 87/238/61 86/239/61 52/240/61 88/241/61
f 84/242/62 83/243/62 86/244/62 87/245/62
f 52/246/63 62/247/63 85/248/63 88/249/63
f 52/250/64 89/251/64 90/252/64 91/253/64
f 92/254/65 89/255/65 52/256/65 93/257/65
f 91/258/66 90/259/66 94/260/66 95/261/66
f 90/262/67 89/263/67 92/264/67 94/265/67
f 93/266/68 52/267/68 91/268/68 95/269/68
f 101/270/69 96/271/69 97/272/69 98/273/69
f 102/274/70 101/275/70 99/276/70 100/277/70
f 42/278/71 43/279/71 35/280/71 24/281/71
f 36/282/72 50/283/72 48/284/72
f 41/285/73 126/286/73 39/287/73 104/288/73
f 107/289/74 105/290/74 106/291/74 108/292/74
f 105/293/75 126/294/75 41/295/75 106/296/75
f 104/297/76 39/298/76 107/299/76 108/300/76
f 39/301/77 126/302/77 105/303/77 107/304/77
f 106/305/78 41/306/78 104/307/78 108/308/78
f 110/309/79 109/310/79 111/311/79 112/312/79
f 115/313/80 113/314/80 114/315/80 116/316/80
f 113/317/81 109/318/81 110/319/81 114/320/81
f 112/321/82 111/322/82 115/323/82 116/324/82
f 111/325/83 109/326/83 113/327/83 115/328/83
f 114/329/84 110/330/84 112/331/84 116/332/84
f 118/333/85 117/334/85 119/335/85 120/336/85
f 122/337/86 121/338/86 41/339/86 123/340/86
f 121/341/87 117/342/87 118/343/87 41/344/87
f 120/345/88 119/346/88 122/347/88 123/348/88
f 119/349/89 117/350/89 121/351/89 122/352/89
f 41/353/90 118/354/90 120/355/90 123/356/90
f 43/357/91 40/358/91 18/359/91 35/360/91
f 19/361/92 46/362/92 50/363/92 36/364/92
f 85/365/93 84/366/93 87/367/93 88/368/93
f 46/369/94 19/370/94 44/371/94
f 44/372/95 19/373/95 18/374/95 38/375/95
f 18/376/96 40/377/96 38/378/96
f 96/379/97 124/380/97 125/381/97 97/382/97
f 86/383/98 83/384/98 62/385/98 52/386/98
f 54/387/99 60/388/99 52/389/99 53/390/99
f 60/391/100 56/392/100 101/393/100
f 101/394/101 55/395/101 52/396/101 60/397/101
f 24/398/102 35/399/102 36/400/102 48/401/102
f 128/402/103 127/403/103 129/404/103 130/405/103
f 133/406/104 131/407/104 132/408/104 134/409/104
f 131/410/105 127/411/105 128/412/105 132/413/105
f 130/414/106 129/415/106 133/416/106 134/417/106
f 129/418/107 127/419/107 131/420/107 133/421/107
f 132/422/108 128/423/108 130/424/108 134/425/108
f 136/426/109 135/427/109 137/428/109 138/429/109
f 143/430/110 141/431/110 142/432/110 144/433/110
f 154/434/111 145/435/111 146/436/111 147/437/111
f 142/438/112 141/439/112 145/440/112 154/441/112
f 146/442/113 143/443/113 144/444/113 147/445/113
f 145/446/114 141/447/114 143/448/114 146/449/114
f 142/450/115 154/451/115 144/452/115 147/453/115
f 151/454/116 150/455/116 152/456/116 153/457/116
f 191/458/117 154/459/117 155/460/117 156/461/117
f 154/462/118 150/463/118 151/464/118 155/465/118
f 153/466/119 152/467/119 191/468/119 156/469/119
f 152/470/120 150/471/120 154/472/120 191/473/120
f 155/474/121 151/475/121 153/476/121 156/477/121
f 160/478/122 158/479/122 157/480/122 159/481/122
f 163/482/123 161/483/123 162/484/123 164/485/123
f 157/486/124 158/487/124 162/488/124 161/489/124
f 160/490/125 159/491/125 163/492/125 164/493/125
f 159/494/126 157/495/126 161/496/126 163/497/126
f 164/498/127 162/499/127 158/500/127 160/501/127
f 166/502/128 165/503/128 162/504/128 167/505/128
f 162/506/129 164/507/129 167/508/129
f 169/509/130 168/510/130 170/511/130 171/512/130
f 173/513/131 172/514/131 162/515/131 174/516/131
f 172/517/132 168/518/132 169/519/132 162/520/132
f 171/521/133 170/522/133 173/523/133 174/524/133
f 170/525/134 168/526/134 172/527/134 173/528/134
f 162/529/135 169/530/135 171/531/135 174/532/135
f 177/533/136 175/534/136 176/535/136 178/536/136
f 148/537/137 156/538/137 155/539/137 145/540/137
f 163/541/138 149/542/138 161/543/138
f 179/544/139 180/545/139 154/546/139 181/547/139
f 139/548/140 153/549/140 156/550/140 148/551/140
f 163/552/141 159/553/141 140/554/141 149/555/141
f 140/556/142 159/557/142 157/558/142
f 139/559/143 140/560/143 157/561/143 151/562/143
f 153/563/144 139/564/144 151/565/144
f 179/566/145 182/567/145 183/568/145 180/569/145
f 185/570/146 184/571/146 136/572/146 138/573/146
f 186/574/147 154/575/147 187/576/147 188/577/147
f 183/578/148 182/579/148 189/580/148 190/581/148
f 190/582/149 189/583/149 154/584/149 181/585/149
f 189/586/150 182/587/150 179/588/150 154/589/150
f 180/590/151 183/591/151 190/592/151 181/593/151
f 152/594/152 191/595/152 154/596/152 186/597/152
f 187/598/153 192/599/153 193/600/153 188/601/153
f 192/602/154 191/603/154 152/604/154 193/605/154
f 154/606/155 191/607/155 192/608/155 187/609/155
f 193/610/156 152/611/156 186/612/156 188/613/156
f 149/614/157 148/615/157 145/616/157 161/617/157
f 195/618/158 194/619/158 196/620/158 197/621/158
f 200/622/159 198/623/159 199/624/159 201/625/159
f 198/626/160 194/627/160 195/628/160 199/629/160
f 197/630/161 196/631/161 200/632/161 201/633/161
f 196/634/162 194/635/162 198/636/162 200/637/162
f 199/638/163 195/639/163 197/640/163 201/641/163
f 203/642/164 202/643/164 204/644/164 205/645/164
f 208/646/165 206/647/165 207/648/165 209/649/165
f 206/650/166 202/651/166 203/652/166 207/653/166
f 205/654/167 204/655/167 208/656/167 209/657/167
f 204/658/168 202/659/168 206/660/168 208/661/168
f 207/662/169 203/663/169 205/664/169 209/665/169
f 212/666/170 210/667/170 211/668/170 213/669/170
f 215/670/171 214/671/171 216/672/171 217/673/171
f 211/674/172 210/675/172 214/676/172 215/677/172
f 216/678/173 212/679/173 213/680/173 217/681/173
f 214/682/174 210/683/174 212/684/174 216/685/174
f 213/686/175 211/687/175 215/688/175 217/689/175
f 220/690/176 218/691/176 219/692/176 221/693/176
f 223/694/177 222/695/177 224/696/177 225/697/177
f 219/698/178 218/699/178 222/700/178 223/701/178
f 224/702/179 220/703/179 221/704/179 225/705/179
f 222/706/180 218/707/180 220/708/180 224/709/180
f 221/710/181 219/711/181 223/712/181 225/713/181
f 228/714/182 226/715/182 227/716/182 229/717/182
f 231/718/183 230/719/183 232/720/183 233/721/183
f 227/722/184 226/723/184 230/724/184 231/725/184
f 232/726/185 228/727/185 229/728/185 233/729/185
f 230/730/186 226/731/186 228/732/186 232/733/186
f 229/734/187 227/735/187 231/736/187 233/737/187
f 235/738/188 234/739/188 1/740/188 236/741/188
f 238/742/189 237/743/189 239/744/189 240/745/189
f 1/746/190 234/747/190 237/748/190 238/749/190
f 239/750/191 235/751/191 236/752/191 240/753/191
f 237/754/192 234/755/192 235/756/192 239/757/192
f 236/758/193 1/759/193 238/760/193 240/761/193
f 242/762/194 241/763/194 243/764/194 244/765/194
f 247/766/195 245/767/195 246/768/195 248/769/195
f 245/770/196 241/771/196 242/772/196 246/773/196
f 244/774/197 243/775/197 247/776/197 248/777/197
f 243/778/198 241/779/198 245/780/198 247/781/198
f 246/782/199 242/783/199 244/784/199 248/785/199
f 148/786/200 149/787/200 140/788/200 139/789/200
f 103/790/201 64/791/201 65/792/201 59/793/201
f 53/794/202 103/795/202 59/796/202 54/797/202
f 18/798/203 19/799/203 36/800/203 35/801/203
f 54/802/204 60/803/204 59/804/204
