# Made in Blockbench 5.2.1
mtllib pakol_h.mtl

o mesh
v 0.08164036581749436 1.990112998954899 -0.275614104161139
v 0.08115017557586879 1.9988867275063587 -0.3311734769152686
v 0.0828677582340772 1.8512162524615223 -0.297558988449064
v 0.08237756799245163 1.859989981012982 -0.3531183612031935
v -0.0745977491572571 1.9885534864428975 -0.274481916075502
v -0.07508793939888267 1.9973272149943575 -0.3300412888296316
v -0.07337035674067426 1.8496567399495212 -0.29642680036342695
v -0.07386054698229982 1.858430468500981 -0.3519861731175565
v 0.04651114780391625 1.990087164617835 -0.2697078615409993
v 0.05435094254737294 1.9988135543487262 -0.3248041179220598
v 0.046511147803916256 1.8506724861219794 -0.29178897736759046
v 0.05435094254737294 1.859398875852871 -0.3468852337486511
v 0.2773459801633107 1.986219109548896 -0.2375989979917846
v 0.2851856879235792 1.9949454024597526 -0.29269464307520415
v 0.27734598016331063 1.8468044310530407 -0.25968011381837564
v 0.28518568792357923 1.8555307239638974 -0.3147757589017953
v 0.23842438422464882 1.996533887169248 -0.28335081227141307
v 0.3004585187022314 1.9977254225155223 -0.2908738703687411
v 0.23842438422464882 1.857640214273057 -0.30534940891769546
v 0.3004585187022314 1.858831749619331 -0.31287246701502364
v 0.2860295964922846 1.935882158161533 0.09958913361870719
v 0.34806373096986726 1.9370736935078074 0.09206607552137902
v 0.28602959649228454 1.796988485265342 0.07759053697242468
v 0.34806373096986726 1.798180020611616 0.07006747887509662
v -0.0010386246741953273 1.9386868750000001 0.2857786740681701
v -0.002886456892641248 1.938384375 0.3485567949651683
v -0.0012091415590985413 1.7980625000000001 0.2855129443686392
v -0.0030569737775444795 1.7977599999999998 0.3482910652656372
v 0.2839245478082379 1.9383468750000004 0.24506448803465092
v 0.2926727079850233 1.9383468750000004 0.30731088208311713
v 0.2839245478082379 1.7975712500000003 0.24506448803465092
v 0.2926727079850233 1.7975712500000003 0.30731088208311713
v 0.2794895102721793 1.9377606250000001 0.05753474783669321
v 0.34078859029738123 1.9377606250000001 0.06972789296270127
v 0.27948951027217933 1.7971356250000001 0.05753474783669327
v 0.3407885902973812 1.7971356250000001 0.06972789296270132
v 0.23315555879334876 1.9377606250000001 0.29047125193246043
v 0.2944546388185506 1.937760625 0.3026643970584684
v 0.23315555879334882 1.7971356250000001 0.2904712519324603
v 0.29445463881855066 1.7971356250000001 0.3026643970584683
v -0.04651114780391626 1.990087164617835 -0.26970786154099924
v -0.054350942547372945 1.9988135543487264 -0.3248041179220598
v -0.046511147803916256 1.8506724861219797 -0.2917889773675904
v -0.05435094254737295 1.8593988758528712 -0.3468852337486511
v -0.2773459801633107 1.986219109548896 -0.23759899799178463
v -0.28518568792357923 1.9949454024597524 -0.29269464307520426
v -0.27734598016331063 1.8468044310530405 -0.25968011381837575
v -0.2851856879235793 1.8555307239638972 -0.3147757589017954
v -0.2384243842246488 1.9965338871692477 -0.28335081227141307
v -0.30045851870223145 1.9977254225155225 -0.2908738703687412
v -0.23842438422464876 1.8576402142730568 -0.3053494089176956
v -0.3004585187022314 1.8588317496193312 -0.3128724670150237
v -0.2860295964922845 1.935882158161533 0.09958913361870714
v -0.34806373096986715 1.9370736935078074 0.09206607552137902
v -0.28602959649228454 1.796988485265342 0.07759053697242463
v -0.34806373096986715 1.7981800206116159 0.07006747887509657
v 0.0010386246741953212 1.9386868750000004 0.2857786740681702
v 0.0028864568926412464 1.938384375 0.3485567949651683
v 0.00120914155909853 1.7980625000000003 0.2855129443686391
v 0.003056973777544475 1.79776 0.3482910652656371
v -0.2839245478082379 1.9383468750000001 0.24506448803465103
v -0.2926727079850233 1.9383468750000001 0.30731088208311713
v -0.2839245478082379 1.79757125 0.24506448803465103
v -0.29267270798502326 1.79757125 0.30731088208311713
v -0.27948951027217933 1.937760625 0.057534747836693156
v -0.3407885902973812 1.937760625 0.06972789296270121
v -0.2794895102721793 1.7971356250000001 0.05753474783669321
v -0.3407885902973811 1.7971356250000001 0.06972789296270127
v -0.23315555879334876 1.937760625 0.29047125193246054
v -0.2944546388185507 1.937760625 0.30266439705846854
v -0.2331555587933488 1.797135625 0.29047125193246043
v -0.2944546388185506 1.7971356250000001 0.3026643970584684
v 0.290625 2.047204208639055 0.2997477058032321
v 0.290625 2.052658744836402 -0.2820141101789377
v 0.2906250000000001 1.9223755167947336 0.29320571127286416
v 0.290625 1.9527957913609446 -0.287247705803232
v -0.290625 2.047204208639055 0.2997477058032321
v -0.2906250000000001 2.052658744836402 -0.28201411017893757
v -0.29062499999999997 1.9223755167947338 0.29320571127286416
v -0.2906250000000001 1.9527957913609446 -0.287247705803232
v -0.0002118750000000072 2.105814916810251 0.13675490228897696
vt 0.875 0.1875
vt 0.84375 0.1875
vt 0.84375 0.125
vt 0.875 0.125
vt 0.90625 0.9375
vt 0.90625 1
vt 0.875 1
vt 0.875 0.9375
vt 0.5625 0.125
vt 0.65625 0.125
vt 0.65625 0.15625
vt 0.5625 0.15625
vt 0.9375 0.40625
vt 0.9375 0.4375
vt 0.84375 0.4375
vt 0.84375 0.40625
vt 0.84375 0.9375
vt 0.84375 1
vt 0.75 1
vt 0.75 0.9375
vt 0.1875 0.25
vt 0.09375 0.25
vt 0.09375 0.1875
vt 0.1875 0.1875
vt 0.03125 0.03125
vt 0.03125 0.09375
vt 0 0.09375
vt 0 0.03125
vt 0.09375 0.09375
vt 0.0625 0.09375
vt 0.0625 0.03125
vt 0.09375 0.03125
vt 0.157821875 0.03125
vt 0.1859875 0.03125
vt 0.185925 0.15625
vt 0.1577625 0.15625
vt 0.625 0.21875
vt 0.5 0.21875
vt 0.5 0.1875
vt 0.625 0.1875
vt 0.808454375 0.4375
vt 0.6919090625 0.4375
vt 0.691545625 0.375
vt 0.8080909375 0.375
vt 0.40625 0.19559125
vt 0.46875 0.1959546875
vt 0.46875 0.3125
vt 0.40625 0.3121365625
vt 0.375 0.03125
vt 0.375 0.09375
vt 0.34375 0.09375
vt 0.34375 0.03125
vt 0.4375 0.09375
vt 0.40625 0.09375
vt 0.40625 0.03125
vt 0.4375 0.03125
vt 0.75 0.90625
vt 0.75 0.875
vt 0.9375 0.875
vt 0.9375 0.90625
vt 0.9375 0.625
vt 0.75 0.625
vt 0.75 0.59375
vt 0.9375 0.59375
vt 0.5 0.625
vt 0.3125 0.625
vt 0.3125 0.5625
vt 0.5 0.5625
vt 0.5 0.46875
vt 0.5 0.53125
vt 0.3125 0.53125
vt 0.3125 0.46875
vt 0.8125 0.12484968750000003
vt 0.8125 0.15625
vt 0.75 0.15604531249999998
vt 0.75 0.12464187500000001
vt 0.59375 0.03125
vt 0.59375 0.09375
vt 0.5625 0.09375
vt 0.5625 0.03125
vt 0.3125 0.06946812499999999
vt 0.3125 0.21339406250000004
vt 0.28173375 0.21875
vt 0.28125 0.06954031250000003
vt 0.902785 0.2973553125
vt 0.897459375 0.32830312500000003
vt 0.753465 0.32830312500000003
vt 0.7535065625 0.296875
vt 0.65625 0.367190625
vt 0.65625 0.4375
vt 0.500065625 0.43746562499999997
vt 0.5 0.36707812500000003
vt 0.0625 0.1875
vt 0.0625 0.34369312500000004
vt 0.000075 0.34375
vt 0 0.1875
vt 0.65625 0.03125
vt 0.65625 0.09375
vt 0.625 0.09375
vt 0.625 0.03125
vt 0.9375 0.1875
vt 0.90625 0.1875
vt 0.90625 0.125
vt 0.9375 0.125
vt 0.8125 0.84375
vt 0.8125 0.8125
vt 0.9375 0.8125
vt 0.9375 0.84375
vt 0.9375 0.78125
vt 0.8125 0.78125
vt 0.8125 0.75
vt 0.9375 0.75
vt 0.21875 0.34375
vt 0.09375 0.34375
vt 0.09375 0.28125
vt 0.21875 0.28125
vt 0.78125 0.75
vt 0.78125 0.8125
vt 0.65625 0.8125
vt 0.65625 0.75
vt 0.875 0.09375
vt 0.84375 0.09375
vt 0.84375 0.03125
vt 0.875 0.03125
vt 0.9375 0.03125
vt 0.9375 0.09375
vt 0.90625 0.09375
vt 0.90625 0.03125
vt 0.9375 0.71875
vt 0.8125 0.71875
vt 0.8125 0.6875
vt 0.9375 0.6875
vt 0.501571875 0.03125
vt 0.5297375 0.03125
vt 0.529675 0.15625
vt 0.5015125 0.15625
vt 0.65625 0.19559125
vt 0.71875 0.1959546875
vt 0.71875 0.3125
vt 0.65625 0.3121365625
vt 0.620954375 0.3125
vt 0.5044090625 0.3125
vt 0.504045625 0.25
vt 0.6205909375 0.25
vt 0.96875 1
vt 0.9375 1
vt 0.9375 0.9375
vt 0.96875 0.9375
vt 0.96875 0.3125
vt 0.96875 0.375
vt 0.9375 0.375
vt 0.9375 0.3125
vt 0.75 0.53125
vt 0.9375 0.53125
vt 0.9375 0.5625
vt 0.75 0.5625
vt 0.9375 0.46875
vt 0.9375 0.5
vt 0.75 0.5
vt 0.75 0.46875
vt 0.71875 0.5625
vt 0.71875 0.625
vt 0.53125 0.625
vt 0.53125 0.5625
vt 0.71875 0.53125
vt 0.53125 0.53125
vt 0.53125 0.46875
vt 0.71875 0.46875
vt 0.71875 0.0859375
vt 0.71875 0.15625
vt 0.6875 0.15615875
vt 0.6875 0.08584593750000002
vt 0.96875 0.28125
vt 0.9375 0.28125
vt 0.9375 0.21875
vt 0.96875 0.21875
vt 0.9027659375 0.21905687500000004
vt 0.89741 0.25
vt 0.7534840625 0.25
vt 0.75355625 0.21857312500000003
vt 0.25 0.0625
vt 0.25 0.206494375
vt 0.2192303125 0.21182
vt 0.21875 0.06254124999999999
vt 0.71875 0.856071875
vt 0.71875 1
vt 0.656328125 1
vt 0.65625 0.855989375
vt 0.46875 0.359375
vt 0.46875 0.4296875
vt 0.312565625 0.429808125
vt 0.3125 0.35942062500000005
vt 0.78125 0.0625
vt 0.75 0.0625
vt 0.75 0
vt 0.78125 0
vt 1 0.84375
vt 1 0.90625
vt 0.96875 0.90625
vt 0.96875 0.84375
vt 0 0.125
vt 0.125 0.125
vt 0.125 0.15625
vt 0 0.15625
vt 0.46875 0.125
vt 0.46875 0.15625
vt 0.34375 0.15625
vt 0.34375 0.125
vt 0.78125 0.65625
vt 0.78125 0.71875
vt 0.65625 0.71875
vt 0.65625 0.65625
vt 0.375 0.3125
vt 0.25 0.3125
vt 0.25 0.25
vt 0.375 0.25
vt 0.625 0.9875
vt 0.34375 1
vt 0.34375 0.9375
vt 0.625 0.9375
vt 0.625 0.84375
vt 0.625 0.90625
vt 0.34375 0.89375
vt 0.34375 0.84375
vt 0.28125 0.375
vt 0.28125 0.65625
vt 0 0.65625
vt 0 0.375
vt 0.625 0.75
vt 0.625 0.8125
vt 0.34375 0.8125
vt 0.34375 0.75
vt 0.625 0.71875
vt 0.34375 0.71875
vt 0.34375 0.65625
vt 0.625 0.65625
vt 0.2974065625 1
vt 0.00709125 0.986583125
vt 0.1563534375 0.9067825
vt 0.1563525 0.906784375
vt 0.301559375 0.6957178125
vt 0.30540875 0.9865859375
vt 0.00709125 0.986583125
vt 0.010934375 0.6957178125
vt 0.1563528125 0.9067828125
vt 0.010934375 0.6957178125
vt 0.301559375 0.6957178125
vt 0.156353125 0.9067834375
vn 0.9999239358384093 0.009980880076807745 -0.007246003748077057
vn -0.9999239358384093 -0.009980880076807745 0.007246003748077057
vn -0.0087281238512558 0.987710197286233 0.1560525104919107
vn 0.0087281238512558 -0.987710197286233 -0.1560525104919107
vn 0.008714493184454518 -0.15597739647039613 0.9877221822956368
vn -0.008714493184454518 0.15597739647039613 -0.9877221822956368
vn -0.9902680687415703 0.021771469596677855 -0.13745964914272682
vn 0.9902680687415704 -0.021771469596677934 0.1374596491427267
vn -0.005108759122698857 0.9877875151480412 0.1557232336483048
vn 0.0051087591227003465 -0.9877875151480406 -0.1557232336483085
vn -0.1386552954747141 -0.15492341816179522 0.9781479660776715
vn 0.1386579509838021 0.1549233600002014 -0.978147598859815
vn -0.1218693434051478 0.15526842625975018 -0.9803262614787073
vn 0.12186934340514866 -0.15526842625975062 0.9803262614787072
vn -1.7201553563169808e-15 0.9876883405951379 0.15643446504023098
vn -5.404011758209077e-15 -0.9876883405951378 -0.1564344650402307
vn -0.9925461516413222 -0.019064565540388555 0.12036892955724929
vn 0.9925461516413221 0.01906456554038858 -0.12036892955724929
vn -0.9995664677703641 0.001267628910112761 -0.029415465762487554
vn 0.9902680687415704 9.714451465470122e-17 -0.13917310096006522
vn 0.001889509806256993 0.99998633631685 0.0048741083591055685
vn -0.00241648054737422 -0.9999851260398794 -0.004889613560457667
vn -0.14143624527534843 0.0020421432948536104 -0.9899452601902669
vn 0.1382122515144961 -0.0020390942794552285 0.990400532928882
vn 0.19509032201612872 -2.498001805406602e-16 -0.9807852804032303
vn -0.19509032201612753 -5.273559366969495e-16 0.9807852804032308
vn -7.376911581591374e-16 1 -1.387778780781446e-16
vn 6.860831347488275e-16 -1 2.498001805406603e-16
vn -0.9807852804032304 -3.7470027081099043e-16 -0.19509032201612847
vn 0.9807852804032304 3.677613769070832e-16 0.19509032201612872
vn 0.9902680687415704 0.02177146959667789 -0.13745964914272668
vn -0.9902680687415704 -0.02177146959667772 0.137459649142727
vn 0.005108759122697641 0.9877875151480416 0.15572323364830287
vn -0.0051087591226991295 -0.9877875151480411 -0.1557232336483066
vn 0.138655295474714 -0.15492341816179528 0.9781479660776715
vn -0.1386579509838017 0.1549233600002014 -0.9781475988598151
vn 0.12186934340514965 0.15526842625975093 -0.980326261478707
vn -0.12186934340514868 -0.15526842625975054 0.9803262614787073
vn 6.092439480155904e-15 0.9876883405951379 0.15643446504023104
vn 1.0248200806852947e-15 -0.9876883405951378 -0.15643446504023073
vn 0.9925461516413222 -0.019064565540388666 0.12036892955724904
vn -0.9925461516413222 0.019064565540388365 -0.12036892955724912
vn 0.9995664677703642 0.0012676289101127669 -0.02941546576248768
vn -0.9902680687415703 -1.387778780781446e-17 -0.13917310096006583
vn -0.0018895098062580568 0.9999863363168499 0.004874108359106512
vn 0.0024164805473756534 -0.9999851260398795 -0.004889613560459058
vn 0.14143624527534837 0.002042143294854693 -0.9899452601902667
vn -0.13821225151449598 -0.0020390942794547566 0.9904005329288819
vn -0.19509032201612878 -3.60822483003176e-16 -0.9807852804032305
vn 0.1950903220161282 -4.996003610813205e-16 0.9807852804032307
vn -1.1416648876272364e-15 1 9.159339953157543e-16
vn 1.1713720271533392e-15 -1 -8.881784197001254e-16
vn 0.9807852804032304 2.393918396847994e-16 -0.19509032201612864
vn -0.9807852804032304 -2.498001805406602e-16 0.19509032201612828
vn 1 2.2269512622852266e-16 -1.7347234759768074e-17
vn -1 -2.2594773274597917e-16 1.5612511283791267e-17
vn -2.1597307275911258e-16 -0.998629534754574 -0.05233595624294334
vn -1.0408340855860846e-17 -0.05233595624294374 0.998629534754574
vn -1.7000290064572714e-16 0.05233595624294332 -0.9986295347545739
vn 1.778091562876228e-16 0.9410100761204705 0.3383785404539515
vn -0.19285773708330867 0.9811836030855011 0.009199471901120805
vn 0.19258717225800065 0.9812367408691673 0.009199970115263635
vn 1.3617579286417938e-16 0.9920398992191928 -0.12592393877724004
usemtl m_7f7a8091-8c3e-db65-e543-09f61f068677
f 2/1/1 1/2/1 3/3/1 4/4/1
f 7/5/2 5/6/2 6/7/2 8/8/2
f 5/9/3 1/10/3 2/11/3 6/12/3
f 4/13/4 3/14/4 7/15/4 8/16/4
f 3/17/5 1/18/5 5/19/5 7/20/5
f 6/21/6 2/22/6 4/23/6 8/24/6
f 11/25/7 9/26/7 10/27/7 12/28/7
f 14/29/8 13/30/8 15/31/8 16/32/8
f 10/33/9 9/34/9 13/35/9 14/36/9
f 15/37/10 11/38/10 12/39/10 16/40/10
f 13/41/11 9/42/11 11/43/11 15/44/11
f 12/45/12 10/46/12 14/47/12 16/48/12
f 19/49/13 17/50/13 18/51/13 20/52/13
f 22/53/14 21/54/14 23/55/14 24/56/14
f 18/57/15 17/58/15 21/59/15 22/60/15
f 23/61/16 19/62/16 20/63/16 24/64/16
f 21/65/17 17/66/17 19/67/17 23/68/17
f 20/69/18 18/70/18 22/71/18 24/72/18
f 26/73/19 25/74/19 27/75/19 28/76/19
f 31/77/20 29/78/20 30/79/20 32/80/20
f 29/81/21 25/82/21 26/83/21 30/84/21
f 28/85/22 27/86/22 31/87/22 32/88/22
f 27/89/23 25/90/23 29/91/23 31/92/23
f 30/93/24 26/94/24 28/95/24 32/96/24
f 35/97/25 33/98/25 34/99/25 36/100/25
f 38/101/26 37/102/26 39/103/26 40/104/26
f 34/105/27 33/106/27 37/107/27 38/108/27
f 39/109/28 35/110/28 36/111/28 40/112/28
f 37/113/29 33/114/29 35/115/29 39/116/29
f 36/117/30 34/118/30 38/119/30 40/120/30
f 42/121/31 41/122/31 43/123/31 44/124/31
f 47/125/32 45/126/32 46/127/32 48/128/32
f 45/129/33 41/130/33 42/131/33 46/132/33
f 44/133/34 43/134/34 47/135/34 48/136/34
f 43/137/35 41/138/35 45/139/35 47/140/35
f 46/141/36 42/142/36 44/143/36 48/144/36
f 50/145/37 49/146/37 51/147/37 52/148/37
f 55/149/38 53/150/38 54/151/38 56/152/38
f 53/153/39 49/154/39 50/155/39 54/156/39
f 52/157/40 51/158/40 55/159/40 56/160/40
f 51/161/41 49/162/41 53/163/41 55/164/41
f 54/165/42 50/166/42 52/167/42 56/168/42
f 59/169/43 57/170/43 58/171/43 60/172/43
f 62/173/44 61/174/44 63/175/44 64/176/44
f 58/177/45 57/178/45 61/179/45 62/180/45
f 63/181/46 59/182/46 60/183/46 64/184/46
f 61/185/47 57/186/47 59/187/47 63/188/47
f 60/189/48 58/190/48 62/191/48 64/192/48
f 66/193/49 65/194/49 67/195/49 68/196/49
f 71/197/50 69/198/50 70/199/50 72/200/50
f 69/201/51 65/202/51 66/203/51 70/204/51
f 68/205/52 67/206/52 71/207/52 72/208/52
f 67/209/53 65/210/53 69/211/53 71/212/53
f 70/213/54 66/214/54 68/215/54 72/216/54
f 74/217/55 73/218/55 75/219/55 76/220/55
f 79/221/56 77/222/56 78/223/56 80/224/56
f 76/225/57 75/226/57 79/227/57 80/228/57
f 75/229/58 73/230/58 77/231/58 79/232/58
f 78/233/59 74/234/59 76/235/59 80/236/59
f 77/237/60 73/238/60 81/239/60
f 81/240/61 78/241/61 77/242/61
f 73/243/62 74/244/62 81/245/62
f 74/246/63 78/247/63 81/248/63
