# Blender 4.4.3
# www.blender.org
mtllib saper_h.mtl
o saper_h
v -0.255697 2.132686 0.208541
v -0.255875 2.132412 0.189794
v -0.357801 1.975460 0.211813
v -0.357979 1.975185 0.193066
v -0.271600 2.142624 0.189794
v -0.271422 2.142898 0.208541
v -0.373704 1.985397 0.193066
v -0.373526 1.985672 0.211813
v 0.062500 2.250000 -0.312500
v 0.062500 2.250000 -0.406250
v 0.062500 2.125000 -0.312500
v 0.062500 2.125000 -0.406250
v -0.062500 2.250000 -0.406250
v -0.062500 2.250000 -0.312500
v -0.062500 2.125000 -0.406250
v -0.062500 2.125000 -0.312500
v 0.163165 2.131469 0.316037
v 0.234408 1.972483 0.385349
v 0.163165 2.131469 0.316037
v 0.234408 1.972483 0.385349
v 0.326218 1.976688 0.300625
v 0.254975 2.135674 0.231313
v 0.326218 1.976688 0.300625
v 0.254975 2.135674 0.231313
v -0.338305 2.035421 -0.272082
v -0.309897 2.080068 -0.238826
v -0.334919 2.031072 -0.269135
v -0.306512 2.075718 -0.235879
v -0.221509 2.089307 -0.326730
v -0.249917 2.044661 -0.359986
v -0.218124 2.084957 -0.323783
v -0.246531 2.040311 -0.357039
v -0.420151 2.016882 -0.095695
v -0.383035 2.062891 -0.075401
v -0.406881 2.004322 -0.091489
v -0.369765 2.050330 -0.071194
v -0.311282 2.080998 -0.247679
v -0.348398 2.034990 -0.267974
v -0.298012 2.068437 -0.243473
v -0.335128 2.022429 -0.263767
v -0.420723 1.998268 0.119848
v -0.380549 2.045883 0.124852
v -0.411148 1.990277 0.119008
v -0.370973 2.037892 0.124012
v -0.380549 2.067442 -0.080268
v -0.420723 2.019826 -0.085272
v -0.370973 2.059451 -0.081108
v -0.411148 2.011836 -0.086112
v -0.383035 2.042443 0.119145
v -0.420151 1.993221 0.129431
v -0.369765 2.031032 0.112419
v -0.406881 1.981809 0.122704
v -0.348398 1.975114 0.301709
v -0.311282 2.024336 0.291424
v -0.335128 1.963702 0.294983
v -0.298012 2.012924 0.284697
v -0.313283 2.028908 0.286357
v -0.341690 1.978323 0.309604
v -0.306512 2.021625 0.278784
v -0.334919 1.971040 0.302031
v -0.253302 1.969084 0.397509
v -0.224895 2.019669 0.374261
v -0.246531 1.961801 0.389935
v -0.218124 2.012386 0.366688
v -0.230411 2.015883 0.371851
v -0.245785 1.964388 0.403759
v -0.224915 2.005284 0.357394
v -0.240289 1.953789 0.389302
v -0.072558 1.956887 0.475119
v -0.057184 2.008383 0.443211
v -0.067061 1.946288 0.460662
v -0.051687 1.997783 0.428754
v 0.062500 1.960823 0.476109
v 0.062500 2.012638 0.441159
v 0.062500 1.953833 0.465746
v 0.062500 2.005648 0.430796
v -0.062500 2.012638 0.441159
v -0.062500 1.960823 0.476109
v -0.062500 2.005648 0.430796
v -0.062500 1.953833 0.465746
v 0.057184 2.008383 0.443211
v 0.072558 1.956887 0.475119
v 0.051687 1.997783 0.428754
v 0.067061 1.946288 0.460662
v 0.245785 1.964388 0.403759
v 0.230411 2.015883 0.371851
v 0.240289 1.953789 0.389302
v 0.224915 2.005284 0.357394
v 0.224895 2.019669 0.374261
v 0.253302 1.969084 0.397509
v 0.218124 2.012386 0.366688
v 0.246531 1.961801 0.389935
v 0.341690 1.978323 0.309604
v 0.313283 2.028908 0.286357
v 0.334919 1.971040 0.302031
v 0.306512 2.021625 0.278784
v 0.311282 2.024336 0.291424
v 0.348398 1.975114 0.301709
v 0.298012 2.012924 0.284697
v 0.335128 1.963702 0.294983
v 0.420151 1.993221 0.129431
v 0.383035 2.042443 0.119145
v 0.406881 1.981809 0.122704
v 0.369765 2.031032 0.112419
v 0.420723 2.019826 -0.085272
v 0.380549 2.067442 -0.080268
v 0.411148 2.011836 -0.086112
v 0.370973 2.059451 -0.081108
v 0.380549 2.045883 0.124852
v 0.420723 1.998268 0.119848
v 0.370973 2.037892 0.124012
v 0.411148 1.990277 0.119008
v 0.348398 2.034990 -0.267974
v 0.311282 2.080998 -0.247679
v 0.335128 2.022429 -0.263767
v 0.298012 2.068437 -0.243473
v 0.383035 2.062891 -0.075401
v 0.420151 2.016882 -0.095695
v 0.369765 2.050330 -0.071194
v 0.406881 2.004322 -0.091489
v 0.253302 2.049010 -0.362933
v 0.224895 2.093656 -0.329677
v 0.243146 2.035962 -0.354093
v 0.214738 2.080608 -0.320836
v 0.313283 2.084417 -0.241773
v 0.341690 2.039771 -0.275029
v 0.303127 2.071369 -0.232932
v 0.331534 2.026723 -0.266188
v 0.072558 2.053216 -0.441384
v 0.057184 2.096951 -0.399467
v 0.067061 2.039842 -0.429446
v 0.051687 2.083578 -0.387529
v 0.230411 2.089451 -0.328107
v 0.245785 2.045716 -0.370024
v 0.224915 2.076078 -0.316169
v 0.240289 2.032342 -0.358086
v 0.062500 2.100687 -0.396575
v 0.062500 2.057271 -0.441533
v 0.062500 2.091696 -0.387891
v 0.062500 2.048279 -0.432850
v -0.062500 2.057271 -0.441533
v -0.062500 2.100687 -0.396575
v -0.062500 2.048279 -0.432850
v -0.062500 2.091696 -0.387891
v -0.245785 2.045716 -0.370024
v -0.230411 2.089451 -0.328107
v -0.240289 2.032342 -0.358086
v -0.224915 2.076078 -0.316169
v -0.057184 2.096951 -0.399467
v -0.072558 2.053216 -0.441384
v -0.051687 2.083578 -0.387529
v -0.067061 2.039842 -0.429446
v -0.276042 2.026063 -0.301471
v -0.393406 1.978814 -0.355319
v -0.269413 2.008548 -0.300551
v -0.386777 1.961299 -0.354398
v -0.503427 1.951050 -0.091158
v -0.386064 1.998299 -0.037311
v -0.496798 1.933535 -0.090238
v -0.379435 1.980784 -0.036391
v -0.406881 2.004322 -0.091489
v -0.295532 2.142347 -0.030605
v -0.371494 1.970826 -0.080271
v -0.260146 2.108852 -0.019388
v -0.223779 2.160454 -0.202884
v -0.335128 2.022429 -0.263767
v -0.188393 2.126959 -0.191666
v -0.299741 1.988933 -0.252549
v -0.299684 2.140408 -0.032538
v -0.146029 2.219859 0.039809
v -0.278354 2.095377 -0.028387
v -0.124699 2.174828 0.043960
v -0.074276 2.237966 -0.132470
v -0.227930 2.158515 -0.204817
v -0.052946 2.192935 -0.128319
v -0.206600 2.113484 -0.200666
v -0.019547 2.040338 -0.437287
v -0.065951 2.002096 -0.553952
v -0.016801 2.022417 -0.432505
v -0.063205 1.984175 -0.549170
v -0.325792 1.990846 -0.446912
v -0.279388 2.029088 -0.330246
v -0.323046 1.972925 -0.442130
v -0.276642 2.011167 -0.325464
v -0.240289 2.032342 -0.358086
v -0.194167 2.163550 -0.232334
v -0.225631 1.996680 -0.326253
v -0.179509 2.127887 -0.200501
v -0.020939 2.171050 -0.303694
v -0.067061 2.039842 -0.429446
v -0.006282 2.135388 -0.271861
v -0.052404 2.004180 -0.397613
v -0.195886 2.161865 -0.236685
v -0.132240 2.231907 -0.074823
v -0.187051 2.115527 -0.220108
v -0.123405 2.185570 -0.058245
v 0.040987 2.239407 -0.146183
v -0.022659 2.169365 -0.308045
v 0.049822 2.193070 -0.129606
v -0.013824 2.123028 -0.291468
v 0.279388 2.029088 -0.330246
v 0.325792 1.990846 -0.446912
v 0.276642 2.011167 -0.325464
v 0.323046 1.972925 -0.442130
v 0.065951 2.002096 -0.553952
v 0.019547 2.040338 -0.437287
v 0.063205 1.984175 -0.549170
v 0.016801 2.022417 -0.432505
v 0.067061 2.039842 -0.429446
v 0.020939 2.171050 -0.303694
v 0.052404 2.004180 -0.397613
v 0.006282 2.135388 -0.271861
v 0.194167 2.163550 -0.232334
v 0.240289 2.032342 -0.358086
v 0.179509 2.127887 -0.200501
v 0.225631 1.996680 -0.326253
v 0.022659 2.169365 -0.308045
v -0.040987 2.239407 -0.146183
v 0.013824 2.123028 -0.291468
v -0.049822 2.193070 -0.129606
v 0.132240 2.231907 -0.074823
v 0.195886 2.161865 -0.236685
v 0.123405 2.185570 -0.058245
v 0.187051 2.115527 -0.220108
v 0.335128 2.022429 -0.263767
v 0.223779 2.160454 -0.202884
v 0.299741 1.988933 -0.252549
v 0.188393 2.126959 -0.191666
v 0.295532 2.142347 -0.030605
v 0.406881 2.004322 -0.091489
v 0.260146 2.108852 -0.019388
v 0.371494 1.970826 -0.080271
v 0.386064 1.998299 -0.037311
v 0.503427 1.951050 -0.091158
v 0.379435 1.980784 -0.036391
v 0.496798 1.933535 -0.090238
v 0.393406 1.978814 -0.355319
v 0.276042 2.026063 -0.301471
v 0.386777 1.961299 -0.354398
v 0.269413 2.008548 -0.300551
v 0.227930 2.158515 -0.204817
v 0.074276 2.237966 -0.132470
v 0.206600 2.113484 -0.200666
v 0.052946 2.192935 -0.128319
v 0.146029 2.219859 0.039809
v 0.299684 2.140408 -0.032538
v 0.124699 2.174828 0.043960
v 0.278354 2.095377 -0.028387
v 0.325792 1.894731 0.467559
v 0.279388 1.956393 0.361394
v 0.323046 1.878196 0.459155
v 0.276642 1.939858 0.352990
v 0.019547 1.945143 0.468434
v 0.065951 1.883481 0.574599
v 0.016801 1.928608 0.460030
v 0.063205 1.866946 0.566196
v 0.020939 2.100774 0.364938
v 0.067061 1.946288 0.460662
v 0.006282 2.072510 0.326385
v 0.052404 1.918024 0.422110
v 0.240289 1.953789 0.389302
v 0.194167 2.108274 0.293577
v 0.225631 1.925524 0.350750
v 0.179509 2.080010 0.255025
v -0.040987 2.200386 0.225080
v 0.022659 2.098221 0.368843
v -0.049822 2.158508 0.199231
v 0.013824 2.056343 0.342994
v 0.195886 2.105721 0.297483
v 0.132240 2.207886 0.153720
v 0.187051 2.063843 0.271634
v 0.123405 2.166008 0.127871
v 0.223779 2.111369 0.264127
v 0.335128 1.963702 0.294983
v 0.188393 2.080938 0.246190
v 0.299741 1.933271 0.277046
v 0.406881 1.981809 0.122704
v 0.295532 2.129477 0.091849
v 0.371494 1.951378 0.104767
v 0.260146 2.099046 0.073912
v 0.503427 1.929770 0.111305
v 0.386064 1.987182 0.068458
v 0.496798 1.912829 0.106764
v 0.379435 1.970241 0.063917
v 0.276042 1.959418 0.332619
v 0.393406 1.902006 0.375466
v 0.269413 1.942477 0.328077
v 0.386777 1.885065 0.370924
v 0.074276 2.201827 0.211367
v 0.227930 2.109071 0.265614
v 0.052946 2.158643 0.197944
v 0.206600 2.065887 0.252192
v 0.299684 2.127178 0.093336
v 0.146029 2.219934 0.039089
v 0.278354 2.083994 0.079913
v 0.124699 2.176750 0.025666
v -0.395615 1.907652 0.376979
v -0.278252 1.965065 0.334132
v -0.386777 1.885065 0.370924
v -0.269413 1.942477 0.328077
v -0.388273 1.992829 0.069972
v -0.505637 1.935417 0.112819
v -0.379435 1.970241 0.063917
v -0.496798 1.912829 0.106764
v -0.295532 2.129477 0.091849
v -0.406881 1.981809 0.122704
v -0.260146 2.099046 0.073912
v -0.371494 1.951378 0.104767
v -0.335128 1.963702 0.294983
v -0.223779 2.111369 0.264127
v -0.299741 1.933271 0.277046
v -0.188393 2.080938 0.246190
v -0.146029 2.219934 0.039089
v -0.299684 2.127178 0.093336
v -0.124699 2.176750 0.025666
v -0.278354 2.083994 0.079913
v -0.227930 2.109071 0.265614
v -0.074276 2.201827 0.211367
v -0.206600 2.065887 0.252192
v -0.052946 2.158643 0.197944
v -0.132240 2.207886 0.153720
v -0.195886 2.105721 0.297483
v -0.123405 2.166008 0.127871
v -0.187051 2.063843 0.271634
v -0.022659 2.098221 0.368843
v 0.040987 2.200386 0.225080
v -0.013824 2.056343 0.342994
v 0.049822 2.158508 0.199231
v -0.065951 1.883481 0.574599
v -0.019547 1.945143 0.468434
v -0.063205 1.866946 0.566196
v -0.016801 1.928608 0.460030
v -0.279388 1.956393 0.361394
v -0.325792 1.894731 0.467559
v -0.276642 1.939858 0.352990
v -0.323046 1.878196 0.459155
v -0.194167 2.108274 0.293577
v -0.240289 1.953789 0.389302
v -0.179509 2.080010 0.255025
v -0.225631 1.925524 0.350750
v -0.067061 1.946288 0.460662
v -0.020939 2.100774 0.364938
v -0.052404 1.918024 0.422110
v -0.006282 2.072510 0.326385
v 0.067061 2.039842 -0.429446
v 0.020939 2.171050 -0.303694
v 0.052404 2.004180 -0.397613
v 0.006282 2.135388 -0.271861
v 0.194167 2.163550 -0.232334
v 0.240289 2.032342 -0.358086
v 0.179509 2.127887 -0.200501
v 0.225631 1.996680 -0.326253
v 0.125000 2.213611 0.205325
v 0.125000 2.248236 -0.124110
v 0.125000 2.151453 0.198792
v 0.125000 2.186078 -0.130643
v -0.125000 2.248236 -0.124110
v -0.125000 2.213611 0.205325
v -0.125000 2.186078 -0.130643
v -0.125000 2.151453 0.198792
v 0.062500 2.110123 0.361679
v 0.062500 2.213611 0.205325
v 0.062500 2.058005 0.327183
v 0.062500 2.161493 0.170829
v -0.062500 2.213611 0.205325
v -0.062500 2.110123 0.361679
v -0.062500 2.161493 0.170829
v -0.062500 2.058005 0.327183
v 0.062500 1.953833 0.465746
v 0.062500 2.109278 0.360897
v 0.062500 1.918884 0.413931
v 0.062500 2.074328 0.309082
v -0.062500 2.109278 0.360897
v -0.062500 1.953833 0.465746
v -0.062500 2.074328 0.309082
v -0.062500 1.918884 0.413931
v -0.411148 1.990277 0.119008
v -0.290625 2.133123 0.134022
v -0.363270 1.950323 0.114808
v -0.242747 2.093169 0.129822
v -0.290625 2.154682 -0.071099
v -0.411148 2.011836 -0.086112
v -0.242747 2.114728 -0.075298
v -0.363270 1.971882 -0.090312
v -0.291315 2.134040 0.134118
v -0.125000 2.220144 0.143168
v -0.262455 2.078906 0.128323
v -0.096141 2.165009 0.137373
v -0.125000 2.241703 -0.061952
v -0.291315 2.155599 -0.071002
v -0.096141 2.186568 -0.067747
v -0.262455 2.100465 -0.076797
v -0.383843 2.013285 -0.082818
v -0.510876 1.960955 -0.088318
v -0.371884 1.984572 -0.085836
v -0.498918 1.932241 -0.091336
v -0.510876 1.939396 0.116802
v -0.383843 1.991726 0.122302
v -0.498918 1.910682 0.113784
v -0.371884 1.963013 0.119284
v -0.250185 2.165979 -0.169755
v -0.132583 2.239789 -0.043747
v -0.229778 2.108711 -0.155255
v -0.112176 2.182522 -0.029247
v -0.044194 2.249028 -0.131651
v -0.161796 2.175218 -0.257659
v -0.023788 2.191761 -0.117151
v -0.141390 2.117950 -0.243159
v -0.334919 2.031072 -0.269135
v -0.249697 2.165010 -0.169366
v -0.301065 1.987579 -0.239665
v -0.215842 2.121518 -0.139896
v -0.161309 2.174250 -0.257270
v -0.246531 2.040311 -0.357039
v -0.127454 2.130757 -0.227800
v -0.212676 1.996818 -0.327570
v -0.223249 2.042053 -0.356519
v -0.308992 2.001063 -0.447043
v -0.214792 2.012455 -0.351127
v -0.300536 1.971466 -0.441651
v -0.397380 1.991824 -0.359139
v -0.311637 2.032813 -0.268615
v -0.388924 1.962227 -0.353747
v -0.303181 2.003216 -0.263223
v 0.062500 2.248236 -0.124110
v 0.062500 2.179517 -0.298563
v 0.062500 2.190085 -0.101204
v 0.062500 2.121366 -0.275657
v -0.062500 2.179517 -0.298563
v -0.062500 2.248236 -0.124110
v -0.062500 2.121366 -0.275657
v -0.062500 2.190085 -0.101204
v 0.062500 2.178528 -0.297974
v 0.062500 2.048279 -0.432850
v 0.062500 2.133569 -0.254558
v 0.062500 2.003320 -0.389434
v -0.062500 2.048279 -0.432850
v -0.062500 2.178528 -0.297974
v -0.062500 2.003320 -0.389434
v -0.062500 2.133569 -0.254558
v 0.062500 2.048835 -0.421048
v 0.062500 2.009783 -0.552885
v 0.062500 2.018872 -0.412172
v 0.062500 1.979819 -0.544010
v -0.062500 2.009783 -0.552885
v -0.062500 2.048835 -0.421048
v -0.062500 1.979819 -0.544010
v -0.062500 2.018872 -0.412172
v 0.161796 2.175218 -0.257659
v 0.044194 2.249028 -0.131651
v 0.141390 2.117950 -0.243159
v 0.023788 2.191761 -0.117151
v 0.132583 2.239789 -0.043747
v 0.250185 2.165979 -0.169755
v 0.112176 2.182522 -0.029247
v 0.229778 2.108711 -0.155255
v 0.246531 2.040311 -0.357039
v 0.161309 2.174250 -0.257270
v 0.212676 1.996818 -0.327570
v 0.127454 2.130757 -0.227800
v 0.249697 2.165010 -0.169366
v 0.334919 2.031072 -0.269135
v 0.215842 2.121518 -0.139896
v 0.301065 1.987579 -0.239665
v 0.317887 2.032813 -0.268615
v 0.403630 1.991824 -0.359139
v 0.309431 2.003216 -0.263223
v 0.395174 1.962227 -0.353747
v 0.315242 2.001063 -0.447043
v 0.229499 2.042053 -0.356519
v 0.306786 1.971466 -0.441651
v 0.221042 2.012455 -0.351127
v 0.291315 2.155599 -0.071002
v 0.125000 2.241703 -0.061952
v 0.262455 2.100465 -0.076797
v 0.096141 2.186568 -0.067747
v 0.125000 2.220144 0.143168
v 0.291315 2.134040 0.134118
v 0.096141 2.165009 0.137373
v 0.262455 2.078906 0.128323
v 0.411148 2.011836 -0.086112
v 0.290625 2.154682 -0.071099
v 0.368058 1.975877 -0.089892
v 0.247535 2.118723 -0.074878
v 0.290625 2.133123 0.134022
v 0.411148 1.990277 0.119008
v 0.247535 2.097164 0.130242
v 0.368058 1.954318 0.115228
v 0.383843 1.991726 0.122302
v 0.510876 1.939396 0.116802
v 0.371884 1.963013 0.119284
v 0.498918 1.910682 0.113784
v 0.510876 1.960955 -0.088318
v 0.383843 2.013285 -0.082818
v 0.498918 1.932241 -0.091336
v 0.371884 1.984572 -0.085836
v 0.044194 2.212818 0.212866
v 0.161796 2.114422 0.320774
v 0.023788 2.159817 0.186777
v 0.141390 2.061420 0.294685
v 0.250185 2.123661 0.232870
v 0.132583 2.222057 0.124962
v 0.229778 2.070660 0.206781
v 0.112176 2.169056 0.098873
v 0.161309 2.113556 0.320193
v 0.246531 1.961801 0.389935
v 0.127454 2.077140 0.282325
v 0.212676 1.925386 0.352066
v 0.334919 1.971040 0.302031
v 0.249697 2.122795 0.232289
v 0.301065 1.934625 0.264162
v 0.215842 2.086380 0.194420
v 0.397380 1.913937 0.381907
v 0.311637 1.972851 0.301884
v 0.388924 1.886108 0.370480
v 0.303181 1.945022 0.290456
v 0.223249 1.963612 0.389788
v 0.308992 1.904698 0.469811
v 0.214792 1.935783 0.378360
v 0.300536 1.876868 0.458384
v -0.132583 2.222057 0.124962
v -0.250185 2.123661 0.232870
v -0.112176 2.169056 0.098873
v -0.229778 2.070660 0.206781
v -0.161796 2.114422 0.320774
v -0.044194 2.212818 0.212866
v -0.141390 2.061420 0.294685
v -0.023788 2.159817 0.186777
v -0.249697 2.122795 0.232289
v -0.334919 1.971040 0.302031
v -0.215842 2.086380 0.194420
v -0.301065 1.934625 0.264162
v -0.246531 1.961801 0.389935
v -0.161309 2.113556 0.320193
v -0.212676 1.925386 0.352066
v -0.127454 2.077140 0.282325
v -0.308992 1.904698 0.469811
v -0.223249 1.963612 0.389788
v -0.300536 1.876868 0.458384
v -0.214792 1.935783 0.378360
v -0.311637 1.972851 0.301884
v -0.397380 1.913937 0.381907
v -0.303181 1.945022 0.290456
v -0.388924 1.886108 0.370480
v 0.062500 1.891221 0.575154
v 0.062500 1.956830 0.454316
v 0.062500 1.863758 0.560243
v 0.062500 1.929367 0.439405
v -0.062500 1.956830 0.454316
v -0.062500 1.891221 0.575154
v -0.062500 1.929367 0.439405
v -0.062500 1.863758 0.560243
v -0.362500 2.000000 -0.000000
v -0.362500 2.000000 -0.062500
v -0.362500 1.612500 -0.000000
v -0.362500 1.612500 -0.062500
v -0.375000 2.000000 -0.062500
v -0.375000 2.000000 -0.000000
v -0.375000 1.612500 -0.062500
v -0.375000 1.612500 -0.000000
v -0.356250 1.693750 0.006250
v -0.356250 1.693750 -0.068750
v -0.356250 1.631250 0.006250
v -0.356250 1.631250 -0.068750
v -0.381250 1.693750 -0.068750
v -0.381250 1.693750 0.006250
v -0.381250 1.631250 -0.068750
v -0.381250 1.631250 0.006250
v 0.375000 2.000000 -0.000000
v 0.375000 2.000000 -0.062500
v 0.375000 1.612500 -0.000000
v 0.375000 1.612500 -0.062500
v 0.362500 2.000000 -0.062500
v 0.362500 2.000000 -0.000000
v 0.362500 1.612500 -0.062500
v 0.362500 1.612500 -0.000000
v 0.381250 1.693750 0.006250
v 0.381250 1.693750 -0.068750
v 0.381250 1.631250 0.006250
v 0.381250 1.631250 -0.068750
v 0.356250 1.693750 -0.068750
v 0.356250 1.693750 0.006250
v 0.356250 1.631250 -0.068750
v 0.356250 1.631250 0.006250
v 0.062500 2.268750 -0.312500
v 0.062500 2.268750 -0.437500
v 0.062500 2.250000 -0.312500
v 0.062500 2.250000 -0.437500
v -0.062500 2.268750 -0.437500
v -0.062500 2.268750 -0.312500
v -0.062500 2.250000 -0.437500
v -0.062500 2.250000 -0.312500
v 0.068750 2.125000 -0.312500
v 0.068750 2.125000 -0.437500
v 0.068750 2.106250 -0.312500
v 0.068750 2.106250 -0.437500
v -0.068750 2.125000 -0.437500
v -0.068750 2.125000 -0.312500
v -0.068750 2.106250 -0.437500
v -0.068750 2.106250 -0.312500
v 0.062500 2.250000 -0.312500
v 0.062500 2.250000 -0.437500
v 0.081250 2.250000 -0.312500
v 0.081250 2.250000 -0.437500
v 0.062500 2.125000 -0.437500
v 0.062500 2.125000 -0.312500
v 0.081250 2.125000 -0.437500
v 0.081250 2.125000 -0.312500
v -0.081250 2.250000 -0.312500
v -0.081250 2.250000 -0.437500
v -0.062500 2.250000 -0.312500
v -0.062500 2.250000 -0.437500
v -0.081250 2.125000 -0.437500
v -0.081250 2.125000 -0.312500
v -0.062500 2.125000 -0.437500
v -0.062500 2.125000 -0.312500
v 0.068750 2.250000 -0.293750
v 0.068750 2.250000 -0.312500
v 0.068750 2.125000 -0.293750
v 0.068750 2.125000 -0.312500
v -0.068750 2.250000 -0.312500
v -0.068750 2.250000 -0.293750
v -0.068750 2.125000 -0.312500
v -0.068750 2.125000 -0.293750
v -0.265582 2.151891 0.154724
v -0.266472 2.150520 0.136045
v -0.367314 1.995238 0.171066
v -0.368204 1.993868 0.152387
v -0.282197 2.160732 0.136045
v -0.281307 2.162102 0.154724
v -0.383929 2.004080 0.152387
v -0.383039 2.005450 0.171066
vn -0.0095 -0.0146 -0.9998
vn 0.8387 -0.5446 -0.0000
vn 0.0095 0.0146 0.9998
vn -0.8387 0.5446 -0.0000
vn 0.5446 0.8385 -0.0174
vn 0.5446 0.8385 -0.0175
vn -0.5446 -0.8385 0.0175
vn -0.0000 -0.0000 -1.0000
vn 1.0000 -0.0000 -0.0000
vn -0.0000 -0.0000 1.0000
vn -1.0000 -0.0000 -0.0000
vn -0.0000 1.0000 -0.0000
vn -0.0000 -1.0000 -0.0000
vn 0.3800 -0.8479 0.3697
vn -0.7316 -0.0335 0.6809
vn -0.7345 -0.0336 0.6778
vn 0.6993 0.3729 0.6098
vn -0.3800 0.8479 -0.3697
vn 0.7306 0.0335 -0.6819
vn 0.7345 0.0336 -0.6777
vn -0.7325 -0.3906 -0.5576
vn 0.5623 0.5290 0.6356
vn -0.5623 -0.5290 -0.6356
vn 0.4546 0.7142 0.5322
vn 0.4546 0.7143 0.5321
vn -0.7071 -0.0739 0.7033
vn -0.7071 -0.0739 0.7032
vn -0.4545 -0.7144 -0.5320
vn -0.4545 -0.7143 -0.5322
vn 0.7071 0.0739 -0.7033
vn 0.7071 0.0739 -0.7032
vn -0.5417 0.6959 -0.4715
vn 0.5417 -0.6959 0.4715
vn 0.5939 0.7361 0.3247
vn -0.3827 -0.0966 0.9188
vn -0.5939 -0.7361 -0.3247
vn -0.5938 -0.7362 -0.3247
vn 0.3827 0.0966 -0.9188
vn -0.7077 0.6699 -0.2244
vn 0.7077 -0.6699 0.2244
vn 0.6428 0.7619 0.0801
vn -0.0000 -0.1045 0.9945
vn -0.6428 -0.7618 -0.0801
vn -0.6428 -0.7619 -0.0801
vn -0.0000 0.1045 -0.9945
vn -0.7660 0.6393 0.0672
vn 0.7660 -0.6393 -0.0672
vn -0.5939 -0.7876 0.1646
vn -0.5939 -0.7875 0.1646
vn -0.3827 0.0966 -0.9188
vn 0.5939 0.7876 -0.1646
vn 0.5938 0.7876 -0.1646
vn 0.3827 -0.0966 0.9188
vn -0.7077 0.6086 0.3587
vn 0.7077 -0.6086 -0.3587
vn -0.4545 -0.8094 0.3719
vn -0.4545 -0.8093 0.3720
vn -0.7071 0.0739 -0.7033
vn 0.4545 0.8093 -0.3720
vn 0.7071 -0.0739 0.7033
vn 0.7071 -0.0739 0.7032
vn -0.5417 0.5826 0.6059
vn 0.5417 -0.5826 -0.6059
vn -0.2460 -0.8239 0.5105
vn -0.9239 0.0400 -0.3806
vn 0.2460 0.8239 -0.5105
vn 0.2460 0.8239 -0.5106
vn 0.9239 -0.0400 0.3806
vn -0.2932 0.5653 0.7710
vn -0.2932 0.5653 0.7711
vn 0.2931 -0.5653 -0.7710
vn -0.0000 0.8290 -0.5592
vn -0.0000 -0.8290 0.5592
vn -0.0000 0.5592 0.8290
vn -0.0000 -0.5592 -0.8290
vn 0.2460 -0.8239 0.5105
vn -0.9239 -0.0400 0.3806
vn -0.2460 0.8239 -0.5106
vn -0.2460 0.8239 -0.5105
vn 0.9239 0.0400 -0.3806
vn 0.2932 0.5653 0.7710
vn -0.2931 -0.5653 -0.7710
vn 0.4545 -0.8094 0.3719
vn 0.4545 -0.8093 0.3720
vn -0.4545 0.8093 -0.3720
vn 0.5417 0.5826 0.6059
vn -0.5417 -0.5826 -0.6059
vn 0.5939 -0.7876 0.1646
vn 0.5939 -0.7875 0.1646
vn -0.5939 0.7876 -0.1646
vn -0.5938 0.7876 -0.1646
vn 0.7077 0.6086 0.3587
vn -0.7077 -0.6086 -0.3587
vn -0.6428 0.7619 0.0801
vn 0.6428 -0.7618 -0.0801
vn 0.6428 -0.7619 -0.0801
vn 0.7660 0.6393 0.0672
vn -0.7660 -0.6393 -0.0672
vn -0.5939 0.7361 0.3247
vn 0.5939 -0.7361 -0.3247
vn 0.5938 -0.7362 -0.3247
vn 0.7077 0.6699 -0.2244
vn -0.7077 -0.6699 0.2244
vn -0.4545 0.7143 0.5321
vn -0.7071 0.0739 -0.7032
vn 0.4545 -0.7143 -0.5321
vn 0.5417 0.6959 -0.4715
vn -0.5417 -0.6959 0.4715
vn -0.2460 0.6998 0.6707
vn 0.2460 -0.6998 -0.6707
vn 0.2931 0.7132 -0.6367
vn 0.2932 0.7133 -0.6367
vn -0.2932 -0.7132 0.6367
vn -0.0000 -0.6946 -0.7194
vn -0.0000 -0.6946 -0.7193
vn -0.0000 0.6947 0.7193
vn -0.0000 0.7193 -0.6947
vn -0.0000 -0.7193 0.6947
vn 0.2460 0.6998 0.6707
vn -0.2460 -0.6998 -0.6707
vn -0.2931 0.7132 -0.6367
vn -0.2932 0.7133 -0.6367
vn 0.2932 -0.7132 0.6367
vn -0.8536 -0.3436 -0.3916
vn 0.3827 0.0965 -0.9188
vn 0.8536 0.3436 0.3916
vn -0.3536 0.9341 -0.0491
vn 0.3536 -0.9341 0.0491
vn 0.8195 0.4237 0.3858
vn -0.8195 -0.4237 -0.3859
vn -0.4266 0.9006 -0.0830
vn 0.4266 -0.9006 0.0830
vn -0.3536 -0.2914 -0.8889
vn 0.3535 0.2914 0.8889
vn 0.3536 0.2914 0.8889
vn -0.1464 0.9558 -0.2550
vn 0.1464 -0.9558 0.2550
vn -0.2932 0.7132 -0.6367
vn 0.3394 0.3736 0.8633
vn -0.3394 -0.3735 -0.8633
vn -0.3394 -0.3736 -0.8633
vn -0.1767 0.9267 -0.3315
vn 0.1767 -0.9267 0.3315
vn 0.3536 -0.2914 -0.8889
vn -0.3535 0.2914 0.8889
vn -0.3536 0.2914 0.8889
vn 0.1464 0.9558 -0.2550
vn -0.1464 -0.9558 0.2550
vn 0.2932 0.7132 -0.6367
vn -0.3394 0.3736 0.8633
vn 0.3394 -0.3736 -0.8633
vn 0.3394 -0.3735 -0.8633
vn 0.1767 0.9267 -0.3315
vn -0.1767 -0.9267 0.3315
vn 0.8536 -0.3436 -0.3916
vn -0.8536 0.3436 0.3916
vn -0.3827 0.0965 -0.9188
vn 0.3536 0.9341 -0.0491
vn -0.3536 -0.9341 0.0491
vn -0.8195 0.4237 0.3858
vn 0.8195 -0.4237 -0.3859
vn 0.4266 0.9006 -0.0830
vn -0.4266 -0.9006 0.0830
vn -0.3535 0.4698 -0.8089
vn -0.3536 0.4698 -0.8089
vn 0.3535 -0.4698 0.8089
vn 0.3536 -0.4698 0.8089
vn 0.1464 0.8819 0.4482
vn -0.1464 -0.8819 -0.4482
vn 0.2931 0.5653 0.7710
vn -0.2932 -0.5653 -0.7710
vn 0.3394 -0.5449 0.7667
vn -0.3394 0.5449 -0.7667
vn 0.1767 0.8376 0.5170
vn -0.1767 -0.8376 -0.5170
vn -0.8536 0.4175 -0.3116
vn 0.8536 -0.4175 0.3116
vn 0.3536 0.9035 0.2422
vn -0.3536 -0.9035 -0.2422
vn 0.8195 -0.4947 0.2893
vn -0.8195 0.4947 -0.2893
vn 0.4266 0.8637 0.2685
vn -0.4266 -0.8637 -0.2685
vn 0.8536 0.4175 -0.3116
vn -0.8536 -0.4175 0.3116
vn -0.3536 0.9035 0.2422
vn 0.3536 -0.9035 -0.2422
vn -0.8195 -0.4947 0.2893
vn 0.8195 0.4947 -0.2893
vn -0.4266 0.8637 0.2685
vn 0.4266 -0.8637 -0.2685
vn -0.3394 -0.5449 0.7667
vn 0.3394 0.5449 -0.7667
vn -0.1767 0.8376 0.5170
vn 0.1767 -0.8376 -0.5170
vn 0.3535 0.4698 -0.8089
vn 0.3536 0.4698 -0.8089
vn -0.3536 -0.4698 0.8089
vn -0.1464 0.8819 0.4482
vn 0.1464 -0.8819 -0.4482
vn 0.2932 -0.5653 -0.7710
vn -0.0000 0.9945 0.1045
vn -0.0000 -0.9945 -0.1045
vn -0.0000 0.5519 -0.8339
vn -0.0000 -0.5519 0.8339
vn -0.0000 0.8339 0.5519
vn -0.0000 -0.8339 -0.5519
vn 0.8870 0.4592 0.0483
vn -0.8870 -0.4592 -0.0483
vn -0.4617 0.8822 0.0927
vn 0.4617 -0.8822 -0.0927
vn -0.9239 -0.3806 -0.0400
vn 0.9239 0.3806 0.0400
vn -0.3827 0.9188 0.0966
vn 0.3827 -0.9188 -0.0966
vn 0.6272 0.3937 0.6720
vn -0.6272 -0.3937 -0.6720
vn -0.3265 0.9163 -0.2320
vn 0.3265 -0.9163 0.2320
vn 0.4545 0.7143 0.5321
vn -0.4545 -0.7143 -0.5321
vn -0.6533 -0.3123 -0.6897
vn 0.6533 0.3123 0.6897
vn -0.2706 0.9471 -0.1725
vn 0.2706 -0.9471 0.1725
vn -0.0000 -0.3665 -0.9304
vn -0.0000 0.3665 0.9304
vn -0.0000 0.9304 -0.3665
vn -0.0000 -0.9304 0.3665
vn -0.0000 -0.6947 -0.7193
vn -0.0000 -0.2840 -0.9588
vn -0.0000 0.2840 0.9588
vn -0.0000 0.9588 -0.2840
vn -0.0000 -0.9588 0.2840
vn -0.6272 0.3937 0.6720
vn 0.6272 -0.3937 -0.6720
vn 0.3265 0.9163 -0.2320
vn -0.3265 -0.9163 0.2320
vn 0.6533 -0.3123 -0.6897
vn -0.6533 0.3123 0.6897
vn 0.2706 0.9471 -0.1725
vn -0.2706 -0.9471 0.1725
vn -0.8870 0.4592 0.0483
vn 0.8870 -0.4592 -0.0483
vn 0.4617 0.8822 0.0927
vn -0.4617 -0.8822 -0.0927
vn -0.6428 0.7618 0.0801
vn 0.9239 -0.3806 -0.0400
vn -0.9239 0.3806 0.0400
vn 0.3827 0.9188 0.0966
vn -0.3827 -0.9188 -0.0966
vn 0.6272 -0.5248 0.5755
vn -0.6272 0.5248 -0.5755
vn 0.3265 0.8480 0.4174
vn -0.3265 -0.8480 -0.4174
vn 0.4545 -0.8094 0.3720
vn -0.4545 0.8094 -0.3719
vn -0.4545 0.8094 -0.3720
vn -0.6533 0.4489 -0.6097
vn 0.6533 -0.4488 0.6097
vn 0.6533 -0.4489 0.6097
vn 0.2706 0.8905 0.3657
vn -0.2706 -0.8905 -0.3657
vn -0.6272 -0.5248 0.5755
vn 0.6272 0.5248 -0.5755
vn -0.3265 0.8480 0.4174
vn 0.3265 -0.8480 -0.4174
vn -0.4545 -0.8094 0.3720
vn 0.4545 0.8094 -0.3719
vn 0.4545 0.8094 -0.3720
vn 0.6533 0.4489 -0.6097
vn -0.6533 -0.4488 0.6097
vn -0.6533 -0.4489 0.6097
vn -0.2706 0.8905 0.3657
vn 0.2706 -0.8905 -0.3657
vn -0.0000 0.4772 -0.8788
vn -0.0000 -0.4772 0.8788
vn -0.0000 0.8788 0.4772
vn -0.0000 -0.8788 -0.4772
vn -0.0475 -0.0731 -0.9962
vn 0.0475 0.0731 0.9962
vn 0.5426 0.8355 -0.0871
vn 0.5425 0.8355 -0.0871
vn -0.5426 -0.8355 0.0871
vn 0.9877 0.0452 0.1497
vn 0.3799 -0.8479 0.3698
vn 0.2674 -0.5968 0.7565
vn -0.7346 -0.0336 0.6777
vn -0.9971 -0.0457 -0.0613
vn -0.3799 0.8479 -0.3697
vn -0.2507 0.5595 -0.7900
vn 0.7345 0.0336 -0.6778
vn 0.2932 0.5653 0.7711
vn -0.2931 0.5653 0.7710
vn 0.5426 0.8355 -0.0872
vt 0.234375 0.312500
vt 0.239258 0.359375
vt 0.234375 0.359375
vt 0.254883 0.312500
vt 0.250000 0.359375
vt 0.250000 0.312500
vt 0.270508 0.312500
vt 0.265625 0.359375
vt 0.265625 0.312500
vt 0.286133 0.312500
vt 0.281250 0.359375
vt 0.281250 0.312500
vt 0.218750 0.312500
vt 0.223633 0.307617
vt 0.223633 0.312500
vt 0.687500 0.776367
vt 0.692383 0.781250
vt 0.692383 0.776367
vt 0.515625 0.968750
vt 0.484375 1.000000
vt 0.484375 0.968750
vt 0.445312 0.437500
vt 0.421875 0.468750
vt 0.421875 0.437500
vt 0.515625 0.937500
vt 0.484375 0.937500
vt 0.476562 0.437500
vt 0.453125 0.468750
vt 0.453125 0.437500
vt 0.484375 0.468750
vt 0.515625 0.445312
vt 0.515625 0.468750
vt 0.546875 0.468750
vt 0.546875 0.445312
vt 0.000000 1.000000
vt 0.031250 1.000000
vt 0.046875 1.000000
vt 0.453125 0.906250
vt 0.484375 0.859375
vt 0.484375 0.906250
vt 0.484375 0.812500
vt 0.453125 0.859375
vt 0.625000 0.326172
vt 0.656250 0.328125
vt 0.625000 0.328125
vt 0.171875 0.310547
vt 0.187500 0.312500
vt 0.171875 0.312500
vt 0.687500 0.326172
vt 0.656250 0.326172
vt 0.703125 0.826172
vt 0.687500 0.828125
vt 0.687500 0.826172
vt 0.406250 0.406250
vt 0.437500 0.390625
vt 0.437500 0.406250
vt 0.625000 0.578125
vt 0.593750 0.593750
vt 0.625000 0.593750
vt 0.625000 0.635742
vt 0.671875 0.640625
vt 0.625000 0.640625
vt 0.687500 0.573242
vt 0.671875 0.578125
vt 0.671875 0.573242
vt 0.625000 0.588867
vt 0.671875 0.593750
vt 0.671875 0.557617
vt 0.687500 0.562500
vt 0.671875 0.562500
vt 0.515625 0.609375
vt 0.562500 0.593750
vt 0.562500 0.609375
vt 0.406250 0.468750
vt 0.453125 0.484375
vt 0.692383 0.340820
vt 0.640625 0.343750
vt 0.640625 0.340820
vt 0.000000 0.309570
vt 0.015625 0.312500
vt 0.000000 0.312500
vt 0.051758 0.325195
vt 0.000000 0.328125
vt 0.000000 0.325195
vt 0.031250 0.309570
vt 0.015625 0.309570
vt 0.062500 0.500000
vt 0.114258 0.484375
vt 0.114258 0.500000
vt 0.176758 0.484375
vt 0.125000 0.500000
vt 0.176758 0.500000
vt 0.625000 0.573242
vt 0.453125 0.323242
vt 0.468750 0.328125
vt 0.453125 0.328125
vt 0.625000 0.557617
vt 0.625000 0.562500
vt 0.687500 0.541992
vt 0.671875 0.546875
vt 0.671875 0.541992
vt 0.500000 0.484375
vt 0.500000 0.468750
vt 0.562500 0.515625
vt 0.515625 0.531250
vt 0.562500 0.531250
vt 0.703125 0.965820
vt 0.671875 0.968750
vt 0.671875 0.965820
vt 0.046875 0.309570
vt 0.031250 0.312500
vt 0.140625 0.325195
vt 0.109375 0.328125
vt 0.109375 0.325195
vt 0.062500 0.309570
vt 0.046875 0.312500
vt 0.593750 0.562500
vt 0.468750 0.390625
vt 0.468750 0.406250
vt 0.500000 0.370117
vt 0.453125 0.375000
vt 0.453125 0.370117
vt 0.468750 0.323242
vt 0.484375 0.328125
vt 0.625000 0.546875
vt 0.625000 0.541992
vt 0.500000 0.323242
vt 0.484375 0.323242
vt 0.515625 0.515625
vt 0.562500 0.500000
vt 0.546875 0.484375
vt 0.171875 0.325195
vt 0.140625 0.328125
vt 0.687500 0.950195
vt 0.703125 0.953125
vt 0.687500 0.953125
vt 0.703125 0.809570
vt 0.671875 0.812500
vt 0.671875 0.809570
vt 0.703125 0.934570
vt 0.687500 0.937500
vt 0.687500 0.934570
vt 0.593750 0.531250
vt 0.625000 0.531250
vt 0.546875 0.370117
vt 0.500000 0.375000
vt 0.515625 0.323242
vt 0.500000 0.328125
vt 0.671875 0.495117
vt 0.625000 0.500000
vt 0.625000 0.495117
vt 0.687500 0.495117
vt 0.671875 0.500000
vt 0.046875 0.468750
vt 0.000000 0.453125
vt 0.046875 0.453125
vt 0.093750 0.453125
vt 0.093750 0.468750
vt 0.296875 0.325195
vt 0.328125 0.328125
vt 0.296875 0.328125
vt 0.687500 0.918945
vt 0.703125 0.921875
vt 0.687500 0.921875
vt 0.359375 0.325195
vt 0.328125 0.325195
vt 0.687500 0.903320
vt 0.703125 0.906250
vt 0.687500 0.906250
vt 0.500000 0.390625
vt 0.500000 0.406250
vt 0.531250 0.406250
vt 0.531250 0.390625
vt 0.671875 0.479492
vt 0.625000 0.484375
vt 0.625000 0.479492
vt 0.531250 0.328125
vt 0.515625 0.328125
vt 0.671875 0.463867
vt 0.625000 0.468750
vt 0.625000 0.463867
vt 0.687500 0.479492
vt 0.671875 0.484375
vt 0.140625 0.453125
vt 0.140625 0.468750
vt 0.187500 0.468750
vt 0.187500 0.453125
vt 0.723633 0.997070
vt 0.671875 1.000000
vt 0.671875 0.997070
vt 0.109375 0.309570
vt 0.125000 0.312500
vt 0.109375 0.312500
vt 0.671875 0.981445
vt 0.723633 0.984375
vt 0.671875 0.984375
vt 0.703125 0.887695
vt 0.687500 0.890625
vt 0.687500 0.887695
vt 0.187500 0.500000
vt 0.239258 0.484375
vt 0.239258 0.500000
vt 0.500000 0.718750
vt 0.551758 0.734375
vt 0.551758 0.718750
vt 0.593750 0.370117
vt 0.546875 0.375000
vt 0.546875 0.323242
vt 0.531250 0.323242
vt 0.640625 0.370117
vt 0.593750 0.375000
vt 0.687500 0.468750
vt 0.671875 0.468750
vt 0.234375 0.453125
vt 0.234375 0.468750
vt 0.281250 0.453125
vt 0.281250 0.468750
vt 0.656250 0.682617
vt 0.687500 0.687500
vt 0.656250 0.687500
vt 0.562500 0.323242
vt 0.546875 0.328125
vt 0.687500 0.666992
vt 0.656250 0.671875
vt 0.656250 0.666992
vt 0.671875 0.448242
vt 0.687500 0.453125
vt 0.671875 0.453125
vt 0.593750 0.500000
vt 0.593750 0.484375
vt 0.046875 0.354492
vt 0.000000 0.359375
vt 0.000000 0.354492
vt 0.578125 0.328125
vt 0.562500 0.328125
vt 0.093750 0.359375
vt 0.046875 0.359375
vt 0.578125 0.323242
vt 0.593750 0.328125
vt 0.328125 0.453125
vt 0.328125 0.468750
vt 0.375000 0.468750
vt 0.375000 0.453125
vt 0.703125 0.637695
vt 0.671875 0.637695
vt 0.140625 0.309570
vt 0.125000 0.309570
vt 0.703125 0.590820
vt 0.671875 0.590820
vt 0.703125 0.872070
vt 0.687500 0.875000
vt 0.687500 0.872070
vt 0.562500 0.390625
vt 0.562500 0.406250
vt 0.593750 0.453125
vt 0.625000 0.453125
vt 0.140625 0.354492
vt 0.093750 0.354492
vt 0.609375 0.323242
vt 0.593750 0.323242
vt 0.187500 0.359375
vt 0.140625 0.359375
vt 0.625000 0.323242
vt 0.609375 0.328125
vt 0.578125 0.640625
vt 0.531250 0.625000
vt 0.578125 0.625000
vt 0.421875 0.453125
vt 0.609375 0.948242
vt 0.681641 0.953125
vt 0.609375 0.953125
vt 0.377930 0.354492
vt 0.343750 0.359375
vt 0.343750 0.354492
vt 0.062500 0.385742
vt 0.134766 0.390625
vt 0.062500 0.390625
vt 0.487305 0.354492
vt 0.453125 0.359375
vt 0.453125 0.354492
vt 0.000000 0.906250
vt 0.072266 0.872070
vt 0.072266 0.906250
vt 0.078125 0.872070
vt 0.150391 0.906250
vt 0.150391 0.872070
vt 0.593750 0.799805
vt 0.546875 0.812500
vt 0.546875 0.799805
vt 0.593750 0.784180
vt 0.546875 0.796875
vt 0.546875 0.784180
vt 0.265625 0.440430
vt 0.218750 0.453125
vt 0.218750 0.440430
vt 0.546875 0.737305
vt 0.593750 0.750000
vt 0.546875 0.750000
vt 0.125000 0.718750
vt 0.078125 0.671875
vt 0.125000 0.671875
vt 0.171875 0.671875
vt 0.171875 0.718750
vt 0.312500 0.440430
vt 0.265625 0.453125
vt 0.546875 0.706055
vt 0.593750 0.718750
vt 0.546875 0.718750
vt 0.546875 0.690430
vt 0.593750 0.703125
vt 0.546875 0.703125
vt 0.359375 0.453125
vt 0.312500 0.453125
vt 0.218750 0.671875
vt 0.218750 0.718750
vt 0.265625 0.671875
vt 0.265625 0.718750
vt 0.609375 0.870117
vt 0.679688 0.875000
vt 0.609375 0.875000
vt 0.080078 0.338867
vt 0.046875 0.343750
vt 0.046875 0.338867
vt 0.140625 0.385742
vt 0.210938 0.390625
vt 0.140625 0.390625
vt 0.126953 0.338867
vt 0.093750 0.343750
vt 0.093750 0.338867
vt 0.304688 0.906250
vt 0.234375 0.873047
vt 0.304688 0.873047
vt 0.125000 0.732422
vt 0.195312 0.765625
vt 0.195312 0.732422
vt 0.546875 0.674805
vt 0.593750 0.687500
vt 0.546875 0.687500
vt 0.546875 0.659180
vt 0.593750 0.671875
vt 0.546875 0.671875
vt 0.593750 0.643555
vt 0.546875 0.656250
vt 0.546875 0.643555
vt 0.406250 0.440430
vt 0.359375 0.440430
vt 0.281250 0.765625
vt 0.328125 0.718750
vt 0.328125 0.765625
vt 0.312500 0.718750
vt 0.312500 0.671875
vt 0.593750 0.581055
vt 0.546875 0.593750
vt 0.546875 0.581055
vt 0.593750 0.565430
vt 0.546875 0.578125
vt 0.546875 0.565430
vt 0.593750 0.549805
vt 0.546875 0.562500
vt 0.546875 0.549805
vt 0.546875 0.534180
vt 0.593750 0.546875
vt 0.546875 0.546875
vt 0.312500 0.906250
vt 0.359375 0.859375
vt 0.359375 0.906250
vt 0.312500 0.812500
vt 0.359375 0.812500
vt 0.679688 0.854492
vt 0.609375 0.859375
vt 0.609375 0.854492
vt 0.140625 0.338867
vt 0.173828 0.343750
vt 0.140625 0.343750
vt 0.679688 0.838867
vt 0.609375 0.843750
vt 0.609375 0.838867
vt 0.689453 0.791992
vt 0.656250 0.796875
vt 0.656250 0.791992
vt 0.304688 0.859375
vt 0.234375 0.826172
vt 0.304688 0.826172
vt 0.273438 0.732422
vt 0.203125 0.765625
vt 0.273438 0.765625
vt 0.546875 0.487305
vt 0.546875 0.500000
vt 0.546875 0.471680
vt 0.546875 0.456055
vt 0.593750 0.468750
vt 0.593750 0.440430
vt 0.546875 0.453125
vt 0.546875 0.440430
vt 0.359375 0.718750
vt 0.359375 0.671875
vt 0.000000 0.625000
vt 0.046875 0.671875
vt 0.046875 0.625000
vt 0.000000 0.424805
vt 0.046875 0.437500
vt 0.000000 0.437500
vt 0.609375 0.987305
vt 0.562500 1.000000
vt 0.562500 0.987305
vt 0.609375 0.971680
vt 0.562500 0.984375
vt 0.562500 0.971680
vt 0.562500 0.956055
vt 0.609375 0.968750
vt 0.562500 0.968750
vt 0.093750 0.625000
vt 0.093750 0.671875
vt 0.140625 0.671875
vt 0.140625 0.625000
vt 0.093750 0.424805
vt 0.046875 0.424805
vt 0.609375 0.940430
vt 0.562500 0.953125
vt 0.562500 0.940430
vt 0.562500 0.924805
vt 0.609375 0.937500
vt 0.562500 0.937500
vt 0.609375 0.909180
vt 0.562500 0.921875
vt 0.562500 0.909180
vt 0.187500 0.625000
vt 0.187500 0.671875
vt 0.234375 0.671875
vt 0.234375 0.625000
vt 0.681641 0.932617
vt 0.609375 0.932617
vt 0.500000 0.354492
vt 0.534180 0.359375
vt 0.500000 0.359375
vt 0.681641 0.916992
vt 0.609375 0.921875
vt 0.609375 0.916992
vt 0.546875 0.354492
vt 0.581055 0.359375
vt 0.546875 0.359375
vt 0.197266 1.000000
vt 0.125000 0.965820
vt 0.197266 0.965820
vt 0.197266 0.918945
vt 0.125000 0.953125
vt 0.197266 0.953125
vt 0.140625 0.437500
vt 0.093750 0.437500
vt 0.609375 0.893555
vt 0.562500 0.906250
vt 0.562500 0.893555
vt 0.562500 0.877930
vt 0.609375 0.890625
vt 0.562500 0.890625
vt 0.609375 0.862305
vt 0.562500 0.875000
vt 0.562500 0.862305
vt 0.375000 0.812500
vt 0.375000 0.765625
vt 0.281250 0.671875
vt 0.281250 0.625000
vt 0.679688 0.823242
vt 0.609375 0.828125
vt 0.609375 0.823242
vt 0.689453 0.745117
vt 0.656250 0.750000
vt 0.656250 0.745117
vt 0.289062 0.385742
vt 0.218750 0.390625
vt 0.218750 0.385742
vt 0.656250 0.713867
vt 0.689453 0.718750
vt 0.656250 0.718750
vt 0.250000 0.812500
vt 0.320312 0.779297
vt 0.320312 0.812500
vt 0.335938 0.966797
vt 0.265625 1.000000
vt 0.335938 1.000000
vt 0.187500 0.424805
vt 0.140625 0.424805
vt 0.609375 0.846680
vt 0.562500 0.859375
vt 0.562500 0.846680
vt 0.609375 0.831055
vt 0.562500 0.843750
vt 0.562500 0.831055
vt 0.562500 0.815430
vt 0.562500 0.828125
vt 0.375000 0.718750
vt 0.328125 0.625000
vt 0.328125 0.671875
vt 0.234375 0.424805
vt 0.187500 0.437500
vt 0.562500 0.768555
vt 0.609375 0.781250
vt 0.562500 0.781250
vt 0.281250 0.424805
vt 0.234375 0.437500
vt 0.562500 0.752930
vt 0.609375 0.765625
vt 0.562500 0.765625
vt 0.375000 0.625000
vt 0.375000 0.671875
vt 0.390625 0.953125
vt 0.343750 1.000000
vt 0.390625 1.000000
vt 0.562500 0.721680
vt 0.609375 0.734375
vt 0.562500 0.734375
vt 0.328125 0.437500
vt 0.281250 0.437500
vt 0.375000 0.424805
vt 0.328125 0.424805
vt 0.375000 0.437500
vt 0.343750 0.953125
vt 0.390625 0.906250
vt 0.406250 0.906250
vt 0.406250 0.859375
vt 0.681641 0.901367
vt 0.609375 0.906250
vt 0.609375 0.901367
vt 0.593750 0.354492
vt 0.627930 0.359375
vt 0.593750 0.359375
vt 0.681641 0.885742
vt 0.609375 0.885742
vt 0.640625 0.401367
vt 0.674805 0.406250
vt 0.640625 0.406250
vt 0.000000 0.859375
vt 0.072266 0.825195
vt 0.072266 0.859375
vt 0.078125 0.825195
vt 0.150391 0.859375
vt 0.150391 0.825195
vt 0.609375 0.612305
vt 0.562500 0.625000
vt 0.562500 0.612305
vt 0.562500 0.596680
vt 0.609375 0.609375
vt 0.468750 0.424805
vt 0.421875 0.424805
vt 0.515625 0.437500
vt 0.468750 0.437500
vt 0.406250 0.812500
vt 0.406250 0.671875
vt 0.406250 0.718750
vt 0.666016 0.447266
vt 0.593750 0.447266
vt 0.640625 0.728516
vt 0.674805 0.734375
vt 0.640625 0.734375
vt 0.562500 0.400391
vt 0.634766 0.406250
vt 0.331055 0.353516
vt 0.296875 0.359375
vt 0.296875 0.353516
vt 0.228516 0.906250
vt 0.156250 0.872070
vt 0.228516 0.872070
vt 0.156250 0.825195
vt 0.228516 0.859375
vt 0.228516 0.825195
vt 0.609375 0.518555
vt 0.562500 0.518555
vt 0.609375 0.502930
vt 0.562500 0.502930
vt 0.515625 0.424805
vt 0.562500 0.437500
vt 0.609375 0.424805
vt 0.562500 0.424805
vt 0.046875 0.578125
vt 0.093750 0.578125
vt 0.046875 0.409180
vt 0.000000 0.421875
vt 0.000000 0.409180
vt 0.093750 0.409180
vt 0.046875 0.421875
vt 0.140625 0.421875
vt 0.093750 0.421875
vt 0.187500 0.409180
vt 0.140625 0.409180
vt 0.140625 0.578125
vt 0.187500 0.578125
vt 0.234375 0.421875
vt 0.187500 0.421875
vt 0.281250 0.409180
vt 0.234375 0.409180
vt 0.328125 0.409180
vt 0.281250 0.421875
vt 0.375000 0.421875
vt 0.328125 0.421875
vt 0.234375 0.578125
vt 0.421875 0.812500
vt 0.421875 0.765625
vt 0.609375 0.776367
vt 0.679688 0.781250
vt 0.330078 0.338867
vt 0.296875 0.343750
vt 0.296875 0.338867
vt 0.679688 0.760742
vt 0.609375 0.760742
vt 0.689453 0.698242
vt 0.656250 0.703125
vt 0.656250 0.698242
vt 0.265625 0.953125
vt 0.335938 0.919922
vt 0.335938 0.953125
vt 0.000000 0.685547
vt 0.070312 0.718750
vt 0.070312 0.685547
vt 0.625000 0.627930
vt 0.578125 0.627930
vt 0.421875 0.409180
vt 0.375000 0.409180
vt 0.468750 0.421875
vt 0.421875 0.421875
vt 0.468750 0.409180
vt 0.515625 0.421875
vt 0.281250 0.578125
vt 0.421875 0.718750
vt 0.468750 0.640625
vt 0.468750 0.625000
vt 0.536133 0.796875
vt 0.453125 0.812500
vt 0.453125 0.796875
vt 0.453125 0.531250
vt 0.453125 0.515625
vt 0.536133 0.781250
vt 0.453125 0.781250
vt 0.062500 0.916992
vt 0.062500 1.000000
vt 0.125000 1.000000
vt 0.125000 0.916992
vt 0.546875 0.406250
vt 0.515625 0.406250
vt 0.500000 0.703125
vt 0.578125 0.406250
vt 0.546875 0.421875
vt 0.500000 0.687500
vt 0.437500 0.671875
vt 0.437500 0.718750
vt 0.031250 0.531250
vt 0.062500 0.578125
vt 0.062500 0.531250
vt 0.609375 0.406250
vt 0.578125 0.421875
vt 0.500000 0.671875
vt 0.031250 0.390625
vt 0.000000 0.406250
vt 0.000000 0.390625
vt 0.500000 0.656250
vt 0.421875 0.953125
vt 0.453125 0.953125
vt 0.093750 0.531250
vt 0.536133 0.734375
vt 0.484375 0.750000
vt 0.484375 0.734375
vt 0.546875 0.640625
vt 0.500000 0.640625
vt 0.536133 0.578125
vt 0.484375 0.593750
vt 0.484375 0.578125
vt 0.453125 0.500000
vt 0.000000 0.812500
vt 0.051758 0.765625
vt 0.051758 0.812500
vt 0.062500 0.765625
vt 0.114258 0.812500
vt 0.114258 0.765625
vt 0.536133 0.562500
vt 0.484375 0.562500
vt 0.500000 0.500000
vt 0.484375 0.546875
vt 0.515625 1.000000
vt 0.515625 0.984375
vt 0.176758 0.812500
vt 0.125000 0.765625
vt 0.176758 0.765625
vt 0.239258 0.765625
vt 0.187500 0.812500
vt 0.239258 0.812500
vt 0.051758 0.382812
vt 0.000000 0.382812
vt 0.609375 0.617188
vt 0.643555 0.625000
vt 0.609375 0.625000
vt 0.609375 0.992188
vt 0.661133 1.000000
vt 0.609375 1.000000
vt 0.609375 0.601562
vt 0.643555 0.609375
vt 0.333008 0.590820
vt 0.333008 0.625000
vt 0.375000 0.637695
vt 0.426758 0.671875
vt 0.426758 0.637695
vt 0.031250 0.406250
vt 0.093750 0.390625
vt 0.062500 0.406250
vt 0.078125 0.468750
vt 0.031250 0.484375
vt 0.031250 0.468750
vt 0.125000 0.578125
vt 0.125000 0.531250
vt 0.421875 0.859375
vt 0.125000 0.390625
vt 0.093750 0.406250
vt 0.515625 0.953125
vt 0.156250 0.390625
vt 0.125000 0.406250
vt 0.156250 0.578125
vt 0.156250 0.531250
vt 0.625000 0.789062
vt 0.625000 0.796875
vt 0.609375 0.414062
vt 0.642578 0.421875
vt 0.609375 0.421875
vt 0.265625 0.367188
vt 0.234375 0.375000
vt 0.234375 0.367188
vt 0.593750 0.382812
vt 0.626953 0.390625
vt 0.593750 0.390625
vt 0.281250 0.531250
vt 0.250000 0.498047
vt 0.281250 0.498047
vt 0.500000 0.701172
vt 0.468750 0.734375
vt 0.500000 0.734375
vt 0.187500 0.390625
vt 0.156250 0.406250
vt 0.515625 0.921875
vt 0.187500 0.406250
vt 0.125000 0.468750
vt 0.078125 0.484375
vt 0.187500 0.531250
vt 0.218750 0.578125
vt 0.218750 0.531250
vt 0.593750 0.812500
vt 0.593750 0.796875
vt 0.515625 0.906250
vt 0.625000 0.781250
vt 0.593750 0.781250
vt 0.515625 0.890625
vt 0.453125 0.765625
vt 0.250000 0.578125
vt 0.250000 0.531250
vt 0.656250 0.742188
vt 0.625000 0.750000
vt 0.625000 0.742188
vt 0.487305 0.382812
vt 0.453125 0.390625
vt 0.453125 0.382812
vt 0.296875 0.367188
vt 0.265625 0.375000
vt 0.609375 0.523438
vt 0.643555 0.531250
vt 0.609375 0.531250
vt 0.484375 0.747070
vt 0.484375 0.781250
vt 0.453125 0.590820
vt 0.484375 0.625000
vt 0.484375 0.590820
vt 0.250000 0.406250
vt 0.218750 0.406250
vt 0.515625 0.875000
vt 0.250000 0.390625
vt 0.281250 0.406250
vt 0.171875 0.468750
vt 0.125000 0.484375
vt 0.453125 0.718750
vt 0.593750 0.734375
vt 0.515625 0.859375
vt 0.281250 0.390625
vt 0.312500 0.406250
vt 0.515625 0.843750
vt 0.312500 0.531250
vt 0.312500 0.578125
vt 0.343750 0.578125
vt 0.343750 0.531250
vt 0.656250 0.710938
vt 0.625000 0.718750
vt 0.625000 0.710938
vt 0.033203 0.367188
vt 0.000000 0.375000
vt 0.000000 0.367188
vt 0.328125 0.375000
vt 0.296875 0.375000
vt 0.080078 0.367188
vt 0.046875 0.375000
vt 0.046875 0.367188
vt 0.312500 0.498047
vt 0.343750 0.498047
vt 0.504883 0.515625
vt 0.515625 0.828125
vt 0.484375 0.531250
vt 0.536133 0.546875
vt 0.218750 0.468750
vt 0.171875 0.484375
vt 0.203125 1.000000
vt 0.254883 0.953125
vt 0.254883 1.000000
vt 0.203125 0.906250
vt 0.254883 0.906250
vt 0.051758 0.439453
vt 0.000000 0.439453
vt 0.171875 0.439453
vt 0.125000 0.453125
vt 0.125000 0.439453
vt 0.062500 0.439453
vt 0.114258 0.453125
vt 0.062500 0.453125
vt 0.218750 0.439453
vt 0.171875 0.453125
vt 0.000000 0.718750
vt 0.051758 0.718750
vt 0.062500 0.718750
vt 0.114258 0.718750
vt 0.661133 0.976562
vt 0.609375 0.984375
vt 0.609375 0.976562
vt 0.643555 0.507812
vt 0.609375 0.515625
vt 0.609375 0.507812
vt 0.661133 0.960938
vt 0.609375 0.960938
vt 0.534180 0.382812
vt 0.500000 0.382812
vt 0.343750 0.625000
vt 0.395508 0.590820
vt 0.395508 0.625000
vt 0.390625 0.965820
vt 0.442383 1.000000
vt 0.442383 0.965820
vt 0.625000 0.703125
vt 0.562500 0.812500
vt 0.515625 0.812500
vt 0.625000 0.687500
vt 0.265625 0.484375
vt 0.218750 0.484375
vt 0.375000 0.531250
vt 0.375000 0.578125
vt 0.406250 0.531250
vt 0.406250 0.578125
vt 0.343750 0.390625
vt 0.312500 0.390625
vt 0.515625 0.781250
vt 0.515625 0.765625
vt 0.515625 0.750000
vt 0.421875 0.625000
vt 0.453125 0.578125
vt 0.453125 0.625000
vt 0.421875 0.531250
vt 0.625000 0.695312
vt 0.093750 0.367188
vt 0.126953 0.375000
vt 0.093750 0.375000
vt 0.625000 0.679688
vt 0.173828 0.367188
vt 0.140625 0.375000
vt 0.140625 0.367188
vt 0.468750 0.654297
vt 0.500000 0.654297
vt 0.375000 0.498047
vt 0.593750 0.656250
vt 0.625000 0.671875
vt 0.312500 0.468750
vt 0.265625 0.468750
vt 0.375000 0.406250
vt 0.343750 0.406250
vt 0.359375 0.484375
vt 0.312500 0.484375
vt 0.468750 0.718750
vt 0.468750 0.671875
vt 0.437500 0.625000
vt 0.593750 0.640625
vt 0.625000 0.656250
vt 0.359375 0.468750
vt 0.406250 0.484375
vt 0.406250 0.390625
vt 0.375000 0.390625
vt 0.515625 0.625000
vt 0.484375 0.953125
vt 0.328125 0.367188
vt 0.359375 0.375000
vt 0.187500 0.367188
vt 0.220703 0.375000
vt 0.187500 0.375000
vt 0.656250 0.664062
vt 0.625000 0.664062
vt 0.625000 0.804688
vt 0.658203 0.812500
vt 0.625000 0.812500
vt 0.406250 0.498047
vt 0.421875 0.498047
vt 0.453125 0.498047
vt 0.656250 0.648438
vt 0.625000 0.648438
vt 0.581055 0.382812
vt 0.546875 0.390625
vt 0.546875 0.382812
vt 0.390625 0.367188
vt 0.359375 0.367188
vt 0.643555 0.429688
vt 0.609375 0.437500
vt 0.609375 0.429688
vt 0.484375 0.543945
vt 0.031250 0.497070
vt 0.062500 0.497070
vt 0.424805 0.293945
vt 0.421875 0.390625
vt 0.421875 0.293945
vt 0.015625 0.481445
vt 0.000000 0.578125
vt 0.000000 0.481445
vt 0.440430 0.293945
vt 0.437500 0.293945
vt 0.031250 0.481445
vt 0.015625 0.578125
vt 0.156250 0.312500
vt 0.159180 0.296875
vt 0.159180 0.312500
vt 0.690430 0.843750
vt 0.690430 0.828125
vt 0.177734 0.312500
vt 0.171875 0.328125
vt 0.346680 0.375000
vt 0.328125 0.390625
vt 0.365234 0.312500
vt 0.359375 0.328125
vt 0.359375 0.312500
vt 0.377930 0.375000
vt 0.359375 0.390625
vt 0.078125 0.328125
vt 0.083984 0.309570
vt 0.083984 0.328125
vt 0.093750 0.309570
vt 0.099609 0.328125
vt 0.099609 0.309570
vt 0.393555 0.293945
vt 0.390625 0.390625
vt 0.390625 0.293945
vt 0.421875 0.856445
vt 0.406250 0.953125
vt 0.406250 0.856445
vt 0.409180 0.293945
vt 0.406250 0.293945
vt 0.421875 0.528320
vt 0.406250 0.625000
vt 0.406250 0.528320
vt 0.140625 0.312500
vt 0.143555 0.296875
vt 0.143555 0.312500
vt 0.687500 0.843750
vt 0.690430 0.859375
vt 0.458984 0.718750
vt 0.453125 0.734375
vt 0.627930 0.718750
vt 0.609375 0.718750
vt 0.412109 0.437500
vt 0.406250 0.453125
vt 0.406250 0.437500
vt 0.315430 0.375000
vt 0.296875 0.390625
vt 0.375000 0.343750
vt 0.380859 0.325195
vt 0.380859 0.343750
vt 0.068359 0.328125
vt 0.068359 0.309570
vt 0.375000 0.338867
vt 0.343750 0.343750
vt 0.343750 0.338867
vt 0.687500 0.651367
vt 0.656250 0.656250
vt 0.656250 0.651367
vt 0.687500 0.620117
vt 0.656250 0.625000
vt 0.656250 0.620117
vt 0.687500 0.604492
vt 0.656250 0.609375
vt 0.656250 0.604492
vt 0.484375 0.875000
vt 0.674805 0.385742
vt 0.640625 0.390625
vt 0.640625 0.385742
vt 0.484375 0.338867
vt 0.453125 0.343750
vt 0.453125 0.338867
vt 0.674805 0.370117
vt 0.640625 0.375000
vt 0.687500 0.526367
vt 0.656250 0.531250
vt 0.656250 0.526367
vt 0.096680 0.500000
vt 0.096680 0.531250
vt 0.109375 0.500000
vt 0.143555 0.531250
vt 0.143555 0.500000
vt 0.515625 0.338867
vt 0.484375 0.343750
vt 0.687500 0.510742
vt 0.656250 0.515625
vt 0.656250 0.510742
vt 0.546875 0.338867
vt 0.515625 0.343750
vt 0.578125 0.338867
vt 0.546875 0.343750
vt 0.687500 0.432617
vt 0.656250 0.437500
vt 0.656250 0.432617
vt 0.609375 0.338867
vt 0.578125 0.343750
vt 0.687500 0.416992
vt 0.656250 0.421875
vt 0.656250 0.416992
vt 0.640625 0.338867
vt 0.609375 0.343750
vt 0.515625 0.593750
vt 0.190430 0.500000
vt 0.156250 0.500000
vt 0.411133 0.812500
vt 0.406250 0.843750
vt 0.237305 0.500000
vt 0.203125 0.531250
vt 0.203125 0.500000
vt 0.411133 0.484375
vt 0.406250 0.515625
vt 0.640625 0.359375
vt 0.674805 0.354492
vt 0.674805 0.359375
vt 0.000000 0.338867
vt 0.034180 0.343750
vt 0.034180 0.338867
vt 0.395508 0.906250
vt 0.192383 0.359375
vt 0.208008 0.312500
vt 0.203125 0.359375
vt 0.203125 0.312500
vt 0.223633 0.359375
vt 0.218750 0.359375
vt 0.192383 0.307617
vt 0.192383 0.312500
vt 0.203125 0.307617
vt 0.208008 0.307617
vt 0.239258 0.312500
vt 0.254883 0.359375
vt 0.270508 0.359375
vt 0.286133 0.359375
vt 0.218750 0.307617
vt 0.687500 0.781250
vt 0.445312 0.468750
vt 0.476562 0.468750
vt 0.484375 0.445312
vt 0.187500 0.310547
vt 0.687500 0.328125
vt 0.703125 0.828125
vt 0.593750 0.578125
vt 0.671875 0.635742
vt 0.687500 0.578125
vt 0.671875 0.588867
vt 0.687500 0.557617
vt 0.692383 0.343750
vt 0.051758 0.328125
vt 0.062500 0.484375
vt 0.687500 0.546875
vt 0.703125 0.968750
vt 0.062500 0.312500
vt 0.515625 0.500000
vt 0.703125 0.950195
vt 0.703125 0.812500
vt 0.703125 0.937500
vt 0.687500 0.500000
vt 0.000000 0.468750
vt 0.703125 0.918945
vt 0.703125 0.903320
vt 0.687500 0.484375
vt 0.723633 1.000000
vt 0.723633 0.981445
vt 0.703125 0.890625
vt 0.187500 0.484375
vt 0.687500 0.463867
vt 0.687500 0.682617
vt 0.687500 0.671875
vt 0.687500 0.448242
vt 0.703125 0.640625
vt 0.703125 0.593750
vt 0.703125 0.875000
vt 0.187500 0.354492
vt 0.531250 0.640625
vt 0.681641 0.948242
vt 0.377930 0.359375
vt 0.134766 0.385742
vt 0.487305 0.359375
vt 0.000000 0.872070
vt 0.078125 0.906250
vt 0.593750 0.737305
vt 0.078125 0.718750
vt 0.593750 0.706055
vt 0.593750 0.690430
vt 0.679688 0.870117
vt 0.080078 0.343750
vt 0.210938 0.385742
vt 0.126953 0.343750
vt 0.234375 0.906250
vt 0.593750 0.674805
vt 0.593750 0.659180
vt 0.281250 0.718750
vt 0.593750 0.534180
vt 0.312500 0.859375
vt 0.679688 0.859375
vt 0.173828 0.338867
vt 0.679688 0.843750
vt 0.689453 0.796875
vt 0.234375 0.859375
vt 0.203125 0.732422
vt 0.593750 0.487305
vt 0.593750 0.471680
vt 0.593750 0.456055
vt 0.000000 0.671875
vt 0.609375 0.956055
vt 0.609375 0.924805
vt 0.681641 0.937500
vt 0.534180 0.354492
vt 0.681641 0.921875
vt 0.581055 0.354492
vt 0.125000 0.918945
vt 0.609375 0.877930
vt 0.328125 0.812500
vt 0.679688 0.828125
vt 0.689453 0.750000
vt 0.289062 0.390625
vt 0.689453 0.713867
vt 0.250000 0.779297
vt 0.265625 0.966797
vt 0.609375 0.815430
vt 0.609375 0.768555
vt 0.609375 0.752930
vt 0.609375 0.721680
vt 0.343750 0.906250
vt 0.681641 0.906250
vt 0.627930 0.354492
vt 0.681641 0.890625
vt 0.674805 0.401367
vt 0.000000 0.825195
vt 0.078125 0.859375
vt 0.609375 0.596680
vt 0.666016 0.453125
vt 0.674805 0.728516
vt 0.634766 0.400391
vt 0.331055 0.359375
vt 0.156250 0.906250
vt 0.156250 0.859375
vt 0.679688 0.776367
vt 0.330078 0.343750
vt 0.679688 0.765625
vt 0.689453 0.703125
vt 0.265625 0.919922
vt 0.515625 0.409180
vt 0.536133 0.812500
vt 0.000000 0.916992
vt 0.031250 0.578125
vt 0.421875 0.906250
vt 0.536133 0.750000
vt 0.536133 0.593750
vt 0.000000 0.765625
vt 0.062500 0.812500
vt 0.125000 0.812500
vt 0.187500 0.765625
vt 0.051758 0.390625
vt 0.643555 0.617188
vt 0.661133 0.992188
vt 0.643555 0.601562
vt 0.281250 0.590820
vt 0.656250 0.789062
vt 0.642578 0.414062
vt 0.626953 0.382812
vt 0.468750 0.701172
vt 0.487305 0.390625
vt 0.643555 0.523438
vt 0.453125 0.747070
vt 0.625000 0.734375
vt 0.033203 0.375000
vt 0.080078 0.375000
vt 0.504883 0.500000
vt 0.536133 0.531250
vt 0.203125 0.953125
vt 0.051758 0.453125
vt 0.114258 0.439453
vt 0.661133 0.984375
vt 0.643555 0.515625
vt 0.661133 0.968750
vt 0.534180 0.390625
vt 0.343750 0.590820
vt 0.562500 0.750000
vt 0.421875 0.578125
vt 0.656250 0.695312
vt 0.126953 0.367188
vt 0.656250 0.679688
vt 0.173828 0.375000
vt 0.468750 0.687500
vt 0.453125 1.000000
vt 0.220703 0.367188
vt 0.658203 0.804688
vt 0.581055 0.390625
vt 0.390625 0.375000
vt 0.643555 0.437500
vt 0.453125 0.543945
vt 0.424805 0.390625
vt 0.440430 0.390625
vt 0.156250 0.296875
vt 0.177734 0.328125
vt 0.346680 0.390625
vt 0.365234 0.328125
vt 0.377930 0.390625
vt 0.078125 0.309570
vt 0.093750 0.328125
vt 0.393555 0.390625
vt 0.409180 0.390625
vt 0.140625 0.296875
vt 0.687500 0.859375
vt 0.458984 0.734375
vt 0.627930 0.734375
vt 0.412109 0.453125
vt 0.315430 0.390625
vt 0.375000 0.325195
vt 0.062500 0.328125
vt 0.687500 0.656250
vt 0.687500 0.625000
vt 0.687500 0.609375
vt 0.674805 0.390625
vt 0.674805 0.375000
vt 0.687500 0.531250
vt 0.109375 0.531250
vt 0.687500 0.515625
vt 0.484375 0.843750
vt 0.687500 0.437500
vt 0.687500 0.421875
vt 0.190430 0.531250
vt 0.411133 0.843750
vt 0.237305 0.531250
vt 0.411133 0.515625
vt 0.640625 0.354492
vt 0.000000 0.343750
vt 0.395508 0.953125
vt 0.208008 0.359375
vt 0.187500 0.307617
s 1
usemtl m_f96b3657-4cf0-1b23-9b01-45b4cba4b9be
f 4/1/1 5/2/1 2/3/1
f 4/4/2 1/5/2 3/6/2
f 3/7/3 6/8/3 8/9/3
f 8/10/4 5/11/4 7/12/4
f 1/13/5 5/14/5 6/15/6
f 4/16/7 8/17/7 7/18/7
f 15/19/8 10/20/8 12/21/8
f 12/22/9 9/23/9 11/24/9
f 11/25/10 14/21/10 16/26/10
f 16/27/11 13/28/11 15/29/11
f 9/30/12 13/31/12 14/32/12
f 12/31/13 16/33/13 15/34/13
s 0
f 20/35/14 21/36/15 18/35/10
f 19/35/16 18/37/17 17/35/10
f 24/35/18 17/36/19 22/35/8
f 23/35/20 22/37/21 21/35/8
s 1
f 17/38/22 21/39/22 22/40/22
f 23/41/23 19/42/23 24/39/23
f 28/43/24 29/44/25 26/45/24
f 27/46/26 26/47/27 25/48/26
f 27/49/28 30/44/29 32/50/29
f 32/51/30 29/52/31 31/53/31
f 25/54/32 29/55/32 30/56/32
f 31/57/33 27/58/33 32/59/33
f 36/60/34 37/61/34 34/62/34
f 36/63/35 33/64/35 35/65/35
f 40/66/36 33/67/37 38/59/36
f 39/68/38 38/69/38 37/70/38
f 33/71/39 37/72/39 38/73/39
f 36/74/40 40/75/40 39/28/40
f 47/76/41 42/77/41 44/78/41
f 43/79/42 42/80/42 41/81/42
f 43/82/43 46/83/44 48/84/44
f 48/85/45 45/80/45 47/86/45
f 41/87/46 45/88/46 46/89/46
f 47/90/47 43/91/47 48/92/47
f 52/93/48 53/64/49 50/57/48
f 51/94/50 50/95/50 49/96/50
f 56/97/51 49/70/52 54/98/51
f 56/99/53 53/100/53 55/101/53
f 54/102/54 50/28/54 53/103/54
f 55/104/55 51/105/55 56/106/55
f 63/107/56 58/108/57 60/109/57
f 60/110/58 57/111/58 59/85/58
f 59/112/59 62/113/59 64/114/59
f 64/115/60 61/116/61 63/110/61
f 62/57/62 58/117/62 61/98/62
f 63/118/63 59/56/63 64/119/63
f 71/120/64 66/121/64 68/122/64
f 67/123/65 66/124/65 65/95/65
f 67/101/66 70/125/67 72/126/67
f 72/127/68 69/124/68 71/128/68
f 65/129/69 69/130/69 70/104/70
f 71/33/71 67/102/71 72/131/71
f 79/132/72 74/133/72 76/112/72
f 75/134/9 74/135/9 73/136/9
f 75/137/73 78/138/73 80/139/73
f 80/140/11 77/141/11 79/142/11
f 73/117/74 77/125/74 78/98/74
f 76/143/75 80/125/75 79/144/75
f 87/145/76 82/146/76 84/120/76
f 84/147/77 81/148/77 83/127/77
f 83/149/78 86/150/79 88/151/79
f 88/152/80 85/153/80 87/149/80
f 86/154/81 82/155/81 85/156/81
f 87/157/82 83/154/82 88/158/82
f 92/159/83 93/160/84 90/161/83
f 91/162/26 90/163/27 89/164/26
f 91/165/85 94/160/85 96/166/85
f 95/167/30 94/168/30 93/169/30
f 89/119/86 93/170/86 94/171/86
f 92/170/87 96/172/87 95/173/87
f 103/174/88 98/175/89 100/176/89
f 99/147/35 98/177/35 97/178/35
f 99/179/90 102/180/91 104/181/91
f 104/182/38 101/183/38 103/174/38
f 97/158/92 101/184/92 102/185/92
f 100/184/93 104/186/93 103/187/93
f 111/188/94 106/189/94 108/190/94
f 107/191/45 106/192/45 105/193/45
f 112/194/95 105/195/96 110/196/95
f 112/197/42 109/198/42 111/199/42
f 105/200/97 109/201/97 110/202/97
f 108/203/98 112/204/98 111/205/98
f 119/206/99 114/207/99 116/145/99
f 116/208/50 113/177/50 115/209/50
f 115/210/100 118/211/101 120/206/101
f 119/179/53 118/212/53 117/213/53
f 113/186/102 117/214/102 118/215/102
f 119/216/103 115/215/103 120/217/103
f 124/218/104 125/219/104 122/220/104
f 124/221/105 121/222/105 123/208/105
f 123/223/106 126/224/106 128/225/106
f 127/226/61 126/227/61 125/228/61
f 121/229/107 125/175/107 126/150/107
f 127/180/108 123/230/108 128/175/108
f 135/231/109 130/232/109 132/233/109
f 131/221/65 130/234/65 129/235/65
f 136/231/110 129/236/110 134/237/110
f 135/238/68 134/239/68 133/234/68
f 129/217/111 133/240/112 134/241/112
f 132/240/113 136/242/113 135/243/113
f 143/244/114 138/61/115 140/245/115
f 140/246/9 137/192/9 139/247/9
f 139/248/116 142/67/116 144/249/116
f 144/250/11 141/251/11 143/252/11
f 137/172/117 141/253/117 142/254/117
f 140/255/118 144/180/118 143/256/118
f 151/257/119 146/236/119 148/258/119
f 148/259/77 145/239/77 147/260/77
f 152/257/120 145/261/120 150/262/120
f 152/263/80 149/264/80 151/259/80
f 150/265/121 146/266/122 149/267/121
f 151/268/123 147/242/123 152/23/123
f 156/269/124 157/270/124 154/271/124
f 156/272/125 153/273/38 155/274/38
f 160/275/126 153/276/126 158/277/126
f 160/278/35 157/279/35 159/280/35
f 153/281/127 157/282/127 158/283/127
f 156/284/128 160/285/128 159/286/128
f 167/287/34 162/288/34 164/289/34
f 164/290/35 161/291/35 163/292/35
f 163/293/36 166/294/36 168/295/36
f 167/296/38 166/297/38 165/298/38
f 166/299/39 162/300/39 165/301/39
f 167/302/40 163/299/40 168/303/40
f 175/304/129 170/305/129 172/293/129
f 171/306/35 170/307/35 169/308/35
f 176/309/130 169/310/130 174/311/130
f 175/304/38 174/312/38 173/313/38
f 169/303/131 173/314/131 174/315/131
f 175/316/132 171/315/132 176/317/132
f 180/318/133 181/319/133 178/320/133
f 180/321/80 177/322/80 179/323/80
f 184/324/134 177/325/135 182/326/134
f 184/327/77 181/328/77 183/329/77
f 182/330/136 178/331/136 181/332/136
f 180/333/137 184/334/137 183/335/137
f 188/336/119 189/337/119 186/338/119
f 187/339/77 186/340/77 185/341/77
f 187/342/120 190/343/120 192/344/120
f 192/345/80 189/312/80 191/346/80
f 185/347/138 189/348/138 190/349/138
f 188/316/123 192/350/123 191/351/123
f 199/352/139 194/353/139 196/354/139
f 196/355/77 193/356/77 195/357/77
f 195/358/140 198/359/141 200/360/141
f 199/361/80 198/362/80 197/363/80
f 193/364/142 197/365/142 198/366/142
f 196/367/143 200/365/143 199/368/143
f 207/369/144 202/370/144 204/371/144
f 203/372/68 202/373/68 201/374/68
f 203/375/145 206/376/146 208/377/146
f 208/378/65 205/379/65 207/380/65
f 206/381/147 202/382/147 205/383/147
f 207/384/148 203/385/148 208/386/148
f 212/387/109 213/229/109 210/388/109
f 211/389/65 210/230/65 209/131/65
f 216/390/110 209/391/110 214/33/110
f 216/392/68 213/393/68 215/394/68
f 214/395/149 210/351/149 213/396/149
f 212/397/113 216/398/113 215/399/113
f 220/400/150 221/401/150 218/402/150
f 220/403/65 217/404/65 219/405/65
f 219/406/151 222/407/152 224/408/152
f 223/409/68 222/410/68 221/411/68
f 217/398/153 221/412/153 222/413/153
f 220/412/154 224/414/154 223/415/154
f 231/416/99 226/401/99 228/417/99
f 228/418/50 225/419/50 227/420/50
f 232/421/100 225/422/100 230/423/100
f 232/424/53 229/425/53 231/426/53
f 225/414/102 229/427/102 230/428/102
f 228/427/103 232/429/103 231/430/103
f 239/431/155 234/422/155 236/432/155
f 235/433/53 234/434/53 233/435/53
f 235/436/156 238/437/156 240/438/156
f 239/439/157 238/440/50 237/441/157
f 238/442/158 234/443/158 237/444/158
f 239/445/159 235/446/159 240/447/159
f 244/416/160 245/448/160 242/449/160
f 244/450/50 241/451/50 243/452/50
f 248/453/161 241/454/161 246/455/161
f 248/456/53 245/457/53 247/458/53
f 246/459/162 242/349/162 245/460/162
f 244/430/163 248/461/163 247/462/163
f 255/463/164 250/464/165 252/465/165
f 252/466/80 249/467/80 251/468/80
f 251/469/166 254/470/167 256/471/167
f 255/472/77 254/473/77 253/474/77
f 249/475/168 253/476/168 254/477/168
f 255/478/169 251/479/169 256/480/169
f 263/481/76 258/448/76 260/482/76
f 260/483/77 257/484/77 259/485/77
f 259/486/79 262/487/79 264/488/79
f 263/489/80 262/464/80 261/490/80
f 262/460/81 258/348/81 261/491/170
f 263/492/171 259/461/171 264/493/171
f 271/494/172 266/495/172 268/481/172
f 267/496/77 266/497/77 265/498/77
f 267/499/173 270/500/173 272/494/173
f 271/501/80 270/502/80 269/503/80
f 265/493/174 269/504/174 270/505/174
f 271/506/175 267/507/175 272/508/175
f 276/509/88 277/510/88 274/511/88
f 275/499/35 274/512/35 273/513/35
f 275/514/90 278/512/90 280/515/90
f 279/514/38 278/24/38 277/516/38
f 273/517/92 277/518/92 278/506/92
f 276/365/93 280/519/93 279/520/93
f 287/521/176 282/522/176 284/523/176
f 283/524/125 282/525/125 281/526/125
f 283/527/177 286/454/177 288/528/177
f 287/529/35 286/530/35 285/531/35
f 281/532/178 285/533/178 286/534/178
f 284/535/179 288/536/179 287/537/179
f 295/538/180 290/539/180 292/540/180
f 291/541/35 290/542/35 289/73/35
f 291/543/181 294/24/181 296/544/181
f 295/543/38 294/545/38 293/546/38
f 294/520/182 290/368/182 293/547/182
f 295/548/183 291/395/183 296/549/183
f 303/550/184 298/255/184 300/551/184
f 299/552/53 298/553/53 297/554/53
f 304/555/185 297/556/185 302/254/185
f 304/557/50 301/558/50 303/559/50
f 302/560/186 298/561/186 301/562/186
f 300/563/187 304/564/187 303/565/187
f 311/566/48 306/106/48 308/567/48
f 308/568/50 305/104/50 307/569/50
f 312/570/51 305/571/51 310/545/51
f 312/572/53 309/571/53 311/573/53
f 305/397/54 309/574/54 310/399/54
f 308/574/55 312/412/55 311/575/55
f 319/576/188 314/577/188 316/578/188
f 316/579/50 313/580/50 315/576/50
f 320/579/189 313/581/189 318/582/189
f 320/583/53 317/581/53 319/584/53
f 313/412/190 317/585/190 318/415/190
f 316/585/191 320/427/191 319/586/191
f 324/583/192 325/587/192 322/588/192
f 324/589/65 321/587/65 323/590/65
f 323/591/193 326/592/193 328/589/193
f 327/591/68 326/593/68 325/594/68
f 321/427/194 325/595/194 326/430/194
f 324/460/195 328/596/195 327/597/195
f 332/598/196 333/599/197 330/497/196
f 332/600/68 329/601/68 331/602/68
f 331/603/198 334/502/198 336/604/198
f 336/605/65 333/606/65 335/607/65
f 329/608/199 333/609/199 334/610/199
f 332/611/200 336/612/200 335/613/200
f 343/614/64 338/265/64 340/615/64
f 340/616/65 337/593/65 339/617/65
f 344/616/66 337/618/66 342/619/66
f 343/620/68 342/621/68 341/618/68
f 337/430/69 341/622/69 342/462/69
f 340/491/201 344/597/201 343/623/201
f 348/387/109 349/229/109 346/388/109
f 347/389/65 346/230/65 345/131/65
f 352/390/110 345/391/110 350/33/110
f 352/392/68 349/393/68 351/394/68
f 350/395/149 346/351/149 349/396/149
f 348/397/113 352/398/113 351/399/113
f 359/266/45 354/624/45 356/625/45
f 356/626/9 353/627/9 355/628/9
f 355/129/42 358/629/42 360/630/42
f 360/631/11 357/628/11 359/632/11
f 353/35/202 357/633/202 358/634/202
f 356/633/203 360/635/203 359/636/203
f 367/637/204 362/621/204 364/638/204
f 363/639/9 362/308/9 361/203/9
f 363/640/205 366/641/205 368/637/205
f 368/338/11 365/639/11 367/642/11
f 361/549/206 365/643/206 366/644/206
f 364/645/207 368/646/207 367/647/207
f 375/648/72 370/649/72 372/640/72
f 372/341/9 369/642/9 371/650/9
f 371/651/73 374/652/73 376/653/73
f 375/654/11 374/341/11 373/650/11
f 369/655/74 373/38/74 374/656/74
f 372/647/75 376/575/75 375/657/75
f 383/658/41 378/659/41 380/660/41
f 380/661/42 377/654/42 379/662/42
f 379/663/43 382/664/43 384/665/43
f 384/102/45 381/666/45 383/75/45
f 377/667/46 381/668/46 382/669/46
f 380/670/47 384/671/47 383/672/47
f 391/673/208 386/665/208 388/674/208
f 388/131/42 385/675/42 387/102/42
f 392/676/209 385/673/209 390/674/209
f 392/407/45 389/677/45 391/678/45
f 390/679/210 386/680/210 389/681/210
f 391/682/211 387/683/211 392/684/211
f 399/685/212 394/653/212 396/686/212
f 395/687/45 394/688/45 393/689/45
f 400/690/213 393/691/213 398/692/213
f 399/693/42 398/694/42 397/542/42
f 393/462/214 397/695/214 398/696/214
f 396/697/215 400/698/215 399/699/215
f 407/277/216 402/700/216 404/651/216
f 403/19/27 402/407/27 401/678/27
f 403/701/217 406/702/217 408/277/217
f 408/703/31 405/704/31 407/705/31
f 406/706/218 402/657/218 405/707/218
f 404/708/219 408/38/219 407/42/219
f 415/709/220 410/710/220 412/701/220
f 411/711/27 410/411/27 409/19/27
f 411/712/221 414/713/221 416/709/221
f 416/423/31 413/711/31 415/25/31
f 414/714/32 410/707/32 413/715/32
f 412/596/33 416/42/33 415/627/33
f 420/716/222 421/379/222 418/717/222
f 419/718/31 418/719/31 417/720/31
f 419/721/223 422/722/223 424/723/223
f 423/724/27 422/725/27 421/726/27
f 422/727/224 418/728/224 421/729/224
f 423/730/225 419/731/225 424/732/225
f 431/733/226 426/734/226 428/712/226
f 427/735/9 426/423/9 425/25/9
f 427/470/227 430/736/227 432/733/227
f 432/737/11 429/738/11 431/703/11
f 425/714/228 429/739/228 430/586/228
f 428/739/229 432/740/229 431/741/229
f 439/717/230 434/742/230 436/743/230
f 435/744/9 434/425/9 433/735/9
f 435/745/116 438/743/116 440/746/116
f 440/455/11 437/744/11 439/747/11
f 433/596/117 437/748/117 438/627/117
f 436/741/118 440/749/118 439/750/118
f 447/751/231 442/752/231 444/753/231
f 444/754/9 441/755/9 443/756/9
f 443/757/232 446/758/232 448/721/232
f 447/759/11 446/760/11 445/761/11
f 441/632/233 445/762/233 446/763/233
f 444/764/234 448/765/234 447/766/234
f 452/470/235 453/767/235 450/768/235
f 451/769/105 450/455/105 449/747/105
f 456/770/236 449/771/236 454/767/236
f 456/772/61 453/773/61 455/737/61
f 449/597/237 453/774/237 454/748/237
f 455/727/238 451/749/238 456/622/238
f 460/775/104 461/752/104 458/297/104
f 460/484/105 457/769/105 459/776/105
f 464/777/106 457/778/106 462/771/106
f 464/487/61 461/776/61 463/779/61
f 457/622/107 461/780/107 462/781/107
f 460/780/108 464/782/108 463/783/108
f 471/784/239 466/785/239 468/786/239
f 468/787/61 465/788/61 467/789/61
f 472/757/240 465/790/240 470/791/240
f 472/792/105 469/793/105 471/794/105
f 465/727/241 469/795/241 470/780/241
f 468/795/242 472/783/242 471/796/242
f 476/666/243 477/797/243 474/630/243
f 476/490/45 473/779/45 475/798/45
f 480/799/244 473/800/244 478/676/244
f 480/801/42 477/802/42 479/772/42
f 473/803/245 477/804/245 478/805/245
f 476/806/246 480/804/246 479/807/246
f 487/808/247 482/155/247 484/809/247
f 484/810/45 481/811/45 483/812/45
f 488/813/95 481/814/95 486/815/95
f 488/816/42 485/817/42 487/810/42
f 486/668/97 482/818/97 485/819/97
f 484/820/98 488/672/98 487/821/98
f 495/822/248 490/823/248 492/824/248
f 492/825/42 489/826/42 491/827/42
f 491/828/249 494/410/249 496/829/249
f 496/830/45 493/170/45 495/831/45
f 489/832/250 493/833/250 494/834/250
f 492/835/251 496/836/251 495/837/251
f 503/838/252 498/307/252 500/310/252
f 500/839/27 497/798/27 499/840/27
f 499/841/253 502/310/253 504/337/253
f 503/801/31 502/842/31 501/843/31
f 497/782/254 501/844/254 502/845/254
f 503/846/255 499/845/255 504/847/255
f 511/848/256 506/778/256 508/849/256
f 508/503/27 505/850/27 507/851/27
f 512/340/257 505/841/258 510/337/257
f 511/852/31 510/503/31 509/851/31
f 505/853/86 509/854/86 510/855/86
f 508/856/87 512/854/87 511/629/87
f 516/857/259 517/606/259 514/838/259
f 515/858/31 514/859/31 513/860/31
f 520/861/260 513/220/261 518/841/260
f 520/862/27 517/863/27 519/864/27
f 518/642/262 514/865/262 517/866/262
f 519/867/263 515/783/263 520/844/263
f 524/868/264 525/869/264 522/340/264
f 524/870/105 521/842/105 523/871/105
f 528/848/265 521/872/265 526/873/265
f 527/870/61 526/874/61 525/875/61
f 526/876/266 522/643/266 525/877/266
f 524/878/267 528/877/267 527/625/267
f 532/879/268 533/880/268 530/868/268
f 531/881/105 530/882/105 529/874/105
f 531/883/269 534/872/270 536/884/270
f 535/71/61 534/539/61 533/885/61
f 534/20/62 530/656/62 533/886/62
f 532/38/63 536/886/63 535/40/63
f 540/887/271 541/888/271 538/790/271
f 539/889/61 538/890/61 537/891/61
f 539/892/272 542/869/273 544/893/273
f 543/894/105 542/895/105 541/896/105
f 537/844/274 541/897/274 542/846/274
f 540/898/275 544/629/275 543/899/275
f 551/900/276 546/880/276 548/901/276
f 548/902/9 545/903/9 547/904/9
f 547/905/277 550/888/277 552/906/277
f 552/907/11 549/908/11 551/909/11
f 545/854/278 549/910/278 550/665/278
f 548/911/279 552/647/279 551/912/279
f 559/913/8 554/914/8 556/915/8
f 556/916/9 553/917/9 555/918/9
f 555/919/10 558/55/10 560/920/10
f 560/921/11 557/922/11 559/916/11
f 553/923/12 557/924/12 558/925/12
f 556/52/13 560/926/13 559/927/13
f 567/928/8 562/929/8 564/48/8
f 564/930/9 561/931/9 563/790/9
f 563/932/10 566/933/10 568/934/10
f 568/935/11 565/936/11 567/888/11
f 561/937/12 565/938/12 566/939/12
f 564/940/13 568/941/13 567/942/13
f 575/943/8 570/944/8 572/945/8
f 572/946/9 569/947/9 571/948/9
f 571/949/10 574/883/10 576/950/10
f 576/951/11 573/952/11 575/953/11
f 569/954/12 573/955/12 574/956/12
f 572/957/13 576/958/13 575/926/13
f 583/959/8 578/960/8 580/774/8
f 580/961/9 577/510/9 579/962/9
f 579/963/10 582/964/10 584/965/10
f 584/966/11 581/967/11 583/791/11
f 577/968/12 581/969/12 582/970/12
f 580/115/13 584/971/13 583/972/13
f 591/973/8 586/974/8 588/975/8
f 588/976/9 585/977/9 587/978/9
f 587/979/10 590/980/10 592/981/10
f 592/982/11 589/983/11 591/984/11
f 585/26/12 589/744/12 590/25/12
f 588/985/13 592/744/13 591/769/13
f 599/986/8 594/987/8 596/988/8
f 596/989/9 593/990/9 595/991/9
f 595/992/10 598/993/10 600/210/10
f 600/994/11 597/995/11 599/996/11
f 593/647/12 597/997/12 598/998/12
f 596/999/13 600/1000/13 599/1001/13
f 607/1002/8 602/1003/8 604/989/8
f 604/1004/12 601/1005/12 603/1006/12
f 603/1007/10 606/1008/10 608/1002/10
f 608/1009/13 605/1010/13 607/1007/13
f 601/985/11 605/779/11 606/769/11
f 604/41/9 608/779/9 607/840/9
f 615/1011/8 610/1012/8 612/1013/8
f 612/1014/12 609/1015/12 611/1009/12
f 611/1016/10 614/1017/10 616/1018/10
f 616/1019/13 613/1020/13 615/1014/13
f 609/763/11 613/852/11 614/850/11
f 612/664/9 616/885/9 615/1021/9
f 623/1022/8 618/715/8 620/1023/8
f 620/1024/9 617/1025/9 619/547/9
f 619/1026/10 622/1027/10 624/1028/10
f 624/1029/11 621/1030/11 623/882/11
f 617/1031/12 621/1032/12 622/1033/12
f 620/1034/13 624/1035/13 623/1036/13
f 631/1037/280 626/506/280 628/518/280
f 627/47/2 626/1038/2 625/261/2
f 627/1039/281 630/1040/281 632/1041/281
f 631/13/4 630/1042/4 629/1043/4
f 625/47/282 629/1044/282 630/1045/283
f 628/1046/284 632/1039/284 631/1047/284
f 4/1/1 7/1048/1 5/2/1
f 4/4/2 2/1049/2 1/5/2
f 3/7/3 1/1050/3 6/8/3
f 8/10/4 6/1051/4 5/11/4
f 1/13/5 2/1052/5 5/14/5
f 4/16/7 3/1053/7 8/17/7
f 15/19/8 13/677/8 10/20/8
f 12/22/9 10/1054/9 9/23/9
f 11/25/10 9/19/10 14/21/10
f 16/27/11 14/1055/11 13/28/11
f 9/30/12 10/1056/12 13/31/12
f 12/31/13 11/32/13 16/33/13
s 0
f 20/35/285 23/36/10 21/36/286
f 19/35/287 20/37/10 18/37/288
f 24/35/289 19/36/8 17/36/290
f 23/35/291 24/37/8 22/37/292
s 1
f 17/38/22 18/42/22 21/39/22
f 23/41/23 20/627/23 19/42/23
f 28/43/24 31/50/25 29/44/25
f 27/46/26 28/1057/27 26/47/27
f 27/49/28 25/1058/28 30/44/29
f 32/51/30 30/1059/30 29/52/31
f 25/54/32 26/883/32 29/55/32
f 31/57/33 28/1060/33 27/58/33
f 36/60/34 39/1061/34 37/61/34
f 36/63/35 34/1062/35 33/64/35
f 40/66/36 35/1063/37 33/67/37
f 39/68/38 40/1064/38 38/69/38
f 33/71/39 34/1021/39 37/72/39
f 36/74/40 35/882/40 40/75/40
f 47/76/41 45/1065/41 42/77/41
f 43/79/42 44/86/42 42/80/42
f 43/82/43 41/1066/43 46/83/44
f 48/85/45 46/111/45 45/80/45
f 41/87/46 42/1067/46 45/88/46
f 47/90/47 44/773/47 43/91/47
f 52/93/48 55/65/49 53/64/49
f 51/94/50 52/123/50 50/95/50
f 56/97/51 51/68/52 49/70/52
f 56/99/53 54/1068/53 53/100/53
f 54/102/54 49/75/54 50/28/54
f 55/104/55 52/129/55 51/105/55
f 63/107/56 61/1069/56 58/108/57
f 60/110/58 58/116/58 57/111/58
f 59/112/59 57/133/59 62/113/59
f 64/115/60 62/1070/60 61/116/61
f 62/57/62 57/1060/62 58/117/62
f 63/118/63 60/55/63 59/56/63
f 71/120/64 69/146/64 66/121/64
f 67/123/65 68/128/65 66/124/65
f 67/101/66 65/100/66 70/125/67
f 72/127/68 70/148/68 69/124/68
f 65/129/69 66/1071/69 69/130/69
f 71/33/71 68/103/71 67/102/71
f 79/132/72 77/929/72 74/133/72
f 75/134/9 76/1072/9 74/135/9
f 75/137/73 73/1073/73 78/138/73
f 80/140/11 78/1074/11 77/141/11
f 73/117/74 74/362/74 77/125/74
f 76/143/75 75/362/75 80/125/75
f 87/145/76 85/207/76 82/146/76
f 84/147/77 82/178/77 81/148/77
f 83/149/78 81/153/78 86/150/79
f 88/152/80 86/1075/80 85/153/80
f 86/154/81 81/1076/293 82/155/81
f 87/157/82 84/156/82 83/154/82
f 92/159/83 95/166/84 93/160/84
f 91/162/26 92/1077/27 90/163/27
f 91/165/85 89/933/85 94/160/85
f 95/167/30 96/1078/30 94/168/30
f 89/119/86 90/118/86 93/170/86
f 92/170/87 91/171/87 96/172/87
f 103/174/88 101/183/88 98/175/89
f 99/147/35 100/209/35 98/177/35
f 99/179/90 97/213/90 102/180/91
f 104/182/38 102/1079/38 101/183/38
f 97/158/92 98/157/92 101/184/92
f 100/184/93 99/185/93 104/186/93
f 111/188/94 109/1080/94 106/189/94
f 107/191/45 108/247/45 106/192/45
f 112/194/95 107/1081/96 105/195/96
f 112/197/42 110/1082/42 109/198/42
f 105/200/97 106/1083/97 109/201/97
f 108/203/98 107/732/98 112/204/98
f 119/206/99 117/211/99 114/207/99
f 116/208/50 114/222/50 113/177/50
f 115/210/100 113/993/100 118/211/101
f 119/179/53 120/1084/53 118/212/53
f 113/186/102 114/187/102 117/214/102
f 119/216/103 116/214/103 115/215/103
f 124/218/104 127/1085/104 125/219/104
f 124/221/105 122/235/105 121/222/105
f 123/223/106 121/1086/106 126/224/106
f 127/226/61 128/1087/61 126/227/61
f 121/229/107 122/230/107 125/175/107
f 127/180/108 124/391/108 123/230/108
f 135/231/109 133/237/109 130/232/109
f 131/221/65 132/238/65 130/234/65
f 136/231/110 131/258/110 129/236/110
f 135/238/68 136/260/68 134/239/68
f 129/217/111 130/216/111 133/240/112
f 132/240/113 131/241/113 136/242/113
f 143/244/114 141/1088/114 138/61/115
f 140/246/9 138/954/9 137/192/9
f 139/248/116 137/1089/116 142/67/116
f 144/250/11 142/1090/11 141/251/11
f 137/172/117 138/173/117 141/253/117
f 140/255/118 139/391/118 144/180/118
f 151/257/119 149/262/119 146/236/119
f 148/259/77 146/264/77 145/239/77
f 152/257/120 147/1091/120 145/261/120
f 152/263/80 150/45/80 149/264/80
f 150/265/121 145/1092/122 146/266/122
f 151/268/123 148/243/123 147/242/123
f 156/269/124 159/1093/124 157/270/124
f 156/272/125 154/1094/125 153/273/38
f 160/275/126 155/1095/126 153/276/126
f 160/278/35 158/1096/35 157/279/35
f 153/281/127 154/1097/127 157/282/127
f 156/284/128 155/1098/128 160/285/128
f 167/287/34 165/742/34 162/288/34
f 164/290/35 162/743/35 161/291/35
f 163/293/36 161/305/36 166/294/36
f 167/296/38 168/1099/38 166/297/38
f 166/299/39 161/1100/39 162/300/39
f 167/302/40 164/301/40 163/299/40
f 175/304/129 173/313/129 170/305/129
f 171/306/35 172/1101/35 170/307/35
f 176/309/130 171/1102/130 169/310/130
f 175/304/38 176/346/38 174/312/38
f 169/303/131 170/302/131 173/314/131
f 175/316/132 172/314/132 171/315/132
f 180/318/133 183/1103/133 181/319/133
f 180/321/80 178/1104/80 177/322/80
f 184/324/134 179/1105/135 177/325/135
f 184/327/77 182/1106/77 181/328/77
f 182/330/136 177/1107/136 178/331/136
f 180/333/137 179/680/137 184/334/137
f 188/336/119 191/1108/119 189/337/119
f 187/339/77 188/1109/77 186/340/77
f 187/342/120 185/868/120 190/343/120
f 192/345/80 190/964/80 189/312/80
f 185/347/138 186/1110/138 189/348/138
f 188/316/123 187/317/123 192/350/123
f 199/352/139 197/58/139 194/353/139
f 196/355/77 194/1060/77 193/356/77
f 195/358/140 193/117/140 198/359/141
f 199/361/80 200/1111/80 198/362/80
f 193/364/142 194/1112/142 197/365/142
f 196/367/143 195/1112/143 200/365/143
f 207/369/144 205/1113/144 202/370/144
f 203/372/68 204/1114/68 202/373/68
f 203/375/145 201/1115/145 206/376/146
f 208/378/65 206/1116/65 205/379/65
f 206/381/147 201/1117/147 202/382/147
f 207/384/148 204/1118/148 203/385/148
f 212/387/109 215/1119/109 213/229/109
f 211/389/65 212/1120/65 210/230/65
f 216/390/110 211/1121/110 209/391/110
f 216/392/68 214/255/68 213/393/68
f 214/395/149 209/350/149 210/351/149
f 212/397/113 211/1122/113 216/398/113
f 220/400/150 223/417/150 221/401/150
f 220/403/65 218/692/65 217/404/65
f 219/406/151 217/823/151 222/407/152
f 223/409/68 224/1123/68 222/410/68
f 217/398/153 218/399/153 221/412/153
f 220/412/154 219/413/154 224/414/154
f 231/416/99 229/449/99 226/401/99
f 228/418/50 226/271/50 225/419/50
f 232/421/100 227/1124/100 225/422/100
f 232/424/53 230/437/53 229/425/53
f 225/414/102 226/415/102 229/427/102
f 228/427/103 227/428/103 232/429/103
f 239/431/155 237/1125/155 234/422/155
f 235/433/53 236/1126/53 234/434/53
f 235/436/156 233/1127/156 238/437/156
f 239/439/157 240/1128/50 238/440/50
f 238/442/158 233/635/158 234/443/158
f 239/445/159 236/1129/159 235/446/159
f 244/416/160 247/482/160 245/448/160
f 244/450/50 242/522/50 241/451/50
f 248/453/161 243/1130/161 241/454/161
f 248/456/53 246/320/53 245/457/53
f 246/459/162 241/1131/162 242/349/162
f 244/430/163 243/429/163 248/461/163
f 255/463/164 253/1132/164 250/464/165
f 252/466/80 250/1133/80 249/467/80
f 251/469/166 249/1134/166 254/470/167
f 255/472/77 256/1135/77 254/473/77
f 249/475/168 250/1136/168 253/476/168
f 255/478/169 252/1137/169 251/479/169
f 263/481/76 261/495/76 258/448/76
f 260/483/77 258/370/77 257/484/77
f 259/486/79 257/376/79 262/487/79
f 263/489/80 264/1138/80 262/464/80
f 262/460/81 257/349/81 258/348/81
f 263/492/171 260/462/171 259/461/171
f 271/494/172 269/500/172 266/495/172
f 267/496/77 268/1139/77 266/497/77
f 267/499/173 265/513/173 270/500/173
f 271/501/80 272/1140/80 270/502/80
f 265/493/174 266/492/174 269/504/174
f 271/506/175 268/517/175 267/507/175
f 276/509/88 279/1141/88 277/510/88
f 275/499/35 276/515/35 274/512/35
f 275/514/90 273/516/90 278/512/90
f 279/514/38 280/544/38 278/24/38
f 273/517/92 274/1142/92 277/518/92
f 276/365/93 275/366/93 280/519/93
f 287/521/176 285/1143/176 282/522/176
f 283/524/125 284/1144/125 282/525/125
f 283/527/177 281/1145/177 286/454/177
f 287/529/35 288/1146/35 286/530/35
f 281/532/178 282/1147/178 285/533/178
f 284/535/179 283/1148/179 288/536/179
f 295/538/180 293/689/180 290/539/180
f 291/541/35 292/1149/35 290/542/35
f 291/543/181 289/546/181 294/24/181
f 295/543/38 296/570/38 294/545/38
f 294/520/182 289/365/182 290/368/182
f 295/548/183 292/396/183 291/395/183
f 303/550/184 301/1150/184 298/255/184
f 299/552/53 300/1151/53 298/553/53
f 304/555/185 299/1152/185 297/556/185
f 304/557/50 302/1153/50 301/558/50
f 302/560/186 297/1154/186 298/561/186
f 300/563/187 299/1155/187 304/564/187
f 311/566/48 309/761/48 306/106/48
f 308/568/50 306/826/50 305/104/50
f 312/570/51 307/573/51 305/571/51
f 312/572/53 310/908/53 309/571/53
f 305/397/54 306/917/54 309/574/54
f 308/574/55 307/399/55 312/412/55
f 319/576/188 317/580/188 314/577/188
f 316/579/50 314/582/50 313/580/50
f 320/579/189 315/584/189 313/581/189
f 320/583/53 318/588/53 317/581/53
f 313/412/190 314/575/190 317/585/190
f 316/585/191 315/415/191 320/427/191
f 324/583/192 327/590/192 325/587/192
f 324/589/65 322/592/65 321/587/65
f 323/591/193 321/594/193 326/592/193
f 327/591/68 328/617/68 326/593/68
f 321/427/194 322/586/194 325/595/194
f 324/460/195 323/459/195 328/596/195
f 332/598/196 335/1156/197 333/599/197
f 332/600/68 330/1157/68 329/601/68
f 331/603/198 329/1158/198 334/502/198
f 336/605/65 334/1159/65 333/606/65
f 329/608/199 330/1160/199 333/609/199
f 332/611/200 331/818/200 336/612/200
f 343/614/64 341/62/64 338/265/64
f 340/616/65 338/619/65 337/593/65
f 344/616/66 339/620/66 337/618/66
f 343/620/68 344/1161/68 342/621/68
f 337/430/69 338/595/294 341/622/69
f 340/491/201 339/460/201 344/597/201
f 348/387/109 351/1119/109 349/229/109
f 347/389/65 348/1120/65 346/230/65
f 352/390/110 347/1121/110 345/391/110
f 352/392/68 350/255/68 349/393/68
f 350/395/149 345/350/149 346/351/149
f 348/397/113 347/1122/113 352/398/113
f 359/266/45 357/1092/45 354/624/45
f 356/626/9 354/1162/9 353/627/9
f 355/129/42 353/105/42 358/629/42
f 360/631/11 358/626/11 357/628/11
f 353/35/202 354/1163/202 357/633/202
f 356/633/203 355/634/203 360/635/203
f 367/637/204 365/641/204 362/621/204
f 363/639/9 364/311/9 362/308/9
f 363/640/205 361/649/205 366/641/205
f 368/338/11 366/311/11 365/639/11
f 361/549/206 362/548/206 365/643/206
f 364/645/207 363/1164/207 368/646/207
f 375/648/72 373/720/72 370/649/72
f 372/341/9 370/338/9 369/642/9
f 371/651/73 369/700/73 374/652/73
f 375/654/11 376/343/11 374/341/11
f 369/655/74 370/1165/74 373/38/74
f 372/647/75 371/646/75 376/575/75
f 383/658/41 381/1166/41 378/659/41
f 380/661/42 378/343/42 377/654/42
f 379/663/43 377/1167/43 382/664/43
f 384/102/45 382/675/45 381/666/45
f 377/667/46 378/1168/46 381/668/46
f 380/670/47 379/1169/47 384/671/47
f 391/673/208 389/663/208 386/665/208
f 388/131/42 386/388/42 385/675/42
f 392/676/209 387/800/209 385/673/209
f 392/407/45 390/404/45 389/677/45
f 390/679/210 385/1170/210 386/680/210
f 391/682/211 388/1171/211 387/683/211
f 399/685/212 397/1172/212 394/653/212
f 395/687/45 396/1173/45 394/688/45
f 400/690/213 395/1174/213 393/691/213
f 399/693/42 400/1175/42 398/694/42
f 393/462/214 394/1176/214 397/695/214
f 396/697/215 395/505/215 400/698/215
f 407/277/216 405/702/216 402/700/216
f 403/19/27 404/411/27 402/407/27
f 403/701/217 401/710/217 406/702/217
f 408/703/31 406/738/31 405/704/31
f 406/706/218 401/575/218 402/657/218
f 404/708/219 403/1165/219 408/38/219
f 415/709/220 413/713/220 410/710/220
f 411/711/27 412/419/27 410/411/27
f 411/712/221 409/734/221 414/713/221
f 416/423/31 414/419/31 413/711/31
f 414/714/32 409/706/32 410/707/32
f 412/596/33 411/708/33 416/42/33
f 420/716/222 423/1177/222 421/379/222
f 419/718/31 420/1178/31 418/719/31
f 419/721/223 417/758/223 422/722/223
f 423/724/27 424/1179/27 422/725/27
f 422/727/224 417/750/224 418/728/224
f 423/730/225 420/1180/225 419/731/225
f 431/733/226 429/736/226 426/734/226
f 427/735/9 428/425/9 426/423/9
f 427/470/227 425/768/227 430/736/227
f 432/737/11 430/773/11 429/738/11
f 425/714/228 426/715/228 429/739/228
f 428/739/229 427/586/229 432/740/229
f 439/717/230 437/896/230 434/742/230
f 435/744/9 436/451/9 434/425/9
f 435/745/116 433/717/116 438/743/116
f 440/455/11 438/451/11 437/744/11
f 433/596/117 434/597/117 437/748/117
f 436/741/118 435/740/118 440/749/118
f 447/751/231 445/467/231 442/752/231
f 444/754/9 442/1181/9 441/755/9
f 443/757/232 441/791/232 446/758/232
f 447/759/11 448/1182/11 446/760/11
f 441/632/233 442/1183/233 445/762/233
f 444/764/234 443/855/234 448/765/234
f 452/470/235 455/770/235 453/767/235
f 451/769/105 452/457/105 450/455/105
f 456/770/236 451/777/236 449/771/236
f 456/772/61 454/802/61 453/773/61
f 449/597/237 450/623/237 453/774/237
f 455/727/238 452/750/238 451/749/238
f 460/775/104 463/1184/104 461/752/104
f 460/484/105 458/457/105 457/769/105
f 464/777/106 459/849/106 457/778/106
f 464/487/61 462/484/61 461/776/61
f 457/622/107 458/727/107 461/780/107
f 460/780/108 459/781/108 464/782/108
f 471/784/239 469/474/239 466/785/239
f 468/787/61 466/1185/61 465/788/61
f 472/757/240 467/887/240 465/790/240
f 472/792/105 470/1186/105 469/793/105
f 465/727/241 466/729/241 469/795/241
f 468/795/242 467/780/242 472/783/242
f 476/666/243 479/1187/243 477/797/243
f 476/490/45 474/487/45 473/779/45
f 480/799/244 475/1188/244 473/800/244
f 480/801/42 478/843/42 477/802/42
f 473/803/245 474/1189/245 477/804/245
f 476/806/246 475/1189/246 480/804/246
f 487/808/247 485/1190/247 482/155/247
f 484/810/45 482/817/45 481/811/45
f 488/813/95 483/1191/95 481/814/95
f 488/816/42 486/294/42 485/817/42
f 486/668/97 481/1168/97 482/818/97
f 484/820/98 483/670/98 488/672/98
f 495/822/248 493/1192/248 490/823/248
f 492/825/42 490/1193/42 489/826/42
f 491/828/249 489/1194/249 494/410/249
f 496/830/45 494/1195/45 493/170/45
f 489/832/250 490/1196/250 493/833/250
f 492/835/251 491/508/251 496/836/251
f 503/838/252 501/785/252 498/307/252
f 500/839/27 498/490/27 497/798/27
f 499/841/253 497/838/253 502/310/253
f 503/801/31 504/871/31 502/842/31
f 497/782/254 498/783/254 501/844/254
f 503/846/255 500/844/255 499/845/255
f 511/848/256 509/873/256 506/778/256
f 508/503/27 506/498/27 505/850/27
f 512/340/257 507/869/258 505/841/258
f 511/852/31 512/1197/31 510/503/31
f 505/853/86 506/1198/86 509/854/86
f 508/856/87 507/1198/87 512/854/87
f 516/857/259 519/1199/259 517/606/259
f 515/858/31 516/1200/31 514/859/31
f 520/861/260 515/1201/261 513/220/261
f 520/862/27 518/1202/27 517/863/27
f 518/642/262 513/1203/262 514/865/262
f 519/867/263 516/796/263 515/783/263
f 524/868/264 527/880/264 525/869/264
f 524/870/105 522/875/105 521/842/105
f 528/848/265 523/884/265 521/872/265
f 527/870/61 528/881/61 526/874/61
f 526/876/266 521/644/266 522/643/266
f 524/878/267 523/643/267 528/877/267
f 532/879/268 535/62/268 533/880/268
f 531/881/105 532/74/105 530/882/105
f 531/883/269 529/54/269 534/872/270
f 535/71/61 536/73/61 534/539/61
f 534/20/62 529/1204/62 530/656/62
f 532/38/63 531/656/63 536/886/63
f 540/887/271 543/906/271 541/888/271
f 539/889/61 540/1205/61 538/890/61
f 539/892/272 537/224/272 542/869/273
f 543/894/105 544/1206/105 542/895/105
f 537/844/274 538/867/274 541/897/274
f 540/898/275 539/856/275 544/629/275
f 551/900/276 549/977/276 546/880/276
f 548/902/9 546/1207/9 545/903/9
f 547/905/277 545/1208/277 550/888/277
f 552/907/11 550/1209/11 549/908/11
f 545/854/278 546/1210/278 549/910/278
f 548/911/279 547/645/279 552/647/279
f 559/913/8 557/1211/8 554/914/8
f 556/916/9 554/922/9 553/917/9
f 555/919/10 553/1212/10 558/55/10
f 560/921/11 558/1164/11 557/922/11
f 553/923/12 554/1213/12 557/924/12
f 556/52/13 555/957/13 560/926/13
f 567/928/8 565/1214/8 562/929/8
f 564/930/9 562/1215/9 561/931/9
f 563/932/10 561/1216/10 566/933/10
f 568/935/11 566/1217/11 565/936/11
f 561/937/12 562/1218/12 565/938/12
f 564/940/13 563/1219/13 568/941/13
f 575/943/8 573/1220/8 570/944/8
f 572/946/9 570/655/9 569/947/9
f 571/949/10 569/1221/10 574/883/10
f 576/951/11 574/853/11 573/952/11
f 569/954/12 570/1222/12 573/955/12
f 572/957/13 571/1223/13 576/958/13
f 583/959/8 581/1224/8 578/960/8
f 580/961/9 578/1225/9 577/510/9
f 579/963/10 577/1226/10 582/964/10
f 584/966/11 582/1227/11 581/967/11
f 577/968/12 578/1228/12 581/969/12
f 580/115/13 579/1229/13 584/971/13
f 591/973/8 589/968/8 586/974/8
f 588/976/9 586/1230/9 585/977/9
f 587/979/10 585/1231/10 590/980/10
f 592/982/11 590/1232/11 589/983/11
f 585/26/12 586/40/12 589/744/12
f 588/985/13 587/40/13 592/744/13
f 599/986/8 597/1233/8 594/987/8
f 596/989/9 594/1003/9 593/990/9
f 595/992/10 593/1234/10 598/993/10
f 600/994/11 598/1235/11 597/995/11
f 593/647/12 594/87/12 597/997/12
f 596/999/13 595/1236/13 600/1000/13
f 607/1002/8 605/1008/8 602/1003/8
f 604/1004/12 602/1237/12 601/1005/12
f 603/1007/10 601/1010/10 606/1008/10
f 608/1009/13 606/1015/13 605/1010/13
f 601/985/11 602/1238/11 605/779/11
f 604/41/9 603/1238/9 608/779/9
f 615/1011/8 613/1239/8 610/1012/8
f 612/1014/12 610/1020/12 609/1015/12
f 611/1016/10 609/1240/10 614/1017/10
f 616/1019/13 614/77/13 613/1020/13
f 609/763/11 610/659/11 613/852/11
f 612/664/9 611/765/9 616/885/9
f 623/1022/8 621/1241/8 618/715/8
f 620/1024/9 618/1242/9 617/1025/9
f 619/1026/10 617/1243/10 622/1027/10
f 624/1029/11 622/1244/11 621/1030/11
f 617/1031/12 618/1245/12 621/1032/12
f 620/1034/13 619/1246/13 624/1035/13
f 631/1037/280 629/1247/280 626/506/280
f 627/47/2 628/1045/2 626/1038/2
f 627/1039/281 625/1248/281 630/1040/281
f 631/13/4 632/15/4 630/1042/4
f 625/47/282 626/1249/295 629/1044/282
f 628/1046/284 627/1041/284 632/1039/284
