# Made in Blockbench 5.1.6
mtllib vanderer_h.mtl

o mesh
v 0.3373555326611073 2.00696935766632 0.360187611774805
v 0.3482084763319855 2.1401503095580705 -0.26534413297734194
v 0.3047964993485579 1.8290335936615976 0.31084165715025636
v 0.3047964319152529 1.9029026242184408 -0.3311387391434068
v -0.15504846439821438 2.0656361886584698 0.38339013050960796
v -0.1669867548002075 2.1659101377891097 -0.234070199526846
v -0.18760749771076382 1.8877004246537474 0.3340441758850593
v -0.18760729940882373 2.063238864811163 -0.27020848692172833
v -0.3373557569435959 2.0074434221183655 0.3514794635861109
v -0.3482084997459367 2.157229964388456 -0.2468217687645695
v -0.3047964442331652 1.8045242078075647 0.30147943385784454
v -0.304796455329204 1.9199822790488261 -0.31261637493063427
v 0.2960450786481665 2.129860265221798 0.2619853308952451
v 0.2210987626717064 2.236167332827434 -0.29974133526091407
v 0.3101390290732916 1.948787254383998 0.19301928468260382
v 0.2732085442045225 2.067937456075701 -0.3498623167120079
v 0.26516504294495546 2.183757126851042 0.057105209096272466
v 5.551115123125783e-17 2.2183681102165136 -0.20579131014746924
v 0.26516504294495535 1.9358959115075893 0.024473661041259573
v 7.632783294297951e-17 1.9705068948730609 -0.23842285820248216
v 1.1796119636642288e-16 2.149146143485571 0.3200017283400142
v -0.26516504294495535 2.183757126851042 0.05710520909627241
v 6.591949208711867e-17 1.901284928142118 0.2873701802850013
v -0.2651650429449553 1.9358959115075893 0.024473661041259615
v 0.29375 2 0.29374999999999984
v 0.29375000000000007 2 -0.2937500000000001
v 0.29375 1.8125 0.29374999999999984
v 0.29375000000000007 1.8625000000000003 -0.2937500000000001
v -0.29374999999999984 2 0.2937499999999999
v -0.29374999999999984 2 -0.2937500000000001
v -0.29374999999999996 1.8125 0.2937499999999999
v -0.2937499999999999 1.8625000000000003 -0.29375000000000007
v 0.11141368242816199 1.919163183652965 0.2979108482043096
v 0.111413682428162 1.9178000777977982 0.26669059127987643
v 0.1982374851279327 1.4272278300560515 0.3068891873409778
v 0.19823748512793277 1.4258647242008848 0.2756689304165449
v -0.073237771261627 1.8866351393256378 0.2993310532906105
v -0.07323777126162698 1.8852720334704711 0.26811079636617746
v 0.01358603143814374 1.3946997857287247 0.3083093924272789
v 0.013586031438143754 1.393336679873558 0.2770891355028458
v -0.11141368242816191 1.9191631836529648 0.28541084820430945
v -0.11141368242816185 1.9178000777977982 0.2541905912798764
v -0.19823748512793266 1.4272278300560517 0.2943891873409778
v -0.19823748512793257 1.4258647242008853 0.2631689304165449
v 0.07323777126162714 1.8866351393256378 0.2868310532906105
v 0.07323777126162712 1.8852720334704711 0.2556107963661774
v -0.013586031438143617 1.3946997857287244 0.2958093924272787
v -0.013586031438143631 1.3933366798735578 0.26458913550284574
vt 0.4840071875 0.387710625
vt 0.46856609375 0.546875
vt 0.4222428125 0.5397042187500001
vt 0.4222428125 0.37814953124999995
vt 0.21875171875 0.34269171875000004
vt 0.26562328125 0.3432546875
vt 0.246403125 0.49848499999999996
vt 0.21875171875 0.5
vt 0.296875 0.5260773437499999
vt 0.296875 0.65018453125
vt 0.140625 0.65625
vt 0.1442290625 0.5273703125
vt 0.125 0.484375
vt 0.125 0.64592953125
vt 0.003233125 0.65001484375
vt 0 0.49492531250000005
vt 0.72108984375 0.953125
vt 0.72333 1
vt 0.59922265625 1
vt 0.5969825 0.953125
vt 0.6062871875 0.74686671875
vt 0.48175 0.78125
vt 0.4718378125 0.71875
vt 0.6021796875 0.71875
vt 0.625 0.80551703125
vt 0.625 0.85839421875
vt 0.4705078125 0.859375
vt 0.46875 0.7969121875
vt 0.046875 0.32307234375000005
vt 0.046875 0.467219375
vt 0 0.45922640625
vt 0.00315875 0.3203125
vt 0.14485421875 0.67502546875
vt 0.16337140625 0.828125
vt 0.00069109375 0.8212628125
vt 0.00069109375 0.67723125
vt 0.16345203125 0.99655015625
vt 0.0032328125 0.99655015625
vt 0.03571234375 0.84375
vt 0.1842671875 0.8589848437500001
vt 0.1953125 0.33717484374999995
vt 0.1953125 0.5
vt 0.140625 0.4999003125
vt 0.14545015625 0.33988765624999995
vt 0.31258 0.36617437500000005
vt 0.375 0.36933562499999995
vt 0.35826046875 0.51265828125
vt 0.31258 0.515625
vt 0.40625 0.65625
vt 0.3125 0.65625
vt 0.3125 0.53125
vt 0.40625 0.53125
vt 0.453125 0.703125
vt 0.453125 0.828125
vt 0.359375 0.828125
vt 0.359375 0.703125
vt 0.484375 0.90625
vt 0.578125 0.90625
vt 0.578125 1
vt 0.484375 1
vt 0.59375 0.453125
vt 0.59375 0.546875
vt 0.5 0.546875
vt 0.5 0.453125
vt 0.46875 0.875
vt 0.46875 1
vt 0.375 1
vt 0.375 0.875
vt 0.515625 0.6875
vt 0.421875 0.6875
vt 0.421875 0.5625
vt 0.515625 0.5625
vt 0.6796875 0.703125
vt 0.53125 0.703125
vt 0.53125 0.65625
vt 0.6796875 0.66875
vt 0.6796875 0.59375
vt 0.6796875 0.640625
vt 0.53125 0.640625
vt 0.53125 0.60625
vt 0.1875 0.6796875
vt 0.3359375 0.6796875
vt 0.3359375 0.828125
vt 0.1875 0.828125
vt 0.203125 1
vt 0.203125 0.8515625
vt 0.3515625 0.8515625
vt 0.3515625 1
vt 0.6484375 0.390625
vt 0.6484375 0.4375
vt 0.5 0.4375
vt 0.5 0.390625
vt 0.7578125 0.515625
vt 0.609375 0.515625
vt 0.609375 0.484375
vt 0.7578125 0.484375
vt 0.4007828125 0.515625
vt 0.3929703125 0.515625
vt 0.3960921875 0.390625
vt 0.4039046875 0.390625
vt 0.6134265625 0.4609375
vt 0.73833125 0.4609375
vt 0.7381359375 0.46875
vt 0.61323125 0.46875
vt 0.359375 0.6796875
vt 0.40625 0.6796875
vt 0.40625 0.6875
vt 0.359375 0.6875
vt 0.421875 0.8515625
vt 0.421875 0.859375
vt 0.375 0.859375
vt 0.375 0.8515625
vt 0.109375 0.34375
vt 0.109375 0.46875
vt 0.0625 0.46875
vt 0.0625 0.34375
vt 0.71875 0.890625
vt 0.71875 0.9375
vt 0.59375 0.9375
vt 0.59375 0.890625
vt 0.6290515625 0.7734375
vt 0.75395625 0.7734375
vt 0.7537609375 0.78125
vt 0.62885625 0.78125
vt 0.2914078125 0.5
vt 0.2835953125 0.5
vt 0.2867171875 0.375
vt 0.2945296875 0.375
vt 0.484375 0.890625
vt 0.484375 0.8828125
vt 0.53125 0.8828125
vt 0.53125 0.890625
vt 0.578125 0.578125
vt 0.53125 0.578125
vt 0.53125 0.5703125
vt 0.578125 0.5703125
vt 0.734375 0.53125
vt 0.734375 0.578125
vt 0.609375 0.578125
vt 0.609375 0.53125
vt 0.546875 0.25
vt 0.546875 0.375
vt 0.5 0.375
vt 0.5 0.25
vn 0.9844408457703743 -0.17456449774599284 -0.02008624667775669
vn -0.9848077354291312 0.16738316847624765 0.04622336151556448
vn 0.12539205784262514 0.9699125230691642 0.20867805208885748
vn -0.1228123226378226 -0.985924656102866 -0.11344472617424359
vn 0.0132680723342737 -0.26946855296205974 0.9629177832094837
vn -0.04458084146396194 0.2745393286283817 -0.9605418812371707
vn -0.9879409096395283 -0.15346817281299016 -0.020500707160082888
vn 0.9869319479522571 0.11843441188308562 -0.10926399312248725
vn -0.15092555039296468 0.9583015085191873 0.2426513898753331
vn 0.19420002923817722 -0.9640704949221907 -0.18125790869469224
vn 0.1762604085676984 -0.20874733473682114 0.9619546863609646
vn -0.12326751828554382 0.24419177545332743 -0.9618604346456272
vn 0.7071067811865476 0.09229595564125688 -0.701057384649978
vn -0.7071067811865475 -0.09229595564125723 0.701057384649978
vn 3.608224830031758e-16 0.9914448613738104 0.13052619222005163
vn -7.494005416219807e-16 -0.9914448613738106 -0.13052619222005118
vn 0.7071067811865478 -0.09229595564125734 0.7010573846499778
vn -0.7071067811865474 0.09229595564125721 -0.7010573846499781
vn 1 -1.0536097564793589e-16 5.191371177453395e-17
vn -1 3.4818469551681104e-16 -5.745184063811488e-17
vn 1.6653345369377343e-16 1 1.1102230246251563e-16
vn -2.220446049250313e-16 -0.9963980072059784 -0.08479983040050923
vn 4.85722573273506e-17 0 1
vn -4.85722573273506e-17 -2.7755575615628914e-16 -1
vn 0.9847749241077087 0.1736688051389415 -0.0075825437861596
vn -0.9847749241077086 -0.17366880513894156 0.007582543786158786
vn -0.17364817766693075 0.9838704342468719 -0.042956710859021856
vn 0.17364817766692967 -0.9838704342468725 0.042956710859015645
vn 0.004340385748529241 0.019013637082885837 0.9998098032408136
vn -0.004340385748529484 -0.019013637082886115 -0.9998098032408136
vn -0.9847749241077087 0.17366880513894153 -0.007582543786161612
vn 0.9847749241077087 -0.17366880513894148 0.007582543786159766
vn 0.17364817766693036 0.9838704342468721 -0.042956710859022085
vn -0.1736481776669313 -0.9838704342468723 0.04295671085901548
vn -0.004340385748529636 0.019013637082886226 0.9998098032408136
vn 0.004340385748529316 -0.019013637082886278 -0.9998098032408136
usemtl m_fe691e0e-9ee5-50b7-4ae0-2307f17d3079
f 2/1/1 1/2/1 3/3/1 4/4/1
f 7/5/2 5/6/2 6/7/2 8/8/2
f 5/9/3 1/10/3 2/11/3 6/12/3
f 4/13/4 3/14/4 7/15/4 8/16/4
f 3/17/5 1/18/5 5/19/5 7/20/5
f 6/21/6 2/22/6 4/23/6 8/24/6
f 11/25/7 9/26/7 10/27/7 12/28/7
f 14/29/8 13/30/8 15/31/8 16/32/8
f 10/33/9 9/34/9 13/35/9 14/36/9
f 15/37/10 11/38/10 12/39/10 16/40/10
f 13/41/11 9/42/11 11/43/11 15/44/11
f 12/45/12 10/46/12 14/47/12 16/48/12
f 18/49/13 17/50/13 19/51/13 20/52/13
f 23/53/14 21/54/14 22/55/14 24/56/14
f 21/57/15 17/58/15 18/59/15 22/60/15
f 20/61/16 19/62/16 23/63/16 24/64/16
f 19/65/17 17/66/17 21/67/17 23/68/17
f 22/69/18 18/70/18 20/71/18 24/72/18
f 26/73/19 25/74/19 27/75/19 28/76/19
f 31/77/20 29/78/20 30/79/20 32/80/20
f 29/81/21 25/82/21 26/83/21 30/84/21
f 28/85/22 27/86/22 31/87/22 32/88/22
f 27/89/23 25/90/23 29/91/23 31/92/23
f 30/93/24 26/94/24 28/95/24 32/96/24
f 34/97/25 33/98/25 35/99/25 36/100/25
f 39/101/26 37/102/26 38/103/26 40/104/26
f 37/105/27 33/106/27 34/107/27 38/108/27
f 36/109/28 35/110/28 39/111/28 40/112/28
f 35/113/29 33/114/29 37/115/29 39/116/29
f 38/117/30 34/118/30 36/119/30 40/120/30
f 43/121/31 41/122/31 42/123/31 44/124/31
f 46/125/32 45/126/32 47/127/32 48/128/32
f 42/129/33 41/130/33 45/131/33 46/132/33
f 47/133/34 43/134/34 44/135/34 48/136/34
f 45/137/35 41/138/35 43/139/35 47/140/35
f 44/141/36 42/142/36 46/143/36 48/144/36
