# Made in Blockbench 5.2.0
mtllib vietnamese_basic_h.mtl

o plane
v 0.0052061095619750745 2.248268580080738 0.007392109053057221
v 0.005037382519396095 1.9572049129968363 -0.6119188575793015
v -0.4251440248061718 1.950986277313389 -0.4338404310739262
v 0.004807640438024926 2.2483021530323275 0.006430705507879676
v 0.004976367480603989 1.9147465532292944 0.6039294867011755
v 0.43515777480617196 1.9209651889127413 0.42585106019579994
v 0.00452588021838632 2.248278413370594 0.007110520474131516
v 0.6133016038534824 1.9359746684159926 -0.003964196504023645
v 0.43511463065848766 1.9509877830224287 -0.4338835489393614
v 0.005487869781613709 2.248292319742471 0.006712294086805395
v -0.6032878538534825 1.9359767978101377 -0.004025174374102561
v -0.42510088065848756 1.9209636832037018 0.42589417806123514
v 0.0052061095619751205 2.2483021530323275 0.006430705507879742
v -0.4251440248061717 1.9209651889127417 0.42585106019580005
v 0.005037382519396178 1.9147465532292944 0.6039294867011755
v 0.004807640438024931 2.248268580080738 0.007392109053057221
v 0.43515777480617174 1.9509862773133888 -0.43384043107392617
v 0.004976367480603878 1.9572049129968359 -0.6119188575793014
v 0.0054878697816136916 2.248278413370594 0.007110520474131505
v -0.42510088065848745 1.9509877830224287 -0.4338835489393614
v -0.6032878538534825 1.9359746684159926 -0.00396419650402359
v 0.004525880218386332 2.248292319742471 0.006712294086805393
v 0.4351146306584876 1.920963683203702 0.4258941780612351
v 0.6133016038534824 1.9359767978101379 -0.004025174374102561
v 0.27031250000000007 1.2649001562833817 -0.2752925093436001
v 0.27031250000000007 1.4822439997126349 -0.2505293063318704
v -0.2703125 1.2649001562833817 -0.27529250934360006
v -0.2703125 1.482243999712635 -0.2505293063318704
v -0.2670250502456329 1.4548888139072436 0.21152941466901654
v -0.2670250502456329 1.4723385622584944 -0.28816599884053135
v -0.31606198507553607 2.077582588050508 0.2332743604198198
v -0.316061985075536 2.0950323364017582 -0.26642105308972797
v 0.267025050245633 1.4548888139072438 0.21152941466901654
v 0.26702505024563294 1.4723385622584941 -0.28816599884053135
v 0.3160619850755361 2.077582588050508 0.23327436041981991
v 0.3160619850755362 2.0950323364017582 -0.26642105308972797
v 0.005206109561975079 2.249830128247955 0.007446639516654885
v 0.005037382519396095 1.9587664611640532 -0.6118643271157039
v -0.4251440248061718 1.9525478254806061 -0.43378590061032857
v 0.004807640438024926 2.249863701199544 0.006485235971477316
v 0.004976367480604016 1.9163081013965113 0.6039840171647732
v 0.43515777480617196 1.9225267370799586 0.42590559065939754
v 0.00452588021838632 2.249839961537811 0.007165050937729156
v 0.6133016038534824 1.9375362165832097 -0.003909666040426016
v 0.4351146306584874 1.9525493311896454 -0.43382901847576366
v 0.005487869781613709 2.249853867909688 0.006766824550403051
v -0.6032878538534825 1.9375383459773547 -0.003970643910504876
v -0.42510088065848756 1.9225252313709187 0.42594870852483285
v 0.0052061095619751205 2.249863701199544 0.006485235971477382
v -0.42514402480617164 1.9225267370799588 0.42590559065939776
v 0.005037382519396206 1.9163081013965115 0.6039840171647732
v 0.004807640438024931 2.249830128247955 0.0074466395166548766
v 0.4351577748061718 1.9525478254806061 -0.43378590061032846
v 0.004976367480603905 1.9587664611640532 -0.6118643271157039
v 0.0054878697816136916 2.249839961537811 0.007165050937729145
v -0.42510088065848745 1.9525493311896454 -0.4338290184757637
v -0.6032878538534825 1.9375362165832097 -0.003909666040426016
v 0.004525880218386332 2.249853867909688 0.006766824550403049
v 0.4351146306584876 1.922525231370919 0.42594870852483274
v 0.6133016038534824 1.9375383459773547 -0.0039706439105049035
vt 0.11137171968046332 0.828125
vt 0.0019095303195366675 0.6966529866134016
vt 0.11137171968046333 0.6570493991575266
vt 0.25199671968046333 0.828125
vt 0.14253453031953667 0.6966529866134016
vt 0.25199671968046333 0.6570493991575266
vt 0.39262171968046333 1
vt 0.28315953031953667 0.8685279866134016
vt 0.39262171968046333 0.8289243991575266
vt 0.36137171968046333 0.734375
vt 0.25190953031953667 0.6029029866134016
vt 0.36137171968046333 0.5632993991575266
vt 0.5000871893609267 0.90625
vt 0.390625 0.7747779866134016
vt 0.5000871893609267 0.7351743991575266
vt 0.46883718936092666 0.640625
vt 0.359375 0.5091529866134016
vt 0.46883718936092666 0.4695493991575266
vt 0.26953125 0.5625
vt 0.16006906063907334 0.4310279866134016
vt 0.26953125 0.3914243991575266
vt 0.16015625 0.65625
vt 0.050694060639073335 0.5247779866134016
vt 0.16015625 0.4851743991575266
vt 0.76171875 0.6015625
vt 0.76171875 0.65625
vt 0.625 0.65625
vt 0.625 0.6015625
vt 0.140625 0.84375
vt 0.265625 0.84375
vt 0.265625 1
vt 0.140625 1
vt 0.125 1
vt 0.125 0.84375
vt 0 0.84375
vt 0 1
vt 0.7203950593723312 0.3924857564037524
vt 0.6109329930751997 0.26101555244753083
vt 0.7203950593723311 0.2214116248515854
vt 0.6113716581485658 0.484375
vt 0.5019095918514342 0.35290479604377833
vt 0.6113716581485658 0.3133008684478331
vt 0.7203950593723312 0.3885795064037524
vt 0.6109329930751997 0.2571093024475307
vt 0.7203950593723312 0.2175053748515855
vt 0.11137165814856576 0.46875
vt 0.0019095918514342308 0.33727979604377833
vt 0.11137165814856577 0.2976758684478331
vt 0.7199946251484147 0.3924857564037524
vt 0.6105325588512831 0.2610155524475307
vt 0.7199946251484146 0.2214116248515854
vt 0.7188370662971315 0.390625
vt 0.609375 0.25915479604377833
vt 0.7188370662971315 0.21955086844783311
vt 0.37890625 0.46875
vt 0.2694441837028685 0.33727979604377833
vt 0.37890625 0.2976758684478331
vt 0.64453125 0.90625
vt 0.5350691837028685 0.7747797960437783
vt 0.64453125 0.7351758684478331
vn -0.18584750380728204 0.8892833145020174 -0.41789459421833725
vn 0.1858475038072826 0.8579662117537098 0.478909892169279
vn 0.44867556422472593 0.8801107474741539 -0.15522664155392296
vn -0.44867556422472554 0.8671387787815735 0.21624193950486487
vn -0.18584750380728246 0.8579662117537101 0.4789098921692788
vn 0.18584750380728157 0.8892833145020173 -0.4178945942183376
vn -0.448675564224726 0.880110747474154 -0.15522664155392302
vn 0.4486755642247251 0.8671387787815735 0.21624193950486528
vn 5.551115123125783e-17 -0.11320321376790692 0.9935718556765875
vn 0.9969173337331281 0.07841130056662149 0.002738182952635171
vn -0.9969173337331281 0.07841130056662152 0.0027381829526352264
vn -0.1858475038072817 0.8892833145020173 -0.41789459421833736
vn 0.18584750380728204 0.8579662117537102 0.4789098921692789
vn 0.4486755642247257 0.8801107474741539 -0.15522664155392346
vn -0.4486755642247259 0.8671387787815734 0.21624193950486503
vn -0.18584750380728188 0.8579662117537104 0.4789098921692788
vn 0.18584750380728182 0.8892833145020173 -0.4178945942183375
vn -0.44867556422472576 0.8801107474741541 -0.1552266415539234
vn 0.44867556422472543 0.8671387787815734 0.21624193950486537
usemtl m_e99bc454-8800-9b0d-34a7-550025114a59
f 1/1/1 2/2/1 3/3/1
f 4/4/2 5/5/2 6/6/2
f 7/7/3 8/8/3 9/9/3
f 10/10/4 11/11/4 12/12/4
f 13/13/5 14/14/5 15/15/5
f 16/16/6 17/17/6 18/18/6
f 19/19/7 20/20/7 21/21/7
f 22/22/8 23/23/8 24/24/8
f 25/25/9 26/26/9 28/27/9 27/28/9
f 29/29/10 30/30/10 32/31/10 31/32/10
f 36/33/11 34/34/11 33/35/11 35/36/11
f 37/37/12 38/38/12 39/39/12
f 40/40/13 41/41/13 42/42/13
f 43/43/14 44/44/14 45/45/14
f 46/46/15 47/47/15 48/48/15
f 49/49/16 50/50/16 51/51/16
f 52/52/17 53/53/17 54/54/17
f 55/55/18 56/56/18 57/57/18
f 58/58/19 59/59/19 60/60/19
